<?xml version="1.0" encoding="us-ascii" standalone="no"?><svg xmlns="http://www.w3.org/2000/svg" xmlns:xlink="http://www.w3.org/1999/xlink" contentStyleType="text/css" height="662.4px" preserveAspectRatio="none" style="width:606px;height:662px;background:#FFFFFF;" version="1.1" viewBox="0 0 606 662" width="606.4px" zoomAndPan="magnify"><defs/><g><text fill="#000000" font-family="sans-serif" font-size="22.4" font-weight="bold" lengthAdjust="spacing" textLength="561.6" x="16" y="48.1719">System Sequence Diagram (SSD) - Alternative One</text><rect fill="#FFFFFF" height="301.9938" style="stroke:#181818;stroke-width:1.6000000000000003;" width="16" x="113.6" y="213.1875"/><rect fill="#FFFFFF" height="50.0656" style="stroke:#181818;stroke-width:1.6000000000000003;" width="16" x="443.2" y="250.4531"/><rect fill="#FFFFFF" height="50.0656" style="stroke:#181818;stroke-width:1.6000000000000003;" width="16" x="443.2" y="350.5844"/><rect fill="#FFFFFF" height="50.0656" style="stroke:#181818;stroke-width:1.6000000000000003;" width="16" x="443.2" y="450.7156"/><line style="stroke:#181818;stroke-width:0.8000000000000002;stroke-dasharray:5.0,5.0;" x1="121.6" x2="121.6" y1="197.1875" y2="529.5813"/><line style="stroke:#181818;stroke-width:0.8000000000000002;stroke-dasharray:5.0,5.0;" x1="451.2" x2="451.2" y1="197.1875" y2="529.5813"/><text fill="#000000" font-family="sans-serif" font-size="22.4" lengthAdjust="spacing" textLength="48" x="92.8" y="191.5656">HRM</text><ellipse cx="121.6" cy="84.9938" fill="#E3E3E3" rx="12.8" ry="12.8" style="stroke:#181818;stroke-width:0.8000000000000002;"/><path d="M121.6,97.7938 L121.6,140.9938 M100.8,110.5938 L142.4,110.5938 M121.6,140.9938 L100.8,164.9938 M121.6,140.9938 L142.4,164.9938 " fill="none" style="stroke:#181818;stroke-width:0.8000000000000002;"/><text fill="#000000" font-family="sans-serif" font-size="22.4" lengthAdjust="spacing" textLength="48" x="92.8" y="552.1531">HRM</text><ellipse cx="121.6" cy="571.375" fill="#E3E3E3" rx="12.8" ry="12.8" style="stroke:#181818;stroke-width:0.8000000000000002;"/><path d="M121.6,584.175 L121.6,627.375 M100.8,596.975 L142.4,596.975 M121.6,627.375 L100.8,651.375 M121.6,627.375 L142.4,651.375 " fill="none" style="stroke:#181818;stroke-width:0.8000000000000002;"/><rect fill="#E3E3E3" height="52.1938" rx="4" ry="4" style="stroke:#181818;stroke-width:0.8000000000000002;" width="102.4" x="400" y="143.3938"/><text fill="#000000" font-family="sans-serif" font-size="22.4" lengthAdjust="spacing" textLength="80" x="411.2" y="178.7656">:System</text><rect fill="#E3E3E3" height="52.1938" rx="4" ry="4" style="stroke:#181818;stroke-width:0.8000000000000002;" width="102.4" x="400" y="527.9813"/><text fill="#000000" font-family="sans-serif" font-size="22.4" lengthAdjust="spacing" textLength="80" x="411.2" y="563.3531">:System</text><rect fill="#FFFFFF" height="301.9938" style="stroke:#181818;stroke-width:1.6000000000000003;" width="16" x="113.6" y="213.1875"/><rect fill="#FFFFFF" height="50.0656" style="stroke:#181818;stroke-width:1.6000000000000003;" width="16" x="443.2" y="250.4531"/><rect fill="#FFFFFF" height="50.0656" style="stroke:#181818;stroke-width:1.6000000000000003;" width="16" x="443.2" y="350.5844"/><rect fill="#FFFFFF" height="50.0656" style="stroke:#181818;stroke-width:1.6000000000000003;" width="16" x="443.2" y="450.7156"/><polygon fill="#181818" points="424,244.0531,440,250.4531,424,256.8531,430.4,250.4531" style="stroke:#181818;stroke-width:1.6000000000000003;"/><line style="stroke:#181818;stroke-width:1.6000000000000003;" x1="129.6" x2="433.6" y1="250.4531" y2="250.4531"/><text fill="#000000" font-family="sans-serif" font-size="20.8" font-weight="bold" lengthAdjust="spacing" textLength="11.2" x="140.8" y="242.0328">1</text><text fill="#000000" font-family="sans-serif" font-size="20.8" lengthAdjust="spacing" textLength="193.6" x="158.4" y="242.0328">ask to register a skill</text><polygon fill="#181818" points="147.2,294.1188,131.2,300.5188,147.2,306.9188,140.8,300.5188" style="stroke:#181818;stroke-width:1.6000000000000003;"/><line style="stroke:#181818;stroke-width:1.6000000000000003;stroke-dasharray:2.0,2.0;" x1="137.6" x2="449.6" y1="300.5188" y2="300.5188"/><text fill="#000000" font-family="sans-serif" font-size="20.8" font-weight="bold" lengthAdjust="spacing" textLength="11.2" x="156.8" y="292.0984">2</text><text fill="#000000" font-family="sans-serif" font-size="20.8" lengthAdjust="spacing" textLength="185.6" x="174.4" y="292.0984">request data (name)</text><polygon fill="#181818" points="424,344.1844,440,350.5844,424,356.9844,430.4,350.5844" style="stroke:#181818;stroke-width:1.6000000000000003;"/><line style="stroke:#181818;stroke-width:1.6000000000000003;" x1="129.6" x2="433.6" y1="350.5844" y2="350.5844"/><text fill="#000000" font-family="sans-serif" font-size="20.8" font-weight="bold" lengthAdjust="spacing" textLength="11.2" x="140.8" y="342.1641">3</text><text fill="#000000" font-family="sans-serif" font-size="20.8" lengthAdjust="spacing" textLength="265.6" x="158.4" y="342.1641">types requested data (name)</text><polygon fill="#181818" points="147.2,394.25,131.2,400.65,147.2,407.05,140.8,400.65" style="stroke:#181818;stroke-width:1.6000000000000003;"/><line style="stroke:#181818;stroke-width:1.6000000000000003;stroke-dasharray:2.0,2.0;" x1="137.6" x2="449.6" y1="400.65" y2="400.65"/><text fill="#000000" font-family="sans-serif" font-size="20.8" font-weight="bold" lengthAdjust="spacing" textLength="11.2" x="156.8" y="392.2297">4</text><text fill="#000000" font-family="sans-serif" font-size="20.8" lengthAdjust="spacing" textLength="203.2" x="174.4" y="392.2297">shows requested data</text><polygon fill="#181818" points="424,444.3156,440,450.7156,424,457.1156,430.4,450.7156" style="stroke:#181818;stroke-width:1.6000000000000003;"/><line style="stroke:#181818;stroke-width:1.6000000000000003;" x1="129.6" x2="433.6" y1="450.7156" y2="450.7156"/><text fill="#000000" font-family="sans-serif" font-size="20.8" font-weight="bold" lengthAdjust="spacing" textLength="11.2" x="140.8" y="442.2953">5</text><text fill="#000000" font-family="sans-serif" font-size="20.8" lengthAdjust="spacing" textLength="108.8" x="158.4" y="442.2953">submit data</text><polygon fill="#181818" points="147.2,494.3813,131.2,500.7813,147.2,507.1813,140.8,500.7813" style="stroke:#181818;stroke-width:1.6000000000000003;"/><line style="stroke:#181818;stroke-width:1.6000000000000003;stroke-dasharray:2.0,2.0;" x1="137.6" x2="449.6" y1="500.7813" y2="500.7813"/><text fill="#000000" font-family="sans-serif" font-size="20.8" font-weight="bold" lengthAdjust="spacing" textLength="11.2" x="156.8" y="492.3609">6</text><text fill="#000000" font-family="sans-serif" font-size="20.8" lengthAdjust="spacing" textLength="235.2" x="174.4" y="492.3609">shows operation success</text><!--SRC=[dP5DJiD038NtEOMLLRl81R90GYeI6uH4Jk1EJ3BA_35sMkNscAH90PL5ySepyzxdPmqFDYJCwC7744sVeoUGF5B1sqj2Cs17ZKoE89CH39txBk0UstYseODtT4n58LPKsamivA6XZv628JXOxBxakwOvxA62HoUK0uez4Rm6jU4eCOp-I5bx8p53-VpsKW8oFFdauaHKw4InnYOC0cMzZ9WLIrlCJdj2eQkd0Atr1DN3cgnMtm0ITQdEwaq61DtAkTcmSLOoNEhYhXIqGMjbw9eiqA8Wx09wsi-Ebcw2RiQHAH6l96f_iFwJYVju_isxEnIFHs_bwhqlmn8X9ihwqJ4epHXY_YF59m00]--></g></svg>