<?xml version="1.0" encoding="us-ascii" standalone="no"?><svg xmlns="http://www.w3.org/2000/svg" xmlns:xlink="http://www.w3.org/1999/xlink" contentStyleType="text/css" height="513px" preserveAspectRatio="none" style="width:504px;height:513px;background:#FFFFFF;" version="1.1" viewBox="0 0 504 513" width="504px" zoomAndPan="magnify"><defs/><g><text fill="#000000" font-family="sans-serif" font-size="14" font-weight="bold" lengthAdjust="spacing" textLength="365" x="68.75" y="28.5352">System Sequence Diagram (SSD) - Alternative Two</text><rect fill="#FFFFFF" height="263.7949" style="stroke:#181818;stroke-width:1.0;" width="10" x="46.5" y="150.2871"/><rect fill="#FFFFFF" height="263.7949" style="stroke:#181818;stroke-width:1.0;" width="10" x="460.5" y="150.2871"/><line style="stroke:#181818;stroke-width:0.5;stroke-dasharray:5.0,5.0;" x1="51" x2="51" y1="118.9766" y2="432.082"/><line style="stroke:#181818;stroke-width:0.5;stroke-dasharray:5.0,5.0;" x1="465.5" x2="465.5" y1="118.9766" y2="432.082"/><text fill="#000000" font-family="sans-serif" font-size="14" lengthAdjust="spacing" textLength="87" x="5" y="116.0234">Collaborator</text><ellipse cx="51.5" cy="50.9883" fill="#E3E3E3" rx="8" ry="8" style="stroke:#181818;stroke-width:0.5;"/><path d="M51.5,58.9883 L51.5,85.9883 M38.5,66.9883 L64.5,66.9883 M51.5,85.9883 L38.5,100.9883 M51.5,85.9883 L64.5,100.9883 " fill="none" style="stroke:#181818;stroke-width:0.5;"/><text fill="#000000" font-family="sans-serif" font-size="14" lengthAdjust="spacing" textLength="87" x="5" y="444.6172">Collaborator</text><ellipse cx="51.5" cy="456.0703" fill="#E3E3E3" rx="8" ry="8" style="stroke:#181818;stroke-width:0.5;"/><path d="M51.5,464.0703 L51.5,491.0703 M38.5,472.0703 L64.5,472.0703 M51.5,491.0703 L38.5,506.0703 M51.5,491.0703 L64.5,506.0703 " fill="none" style="stroke:#181818;stroke-width:0.5;"/><rect fill="#E3E3E3" height="30.4883" rx="2.5" ry="2.5" style="stroke:#181818;stroke-width:0.5;" width="66" x="432.5" y="87.4883"/><text fill="#000000" font-family="sans-serif" font-size="14" lengthAdjust="spacing" textLength="52" x="439.5" y="108.0234">:System</text><rect fill="#E3E3E3" height="30.4883" rx="2.5" ry="2.5" style="stroke:#181818;stroke-width:0.5;" width="66" x="432.5" y="431.082"/><text fill="#000000" font-family="sans-serif" font-size="14" lengthAdjust="spacing" textLength="52" x="439.5" y="451.6172">:System</text><rect fill="#FFFFFF" height="263.7949" style="stroke:#181818;stroke-width:1.0;" width="10" x="46.5" y="150.2871"/><rect fill="#FFFFFF" height="263.7949" style="stroke:#181818;stroke-width:1.0;" width="10" x="460.5" y="150.2871"/><polygon fill="#181818" points="448.5,146.2871,458.5,150.2871,448.5,154.2871,452.5,150.2871" style="stroke:#181818;stroke-width:1.0;"/><line style="stroke:#181818;stroke-width:1.0;" x1="56.5" x2="454.5" y1="150.2871" y2="150.2871"/><text fill="#000000" font-family="sans-serif" font-size="13" font-weight="bold" lengthAdjust="spacing" textLength="9" x="63.5" y="145.5449">1</text><text fill="#000000" font-family="sans-serif" font-size="13" lengthAdjust="spacing" textLength="377" x="76.5" y="145.5449">Asks to generate a list of tasks assigned to the collaborator</text><polygon fill="#181818" points="67.5,175.5977,57.5,179.5977,67.5,183.5977,63.5,179.5977" style="stroke:#181818;stroke-width:1.0;"/><line style="stroke:#181818;stroke-width:1.0;stroke-dasharray:2.0,2.0;" x1="61.5" x2="459.5" y1="179.5977" y2="179.5977"/><text fill="#000000" font-family="sans-serif" font-size="13" font-weight="bold" lengthAdjust="spacing" textLength="9" x="73.5" y="174.8555">2</text><text fill="#000000" font-family="sans-serif" font-size="13" lengthAdjust="spacing" textLength="134" x="86.5" y="174.8555">Asks to select a filter</text><polygon fill="#181818" points="448.5,204.9082,458.5,208.9082,448.5,212.9082,452.5,208.9082" style="stroke:#181818;stroke-width:1.0;"/><line style="stroke:#181818;stroke-width:1.0;" x1="56.5" x2="454.5" y1="208.9082" y2="208.9082"/><text fill="#000000" font-family="sans-serif" font-size="13" font-weight="bold" lengthAdjust="spacing" textLength="9" x="63.5" y="204.166">3</text><text fill="#000000" font-family="sans-serif" font-size="13" lengthAdjust="spacing" textLength="165" x="76.5" y="204.166">Selects the "Planned" filter</text><polygon fill="#181818" points="67.5,234.2188,57.5,238.2188,67.5,242.2188,63.5,238.2188" style="stroke:#181818;stroke-width:1.0;"/><line style="stroke:#181818;stroke-width:1.0;stroke-dasharray:2.0,2.0;" x1="61.5" x2="459.5" y1="238.2188" y2="238.2188"/><text fill="#000000" font-family="sans-serif" font-size="13" font-weight="bold" lengthAdjust="spacing" textLength="9" x="73.5" y="233.4766">4</text><text fill="#000000" font-family="sans-serif" font-size="13" lengthAdjust="spacing" textLength="180" x="86.5" y="233.4766">Asks the start and end dates</text><polygon fill="#181818" points="448.5,263.5293,458.5,267.5293,448.5,271.5293,452.5,267.5293" style="stroke:#181818;stroke-width:1.0;"/><line style="stroke:#181818;stroke-width:1.0;" x1="56.5" x2="454.5" y1="267.5293" y2="267.5293"/><text fill="#000000" font-family="sans-serif" font-size="13" font-weight="bold" lengthAdjust="spacing" textLength="9" x="63.5" y="262.7871">5</text><text fill="#000000" font-family="sans-serif" font-size="13" lengthAdjust="spacing" textLength="202" x="76.5" y="262.7871">Provides the start and end dates</text><polygon fill="#181818" points="67.5,292.8398,57.5,296.8398,67.5,300.8398,63.5,296.8398" style="stroke:#181818;stroke-width:1.0;"/><line style="stroke:#181818;stroke-width:1.0;stroke-dasharray:2.0,2.0;" x1="61.5" x2="459.5" y1="296.8398" y2="296.8398"/><text fill="#000000" font-family="sans-serif" font-size="13" font-weight="bold" lengthAdjust="spacing" textLength="9" x="73.5" y="292.0977">6</text><text fill="#000000" font-family="sans-serif" font-size="13" lengthAdjust="spacing" textLength="200" x="86.5" y="292.0977">Asks continuation confirmation</text><polygon fill="#181818" points="448.5,322.1504,458.5,326.1504,448.5,330.1504,452.5,326.1504" style="stroke:#181818;stroke-width:1.0;"/><line style="stroke:#181818;stroke-width:1.0;" x1="56.5" x2="454.5" y1="326.1504" y2="326.1504"/><text fill="#000000" font-family="sans-serif" font-size="13" font-weight="bold" lengthAdjust="spacing" textLength="9" x="63.5" y="321.4082">7</text><text fill="#000000" font-family="sans-serif" font-size="13" lengthAdjust="spacing" textLength="122" x="76.5" y="321.4082">Confirms operation</text><polygon fill="#181818" points="67.5,351.4609,57.5,355.4609,67.5,359.4609,63.5,355.4609" style="stroke:#181818;stroke-width:1.0;"/><line style="stroke:#181818;stroke-width:1.0;stroke-dasharray:2.0,2.0;" x1="61.5" x2="459.5" y1="355.4609" y2="355.4609"/><text fill="#000000" font-family="sans-serif" font-size="13" font-weight="bold" lengthAdjust="spacing" textLength="9" x="73.5" y="350.7188">8</text><text fill="#000000" font-family="sans-serif" font-size="13" lengthAdjust="spacing" textLength="156" x="86.5" y="350.7188">Provides the list of tasks</text><polygon fill="#181818" points="448.5,380.7715,458.5,384.7715,448.5,388.7715,452.5,384.7715" style="stroke:#181818;stroke-width:1.0;"/><line style="stroke:#181818;stroke-width:1.0;" x1="56.5" x2="454.5" y1="384.7715" y2="384.7715"/><text fill="#000000" font-family="sans-serif" font-size="13" font-weight="bold" lengthAdjust="spacing" textLength="9" x="63.5" y="380.0293">9</text><text fill="#000000" font-family="sans-serif" font-size="13" lengthAdjust="spacing" textLength="243" x="76.5" y="380.0293">Selects the task to register completion</text><polygon fill="#181818" points="62.5,410.082,52.5,414.082,62.5,418.082,58.5,414.082" style="stroke:#181818;stroke-width:1.0;"/><line style="stroke:#181818;stroke-width:1.0;stroke-dasharray:2.0,2.0;" x1="56.5" x2="464.5" y1="414.082" y2="414.082"/><text fill="#000000" font-family="sans-serif" font-size="13" font-weight="bold" lengthAdjust="spacing" textLength="18" x="68.5" y="409.3398">10</text><text fill="#000000" font-family="sans-serif" font-size="13" lengthAdjust="spacing" textLength="193" x="90.5" y="409.3398">Confirms success of operation</text><!--SRC=[ZPBTRi8m38NlynHMhxOBNe2BIGmk9srIzm8cTKj4cdIn2-BjvxJGyJFOAbLAwdDyFjdbhGiT9coXZI7QJOejWQIU34-L3kqM6ohbu0aIMS7G-7C1Rx2AUnSQgD4p6IDEL5eUMAY5ahvw2fPWvR39ygUoN3t331PUA0KKjoFut4TZi9SO-dPDISzMOe9Y6Rt7TKoejmAGOVd-jdWrcYlEkWw3G34VWuRoU3J6mF4Pz31xELRciE0jWqHeA92s9K3mZWLY3OAvXiok2LHbaMm8x1d2r5Rnt2wxHvwRpoUEK-4qZ9cI39OV42QlCrMCskM1t2E7kKuoAtcWAZuy1gKihcttWjJ3ecC331MGlfLoyeEqZnHthgA_hNSIRGpYGg_xZI5VQfVQuV8WSpdA66ANbvF53s8k22-M-CyXPcrUGQ96tPGKi-qyNK3UnawGt5jBp3drZ7ToLdJzE_nI6Nf-0m00]--></g></svg>