<?xml version="1.0" encoding="us-ascii" standalone="no"?><svg xmlns="http://www.w3.org/2000/svg" xmlns:xlink="http://www.w3.org/1999/xlink" contentStyleType="text/css" height="745.6px" preserveAspectRatio="none" style="width:1169px;height:745px;background:#FFFFFF;" version="1.1" viewBox="0 0 1169 745" width="1169.6px" zoomAndPan="magnify"><defs/><g><rect fill="#FFFFFF" height="597.0828" style="stroke:#181818;stroke-width:0.8000000000000002;" width="8" x="39.2" y="74.8969"/><rect fill="#FFFFFF" height="25.0328" style="stroke:#181818;stroke-width:0.8000000000000002;" width="8" x="252" y="93.5297"/><rect fill="#FFFFFF" height="50.0656" style="stroke:#181818;stroke-width:0.8000000000000002;" width="8" x="252" y="143.5953"/><rect fill="#FFFFFF" height="25.0328" style="stroke:#181818;stroke-width:0.8000000000000002;" width="8" x="252" y="368.8906"/><rect fill="#FFFFFF" height="25.0328" style="stroke:#181818;stroke-width:0.8000000000000002;" width="8" x="252" y="418.9563"/><rect fill="#FFFFFF" height="25.0328" style="stroke:#181818;stroke-width:0.8000000000000002;" width="8" x="252" y="639.7469"/><rect fill="#FFFFFF" height="175.2297" style="stroke:#181818;stroke-width:0.8000000000000002;" width="8" x="533.6" y="193.6609"/><rect fill="#FFFFFF" height="195.7578" style="stroke:#181818;stroke-width:0.8000000000000002;" width="8" x="533.6" y="443.9891"/><rect fill="#FFFFFF" height="25.0328" style="stroke:#181818;stroke-width:0.8000000000000002;" width="8" x="652.4" y="218.6938"/><rect fill="#FFFFFF" height="25.0328" style="stroke:#181818;stroke-width:0.8000000000000002;" width="8" x="738" y="268.7594"/><rect fill="#FFFFFF" height="25.0328" style="stroke:#181818;stroke-width:0.8000000000000002;" width="8" x="837.6" y="318.825"/><rect fill="#FFFFFF" height="145.6922" style="stroke:#181818;stroke-width:0.8000000000000002;" width="8" x="973.2" y="469.0219"/><line style="stroke:#181818;stroke-width:0.4000000000000001;stroke-dasharray:5.0,5.0;" x1="43.2" x2="43.2" y1="66.8969" y2="679.1797"/><line style="stroke:#181818;stroke-width:0.4000000000000001;stroke-dasharray:5.0,5.0;" x1="255.6" x2="255.6" y1="66.8969" y2="679.1797"/><line style="stroke:#181818;stroke-width:0.4000000000000001;stroke-dasharray:5.0,5.0;" x1="537.6" x2="537.6" y1="66.8969" y2="679.1797"/><line style="stroke:#181818;stroke-width:0.4000000000000001;stroke-dasharray:5.0,5.0;" x1="656" x2="656" y1="66.8969" y2="679.1797"/><line style="stroke:#181818;stroke-width:0.4000000000000001;stroke-dasharray:5.0,5.0;" x1="741.6" x2="741.6" y1="66.8969" y2="679.1797"/><line style="stroke:#181818;stroke-width:0.4000000000000001;stroke-dasharray:5.0,5.0;" x1="841.6" x2="841.6" y1="66.8969" y2="679.1797"/><line style="stroke:#181818;stroke-width:0.4000000000000001;stroke-dasharray:5.0,5.0;" x1="976.8" x2="976.8" y1="66.8969" y2="679.1797"/><line style="stroke:#181818;stroke-width:0.4000000000000001;stroke-dasharray:5.0,5.0;" x1="1134.4" x2="1134.4" y1="508.3188" y2="679.1797"/><text fill="#000000" font-family="sans-serif" font-size="11.2" lengthAdjust="spacing" textLength="73.6" x="4" y="64.0859">Fleet Manager</text><ellipse cx="43.2" cy="10.8" fill="#E3E3E3" rx="6.4" ry="6.4" style="stroke:#181818;stroke-width:0.4000000000000001;"/><path d="M43.2,17.2 L43.2,38.8 M32.8,23.6 L53.6,23.6 M43.2,38.8 L32.8,50.8 M43.2,38.8 L53.6,50.8 " fill="none" style="stroke:#181818;stroke-width:0.4000000000000001;"/><text fill="#000000" font-family="sans-serif" font-size="11.2" lengthAdjust="spacing" textLength="73.6" x="4" y="690.4656">Fleet Manager</text><ellipse cx="43.2" cy="700.0766" fill="#E3E3E3" rx="6.4" ry="6.4" style="stroke:#181818;stroke-width:0.4000000000000001;"/><path d="M43.2,706.4766 L43.2,728.0766 M32.8,712.8766 L53.6,712.8766 M43.2,728.0766 L32.8,740.0766 M43.2,728.0766 L53.6,740.0766 " fill="none" style="stroke:#181818;stroke-width:0.4000000000000001;"/><rect fill="#E3E3E3" height="26.0969" rx="2" ry="2" style="stroke:#181818;stroke-width:0.4000000000000001;" width="111.2" x="200.4" y="40"/><text fill="#000000" font-family="sans-serif" font-size="11.2" lengthAdjust="spacing" textLength="100" x="206" y="57.6859">:CheckupRegisterUI</text><rect fill="#E3E3E3" height="26.0969" rx="2" ry="2" style="stroke:#181818;stroke-width:0.4000000000000001;" width="111.2" x="200.4" y="678.3797"/><text fill="#000000" font-family="sans-serif" font-size="11.2" lengthAdjust="spacing" textLength="100" x="206" y="696.0656">:CheckupRegisterUI</text><rect fill="#E3E3E3" height="26.0969" rx="2" ry="2" style="stroke:#181818;stroke-width:0.4000000000000001;" width="144" x="465.6" y="40"/><text fill="#000000" font-family="sans-serif" font-size="11.2" lengthAdjust="spacing" textLength="132.8" x="471.2" y="57.6859">:CreateCheckUpController</text><rect fill="#E3E3E3" height="26.0969" rx="2" ry="2" style="stroke:#181818;stroke-width:0.4000000000000001;" width="144" x="465.6" y="678.3797"/><text fill="#000000" font-family="sans-serif" font-size="11.2" lengthAdjust="spacing" textLength="132.8" x="471.2" y="696.0656">:CreateCheckUpController</text><rect fill="#E3E3E3" height="26.0969" rx="2" ry="2" style="stroke:#181818;stroke-width:0.4000000000000001;" width="77.6" x="617.6" y="40"/><text fill="#000000" font-family="sans-serif" font-size="11.2" lengthAdjust="spacing" textLength="66.4" x="623.2" y="57.6859">:Repositories</text><rect fill="#E3E3E3" height="26.0969" rx="2" ry="2" style="stroke:#181818;stroke-width:0.4000000000000001;" width="77.6" x="617.6" y="678.3797"/><text fill="#000000" font-family="sans-serif" font-size="11.2" lengthAdjust="spacing" textLength="66.4" x="623.2" y="696.0656">:Repositories</text><rect fill="#E3E3E3" height="40.9938" rx="2" ry="2" style="stroke:#181818;stroke-width:0.4000000000000001;" width="77.6" x="703.2" y="25.1031"/><text fill="#000000" font-family="sans-serif" font-size="11.2" lengthAdjust="spacing" textLength="59.2" x="712.4" y="42.7891">repositories</text><text fill="#000000" font-family="sans-serif" font-size="11.2" lengthAdjust="spacing" textLength="66.4" x="708.8" y="57.6859">:Repositories</text><rect fill="#E3E3E3" height="40.9938" rx="2" ry="2" style="stroke:#181818;stroke-width:0.4000000000000001;" width="77.6" x="703.2" y="678.3797"/><text fill="#000000" font-family="sans-serif" font-size="11.2" lengthAdjust="spacing" textLength="59.2" x="712.4" y="696.0656">repositories</text><text fill="#000000" font-family="sans-serif" font-size="11.2" lengthAdjust="spacing" textLength="66.4" x="708.8" y="710.9625">:Repositories</text><rect fill="#E3E3E3" height="40.9938" rx="2" ry="2" style="stroke:#181818;stroke-width:0.4000000000000001;" width="105.6" x="788.8" y="25.1031"/><text fill="#000000" font-family="sans-serif" font-size="11.2" lengthAdjust="spacing" textLength="89.6" x="796.8" y="42.7891">vehicleRepository</text><text fill="#000000" font-family="sans-serif" font-size="11.2" lengthAdjust="spacing" textLength="94.4" x="794.4" y="57.6859">:VehicleRepository</text><rect fill="#E3E3E3" height="40.9938" rx="2" ry="2" style="stroke:#181818;stroke-width:0.4000000000000001;" width="105.6" x="788.8" y="678.3797"/><text fill="#000000" font-family="sans-serif" font-size="11.2" lengthAdjust="spacing" textLength="89.6" x="796.8" y="696.0656">vehicleRepository</text><text fill="#000000" font-family="sans-serif" font-size="11.2" lengthAdjust="spacing" textLength="94.4" x="794.4" y="710.9625">:VehicleRepository</text><rect fill="#E3E3E3" height="40.9938" rx="2" ry="2" style="stroke:#181818;stroke-width:0.4000000000000001;" width="149.6" x="902.4" y="25.1031"/><text fill="#000000" font-family="sans-serif" font-size="11.2" lengthAdjust="spacing" textLength="138.4" x="908" y="42.7891">vehicleCheckUpRepository:</text><text fill="#000000" font-family="sans-serif" font-size="11.2" lengthAdjust="spacing" textLength="136.8" x="908.8" y="57.6859">VehicleCheckUpRepository</text><rect fill="#E3E3E3" height="40.9938" rx="2" ry="2" style="stroke:#181818;stroke-width:0.4000000000000001;" width="149.6" x="902.4" y="678.3797"/><text fill="#000000" font-family="sans-serif" font-size="11.2" lengthAdjust="spacing" textLength="138.4" x="908" y="696.0656">vehicleCheckUpRepository:</text><text fill="#000000" font-family="sans-serif" font-size="11.2" lengthAdjust="spacing" textLength="136.8" x="908.8" y="710.9625">VehicleCheckUpRepository</text><rect fill="#E3E3E3" height="40.9938" rx="2" ry="2" style="stroke:#181818;stroke-width:0.4000000000000001;" width="60" x="1104.8" y="678.3797"/><text fill="#000000" font-family="sans-serif" font-size="11.2" lengthAdjust="spacing" textLength="43.2" x="1113.2" y="696.0656">checkUp</text><text fill="#000000" font-family="sans-serif" font-size="11.2" lengthAdjust="spacing" textLength="48.8" x="1110.4" y="710.9625">:CheckUp</text><rect fill="#FFFFFF" height="597.0828" style="stroke:#181818;stroke-width:0.8000000000000002;" width="8" x="39.2" y="74.8969"/><rect fill="#FFFFFF" height="25.0328" style="stroke:#181818;stroke-width:0.8000000000000002;" width="8" x="252" y="93.5297"/><rect fill="#FFFFFF" height="50.0656" style="stroke:#181818;stroke-width:0.8000000000000002;" width="8" x="252" y="143.5953"/><rect fill="#FFFFFF" height="25.0328" style="stroke:#181818;stroke-width:0.8000000000000002;" width="8" x="252" y="368.8906"/><rect fill="#FFFFFF" height="25.0328" style="stroke:#181818;stroke-width:0.8000000000000002;" width="8" x="252" y="418.9563"/><rect fill="#FFFFFF" height="25.0328" style="stroke:#181818;stroke-width:0.8000000000000002;" width="8" x="252" y="639.7469"/><rect fill="#FFFFFF" height="175.2297" style="stroke:#181818;stroke-width:0.8000000000000002;" width="8" x="533.6" y="193.6609"/><rect fill="#FFFFFF" height="195.7578" style="stroke:#181818;stroke-width:0.8000000000000002;" width="8" x="533.6" y="443.9891"/><rect fill="#FFFFFF" height="25.0328" style="stroke:#181818;stroke-width:0.8000000000000002;" width="8" x="652.4" y="218.6938"/><rect fill="#FFFFFF" height="25.0328" style="stroke:#181818;stroke-width:0.8000000000000002;" width="8" x="738" y="268.7594"/><rect fill="#FFFFFF" height="25.0328" style="stroke:#181818;stroke-width:0.8000000000000002;" width="8" x="837.6" y="318.825"/><rect fill="#FFFFFF" height="145.6922" style="stroke:#181818;stroke-width:0.8000000000000002;" width="8" x="973.2" y="469.0219"/><polygon fill="#181818" points="242.4,90.3297,250.4,93.5297,242.4,96.7297,245.6,93.5297" style="stroke:#181818;stroke-width:0.8000000000000002;"/><line style="stroke:#181818;stroke-width:0.8000000000000002;" x1="47.2" x2="247.2" y1="93.5297" y2="93.5297"/><text fill="#000000" font-family="sans-serif" font-size="10.4" font-weight="bold" lengthAdjust="spacing" textLength="5.6" x="52.8" y="89.3195">1</text><text fill="#000000" font-family="sans-serif" font-size="10.4" lengthAdjust="spacing" textLength="169.6" x="61.6" y="89.3195">Asks to register a vehicle's check-up</text><polygon fill="#181818" points="56,115.3625,48,118.5625,56,121.7625,52.8,118.5625" style="stroke:#181818;stroke-width:0.8000000000000002;"/><line style="stroke:#181818;stroke-width:0.8000000000000002;" x1="51.2" x2="255.2" y1="118.5625" y2="118.5625"/><text fill="#000000" font-family="sans-serif" font-size="10.4" font-weight="bold" lengthAdjust="spacing" textLength="5.6" x="60.8" y="114.3523">2</text><text fill="#000000" font-family="sans-serif" font-size="10.4" lengthAdjust="spacing" textLength="168" x="69.6" y="114.3523">Requests data (vehicleLicensePlate)</text><polygon fill="#181818" points="242.4,140.3953,250.4,143.5953,242.4,146.7953,245.6,143.5953" style="stroke:#181818;stroke-width:0.8000000000000002;"/><line style="stroke:#181818;stroke-width:0.8000000000000002;" x1="47.2" x2="247.2" y1="143.5953" y2="143.5953"/><text fill="#000000" font-family="sans-serif" font-size="10.4" font-weight="bold" lengthAdjust="spacing" textLength="5.6" x="52.8" y="139.3852">3</text><text fill="#000000" font-family="sans-serif" font-size="10.4" lengthAdjust="spacing" textLength="110.4" x="61.6" y="139.3852">Submits requested data</text><polygon fill="#181818" points="528,165.4281,536,168.6281,528,171.8281,531.2,168.6281" style="stroke:#181818;stroke-width:0.8000000000000002;"/><line style="stroke:#181818;stroke-width:0.8000000000000002;" x1="260" x2="532.8" y1="168.6281" y2="168.6281"/><text fill="#000000" font-family="sans-serif" font-size="10.4" font-weight="bold" lengthAdjust="spacing" textLength="5.6" x="265.6" y="164.418">4</text><text fill="#000000" font-family="sans-serif" font-size="10.4" lengthAdjust="spacing" textLength="28.8" x="274.4" y="164.418">create</text><polygon fill="#181818" points="524,190.4609,532,193.6609,524,196.8609,527.2,193.6609" style="stroke:#181818;stroke-width:0.8000000000000002;"/><line style="stroke:#181818;stroke-width:0.8000000000000002;" x1="256" x2="528.8" y1="193.6609" y2="193.6609"/><text fill="#000000" font-family="sans-serif" font-size="10.4" font-weight="bold" lengthAdjust="spacing" textLength="5.6" x="261.6" y="189.4508">5</text><text fill="#000000" font-family="sans-serif" font-size="10.4" lengthAdjust="spacing" textLength="219.2" x="270.4" y="189.4508">getVehicleByLicensePlate(vehicleLicensePlate)</text><polygon fill="#181818" points="642.8,215.4938,650.8,218.6938,642.8,221.8938,646,218.6938" style="stroke:#181818;stroke-width:0.8000000000000002;"/><line style="stroke:#181818;stroke-width:0.8000000000000002;" x1="541.6" x2="647.6" y1="218.6938" y2="218.6938"/><text fill="#000000" font-family="sans-serif" font-size="10.4" font-weight="bold" lengthAdjust="spacing" textLength="5.6" x="547.2" y="214.4836">6</text><text fill="#000000" font-family="sans-serif" font-size="10.4" lengthAdjust="spacing" textLength="60" x="556" y="214.4836">getInstance()</text><polygon fill="#181818" points="550.4,240.5266,542.4,243.7266,550.4,246.9266,547.2,243.7266" style="stroke:#181818;stroke-width:0.8000000000000002;"/><line style="stroke:#181818;stroke-width:0.8000000000000002;stroke-dasharray:2.0,2.0;" x1="545.6" x2="655.6" y1="243.7266" y2="243.7266"/><text fill="#000000" font-family="sans-serif" font-size="10.4" font-weight="bold" lengthAdjust="spacing" textLength="5.6" x="555.2" y="239.5164">7</text><text fill="#000000" font-family="sans-serif" font-size="10.4" lengthAdjust="spacing" textLength="53.6" x="564" y="239.5164">repositories</text><polygon fill="#181818" points="728.4,265.5594,736.4,268.7594,728.4,271.9594,731.6,268.7594" style="stroke:#181818;stroke-width:0.8000000000000002;"/><line style="stroke:#181818;stroke-width:0.8000000000000002;" x1="541.6" x2="733.2" y1="268.7594" y2="268.7594"/><text fill="#000000" font-family="sans-serif" font-size="10.4" font-weight="bold" lengthAdjust="spacing" textLength="5.6" x="547.2" y="264.5492">8</text><text fill="#000000" font-family="sans-serif" font-size="10.4" lengthAdjust="spacing" textLength="104.8" x="556" y="264.5492">getVehicleRepository()</text><polygon fill="#181818" points="550.4,290.5922,542.4,293.7922,550.4,296.9922,547.2,293.7922" style="stroke:#181818;stroke-width:0.8000000000000002;"/><line style="stroke:#181818;stroke-width:0.8000000000000002;stroke-dasharray:2.0,2.0;" x1="545.6" x2="741.2" y1="293.7922" y2="293.7922"/><text fill="#000000" font-family="sans-serif" font-size="10.4" font-weight="bold" lengthAdjust="spacing" textLength="5.6" x="555.2" y="289.582">9</text><text fill="#000000" font-family="sans-serif" font-size="10.4" lengthAdjust="spacing" textLength="80.8" x="564" y="289.582">vehicleRepository</text><polygon fill="#181818" points="828,315.625,836,318.825,828,322.025,831.2,318.825" style="stroke:#181818;stroke-width:0.8000000000000002;"/><line style="stroke:#181818;stroke-width:0.8000000000000002;" x1="541.6" x2="832.8" y1="318.825" y2="318.825"/><text fill="#000000" font-family="sans-serif" font-size="10.4" font-weight="bold" lengthAdjust="spacing" textLength="11.2" x="547.2" y="314.6148">10</text><text fill="#000000" font-family="sans-serif" font-size="10.4" lengthAdjust="spacing" textLength="219.2" x="561.6" y="314.6148">getVehicleByLicensePlate(vehicleLicensePlate)</text><polygon fill="#181818" points="550.4,340.6578,542.4,343.8578,550.4,347.0578,547.2,343.8578" style="stroke:#181818;stroke-width:0.8000000000000002;"/><line style="stroke:#181818;stroke-width:0.8000000000000002;" x1="545.6" x2="840.8" y1="343.8578" y2="343.8578"/><text fill="#000000" font-family="sans-serif" font-size="10.4" font-weight="bold" lengthAdjust="spacing" textLength="11.2" x="555.2" y="339.6477">11</text><text fill="#000000" font-family="sans-serif" font-size="10.4" lengthAdjust="spacing" textLength="31.2" x="569.6" y="339.6477">vehicle</text><polygon fill="#181818" points="268.8,365.6906,260.8,368.8906,268.8,372.0906,265.6,368.8906" style="stroke:#181818;stroke-width:0.8000000000000002;"/><line style="stroke:#181818;stroke-width:0.8000000000000002;" x1="264" x2="536.8" y1="368.8906" y2="368.8906"/><text fill="#000000" font-family="sans-serif" font-size="10.4" font-weight="bold" lengthAdjust="spacing" textLength="11.2" x="273.6" y="364.6805">12</text><text fill="#000000" font-family="sans-serif" font-size="10.4" lengthAdjust="spacing" textLength="31.2" x="288" y="364.6805">vehicle</text><polygon fill="#181818" points="56,390.7234,48,393.9234,56,397.1234,52.8,393.9234" style="stroke:#181818;stroke-width:0.8000000000000002;"/><line style="stroke:#181818;stroke-width:0.8000000000000002;" x1="51.2" x2="255.2" y1="393.9234" y2="393.9234"/><text fill="#000000" font-family="sans-serif" font-size="10.4" font-weight="bold" lengthAdjust="spacing" textLength="11.2" x="60.8" y="389.7133">13</text><text fill="#000000" font-family="sans-serif" font-size="10.4" lengthAdjust="spacing" textLength="171.2" x="75.2" y="389.7133">Requests data (date, currentMileage)</text><polygon fill="#181818" points="242.4,415.7563,250.4,418.9563,242.4,422.1563,245.6,418.9563" style="stroke:#181818;stroke-width:0.8000000000000002;"/><line style="stroke:#181818;stroke-width:0.8000000000000002;" x1="47.2" x2="247.2" y1="418.9563" y2="418.9563"/><text fill="#000000" font-family="sans-serif" font-size="10.4" font-weight="bold" lengthAdjust="spacing" textLength="11.2" x="52.8" y="414.7461">14</text><text fill="#000000" font-family="sans-serif" font-size="10.4" lengthAdjust="spacing" textLength="110.4" x="67.2" y="414.7461">Submits requested data</text><polygon fill="#181818" points="524,440.7891,532,443.9891,524,447.1891,527.2,443.9891" style="stroke:#181818;stroke-width:0.8000000000000002;"/><line style="stroke:#181818;stroke-width:0.8000000000000002;" x1="256" x2="528.8" y1="443.9891" y2="443.9891"/><text fill="#000000" font-family="sans-serif" font-size="10.4" font-weight="bold" lengthAdjust="spacing" textLength="11.2" x="261.6" y="439.7789">15</text><text fill="#000000" font-family="sans-serif" font-size="10.4" lengthAdjust="spacing" textLength="244" x="276" y="439.7789">createVehicleCheckUp(vehicle, date, currentMileage)</text><polygon fill="#181818" points="963.6,465.8219,971.6,469.0219,963.6,472.2219,966.8,469.0219" style="stroke:#181818;stroke-width:0.8000000000000002;"/><line style="stroke:#181818;stroke-width:0.8000000000000002;" x1="541.6" x2="968.4" y1="469.0219" y2="469.0219"/><text fill="#000000" font-family="sans-serif" font-size="10.4" font-weight="bold" lengthAdjust="spacing" textLength="11.2" x="547.2" y="464.8117">16</text><text fill="#000000" font-family="sans-serif" font-size="10.4" lengthAdjust="spacing" textLength="244" x="561.6" y="464.8117">createVehicleCheckUp(vehicle, date, currentMileage)</text><polygon fill="#181818" points="1095.2,490.8547,1103.2,494.0547,1095.2,497.2547,1098.4,494.0547" style="stroke:#181818;stroke-width:0.8000000000000002;"/><line style="stroke:#181818;stroke-width:0.8000000000000002;" x1="981.2" x2="1100" y1="494.0547" y2="494.0547"/><text fill="#000000" font-family="sans-serif" font-size="10.4" font-weight="bold" lengthAdjust="spacing" textLength="11.2" x="986.8" y="489.8445">17</text><text fill="#000000" font-family="sans-serif" font-size="10.4" lengthAdjust="spacing" textLength="28.8" x="1001.2" y="489.8445">create</text><rect fill="#E3E3E3" height="40.9938" rx="2" ry="2" style="stroke:#181818;stroke-width:0.4000000000000001;" width="60" x="1104.8" y="475.4219"/><text fill="#000000" font-family="sans-serif" font-size="11.2" lengthAdjust="spacing" textLength="43.2" x="1113.2" y="493.1078">checkUp</text><text fill="#000000" font-family="sans-serif" font-size="11.2" lengthAdjust="spacing" textLength="48.8" x="1110.4" y="508.0047">:CheckUp</text><line style="stroke:#181818;stroke-width:0.8000000000000002;" x1="981.2" x2="1014.8" y1="543.8484" y2="543.8484"/><line style="stroke:#181818;stroke-width:0.8000000000000002;" x1="1014.8" x2="1014.8" y1="543.8484" y2="554.2484"/><line style="stroke:#181818;stroke-width:0.8000000000000002;" x1="982" x2="1014.8" y1="554.2484" y2="554.2484"/><polygon fill="#181818" points="990,551.0484,982,554.2484,990,557.4484,986.8,554.2484" style="stroke:#181818;stroke-width:0.8000000000000002;"/><text fill="#000000" font-family="sans-serif" font-size="10.4" font-weight="bold" lengthAdjust="spacing" textLength="11.2" x="986.8" y="539.6383">18</text><text fill="#000000" font-family="sans-serif" font-size="10.4" lengthAdjust="spacing" textLength="106.4" x="1001.2" y="539.6383">addCheckUp(checkUp)</text><line style="stroke:#181818;stroke-width:0.8000000000000002;" x1="981.2" x2="1014.8" y1="579.2813" y2="579.2813"/><line style="stroke:#181818;stroke-width:0.8000000000000002;" x1="1014.8" x2="1014.8" y1="579.2813" y2="589.6813"/><line style="stroke:#181818;stroke-width:0.8000000000000002;" x1="982" x2="1014.8" y1="589.6813" y2="589.6813"/><polygon fill="#181818" points="990,586.4813,982,589.6813,990,592.8813,986.8,589.6813" style="stroke:#181818;stroke-width:0.8000000000000002;"/><text fill="#000000" font-family="sans-serif" font-size="10.4" font-weight="bold" lengthAdjust="spacing" textLength="11.2" x="986.8" y="575.0711">19</text><text fill="#000000" font-family="sans-serif" font-size="10.4" lengthAdjust="spacing" textLength="124" x="1001.2" y="575.0711">validateCheckUp(checkUp)</text><polygon fill="#181818" points="550.4,611.5141,542.4,614.7141,550.4,617.9141,547.2,614.7141" style="stroke:#181818;stroke-width:0.8000000000000002;"/><line style="stroke:#181818;stroke-width:0.8000000000000002;" x1="545.6" x2="976.4" y1="614.7141" y2="614.7141"/><text fill="#000000" font-family="sans-serif" font-size="10.4" font-weight="bold" lengthAdjust="spacing" textLength="11.2" x="555.2" y="610.5039">20</text><text fill="#000000" font-family="sans-serif" font-size="10.4" lengthAdjust="spacing" textLength="40.8" x="569.6" y="610.5039">checkUp</text><polygon fill="#181818" points="268.8,636.5469,260.8,639.7469,268.8,642.9469,265.6,639.7469" style="stroke:#181818;stroke-width:0.8000000000000002;"/><line style="stroke:#181818;stroke-width:0.8000000000000002;" x1="264" x2="536.8" y1="639.7469" y2="639.7469"/><text fill="#000000" font-family="sans-serif" font-size="10.4" font-weight="bold" lengthAdjust="spacing" textLength="11.2" x="273.6" y="635.5367">21</text><text fill="#000000" font-family="sans-serif" font-size="10.4" lengthAdjust="spacing" textLength="40.8" x="288" y="635.5367">checkUp</text><polygon fill="#181818" points="56,661.5797,48,664.7797,56,667.9797,52.8,664.7797" style="stroke:#181818;stroke-width:0.8000000000000002;"/><line style="stroke:#181818;stroke-width:0.8000000000000002;" x1="51.2" x2="255.2" y1="664.7797" y2="664.7797"/><text fill="#000000" font-family="sans-serif" font-size="10.4" font-weight="bold" lengthAdjust="spacing" textLength="11.2" x="60.8" y="660.5695">22</text><text fill="#000000" font-family="sans-serif" font-size="10.4" lengthAdjust="spacing" textLength="128" x="75.2" y="660.5695">Displays operation success</text><!--SRC=[jLNBZXen4BpxArfSzg7b1pX4sf15GGiIWcLFU_5wEc1Xx8dj8UBlqtXUdXSYAuK3Wd5LTRcxx747gLDk-H6EHXknj-Q8u6s6p5KhAHS7liEDFoi4Yy9plLCnmErvOlv8lODVN3baZ6VUwEpuYPP-2syiZ6OAqSEIQrAo8-0EPal6YE-ba2dN7aQJwHx58KlNk9FEeztE0suxRyCiSey1l4sdHdjhb2f4fs_hHGk-njGuIIOake2f7fmtyh8Jyjgas8ZneRi2gyNpMvDnmhqK2cjbehstdmLk1zahL6okHaq-zFl0Kf0TMcogYtoPp1N0l6S_NwQlsrKObJnHQyDePaiOVwFcmmIUtS61DpJxV330ostSEGYQuoojsJGmHZnYayQ4slqxG-ST9Dnpk2-O2obGErmfOZom11ligFOc-pnA8jjS1PCWqrViCdeYY92EriCT-g93tyznvNutRJlLdv0k5ZH9koT7UQcvTdH61Du_rDI-qB4-XN7XUW9n36DBlLAbgKis6nkkqR6T464Mm7N1RZQZgZcZBDE1_dkJA-LkMTQLhsTPhCNUUXGgfo55FPnybZU6bhxn2KHcBMg_b0hf5liFgMsUuh9lJt1B-O6G3bqCNwnPLHcySDXWnSjkywlcyR4-gDVWLypp92aj5xSQHOh15zLENCcaVgb4abTtKymkNuldCToTsr2Dy9Rwh1FVHfxY-FwGBbNyxC2aQBcNTA-uJ0XqhXtQwFCN]--></g></svg>