<?xml version="1.0" encoding="us-ascii" standalone="no"?><svg xmlns="http://www.w3.org/2000/svg" xmlns:xlink="http://www.w3.org/1999/xlink" contentStyleType="text/css" height="353.6px" preserveAspectRatio="none" style="width:780px;height:353px;background:#FFFFFF;" version="1.1" viewBox="0 0 780 353" width="780px" zoomAndPan="magnify"><defs/><g><rect fill="#FFFFFF" height="248.2234" style="stroke:#181818;stroke-width:0.8000000000000002;" width="8" x="55.6" y="53.7938"/><rect fill="#FFFFFF" height="7.2" style="stroke:#181818;stroke-width:0.8000000000000002;" width="8" x="59.6" y="294.8172"/><rect fill="#FFFFFF" height="222.3906" style="stroke:#181818;stroke-width:0.8000000000000002;" width="8" x="322.8" y="72.4266"/><rect fill="#FFFFFF" height="145.6922" style="stroke:#181818;stroke-width:0.8000000000000002;" width="8" x="590" y="118.4922"/><rect fill="none" height="186.1578" style="stroke:#000000;stroke-width:1.2000000000000002;" width="528.4" x="246.8" y="84.4266"/><line style="stroke:#181818;stroke-width:0.4000000000000001;stroke-dasharray:5.0,5.0;" x1="59.2" x2="59.2" y1="45.7938" y2="309.2172"/><line style="stroke:#181818;stroke-width:0.4000000000000001;stroke-dasharray:5.0,5.0;" x1="326.8" x2="326.8" y1="45.7938" y2="309.2172"/><line style="stroke:#181818;stroke-width:0.4000000000000001;stroke-dasharray:5.0,5.0;" x1="445.2" x2="445.2" y1="45.7938" y2="309.2172"/><line style="stroke:#181818;stroke-width:0.4000000000000001;stroke-dasharray:5.0,5.0;" x1="593.6" x2="593.6" y1="45.7938" y2="309.2172"/><line style="stroke:#181818;stroke-width:0.4000000000000001;stroke-dasharray:5.0,5.0;" x1="736.8" x2="736.8" y1="157.7891" y2="309.2172"/><rect fill="#E3E3E3" height="26.0969" rx="2" ry="2" style="stroke:#181818;stroke-width:0.4000000000000001;" width="111.2" x="4" y="18.8969"/><text fill="#000000" font-family="sans-serif" font-size="11.2" lengthAdjust="spacing" textLength="100" x="9.6" y="36.5828">:CheckupRegisterUI</text><rect fill="#E3E3E3" height="26.0969" rx="2" ry="2" style="stroke:#181818;stroke-width:0.4000000000000001;" width="111.2" x="4" y="308.4172"/><text fill="#000000" font-family="sans-serif" font-size="11.2" lengthAdjust="spacing" textLength="100" x="9.6" y="326.1031">:CheckupRegisterUI</text><rect fill="#E3E3E3" height="26.0969" rx="2" ry="2" style="stroke:#181818;stroke-width:0.4000000000000001;" width="144" x="254.8" y="18.8969"/><text fill="#000000" font-family="sans-serif" font-size="11.2" lengthAdjust="spacing" textLength="132.8" x="260.4" y="36.5828">:CreateCheckUpController</text><rect fill="#E3E3E3" height="26.0969" rx="2" ry="2" style="stroke:#181818;stroke-width:0.4000000000000001;" width="144" x="254.8" y="308.4172"/><text fill="#000000" font-family="sans-serif" font-size="11.2" lengthAdjust="spacing" textLength="132.8" x="260.4" y="326.1031">:CreateCheckUpController</text><rect fill="#E3E3E3" height="26.0969" rx="2" ry="2" style="stroke:#181818;stroke-width:0.4000000000000001;" width="77.6" x="406.8" y="18.8969"/><text fill="#000000" font-family="sans-serif" font-size="11.2" lengthAdjust="spacing" textLength="66.4" x="412.4" y="36.5828">:Repositories</text><rect fill="#E3E3E3" height="26.0969" rx="2" ry="2" style="stroke:#181818;stroke-width:0.4000000000000001;" width="77.6" x="406.8" y="308.4172"/><text fill="#000000" font-family="sans-serif" font-size="11.2" lengthAdjust="spacing" textLength="66.4" x="412.4" y="326.1031">:Repositories</text><rect fill="#E3E3E3" height="40.9938" rx="2" ry="2" style="stroke:#181818;stroke-width:0.4000000000000001;" width="149.6" x="519.2" y="4"/><text fill="#000000" font-family="sans-serif" font-size="11.2" lengthAdjust="spacing" textLength="138.4" x="524.8" y="21.6859">vehicleCheckUpRepository:</text><text fill="#000000" font-family="sans-serif" font-size="11.2" lengthAdjust="spacing" textLength="136.8" x="525.6" y="36.5828">VehicleCheckUpRepository</text><rect fill="#E3E3E3" height="40.9938" rx="2" ry="2" style="stroke:#181818;stroke-width:0.4000000000000001;" width="149.6" x="519.2" y="308.4172"/><text fill="#000000" font-family="sans-serif" font-size="11.2" lengthAdjust="spacing" textLength="138.4" x="524.8" y="326.1031">vehicleCheckUpRepository:</text><text fill="#000000" font-family="sans-serif" font-size="11.2" lengthAdjust="spacing" textLength="136.8" x="525.6" y="341">VehicleCheckUpRepository</text><rect fill="#E3E3E3" height="40.9938" rx="2" ry="2" style="stroke:#181818;stroke-width:0.4000000000000001;" width="60" x="707.2" y="308.4172"/><text fill="#000000" font-family="sans-serif" font-size="11.2" lengthAdjust="spacing" textLength="43.2" x="715.6" y="326.1031">checkUp</text><text fill="#000000" font-family="sans-serif" font-size="11.2" lengthAdjust="spacing" textLength="48.8" x="712.8" y="341">:CheckUp</text><rect fill="#FFFFFF" height="248.2234" style="stroke:#181818;stroke-width:0.8000000000000002;" width="8" x="55.6" y="53.7938"/><rect fill="#FFFFFF" height="7.2" style="stroke:#181818;stroke-width:0.8000000000000002;" width="8" x="59.6" y="294.8172"/><rect fill="#FFFFFF" height="222.3906" style="stroke:#181818;stroke-width:0.8000000000000002;" width="8" x="322.8" y="72.4266"/><rect fill="#FFFFFF" height="145.6922" style="stroke:#181818;stroke-width:0.8000000000000002;" width="8" x="590" y="118.4922"/><polygon fill="#181818" points="313.2,69.2266,321.2,72.4266,313.2,75.6266,316.4,72.4266" style="stroke:#181818;stroke-width:0.8000000000000002;"/><line style="stroke:#181818;stroke-width:0.8000000000000002;" x1="63.6" x2="318" y1="72.4266" y2="72.4266"/><text fill="#000000" font-family="sans-serif" font-size="10.4" lengthAdjust="spacing" textLength="244" x="69.2" y="68.2164">createVehicleCheckUp(vehicle, date, currentMileage)</text><path d="M246.8,84.4266 L435.6,84.4266 L435.6,91.8594 L427.6,99.8594 L246.8,99.8594 L246.8,84.4266 " fill="#EEEEEE" style="stroke:#000000;stroke-width:1.2000000000000002;"/><rect fill="none" height="186.1578" style="stroke:#000000;stroke-width:1.2000000000000002;" width="528.4" x="246.8" y="84.4266"/><text fill="#000000" font-family="sans-serif" font-size="10.4" font-weight="bold" lengthAdjust="spacing" textLength="152.8" x="258.8" y="96.4492">Vehicle Check-up Registration</text><polygon fill="#181818" points="580.4,115.2922,588.4,118.4922,580.4,121.6922,583.6,118.4922" style="stroke:#181818;stroke-width:0.8000000000000002;"/><line style="stroke:#181818;stroke-width:0.8000000000000002;" x1="330.8" x2="585.2" y1="118.4922" y2="118.4922"/><text fill="#000000" font-family="sans-serif" font-size="10.4" lengthAdjust="spacing" textLength="244" x="336.4" y="114.282">createVehicleCheckUp(vehicle, date, currentMileage)</text><polygon fill="#181818" points="697.6,140.325,705.6,143.525,697.6,146.725,700.8,143.525" style="stroke:#181818;stroke-width:0.8000000000000002;"/><line style="stroke:#181818;stroke-width:0.8000000000000002;" x1="598" x2="702.4" y1="143.525" y2="143.525"/><text fill="#000000" font-family="sans-serif" font-size="10.4" lengthAdjust="spacing" textLength="28.8" x="603.6" y="139.3148">create</text><rect fill="#E3E3E3" height="40.9938" rx="2" ry="2" style="stroke:#181818;stroke-width:0.4000000000000001;" width="60" x="707.2" y="124.8922"/><text fill="#000000" font-family="sans-serif" font-size="11.2" lengthAdjust="spacing" textLength="43.2" x="715.6" y="142.5781">checkUp</text><text fill="#000000" font-family="sans-serif" font-size="11.2" lengthAdjust="spacing" textLength="48.8" x="712.8" y="157.475">:CheckUp</text><line style="stroke:#181818;stroke-width:0.8000000000000002;" x1="598" x2="631.6" y1="193.3188" y2="193.3188"/><line style="stroke:#181818;stroke-width:0.8000000000000002;" x1="631.6" x2="631.6" y1="193.3188" y2="203.7188"/><line style="stroke:#181818;stroke-width:0.8000000000000002;" x1="598.8" x2="631.6" y1="203.7188" y2="203.7188"/><polygon fill="#181818" points="606.8,200.5188,598.8,203.7188,606.8,206.9188,603.6,203.7188" style="stroke:#181818;stroke-width:0.8000000000000002;"/><text fill="#000000" font-family="sans-serif" font-size="10.4" lengthAdjust="spacing" textLength="106.4" x="603.6" y="189.1086">addCheckUp(checkUp)</text><line style="stroke:#181818;stroke-width:0.8000000000000002;" x1="598" x2="631.6" y1="228.7516" y2="228.7516"/><line style="stroke:#181818;stroke-width:0.8000000000000002;" x1="631.6" x2="631.6" y1="228.7516" y2="239.1516"/><line style="stroke:#181818;stroke-width:0.8000000000000002;" x1="598.8" x2="631.6" y1="239.1516" y2="239.1516"/><polygon fill="#181818" points="606.8,235.9516,598.8,239.1516,606.8,242.3516,603.6,239.1516" style="stroke:#181818;stroke-width:0.8000000000000002;"/><text fill="#000000" font-family="sans-serif" font-size="10.4" lengthAdjust="spacing" textLength="124" x="603.6" y="224.5414">validateCheckUp(checkUp)</text><polygon fill="#181818" points="339.6,260.9844,331.6,264.1844,339.6,267.3844,336.4,264.1844" style="stroke:#181818;stroke-width:0.8000000000000002;"/><line style="stroke:#181818;stroke-width:0.8000000000000002;" x1="334.8" x2="593.2" y1="264.1844" y2="264.1844"/><text fill="#000000" font-family="sans-serif" font-size="10.4" lengthAdjust="spacing" textLength="40.8" x="344.4" y="259.9742">checkUp</text><polygon fill="#181818" points="76.4,291.6172,68.4,294.8172,76.4,298.0172,73.2,294.8172" style="stroke:#181818;stroke-width:0.8000000000000002;"/><line style="stroke:#181818;stroke-width:0.8000000000000002;" x1="71.6" x2="326" y1="294.8172" y2="294.8172"/><text fill="#000000" font-family="sans-serif" font-size="10.4" lengthAdjust="spacing" textLength="40.8" x="81.2" y="290.607">checkUp</text><!--SRC=[fLBBRi8m4BpxArQS2e8VoA6Ng59HgLH1qnENbRrDh1ZRiXqg_hx62Gb12gtQgsUyyzZrjTGM7HxWOBJXbJC7Wk0QOhv7BF8QIzg5ao9mn0FgKbqJV8N2V4bTmYSgJup5vo2vjAW3pBAy8butTakbz85SiPu1UYZMjpH762YH2viR7PnHYbmYv-_RpGrzIzPu6OoJv1EdVpZjvDbWC7hyvKYLvEgYCD2plVwOWDBWAN0ydRVmNcSTiJN-_9I_56-C8G_o6FETSxDY3Ql750eou2dtMEIXyxe44R4byCOvqk5LAegRc0_JKZ6bCuszs8GqOXKVsi8T1XcRO4ajgawb-Q-JoPROfEAvWxQVnQANlqk_Onw5k5ZkLZ5dZC4VfnrHIJ6SuzN8kscwZROO4_HpEwG5-nMnNs0yda5Yz3STm_MXVGC0]--></g></svg>