<?xml version="1.0" encoding="us-ascii" standalone="no"?><svg xmlns="http://www.w3.org/2000/svg" xmlns:xlink="http://www.w3.org/1999/xlink" contentStyleType="text/css" height="976px" preserveAspectRatio="none" style="width:1655px;height:976px;background:#FFFFFF;" version="1.1" viewBox="0 0 1655 976" width="1655px" zoomAndPan="magnify"><defs/><g><rect fill="#FFFFFF" height="790.6445" style="stroke:#181818;stroke-width:1.0;" width="10" x="49" y="93.6211"/><rect fill="#FFFFFF" height="31.291" style="stroke:#181818;stroke-width:1.0;" width="10" x="361" y="116.9121"/><rect fill="#FFFFFF" height="62.582" style="stroke:#181818;stroke-width:1.0;" width="10" x="361" y="179.4941"/><rect fill="#FFFFFF" height="31.291" style="stroke:#181818;stroke-width:1.0;" width="10" x="361" y="461.1133"/><rect fill="#FFFFFF" height="31.291" style="stroke:#181818;stroke-width:1.0;" width="10" x="361" y="523.6953"/><rect fill="#FFFFFF" height="31.291" style="stroke:#181818;stroke-width:1.0;" width="10" x="361" y="843.9746"/><rect fill="#FFFFFF" height="219.0371" style="stroke:#181818;stroke-width:1.0;" width="10" x="759" y="242.0762"/><rect fill="#FFFFFF" height="288.9883" style="stroke:#181818;stroke-width:1.0;" width="10" x="759" y="554.9863"/><rect fill="#FFFFFF" height="31.291" style="stroke:#181818;stroke-width:1.0;" width="10" x="907.5" y="273.3672"/><rect fill="#FFFFFF" height="31.291" style="stroke:#181818;stroke-width:1.0;" width="10" x="1014.5" y="335.9492"/><rect fill="#FFFFFF" height="31.291" style="stroke:#181818;stroke-width:1.0;" width="10" x="1139" y="398.5313"/><rect fill="#FFFFFF" height="226.4063" style="stroke:#181818;stroke-width:1.0;" width="10" x="1308.5" y="586.2773"/><line style="stroke:#181818;stroke-width:0.5;stroke-dasharray:5.0,5.0;" x1="54" x2="54" y1="83.6211" y2="893.2656"/><line style="stroke:#181818;stroke-width:0.5;stroke-dasharray:5.0,5.0;" x1="365.5" x2="365.5" y1="83.6211" y2="893.2656"/><line style="stroke:#181818;stroke-width:0.5;stroke-dasharray:5.0,5.0;" x1="764" x2="764" y1="83.6211" y2="893.2656"/><line style="stroke:#181818;stroke-width:0.5;stroke-dasharray:5.0,5.0;" x1="912" x2="912" y1="83.6211" y2="893.2656"/><line style="stroke:#181818;stroke-width:0.5;stroke-dasharray:5.0,5.0;" x1="1019" x2="1019" y1="83.6211" y2="893.2656"/><line style="stroke:#181818;stroke-width:0.5;stroke-dasharray:5.0,5.0;" x1="1144" x2="1144" y1="83.6211" y2="893.2656"/><line style="stroke:#181818;stroke-width:0.5;stroke-dasharray:5.0,5.0;" x1="1313" x2="1313" y1="83.6211" y2="893.2656"/><line style="stroke:#181818;stroke-width:0.5;stroke-dasharray:5.0,5.0;" x1="1611" x2="1611" y1="635.3984" y2="893.2656"/><text fill="#000000" font-family="sans-serif" font-size="14" lengthAdjust="spacing" textLength="92" x="5" y="80.1074">Fleet Manager</text><ellipse cx="54" cy="13.5" fill="#E3E3E3" rx="8" ry="8" style="stroke:#181818;stroke-width:0.5;"/><path d="M54,21.5 L54,48.5 M41,29.5 L67,29.5 M54,48.5 L41,63.5 M54,48.5 L67,63.5 " fill="none" style="stroke:#181818;stroke-width:0.5;"/><text fill="#000000" font-family="sans-serif" font-size="14" lengthAdjust="spacing" textLength="92" x="5" y="907.373">Fleet Manager</text><ellipse cx="54" cy="919.3867" fill="#E3E3E3" rx="8" ry="8" style="stroke:#181818;stroke-width:0.5;"/><path d="M54,927.3867 L54,954.3867 M41,935.3867 L67,935.3867 M54,954.3867 L41,969.3867 M54,954.3867 L67,969.3867 " fill="none" style="stroke:#181818;stroke-width:0.5;"/><rect fill="#E3E3E3" height="32.6211" rx="2.5" ry="2.5" style="stroke:#181818;stroke-width:0.5;" width="139" x="296.5" y="50"/><text fill="#000000" font-family="sans-serif" font-size="14" lengthAdjust="spacing" textLength="125" x="303.5" y="72.1074">:CheckupRegisterUI</text><rect fill="#E3E3E3" height="32.6211" rx="2.5" ry="2.5" style="stroke:#181818;stroke-width:0.5;" width="139" x="296.5" y="892.2656"/><text fill="#000000" font-family="sans-serif" font-size="14" lengthAdjust="spacing" textLength="125" x="303.5" y="914.373">:CheckupRegisterUI</text><rect fill="#E3E3E3" height="32.6211" rx="2.5" ry="2.5" style="stroke:#181818;stroke-width:0.5;" width="180" x="674" y="50"/><text fill="#000000" font-family="sans-serif" font-size="14" lengthAdjust="spacing" textLength="166" x="681" y="72.1074">:CreateCheckUpController</text><rect fill="#E3E3E3" height="32.6211" rx="2.5" ry="2.5" style="stroke:#181818;stroke-width:0.5;" width="180" x="674" y="892.2656"/><text fill="#000000" font-family="sans-serif" font-size="14" lengthAdjust="spacing" textLength="166" x="681" y="914.373">:CreateCheckUpController</text><rect fill="#E3E3E3" height="32.6211" rx="2.5" ry="2.5" style="stroke:#181818;stroke-width:0.5;" width="97" x="864" y="50"/><text fill="#000000" font-family="sans-serif" font-size="14" lengthAdjust="spacing" textLength="83" x="871" y="72.1074">:Repositories</text><rect fill="#E3E3E3" height="32.6211" rx="2.5" ry="2.5" style="stroke:#181818;stroke-width:0.5;" width="97" x="864" y="892.2656"/><text fill="#000000" font-family="sans-serif" font-size="14" lengthAdjust="spacing" textLength="83" x="871" y="914.373">:Repositories</text><rect fill="#E3E3E3" height="51.2422" rx="2.5" ry="2.5" style="stroke:#181818;stroke-width:0.5;" width="97" x="971" y="31.3789"/><text fill="#000000" font-family="sans-serif" font-size="14" lengthAdjust="spacing" textLength="74" x="982.5" y="53.4863">repositories</text><text fill="#000000" font-family="sans-serif" font-size="14" lengthAdjust="spacing" textLength="83" x="978" y="72.1074">:Repositories</text><rect fill="#E3E3E3" height="51.2422" rx="2.5" ry="2.5" style="stroke:#181818;stroke-width:0.5;" width="97" x="971" y="892.2656"/><text fill="#000000" font-family="sans-serif" font-size="14" lengthAdjust="spacing" textLength="74" x="982.5" y="914.373">repositories</text><text fill="#000000" font-family="sans-serif" font-size="14" lengthAdjust="spacing" textLength="83" x="978" y="932.9941">:Repositories</text><rect fill="#E3E3E3" height="51.2422" rx="2.5" ry="2.5" style="stroke:#181818;stroke-width:0.5;" width="132" x="1078" y="31.3789"/><text fill="#000000" font-family="sans-serif" font-size="14" lengthAdjust="spacing" textLength="112" x="1088" y="53.4863">vehicleRepository</text><text fill="#000000" font-family="sans-serif" font-size="14" lengthAdjust="spacing" textLength="118" x="1085" y="72.1074">:VehicleRepository</text><rect fill="#E3E3E3" height="51.2422" rx="2.5" ry="2.5" style="stroke:#181818;stroke-width:0.5;" width="132" x="1078" y="892.2656"/><text fill="#000000" font-family="sans-serif" font-size="14" lengthAdjust="spacing" textLength="112" x="1088" y="914.373">vehicleRepository</text><text fill="#000000" font-family="sans-serif" font-size="14" lengthAdjust="spacing" textLength="118" x="1085" y="932.9941">:VehicleRepository</text><rect fill="#E3E3E3" height="51.2422" rx="2.5" ry="2.5" style="stroke:#181818;stroke-width:0.5;" width="187" x="1220" y="31.3789"/><text fill="#000000" font-family="sans-serif" font-size="14" lengthAdjust="spacing" textLength="173" x="1227" y="53.4863">vehicleCheckUpRepository:</text><text fill="#000000" font-family="sans-serif" font-size="14" lengthAdjust="spacing" textLength="171" x="1228" y="72.1074">VehicleCheckUpRepository</text><rect fill="#E3E3E3" height="51.2422" rx="2.5" ry="2.5" style="stroke:#181818;stroke-width:0.5;" width="187" x="1220" y="892.2656"/><text fill="#000000" font-family="sans-serif" font-size="14" lengthAdjust="spacing" textLength="173" x="1227" y="914.373">vehicleCheckUpRepository:</text><text fill="#000000" font-family="sans-serif" font-size="14" lengthAdjust="spacing" textLength="171" x="1228" y="932.9941">VehicleCheckUpRepository</text><rect fill="#E3E3E3" height="51.2422" rx="2.5" ry="2.5" style="stroke:#181818;stroke-width:0.5;" width="75" x="1574" y="892.2656"/><text fill="#000000" font-family="sans-serif" font-size="14" lengthAdjust="spacing" textLength="54" x="1584.5" y="914.373">checkUp</text><text fill="#000000" font-family="sans-serif" font-size="14" lengthAdjust="spacing" textLength="61" x="1581" y="932.9941">:CheckUp</text><rect fill="#FFFFFF" height="790.6445" style="stroke:#181818;stroke-width:1.0;" width="10" x="49" y="93.6211"/><rect fill="#FFFFFF" height="31.291" style="stroke:#181818;stroke-width:1.0;" width="10" x="361" y="116.9121"/><rect fill="#FFFFFF" height="62.582" style="stroke:#181818;stroke-width:1.0;" width="10" x="361" y="179.4941"/><rect fill="#FFFFFF" height="31.291" style="stroke:#181818;stroke-width:1.0;" width="10" x="361" y="461.1133"/><rect fill="#FFFFFF" height="31.291" style="stroke:#181818;stroke-width:1.0;" width="10" x="361" y="523.6953"/><rect fill="#FFFFFF" height="31.291" style="stroke:#181818;stroke-width:1.0;" width="10" x="361" y="843.9746"/><rect fill="#FFFFFF" height="219.0371" style="stroke:#181818;stroke-width:1.0;" width="10" x="759" y="242.0762"/><rect fill="#FFFFFF" height="288.9883" style="stroke:#181818;stroke-width:1.0;" width="10" x="759" y="554.9863"/><rect fill="#FFFFFF" height="31.291" style="stroke:#181818;stroke-width:1.0;" width="10" x="907.5" y="273.3672"/><rect fill="#FFFFFF" height="31.291" style="stroke:#181818;stroke-width:1.0;" width="10" x="1014.5" y="335.9492"/><rect fill="#FFFFFF" height="31.291" style="stroke:#181818;stroke-width:1.0;" width="10" x="1139" y="398.5313"/><rect fill="#FFFFFF" height="226.4063" style="stroke:#181818;stroke-width:1.0;" width="10" x="1308.5" y="586.2773"/><polygon fill="#181818" points="349,112.9121,359,116.9121,349,120.9121,353,116.9121" style="stroke:#181818;stroke-width:1.0;"/><line style="stroke:#181818;stroke-width:1.0;" x1="59" x2="355" y1="116.9121" y2="116.9121"/><text fill="#000000" font-family="sans-serif" font-size="13" font-weight="bold" lengthAdjust="spacing" textLength="7" x="66" y="111.6494">1</text><text fill="#000000" font-family="sans-serif" font-size="13" lengthAdjust="spacing" textLength="212" x="77" y="111.6494">Asks to register a vehicle's check-up</text><polygon fill="#181818" points="70,144.2031,60,148.2031,70,152.2031,66,148.2031" style="stroke:#181818;stroke-width:1.0;"/><line style="stroke:#181818;stroke-width:1.0;" x1="64" x2="365" y1="148.2031" y2="148.2031"/><text fill="#000000" font-family="sans-serif" font-size="13" font-weight="bold" lengthAdjust="spacing" textLength="7" x="76" y="142.9404">2</text><text fill="#000000" font-family="sans-serif" font-size="13" lengthAdjust="spacing" textLength="136" x="87" y="142.9404">Requests data (plateID)</text><polygon fill="#181818" points="349,175.4941,359,179.4941,349,183.4941,353,179.4941" style="stroke:#181818;stroke-width:1.0;"/><line style="stroke:#181818;stroke-width:1.0;" x1="59" x2="355" y1="179.4941" y2="179.4941"/><text fill="#000000" font-family="sans-serif" font-size="13" font-weight="bold" lengthAdjust="spacing" textLength="7" x="66" y="174.2314">3</text><text fill="#000000" font-family="sans-serif" font-size="13" lengthAdjust="spacing" textLength="138" x="77" y="174.2314">Submits requested data</text><polygon fill="#181818" points="752,206.7852,762,210.7852,752,214.7852,756,210.7852" style="stroke:#181818;stroke-width:1.0;"/><line style="stroke:#181818;stroke-width:1.0;" x1="371" x2="758" y1="210.7852" y2="210.7852"/><text fill="#000000" font-family="sans-serif" font-size="13" font-weight="bold" lengthAdjust="spacing" textLength="7" x="378" y="205.5225">4</text><text fill="#000000" font-family="sans-serif" font-size="13" lengthAdjust="spacing" textLength="36" x="389" y="205.5225">create</text><polygon fill="#181818" points="747,238.0762,757,242.0762,747,246.0762,751,242.0762" style="stroke:#181818;stroke-width:1.0;"/><line style="stroke:#181818;stroke-width:1.0;" x1="366" x2="753" y1="242.0762" y2="242.0762"/><text fill="#000000" font-family="sans-serif" font-size="13" font-weight="bold" lengthAdjust="spacing" textLength="7" x="373" y="236.8135">5</text><text fill="#000000" font-family="sans-serif" font-size="13" lengthAdjust="spacing" textLength="167" x="384" y="236.8135">getVehicleByPlateID(plateID)</text><polygon fill="#181818" points="895.5,269.3672,905.5,273.3672,895.5,277.3672,899.5,273.3672" style="stroke:#181818;stroke-width:1.0;"/><line style="stroke:#181818;stroke-width:1.0;" x1="769" x2="901.5" y1="273.3672" y2="273.3672"/><text fill="#000000" font-family="sans-serif" font-size="13" font-weight="bold" lengthAdjust="spacing" textLength="7" x="776" y="268.1045">6</text><text fill="#000000" font-family="sans-serif" font-size="13" lengthAdjust="spacing" textLength="75" x="787" y="268.1045">getInstance()</text><polygon fill="#181818" points="780,300.6582,770,304.6582,780,308.6582,776,304.6582" style="stroke:#181818;stroke-width:1.0;"/><line style="stroke:#181818;stroke-width:1.0;stroke-dasharray:2.0,2.0;" x1="774" x2="911.5" y1="304.6582" y2="304.6582"/><text fill="#000000" font-family="sans-serif" font-size="13" font-weight="bold" lengthAdjust="spacing" textLength="7" x="786" y="299.3955">7</text><text fill="#000000" font-family="sans-serif" font-size="13" lengthAdjust="spacing" textLength="67" x="797" y="299.3955">repositories</text><polygon fill="#181818" points="1002.5,331.9492,1012.5,335.9492,1002.5,339.9492,1006.5,335.9492" style="stroke:#181818;stroke-width:1.0;"/><line style="stroke:#181818;stroke-width:1.0;" x1="769" x2="1008.5" y1="335.9492" y2="335.9492"/><text fill="#000000" font-family="sans-serif" font-size="13" font-weight="bold" lengthAdjust="spacing" textLength="7" x="776" y="330.6865">8</text><text fill="#000000" font-family="sans-serif" font-size="13" lengthAdjust="spacing" textLength="131" x="787" y="330.6865">getVehicleRepository()</text><polygon fill="#181818" points="780,363.2402,770,367.2402,780,371.2402,776,367.2402" style="stroke:#181818;stroke-width:1.0;"/><line style="stroke:#181818;stroke-width:1.0;stroke-dasharray:2.0,2.0;" x1="774" x2="1018.5" y1="367.2402" y2="367.2402"/><text fill="#000000" font-family="sans-serif" font-size="13" font-weight="bold" lengthAdjust="spacing" textLength="7" x="786" y="361.9775">9</text><text fill="#000000" font-family="sans-serif" font-size="13" lengthAdjust="spacing" textLength="101" x="797" y="361.9775">vehicleRepository</text><polygon fill="#181818" points="1127,394.5313,1137,398.5313,1127,402.5313,1131,398.5313" style="stroke:#181818;stroke-width:1.0;"/><line style="stroke:#181818;stroke-width:1.0;" x1="769" x2="1133" y1="398.5313" y2="398.5313"/><text fill="#000000" font-family="sans-serif" font-size="13" font-weight="bold" lengthAdjust="spacing" textLength="14" x="776" y="393.2686">10</text><text fill="#000000" font-family="sans-serif" font-size="13" lengthAdjust="spacing" textLength="205" x="794" y="393.2686">vehicleListContainsByPlate(plateID)</text><polygon fill="#181818" points="780,425.8223,770,429.8223,780,433.8223,776,429.8223" style="stroke:#181818;stroke-width:1.0;"/><line style="stroke:#181818;stroke-width:1.0;" x1="774" x2="1143" y1="429.8223" y2="429.8223"/><text fill="#000000" font-family="sans-serif" font-size="13" font-weight="bold" lengthAdjust="spacing" textLength="14" x="786" y="424.5596">11</text><text fill="#000000" font-family="sans-serif" font-size="13" lengthAdjust="spacing" textLength="39" x="804" y="424.5596">vehicle</text><polygon fill="#181818" points="382,457.1133,372,461.1133,382,465.1133,378,461.1133" style="stroke:#181818;stroke-width:1.0;"/><line style="stroke:#181818;stroke-width:1.0;" x1="376" x2="763" y1="461.1133" y2="461.1133"/><text fill="#000000" font-family="sans-serif" font-size="13" font-weight="bold" lengthAdjust="spacing" textLength="14" x="388" y="455.8506">12</text><text fill="#000000" font-family="sans-serif" font-size="13" lengthAdjust="spacing" textLength="39" x="406" y="455.8506">vehicle</text><polygon fill="#181818" points="70,488.4043,60,492.4043,70,496.4043,66,492.4043" style="stroke:#181818;stroke-width:1.0;"/><line style="stroke:#181818;stroke-width:1.0;" x1="64" x2="365" y1="492.4043" y2="492.4043"/><text fill="#000000" font-family="sans-serif" font-size="13" font-weight="bold" lengthAdjust="spacing" textLength="14" x="76" y="487.1416">13</text><text fill="#000000" font-family="sans-serif" font-size="13" lengthAdjust="spacing" textLength="260" x="94" y="487.1416">Requests data (checkUpDate, checkUpKms)</text><polygon fill="#181818" points="349,519.6953,359,523.6953,349,527.6953,353,523.6953" style="stroke:#181818;stroke-width:1.0;"/><line style="stroke:#181818;stroke-width:1.0;" x1="59" x2="355" y1="523.6953" y2="523.6953"/><text fill="#000000" font-family="sans-serif" font-size="13" font-weight="bold" lengthAdjust="spacing" textLength="14" x="66" y="518.4326">14</text><text fill="#000000" font-family="sans-serif" font-size="13" lengthAdjust="spacing" textLength="138" x="84" y="518.4326">Submits requested data</text><polygon fill="#181818" points="747,550.9863,757,554.9863,747,558.9863,751,554.9863" style="stroke:#181818;stroke-width:1.0;"/><line style="stroke:#181818;stroke-width:1.0;" x1="366" x2="753" y1="554.9863" y2="554.9863"/><text fill="#000000" font-family="sans-serif" font-size="13" font-weight="bold" lengthAdjust="spacing" textLength="14" x="373" y="549.7236">15</text><text fill="#000000" font-family="sans-serif" font-size="13" lengthAdjust="spacing" textLength="351" x="391" y="549.7236">createVehicleCheckUp(vehicle, checkUpDate, checkUpKms)</text><polygon fill="#181818" points="1296.5,582.2773,1306.5,586.2773,1296.5,590.2773,1300.5,586.2773" style="stroke:#181818;stroke-width:1.0;"/><line style="stroke:#181818;stroke-width:1.0;" x1="769" x2="1302.5" y1="586.2773" y2="586.2773"/><text fill="#000000" font-family="sans-serif" font-size="13" font-weight="bold" lengthAdjust="spacing" textLength="14" x="776" y="581.0146">16</text><text fill="#000000" font-family="sans-serif" font-size="13" lengthAdjust="spacing" textLength="315" x="794" y="581.0146">registerCheckUp(vehicle, checkUpDate, checkUpKms)</text><polygon fill="#181818" points="1562,613.5684,1572,617.5684,1562,621.5684,1566,617.5684" style="stroke:#181818;stroke-width:1.0;"/><line style="stroke:#181818;stroke-width:1.0;" x1="1318.5" x2="1568" y1="617.5684" y2="617.5684"/><text fill="#000000" font-family="sans-serif" font-size="13" font-weight="bold" lengthAdjust="spacing" textLength="14" x="1325.5" y="612.3057">17</text><text fill="#000000" font-family="sans-serif" font-size="13" lengthAdjust="spacing" textLength="36" x="1343.5" y="612.3057">create</text><rect fill="#E3E3E3" height="51.2422" rx="2.5" ry="2.5" style="stroke:#181818;stroke-width:0.5;" width="75" x="1574" y="594.2773"/><text fill="#000000" font-family="sans-serif" font-size="14" lengthAdjust="spacing" textLength="54" x="1584.5" y="616.3848">checkUp</text><text fill="#000000" font-family="sans-serif" font-size="14" lengthAdjust="spacing" textLength="61" x="1581" y="635.0059">:CheckUp</text><line style="stroke:#181818;stroke-width:1.0;" x1="1318.5" x2="1360.5" y1="679.8105" y2="679.8105"/><line style="stroke:#181818;stroke-width:1.0;" x1="1360.5" x2="1360.5" y1="679.8105" y2="692.8105"/><line style="stroke:#181818;stroke-width:1.0;" x1="1319.5" x2="1360.5" y1="692.8105" y2="692.8105"/><polygon fill="#181818" points="1329.5,688.8105,1319.5,692.8105,1329.5,696.8105,1325.5,692.8105" style="stroke:#181818;stroke-width:1.0;"/><text fill="#000000" font-family="sans-serif" font-size="13" font-weight="bold" lengthAdjust="spacing" textLength="14" x="1325.5" y="674.5479">18</text><text fill="#000000" font-family="sans-serif" font-size="13" lengthAdjust="spacing" textLength="133" x="1343.5" y="674.5479">addCheckUp(checkUp)</text><line style="stroke:#181818;stroke-width:1.0;" x1="1318.5" x2="1360.5" y1="724.1016" y2="724.1016"/><line style="stroke:#181818;stroke-width:1.0;" x1="1360.5" x2="1360.5" y1="724.1016" y2="737.1016"/><line style="stroke:#181818;stroke-width:1.0;" x1="1319.5" x2="1360.5" y1="737.1016" y2="737.1016"/><polygon fill="#181818" points="1329.5,733.1016,1319.5,737.1016,1329.5,741.1016,1325.5,737.1016" style="stroke:#181818;stroke-width:1.0;"/><text fill="#000000" font-family="sans-serif" font-size="13" font-weight="bold" lengthAdjust="spacing" textLength="14" x="1325.5" y="718.8389">19</text><text fill="#000000" font-family="sans-serif" font-size="13" lengthAdjust="spacing" textLength="155" x="1343.5" y="718.8389">validateCheckUp(checkUp)</text><line style="stroke:#181818;stroke-width:1.0;" x1="1318.5" x2="1360.5" y1="768.3926" y2="768.3926"/><line style="stroke:#181818;stroke-width:1.0;" x1="1360.5" x2="1360.5" y1="768.3926" y2="781.3926"/><line style="stroke:#181818;stroke-width:1.0;" x1="1319.5" x2="1360.5" y1="781.3926" y2="781.3926"/><polygon fill="#181818" points="1329.5,777.3926,1319.5,781.3926,1329.5,785.3926,1325.5,781.3926" style="stroke:#181818;stroke-width:1.0;"/><text fill="#000000" font-family="sans-serif" font-size="13" font-weight="bold" lengthAdjust="spacing" textLength="14" x="1325.5" y="763.1299">20</text><text fill="#000000" font-family="sans-serif" font-size="13" lengthAdjust="spacing" textLength="256" x="1343.5" y="763.1299">setLastKmsCheckUp(vehicle, checkUpKms)</text><polygon fill="#181818" points="780,808.6836,770,812.6836,780,816.6836,776,812.6836" style="stroke:#181818;stroke-width:1.0;"/><line style="stroke:#181818;stroke-width:1.0;" x1="774" x2="1312.5" y1="812.6836" y2="812.6836"/><text fill="#000000" font-family="sans-serif" font-size="13" font-weight="bold" lengthAdjust="spacing" textLength="14" x="786" y="807.4209">21</text><text fill="#000000" font-family="sans-serif" font-size="13" lengthAdjust="spacing" textLength="51" x="804" y="807.4209">checkUp</text><polygon fill="#181818" points="382,839.9746,372,843.9746,382,847.9746,378,843.9746" style="stroke:#181818;stroke-width:1.0;"/><line style="stroke:#181818;stroke-width:1.0;" x1="376" x2="763" y1="843.9746" y2="843.9746"/><text fill="#000000" font-family="sans-serif" font-size="13" font-weight="bold" lengthAdjust="spacing" textLength="14" x="388" y="838.7119">22</text><text fill="#000000" font-family="sans-serif" font-size="13" lengthAdjust="spacing" textLength="51" x="406" y="838.7119">checkUp</text><polygon fill="#181818" points="70,871.2656,60,875.2656,70,879.2656,66,875.2656" style="stroke:#181818;stroke-width:1.0;"/><line style="stroke:#181818;stroke-width:1.0;" x1="64" x2="365" y1="875.2656" y2="875.2656"/><text fill="#000000" font-family="sans-serif" font-size="13" font-weight="bold" lengthAdjust="spacing" textLength="14" x="76" y="870.0029">23</text><text fill="#000000" font-family="sans-serif" font-size="13" lengthAdjust="spacing" textLength="160" x="94" y="870.0029">Displays operation success</text><!--SRC=[jLLDR-8m4BtxLrXSbbRB7yXXfIuiAYf824fFlRZEB5WaJjRZiEBVx-2OnFbYKQNUIFpUc-UPDm6FIkV2Y9IdcSxamMGfS6iAO5YTv48UnHwszfm0Do2jqFia1E11nDbVfVVyjqWG61E5pNIHVe2Xtz9cXe_c2O3bAw59oOouG3vVCKPygwJAXRPy54qF88z5le6zGWjcjt2utQ8DCo0iEF0kdsRQcYn9lEZqTRDimJUGPwZ8X09qcEh5UQikDo6lJOe96E-wAx1UFhqs6ISuA9b0hKoqj_Oxn-qWUuNyvMfKzAxV1ewSxD1XKrsMnsJE0ykUFV-QlkpMRbJgHArrevcl-EG7DPz7_0cFo6r6ioy7myNr6j-GEyr9aTTi6XWZ7h598w9s_oa0BV9OMC77UKAOnUo1nT1W1FMsnKUgY61A9iIEsbVWCcuYI9U8riizMD-Ld-TrMRGktgvUFRW0CIT1KZrHAPKN6caD98mVQcfVhbYVmiIRZ7YOjD1IhzJLr2L-ZVlLwD2EIobpuBfWDtv1rP9nBTE1yeg-f1XS5ayeZRwvGMihlMunrXMj1-RFGaSz2fK_5vKUJZd1EzFeDs96oE_SFxoa-0NfR6xes1klYlxFmK10X_QUHzMstb-ngZ7uDM63zIxNBRyZZu_rHjw2tx0kulZgslkZM37-IRMJI5HS_sC4afzLHB1BWPQQDjHSry_RtVBXAC_2QGzt_pvKOq6k-gop8et0XYioKqZBV4QUvM24LVJ5ma9AG6nbyXy0]--></g></svg>