<?xml version="1.0" encoding="us-ascii" standalone="no"?><svg xmlns="http://www.w3.org/2000/svg" xmlns:xlink="http://www.w3.org/1999/xlink" contentStyleType="text/css" height="302px" preserveAspectRatio="none" style="width:555px;height:302px;background:#FFFFFF;" version="1.1" viewBox="0 0 555 302" width="555px" zoomAndPan="magnify"><defs/><g><rect fill="#FFFFFF" height="156.5527" style="stroke:#181818;stroke-width:1.0;" width="10" x="235" y="84.2871"/><rect fill="#FFFFFF" height="29.3105" style="stroke:#181818;stroke-width:1.0;" width="10" x="370" y="137.9082"/><rect fill="#FFFFFF" height="29.3105" style="stroke:#181818;stroke-width:1.0;" width="10" x="483" y="196.5293"/><rect fill="none" height="134.5527" style="stroke:#000000;stroke-width:1.5;" width="388" x="161.5" y="99.2871"/><line style="stroke:#181818;stroke-width:0.5;stroke-dasharray:5.0,5.0;" x1="239.5" x2="239.5" y1="52.9766" y2="250.8398"/><line style="stroke:#181818;stroke-width:0.5;stroke-dasharray:5.0,5.0;" x1="374.5" x2="374.5" y1="52.9766" y2="250.8398"/><line style="stroke:#181818;stroke-width:0.5;stroke-dasharray:5.0,5.0;" x1="487.5" x2="487.5" y1="52.9766" y2="250.8398"/><rect fill="#E3E3E3" height="30.4883" rx="2.5" ry="2.5" style="stroke:#181818;stroke-width:0.5;" width="137" x="171.5" y="21.4883"/><text fill="#000000" font-family="sans-serif" font-size="14" lengthAdjust="spacing" textLength="123" x="178.5" y="42.0234">:VehicleController</text><rect fill="#E3E3E3" height="30.4883" rx="2.5" ry="2.5" style="stroke:#181818;stroke-width:0.5;" width="137" x="171.5" y="249.8398"/><text fill="#000000" font-family="sans-serif" font-size="14" lengthAdjust="spacing" textLength="123" x="178.5" y="270.375">:VehicleController</text><rect fill="#E3E3E3" height="30.4883" rx="2.5" ry="2.5" style="stroke:#181818;stroke-width:0.5;" width="103" x="323.5" y="21.4883"/><text fill="#000000" font-family="sans-serif" font-size="14" lengthAdjust="spacing" textLength="89" x="330.5" y="42.0234">:Repositories</text><rect fill="#E3E3E3" height="30.4883" rx="2.5" ry="2.5" style="stroke:#181818;stroke-width:0.5;" width="103" x="323.5" y="249.8398"/><text fill="#000000" font-family="sans-serif" font-size="14" lengthAdjust="spacing" textLength="89" x="330.5" y="270.375">:Repositories</text><rect fill="#E3E3E3" height="46.9766" rx="2.5" ry="2.5" style="stroke:#181818;stroke-width:0.5;" width="103" x="436.5" y="5"/><text fill="#000000" font-family="sans-serif" font-size="14" lengthAdjust="spacing" textLength="82" x="447" y="25.5352">repositories</text><text fill="#000000" font-family="sans-serif" font-size="14" lengthAdjust="spacing" textLength="89" x="443.5" y="42.0234">:Repositories</text><rect fill="#E3E3E3" height="46.9766" rx="2.5" ry="2.5" style="stroke:#181818;stroke-width:0.5;" width="103" x="436.5" y="249.8398"/><text fill="#000000" font-family="sans-serif" font-size="14" lengthAdjust="spacing" textLength="82" x="447" y="270.375">repositories</text><text fill="#000000" font-family="sans-serif" font-size="14" lengthAdjust="spacing" textLength="89" x="443.5" y="286.8633">:Repositories</text><rect fill="#FFFFFF" height="156.5527" style="stroke:#181818;stroke-width:1.0;" width="10" x="235" y="84.2871"/><rect fill="#FFFFFF" height="29.3105" style="stroke:#181818;stroke-width:1.0;" width="10" x="370" y="137.9082"/><rect fill="#FFFFFF" height="29.3105" style="stroke:#181818;stroke-width:1.0;" width="10" x="483" y="196.5293"/><polygon fill="#181818" points="223,80.2871,233,84.2871,223,88.2871,227,84.2871" style="stroke:#181818;stroke-width:1.0;"/><line style="stroke:#181818;stroke-width:1.0;" x1="0" x2="229" y1="84.2871" y2="84.2871"/><text fill="#000000" font-family="sans-serif" font-size="13" font-weight="bold" lengthAdjust="spacing" textLength="9" x="7" y="79.5449">3</text><text fill="#000000" font-family="sans-serif" font-size="13" lengthAdjust="spacing" textLength="203" x="20" y="79.5449">getVehicleListNeedingCheckup()</text><path d="M161.5,99.2871 L310.5,99.2871 L310.5,106.5977 L300.5,116.5977 L161.5,116.5977 L161.5,99.2871 " fill="#EEEEEE" style="stroke:#000000;stroke-width:1.5;"/><rect fill="none" height="134.5527" style="stroke:#000000;stroke-width:1.5;" width="388" x="161.5" y="99.2871"/><text fill="#000000" font-family="sans-serif" font-size="13" font-weight="bold" lengthAdjust="spacing" textLength="104" x="176.5" y="112.8555">Get Vehicle List</text><polygon fill="#181818" points="358,133.9082,368,137.9082,358,141.9082,362,137.9082" style="stroke:#181818;stroke-width:1.0;"/><line style="stroke:#181818;stroke-width:1.0;" x1="245" x2="364" y1="137.9082" y2="137.9082"/><text fill="#000000" font-family="sans-serif" font-size="13" font-weight="bold" lengthAdjust="spacing" textLength="21" x="252" y="133.166">3.1</text><text fill="#000000" font-family="sans-serif" font-size="13" lengthAdjust="spacing" textLength="81" x="277" y="133.166">getInstance()</text><polygon fill="#181818" points="256,163.2188,246,167.2188,256,171.2188,252,167.2188" style="stroke:#181818;stroke-width:1.0;"/><line style="stroke:#181818;stroke-width:1.0;stroke-dasharray:2.0,2.0;" x1="250" x2="374" y1="167.2188" y2="167.2188"/><text fill="#000000" font-family="sans-serif" font-size="13" font-weight="bold" lengthAdjust="spacing" textLength="21" x="262" y="162.4766">3.2</text><text fill="#000000" font-family="sans-serif" font-size="13" lengthAdjust="spacing" textLength="75" x="287" y="162.4766">repositories</text><polygon fill="#181818" points="471,192.5293,481,196.5293,471,200.5293,475,196.5293" style="stroke:#181818;stroke-width:1.0;"/><line style="stroke:#181818;stroke-width:1.0;" x1="245" x2="477" y1="196.5293" y2="196.5293"/><text fill="#000000" font-family="sans-serif" font-size="13" font-weight="bold" lengthAdjust="spacing" textLength="21" x="252" y="191.7871">3.3</text><text fill="#000000" font-family="sans-serif" font-size="13" lengthAdjust="spacing" textLength="140" x="277" y="191.7871">getVehicleRepository()</text><polygon fill="#181818" points="256,221.8398,246,225.8398,256,229.8398,252,225.8398" style="stroke:#181818;stroke-width:1.0;"/><line style="stroke:#181818;stroke-width:1.0;stroke-dasharray:2.0,2.0;" x1="250" x2="487" y1="225.8398" y2="225.8398"/><text fill="#000000" font-family="sans-serif" font-size="13" font-weight="bold" lengthAdjust="spacing" textLength="21" x="262" y="221.0977">3.4</text><text fill="#000000" font-family="sans-serif" font-size="13" lengthAdjust="spacing" textLength="111" x="287" y="221.0977">vehicleRepository</text><!--SRC=[ZL4zJyCm4DtlLvow04EH45i799G18LK8jHKJY-jS4wkEBx8lXVvxd3IaJcWbRhJVrxqBU-DgvLM55JlMfUUAK7n348QVMkczAcWjHqleIOjoXKq1eLGvVnbNu4xPG02g4NPDjIKFS5EQd737B5l-1eWCCThKoWdE5XzK6cqfOoUUhIK_GnKmswoM4-2AQWv6s1iA7MPuEAvD6oSQZYa-ONowlmBlo-SDf57n4G3dJvqxBh0WwTCjJP0teZpwP2NfVLFVteruzm-Wj9Y34ZfbnpY5vwR65nBiPR3LYOwOJESLFIziSuhmwaAiMrDqJ7c3tQKQHiXsBgdF-qqNc1OrekRqVvlVHTfMH-MTcTTME1rYchaJEeSyJDMk9UtFsa_xIIu7I13TXU07]--></g></svg>