<?xml version="1.0" encoding="us-ascii" standalone="no"?><svg xmlns="http://www.w3.org/2000/svg" xmlns:xlink="http://www.w3.org/1999/xlink" contentStyleType="text/css" height="539px" preserveAspectRatio="none" style="width:1109px;height:539px;background:#FFFFFF;" version="1.1" viewBox="0 0 1109 539" width="1109px" zoomAndPan="magnify"><defs/><g><!--class ShowGreenSpacesUI--><g id="elem_ShowGreenSpacesUI"><rect codeLine="9" fill="#F1F1F1" height="48" id="ShowGreenSpacesUI" rx="2.5" ry="2.5" style="stroke:#181818;stroke-width:0.5;" width="165" x="394" y="7"/><ellipse cx="409" cy="23" fill="#ADD1B2" rx="11" ry="11" style="stroke:#181818;stroke-width:1.0;"/><path d="M411.7656,18.875 Q411.9219,18.6563 412.1094,18.5469 Q412.2969,18.4375 412.5156,18.4375 Q412.8906,18.4375 413.125,18.7031 Q413.3594,18.9531 413.3594,19.5625 L413.3594,21.0156 Q413.3594,21.625 413.125,21.8906 Q412.8906,22.1563 412.5156,22.1563 Q412.1719,22.1563 411.9688,21.9531 Q411.7656,21.7656 411.6563,21.25 Q411.6094,20.8906 411.4219,20.7031 Q411.0938,20.3281 410.4844,20.1094 Q409.875,19.8906 409.25,19.8906 Q408.4844,19.8906 407.8438,20.2188 Q407.2188,20.5469 406.7188,21.2969 Q406.2344,22.0469 406.2344,23.0781 L406.2344,24.1719 Q406.2344,25.4063 407.125,26.2344 Q408.0156,27.0469 409.6094,27.0469 Q410.5469,27.0469 411.2031,26.7969 Q411.5938,26.6406 412.0156,26.2031 Q412.2813,25.9375 412.4219,25.8594 Q412.5781,25.7813 412.7813,25.7813 Q413.1094,25.7813 413.3594,26.0469 Q413.625,26.2969 413.625,26.6406 Q413.625,26.9844 413.2813,27.3906 Q412.7813,27.9688 411.9844,28.2969 Q410.9063,28.75 409.6094,28.75 Q408.0938,28.75 406.8906,28.125 Q405.9063,27.625 405.2188,26.5625 Q404.5313,25.4844 404.5313,24.2031 L404.5313,23.0469 Q404.5313,21.7188 405.1406,20.5781 Q405.7656,19.4219 406.8594,18.8125 Q407.9531,18.1875 409.1875,18.1875 Q409.9219,18.1875 410.5625,18.3594 Q411.2188,18.5156 411.7656,18.875 Z " fill="#000000"/><text fill="#000000" font-family="sans-serif" font-size="14" lengthAdjust="spacing" textLength="133" x="423" y="28.7969">ShowGreenSpacesUI</text><line style="stroke:#181818;stroke-width:0.5;" x1="395" x2="558" y1="39" y2="39"/><line style="stroke:#181818;stroke-width:0.5;" x1="395" x2="558" y1="47" y2="47"/></g><!--class ShowGreenSpacesByManagerController--><g id="elem_ShowGreenSpacesByManagerController"><rect codeLine="13" fill="#F1F1F1" height="178.3477" id="ShowGreenSpacesByManagerController" rx="2.5" ry="2.5" style="stroke:#181818;stroke-width:0.5;" width="373" x="290" y="116"/><ellipse cx="344.75" cy="132" fill="#ADD1B2" rx="11" ry="11" style="stroke:#181818;stroke-width:1.0;"/><path d="M347.5156,127.875 Q347.6719,127.6563 347.8594,127.5469 Q348.0469,127.4375 348.2656,127.4375 Q348.6406,127.4375 348.875,127.7031 Q349.1094,127.9531 349.1094,128.5625 L349.1094,130.0156 Q349.1094,130.625 348.875,130.8906 Q348.6406,131.1563 348.2656,131.1563 Q347.9219,131.1563 347.7188,130.9531 Q347.5156,130.7656 347.4063,130.25 Q347.3594,129.8906 347.1719,129.7031 Q346.8438,129.3281 346.2344,129.1094 Q345.625,128.8906 345,128.8906 Q344.2344,128.8906 343.5938,129.2188 Q342.9688,129.5469 342.4688,130.2969 Q341.9844,131.0469 341.9844,132.0781 L341.9844,133.1719 Q341.9844,134.4063 342.875,135.2344 Q343.7656,136.0469 345.3594,136.0469 Q346.2969,136.0469 346.9531,135.7969 Q347.3438,135.6406 347.7656,135.2031 Q348.0313,134.9375 348.1719,134.8594 Q348.3281,134.7813 348.5313,134.7813 Q348.8594,134.7813 349.1094,135.0469 Q349.375,135.2969 349.375,135.6406 Q349.375,135.9844 349.0313,136.3906 Q348.5313,136.9688 347.7344,137.2969 Q346.6563,137.75 345.3594,137.75 Q343.8438,137.75 342.6406,137.125 Q341.6563,136.625 340.9688,135.5625 Q340.2813,134.4844 340.2813,133.2031 L340.2813,132.0469 Q340.2813,130.7188 340.8906,129.5781 Q341.5156,128.4219 342.6094,127.8125 Q343.7031,127.1875 344.9375,127.1875 Q345.6719,127.1875 346.3125,127.3594 Q346.9688,127.5156 347.5156,127.875 Z " fill="#000000"/><text fill="#000000" font-family="sans-serif" font-size="14" lengthAdjust="spacing" textLength="255" x="365.25" y="137.7969">ShowGreenSpacesByManagerController</text><line style="stroke:#181818;stroke-width:0.5;" x1="291" x2="662" y1="148" y2="148"/><text fill="#000000" font-family="sans-serif" font-size="14" lengthAdjust="spacing" textLength="302" x="296" y="167.1074">-GreenSpaceRepository greenSpaceRepository</text><text fill="#000000" font-family="sans-serif" font-size="14" lengthAdjust="spacing" textLength="162" x="296" y="185.7285">-Repositories repositories</text><text fill="#000000" font-family="sans-serif" font-size="14" lengthAdjust="spacing" textLength="233" x="296" y="204.3496">-SortGreenSpaces sortGreenSpaces</text><line style="stroke:#181818;stroke-width:0.5;" x1="291" x2="662" y1="211.8633" y2="211.8633"/><text fill="#000000" font-family="sans-serif" font-size="14" lengthAdjust="spacing" textLength="273" x="296" y="230.9707">+ShowGreenSpacesByManagerController()</text><text fill="#000000" font-family="sans-serif" font-size="14" lengthAdjust="spacing" textLength="361" x="296" y="249.5918">+List&lt;GreenSpace&gt; showGreenSpaces(String sortOrder)</text><text fill="#000000" font-family="sans-serif" font-size="14" lengthAdjust="spacing" textLength="335" x="296" y="268.2129">-GreenSpaceRepository getGreenSpaceRepository()</text><text fill="#000000" font-family="sans-serif" font-size="14" lengthAdjust="spacing" textLength="154" x="296" y="286.834">-String getResponsible()</text></g><!--class SortGreenSpaces--><g id="elem_SortGreenSpaces"><rect codeLine="23" fill="#F1F1F1" height="159.7266" id="SortGreenSpaces" rx="2.5" ry="2.5" style="stroke:#181818;stroke-width:0.5;" width="593" x="7" y="373"/><ellipse cx="242.75" cy="389" fill="#ADD1B2" rx="11" ry="11" style="stroke:#181818;stroke-width:1.0;"/><path d="M245.5156,384.875 Q245.6719,384.6563 245.8594,384.5469 Q246.0469,384.4375 246.2656,384.4375 Q246.6406,384.4375 246.875,384.7031 Q247.1094,384.9531 247.1094,385.5625 L247.1094,387.0156 Q247.1094,387.625 246.875,387.8906 Q246.6406,388.1563 246.2656,388.1563 Q245.9219,388.1563 245.7188,387.9531 Q245.5156,387.7656 245.4063,387.25 Q245.3594,386.8906 245.1719,386.7031 Q244.8438,386.3281 244.2344,386.1094 Q243.625,385.8906 243,385.8906 Q242.2344,385.8906 241.5938,386.2188 Q240.9688,386.5469 240.4688,387.2969 Q239.9844,388.0469 239.9844,389.0781 L239.9844,390.1719 Q239.9844,391.4063 240.875,392.2344 Q241.7656,393.0469 243.3594,393.0469 Q244.2969,393.0469 244.9531,392.7969 Q245.3438,392.6406 245.7656,392.2031 Q246.0313,391.9375 246.1719,391.8594 Q246.3281,391.7813 246.5313,391.7813 Q246.8594,391.7813 247.1094,392.0469 Q247.375,392.2969 247.375,392.6406 Q247.375,392.9844 247.0313,393.3906 Q246.5313,393.9688 245.7344,394.2969 Q244.6563,394.75 243.3594,394.75 Q241.8438,394.75 240.6406,394.125 Q239.6563,393.625 238.9688,392.5625 Q238.2813,391.4844 238.2813,390.2031 L238.2813,389.0469 Q238.2813,387.7188 238.8906,386.5781 Q239.5156,385.4219 240.6094,384.8125 Q241.7031,384.1875 242.9375,384.1875 Q243.6719,384.1875 244.3125,384.3594 Q244.9688,384.5156 245.5156,384.875 Z " fill="#000000"/><text fill="#000000" font-family="sans-serif" font-size="14" lengthAdjust="spacing" textLength="113" x="263.25" y="394.7969">SortGreenSpaces</text><line style="stroke:#181818;stroke-width:0.5;" x1="8" x2="599" y1="405" y2="405"/><line style="stroke:#181818;stroke-width:0.5;" x1="8" x2="599" y1="413" y2="413"/><text fill="#000000" font-family="sans-serif" font-size="14" lengthAdjust="spacing" textLength="581" x="13" y="432.1074">+List&lt;GreenSpace&gt; sortGreenSpaces(List&lt;GreenSpace&gt; greenSpaces) throws IOException</text><text fill="#000000" font-family="sans-serif" font-size="14" lengthAdjust="spacing" textLength="297" x="13" y="450.7285">-static void loadFileConfig() throws IOException</text><text fill="#000000" font-family="sans-serif" font-size="14" lengthAdjust="spacing" textLength="481" x="13" y="469.3496">-static List&lt;GreenSpace&gt; ascendingName(List&lt;GreenSpace&gt; greenSpaces)</text><text fill="#000000" font-family="sans-serif" font-size="14" lengthAdjust="spacing" textLength="489" x="13" y="487.9707">-static List&lt;GreenSpace&gt; descendingName(List&lt;GreenSpace&gt; greenSpaces)</text><text fill="#000000" font-family="sans-serif" font-size="14" lengthAdjust="spacing" textLength="449" x="13" y="506.5918">-static List&lt;GreenSpace&gt; bubbleSort(List&lt;GreenSpace&gt; greenSpaces)</text><text fill="#000000" font-family="sans-serif" font-size="14" lengthAdjust="spacing" textLength="460" x="13" y="525.2129">-static List&lt;GreenSpace&gt; insertionSort(List&lt;GreenSpace&gt; greenSpaces)</text></g><!--class GreenSpaceRepository--><g id="elem_GreenSpaceRepository"><rect codeLine="32" fill="#F1F1F1" height="85.2422" id="GreenSpaceRepository" rx="2.5" ry="2.5" style="stroke:#181818;stroke-width:0.5;" width="467" x="635" y="410.5"/><ellipse cx="790.25" cy="426.5" fill="#ADD1B2" rx="11" ry="11" style="stroke:#181818;stroke-width:1.0;"/><path d="M793.0156,422.375 Q793.1719,422.1563 793.3594,422.0469 Q793.5469,421.9375 793.7656,421.9375 Q794.1406,421.9375 794.375,422.2031 Q794.6094,422.4531 794.6094,423.0625 L794.6094,424.5156 Q794.6094,425.125 794.375,425.3906 Q794.1406,425.6563 793.7656,425.6563 Q793.4219,425.6563 793.2188,425.4531 Q793.0156,425.2656 792.9063,424.75 Q792.8594,424.3906 792.6719,424.2031 Q792.3438,423.8281 791.7344,423.6094 Q791.125,423.3906 790.5,423.3906 Q789.7344,423.3906 789.0938,423.7188 Q788.4688,424.0469 787.9688,424.7969 Q787.4844,425.5469 787.4844,426.5781 L787.4844,427.6719 Q787.4844,428.9063 788.375,429.7344 Q789.2656,430.5469 790.8594,430.5469 Q791.7969,430.5469 792.4531,430.2969 Q792.8438,430.1406 793.2656,429.7031 Q793.5313,429.4375 793.6719,429.3594 Q793.8281,429.2813 794.0313,429.2813 Q794.3594,429.2813 794.6094,429.5469 Q794.875,429.7969 794.875,430.1406 Q794.875,430.4844 794.5313,430.8906 Q794.0313,431.4688 793.2344,431.7969 Q792.1563,432.25 790.8594,432.25 Q789.3438,432.25 788.1406,431.625 Q787.1563,431.125 786.4688,430.0625 Q785.7813,428.9844 785.7813,427.7031 L785.7813,426.5469 Q785.7813,425.2188 786.3906,424.0781 Q787.0156,422.9219 788.1094,422.3125 Q789.2031,421.6875 790.4375,421.6875 Q791.1719,421.6875 791.8125,421.8594 Q792.4688,422.0156 793.0156,422.375 Z " fill="#000000"/><text fill="#000000" font-family="sans-serif" font-size="14" lengthAdjust="spacing" textLength="148" x="810.75" y="432.2969">GreenSpaceRepository</text><line style="stroke:#181818;stroke-width:0.5;" x1="636" x2="1101" y1="442.5" y2="442.5"/><text fill="#000000" font-family="sans-serif" font-size="14" lengthAdjust="spacing" textLength="233" x="641" y="461.6074">-List&lt;GreenSpace&gt; greenSpacesList</text><line style="stroke:#181818;stroke-width:0.5;" x1="636" x2="1101" y1="469.1211" y2="469.1211"/><text fill="#000000" font-family="sans-serif" font-size="14" lengthAdjust="spacing" textLength="455" x="641" y="488.2285">+List&lt;GreenSpace&gt; getGreenSpacesByResponsible(String responsible)</text></g><!--class Repositories--><g id="elem_Repositories"><rect codeLine="37" fill="#F1F1F1" height="103.8633" id="Repositories" rx="2.5" ry="2.5" style="stroke:#181818;stroke-width:0.5;" width="194" x="771.5" y="153"/><ellipse cx="824.75" cy="169" fill="#ADD1B2" rx="11" ry="11" style="stroke:#181818;stroke-width:1.0;"/><path d="M827.5156,164.875 Q827.6719,164.6563 827.8594,164.5469 Q828.0469,164.4375 828.2656,164.4375 Q828.6406,164.4375 828.875,164.7031 Q829.1094,164.9531 829.1094,165.5625 L829.1094,167.0156 Q829.1094,167.625 828.875,167.8906 Q828.6406,168.1563 828.2656,168.1563 Q827.9219,168.1563 827.7188,167.9531 Q827.5156,167.7656 827.4063,167.25 Q827.3594,166.8906 827.1719,166.7031 Q826.8438,166.3281 826.2344,166.1094 Q825.625,165.8906 825,165.8906 Q824.2344,165.8906 823.5938,166.2188 Q822.9688,166.5469 822.4688,167.2969 Q821.9844,168.0469 821.9844,169.0781 L821.9844,170.1719 Q821.9844,171.4063 822.875,172.2344 Q823.7656,173.0469 825.3594,173.0469 Q826.2969,173.0469 826.9531,172.7969 Q827.3438,172.6406 827.7656,172.2031 Q828.0313,171.9375 828.1719,171.8594 Q828.3281,171.7813 828.5313,171.7813 Q828.8594,171.7813 829.1094,172.0469 Q829.375,172.2969 829.375,172.6406 Q829.375,172.9844 829.0313,173.3906 Q828.5313,173.9688 827.7344,174.2969 Q826.6563,174.75 825.3594,174.75 Q823.8438,174.75 822.6406,174.125 Q821.6563,173.625 820.9688,172.5625 Q820.2813,171.4844 820.2813,170.2031 L820.2813,169.0469 Q820.2813,167.7188 820.8906,166.5781 Q821.5156,165.4219 822.6094,164.8125 Q823.7031,164.1875 824.9375,164.1875 Q825.6719,164.1875 826.3125,164.3594 Q826.9688,164.5156 827.5156,164.875 Z " fill="#000000"/><text fill="#000000" font-family="sans-serif" font-size="14" lengthAdjust="spacing" textLength="79" x="845.25" y="174.7969">Repositories</text><line style="stroke:#181818;stroke-width:0.5;" x1="772.5" x2="964.5" y1="185" y2="185"/><line style="stroke:#181818;stroke-width:0.5;" x1="772.5" x2="964.5" y1="193" y2="193"/><text fill="#000000" font-family="sans-serif" font-size="14" lengthAdjust="spacing" textLength="94" x="777.5" y="212.1074">-Repositories()</text><text fill="#000000" font-family="sans-serif" font-size="14" lengthAdjust="spacing" textLength="182" x="777.5" y="230.7285">+getInstance() : Repositories</text><text fill="#000000" font-family="sans-serif" font-size="14" lengthAdjust="spacing" textLength="131" x="777.5" y="249.3496">+getSkillRepository()</text></g><!--link ShowGreenSpacesUI to ShowGreenSpacesByManagerController--><g id="link_ShowGreenSpacesUI_ShowGreenSpacesByManagerController"><path codeLine="45" d="M476.5,55.2 C476.5,71.15 476.5,87.45 476.5,109.93 " fill="none" id="ShowGreenSpacesUI-to-ShowGreenSpacesByManagerController" style="stroke:#181818;stroke-width:1.0;stroke-dasharray:7.0,7.0;"/><polygon fill="#181818" points="476.5,115.93,480.5,106.93,476.5,110.93,472.5,106.93,476.5,115.93" style="stroke:#181818;stroke-width:1.0;"/></g><!--link ShowGreenSpacesByManagerController to GreenSpaceRepository--><g id="link_ShowGreenSpacesByManagerController_GreenSpaceRepository"><path codeLine="47" d="M616.91,294.12 C680.07,333.75 746.5478,375.4707 797.1578,407.2307 " fill="none" id="ShowGreenSpacesByManagerController-to-GreenSpaceRepository" style="stroke:#181818;stroke-width:1.0;stroke-dasharray:7.0,7.0;"/><polygon fill="#181818" points="802.24,410.42,796.7429,402.248,798.0049,407.7623,792.4906,409.0242,802.24,410.42" style="stroke:#181818;stroke-width:1.0;"/><text fill="#000000" font-family="sans-serif" font-size="13" lengthAdjust="spacing" textLength="131" x="685.5" y="339.0283">greenSpaceRepository</text></g><!--link ShowGreenSpacesByManagerController to Repositories--><g id="link_ShowGreenSpacesByManagerController_Repositories"><path codeLine="48" d="M663.03,205 C700.53,205 732.49,205 765.41,205 " fill="none" id="ShowGreenSpacesByManagerController-to-Repositories" style="stroke:#181818;stroke-width:1.0;stroke-dasharray:7.0,7.0;"/><polygon fill="#181818" points="771.41,205,762.41,201,766.41,205,762.41,209,771.41,205" style="stroke:#181818;stroke-width:1.0;"/><text fill="#000000" font-family="sans-serif" font-size="13" lengthAdjust="spacing" textLength="72" x="681.25" y="198.0283">Repositories</text></g><!--link ShowGreenSpacesByManagerController to SortGreenSpaces--><g id="link_ShowGreenSpacesByManagerController_SortGreenSpaces"><path codeLine="49" d="M414.53,294.12 C396.5,319.76 380.361,342.7018 362.741,367.7618 " fill="none" id="ShowGreenSpacesByManagerController-to-SortGreenSpaces" style="stroke:#181818;stroke-width:1.0;stroke-dasharray:7.0,7.0;"/><polygon fill="#181818" points="359.29,372.67,367.7387,367.6084,362.1658,368.5798,361.1944,363.007,359.29,372.67" style="stroke:#181818;stroke-width:1.0;"/><text fill="#000000" font-family="sans-serif" font-size="13" lengthAdjust="spacing" textLength="101" x="391.5" y="339.0283">sortGreenSpaces</text></g><!--link Repositories to Repositories--><g id="link_Repositories_Repositories"><path codeLine="51" d="M965.78,183.65 C985.98,185.9 1000.5,193.02 1000.5,205 C1000.5,216.98 991.9431,223.4358 971.7431,225.6858 " fill="none" id="Repositories-to-Repositories" style="stroke:#181818;stroke-width:1.0;"/><polygon fill="#181818" points="965.78,226.35,975.1675,229.3291,970.7493,225.7965,974.2819,221.3783,965.78,226.35" style="stroke:#181818;stroke-width:1.0;"/><text fill="#000000" font-family="sans-serif" font-size="13" lengthAdjust="spacing" textLength="49" x="1006.5" y="210.5283">instance</text></g><!--link Repositories to GreenSpaceRepository--><g id="link_Repositories_GreenSpaceRepository"><path codeLine="52" d="M868.5,257.27 C868.5,302.61 868.5,361.94 868.5,404.19 " fill="none" id="Repositories-to-GreenSpaceRepository" style="stroke:#181818;stroke-width:1.0;"/><polygon fill="#181818" points="868.5,410.19,872.5,401.19,868.5,405.19,864.5,401.19,868.5,410.19" style="stroke:#181818;stroke-width:1.0;"/><text fill="#000000" font-family="sans-serif" font-size="13" lengthAdjust="spacing" textLength="7" x="860.9641" y="399.3652">1</text></g><!--SRC=[hLJRYjim47ttLmpx4eUoI_iQIg0jRGcqNLZJ3r3aYJD4aOoaD7N3_dj7mQobM7KDhTuqS-Psvh9m1zAjiE88HwEDt5jpHF3sXCMWQOKyY0Ohtoa4Yz8BtQWOuFQYDcVI3Uo4Sh56aKRVjGYjKLtu58kCqbXl8YEfX7FllBUqFNdSIACh-eNmkbWet7dm1YmrUmyrXMJ8wA80VbSpgFRc_DaYwehJHlTz0vUhzhcOGBtllWhD9TeFHdjhb4BRcuLt3mFq2LlZo1lRGPCHHZOlGaB7h0sV25DnvL4QuDB_2_BLZ8JBPGJ_Giw_7V1hRb5YNrRCBlSh17oqDThbNwj5dvENiM7lbA5Fw5gZ7MqLzeZdXFwRkY-JgQVWSWGO6k6Mu7c4pmusZnz_Icolqp4awBpm9E67eHgK4VKdKiWCxgWfvrcEOWidKTTSzJTnnEdKPdYhyR-wsvwst810zZ-x8ktG1avcUalQdHseUB-c_0NTr7WaWycB4OzUFv1s46MoInRryeSDJhQBGsuqCwKbJpUi4c0Agmwar6XRmYqgneVguM4zOyz7bhdZ5LnbML_bpzOSb-kKgPkoPoPrk_chqSqhaYZtewZKCt-3O-3TcxjiqRy1]--></g></svg>