<?xml version="1.0" encoding="us-ascii" standalone="no"?><svg xmlns="http://www.w3.org/2000/svg" xmlns:xlink="http://www.w3.org/1999/xlink" contentStyleType="text/css" height="1330px" preserveAspectRatio="none" style="width:1746px;height:1330px;background:#FFFFFF;" version="1.1" viewBox="0 0 1746 1330" width="1746px" zoomAndPan="magnify"><defs/><g><rect fill="#FFFFFF" height="1135.8848" style="stroke:#181818;stroke-width:1.0;" width="10" x="75" y="93.6211"/><rect fill="#FFFFFF" height="200.0762" style="stroke:#181818;stroke-width:1.0;" width="10" x="405" y="116.9121"/><rect fill="#FFFFFF" height="881.2266" style="stroke:#181818;stroke-width:1.0;" width="10" x="405" y="348.2793"/><rect fill="#FFFFFF" height="93.873" style="stroke:#181818;stroke-width:1.0;" width="10" x="627" y="191.8242"/><rect fill="#FFFFFF" height="818.6445" style="stroke:#181818;stroke-width:1.0;" width="10" x="627" y="379.5703"/><rect fill="#FFFFFF" height="292.6191" style="stroke:#181818;stroke-width:1.0;" width="10" x="632" y="481.1035"/><rect fill="#FFFFFF" height="31.291" style="stroke:#181818;stroke-width:1.0;" width="10" x="822" y="837.0137"/><rect fill="#FFFFFF" height="31.291" style="stroke:#181818;stroke-width:1.0;" width="10" x="929" y="517.3945"/><rect fill="#FFFFFF" height="31.291" style="stroke:#181818;stroke-width:1.0;" width="10" x="929" y="899.5957"/><rect fill="#FFFFFF" height="142.1641" style="stroke:#181818;stroke-width:1.0;" width="10" x="1074" y="962.1777"/><rect fill="#FFFFFF" height="31.291" style="stroke:#181818;stroke-width:1.0;" width="10" x="1315" y="223.1152"/><rect fill="#FFFFFF" height="31.291" style="stroke:#181818;stroke-width:1.0;" width="10" x="1315" y="1135.6328"/><rect fill="#FFFFFF" height="31.291" style="stroke:#181818;stroke-width:1.0;" width="10" x="1478.5" y="579.9766"/><rect fill="#FFFFFF" height="31.291" style="stroke:#181818;stroke-width:1.0;" width="10" x="1625" y="642.5586"/><rect fill="#FFFFFF" height="31.291" style="stroke:#181818;stroke-width:1.0;" width="10" x="1709.5" y="705.1406"/><rect fill="none" height="96.873" style="stroke:#000000;stroke-width:1.5;" width="402" x="972.5" y="977.1777"/><rect fill="none" height="63.582" style="stroke:#000000;stroke-width:1.5;" width="382" x="982.5" y="1003.4688"/><line style="stroke:#181818;stroke-width:0.5;stroke-dasharray:5.0,5.0;" x1="80" x2="80" y1="83.6211" y2="1247.5059"/><line style="stroke:#181818;stroke-width:0.5;stroke-dasharray:5.0,5.0;" x1="409.5" x2="409.5" y1="83.6211" y2="1247.5059"/><line style="stroke:#181818;stroke-width:0.5;stroke-dasharray:5.0,5.0;" x1="631.5" x2="631.5" y1="156.7227" y2="1247.5059"/><line style="stroke:#181818;stroke-width:0.5;stroke-dasharray:5.0,5.0;" x1="826.5" x2="826.5" y1="83.6211" y2="1247.5059"/><line style="stroke:#181818;stroke-width:0.5;stroke-dasharray:5.0,5.0;" x1="933.5" x2="933.5" y1="83.6211" y2="1247.5059"/><line style="stroke:#181818;stroke-width:0.5;stroke-dasharray:5.0,5.0;" x1="1078.5" x2="1078.5" y1="83.6211" y2="1247.5059"/><line style="stroke:#181818;stroke-width:0.5;stroke-dasharray:5.0,5.0;" x1="1319.5" x2="1319.5" y1="428.6914" y2="1247.5059"/><line style="stroke:#181818;stroke-width:0.5;stroke-dasharray:5.0,5.0;" x1="1483.5" x2="1483.5" y1="83.6211" y2="1247.5059"/><line style="stroke:#181818;stroke-width:0.5;stroke-dasharray:5.0,5.0;" x1="1629.5" x2="1629.5" y1="83.6211" y2="1247.5059"/><line style="stroke:#181818;stroke-width:0.5;stroke-dasharray:5.0,5.0;" x1="1714.5" x2="1714.5" y1="83.6211" y2="1247.5059"/><text fill="#000000" font-family="sans-serif" font-size="14" lengthAdjust="spacing" textLength="144" x="5" y="80.1074">Green Space Manager</text><ellipse cx="80" cy="13.5" fill="#E3E3E3" rx="8" ry="8" style="stroke:#181818;stroke-width:0.5;"/><path d="M80,21.5 L80,48.5 M67,29.5 L93,29.5 M80,48.5 L67,63.5 M80,48.5 L93,63.5 " fill="none" style="stroke:#181818;stroke-width:0.5;"/><text fill="#000000" font-family="sans-serif" font-size="14" lengthAdjust="spacing" textLength="144" x="5" y="1261.6133">Green Space Manager</text><ellipse cx="80" cy="1273.627" fill="#E3E3E3" rx="8" ry="8" style="stroke:#181818;stroke-width:0.5;"/><path d="M80,1281.627 L80,1308.627 M67,1289.627 L93,1289.627 M80,1308.627 L67,1323.627 M80,1308.627 L93,1323.627 " fill="none" style="stroke:#181818;stroke-width:0.5;"/><rect fill="#E3E3E3" height="32.6211" rx="2.5" ry="2.5" style="stroke:#181818;stroke-width:0.5;" width="151" x="334.5" y="50"/><text fill="#000000" font-family="sans-serif" font-size="14" lengthAdjust="spacing" textLength="137" x="341.5" y="72.1074">:ShowGreenSpacesUI</text><rect fill="#E3E3E3" height="32.6211" rx="2.5" ry="2.5" style="stroke:#181818;stroke-width:0.5;" width="151" x="334.5" y="1246.5059"/><text fill="#000000" font-family="sans-serif" font-size="14" lengthAdjust="spacing" textLength="137" x="341.5" y="1268.6133">:ShowGreenSpacesUI</text><rect fill="#E3E3E3" height="32.6211" rx="2.5" ry="2.5" style="stroke:#181818;stroke-width:0.5;" width="273" x="495.5" y="1246.5059"/><text fill="#000000" font-family="sans-serif" font-size="14" lengthAdjust="spacing" textLength="259" x="502.5" y="1268.6133">:ShowGreenSpacesByManagerController</text><rect fill="#E3E3E3" height="32.6211" rx="2.5" ry="2.5" style="stroke:#181818;stroke-width:0.5;" width="97" x="778.5" y="50"/><text fill="#000000" font-family="sans-serif" font-size="14" lengthAdjust="spacing" textLength="83" x="785.5" y="72.1074">:Repositories</text><rect fill="#E3E3E3" height="32.6211" rx="2.5" ry="2.5" style="stroke:#181818;stroke-width:0.5;" width="97" x="778.5" y="1246.5059"/><text fill="#000000" font-family="sans-serif" font-size="14" lengthAdjust="spacing" textLength="83" x="785.5" y="1268.6133">:Repositories</text><rect fill="#E3E3E3" height="51.2422" rx="2.5" ry="2.5" style="stroke:#181818;stroke-width:0.5;" width="97" x="885.5" y="31.3789"/><text fill="#000000" font-family="sans-serif" font-size="14" lengthAdjust="spacing" textLength="74" x="897" y="53.4863">repositories</text><text fill="#000000" font-family="sans-serif" font-size="14" lengthAdjust="spacing" textLength="83" x="892.5" y="72.1074">:Repositories</text><rect fill="#E3E3E3" height="51.2422" rx="2.5" ry="2.5" style="stroke:#181818;stroke-width:0.5;" width="97" x="885.5" y="1246.5059"/><text fill="#000000" font-family="sans-serif" font-size="14" lengthAdjust="spacing" textLength="74" x="897" y="1268.6133">repositories</text><text fill="#000000" font-family="sans-serif" font-size="14" lengthAdjust="spacing" textLength="83" x="892.5" y="1287.2344">:Repositories</text><rect fill="#E3E3E3" height="51.2422" rx="2.5" ry="2.5" style="stroke:#181818;stroke-width:0.5;" width="173" x="992.5" y="31.3789"/><text fill="#000000" font-family="sans-serif" font-size="14" lengthAdjust="spacing" textLength="152" x="1003" y="53.4863">greenSpacesRepository</text><text fill="#000000" font-family="sans-serif" font-size="14" lengthAdjust="spacing" textLength="159" x="999.5" y="72.1074">:GreenSpacesRepository</text><rect fill="#E3E3E3" height="51.2422" rx="2.5" ry="2.5" style="stroke:#181818;stroke-width:0.5;" width="173" x="992.5" y="1246.5059"/><text fill="#000000" font-family="sans-serif" font-size="14" lengthAdjust="spacing" textLength="152" x="1003" y="1268.6133">greenSpacesRepository</text><text fill="#000000" font-family="sans-serif" font-size="14" lengthAdjust="spacing" textLength="159" x="999.5" y="1287.2344">:GreenSpacesRepository</text><rect fill="#E3E3E3" height="51.2422" rx="2.5" ry="2.5" style="stroke:#181818;stroke-width:0.5;" width="131" x="1254.5" y="1246.5059"/><text fill="#000000" font-family="sans-serif" font-size="14" lengthAdjust="spacing" textLength="111" x="1264.5" y="1268.6133">sortGreenSpaces</text><text fill="#000000" font-family="sans-serif" font-size="14" lengthAdjust="spacing" textLength="117" x="1261.5" y="1287.2344">:SortGreenSpaces</text><rect fill="#E3E3E3" height="51.2422" rx="2.5" ry="2.5" style="stroke:#181818;stroke-width:0.5;" width="176" x="1395.5" y="31.3789"/><text fill="#000000" font-family="sans-serif" font-size="14" lengthAdjust="spacing" textLength="157" x="1405" y="53.4863">authenticationRepository</text><text fill="#000000" font-family="sans-serif" font-size="14" lengthAdjust="spacing" textLength="162" x="1402.5" y="72.1074">:AuthenticationRepository</text><rect fill="#E3E3E3" height="51.2422" rx="2.5" ry="2.5" style="stroke:#181818;stroke-width:0.5;" width="176" x="1395.5" y="1246.5059"/><text fill="#000000" font-family="sans-serif" font-size="14" lengthAdjust="spacing" textLength="157" x="1405" y="1268.6133">authenticationRepository</text><text fill="#000000" font-family="sans-serif" font-size="14" lengthAdjust="spacing" textLength="162" x="1402.5" y="1287.2344">:AuthenticationRepository</text><rect fill="#E3E3E3" height="51.2422" rx="2.5" ry="2.5" style="stroke:#181818;stroke-width:0.5;" width="97" x="1581.5" y="31.3789"/><text fill="#000000" font-family="sans-serif" font-size="14" lengthAdjust="spacing" textLength="78" x="1591" y="53.4863">userSession</text><text fill="#000000" font-family="sans-serif" font-size="14" lengthAdjust="spacing" textLength="83" x="1588.5" y="72.1074">:UserSession</text><rect fill="#E3E3E3" height="51.2422" rx="2.5" ry="2.5" style="stroke:#181818;stroke-width:0.5;" width="97" x="1581.5" y="1246.5059"/><text fill="#000000" font-family="sans-serif" font-size="14" lengthAdjust="spacing" textLength="78" x="1591" y="1268.6133">userSession</text><text fill="#000000" font-family="sans-serif" font-size="14" lengthAdjust="spacing" textLength="83" x="1588.5" y="1287.2344">:UserSession</text><rect fill="#E3E3E3" height="51.2422" rx="2.5" ry="2.5" style="stroke:#181818;stroke-width:0.5;" width="52" x="1688.5" y="31.3789"/><text fill="#000000" font-family="sans-serif" font-size="14" lengthAdjust="spacing" textLength="33" x="1698" y="53.4863">email</text><text fill="#000000" font-family="sans-serif" font-size="14" lengthAdjust="spacing" textLength="38" x="1695.5" y="72.1074">:Email</text><rect fill="#E3E3E3" height="51.2422" rx="2.5" ry="2.5" style="stroke:#181818;stroke-width:0.5;" width="52" x="1688.5" y="1246.5059"/><text fill="#000000" font-family="sans-serif" font-size="14" lengthAdjust="spacing" textLength="33" x="1698" y="1268.6133">email</text><text fill="#000000" font-family="sans-serif" font-size="14" lengthAdjust="spacing" textLength="38" x="1695.5" y="1287.2344">:Email</text><rect fill="#FFFFFF" height="1135.8848" style="stroke:#181818;stroke-width:1.0;" width="10" x="75" y="93.6211"/><rect fill="#FFFFFF" height="200.0762" style="stroke:#181818;stroke-width:1.0;" width="10" x="405" y="116.9121"/><rect fill="#FFFFFF" height="881.2266" style="stroke:#181818;stroke-width:1.0;" width="10" x="405" y="348.2793"/><rect fill="#FFFFFF" height="93.873" style="stroke:#181818;stroke-width:1.0;" width="10" x="627" y="191.8242"/><rect fill="#FFFFFF" height="818.6445" style="stroke:#181818;stroke-width:1.0;" width="10" x="627" y="379.5703"/><rect fill="#FFFFFF" height="292.6191" style="stroke:#181818;stroke-width:1.0;" width="10" x="632" y="481.1035"/><rect fill="#FFFFFF" height="31.291" style="stroke:#181818;stroke-width:1.0;" width="10" x="822" y="837.0137"/><rect fill="#FFFFFF" height="31.291" style="stroke:#181818;stroke-width:1.0;" width="10" x="929" y="517.3945"/><rect fill="#FFFFFF" height="31.291" style="stroke:#181818;stroke-width:1.0;" width="10" x="929" y="899.5957"/><rect fill="#FFFFFF" height="142.1641" style="stroke:#181818;stroke-width:1.0;" width="10" x="1074" y="962.1777"/><rect fill="#FFFFFF" height="31.291" style="stroke:#181818;stroke-width:1.0;" width="10" x="1315" y="223.1152"/><rect fill="#FFFFFF" height="31.291" style="stroke:#181818;stroke-width:1.0;" width="10" x="1315" y="1135.6328"/><rect fill="#FFFFFF" height="31.291" style="stroke:#181818;stroke-width:1.0;" width="10" x="1478.5" y="579.9766"/><rect fill="#FFFFFF" height="31.291" style="stroke:#181818;stroke-width:1.0;" width="10" x="1625" y="642.5586"/><rect fill="#FFFFFF" height="31.291" style="stroke:#181818;stroke-width:1.0;" width="10" x="1709.5" y="705.1406"/><polygon fill="#181818" points="393,112.9121,403,116.9121,393,120.9121,397,116.9121" style="stroke:#181818;stroke-width:1.0;"/><line style="stroke:#181818;stroke-width:1.0;" x1="85" x2="399" y1="116.9121" y2="116.9121"/><text fill="#000000" font-family="sans-serif" font-size="13" font-weight="bold" lengthAdjust="spacing" textLength="7" x="92" y="111.6494">1</text><text fill="#000000" font-family="sans-serif" font-size="13" lengthAdjust="spacing" textLength="275" x="103" y="111.6494">Asks to show the list of managed green spaces</text><polygon fill="#181818" points="483.5,144.2031,493.5,148.2031,483.5,152.2031,487.5,148.2031" style="stroke:#181818;stroke-width:1.0;"/><line style="stroke:#181818;stroke-width:1.0;" x1="415" x2="489.5" y1="148.2031" y2="148.2031"/><text fill="#000000" font-family="sans-serif" font-size="13" font-weight="bold" lengthAdjust="spacing" textLength="7" x="422" y="142.9404">2</text><text fill="#000000" font-family="sans-serif" font-size="13" lengthAdjust="spacing" textLength="36" x="433" y="142.9404">create</text><rect fill="#E3E3E3" height="32.6211" rx="2.5" ry="2.5" style="stroke:#181818;stroke-width:0.5;" width="273" x="495.5" y="124.9121"/><text fill="#000000" font-family="sans-serif" font-size="14" lengthAdjust="spacing" textLength="259" x="502.5" y="147.0195">:ShowGreenSpacesByManagerController</text><polygon fill="#181818" points="615,187.8242,625,191.8242,615,195.8242,619,191.8242" style="stroke:#181818;stroke-width:1.0;"/><line style="stroke:#181818;stroke-width:1.0;" x1="415" x2="621" y1="191.8242" y2="191.8242"/><text fill="#000000" font-family="sans-serif" font-size="13" font-weight="bold" lengthAdjust="spacing" textLength="7" x="422" y="186.5615">3</text><text fill="#000000" font-family="sans-serif" font-size="13" lengthAdjust="spacing" textLength="107" x="433" y="186.5615">requestActivation()</text><polygon fill="#181818" points="1303,219.1152,1313,223.1152,1303,227.1152,1307,223.1152" style="stroke:#181818;stroke-width:1.0;"/><line style="stroke:#181818;stroke-width:1.0;" x1="637" x2="1309" y1="223.1152" y2="223.1152"/><text fill="#000000" font-family="sans-serif" font-size="13" font-weight="bold" lengthAdjust="spacing" textLength="7" x="644" y="217.8525">4</text><text fill="#000000" font-family="sans-serif" font-size="13" lengthAdjust="spacing" textLength="85" x="655" y="217.8525">getSortTypes()</text><polygon fill="#181818" points="648,250.4063,638,254.4063,648,258.4063,644,254.4063" style="stroke:#181818;stroke-width:1.0;"/><line style="stroke:#181818;stroke-width:1.0;stroke-dasharray:2.0,2.0;" x1="642" x2="1319" y1="254.4063" y2="254.4063"/><text fill="#000000" font-family="sans-serif" font-size="13" font-weight="bold" lengthAdjust="spacing" textLength="7" x="654" y="249.1436">5</text><text fill="#000000" font-family="sans-serif" font-size="13" lengthAdjust="spacing" textLength="57" x="665" y="249.1436">sortTypes</text><polygon fill="#181818" points="426,281.6973,416,285.6973,426,289.6973,422,285.6973" style="stroke:#181818;stroke-width:1.0;"/><line style="stroke:#181818;stroke-width:1.0;stroke-dasharray:2.0,2.0;" x1="420" x2="631" y1="285.6973" y2="285.6973"/><text fill="#000000" font-family="sans-serif" font-size="13" font-weight="bold" lengthAdjust="spacing" textLength="7" x="432" y="280.4346">6</text><text fill="#000000" font-family="sans-serif" font-size="13" lengthAdjust="spacing" textLength="57" x="443" y="280.4346">sortTypes</text><polygon fill="#181818" points="96,312.9883,86,316.9883,96,320.9883,92,316.9883" style="stroke:#181818;stroke-width:1.0;"/><line style="stroke:#181818;stroke-width:1.0;stroke-dasharray:2.0,2.0;" x1="90" x2="409" y1="316.9883" y2="316.9883"/><text fill="#000000" font-family="sans-serif" font-size="13" font-weight="bold" lengthAdjust="spacing" textLength="7" x="102" y="311.7256">7</text><text fill="#000000" font-family="sans-serif" font-size="13" lengthAdjust="spacing" textLength="285" x="113" y="311.7256">show sorting methods and requests to select one</text><polygon fill="#181818" points="393,344.2793,403,348.2793,393,352.2793,397,348.2793" style="stroke:#181818;stroke-width:1.0;"/><line style="stroke:#181818;stroke-width:1.0;" x1="85" x2="399" y1="348.2793" y2="348.2793"/><text fill="#000000" font-family="sans-serif" font-size="13" font-weight="bold" lengthAdjust="spacing" textLength="7" x="92" y="343.0166">8</text><text fill="#000000" font-family="sans-serif" font-size="13" lengthAdjust="spacing" textLength="145" x="103" y="343.0166">Selects a sorting method</text><polygon fill="#181818" points="615,375.5703,625,379.5703,615,383.5703,619,379.5703" style="stroke:#181818;stroke-width:1.0;"/><line style="stroke:#181818;stroke-width:1.0;" x1="415" x2="621" y1="379.5703" y2="379.5703"/><text fill="#000000" font-family="sans-serif" font-size="13" font-weight="bold" lengthAdjust="spacing" textLength="7" x="422" y="374.3076">9</text><text fill="#000000" font-family="sans-serif" font-size="13" lengthAdjust="spacing" textLength="171" x="433" y="374.3076">showGreenSpaces(sortOrder)</text><polygon fill="#181818" points="1242.5,406.8613,1252.5,410.8613,1242.5,414.8613,1246.5,410.8613" style="stroke:#181818;stroke-width:1.0;"/><line style="stroke:#181818;stroke-width:1.0;" x1="637" x2="1248.5" y1="410.8613" y2="410.8613"/><text fill="#000000" font-family="sans-serif" font-size="13" font-weight="bold" lengthAdjust="spacing" textLength="14" x="644" y="405.5986">10</text><text fill="#000000" font-family="sans-serif" font-size="13" lengthAdjust="spacing" textLength="36" x="662" y="405.5986">create</text><rect fill="#E3E3E3" height="51.2422" rx="2.5" ry="2.5" style="stroke:#181818;stroke-width:0.5;" width="131" x="1254.5" y="387.5703"/><text fill="#000000" font-family="sans-serif" font-size="14" lengthAdjust="spacing" textLength="111" x="1264.5" y="409.6777">sortGreenSpaces</text><text fill="#000000" font-family="sans-serif" font-size="14" lengthAdjust="spacing" textLength="117" x="1261.5" y="428.2988">:SortGreenSpaces</text><line style="stroke:#181818;stroke-width:1.0;" x1="637" x2="684" y1="468.1035" y2="468.1035"/><line style="stroke:#181818;stroke-width:1.0;" x1="684" x2="684" y1="468.1035" y2="481.1035"/><line style="stroke:#181818;stroke-width:1.0;" x1="643" x2="684" y1="481.1035" y2="481.1035"/><polygon fill="#181818" points="653,477.1035,643,481.1035,653,485.1035,649,481.1035" style="stroke:#181818;stroke-width:1.0;"/><text fill="#000000" font-family="sans-serif" font-size="13" font-weight="bold" lengthAdjust="spacing" textLength="14" x="649" y="462.8408">11</text><text fill="#000000" font-family="sans-serif" font-size="13" lengthAdjust="spacing" textLength="97" x="667" y="462.8408">getResponsible()</text><polygon fill="#181818" points="917,513.3945,927,517.3945,917,521.3945,921,517.3945" style="stroke:#181818;stroke-width:1.0;"/><line style="stroke:#181818;stroke-width:1.0;" x1="642" x2="923" y1="517.3945" y2="517.3945"/><text fill="#000000" font-family="sans-serif" font-size="13" font-weight="bold" lengthAdjust="spacing" textLength="14" x="649" y="512.1318">12</text><text fill="#000000" font-family="sans-serif" font-size="13" lengthAdjust="spacing" textLength="171" x="667" y="512.1318">getAuthenticationRepository()</text><polygon fill="#181818" points="653,544.6855,643,548.6855,653,552.6855,649,548.6855" style="stroke:#181818;stroke-width:1.0;"/><line style="stroke:#181818;stroke-width:1.0;stroke-dasharray:2.0,2.0;" x1="647" x2="933" y1="548.6855" y2="548.6855"/><text fill="#000000" font-family="sans-serif" font-size="13" font-weight="bold" lengthAdjust="spacing" textLength="14" x="659" y="543.4229">13</text><text fill="#000000" font-family="sans-serif" font-size="13" lengthAdjust="spacing" textLength="143" x="677" y="543.4229">authenticationRepository</text><polygon fill="#181818" points="1466.5,575.9766,1476.5,579.9766,1466.5,583.9766,1470.5,579.9766" style="stroke:#181818;stroke-width:1.0;"/><line style="stroke:#181818;stroke-width:1.0;" x1="642" x2="1472.5" y1="579.9766" y2="579.9766"/><text fill="#000000" font-family="sans-serif" font-size="13" font-weight="bold" lengthAdjust="spacing" textLength="14" x="649" y="574.7139">14</text><text fill="#000000" font-family="sans-serif" font-size="13" lengthAdjust="spacing" textLength="142" x="667" y="574.7139">getCurrentUserSession()</text><polygon fill="#181818" points="653,607.2676,643,611.2676,653,615.2676,649,611.2676" style="stroke:#181818;stroke-width:1.0;"/><line style="stroke:#181818;stroke-width:1.0;stroke-dasharray:2.0,2.0;" x1="647" x2="1482.5" y1="611.2676" y2="611.2676"/><text fill="#000000" font-family="sans-serif" font-size="13" font-weight="bold" lengthAdjust="spacing" textLength="14" x="659" y="606.0049">15</text><text fill="#000000" font-family="sans-serif" font-size="13" lengthAdjust="spacing" textLength="114" x="677" y="606.0049">currentUserSession</text><polygon fill="#181818" points="1613,638.5586,1623,642.5586,1613,646.5586,1617,642.5586" style="stroke:#181818;stroke-width:1.0;"/><line style="stroke:#181818;stroke-width:1.0;" x1="642" x2="1619" y1="642.5586" y2="642.5586"/><text fill="#000000" font-family="sans-serif" font-size="13" font-weight="bold" lengthAdjust="spacing" textLength="14" x="649" y="637.2959">16</text><text fill="#000000" font-family="sans-serif" font-size="13" lengthAdjust="spacing" textLength="63" x="667" y="637.2959">getUserId()</text><polygon fill="#181818" points="653,669.8496,643,673.8496,653,677.8496,649,673.8496" style="stroke:#181818;stroke-width:1.0;"/><line style="stroke:#181818;stroke-width:1.0;stroke-dasharray:2.0,2.0;" x1="647" x2="1629" y1="673.8496" y2="673.8496"/><text fill="#000000" font-family="sans-serif" font-size="13" font-weight="bold" lengthAdjust="spacing" textLength="14" x="659" y="668.5869">17</text><text fill="#000000" font-family="sans-serif" font-size="13" lengthAdjust="spacing" textLength="72" x="677" y="668.5869">userSession</text><polygon fill="#181818" points="1697.5,701.1406,1707.5,705.1406,1697.5,709.1406,1701.5,705.1406" style="stroke:#181818;stroke-width:1.0;"/><line style="stroke:#181818;stroke-width:1.0;" x1="642" x2="1703.5" y1="705.1406" y2="705.1406"/><text fill="#000000" font-family="sans-serif" font-size="13" font-weight="bold" lengthAdjust="spacing" textLength="14" x="649" y="699.8779">18</text><text fill="#000000" font-family="sans-serif" font-size="13" lengthAdjust="spacing" textLength="59" x="667" y="699.8779">getEmail()</text><polygon fill="#181818" points="653,732.4316,643,736.4316,653,740.4316,649,736.4316" style="stroke:#181818;stroke-width:1.0;"/><line style="stroke:#181818;stroke-width:1.0;stroke-dasharray:2.0,2.0;" x1="647" x2="1713.5" y1="736.4316" y2="736.4316"/><text fill="#000000" font-family="sans-serif" font-size="13" font-weight="bold" lengthAdjust="spacing" textLength="14" x="659" y="731.1689">19</text><text fill="#000000" font-family="sans-serif" font-size="13" lengthAdjust="spacing" textLength="31" x="677" y="731.1689">email</text><line style="stroke:#181818;stroke-width:1.0;stroke-dasharray:2.0,2.0;" x1="642" x2="684" y1="772.7227" y2="772.7227"/><line style="stroke:#181818;stroke-width:1.0;stroke-dasharray:2.0,2.0;" x1="684" x2="684" y1="772.7227" y2="785.7227"/><line style="stroke:#181818;stroke-width:1.0;stroke-dasharray:2.0,2.0;" x1="637" x2="684" y1="785.7227" y2="785.7227"/><polygon fill="#181818" points="647,781.7227,637,785.7227,647,789.7227,643,785.7227" style="stroke:#181818;stroke-width:1.0;"/><text fill="#000000" font-family="sans-serif" font-size="13" font-weight="bold" lengthAdjust="spacing" textLength="14" x="649" y="767.46">20</text><text fill="#000000" font-family="sans-serif" font-size="13" lengthAdjust="spacing" textLength="66" x="667" y="767.46">responsible</text><polygon fill="#181818" points="810,833.0137,820,837.0137,810,841.0137,814,837.0137" style="stroke:#181818;stroke-width:1.0;"/><line style="stroke:#181818;stroke-width:1.0;" x1="637" x2="816" y1="837.0137" y2="837.0137"/><text fill="#000000" font-family="sans-serif" font-size="13" font-weight="bold" lengthAdjust="spacing" textLength="14" x="644" y="831.751">21</text><text fill="#000000" font-family="sans-serif" font-size="13" lengthAdjust="spacing" textLength="75" x="662" y="831.751">getInstance()</text><polygon fill="#181818" points="648,864.3047,638,868.3047,648,872.3047,644,868.3047" style="stroke:#181818;stroke-width:1.0;"/><line style="stroke:#181818;stroke-width:1.0;stroke-dasharray:2.0,2.0;" x1="642" x2="826" y1="868.3047" y2="868.3047"/><text fill="#000000" font-family="sans-serif" font-size="13" font-weight="bold" lengthAdjust="spacing" textLength="14" x="654" y="863.042">22</text><text fill="#000000" font-family="sans-serif" font-size="13" lengthAdjust="spacing" textLength="67" x="672" y="863.042">repositories</text><polygon fill="#181818" points="917,895.5957,927,899.5957,917,903.5957,921,899.5957" style="stroke:#181818;stroke-width:1.0;"/><line style="stroke:#181818;stroke-width:1.0;" x1="637" x2="923" y1="899.5957" y2="899.5957"/><text fill="#000000" font-family="sans-serif" font-size="13" font-weight="bold" lengthAdjust="spacing" textLength="14" x="644" y="894.333">23</text><text fill="#000000" font-family="sans-serif" font-size="13" lengthAdjust="spacing" textLength="167" x="662" y="894.333">getGreenSpacesRepository()</text><polygon fill="#181818" points="648,926.8867,638,930.8867,648,934.8867,644,930.8867" style="stroke:#181818;stroke-width:1.0;"/><line style="stroke:#181818;stroke-width:1.0;stroke-dasharray:2.0,2.0;" x1="642" x2="933" y1="930.8867" y2="930.8867"/><text fill="#000000" font-family="sans-serif" font-size="13" font-weight="bold" lengthAdjust="spacing" textLength="14" x="654" y="925.624">24</text><text fill="#000000" font-family="sans-serif" font-size="13" lengthAdjust="spacing" textLength="138" x="672" y="925.624">greenSpacesRepository</text><polygon fill="#181818" points="1062,958.1777,1072,962.1777,1062,966.1777,1066,962.1777" style="stroke:#181818;stroke-width:1.0;"/><line style="stroke:#181818;stroke-width:1.0;" x1="637" x2="1068" y1="962.1777" y2="962.1777"/><text fill="#000000" font-family="sans-serif" font-size="13" font-weight="bold" lengthAdjust="spacing" textLength="14" x="644" y="956.915">25</text><text fill="#000000" font-family="sans-serif" font-size="13" lengthAdjust="spacing" textLength="258" x="662" y="956.915">getGreenSpacesByResponsible(responsible)</text><path d="M972.5,977.1777 L1045.5,977.1777 L1045.5,986.4688 L1035.5,996.4688 L972.5,996.4688 L972.5,977.1777 " fill="#EEEEEE" style="stroke:#000000;stroke-width:1.5;"/><rect fill="none" height="96.873" style="stroke:#000000;stroke-width:1.5;" width="402" x="972.5" y="977.1777"/><text fill="#000000" font-family="sans-serif" font-size="13" font-weight="bold" lengthAdjust="spacing" textLength="28" x="987.5" y="992.2061">loop</text><text fill="#000000" font-family="sans-serif" font-size="11" font-weight="bold" lengthAdjust="spacing" textLength="163" x="1060.5" y="991.0479">[greenSpace in greenSpaces]</text><path d="M982.5,1003.4688 L1047.5,1003.4688 L1047.5,1012.7598 L1037.5,1022.7598 L982.5,1022.7598 L982.5,1003.4688 " fill="#EEEEEE" style="stroke:#000000;stroke-width:1.5;"/><rect fill="none" height="63.582" style="stroke:#000000;stroke-width:1.5;" width="382" x="982.5" y="1003.4688"/><text fill="#000000" font-family="sans-serif" font-size="13" font-weight="bold" lengthAdjust="spacing" textLength="20" x="997.5" y="1018.4971">opt</text><text fill="#000000" font-family="sans-serif" font-size="11" font-weight="bold" lengthAdjust="spacing" textLength="297" x="1062.5" y="1017.3389">[if greenSpace.getResponsible().equals(responsible)]</text><line style="stroke:#181818;stroke-width:1.0;stroke-dasharray:2.0,2.0;" x1="1084" x2="1126" y1="1046.0508" y2="1046.0508"/><line style="stroke:#181818;stroke-width:1.0;stroke-dasharray:2.0,2.0;" x1="1126" x2="1126" y1="1046.0508" y2="1059.0508"/><line style="stroke:#181818;stroke-width:1.0;stroke-dasharray:2.0,2.0;" x1="1085" x2="1126" y1="1059.0508" y2="1059.0508"/><polygon fill="#181818" points="1095,1055.0508,1085,1059.0508,1095,1063.0508,1091,1059.0508" style="stroke:#181818;stroke-width:1.0;"/><text fill="#000000" font-family="sans-serif" font-size="13" font-weight="bold" lengthAdjust="spacing" textLength="14" x="1091" y="1040.7881">26</text><text fill="#000000" font-family="sans-serif" font-size="13" lengthAdjust="spacing" textLength="199" x="1109" y="1040.7881">greenSpacesList.add(greenSpace)</text><polygon fill="#181818" points="648,1100.3418,638,1104.3418,648,1108.3418,644,1104.3418" style="stroke:#181818;stroke-width:1.0;"/><line style="stroke:#181818;stroke-width:1.0;stroke-dasharray:2.0,2.0;" x1="642" x2="1078" y1="1104.3418" y2="1104.3418"/><text fill="#000000" font-family="sans-serif" font-size="13" font-weight="bold" lengthAdjust="spacing" textLength="14" x="654" y="1099.0791">27</text><text fill="#000000" font-family="sans-serif" font-size="13" lengthAdjust="spacing" textLength="97" x="672" y="1099.0791">greenSpacesList</text><polygon fill="#181818" points="1303,1131.6328,1313,1135.6328,1303,1139.6328,1307,1135.6328" style="stroke:#181818;stroke-width:1.0;"/><line style="stroke:#181818;stroke-width:1.0;" x1="637" x2="1309" y1="1135.6328" y2="1135.6328"/><text fill="#000000" font-family="sans-serif" font-size="13" font-weight="bold" lengthAdjust="spacing" textLength="14" x="644" y="1130.3701">28</text><text fill="#000000" font-family="sans-serif" font-size="13" lengthAdjust="spacing" textLength="272" x="662" y="1130.3701">sortGreenSpaces( sortOrder, greenSpacesList)</text><polygon fill="#181818" points="648,1162.9238,638,1166.9238,648,1170.9238,644,1166.9238" style="stroke:#181818;stroke-width:1.0;"/><line style="stroke:#181818;stroke-width:1.0;stroke-dasharray:2.0,2.0;" x1="642" x2="1319" y1="1166.9238" y2="1166.9238"/><text fill="#000000" font-family="sans-serif" font-size="13" font-weight="bold" lengthAdjust="spacing" textLength="14" x="654" y="1161.6611">29</text><text fill="#000000" font-family="sans-serif" font-size="13" lengthAdjust="spacing" textLength="115" x="672" y="1161.6611">sortedGreenSpaces</text><polygon fill="#181818" points="426,1194.2148,416,1198.2148,426,1202.2148,422,1198.2148" style="stroke:#181818;stroke-width:1.0;"/><line style="stroke:#181818;stroke-width:1.0;stroke-dasharray:2.0,2.0;" x1="420" x2="631" y1="1198.2148" y2="1198.2148"/><text fill="#000000" font-family="sans-serif" font-size="13" font-weight="bold" lengthAdjust="spacing" textLength="14" x="432" y="1192.9521">30</text><text fill="#000000" font-family="sans-serif" font-size="13" lengthAdjust="spacing" textLength="136" x="450" y="1192.9521">sortedGreenSpacesList</text><polygon fill="#181818" points="91,1225.5059,81,1229.5059,91,1233.5059,87,1229.5059" style="stroke:#181818;stroke-width:1.0;"/><line style="stroke:#181818;stroke-width:1.0;stroke-dasharray:2.0,2.0;" x1="85" x2="409" y1="1229.5059" y2="1229.5059"/><text fill="#000000" font-family="sans-serif" font-size="13" font-weight="bold" lengthAdjust="spacing" textLength="14" x="97" y="1224.2432">31</text><text fill="#000000" font-family="sans-serif" font-size="13" lengthAdjust="spacing" textLength="148" x="115" y="1224.2432">sorted Green Spaces List</text><!--SRC=[fLRDRjim3BxhAOIUicBj0-Gm82s68a2B3NLxsqMrsKIeBNcIl2907twK5DkKOsKkbeDZq_m-_eaqxPjKhJ2YuOrMkjmRtG1tfWDcXpUjAD_43Wftg84RA9rGkvegsBsezBjKE_ugQWkCYSvfrJKlOF2-TDhmYpi3e7Y1NC0VX48-Sy65vNV50sD8usGfMw4SlrWNU_qUr8EsVTu6nUVjURMRmv7sLYjdT5qV3Tm-FTvFa8_GQYlHBGasw0o2Go5zREXz2Z44yKkT4loytpobYDtesSYEqBivUU2OHQIaLXj7292kI2M1QAALKc1fzg3mMJYfLUBQ9lCgaEPmANjdmHHWBQeWuVFu54iuFgSmQ8Ii4V3T_mVLS1SEZ_mZ7CHZWXT-zGrF0b_pZNspt6ayU_gTeskybjPn_SgRS0ggc4vkOme67Zn53F78ui_5vIKobGRm3HMZqC3l3gpRH1mwlFf2l0bdYWLLX4poZUWTE5-OfqCB5e43RbePDeLUZHxOde1La2M8BlGvcOK4NtrigEKJk8ufyxg-OnjmUrrXVLNL1ntp2ZLsEjSAA9bF7wr24RGGFU7B9VnedOImyi0VfWApEC59rNgT8pjc_X5igvMLBpLWxldCRsA6PtuzjMzk7hbpBP8nb1WBCoAh5eoGycVxBKT0gdJUKXzMpaACzBOp1j-IbbqIOzRhB3J0SvwGV9Gd_Yp9nEVzwRD33CM4UC6sMf84wkFPkAaD4chtkHWNcUl32dCr1XHkbyHpdCNd8ecq98OmqPTu_pshECosOIGFVSt-GHhwsii-FZuO6uV4p7S-vcAhB6ur9T1XFRSKi3c6taVluhWNqB4vIvMCb-35x6v0NOgDdOoATMPlE1a7lRbPzHFxDmSwHadgYJVpXbcjTKlUSQcePYYBRXsNhqHyFPtRr_WfmbqojTnNUZw4gtF1ZV9xt1EkHLMjHbba1bKn5Yvv_luhaz8nckrCLlBBmbIquiCdyUlKqd_i4b1HxJCxnSnIaM13nDDccsmO0SF9pc_v5EON0_A8mBy0]--></g></svg>