<?xml version="1.0" encoding="us-ascii" standalone="no"?><svg xmlns="http://www.w3.org/2000/svg" xmlns:xlink="http://www.w3.org/1999/xlink" contentStyleType="text/css" height="1190.7px" preserveAspectRatio="none" style="width:688px;height:1190px;background:#FFFFFF;" version="1.1" viewBox="0 0 688 1190" width="688.5px" zoomAndPan="magnify"><defs/><g><text fill="#000000" font-family="sans-serif" font-size="11.34" font-weight="bold" lengthAdjust="spacing" textLength="102.87" x="287.145" y="20.337">Use Case Diagram</text><!--cluster usecases--><g id="cluster_usecases"><rect fill="none" height="1148.58" rx="2.025" ry="2.025" style="stroke:#FFC0CB;stroke-width:0.81;" width="413.91" x="269.73" y="37.7631"/><text fill="#000000" font-family="sans-serif" font-size="11.34" font-weight="bold" lengthAdjust="spacing" textLength="59.94" x="446.715" y="51.6201">Use Cases</text></g><g id="elem_UC1"><ellipse cx="476.6364" cy="92.9144" fill="#F1F1F1" rx="116.1864" ry="25.1813" style="stroke:#181818;stroke-width:0.405;"/><text fill="#000000" font-family="sans-serif" font-size="11.34" lengthAdjust="spacing" textLength="204.93" x="374.1714" y="95.9898">UC1 - Registering skills for collaborators</text></g><g id="elem_UC2"><ellipse cx="476.76" cy="166.5681" fill="#F1F1F1" rx="89.58" ry="19.86" style="stroke:#181818;stroke-width:0.405;"/><text fill="#000000" font-family="sans-serif" font-size="11.34" lengthAdjust="spacing" textLength="147.42" x="403.05" y="169.6435">UC2 - Profession registration</text></g><g id="elem_UC3"><ellipse cx="476.7859" cy="255.5113" fill="#F1F1F1" rx="194.0959" ry="40.7632" style="stroke:#181818;stroke-width:0.405;"/><text fill="#000000" font-family="sans-serif" font-size="11.34" lengthAdjust="spacing" textLength="366.12" x="293.7259" y="258.5867">UC3 - Register a collaborator with a job and fundamental characteristics</text></g><g id="elem_UC4"><ellipse cx="476.4933" cy="349.6557" fill="#F1F1F1" rx="111.9933" ry="24.3427" style="stroke:#181818;stroke-width:0.405;"/><text fill="#000000" font-family="sans-serif" font-size="11.34" lengthAdjust="spacing" textLength="196.02" x="378.4833" y="352.7312">UC4 - Assigning skills to a collaborator</text></g><g id="elem_UC5"><ellipse cx="476.6599" cy="430.4461" fill="#F1F1F1" rx="131.1949" ry="28.183" style="stroke:#181818;stroke-width:0.405;"/><text fill="#000000" font-family="sans-serif" font-size="11.34" lengthAdjust="spacing" textLength="236.52" x="358.3999" y="433.5215">UC5 - Generate a team proposal automatically</text></g><g id="elem_UC6"><ellipse cx="476.4998" cy="506.635" fill="#F1F1F1" rx="84.8648" ry="18.917" style="stroke:#181818;stroke-width:0.405;"/><text fill="#000000" font-family="sans-serif" font-size="11.34" lengthAdjust="spacing" textLength="136.89" x="408.0548" y="509.7105">UC6 - Registering Vehicles</text></g><g id="elem_UC7"><ellipse cx="476.591" cy="579.4723" fill="#F1F1F1" rx="116.951" ry="25.3342" style="stroke:#181818;stroke-width:0.405;"/><text fill="#000000" font-family="sans-serif" font-size="11.34" lengthAdjust="spacing" textLength="206.55" x="373.316" y="582.5477">UC7 - Register the check-up of a vehicle</text></g><g id="elem_UC8"><ellipse cx="476.7721" cy="652.6515" fill="#F1F1F1" rx="85.9471" ry="19.1334" style="stroke:#181818;stroke-width:0.405;"/><text fill="#000000" font-family="sans-serif" font-size="11.34" lengthAdjust="spacing" textLength="139.32" x="407.1121" y="655.727">UC8 - Check-up of vehicles</text></g><g id="elem_UC9"><ellipse cx="476.7149" cy="726.2691" fill="#F1F1F1" rx="121.9349" ry="26.331" style="stroke:#181818;stroke-width:0.405;"/><text fill="#000000" font-family="sans-serif" font-size="11.34" lengthAdjust="spacing" textLength="217.08" x="368.1749" y="729.3445">UC9 - Water consumption of green spaces</text></g><g id="elem_UC10"><ellipse cx="476.6394" cy="802.232" fill="#F1F1F1" rx="94.7244" ry="20.8889" style="stroke:#181818;stroke-width:0.405;"/><text fill="#000000" font-family="sans-serif" font-size="11.34" lengthAdjust="spacing" textLength="158.76" x="397.2594" y="805.3074">UC10 - Equipment Preferences</text></g><g id="elem_UC11"><ellipse cx="476.7076" cy="889.9686" fill="#F1F1F1" rx="179.0326" ry="37.7505" style="stroke:#181818;stroke-width:0.405;"/><text fill="#000000" font-family="sans-serif" font-size="11.34" lengthAdjust="spacing" textLength="335.34" x="309.0376" y="893.0441">UC11 - Collect data from the user portal about the use of the park</text></g><g id="elem_UC12"><ellipse cx="476.7361" cy="990.3333" fill="#F1F1F1" rx="162.4561" ry="34.4352" style="stroke:#181818;stroke-width:0.405;"/><text fill="#000000" font-family="sans-serif" font-size="11.34" lengthAdjust="spacing" textLength="301.32" x="326.0761" y="993.4088">UC12 - Importing Water Point Routes and Installation Costs</text></g><g id="elem_UC13"><ellipse cx="476.7721" cy="1072.2315" fill="#F1F1F1" rx="85.9471" ry="19.1334" style="stroke:#181818;stroke-width:0.405;"/><text fill="#000000" font-family="sans-serif" font-size="11.34" lengthAdjust="spacing" textLength="139.32" x="407.1121" y="1075.307">UC13 - Optimizing irrigation</text></g><g id="elem_UC14"><ellipse cx="476.6333" cy="1146.5617" fill="#F1F1F1" rx="123.4733" ry="26.6387" style="stroke:#181818;stroke-width:0.405;"/><text fill="#000000" font-family="sans-serif" font-size="11.34" lengthAdjust="spacing" textLength="220.32" x="366.4733" y="1149.6372">UC14 - Running Asymptotic Behavior Tests</text></g><!--entity HRM--><g id="elem_HRM"><ellipse cx="119.475" cy="230.5431" fill="#F1F1F1" rx="6.48" ry="6.48" style="stroke:#181818;stroke-width:0.405;"/><path d="M119.475,237.0231 L119.475,258.8931 M108.945,243.5031 L130.005,243.5031 M119.475,258.8931 L108.945,271.0431 M119.475,258.8931 L130.005,271.0431 " fill="none" style="stroke:#181818;stroke-width:0.405;"/><text fill="#000000" font-family="sans-serif" font-size="11.34" lengthAdjust="spacing" textLength="142.56" x="48.195" y="284.4951">Human Resources Manager</text></g><!--entity FM--><g id="elem_FM"><ellipse cx="119.475" cy="554.5431" fill="#F1F1F1" rx="6.48" ry="6.48" style="stroke:#181818;stroke-width:0.405;"/><path d="M119.475,561.0231 L119.475,582.8931 M108.945,567.5031 L130.005,567.5031 M119.475,582.8931 L108.945,595.0431 M119.475,582.8931 L130.005,595.0431 " fill="none" style="stroke:#181818;stroke-width:0.405;"/><text fill="#000000" font-family="sans-serif" font-size="11.34" lengthAdjust="spacing" textLength="143.37" x="47.79" y="608.4951">Vehicles and Fleet Manager</text></g><!--entity GSM--><g id="elem_GSM"><ellipse cx="119.475" cy="864.7731" fill="#F1F1F1" rx="6.48" ry="6.48" style="stroke:#181818;stroke-width:0.405;"/><path d="M119.475,871.2531 L119.475,893.1231 M108.945,877.7331 L130.005,877.7331 M119.475,893.1231 L108.945,905.2731 M119.475,893.1231 L130.005,905.2731 " fill="none" style="stroke:#181818;stroke-width:0.405;"/><text fill="#000000" font-family="sans-serif" font-size="11.34" lengthAdjust="spacing" textLength="122.31" x="58.32" y="918.7251">Green Spaces Manager</text></g><!--entity QAM--><g id="elem_QAM"><ellipse cx="119.475" cy="1121.5431" fill="#F1F1F1" rx="6.48" ry="6.48" style="stroke:#181818;stroke-width:0.405;"/><path d="M119.475,1128.0231 L119.475,1149.8931 M108.945,1134.5031 L130.005,1134.5031 M119.475,1149.8931 L108.945,1162.0431 M119.475,1149.8931 L130.005,1162.0431 " fill="none" style="stroke:#181818;stroke-width:0.405;"/><text fill="#000000" font-family="sans-serif" font-size="11.34" lengthAdjust="spacing" textLength="229.23" x="4.86" y="1175.4951">Software Quality Assessment Team Manager</text></g><!--link HRM to UC1--><g id="link_HRM_UC1"><path d="M148.1166,223.5447 C174.7251,195.0084 217.485,154.5165 263.25,132.5331 C295.4961,117.0459 328.3836,108.3931 362.9949,102.6178 " fill="none" id="HRM-to-UC1" style="stroke:#181818;stroke-width:0.81;"/><polygon fill="#181818" points="367.7886,101.8179,360.0648,99.8219,363.7938,102.4845,361.1313,106.2135,367.7886,101.8179" style="stroke:#181818;stroke-width:0.81;"/></g><!--link HRM to UC2--><g id="link_HRM_UC2"><path d="M190.9413,225.0675 C213.6942,216.1332 239.2335,207.045 263.25,200.5731 C306.5688,188.901 351.1784,181.3435 391.4678,175.9246 " fill="none" id="HRM-to-UC2" style="stroke:#181818;stroke-width:0.81;"/><polygon fill="#181818" points="396.2844,175.2768,388.6276,173.0375,392.2705,175.8166,389.4913,179.4596,396.2844,175.2768" style="stroke:#181818;stroke-width:0.81;"/></g><!--link HRM to UC3--><g id="link_HRM_UC3"><path d="M190.9656,255.6531 C217.8009,255.6531 244.9683,255.6531 277.7004,255.6531 " fill="none" id="HRM-to-UC3" style="stroke:#181818;stroke-width:0.81;"/><polygon fill="#181818" points="282.5604,255.6531,275.2704,252.4131,278.5104,255.6531,275.2704,258.8931,282.5604,255.6531" style="stroke:#181818;stroke-width:0.81;"/></g><!--link HRM to UC4--><g id="link_HRM_UC4"><path d="M191.0304,285.9147 C213.7833,294.8328 239.3064,303.9939 263.25,310.7331 C301.725,321.5547 340.1862,329.3031 377.6001,335.5887 " fill="none" id="HRM-to-UC4" style="stroke:#181818;stroke-width:0.81;"/><polygon fill="#181818" points="382.3929,336.3939,375.7405,331.9909,378.3989,335.7229,374.6668,338.3813,382.3929,336.3939" style="stroke:#181818;stroke-width:0.81;"/></g><!--link HRM to UC5--><g id="link_HRM_UC5"><path d="M145.9539,287.9154 C172.125,318.5091 215.5653,363.3183 263.25,387.6831 C292.2561,402.5061 321.1695,411.2686 353.0511,417.619 " fill="none" id="HRM-to-UC5" style="stroke:#181818;stroke-width:0.81;"/><polygon fill="#181818" points="357.8175,418.5684,351.3009,413.9667,353.8455,417.7772,350.035,420.3219,357.8175,418.5684" style="stroke:#181818;stroke-width:0.81;"/></g><!--link FM to UC6--><g id="link_FM_UC6"><path d="M191.5083,558.1314 C214.2936,551.7162 239.7114,545.0499 263.25,539.9631 C309.1689,530.0406 356.4714,522.5262 397.6113,516.759 " fill="none" id="FM-to-UC6" style="stroke:#181818;stroke-width:0.81;"/><polygon fill="#181818" points="402.4242,516.0843,394.755,513.8877,398.4134,516.6465,395.6546,520.305,402.4242,516.0843" style="stroke:#181818;stroke-width:0.81;"/></g><!--link FM to UC7--><g id="link_FM_UC7"><path d="M191.1762,579.6531 C239.2983,579.6531 299.1735,579.6531 354.7557,579.6531 " fill="none" id="FM-to-UC7" style="stroke:#181818;stroke-width:0.81;"/><polygon fill="#181818" points="359.6157,579.6531,352.3257,576.4131,355.5657,579.6531,352.3257,582.8931,359.6157,579.6531" style="stroke:#181818;stroke-width:0.81;"/></g><!--link FM to UC8--><g id="link_FM_UC8"><path d="M191.5083,601.1748 C214.2936,607.59 239.7114,614.2563 263.25,619.3431 C308.9907,629.2332 356.0583,636.7148 397.1172,642.4739 " fill="none" id="FM-to-UC8" style="stroke:#181818;stroke-width:0.81;"/><polygon fill="#181818" points="401.9301,643.149,395.1608,638.9278,397.9194,642.5864,394.2607,645.345,401.9301,643.149" style="stroke:#181818;stroke-width:0.81;"/></g><!--link GSM to UC9--><g id="link_GSM_UC9"><path d="M148.1328,857.8152 C174.7575,829.3113 217.5255,788.8275 263.25,766.7631 C294.3054,751.7781 325.6219,743.1826 359.1721,737.2291 " fill="none" id="GSM-to-UC9" style="stroke:#181818;stroke-width:0.81;"/><polygon fill="#181818" points="363.9573,736.38,356.2133,734.4635,359.9696,737.0876,357.3455,740.8439,363.9573,736.38" style="stroke:#181818;stroke-width:0.81;"/></g><!--link GSM to UC10--><g id="link_GSM_UC10"><path d="M180.7353,865.2024 C205.9182,855.6525 235.6695,845.2926 263.25,838.0431 C305.694,826.8894 349.0563,819.1801 388.7949,813.34 " fill="none" id="GSM-to-UC10" style="stroke:#181818;stroke-width:0.81;"/><polygon fill="#181818" points="393.6033,812.6334,385.9197,810.4878,389.5963,813.2223,386.8619,816.8989,393.6033,812.6334" style="stroke:#181818;stroke-width:0.81;"/></g><!--link GSM to UC11--><g id="link_GSM_UC11"><path d="M181.0107,889.8831 C213.5403,889.8831 250.6221,889.8831 292.6125,889.8831 " fill="none" id="GSM-to-UC11" style="stroke:#181818;stroke-width:0.81;"/><polygon fill="#181818" points="297.4725,889.8831,290.1825,886.6431,293.4225,889.8831,290.1825,893.1231,297.4725,889.8831" style="stroke:#181818;stroke-width:0.81;"/></g><!--link GSM to UC12--><g id="link_GSM_UC12"><path d="M180.9621,913.7538 C206.1774,923.1903 235.8963,933.6717 263.25,941.7231 C294.1272,950.8113 323.1988,958.1442 354.5944,965.3208 " fill="none" id="GSM-to-UC12" style="stroke:#181818;stroke-width:0.81;"/><polygon fill="#181818" points="359.3322,966.4038,352.9475,961.6208,355.384,965.5013,351.5035,967.9378,359.3322,966.4038" style="stroke:#181818;stroke-width:0.81;"/></g><!--link GSM to UC13--><g id="link_GSM_UC13"><path d="M141.3045,921.9915 C166.0257,956.9106 210.4704,1011.4074 263.25,1038.9231 C302.1786,1059.2136 345.3203,1067.4712 385.8527,1070.8975 " fill="none" id="GSM-to-UC13" style="stroke:#181818;stroke-width:0.81;"/><polygon fill="#181818" points="390.6954,1071.3069,383.7042,1067.4643,386.6598,1070.9657,383.1584,1073.9213,390.6954,1071.3069" style="stroke:#181818;stroke-width:0.81;"/></g><!--link QAM to UC14--><g id="link_QAM_UC14"><path d="M234.2601,1146.6531 C272.1519,1146.6531 309.6306,1146.6531 348.1623,1146.6531 " fill="none" id="QAM-to-UC14" style="stroke:#181818;stroke-width:0.81;"/><polygon fill="#181818" points="353.0223,1146.6531,345.7323,1143.4131,348.9723,1146.6531,345.7323,1149.8931,353.0223,1146.6531" style="stroke:#181818;stroke-width:0.81;"/></g><!--SRC=[PLJBRjim4BphAnQvv6GWSfoakHH8tEPn29hOQNjcv9N4cY9LaahW5ltt3lMm9Te7mqlF3FSnt5EtbReMLbHK6MsoqfgAoTk6ayC_jSYsek2rtoacovaNkb2Sd1uGhXGRyo5rGRbGZfCHUO__cn0-jyPks2wDCfPggRV9loJnqaFuksDQ2dnzaQ80CqaKvvwy8IkBqjD61YbfT9AqIYBpq3XvQ2gXQSNED3PZHqz28rTxGiBHm-ff3Ft1fSmKC49lw4un-mdwRWA-jyoQrgWz4hrVJt1ha_iFOPbU6g6atz6DS-nSnThJAwC1O-xBpLFIV_PzePEXSjTY6iTP2Bf-zH50ovHcgBEGphCDhKQFbNAK8ulCA2NUZ1L8gLC1FERFmN-s9aTsw2864wH0GT1JvZ7bV7GbYSarz25zYRDVvgtjPzxeZGXL2qLPYT5d8KtdPJOaT1whBw2ERib2Zyh1lASNzUn5pBu0-vur0yIW-D3hsfhQE6GW6cygb9O9fNQzmaMiS1arTF17Zx-CyLVZRlYIKITdsrbJaycHmNj7xzbNCViJsCiHuNrwswSOVmtyJn6koensJLM7GGLYqJhJjSxioTT7NZa3- -llHjQj4PyjvsnP7nZfsH4b-0iFKy6Oj15UK8vbqDO955whiM6s64lZXzEGJlY9fxuTX8zybmRZFLQ17xhSrVHi9F9QGQj_Zu_QGLwrTaGQpkypFN9b6cpv3Vsev9-WA2qsnDZ7wP7Lqk2rLQDRfzsu7Rffu0wwvLAyIxZvbKStBheDW_L1izdd_LiwnFCeFe_YHHHtrhiRmijfU3KDEoTWpVJnTHJteniTfF71F3xe4iJw6GuMOV7-1m00]--></g></svg>