<?xml version="1.0" encoding="us-ascii" standalone="no"?><svg xmlns="http://www.w3.org/2000/svg" xmlns:xlink="http://www.w3.org/1999/xlink" contentStyleType="text/css" height="603px" preserveAspectRatio="none" style="width:449px;height:603px;background:#FFFFFF;" version="1.1" viewBox="0 0 449 603" width="449px" zoomAndPan="magnify"><defs/><g><rect fill="#FFFFFF" height="215.4551" style="stroke:#181818;stroke-width:1.0;" width="10" x="80.5" y="314.2793"/><rect fill="#FFFFFF" height="130.873" style="stroke:#181818;stroke-width:1.0;" width="10" x="85.5" y="353.5703"/><rect fill="#FFFFFF" height="42.291" style="stroke:#181818;stroke-width:1.0;" width="10" x="90.5" y="397.8613"/><rect fill="#FFFFFF" height="223.7461" style="stroke:#181818;stroke-width:1.0;" width="10" x="237.5" y="90.5332"/><rect fill="#FFFFFF" height="42.291" style="stroke:#181818;stroke-width:1.0;" width="10" x="242.5" y="226.6973"/><rect fill="none" height="393.9102" style="stroke:#000000;stroke-width:1.5;" width="433.5" x="10" y="105.5332"/><rect fill="none" height="107.873" style="stroke:#000000;stroke-width:1.5;" width="222.5" x="211" y="176.1152"/><line style="stroke:#181818;stroke-width:0.5;stroke-dasharray:5.0,5.0;" x1="85" x2="85" y1="57.2422" y2="547.7344"/><line style="stroke:#181818;stroke-width:0.5;stroke-dasharray:5.0,5.0;" x1="242" x2="242" y1="57.2422" y2="547.7344"/><rect fill="#E3E3E3" height="51.2422" rx="2.5" ry="2.5" style="stroke:#181818;stroke-width:0.5;" width="131" x="20" y="5"/><text fill="#000000" font-family="sans-serif" font-size="14" lengthAdjust="spacing" textLength="113" x="29" y="27.1074">skillListRepository</text><text fill="#000000" font-family="sans-serif" font-size="14" lengthAdjust="spacing" textLength="117" x="27" y="45.7285">:skillListRepository</text><rect fill="#E3E3E3" height="51.2422" rx="2.5" ry="2.5" style="stroke:#181818;stroke-width:0.5;" width="131" x="20" y="546.7344"/><text fill="#000000" font-family="sans-serif" font-size="14" lengthAdjust="spacing" textLength="113" x="29" y="568.8418">skillListRepository</text><text fill="#000000" font-family="sans-serif" font-size="14" lengthAdjust="spacing" textLength="117" x="27" y="587.4629">:skillListRepository</text><rect fill="#E3E3E3" height="51.2422" rx="2.5" ry="2.5" style="stroke:#181818;stroke-width:0.5;" width="43" x="221" y="5"/><text fill="#000000" font-family="sans-serif" font-size="14" lengthAdjust="spacing" textLength="23" x="231" y="27.1074">skill</text><text fill="#000000" font-family="sans-serif" font-size="14" lengthAdjust="spacing" textLength="29" x="228" y="45.7285">:Skill</text><rect fill="#E3E3E3" height="51.2422" rx="2.5" ry="2.5" style="stroke:#181818;stroke-width:0.5;" width="43" x="221" y="546.7344"/><text fill="#000000" font-family="sans-serif" font-size="14" lengthAdjust="spacing" textLength="23" x="231" y="568.8418">skill</text><text fill="#000000" font-family="sans-serif" font-size="14" lengthAdjust="spacing" textLength="29" x="228" y="587.4629">:Skill</text><rect fill="#FFFFFF" height="215.4551" style="stroke:#181818;stroke-width:1.0;" width="10" x="80.5" y="314.2793"/><rect fill="#FFFFFF" height="130.873" style="stroke:#181818;stroke-width:1.0;" width="10" x="85.5" y="353.5703"/><rect fill="#FFFFFF" height="42.291" style="stroke:#181818;stroke-width:1.0;" width="10" x="90.5" y="397.8613"/><rect fill="#FFFFFF" height="223.7461" style="stroke:#181818;stroke-width:1.0;" width="10" x="237.5" y="90.5332"/><rect fill="#FFFFFF" height="42.291" style="stroke:#181818;stroke-width:1.0;" width="10" x="242.5" y="226.6973"/><polygon fill="#181818" points="225.5,86.5332,235.5,90.5332,225.5,94.5332,229.5,90.5332" style="stroke:#181818;stroke-width:1.0;"/><line style="stroke:#181818;stroke-width:1.0;" x1="0" x2="231.5" y1="90.5332" y2="90.5332"/><text fill="#000000" font-family="sans-serif" font-size="13" font-weight="bold" lengthAdjust="spacing" textLength="25" x="7" y="85.2705">16.1</text><text fill="#000000" font-family="sans-serif" font-size="13" lengthAdjust="spacing" textLength="108" x="36" y="85.2705">registerSkill(name)</text><path d="M10,105.5332 L136,105.5332 L136,114.8242 L126,124.8242 L10,124.8242 L10,105.5332 " fill="#EEEEEE" style="stroke:#000000;stroke-width:1.5;"/><rect fill="none" height="393.9102" style="stroke:#000000;stroke-width:1.5;" width="433.5" x="10" y="105.5332"/><text fill="#000000" font-family="sans-serif" font-size="13" font-weight="bold" lengthAdjust="spacing" textLength="81" x="25" y="120.5615">Register skill</text><line style="stroke:#181818;stroke-width:1.0;stroke-dasharray:2.0,2.0;" x1="247.5" x2="289.5" y1="148.1152" y2="148.1152"/><line style="stroke:#181818;stroke-width:1.0;stroke-dasharray:2.0,2.0;" x1="289.5" x2="289.5" y1="148.1152" y2="161.1152"/><line style="stroke:#181818;stroke-width:1.0;stroke-dasharray:2.0,2.0;" x1="248.5" x2="289.5" y1="161.1152" y2="161.1152"/><polygon fill="#181818" points="258.5,157.1152,248.5,161.1152,258.5,165.1152,254.5,161.1152" style="stroke:#181818;stroke-width:1.0;"/><text fill="#000000" font-family="sans-serif" font-size="13" font-weight="bold" lengthAdjust="spacing" textLength="25" x="254.5" y="142.8525">16.2</text><text fill="#000000" font-family="sans-serif" font-size="13" lengthAdjust="spacing" textLength="133" x="283.5" y="142.8525">validateNameSkill(skill)</text><path d="M211,176.1152 L284,176.1152 L284,185.4063 L274,195.4063 L211,195.4063 L211,176.1152 " fill="#EEEEEE" style="stroke:#000000;stroke-width:1.5;"/><rect fill="none" height="107.873" style="stroke:#000000;stroke-width:1.5;" width="222.5" x="211" y="176.1152"/><text fill="#000000" font-family="sans-serif" font-size="13" font-weight="bold" lengthAdjust="spacing" textLength="28" x="226" y="191.1436">loop</text><text fill="#000000" font-family="sans-serif" font-size="11" font-weight="bold" lengthAdjust="spacing" textLength="117" x="299" y="189.9854">[[for each skill name]</text><line style="stroke:#181818;stroke-width:1.0;" x1="247.5" x2="294.5" y1="213.6973" y2="213.6973"/><line style="stroke:#181818;stroke-width:1.0;" x1="294.5" x2="294.5" y1="213.6973" y2="226.6973"/><line style="stroke:#181818;stroke-width:1.0;" x1="253.5" x2="294.5" y1="226.6973" y2="226.6973"/><polygon fill="#181818" points="263.5,222.6973,253.5,226.6973,263.5,230.6973,259.5,226.6973" style="stroke:#181818;stroke-width:1.0;"/><text fill="#000000" font-family="sans-serif" font-size="13" font-weight="bold" lengthAdjust="spacing" textLength="25" x="259.5" y="208.4346">16.3</text><text fill="#000000" font-family="sans-serif" font-size="13" lengthAdjust="spacing" textLength="133" x="288.5" y="208.4346">validateNameSkill(skill)</text><line style="stroke:#181818;stroke-width:1.0;stroke-dasharray:2.0,2.0;" x1="252.5" x2="294.5" y1="267.9883" y2="267.9883"/><line style="stroke:#181818;stroke-width:1.0;stroke-dasharray:2.0,2.0;" x1="294.5" x2="294.5" y1="267.9883" y2="280.9883"/><line style="stroke:#181818;stroke-width:1.0;stroke-dasharray:2.0,2.0;" x1="247.5" x2="294.5" y1="280.9883" y2="280.9883"/><polygon fill="#181818" points="257.5,276.9883,247.5,280.9883,257.5,284.9883,253.5,280.9883" style="stroke:#181818;stroke-width:1.0;"/><text fill="#000000" font-family="sans-serif" font-size="13" font-weight="bold" lengthAdjust="spacing" textLength="25" x="259.5" y="262.7256">16.4</text><text fill="#000000" font-family="sans-serif" font-size="13" lengthAdjust="spacing" textLength="53" x="288.5" y="262.7256">true/false</text><polygon fill="#181818" points="101.5,310.2793,91.5,314.2793,101.5,318.2793,97.5,314.2793" style="stroke:#181818;stroke-width:1.0;"/><line style="stroke:#181818;stroke-width:1.0;stroke-dasharray:2.0,2.0;" x1="95.5" x2="241.5" y1="314.2793" y2="314.2793"/><text fill="#000000" font-family="sans-serif" font-size="13" font-weight="bold" lengthAdjust="spacing" textLength="25" x="107.5" y="309.0166">16.5</text><text fill="#000000" font-family="sans-serif" font-size="13" lengthAdjust="spacing" textLength="23" x="136.5" y="309.0166">skill</text><line style="stroke:#181818;stroke-width:1.0;" x1="90.5" x2="137.5" y1="340.5703" y2="340.5703"/><line style="stroke:#181818;stroke-width:1.0;" x1="137.5" x2="137.5" y1="340.5703" y2="353.5703"/><line style="stroke:#181818;stroke-width:1.0;" x1="96.5" x2="137.5" y1="353.5703" y2="353.5703"/><polygon fill="#181818" points="106.5,349.5703,96.5,353.5703,106.5,357.5703,102.5,353.5703" style="stroke:#181818;stroke-width:1.0;"/><text fill="#000000" font-family="sans-serif" font-size="13" font-weight="bold" lengthAdjust="spacing" textLength="25" x="102.5" y="335.3076">16.6</text><text fill="#000000" font-family="sans-serif" font-size="13" lengthAdjust="spacing" textLength="77" x="131.5" y="335.3076">addSkill(skill)</text><line style="stroke:#181818;stroke-width:1.0;" x1="95.5" x2="142.5" y1="384.8613" y2="384.8613"/><line style="stroke:#181818;stroke-width:1.0;" x1="142.5" x2="142.5" y1="384.8613" y2="397.8613"/><line style="stroke:#181818;stroke-width:1.0;" x1="101.5" x2="142.5" y1="397.8613" y2="397.8613"/><polygon fill="#181818" points="111.5,393.8613,101.5,397.8613,111.5,401.8613,107.5,397.8613" style="stroke:#181818;stroke-width:1.0;"/><text fill="#000000" font-family="sans-serif" font-size="13" font-weight="bold" lengthAdjust="spacing" textLength="25" x="107.5" y="379.5986">16.7</text><text fill="#000000" font-family="sans-serif" font-size="13" lengthAdjust="spacing" textLength="99" x="136.5" y="379.5986">validateSkill(skill)</text><line style="stroke:#181818;stroke-width:1.0;stroke-dasharray:2.0,2.0;" x1="100.5" x2="142.5" y1="439.1523" y2="439.1523"/><line style="stroke:#181818;stroke-width:1.0;stroke-dasharray:2.0,2.0;" x1="142.5" x2="142.5" y1="439.1523" y2="452.1523"/><line style="stroke:#181818;stroke-width:1.0;stroke-dasharray:2.0,2.0;" x1="95.5" x2="142.5" y1="452.1523" y2="452.1523"/><polygon fill="#181818" points="105.5,448.1523,95.5,452.1523,105.5,456.1523,101.5,452.1523" style="stroke:#181818;stroke-width:1.0;"/><text fill="#000000" font-family="sans-serif" font-size="13" font-weight="bold" lengthAdjust="spacing" textLength="25" x="107.5" y="433.8896">16.8</text><text fill="#000000" font-family="sans-serif" font-size="13" lengthAdjust="spacing" textLength="4" x="136.5" y="433.8896">&#160;</text><line style="stroke:#181818;stroke-width:1.0;stroke-dasharray:2.0,2.0;" x1="95.5" x2="137.5" y1="483.4434" y2="483.4434"/><line style="stroke:#181818;stroke-width:1.0;stroke-dasharray:2.0,2.0;" x1="137.5" x2="137.5" y1="483.4434" y2="496.4434"/><line style="stroke:#181818;stroke-width:1.0;stroke-dasharray:2.0,2.0;" x1="90.5" x2="137.5" y1="496.4434" y2="496.4434"/><polygon fill="#181818" points="100.5,492.4434,90.5,496.4434,100.5,500.4434,96.5,496.4434" style="stroke:#181818;stroke-width:1.0;"/><text fill="#000000" font-family="sans-serif" font-size="13" font-weight="bold" lengthAdjust="spacing" textLength="25" x="102.5" y="478.1807">16.9</text><text fill="#000000" font-family="sans-serif" font-size="13" lengthAdjust="spacing" textLength="4" x="131.5" y="478.1807">&#160;</text><polygon fill="#181818" points="11,525.7344,1,529.7344,11,533.7344,7,529.7344" style="stroke:#181818;stroke-width:1.0;"/><line style="stroke:#181818;stroke-width:1.0;stroke-dasharray:2.0,2.0;" x1="5" x2="84.5" y1="529.7344" y2="529.7344"/><text fill="#000000" font-family="sans-serif" font-size="13" font-weight="bold" lengthAdjust="spacing" textLength="14" x="17" y="524.4717">17</text><text fill="#000000" font-family="sans-serif" font-size="13" lengthAdjust="spacing" textLength="23" x="35" y="524.4717">skill</text><!--SRC=[ZPCzRuCm48Pt_ufJfcQWLPPMGbMtA4lRL6HibojSm8gnaMrIvT_NV8HWFagz8Cxl-pxdmvWJbmLgp25NKiMPLZc1rIKnq-qK69ymfOEz209DiKMPYhx0P9Ye7ovJEA8mn9WhMnxp0gM5bTC9ySgDZQXGXbkbBryodAYk00tiezs4tHaErREMRDy-ekrkpnYMLiao_oODcyV1w_s6CMXNy7BrXAx_r459rt5t4dDQTxfgfLgL1KIj2cgw9y3OyZDQwjg0mMhh4Dom4C8P1K-SxTqH6tOTlMOZlr2gWC-Zqa0OPqq7K3KwKdgqVy6c4aO7-flZWQgRyj1yz2bJGelJ8fdum3x8NGO76N-3XTnkixfCj_GghGaD0PDaSZ2UjP_PDr_7EplQsPGkgOcQErJTzv9deFU6sVyLdkhASn1uunpIVW40]--></g></svg>