<?xml version="1.0" encoding="us-ascii" standalone="no"?><svg xmlns="http://www.w3.org/2000/svg" xmlns:xlink="http://www.w3.org/1999/xlink" contentStyleType="text/css" height="468px" preserveAspectRatio="none" style="width:414px;height:468px;background:#FFFFFF;" version="1.1" viewBox="0 0 414 468" width="414px" zoomAndPan="magnify"><defs/><g><rect fill="#FFFFFF" height="303.9883" style="stroke:#181818;stroke-width:1.0;" width="10" x="181" y="90.5332"/><rect fill="#FFFFFF" height="130.873" style="stroke:#181818;stroke-width:1.0;" width="10" x="186" y="218.3574"/><rect fill="#FFFFFF" height="42.291" style="stroke:#181818;stroke-width:1.0;" width="10" x="191" y="262.6484"/><rect fill="none" height="258.6973" style="stroke:#000000;stroke-width:1.5;" width="287" x="121.5" y="105.5332"/><line style="stroke:#181818;stroke-width:0.5;stroke-dasharray:5.0,5.0;" x1="185.5" x2="185.5" y1="57.2422" y2="412.5215"/><line style="stroke:#181818;stroke-width:0.5;stroke-dasharray:5.0,5.0;" x1="376.5" x2="376.5" y1="165.9453" y2="412.5215"/><rect fill="#E3E3E3" height="51.2422" rx="2.5" ry="2.5" style="stroke:#181818;stroke-width:0.5;" width="109" x="131.5" y="5"/><text fill="#000000" font-family="sans-serif" font-size="14" lengthAdjust="spacing" textLength="91" x="140.5" y="27.1074">skillRepository</text><text fill="#000000" font-family="sans-serif" font-size="14" lengthAdjust="spacing" textLength="95" x="138.5" y="45.7285">:skillRepository</text><rect fill="#E3E3E3" height="51.2422" rx="2.5" ry="2.5" style="stroke:#181818;stroke-width:0.5;" width="109" x="131.5" y="411.5215"/><text fill="#000000" font-family="sans-serif" font-size="14" lengthAdjust="spacing" textLength="91" x="140.5" y="433.6289">skillRepository</text><text fill="#000000" font-family="sans-serif" font-size="14" lengthAdjust="spacing" textLength="95" x="138.5" y="452.25">:skillRepository</text><rect fill="#E3E3E3" height="51.2422" rx="2.5" ry="2.5" style="stroke:#181818;stroke-width:0.5;" width="43" x="355.5" y="411.5215"/><text fill="#000000" font-family="sans-serif" font-size="14" lengthAdjust="spacing" textLength="23" x="365.5" y="433.6289">skill</text><text fill="#000000" font-family="sans-serif" font-size="14" lengthAdjust="spacing" textLength="29" x="362.5" y="452.25">:Skill</text><rect fill="#FFFFFF" height="303.9883" style="stroke:#181818;stroke-width:1.0;" width="10" x="181" y="90.5332"/><rect fill="#FFFFFF" height="130.873" style="stroke:#181818;stroke-width:1.0;" width="10" x="186" y="218.3574"/><rect fill="#FFFFFF" height="42.291" style="stroke:#181818;stroke-width:1.0;" width="10" x="191" y="262.6484"/><polygon fill="#181818" points="169,86.5332,179,90.5332,169,94.5332,173,90.5332" style="stroke:#181818;stroke-width:1.0;"/><line style="stroke:#181818;stroke-width:1.0;" x1="0" x2="175" y1="90.5332" y2="90.5332"/><text fill="#000000" font-family="sans-serif" font-size="13" font-weight="bold" lengthAdjust="spacing" textLength="25" x="7" y="85.2705">16.1</text><text fill="#000000" font-family="sans-serif" font-size="13" lengthAdjust="spacing" textLength="133" x="36" y="85.2705">registerSkill(skillName)</text><path d="M121.5,105.5332 L247.5,105.5332 L247.5,114.8242 L237.5,124.8242 L121.5,124.8242 L121.5,105.5332 " fill="#EEEEEE" style="stroke:#000000;stroke-width:1.5;"/><rect fill="none" height="258.6973" style="stroke:#000000;stroke-width:1.5;" width="287" x="121.5" y="105.5332"/><text fill="#000000" font-family="sans-serif" font-size="13" font-weight="bold" lengthAdjust="spacing" textLength="81" x="136.5" y="120.5615">Register skill</text><polygon fill="#181818" points="343.5,144.1152,353.5,148.1152,343.5,152.1152,347.5,148.1152" style="stroke:#181818;stroke-width:1.0;"/><line style="stroke:#181818;stroke-width:1.0;" x1="191" x2="349.5" y1="148.1152" y2="148.1152"/><text fill="#000000" font-family="sans-serif" font-size="13" font-weight="bold" lengthAdjust="spacing" textLength="25" x="198" y="142.8525">16.2</text><text fill="#000000" font-family="sans-serif" font-size="13" lengthAdjust="spacing" textLength="110" x="227" y="142.8525">register(SkillName)</text><rect fill="#E3E3E3" height="51.2422" rx="2.5" ry="2.5" style="stroke:#181818;stroke-width:0.5;" width="43" x="355.5" y="124.8242"/><text fill="#000000" font-family="sans-serif" font-size="14" lengthAdjust="spacing" textLength="23" x="365.5" y="146.9316">skill</text><text fill="#000000" font-family="sans-serif" font-size="14" lengthAdjust="spacing" textLength="29" x="362.5" y="165.5527">:Skill</text><line style="stroke:#181818;stroke-width:1.0;" x1="191" x2="238" y1="205.3574" y2="205.3574"/><line style="stroke:#181818;stroke-width:1.0;" x1="238" x2="238" y1="205.3574" y2="218.3574"/><line style="stroke:#181818;stroke-width:1.0;" x1="197" x2="238" y1="218.3574" y2="218.3574"/><polygon fill="#181818" points="207,214.3574,197,218.3574,207,222.3574,203,218.3574" style="stroke:#181818;stroke-width:1.0;"/><text fill="#000000" font-family="sans-serif" font-size="13" font-weight="bold" lengthAdjust="spacing" textLength="25" x="203" y="200.0947">16.3</text><text fill="#000000" font-family="sans-serif" font-size="13" lengthAdjust="spacing" textLength="111" x="232" y="200.0947">addSkill(skillName)</text><line style="stroke:#181818;stroke-width:1.0;" x1="196" x2="243" y1="249.6484" y2="249.6484"/><line style="stroke:#181818;stroke-width:1.0;" x1="243" x2="243" y1="249.6484" y2="262.6484"/><line style="stroke:#181818;stroke-width:1.0;" x1="202" x2="243" y1="262.6484" y2="262.6484"/><polygon fill="#181818" points="212,258.6484,202,262.6484,212,266.6484,208,262.6484" style="stroke:#181818;stroke-width:1.0;"/><text fill="#000000" font-family="sans-serif" font-size="13" font-weight="bold" lengthAdjust="spacing" textLength="25" x="208" y="244.3857">16.4</text><text fill="#000000" font-family="sans-serif" font-size="13" lengthAdjust="spacing" textLength="133" x="237" y="244.3857">validateSkill(skillName)</text><line style="stroke:#181818;stroke-width:1.0;stroke-dasharray:2.0,2.0;" x1="201" x2="243" y1="303.9395" y2="303.9395"/><line style="stroke:#181818;stroke-width:1.0;stroke-dasharray:2.0,2.0;" x1="243" x2="243" y1="303.9395" y2="316.9395"/><line style="stroke:#181818;stroke-width:1.0;stroke-dasharray:2.0,2.0;" x1="196" x2="243" y1="316.9395" y2="316.9395"/><polygon fill="#181818" points="206,312.9395,196,316.9395,206,320.9395,202,316.9395" style="stroke:#181818;stroke-width:1.0;"/><text fill="#000000" font-family="sans-serif" font-size="13" font-weight="bold" lengthAdjust="spacing" textLength="25" x="208" y="298.6768">16.5</text><text fill="#000000" font-family="sans-serif" font-size="13" lengthAdjust="spacing" textLength="4" x="237" y="298.6768">&#160;</text><line style="stroke:#181818;stroke-width:1.0;stroke-dasharray:2.0,2.0;" x1="196" x2="238" y1="348.2305" y2="348.2305"/><line style="stroke:#181818;stroke-width:1.0;stroke-dasharray:2.0,2.0;" x1="238" x2="238" y1="348.2305" y2="361.2305"/><line style="stroke:#181818;stroke-width:1.0;stroke-dasharray:2.0,2.0;" x1="191" x2="238" y1="361.2305" y2="361.2305"/><polygon fill="#181818" points="201,357.2305,191,361.2305,201,365.2305,197,361.2305" style="stroke:#181818;stroke-width:1.0;"/><text fill="#000000" font-family="sans-serif" font-size="13" font-weight="bold" lengthAdjust="spacing" textLength="25" x="203" y="342.9678">16.6</text><text fill="#000000" font-family="sans-serif" font-size="13" lengthAdjust="spacing" textLength="4" x="232" y="342.9678">&#160;</text><polygon fill="#181818" points="11,390.5215,1,394.5215,11,398.5215,7,394.5215" style="stroke:#181818;stroke-width:1.0;"/><line style="stroke:#181818;stroke-width:1.0;stroke-dasharray:2.0,2.0;" x1="5" x2="185" y1="394.5215" y2="394.5215"/><text fill="#000000" font-family="sans-serif" font-size="13" font-weight="bold" lengthAdjust="spacing" textLength="14" x="17" y="389.2588">17</text><text fill="#000000" font-family="sans-serif" font-size="13" lengthAdjust="spacing" textLength="23" x="35" y="389.2588">skill</text><!--SRC=[dP4nQyCm48Lt_OeZKnfm8KiBfdGBcT8KU-robQwAY2m9IKx9lw-a6CSn3ONU8dptlNTFSZWguz1Z1vqrbX-yxGYYxuc5SUAG7r5I6y-Qm1EFQAIU0k60mduh8-4BTI36KZighXoQ28l4QTsGiq55wyyVffvr5e01zits5rc2stmMPBDxRpRRFMFOHslwxfCyh9zcduzhnc2ewZNRrYcpL26IBrRBOlo67JsCO2xaKPqmKaao7KXlUmVDu055FW89pck6QAiLNBSjs-kYN3D9IOP2t0rrDz3Ku8HQYGJzxsgZsyNkPYReHiR-qiput28ZBhhf7tekdPUgAYxry9xpRJy0]--></g></svg>