<?xml version="1.0" encoding="us-ascii" standalone="no"?><svg xmlns="http://www.w3.org/2000/svg" xmlns:xlink="http://www.w3.org/1999/xlink" contentStyleType="text/css" height="1518px" preserveAspectRatio="none" style="width:1974px;height:1518px;background:#FFFFFF;" version="1.1" viewBox="0 0 1974 1518" width="1974px" zoomAndPan="magnify"><defs/><g><rect fill="#FFFFFF" height="1324.0488" style="stroke:#181818;stroke-width:1.0;" width="10" x="91" y="93.6211"/><rect fill="#FFFFFF" height="356.5313" style="stroke:#181818;stroke-width:1.0;" width="10" x="366" y="116.9121"/><rect fill="#FFFFFF" height="31.291" style="stroke:#181818;stroke-width:1.0;" width="10" x="366" y="504.7344"/><rect fill="#FFFFFF" height="850.3535" style="stroke:#181818;stroke-width:1.0;" width="10" x="366" y="567.3164"/><rect fill="#FFFFFF" height="219.0371" style="stroke:#181818;stroke-width:1.0;" width="10" x="528" y="191.8242"/><rect fill="#FFFFFF" height="787.7715" style="stroke:#181818;stroke-width:1.0;" width="10" x="533" y="598.6074"/><rect fill="#FFFFFF" height="225.0371" style="stroke:#181818;stroke-width:1.0;" width="10" x="533" y="598.6074"/><rect fill="#FFFFFF" height="31.291" style="stroke:#181818;stroke-width:1.0;" width="10" x="665.5" y="223.1152"/><rect fill="#FFFFFF" height="31.291" style="stroke:#181818;stroke-width:1.0;" width="10" x="665.5" y="629.8984"/><rect fill="#FFFFFF" height="31.291" style="stroke:#181818;stroke-width:1.0;" width="10" x="772.5" y="285.6973"/><rect fill="#FFFFFF" height="31.291" style="stroke:#181818;stroke-width:1.0;" width="10" x="772.5" y="692.4805"/><rect fill="#FFFFFF" height="31.291" style="stroke:#181818;stroke-width:1.0;" width="10" x="896.5" y="348.2793"/><rect fill="#FFFFFF" height="31.291" style="stroke:#181818;stroke-width:1.0;" width="10" x="896.5" y="755.0625"/><rect fill="#FFFFFF" height="468.1523" style="stroke:#181818;stroke-width:1.0;" width="10" x="1607" y="886.9355"/><rect fill="#FFFFFF" height="130.873" style="stroke:#181818;stroke-width:1.0;" width="10" x="1612" y="1185.9238"/><rect fill="#FFFFFF" height="42.291" style="stroke:#181818;stroke-width:1.0;" width="10" x="1617" y="1230.2148"/><rect fill="#FFFFFF" height="218.4063" style="stroke:#181818;stroke-width:1.0;" width="10" x="1783.5" y="928.2266"/><rect fill="#FFFFFF" height="42.291" style="stroke:#181818;stroke-width:1.0;" width="10" x="1788.5" y="1059.0508"/><rect fill="none" height="107.873" style="stroke:#000000;stroke-width:1.5;" width="211.5" x="1757" y="1008.4688"/><line style="stroke:#181818;stroke-width:0.5;stroke-dasharray:5.0,5.0;" x1="96" x2="96" y1="83.6211" y2="1435.6699"/><line style="stroke:#181818;stroke-width:0.5;stroke-dasharray:5.0,5.0;" x1="371" x2="371" y1="83.6211" y2="1435.6699"/><line style="stroke:#181818;stroke-width:0.5;stroke-dasharray:5.0,5.0;" x1="533" x2="533" y1="156.7227" y2="1435.6699"/><line style="stroke:#181818;stroke-width:0.5;stroke-dasharray:5.0,5.0;" x1="670" x2="670" y1="83.6211" y2="1435.6699"/><line style="stroke:#181818;stroke-width:0.5;stroke-dasharray:5.0,5.0;" x1="777" x2="777" y1="83.6211" y2="1435.6699"/><line style="stroke:#181818;stroke-width:0.5;stroke-dasharray:5.0,5.0;" x1="901" x2="901" y1="83.6211" y2="1435.6699"/><line style="stroke:#181818;stroke-width:0.5;stroke-dasharray:5.0,5.0;" x1="1045" x2="1045" y1="83.6211" y2="1435.6699"/><line style="stroke:#181818;stroke-width:0.5;stroke-dasharray:5.0,5.0;" x1="1192" x2="1192" y1="83.6211" y2="1435.6699"/><line style="stroke:#181818;stroke-width:0.5;stroke-dasharray:5.0,5.0;" x1="1325" x2="1325" y1="83.6211" y2="1435.6699"/><line style="stroke:#181818;stroke-width:0.5;stroke-dasharray:5.0,5.0;" x1="1471" x2="1471" y1="83.6211" y2="1435.6699"/><line style="stroke:#181818;stroke-width:0.5;stroke-dasharray:5.0,5.0;" x1="1612" x2="1612" y1="83.6211" y2="1435.6699"/><line style="stroke:#181818;stroke-width:0.5;stroke-dasharray:5.0,5.0;" x1="1788" x2="1788" y1="936.0566" y2="1435.6699"/><text fill="#000000" font-family="sans-serif" font-size="14" lengthAdjust="spacing" textLength="176" x="5" y="80.1074">Human Resources Manager</text><ellipse cx="96" cy="13.5" fill="#E3E3E3" rx="8" ry="8" style="stroke:#181818;stroke-width:0.5;"/><path d="M96,21.5 L96,48.5 M83,29.5 L109,29.5 M96,48.5 L83,63.5 M96,48.5 L109,63.5 " fill="none" style="stroke:#181818;stroke-width:0.5;"/><text fill="#000000" font-family="sans-serif" font-size="14" lengthAdjust="spacing" textLength="176" x="5" y="1449.7773">Human Resources Manager</text><ellipse cx="96" cy="1461.791" fill="#E3E3E3" rx="8" ry="8" style="stroke:#181818;stroke-width:0.5;"/><path d="M96,1469.791 L96,1496.791 M83,1477.791 L109,1477.791 M96,1496.791 L83,1511.791 M96,1496.791 L109,1511.791 " fill="none" style="stroke:#181818;stroke-width:0.5;"/><rect fill="#E3E3E3" height="32.6211" rx="2.5" ry="2.5" style="stroke:#181818;stroke-width:0.5;" width="108" x="317" y="50"/><text fill="#000000" font-family="sans-serif" font-size="14" lengthAdjust="spacing" textLength="94" x="324" y="72.1074">:RegisterSkillUI</text><rect fill="#E3E3E3" height="32.6211" rx="2.5" ry="2.5" style="stroke:#181818;stroke-width:0.5;" width="108" x="317" y="1434.6699"/><text fill="#000000" font-family="sans-serif" font-size="14" lengthAdjust="spacing" textLength="94" x="324" y="1456.7773">:RegisterSkillUI</text><rect fill="#E3E3E3" height="32.6211" rx="2.5" ry="2.5" style="stroke:#181818;stroke-width:0.5;" width="158" x="454" y="1434.6699"/><text fill="#000000" font-family="sans-serif" font-size="14" lengthAdjust="spacing" textLength="144" x="461" y="1456.7773">:RegisterSkillController</text><rect fill="#E3E3E3" height="32.6211" rx="2.5" ry="2.5" style="stroke:#181818;stroke-width:0.5;" width="97" x="622" y="50"/><text fill="#000000" font-family="sans-serif" font-size="14" lengthAdjust="spacing" textLength="83" x="629" y="72.1074">:Repositories</text><rect fill="#E3E3E3" height="32.6211" rx="2.5" ry="2.5" style="stroke:#181818;stroke-width:0.5;" width="97" x="622" y="1434.6699"/><text fill="#000000" font-family="sans-serif" font-size="14" lengthAdjust="spacing" textLength="83" x="629" y="1456.7773">:Repositories</text><rect fill="#E3E3E3" height="51.2422" rx="2.5" ry="2.5" style="stroke:#181818;stroke-width:0.5;" width="97" x="729" y="31.3789"/><text fill="#000000" font-family="sans-serif" font-size="14" lengthAdjust="spacing" textLength="74" x="740.5" y="53.4863">repositories</text><text fill="#000000" font-family="sans-serif" font-size="14" lengthAdjust="spacing" textLength="83" x="736" y="72.1074">:Repositories</text><rect fill="#E3E3E3" height="51.2422" rx="2.5" ry="2.5" style="stroke:#181818;stroke-width:0.5;" width="97" x="729" y="1434.6699"/><text fill="#000000" font-family="sans-serif" font-size="14" lengthAdjust="spacing" textLength="74" x="740.5" y="1456.7773">repositories</text><text fill="#000000" font-family="sans-serif" font-size="14" lengthAdjust="spacing" textLength="83" x="736" y="1475.3984">:Repositories</text><rect fill="#E3E3E3" height="51.2422" rx="2.5" ry="2.5" style="stroke:#181818;stroke-width:0.5;" width="131" x="836" y="31.3789"/><text fill="#000000" font-family="sans-serif" font-size="14" lengthAdjust="spacing" textLength="113" x="845" y="53.4863">skillListRepository</text><text fill="#000000" font-family="sans-serif" font-size="14" lengthAdjust="spacing" textLength="117" x="843" y="72.1074">:skillListRepository</text><rect fill="#E3E3E3" height="51.2422" rx="2.5" ry="2.5" style="stroke:#181818;stroke-width:0.5;" width="131" x="836" y="1434.6699"/><text fill="#000000" font-family="sans-serif" font-size="14" lengthAdjust="spacing" textLength="113" x="845" y="1456.7773">skillListRepository</text><text fill="#000000" font-family="sans-serif" font-size="14" lengthAdjust="spacing" textLength="117" x="843" y="1475.3984">:skillListRepository</text><rect fill="#E3E3E3" height="32.6211" rx="2.5" ry="2.5" style="stroke:#181818;stroke-width:0.5;" width="137" x="977" y="50"/><text fill="#000000" font-family="sans-serif" font-size="14" lengthAdjust="spacing" textLength="123" x="984" y="72.1074">:ApplicationSession</text><rect fill="#E3E3E3" height="32.6211" rx="2.5" ry="2.5" style="stroke:#181818;stroke-width:0.5;" width="137" x="977" y="1434.6699"/><text fill="#000000" font-family="sans-serif" font-size="14" lengthAdjust="spacing" textLength="123" x="984" y="1456.7773">:ApplicationSession</text><rect fill="#E3E3E3" height="51.2422" rx="2.5" ry="2.5" style="stroke:#181818;stroke-width:0.5;" width="137" x="1124" y="31.3789"/><text fill="#000000" font-family="sans-serif" font-size="14" lengthAdjust="spacing" textLength="74" x="1155.5" y="53.4863">appSession</text><text fill="#000000" font-family="sans-serif" font-size="14" lengthAdjust="spacing" textLength="123" x="1131" y="72.1074">:ApplicationSession</text><rect fill="#E3E3E3" height="51.2422" rx="2.5" ry="2.5" style="stroke:#181818;stroke-width:0.5;" width="137" x="1124" y="1434.6699"/><text fill="#000000" font-family="sans-serif" font-size="14" lengthAdjust="spacing" textLength="74" x="1155.5" y="1456.7773">appSession</text><text fill="#000000" font-family="sans-serif" font-size="14" lengthAdjust="spacing" textLength="123" x="1131" y="1475.3984">:ApplicationSession</text><rect fill="#E3E3E3" height="51.2422" rx="2.5" ry="2.5" style="stroke:#181818;stroke-width:0.5;" width="109" x="1271" y="31.3789"/><text fill="#000000" font-family="sans-serif" font-size="14" lengthAdjust="spacing" textLength="95" x="1278" y="53.4863">currentSession</text><text fill="#000000" font-family="sans-serif" font-size="14" lengthAdjust="spacing" textLength="83" x="1284" y="72.1074">:UserSession</text><rect fill="#E3E3E3" height="51.2422" rx="2.5" ry="2.5" style="stroke:#181818;stroke-width:0.5;" width="109" x="1271" y="1434.6699"/><text fill="#000000" font-family="sans-serif" font-size="14" lengthAdjust="spacing" textLength="95" x="1278" y="1456.7773">currentSession</text><text fill="#000000" font-family="sans-serif" font-size="14" lengthAdjust="spacing" textLength="83" x="1284" y="1475.3984">:UserSession</text><rect fill="#E3E3E3" height="51.2422" rx="2.5" ry="2.5" style="stroke:#181818;stroke-width:0.5;" width="163" x="1390" y="31.3789"/><text fill="#000000" font-family="sans-serif" font-size="14" lengthAdjust="spacing" textLength="149" x="1397" y="53.4863">organizationRepository:</text><text fill="#000000" font-family="sans-serif" font-size="14" lengthAdjust="spacing" textLength="148" x="1397.5" y="72.1074">OrganizationRepository</text><rect fill="#E3E3E3" height="51.2422" rx="2.5" ry="2.5" style="stroke:#181818;stroke-width:0.5;" width="163" x="1390" y="1434.6699"/><text fill="#000000" font-family="sans-serif" font-size="14" lengthAdjust="spacing" textLength="149" x="1397" y="1456.7773">organizationRepository:</text><text fill="#000000" font-family="sans-serif" font-size="14" lengthAdjust="spacing" textLength="148" x="1397.5" y="1475.3984">OrganizationRepository</text><rect fill="#E3E3E3" height="51.2422" rx="2.5" ry="2.5" style="stroke:#181818;stroke-width:0.5;" width="98" x="1563" y="31.3789"/><text fill="#000000" font-family="sans-serif" font-size="14" lengthAdjust="spacing" textLength="77" x="1573.5" y="53.4863">organization</text><text fill="#000000" font-family="sans-serif" font-size="14" lengthAdjust="spacing" textLength="84" x="1570" y="72.1074">:Organization</text><rect fill="#E3E3E3" height="51.2422" rx="2.5" ry="2.5" style="stroke:#181818;stroke-width:0.5;" width="98" x="1563" y="1434.6699"/><text fill="#000000" font-family="sans-serif" font-size="14" lengthAdjust="spacing" textLength="77" x="1573.5" y="1456.7773">organization</text><text fill="#000000" font-family="sans-serif" font-size="14" lengthAdjust="spacing" textLength="84" x="1570" y="1475.3984">:Organization</text><rect fill="#E3E3E3" height="51.2422" rx="2.5" ry="2.5" style="stroke:#181818;stroke-width:0.5;" width="43" x="1767" y="1434.6699"/><text fill="#000000" font-family="sans-serif" font-size="14" lengthAdjust="spacing" textLength="23" x="1777" y="1456.7773">skill</text><text fill="#000000" font-family="sans-serif" font-size="14" lengthAdjust="spacing" textLength="29" x="1774" y="1475.3984">:Skill</text><rect fill="#FFFFFF" height="1324.0488" style="stroke:#181818;stroke-width:1.0;" width="10" x="91" y="93.6211"/><rect fill="#FFFFFF" height="356.5313" style="stroke:#181818;stroke-width:1.0;" width="10" x="366" y="116.9121"/><rect fill="#FFFFFF" height="31.291" style="stroke:#181818;stroke-width:1.0;" width="10" x="366" y="504.7344"/><rect fill="#FFFFFF" height="850.3535" style="stroke:#181818;stroke-width:1.0;" width="10" x="366" y="567.3164"/><rect fill="#FFFFFF" height="219.0371" style="stroke:#181818;stroke-width:1.0;" width="10" x="528" y="191.8242"/><rect fill="#FFFFFF" height="787.7715" style="stroke:#181818;stroke-width:1.0;" width="10" x="533" y="598.6074"/><rect fill="#FFFFFF" height="225.0371" style="stroke:#181818;stroke-width:1.0;" width="10" x="533" y="598.6074"/><rect fill="#FFFFFF" height="31.291" style="stroke:#181818;stroke-width:1.0;" width="10" x="665.5" y="223.1152"/><rect fill="#FFFFFF" height="31.291" style="stroke:#181818;stroke-width:1.0;" width="10" x="665.5" y="629.8984"/><rect fill="#FFFFFF" height="31.291" style="stroke:#181818;stroke-width:1.0;" width="10" x="772.5" y="285.6973"/><rect fill="#FFFFFF" height="31.291" style="stroke:#181818;stroke-width:1.0;" width="10" x="772.5" y="692.4805"/><rect fill="#FFFFFF" height="31.291" style="stroke:#181818;stroke-width:1.0;" width="10" x="896.5" y="348.2793"/><rect fill="#FFFFFF" height="31.291" style="stroke:#181818;stroke-width:1.0;" width="10" x="896.5" y="755.0625"/><rect fill="#FFFFFF" height="468.1523" style="stroke:#181818;stroke-width:1.0;" width="10" x="1607" y="886.9355"/><rect fill="#FFFFFF" height="130.873" style="stroke:#181818;stroke-width:1.0;" width="10" x="1612" y="1185.9238"/><rect fill="#FFFFFF" height="42.291" style="stroke:#181818;stroke-width:1.0;" width="10" x="1617" y="1230.2148"/><rect fill="#FFFFFF" height="218.4063" style="stroke:#181818;stroke-width:1.0;" width="10" x="1783.5" y="928.2266"/><rect fill="#FFFFFF" height="42.291" style="stroke:#181818;stroke-width:1.0;" width="10" x="1788.5" y="1059.0508"/><polygon fill="#181818" points="354,112.9121,364,116.9121,354,120.9121,358,116.9121" style="stroke:#181818;stroke-width:1.0;"/><line style="stroke:#181818;stroke-width:1.0;" x1="101" x2="360" y1="116.9121" y2="116.9121"/><text fill="#000000" font-family="sans-serif" font-size="13" font-weight="bold" lengthAdjust="spacing" textLength="7" x="108" y="111.6494">1</text><text fill="#000000" font-family="sans-serif" font-size="13" lengthAdjust="spacing" textLength="155" x="119" y="111.6494">asks to register a new skill</text><polygon fill="#181818" points="442,144.2031,452,148.2031,442,152.2031,446,148.2031" style="stroke:#181818;stroke-width:1.0;"/><line style="stroke:#181818;stroke-width:1.0;" x1="376" x2="448" y1="148.2031" y2="148.2031"/><text fill="#000000" font-family="sans-serif" font-size="13" font-weight="bold" lengthAdjust="spacing" textLength="7" x="383" y="142.9404">2</text><text fill="#000000" font-family="sans-serif" font-size="13" lengthAdjust="spacing" textLength="43" x="394" y="142.9404">register</text><rect fill="#E3E3E3" height="32.6211" rx="2.5" ry="2.5" style="stroke:#181818;stroke-width:0.5;" width="158" x="454" y="124.9121"/><text fill="#000000" font-family="sans-serif" font-size="14" lengthAdjust="spacing" textLength="144" x="461" y="147.0195">:RegisterSkillController</text><polygon fill="#181818" points="516,187.8242,526,191.8242,516,195.8242,520,191.8242" style="stroke:#181818;stroke-width:1.0;"/><line style="stroke:#181818;stroke-width:1.0;" x1="376" x2="522" y1="191.8242" y2="191.8242"/><text fill="#000000" font-family="sans-serif" font-size="13" font-weight="bold" lengthAdjust="spacing" textLength="7" x="383" y="186.5615">3</text><text fill="#000000" font-family="sans-serif" font-size="13" lengthAdjust="spacing" textLength="72" x="394" y="186.5615">getSkillList()</text><polygon fill="#181818" points="653.5,219.1152,663.5,223.1152,653.5,227.1152,657.5,223.1152" style="stroke:#181818;stroke-width:1.0;"/><line style="stroke:#181818;stroke-width:1.0;" x1="538" x2="659.5" y1="223.1152" y2="223.1152"/><text fill="#000000" font-family="sans-serif" font-size="13" font-weight="bold" lengthAdjust="spacing" textLength="7" x="545" y="217.8525">4</text><text fill="#000000" font-family="sans-serif" font-size="13" lengthAdjust="spacing" textLength="75" x="556" y="217.8525">getInstance()</text><polygon fill="#181818" points="549,250.4063,539,254.4063,549,258.4063,545,254.4063" style="stroke:#181818;stroke-width:1.0;"/><line style="stroke:#181818;stroke-width:1.0;stroke-dasharray:2.0,2.0;" x1="543" x2="669.5" y1="254.4063" y2="254.4063"/><text fill="#000000" font-family="sans-serif" font-size="13" font-weight="bold" lengthAdjust="spacing" textLength="7" x="555" y="249.1436">5</text><text fill="#000000" font-family="sans-serif" font-size="13" lengthAdjust="spacing" textLength="67" x="566" y="249.1436">repositories</text><polygon fill="#181818" points="760.5,281.6973,770.5,285.6973,760.5,289.6973,764.5,285.6973" style="stroke:#181818;stroke-width:1.0;"/><line style="stroke:#181818;stroke-width:1.0;" x1="538" x2="766.5" y1="285.6973" y2="285.6973"/><text fill="#000000" font-family="sans-serif" font-size="13" font-weight="bold" lengthAdjust="spacing" textLength="7" x="545" y="280.4346">6</text><text fill="#000000" font-family="sans-serif" font-size="13" lengthAdjust="spacing" textLength="113" x="556" y="280.4346">getSkillRepository()</text><polygon fill="#181818" points="549,312.9883,539,316.9883,549,320.9883,545,316.9883" style="stroke:#181818;stroke-width:1.0;"/><line style="stroke:#181818;stroke-width:1.0;stroke-dasharray:2.0,2.0;" x1="543" x2="776.5" y1="316.9883" y2="316.9883"/><text fill="#000000" font-family="sans-serif" font-size="13" font-weight="bold" lengthAdjust="spacing" textLength="7" x="555" y="311.7256">7</text><text fill="#000000" font-family="sans-serif" font-size="13" lengthAdjust="spacing" textLength="106" x="566" y="311.7256">skillListRepository</text><polygon fill="#181818" points="884.5,344.2793,894.5,348.2793,884.5,352.2793,888.5,348.2793" style="stroke:#181818;stroke-width:1.0;"/><line style="stroke:#181818;stroke-width:1.0;" x1="538" x2="890.5" y1="348.2793" y2="348.2793"/><text fill="#000000" font-family="sans-serif" font-size="13" font-weight="bold" lengthAdjust="spacing" textLength="7" x="545" y="343.0166">8</text><text fill="#000000" font-family="sans-serif" font-size="13" lengthAdjust="spacing" textLength="72" x="556" y="343.0166">getSkillList()</text><polygon fill="#181818" points="549,375.5703,539,379.5703,549,383.5703,545,379.5703" style="stroke:#181818;stroke-width:1.0;"/><line style="stroke:#181818;stroke-width:1.0;stroke-dasharray:2.0,2.0;" x1="543" x2="900.5" y1="379.5703" y2="379.5703"/><text fill="#000000" font-family="sans-serif" font-size="13" font-weight="bold" lengthAdjust="spacing" textLength="7" x="555" y="374.3076">9</text><text fill="#000000" font-family="sans-serif" font-size="13" lengthAdjust="spacing" textLength="44" x="566" y="374.3076">skillList</text><polygon fill="#181818" points="387,406.8613,377,410.8613,387,414.8613,383,410.8613" style="stroke:#181818;stroke-width:1.0;"/><line style="stroke:#181818;stroke-width:1.0;stroke-dasharray:2.0,2.0;" x1="381" x2="532" y1="410.8613" y2="410.8613"/><text fill="#000000" font-family="sans-serif" font-size="13" font-weight="bold" lengthAdjust="spacing" textLength="14" x="393" y="405.5986">10</text><text fill="#000000" font-family="sans-serif" font-size="13" lengthAdjust="spacing" textLength="44" x="411" y="405.5986">skillList</text><polygon fill="#181818" points="112,438.1523,102,442.1523,112,446.1523,108,442.1523" style="stroke:#181818;stroke-width:1.0;"/><line style="stroke:#181818;stroke-width:1.0;stroke-dasharray:2.0,2.0;" x1="106" x2="365" y1="442.1523" y2="442.1523"/><text fill="#000000" font-family="sans-serif" font-size="13" font-weight="bold" lengthAdjust="spacing" textLength="14" x="118" y="436.8896">11</text><text fill="#000000" font-family="sans-serif" font-size="13" lengthAdjust="spacing" textLength="78" x="136" y="436.8896">show skill list</text><polygon fill="#181818" points="112,469.4434,102,473.4434,112,477.4434,108,473.4434" style="stroke:#181818;stroke-width:1.0;"/><line style="stroke:#181818;stroke-width:1.0;stroke-dasharray:2.0,2.0;" x1="106" x2="370" y1="473.4434" y2="473.4434"/><text fill="#000000" font-family="sans-serif" font-size="13" font-weight="bold" lengthAdjust="spacing" textLength="14" x="118" y="468.1807">12</text><text fill="#000000" font-family="sans-serif" font-size="13" lengthAdjust="spacing" textLength="116" x="136" y="468.1807">request data (name)</text><polygon fill="#181818" points="354,500.7344,364,504.7344,354,508.7344,358,504.7344" style="stroke:#181818;stroke-width:1.0;"/><line style="stroke:#181818;stroke-width:1.0;" x1="101" x2="360" y1="504.7344" y2="504.7344"/><text fill="#000000" font-family="sans-serif" font-size="13" font-weight="bold" lengthAdjust="spacing" textLength="14" x="108" y="499.4717">13</text><text fill="#000000" font-family="sans-serif" font-size="13" lengthAdjust="spacing" textLength="166" x="126" y="499.4717">types requested data (name)</text><polygon fill="#181818" points="112,532.0254,102,536.0254,112,540.0254,108,536.0254" style="stroke:#181818;stroke-width:1.0;"/><line style="stroke:#181818;stroke-width:1.0;stroke-dasharray:2.0,2.0;" x1="106" x2="370" y1="536.0254" y2="536.0254"/><text fill="#000000" font-family="sans-serif" font-size="13" font-weight="bold" lengthAdjust="spacing" textLength="14" x="118" y="530.7627">14</text><text fill="#000000" font-family="sans-serif" font-size="13" lengthAdjust="spacing" textLength="163" x="136" y="530.7627">shows requested data typed</text><polygon fill="#181818" points="354,563.3164,364,567.3164,354,571.3164,358,567.3164" style="stroke:#181818;stroke-width:1.0;"/><line style="stroke:#181818;stroke-width:1.0;" x1="101" x2="360" y1="567.3164" y2="567.3164"/><text fill="#000000" font-family="sans-serif" font-size="13" font-weight="bold" lengthAdjust="spacing" textLength="14" x="108" y="562.0537">15</text><text fill="#000000" font-family="sans-serif" font-size="13" lengthAdjust="spacing" textLength="75" x="126" y="562.0537">submits data</text><polygon fill="#181818" points="521,594.6074,531,598.6074,521,602.6074,525,598.6074" style="stroke:#181818;stroke-width:1.0;"/><line style="stroke:#181818;stroke-width:1.0;" x1="376" x2="527" y1="598.6074" y2="598.6074"/><text fill="#000000" font-family="sans-serif" font-size="13" font-weight="bold" lengthAdjust="spacing" textLength="14" x="383" y="593.3447">16</text><text fill="#000000" font-family="sans-serif" font-size="13" lengthAdjust="spacing" textLength="83" x="401" y="593.3447">register(name)</text><polygon fill="#181818" points="653.5,625.8984,663.5,629.8984,653.5,633.8984,657.5,629.8984" style="stroke:#181818;stroke-width:1.0;"/><line style="stroke:#181818;stroke-width:1.0;" x1="543" x2="659.5" y1="629.8984" y2="629.8984"/><text fill="#000000" font-family="sans-serif" font-size="13" font-weight="bold" lengthAdjust="spacing" textLength="14" x="550" y="624.6357">17</text><text fill="#000000" font-family="sans-serif" font-size="13" lengthAdjust="spacing" textLength="75" x="568" y="624.6357">getInstance()</text><polygon fill="#181818" points="554,657.1895,544,661.1895,554,665.1895,550,661.1895" style="stroke:#181818;stroke-width:1.0;"/><line style="stroke:#181818;stroke-width:1.0;stroke-dasharray:2.0,2.0;" x1="548" x2="669.5" y1="661.1895" y2="661.1895"/><text fill="#000000" font-family="sans-serif" font-size="13" font-weight="bold" lengthAdjust="spacing" textLength="14" x="560" y="655.9268">18</text><text fill="#000000" font-family="sans-serif" font-size="13" lengthAdjust="spacing" textLength="67" x="578" y="655.9268">repositories</text><polygon fill="#181818" points="760.5,688.4805,770.5,692.4805,760.5,696.4805,764.5,692.4805" style="stroke:#181818;stroke-width:1.0;"/><line style="stroke:#181818;stroke-width:1.0;" x1="543" x2="766.5" y1="692.4805" y2="692.4805"/><text fill="#000000" font-family="sans-serif" font-size="13" font-weight="bold" lengthAdjust="spacing" textLength="14" x="550" y="687.2178">19</text><text fill="#000000" font-family="sans-serif" font-size="13" lengthAdjust="spacing" textLength="134" x="568" y="687.2178">getSkillListRepository()</text><polygon fill="#181818" points="554,719.7715,544,723.7715,554,727.7715,550,723.7715" style="stroke:#181818;stroke-width:1.0;"/><line style="stroke:#181818;stroke-width:1.0;" x1="548" x2="776.5" y1="723.7715" y2="723.7715"/><text fill="#000000" font-family="sans-serif" font-size="13" font-weight="bold" lengthAdjust="spacing" textLength="14" x="560" y="718.5088">20</text><text fill="#000000" font-family="sans-serif" font-size="13" lengthAdjust="spacing" textLength="108" x="578" y="718.5088">SkillListRepository</text><polygon fill="#181818" points="884.5,751.0625,894.5,755.0625,884.5,759.0625,888.5,755.0625" style="stroke:#181818;stroke-width:1.0;"/><line style="stroke:#181818;stroke-width:1.0;" x1="543" x2="890.5" y1="755.0625" y2="755.0625"/><text fill="#000000" font-family="sans-serif" font-size="13" font-weight="bold" lengthAdjust="spacing" textLength="14" x="550" y="749.7998">21</text><text fill="#000000" font-family="sans-serif" font-size="13" lengthAdjust="spacing" textLength="72" x="568" y="749.7998">getSkillList()</text><polygon fill="#181818" points="554,782.3535,544,786.3535,554,790.3535,550,786.3535" style="stroke:#181818;stroke-width:1.0;"/><line style="stroke:#181818;stroke-width:1.0;stroke-dasharray:2.0,2.0;" x1="548" x2="900.5" y1="786.3535" y2="786.3535"/><text fill="#000000" font-family="sans-serif" font-size="13" font-weight="bold" lengthAdjust="spacing" textLength="14" x="560" y="781.0908">22</text><text fill="#000000" font-family="sans-serif" font-size="13" lengthAdjust="spacing" textLength="44" x="578" y="781.0908">skillList</text><line style="stroke:#181818;stroke-width:1.0;stroke-dasharray:2.0,2.0;" x1="543" x2="585" y1="822.6445" y2="822.6445"/><line style="stroke:#181818;stroke-width:1.0;stroke-dasharray:2.0,2.0;" x1="585" x2="585" y1="822.6445" y2="835.6445"/><line style="stroke:#181818;stroke-width:1.0;stroke-dasharray:2.0,2.0;" x1="538" x2="585" y1="835.6445" y2="835.6445"/><polygon fill="#181818" points="548,831.6445,538,835.6445,548,839.6445,544,835.6445" style="stroke:#181818;stroke-width:1.0;"/><text fill="#000000" font-family="sans-serif" font-size="13" font-weight="bold" lengthAdjust="spacing" textLength="14" x="550" y="817.3818">23</text><text fill="#000000" font-family="sans-serif" font-size="13" lengthAdjust="spacing" textLength="44" x="568" y="817.3818">skillList</text><polygon fill="#181818" points="1595,882.9355,1605,886.9355,1595,890.9355,1599,886.9355" style="stroke:#181818;stroke-width:1.0;"/><line style="stroke:#181818;stroke-width:1.0;" x1="538" x2="1601" y1="886.9355" y2="886.9355"/><text fill="#000000" font-family="sans-serif" font-size="13" font-weight="bold" lengthAdjust="spacing" textLength="14" x="545" y="881.6729">24</text><text fill="#000000" font-family="sans-serif" font-size="13" lengthAdjust="spacing" textLength="108" x="563" y="881.6729">registerSkill(name)</text><polygon fill="#181818" points="1755,914.2266,1765,918.2266,1755,922.2266,1759,918.2266" style="stroke:#181818;stroke-width:1.0;"/><line style="stroke:#181818;stroke-width:1.0;" x1="1617" x2="1761" y1="918.2266" y2="918.2266"/><text fill="#000000" font-family="sans-serif" font-size="13" font-weight="bold" lengthAdjust="spacing" textLength="14" x="1624" y="912.9639">25</text><text fill="#000000" font-family="sans-serif" font-size="13" lengthAdjust="spacing" textLength="108" x="1642" y="912.9639">registerSkill(name)</text><rect fill="#E3E3E3" height="51.2422" rx="2.5" ry="2.5" style="stroke:#181818;stroke-width:0.5;" width="43" x="1767" y="894.9355"/><text fill="#000000" font-family="sans-serif" font-size="14" lengthAdjust="spacing" textLength="23" x="1777" y="917.043">skill</text><text fill="#000000" font-family="sans-serif" font-size="14" lengthAdjust="spacing" textLength="29" x="1774" y="935.6641">:Skill</text><line style="stroke:#181818;stroke-width:1.0;stroke-dasharray:2.0,2.0;" x1="1793.5" x2="1835.5" y1="980.4688" y2="980.4688"/><line style="stroke:#181818;stroke-width:1.0;stroke-dasharray:2.0,2.0;" x1="1835.5" x2="1835.5" y1="980.4688" y2="993.4688"/><line style="stroke:#181818;stroke-width:1.0;stroke-dasharray:2.0,2.0;" x1="1794.5" x2="1835.5" y1="993.4688" y2="993.4688"/><polygon fill="#181818" points="1804.5,989.4688,1794.5,993.4688,1804.5,997.4688,1800.5,993.4688" style="stroke:#181818;stroke-width:1.0;"/><text fill="#000000" font-family="sans-serif" font-size="13" font-weight="bold" lengthAdjust="spacing" textLength="14" x="1800.5" y="975.2061">26</text><text fill="#000000" font-family="sans-serif" font-size="13" lengthAdjust="spacing" textLength="133" x="1818.5" y="975.2061">validateNameSkill(skill)</text><path d="M1757,1008.4688 L1830,1008.4688 L1830,1017.7598 L1820,1027.7598 L1757,1027.7598 L1757,1008.4688 " fill="#EEEEEE" style="stroke:#000000;stroke-width:1.5;"/><rect fill="none" height="107.873" style="stroke:#000000;stroke-width:1.5;" width="211.5" x="1757" y="1008.4688"/><text fill="#000000" font-family="sans-serif" font-size="13" font-weight="bold" lengthAdjust="spacing" textLength="28" x="1772" y="1023.4971">loop</text><text fill="#000000" font-family="sans-serif" font-size="11" font-weight="bold" lengthAdjust="spacing" textLength="117" x="1845" y="1022.3389">[[for each skill name]</text><line style="stroke:#181818;stroke-width:1.0;" x1="1793.5" x2="1840.5" y1="1046.0508" y2="1046.0508"/><line style="stroke:#181818;stroke-width:1.0;" x1="1840.5" x2="1840.5" y1="1046.0508" y2="1059.0508"/><line style="stroke:#181818;stroke-width:1.0;" x1="1799.5" x2="1840.5" y1="1059.0508" y2="1059.0508"/><polygon fill="#181818" points="1809.5,1055.0508,1799.5,1059.0508,1809.5,1063.0508,1805.5,1059.0508" style="stroke:#181818;stroke-width:1.0;"/><text fill="#000000" font-family="sans-serif" font-size="13" font-weight="bold" lengthAdjust="spacing" textLength="14" x="1805.5" y="1040.7881">27</text><text fill="#000000" font-family="sans-serif" font-size="13" lengthAdjust="spacing" textLength="133" x="1823.5" y="1040.7881">validateNameSkill(skill)</text><line style="stroke:#181818;stroke-width:1.0;stroke-dasharray:2.0,2.0;" x1="1798.5" x2="1840.5" y1="1100.3418" y2="1100.3418"/><line style="stroke:#181818;stroke-width:1.0;stroke-dasharray:2.0,2.0;" x1="1840.5" x2="1840.5" y1="1100.3418" y2="1113.3418"/><line style="stroke:#181818;stroke-width:1.0;stroke-dasharray:2.0,2.0;" x1="1793.5" x2="1840.5" y1="1113.3418" y2="1113.3418"/><polygon fill="#181818" points="1803.5,1109.3418,1793.5,1113.3418,1803.5,1117.3418,1799.5,1113.3418" style="stroke:#181818;stroke-width:1.0;"/><text fill="#000000" font-family="sans-serif" font-size="13" font-weight="bold" lengthAdjust="spacing" textLength="14" x="1805.5" y="1095.0791">28</text><text fill="#000000" font-family="sans-serif" font-size="13" lengthAdjust="spacing" textLength="53" x="1823.5" y="1095.0791">true/false</text><polygon fill="#181818" points="1628,1142.6328,1618,1146.6328,1628,1150.6328,1624,1146.6328" style="stroke:#181818;stroke-width:1.0;"/><line style="stroke:#181818;stroke-width:1.0;stroke-dasharray:2.0,2.0;" x1="1622" x2="1787.5" y1="1146.6328" y2="1146.6328"/><text fill="#000000" font-family="sans-serif" font-size="13" font-weight="bold" lengthAdjust="spacing" textLength="14" x="1634" y="1141.3701">29</text><text fill="#000000" font-family="sans-serif" font-size="13" lengthAdjust="spacing" textLength="23" x="1652" y="1141.3701">skill</text><line style="stroke:#181818;stroke-width:1.0;" x1="1617" x2="1664" y1="1172.9238" y2="1172.9238"/><line style="stroke:#181818;stroke-width:1.0;" x1="1664" x2="1664" y1="1172.9238" y2="1185.9238"/><line style="stroke:#181818;stroke-width:1.0;" x1="1623" x2="1664" y1="1185.9238" y2="1185.9238"/><polygon fill="#181818" points="1633,1181.9238,1623,1185.9238,1633,1189.9238,1629,1185.9238" style="stroke:#181818;stroke-width:1.0;"/><text fill="#000000" font-family="sans-serif" font-size="13" font-weight="bold" lengthAdjust="spacing" textLength="14" x="1629" y="1167.6611">30</text><text fill="#000000" font-family="sans-serif" font-size="13" lengthAdjust="spacing" textLength="77" x="1647" y="1167.6611">addSkill(skill)</text><line style="stroke:#181818;stroke-width:1.0;" x1="1622" x2="1669" y1="1217.2148" y2="1217.2148"/><line style="stroke:#181818;stroke-width:1.0;" x1="1669" x2="1669" y1="1217.2148" y2="1230.2148"/><line style="stroke:#181818;stroke-width:1.0;" x1="1628" x2="1669" y1="1230.2148" y2="1230.2148"/><polygon fill="#181818" points="1638,1226.2148,1628,1230.2148,1638,1234.2148,1634,1230.2148" style="stroke:#181818;stroke-width:1.0;"/><text fill="#000000" font-family="sans-serif" font-size="13" font-weight="bold" lengthAdjust="spacing" textLength="14" x="1634" y="1211.9521">31</text><text fill="#000000" font-family="sans-serif" font-size="13" lengthAdjust="spacing" textLength="99" x="1652" y="1211.9521">validateSkill(skill)</text><line style="stroke:#181818;stroke-width:1.0;stroke-dasharray:2.0,2.0;" x1="1627" x2="1669" y1="1271.5059" y2="1271.5059"/><line style="stroke:#181818;stroke-width:1.0;stroke-dasharray:2.0,2.0;" x1="1669" x2="1669" y1="1271.5059" y2="1284.5059"/><line style="stroke:#181818;stroke-width:1.0;stroke-dasharray:2.0,2.0;" x1="1622" x2="1669" y1="1284.5059" y2="1284.5059"/><polygon fill="#181818" points="1632,1280.5059,1622,1284.5059,1632,1288.5059,1628,1284.5059" style="stroke:#181818;stroke-width:1.0;"/><text fill="#000000" font-family="sans-serif" font-size="13" font-weight="bold" lengthAdjust="spacing" textLength="14" x="1634" y="1266.2432">32</text><text fill="#000000" font-family="sans-serif" font-size="13" lengthAdjust="spacing" textLength="4" x="1652" y="1266.2432">&#160;</text><line style="stroke:#181818;stroke-width:1.0;stroke-dasharray:2.0,2.0;" x1="1622" x2="1664" y1="1315.7969" y2="1315.7969"/><line style="stroke:#181818;stroke-width:1.0;stroke-dasharray:2.0,2.0;" x1="1664" x2="1664" y1="1315.7969" y2="1328.7969"/><line style="stroke:#181818;stroke-width:1.0;stroke-dasharray:2.0,2.0;" x1="1617" x2="1664" y1="1328.7969" y2="1328.7969"/><polygon fill="#181818" points="1627,1324.7969,1617,1328.7969,1627,1332.7969,1623,1328.7969" style="stroke:#181818;stroke-width:1.0;"/><text fill="#000000" font-family="sans-serif" font-size="13" font-weight="bold" lengthAdjust="spacing" textLength="14" x="1629" y="1310.5342">33</text><text fill="#000000" font-family="sans-serif" font-size="13" lengthAdjust="spacing" textLength="4" x="1647" y="1310.5342">&#160;</text><polygon fill="#181818" points="549,1351.0879,539,1355.0879,549,1359.0879,545,1355.0879" style="stroke:#181818;stroke-width:1.0;"/><line style="stroke:#181818;stroke-width:1.0;stroke-dasharray:2.0,2.0;" x1="543" x2="1611" y1="1355.0879" y2="1355.0879"/><text fill="#000000" font-family="sans-serif" font-size="13" font-weight="bold" lengthAdjust="spacing" textLength="14" x="555" y="1349.8252">34</text><text fill="#000000" font-family="sans-serif" font-size="13" lengthAdjust="spacing" textLength="23" x="573" y="1349.8252">skill</text><polygon fill="#181818" points="387,1382.3789,377,1386.3789,387,1390.3789,383,1386.3789" style="stroke:#181818;stroke-width:1.0;"/><line style="stroke:#181818;stroke-width:1.0;stroke-dasharray:2.0,2.0;" x1="381" x2="532" y1="1386.3789" y2="1386.3789"/><text fill="#000000" font-family="sans-serif" font-size="13" font-weight="bold" lengthAdjust="spacing" textLength="14" x="393" y="1381.1162">35</text><text fill="#000000" font-family="sans-serif" font-size="13" lengthAdjust="spacing" textLength="23" x="411" y="1381.1162">skill</text><polygon fill="#181818" points="107,1413.6699,97,1417.6699,107,1421.6699,103,1417.6699" style="stroke:#181818;stroke-width:1.0;"/><line style="stroke:#181818;stroke-width:1.0;stroke-dasharray:2.0,2.0;" x1="101" x2="370" y1="1417.6699" y2="1417.6699"/><text fill="#000000" font-family="sans-serif" font-size="13" font-weight="bold" lengthAdjust="spacing" textLength="14" x="113" y="1412.4072">36</text><text fill="#000000" font-family="sans-serif" font-size="13" lengthAdjust="spacing" textLength="223" x="131" y="1412.4072">Confirms the success of the operation.</text><!--SRC=[fLTDJzmm4BtxLrXS2aYqzprKMY44I51M6pYrKcMIsLrh4pkr7IWLFxvZvpknird81R1dtdpupSFMUovofbX6Cobal5Co0sfK0KGtEpcBzsmBaNbBWIg83HFRj6kWTooHhrniwOQb6WXXXP6Yo9v14V9bnnEW6odDi_nBM6oaeYStHSO4NOEMXOf1qticC88weKpJc_KzGLp3OvupOUZ9OWrRhWseQC_JzEdMMJtTJXbTIc6KJDCAyl9nVJSopwNcc0m7xMoQXRU8s_gmWhwBwdZy4cE0rTtoiU-XRIftc5MBZOwULUVlrjkrGRxBF4zvp0oN8WAjyOTp-hrShVgMBCyh0umLy1evnOLI84ph-AInansFw2gAbWzz9wcsJF1_3htDU_5BF7Wt78v_AuoBgNHTIeprjQVFQEcEtfbStQ_MLzSFnFADlp03ZbM4LX_-GI- -8uVe0gttcXg9n2xvGnaLy5gUHklHu23lcaNx8GOYMOATdoDQZH8oGfCjcAYcmEbPpww9uWZRsxAV0q0W3rLBt5kXSJXZ6C3se7qy7rdRpnVbeYh35jhIV-IUm77XwiBi27KwrFfE5UJcpbk1WsjJzWpULEP-t3hLmRHEdsilt-6SUrCVmb-q_6dAc4h-O92oZde8_9WTl9AGP4nhHB3JX10xMKqDJOT0FKC5VmhGXYRCC7egM0PjipeHxQ2HuR2Qjnp_MrG8a8mml6CwIdE4O66JK18-qT35SyQDTjx-2MxIzsf0BHE3ycTem87jpyh4nwJYatBn4ScOa8t-Y1ygCYmVhOGqvnRDa91PCl8fAJbUJZuiAGTa9HIhKPTZDClFwFVtzw08uqsWdINNCSz0zRfbxmxUh7738bONX_DpF-xqKTItZb1NgdtNcFht1NrXAKSTWHyOeOpbkdKMFibKofp-tE156fktgqJN9XZqwCIU5PfEVADo9wqd2hVFZ6_bYs7AkSEGGmq6aP1PtRUdNR6Ip8mvIHj7H9Oa_VERPekbOYZNBcnzIBCEQ1Pw4w4CGMPqFZWtSx3cuDGONS4Wv5YapgqcTBn3mHdkjxU51SLdv8Qh3Dy7EzI-8iQdggPou_wKEIZt9laQk3WCLkm3v3y0]--></g></svg>