<?xml version="1.0" encoding="us-ascii" standalone="no"?><svg xmlns="http://www.w3.org/2000/svg" xmlns:xlink="http://www.w3.org/1999/xlink" contentStyleType="text/css" height="815px" preserveAspectRatio="none" style="width:1153px;height:815px;background:#FFFFFF;" version="1.1" viewBox="0 0 1153 815" width="1153px" zoomAndPan="magnify"><defs/><g><rect fill="#FFFFFF" height="629.2285" style="stroke:#181818;stroke-width:1.0;" width="10" x="106" y="93.6211"/><rect fill="#FFFFFF" height="101.2031" style="stroke:#181818;stroke-width:1.0;" width="10" x="400" y="116.9121"/><rect fill="#FFFFFF" height="31.291" style="stroke:#181818;stroke-width:1.0;" width="10" x="400" y="249.4063"/><rect fill="#FFFFFF" height="410.8613" style="stroke:#181818;stroke-width:1.0;" width="10" x="400" y="311.9883"/><rect fill="#FFFFFF" height="31.291" style="stroke:#181818;stroke-width:1.0;" width="10" x="573" y="343.2793"/><rect fill="#FFFFFF" height="31.291" style="stroke:#181818;stroke-width:1.0;" width="10" x="573" y="645.2676"/><rect fill="#FFFFFF" height="270.6973" style="stroke:#181818;stroke-width:1.0;" width="10" x="930.5" y="374.5703"/><rect fill="#FFFFFF" height="130.873" style="stroke:#181818;stroke-width:1.0;" width="10" x="935.5" y="476.1035"/><rect fill="#FFFFFF" height="42.291" style="stroke:#181818;stroke-width:1.0;" width="10" x="940.5" y="520.3945"/><rect fill="none" height="540.3164" style="stroke:#000000;stroke-width:1.5;" width="1137" x="10" y="175.5332"/><line style="stroke:#181818;stroke-width:0.5;stroke-dasharray:5.0,5.0;" x1="111" x2="111" y1="83.6211" y2="732.8496"/><line style="stroke:#181818;stroke-width:0.5;stroke-dasharray:5.0,5.0;" x1="405" x2="405" y1="83.6211" y2="732.8496"/><line style="stroke:#181818;stroke-width:0.5;stroke-dasharray:5.0,5.0;" x1="578" x2="578" y1="156.7227" y2="732.8496"/><line style="stroke:#181818;stroke-width:0.5;stroke-dasharray:5.0,5.0;" x1="715" x2="715" y1="83.6211" y2="732.8496"/><line style="stroke:#181818;stroke-width:0.5;stroke-dasharray:5.0,5.0;" x1="822" x2="822" y1="83.6211" y2="732.8496"/><line style="stroke:#181818;stroke-width:0.5;stroke-dasharray:5.0,5.0;" x1="935" x2="935" y1="83.6211" y2="732.8496"/><line style="stroke:#181818;stroke-width:0.5;stroke-dasharray:5.0,5.0;" x1="1115" x2="1115" y1="423.6914" y2="732.8496"/><text fill="#000000" font-family="sans-serif" font-size="14" lengthAdjust="spacing" textLength="176" x="20" y="80.1074">Human Resources Manager</text><ellipse cx="111" cy="13.5" fill="#E3E3E3" rx="8" ry="8" style="stroke:#181818;stroke-width:0.5;"/><path d="M111,21.5 L111,48.5 M98,29.5 L124,29.5 M111,48.5 L98,63.5 M111,48.5 L124,63.5 " fill="none" style="stroke:#181818;stroke-width:0.5;"/><text fill="#000000" font-family="sans-serif" font-size="14" lengthAdjust="spacing" textLength="176" x="20" y="746.957">Human Resources Manager</text><ellipse cx="111" cy="758.9707" fill="#E3E3E3" rx="8" ry="8" style="stroke:#181818;stroke-width:0.5;"/><path d="M111,766.9707 L111,793.9707 M98,774.9707 L124,774.9707 M111,793.9707 L98,808.9707 M111,793.9707 L124,808.9707 " fill="none" style="stroke:#181818;stroke-width:0.5;"/><rect fill="#E3E3E3" height="32.6211" rx="2.5" ry="2.5" style="stroke:#181818;stroke-width:0.5;" width="108" x="351" y="50"/><text fill="#000000" font-family="sans-serif" font-size="14" lengthAdjust="spacing" textLength="94" x="358" y="72.1074">:RegisterSkillUI</text><rect fill="#E3E3E3" height="32.6211" rx="2.5" ry="2.5" style="stroke:#181818;stroke-width:0.5;" width="108" x="351" y="731.8496"/><text fill="#000000" font-family="sans-serif" font-size="14" lengthAdjust="spacing" textLength="94" x="358" y="753.957">:RegisterSkillUI</text><rect fill="#E3E3E3" height="32.6211" rx="2.5" ry="2.5" style="stroke:#181818;stroke-width:0.5;" width="158" x="499" y="731.8496"/><text fill="#000000" font-family="sans-serif" font-size="14" lengthAdjust="spacing" textLength="144" x="506" y="753.957">:RegisterSkillController</text><rect fill="#E3E3E3" height="32.6211" rx="2.5" ry="2.5" style="stroke:#181818;stroke-width:0.5;" width="97" x="667" y="50"/><text fill="#000000" font-family="sans-serif" font-size="14" lengthAdjust="spacing" textLength="83" x="674" y="72.1074">:Repositories</text><rect fill="#E3E3E3" height="32.6211" rx="2.5" ry="2.5" style="stroke:#181818;stroke-width:0.5;" width="97" x="667" y="731.8496"/><text fill="#000000" font-family="sans-serif" font-size="14" lengthAdjust="spacing" textLength="83" x="674" y="753.957">:Repositories</text><rect fill="#E3E3E3" height="51.2422" rx="2.5" ry="2.5" style="stroke:#181818;stroke-width:0.5;" width="97" x="774" y="31.3789"/><text fill="#000000" font-family="sans-serif" font-size="14" lengthAdjust="spacing" textLength="74" x="785.5" y="53.4863">repositories</text><text fill="#000000" font-family="sans-serif" font-size="14" lengthAdjust="spacing" textLength="83" x="781" y="72.1074">:Repositories</text><rect fill="#E3E3E3" height="51.2422" rx="2.5" ry="2.5" style="stroke:#181818;stroke-width:0.5;" width="97" x="774" y="731.8496"/><text fill="#000000" font-family="sans-serif" font-size="14" lengthAdjust="spacing" textLength="74" x="785.5" y="753.957">repositories</text><text fill="#000000" font-family="sans-serif" font-size="14" lengthAdjust="spacing" textLength="83" x="781" y="772.5781">:Repositories</text><rect fill="#E3E3E3" height="51.2422" rx="2.5" ry="2.5" style="stroke:#181818;stroke-width:0.5;" width="109" x="881" y="31.3789"/><text fill="#000000" font-family="sans-serif" font-size="14" lengthAdjust="spacing" textLength="91" x="890" y="53.4863">skillRepository</text><text fill="#000000" font-family="sans-serif" font-size="14" lengthAdjust="spacing" textLength="95" x="888" y="72.1074">:skillRepository</text><rect fill="#E3E3E3" height="51.2422" rx="2.5" ry="2.5" style="stroke:#181818;stroke-width:0.5;" width="109" x="881" y="731.8496"/><text fill="#000000" font-family="sans-serif" font-size="14" lengthAdjust="spacing" textLength="91" x="890" y="753.957">skillRepository</text><text fill="#000000" font-family="sans-serif" font-size="14" lengthAdjust="spacing" textLength="95" x="888" y="772.5781">:skillRepository</text><rect fill="#E3E3E3" height="51.2422" rx="2.5" ry="2.5" style="stroke:#181818;stroke-width:0.5;" width="43" x="1094" y="731.8496"/><text fill="#000000" font-family="sans-serif" font-size="14" lengthAdjust="spacing" textLength="23" x="1104" y="753.957">skill</text><text fill="#000000" font-family="sans-serif" font-size="14" lengthAdjust="spacing" textLength="29" x="1101" y="772.5781">:Skill</text><rect fill="#FFFFFF" height="629.2285" style="stroke:#181818;stroke-width:1.0;" width="10" x="106" y="93.6211"/><rect fill="#FFFFFF" height="101.2031" style="stroke:#181818;stroke-width:1.0;" width="10" x="400" y="116.9121"/><rect fill="#FFFFFF" height="31.291" style="stroke:#181818;stroke-width:1.0;" width="10" x="400" y="249.4063"/><rect fill="#FFFFFF" height="410.8613" style="stroke:#181818;stroke-width:1.0;" width="10" x="400" y="311.9883"/><rect fill="#FFFFFF" height="31.291" style="stroke:#181818;stroke-width:1.0;" width="10" x="573" y="343.2793"/><rect fill="#FFFFFF" height="31.291" style="stroke:#181818;stroke-width:1.0;" width="10" x="573" y="645.2676"/><rect fill="#FFFFFF" height="270.6973" style="stroke:#181818;stroke-width:1.0;" width="10" x="930.5" y="374.5703"/><rect fill="#FFFFFF" height="130.873" style="stroke:#181818;stroke-width:1.0;" width="10" x="935.5" y="476.1035"/><rect fill="#FFFFFF" height="42.291" style="stroke:#181818;stroke-width:1.0;" width="10" x="940.5" y="520.3945"/><polygon fill="#181818" points="388,112.9121,398,116.9121,388,120.9121,392,116.9121" style="stroke:#181818;stroke-width:1.0;"/><line style="stroke:#181818;stroke-width:1.0;" x1="116" x2="394" y1="116.9121" y2="116.9121"/><text fill="#000000" font-family="sans-serif" font-size="13" font-weight="bold" lengthAdjust="spacing" textLength="7" x="123" y="111.6494">1</text><text fill="#000000" font-family="sans-serif" font-size="13" lengthAdjust="spacing" textLength="155" x="134" y="111.6494">asks to register a new skill</text><polygon fill="#181818" points="487,144.2031,497,148.2031,487,152.2031,491,148.2031" style="stroke:#181818;stroke-width:1.0;"/><line style="stroke:#181818;stroke-width:1.0;" x1="410" x2="493" y1="148.2031" y2="148.2031"/><text fill="#000000" font-family="sans-serif" font-size="13" font-weight="bold" lengthAdjust="spacing" textLength="7" x="417" y="142.9404">2</text><text fill="#000000" font-family="sans-serif" font-size="13" lengthAdjust="spacing" textLength="36" x="428" y="142.9404">create</text><rect fill="#E3E3E3" height="32.6211" rx="2.5" ry="2.5" style="stroke:#181818;stroke-width:0.5;" width="158" x="499" y="124.9121"/><text fill="#000000" font-family="sans-serif" font-size="14" lengthAdjust="spacing" textLength="144" x="506" y="147.0195">:RegisterSkillController</text><path d="M10,175.5332 L83,175.5332 L83,184.8242 L73,194.8242 L10,194.8242 L10,175.5332 " fill="#EEEEEE" style="stroke:#000000;stroke-width:1.5;"/><rect fill="none" height="540.3164" style="stroke:#000000;stroke-width:1.5;" width="1137" x="10" y="175.5332"/><text fill="#000000" font-family="sans-serif" font-size="13" font-weight="bold" lengthAdjust="spacing" textLength="28" x="25" y="190.5615">loop</text><text fill="#000000" font-family="sans-serif" font-size="11" font-weight="bold" lengthAdjust="spacing" textLength="84" x="98" y="189.4033">[for every skill]</text><polygon fill="#181818" points="127,214.1152,117,218.1152,127,222.1152,123,218.1152" style="stroke:#181818;stroke-width:1.0;"/><line style="stroke:#181818;stroke-width:1.0;stroke-dasharray:2.0,2.0;" x1="121" x2="404" y1="218.1152" y2="218.1152"/><text fill="#000000" font-family="sans-serif" font-size="13" font-weight="bold" lengthAdjust="spacing" textLength="7" x="133" y="212.8525">3</text><text fill="#000000" font-family="sans-serif" font-size="13" lengthAdjust="spacing" textLength="141" x="144" y="212.8525">request data (skillName)</text><polygon fill="#181818" points="388,245.4063,398,249.4063,388,253.4063,392,249.4063" style="stroke:#181818;stroke-width:1.0;"/><line style="stroke:#181818;stroke-width:1.0;" x1="116" x2="394" y1="249.4063" y2="249.4063"/><text fill="#000000" font-family="sans-serif" font-size="13" font-weight="bold" lengthAdjust="spacing" textLength="7" x="123" y="244.1436">4</text><text fill="#000000" font-family="sans-serif" font-size="13" lengthAdjust="spacing" textLength="191" x="134" y="244.1436">types requested data (skillName)</text><polygon fill="#181818" points="127,276.6973,117,280.6973,127,284.6973,123,280.6973" style="stroke:#181818;stroke-width:1.0;"/><line style="stroke:#181818;stroke-width:1.0;stroke-dasharray:2.0,2.0;" x1="121" x2="404" y1="280.6973" y2="280.6973"/><text fill="#000000" font-family="sans-serif" font-size="13" font-weight="bold" lengthAdjust="spacing" textLength="7" x="133" y="275.4346">5</text><text fill="#000000" font-family="sans-serif" font-size="13" lengthAdjust="spacing" textLength="163" x="144" y="275.4346">shows requested data typed</text><polygon fill="#181818" points="388,307.9883,398,311.9883,388,315.9883,392,311.9883" style="stroke:#181818;stroke-width:1.0;"/><line style="stroke:#181818;stroke-width:1.0;" x1="116" x2="394" y1="311.9883" y2="311.9883"/><text fill="#000000" font-family="sans-serif" font-size="13" font-weight="bold" lengthAdjust="spacing" textLength="7" x="123" y="306.7256">6</text><text fill="#000000" font-family="sans-serif" font-size="13" lengthAdjust="spacing" textLength="75" x="134" y="306.7256">submits data</text><polygon fill="#181818" points="561,339.2793,571,343.2793,561,347.2793,565,343.2793" style="stroke:#181818;stroke-width:1.0;"/><line style="stroke:#181818;stroke-width:1.0;" x1="410" x2="567" y1="343.2793" y2="343.2793"/><text fill="#000000" font-family="sans-serif" font-size="13" font-weight="bold" lengthAdjust="spacing" textLength="7" x="417" y="338.0166">7</text><text fill="#000000" font-family="sans-serif" font-size="13" lengthAdjust="spacing" textLength="133" x="428" y="338.0166">registerSkill(skillName)</text><polygon fill="#181818" points="918.5,370.5703,928.5,374.5703,918.5,378.5703,922.5,374.5703" style="stroke:#181818;stroke-width:1.0;"/><line style="stroke:#181818;stroke-width:1.0;" x1="578" x2="924.5" y1="374.5703" y2="374.5703"/><text fill="#000000" font-family="sans-serif" font-size="13" font-weight="bold" lengthAdjust="spacing" textLength="7" x="585" y="369.3076">8</text><text fill="#000000" font-family="sans-serif" font-size="13" lengthAdjust="spacing" textLength="133" x="596" y="369.3076">registerSkill(skillName)</text><polygon fill="#181818" points="1082,401.8613,1092,405.8613,1082,409.8613,1086,405.8613" style="stroke:#181818;stroke-width:1.0;"/><line style="stroke:#181818;stroke-width:1.0;" x1="940.5" x2="1088" y1="405.8613" y2="405.8613"/><text fill="#000000" font-family="sans-serif" font-size="13" font-weight="bold" lengthAdjust="spacing" textLength="7" x="947.5" y="400.5986">9</text><text fill="#000000" font-family="sans-serif" font-size="13" lengthAdjust="spacing" textLength="108" x="958.5" y="400.5986">register(skillName)</text><rect fill="#E3E3E3" height="51.2422" rx="2.5" ry="2.5" style="stroke:#181818;stroke-width:0.5;" width="43" x="1094" y="382.5703"/><text fill="#000000" font-family="sans-serif" font-size="14" lengthAdjust="spacing" textLength="23" x="1104" y="404.6777">skill</text><text fill="#000000" font-family="sans-serif" font-size="14" lengthAdjust="spacing" textLength="29" x="1101" y="423.2988">:Skill</text><line style="stroke:#181818;stroke-width:1.0;" x1="940.5" x2="987.5" y1="463.1035" y2="463.1035"/><line style="stroke:#181818;stroke-width:1.0;" x1="987.5" x2="987.5" y1="463.1035" y2="476.1035"/><line style="stroke:#181818;stroke-width:1.0;" x1="946.5" x2="987.5" y1="476.1035" y2="476.1035"/><polygon fill="#181818" points="956.5,472.1035,946.5,476.1035,956.5,480.1035,952.5,476.1035" style="stroke:#181818;stroke-width:1.0;"/><text fill="#000000" font-family="sans-serif" font-size="13" font-weight="bold" lengthAdjust="spacing" textLength="14" x="952.5" y="457.8408">10</text><text fill="#000000" font-family="sans-serif" font-size="13" lengthAdjust="spacing" textLength="111" x="970.5" y="457.8408">addSkill(skillName)</text><line style="stroke:#181818;stroke-width:1.0;" x1="945.5" x2="992.5" y1="507.3945" y2="507.3945"/><line style="stroke:#181818;stroke-width:1.0;" x1="992.5" x2="992.5" y1="507.3945" y2="520.3945"/><line style="stroke:#181818;stroke-width:1.0;" x1="951.5" x2="992.5" y1="520.3945" y2="520.3945"/><polygon fill="#181818" points="961.5,516.3945,951.5,520.3945,961.5,524.3945,957.5,520.3945" style="stroke:#181818;stroke-width:1.0;"/><text fill="#000000" font-family="sans-serif" font-size="13" font-weight="bold" lengthAdjust="spacing" textLength="14" x="957.5" y="502.1318">11</text><text fill="#000000" font-family="sans-serif" font-size="13" lengthAdjust="spacing" textLength="133" x="975.5" y="502.1318">validateSkill(skillName)</text><line style="stroke:#181818;stroke-width:1.0;stroke-dasharray:2.0,2.0;" x1="950.5" x2="992.5" y1="561.6855" y2="561.6855"/><line style="stroke:#181818;stroke-width:1.0;stroke-dasharray:2.0,2.0;" x1="992.5" x2="992.5" y1="561.6855" y2="574.6855"/><line style="stroke:#181818;stroke-width:1.0;stroke-dasharray:2.0,2.0;" x1="945.5" x2="992.5" y1="574.6855" y2="574.6855"/><polygon fill="#181818" points="955.5,570.6855,945.5,574.6855,955.5,578.6855,951.5,574.6855" style="stroke:#181818;stroke-width:1.0;"/><text fill="#000000" font-family="sans-serif" font-size="13" font-weight="bold" lengthAdjust="spacing" textLength="14" x="957.5" y="556.4229">12</text><text fill="#000000" font-family="sans-serif" font-size="13" lengthAdjust="spacing" textLength="4" x="975.5" y="556.4229">&#160;</text><line style="stroke:#181818;stroke-width:1.0;stroke-dasharray:2.0,2.0;" x1="945.5" x2="987.5" y1="605.9766" y2="605.9766"/><line style="stroke:#181818;stroke-width:1.0;stroke-dasharray:2.0,2.0;" x1="987.5" x2="987.5" y1="605.9766" y2="618.9766"/><line style="stroke:#181818;stroke-width:1.0;stroke-dasharray:2.0,2.0;" x1="940.5" x2="987.5" y1="618.9766" y2="618.9766"/><polygon fill="#181818" points="950.5,614.9766,940.5,618.9766,950.5,622.9766,946.5,618.9766" style="stroke:#181818;stroke-width:1.0;"/><text fill="#000000" font-family="sans-serif" font-size="13" font-weight="bold" lengthAdjust="spacing" textLength="14" x="952.5" y="600.7139">13</text><text fill="#000000" font-family="sans-serif" font-size="13" lengthAdjust="spacing" textLength="4" x="970.5" y="600.7139">&#160;</text><polygon fill="#181818" points="594,641.2676,584,645.2676,594,649.2676,590,645.2676" style="stroke:#181818;stroke-width:1.0;"/><line style="stroke:#181818;stroke-width:1.0;stroke-dasharray:2.0,2.0;" x1="588" x2="934.5" y1="645.2676" y2="645.2676"/><text fill="#000000" font-family="sans-serif" font-size="13" font-weight="bold" lengthAdjust="spacing" textLength="14" x="600" y="640.0049">14</text><text fill="#000000" font-family="sans-serif" font-size="13" lengthAdjust="spacing" textLength="23" x="618" y="640.0049">skill</text><polygon fill="#181818" points="421,672.5586,411,676.5586,421,680.5586,417,676.5586" style="stroke:#181818;stroke-width:1.0;"/><line style="stroke:#181818;stroke-width:1.0;stroke-dasharray:2.0,2.0;" x1="415" x2="577" y1="676.5586" y2="676.5586"/><text fill="#000000" font-family="sans-serif" font-size="13" font-weight="bold" lengthAdjust="spacing" textLength="14" x="427" y="671.2959">15</text><text fill="#000000" font-family="sans-serif" font-size="13" lengthAdjust="spacing" textLength="23" x="445" y="671.2959">skill</text><polygon fill="#181818" points="127,703.8496,117,707.8496,127,711.8496,123,707.8496" style="stroke:#181818;stroke-width:1.0;"/><line style="stroke:#181818;stroke-width:1.0;stroke-dasharray:2.0,2.0;" x1="121" x2="399" y1="707.8496" y2="707.8496"/><text fill="#000000" font-family="sans-serif" font-size="13" font-weight="bold" lengthAdjust="spacing" textLength="14" x="133" y="702.5869">16</text><text fill="#000000" font-family="sans-serif" font-size="13" lengthAdjust="spacing" textLength="242" x="151" y="702.5869">displays the (un)success of the operation.</text><!--SRC=[lLPDZzem4BtxLupsie14Vm27bQhLgei4xGfsRxsOP02Bn4vjXot_lcC3-NH2jglMjpWpRzwRBzaSXCouvYcaIgfehrMAO7MEp1H_CXuT-0xNzfGWQ8mibxkaQc3sF5RlGkvWonE3ZF7SAfcd6zICtUz5ZB1LocxKRyOZgpJSFUSfbx12et8TeO4bbnH1tm4tyBnQCiAr8X8PbnRkPYlS2MDHhmyYITxctkfjtcVqgAJLAaaka8-lgqNBF5D641c1njiK5wUrSFf8GTr5Lpn-oZR0o-BhQzt3E2ebBZarRhnVuou0GOvUbJT_MhwidhxzO2wLuiWj-eGnk1pwWEa3fGTcP7qmO1NLx9mQu23n_Homz2XmAAN5fJk4GKWkTvC9eKKQoOeA6hOXYnrQptD1qKRZkc4HnTVYllxJ7Oz1M84wdA7dqb3dHTX4hg67gXW8vaueqFGYPWRLQhVzO_nenAiyroMLL9NUlR9yRtNey8WbSNEjGAMb-lXtGLy9DzhpHfbhh9kTtI6W6M5QTbGXfbV2W3XdDTV1w82jGFekRRSw0RW18uIzkWmI90udKIgZ9QS1ZqWIpYFMwQtnLux6GimjXv4t_ivJ7BC04pULh3dPzfJHrhp0O1m62WvsIqKBnc77NKn2QyRacrHOuxrPi14A3S6reQkREvIDzlwee_Mqwq3qKFK7jtM0JQkb7wvxUp8fALNP1406pKf0CO_ZbjX1u9qAOU0Pmkx84q6TWZVhySzOTksSlyNhsKJiV_FvB9TRk_Yp93vKuFEezwpoBbAtHhbSWZE8XSaIVgA7qXvXbCknoIDwaXfGMt-bCjJS2YM_C9HTUx5nurvaVm00]--></g></svg>