<?xml version="1.0" encoding="us-ascii" standalone="no"?><svg xmlns="http://www.w3.org/2000/svg" xmlns:xlink="http://www.w3.org/1999/xlink" contentStyleType="text/css" height="666px" preserveAspectRatio="none" style="width:514px;height:666px;background:#FFFFFF;" version="1.1" viewBox="0 0 514 666" width="514px" zoomAndPan="magnify"><defs/><g><rect fill="#FFFFFF" height="501.4434" style="stroke:#181818;stroke-width:1.0;" width="10" x="145" y="90.5332"/><rect fill="#FFFFFF" height="130.873" style="stroke:#181818;stroke-width:1.0;" width="10" x="150" y="415.8125"/><rect fill="#FFFFFF" height="42.291" style="stroke:#181818;stroke-width:1.0;" width="10" x="155" y="460.1035"/><rect fill="#FFFFFF" height="218.4063" style="stroke:#181818;stroke-width:1.0;" width="10" x="302" y="158.1152"/><rect fill="#FFFFFF" height="42.291" style="stroke:#181818;stroke-width:1.0;" width="10" x="307" y="288.9395"/><rect fill="none" height="456.1523" style="stroke:#000000;stroke-width:1.5;" width="417" x="91" y="105.5332"/><rect fill="none" height="107.873" style="stroke:#000000;stroke-width:1.5;" width="222.5" x="275.5" y="238.3574"/><line style="stroke:#181818;stroke-width:0.5;stroke-dasharray:5.0,5.0;" x1="150" x2="150" y1="57.2422" y2="609.9766"/><line style="stroke:#181818;stroke-width:0.5;stroke-dasharray:5.0,5.0;" x1="306.5" x2="306.5" y1="165.9453" y2="609.9766"/><rect fill="#E3E3E3" height="51.2422" rx="2.5" ry="2.5" style="stroke:#181818;stroke-width:0.5;" width="98" x="101" y="5"/><text fill="#000000" font-family="sans-serif" font-size="14" lengthAdjust="spacing" textLength="77" x="111.5" y="27.1074">organization</text><text fill="#000000" font-family="sans-serif" font-size="14" lengthAdjust="spacing" textLength="84" x="108" y="45.7285">:Organization</text><rect fill="#E3E3E3" height="51.2422" rx="2.5" ry="2.5" style="stroke:#181818;stroke-width:0.5;" width="98" x="101" y="608.9766"/><text fill="#000000" font-family="sans-serif" font-size="14" lengthAdjust="spacing" textLength="77" x="111.5" y="631.084">organization</text><text fill="#000000" font-family="sans-serif" font-size="14" lengthAdjust="spacing" textLength="84" x="108" y="649.7051">:Organization</text><rect fill="#E3E3E3" height="51.2422" rx="2.5" ry="2.5" style="stroke:#181818;stroke-width:0.5;" width="43" x="285.5" y="608.9766"/><text fill="#000000" font-family="sans-serif" font-size="14" lengthAdjust="spacing" textLength="23" x="295.5" y="631.084">skill</text><text fill="#000000" font-family="sans-serif" font-size="14" lengthAdjust="spacing" textLength="29" x="292.5" y="649.7051">:Skill</text><rect fill="#FFFFFF" height="501.4434" style="stroke:#181818;stroke-width:1.0;" width="10" x="145" y="90.5332"/><rect fill="#FFFFFF" height="130.873" style="stroke:#181818;stroke-width:1.0;" width="10" x="150" y="415.8125"/><rect fill="#FFFFFF" height="42.291" style="stroke:#181818;stroke-width:1.0;" width="10" x="155" y="460.1035"/><rect fill="#FFFFFF" height="218.4063" style="stroke:#181818;stroke-width:1.0;" width="10" x="302" y="158.1152"/><rect fill="#FFFFFF" height="42.291" style="stroke:#181818;stroke-width:1.0;" width="10" x="307" y="288.9395"/><polygon fill="#181818" points="133,86.5332,143,90.5332,133,94.5332,137,90.5332" style="stroke:#181818;stroke-width:1.0;"/><line style="stroke:#181818;stroke-width:1.0;" x1="0" x2="139" y1="90.5332" y2="90.5332"/><text fill="#000000" font-family="sans-serif" font-size="13" font-weight="bold" lengthAdjust="spacing" textLength="14" x="7" y="85.2705">16</text><text fill="#000000" font-family="sans-serif" font-size="13" lengthAdjust="spacing" textLength="108" x="25" y="85.2705">registerSkill(name)</text><path d="M91,105.5332 L217,105.5332 L217,114.8242 L207,124.8242 L91,124.8242 L91,105.5332 " fill="#EEEEEE" style="stroke:#000000;stroke-width:1.5;"/><rect fill="none" height="456.1523" style="stroke:#000000;stroke-width:1.5;" width="417" x="91" y="105.5332"/><text fill="#000000" font-family="sans-serif" font-size="13" font-weight="bold" lengthAdjust="spacing" textLength="81" x="106" y="120.5615">Register skill</text><polygon fill="#181818" points="273.5,144.1152,283.5,148.1152,273.5,152.1152,277.5,148.1152" style="stroke:#181818;stroke-width:1.0;"/><line style="stroke:#181818;stroke-width:1.0;" x1="155" x2="279.5" y1="148.1152" y2="148.1152"/><text fill="#000000" font-family="sans-serif" font-size="13" font-weight="bold" lengthAdjust="spacing" textLength="25" x="162" y="142.8525">16.1</text><text fill="#000000" font-family="sans-serif" font-size="13" lengthAdjust="spacing" textLength="4" x="191" y="142.8525">&#160;</text><rect fill="#E3E3E3" height="51.2422" rx="2.5" ry="2.5" style="stroke:#181818;stroke-width:0.5;" width="43" x="285.5" y="124.8242"/><text fill="#000000" font-family="sans-serif" font-size="14" lengthAdjust="spacing" textLength="23" x="295.5" y="146.9316">skill</text><text fill="#000000" font-family="sans-serif" font-size="14" lengthAdjust="spacing" textLength="29" x="292.5" y="165.5527">:Skill</text><line style="stroke:#181818;stroke-width:1.0;stroke-dasharray:2.0,2.0;" x1="312" x2="354" y1="210.3574" y2="210.3574"/><line style="stroke:#181818;stroke-width:1.0;stroke-dasharray:2.0,2.0;" x1="354" x2="354" y1="210.3574" y2="223.3574"/><line style="stroke:#181818;stroke-width:1.0;stroke-dasharray:2.0,2.0;" x1="313" x2="354" y1="223.3574" y2="223.3574"/><polygon fill="#181818" points="323,219.3574,313,223.3574,323,227.3574,319,223.3574" style="stroke:#181818;stroke-width:1.0;"/><text fill="#000000" font-family="sans-serif" font-size="13" font-weight="bold" lengthAdjust="spacing" textLength="25" x="319" y="205.0947">16.2</text><text fill="#000000" font-family="sans-serif" font-size="13" lengthAdjust="spacing" textLength="133" x="348" y="205.0947">validateNameSkill(skill)</text><path d="M275.5,238.3574 L348.5,238.3574 L348.5,247.6484 L338.5,257.6484 L275.5,257.6484 L275.5,238.3574 " fill="#EEEEEE" style="stroke:#000000;stroke-width:1.5;"/><rect fill="none" height="107.873" style="stroke:#000000;stroke-width:1.5;" width="222.5" x="275.5" y="238.3574"/><text fill="#000000" font-family="sans-serif" font-size="13" font-weight="bold" lengthAdjust="spacing" textLength="28" x="290.5" y="253.3857">loop</text><text fill="#000000" font-family="sans-serif" font-size="11" font-weight="bold" lengthAdjust="spacing" textLength="117" x="363.5" y="252.2275">[[for each skill name]</text><line style="stroke:#181818;stroke-width:1.0;" x1="312" x2="359" y1="275.9395" y2="275.9395"/><line style="stroke:#181818;stroke-width:1.0;" x1="359" x2="359" y1="275.9395" y2="288.9395"/><line style="stroke:#181818;stroke-width:1.0;" x1="318" x2="359" y1="288.9395" y2="288.9395"/><polygon fill="#181818" points="328,284.9395,318,288.9395,328,292.9395,324,288.9395" style="stroke:#181818;stroke-width:1.0;"/><text fill="#000000" font-family="sans-serif" font-size="13" font-weight="bold" lengthAdjust="spacing" textLength="25" x="324" y="270.6768">16.3</text><text fill="#000000" font-family="sans-serif" font-size="13" lengthAdjust="spacing" textLength="133" x="353" y="270.6768">validateNameSkill(skill)</text><line style="stroke:#181818;stroke-width:1.0;stroke-dasharray:2.0,2.0;" x1="317" x2="359" y1="330.2305" y2="330.2305"/><line style="stroke:#181818;stroke-width:1.0;stroke-dasharray:2.0,2.0;" x1="359" x2="359" y1="330.2305" y2="343.2305"/><line style="stroke:#181818;stroke-width:1.0;stroke-dasharray:2.0,2.0;" x1="312" x2="359" y1="343.2305" y2="343.2305"/><polygon fill="#181818" points="322,339.2305,312,343.2305,322,347.2305,318,343.2305" style="stroke:#181818;stroke-width:1.0;"/><text fill="#000000" font-family="sans-serif" font-size="13" font-weight="bold" lengthAdjust="spacing" textLength="25" x="324" y="324.9678">16.4</text><text fill="#000000" font-family="sans-serif" font-size="13" lengthAdjust="spacing" textLength="53" x="353" y="324.9678">true/false</text><polygon fill="#181818" points="166,372.5215,156,376.5215,166,380.5215,162,376.5215" style="stroke:#181818;stroke-width:1.0;"/><line style="stroke:#181818;stroke-width:1.0;stroke-dasharray:2.0,2.0;" x1="160" x2="306" y1="376.5215" y2="376.5215"/><text fill="#000000" font-family="sans-serif" font-size="13" font-weight="bold" lengthAdjust="spacing" textLength="25" x="172" y="371.2588">16.5</text><text fill="#000000" font-family="sans-serif" font-size="13" lengthAdjust="spacing" textLength="23" x="201" y="371.2588">skill</text><line style="stroke:#181818;stroke-width:1.0;" x1="155" x2="202" y1="402.8125" y2="402.8125"/><line style="stroke:#181818;stroke-width:1.0;" x1="202" x2="202" y1="402.8125" y2="415.8125"/><line style="stroke:#181818;stroke-width:1.0;" x1="161" x2="202" y1="415.8125" y2="415.8125"/><polygon fill="#181818" points="171,411.8125,161,415.8125,171,419.8125,167,415.8125" style="stroke:#181818;stroke-width:1.0;"/><text fill="#000000" font-family="sans-serif" font-size="13" font-weight="bold" lengthAdjust="spacing" textLength="25" x="167" y="397.5498">16.6</text><text fill="#000000" font-family="sans-serif" font-size="13" lengthAdjust="spacing" textLength="77" x="196" y="397.5498">addSkill(skill)</text><line style="stroke:#181818;stroke-width:1.0;" x1="160" x2="207" y1="447.1035" y2="447.1035"/><line style="stroke:#181818;stroke-width:1.0;" x1="207" x2="207" y1="447.1035" y2="460.1035"/><line style="stroke:#181818;stroke-width:1.0;" x1="166" x2="207" y1="460.1035" y2="460.1035"/><polygon fill="#181818" points="176,456.1035,166,460.1035,176,464.1035,172,460.1035" style="stroke:#181818;stroke-width:1.0;"/><text fill="#000000" font-family="sans-serif" font-size="13" font-weight="bold" lengthAdjust="spacing" textLength="25" x="172" y="441.8408">16.7</text><text fill="#000000" font-family="sans-serif" font-size="13" lengthAdjust="spacing" textLength="99" x="201" y="441.8408">validateSkill(skill)</text><line style="stroke:#181818;stroke-width:1.0;stroke-dasharray:2.0,2.0;" x1="165" x2="207" y1="501.3945" y2="501.3945"/><line style="stroke:#181818;stroke-width:1.0;stroke-dasharray:2.0,2.0;" x1="207" x2="207" y1="501.3945" y2="514.3945"/><line style="stroke:#181818;stroke-width:1.0;stroke-dasharray:2.0,2.0;" x1="160" x2="207" y1="514.3945" y2="514.3945"/><polygon fill="#181818" points="170,510.3945,160,514.3945,170,518.3945,166,514.3945" style="stroke:#181818;stroke-width:1.0;"/><text fill="#000000" font-family="sans-serif" font-size="13" font-weight="bold" lengthAdjust="spacing" textLength="25" x="172" y="496.1318">16.8</text><text fill="#000000" font-family="sans-serif" font-size="13" lengthAdjust="spacing" textLength="4" x="201" y="496.1318">&#160;</text><line style="stroke:#181818;stroke-width:1.0;stroke-dasharray:2.0,2.0;" x1="160" x2="202" y1="545.6855" y2="545.6855"/><line style="stroke:#181818;stroke-width:1.0;stroke-dasharray:2.0,2.0;" x1="202" x2="202" y1="545.6855" y2="558.6855"/><line style="stroke:#181818;stroke-width:1.0;stroke-dasharray:2.0,2.0;" x1="155" x2="202" y1="558.6855" y2="558.6855"/><polygon fill="#181818" points="165,554.6855,155,558.6855,165,562.6855,161,558.6855" style="stroke:#181818;stroke-width:1.0;"/><text fill="#000000" font-family="sans-serif" font-size="13" font-weight="bold" lengthAdjust="spacing" textLength="25" x="167" y="540.4229">16.9</text><text fill="#000000" font-family="sans-serif" font-size="13" lengthAdjust="spacing" textLength="4" x="196" y="540.4229">&#160;</text><polygon fill="#181818" points="11,587.9766,1,591.9766,11,595.9766,7,591.9766" style="stroke:#181818;stroke-width:1.0;"/><line style="stroke:#181818;stroke-width:1.0;stroke-dasharray:2.0,2.0;" x1="5" x2="149" y1="591.9766" y2="591.9766"/><text fill="#000000" font-family="sans-serif" font-size="13" font-weight="bold" lengthAdjust="spacing" textLength="14" x="17" y="586.7139">17</text><text fill="#000000" font-family="sans-serif" font-size="13" lengthAdjust="spacing" textLength="23" x="35" y="586.7139">skill</text><!--SRC=[ZL9BJyCm3BxdLrWxiKa5xG9IXRXDEy7GTeIBQRqsMffKQJe4lvuaxKgVwtofQdyFntPnuZ97ZHbaIgeerIeZCBeaLZIL7ACJ9dGmFu90KsHG9g8DA5ACrJUN2HnH5CIOJHiUyHobWONI2Kh-YuOh-Id3NUjt0LZ0Rh_j4gom41PvS5yFsRo-xpVR7MDO6YNBx8iqh1zPyEB8eUqfuOKXxGbt4ZDQzg3tQuQHuMSqvFt0Hg9LcSE-ve9tPRxYmgB0wjVEgrNOL5mqOfVEe1Tr7e9_3GZXZ8B7blPcMwoQzQvBDk0BfNBuE2eDX55QDGVkPGDan-qcip65mOEk-tICtBayL9iV8yKqEosICRiwGhUDi5xHZFPWXVv4C8v7Pp2uYZ7oPPAJKvnKQPGggQdUNOdDSNhupjpQn_xaCyz1q9bQt-qF]--></g></svg>