<?xml version="1.0" encoding="us-ascii" standalone="no"?><svg xmlns="http://www.w3.org/2000/svg" xmlns:xlink="http://www.w3.org/1999/xlink" contentStyleType="text/css" height="825px" preserveAspectRatio="none" style="width:1448px;height:825px;background:#FFFFFF;" version="1.1" viewBox="0 0 1448 825" width="1448px" zoomAndPan="magnify"><defs/><g><rect fill="#FFFFFF" height="635.0156" style="stroke:#181818;stroke-width:1.0;" width="10" x="101.5" y="91.2969"/><rect fill="#FFFFFF" height="70.4297" style="stroke:#181818;stroke-width:1.0;" width="10" x="418.5" y="112.4297"/><rect fill="#FFFFFF" height="29.1328" style="stroke:#181818;stroke-width:1.0;" width="10" x="418.5" y="211.9922"/><rect fill="#FFFFFF" height="456.0547" style="stroke:#181818;stroke-width:1.0;" width="10" x="418.5" y="270.2578"/><rect fill="#FFFFFF" height="29.1328" style="stroke:#181818;stroke-width:1.0;" width="10" x="614.5" y="299.3906"/><rect fill="#FFFFFF" height="29.1328" style="stroke:#181818;stroke-width:1.0;" width="10" x="614.5" y="668.0469"/><rect fill="#FFFFFF" height="339.5234" style="stroke:#181818;stroke-width:1.0;" width="10" x="1009.5" y="328.5234"/><rect fill="#FFFFFF" height="124.3984" style="stroke:#181818;stroke-width:1.0;" width="10" x="1014.5" y="507.5156"/><rect fill="#FFFFFF" height="40.1328" style="stroke:#181818;stroke-width:1.0;" width="10" x="1019.5" y="549.6484"/><rect fill="#FFFFFF" height="137.8594" style="stroke:#181818;stroke-width:1.0;" width="10" x="1201.5" y="367.6563"/><rect fill="#FFFFFF" height="40.1328" style="stroke:#181818;stroke-width:1.0;" width="10" x="1206.5" y="423.25"/><line style="stroke:#181818;stroke-width:0.5;stroke-dasharray:5.0,5.0;" x1="106" x2="106" y1="81.2969" y2="744.3125"/><line style="stroke:#181818;stroke-width:0.5;stroke-dasharray:5.0,5.0;" x1="423" x2="423" y1="81.2969" y2="744.3125"/><line style="stroke:#181818;stroke-width:0.5;stroke-dasharray:5.0,5.0;" x1="619.5" x2="619.5" y1="151.0781" y2="744.3125"/><line style="stroke:#181818;stroke-width:0.5;stroke-dasharray:5.0,5.0;" x1="771.5" x2="771.5" y1="81.2969" y2="744.3125"/><line style="stroke:#181818;stroke-width:0.5;stroke-dasharray:5.0,5.0;" x1="888.5" x2="888.5" y1="81.2969" y2="744.3125"/><line style="stroke:#181818;stroke-width:0.5;stroke-dasharray:5.0,5.0;" x1="1014.5" x2="1014.5" y1="81.2969" y2="744.3125"/><line style="stroke:#181818;stroke-width:0.5;stroke-dasharray:5.0,5.0;" x1="1206.5" x2="1206.5" y1="375.3203" y2="744.3125"/><text fill="#000000" font-family="sans-serif" font-size="14" lengthAdjust="spacing" textLength="197" x="5" y="77.9951">Human Resources Manager</text><ellipse cx="106.5" cy="13.5" fill="#E3E3E3" rx="8" ry="8" style="stroke:#181818;stroke-width:0.5;"/><path d="M106.5,21.5 L106.5,48.5 M93.5,29.5 L119.5,29.5 M106.5,48.5 L93.5,63.5 M106.5,48.5 L119.5,63.5 " fill="none" style="stroke:#181818;stroke-width:0.5;"/><text fill="#000000" font-family="sans-serif" font-size="14" lengthAdjust="spacing" textLength="197" x="5" y="756.3076">Human Resources Manager</text><ellipse cx="106.5" cy="768.1094" fill="#E3E3E3" rx="8" ry="8" style="stroke:#181818;stroke-width:0.5;"/><path d="M106.5,776.1094 L106.5,803.1094 M93.5,784.1094 L119.5,784.1094 M106.5,803.1094 L93.5,818.1094 M106.5,803.1094 L119.5,818.1094 " fill="none" style="stroke:#181818;stroke-width:0.5;"/><rect fill="#E3E3E3" height="30.2969" rx="2.5" ry="2.5" style="stroke:#181818;stroke-width:0.5;" width="121" x="363" y="50"/><text fill="#000000" font-family="sans-serif" font-size="14" lengthAdjust="spacing" textLength="107" x="370" y="69.9951">:RegisterSkillUI</text><rect fill="#E3E3E3" height="30.2969" rx="2.5" ry="2.5" style="stroke:#181818;stroke-width:0.5;" width="121" x="363" y="743.3125"/><text fill="#000000" font-family="sans-serif" font-size="14" lengthAdjust="spacing" textLength="107" x="370" y="763.3076">:RegisterSkillUI</text><rect fill="#E3E3E3" height="30.2969" rx="2.5" ry="2.5" style="stroke:#181818;stroke-width:0.5;" width="178" x="530.5" y="743.3125"/><text fill="#000000" font-family="sans-serif" font-size="14" lengthAdjust="spacing" textLength="164" x="537.5" y="763.3076">:RegisterSkillController</text><rect fill="#E3E3E3" height="30.2969" rx="2.5" ry="2.5" style="stroke:#181818;stroke-width:0.5;" width="107" x="718.5" y="50"/><text fill="#000000" font-family="sans-serif" font-size="14" lengthAdjust="spacing" textLength="93" x="725.5" y="69.9951">:Repositories</text><rect fill="#E3E3E3" height="30.2969" rx="2.5" ry="2.5" style="stroke:#181818;stroke-width:0.5;" width="107" x="718.5" y="743.3125"/><text fill="#000000" font-family="sans-serif" font-size="14" lengthAdjust="spacing" textLength="93" x="725.5" y="763.3076">:Repositories</text><rect fill="#E3E3E3" height="46.5938" rx="2.5" ry="2.5" style="stroke:#181818;stroke-width:0.5;" width="107" x="835.5" y="33.7031"/><text fill="#000000" font-family="sans-serif" font-size="14" lengthAdjust="spacing" textLength="84" x="847" y="53.6982">repositories</text><text fill="#000000" font-family="sans-serif" font-size="14" lengthAdjust="spacing" textLength="93" x="842.5" y="69.9951">:Repositories</text><rect fill="#E3E3E3" height="46.5938" rx="2.5" ry="2.5" style="stroke:#181818;stroke-width:0.5;" width="107" x="835.5" y="743.3125"/><text fill="#000000" font-family="sans-serif" font-size="14" lengthAdjust="spacing" textLength="84" x="847" y="763.3076">repositories</text><text fill="#000000" font-family="sans-serif" font-size="14" lengthAdjust="spacing" textLength="93" x="842.5" y="779.6045">:Repositories</text><rect fill="#E3E3E3" height="46.5938" rx="2.5" ry="2.5" style="stroke:#181818;stroke-width:0.5;" width="124" x="952.5" y="33.7031"/><text fill="#000000" font-family="sans-serif" font-size="14" lengthAdjust="spacing" textLength="103" x="963" y="53.6982">skillRepository</text><text fill="#000000" font-family="sans-serif" font-size="14" lengthAdjust="spacing" textLength="110" x="959.5" y="69.9951">:SkillRepository</text><rect fill="#E3E3E3" height="46.5938" rx="2.5" ry="2.5" style="stroke:#181818;stroke-width:0.5;" width="124" x="952.5" y="743.3125"/><text fill="#000000" font-family="sans-serif" font-size="14" lengthAdjust="spacing" textLength="103" x="963" y="763.3076">skillRepository</text><text fill="#000000" font-family="sans-serif" font-size="14" lengthAdjust="spacing" textLength="110" x="959.5" y="779.6045">:SkillRepository</text><rect fill="#E3E3E3" height="46.5938" rx="2.5" ry="2.5" style="stroke:#181818;stroke-width:0.5;" width="48" x="1182.5" y="743.3125"/><text fill="#000000" font-family="sans-serif" font-size="14" lengthAdjust="spacing" textLength="27" x="1193" y="763.3076">skill</text><text fill="#000000" font-family="sans-serif" font-size="14" lengthAdjust="spacing" textLength="34" x="1189.5" y="779.6045">:Skill</text><rect fill="#FFFFFF" height="635.0156" style="stroke:#181818;stroke-width:1.0;" width="10" x="101.5" y="91.2969"/><rect fill="#FFFFFF" height="70.4297" style="stroke:#181818;stroke-width:1.0;" width="10" x="418.5" y="112.4297"/><rect fill="#FFFFFF" height="29.1328" style="stroke:#181818;stroke-width:1.0;" width="10" x="418.5" y="211.9922"/><rect fill="#FFFFFF" height="456.0547" style="stroke:#181818;stroke-width:1.0;" width="10" x="418.5" y="270.2578"/><rect fill="#FFFFFF" height="29.1328" style="stroke:#181818;stroke-width:1.0;" width="10" x="614.5" y="299.3906"/><rect fill="#FFFFFF" height="29.1328" style="stroke:#181818;stroke-width:1.0;" width="10" x="614.5" y="668.0469"/><rect fill="#FFFFFF" height="339.5234" style="stroke:#181818;stroke-width:1.0;" width="10" x="1009.5" y="328.5234"/><rect fill="#FFFFFF" height="124.3984" style="stroke:#181818;stroke-width:1.0;" width="10" x="1014.5" y="507.5156"/><rect fill="#FFFFFF" height="40.1328" style="stroke:#181818;stroke-width:1.0;" width="10" x="1019.5" y="549.6484"/><rect fill="#FFFFFF" height="137.8594" style="stroke:#181818;stroke-width:1.0;" width="10" x="1201.5" y="367.6563"/><rect fill="#FFFFFF" height="40.1328" style="stroke:#181818;stroke-width:1.0;" width="10" x="1206.5" y="423.25"/><polygon fill="#181818" points="406.5,108.4297,416.5,112.4297,406.5,116.4297,410.5,112.4297" style="stroke:#181818;stroke-width:1.0;"/><line style="stroke:#181818;stroke-width:1.0;" x1="111.5" x2="412.5" y1="112.4297" y2="112.4297"/><text fill="#000000" font-family="sans-serif" font-size="13" font-weight="bold" lengthAdjust="spacing" textLength="9" x="118.5" y="107.3638">1</text><text fill="#000000" font-family="sans-serif" font-size="13" lengthAdjust="spacing" textLength="175" x="131.5" y="107.3638">asks to register a new skill</text><polygon fill="#181818" points="518.5,137.5625,528.5,141.5625,518.5,145.5625,522.5,141.5625" style="stroke:#181818;stroke-width:1.0;"/><line style="stroke:#181818;stroke-width:1.0;" x1="428.5" x2="524.5" y1="141.5625" y2="141.5625"/><text fill="#000000" font-family="sans-serif" font-size="13" font-weight="bold" lengthAdjust="spacing" textLength="9" x="435.5" y="136.4966">2</text><text fill="#000000" font-family="sans-serif" font-size="13" lengthAdjust="spacing" textLength="41" x="448.5" y="136.4966">create</text><rect fill="#E3E3E3" height="30.2969" rx="2.5" ry="2.5" style="stroke:#181818;stroke-width:0.5;" width="178" x="530.5" y="120.4297"/><text fill="#000000" font-family="sans-serif" font-size="14" lengthAdjust="spacing" textLength="164" x="537.5" y="140.4248">:RegisterSkillController</text><polygon fill="#181818" points="122.5,178.8594,112.5,182.8594,122.5,186.8594,118.5,182.8594" style="stroke:#181818;stroke-width:1.0;"/><line style="stroke:#181818;stroke-width:1.0;stroke-dasharray:2.0,2.0;" x1="116.5" x2="422.5" y1="182.8594" y2="182.8594"/><text fill="#000000" font-family="sans-serif" font-size="13" font-weight="bold" lengthAdjust="spacing" textLength="9" x="128.5" y="177.7935">3</text><text fill="#000000" font-family="sans-serif" font-size="13" lengthAdjust="spacing" textLength="162" x="141.5" y="177.7935">request data (skillName)</text><polygon fill="#181818" points="406.5,207.9922,416.5,211.9922,406.5,215.9922,410.5,211.9922" style="stroke:#181818;stroke-width:1.0;"/><line style="stroke:#181818;stroke-width:1.0;" x1="111.5" x2="412.5" y1="211.9922" y2="211.9922"/><text fill="#000000" font-family="sans-serif" font-size="13" font-weight="bold" lengthAdjust="spacing" textLength="9" x="118.5" y="206.9263">4</text><text fill="#000000" font-family="sans-serif" font-size="13" lengthAdjust="spacing" textLength="218" x="131.5" y="206.9263">types requested data (skillName)</text><polygon fill="#181818" points="122.5,237.125,112.5,241.125,122.5,245.125,118.5,241.125" style="stroke:#181818;stroke-width:1.0;"/><line style="stroke:#181818;stroke-width:1.0;stroke-dasharray:2.0,2.0;" x1="116.5" x2="422.5" y1="241.125" y2="241.125"/><text fill="#000000" font-family="sans-serif" font-size="13" font-weight="bold" lengthAdjust="spacing" textLength="9" x="128.5" y="236.0591">5</text><text fill="#000000" font-family="sans-serif" font-size="13" lengthAdjust="spacing" textLength="270" x="141.5" y="236.0591">show all data registered  for confirmation</text><polygon fill="#181818" points="406.5,266.2578,416.5,270.2578,406.5,274.2578,410.5,270.2578" style="stroke:#181818;stroke-width:1.0;"/><line style="stroke:#181818;stroke-width:1.0;" x1="111.5" x2="412.5" y1="270.2578" y2="270.2578"/><text fill="#000000" font-family="sans-serif" font-size="13" font-weight="bold" lengthAdjust="spacing" textLength="9" x="118.5" y="265.1919">6</text><text fill="#000000" font-family="sans-serif" font-size="13" lengthAdjust="spacing" textLength="85" x="131.5" y="265.1919">submits data</text><polygon fill="#181818" points="602.5,295.3906,612.5,299.3906,602.5,303.3906,606.5,299.3906" style="stroke:#181818;stroke-width:1.0;"/><line style="stroke:#181818;stroke-width:1.0;" x1="428.5" x2="608.5" y1="299.3906" y2="299.3906"/><text fill="#000000" font-family="sans-serif" font-size="13" font-weight="bold" lengthAdjust="spacing" textLength="9" x="435.5" y="294.3247">7</text><text fill="#000000" font-family="sans-serif" font-size="13" lengthAdjust="spacing" textLength="154" x="448.5" y="294.3247">registerSkill(skillName)</text><polygon fill="#181818" points="997.5,324.5234,1007.5,328.5234,997.5,332.5234,1001.5,328.5234" style="stroke:#181818;stroke-width:1.0;"/><line style="stroke:#181818;stroke-width:1.0;" x1="619.5" x2="1003.5" y1="328.5234" y2="328.5234"/><text fill="#000000" font-family="sans-serif" font-size="13" font-weight="bold" lengthAdjust="spacing" textLength="9" x="626.5" y="323.4575">8</text><text fill="#000000" font-family="sans-serif" font-size="13" lengthAdjust="spacing" textLength="154" x="639.5" y="323.4575">registerSkill(skillName)</text><polygon fill="#181818" points="1170.5,353.6563,1180.5,357.6563,1170.5,361.6563,1174.5,357.6563" style="stroke:#181818;stroke-width:1.0;"/><line style="stroke:#181818;stroke-width:1.0;" x1="1019.5" x2="1176.5" y1="357.6563" y2="357.6563"/><text fill="#000000" font-family="sans-serif" font-size="13" font-weight="bold" lengthAdjust="spacing" textLength="9" x="1026.5" y="352.5903">9</text><text fill="#000000" font-family="sans-serif" font-size="13" lengthAdjust="spacing" textLength="126" x="1039.5" y="352.5903">register(skillName)</text><rect fill="#E3E3E3" height="46.5938" rx="2.5" ry="2.5" style="stroke:#181818;stroke-width:0.5;" width="48" x="1182.5" y="336.5234"/><text fill="#000000" font-family="sans-serif" font-size="14" lengthAdjust="spacing" textLength="27" x="1193" y="356.5186">skill</text><text fill="#000000" font-family="sans-serif" font-size="14" lengthAdjust="spacing" textLength="34" x="1189.5" y="372.8154">:Skill</text><line style="stroke:#181818;stroke-width:1.0;" x1="1211.5" x2="1258.5" y1="410.25" y2="410.25"/><line style="stroke:#181818;stroke-width:1.0;" x1="1258.5" x2="1258.5" y1="410.25" y2="423.25"/><line style="stroke:#181818;stroke-width:1.0;" x1="1217.5" x2="1258.5" y1="423.25" y2="423.25"/><polygon fill="#181818" points="1227.5,419.25,1217.5,423.25,1227.5,427.25,1223.5,423.25" style="stroke:#181818;stroke-width:1.0;"/><text fill="#000000" font-family="sans-serif" font-size="13" font-weight="bold" lengthAdjust="spacing" textLength="18" x="1223.5" y="405.1841">10</text><text fill="#000000" font-family="sans-serif" font-size="13" lengthAdjust="spacing" textLength="196" x="1245.5" y="405.1841">validateSkillName(skillName)</text><line style="stroke:#181818;stroke-width:1.0;stroke-dasharray:2.0,2.0;" x1="1216.5" x2="1258.5" y1="462.3828" y2="462.3828"/><line style="stroke:#181818;stroke-width:1.0;stroke-dasharray:2.0,2.0;" x1="1258.5" x2="1258.5" y1="462.3828" y2="475.3828"/><line style="stroke:#181818;stroke-width:1.0;stroke-dasharray:2.0,2.0;" x1="1211.5" x2="1258.5" y1="475.3828" y2="475.3828"/><polygon fill="#181818" points="1221.5,471.3828,1211.5,475.3828,1221.5,479.3828,1217.5,475.3828" style="stroke:#181818;stroke-width:1.0;"/><text fill="#000000" font-family="sans-serif" font-size="13" font-weight="bold" lengthAdjust="spacing" textLength="18" x="1223.5" y="457.3169">11</text><text fill="#000000" font-family="sans-serif" font-size="13" lengthAdjust="spacing" textLength="4" x="1245.5" y="457.3169">&#160;</text><line style="stroke:#181818;stroke-width:1.0;" x1="1024.5" x2="1066.5" y1="499.5156" y2="499.5156"/><line style="stroke:#181818;stroke-width:1.0;" x1="1066.5" x2="1066.5" y1="499.5156" y2="512.5156"/><line style="stroke:#181818;stroke-width:1.0;" x1="1025.5" x2="1066.5" y1="512.5156" y2="512.5156"/><polygon fill="#181818" points="1035.5,508.5156,1025.5,512.5156,1035.5,516.5156,1031.5,512.5156" style="stroke:#181818;stroke-width:1.0;"/><text fill="#000000" font-family="sans-serif" font-size="13" font-weight="bold" lengthAdjust="spacing" textLength="18" x="1031.5" y="494.4497">12</text><text fill="#000000" font-family="sans-serif" font-size="13" lengthAdjust="spacing" textLength="89" x="1053.5" y="494.4497">addSkill(skill)</text><line style="stroke:#181818;stroke-width:1.0;" x1="1024.5" x2="1071.5" y1="536.6484" y2="536.6484"/><line style="stroke:#181818;stroke-width:1.0;" x1="1071.5" x2="1071.5" y1="536.6484" y2="549.6484"/><line style="stroke:#181818;stroke-width:1.0;" x1="1030.5" x2="1071.5" y1="549.6484" y2="549.6484"/><polygon fill="#181818" points="1040.5,545.6484,1030.5,549.6484,1040.5,553.6484,1036.5,549.6484" style="stroke:#181818;stroke-width:1.0;"/><text fill="#000000" font-family="sans-serif" font-size="13" font-weight="bold" lengthAdjust="spacing" textLength="18" x="1036.5" y="531.5825">13</text><text fill="#000000" font-family="sans-serif" font-size="13" lengthAdjust="spacing" textLength="118" x="1058.5" y="531.5825">validateSkill(skill)</text><line style="stroke:#181818;stroke-width:1.0;stroke-dasharray:2.0,2.0;" x1="1029.5" x2="1071.5" y1="588.7813" y2="588.7813"/><line style="stroke:#181818;stroke-width:1.0;stroke-dasharray:2.0,2.0;" x1="1071.5" x2="1071.5" y1="588.7813" y2="601.7813"/><line style="stroke:#181818;stroke-width:1.0;stroke-dasharray:2.0,2.0;" x1="1024.5" x2="1071.5" y1="601.7813" y2="601.7813"/><polygon fill="#181818" points="1034.5,597.7813,1024.5,601.7813,1034.5,605.7813,1030.5,601.7813" style="stroke:#181818;stroke-width:1.0;"/><text fill="#000000" font-family="sans-serif" font-size="13" font-weight="bold" lengthAdjust="spacing" textLength="18" x="1036.5" y="583.7153">14</text><text fill="#000000" font-family="sans-serif" font-size="13" lengthAdjust="spacing" textLength="4" x="1058.5" y="583.7153">&#160;</text><line style="stroke:#181818;stroke-width:1.0;stroke-dasharray:2.0,2.0;" x1="1024.5" x2="1066.5" y1="630.9141" y2="630.9141"/><line style="stroke:#181818;stroke-width:1.0;stroke-dasharray:2.0,2.0;" x1="1066.5" x2="1066.5" y1="630.9141" y2="643.9141"/><line style="stroke:#181818;stroke-width:1.0;stroke-dasharray:2.0,2.0;" x1="1019.5" x2="1066.5" y1="643.9141" y2="643.9141"/><polygon fill="#181818" points="1029.5,639.9141,1019.5,643.9141,1029.5,647.9141,1025.5,643.9141" style="stroke:#181818;stroke-width:1.0;"/><text fill="#000000" font-family="sans-serif" font-size="13" font-weight="bold" lengthAdjust="spacing" textLength="18" x="1031.5" y="625.8481">15</text><text fill="#000000" font-family="sans-serif" font-size="13" lengthAdjust="spacing" textLength="4" x="1053.5" y="625.8481">&#160;</text><polygon fill="#181818" points="635.5,664.0469,625.5,668.0469,635.5,672.0469,631.5,668.0469" style="stroke:#181818;stroke-width:1.0;"/><line style="stroke:#181818;stroke-width:1.0;stroke-dasharray:2.0,2.0;" x1="629.5" x2="1013.5" y1="668.0469" y2="668.0469"/><text fill="#000000" font-family="sans-serif" font-size="13" font-weight="bold" lengthAdjust="spacing" textLength="18" x="641.5" y="662.981">16</text><text fill="#000000" font-family="sans-serif" font-size="13" lengthAdjust="spacing" textLength="27" x="663.5" y="662.981">skill</text><polygon fill="#181818" points="439.5,693.1797,429.5,697.1797,439.5,701.1797,435.5,697.1797" style="stroke:#181818;stroke-width:1.0;"/><line style="stroke:#181818;stroke-width:1.0;stroke-dasharray:2.0,2.0;" x1="433.5" x2="618.5" y1="697.1797" y2="697.1797"/><text fill="#000000" font-family="sans-serif" font-size="13" font-weight="bold" lengthAdjust="spacing" textLength="18" x="445.5" y="692.1138">17</text><text fill="#000000" font-family="sans-serif" font-size="13" lengthAdjust="spacing" textLength="27" x="467.5" y="692.1138">skill</text><polygon fill="#181818" points="117.5,722.3125,107.5,726.3125,117.5,730.3125,113.5,726.3125" style="stroke:#181818;stroke-width:1.0;"/><line style="stroke:#181818;stroke-width:1.0;stroke-dasharray:2.0,2.0;" x1="111.5" x2="422.5" y1="726.3125" y2="726.3125"/><text fill="#000000" font-family="sans-serif" font-size="13" font-weight="bold" lengthAdjust="spacing" textLength="18" x="123.5" y="721.2466">18</text><text fill="#000000" font-family="sans-serif" font-size="13" lengthAdjust="spacing" textLength="166" x="145.5" y="721.2466">shows operation success.</text><!--SRC=[lLPDR-8m4BtxLunweI2nFu13fLLLRP5WjuBsjXUJ362HsApjjCk_tub3lkr0sztrZMJclJSVVi4SX3nopLD8bLJHNgiKmUeCcQdU77bqu3jSsrE2e36oNEwIPe3PyrYz2Rc3BKyCCiOpgsIMRb0pDjgB666hbDsetun7LccuUSnIBc65HcKwGWDBBeb1tm0tyBXQCiAr8X97BYtSp5Qu4yQYNXz4ahpCNTJBV2ZeNachLPAS8U-VLujU-54PGM846XTJFJYjHLuVLT1EqOsCdx8FyBJu-jpECBcK6fUIrkqdBgyJvO4e4rtum_9fzV3j1yjRALwvHTSm1kT3Fs1wH-s16KKV35X5CojQ0nmalXM4h4wfWAYdrKC289YySPC9GKKQAOAIHj0uTH25xD0wbGlYkXst0oiADubH-sL-70PXUQPGGC-beRsBi8lSGlVDq4EM7n_Hz5pC39gpxkV7-5x6ihnyHngjghC7otAR5QZ38TR2JJc1na8DwGz1bu8xotbXp2tLtRqE5D1bcDORLHKpMC8LF4KrvRK8m3OWtPRsLvq0ykj527jrlaQGv3Wi6AdnLuR6GimjXrkNyfsdE6OUrlpwiUuTjgSZ-UCP1cC_KF06jnLpqkloIqCWF79c3P6IMw5JRWMjRq2Pps1Cjac5DGwKUPUWgibh6RhfsRxkzBsZZJQmgbUY-oP_zKfxrFJM-QvqxCcabjHK4wQhhDvtRyul6mJKq5UU21e6halueRAzN10u5LtDDzJ7It0NMjQR9O_ZnXZ7VuiwE5cuyboZlJMKK07_J678Op-AD-2yx7_h-QoMIz-Upufuru0BUnluT8L4NRAl-aDGV0SCg2DgP_Rau17z_pPVMC3sEq_olvf_0000]--></g></svg>