<?xml version="1.0" encoding="us-ascii" standalone="no"?><svg xmlns="http://www.w3.org/2000/svg" xmlns:xlink="http://www.w3.org/1999/xlink" contentStyleType="text/css" height="856px" preserveAspectRatio="none" style="width:1463px;height:856px;background:#FFFFFF;" version="1.1" viewBox="0 0 1463 856" width="1463px" zoomAndPan="magnify"><defs/><g><rect fill="#FFFFFF" height="666.1484" style="stroke:#181818;stroke-width:1.0;" width="10" x="116.5" y="91.2969"/><rect fill="#FFFFFF" height="94.5625" style="stroke:#181818;stroke-width:1.0;" width="10" x="433.5" y="112.4297"/><rect fill="#FFFFFF" height="29.1328" style="stroke:#181818;stroke-width:1.0;" width="10" x="433.5" y="236.125"/><rect fill="#FFFFFF" height="463.0547" style="stroke:#181818;stroke-width:1.0;" width="10" x="433.5" y="294.3906"/><rect fill="#FFFFFF" height="29.1328" style="stroke:#181818;stroke-width:1.0;" width="10" x="629.5" y="330.5234"/><rect fill="#FFFFFF" height="29.1328" style="stroke:#181818;stroke-width:1.0;" width="10" x="629.5" y="699.1797"/><rect fill="#FFFFFF" height="339.5234" style="stroke:#181818;stroke-width:1.0;" width="10" x="1024.5" y="359.6563"/><rect fill="#FFFFFF" height="124.3984" style="stroke:#181818;stroke-width:1.0;" width="10" x="1029.5" y="538.6484"/><rect fill="#FFFFFF" height="40.1328" style="stroke:#181818;stroke-width:1.0;" width="10" x="1034.5" y="580.7813"/><rect fill="#FFFFFF" height="137.8594" style="stroke:#181818;stroke-width:1.0;" width="10" x="1216.5" y="398.7891"/><rect fill="#FFFFFF" height="40.1328" style="stroke:#181818;stroke-width:1.0;" width="10" x="1221.5" y="454.3828"/><rect fill="none" height="133.6641" style="stroke:#000000;stroke-width:1.5;" width="499" x="10" y="168.7266"/><line style="stroke:#181818;stroke-width:0.5;stroke-dasharray:5.0,5.0;" x1="121" x2="121" y1="81.2969" y2="775.4453"/><line style="stroke:#181818;stroke-width:0.5;stroke-dasharray:5.0,5.0;" x1="438" x2="438" y1="81.2969" y2="775.4453"/><line style="stroke:#181818;stroke-width:0.5;stroke-dasharray:5.0,5.0;" x1="634.5" x2="634.5" y1="151.0781" y2="775.4453"/><line style="stroke:#181818;stroke-width:0.5;stroke-dasharray:5.0,5.0;" x1="786.5" x2="786.5" y1="81.2969" y2="775.4453"/><line style="stroke:#181818;stroke-width:0.5;stroke-dasharray:5.0,5.0;" x1="903.5" x2="903.5" y1="81.2969" y2="775.4453"/><line style="stroke:#181818;stroke-width:0.5;stroke-dasharray:5.0,5.0;" x1="1029.5" x2="1029.5" y1="81.2969" y2="775.4453"/><line style="stroke:#181818;stroke-width:0.5;stroke-dasharray:5.0,5.0;" x1="1221.5" x2="1221.5" y1="406.4531" y2="775.4453"/><text fill="#000000" font-family="sans-serif" font-size="14" lengthAdjust="spacing" textLength="197" x="20" y="77.9951">Human Resources Manager</text><ellipse cx="121.5" cy="13.5" fill="#E3E3E3" rx="8" ry="8" style="stroke:#181818;stroke-width:0.5;"/><path d="M121.5,21.5 L121.5,48.5 M108.5,29.5 L134.5,29.5 M121.5,48.5 L108.5,63.5 M121.5,48.5 L134.5,63.5 " fill="none" style="stroke:#181818;stroke-width:0.5;"/><text fill="#000000" font-family="sans-serif" font-size="14" lengthAdjust="spacing" textLength="197" x="20" y="787.4404">Human Resources Manager</text><ellipse cx="121.5" cy="799.2422" fill="#E3E3E3" rx="8" ry="8" style="stroke:#181818;stroke-width:0.5;"/><path d="M121.5,807.2422 L121.5,834.2422 M108.5,815.2422 L134.5,815.2422 M121.5,834.2422 L108.5,849.2422 M121.5,834.2422 L134.5,849.2422 " fill="none" style="stroke:#181818;stroke-width:0.5;"/><rect fill="#E3E3E3" height="30.2969" rx="2.5" ry="2.5" style="stroke:#181818;stroke-width:0.5;" width="121" x="378" y="50"/><text fill="#000000" font-family="sans-serif" font-size="14" lengthAdjust="spacing" textLength="107" x="385" y="69.9951">:RegisterSkillUI</text><rect fill="#E3E3E3" height="30.2969" rx="2.5" ry="2.5" style="stroke:#181818;stroke-width:0.5;" width="121" x="378" y="774.4453"/><text fill="#000000" font-family="sans-serif" font-size="14" lengthAdjust="spacing" textLength="107" x="385" y="794.4404">:RegisterSkillUI</text><rect fill="#E3E3E3" height="30.2969" rx="2.5" ry="2.5" style="stroke:#181818;stroke-width:0.5;" width="178" x="545.5" y="774.4453"/><text fill="#000000" font-family="sans-serif" font-size="14" lengthAdjust="spacing" textLength="164" x="552.5" y="794.4404">:RegisterSkillController</text><rect fill="#E3E3E3" height="30.2969" rx="2.5" ry="2.5" style="stroke:#181818;stroke-width:0.5;" width="107" x="733.5" y="50"/><text fill="#000000" font-family="sans-serif" font-size="14" lengthAdjust="spacing" textLength="93" x="740.5" y="69.9951">:Repositories</text><rect fill="#E3E3E3" height="30.2969" rx="2.5" ry="2.5" style="stroke:#181818;stroke-width:0.5;" width="107" x="733.5" y="774.4453"/><text fill="#000000" font-family="sans-serif" font-size="14" lengthAdjust="spacing" textLength="93" x="740.5" y="794.4404">:Repositories</text><rect fill="#E3E3E3" height="46.5938" rx="2.5" ry="2.5" style="stroke:#181818;stroke-width:0.5;" width="107" x="850.5" y="33.7031"/><text fill="#000000" font-family="sans-serif" font-size="14" lengthAdjust="spacing" textLength="84" x="862" y="53.6982">repositories</text><text fill="#000000" font-family="sans-serif" font-size="14" lengthAdjust="spacing" textLength="93" x="857.5" y="69.9951">:Repositories</text><rect fill="#E3E3E3" height="46.5938" rx="2.5" ry="2.5" style="stroke:#181818;stroke-width:0.5;" width="107" x="850.5" y="774.4453"/><text fill="#000000" font-family="sans-serif" font-size="14" lengthAdjust="spacing" textLength="84" x="862" y="794.4404">repositories</text><text fill="#000000" font-family="sans-serif" font-size="14" lengthAdjust="spacing" textLength="93" x="857.5" y="810.7373">:Repositories</text><rect fill="#E3E3E3" height="46.5938" rx="2.5" ry="2.5" style="stroke:#181818;stroke-width:0.5;" width="124" x="967.5" y="33.7031"/><text fill="#000000" font-family="sans-serif" font-size="14" lengthAdjust="spacing" textLength="103" x="978" y="53.6982">skillRepository</text><text fill="#000000" font-family="sans-serif" font-size="14" lengthAdjust="spacing" textLength="110" x="974.5" y="69.9951">:SkillRepository</text><rect fill="#E3E3E3" height="46.5938" rx="2.5" ry="2.5" style="stroke:#181818;stroke-width:0.5;" width="124" x="967.5" y="774.4453"/><text fill="#000000" font-family="sans-serif" font-size="14" lengthAdjust="spacing" textLength="103" x="978" y="794.4404">skillRepository</text><text fill="#000000" font-family="sans-serif" font-size="14" lengthAdjust="spacing" textLength="110" x="974.5" y="810.7373">:SkillRepository</text><rect fill="#E3E3E3" height="46.5938" rx="2.5" ry="2.5" style="stroke:#181818;stroke-width:0.5;" width="48" x="1197.5" y="774.4453"/><text fill="#000000" font-family="sans-serif" font-size="14" lengthAdjust="spacing" textLength="27" x="1208" y="794.4404">skill</text><text fill="#000000" font-family="sans-serif" font-size="14" lengthAdjust="spacing" textLength="34" x="1204.5" y="810.7373">:Skill</text><rect fill="#FFFFFF" height="666.1484" style="stroke:#181818;stroke-width:1.0;" width="10" x="116.5" y="91.2969"/><rect fill="#FFFFFF" height="94.5625" style="stroke:#181818;stroke-width:1.0;" width="10" x="433.5" y="112.4297"/><rect fill="#FFFFFF" height="29.1328" style="stroke:#181818;stroke-width:1.0;" width="10" x="433.5" y="236.125"/><rect fill="#FFFFFF" height="463.0547" style="stroke:#181818;stroke-width:1.0;" width="10" x="433.5" y="294.3906"/><rect fill="#FFFFFF" height="29.1328" style="stroke:#181818;stroke-width:1.0;" width="10" x="629.5" y="330.5234"/><rect fill="#FFFFFF" height="29.1328" style="stroke:#181818;stroke-width:1.0;" width="10" x="629.5" y="699.1797"/><rect fill="#FFFFFF" height="339.5234" style="stroke:#181818;stroke-width:1.0;" width="10" x="1024.5" y="359.6563"/><rect fill="#FFFFFF" height="124.3984" style="stroke:#181818;stroke-width:1.0;" width="10" x="1029.5" y="538.6484"/><rect fill="#FFFFFF" height="40.1328" style="stroke:#181818;stroke-width:1.0;" width="10" x="1034.5" y="580.7813"/><rect fill="#FFFFFF" height="137.8594" style="stroke:#181818;stroke-width:1.0;" width="10" x="1216.5" y="398.7891"/><rect fill="#FFFFFF" height="40.1328" style="stroke:#181818;stroke-width:1.0;" width="10" x="1221.5" y="454.3828"/><polygon fill="#181818" points="421.5,108.4297,431.5,112.4297,421.5,116.4297,425.5,112.4297" style="stroke:#181818;stroke-width:1.0;"/><line style="stroke:#181818;stroke-width:1.0;" x1="126.5" x2="427.5" y1="112.4297" y2="112.4297"/><text fill="#000000" font-family="sans-serif" font-size="13" font-weight="bold" lengthAdjust="spacing" textLength="9" x="133.5" y="107.3638">1</text><text fill="#000000" font-family="sans-serif" font-size="13" lengthAdjust="spacing" textLength="175" x="146.5" y="107.3638">asks to register a new skill</text><polygon fill="#181818" points="533.5,137.5625,543.5,141.5625,533.5,145.5625,537.5,141.5625" style="stroke:#181818;stroke-width:1.0;"/><line style="stroke:#181818;stroke-width:1.0;" x1="443.5" x2="539.5" y1="141.5625" y2="141.5625"/><text fill="#000000" font-family="sans-serif" font-size="13" font-weight="bold" lengthAdjust="spacing" textLength="9" x="450.5" y="136.4966">2</text><text fill="#000000" font-family="sans-serif" font-size="13" lengthAdjust="spacing" textLength="41" x="463.5" y="136.4966">create</text><rect fill="#E3E3E3" height="30.2969" rx="2.5" ry="2.5" style="stroke:#181818;stroke-width:0.5;" width="178" x="545.5" y="120.4297"/><text fill="#000000" font-family="sans-serif" font-size="14" lengthAdjust="spacing" textLength="164" x="552.5" y="140.4248">:RegisterSkillController</text><path d="M10,168.7266 L86,168.7266 L86,175.8594 L76,185.8594 L10,185.8594 L10,168.7266 " fill="#EEEEEE" style="stroke:#000000;stroke-width:1.5;"/><rect fill="none" height="133.6641" style="stroke:#000000;stroke-width:1.5;" width="499" x="10" y="168.7266"/><text fill="#000000" font-family="sans-serif" font-size="13" font-weight="bold" lengthAdjust="spacing" textLength="31" x="25" y="181.7935">loop</text><polygon fill="#181818" points="137.5,202.9922,127.5,206.9922,137.5,210.9922,133.5,206.9922" style="stroke:#181818;stroke-width:1.0;"/><line style="stroke:#181818;stroke-width:1.0;stroke-dasharray:2.0,2.0;" x1="131.5" x2="437.5" y1="206.9922" y2="206.9922"/><text fill="#000000" font-family="sans-serif" font-size="13" font-weight="bold" lengthAdjust="spacing" textLength="9" x="143.5" y="201.9263">3</text><text fill="#000000" font-family="sans-serif" font-size="13" lengthAdjust="spacing" textLength="162" x="156.5" y="201.9263">request data (skillName)</text><polygon fill="#181818" points="421.5,232.125,431.5,236.125,421.5,240.125,425.5,236.125" style="stroke:#181818;stroke-width:1.0;"/><line style="stroke:#181818;stroke-width:1.0;" x1="126.5" x2="427.5" y1="236.125" y2="236.125"/><text fill="#000000" font-family="sans-serif" font-size="13" font-weight="bold" lengthAdjust="spacing" textLength="9" x="133.5" y="231.0591">4</text><text fill="#000000" font-family="sans-serif" font-size="13" lengthAdjust="spacing" textLength="218" x="146.5" y="231.0591">types requested data (skillName)</text><polygon fill="#181818" points="137.5,261.2578,127.5,265.2578,137.5,269.2578,133.5,265.2578" style="stroke:#181818;stroke-width:1.0;"/><line style="stroke:#181818;stroke-width:1.0;stroke-dasharray:2.0,2.0;" x1="131.5" x2="437.5" y1="265.2578" y2="265.2578"/><text fill="#000000" font-family="sans-serif" font-size="13" font-weight="bold" lengthAdjust="spacing" textLength="9" x="143.5" y="260.1919">5</text><text fill="#000000" font-family="sans-serif" font-size="13" lengthAdjust="spacing" textLength="270" x="156.5" y="260.1919">show all data registered  for confirmation</text><polygon fill="#181818" points="421.5,290.3906,431.5,294.3906,421.5,298.3906,425.5,294.3906" style="stroke:#181818;stroke-width:1.0;"/><line style="stroke:#181818;stroke-width:1.0;" x1="126.5" x2="427.5" y1="294.3906" y2="294.3906"/><text fill="#000000" font-family="sans-serif" font-size="13" font-weight="bold" lengthAdjust="spacing" textLength="9" x="133.5" y="289.3247">6</text><text fill="#000000" font-family="sans-serif" font-size="13" lengthAdjust="spacing" textLength="85" x="146.5" y="289.3247">submits data</text><polygon fill="#181818" points="617.5,326.5234,627.5,330.5234,617.5,334.5234,621.5,330.5234" style="stroke:#181818;stroke-width:1.0;"/><line style="stroke:#181818;stroke-width:1.0;" x1="443.5" x2="623.5" y1="330.5234" y2="330.5234"/><text fill="#000000" font-family="sans-serif" font-size="13" font-weight="bold" lengthAdjust="spacing" textLength="9" x="450.5" y="325.4575">7</text><text fill="#000000" font-family="sans-serif" font-size="13" lengthAdjust="spacing" textLength="154" x="463.5" y="325.4575">registerSkill(skillName)</text><polygon fill="#181818" points="1012.5,355.6563,1022.5,359.6563,1012.5,363.6563,1016.5,359.6563" style="stroke:#181818;stroke-width:1.0;"/><line style="stroke:#181818;stroke-width:1.0;" x1="634.5" x2="1018.5" y1="359.6563" y2="359.6563"/><text fill="#000000" font-family="sans-serif" font-size="13" font-weight="bold" lengthAdjust="spacing" textLength="9" x="641.5" y="354.5903">8</text><text fill="#000000" font-family="sans-serif" font-size="13" lengthAdjust="spacing" textLength="154" x="654.5" y="354.5903">registerSkill(skillName)</text><polygon fill="#181818" points="1185.5,384.7891,1195.5,388.7891,1185.5,392.7891,1189.5,388.7891" style="stroke:#181818;stroke-width:1.0;"/><line style="stroke:#181818;stroke-width:1.0;" x1="1034.5" x2="1191.5" y1="388.7891" y2="388.7891"/><text fill="#000000" font-family="sans-serif" font-size="13" font-weight="bold" lengthAdjust="spacing" textLength="9" x="1041.5" y="383.7231">9</text><text fill="#000000" font-family="sans-serif" font-size="13" lengthAdjust="spacing" textLength="126" x="1054.5" y="383.7231">register(skillName)</text><rect fill="#E3E3E3" height="46.5938" rx="2.5" ry="2.5" style="stroke:#181818;stroke-width:0.5;" width="48" x="1197.5" y="367.6563"/><text fill="#000000" font-family="sans-serif" font-size="14" lengthAdjust="spacing" textLength="27" x="1208" y="387.6514">skill</text><text fill="#000000" font-family="sans-serif" font-size="14" lengthAdjust="spacing" textLength="34" x="1204.5" y="403.9482">:Skill</text><line style="stroke:#181818;stroke-width:1.0;" x1="1226.5" x2="1273.5" y1="441.3828" y2="441.3828"/><line style="stroke:#181818;stroke-width:1.0;" x1="1273.5" x2="1273.5" y1="441.3828" y2="454.3828"/><line style="stroke:#181818;stroke-width:1.0;" x1="1232.5" x2="1273.5" y1="454.3828" y2="454.3828"/><polygon fill="#181818" points="1242.5,450.3828,1232.5,454.3828,1242.5,458.3828,1238.5,454.3828" style="stroke:#181818;stroke-width:1.0;"/><text fill="#000000" font-family="sans-serif" font-size="13" font-weight="bold" lengthAdjust="spacing" textLength="18" x="1238.5" y="436.3169">10</text><text fill="#000000" font-family="sans-serif" font-size="13" lengthAdjust="spacing" textLength="196" x="1260.5" y="436.3169">validateSkillName(skillName)</text><line style="stroke:#181818;stroke-width:1.0;stroke-dasharray:2.0,2.0;" x1="1231.5" x2="1273.5" y1="493.5156" y2="493.5156"/><line style="stroke:#181818;stroke-width:1.0;stroke-dasharray:2.0,2.0;" x1="1273.5" x2="1273.5" y1="493.5156" y2="506.5156"/><line style="stroke:#181818;stroke-width:1.0;stroke-dasharray:2.0,2.0;" x1="1226.5" x2="1273.5" y1="506.5156" y2="506.5156"/><polygon fill="#181818" points="1236.5,502.5156,1226.5,506.5156,1236.5,510.5156,1232.5,506.5156" style="stroke:#181818;stroke-width:1.0;"/><text fill="#000000" font-family="sans-serif" font-size="13" font-weight="bold" lengthAdjust="spacing" textLength="18" x="1238.5" y="488.4497">11</text><text fill="#000000" font-family="sans-serif" font-size="13" lengthAdjust="spacing" textLength="4" x="1260.5" y="488.4497">&#160;</text><line style="stroke:#181818;stroke-width:1.0;" x1="1039.5" x2="1081.5" y1="530.6484" y2="530.6484"/><line style="stroke:#181818;stroke-width:1.0;" x1="1081.5" x2="1081.5" y1="530.6484" y2="543.6484"/><line style="stroke:#181818;stroke-width:1.0;" x1="1040.5" x2="1081.5" y1="543.6484" y2="543.6484"/><polygon fill="#181818" points="1050.5,539.6484,1040.5,543.6484,1050.5,547.6484,1046.5,543.6484" style="stroke:#181818;stroke-width:1.0;"/><text fill="#000000" font-family="sans-serif" font-size="13" font-weight="bold" lengthAdjust="spacing" textLength="18" x="1046.5" y="525.5825">12</text><text fill="#000000" font-family="sans-serif" font-size="13" lengthAdjust="spacing" textLength="89" x="1068.5" y="525.5825">addSkill(skill)</text><line style="stroke:#181818;stroke-width:1.0;" x1="1039.5" x2="1086.5" y1="567.7813" y2="567.7813"/><line style="stroke:#181818;stroke-width:1.0;" x1="1086.5" x2="1086.5" y1="567.7813" y2="580.7813"/><line style="stroke:#181818;stroke-width:1.0;" x1="1045.5" x2="1086.5" y1="580.7813" y2="580.7813"/><polygon fill="#181818" points="1055.5,576.7813,1045.5,580.7813,1055.5,584.7813,1051.5,580.7813" style="stroke:#181818;stroke-width:1.0;"/><text fill="#000000" font-family="sans-serif" font-size="13" font-weight="bold" lengthAdjust="spacing" textLength="18" x="1051.5" y="562.7153">13</text><text fill="#000000" font-family="sans-serif" font-size="13" lengthAdjust="spacing" textLength="118" x="1073.5" y="562.7153">validateSkill(skill)</text><line style="stroke:#181818;stroke-width:1.0;stroke-dasharray:2.0,2.0;" x1="1044.5" x2="1086.5" y1="619.9141" y2="619.9141"/><line style="stroke:#181818;stroke-width:1.0;stroke-dasharray:2.0,2.0;" x1="1086.5" x2="1086.5" y1="619.9141" y2="632.9141"/><line style="stroke:#181818;stroke-width:1.0;stroke-dasharray:2.0,2.0;" x1="1039.5" x2="1086.5" y1="632.9141" y2="632.9141"/><polygon fill="#181818" points="1049.5,628.9141,1039.5,632.9141,1049.5,636.9141,1045.5,632.9141" style="stroke:#181818;stroke-width:1.0;"/><text fill="#000000" font-family="sans-serif" font-size="13" font-weight="bold" lengthAdjust="spacing" textLength="18" x="1051.5" y="614.8481">14</text><text fill="#000000" font-family="sans-serif" font-size="13" lengthAdjust="spacing" textLength="4" x="1073.5" y="614.8481">&#160;</text><line style="stroke:#181818;stroke-width:1.0;stroke-dasharray:2.0,2.0;" x1="1039.5" x2="1081.5" y1="662.0469" y2="662.0469"/><line style="stroke:#181818;stroke-width:1.0;stroke-dasharray:2.0,2.0;" x1="1081.5" x2="1081.5" y1="662.0469" y2="675.0469"/><line style="stroke:#181818;stroke-width:1.0;stroke-dasharray:2.0,2.0;" x1="1034.5" x2="1081.5" y1="675.0469" y2="675.0469"/><polygon fill="#181818" points="1044.5,671.0469,1034.5,675.0469,1044.5,679.0469,1040.5,675.0469" style="stroke:#181818;stroke-width:1.0;"/><text fill="#000000" font-family="sans-serif" font-size="13" font-weight="bold" lengthAdjust="spacing" textLength="18" x="1046.5" y="656.981">15</text><text fill="#000000" font-family="sans-serif" font-size="13" lengthAdjust="spacing" textLength="4" x="1068.5" y="656.981">&#160;</text><polygon fill="#181818" points="650.5,695.1797,640.5,699.1797,650.5,703.1797,646.5,699.1797" style="stroke:#181818;stroke-width:1.0;"/><line style="stroke:#181818;stroke-width:1.0;stroke-dasharray:2.0,2.0;" x1="644.5" x2="1028.5" y1="699.1797" y2="699.1797"/><text fill="#000000" font-family="sans-serif" font-size="13" font-weight="bold" lengthAdjust="spacing" textLength="18" x="656.5" y="694.1138">16</text><text fill="#000000" font-family="sans-serif" font-size="13" lengthAdjust="spacing" textLength="27" x="678.5" y="694.1138">skill</text><polygon fill="#181818" points="454.5,724.3125,444.5,728.3125,454.5,732.3125,450.5,728.3125" style="stroke:#181818;stroke-width:1.0;"/><line style="stroke:#181818;stroke-width:1.0;stroke-dasharray:2.0,2.0;" x1="448.5" x2="633.5" y1="728.3125" y2="728.3125"/><text fill="#000000" font-family="sans-serif" font-size="13" font-weight="bold" lengthAdjust="spacing" textLength="18" x="460.5" y="723.2466">17</text><text fill="#000000" font-family="sans-serif" font-size="13" lengthAdjust="spacing" textLength="27" x="482.5" y="723.2466">skill</text><polygon fill="#181818" points="132.5,753.4453,122.5,757.4453,132.5,761.4453,128.5,757.4453" style="stroke:#181818;stroke-width:1.0;"/><line style="stroke:#181818;stroke-width:1.0;stroke-dasharray:2.0,2.0;" x1="126.5" x2="437.5" y1="757.4453" y2="757.4453"/><text fill="#000000" font-family="sans-serif" font-size="13" font-weight="bold" lengthAdjust="spacing" textLength="18" x="138.5" y="752.3794">18</text><text fill="#000000" font-family="sans-serif" font-size="13" lengthAdjust="spacing" textLength="166" x="160.5" y="752.3794">shows operation success.</text><!--SRC=[lLPDR-8m4BtxLunweI2nFu13fLLLRP5WjuBsjXUJ362Hs5dRQPT_lnD3lkr0sztrZMJclJSVVi4SXCouvYcaIgfehrMAO7MEp5HlCXuT-0xNzfWWQ8mibxka6M3sF5PlGkvWonE3ZF7SAfcd6zICZVOYHjWgPJVgD-EHLHfk7lEKIrYXKRcEqC2IIsBGDy0DFAwMZ72jY4J6fOMRsGftmbZKwuD8afUvYtgP3mNTAscrIf8pvFtpQj4BpvGH94QWSJ7LW-DQ5FLH1UqKtSZuAVi0Juklp-qCKqYfSIbftNxYyZfH7eWoqOK_B9zM3zz-iAALufLRT0rZS3xq0wPtr1wOKVJ1W5KqirDhW8F4jnCXgrCg8EffzP002APet6H2K956Yg2a4JHE7KGXExHEvOAuRiVjm8h2JMBKVbaSXq5OdYcSeEVIqDv5s4LkeVjcw24hZezeUYvc1irPz_DZV2zZMLwn8urMrTc3PRdD2jJX46lXffn0Ow66z8UWIy6TvRmmvfRgxbu72kWoJEkDgeePBE4AdbCrvRK8m3OWtPRsLvq0Ykj527jrlaQG53Y9KXaBHclybQEn47FBuTQbVUSfZfc7kRY2h7kFxJ4ZZpp3OEm72jxYjcfEcbr-QGg4H-wi8L9oAtJAhQ0L3YZpcOp9Dwcmne4oxo9G9igOiQ1pwAPr-nhKjv0ssi36NedkMu2hDzkZfhVLTwLnJoQrfAQQC5tb-BxhStxP8A26ll94q3nmNS8FbUtbWi2fw6g-eJvUWhlGijuiUHmtnZZ-MzJ1oSALvnhjhQ642lXd2aDM-r6y0GDc_rlFPxLS-WHzLiIx1dooju4lM4ZK9VkglmMdJu41bQ5sVayc7j7VSFE51Po_ywJun_a7]--></g></svg>