<?xml version="1.0" encoding="us-ascii" standalone="no"?><svg xmlns="http://www.w3.org/2000/svg" xmlns:xlink="http://www.w3.org/1999/xlink" contentStyleType="text/css" height="874px" preserveAspectRatio="none" style="width:649px;height:874px;background:#FFFFFF;" version="1.1" viewBox="0 0 649 874" width="649px" zoomAndPan="magnify"><defs/><g><rect fill="#FFFFFF" height="679.334" style="stroke:#181818;stroke-width:1.0;" width="10" x="76" y="93.6211"/><rect fill="#FFFFFF" height="232.998" style="stroke:#181818;stroke-width:1.0;" width="10" x="286" y="116.9121"/><rect fill="#FFFFFF" height="31.291" style="stroke:#181818;stroke-width:1.0;" width="10" x="286" y="381.2012"/><rect fill="#FFFFFF" height="329.1719" style="stroke:#181818;stroke-width:1.0;" width="10" x="286" y="443.7832"/><rect fill="#FFFFFF" height="95.5039" style="stroke:#181818;stroke-width:1.0;" width="10" x="448" y="191.8242"/><rect fill="#FFFFFF" height="101.5039" style="stroke:#181818;stroke-width:1.0;" width="10" x="448" y="475.0742"/><rect fill="#FFFFFF" height="126.7949" style="stroke:#181818;stroke-width:1.0;" width="10" x="448" y="614.8691"/><rect fill="#FFFFFF" height="95.5039" style="stroke:#181818;stroke-width:1.0;" width="10" x="586" y="614.8691"/><line style="stroke:#181818;stroke-width:0.5;stroke-dasharray:5.0,5.0;" x1="81" x2="81" y1="83.6211" y2="790.9551"/><line style="stroke:#181818;stroke-width:0.5;stroke-dasharray:5.0,5.0;" x1="291" x2="291" y1="83.6211" y2="790.9551"/><line style="stroke:#181818;stroke-width:0.5;stroke-dasharray:5.0,5.0;" x1="453" x2="453" y1="156.7227" y2="790.9551"/><line style="stroke:#181818;stroke-width:0.5;stroke-dasharray:5.0,5.0;" x1="591" x2="591" y1="83.6211" y2="790.9551"/><text fill="#000000" font-family="sans-serif" font-size="14" lengthAdjust="spacing" textLength="146" x="5" y="80.1074">Organization Employee</text><ellipse cx="81" cy="13.5" fill="#E3E3E3" rx="8" ry="8" style="stroke:#181818;stroke-width:0.5;"/><path d="M81,21.5 L81,48.5 M68,29.5 L94,29.5 M81,48.5 L68,63.5 M81,48.5 L94,63.5 " fill="none" style="stroke:#181818;stroke-width:0.5;"/><text fill="#000000" font-family="sans-serif" font-size="14" lengthAdjust="spacing" textLength="146" x="5" y="805.0625">Organization Employee</text><ellipse cx="81" cy="817.0762" fill="#E3E3E3" rx="8" ry="8" style="stroke:#181818;stroke-width:0.5;"/><path d="M81,825.0762 L81,852.0762 M68,833.0762 L94,833.0762 M81,852.0762 L68,867.0762 M81,852.0762 L94,867.0762 " fill="none" style="stroke:#181818;stroke-width:0.5;"/><rect fill="#E3E3E3" height="32.6211" rx="2.5" ry="2.5" style="stroke:#181818;stroke-width:0.5;" width="104" x="239" y="50"/><text fill="#000000" font-family="sans-serif" font-size="14" lengthAdjust="spacing" textLength="90" x="246" y="72.1074">:CreateTaskUI</text><rect fill="#E3E3E3" height="32.6211" rx="2.5" ry="2.5" style="stroke:#181818;stroke-width:0.5;" width="104" x="239" y="789.9551"/><text fill="#000000" font-family="sans-serif" font-size="14" lengthAdjust="spacing" textLength="90" x="246" y="812.0625">:CreateTaskUI</text><rect fill="#E3E3E3" height="32.6211" rx="2.5" ry="2.5" style="stroke:#181818;stroke-width:0.5;" width="158" x="374" y="789.9551"/><text fill="#000000" font-family="sans-serif" font-size="14" lengthAdjust="spacing" textLength="144" x="381" y="812.0625">:RegisterSkillController</text><rect fill="#E3E3E3" height="51.2422" rx="2.5" ry="2.5" style="stroke:#181818;stroke-width:0.5;" width="98" x="542" y="31.3789"/><text fill="#000000" font-family="sans-serif" font-size="14" lengthAdjust="spacing" textLength="77" x="552.5" y="53.4863">organization</text><text fill="#000000" font-family="sans-serif" font-size="14" lengthAdjust="spacing" textLength="84" x="549" y="72.1074">:Organization</text><rect fill="#E3E3E3" height="51.2422" rx="2.5" ry="2.5" style="stroke:#181818;stroke-width:0.5;" width="98" x="542" y="789.9551"/><text fill="#000000" font-family="sans-serif" font-size="14" lengthAdjust="spacing" textLength="77" x="552.5" y="812.0625">organization</text><text fill="#000000" font-family="sans-serif" font-size="14" lengthAdjust="spacing" textLength="84" x="549" y="830.6836">:Organization</text><rect fill="#FFFFFF" height="679.334" style="stroke:#181818;stroke-width:1.0;" width="10" x="76" y="93.6211"/><rect fill="#FFFFFF" height="232.998" style="stroke:#181818;stroke-width:1.0;" width="10" x="286" y="116.9121"/><rect fill="#FFFFFF" height="31.291" style="stroke:#181818;stroke-width:1.0;" width="10" x="286" y="381.2012"/><rect fill="#FFFFFF" height="329.1719" style="stroke:#181818;stroke-width:1.0;" width="10" x="286" y="443.7832"/><rect fill="#FFFFFF" height="95.5039" style="stroke:#181818;stroke-width:1.0;" width="10" x="448" y="191.8242"/><rect fill="#FFFFFF" height="101.5039" style="stroke:#181818;stroke-width:1.0;" width="10" x="448" y="475.0742"/><rect fill="#FFFFFF" height="126.7949" style="stroke:#181818;stroke-width:1.0;" width="10" x="448" y="614.8691"/><rect fill="#FFFFFF" height="95.5039" style="stroke:#181818;stroke-width:1.0;" width="10" x="586" y="614.8691"/><polygon fill="#181818" points="274,112.9121,284,116.9121,274,120.9121,278,116.9121" style="stroke:#181818;stroke-width:1.0;"/><line style="stroke:#181818;stroke-width:1.0;" x1="86" x2="280" y1="116.9121" y2="116.9121"/><text fill="#000000" font-family="sans-serif" font-size="13" font-weight="bold" lengthAdjust="spacing" textLength="7" x="93" y="111.6494">1</text><text fill="#000000" font-family="sans-serif" font-size="13" lengthAdjust="spacing" textLength="155" x="104" y="111.6494">asks to register a new skill</text><polygon fill="#181818" points="362,144.2031,372,148.2031,362,152.2031,366,148.2031" style="stroke:#181818;stroke-width:1.0;"/><line style="stroke:#181818;stroke-width:1.0;" x1="296" x2="368" y1="148.2031" y2="148.2031"/><text fill="#000000" font-family="sans-serif" font-size="13" font-weight="bold" lengthAdjust="spacing" textLength="7" x="303" y="142.9404">2</text><text fill="#000000" font-family="sans-serif" font-size="13" lengthAdjust="spacing" textLength="43" x="314" y="142.9404">register</text><rect fill="#E3E3E3" height="32.6211" rx="2.5" ry="2.5" style="stroke:#181818;stroke-width:0.5;" width="158" x="374" y="124.9121"/><text fill="#000000" font-family="sans-serif" font-size="14" lengthAdjust="spacing" textLength="144" x="381" y="147.0195">:RegisterSkillController</text><polygon fill="#181818" points="436,187.8242,446,191.8242,436,195.8242,440,191.8242" style="stroke:#181818;stroke-width:1.0;"/><line style="stroke:#181818;stroke-width:1.0;" x1="296" x2="442" y1="191.8242" y2="191.8242"/><text fill="#000000" font-family="sans-serif" font-size="13" font-weight="bold" lengthAdjust="spacing" textLength="7" x="303" y="186.5615">3</text><text fill="#000000" font-family="sans-serif" font-size="13" lengthAdjust="spacing" textLength="72" x="314" y="186.5615">getSkillList()</text><rect fill="none" height="59.2129" style="stroke:#000000;stroke-width:1.5;" width="164" x="371" y="199.8242"/><path d="M371,199.8242 L433,199.8242 L433,208.8242 L423,218.8242 L371,218.8242 L371,199.8242 " fill="#EEEEEE" style="stroke:#000000;stroke-width:2.0;"/><text fill="#000000" font-family="sans-serif" font-size="13" font-weight="bold" lengthAdjust="spacing" textLength="17" x="384" y="215.8525">ref</text><text fill="#000000" font-family="sans-serif" font-size="12" lengthAdjust="spacing" textLength="68" x="419" y="235.7734">Get Skill List</text><text fill="#000000" font-family="sans-serif" font-size="12" lengthAdjust="spacing" textLength="3" x="451.5" y="251.7344">&#160;</text><polygon fill="#181818" points="307,283.3281,297,287.3281,307,291.3281,303,287.3281" style="stroke:#181818;stroke-width:1.0;"/><line style="stroke:#181818;stroke-width:1.0;stroke-dasharray:2.0,2.0;" x1="301" x2="452" y1="287.3281" y2="287.3281"/><text fill="#000000" font-family="sans-serif" font-size="13" font-weight="bold" lengthAdjust="spacing" textLength="7" x="313" y="282.0654">4</text><text fill="#000000" font-family="sans-serif" font-size="13" lengthAdjust="spacing" textLength="44" x="324" y="282.0654">skillList</text><polygon fill="#181818" points="97,314.6191,87,318.6191,97,322.6191,93,318.6191" style="stroke:#181818;stroke-width:1.0;"/><line style="stroke:#181818;stroke-width:1.0;stroke-dasharray:2.0,2.0;" x1="91" x2="285" y1="318.6191" y2="318.6191"/><text fill="#000000" font-family="sans-serif" font-size="13" font-weight="bold" lengthAdjust="spacing" textLength="7" x="103" y="313.3564">5</text><text fill="#000000" font-family="sans-serif" font-size="13" lengthAdjust="spacing" textLength="78" x="114" y="313.3564">show skill list</text><polygon fill="#181818" points="97,345.9102,87,349.9102,97,353.9102,93,349.9102" style="stroke:#181818;stroke-width:1.0;"/><line style="stroke:#181818;stroke-width:1.0;stroke-dasharray:2.0,2.0;" x1="91" x2="290" y1="349.9102" y2="349.9102"/><text fill="#000000" font-family="sans-serif" font-size="13" font-weight="bold" lengthAdjust="spacing" textLength="7" x="103" y="344.6475">6</text><text fill="#000000" font-family="sans-serif" font-size="13" lengthAdjust="spacing" textLength="116" x="114" y="344.6475">request data (name)</text><polygon fill="#181818" points="274,377.2012,284,381.2012,274,385.2012,278,381.2012" style="stroke:#181818;stroke-width:1.0;"/><line style="stroke:#181818;stroke-width:1.0;" x1="86" x2="280" y1="381.2012" y2="381.2012"/><text fill="#000000" font-family="sans-serif" font-size="13" font-weight="bold" lengthAdjust="spacing" textLength="7" x="93" y="375.9385">7</text><text fill="#000000" font-family="sans-serif" font-size="13" lengthAdjust="spacing" textLength="166" x="104" y="375.9385">types requested data (name)</text><polygon fill="#181818" points="97,408.4922,87,412.4922,97,416.4922,93,412.4922" style="stroke:#181818;stroke-width:1.0;"/><line style="stroke:#181818;stroke-width:1.0;stroke-dasharray:2.0,2.0;" x1="91" x2="290" y1="412.4922" y2="412.4922"/><text fill="#000000" font-family="sans-serif" font-size="13" font-weight="bold" lengthAdjust="spacing" textLength="7" x="103" y="407.2295">8</text><text fill="#000000" font-family="sans-serif" font-size="13" lengthAdjust="spacing" textLength="163" x="114" y="407.2295">shows requested data typed</text><polygon fill="#181818" points="274,439.7832,284,443.7832,274,447.7832,278,443.7832" style="stroke:#181818;stroke-width:1.0;"/><line style="stroke:#181818;stroke-width:1.0;" x1="86" x2="280" y1="443.7832" y2="443.7832"/><text fill="#000000" font-family="sans-serif" font-size="13" font-weight="bold" lengthAdjust="spacing" textLength="7" x="93" y="438.5205">9</text><text fill="#000000" font-family="sans-serif" font-size="13" lengthAdjust="spacing" textLength="75" x="104" y="438.5205">submits data</text><polygon fill="#181818" points="436,471.0742,446,475.0742,436,479.0742,440,475.0742" style="stroke:#181818;stroke-width:1.0;"/><line style="stroke:#181818;stroke-width:1.0;" x1="296" x2="442" y1="475.0742" y2="475.0742"/><text fill="#000000" font-family="sans-serif" font-size="13" font-weight="bold" lengthAdjust="spacing" textLength="14" x="303" y="469.8115">10</text><text fill="#000000" font-family="sans-serif" font-size="13" lengthAdjust="spacing" textLength="108" x="321" y="469.8115">registerSkill(name)</text><rect fill="none" height="59.2129" style="stroke:#000000;stroke-width:1.5;" width="164" x="371" y="483.0742"/><path d="M371,483.0742 L433,483.0742 L433,492.0742 L423,502.0742 L371,502.0742 L371,483.0742 " fill="#EEEEEE" style="stroke:#000000;stroke-width:2.0;"/><text fill="#000000" font-family="sans-serif" font-size="13" font-weight="bold" lengthAdjust="spacing" textLength="17" x="384" y="499.1025">ref</text><text fill="#000000" font-family="sans-serif" font-size="12" lengthAdjust="spacing" textLength="68" x="419" y="519.0234">Get Skill List</text><text fill="#000000" font-family="sans-serif" font-size="12" lengthAdjust="spacing" textLength="3" x="451.5" y="534.9844">&#160;</text><line style="stroke:#181818;stroke-width:1.0;stroke-dasharray:2.0,2.0;" x1="458" x2="500" y1="575.5781" y2="575.5781"/><line style="stroke:#181818;stroke-width:1.0;stroke-dasharray:2.0,2.0;" x1="500" x2="500" y1="575.5781" y2="588.5781"/><line style="stroke:#181818;stroke-width:1.0;stroke-dasharray:2.0,2.0;" x1="453" x2="500" y1="588.5781" y2="588.5781"/><polygon fill="#181818" points="463,584.5781,453,588.5781,463,592.5781,459,588.5781" style="stroke:#181818;stroke-width:1.0;"/><text fill="#000000" font-family="sans-serif" font-size="13" font-weight="bold" lengthAdjust="spacing" textLength="14" x="465" y="570.3154">11</text><text fill="#000000" font-family="sans-serif" font-size="13" lengthAdjust="spacing" textLength="44" x="483" y="570.3154">skillList</text><polygon fill="#181818" points="574,610.8691,584,614.8691,574,618.8691,578,614.8691" style="stroke:#181818;stroke-width:1.0;"/><line style="stroke:#181818;stroke-width:1.0;" x1="458" x2="580" y1="614.8691" y2="614.8691"/><text fill="#000000" font-family="sans-serif" font-size="13" font-weight="bold" lengthAdjust="spacing" textLength="14" x="465" y="609.6064">12</text><text fill="#000000" font-family="sans-serif" font-size="13" lengthAdjust="spacing" textLength="83" x="483" y="609.6064">register(name)</text><rect fill="none" height="59.2129" style="stroke:#000000;stroke-width:1.5;" width="104" x="539" y="622.8691"/><path d="M539,622.8691 L601,622.8691 L601,631.8691 L591,641.8691 L539,641.8691 L539,622.8691 " fill="#EEEEEE" style="stroke:#000000;stroke-width:2.0;"/><text fill="#000000" font-family="sans-serif" font-size="13" font-weight="bold" lengthAdjust="spacing" textLength="17" x="552" y="638.8975">ref</text><text fill="#000000" font-family="sans-serif" font-size="12" lengthAdjust="spacing" textLength="73" x="554.5" y="658.8184">Register Skill</text><text fill="#000000" font-family="sans-serif" font-size="12" lengthAdjust="spacing" textLength="3" x="589.5" y="674.7793">&#160;</text><polygon fill="#181818" points="469,706.373,459,710.373,469,714.373,465,710.373" style="stroke:#181818;stroke-width:1.0;"/><line style="stroke:#181818;stroke-width:1.0;stroke-dasharray:2.0,2.0;" x1="463" x2="590" y1="710.373" y2="710.373"/><text fill="#000000" font-family="sans-serif" font-size="13" font-weight="bold" lengthAdjust="spacing" textLength="14" x="475" y="705.1104">13</text><text fill="#000000" font-family="sans-serif" font-size="13" lengthAdjust="spacing" textLength="25" x="493" y="705.1104">Skill</text><polygon fill="#181818" points="307,737.6641,297,741.6641,307,745.6641,303,741.6641" style="stroke:#181818;stroke-width:1.0;"/><line style="stroke:#181818;stroke-width:1.0;stroke-dasharray:2.0,2.0;" x1="301" x2="452" y1="741.6641" y2="741.6641"/><text fill="#000000" font-family="sans-serif" font-size="13" font-weight="bold" lengthAdjust="spacing" textLength="14" x="313" y="736.4014">14</text><text fill="#000000" font-family="sans-serif" font-size="13" lengthAdjust="spacing" textLength="23" x="331" y="736.4014">skill</text><polygon fill="#181818" points="92,768.9551,82,772.9551,92,776.9551,88,772.9551" style="stroke:#181818;stroke-width:1.0;"/><line style="stroke:#181818;stroke-width:1.0;stroke-dasharray:2.0,2.0;" x1="86" x2="290" y1="772.9551" y2="772.9551"/><text fill="#000000" font-family="sans-serif" font-size="13" font-weight="bold" lengthAdjust="spacing" textLength="14" x="98" y="767.6924">15</text><text fill="#000000" font-family="sans-serif" font-size="13" lengthAdjust="spacing" textLength="158" x="116" y="767.6924">displays operation success</text><!--SRC=[bLJ1Rjim3BtxAuXSrXRe3-HGOCY6ea270cbxsuMn6KUmBBaYtJRx-aboxCYrasKwsIBVUzGZ9QwKQT1X3RKrDjyvMnE8QodZ8T9WNc59pxBN18voGLFgD85tMDWFPKhOecRACcp5chRUaCkoRpjL46ojbOtzp30Nws3nv4eqwW-AiWP-ressUw858CFt7xyopoegLmqQWSLovGY5Nf2hruUOylhm9MDDfM8XzrmfhLVMYBDQaul9gvVrupZT9jg_pJ8j9IAUrlTPg5EzUzbOJmP- -G-ulVFYiFHP5ODORqOd30Y6Fe23VfSzu7snSICiZ_KCeQAR6y_IesVYFbgInFCy-fohwo77qHRikvUC1uDatPD0H42075N9505rt1XgYnGZZgXzsn-JU_qXfw0Ju52wXmMJF6vd3sQ0Jj6Z94TlBR50WO9mPR2cwuukqGZcpUrzxOVi6-AUaOeHvzbkZ4gUC0JQuX9zRZUr4eweIzgVD3zsB2brfa7Z5fqVWdyDmycXc4p0eSxf3CpEmNz4EuMxSC-EDgG3SC6S3g5uMK_Q4w9pxlGFHcVHh3lJJK-M6jD1JnnxKbPoiGwUddKiZHtdT0c5uaRZdi4svBhNaziy9-QvCKr-mpFs5m00]--></g></svg>