<?xml version="1.0" encoding="us-ascii" standalone="no"?><svg xmlns="http://www.w3.org/2000/svg" xmlns:xlink="http://www.w3.org/1999/xlink" contentStyleType="text/css" height="941px" preserveAspectRatio="none" style="width:1227px;height:941px;background:#FFFFFF;" version="1.1" viewBox="0 0 1227 941" width="1227px" zoomAndPan="magnify"><defs/><g><rect fill="#FFFFFF" height="751.5469" style="stroke:#181818;stroke-width:1.0;" width="10" x="101.5" y="91.2969"/><rect fill="#FFFFFF" height="70.4297" style="stroke:#181818;stroke-width:1.0;" width="10" x="418.5" y="112.4297"/><rect fill="#FFFFFF" height="29.1328" style="stroke:#181818;stroke-width:1.0;" width="10" x="418.5" y="211.9922"/><rect fill="#FFFFFF" height="572.5859" style="stroke:#181818;stroke-width:1.0;" width="10" x="418.5" y="270.2578"/><rect fill="#FFFFFF" height="514.3203" style="stroke:#181818;stroke-width:1.0;" width="10" x="614.5" y="299.3906"/><rect fill="#FFFFFF" height="156.6641" style="stroke:#181818;stroke-width:1.0;" width="10" x="619.5" y="336.5234"/><rect fill="#FFFFFF" height="29.1328" style="stroke:#181818;stroke-width:1.0;" width="10" x="780.5" y="370.6563"/><rect fill="#FFFFFF" height="29.1328" style="stroke:#181818;stroke-width:1.0;" width="10" x="897.5" y="428.9219"/><rect fill="#FFFFFF" height="255.2578" style="stroke:#181818;stroke-width:1.0;" width="10" x="1023" y="529.3203"/><rect fill="#FFFFFF" height="124.3984" style="stroke:#181818;stroke-width:1.0;" width="10" x="1028" y="624.0469"/><rect fill="#FFFFFF" height="40.1328" style="stroke:#181818;stroke-width:1.0;" width="10" x="1033" y="666.1797"/><line style="stroke:#181818;stroke-width:0.5;stroke-dasharray:5.0,5.0;" x1="106" x2="106" y1="81.2969" y2="860.8438"/><line style="stroke:#181818;stroke-width:0.5;stroke-dasharray:5.0,5.0;" x1="423" x2="423" y1="81.2969" y2="860.8438"/><line style="stroke:#181818;stroke-width:0.5;stroke-dasharray:5.0,5.0;" x1="619.5" x2="619.5" y1="151.0781" y2="860.8438"/><line style="stroke:#181818;stroke-width:0.5;stroke-dasharray:5.0,5.0;" x1="785" x2="785" y1="81.2969" y2="860.8438"/><line style="stroke:#181818;stroke-width:0.5;stroke-dasharray:5.0,5.0;" x1="902" x2="902" y1="81.2969" y2="860.8438"/><line style="stroke:#181818;stroke-width:0.5;stroke-dasharray:5.0,5.0;" x1="1028" x2="1028" y1="81.2969" y2="860.8438"/><line style="stroke:#181818;stroke-width:0.5;stroke-dasharray:5.0,5.0;" x1="1197" x2="1197" y1="576.1172" y2="860.8438"/><text fill="#000000" font-family="sans-serif" font-size="14" lengthAdjust="spacing" textLength="197" x="5" y="77.9951">Human Resources Manager</text><ellipse cx="106.5" cy="13.5" fill="#E3E3E3" rx="8" ry="8" style="stroke:#181818;stroke-width:0.5;"/><path d="M106.5,21.5 L106.5,48.5 M93.5,29.5 L119.5,29.5 M106.5,48.5 L93.5,63.5 M106.5,48.5 L119.5,63.5 " fill="none" style="stroke:#181818;stroke-width:0.5;"/><text fill="#000000" font-family="sans-serif" font-size="14" lengthAdjust="spacing" textLength="197" x="5" y="872.8389">Human Resources Manager</text><ellipse cx="106.5" cy="884.6406" fill="#E3E3E3" rx="8" ry="8" style="stroke:#181818;stroke-width:0.5;"/><path d="M106.5,892.6406 L106.5,919.6406 M93.5,900.6406 L119.5,900.6406 M106.5,919.6406 L93.5,934.6406 M106.5,919.6406 L119.5,934.6406 " fill="none" style="stroke:#181818;stroke-width:0.5;"/><rect fill="#E3E3E3" height="30.2969" rx="2.5" ry="2.5" style="stroke:#181818;stroke-width:0.5;" width="121" x="363" y="50"/><text fill="#000000" font-family="sans-serif" font-size="14" lengthAdjust="spacing" textLength="107" x="370" y="69.9951">:RegisterSkillUI</text><rect fill="#E3E3E3" height="30.2969" rx="2.5" ry="2.5" style="stroke:#181818;stroke-width:0.5;" width="121" x="363" y="859.8438"/><text fill="#000000" font-family="sans-serif" font-size="14" lengthAdjust="spacing" textLength="107" x="370" y="879.8389">:RegisterSkillUI</text><rect fill="#E3E3E3" height="30.2969" rx="2.5" ry="2.5" style="stroke:#181818;stroke-width:0.5;" width="178" x="530.5" y="859.8438"/><text fill="#000000" font-family="sans-serif" font-size="14" lengthAdjust="spacing" textLength="164" x="537.5" y="879.8389">:RegisterSkillController</text><rect fill="#E3E3E3" height="30.2969" rx="2.5" ry="2.5" style="stroke:#181818;stroke-width:0.5;" width="107" x="732" y="50"/><text fill="#000000" font-family="sans-serif" font-size="14" lengthAdjust="spacing" textLength="93" x="739" y="69.9951">:Repositories</text><rect fill="#E3E3E3" height="30.2969" rx="2.5" ry="2.5" style="stroke:#181818;stroke-width:0.5;" width="107" x="732" y="859.8438"/><text fill="#000000" font-family="sans-serif" font-size="14" lengthAdjust="spacing" textLength="93" x="739" y="879.8389">:Repositories</text><rect fill="#E3E3E3" height="46.5938" rx="2.5" ry="2.5" style="stroke:#181818;stroke-width:0.5;" width="107" x="849" y="33.7031"/><text fill="#000000" font-family="sans-serif" font-size="14" lengthAdjust="spacing" textLength="84" x="860.5" y="53.6982">repositories</text><text fill="#000000" font-family="sans-serif" font-size="14" lengthAdjust="spacing" textLength="93" x="856" y="69.9951">:Repositories</text><rect fill="#E3E3E3" height="46.5938" rx="2.5" ry="2.5" style="stroke:#181818;stroke-width:0.5;" width="107" x="849" y="859.8438"/><text fill="#000000" font-family="sans-serif" font-size="14" lengthAdjust="spacing" textLength="84" x="860.5" y="879.8389">repositories</text><text fill="#000000" font-family="sans-serif" font-size="14" lengthAdjust="spacing" textLength="93" x="856" y="896.1357">:Repositories</text><rect fill="#E3E3E3" height="46.5938" rx="2.5" ry="2.5" style="stroke:#181818;stroke-width:0.5;" width="124" x="966" y="33.7031"/><text fill="#000000" font-family="sans-serif" font-size="14" lengthAdjust="spacing" textLength="103" x="976.5" y="53.6982">skillRepository</text><text fill="#000000" font-family="sans-serif" font-size="14" lengthAdjust="spacing" textLength="110" x="973" y="69.9951">:SkillRepository</text><rect fill="#E3E3E3" height="46.5938" rx="2.5" ry="2.5" style="stroke:#181818;stroke-width:0.5;" width="124" x="966" y="859.8438"/><text fill="#000000" font-family="sans-serif" font-size="14" lengthAdjust="spacing" textLength="103" x="976.5" y="879.8389">skillRepository</text><text fill="#000000" font-family="sans-serif" font-size="14" lengthAdjust="spacing" textLength="110" x="973" y="896.1357">:SkillRepository</text><rect fill="#E3E3E3" height="46.5938" rx="2.5" ry="2.5" style="stroke:#181818;stroke-width:0.5;" width="48" x="1173" y="859.8438"/><text fill="#000000" font-family="sans-serif" font-size="14" lengthAdjust="spacing" textLength="27" x="1183.5" y="879.8389">skill</text><text fill="#000000" font-family="sans-serif" font-size="14" lengthAdjust="spacing" textLength="34" x="1180" y="896.1357">:Skill</text><rect fill="#FFFFFF" height="751.5469" style="stroke:#181818;stroke-width:1.0;" width="10" x="101.5" y="91.2969"/><rect fill="#FFFFFF" height="70.4297" style="stroke:#181818;stroke-width:1.0;" width="10" x="418.5" y="112.4297"/><rect fill="#FFFFFF" height="29.1328" style="stroke:#181818;stroke-width:1.0;" width="10" x="418.5" y="211.9922"/><rect fill="#FFFFFF" height="572.5859" style="stroke:#181818;stroke-width:1.0;" width="10" x="418.5" y="270.2578"/><rect fill="#FFFFFF" height="514.3203" style="stroke:#181818;stroke-width:1.0;" width="10" x="614.5" y="299.3906"/><rect fill="#FFFFFF" height="156.6641" style="stroke:#181818;stroke-width:1.0;" width="10" x="619.5" y="336.5234"/><rect fill="#FFFFFF" height="29.1328" style="stroke:#181818;stroke-width:1.0;" width="10" x="780.5" y="370.6563"/><rect fill="#FFFFFF" height="29.1328" style="stroke:#181818;stroke-width:1.0;" width="10" x="897.5" y="428.9219"/><rect fill="#FFFFFF" height="255.2578" style="stroke:#181818;stroke-width:1.0;" width="10" x="1023" y="529.3203"/><rect fill="#FFFFFF" height="124.3984" style="stroke:#181818;stroke-width:1.0;" width="10" x="1028" y="624.0469"/><rect fill="#FFFFFF" height="40.1328" style="stroke:#181818;stroke-width:1.0;" width="10" x="1033" y="666.1797"/><polygon fill="#181818" points="406.5,108.4297,416.5,112.4297,406.5,116.4297,410.5,112.4297" style="stroke:#181818;stroke-width:1.0;"/><line style="stroke:#181818;stroke-width:1.0;" x1="111.5" x2="412.5" y1="112.4297" y2="112.4297"/><text fill="#000000" font-family="sans-serif" font-size="13" font-weight="bold" lengthAdjust="spacing" textLength="9" x="118.5" y="107.3638">1</text><text fill="#000000" font-family="sans-serif" font-size="13" lengthAdjust="spacing" textLength="175" x="131.5" y="107.3638">asks to register a new skill</text><polygon fill="#181818" points="518.5,137.5625,528.5,141.5625,518.5,145.5625,522.5,141.5625" style="stroke:#181818;stroke-width:1.0;"/><line style="stroke:#181818;stroke-width:1.0;" x1="428.5" x2="524.5" y1="141.5625" y2="141.5625"/><text fill="#000000" font-family="sans-serif" font-size="13" font-weight="bold" lengthAdjust="spacing" textLength="9" x="435.5" y="136.4966">2</text><text fill="#000000" font-family="sans-serif" font-size="13" lengthAdjust="spacing" textLength="41" x="448.5" y="136.4966">create</text><rect fill="#E3E3E3" height="30.2969" rx="2.5" ry="2.5" style="stroke:#181818;stroke-width:0.5;" width="178" x="530.5" y="120.4297"/><text fill="#000000" font-family="sans-serif" font-size="14" lengthAdjust="spacing" textLength="164" x="537.5" y="140.4248">:RegisterSkillController</text><polygon fill="#181818" points="122.5,178.8594,112.5,182.8594,122.5,186.8594,118.5,182.8594" style="stroke:#181818;stroke-width:1.0;"/><line style="stroke:#181818;stroke-width:1.0;stroke-dasharray:2.0,2.0;" x1="116.5" x2="422.5" y1="182.8594" y2="182.8594"/><text fill="#000000" font-family="sans-serif" font-size="13" font-weight="bold" lengthAdjust="spacing" textLength="9" x="128.5" y="177.7935">3</text><text fill="#000000" font-family="sans-serif" font-size="13" lengthAdjust="spacing" textLength="162" x="141.5" y="177.7935">request data (skillName)</text><polygon fill="#181818" points="406.5,207.9922,416.5,211.9922,406.5,215.9922,410.5,211.9922" style="stroke:#181818;stroke-width:1.0;"/><line style="stroke:#181818;stroke-width:1.0;" x1="111.5" x2="412.5" y1="211.9922" y2="211.9922"/><text fill="#000000" font-family="sans-serif" font-size="13" font-weight="bold" lengthAdjust="spacing" textLength="9" x="118.5" y="206.9263">4</text><text fill="#000000" font-family="sans-serif" font-size="13" lengthAdjust="spacing" textLength="218" x="131.5" y="206.9263">types requested data (skillName)</text><polygon fill="#181818" points="122.5,237.125,112.5,241.125,122.5,245.125,118.5,241.125" style="stroke:#181818;stroke-width:1.0;"/><line style="stroke:#181818;stroke-width:1.0;stroke-dasharray:2.0,2.0;" x1="116.5" x2="422.5" y1="241.125" y2="241.125"/><text fill="#000000" font-family="sans-serif" font-size="13" font-weight="bold" lengthAdjust="spacing" textLength="9" x="128.5" y="236.0591">5</text><text fill="#000000" font-family="sans-serif" font-size="13" lengthAdjust="spacing" textLength="270" x="141.5" y="236.0591">show all data registered  for confirmation</text><polygon fill="#181818" points="406.5,266.2578,416.5,270.2578,406.5,274.2578,410.5,270.2578" style="stroke:#181818;stroke-width:1.0;"/><line style="stroke:#181818;stroke-width:1.0;" x1="111.5" x2="412.5" y1="270.2578" y2="270.2578"/><text fill="#000000" font-family="sans-serif" font-size="13" font-weight="bold" lengthAdjust="spacing" textLength="9" x="118.5" y="265.1919">6</text><text fill="#000000" font-family="sans-serif" font-size="13" lengthAdjust="spacing" textLength="85" x="131.5" y="265.1919">submits data</text><polygon fill="#181818" points="602.5,295.3906,612.5,299.3906,602.5,303.3906,606.5,299.3906" style="stroke:#181818;stroke-width:1.0;"/><line style="stroke:#181818;stroke-width:1.0;" x1="428.5" x2="608.5" y1="299.3906" y2="299.3906"/><text fill="#000000" font-family="sans-serif" font-size="13" font-weight="bold" lengthAdjust="spacing" textLength="9" x="435.5" y="294.3247">7</text><text fill="#000000" font-family="sans-serif" font-size="13" lengthAdjust="spacing" textLength="154" x="448.5" y="294.3247">registerSkill(skillName)</text><line style="stroke:#181818;stroke-width:1.0;" x1="624.5" x2="671.5" y1="323.5234" y2="323.5234"/><line style="stroke:#181818;stroke-width:1.0;" x1="671.5" x2="671.5" y1="323.5234" y2="336.5234"/><line style="stroke:#181818;stroke-width:1.0;" x1="630.5" x2="671.5" y1="336.5234" y2="336.5234"/><polygon fill="#181818" points="640.5,332.5234,630.5,336.5234,640.5,340.5234,636.5,336.5234" style="stroke:#181818;stroke-width:1.0;"/><text fill="#000000" font-family="sans-serif" font-size="13" font-weight="bold" lengthAdjust="spacing" textLength="9" x="636.5" y="318.4575">8</text><text fill="#000000" font-family="sans-serif" font-size="13" lengthAdjust="spacing" textLength="129" x="649.5" y="318.4575">getSkillRepository()</text><polygon fill="#181818" points="768.5,366.6563,778.5,370.6563,768.5,374.6563,772.5,370.6563" style="stroke:#181818;stroke-width:1.0;"/><line style="stroke:#181818;stroke-width:1.0;" x1="629.5" x2="774.5" y1="370.6563" y2="370.6563"/><text fill="#000000" font-family="sans-serif" font-size="13" font-weight="bold" lengthAdjust="spacing" textLength="9" x="636.5" y="365.5903">9</text><text fill="#000000" font-family="sans-serif" font-size="13" lengthAdjust="spacing" textLength="86" x="649.5" y="365.5903">getInstance()</text><polygon fill="#181818" points="640.5,395.7891,630.5,399.7891,640.5,403.7891,636.5,399.7891" style="stroke:#181818;stroke-width:1.0;"/><line style="stroke:#181818;stroke-width:1.0;stroke-dasharray:2.0,2.0;" x1="634.5" x2="784.5" y1="399.7891" y2="399.7891"/><text fill="#000000" font-family="sans-serif" font-size="13" font-weight="bold" lengthAdjust="spacing" textLength="18" x="646.5" y="394.7231">10</text><text fill="#000000" font-family="sans-serif" font-size="13" lengthAdjust="spacing" textLength="77" x="668.5" y="394.7231">repositories</text><polygon fill="#181818" points="885.5,424.9219,895.5,428.9219,885.5,432.9219,889.5,428.9219" style="stroke:#181818;stroke-width:1.0;"/><line style="stroke:#181818;stroke-width:1.0;" x1="629.5" x2="891.5" y1="428.9219" y2="428.9219"/><text fill="#000000" font-family="sans-serif" font-size="13" font-weight="bold" lengthAdjust="spacing" textLength="18" x="636.5" y="423.856">11</text><text fill="#000000" font-family="sans-serif" font-size="13" lengthAdjust="spacing" textLength="129" x="658.5" y="423.856">getSkillRepository()</text><polygon fill="#181818" points="640.5,454.0547,630.5,458.0547,640.5,462.0547,636.5,458.0547" style="stroke:#181818;stroke-width:1.0;"/><line style="stroke:#181818;stroke-width:1.0;stroke-dasharray:2.0,2.0;" x1="634.5" x2="901.5" y1="458.0547" y2="458.0547"/><text fill="#000000" font-family="sans-serif" font-size="13" font-weight="bold" lengthAdjust="spacing" textLength="18" x="646.5" y="452.9888">12</text><text fill="#000000" font-family="sans-serif" font-size="13" lengthAdjust="spacing" textLength="97" x="668.5" y="452.9888">skillRepository</text><line style="stroke:#181818;stroke-width:1.0;stroke-dasharray:2.0,2.0;" x1="629.5" x2="671.5" y1="492.1875" y2="492.1875"/><line style="stroke:#181818;stroke-width:1.0;stroke-dasharray:2.0,2.0;" x1="671.5" x2="671.5" y1="492.1875" y2="505.1875"/><line style="stroke:#181818;stroke-width:1.0;stroke-dasharray:2.0,2.0;" x1="624.5" x2="671.5" y1="505.1875" y2="505.1875"/><polygon fill="#181818" points="634.5,501.1875,624.5,505.1875,634.5,509.1875,630.5,505.1875" style="stroke:#181818;stroke-width:1.0;"/><text fill="#000000" font-family="sans-serif" font-size="13" font-weight="bold" lengthAdjust="spacing" textLength="18" x="636.5" y="487.1216">13</text><text fill="#000000" font-family="sans-serif" font-size="13" lengthAdjust="spacing" textLength="97" x="658.5" y="487.1216">skillRepository</text><polygon fill="#181818" points="1011,525.3203,1021,529.3203,1011,533.3203,1015,529.3203" style="stroke:#181818;stroke-width:1.0;"/><line style="stroke:#181818;stroke-width:1.0;" x1="624.5" x2="1017" y1="529.3203" y2="529.3203"/><text fill="#000000" font-family="sans-serif" font-size="13" font-weight="bold" lengthAdjust="spacing" textLength="18" x="631.5" y="524.2544">14</text><text fill="#000000" font-family="sans-serif" font-size="13" lengthAdjust="spacing" textLength="154" x="653.5" y="524.2544">registerSkill(skillName)</text><polygon fill="#181818" points="1161,554.4531,1171,558.4531,1161,562.4531,1165,558.4531" style="stroke:#181818;stroke-width:1.0;"/><line style="stroke:#181818;stroke-width:1.0;" x1="1033" x2="1167" y1="558.4531" y2="558.4531"/><text fill="#000000" font-family="sans-serif" font-size="13" font-weight="bold" lengthAdjust="spacing" textLength="18" x="1040" y="553.3872">15</text><text fill="#000000" font-family="sans-serif" font-size="13" lengthAdjust="spacing" textLength="41" x="1062" y="553.3872">create</text><rect fill="#E3E3E3" height="46.5938" rx="2.5" ry="2.5" style="stroke:#181818;stroke-width:0.5;" width="48" x="1173" y="537.3203"/><text fill="#000000" font-family="sans-serif" font-size="14" lengthAdjust="spacing" textLength="27" x="1183.5" y="557.3154">skill</text><text fill="#000000" font-family="sans-serif" font-size="14" lengthAdjust="spacing" textLength="34" x="1180" y="573.6123">:Skill</text><line style="stroke:#181818;stroke-width:1.0;" x1="1038" x2="1080" y1="616.0469" y2="616.0469"/><line style="stroke:#181818;stroke-width:1.0;" x1="1080" x2="1080" y1="616.0469" y2="629.0469"/><line style="stroke:#181818;stroke-width:1.0;" x1="1039" x2="1080" y1="629.0469" y2="629.0469"/><polygon fill="#181818" points="1049,625.0469,1039,629.0469,1049,633.0469,1045,629.0469" style="stroke:#181818;stroke-width:1.0;"/><text fill="#000000" font-family="sans-serif" font-size="13" font-weight="bold" lengthAdjust="spacing" textLength="18" x="1045" y="610.981">16</text><text fill="#000000" font-family="sans-serif" font-size="13" lengthAdjust="spacing" textLength="89" x="1067" y="610.981">addSkill(skill)</text><line style="stroke:#181818;stroke-width:1.0;" x1="1038" x2="1085" y1="653.1797" y2="653.1797"/><line style="stroke:#181818;stroke-width:1.0;" x1="1085" x2="1085" y1="653.1797" y2="666.1797"/><line style="stroke:#181818;stroke-width:1.0;" x1="1044" x2="1085" y1="666.1797" y2="666.1797"/><polygon fill="#181818" points="1054,662.1797,1044,666.1797,1054,670.1797,1050,666.1797" style="stroke:#181818;stroke-width:1.0;"/><text fill="#000000" font-family="sans-serif" font-size="13" font-weight="bold" lengthAdjust="spacing" textLength="18" x="1050" y="648.1138">17</text><text fill="#000000" font-family="sans-serif" font-size="13" lengthAdjust="spacing" textLength="118" x="1072" y="648.1138">validateSkill(skill)</text><line style="stroke:#181818;stroke-width:1.0;stroke-dasharray:2.0,2.0;" x1="1043" x2="1085" y1="705.3125" y2="705.3125"/><line style="stroke:#181818;stroke-width:1.0;stroke-dasharray:2.0,2.0;" x1="1085" x2="1085" y1="705.3125" y2="718.3125"/><line style="stroke:#181818;stroke-width:1.0;stroke-dasharray:2.0,2.0;" x1="1038" x2="1085" y1="718.3125" y2="718.3125"/><polygon fill="#181818" points="1048,714.3125,1038,718.3125,1048,722.3125,1044,718.3125" style="stroke:#181818;stroke-width:1.0;"/><text fill="#000000" font-family="sans-serif" font-size="13" font-weight="bold" lengthAdjust="spacing" textLength="18" x="1050" y="700.2466">18</text><text fill="#000000" font-family="sans-serif" font-size="13" lengthAdjust="spacing" textLength="4" x="1072" y="700.2466">&#160;</text><line style="stroke:#181818;stroke-width:1.0;stroke-dasharray:2.0,2.0;" x1="1038" x2="1080" y1="747.4453" y2="747.4453"/><line style="stroke:#181818;stroke-width:1.0;stroke-dasharray:2.0,2.0;" x1="1080" x2="1080" y1="747.4453" y2="760.4453"/><line style="stroke:#181818;stroke-width:1.0;stroke-dasharray:2.0,2.0;" x1="1033" x2="1080" y1="760.4453" y2="760.4453"/><polygon fill="#181818" points="1043,756.4453,1033,760.4453,1043,764.4453,1039,760.4453" style="stroke:#181818;stroke-width:1.0;"/><text fill="#000000" font-family="sans-serif" font-size="13" font-weight="bold" lengthAdjust="spacing" textLength="18" x="1045" y="742.3794">19</text><text fill="#000000" font-family="sans-serif" font-size="13" lengthAdjust="spacing" textLength="4" x="1067" y="742.3794">&#160;</text><polygon fill="#181818" points="635.5,780.5781,625.5,784.5781,635.5,788.5781,631.5,784.5781" style="stroke:#181818;stroke-width:1.0;"/><line style="stroke:#181818;stroke-width:1.0;stroke-dasharray:2.0,2.0;" x1="629.5" x2="1027" y1="784.5781" y2="784.5781"/><text fill="#000000" font-family="sans-serif" font-size="13" font-weight="bold" lengthAdjust="spacing" textLength="18" x="641.5" y="779.5122">20</text><text fill="#000000" font-family="sans-serif" font-size="13" lengthAdjust="spacing" textLength="27" x="663.5" y="779.5122">skill</text><polygon fill="#181818" points="439.5,809.7109,429.5,813.7109,439.5,817.7109,435.5,813.7109" style="stroke:#181818;stroke-width:1.0;"/><line style="stroke:#181818;stroke-width:1.0;stroke-dasharray:2.0,2.0;" x1="433.5" x2="618.5" y1="813.7109" y2="813.7109"/><text fill="#000000" font-family="sans-serif" font-size="13" font-weight="bold" lengthAdjust="spacing" textLength="18" x="445.5" y="808.645">21</text><text fill="#000000" font-family="sans-serif" font-size="13" lengthAdjust="spacing" textLength="27" x="467.5" y="808.645">skill</text><polygon fill="#181818" points="117.5,838.8438,107.5,842.8438,117.5,846.8438,113.5,842.8438" style="stroke:#181818;stroke-width:1.0;"/><line style="stroke:#181818;stroke-width:1.0;stroke-dasharray:2.0,2.0;" x1="111.5" x2="422.5" y1="842.8438" y2="842.8438"/><text fill="#000000" font-family="sans-serif" font-size="13" font-weight="bold" lengthAdjust="spacing" textLength="18" x="123.5" y="837.7778">22</text><text fill="#000000" font-family="sans-serif" font-size="13" lengthAdjust="spacing" textLength="166" x="145.5" y="837.7778">shows operation success.</text><!--SRC=[lLR1Rjim3BthAuXSrWReFY270KDHh06QhKYQsowApIH2RCcJv6Rv-z5oOikoR1ZeDjrYFJu-Ff5Ip4d8WckUGwwaIevQvGXMbyXCirFmvCGFkB6N345ZOhayP3x077cgpa8UOCypWupnqYfPvZlKZ7qwYXHXhvJTgT-C9rPfc3sNEPUmHgDAdQ215PUKGS-06tXUhnZnMf68WaiBiyKQ3y9Or9kJoBBjqg6sop7Gev9MgooxKZw-hLzwy48PGM846eTfFbmseggFAkY6Q2_Yf-mJlBvyVUj6c4fAoqj1c-uN5nUW8XItG0T_MhskdxxzO9MLufrRT8Onk2xw0GzVo1vO4Ffam2ewizeQu23nN2TaRKX3H9us7uc0Q2hZvdEYIZGIWdbHDn2XgfmBolAhH6CXvPR3dKlodUTutqIasCd4GhdsKb0hN6amZHCDYcrqcACw0y-oElvME_5H4sf8bDmBdNChw7m7bCMyDEKk5zOuqeu7_Phw5ZftlFQCkTFXSWthxpYMbks0DcYbkp6cpfPF5sdwcdqf3OrvWW5jXpesCJrqjM9P7gx5LCwqWzGBzqvcKhfROTKmJl6fKv2Ru6W5ZgwL78xiYEeuPospFSynGe-iFamsN7R0Cx7jEYQ4KYBP0aYL-7ehpUVULG4JLeIgLmDFKq_-_PZRjyjnIkh1Yc7YcgBzdMU2hWmSBU2VAOogxCkSpESvtMkJ_wtderfYElnf_EiYcfdVBeTIXACUxhVlNFtC6L05QlUMqGELq3yfyvaDl6h1b-fFmny0]--></g></svg>