<?xml version="1.0" encoding="us-ascii" standalone="no"?><svg xmlns="http://www.w3.org/2000/svg" xmlns:xlink="http://www.w3.org/1999/xlink" contentStyleType="text/css" height="439px" preserveAspectRatio="none" style="width:437px;height:439px;background:#FFFFFF;" version="1.1" viewBox="0 0 437 439" width="437px" zoomAndPan="magnify"><defs/><g><rect fill="#FFFFFF" height="286.3906" style="stroke:#181818;stroke-width:1.0;" width="10" x="209" y="83.7266"/><rect fill="#FFFFFF" height="124.3984" style="stroke:#181818;stroke-width:1.0;" width="10" x="214" y="202.5859"/><rect fill="#FFFFFF" height="40.1328" style="stroke:#181818;stroke-width:1.0;" width="10" x="219" y="244.7188"/><rect fill="none" height="243.2578" style="stroke:#000000;stroke-width:1.5;" width="288" x="143" y="98.7266"/><line style="stroke:#181818;stroke-width:0.5;stroke-dasharray:5.0,5.0;" x1="214" x2="214" y1="52.5938" y2="388.1172"/><line style="stroke:#181818;stroke-width:0.5;stroke-dasharray:5.0,5.0;" x1="397" x2="397" y1="154.6563" y2="388.1172"/><rect fill="#E3E3E3" height="46.5938" rx="2.5" ry="2.5" style="stroke:#181818;stroke-width:0.5;" width="122" x="153" y="5"/><text fill="#000000" font-family="sans-serif" font-size="14" lengthAdjust="spacing" textLength="103" x="162.5" y="24.9951">skillRepository</text><text fill="#000000" font-family="sans-serif" font-size="14" lengthAdjust="spacing" textLength="108" x="160" y="41.292">:skillRepository</text><rect fill="#E3E3E3" height="46.5938" rx="2.5" ry="2.5" style="stroke:#181818;stroke-width:0.5;" width="122" x="153" y="387.1172"/><text fill="#000000" font-family="sans-serif" font-size="14" lengthAdjust="spacing" textLength="103" x="162.5" y="407.1123">skillRepository</text><text fill="#000000" font-family="sans-serif" font-size="14" lengthAdjust="spacing" textLength="108" x="160" y="423.4092">:skillRepository</text><rect fill="#E3E3E3" height="46.5938" rx="2.5" ry="2.5" style="stroke:#181818;stroke-width:0.5;" width="48" x="373" y="387.1172"/><text fill="#000000" font-family="sans-serif" font-size="14" lengthAdjust="spacing" textLength="27" x="383.5" y="407.1123">skill</text><text fill="#000000" font-family="sans-serif" font-size="14" lengthAdjust="spacing" textLength="34" x="380" y="423.4092">:Skill</text><rect fill="#FFFFFF" height="286.3906" style="stroke:#181818;stroke-width:1.0;" width="10" x="209" y="83.7266"/><rect fill="#FFFFFF" height="124.3984" style="stroke:#181818;stroke-width:1.0;" width="10" x="214" y="202.5859"/><rect fill="#FFFFFF" height="40.1328" style="stroke:#181818;stroke-width:1.0;" width="10" x="219" y="244.7188"/><polygon fill="#181818" points="197,79.7266,207,83.7266,197,87.7266,201,83.7266" style="stroke:#181818;stroke-width:1.0;"/><line style="stroke:#181818;stroke-width:1.0;" x1="0" x2="203" y1="83.7266" y2="83.7266"/><text fill="#000000" font-family="sans-serif" font-size="13" font-weight="bold" lengthAdjust="spacing" textLength="32" x="7" y="78.6606">16.1</text><text fill="#000000" font-family="sans-serif" font-size="13" lengthAdjust="spacing" textLength="154" x="43" y="78.6606">registerSkill(skillName)</text><path d="M143,98.7266 L283,98.7266 L283,105.8594 L273,115.8594 L143,115.8594 L143,98.7266 " fill="#EEEEEE" style="stroke:#000000;stroke-width:1.5;"/><rect fill="none" height="243.2578" style="stroke:#000000;stroke-width:1.5;" width="288" x="143" y="98.7266"/><text fill="#000000" font-family="sans-serif" font-size="13" font-weight="bold" lengthAdjust="spacing" textLength="95" x="158" y="111.7935">Register skill</text><polygon fill="#181818" points="361,132.9922,371,136.9922,361,140.9922,365,136.9922" style="stroke:#181818;stroke-width:1.0;"/><line style="stroke:#181818;stroke-width:1.0;" x1="219" x2="367" y1="136.9922" y2="136.9922"/><text fill="#000000" font-family="sans-serif" font-size="13" font-weight="bold" lengthAdjust="spacing" textLength="32" x="226" y="131.9263">16.2</text><text fill="#000000" font-family="sans-serif" font-size="13" lengthAdjust="spacing" textLength="41" x="262" y="131.9263">create</text><rect fill="#E3E3E3" height="46.5938" rx="2.5" ry="2.5" style="stroke:#181818;stroke-width:0.5;" width="48" x="373" y="115.8594"/><text fill="#000000" font-family="sans-serif" font-size="14" lengthAdjust="spacing" textLength="27" x="383.5" y="135.8545">skill</text><text fill="#000000" font-family="sans-serif" font-size="14" lengthAdjust="spacing" textLength="34" x="380" y="152.1514">:Skill</text><line style="stroke:#181818;stroke-width:1.0;" x1="224" x2="266" y1="194.5859" y2="194.5859"/><line style="stroke:#181818;stroke-width:1.0;" x1="266" x2="266" y1="194.5859" y2="207.5859"/><line style="stroke:#181818;stroke-width:1.0;" x1="225" x2="266" y1="207.5859" y2="207.5859"/><polygon fill="#181818" points="235,203.5859,225,207.5859,235,211.5859,231,207.5859" style="stroke:#181818;stroke-width:1.0;"/><text fill="#000000" font-family="sans-serif" font-size="13" font-weight="bold" lengthAdjust="spacing" textLength="32" x="231" y="189.52">16.3</text><text fill="#000000" font-family="sans-serif" font-size="13" lengthAdjust="spacing" textLength="89" x="267" y="189.52">addSkill(skill)</text><line style="stroke:#181818;stroke-width:1.0;" x1="224" x2="271" y1="231.7188" y2="231.7188"/><line style="stroke:#181818;stroke-width:1.0;" x1="271" x2="271" y1="231.7188" y2="244.7188"/><line style="stroke:#181818;stroke-width:1.0;" x1="230" x2="271" y1="244.7188" y2="244.7188"/><polygon fill="#181818" points="240,240.7188,230,244.7188,240,248.7188,236,244.7188" style="stroke:#181818;stroke-width:1.0;"/><text fill="#000000" font-family="sans-serif" font-size="13" font-weight="bold" lengthAdjust="spacing" textLength="32" x="236" y="226.6528">16.4</text><text fill="#000000" font-family="sans-serif" font-size="13" lengthAdjust="spacing" textLength="118" x="272" y="226.6528">validateSkill(skill)</text><line style="stroke:#181818;stroke-width:1.0;stroke-dasharray:2.0,2.0;" x1="229" x2="271" y1="283.8516" y2="283.8516"/><line style="stroke:#181818;stroke-width:1.0;stroke-dasharray:2.0,2.0;" x1="271" x2="271" y1="283.8516" y2="296.8516"/><line style="stroke:#181818;stroke-width:1.0;stroke-dasharray:2.0,2.0;" x1="224" x2="271" y1="296.8516" y2="296.8516"/><polygon fill="#181818" points="234,292.8516,224,296.8516,234,300.8516,230,296.8516" style="stroke:#181818;stroke-width:1.0;"/><text fill="#000000" font-family="sans-serif" font-size="13" font-weight="bold" lengthAdjust="spacing" textLength="32" x="236" y="278.7856">16.5</text><text fill="#000000" font-family="sans-serif" font-size="13" lengthAdjust="spacing" textLength="4" x="272" y="278.7856">&#160;</text><line style="stroke:#181818;stroke-width:1.0;stroke-dasharray:2.0,2.0;" x1="224" x2="266" y1="325.9844" y2="325.9844"/><line style="stroke:#181818;stroke-width:1.0;stroke-dasharray:2.0,2.0;" x1="266" x2="266" y1="325.9844" y2="338.9844"/><line style="stroke:#181818;stroke-width:1.0;stroke-dasharray:2.0,2.0;" x1="219" x2="266" y1="338.9844" y2="338.9844"/><polygon fill="#181818" points="229,334.9844,219,338.9844,229,342.9844,225,338.9844" style="stroke:#181818;stroke-width:1.0;"/><text fill="#000000" font-family="sans-serif" font-size="13" font-weight="bold" lengthAdjust="spacing" textLength="32" x="231" y="320.9185">16.6</text><text fill="#000000" font-family="sans-serif" font-size="13" lengthAdjust="spacing" textLength="4" x="267" y="320.9185">&#160;</text><polygon fill="#181818" points="11,366.1172,1,370.1172,11,374.1172,7,370.1172" style="stroke:#181818;stroke-width:1.0;"/><line style="stroke:#181818;stroke-width:1.0;stroke-dasharray:2.0,2.0;" x1="5" x2="213" y1="370.1172" y2="370.1172"/><text fill="#000000" font-family="sans-serif" font-size="13" font-weight="bold" lengthAdjust="spacing" textLength="18" x="17" y="365.0513">17</text><text fill="#000000" font-family="sans-serif" font-size="13" lengthAdjust="spacing" textLength="27" x="39" y="365.0513">skill</text><!--SRC=[XP4zRyCW48PtViKfKnl9bRAqabLrYpAbgPoronMk3WeV5k1K-VS5Ob5YHGqByjrp3o_O7wKPqA46ROtb1sSrGN0ZCLyw0_8ZzhGFPqNWY0SqlQe1Vq1XVwJfuHkL9yPYEKWk1pG15f5JggF1UXciEt-QTbPP07hOTPiROn7UfpqZw-r7jzxi6CCnM3FgBtAmUfvzFgqOWsarRqdRniozz85SLZrayJjgUYnWMiY3F66WdAHkzCwE0tIJ0_9u0IASZfcYBPVG0dSKDOonAyi4vZmeH1NbBuQW4gBSzMwyMdn29KM4Rjh_jHJJHNNLgsAb5hitC-DJYOoupDN_wYLNNficMzhfPUUd_G80]--></g></svg>