<?xml version="1.0" encoding="us-ascii" standalone="no"?><svg xmlns="http://www.w3.org/2000/svg" xmlns:xlink="http://www.w3.org/1999/xlink" contentStyleType="text/css" height="1229px" preserveAspectRatio="none" style="width:1255px;height:1229px;background:#FFFFFF;" version="1.1" viewBox="0 0 1255 1229" width="1255px" zoomAndPan="magnify"><defs/><g><rect fill="#FFFFFF" height="1034.7695" style="stroke:#181818;stroke-width:1.0;" width="10" x="91" y="93.6211"/><rect fill="#FFFFFF" height="356.5313" style="stroke:#181818;stroke-width:1.0;" width="10" x="388" y="116.9121"/><rect fill="#FFFFFF" height="31.291" style="stroke:#181818;stroke-width:1.0;" width="10" x="388" y="504.7344"/><rect fill="#FFFFFF" height="561.0742" style="stroke:#181818;stroke-width:1.0;" width="10" x="388" y="567.3164"/><rect fill="#FFFFFF" height="219.0371" style="stroke:#181818;stroke-width:1.0;" width="10" x="550" y="191.8242"/><rect fill="#FFFFFF" height="31.291" style="stroke:#181818;stroke-width:1.0;" width="10" x="550" y="598.6074"/><rect fill="#FFFFFF" height="61.291" style="stroke:#181818;stroke-width:1.0;" width="10" x="550" y="1035.8086"/><rect fill="#FFFFFF" height="31.291" style="stroke:#181818;stroke-width:1.0;" width="10" x="687.5" y="223.1152"/><rect fill="#FFFFFF" height="31.291" style="stroke:#181818;stroke-width:1.0;" width="10" x="794.5" y="285.6973"/><rect fill="#FFFFFF" height="31.291" style="stroke:#181818;stroke-width:1.0;" width="10" x="918.5" y="348.2793"/><rect fill="#FFFFFF" height="238.4551" style="stroke:#181818;stroke-width:1.0;" width="10" x="918.5" y="827.3535"/><rect fill="#FFFFFF" height="130.873" style="stroke:#181818;stroke-width:1.0;" width="10" x="923.5" y="866.6445"/><rect fill="#FFFFFF" height="42.291" style="stroke:#181818;stroke-width:1.0;" width="10" x="928.5" y="910.9355"/><rect fill="#FFFFFF" height="197.4551" style="stroke:#181818;stroke-width:1.0;" width="10" x="1064.5" y="629.8984"/><rect fill="#FFFFFF" height="42.291" style="stroke:#181818;stroke-width:1.0;" width="10" x="1069.5" y="739.7715"/><rect fill="none" height="107.873" style="stroke:#000000;stroke-width:1.5;" width="211.5" x="1038" y="689.1895"/><line style="stroke:#181818;stroke-width:0.5;stroke-dasharray:5.0,5.0;" x1="96" x2="96" y1="83.6211" y2="1146.3906"/><line style="stroke:#181818;stroke-width:0.5;stroke-dasharray:5.0,5.0;" x1="393" x2="393" y1="83.6211" y2="1146.3906"/><line style="stroke:#181818;stroke-width:0.5;stroke-dasharray:5.0,5.0;" x1="555" x2="555" y1="156.7227" y2="1146.3906"/><line style="stroke:#181818;stroke-width:0.5;stroke-dasharray:5.0,5.0;" x1="692" x2="692" y1="83.6211" y2="1146.3906"/><line style="stroke:#181818;stroke-width:0.5;stroke-dasharray:5.0,5.0;" x1="799" x2="799" y1="83.6211" y2="1146.3906"/><line style="stroke:#181818;stroke-width:0.5;stroke-dasharray:5.0,5.0;" x1="923" x2="923" y1="83.6211" y2="1146.3906"/><line style="stroke:#181818;stroke-width:0.5;stroke-dasharray:5.0,5.0;" x1="1069" x2="1069" y1="83.6211" y2="1146.3906"/><text fill="#000000" font-family="sans-serif" font-size="14" lengthAdjust="spacing" textLength="176" x="5" y="80.1074">Human Resources Manager</text><ellipse cx="96" cy="13.5" fill="#E3E3E3" rx="8" ry="8" style="stroke:#181818;stroke-width:0.5;"/><path d="M96,21.5 L96,48.5 M83,29.5 L109,29.5 M96,48.5 L83,63.5 M96,48.5 L109,63.5 " fill="none" style="stroke:#181818;stroke-width:0.5;"/><text fill="#000000" font-family="sans-serif" font-size="14" lengthAdjust="spacing" textLength="176" x="5" y="1160.498">Human Resources Manager</text><ellipse cx="96" cy="1172.5117" fill="#E3E3E3" rx="8" ry="8" style="stroke:#181818;stroke-width:0.5;"/><path d="M96,1180.5117 L96,1207.5117 M83,1188.5117 L109,1188.5117 M96,1207.5117 L83,1222.5117 M96,1207.5117 L109,1222.5117 " fill="none" style="stroke:#181818;stroke-width:0.5;"/><rect fill="#E3E3E3" height="32.6211" rx="2.5" ry="2.5" style="stroke:#181818;stroke-width:0.5;" width="108" x="339" y="50"/><text fill="#000000" font-family="sans-serif" font-size="14" lengthAdjust="spacing" textLength="94" x="346" y="72.1074">:RegisterSkillUI</text><rect fill="#E3E3E3" height="32.6211" rx="2.5" ry="2.5" style="stroke:#181818;stroke-width:0.5;" width="108" x="339" y="1145.3906"/><text fill="#000000" font-family="sans-serif" font-size="14" lengthAdjust="spacing" textLength="94" x="346" y="1167.498">:RegisterSkillUI</text><rect fill="#E3E3E3" height="32.6211" rx="2.5" ry="2.5" style="stroke:#181818;stroke-width:0.5;" width="158" x="476" y="1145.3906"/><text fill="#000000" font-family="sans-serif" font-size="14" lengthAdjust="spacing" textLength="144" x="483" y="1167.498">:RegisterSkillController</text><rect fill="#E3E3E3" height="32.6211" rx="2.5" ry="2.5" style="stroke:#181818;stroke-width:0.5;" width="97" x="644" y="50"/><text fill="#000000" font-family="sans-serif" font-size="14" lengthAdjust="spacing" textLength="83" x="651" y="72.1074">:Repositories</text><rect fill="#E3E3E3" height="32.6211" rx="2.5" ry="2.5" style="stroke:#181818;stroke-width:0.5;" width="97" x="644" y="1145.3906"/><text fill="#000000" font-family="sans-serif" font-size="14" lengthAdjust="spacing" textLength="83" x="651" y="1167.498">:Repositories</text><rect fill="#E3E3E3" height="51.2422" rx="2.5" ry="2.5" style="stroke:#181818;stroke-width:0.5;" width="97" x="751" y="31.3789"/><text fill="#000000" font-family="sans-serif" font-size="14" lengthAdjust="spacing" textLength="74" x="762.5" y="53.4863">repositories</text><text fill="#000000" font-family="sans-serif" font-size="14" lengthAdjust="spacing" textLength="83" x="758" y="72.1074">:Repositories</text><rect fill="#E3E3E3" height="51.2422" rx="2.5" ry="2.5" style="stroke:#181818;stroke-width:0.5;" width="97" x="751" y="1145.3906"/><text fill="#000000" font-family="sans-serif" font-size="14" lengthAdjust="spacing" textLength="74" x="762.5" y="1167.498">repositories</text><text fill="#000000" font-family="sans-serif" font-size="14" lengthAdjust="spacing" textLength="83" x="758" y="1186.1191">:Repositories</text><rect fill="#E3E3E3" height="51.2422" rx="2.5" ry="2.5" style="stroke:#181818;stroke-width:0.5;" width="131" x="858" y="31.3789"/><text fill="#000000" font-family="sans-serif" font-size="14" lengthAdjust="spacing" textLength="113" x="867" y="53.4863">skillListRepository</text><text fill="#000000" font-family="sans-serif" font-size="14" lengthAdjust="spacing" textLength="117" x="865" y="72.1074">:skillListRepository</text><rect fill="#E3E3E3" height="51.2422" rx="2.5" ry="2.5" style="stroke:#181818;stroke-width:0.5;" width="131" x="858" y="1145.3906"/><text fill="#000000" font-family="sans-serif" font-size="14" lengthAdjust="spacing" textLength="113" x="867" y="1167.498">skillListRepository</text><text fill="#000000" font-family="sans-serif" font-size="14" lengthAdjust="spacing" textLength="117" x="865" y="1186.1191">:skillListRepository</text><rect fill="#E3E3E3" height="51.2422" rx="2.5" ry="2.5" style="stroke:#181818;stroke-width:0.5;" width="43" x="1048" y="31.3789"/><text fill="#000000" font-family="sans-serif" font-size="14" lengthAdjust="spacing" textLength="23" x="1058" y="53.4863">skill</text><text fill="#000000" font-family="sans-serif" font-size="14" lengthAdjust="spacing" textLength="29" x="1055" y="72.1074">:Skill</text><rect fill="#E3E3E3" height="51.2422" rx="2.5" ry="2.5" style="stroke:#181818;stroke-width:0.5;" width="43" x="1048" y="1145.3906"/><text fill="#000000" font-family="sans-serif" font-size="14" lengthAdjust="spacing" textLength="23" x="1058" y="1167.498">skill</text><text fill="#000000" font-family="sans-serif" font-size="14" lengthAdjust="spacing" textLength="29" x="1055" y="1186.1191">:Skill</text><rect fill="#FFFFFF" height="1034.7695" style="stroke:#181818;stroke-width:1.0;" width="10" x="91" y="93.6211"/><rect fill="#FFFFFF" height="356.5313" style="stroke:#181818;stroke-width:1.0;" width="10" x="388" y="116.9121"/><rect fill="#FFFFFF" height="31.291" style="stroke:#181818;stroke-width:1.0;" width="10" x="388" y="504.7344"/><rect fill="#FFFFFF" height="561.0742" style="stroke:#181818;stroke-width:1.0;" width="10" x="388" y="567.3164"/><rect fill="#FFFFFF" height="219.0371" style="stroke:#181818;stroke-width:1.0;" width="10" x="550" y="191.8242"/><rect fill="#FFFFFF" height="31.291" style="stroke:#181818;stroke-width:1.0;" width="10" x="550" y="598.6074"/><rect fill="#FFFFFF" height="61.291" style="stroke:#181818;stroke-width:1.0;" width="10" x="550" y="1035.8086"/><rect fill="#FFFFFF" height="31.291" style="stroke:#181818;stroke-width:1.0;" width="10" x="687.5" y="223.1152"/><rect fill="#FFFFFF" height="31.291" style="stroke:#181818;stroke-width:1.0;" width="10" x="794.5" y="285.6973"/><rect fill="#FFFFFF" height="31.291" style="stroke:#181818;stroke-width:1.0;" width="10" x="918.5" y="348.2793"/><rect fill="#FFFFFF" height="238.4551" style="stroke:#181818;stroke-width:1.0;" width="10" x="918.5" y="827.3535"/><rect fill="#FFFFFF" height="130.873" style="stroke:#181818;stroke-width:1.0;" width="10" x="923.5" y="866.6445"/><rect fill="#FFFFFF" height="42.291" style="stroke:#181818;stroke-width:1.0;" width="10" x="928.5" y="910.9355"/><rect fill="#FFFFFF" height="197.4551" style="stroke:#181818;stroke-width:1.0;" width="10" x="1064.5" y="629.8984"/><rect fill="#FFFFFF" height="42.291" style="stroke:#181818;stroke-width:1.0;" width="10" x="1069.5" y="739.7715"/><polygon fill="#181818" points="376,112.9121,386,116.9121,376,120.9121,380,116.9121" style="stroke:#181818;stroke-width:1.0;"/><line style="stroke:#181818;stroke-width:1.0;" x1="101" x2="382" y1="116.9121" y2="116.9121"/><text fill="#000000" font-family="sans-serif" font-size="13" font-weight="bold" lengthAdjust="spacing" textLength="7" x="108" y="111.6494">1</text><text fill="#000000" font-family="sans-serif" font-size="13" lengthAdjust="spacing" textLength="155" x="119" y="111.6494">asks to register a new skill</text><polygon fill="#181818" points="464,144.2031,474,148.2031,464,152.2031,468,148.2031" style="stroke:#181818;stroke-width:1.0;"/><line style="stroke:#181818;stroke-width:1.0;" x1="398" x2="470" y1="148.2031" y2="148.2031"/><text fill="#000000" font-family="sans-serif" font-size="13" font-weight="bold" lengthAdjust="spacing" textLength="7" x="405" y="142.9404">2</text><text fill="#000000" font-family="sans-serif" font-size="13" lengthAdjust="spacing" textLength="43" x="416" y="142.9404">register</text><rect fill="#E3E3E3" height="32.6211" rx="2.5" ry="2.5" style="stroke:#181818;stroke-width:0.5;" width="158" x="476" y="124.9121"/><text fill="#000000" font-family="sans-serif" font-size="14" lengthAdjust="spacing" textLength="144" x="483" y="147.0195">:RegisterSkillController</text><polygon fill="#181818" points="538,187.8242,548,191.8242,538,195.8242,542,191.8242" style="stroke:#181818;stroke-width:1.0;"/><line style="stroke:#181818;stroke-width:1.0;" x1="398" x2="544" y1="191.8242" y2="191.8242"/><text fill="#000000" font-family="sans-serif" font-size="13" font-weight="bold" lengthAdjust="spacing" textLength="7" x="405" y="186.5615">3</text><text fill="#000000" font-family="sans-serif" font-size="13" lengthAdjust="spacing" textLength="72" x="416" y="186.5615">getSkillList()</text><polygon fill="#181818" points="675.5,219.1152,685.5,223.1152,675.5,227.1152,679.5,223.1152" style="stroke:#181818;stroke-width:1.0;"/><line style="stroke:#181818;stroke-width:1.0;" x1="560" x2="681.5" y1="223.1152" y2="223.1152"/><text fill="#000000" font-family="sans-serif" font-size="13" font-weight="bold" lengthAdjust="spacing" textLength="7" x="567" y="217.8525">4</text><text fill="#000000" font-family="sans-serif" font-size="13" lengthAdjust="spacing" textLength="75" x="578" y="217.8525">getInstance()</text><polygon fill="#181818" points="571,250.4063,561,254.4063,571,258.4063,567,254.4063" style="stroke:#181818;stroke-width:1.0;"/><line style="stroke:#181818;stroke-width:1.0;stroke-dasharray:2.0,2.0;" x1="565" x2="691.5" y1="254.4063" y2="254.4063"/><text fill="#000000" font-family="sans-serif" font-size="13" font-weight="bold" lengthAdjust="spacing" textLength="7" x="577" y="249.1436">5</text><text fill="#000000" font-family="sans-serif" font-size="13" lengthAdjust="spacing" textLength="67" x="588" y="249.1436">repositories</text><polygon fill="#181818" points="782.5,281.6973,792.5,285.6973,782.5,289.6973,786.5,285.6973" style="stroke:#181818;stroke-width:1.0;"/><line style="stroke:#181818;stroke-width:1.0;" x1="560" x2="788.5" y1="285.6973" y2="285.6973"/><text fill="#000000" font-family="sans-serif" font-size="13" font-weight="bold" lengthAdjust="spacing" textLength="7" x="567" y="280.4346">6</text><text fill="#000000" font-family="sans-serif" font-size="13" lengthAdjust="spacing" textLength="113" x="578" y="280.4346">getSkillRepository()</text><polygon fill="#181818" points="571,312.9883,561,316.9883,571,320.9883,567,316.9883" style="stroke:#181818;stroke-width:1.0;"/><line style="stroke:#181818;stroke-width:1.0;stroke-dasharray:2.0,2.0;" x1="565" x2="798.5" y1="316.9883" y2="316.9883"/><text fill="#000000" font-family="sans-serif" font-size="13" font-weight="bold" lengthAdjust="spacing" textLength="7" x="577" y="311.7256">7</text><text fill="#000000" font-family="sans-serif" font-size="13" lengthAdjust="spacing" textLength="106" x="588" y="311.7256">skillListRepository</text><polygon fill="#181818" points="906.5,344.2793,916.5,348.2793,906.5,352.2793,910.5,348.2793" style="stroke:#181818;stroke-width:1.0;"/><line style="stroke:#181818;stroke-width:1.0;" x1="560" x2="912.5" y1="348.2793" y2="348.2793"/><text fill="#000000" font-family="sans-serif" font-size="13" font-weight="bold" lengthAdjust="spacing" textLength="7" x="567" y="343.0166">8</text><text fill="#000000" font-family="sans-serif" font-size="13" lengthAdjust="spacing" textLength="72" x="578" y="343.0166">getSkillList()</text><polygon fill="#181818" points="571,375.5703,561,379.5703,571,383.5703,567,379.5703" style="stroke:#181818;stroke-width:1.0;"/><line style="stroke:#181818;stroke-width:1.0;stroke-dasharray:2.0,2.0;" x1="565" x2="922.5" y1="379.5703" y2="379.5703"/><text fill="#000000" font-family="sans-serif" font-size="13" font-weight="bold" lengthAdjust="spacing" textLength="7" x="577" y="374.3076">9</text><text fill="#000000" font-family="sans-serif" font-size="13" lengthAdjust="spacing" textLength="44" x="588" y="374.3076">skillList</text><polygon fill="#181818" points="409,406.8613,399,410.8613,409,414.8613,405,410.8613" style="stroke:#181818;stroke-width:1.0;"/><line style="stroke:#181818;stroke-width:1.0;stroke-dasharray:2.0,2.0;" x1="403" x2="554" y1="410.8613" y2="410.8613"/><text fill="#000000" font-family="sans-serif" font-size="13" font-weight="bold" lengthAdjust="spacing" textLength="14" x="415" y="405.5986">10</text><text fill="#000000" font-family="sans-serif" font-size="13" lengthAdjust="spacing" textLength="44" x="433" y="405.5986">skillList</text><polygon fill="#181818" points="112,438.1523,102,442.1523,112,446.1523,108,442.1523" style="stroke:#181818;stroke-width:1.0;"/><line style="stroke:#181818;stroke-width:1.0;stroke-dasharray:2.0,2.0;" x1="106" x2="387" y1="442.1523" y2="442.1523"/><text fill="#000000" font-family="sans-serif" font-size="13" font-weight="bold" lengthAdjust="spacing" textLength="14" x="118" y="436.8896">11</text><text fill="#000000" font-family="sans-serif" font-size="13" lengthAdjust="spacing" textLength="78" x="136" y="436.8896">show skill list</text><polygon fill="#181818" points="112,469.4434,102,473.4434,112,477.4434,108,473.4434" style="stroke:#181818;stroke-width:1.0;"/><line style="stroke:#181818;stroke-width:1.0;stroke-dasharray:2.0,2.0;" x1="106" x2="392" y1="473.4434" y2="473.4434"/><text fill="#000000" font-family="sans-serif" font-size="13" font-weight="bold" lengthAdjust="spacing" textLength="14" x="118" y="468.1807">12</text><text fill="#000000" font-family="sans-serif" font-size="13" lengthAdjust="spacing" textLength="116" x="136" y="468.1807">request data (name)</text><polygon fill="#181818" points="376,500.7344,386,504.7344,376,508.7344,380,504.7344" style="stroke:#181818;stroke-width:1.0;"/><line style="stroke:#181818;stroke-width:1.0;" x1="101" x2="382" y1="504.7344" y2="504.7344"/><text fill="#000000" font-family="sans-serif" font-size="13" font-weight="bold" lengthAdjust="spacing" textLength="14" x="108" y="499.4717">13</text><text fill="#000000" font-family="sans-serif" font-size="13" lengthAdjust="spacing" textLength="166" x="126" y="499.4717">types requested data (name)</text><polygon fill="#181818" points="112,532.0254,102,536.0254,112,540.0254,108,536.0254" style="stroke:#181818;stroke-width:1.0;"/><line style="stroke:#181818;stroke-width:1.0;stroke-dasharray:2.0,2.0;" x1="106" x2="392" y1="536.0254" y2="536.0254"/><text fill="#000000" font-family="sans-serif" font-size="13" font-weight="bold" lengthAdjust="spacing" textLength="14" x="118" y="530.7627">14</text><text fill="#000000" font-family="sans-serif" font-size="13" lengthAdjust="spacing" textLength="163" x="136" y="530.7627">shows requested data typed</text><polygon fill="#181818" points="376,563.3164,386,567.3164,376,571.3164,380,567.3164" style="stroke:#181818;stroke-width:1.0;"/><line style="stroke:#181818;stroke-width:1.0;" x1="101" x2="382" y1="567.3164" y2="567.3164"/><text fill="#000000" font-family="sans-serif" font-size="13" font-weight="bold" lengthAdjust="spacing" textLength="14" x="108" y="562.0537">15</text><text fill="#000000" font-family="sans-serif" font-size="13" lengthAdjust="spacing" textLength="75" x="126" y="562.0537">submits data</text><polygon fill="#181818" points="538,594.6074,548,598.6074,538,602.6074,542,598.6074" style="stroke:#181818;stroke-width:1.0;"/><line style="stroke:#181818;stroke-width:1.0;" x1="398" x2="544" y1="598.6074" y2="598.6074"/><text fill="#000000" font-family="sans-serif" font-size="13" font-weight="bold" lengthAdjust="spacing" textLength="14" x="405" y="593.3447">16</text><text fill="#000000" font-family="sans-serif" font-size="13" lengthAdjust="spacing" textLength="108" x="423" y="593.3447">registerSkill(name)</text><polygon fill="#181818" points="1052.5,625.8984,1062.5,629.8984,1052.5,633.8984,1056.5,629.8984" style="stroke:#181818;stroke-width:1.0;"/><line style="stroke:#181818;stroke-width:1.0;" x1="555" x2="1058.5" y1="629.8984" y2="629.8984"/><text fill="#000000" font-family="sans-serif" font-size="13" font-weight="bold" lengthAdjust="spacing" textLength="14" x="562" y="624.6357">17</text><text fill="#000000" font-family="sans-serif" font-size="13" lengthAdjust="spacing" textLength="108" x="580" y="624.6357">registerSkill(name)</text><line style="stroke:#181818;stroke-width:1.0;stroke-dasharray:2.0,2.0;" x1="1074.5" x2="1116.5" y1="661.1895" y2="661.1895"/><line style="stroke:#181818;stroke-width:1.0;stroke-dasharray:2.0,2.0;" x1="1116.5" x2="1116.5" y1="661.1895" y2="674.1895"/><line style="stroke:#181818;stroke-width:1.0;stroke-dasharray:2.0,2.0;" x1="1075.5" x2="1116.5" y1="674.1895" y2="674.1895"/><polygon fill="#181818" points="1085.5,670.1895,1075.5,674.1895,1085.5,678.1895,1081.5,674.1895" style="stroke:#181818;stroke-width:1.0;"/><text fill="#000000" font-family="sans-serif" font-size="13" font-weight="bold" lengthAdjust="spacing" textLength="14" x="1081.5" y="655.9268">18</text><text fill="#000000" font-family="sans-serif" font-size="13" lengthAdjust="spacing" textLength="133" x="1099.5" y="655.9268">validateNameSkill(skill)</text><path d="M1038,689.1895 L1111,689.1895 L1111,698.4805 L1101,708.4805 L1038,708.4805 L1038,689.1895 " fill="#EEEEEE" style="stroke:#000000;stroke-width:1.5;"/><rect fill="none" height="107.873" style="stroke:#000000;stroke-width:1.5;" width="211.5" x="1038" y="689.1895"/><text fill="#000000" font-family="sans-serif" font-size="13" font-weight="bold" lengthAdjust="spacing" textLength="28" x="1053" y="704.2178">loop</text><text fill="#000000" font-family="sans-serif" font-size="11" font-weight="bold" lengthAdjust="spacing" textLength="117" x="1126" y="703.0596">[[for each skill name]</text><line style="stroke:#181818;stroke-width:1.0;" x1="1074.5" x2="1121.5" y1="726.7715" y2="726.7715"/><line style="stroke:#181818;stroke-width:1.0;" x1="1121.5" x2="1121.5" y1="726.7715" y2="739.7715"/><line style="stroke:#181818;stroke-width:1.0;" x1="1080.5" x2="1121.5" y1="739.7715" y2="739.7715"/><polygon fill="#181818" points="1090.5,735.7715,1080.5,739.7715,1090.5,743.7715,1086.5,739.7715" style="stroke:#181818;stroke-width:1.0;"/><text fill="#000000" font-family="sans-serif" font-size="13" font-weight="bold" lengthAdjust="spacing" textLength="14" x="1086.5" y="721.5088">19</text><text fill="#000000" font-family="sans-serif" font-size="13" lengthAdjust="spacing" textLength="133" x="1104.5" y="721.5088">validateNameSkill(skill)</text><line style="stroke:#181818;stroke-width:1.0;stroke-dasharray:2.0,2.0;" x1="1079.5" x2="1121.5" y1="781.0625" y2="781.0625"/><line style="stroke:#181818;stroke-width:1.0;stroke-dasharray:2.0,2.0;" x1="1121.5" x2="1121.5" y1="781.0625" y2="794.0625"/><line style="stroke:#181818;stroke-width:1.0;stroke-dasharray:2.0,2.0;" x1="1074.5" x2="1121.5" y1="794.0625" y2="794.0625"/><polygon fill="#181818" points="1084.5,790.0625,1074.5,794.0625,1084.5,798.0625,1080.5,794.0625" style="stroke:#181818;stroke-width:1.0;"/><text fill="#000000" font-family="sans-serif" font-size="13" font-weight="bold" lengthAdjust="spacing" textLength="14" x="1086.5" y="775.7998">20</text><text fill="#000000" font-family="sans-serif" font-size="13" lengthAdjust="spacing" textLength="53" x="1104.5" y="775.7998">true/false</text><polygon fill="#181818" points="939.5,823.3535,929.5,827.3535,939.5,831.3535,935.5,827.3535" style="stroke:#181818;stroke-width:1.0;"/><line style="stroke:#181818;stroke-width:1.0;stroke-dasharray:2.0,2.0;" x1="933.5" x2="1068.5" y1="827.3535" y2="827.3535"/><text fill="#000000" font-family="sans-serif" font-size="13" font-weight="bold" lengthAdjust="spacing" textLength="14" x="945.5" y="822.0908">21</text><text fill="#000000" font-family="sans-serif" font-size="13" lengthAdjust="spacing" textLength="23" x="963.5" y="822.0908">skill</text><line style="stroke:#181818;stroke-width:1.0;" x1="928.5" x2="975.5" y1="853.6445" y2="853.6445"/><line style="stroke:#181818;stroke-width:1.0;" x1="975.5" x2="975.5" y1="853.6445" y2="866.6445"/><line style="stroke:#181818;stroke-width:1.0;" x1="934.5" x2="975.5" y1="866.6445" y2="866.6445"/><polygon fill="#181818" points="944.5,862.6445,934.5,866.6445,944.5,870.6445,940.5,866.6445" style="stroke:#181818;stroke-width:1.0;"/><text fill="#000000" font-family="sans-serif" font-size="13" font-weight="bold" lengthAdjust="spacing" textLength="14" x="940.5" y="848.3818">22</text><text fill="#000000" font-family="sans-serif" font-size="13" lengthAdjust="spacing" textLength="77" x="958.5" y="848.3818">addSkill(skill)</text><line style="stroke:#181818;stroke-width:1.0;" x1="933.5" x2="980.5" y1="897.9355" y2="897.9355"/><line style="stroke:#181818;stroke-width:1.0;" x1="980.5" x2="980.5" y1="897.9355" y2="910.9355"/><line style="stroke:#181818;stroke-width:1.0;" x1="939.5" x2="980.5" y1="910.9355" y2="910.9355"/><polygon fill="#181818" points="949.5,906.9355,939.5,910.9355,949.5,914.9355,945.5,910.9355" style="stroke:#181818;stroke-width:1.0;"/><text fill="#000000" font-family="sans-serif" font-size="13" font-weight="bold" lengthAdjust="spacing" textLength="14" x="945.5" y="892.6729">23</text><text fill="#000000" font-family="sans-serif" font-size="13" lengthAdjust="spacing" textLength="99" x="963.5" y="892.6729">validateSkill(skill)</text><line style="stroke:#181818;stroke-width:1.0;stroke-dasharray:2.0,2.0;" x1="938.5" x2="980.5" y1="952.2266" y2="952.2266"/><line style="stroke:#181818;stroke-width:1.0;stroke-dasharray:2.0,2.0;" x1="980.5" x2="980.5" y1="952.2266" y2="965.2266"/><line style="stroke:#181818;stroke-width:1.0;stroke-dasharray:2.0,2.0;" x1="933.5" x2="980.5" y1="965.2266" y2="965.2266"/><polygon fill="#181818" points="943.5,961.2266,933.5,965.2266,943.5,969.2266,939.5,965.2266" style="stroke:#181818;stroke-width:1.0;"/><text fill="#000000" font-family="sans-serif" font-size="13" font-weight="bold" lengthAdjust="spacing" textLength="14" x="945.5" y="946.9639">24</text><text fill="#000000" font-family="sans-serif" font-size="13" lengthAdjust="spacing" textLength="4" x="963.5" y="946.9639">&#160;</text><line style="stroke:#181818;stroke-width:1.0;stroke-dasharray:2.0,2.0;" x1="933.5" x2="975.5" y1="996.5176" y2="996.5176"/><line style="stroke:#181818;stroke-width:1.0;stroke-dasharray:2.0,2.0;" x1="975.5" x2="975.5" y1="996.5176" y2="1009.5176"/><line style="stroke:#181818;stroke-width:1.0;stroke-dasharray:2.0,2.0;" x1="928.5" x2="975.5" y1="1009.5176" y2="1009.5176"/><polygon fill="#181818" points="938.5,1005.5176,928.5,1009.5176,938.5,1013.5176,934.5,1009.5176" style="stroke:#181818;stroke-width:1.0;"/><text fill="#000000" font-family="sans-serif" font-size="13" font-weight="bold" lengthAdjust="spacing" textLength="14" x="940.5" y="991.2549">25</text><text fill="#000000" font-family="sans-serif" font-size="13" lengthAdjust="spacing" textLength="4" x="958.5" y="991.2549">&#160;</text><polygon fill="#181818" points="571,1031.8086,561,1035.8086,571,1039.8086,567,1035.8086" style="stroke:#181818;stroke-width:1.0;"/><line style="stroke:#181818;stroke-width:1.0;stroke-dasharray:2.0,2.0;" x1="565" x2="917.5" y1="1035.8086" y2="1035.8086"/><text fill="#000000" font-family="sans-serif" font-size="13" font-weight="bold" lengthAdjust="spacing" textLength="14" x="577" y="1030.5459">26</text><text fill="#000000" font-family="sans-serif" font-size="13" lengthAdjust="spacing" textLength="23" x="595" y="1030.5459">skill</text><polygon fill="#181818" points="409,1093.0996,399,1097.0996,409,1101.0996,405,1097.0996" style="stroke:#181818;stroke-width:1.0;"/><line style="stroke:#181818;stroke-width:1.0;stroke-dasharray:2.0,2.0;" x1="403" x2="554" y1="1097.0996" y2="1097.0996"/><text fill="#000000" font-family="sans-serif" font-size="13" font-weight="bold" lengthAdjust="spacing" textLength="14" x="415" y="1091.8369">27</text><text fill="#000000" font-family="sans-serif" font-size="13" lengthAdjust="spacing" textLength="23" x="433" y="1091.8369">skill</text><polygon fill="#181818" points="107,1124.3906,97,1128.3906,107,1132.3906,103,1128.3906" style="stroke:#181818;stroke-width:1.0;"/><line style="stroke:#181818;stroke-width:1.0;stroke-dasharray:2.0,2.0;" x1="101" x2="392" y1="1128.3906" y2="1128.3906"/><text fill="#000000" font-family="sans-serif" font-size="13" font-weight="bold" lengthAdjust="spacing" textLength="14" x="113" y="1123.1279">28</text><text fill="#000000" font-family="sans-serif" font-size="13" lengthAdjust="spacing" textLength="245" x="131" y="1123.1279">Confirms the (un)success of the operation.</text><!--SRC=[fLPDRzim3BthLn2zB2sGxPx3WA4erW3jLYJjQRkeDfC8iILFajlbtu-IlstPSJgT4fbyVAIUI9cZa1dNF8LKIHKTj4eHhCwHcVfBngCZt-FMdX84ZP7bSf-q3So1n-fTo3tiU6AGCPvR9VFq5JLZdmuYHjWfPL_LNyOZgpHStUSfbx11et8TeO57BYc2lW9ku7xpo0ZNYaXaN5guMcrmBun5lJsA97bPUwkNzPJHhP9MgoGf8M-VDmy3yqmPGMG46czJRvosmkL76NHTTClZjnm2F3ryU-vw64VbWLWrsEGOsFN-Vh_P2q2Hiy_EczyzFctkllzahgJYZLlqXMDGBle3owzK9bYHzT60LNHsHOc0WyJt8c3ZKUDGQUjDjmY3a5mDRsu8hK8PCoAJFTfjbUNYkcDNH_5dqldabWSWeC1f5BXhQKX_4VPWEz2XennOknMAiYpJS8as9pnmZ_6oS5LYJYMj2ZM-KmbvQGKpy70DvO2sffY7SIkgFK5Edsk7Rr_AGUfz-6MZdpgDAV9dWnHvL9SWZDd2AmJ9Xh8c17UR2EAWobi3IH-eOwZnJux6GimjXuNaAJR5QaLq5utrBwizPTGGImIC1nZ1QpgWEK1miF4OYL3JCFbhAgpntk4RNDCFzW3TxiUz6WGQmQWAopvt7d3ESGw2LrqKHbRvtLUt-hs2Dvu8gWl-81857Q-AQpQAaoYLmQyTpJvYU2X5v78OzMZ5dXKQ9jOWtKdhYSJTo-1BCUIdd5l7SAx0A6F6PfL_s8wA0JQJmBGEFjQn1gHeriPnLn6NnHqhn9pGbJHcoU9Y1cCjUwx_9PtxV-DT6klSA6BJ9Gm_PJuugiP2zbjR_tip0bP0pz-Tq2az-Wu8YrnUcpoYPxO1jVDRAaFDhL3oyyX4wEsub-K_]--></g></svg>