<?xml version="1.0" encoding="us-ascii" standalone="no"?><svg xmlns="http://www.w3.org/2000/svg" xmlns:xlink="http://www.w3.org/1999/xlink" contentStyleType="text/css" height="523px" preserveAspectRatio="none" style="width:697px;height:523px;background:#FFFFFF;" version="1.1" viewBox="0 0 697 523" width="697px" zoomAndPan="magnify"><defs/><g><rect fill="#FFFFFF" height="370.6563" style="stroke:#181818;stroke-width:1.0;" width="10" x="209" y="83.7266"/><rect fill="#FFFFFF" height="124.3984" style="stroke:#181818;stroke-width:1.0;" width="10" x="214" y="286.8516"/><rect fill="#FFFFFF" height="40.1328" style="stroke:#181818;stroke-width:1.0;" width="10" x="219" y="328.9844"/><rect fill="#FFFFFF" height="137.8594" style="stroke:#181818;stroke-width:1.0;" width="10" x="425" y="146.9922"/><rect fill="#FFFFFF" height="40.1328" style="stroke:#181818;stroke-width:1.0;" width="10" x="430" y="202.5859"/><rect fill="none" height="327.5234" style="stroke:#000000;stroke-width:1.5;" width="548" x="143" y="98.7266"/><line style="stroke:#181818;stroke-width:0.5;stroke-dasharray:5.0,5.0;" x1="214" x2="214" y1="52.5938" y2="472.3828"/><line style="stroke:#181818;stroke-width:0.5;stroke-dasharray:5.0,5.0;" x1="430" x2="430" y1="154.6563" y2="472.3828"/><rect fill="#E3E3E3" height="46.5938" rx="2.5" ry="2.5" style="stroke:#181818;stroke-width:0.5;" width="122" x="153" y="5"/><text fill="#000000" font-family="sans-serif" font-size="14" lengthAdjust="spacing" textLength="103" x="162.5" y="24.9951">skillRepository</text><text fill="#000000" font-family="sans-serif" font-size="14" lengthAdjust="spacing" textLength="108" x="160" y="41.292">:skillRepository</text><rect fill="#E3E3E3" height="46.5938" rx="2.5" ry="2.5" style="stroke:#181818;stroke-width:0.5;" width="122" x="153" y="471.3828"/><text fill="#000000" font-family="sans-serif" font-size="14" lengthAdjust="spacing" textLength="103" x="162.5" y="491.3779">skillRepository</text><text fill="#000000" font-family="sans-serif" font-size="14" lengthAdjust="spacing" textLength="108" x="160" y="507.6748">:skillRepository</text><rect fill="#E3E3E3" height="46.5938" rx="2.5" ry="2.5" style="stroke:#181818;stroke-width:0.5;" width="48" x="406" y="471.3828"/><text fill="#000000" font-family="sans-serif" font-size="14" lengthAdjust="spacing" textLength="27" x="416.5" y="491.3779">skill</text><text fill="#000000" font-family="sans-serif" font-size="14" lengthAdjust="spacing" textLength="34" x="413" y="507.6748">:Skill</text><rect fill="#FFFFFF" height="370.6563" style="stroke:#181818;stroke-width:1.0;" width="10" x="209" y="83.7266"/><rect fill="#FFFFFF" height="124.3984" style="stroke:#181818;stroke-width:1.0;" width="10" x="214" y="286.8516"/><rect fill="#FFFFFF" height="40.1328" style="stroke:#181818;stroke-width:1.0;" width="10" x="219" y="328.9844"/><rect fill="#FFFFFF" height="137.8594" style="stroke:#181818;stroke-width:1.0;" width="10" x="425" y="146.9922"/><rect fill="#FFFFFF" height="40.1328" style="stroke:#181818;stroke-width:1.0;" width="10" x="430" y="202.5859"/><polygon fill="#181818" points="197,79.7266,207,83.7266,197,87.7266,201,83.7266" style="stroke:#181818;stroke-width:1.0;"/><line style="stroke:#181818;stroke-width:1.0;" x1="0" x2="203" y1="83.7266" y2="83.7266"/><text fill="#000000" font-family="sans-serif" font-size="13" font-weight="bold" lengthAdjust="spacing" textLength="32" x="7" y="78.6606">16.1</text><text fill="#000000" font-family="sans-serif" font-size="13" lengthAdjust="spacing" textLength="154" x="43" y="78.6606">registerSkill(skillName)</text><path d="M143,98.7266 L283,98.7266 L283,105.8594 L273,115.8594 L143,115.8594 L143,98.7266 " fill="#EEEEEE" style="stroke:#000000;stroke-width:1.5;"/><rect fill="none" height="327.5234" style="stroke:#000000;stroke-width:1.5;" width="548" x="143" y="98.7266"/><text fill="#000000" font-family="sans-serif" font-size="13" font-weight="bold" lengthAdjust="spacing" textLength="95" x="158" y="111.7935">Register skill</text><polygon fill="#181818" points="394,132.9922,404,136.9922,394,140.9922,398,136.9922" style="stroke:#181818;stroke-width:1.0;"/><line style="stroke:#181818;stroke-width:1.0;" x1="219" x2="400" y1="136.9922" y2="136.9922"/><text fill="#000000" font-family="sans-serif" font-size="13" font-weight="bold" lengthAdjust="spacing" textLength="32" x="226" y="131.9263">16.2</text><text fill="#000000" font-family="sans-serif" font-size="13" lengthAdjust="spacing" textLength="127" x="262" y="131.9263">register(SkillName)</text><rect fill="#E3E3E3" height="46.5938" rx="2.5" ry="2.5" style="stroke:#181818;stroke-width:0.5;" width="48" x="406" y="115.8594"/><text fill="#000000" font-family="sans-serif" font-size="14" lengthAdjust="spacing" textLength="27" x="416.5" y="135.8545">skill</text><text fill="#000000" font-family="sans-serif" font-size="14" lengthAdjust="spacing" textLength="34" x="413" y="152.1514">:Skill</text><line style="stroke:#181818;stroke-width:1.0;" x1="435" x2="482" y1="189.5859" y2="189.5859"/><line style="stroke:#181818;stroke-width:1.0;" x1="482" x2="482" y1="189.5859" y2="202.5859"/><line style="stroke:#181818;stroke-width:1.0;" x1="441" x2="482" y1="202.5859" y2="202.5859"/><polygon fill="#181818" points="451,198.5859,441,202.5859,451,206.5859,447,202.5859" style="stroke:#181818;stroke-width:1.0;"/><text fill="#000000" font-family="sans-serif" font-size="13" font-weight="bold" lengthAdjust="spacing" textLength="32" x="447" y="184.52">16.3</text><text fill="#000000" font-family="sans-serif" font-size="13" lengthAdjust="spacing" textLength="196" x="483" y="184.52">validateSkillName(skillName)</text><line style="stroke:#181818;stroke-width:1.0;stroke-dasharray:2.0,2.0;" x1="440" x2="482" y1="241.7188" y2="241.7188"/><line style="stroke:#181818;stroke-width:1.0;stroke-dasharray:2.0,2.0;" x1="482" x2="482" y1="241.7188" y2="254.7188"/><line style="stroke:#181818;stroke-width:1.0;stroke-dasharray:2.0,2.0;" x1="435" x2="482" y1="254.7188" y2="254.7188"/><polygon fill="#181818" points="445,250.7188,435,254.7188,445,258.7188,441,254.7188" style="stroke:#181818;stroke-width:1.0;"/><text fill="#000000" font-family="sans-serif" font-size="13" font-weight="bold" lengthAdjust="spacing" textLength="32" x="447" y="236.6528">16.4</text><text fill="#000000" font-family="sans-serif" font-size="13" lengthAdjust="spacing" textLength="4" x="483" y="236.6528">&#160;</text><line style="stroke:#181818;stroke-width:1.0;" x1="224" x2="266" y1="278.8516" y2="278.8516"/><line style="stroke:#181818;stroke-width:1.0;" x1="266" x2="266" y1="278.8516" y2="291.8516"/><line style="stroke:#181818;stroke-width:1.0;" x1="225" x2="266" y1="291.8516" y2="291.8516"/><polygon fill="#181818" points="235,287.8516,225,291.8516,235,295.8516,231,291.8516" style="stroke:#181818;stroke-width:1.0;"/><text fill="#000000" font-family="sans-serif" font-size="13" font-weight="bold" lengthAdjust="spacing" textLength="32" x="231" y="273.7856">16.5</text><text fill="#000000" font-family="sans-serif" font-size="13" lengthAdjust="spacing" textLength="89" x="267" y="273.7856">addSkill(skill)</text><line style="stroke:#181818;stroke-width:1.0;" x1="224" x2="271" y1="315.9844" y2="315.9844"/><line style="stroke:#181818;stroke-width:1.0;" x1="271" x2="271" y1="315.9844" y2="328.9844"/><line style="stroke:#181818;stroke-width:1.0;" x1="230" x2="271" y1="328.9844" y2="328.9844"/><polygon fill="#181818" points="240,324.9844,230,328.9844,240,332.9844,236,328.9844" style="stroke:#181818;stroke-width:1.0;"/><text fill="#000000" font-family="sans-serif" font-size="13" font-weight="bold" lengthAdjust="spacing" textLength="32" x="236" y="310.9185">16.6</text><text fill="#000000" font-family="sans-serif" font-size="13" lengthAdjust="spacing" textLength="118" x="272" y="310.9185">validateSkill(skill)</text><line style="stroke:#181818;stroke-width:1.0;stroke-dasharray:2.0,2.0;" x1="229" x2="271" y1="368.1172" y2="368.1172"/><line style="stroke:#181818;stroke-width:1.0;stroke-dasharray:2.0,2.0;" x1="271" x2="271" y1="368.1172" y2="381.1172"/><line style="stroke:#181818;stroke-width:1.0;stroke-dasharray:2.0,2.0;" x1="224" x2="271" y1="381.1172" y2="381.1172"/><polygon fill="#181818" points="234,377.1172,224,381.1172,234,385.1172,230,381.1172" style="stroke:#181818;stroke-width:1.0;"/><text fill="#000000" font-family="sans-serif" font-size="13" font-weight="bold" lengthAdjust="spacing" textLength="32" x="236" y="363.0513">16.7</text><text fill="#000000" font-family="sans-serif" font-size="13" lengthAdjust="spacing" textLength="4" x="272" y="363.0513">&#160;</text><line style="stroke:#181818;stroke-width:1.0;stroke-dasharray:2.0,2.0;" x1="224" x2="266" y1="410.25" y2="410.25"/><line style="stroke:#181818;stroke-width:1.0;stroke-dasharray:2.0,2.0;" x1="266" x2="266" y1="410.25" y2="423.25"/><line style="stroke:#181818;stroke-width:1.0;stroke-dasharray:2.0,2.0;" x1="219" x2="266" y1="423.25" y2="423.25"/><polygon fill="#181818" points="229,419.25,219,423.25,229,427.25,225,423.25" style="stroke:#181818;stroke-width:1.0;"/><text fill="#000000" font-family="sans-serif" font-size="13" font-weight="bold" lengthAdjust="spacing" textLength="32" x="231" y="405.1841">16.8</text><text fill="#000000" font-family="sans-serif" font-size="13" lengthAdjust="spacing" textLength="4" x="267" y="405.1841">&#160;</text><polygon fill="#181818" points="11,450.3828,1,454.3828,11,458.3828,7,454.3828" style="stroke:#181818;stroke-width:1.0;"/><line style="stroke:#181818;stroke-width:1.0;stroke-dasharray:2.0,2.0;" x1="5" x2="213" y1="454.3828" y2="454.3828"/><text fill="#000000" font-family="sans-serif" font-size="13" font-weight="bold" lengthAdjust="spacing" textLength="18" x="17" y="449.3169">17</text><text fill="#000000" font-family="sans-serif" font-size="13" lengthAdjust="spacing" textLength="27" x="39" y="449.3169">skill</text><!--SRC=[XPB1JiCm38RlUGfhfp6fIBk0L25kqqvZgBroCQtfehL9bQH3UtkIhAHPO9qlLUtVtszRqKSkUbJOGIU5h0vATWH63SHqgFHO7R6XqfnR0aMLGT6qiK0Vi9RVN3JmXQqcncpQy8htA0mihAvj2-gbvaQgyuV8aym2KCE-sFxJPiMb-th9PlTURBPxnd0mKWpT9obOFoM_Zsl6O8pirM5pEtF3jI7bKKiFViEE7eBG1LQ6dz2GdoGkD4eEFHGZ0tnx45Yninb7MwrWSbkMan7xu_AxJEmqvYAWnPsmvRNj2BIx2uGxGHA1FnbSYsgQXupR-gDYNKVtd4QPOzoySGo-MZYbpr82wOAwjPehiNizYTwbIDINllZ1FVlCIvPvIZu-ZzJj1m00]--></g></svg>