<?xml version="1.0" encoding="us-ascii" standalone="no"?><svg xmlns="http://www.w3.org/2000/svg" xmlns:xlink="http://www.w3.org/1999/xlink" contentStyleType="text/css" height="458px" preserveAspectRatio="none" style="width:913px;height:458px;background:#FFFFFF;" version="1.1" viewBox="0 0 913 458" width="913px" zoomAndPan="magnify"><defs/><g><!--class Skill--><g id="elem_Skill"><rect codeLine="11" fill="#F1F1F1" height="96.8906" id="Skill" rx="2.5" ry="2.5" style="stroke:#181818;stroke-width:0.5;" width="224" x="397" y="355"/><ellipse cx="490.25" cy="371" fill="#ADD1B2" rx="11" ry="11" style="stroke:#181818;stroke-width:1.0;"/><path d="M493.2188,376.6406 Q492.6406,376.9375 492,377.0781 Q491.3594,377.2344 490.6563,377.2344 Q488.1563,377.2344 486.8281,375.5938 Q485.5156,373.9375 485.5156,370.8125 Q485.5156,367.6875 486.8281,366.0313 Q488.1563,364.375 490.6563,364.375 Q491.3594,364.375 492,364.5313 Q492.6563,364.6875 493.2188,364.9844 L493.2188,367.7031 Q492.5938,367.125 492,366.8594 Q491.4063,366.5781 490.7813,366.5781 Q489.4375,366.5781 488.75,367.6563 Q488.0625,368.7188 488.0625,370.8125 Q488.0625,372.9063 488.75,373.9844 Q489.4375,375.0469 490.7813,375.0469 Q491.4063,375.0469 492,374.7813 Q492.5938,374.5 493.2188,373.9219 L493.2188,376.6406 Z " fill="#000000"/><text fill="#000000" font-family="sans-serif" font-size="14" lengthAdjust="spacing" textLength="29" x="510.75" y="375.8467">Skill</text><line style="stroke:#181818;stroke-width:0.5;" x1="398" x2="620" y1="387" y2="387"/><text fill="#000000" font-family="sans-serif" font-size="14" lengthAdjust="spacing" textLength="120" x="403" y="403.9951">-String skillName</text><line style="stroke:#181818;stroke-width:0.5;" x1="398" x2="620" y1="411.2969" y2="411.2969"/><text fill="#000000" font-family="sans-serif" font-size="14" lengthAdjust="spacing" textLength="120" x="403" y="428.292">+Skill(skillName)</text><text fill="#000000" font-family="sans-serif" font-size="14" lengthAdjust="spacing" textLength="212" x="403" y="444.5889">-validateSkillName(skillName)</text></g><!--class SkillRepository--><g id="elem_SkillRepository"><rect codeLine="20" fill="#F1F1F1" height="96.8906" id="SkillRepository" rx="2.5" ry="2.5" style="stroke:#181818;stroke-width:0.5;" width="187" x="415.5" y="181"/><ellipse cx="453" cy="197" fill="#ADD1B2" rx="11" ry="11" style="stroke:#181818;stroke-width:1.0;"/><path d="M455.9688,202.6406 Q455.3906,202.9375 454.75,203.0781 Q454.1094,203.2344 453.4063,203.2344 Q450.9063,203.2344 449.5781,201.5938 Q448.2656,199.9375 448.2656,196.8125 Q448.2656,193.6875 449.5781,192.0313 Q450.9063,190.375 453.4063,190.375 Q454.1094,190.375 454.75,190.5313 Q455.4063,190.6875 455.9688,190.9844 L455.9688,193.7031 Q455.3438,193.125 454.75,192.8594 Q454.1563,192.5781 453.5313,192.5781 Q452.1875,192.5781 451.5,193.6563 Q450.8125,194.7188 450.8125,196.8125 Q450.8125,198.9063 451.5,199.9844 Q452.1875,201.0469 453.5313,201.0469 Q454.1563,201.0469 454.75,200.7813 Q455.3438,200.5 455.9688,199.9219 L455.9688,202.6406 Z " fill="#000000"/><text fill="#000000" font-family="sans-serif" font-size="14" lengthAdjust="spacing" textLength="105" x="472" y="201.8467">SkillRepository</text><line style="stroke:#181818;stroke-width:0.5;" x1="416.5" x2="601.5" y1="213" y2="213"/><line style="stroke:#181818;stroke-width:0.5;" x1="416.5" x2="601.5" y1="221" y2="221"/><text fill="#000000" font-family="sans-serif" font-size="14" lengthAdjust="spacing" textLength="175" x="421.5" y="237.9951">+registerSkill(skillName)</text><text fill="#000000" font-family="sans-serif" font-size="14" lengthAdjust="spacing" textLength="98" x="421.5" y="254.292">-addSkill(skill)</text><text fill="#000000" font-family="sans-serif" font-size="14" lengthAdjust="spacing" textLength="128" x="421.5" y="270.5889">-validateSkill(skill)</text></g><!--class Repositories--><g id="elem_Repositories"><rect codeLine="28" fill="#F1F1F1" height="96.8906" id="Repositories" rx="2.5" ry="2.5" style="stroke:#181818;stroke-width:0.5;" width="218" x="586" y="7"/><ellipse cx="646.75" cy="23" fill="#ADD1B2" rx="11" ry="11" style="stroke:#181818;stroke-width:1.0;"/><path d="M649.7188,28.6406 Q649.1406,28.9375 648.5,29.0781 Q647.8594,29.2344 647.1563,29.2344 Q644.6563,29.2344 643.3281,27.5938 Q642.0156,25.9375 642.0156,22.8125 Q642.0156,19.6875 643.3281,18.0313 Q644.6563,16.375 647.1563,16.375 Q647.8594,16.375 648.5,16.5313 Q649.1563,16.6875 649.7188,16.9844 L649.7188,19.7031 Q649.0938,19.125 648.5,18.8594 Q647.9063,18.5781 647.2813,18.5781 Q645.9375,18.5781 645.25,19.6563 Q644.5625,20.7188 644.5625,22.8125 Q644.5625,24.9063 645.25,25.9844 Q645.9375,27.0469 647.2813,27.0469 Q647.9063,27.0469 648.5,26.7813 Q649.0938,26.5 649.7188,25.9219 L649.7188,28.6406 Z " fill="#000000"/><text fill="#000000" font-family="sans-serif" font-size="14" lengthAdjust="spacing" textLength="88" x="667.25" y="27.8467">Repositories</text><line style="stroke:#181818;stroke-width:0.5;" x1="587" x2="803" y1="39" y2="39"/><line style="stroke:#181818;stroke-width:0.5;" x1="587" x2="803" y1="47" y2="47"/><text fill="#000000" font-family="sans-serif" font-size="14" lengthAdjust="spacing" textLength="103" x="592" y="63.9951">-Repositories()</text><text fill="#000000" font-family="sans-serif" font-size="14" lengthAdjust="spacing" textLength="206" x="592" y="80.292">+getInstance() : Repositories</text><text fill="#000000" font-family="sans-serif" font-size="14" lengthAdjust="spacing" textLength="150" x="592" y="96.5889">+getSkillRepository()</text></g><!--class RegisterSkillController--><g id="elem_RegisterSkillController"><rect codeLine="34" fill="#F1F1F1" height="80.5938" id="RegisterSkillController" rx="2.5" ry="2.5" style="stroke:#181818;stroke-width:0.5;" width="296" x="176" y="15"/><ellipse cx="240.25" cy="31" fill="#ADD1B2" rx="11" ry="11" style="stroke:#181818;stroke-width:1.0;"/><path d="M243.2188,36.6406 Q242.6406,36.9375 242,37.0781 Q241.3594,37.2344 240.6563,37.2344 Q238.1563,37.2344 236.8281,35.5938 Q235.5156,33.9375 235.5156,30.8125 Q235.5156,27.6875 236.8281,26.0313 Q238.1563,24.375 240.6563,24.375 Q241.3594,24.375 242,24.5313 Q242.6563,24.6875 243.2188,24.9844 L243.2188,27.7031 Q242.5938,27.125 242,26.8594 Q241.4063,26.5781 240.7813,26.5781 Q239.4375,26.5781 238.75,27.6563 Q238.0625,28.7188 238.0625,30.8125 Q238.0625,32.9063 238.75,33.9844 Q239.4375,35.0469 240.7813,35.0469 Q241.4063,35.0469 242,34.7813 Q242.5938,34.5 243.2188,33.9219 L243.2188,36.6406 Z " fill="#000000"/><text fill="#000000" font-family="sans-serif" font-size="14" lengthAdjust="spacing" textLength="159" x="260.75" y="35.8467">RegisterSkillController</text><line style="stroke:#181818;stroke-width:0.5;" x1="177" x2="471" y1="47" y2="47"/><line style="stroke:#181818;stroke-width:0.5;" x1="177" x2="471" y1="55" y2="55"/><text fill="#000000" font-family="sans-serif" font-size="14" lengthAdjust="spacing" textLength="284" x="182" y="71.9951">+RegisterSkillController(skillRepository)</text><text fill="#000000" font-family="sans-serif" font-size="14" lengthAdjust="spacing" textLength="175" x="182" y="88.292">+registerSkill(skillName)</text></g><!--class RegisterSkillUI--><g id="elem_RegisterSkillUI"><rect codeLine="39" fill="#F1F1F1" height="48" id="RegisterSkillUI" rx="2.5" ry="2.5" style="stroke:#181818;stroke-width:0.5;" width="134" x="7" y="31.5"/><ellipse cx="22" cy="47.5" fill="#ADD1B2" rx="11" ry="11" style="stroke:#181818;stroke-width:1.0;"/><path d="M24.9688,53.1406 Q24.3906,53.4375 23.75,53.5781 Q23.1094,53.7344 22.4063,53.7344 Q19.9063,53.7344 18.5781,52.0938 Q17.2656,50.4375 17.2656,47.3125 Q17.2656,44.1875 18.5781,42.5313 Q19.9063,40.875 22.4063,40.875 Q23.1094,40.875 23.75,41.0313 Q24.4063,41.1875 24.9688,41.4844 L24.9688,44.2031 Q24.3438,43.625 23.75,43.3594 Q23.1563,43.0781 22.5313,43.0781 Q21.1875,43.0781 20.5,44.1563 Q19.8125,45.2188 19.8125,47.3125 Q19.8125,49.4063 20.5,50.4844 Q21.1875,51.5469 22.5313,51.5469 Q23.1563,51.5469 23.75,51.2813 Q24.3438,51 24.9688,50.4219 L24.9688,53.1406 Z " fill="#000000"/><text fill="#000000" font-family="sans-serif" font-size="14" lengthAdjust="spacing" textLength="102" x="36" y="52.3467">RegisterSkillUI</text><line style="stroke:#181818;stroke-width:0.5;" x1="8" x2="140" y1="63.5" y2="63.5"/><line style="stroke:#181818;stroke-width:0.5;" x1="8" x2="140" y1="71.5" y2="71.5"/></g><!--link RegisterSkillUI to RegisterSkillController--><g id="link_RegisterSkillUI_RegisterSkillController"><path codeLine="42" d="M141.27,55.5 C150.74,55.5 157.33,55.5 157.33,55.5 C157.33,55.5 159.07,55.5 169.83,55.5 " fill="none" id="RegisterSkillUI-to-RegisterSkillController" style="stroke:#181818;stroke-width:1.0;stroke-dasharray:7.0,7.0;"/><polygon fill="#181818" points="175.83,55.5,166.83,51.5,170.83,55.5,166.83,59.5,175.83,55.5" style="stroke:#181818;stroke-width:1.0;"/></g><!--link RegisterSkillController to Repositories--><g id="link_RegisterSkillController_Repositories"><path codeLine="44" d="M472.23,55.5 C510.17,55.5 544.29,55.5 579.86,55.5 " fill="none" id="RegisterSkillController-to-Repositories" style="stroke:#181818;stroke-width:1.0;stroke-dasharray:7.0,7.0;"/><polygon fill="#181818" points="585.86,55.5,576.86,51.5,580.86,55.5,576.86,59.5,585.86,55.5" style="stroke:#181818;stroke-width:1.0;"/><text fill="#000000" font-family="sans-serif" font-size="13" lengthAdjust="spacing" textLength="77" x="490.5" y="48.5669">repositories</text></g><!--link Repositories to SkillRepository--><g id="link_Repositories_SkillRepository"><path codeLine="45" d="M643.19,104.41 C617.39,128.27 590.6944,152.9456 564.9344,176.7756 " fill="none" id="Repositories-to-SkillRepository" style="stroke:#181818;stroke-width:1.0;"/><polygon fill="#181818" points="560.53,180.85,569.8529,177.6746,564.2004,177.4546,564.4203,171.8021,560.53,180.85" style="stroke:#181818;stroke-width:1.0;"/><text fill="#000000" font-family="sans-serif" font-size="13" lengthAdjust="spacing" textLength="8" x="554.9327" y="170.0378">1</text></g><!--link Repositories to Repositories--><g id="link_Repositories_Repositories"><path codeLine="46" d="M804.26,40.2 C824.64,42.09 839,47.19 839,55.5 C839,63.81 830.6144,68.3559 810.2344,70.2459 " fill="none" id="Repositories-to-Repositories" style="stroke:#181818;stroke-width:1.0;"/><polygon fill="#181818" points="804.26,70.8,813.5909,73.9518,809.2386,70.3383,812.8522,65.986,804.26,70.8" style="stroke:#181818;stroke-width:1.0;"/><text fill="#000000" font-family="sans-serif" font-size="13" lengthAdjust="spacing" textLength="55" x="845" y="60.0669">instance</text></g><!--link RegisterSkillController to SkillRepository--><g id="link_RegisterSkillController_SkillRepository"><path codeLine="48" d="M366.91,96.39 C394.02,121.6 424.8056,150.2248 453.3756,176.7848 " fill="none" id="RegisterSkillController-to-SkillRepository" style="stroke:#181818;stroke-width:1.0;stroke-dasharray:7.0,7.0;"/><polygon fill="#181818" points="457.77,180.87,453.9019,171.8125,454.108,177.4656,448.4549,177.6717,457.77,180.87" style="stroke:#181818;stroke-width:1.0;"/><text fill="#000000" font-family="sans-serif" font-size="13" lengthAdjust="spacing" textLength="97" x="424" y="147.0669">skillRepository</text></g><!--link SkillRepository to Skill--><g id="link_SkillRepository_Skill"><path codeLine="50" d="M509,278.41 C509,302.27 509,325.02 509,348.85 " fill="none" id="SkillRepository-to-Skill" style="stroke:#181818;stroke-width:1.0;"/><polygon fill="#181818" points="509,354.85,513,345.85,509,349.85,505,345.85,509,354.85" style="stroke:#181818;stroke-width:1.0;"/><text fill="#000000" font-family="sans-serif" font-size="13" lengthAdjust="spacing" textLength="50" x="510" y="321.0669">register</text><text fill="#000000" font-family="sans-serif" font-size="13" lengthAdjust="spacing" textLength="8" x="491.875" y="344.0378">1</text></g><!--SRC=[XLAnRi8m4Dtz5QSk41MgTcL0Qkd2qg5HDnRNES89nuxEHwkqwh_N108cGEl1ajzxv_Vkx45OawirwmegxxnPiQyGX3UeZaojpLgNc4jZ4HYDQ5VQL11Mkl2Vv4fOQXjInf93QMg4sjjcUr232wHdyKcHiJg4Hn6czutWt7YNqnV2lHfON0g81wPo9L3GDWnvf-9gYo1VaxNmhI2kCUJnYXWgRC4NNM4Bt-v4mmEQxTKVsbAX1VEEI2M3j9HnYOpEu0WA38QftgOOBHovfUTAs-S41K6pScHEqOKhDgnt0kE3n9qncXTFJQpGOJsBXz9pawcVNdklMFj04hbzexVnKKeAWdobCrqK2NEntuvAp0u-XE4mqXGSPdlx4cNkGlmM1eSPJ4v4Hqal_B0rwwoI_3FlXBsro8V-hl2xqCShi__6STdmRHwD8jK7xwRNZ7lQ975Raynj4iCampZXO3oUmiq3tFJVzLGsFhkIziF-8qRCSVPR9j2Rbr9zIHUfozJctrceNm00]--></g></svg>