<?xml version="1.0" encoding="us-ascii" standalone="no"?><svg xmlns="http://www.w3.org/2000/svg" xmlns:xlink="http://www.w3.org/1999/xlink" contentStyleType="text/css" height="572px" preserveAspectRatio="none" style="width:885px;height:572px;background:#FFFFFF;" version="1.1" viewBox="0 0 885 572" width="885px" zoomAndPan="magnify"><defs/><g><rect fill="#FFFFFF" height="382.6953" style="stroke:#181818;stroke-width:1.0;" width="10" x="101.5" y="91.2969"/><rect fill="#FFFFFF" height="70.4297" style="stroke:#181818;stroke-width:1.0;" width="10" x="418.5" y="112.4297"/><rect fill="#FFFFFF" height="29.1328" style="stroke:#181818;stroke-width:1.0;" width="10" x="418.5" y="211.9922"/><rect fill="#FFFFFF" height="203.7344" style="stroke:#181818;stroke-width:1.0;" width="10" x="418.5" y="270.2578"/><rect fill="#FFFFFF" height="145.4688" style="stroke:#181818;stroke-width:1.0;" width="10" x="614.5" y="299.3906"/><rect fill="#FFFFFF" height="87.2031" style="stroke:#181818;stroke-width:1.0;" width="10" x="810.5" y="328.5234"/><line style="stroke:#181818;stroke-width:0.5;stroke-dasharray:5.0,5.0;" x1="106" x2="106" y1="81.2969" y2="491.9922"/><line style="stroke:#181818;stroke-width:0.5;stroke-dasharray:5.0,5.0;" x1="423.5" x2="423.5" y1="81.2969" y2="491.9922"/><line style="stroke:#181818;stroke-width:0.5;stroke-dasharray:5.0,5.0;" x1="619.5" x2="619.5" y1="151.0781" y2="491.9922"/><line style="stroke:#181818;stroke-width:0.5;stroke-dasharray:5.0,5.0;" x1="815.5" x2="815.5" y1="81.2969" y2="491.9922"/><text fill="#000000" font-family="sans-serif" font-size="14" lengthAdjust="spacing" textLength="197" x="5" y="77.9951">Human Resources Manager</text><ellipse cx="106.5" cy="13.5" fill="#E3E3E3" rx="8" ry="8" style="stroke:#181818;stroke-width:0.5;"/><path d="M106.5,21.5 L106.5,48.5 M93.5,29.5 L119.5,29.5 M106.5,48.5 L93.5,63.5 M106.5,48.5 L119.5,63.5 " fill="none" style="stroke:#181818;stroke-width:0.5;"/><text fill="#000000" font-family="sans-serif" font-size="14" lengthAdjust="spacing" textLength="197" x="5" y="503.9873">Human Resources Manager</text><ellipse cx="106.5" cy="515.7891" fill="#E3E3E3" rx="8" ry="8" style="stroke:#181818;stroke-width:0.5;"/><path d="M106.5,523.7891 L106.5,550.7891 M93.5,531.7891 L119.5,531.7891 M106.5,550.7891 L93.5,565.7891 M106.5,550.7891 L119.5,565.7891 " fill="none" style="stroke:#181818;stroke-width:0.5;"/><rect fill="#E3E3E3" height="30.2969" rx="2.5" ry="2.5" style="stroke:#181818;stroke-width:0.5;" width="110" x="368.5" y="50"/><text fill="#000000" font-family="sans-serif" font-size="14" lengthAdjust="spacing" textLength="96" x="375.5" y="69.9951">:CreateSkillUI</text><rect fill="#E3E3E3" height="30.2969" rx="2.5" ry="2.5" style="stroke:#181818;stroke-width:0.5;" width="110" x="368.5" y="490.9922"/><text fill="#000000" font-family="sans-serif" font-size="14" lengthAdjust="spacing" textLength="96" x="375.5" y="510.9873">:CreateSkillUI</text><rect fill="#E3E3E3" height="30.2969" rx="2.5" ry="2.5" style="stroke:#181818;stroke-width:0.5;" width="178" x="530.5" y="490.9922"/><text fill="#000000" font-family="sans-serif" font-size="14" lengthAdjust="spacing" textLength="164" x="537.5" y="510.9873">:RegisterSkillController</text><rect fill="#E3E3E3" height="46.5938" rx="2.5" ry="2.5" style="stroke:#181818;stroke-width:0.5;" width="122" x="754.5" y="33.7031"/><text fill="#000000" font-family="sans-serif" font-size="14" lengthAdjust="spacing" textLength="103" x="764" y="53.6982">skillRepository</text><text fill="#000000" font-family="sans-serif" font-size="14" lengthAdjust="spacing" textLength="108" x="761.5" y="69.9951">:skillRepository</text><rect fill="#E3E3E3" height="46.5938" rx="2.5" ry="2.5" style="stroke:#181818;stroke-width:0.5;" width="122" x="754.5" y="490.9922"/><text fill="#000000" font-family="sans-serif" font-size="14" lengthAdjust="spacing" textLength="103" x="764" y="510.9873">skillRepository</text><text fill="#000000" font-family="sans-serif" font-size="14" lengthAdjust="spacing" textLength="108" x="761.5" y="527.2842">:skillRepository</text><rect fill="#FFFFFF" height="382.6953" style="stroke:#181818;stroke-width:1.0;" width="10" x="101.5" y="91.2969"/><rect fill="#FFFFFF" height="70.4297" style="stroke:#181818;stroke-width:1.0;" width="10" x="418.5" y="112.4297"/><rect fill="#FFFFFF" height="29.1328" style="stroke:#181818;stroke-width:1.0;" width="10" x="418.5" y="211.9922"/><rect fill="#FFFFFF" height="203.7344" style="stroke:#181818;stroke-width:1.0;" width="10" x="418.5" y="270.2578"/><rect fill="#FFFFFF" height="145.4688" style="stroke:#181818;stroke-width:1.0;" width="10" x="614.5" y="299.3906"/><rect fill="#FFFFFF" height="87.2031" style="stroke:#181818;stroke-width:1.0;" width="10" x="810.5" y="328.5234"/><polygon fill="#181818" points="406.5,108.4297,416.5,112.4297,406.5,116.4297,410.5,112.4297" style="stroke:#181818;stroke-width:1.0;"/><line style="stroke:#181818;stroke-width:1.0;" x1="111.5" x2="412.5" y1="112.4297" y2="112.4297"/><text fill="#000000" font-family="sans-serif" font-size="13" font-weight="bold" lengthAdjust="spacing" textLength="9" x="118.5" y="107.3638">1</text><text fill="#000000" font-family="sans-serif" font-size="13" lengthAdjust="spacing" textLength="175" x="131.5" y="107.3638">asks to register a new skill</text><polygon fill="#181818" points="518.5,137.5625,528.5,141.5625,518.5,145.5625,522.5,141.5625" style="stroke:#181818;stroke-width:1.0;"/><line style="stroke:#181818;stroke-width:1.0;" x1="428.5" x2="524.5" y1="141.5625" y2="141.5625"/><text fill="#000000" font-family="sans-serif" font-size="13" font-weight="bold" lengthAdjust="spacing" textLength="9" x="435.5" y="136.4966">2</text><text fill="#000000" font-family="sans-serif" font-size="13" lengthAdjust="spacing" textLength="41" x="448.5" y="136.4966">create</text><rect fill="#E3E3E3" height="30.2969" rx="2.5" ry="2.5" style="stroke:#181818;stroke-width:0.5;" width="178" x="530.5" y="120.4297"/><text fill="#000000" font-family="sans-serif" font-size="14" lengthAdjust="spacing" textLength="164" x="537.5" y="140.4248">:RegisterSkillController</text><polygon fill="#181818" points="122.5,178.8594,112.5,182.8594,122.5,186.8594,118.5,182.8594" style="stroke:#181818;stroke-width:1.0;"/><line style="stroke:#181818;stroke-width:1.0;stroke-dasharray:2.0,2.0;" x1="116.5" x2="422.5" y1="182.8594" y2="182.8594"/><text fill="#000000" font-family="sans-serif" font-size="13" font-weight="bold" lengthAdjust="spacing" textLength="9" x="128.5" y="177.7935">3</text><text fill="#000000" font-family="sans-serif" font-size="13" lengthAdjust="spacing" textLength="162" x="141.5" y="177.7935">request data (skillName)</text><polygon fill="#181818" points="406.5,207.9922,416.5,211.9922,406.5,215.9922,410.5,211.9922" style="stroke:#181818;stroke-width:1.0;"/><line style="stroke:#181818;stroke-width:1.0;" x1="111.5" x2="412.5" y1="211.9922" y2="211.9922"/><text fill="#000000" font-family="sans-serif" font-size="13" font-weight="bold" lengthAdjust="spacing" textLength="9" x="118.5" y="206.9263">4</text><text fill="#000000" font-family="sans-serif" font-size="13" lengthAdjust="spacing" textLength="218" x="131.5" y="206.9263">types requested data (skillName)</text><polygon fill="#181818" points="122.5,237.125,112.5,241.125,122.5,245.125,118.5,241.125" style="stroke:#181818;stroke-width:1.0;"/><line style="stroke:#181818;stroke-width:1.0;stroke-dasharray:2.0,2.0;" x1="116.5" x2="422.5" y1="241.125" y2="241.125"/><text fill="#000000" font-family="sans-serif" font-size="13" font-weight="bold" lengthAdjust="spacing" textLength="9" x="128.5" y="236.0591">5</text><text fill="#000000" font-family="sans-serif" font-size="13" lengthAdjust="spacing" textLength="270" x="141.5" y="236.0591">show all data registered  for confirmation</text><polygon fill="#181818" points="406.5,266.2578,416.5,270.2578,406.5,274.2578,410.5,270.2578" style="stroke:#181818;stroke-width:1.0;"/><line style="stroke:#181818;stroke-width:1.0;" x1="111.5" x2="412.5" y1="270.2578" y2="270.2578"/><text fill="#000000" font-family="sans-serif" font-size="13" font-weight="bold" lengthAdjust="spacing" textLength="9" x="118.5" y="265.1919">6</text><text fill="#000000" font-family="sans-serif" font-size="13" lengthAdjust="spacing" textLength="85" x="131.5" y="265.1919">submits data</text><polygon fill="#181818" points="602.5,295.3906,612.5,299.3906,602.5,303.3906,606.5,299.3906" style="stroke:#181818;stroke-width:1.0;"/><line style="stroke:#181818;stroke-width:1.0;" x1="428.5" x2="608.5" y1="299.3906" y2="299.3906"/><text fill="#000000" font-family="sans-serif" font-size="13" font-weight="bold" lengthAdjust="spacing" textLength="9" x="435.5" y="294.3247">7</text><text fill="#000000" font-family="sans-serif" font-size="13" lengthAdjust="spacing" textLength="154" x="448.5" y="294.3247">registerSkill(skillName)</text><polygon fill="#181818" points="798.5,324.5234,808.5,328.5234,798.5,332.5234,802.5,328.5234" style="stroke:#181818;stroke-width:1.0;"/><line style="stroke:#181818;stroke-width:1.0;" x1="624.5" x2="804.5" y1="328.5234" y2="328.5234"/><text fill="#000000" font-family="sans-serif" font-size="13" font-weight="bold" lengthAdjust="spacing" textLength="9" x="631.5" y="323.4575">8</text><text fill="#000000" font-family="sans-serif" font-size="13" lengthAdjust="spacing" textLength="154" x="644.5" y="323.4575">registerSkill(skillName)</text><rect fill="none" height="53.0703" style="stroke:#000000;stroke-width:1.5;" width="128" x="751.5" y="336.5234"/><path d="M751.5,336.5234 L817.5,336.5234 L817.5,343.5234 L807.5,353.5234 L751.5,353.5234 L751.5,336.5234 " fill="#EEEEEE" style="stroke:#000000;stroke-width:2.0;"/><text fill="#000000" font-family="sans-serif" font-size="13" font-weight="bold" lengthAdjust="spacing" textLength="21" x="764.5" y="350.5903">ref</text><text fill="#000000" font-family="sans-serif" font-size="12" lengthAdjust="spacing" textLength="77" x="777" y="368.6621">Register Skill</text><text fill="#000000" font-family="sans-serif" font-size="12" lengthAdjust="spacing" textLength="4" x="813.5" y="382.6309">&#160;</text><polygon fill="#181818" points="635.5,411.7266,625.5,415.7266,635.5,419.7266,631.5,415.7266" style="stroke:#181818;stroke-width:1.0;"/><line style="stroke:#181818;stroke-width:1.0;stroke-dasharray:2.0,2.0;" x1="629.5" x2="814.5" y1="415.7266" y2="415.7266"/><text fill="#000000" font-family="sans-serif" font-size="13" font-weight="bold" lengthAdjust="spacing" textLength="9" x="641.5" y="410.6606">9</text><text fill="#000000" font-family="sans-serif" font-size="13" lengthAdjust="spacing" textLength="27" x="654.5" y="410.6606">skill</text><polygon fill="#181818" points="439.5,440.8594,429.5,444.8594,439.5,448.8594,435.5,444.8594" style="stroke:#181818;stroke-width:1.0;"/><line style="stroke:#181818;stroke-width:1.0;stroke-dasharray:2.0,2.0;" x1="433.5" x2="618.5" y1="444.8594" y2="444.8594"/><text fill="#000000" font-family="sans-serif" font-size="13" font-weight="bold" lengthAdjust="spacing" textLength="18" x="445.5" y="439.7935">10</text><text fill="#000000" font-family="sans-serif" font-size="13" lengthAdjust="spacing" textLength="27" x="467.5" y="439.7935">skill</text><polygon fill="#181818" points="117.5,469.9922,107.5,473.9922,117.5,477.9922,113.5,473.9922" style="stroke:#181818;stroke-width:1.0;"/><line style="stroke:#181818;stroke-width:1.0;stroke-dasharray:2.0,2.0;" x1="111.5" x2="422.5" y1="473.9922" y2="473.9922"/><text fill="#000000" font-family="sans-serif" font-size="13" font-weight="bold" lengthAdjust="spacing" textLength="18" x="123.5" y="468.9263">11</text><text fill="#000000" font-family="sans-serif" font-size="13" lengthAdjust="spacing" textLength="166" x="145.5" y="468.9263">shows operation success.</text><!--SRC=[ZPF1Sk8m38RlVWeDb-rsfli073gpmnwsCsKFqDvw4Ou03uwLjPnIthwAGsbY65gTmFdr-O_qHtOkD1YnXfe3sstacY35beoSdZHeTxYXPJfuWaWsOTZueK2sMF7UXGsiqGiPWstYqDOhYiRysBgAOCsSLlncq2QECFdRrXXWGS9jj2Gmnw0tn0cWmEy_SwFSvAnhC2IOJ6UHCD5ovxn_ViYQvuT2ig2DaqGnYsOSKcJlZy3Pq-9nB9TEjQ26nQcTmqkO5YUvhpWpdNdtgawoHGDQ-WFkxjKEJBLZ9v1O9zHR0OH0-vxIgq_zQZyVTAMzIkWytjugnUPtDUFdAkXkcYhxVqkIeCA4S9FH_x2cdxsyej4DbyvAq-dGwFYFMAhEmLTzdtp9blU0tlVz7nDGdYu-WkMmTh76v3XynvIqgzeboR1p0nScboSp243v0YD6ZiC0qrM6AAnO-HNikFy4FyiC51Lf3VogwIYLSA4-KWtBpn0DYq9rVbY0yvQEG-gpE1GFDd7LUZ-WlA0lC7cymsUVGUbp8i0DnHm6tRJLprz-NKh5u6_tlRq3]--></g></svg>