<?xml version="1.0" encoding="us-ascii" standalone="no"?><svg xmlns="http://www.w3.org/2000/svg" xmlns:xlink="http://www.w3.org/1999/xlink" contentStyleType="text/css" height="439px" preserveAspectRatio="none" style="width:562px;height:439px;background:#FFFFFF;" version="1.1" viewBox="0 0 562 439" width="562px" zoomAndPan="magnify"><defs/><g><rect fill="#FFFFFF" height="286.0625" style="stroke:#181818;stroke-width:1.0;" width="10" x="186" y="83.7266"/><rect fill="#FFFFFF" height="156.6641" style="stroke:#181818;stroke-width:1.0;" width="10" x="191" y="144.9922"/><rect fill="#FFFFFF" height="29.1328" style="stroke:#181818;stroke-width:1.0;" width="10" x="366" y="179.125"/><rect fill="#FFFFFF" height="29.1328" style="stroke:#181818;stroke-width:1.0;" width="10" x="483" y="237.3906"/><rect fill="none" height="217.9297" style="stroke:#000000;stroke-width:1.5;" width="459.5" x="92" y="98.7266"/><line style="stroke:#181818;stroke-width:0.5;stroke-dasharray:5.0,5.0;" x1="191" x2="191" y1="52.5938" y2="387.7891"/><line style="stroke:#181818;stroke-width:0.5;stroke-dasharray:5.0,5.0;" x1="370.5" x2="370.5" y1="52.5938" y2="387.7891"/><line style="stroke:#181818;stroke-width:0.5;stroke-dasharray:5.0,5.0;" x1="487.5" x2="487.5" y1="52.5938" y2="387.7891"/><rect fill="#E3E3E3" height="30.2969" rx="2.5" ry="2.5" style="stroke:#181818;stroke-width:0.5;" width="178" x="102" y="21.2969"/><text fill="#000000" font-family="sans-serif" font-size="14" lengthAdjust="spacing" textLength="164" x="109" y="41.292">:RegisterSkillController</text><rect fill="#E3E3E3" height="30.2969" rx="2.5" ry="2.5" style="stroke:#181818;stroke-width:0.5;" width="178" x="102" y="386.7891"/><text fill="#000000" font-family="sans-serif" font-size="14" lengthAdjust="spacing" textLength="164" x="109" y="406.7842">:RegisterSkillController</text><rect fill="#E3E3E3" height="30.2969" rx="2.5" ry="2.5" style="stroke:#181818;stroke-width:0.5;" width="107" x="317.5" y="21.2969"/><text fill="#000000" font-family="sans-serif" font-size="14" lengthAdjust="spacing" textLength="93" x="324.5" y="41.292">:Repositories</text><rect fill="#E3E3E3" height="30.2969" rx="2.5" ry="2.5" style="stroke:#181818;stroke-width:0.5;" width="107" x="317.5" y="386.7891"/><text fill="#000000" font-family="sans-serif" font-size="14" lengthAdjust="spacing" textLength="93" x="324.5" y="406.7842">:Repositories</text><rect fill="#E3E3E3" height="46.5938" rx="2.5" ry="2.5" style="stroke:#181818;stroke-width:0.5;" width="107" x="434.5" y="5"/><text fill="#000000" font-family="sans-serif" font-size="14" lengthAdjust="spacing" textLength="84" x="446" y="24.9951">repositories</text><text fill="#000000" font-family="sans-serif" font-size="14" lengthAdjust="spacing" textLength="93" x="441.5" y="41.292">:Repositories</text><rect fill="#E3E3E3" height="46.5938" rx="2.5" ry="2.5" style="stroke:#181818;stroke-width:0.5;" width="107" x="434.5" y="386.7891"/><text fill="#000000" font-family="sans-serif" font-size="14" lengthAdjust="spacing" textLength="84" x="446" y="406.7842">repositories</text><text fill="#000000" font-family="sans-serif" font-size="14" lengthAdjust="spacing" textLength="93" x="441.5" y="423.0811">:Repositories</text><rect fill="#FFFFFF" height="286.0625" style="stroke:#181818;stroke-width:1.0;" width="10" x="186" y="83.7266"/><rect fill="#FFFFFF" height="156.6641" style="stroke:#181818;stroke-width:1.0;" width="10" x="191" y="144.9922"/><rect fill="#FFFFFF" height="29.1328" style="stroke:#181818;stroke-width:1.0;" width="10" x="366" y="179.125"/><rect fill="#FFFFFF" height="29.1328" style="stroke:#181818;stroke-width:1.0;" width="10" x="483" y="237.3906"/><polygon fill="#181818" points="174,79.7266,184,83.7266,174,87.7266,178,83.7266" style="stroke:#181818;stroke-width:1.0;"/><line style="stroke:#181818;stroke-width:1.0;" x1="0" x2="180" y1="83.7266" y2="83.7266"/><text fill="#000000" font-family="sans-serif" font-size="13" font-weight="bold" lengthAdjust="spacing" textLength="9" x="7" y="78.6606">3</text><text fill="#000000" font-family="sans-serif" font-size="13" lengthAdjust="spacing" textLength="154" x="20" y="78.6606">registerSkill(skillName)</text><path d="M92,98.7266 L281,98.7266 L281,105.8594 L271,115.8594 L92,115.8594 L92,98.7266 " fill="#EEEEEE" style="stroke:#000000;stroke-width:1.5;"/><rect fill="none" height="217.9297" style="stroke:#000000;stroke-width:1.5;" width="459.5" x="92" y="98.7266"/><text fill="#000000" font-family="sans-serif" font-size="13" font-weight="bold" lengthAdjust="spacing" textLength="144" x="107" y="111.7935">Get Skill Repository</text><line style="stroke:#181818;stroke-width:1.0;" x1="196" x2="243" y1="131.9922" y2="131.9922"/><line style="stroke:#181818;stroke-width:1.0;" x1="243" x2="243" y1="131.9922" y2="144.9922"/><line style="stroke:#181818;stroke-width:1.0;" x1="202" x2="243" y1="144.9922" y2="144.9922"/><polygon fill="#181818" points="212,140.9922,202,144.9922,212,148.9922,208,144.9922" style="stroke:#181818;stroke-width:1.0;"/><text fill="#000000" font-family="sans-serif" font-size="13" font-weight="bold" lengthAdjust="spacing" textLength="23" x="208" y="126.9263">3.1</text><text fill="#000000" font-family="sans-serif" font-size="13" lengthAdjust="spacing" textLength="129" x="235" y="126.9263">getSkillRepository()</text><polygon fill="#181818" points="354,175.125,364,179.125,354,183.125,358,179.125" style="stroke:#181818;stroke-width:1.0;"/><line style="stroke:#181818;stroke-width:1.0;" x1="201" x2="360" y1="179.125" y2="179.125"/><text fill="#000000" font-family="sans-serif" font-size="13" font-weight="bold" lengthAdjust="spacing" textLength="23" x="208" y="174.0591">3.2</text><text fill="#000000" font-family="sans-serif" font-size="13" lengthAdjust="spacing" textLength="86" x="235" y="174.0591">getInstance()</text><polygon fill="#181818" points="212,204.2578,202,208.2578,212,212.2578,208,208.2578" style="stroke:#181818;stroke-width:1.0;"/><line style="stroke:#181818;stroke-width:1.0;stroke-dasharray:2.0,2.0;" x1="206" x2="370" y1="208.2578" y2="208.2578"/><text fill="#000000" font-family="sans-serif" font-size="13" font-weight="bold" lengthAdjust="spacing" textLength="23" x="218" y="203.1919">3.3</text><text fill="#000000" font-family="sans-serif" font-size="13" lengthAdjust="spacing" textLength="77" x="245" y="203.1919">repositories</text><polygon fill="#181818" points="471,233.3906,481,237.3906,471,241.3906,475,237.3906" style="stroke:#181818;stroke-width:1.0;"/><line style="stroke:#181818;stroke-width:1.0;" x1="201" x2="477" y1="237.3906" y2="237.3906"/><text fill="#000000" font-family="sans-serif" font-size="13" font-weight="bold" lengthAdjust="spacing" textLength="23" x="208" y="232.3247">3.4</text><text fill="#000000" font-family="sans-serif" font-size="13" lengthAdjust="spacing" textLength="129" x="235" y="232.3247">getSkillRepository()</text><polygon fill="#181818" points="212,262.5234,202,266.5234,212,270.5234,208,266.5234" style="stroke:#181818;stroke-width:1.0;"/><line style="stroke:#181818;stroke-width:1.0;stroke-dasharray:2.0,2.0;" x1="206" x2="487" y1="266.5234" y2="266.5234"/><text fill="#000000" font-family="sans-serif" font-size="13" font-weight="bold" lengthAdjust="spacing" textLength="23" x="218" y="261.4575">3.5</text><text fill="#000000" font-family="sans-serif" font-size="13" lengthAdjust="spacing" textLength="97" x="245" y="261.4575">skillRepository</text><line style="stroke:#181818;stroke-width:1.0;stroke-dasharray:2.0,2.0;" x1="201" x2="243" y1="300.6563" y2="300.6563"/><line style="stroke:#181818;stroke-width:1.0;stroke-dasharray:2.0,2.0;" x1="243" x2="243" y1="300.6563" y2="313.6563"/><line style="stroke:#181818;stroke-width:1.0;stroke-dasharray:2.0,2.0;" x1="196" x2="243" y1="313.6563" y2="313.6563"/><polygon fill="#181818" points="206,309.6563,196,313.6563,206,317.6563,202,313.6563" style="stroke:#181818;stroke-width:1.0;"/><text fill="#000000" font-family="sans-serif" font-size="13" font-weight="bold" lengthAdjust="spacing" textLength="23" x="208" y="295.5903">3.6</text><text fill="#000000" font-family="sans-serif" font-size="13" lengthAdjust="spacing" textLength="97" x="235" y="295.5903">skillRepository</text><polygon fill="#181818" points="549.5,365.7891,559.5,369.7891,549.5,373.7891,553.5,369.7891" style="stroke:#181818;stroke-width:1.0;"/><line style="stroke:#181818;stroke-width:1.0;" x1="191" x2="555.5" y1="369.7891" y2="369.7891"/><text fill="#000000" font-family="sans-serif" font-size="13" font-weight="bold" lengthAdjust="spacing" textLength="9" x="198" y="364.7231">4</text><text fill="#000000" font-family="sans-serif" font-size="13" lengthAdjust="spacing" textLength="154" x="211" y="364.7231">registerSkill(skillName)</text><!--SRC=[dPF1JiCm38RlVWfh5xR3a12STa12Eo2a2Q5jHovPwxNHqgHAN61I7vusPMkYZMxWGoErl_tPVrotaxeKLXHO66sIt9g2a6r5u8vVIf7iH4OhtYj2ImaBdQbGu7AHca-fCzmAvGX0L6nqLMp80jpaCYNS6iCRymNGPB1CP2aqusYsf4mw9hlQIQNcHhCrIf4TeN0uNoyN9_BIECd6Id9UStonNycsgGORfzWWursV5dXRFAt3Vl4U0AUF7ewpPjgWlx5hdw-Ye4cKSNi78c7v8PYwfh69p9ggn6TYzBb1fm1US0XFweaPiK_ezUD9f0yZnlug2p5d7EkeBzer5vlG02v2dhD-CBEDS_Jfp_2js_tj39PAwVzj78neR_wlVaS6TAjpQMAFwKTqCUlQAI-pkh7wFReM542w9V9Aqga_wxhsPx3k3n2wEF2Bd5J-1W00]--></g></svg>