<?xml version="1.0" encoding="us-ascii" standalone="no"?><svg xmlns="http://www.w3.org/2000/svg" xmlns:xlink="http://www.w3.org/1999/xlink" contentStyleType="text/css" height="619px" preserveAspectRatio="none" style="width:574px;height:619px;background:#FFFFFF;" version="1.1" viewBox="0 0 574 619" width="574px" zoomAndPan="magnify"><defs/><g><text fill="#000000" font-family="sans-serif" font-size="14" font-weight="bold" lengthAdjust="spacing" textLength="363" x="104.75" y="28.5352">System Sequence Diagram (SSD) - Alternative One</text><rect fill="#FFFFFF" height="359.0371" style="stroke:#181818;stroke-width:1.0;" width="10" x="64.5" y="145.4648"/><rect fill="#FFFFFF" height="29.3105" style="stroke:#181818;stroke-width:1.0;" width="10" x="530.5" y="166.7754"/><rect fill="#FFFFFF" height="29.3105" style="stroke:#181818;stroke-width:1.0;" width="10" x="530.5" y="225.3965"/><rect fill="#FFFFFF" height="29.3105" style="stroke:#181818;stroke-width:1.0;" width="10" x="530.5" y="284.0176"/><rect fill="#FFFFFF" height="44.6211" style="stroke:#181818;stroke-width:1.0;" width="10" x="530.5" y="342.6387"/><rect fill="#FFFFFF" height="29.3105" style="stroke:#181818;stroke-width:1.0;" width="10" x="530.5" y="416.5703"/><rect fill="#FFFFFF" height="29.3105" style="stroke:#181818;stroke-width:1.0;" width="10" x="530.5" y="475.1914"/><line style="stroke:#181818;stroke-width:0.5;stroke-dasharray:5.0,5.0;" x1="69" x2="69" y1="135.4648" y2="522.502"/><line style="stroke:#181818;stroke-width:0.5;stroke-dasharray:5.0,5.0;" x1="535.5" x2="535.5" y1="135.4648" y2="522.502"/><text fill="#000000" font-family="sans-serif" font-size="14" lengthAdjust="spacing" textLength="123" x="5" y="116.0234">Human Resources</text><text fill="#000000" font-family="sans-serif" font-size="14" lengthAdjust="spacing" textLength="60" x="36.5" y="132.5117">Manager</text><ellipse cx="69.5" cy="50.9883" fill="#E3E3E3" rx="8" ry="8" style="stroke:#181818;stroke-width:0.5;"/><path d="M69.5,58.9883 L69.5,85.9883 M56.5,66.9883 L82.5,66.9883 M69.5,85.9883 L56.5,100.9883 M69.5,85.9883 L82.5,100.9883 " fill="none" style="stroke:#181818;stroke-width:0.5;"/><text fill="#000000" font-family="sans-serif" font-size="14" lengthAdjust="spacing" textLength="123" x="5" y="535.0371">Human Resources</text><text fill="#000000" font-family="sans-serif" font-size="14" lengthAdjust="spacing" textLength="60" x="36.5" y="551.5254">Manager</text><ellipse cx="69.5" cy="562.9785" fill="#E3E3E3" rx="8" ry="8" style="stroke:#181818;stroke-width:0.5;"/><path d="M69.5,570.9785 L69.5,597.9785 M56.5,578.9785 L82.5,578.9785 M69.5,597.9785 L56.5,612.9785 M69.5,597.9785 L82.5,612.9785 " fill="none" style="stroke:#181818;stroke-width:0.5;"/><rect fill="#E3E3E3" height="30.4883" rx="2.5" ry="2.5" style="stroke:#181818;stroke-width:0.5;" width="66" x="502.5" y="103.9766"/><text fill="#000000" font-family="sans-serif" font-size="14" lengthAdjust="spacing" textLength="52" x="509.5" y="124.5117">:System</text><rect fill="#E3E3E3" height="30.4883" rx="2.5" ry="2.5" style="stroke:#181818;stroke-width:0.5;" width="66" x="502.5" y="521.502"/><text fill="#000000" font-family="sans-serif" font-size="14" lengthAdjust="spacing" textLength="52" x="509.5" y="542.0371">:System</text><rect fill="#FFFFFF" height="359.0371" style="stroke:#181818;stroke-width:1.0;" width="10" x="64.5" y="145.4648"/><rect fill="#FFFFFF" height="29.3105" style="stroke:#181818;stroke-width:1.0;" width="10" x="530.5" y="166.7754"/><rect fill="#FFFFFF" height="29.3105" style="stroke:#181818;stroke-width:1.0;" width="10" x="530.5" y="225.3965"/><rect fill="#FFFFFF" height="29.3105" style="stroke:#181818;stroke-width:1.0;" width="10" x="530.5" y="284.0176"/><rect fill="#FFFFFF" height="44.6211" style="stroke:#181818;stroke-width:1.0;" width="10" x="530.5" y="342.6387"/><rect fill="#FFFFFF" height="29.3105" style="stroke:#181818;stroke-width:1.0;" width="10" x="530.5" y="416.5703"/><rect fill="#FFFFFF" height="29.3105" style="stroke:#181818;stroke-width:1.0;" width="10" x="530.5" y="475.1914"/><polygon fill="#181818" points="518.5,162.7754,528.5,166.7754,518.5,170.7754,522.5,166.7754" style="stroke:#181818;stroke-width:1.0;"/><line style="stroke:#181818;stroke-width:1.0;" x1="74.5" x2="524.5" y1="166.7754" y2="166.7754"/><text fill="#000000" font-family="sans-serif" font-size="13" font-weight="bold" lengthAdjust="spacing" textLength="9" x="81.5" y="162.0332">1</text><text fill="#000000" font-family="sans-serif" font-size="13" lengthAdjust="spacing" textLength="208" x="94.5" y="162.0332">asks to create a new collaborator</text><polygon fill="#181818" points="85.5,192.0859,75.5,196.0859,85.5,200.0859,81.5,196.0859" style="stroke:#181818;stroke-width:1.0;"/><line style="stroke:#181818;stroke-width:1.0;stroke-dasharray:2.0,2.0;" x1="79.5" x2="534.5" y1="196.0859" y2="196.0859"/><text fill="#000000" font-family="sans-serif" font-size="13" font-weight="bold" lengthAdjust="spacing" textLength="9" x="91.5" y="191.3438">2</text><text fill="#000000" font-family="sans-serif" font-size="13" lengthAdjust="spacing" textLength="287" x="104.5" y="191.3438">shows jobsList list and asks to select one job</text><polygon fill="#181818" points="518.5,221.3965,528.5,225.3965,518.5,229.3965,522.5,225.3965" style="stroke:#181818;stroke-width:1.0;"/><line style="stroke:#181818;stroke-width:1.0;" x1="74.5" x2="524.5" y1="225.3965" y2="225.3965"/><text fill="#000000" font-family="sans-serif" font-size="13" font-weight="bold" lengthAdjust="spacing" textLength="9" x="81.5" y="220.6543">3</text><text fill="#000000" font-family="sans-serif" font-size="13" lengthAdjust="spacing" textLength="79" x="94.5" y="220.6543">selects a job</text><polygon fill="#181818" points="85.5,250.707,75.5,254.707,85.5,258.707,81.5,254.707" style="stroke:#181818;stroke-width:1.0;"/><line style="stroke:#181818;stroke-width:1.0;stroke-dasharray:2.0,2.0;" x1="79.5" x2="534.5" y1="254.707" y2="254.707"/><text fill="#000000" font-family="sans-serif" font-size="13" font-weight="bold" lengthAdjust="spacing" textLength="9" x="91.5" y="249.9648">4</text><text fill="#000000" font-family="sans-serif" font-size="13" lengthAdjust="spacing" textLength="419" x="104.5" y="249.9648">shows list of Identification document types and asks to select one</text><polygon fill="#181818" points="518.5,280.0176,528.5,284.0176,518.5,288.0176,522.5,284.0176" style="stroke:#181818;stroke-width:1.0;"/><line style="stroke:#181818;stroke-width:1.0;" x1="74.5" x2="524.5" y1="284.0176" y2="284.0176"/><text fill="#000000" font-family="sans-serif" font-size="13" font-weight="bold" lengthAdjust="spacing" textLength="9" x="81.5" y="279.2754">5</text><text fill="#000000" font-family="sans-serif" font-size="13" lengthAdjust="spacing" textLength="112" x="94.5" y="279.2754">selects a docType</text><polygon fill="#181818" points="85.5,309.3281,75.5,313.3281,85.5,317.3281,81.5,313.3281" style="stroke:#181818;stroke-width:1.0;"/><line style="stroke:#181818;stroke-width:1.0;stroke-dasharray:2.0,2.0;" x1="79.5" x2="534.5" y1="313.3281" y2="313.3281"/><text fill="#000000" font-family="sans-serif" font-size="13" font-weight="bold" lengthAdjust="spacing" textLength="9" x="91.5" y="308.5859">6</text><text fill="#000000" font-family="sans-serif" font-size="13" lengthAdjust="spacing" textLength="419" x="104.5" y="308.5859">shows list of Identification document types and asks to select one</text><polygon fill="#181818" points="518.5,338.6387,528.5,342.6387,518.5,346.6387,522.5,342.6387" style="stroke:#181818;stroke-width:1.0;"/><line style="stroke:#181818;stroke-width:1.0;" x1="74.5" x2="524.5" y1="342.6387" y2="342.6387"/><text fill="#000000" font-family="sans-serif" font-size="13" font-weight="bold" lengthAdjust="spacing" textLength="9" x="81.5" y="337.8965">7</text><text fill="#000000" font-family="sans-serif" font-size="13" lengthAdjust="spacing" textLength="86" x="94.5" y="337.8965">selects a type</text><polygon fill="#181818" points="85.5,383.2598,75.5,387.2598,85.5,391.2598,81.5,387.2598" style="stroke:#181818;stroke-width:1.0;"/><line style="stroke:#181818;stroke-width:1.0;stroke-dasharray:2.0,2.0;" x1="79.5" x2="534.5" y1="387.2598" y2="387.2598"/><text fill="#000000" font-family="sans-serif" font-size="13" font-weight="bold" lengthAdjust="spacing" textLength="9" x="91.5" y="374.8623">8</text><text fill="#000000" font-family="sans-serif" font-size="13" lengthAdjust="spacing" textLength="300" x="104.5" y="367.207">requests data (name, birthDate, admissionDate,</text><text fill="#000000" font-family="sans-serif" font-size="13" lengthAdjust="spacing" textLength="304" x="104.5" y="382.5176">address, phoneNumber, email, taxpayerNumber)</text><polygon fill="#181818" points="518.5,412.5703,528.5,416.5703,518.5,420.5703,522.5,416.5703" style="stroke:#181818;stroke-width:1.0;"/><line style="stroke:#181818;stroke-width:1.0;" x1="74.5" x2="524.5" y1="416.5703" y2="416.5703"/><text fill="#000000" font-family="sans-serif" font-size="13" font-weight="bold" lengthAdjust="spacing" textLength="9" x="81.5" y="411.8281">9</text><text fill="#000000" font-family="sans-serif" font-size="13" lengthAdjust="spacing" textLength="131" x="94.5" y="411.8281">types requested data</text><polygon fill="#181818" points="85.5,441.8809,75.5,445.8809,85.5,449.8809,81.5,445.8809" style="stroke:#181818;stroke-width:1.0;"/><line style="stroke:#181818;stroke-width:1.0;stroke-dasharray:2.0,2.0;" x1="79.5" x2="534.5" y1="445.8809" y2="445.8809"/><text fill="#000000" font-family="sans-serif" font-size="13" font-weight="bold" lengthAdjust="spacing" textLength="18" x="91.5" y="441.1387">10</text><text fill="#000000" font-family="sans-serif" font-size="13" lengthAdjust="spacing" textLength="305" x="113.5" y="441.1387">shows selected job, docType and requested data</text><polygon fill="#181818" points="518.5,471.1914,528.5,475.1914,518.5,479.1914,522.5,475.1914" style="stroke:#181818;stroke-width:1.0;"/><line style="stroke:#181818;stroke-width:1.0;stroke-dasharray:2.0,2.0;" x1="74.5" x2="524.5" y1="475.1914" y2="475.1914"/><text fill="#000000" font-family="sans-serif" font-size="13" font-weight="bold" lengthAdjust="spacing" textLength="18" x="81.5" y="470.4492">11</text><text fill="#000000" font-family="sans-serif" font-size="13" lengthAdjust="spacing" textLength="82" x="103.5" y="470.4492">submits data</text><polygon fill="#181818" points="80.5,500.502,70.5,504.502,80.5,508.502,76.5,504.502" style="stroke:#181818;stroke-width:1.0;"/><line style="stroke:#181818;stroke-width:1.0;" x1="74.5" x2="534.5" y1="504.502" y2="504.502"/><text fill="#000000" font-family="sans-serif" font-size="13" font-weight="bold" lengthAdjust="spacing" textLength="18" x="86.5" y="499.7598">12</text><text fill="#000000" font-family="sans-serif" font-size="13" lengthAdjust="spacing" textLength="245" x="108.5" y="499.7598">Confirms the success of the operation.</text><!--SRC=[pPJDRjim3CVlVWeYfnPmzW0v31YM0HkmTi2yOo-qn2HQzE69T3E__MWvTeSXGR7iCXqCIIR__8aYnKSNEymO8AIOp26dG22vfugNFnsQ8-wfaS4JP3A2SUz_D-03sdHoSGyxz4nL9KxKj1bOA413FtgAXc3hS3-QtpNDzXxMyCuBvOZYdWc-H7N3NbBiGqjPvqPIXjN7Fc24hyIfpuRuAJvWL9Qy0cJu43gV1g9ACSGPrs4KM6sckCLYcXOrzun2BouLw9XNi7uxqsxKxSWW2KocqGCXqWbCyXxRb56fYkkYE8U0ypZhh5LoaTzeYjA9uNjg-RDZ0Jz-CDeb69FNn4AAD1eLCKiNOrnadjnPOMVlc_WALjh19qjHtCuPlPmKmIRJ1zq16JhYAzp_mApwtrJvElT_o2mpy0t9rYRIbc3LiIW8Tn43rT2wB8UjgjI0DZXcFKPPFaMqDXDp3Tr1gHzBYzH00PslGV1dXmFbQVl-hyyq9UYCHBOmtLv2KuPKHWkndc-sfFz2X5Sn5qwLxzlWpYbxlL9Uo3RmFiMToq7l_a0gO_GTuR5YncNgA9U2UNC5w8_TvVtu1G00]--></g></svg>