<?xml version="1.0" encoding="us-ascii" standalone="no"?><svg xmlns="http://www.w3.org/2000/svg" xmlns:xlink="http://www.w3.org/1999/xlink" contentStyleType="text/css" height="472.8px" preserveAspectRatio="none" style="width:559px;height:472px;background:#FFFFFF;" version="1.1" viewBox="0 0 559 472" width="559.2px" zoomAndPan="magnify"><defs/><g><text fill="#000000" font-family="sans-serif" font-size="16.8" font-weight="bold" lengthAdjust="spacing" textLength="487.2" x="34.8" y="33.5941">System Sequence Diagram (SSD) - Alternative One</text><rect fill="#FFFFFF" height="210.9562" style="stroke:#181818;stroke-width:1.2;" width="12" x="16.2" y="154.3125"/><rect fill="#FFFFFF" height="34.9594" style="stroke:#181818;stroke-width:1.2;" width="12" x="503.4" y="179.6719"/><rect fill="#FFFFFF" height="34.9594" style="stroke:#181818;stroke-width:1.2;" width="12" x="503.4" y="249.5906"/><rect fill="#FFFFFF" height="34.9594" style="stroke:#181818;stroke-width:1.2;" width="12" x="503.4" y="319.5094"/><line style="stroke:#181818;stroke-width:0.6;stroke-dasharray:5.0,5.0;" x1="21.6" x2="21.6" y1="142.3125" y2="376.0687"/><line style="stroke:#181818;stroke-width:0.6;stroke-dasharray:5.0,5.0;" x1="508.8" x2="508.8" y1="142.3125" y2="376.0687"/><text fill="#000000" font-family="sans-serif" font-size="16.8" lengthAdjust="spacing" textLength="24" x="6.6" y="138.3504">FM</text><ellipse cx="22.2" cy="60.9563" fill="#E3E3E3" rx="9.6" ry="9.6" style="stroke:#181818;stroke-width:0.6;"/><path d="M22.2,70.5562 L22.2,102.9563 M6.6,80.1563 L37.8,80.1563 M22.2,102.9563 L6.6,120.9563 M22.2,102.9563 L37.8,120.9563 " fill="none" style="stroke:#181818;stroke-width:0.6;"/><text fill="#000000" font-family="sans-serif" font-size="16.8" lengthAdjust="spacing" textLength="24" x="6.6" y="390.4629">FM</text><ellipse cx="22.2" cy="404.625" fill="#E3E3E3" rx="9.6" ry="9.6" style="stroke:#181818;stroke-width:0.6;"/><path d="M22.2,414.225 L22.2,446.625 M6.6,423.825 L37.8,423.825 M22.2,446.625 L6.6,464.625 M22.2,446.625 L37.8,464.625 " fill="none" style="stroke:#181818;stroke-width:0.6;"/><rect fill="#E3E3E3" height="36.3562" rx="3" ry="3" style="stroke:#181818;stroke-width:0.6;" width="85.2" x="466.8" y="104.7563"/><text fill="#000000" font-family="sans-serif" font-size="16.8" lengthAdjust="spacing" textLength="68.4" x="475.2" y="128.7504">:System</text><rect fill="#E3E3E3" height="36.3562" rx="3" ry="3" style="stroke:#181818;stroke-width:0.6;" width="85.2" x="466.8" y="374.8688"/><text fill="#000000" font-family="sans-serif" font-size="16.8" lengthAdjust="spacing" textLength="68.4" x="475.2" y="398.8629">:System</text><rect fill="#FFFFFF" height="210.9562" style="stroke:#181818;stroke-width:1.2;" width="12" x="16.2" y="154.3125"/><rect fill="#FFFFFF" height="34.9594" style="stroke:#181818;stroke-width:1.2;" width="12" x="503.4" y="179.6719"/><rect fill="#FFFFFF" height="34.9594" style="stroke:#181818;stroke-width:1.2;" width="12" x="503.4" y="249.5906"/><rect fill="#FFFFFF" height="34.9594" style="stroke:#181818;stroke-width:1.2;" width="12" x="503.4" y="319.5094"/><polygon fill="#181818" points="489,174.8719,501,179.6719,489,184.4719,493.8,179.6719" style="stroke:#181818;stroke-width:1.2;"/><line style="stroke:#181818;stroke-width:1.2;" x1="28.2" x2="496.2" y1="179.6719" y2="179.6719"/><text fill="#000000" font-family="sans-serif" font-size="15.6" font-weight="bold" lengthAdjust="spacing" textLength="10.8" x="36.6" y="173.5928">1</text><text fill="#000000" font-family="sans-serif" font-size="15.6" lengthAdjust="spacing" textLength="436.8" x="52.2" y="173.5928">Start a request to register a vehicle/machine/equipment</text><polygon fill="#181818" points="41.4,209.8312,29.4,214.6313,41.4,219.4313,36.6,214.6313" style="stroke:#181818;stroke-width:1.2;"/><line style="stroke:#181818;stroke-width:1.2;stroke-dasharray:2.0,2.0;" x1="34.2" x2="508.2" y1="214.6313" y2="214.6313"/><text fill="#000000" font-family="sans-serif" font-size="15.6" font-weight="bold" lengthAdjust="spacing" textLength="10.8" x="48.6" y="208.5521">2</text><text fill="#000000" font-family="sans-serif" font-size="15.6" lengthAdjust="spacing" textLength="274.8" x="64.2" y="208.5521">Request data (Brand,Model,Type...)</text><polygon fill="#181818" points="489,244.7906,501,249.5906,489,254.3906,493.8,249.5906" style="stroke:#181818;stroke-width:1.2;"/><line style="stroke:#181818;stroke-width:1.2;" x1="28.2" x2="496.2" y1="249.5906" y2="249.5906"/><text fill="#000000" font-family="sans-serif" font-size="15.6" font-weight="bold" lengthAdjust="spacing" textLength="10.8" x="36.6" y="243.5115">3</text><text fill="#000000" font-family="sans-serif" font-size="15.6" lengthAdjust="spacing" textLength="169.2" x="52.2" y="243.5115">Types requested data</text><polygon fill="#181818" points="41.4,279.75,29.4,284.55,41.4,289.35,36.6,284.55" style="stroke:#181818;stroke-width:1.2;"/><line style="stroke:#181818;stroke-width:1.2;stroke-dasharray:2.0,2.0;" x1="34.2" x2="508.2" y1="284.55" y2="284.55"/><text fill="#000000" font-family="sans-serif" font-size="15.6" font-weight="bold" lengthAdjust="spacing" textLength="10.8" x="48.6" y="278.4709">4</text><text fill="#000000" font-family="sans-serif" font-size="15.6" lengthAdjust="spacing" textLength="410.4" x="64.2" y="278.4709">Show all data registed and requests for confirmation</text><polygon fill="#181818" points="489,314.7094,501,319.5094,489,324.3094,493.8,319.5094" style="stroke:#181818;stroke-width:1.2;"/><line style="stroke:#181818;stroke-width:1.2;" x1="28.2" x2="496.2" y1="319.5094" y2="319.5094"/><text fill="#000000" font-family="sans-serif" font-size="15.6" font-weight="bold" lengthAdjust="spacing" textLength="10.8" x="36.6" y="313.4303">5</text><text fill="#000000" font-family="sans-serif" font-size="15.6" lengthAdjust="spacing" textLength="110.4" x="52.2" y="313.4303">Confirms data</text><polygon fill="#181818" points="41.4,349.6688,29.4,354.4688,41.4,359.2688,36.6,354.4688" style="stroke:#181818;stroke-width:1.2;"/><line style="stroke:#181818;stroke-width:1.2;stroke-dasharray:2.0,2.0;" x1="34.2" x2="508.2" y1="354.4688" y2="354.4688"/><text fill="#000000" font-family="sans-serif" font-size="15.6" font-weight="bold" lengthAdjust="spacing" textLength="10.8" x="48.6" y="348.3896">6</text><text fill="#000000" font-family="sans-serif" font-size="15.6" lengthAdjust="spacing" textLength="212.4" x="64.2" y="348.3896">Displays operation success</text><!--SRC=[dP79JiCm48RlUOfHJwtKvTu34b2uLKY45nYSQMBL6vv9gxmzqoo5GpbGdyRnlton-MX3memUV0pHD3bw0iaj5NmzIMYEM5CfdIF8P0H3xNuBkC4gdcseuO2EgIZ4YahBZeKybFJLKZ04EulrHJulozq2Ll3eX790iIU2jw0sR2M6rdzIrjb8p31xtSy06LvySh4ZAhHGhB49Wy1iEpJqYc7iVVQ4GZ-M0dHDErWzJ5nRA4NJ0FMVb9059EfOMptD-lL4ZJMEDXvDOmDjL6IJfo1zuBLdAePnZUahBRgMRk5zhAXG4EPF6KErtCUAtFAZIxHUhnTzG4KtSs_INumyiLFLHz-3LZRn3EZSm3PUG0LAE8Kp7FGjJ0m7cxs-Lmp_XdqUp7mtvSvoSjWnn4IvPm1kZI7cFrY-0G00]--></g></svg>