<?xml version="1.0" encoding="us-ascii" standalone="no"?><svg xmlns="http://www.w3.org/2000/svg" xmlns:xlink="http://www.w3.org/1999/xlink" contentStyleType="text/css" height="439px" preserveAspectRatio="none" style="width:583px;height:439px;background:#FFFFFF;" version="1.1" viewBox="0 0 583 439" width="583px" zoomAndPan="magnify"><defs/><g><rect fill="#FFFFFF" height="286.3906" style="stroke:#181818;stroke-width:1.0;" width="10" x="302" y="83.7266"/><rect fill="#FFFFFF" height="124.3984" style="stroke:#181818;stroke-width:1.0;" width="10" x="307" y="202.5859"/><rect fill="#FFFFFF" height="40.1328" style="stroke:#181818;stroke-width:1.0;" width="10" x="312" y="244.7188"/><rect fill="none" height="243.2578" style="stroke:#000000;stroke-width:1.5;" width="353" x="224" y="98.7266"/><line style="stroke:#181818;stroke-width:0.5;stroke-dasharray:5.0,5.0;" x1="307" x2="307" y1="52.5938" y2="388.1172"/><line style="stroke:#181818;stroke-width:0.5;stroke-dasharray:5.0,5.0;" x1="531" x2="531" y1="154.6563" y2="388.1172"/><rect fill="#E3E3E3" height="46.5938" rx="2.5" ry="2.5" style="stroke:#181818;stroke-width:0.5;" width="146" x="234" y="5"/><text fill="#000000" font-family="sans-serif" font-size="14" lengthAdjust="spacing" textLength="132" x="241" y="24.9951">vehicleRepository:</text><text fill="#000000" font-family="sans-serif" font-size="14" lengthAdjust="spacing" textLength="129" x="242.5" y="41.292">VehicleRepository</text><rect fill="#E3E3E3" height="46.5938" rx="2.5" ry="2.5" style="stroke:#181818;stroke-width:0.5;" width="146" x="234" y="387.1172"/><text fill="#000000" font-family="sans-serif" font-size="14" lengthAdjust="spacing" textLength="132" x="241" y="407.1123">vehicleRepository:</text><text fill="#000000" font-family="sans-serif" font-size="14" lengthAdjust="spacing" textLength="129" x="242.5" y="423.4092">VehicleRepository</text><rect fill="#E3E3E3" height="46.5938" rx="2.5" ry="2.5" style="stroke:#181818;stroke-width:0.5;" width="72" x="495" y="387.1172"/><text fill="#000000" font-family="sans-serif" font-size="14" lengthAdjust="spacing" textLength="51" x="505.5" y="407.1123">vehicle</text><text fill="#000000" font-family="sans-serif" font-size="14" lengthAdjust="spacing" textLength="58" x="502" y="423.4092">:Vehicle</text><rect fill="#FFFFFF" height="286.3906" style="stroke:#181818;stroke-width:1.0;" width="10" x="302" y="83.7266"/><rect fill="#FFFFFF" height="124.3984" style="stroke:#181818;stroke-width:1.0;" width="10" x="307" y="202.5859"/><rect fill="#FFFFFF" height="40.1328" style="stroke:#181818;stroke-width:1.0;" width="10" x="312" y="244.7188"/><polygon fill="#181818" points="290,79.7266,300,83.7266,290,87.7266,294,83.7266" style="stroke:#181818;stroke-width:1.0;"/><line style="stroke:#181818;stroke-width:1.0;" x1="0" x2="296" y1="83.7266" y2="83.7266"/><text fill="#000000" font-family="sans-serif" font-size="13" font-weight="bold" lengthAdjust="spacing" textLength="18" x="7" y="78.6606">16</text><text fill="#000000" font-family="sans-serif" font-size="13" lengthAdjust="spacing" textLength="261" x="29" y="78.6606">registerVehicle(plateID, brand, model...)</text><path d="M224,98.7266 L388,98.7266 L388,105.8594 L378,115.8594 L224,115.8594 L224,98.7266 " fill="#EEEEEE" style="stroke:#000000;stroke-width:1.5;"/><rect fill="none" height="243.2578" style="stroke:#000000;stroke-width:1.5;" width="353" x="224" y="98.7266"/><text fill="#000000" font-family="sans-serif" font-size="13" font-weight="bold" lengthAdjust="spacing" textLength="119" x="239" y="111.7935">Register Vehicle</text><polygon fill="#181818" points="483,132.9922,493,136.9922,483,140.9922,487,136.9922" style="stroke:#181818;stroke-width:1.0;"/><line style="stroke:#181818;stroke-width:1.0;" x1="312" x2="489" y1="136.9922" y2="136.9922"/><text fill="#000000" font-family="sans-serif" font-size="13" font-weight="bold" lengthAdjust="spacing" textLength="32" x="319" y="131.9263">16.1</text><text fill="#000000" font-family="sans-serif" font-size="13" lengthAdjust="spacing" textLength="41" x="355" y="131.9263">create</text><rect fill="#E3E3E3" height="46.5938" rx="2.5" ry="2.5" style="stroke:#181818;stroke-width:0.5;" width="72" x="495" y="115.8594"/><text fill="#000000" font-family="sans-serif" font-size="14" lengthAdjust="spacing" textLength="51" x="505.5" y="135.8545">vehicle</text><text fill="#000000" font-family="sans-serif" font-size="14" lengthAdjust="spacing" textLength="58" x="502" y="152.1514">:Vehicle</text><line style="stroke:#181818;stroke-width:1.0;" x1="317" x2="359" y1="194.5859" y2="194.5859"/><line style="stroke:#181818;stroke-width:1.0;" x1="359" x2="359" y1="194.5859" y2="207.5859"/><line style="stroke:#181818;stroke-width:1.0;" x1="318" x2="359" y1="207.5859" y2="207.5859"/><polygon fill="#181818" points="328,203.5859,318,207.5859,328,211.5859,324,207.5859" style="stroke:#181818;stroke-width:1.0;"/><text fill="#000000" font-family="sans-serif" font-size="13" font-weight="bold" lengthAdjust="spacing" textLength="32" x="324" y="189.52">16.2</text><text fill="#000000" font-family="sans-serif" font-size="13" lengthAdjust="spacing" textLength="134" x="360" y="189.52">addVehicle (Vehicle)</text><line style="stroke:#181818;stroke-width:1.0;" x1="317" x2="364" y1="231.7188" y2="231.7188"/><line style="stroke:#181818;stroke-width:1.0;" x1="364" x2="364" y1="231.7188" y2="244.7188"/><line style="stroke:#181818;stroke-width:1.0;" x1="323" x2="364" y1="244.7188" y2="244.7188"/><polygon fill="#181818" points="333,240.7188,323,244.7188,333,248.7188,329,244.7188" style="stroke:#181818;stroke-width:1.0;"/><text fill="#000000" font-family="sans-serif" font-size="13" font-weight="bold" lengthAdjust="spacing" textLength="32" x="329" y="226.6528">16.3</text><text fill="#000000" font-family="sans-serif" font-size="13" lengthAdjust="spacing" textLength="159" x="365" y="226.6528">validateVehicle(Vehicle)</text><line style="stroke:#181818;stroke-width:1.0;stroke-dasharray:2.0,2.0;" x1="322" x2="364" y1="283.8516" y2="283.8516"/><line style="stroke:#181818;stroke-width:1.0;stroke-dasharray:2.0,2.0;" x1="364" x2="364" y1="283.8516" y2="296.8516"/><line style="stroke:#181818;stroke-width:1.0;stroke-dasharray:2.0,2.0;" x1="317" x2="364" y1="296.8516" y2="296.8516"/><polygon fill="#181818" points="327,292.8516,317,296.8516,327,300.8516,323,296.8516" style="stroke:#181818;stroke-width:1.0;"/><text fill="#000000" font-family="sans-serif" font-size="13" font-weight="bold" lengthAdjust="spacing" textLength="32" x="329" y="278.7856">16.4</text><text fill="#000000" font-family="sans-serif" font-size="13" lengthAdjust="spacing" textLength="4" x="365" y="278.7856">&#160;</text><line style="stroke:#181818;stroke-width:1.0;stroke-dasharray:2.0,2.0;" x1="317" x2="359" y1="325.9844" y2="325.9844"/><line style="stroke:#181818;stroke-width:1.0;stroke-dasharray:2.0,2.0;" x1="359" x2="359" y1="325.9844" y2="338.9844"/><line style="stroke:#181818;stroke-width:1.0;stroke-dasharray:2.0,2.0;" x1="312" x2="359" y1="338.9844" y2="338.9844"/><polygon fill="#181818" points="322,334.9844,312,338.9844,322,342.9844,318,338.9844" style="stroke:#181818;stroke-width:1.0;"/><text fill="#000000" font-family="sans-serif" font-size="13" font-weight="bold" lengthAdjust="spacing" textLength="32" x="324" y="320.9185">16.5</text><text fill="#000000" font-family="sans-serif" font-size="13" lengthAdjust="spacing" textLength="4" x="360" y="320.9185">&#160;</text><polygon fill="#181818" points="11,366.1172,1,370.1172,11,374.1172,7,370.1172" style="stroke:#181818;stroke-width:1.0;"/><line style="stroke:#181818;stroke-width:1.0;stroke-dasharray:2.0,2.0;" x1="5" x2="306" y1="370.1172" y2="370.1172"/><text fill="#000000" font-family="sans-serif" font-size="13" font-weight="bold" lengthAdjust="spacing" textLength="18" x="17" y="365.0513">17</text><text fill="#000000" font-family="sans-serif" font-size="13" lengthAdjust="spacing" textLength="47" x="39" y="365.0513">vehicle</text><!--SRC=[XP11QyCm38Nl_XMYfxQqWLus26ENROp2eD2nddfHRIqnTMnZEntzztDIDsH9MNqoUa-VdkIFKbjqM45bjE6bCnL1S3KntoaM-H4B-WndHU281zI5wXjyYSByI5t0DofFZCLoa5nQr04c9oebLxGbQxmCnftplTuDQnD03vlj-ytMlSvJGslRlQrVlZusZ64TZAwh0pbOFR3bSmF8Oy92-a0kjKojma3hrmKS76gnY8iAKbcMpGQ0RCMG1tcAxZO9n5SuKrlO9Y8a96krvaKVnBafqNoU0tSK0LS36rdRY2X4Gi4qVMQTKL0Nezlqgeq2tgAVK4aHJTS3Z2RyI-fe5zmVhHUjaTYzde6_AP4Mbxx-xH_RojDosLBY1kdEmtc_]--></g></svg>