<?xml version="1.0" encoding="us-ascii" standalone="no"?><svg xmlns="http://www.w3.org/2000/svg" xmlns:xlink="http://www.w3.org/1999/xlink" contentStyleType="text/css" height="523px" preserveAspectRatio="none" style="width:897px;height:523px;background:#FFFFFF;" version="1.1" viewBox="0 0 897 523" width="897px" zoomAndPan="magnify"><defs/><g><rect fill="#FFFFFF" height="370.6563" style="stroke:#181818;stroke-width:1.0;" width="10" x="302" y="83.7266"/><rect fill="#FFFFFF" height="124.3984" style="stroke:#181818;stroke-width:1.0;" width="10" x="307" y="286.8516"/><rect fill="#FFFFFF" height="40.1328" style="stroke:#181818;stroke-width:1.0;" width="10" x="312" y="328.9844"/><rect fill="#FFFFFF" height="137.8594" style="stroke:#181818;stroke-width:1.0;" width="10" x="664" y="146.9922"/><rect fill="#FFFFFF" height="40.1328" style="stroke:#181818;stroke-width:1.0;" width="10" x="669" y="202.5859"/><rect fill="none" height="327.5234" style="stroke:#000000;stroke-width:1.5;" width="667" x="224" y="98.7266"/><line style="stroke:#181818;stroke-width:0.5;stroke-dasharray:5.0,5.0;" x1="307" x2="307" y1="52.5938" y2="472.3828"/><line style="stroke:#181818;stroke-width:0.5;stroke-dasharray:5.0,5.0;" x1="669" x2="669" y1="154.6563" y2="472.3828"/><rect fill="#E3E3E3" height="46.5938" rx="2.5" ry="2.5" style="stroke:#181818;stroke-width:0.5;" width="146" x="234" y="5"/><text fill="#000000" font-family="sans-serif" font-size="14" lengthAdjust="spacing" textLength="132" x="241" y="24.9951">vehicleRepository:</text><text fill="#000000" font-family="sans-serif" font-size="14" lengthAdjust="spacing" textLength="129" x="242.5" y="41.292">VehicleRepository</text><rect fill="#E3E3E3" height="46.5938" rx="2.5" ry="2.5" style="stroke:#181818;stroke-width:0.5;" width="146" x="234" y="471.3828"/><text fill="#000000" font-family="sans-serif" font-size="14" lengthAdjust="spacing" textLength="132" x="241" y="491.3779">vehicleRepository:</text><text fill="#000000" font-family="sans-serif" font-size="14" lengthAdjust="spacing" textLength="129" x="242.5" y="507.6748">VehicleRepository</text><rect fill="#E3E3E3" height="46.5938" rx="2.5" ry="2.5" style="stroke:#181818;stroke-width:0.5;" width="72" x="633" y="471.3828"/><text fill="#000000" font-family="sans-serif" font-size="14" lengthAdjust="spacing" textLength="51" x="643.5" y="491.3779">vehicle</text><text fill="#000000" font-family="sans-serif" font-size="14" lengthAdjust="spacing" textLength="58" x="640" y="507.6748">:Vehicle</text><rect fill="#FFFFFF" height="370.6563" style="stroke:#181818;stroke-width:1.0;" width="10" x="302" y="83.7266"/><rect fill="#FFFFFF" height="124.3984" style="stroke:#181818;stroke-width:1.0;" width="10" x="307" y="286.8516"/><rect fill="#FFFFFF" height="40.1328" style="stroke:#181818;stroke-width:1.0;" width="10" x="312" y="328.9844"/><rect fill="#FFFFFF" height="137.8594" style="stroke:#181818;stroke-width:1.0;" width="10" x="664" y="146.9922"/><rect fill="#FFFFFF" height="40.1328" style="stroke:#181818;stroke-width:1.0;" width="10" x="669" y="202.5859"/><polygon fill="#181818" points="290,79.7266,300,83.7266,290,87.7266,294,83.7266" style="stroke:#181818;stroke-width:1.0;"/><line style="stroke:#181818;stroke-width:1.0;" x1="0" x2="296" y1="83.7266" y2="83.7266"/><text fill="#000000" font-family="sans-serif" font-size="13" font-weight="bold" lengthAdjust="spacing" textLength="18" x="7" y="78.6606">16</text><text fill="#000000" font-family="sans-serif" font-size="13" lengthAdjust="spacing" textLength="261" x="29" y="78.6606">registerVehicle(plateID, brand, model...)</text><path d="M224,98.7266 L388,98.7266 L388,105.8594 L378,115.8594 L224,115.8594 L224,98.7266 " fill="#EEEEEE" style="stroke:#000000;stroke-width:1.5;"/><rect fill="none" height="327.5234" style="stroke:#000000;stroke-width:1.5;" width="667" x="224" y="98.7266"/><text fill="#000000" font-family="sans-serif" font-size="13" font-weight="bold" lengthAdjust="spacing" textLength="119" x="239" y="111.7935">Register Vehicle</text><polygon fill="#181818" points="621,132.9922,631,136.9922,621,140.9922,625,136.9922" style="stroke:#181818;stroke-width:1.0;"/><line style="stroke:#181818;stroke-width:1.0;" x1="312" x2="627" y1="136.9922" y2="136.9922"/><text fill="#000000" font-family="sans-serif" font-size="13" font-weight="bold" lengthAdjust="spacing" textLength="32" x="319" y="131.9263">16.1</text><text fill="#000000" font-family="sans-serif" font-size="13" lengthAdjust="spacing" textLength="261" x="355" y="131.9263">registerVehicle(plateID, brand, model...)</text><rect fill="#E3E3E3" height="46.5938" rx="2.5" ry="2.5" style="stroke:#181818;stroke-width:0.5;" width="72" x="633" y="115.8594"/><text fill="#000000" font-family="sans-serif" font-size="14" lengthAdjust="spacing" textLength="51" x="643.5" y="135.8545">vehicle</text><text fill="#000000" font-family="sans-serif" font-size="14" lengthAdjust="spacing" textLength="58" x="640" y="152.1514">:Vehicle</text><line style="stroke:#181818;stroke-width:1.0;" x1="674" x2="721" y1="189.5859" y2="189.5859"/><line style="stroke:#181818;stroke-width:1.0;" x1="721" x2="721" y1="189.5859" y2="202.5859"/><line style="stroke:#181818;stroke-width:1.0;" x1="680" x2="721" y1="202.5859" y2="202.5859"/><polygon fill="#181818" points="690,198.5859,680,202.5859,690,206.5859,686,202.5859" style="stroke:#181818;stroke-width:1.0;"/><text fill="#000000" font-family="sans-serif" font-size="13" font-weight="bold" lengthAdjust="spacing" textLength="32" x="686" y="184.52">16.2</text><text fill="#000000" font-family="sans-serif" font-size="13" lengthAdjust="spacing" textLength="157" x="722" y="184.52">validatePlateID(plateID)</text><line style="stroke:#181818;stroke-width:1.0;stroke-dasharray:2.0,2.0;" x1="679" x2="721" y1="241.7188" y2="241.7188"/><line style="stroke:#181818;stroke-width:1.0;stroke-dasharray:2.0,2.0;" x1="721" x2="721" y1="241.7188" y2="254.7188"/><line style="stroke:#181818;stroke-width:1.0;stroke-dasharray:2.0,2.0;" x1="674" x2="721" y1="254.7188" y2="254.7188"/><polygon fill="#181818" points="684,250.7188,674,254.7188,684,258.7188,680,254.7188" style="stroke:#181818;stroke-width:1.0;"/><text fill="#000000" font-family="sans-serif" font-size="13" font-weight="bold" lengthAdjust="spacing" textLength="32" x="686" y="236.6528">16.3</text><text fill="#000000" font-family="sans-serif" font-size="13" lengthAdjust="spacing" textLength="4" x="722" y="236.6528">&#160;</text><line style="stroke:#181818;stroke-width:1.0;" x1="317" x2="359" y1="278.8516" y2="278.8516"/><line style="stroke:#181818;stroke-width:1.0;" x1="359" x2="359" y1="278.8516" y2="291.8516"/><line style="stroke:#181818;stroke-width:1.0;" x1="318" x2="359" y1="291.8516" y2="291.8516"/><polygon fill="#181818" points="328,287.8516,318,291.8516,328,295.8516,324,291.8516" style="stroke:#181818;stroke-width:1.0;"/><text fill="#000000" font-family="sans-serif" font-size="13" font-weight="bold" lengthAdjust="spacing" textLength="32" x="324" y="273.7856">16.4</text><text fill="#000000" font-family="sans-serif" font-size="13" lengthAdjust="spacing" textLength="134" x="360" y="273.7856">addVehicle (Vehicle)</text><line style="stroke:#181818;stroke-width:1.0;" x1="317" x2="364" y1="315.9844" y2="315.9844"/><line style="stroke:#181818;stroke-width:1.0;" x1="364" x2="364" y1="315.9844" y2="328.9844"/><line style="stroke:#181818;stroke-width:1.0;" x1="323" x2="364" y1="328.9844" y2="328.9844"/><polygon fill="#181818" points="333,324.9844,323,328.9844,333,332.9844,329,328.9844" style="stroke:#181818;stroke-width:1.0;"/><text fill="#000000" font-family="sans-serif" font-size="13" font-weight="bold" lengthAdjust="spacing" textLength="32" x="329" y="310.9185">16.5</text><text fill="#000000" font-family="sans-serif" font-size="13" lengthAdjust="spacing" textLength="159" x="365" y="310.9185">validateVehicle(Vehicle)</text><line style="stroke:#181818;stroke-width:1.0;stroke-dasharray:2.0,2.0;" x1="322" x2="364" y1="368.1172" y2="368.1172"/><line style="stroke:#181818;stroke-width:1.0;stroke-dasharray:2.0,2.0;" x1="364" x2="364" y1="368.1172" y2="381.1172"/><line style="stroke:#181818;stroke-width:1.0;stroke-dasharray:2.0,2.0;" x1="317" x2="364" y1="381.1172" y2="381.1172"/><polygon fill="#181818" points="327,377.1172,317,381.1172,327,385.1172,323,381.1172" style="stroke:#181818;stroke-width:1.0;"/><text fill="#000000" font-family="sans-serif" font-size="13" font-weight="bold" lengthAdjust="spacing" textLength="32" x="329" y="363.0513">16.6</text><text fill="#000000" font-family="sans-serif" font-size="13" lengthAdjust="spacing" textLength="4" x="365" y="363.0513">&#160;</text><line style="stroke:#181818;stroke-width:1.0;stroke-dasharray:2.0,2.0;" x1="317" x2="359" y1="410.25" y2="410.25"/><line style="stroke:#181818;stroke-width:1.0;stroke-dasharray:2.0,2.0;" x1="359" x2="359" y1="410.25" y2="423.25"/><line style="stroke:#181818;stroke-width:1.0;stroke-dasharray:2.0,2.0;" x1="312" x2="359" y1="423.25" y2="423.25"/><polygon fill="#181818" points="322,419.25,312,423.25,322,427.25,318,423.25" style="stroke:#181818;stroke-width:1.0;"/><text fill="#000000" font-family="sans-serif" font-size="13" font-weight="bold" lengthAdjust="spacing" textLength="32" x="324" y="405.1841">16.7</text><text fill="#000000" font-family="sans-serif" font-size="13" lengthAdjust="spacing" textLength="4" x="360" y="405.1841">&#160;</text><polygon fill="#181818" points="11,450.3828,1,454.3828,11,458.3828,7,454.3828" style="stroke:#181818;stroke-width:1.0;"/><line style="stroke:#181818;stroke-width:1.0;stroke-dasharray:2.0,2.0;" x1="5" x2="306" y1="454.3828" y2="454.3828"/><text fill="#000000" font-family="sans-serif" font-size="13" font-weight="bold" lengthAdjust="spacing" textLength="18" x="17" y="449.3169">17</text><text fill="#000000" font-family="sans-serif" font-size="13" lengthAdjust="spacing" textLength="47" x="39" y="449.3169">vehicle</text><!--SRC=[bPB1QiCm38RlVWhHKrlQG2yRXB7BDaPXqD6nddfHOoqrTUnWEnrz-pcfusLfrZ6VZAJ_-oNPzY1KYGOBABJIsTxeWi2PYfYDcHAp0-RqvawIm53cKEMoMs3toFMdK3byeBJ4c0yxaOaIbOFHaVOYaxIcKblXj3cbMxNfnqQ05bRhvq7fLgL1q9HjdfOFxoyhnh1oMbN5ZWmiRjZylWQaliDSM4ScICQbH4VBnndi32e-yuDoaacIJ7g0PC4mS-BegvjEm9_SwAg4TI12GB8cLnzV1zutT3IT_iSz8A9dErQ8HuyGx_X02aUKWdlLwndVsaJghzW1xZSuvZWDwcE-T_hxQDu1EGzBW76uJAuPNBRUli8GlLr0k-SBXwkaI3lZVkGwhTKfzfUcLr-7IF6phll1Rfl8tNpUKFm4uJFr_Ru0]--></g></svg>