<?xml version="1.0" encoding="us-ascii" standalone="no"?><svg xmlns="http://www.w3.org/2000/svg" xmlns:xlink="http://www.w3.org/1999/xlink" contentStyleType="text/css" height="825px" preserveAspectRatio="none" style="width:1667px;height:825px;background:#FFFFFF;" version="1.1" viewBox="0 0 1667 825" width="1667px" zoomAndPan="magnify"><defs/><g><rect fill="#FFFFFF" height="635.0156" style="stroke:#181818;stroke-width:1.0;" width="10" x="82.5" y="91.2969"/><rect fill="#FFFFFF" height="70.4297" style="stroke:#181818;stroke-width:1.0;" width="10" x="399.5" y="112.4297"/><rect fill="#FFFFFF" height="29.1328" style="stroke:#181818;stroke-width:1.0;" width="10" x="399.5" y="211.9922"/><rect fill="#FFFFFF" height="456.0547" style="stroke:#181818;stroke-width:1.0;" width="10" x="399.5" y="270.2578"/><rect fill="#FFFFFF" height="397.7891" style="stroke:#181818;stroke-width:1.0;" width="10" x="702.5" y="299.3906"/><rect fill="#FFFFFF" height="339.5234" style="stroke:#181818;stroke-width:1.0;" width="10" x="1120.5" y="328.5234"/><rect fill="#FFFFFF" height="124.3984" style="stroke:#181818;stroke-width:1.0;" width="10" x="1125.5" y="507.5156"/><rect fill="#FFFFFF" height="40.1328" style="stroke:#181818;stroke-width:1.0;" width="10" x="1130.5" y="549.6484"/><rect fill="#FFFFFF" height="137.8594" style="stroke:#181818;stroke-width:1.0;" width="10" x="1459.5" y="367.6563"/><rect fill="#FFFFFF" height="40.1328" style="stroke:#181818;stroke-width:1.0;" width="10" x="1464.5" y="423.25"/><line style="stroke:#181818;stroke-width:0.5;stroke-dasharray:5.0,5.0;" x1="87" x2="87" y1="81.2969" y2="744.3125"/><line style="stroke:#181818;stroke-width:0.5;stroke-dasharray:5.0,5.0;" x1="404" x2="404" y1="81.2969" y2="744.3125"/><line style="stroke:#181818;stroke-width:0.5;stroke-dasharray:5.0,5.0;" x1="707.5" x2="707.5" y1="151.0781" y2="744.3125"/><line style="stroke:#181818;stroke-width:0.5;stroke-dasharray:5.0,5.0;" x1="871.5" x2="871.5" y1="81.2969" y2="744.3125"/><line style="stroke:#181818;stroke-width:0.5;stroke-dasharray:5.0,5.0;" x1="988.5" x2="988.5" y1="81.2969" y2="744.3125"/><line style="stroke:#181818;stroke-width:0.5;stroke-dasharray:5.0,5.0;" x1="1125.5" x2="1125.5" y1="81.2969" y2="744.3125"/><line style="stroke:#181818;stroke-width:0.5;stroke-dasharray:5.0,5.0;" x1="1464.5" x2="1464.5" y1="375.3203" y2="744.3125"/><text fill="#000000" font-family="sans-serif" font-size="14" lengthAdjust="spacing" textLength="159" x="5" y="77.9951">Vehicle Fleet Manager</text><ellipse cx="87.5" cy="13.5" fill="#E3E3E3" rx="8" ry="8" style="stroke:#181818;stroke-width:0.5;"/><path d="M87.5,21.5 L87.5,48.5 M74.5,29.5 L100.5,29.5 M87.5,48.5 L74.5,63.5 M87.5,48.5 L100.5,63.5 " fill="none" style="stroke:#181818;stroke-width:0.5;"/><text fill="#000000" font-family="sans-serif" font-size="14" lengthAdjust="spacing" textLength="159" x="5" y="756.3076">Vehicle Fleet Manager</text><ellipse cx="87.5" cy="768.1094" fill="#E3E3E3" rx="8" ry="8" style="stroke:#181818;stroke-width:0.5;"/><path d="M87.5,776.1094 L87.5,803.1094 M74.5,784.1094 L100.5,784.1094 M87.5,803.1094 L74.5,818.1094 M87.5,803.1094 L100.5,818.1094 " fill="none" style="stroke:#181818;stroke-width:0.5;"/><rect fill="#E3E3E3" height="30.2969" rx="2.5" ry="2.5" style="stroke:#181818;stroke-width:0.5;" width="145" x="332" y="50"/><text fill="#000000" font-family="sans-serif" font-size="14" lengthAdjust="spacing" textLength="131" x="339" y="69.9951">:RegisterVehicleUI</text><rect fill="#E3E3E3" height="30.2969" rx="2.5" ry="2.5" style="stroke:#181818;stroke-width:0.5;" width="145" x="332" y="743.3125"/><text fill="#000000" font-family="sans-serif" font-size="14" lengthAdjust="spacing" textLength="131" x="339" y="763.3076">:RegisterVehicleUI</text><rect fill="#E3E3E3" height="30.2969" rx="2.5" ry="2.5" style="stroke:#181818;stroke-width:0.5;" width="202" x="606.5" y="743.3125"/><text fill="#000000" font-family="sans-serif" font-size="14" lengthAdjust="spacing" textLength="188" x="613.5" y="763.3076">:RegisterVehicleController</text><rect fill="#E3E3E3" height="30.2969" rx="2.5" ry="2.5" style="stroke:#181818;stroke-width:0.5;" width="107" x="818.5" y="50"/><text fill="#000000" font-family="sans-serif" font-size="14" lengthAdjust="spacing" textLength="93" x="825.5" y="69.9951">:Repositories</text><rect fill="#E3E3E3" height="30.2969" rx="2.5" ry="2.5" style="stroke:#181818;stroke-width:0.5;" width="107" x="818.5" y="743.3125"/><text fill="#000000" font-family="sans-serif" font-size="14" lengthAdjust="spacing" textLength="93" x="825.5" y="763.3076">:Repositories</text><rect fill="#E3E3E3" height="46.5938" rx="2.5" ry="2.5" style="stroke:#181818;stroke-width:0.5;" width="107" x="935.5" y="33.7031"/><text fill="#000000" font-family="sans-serif" font-size="14" lengthAdjust="spacing" textLength="84" x="947" y="53.6982">repositories</text><text fill="#000000" font-family="sans-serif" font-size="14" lengthAdjust="spacing" textLength="93" x="942.5" y="69.9951">:Repositories</text><rect fill="#E3E3E3" height="46.5938" rx="2.5" ry="2.5" style="stroke:#181818;stroke-width:0.5;" width="107" x="935.5" y="743.3125"/><text fill="#000000" font-family="sans-serif" font-size="14" lengthAdjust="spacing" textLength="84" x="947" y="763.3076">repositories</text><text fill="#000000" font-family="sans-serif" font-size="14" lengthAdjust="spacing" textLength="93" x="942.5" y="779.6045">:Repositories</text><rect fill="#E3E3E3" height="46.5938" rx="2.5" ry="2.5" style="stroke:#181818;stroke-width:0.5;" width="146" x="1052.5" y="33.7031"/><text fill="#000000" font-family="sans-serif" font-size="14" lengthAdjust="spacing" textLength="132" x="1059.5" y="53.6982">vehicleRepository:</text><text fill="#000000" font-family="sans-serif" font-size="14" lengthAdjust="spacing" textLength="129" x="1061" y="69.9951">VehicleRepository</text><rect fill="#E3E3E3" height="46.5938" rx="2.5" ry="2.5" style="stroke:#181818;stroke-width:0.5;" width="146" x="1052.5" y="743.3125"/><text fill="#000000" font-family="sans-serif" font-size="14" lengthAdjust="spacing" textLength="132" x="1059.5" y="763.3076">vehicleRepository:</text><text fill="#000000" font-family="sans-serif" font-size="14" lengthAdjust="spacing" textLength="129" x="1061" y="779.6045">VehicleRepository</text><rect fill="#E3E3E3" height="46.5938" rx="2.5" ry="2.5" style="stroke:#181818;stroke-width:0.5;" width="72" x="1428.5" y="743.3125"/><text fill="#000000" font-family="sans-serif" font-size="14" lengthAdjust="spacing" textLength="51" x="1439" y="763.3076">vehicle</text><text fill="#000000" font-family="sans-serif" font-size="14" lengthAdjust="spacing" textLength="58" x="1435.5" y="779.6045">:Vehicle</text><rect fill="#FFFFFF" height="635.0156" style="stroke:#181818;stroke-width:1.0;" width="10" x="82.5" y="91.2969"/><rect fill="#FFFFFF" height="70.4297" style="stroke:#181818;stroke-width:1.0;" width="10" x="399.5" y="112.4297"/><rect fill="#FFFFFF" height="29.1328" style="stroke:#181818;stroke-width:1.0;" width="10" x="399.5" y="211.9922"/><rect fill="#FFFFFF" height="456.0547" style="stroke:#181818;stroke-width:1.0;" width="10" x="399.5" y="270.2578"/><rect fill="#FFFFFF" height="397.7891" style="stroke:#181818;stroke-width:1.0;" width="10" x="702.5" y="299.3906"/><rect fill="#FFFFFF" height="339.5234" style="stroke:#181818;stroke-width:1.0;" width="10" x="1120.5" y="328.5234"/><rect fill="#FFFFFF" height="124.3984" style="stroke:#181818;stroke-width:1.0;" width="10" x="1125.5" y="507.5156"/><rect fill="#FFFFFF" height="40.1328" style="stroke:#181818;stroke-width:1.0;" width="10" x="1130.5" y="549.6484"/><rect fill="#FFFFFF" height="137.8594" style="stroke:#181818;stroke-width:1.0;" width="10" x="1459.5" y="367.6563"/><rect fill="#FFFFFF" height="40.1328" style="stroke:#181818;stroke-width:1.0;" width="10" x="1464.5" y="423.25"/><polygon fill="#181818" points="387.5,108.4297,397.5,112.4297,387.5,116.4297,391.5,112.4297" style="stroke:#181818;stroke-width:1.0;"/><line style="stroke:#181818;stroke-width:1.0;" x1="92.5" x2="393.5" y1="112.4297" y2="112.4297"/><text fill="#000000" font-family="sans-serif" font-size="13" font-weight="bold" lengthAdjust="spacing" textLength="9" x="99.5" y="107.3638">1</text><text fill="#000000" font-family="sans-serif" font-size="13" lengthAdjust="spacing" textLength="195" x="112.5" y="107.3638">asks to register a new vehicle</text><polygon fill="#181818" points="594.5,137.5625,604.5,141.5625,594.5,145.5625,598.5,141.5625" style="stroke:#181818;stroke-width:1.0;"/><line style="stroke:#181818;stroke-width:1.0;" x1="409.5" x2="600.5" y1="141.5625" y2="141.5625"/><text fill="#000000" font-family="sans-serif" font-size="13" font-weight="bold" lengthAdjust="spacing" textLength="9" x="416.5" y="136.4966">2</text><text fill="#000000" font-family="sans-serif" font-size="13" lengthAdjust="spacing" textLength="41" x="429.5" y="136.4966">create</text><rect fill="#E3E3E3" height="30.2969" rx="2.5" ry="2.5" style="stroke:#181818;stroke-width:0.5;" width="202" x="606.5" y="120.4297"/><text fill="#000000" font-family="sans-serif" font-size="14" lengthAdjust="spacing" textLength="188" x="613.5" y="140.4248">:RegisterVehicleController</text><polygon fill="#181818" points="103.5,178.8594,93.5,182.8594,103.5,186.8594,99.5,182.8594" style="stroke:#181818;stroke-width:1.0;"/><line style="stroke:#181818;stroke-width:1.0;stroke-dasharray:2.0,2.0;" x1="97.5" x2="403.5" y1="182.8594" y2="182.8594"/><text fill="#000000" font-family="sans-serif" font-size="13" font-weight="bold" lengthAdjust="spacing" textLength="9" x="109.5" y="177.7935">3</text><text fill="#000000" font-family="sans-serif" font-size="13" lengthAdjust="spacing" textLength="249" x="122.5" y="177.7935">request data (plateID, brand, model...)</text><polygon fill="#181818" points="387.5,207.9922,397.5,211.9922,387.5,215.9922,391.5,211.9922" style="stroke:#181818;stroke-width:1.0;"/><line style="stroke:#181818;stroke-width:1.0;" x1="92.5" x2="393.5" y1="211.9922" y2="211.9922"/><text fill="#000000" font-family="sans-serif" font-size="13" font-weight="bold" lengthAdjust="spacing" textLength="9" x="99.5" y="206.9263">4</text><text fill="#000000" font-family="sans-serif" font-size="13" lengthAdjust="spacing" textLength="138" x="112.5" y="206.9263">types requested data</text><polygon fill="#181818" points="103.5,237.125,93.5,241.125,103.5,245.125,99.5,241.125" style="stroke:#181818;stroke-width:1.0;"/><line style="stroke:#181818;stroke-width:1.0;stroke-dasharray:2.0,2.0;" x1="97.5" x2="403.5" y1="241.125" y2="241.125"/><text fill="#000000" font-family="sans-serif" font-size="13" font-weight="bold" lengthAdjust="spacing" textLength="9" x="109.5" y="236.0591">5</text><text fill="#000000" font-family="sans-serif" font-size="13" lengthAdjust="spacing" textLength="270" x="122.5" y="236.0591">show all data registered  for confirmation</text><polygon fill="#181818" points="387.5,266.2578,397.5,270.2578,387.5,274.2578,391.5,270.2578" style="stroke:#181818;stroke-width:1.0;"/><line style="stroke:#181818;stroke-width:1.0;" x1="92.5" x2="393.5" y1="270.2578" y2="270.2578"/><text fill="#000000" font-family="sans-serif" font-size="13" font-weight="bold" lengthAdjust="spacing" textLength="9" x="99.5" y="265.1919">6</text><text fill="#000000" font-family="sans-serif" font-size="13" lengthAdjust="spacing" textLength="85" x="112.5" y="265.1919">submits data</text><polygon fill="#181818" points="690.5,295.3906,700.5,299.3906,690.5,303.3906,694.5,299.3906" style="stroke:#181818;stroke-width:1.0;"/><line style="stroke:#181818;stroke-width:1.0;" x1="409.5" x2="696.5" y1="299.3906" y2="299.3906"/><text fill="#000000" font-family="sans-serif" font-size="13" font-weight="bold" lengthAdjust="spacing" textLength="9" x="416.5" y="294.3247">7</text><text fill="#000000" font-family="sans-serif" font-size="13" lengthAdjust="spacing" textLength="261" x="429.5" y="294.3247">registerVehicle(plateID, brand, model...)</text><polygon fill="#181818" points="1108.5,324.5234,1118.5,328.5234,1108.5,332.5234,1112.5,328.5234" style="stroke:#181818;stroke-width:1.0;"/><line style="stroke:#181818;stroke-width:1.0;" x1="712.5" x2="1114.5" y1="328.5234" y2="328.5234"/><text fill="#000000" font-family="sans-serif" font-size="13" font-weight="bold" lengthAdjust="spacing" textLength="9" x="719.5" y="323.4575">8</text><text fill="#000000" font-family="sans-serif" font-size="13" lengthAdjust="spacing" textLength="261" x="732.5" y="323.4575">registerVehicle(plateID, brand, model...)</text><polygon fill="#181818" points="1416.5,353.6563,1426.5,357.6563,1416.5,361.6563,1420.5,357.6563" style="stroke:#181818;stroke-width:1.0;"/><line style="stroke:#181818;stroke-width:1.0;" x1="1130.5" x2="1422.5" y1="357.6563" y2="357.6563"/><text fill="#000000" font-family="sans-serif" font-size="13" font-weight="bold" lengthAdjust="spacing" textLength="9" x="1137.5" y="352.5903">9</text><text fill="#000000" font-family="sans-serif" font-size="13" lengthAdjust="spacing" textLength="261" x="1150.5" y="352.5903">registerVehicle(plateID, brand, model...)</text><rect fill="#E3E3E3" height="46.5938" rx="2.5" ry="2.5" style="stroke:#181818;stroke-width:0.5;" width="72" x="1428.5" y="336.5234"/><text fill="#000000" font-family="sans-serif" font-size="14" lengthAdjust="spacing" textLength="51" x="1439" y="356.5186">vehicle</text><text fill="#000000" font-family="sans-serif" font-size="14" lengthAdjust="spacing" textLength="58" x="1435.5" y="372.8154">:Vehicle</text><line style="stroke:#181818;stroke-width:1.0;" x1="1469.5" x2="1516.5" y1="410.25" y2="410.25"/><line style="stroke:#181818;stroke-width:1.0;" x1="1516.5" x2="1516.5" y1="410.25" y2="423.25"/><line style="stroke:#181818;stroke-width:1.0;" x1="1475.5" x2="1516.5" y1="423.25" y2="423.25"/><polygon fill="#181818" points="1485.5,419.25,1475.5,423.25,1485.5,427.25,1481.5,423.25" style="stroke:#181818;stroke-width:1.0;"/><text fill="#000000" font-family="sans-serif" font-size="13" font-weight="bold" lengthAdjust="spacing" textLength="18" x="1481.5" y="405.1841">10</text><text fill="#000000" font-family="sans-serif" font-size="13" lengthAdjust="spacing" textLength="157" x="1503.5" y="405.1841">validatePlateID(plateID)</text><line style="stroke:#181818;stroke-width:1.0;stroke-dasharray:2.0,2.0;" x1="1474.5" x2="1516.5" y1="462.3828" y2="462.3828"/><line style="stroke:#181818;stroke-width:1.0;stroke-dasharray:2.0,2.0;" x1="1516.5" x2="1516.5" y1="462.3828" y2="475.3828"/><line style="stroke:#181818;stroke-width:1.0;stroke-dasharray:2.0,2.0;" x1="1469.5" x2="1516.5" y1="475.3828" y2="475.3828"/><polygon fill="#181818" points="1479.5,471.3828,1469.5,475.3828,1479.5,479.3828,1475.5,475.3828" style="stroke:#181818;stroke-width:1.0;"/><text fill="#000000" font-family="sans-serif" font-size="13" font-weight="bold" lengthAdjust="spacing" textLength="18" x="1481.5" y="457.3169">11</text><text fill="#000000" font-family="sans-serif" font-size="13" lengthAdjust="spacing" textLength="4" x="1503.5" y="457.3169">&#160;</text><line style="stroke:#181818;stroke-width:1.0;" x1="1135.5" x2="1177.5" y1="499.5156" y2="499.5156"/><line style="stroke:#181818;stroke-width:1.0;" x1="1177.5" x2="1177.5" y1="499.5156" y2="512.5156"/><line style="stroke:#181818;stroke-width:1.0;" x1="1136.5" x2="1177.5" y1="512.5156" y2="512.5156"/><polygon fill="#181818" points="1146.5,508.5156,1136.5,512.5156,1146.5,516.5156,1142.5,512.5156" style="stroke:#181818;stroke-width:1.0;"/><text fill="#000000" font-family="sans-serif" font-size="13" font-weight="bold" lengthAdjust="spacing" textLength="18" x="1142.5" y="494.4497">12</text><text fill="#000000" font-family="sans-serif" font-size="13" lengthAdjust="spacing" textLength="130" x="1164.5" y="494.4497">addVehicle(Vehicle)</text><line style="stroke:#181818;stroke-width:1.0;" x1="1135.5" x2="1182.5" y1="536.6484" y2="536.6484"/><line style="stroke:#181818;stroke-width:1.0;" x1="1182.5" x2="1182.5" y1="536.6484" y2="549.6484"/><line style="stroke:#181818;stroke-width:1.0;" x1="1141.5" x2="1182.5" y1="549.6484" y2="549.6484"/><polygon fill="#181818" points="1151.5,545.6484,1141.5,549.6484,1151.5,553.6484,1147.5,549.6484" style="stroke:#181818;stroke-width:1.0;"/><text fill="#000000" font-family="sans-serif" font-size="13" font-weight="bold" lengthAdjust="spacing" textLength="18" x="1147.5" y="531.5825">13</text><text fill="#000000" font-family="sans-serif" font-size="13" lengthAdjust="spacing" textLength="159" x="1169.5" y="531.5825">validateVehicle(Vehicle)</text><line style="stroke:#181818;stroke-width:1.0;stroke-dasharray:2.0,2.0;" x1="1140.5" x2="1182.5" y1="588.7813" y2="588.7813"/><line style="stroke:#181818;stroke-width:1.0;stroke-dasharray:2.0,2.0;" x1="1182.5" x2="1182.5" y1="588.7813" y2="601.7813"/><line style="stroke:#181818;stroke-width:1.0;stroke-dasharray:2.0,2.0;" x1="1135.5" x2="1182.5" y1="601.7813" y2="601.7813"/><polygon fill="#181818" points="1145.5,597.7813,1135.5,601.7813,1145.5,605.7813,1141.5,601.7813" style="stroke:#181818;stroke-width:1.0;"/><text fill="#000000" font-family="sans-serif" font-size="13" font-weight="bold" lengthAdjust="spacing" textLength="18" x="1147.5" y="583.7153">14</text><text fill="#000000" font-family="sans-serif" font-size="13" lengthAdjust="spacing" textLength="4" x="1169.5" y="583.7153">&#160;</text><line style="stroke:#181818;stroke-width:1.0;stroke-dasharray:2.0,2.0;" x1="1135.5" x2="1177.5" y1="630.9141" y2="630.9141"/><line style="stroke:#181818;stroke-width:1.0;stroke-dasharray:2.0,2.0;" x1="1177.5" x2="1177.5" y1="630.9141" y2="643.9141"/><line style="stroke:#181818;stroke-width:1.0;stroke-dasharray:2.0,2.0;" x1="1130.5" x2="1177.5" y1="643.9141" y2="643.9141"/><polygon fill="#181818" points="1140.5,639.9141,1130.5,643.9141,1140.5,647.9141,1136.5,643.9141" style="stroke:#181818;stroke-width:1.0;"/><text fill="#000000" font-family="sans-serif" font-size="13" font-weight="bold" lengthAdjust="spacing" textLength="18" x="1142.5" y="625.8481">15</text><text fill="#000000" font-family="sans-serif" font-size="13" lengthAdjust="spacing" textLength="4" x="1164.5" y="625.8481">&#160;</text><polygon fill="#181818" points="723.5,664.0469,713.5,668.0469,723.5,672.0469,719.5,668.0469" style="stroke:#181818;stroke-width:1.0;"/><line style="stroke:#181818;stroke-width:1.0;stroke-dasharray:2.0,2.0;" x1="717.5" x2="1124.5" y1="668.0469" y2="668.0469"/><text fill="#000000" font-family="sans-serif" font-size="13" font-weight="bold" lengthAdjust="spacing" textLength="18" x="729.5" y="662.981">16</text><text fill="#000000" font-family="sans-serif" font-size="13" lengthAdjust="spacing" textLength="47" x="751.5" y="662.981">vehicle</text><polygon fill="#181818" points="420.5,693.1797,410.5,697.1797,420.5,701.1797,416.5,697.1797" style="stroke:#181818;stroke-width:1.0;"/><line style="stroke:#181818;stroke-width:1.0;stroke-dasharray:2.0,2.0;" x1="414.5" x2="706.5" y1="697.1797" y2="697.1797"/><text fill="#000000" font-family="sans-serif" font-size="13" font-weight="bold" lengthAdjust="spacing" textLength="18" x="426.5" y="692.1138">17</text><text fill="#000000" font-family="sans-serif" font-size="13" lengthAdjust="spacing" textLength="47" x="448.5" y="692.1138">vehicle</text><polygon fill="#181818" points="98.5,722.3125,88.5,726.3125,98.5,730.3125,94.5,726.3125" style="stroke:#181818;stroke-width:1.0;"/><line style="stroke:#181818;stroke-width:1.0;stroke-dasharray:2.0,2.0;" x1="92.5" x2="403.5" y1="726.3125" y2="726.3125"/><text fill="#000000" font-family="sans-serif" font-size="13" font-weight="bold" lengthAdjust="spacing" textLength="18" x="104.5" y="721.2466">18</text><text fill="#000000" font-family="sans-serif" font-size="13" lengthAdjust="spacing" textLength="166" x="126.5" y="721.2466">shows operation success.</text><!--SRC=[fLLDR-8m4BtxLuoui8ieFu13fOgs4X9egxPmucASWLWuTjPsOFdtE_aaQKm_VO7OC-yzl_7OxY1roYrF837QYDYQ1C7R39bhLb8k3doFB_wi42mAp_LUjGDSp2DpadeFEwuSCiOpRtIMRD4oDenbXB0pnc_DFyQ5DnO6Quob8BH7XUXXoJNXsm5m1-l79IDKBuLCkVOmc3xZNZgFjifPpOkurVpzi9dHtXgbAjZPw_EYbv0Q9qcEH5V4D1Fd5vdlaFRGJR6jZ8tk0pmjxbwx6STIp0Lvkj7hjtD5RYyo24IiLNffriDyjbhyORcjyiWz5lOng0PzmCqjMGLJYZuuy8RgLze473IUQjfBJeD41hCXj0R1t13QtVsIu2p-pT1v1n7t77vPtA55BN0C4JfXPUgbqMC0gNV69bp1HdTNF8fOIq4hdUaeixpy9upplrbRm51Op9KLjNohxBQO7er8MnbssL8bF7UZ4LxfJXL5pk_7iBLSHsDgWWZLP3Bf4aVOSILahp-dw6fmZ0huiATXMIus9-1AbRhg8X4GTOubB_HEaesvC-mTLMr5BjiciYeGwwdeMrTuqscXJxZJO1OrOHtN2b02x_V0DuWwPFrUwSJrbdCLLQkCHZzcRvgklLfDjfZ8poDNakp7fvAW9khY1h4XC1gA2qSlhdKc6fci5nKqA50c7aMrHzNlrRu8cl91qKAR_AoqsjftzNrJmnKT8I71_9Oj7vpKdx9zZIdCKlL-xo7u6dxPxCNTSy6w0XMylykRiBm87PWKotU0hZ4XqBa92rnvxVD7xzv_]--></g></svg>