<?xml version="1.0" encoding="us-ascii" standalone="no"?><svg xmlns="http://www.w3.org/2000/svg" xmlns:xlink="http://www.w3.org/1999/xlink" contentStyleType="text/css" height="1812px" preserveAspectRatio="none" style="width:1562px;height:1812px;background:#FFFFFF;" version="1.1" viewBox="0 0 1562 1812" width="1562px" zoomAndPan="magnify"><defs/><g><rect fill="#FFFFFF" height="1618.1719" style="stroke:#181818;stroke-width:1.0;" width="10" x="74" y="93.6211"/><rect fill="#FFFFFF" height="381.5313" style="stroke:#181818;stroke-width:1.0;" width="10" x="359" y="116.9121"/><rect fill="#FFFFFF" height="31.291" style="stroke:#181818;stroke-width:1.0;" width="10" x="359" y="529.7344"/><rect fill="#FFFFFF" height="31.291" style="stroke:#181818;stroke-width:1.0;" width="10" x="359" y="592.3164"/><rect fill="#FFFFFF" height="31.291" style="stroke:#181818;stroke-width:1.0;" width="10" x="359" y="654.8984"/><rect fill="#FFFFFF" height="31.291" style="stroke:#181818;stroke-width:1.0;" width="10" x="359" y="717.4805"/><rect fill="#FFFFFF" height="31.291" style="stroke:#181818;stroke-width:1.0;" width="10" x="359" y="780.0625"/><rect fill="#FFFFFF" height="31.291" style="stroke:#181818;stroke-width:1.0;" width="10" x="359" y="842.6445"/><rect fill="#FFFFFF" height="31.291" style="stroke:#181818;stroke-width:1.0;" width="10" x="359" y="905.2266"/><rect fill="#FFFFFF" height="31.291" style="stroke:#181818;stroke-width:1.0;" width="10" x="359" y="967.8086"/><rect fill="#FFFFFF" height="31.291" style="stroke:#181818;stroke-width:1.0;" width="10" x="359" y="1030.3906"/><rect fill="#FFFFFF" height="31.291" style="stroke:#181818;stroke-width:1.0;" width="10" x="359" y="1092.9727"/><rect fill="#FFFFFF" height="56.291" style="stroke:#181818;stroke-width:1.0;" width="10" x="359" y="1155.5547"/><rect fill="#FFFFFF" height="468.6563" style="stroke:#181818;stroke-width:1.0;" width="10" x="359" y="1243.1367"/><rect fill="#FFFFFF" height="219.0371" style="stroke:#181818;stroke-width:1.0;" width="10" x="734" y="191.8242"/><rect fill="#FFFFFF" height="371.4922" style="stroke:#181818;stroke-width:1.0;" width="10" x="734" y="1309.0098"/><rect fill="#FFFFFF" height="31.291" style="stroke:#181818;stroke-width:1.0;" width="10" x="882" y="223.1152"/><rect fill="#FFFFFF" height="31.291" style="stroke:#181818;stroke-width:1.0;" width="10" x="989" y="285.6973"/><rect fill="#FFFFFF" height="31.291" style="stroke:#181818;stroke-width:1.0;" width="10" x="1112.5" y="348.2793"/><rect fill="#FFFFFF" height="274.3281" style="stroke:#181818;stroke-width:1.0;" width="10" x="1112.5" y="1374.8828"/><rect fill="#FFFFFF" height="130.873" style="stroke:#181818;stroke-width:1.0;" width="10" x="1117.5" y="1480.0469"/><rect fill="#FFFFFF" height="42.291" style="stroke:#181818;stroke-width:1.0;" width="10" x="1122.5" y="1524.3379"/><line style="stroke:#181818;stroke-width:0.5;stroke-dasharray:5.0,5.0;" x1="79" x2="79" y1="83.6211" y2="1729.793"/><line style="stroke:#181818;stroke-width:0.5;stroke-dasharray:5.0,5.0;" x1="363.5" x2="363.5" y1="83.6211" y2="1729.793"/><line style="stroke:#181818;stroke-width:0.5;stroke-dasharray:5.0,5.0;" x1="738.5" x2="738.5" y1="156.7227" y2="1729.793"/><line style="stroke:#181818;stroke-width:0.5;stroke-dasharray:5.0,5.0;" x1="886.5" x2="886.5" y1="83.6211" y2="1729.793"/><line style="stroke:#181818;stroke-width:0.5;stroke-dasharray:5.0,5.0;" x1="993.5" x2="993.5" y1="83.6211" y2="1729.793"/><line style="stroke:#181818;stroke-width:0.5;stroke-dasharray:5.0,5.0;" x1="1117.5" x2="1117.5" y1="83.6211" y2="1729.793"/><line style="stroke:#181818;stroke-width:0.5;stroke-dasharray:5.0,5.0;" x1="1524.5" x2="1524.5" y1="1425.8193" y2="1729.793"/><text fill="#000000" font-family="sans-serif" font-size="14" lengthAdjust="spacing" textLength="142" x="5" y="80.1074">Vehicle Fleet Manager</text><ellipse cx="79" cy="13.5" fill="#E3E3E3" rx="8" ry="8" style="stroke:#181818;stroke-width:0.5;"/><path d="M79,21.5 L79,48.5 M66,29.5 L92,29.5 M79,48.5 L66,63.5 M79,48.5 L92,63.5 " fill="none" style="stroke:#181818;stroke-width:0.5;"/><text fill="#000000" font-family="sans-serif" font-size="14" lengthAdjust="spacing" textLength="142" x="5" y="1743.9004">Vehicle Fleet Manager</text><ellipse cx="79" cy="1755.9141" fill="#E3E3E3" rx="8" ry="8" style="stroke:#181818;stroke-width:0.5;"/><path d="M79,1763.9141 L79,1790.9141 M66,1771.9141 L92,1771.9141 M79,1790.9141 L66,1805.9141 M79,1790.9141 L92,1805.9141 " fill="none" style="stroke:#181818;stroke-width:0.5;"/><rect fill="#E3E3E3" height="32.6211" rx="2.5" ry="2.5" style="stroke:#181818;stroke-width:0.5;" width="129" x="299.5" y="50"/><text fill="#000000" font-family="sans-serif" font-size="14" lengthAdjust="spacing" textLength="115" x="306.5" y="72.1074">:RegisterVehicleUI</text><rect fill="#E3E3E3" height="32.6211" rx="2.5" ry="2.5" style="stroke:#181818;stroke-width:0.5;" width="129" x="299.5" y="1728.793"/><text fill="#000000" font-family="sans-serif" font-size="14" lengthAdjust="spacing" textLength="115" x="306.5" y="1750.9004">:RegisterVehicleUI</text><rect fill="#E3E3E3" height="32.6211" rx="2.5" ry="2.5" style="stroke:#181818;stroke-width:0.5;" width="179" x="649.5" y="1728.793"/><text fill="#000000" font-family="sans-serif" font-size="14" lengthAdjust="spacing" textLength="165" x="656.5" y="1750.9004">:RegisterVehicleController</text><rect fill="#E3E3E3" height="32.6211" rx="2.5" ry="2.5" style="stroke:#181818;stroke-width:0.5;" width="97" x="838.5" y="50"/><text fill="#000000" font-family="sans-serif" font-size="14" lengthAdjust="spacing" textLength="83" x="845.5" y="72.1074">:Repositories</text><rect fill="#E3E3E3" height="32.6211" rx="2.5" ry="2.5" style="stroke:#181818;stroke-width:0.5;" width="97" x="838.5" y="1728.793"/><text fill="#000000" font-family="sans-serif" font-size="14" lengthAdjust="spacing" textLength="83" x="845.5" y="1750.9004">:Repositories</text><rect fill="#E3E3E3" height="51.2422" rx="2.5" ry="2.5" style="stroke:#181818;stroke-width:0.5;" width="97" x="945.5" y="31.3789"/><text fill="#000000" font-family="sans-serif" font-size="14" lengthAdjust="spacing" textLength="74" x="957" y="53.4863">repositories</text><text fill="#000000" font-family="sans-serif" font-size="14" lengthAdjust="spacing" textLength="83" x="952.5" y="72.1074">:Repositories</text><rect fill="#E3E3E3" height="51.2422" rx="2.5" ry="2.5" style="stroke:#181818;stroke-width:0.5;" width="97" x="945.5" y="1728.793"/><text fill="#000000" font-family="sans-serif" font-size="14" lengthAdjust="spacing" textLength="74" x="957" y="1750.9004">repositories</text><text fill="#000000" font-family="sans-serif" font-size="14" lengthAdjust="spacing" textLength="83" x="952.5" y="1769.5215">:Repositories</text><rect fill="#E3E3E3" height="51.2422" rx="2.5" ry="2.5" style="stroke:#181818;stroke-width:0.5;" width="130" x="1052.5" y="31.3789"/><text fill="#000000" font-family="sans-serif" font-size="14" lengthAdjust="spacing" textLength="116" x="1059.5" y="53.4863">vehicleRepository:</text><text fill="#000000" font-family="sans-serif" font-size="14" lengthAdjust="spacing" textLength="114" x="1060.5" y="72.1074">VehicleRepository</text><rect fill="#E3E3E3" height="51.2422" rx="2.5" ry="2.5" style="stroke:#181818;stroke-width:0.5;" width="130" x="1052.5" y="1728.793"/><text fill="#000000" font-family="sans-serif" font-size="14" lengthAdjust="spacing" textLength="116" x="1059.5" y="1750.9004">vehicleRepository:</text><text fill="#000000" font-family="sans-serif" font-size="14" lengthAdjust="spacing" textLength="114" x="1060.5" y="1769.5215">VehicleRepository</text><rect fill="#E3E3E3" height="51.2422" rx="2.5" ry="2.5" style="stroke:#181818;stroke-width:0.5;" width="64" x="1492.5" y="1728.793"/><text fill="#000000" font-family="sans-serif" font-size="14" lengthAdjust="spacing" textLength="44" x="1502.5" y="1750.9004">vehicle</text><text fill="#000000" font-family="sans-serif" font-size="14" lengthAdjust="spacing" textLength="50" x="1499.5" y="1769.5215">:Vehicle</text><rect fill="#FFFFFF" height="1618.1719" style="stroke:#181818;stroke-width:1.0;" width="10" x="74" y="93.6211"/><rect fill="#FFFFFF" height="381.5313" style="stroke:#181818;stroke-width:1.0;" width="10" x="359" y="116.9121"/><rect fill="#FFFFFF" height="31.291" style="stroke:#181818;stroke-width:1.0;" width="10" x="359" y="529.7344"/><rect fill="#FFFFFF" height="31.291" style="stroke:#181818;stroke-width:1.0;" width="10" x="359" y="592.3164"/><rect fill="#FFFFFF" height="31.291" style="stroke:#181818;stroke-width:1.0;" width="10" x="359" y="654.8984"/><rect fill="#FFFFFF" height="31.291" style="stroke:#181818;stroke-width:1.0;" width="10" x="359" y="717.4805"/><rect fill="#FFFFFF" height="31.291" style="stroke:#181818;stroke-width:1.0;" width="10" x="359" y="780.0625"/><rect fill="#FFFFFF" height="31.291" style="stroke:#181818;stroke-width:1.0;" width="10" x="359" y="842.6445"/><rect fill="#FFFFFF" height="31.291" style="stroke:#181818;stroke-width:1.0;" width="10" x="359" y="905.2266"/><rect fill="#FFFFFF" height="31.291" style="stroke:#181818;stroke-width:1.0;" width="10" x="359" y="967.8086"/><rect fill="#FFFFFF" height="31.291" style="stroke:#181818;stroke-width:1.0;" width="10" x="359" y="1030.3906"/><rect fill="#FFFFFF" height="31.291" style="stroke:#181818;stroke-width:1.0;" width="10" x="359" y="1092.9727"/><rect fill="#FFFFFF" height="56.291" style="stroke:#181818;stroke-width:1.0;" width="10" x="359" y="1155.5547"/><rect fill="#FFFFFF" height="468.6563" style="stroke:#181818;stroke-width:1.0;" width="10" x="359" y="1243.1367"/><rect fill="#FFFFFF" height="219.0371" style="stroke:#181818;stroke-width:1.0;" width="10" x="734" y="191.8242"/><rect fill="#FFFFFF" height="371.4922" style="stroke:#181818;stroke-width:1.0;" width="10" x="734" y="1309.0098"/><rect fill="#FFFFFF" height="31.291" style="stroke:#181818;stroke-width:1.0;" width="10" x="882" y="223.1152"/><rect fill="#FFFFFF" height="31.291" style="stroke:#181818;stroke-width:1.0;" width="10" x="989" y="285.6973"/><rect fill="#FFFFFF" height="31.291" style="stroke:#181818;stroke-width:1.0;" width="10" x="1112.5" y="348.2793"/><rect fill="#FFFFFF" height="274.3281" style="stroke:#181818;stroke-width:1.0;" width="10" x="1112.5" y="1374.8828"/><rect fill="#FFFFFF" height="130.873" style="stroke:#181818;stroke-width:1.0;" width="10" x="1117.5" y="1480.0469"/><rect fill="#FFFFFF" height="42.291" style="stroke:#181818;stroke-width:1.0;" width="10" x="1122.5" y="1524.3379"/><polygon fill="#181818" points="347,112.9121,357,116.9121,347,120.9121,351,116.9121" style="stroke:#181818;stroke-width:1.0;"/><line style="stroke:#181818;stroke-width:1.0;" x1="84" x2="353" y1="116.9121" y2="116.9121"/><text fill="#000000" font-family="sans-serif" font-size="13" font-weight="bold" lengthAdjust="spacing" textLength="7" x="91" y="111.6494">1</text><text fill="#000000" font-family="sans-serif" font-size="13" lengthAdjust="spacing" textLength="171" x="102" y="111.6494">asks to register a new vehicle</text><polygon fill="#181818" points="637.5,144.2031,647.5,148.2031,637.5,152.2031,641.5,148.2031" style="stroke:#181818;stroke-width:1.0;"/><line style="stroke:#181818;stroke-width:1.0;" x1="369" x2="643.5" y1="148.2031" y2="148.2031"/><text fill="#000000" font-family="sans-serif" font-size="13" font-weight="bold" lengthAdjust="spacing" textLength="7" x="376" y="142.9404">2</text><text fill="#000000" font-family="sans-serif" font-size="13" lengthAdjust="spacing" textLength="36" x="387" y="142.9404">create</text><rect fill="#E3E3E3" height="32.6211" rx="2.5" ry="2.5" style="stroke:#181818;stroke-width:0.5;" width="179" x="649.5" y="124.9121"/><text fill="#000000" font-family="sans-serif" font-size="14" lengthAdjust="spacing" textLength="165" x="656.5" y="147.0195">:RegisterVehicleController</text><polygon fill="#181818" points="722,187.8242,732,191.8242,722,195.8242,726,191.8242" style="stroke:#181818;stroke-width:1.0;"/><line style="stroke:#181818;stroke-width:1.0;" x1="369" x2="728" y1="191.8242" y2="191.8242"/><text fill="#000000" font-family="sans-serif" font-size="13" font-weight="bold" lengthAdjust="spacing" textLength="7" x="376" y="186.5615">3</text><text fill="#000000" font-family="sans-serif" font-size="13" lengthAdjust="spacing" textLength="69" x="387" y="186.5615">getVehicle()</text><polygon fill="#181818" points="870,219.1152,880,223.1152,870,227.1152,874,223.1152" style="stroke:#181818;stroke-width:1.0;"/><line style="stroke:#181818;stroke-width:1.0;" x1="744" x2="876" y1="223.1152" y2="223.1152"/><text fill="#000000" font-family="sans-serif" font-size="13" font-weight="bold" lengthAdjust="spacing" textLength="7" x="751" y="217.8525">4</text><text fill="#000000" font-family="sans-serif" font-size="13" lengthAdjust="spacing" textLength="75" x="762" y="217.8525">getInstance()</text><polygon fill="#181818" points="755,250.4063,745,254.4063,755,258.4063,751,254.4063" style="stroke:#181818;stroke-width:1.0;"/><line style="stroke:#181818;stroke-width:1.0;stroke-dasharray:2.0,2.0;" x1="749" x2="886" y1="254.4063" y2="254.4063"/><text fill="#000000" font-family="sans-serif" font-size="13" font-weight="bold" lengthAdjust="spacing" textLength="7" x="761" y="249.1436">5</text><text fill="#000000" font-family="sans-serif" font-size="13" lengthAdjust="spacing" textLength="67" x="772" y="249.1436">repositories</text><polygon fill="#181818" points="977,281.6973,987,285.6973,977,289.6973,981,285.6973" style="stroke:#181818;stroke-width:1.0;"/><line style="stroke:#181818;stroke-width:1.0;" x1="744" x2="983" y1="285.6973" y2="285.6973"/><text fill="#000000" font-family="sans-serif" font-size="13" font-weight="bold" lengthAdjust="spacing" textLength="7" x="751" y="280.4346">6</text><text fill="#000000" font-family="sans-serif" font-size="13" lengthAdjust="spacing" textLength="131" x="762" y="280.4346">getVehicleRepository()</text><polygon fill="#181818" points="755,312.9883,745,316.9883,755,320.9883,751,316.9883" style="stroke:#181818;stroke-width:1.0;"/><line style="stroke:#181818;stroke-width:1.0;stroke-dasharray:2.0,2.0;" x1="749" x2="993" y1="316.9883" y2="316.9883"/><text fill="#000000" font-family="sans-serif" font-size="13" font-weight="bold" lengthAdjust="spacing" textLength="7" x="761" y="311.7256">7</text><text fill="#000000" font-family="sans-serif" font-size="13" lengthAdjust="spacing" textLength="101" x="772" y="311.7256">vehicleRepository</text><polygon fill="#181818" points="1100.5,344.2793,1110.5,348.2793,1100.5,352.2793,1104.5,348.2793" style="stroke:#181818;stroke-width:1.0;"/><line style="stroke:#181818;stroke-width:1.0;" x1="744" x2="1106.5" y1="348.2793" y2="348.2793"/><text fill="#000000" font-family="sans-serif" font-size="13" font-weight="bold" lengthAdjust="spacing" textLength="7" x="751" y="343.0166">8</text><text fill="#000000" font-family="sans-serif" font-size="13" lengthAdjust="spacing" textLength="90" x="762" y="343.0166">getVehicleList()</text><polygon fill="#181818" points="755,375.5703,745,379.5703,755,383.5703,751,379.5703" style="stroke:#181818;stroke-width:1.0;"/><line style="stroke:#181818;stroke-width:1.0;stroke-dasharray:2.0,2.0;" x1="749" x2="1116.5" y1="379.5703" y2="379.5703"/><text fill="#000000" font-family="sans-serif" font-size="13" font-weight="bold" lengthAdjust="spacing" textLength="7" x="761" y="374.3076">9</text><text fill="#000000" font-family="sans-serif" font-size="13" lengthAdjust="spacing" textLength="60" x="772" y="374.3076">vehicleList</text><polygon fill="#181818" points="380,406.8613,370,410.8613,380,414.8613,376,410.8613" style="stroke:#181818;stroke-width:1.0;"/><line style="stroke:#181818;stroke-width:1.0;stroke-dasharray:2.0,2.0;" x1="374" x2="738" y1="410.8613" y2="410.8613"/><text fill="#000000" font-family="sans-serif" font-size="13" font-weight="bold" lengthAdjust="spacing" textLength="14" x="386" y="405.5986">10</text><text fill="#000000" font-family="sans-serif" font-size="13" lengthAdjust="spacing" textLength="60" x="404" y="405.5986">vehicleList</text><polygon fill="#181818" points="95,438.1523,85,442.1523,95,446.1523,91,442.1523" style="stroke:#181818;stroke-width:1.0;"/><line style="stroke:#181818;stroke-width:1.0;stroke-dasharray:2.0,2.0;" x1="89" x2="358" y1="442.1523" y2="442.1523"/><text fill="#000000" font-family="sans-serif" font-size="13" font-weight="bold" lengthAdjust="spacing" textLength="14" x="101" y="436.8896">11</text><text fill="#000000" font-family="sans-serif" font-size="13" lengthAdjust="spacing" textLength="102" x="119" y="436.8896">show Vehicle List</text><polygon fill="#181818" points="95,494.4434,85,498.4434,95,502.4434,91,498.4434" style="stroke:#181818;stroke-width:1.0;"/><line style="stroke:#181818;stroke-width:1.0;stroke-dasharray:2.0,2.0;" x1="89" x2="363" y1="498.4434" y2="498.4434"/><text fill="#000000" font-family="sans-serif" font-size="13" font-weight="bold" lengthAdjust="spacing" textLength="14" x="101" y="493.1807">12</text><text fill="#000000" font-family="sans-serif" font-size="13" lengthAdjust="spacing" textLength="134" x="119" y="493.1807">request vehicle plate ID</text><polygon fill="#181818" points="347,525.7344,357,529.7344,347,533.7344,351,529.7344" style="stroke:#181818;stroke-width:1.0;"/><line style="stroke:#181818;stroke-width:1.0;" x1="84" x2="353" y1="529.7344" y2="529.7344"/><text fill="#000000" font-family="sans-serif" font-size="13" font-weight="bold" lengthAdjust="spacing" textLength="14" x="91" y="524.4717">13</text><text fill="#000000" font-family="sans-serif" font-size="13" lengthAdjust="spacing" textLength="122" x="109" y="524.4717">types requested data</text><polygon fill="#181818" points="95,557.0254,85,561.0254,95,565.0254,91,561.0254" style="stroke:#181818;stroke-width:1.0;"/><line style="stroke:#181818;stroke-width:1.0;stroke-dasharray:2.0,2.0;" x1="89" x2="363" y1="561.0254" y2="561.0254"/><text fill="#000000" font-family="sans-serif" font-size="13" font-weight="bold" lengthAdjust="spacing" textLength="14" x="101" y="555.7627">14</text><text fill="#000000" font-family="sans-serif" font-size="13" lengthAdjust="spacing" textLength="122" x="119" y="555.7627">request vehicle brand</text><polygon fill="#181818" points="347,588.3164,357,592.3164,347,596.3164,351,592.3164" style="stroke:#181818;stroke-width:1.0;"/><line style="stroke:#181818;stroke-width:1.0;" x1="84" x2="353" y1="592.3164" y2="592.3164"/><text fill="#000000" font-family="sans-serif" font-size="13" font-weight="bold" lengthAdjust="spacing" textLength="14" x="91" y="587.0537">15</text><text fill="#000000" font-family="sans-serif" font-size="13" lengthAdjust="spacing" textLength="122" x="109" y="587.0537">types requested data</text><polygon fill="#181818" points="95,619.6074,85,623.6074,95,627.6074,91,623.6074" style="stroke:#181818;stroke-width:1.0;"/><line style="stroke:#181818;stroke-width:1.0;stroke-dasharray:2.0,2.0;" x1="89" x2="363" y1="623.6074" y2="623.6074"/><text fill="#000000" font-family="sans-serif" font-size="13" font-weight="bold" lengthAdjust="spacing" textLength="14" x="101" y="618.3447">16</text><text fill="#000000" font-family="sans-serif" font-size="13" lengthAdjust="spacing" textLength="125" x="119" y="618.3447">request vehicle model</text><polygon fill="#181818" points="347,650.8984,357,654.8984,347,658.8984,351,654.8984" style="stroke:#181818;stroke-width:1.0;"/><line style="stroke:#181818;stroke-width:1.0;" x1="84" x2="353" y1="654.8984" y2="654.8984"/><text fill="#000000" font-family="sans-serif" font-size="13" font-weight="bold" lengthAdjust="spacing" textLength="14" x="91" y="649.6357">17</text><text fill="#000000" font-family="sans-serif" font-size="13" lengthAdjust="spacing" textLength="122" x="109" y="649.6357">types requested data</text><polygon fill="#181818" points="95,682.1895,85,686.1895,95,690.1895,91,686.1895" style="stroke:#181818;stroke-width:1.0;"/><line style="stroke:#181818;stroke-width:1.0;stroke-dasharray:2.0,2.0;" x1="89" x2="363" y1="686.1895" y2="686.1895"/><text fill="#000000" font-family="sans-serif" font-size="13" font-weight="bold" lengthAdjust="spacing" textLength="14" x="101" y="680.9268">18</text><text fill="#000000" font-family="sans-serif" font-size="13" lengthAdjust="spacing" textLength="115" x="119" y="680.9268">request vehicle type</text><polygon fill="#181818" points="347,713.4805,357,717.4805,347,721.4805,351,717.4805" style="stroke:#181818;stroke-width:1.0;"/><line style="stroke:#181818;stroke-width:1.0;" x1="84" x2="353" y1="717.4805" y2="717.4805"/><text fill="#000000" font-family="sans-serif" font-size="13" font-weight="bold" lengthAdjust="spacing" textLength="14" x="91" y="712.2178">19</text><text fill="#000000" font-family="sans-serif" font-size="13" lengthAdjust="spacing" textLength="122" x="109" y="712.2178">types requested data</text><polygon fill="#181818" points="95,744.7715,85,748.7715,95,752.7715,91,748.7715" style="stroke:#181818;stroke-width:1.0;"/><line style="stroke:#181818;stroke-width:1.0;stroke-dasharray:2.0,2.0;" x1="89" x2="363" y1="748.7715" y2="748.7715"/><text fill="#000000" font-family="sans-serif" font-size="13" font-weight="bold" lengthAdjust="spacing" textLength="14" x="101" y="743.5088">20</text><text fill="#000000" font-family="sans-serif" font-size="13" lengthAdjust="spacing" textLength="160" x="119" y="743.5088">request vehicle Tare Weight</text><polygon fill="#181818" points="347,776.0625,357,780.0625,347,784.0625,351,780.0625" style="stroke:#181818;stroke-width:1.0;"/><line style="stroke:#181818;stroke-width:1.0;" x1="84" x2="353" y1="780.0625" y2="780.0625"/><text fill="#000000" font-family="sans-serif" font-size="13" font-weight="bold" lengthAdjust="spacing" textLength="14" x="91" y="774.7998">21</text><text fill="#000000" font-family="sans-serif" font-size="13" lengthAdjust="spacing" textLength="122" x="109" y="774.7998">types requested data</text><polygon fill="#181818" points="95,807.3535,85,811.3535,95,815.3535,91,811.3535" style="stroke:#181818;stroke-width:1.0;"/><line style="stroke:#181818;stroke-width:1.0;stroke-dasharray:2.0,2.0;" x1="89" x2="363" y1="811.3535" y2="811.3535"/><text fill="#000000" font-family="sans-serif" font-size="13" font-weight="bold" lengthAdjust="spacing" textLength="14" x="101" y="806.0908">22</text><text fill="#000000" font-family="sans-serif" font-size="13" lengthAdjust="spacing" textLength="170" x="119" y="806.0908">request vehicle Gross Weight</text><polygon fill="#181818" points="347,838.6445,357,842.6445,347,846.6445,351,842.6445" style="stroke:#181818;stroke-width:1.0;"/><line style="stroke:#181818;stroke-width:1.0;" x1="84" x2="353" y1="842.6445" y2="842.6445"/><text fill="#000000" font-family="sans-serif" font-size="13" font-weight="bold" lengthAdjust="spacing" textLength="14" x="91" y="837.3818">23</text><text fill="#000000" font-family="sans-serif" font-size="13" lengthAdjust="spacing" textLength="122" x="109" y="837.3818">types requested data</text><polygon fill="#181818" points="95,869.9355,85,873.9355,95,877.9355,91,873.9355" style="stroke:#181818;stroke-width:1.0;"/><line style="stroke:#181818;stroke-width:1.0;stroke-dasharray:2.0,2.0;" x1="89" x2="363" y1="873.9355" y2="873.9355"/><text fill="#000000" font-family="sans-serif" font-size="13" font-weight="bold" lengthAdjust="spacing" textLength="14" x="101" y="868.6729">24</text><text fill="#000000" font-family="sans-serif" font-size="13" lengthAdjust="spacing" textLength="131" x="119" y="868.6729">request vehicle millage</text><polygon fill="#181818" points="347,901.2266,357,905.2266,347,909.2266,351,905.2266" style="stroke:#181818;stroke-width:1.0;"/><line style="stroke:#181818;stroke-width:1.0;" x1="84" x2="353" y1="905.2266" y2="905.2266"/><text fill="#000000" font-family="sans-serif" font-size="13" font-weight="bold" lengthAdjust="spacing" textLength="14" x="91" y="899.9639">25</text><text fill="#000000" font-family="sans-serif" font-size="13" lengthAdjust="spacing" textLength="122" x="109" y="899.9639">types requested data</text><polygon fill="#181818" points="95,932.5176,85,936.5176,95,940.5176,91,936.5176" style="stroke:#181818;stroke-width:1.0;"/><line style="stroke:#181818;stroke-width:1.0;stroke-dasharray:2.0,2.0;" x1="89" x2="363" y1="936.5176" y2="936.5176"/><text fill="#000000" font-family="sans-serif" font-size="13" font-weight="bold" lengthAdjust="spacing" textLength="14" x="101" y="931.2549">26</text><text fill="#000000" font-family="sans-serif" font-size="13" lengthAdjust="spacing" textLength="162" x="119" y="931.2549">request vehicle register date</text><polygon fill="#181818" points="347,963.8086,357,967.8086,347,971.8086,351,967.8086" style="stroke:#181818;stroke-width:1.0;"/><line style="stroke:#181818;stroke-width:1.0;" x1="84" x2="353" y1="967.8086" y2="967.8086"/><text fill="#000000" font-family="sans-serif" font-size="13" font-weight="bold" lengthAdjust="spacing" textLength="14" x="91" y="962.5459">27</text><text fill="#000000" font-family="sans-serif" font-size="13" lengthAdjust="spacing" textLength="122" x="109" y="962.5459">types requested data</text><polygon fill="#181818" points="95,995.0996,85,999.0996,95,1003.0996,91,999.0996" style="stroke:#181818;stroke-width:1.0;"/><line style="stroke:#181818;stroke-width:1.0;stroke-dasharray:2.0,2.0;" x1="89" x2="363" y1="999.0996" y2="999.0996"/><text fill="#000000" font-family="sans-serif" font-size="13" font-weight="bold" lengthAdjust="spacing" textLength="14" x="101" y="993.8369">28</text><text fill="#000000" font-family="sans-serif" font-size="13" lengthAdjust="spacing" textLength="181" x="119" y="993.8369">request vehicle acquisition date</text><polygon fill="#181818" points="347,1026.3906,357,1030.3906,347,1034.3906,351,1030.3906" style="stroke:#181818;stroke-width:1.0;"/><line style="stroke:#181818;stroke-width:1.0;" x1="84" x2="353" y1="1030.3906" y2="1030.3906"/><text fill="#000000" font-family="sans-serif" font-size="13" font-weight="bold" lengthAdjust="spacing" textLength="14" x="91" y="1025.1279">29</text><text fill="#000000" font-family="sans-serif" font-size="13" lengthAdjust="spacing" textLength="122" x="109" y="1025.1279">types requested data</text><polygon fill="#181818" points="95,1057.6816,85,1061.6816,95,1065.6816,91,1061.6816" style="stroke:#181818;stroke-width:1.0;"/><line style="stroke:#181818;stroke-width:1.0;stroke-dasharray:2.0,2.0;" x1="89" x2="363" y1="1061.6816" y2="1061.6816"/><text fill="#000000" font-family="sans-serif" font-size="13" font-weight="bold" lengthAdjust="spacing" textLength="14" x="101" y="1056.4189">30</text><text fill="#000000" font-family="sans-serif" font-size="13" lengthAdjust="spacing" textLength="224" x="119" y="1056.4189">request vehicle maintenance frequency</text><polygon fill="#181818" points="347,1088.9727,357,1092.9727,347,1096.9727,351,1092.9727" style="stroke:#181818;stroke-width:1.0;"/><line style="stroke:#181818;stroke-width:1.0;" x1="84" x2="353" y1="1092.9727" y2="1092.9727"/><text fill="#000000" font-family="sans-serif" font-size="13" font-weight="bold" lengthAdjust="spacing" textLength="14" x="91" y="1087.71">31</text><text fill="#000000" font-family="sans-serif" font-size="13" lengthAdjust="spacing" textLength="122" x="109" y="1087.71">types requested data</text><polygon fill="#181818" points="95,1120.2637,85,1124.2637,95,1128.2637,91,1124.2637" style="stroke:#181818;stroke-width:1.0;"/><line style="stroke:#181818;stroke-width:1.0;stroke-dasharray:2.0,2.0;" x1="89" x2="363" y1="1124.2637" y2="1124.2637"/><text fill="#000000" font-family="sans-serif" font-size="13" font-weight="bold" lengthAdjust="spacing" textLength="14" x="101" y="1119.001">32</text><text fill="#000000" font-family="sans-serif" font-size="13" lengthAdjust="spacing" textLength="164" x="119" y="1119.001">request vehicle last checkup</text><polygon fill="#181818" points="347,1151.5547,357,1155.5547,347,1159.5547,351,1155.5547" style="stroke:#181818;stroke-width:1.0;"/><line style="stroke:#181818;stroke-width:1.0;" x1="84" x2="353" y1="1155.5547" y2="1155.5547"/><text fill="#000000" font-family="sans-serif" font-size="13" font-weight="bold" lengthAdjust="spacing" textLength="14" x="91" y="1150.292">33</text><text fill="#000000" font-family="sans-serif" font-size="13" lengthAdjust="spacing" textLength="122" x="109" y="1150.292">types requested data</text><polygon fill="#181818" points="95,1207.8457,85,1211.8457,95,1215.8457,91,1211.8457" style="stroke:#181818;stroke-width:1.0;"/><line style="stroke:#181818;stroke-width:1.0;stroke-dasharray:2.0,2.0;" x1="89" x2="363" y1="1211.8457" y2="1211.8457"/><text fill="#000000" font-family="sans-serif" font-size="13" font-weight="bold" lengthAdjust="spacing" textLength="14" x="101" y="1206.583">34</text><text fill="#000000" font-family="sans-serif" font-size="13" lengthAdjust="spacing" textLength="233" x="119" y="1206.583">show all data registered  for confirmation</text><polygon fill="#181818" points="347,1239.1367,357,1243.1367,347,1247.1367,351,1243.1367" style="stroke:#181818;stroke-width:1.0;"/><line style="stroke:#181818;stroke-width:1.0;" x1="84" x2="353" y1="1243.1367" y2="1243.1367"/><text fill="#000000" font-family="sans-serif" font-size="13" font-weight="bold" lengthAdjust="spacing" textLength="14" x="91" y="1237.874">35</text><text fill="#000000" font-family="sans-serif" font-size="13" lengthAdjust="spacing" textLength="25" x="109" y="1237.874">data</text><polygon fill="#181818" points="722,1305.0098,732,1309.0098,722,1313.0098,726,1309.0098" style="stroke:#181818;stroke-width:1.0;"/><line style="stroke:#181818;stroke-width:1.0;" x1="369" x2="728" y1="1309.0098" y2="1309.0098"/><text fill="#000000" font-family="sans-serif" font-size="13" font-weight="bold" lengthAdjust="spacing" textLength="14" x="376" y="1286.4561">36</text><text fill="#000000" font-family="sans-serif" font-size="13" lengthAdjust="spacing" textLength="328" x="394" y="1269.165">registerVehicle(plate ID,brand, model, type, Tare Weight,</text><text fill="#000000" font-family="sans-serif" font-size="13" lengthAdjust="spacing" textLength="317" x="398" y="1286.4561">Gross Weight, millage, Register date, acquisition date,</text><text fill="#000000" font-family="sans-serif" font-size="13" lengthAdjust="spacing" textLength="220" x="394" y="1303.7471">maintenance frequency, last checkup)</text><polygon fill="#181818" points="1100.5,1370.8828,1110.5,1374.8828,1100.5,1378.8828,1104.5,1374.8828" style="stroke:#181818;stroke-width:1.0;"/><line style="stroke:#181818;stroke-width:1.0;" x1="744" x2="1106.5" y1="1374.8828" y2="1374.8828"/><text fill="#000000" font-family="sans-serif" font-size="13" font-weight="bold" lengthAdjust="spacing" textLength="14" x="751" y="1352.3291">37</text><text fill="#000000" font-family="sans-serif" font-size="13" lengthAdjust="spacing" textLength="328" x="769" y="1335.0381">registerVehicle(plate ID,brand, model, type, Tare Weight,</text><text fill="#000000" font-family="sans-serif" font-size="13" lengthAdjust="spacing" textLength="317" x="773" y="1352.3291">Gross Weight, millage, Register date, acquisition date,</text><text fill="#000000" font-family="sans-serif" font-size="13" lengthAdjust="spacing" textLength="220" x="769" y="1369.6201">maintenance frequency, last checkup)</text><polygon fill="#181818" points="1480.5,1436.7559,1490.5,1440.7559,1480.5,1444.7559,1484.5,1440.7559" style="stroke:#181818;stroke-width:1.0;"/><line style="stroke:#181818;stroke-width:1.0;" x1="1122.5" x2="1486.5" y1="1440.7559" y2="1440.7559"/><text fill="#000000" font-family="sans-serif" font-size="13" font-weight="bold" lengthAdjust="spacing" textLength="14" x="1129.5" y="1418.2021">38</text><text fill="#000000" font-family="sans-serif" font-size="13" lengthAdjust="spacing" textLength="328" x="1147.5" y="1400.9111">registerVehicle(plate ID,brand, model, type, Tare Weight,</text><text fill="#000000" font-family="sans-serif" font-size="13" lengthAdjust="spacing" textLength="317" x="1151.5" y="1418.2021">Gross Weight, millage, Register date, acquisition date,</text><text fill="#000000" font-family="sans-serif" font-size="13" lengthAdjust="spacing" textLength="220" x="1147.5" y="1435.4932">maintenance frequency, last checkup)</text><rect fill="#E3E3E3" height="51.2422" rx="2.5" ry="2.5" style="stroke:#181818;stroke-width:0.5;" width="64" x="1492.5" y="1386.5137"/><text fill="#000000" font-family="sans-serif" font-size="14" lengthAdjust="spacing" textLength="44" x="1502.5" y="1408.6211">vehicle</text><text fill="#000000" font-family="sans-serif" font-size="14" lengthAdjust="spacing" textLength="50" x="1499.5" y="1427.2422">:Vehicle</text><line style="stroke:#181818;stroke-width:1.0;" x1="1122.5" x2="1169.5" y1="1467.0469" y2="1467.0469"/><line style="stroke:#181818;stroke-width:1.0;" x1="1169.5" x2="1169.5" y1="1467.0469" y2="1480.0469"/><line style="stroke:#181818;stroke-width:1.0;" x1="1128.5" x2="1169.5" y1="1480.0469" y2="1480.0469"/><polygon fill="#181818" points="1138.5,1476.0469,1128.5,1480.0469,1138.5,1484.0469,1134.5,1480.0469" style="stroke:#181818;stroke-width:1.0;"/><text fill="#000000" font-family="sans-serif" font-size="13" font-weight="bold" lengthAdjust="spacing" textLength="14" x="1134.5" y="1461.7842">39</text><text fill="#000000" font-family="sans-serif" font-size="13" lengthAdjust="spacing" textLength="119" x="1152.5" y="1461.7842">addVehicle (Vehicle)</text><line style="stroke:#181818;stroke-width:1.0;" x1="1127.5" x2="1174.5" y1="1511.3379" y2="1511.3379"/><line style="stroke:#181818;stroke-width:1.0;" x1="1174.5" x2="1174.5" y1="1511.3379" y2="1524.3379"/><line style="stroke:#181818;stroke-width:1.0;" x1="1133.5" x2="1174.5" y1="1524.3379" y2="1524.3379"/><polygon fill="#181818" points="1143.5,1520.3379,1133.5,1524.3379,1143.5,1528.3379,1139.5,1524.3379" style="stroke:#181818;stroke-width:1.0;"/><text fill="#000000" font-family="sans-serif" font-size="13" font-weight="bold" lengthAdjust="spacing" textLength="14" x="1139.5" y="1506.0752">40</text><text fill="#000000" font-family="sans-serif" font-size="13" lengthAdjust="spacing" textLength="137" x="1157.5" y="1506.0752">validateVehicle(Vehicle)</text><line style="stroke:#181818;stroke-width:1.0;stroke-dasharray:2.0,2.0;" x1="1132.5" x2="1174.5" y1="1565.6289" y2="1565.6289"/><line style="stroke:#181818;stroke-width:1.0;stroke-dasharray:2.0,2.0;" x1="1174.5" x2="1174.5" y1="1565.6289" y2="1578.6289"/><line style="stroke:#181818;stroke-width:1.0;stroke-dasharray:2.0,2.0;" x1="1127.5" x2="1174.5" y1="1578.6289" y2="1578.6289"/><polygon fill="#181818" points="1137.5,1574.6289,1127.5,1578.6289,1137.5,1582.6289,1133.5,1578.6289" style="stroke:#181818;stroke-width:1.0;"/><text fill="#000000" font-family="sans-serif" font-size="13" font-weight="bold" lengthAdjust="spacing" textLength="14" x="1139.5" y="1560.3662">41</text><text fill="#000000" font-family="sans-serif" font-size="13" lengthAdjust="spacing" textLength="4" x="1157.5" y="1560.3662">&#160;</text><line style="stroke:#181818;stroke-width:1.0;stroke-dasharray:2.0,2.0;" x1="1127.5" x2="1169.5" y1="1609.9199" y2="1609.9199"/><line style="stroke:#181818;stroke-width:1.0;stroke-dasharray:2.0,2.0;" x1="1169.5" x2="1169.5" y1="1609.9199" y2="1622.9199"/><line style="stroke:#181818;stroke-width:1.0;stroke-dasharray:2.0,2.0;" x1="1122.5" x2="1169.5" y1="1622.9199" y2="1622.9199"/><polygon fill="#181818" points="1132.5,1618.9199,1122.5,1622.9199,1132.5,1626.9199,1128.5,1622.9199" style="stroke:#181818;stroke-width:1.0;"/><text fill="#000000" font-family="sans-serif" font-size="13" font-weight="bold" lengthAdjust="spacing" textLength="14" x="1134.5" y="1604.6572">42</text><text fill="#000000" font-family="sans-serif" font-size="13" lengthAdjust="spacing" textLength="4" x="1152.5" y="1604.6572">&#160;</text><polygon fill="#181818" points="755,1645.2109,745,1649.2109,755,1653.2109,751,1649.2109" style="stroke:#181818;stroke-width:1.0;"/><line style="stroke:#181818;stroke-width:1.0;stroke-dasharray:2.0,2.0;" x1="749" x2="1116.5" y1="1649.2109" y2="1649.2109"/><text fill="#000000" font-family="sans-serif" font-size="13" font-weight="bold" lengthAdjust="spacing" textLength="14" x="761" y="1643.9482">43</text><text fill="#000000" font-family="sans-serif" font-size="13" lengthAdjust="spacing" textLength="39" x="779" y="1643.9482">vehicle</text><polygon fill="#181818" points="380,1676.502,370,1680.502,380,1684.502,376,1680.502" style="stroke:#181818;stroke-width:1.0;"/><line style="stroke:#181818;stroke-width:1.0;stroke-dasharray:2.0,2.0;" x1="374" x2="738" y1="1680.502" y2="1680.502"/><text fill="#000000" font-family="sans-serif" font-size="13" font-weight="bold" lengthAdjust="spacing" textLength="14" x="386" y="1675.2393">44</text><text fill="#000000" font-family="sans-serif" font-size="13" lengthAdjust="spacing" textLength="39" x="404" y="1675.2393">vehicle</text><polygon fill="#181818" points="90,1707.793,80,1711.793,90,1715.793,86,1711.793" style="stroke:#181818;stroke-width:1.0;"/><line style="stroke:#181818;stroke-width:1.0;stroke-dasharray:2.0,2.0;" x1="84" x2="363" y1="1711.793" y2="1711.793"/><text fill="#000000" font-family="sans-serif" font-size="13" font-weight="bold" lengthAdjust="spacing" textLength="14" x="96" y="1706.5303">45</text><text fill="#000000" font-family="sans-serif" font-size="13" lengthAdjust="spacing" textLength="158" x="114" y="1706.5303">displays operation success</text><!--SRC=[rLVBRjim4BppAuXSx1Zo3_WG84YQme235ddraWj3hMt24gcGb5C3-VWkzPP52NQBGeXEaiYTdLqkbqEp4p9XciKqLbBnhLOnKAjJ8AOQIHZViGqysaC4L0EtJ6wYvWIpPQ7w4793romoG0XBhP9f_0QQaCbMX43NIjatzPimRfMc5o-m5HpHxY80I- -PH7nzGPcXBtVt156ju29XqjABnGDiXB6W2vldPJRlUJayxKP9grKK5R0tJm-hZa6YZ40w0amsf_fnU1GkGeoXRQ8R5g-o2_1pTVtKjjZdP6hanQjyEVwNsNPcUe7GQs6U9-lRykPvzOEuj8eziv2bZz3YmGywly9KqGNEtXbg5QvVdYRAg8IFqcrjKo5XWic4DXw4cIFQzUqzmcbuJy5OGqDc6PrgM8C6oI6W8HYkHMA5aW6bGgwLZbb4NsLxn0BVIi5nfFKxJ3NBtxWozf8q2Kou1iSiMyjZPbVPxzaCkUNJICyKdB01MsHnslPG1P-vQ0sv9pD764-XvAXBQN1py6FO5hIloZgptUFpCY-2S0jG5r_7F8Jpt9M1kG9kvQUs7Wefgtjl31bWJRfRv0FC_QWbrGvKY_SAQto8SPU8btxNoRokedtjQYYC4rpbCPKxjG-tWPcN9pdQcMwxBx0PgmzQzjSMoEVdfz-asCobPvf4pidoji-zQms-7cCF2PWI3SAiD_WRoqaqtZIJ8HdFVwn2Y4Rqx-16TF_4DD1V83PREoABxrePCpwDM4GHQfGH6LG7T-WEj_5uCFwU2knaU4YFJILcGbgGxiIbwsnGyiE8V2A67tmBV9Sc_uL6ivCFT7yMHRakAsi6CL61QzHKSYrGZhd56oBO95UHwSr7TIBgjWIVbkT8a7No86-eGHPkq6ml0Oh3vZuFokqMq8TcrGUTuaDBRn44hRMu93q2ZxJFubvjyHL2ErVVUBJDLNcXcCs-IiIzaNZMa8LXgOkcnSib8UU8n1CrejVxdaN2HLdcisBW0psJGxzMFSt-FBdwBzxEytIA_YRax_0Rehl66jBRdhimzabiaCBWtZWOgXB8Bw_Kf9o3oUzbH-sryUdkwdy0]--></g></svg>