<?xml version="1.0" encoding="us-ascii" standalone="no"?><svg xmlns="http://www.w3.org/2000/svg" xmlns:xlink="http://www.w3.org/1999/xlink" contentStyleType="text/css" height="558px" preserveAspectRatio="none" style="width:1207px;height:558px;background:#FFFFFF;" version="1.1" viewBox="0 0 1207 558" width="1207px" zoomAndPan="magnify"><defs/><g><rect fill="#FFFFFF" height="368.7266" style="stroke:#181818;stroke-width:1.0;" width="10" x="82.5" y="91.2969"/><rect fill="#FFFFFF" height="70.4297" style="stroke:#181818;stroke-width:1.0;" width="10" x="399.5" y="112.4297"/><rect fill="#FFFFFF" height="29.1328" style="stroke:#181818;stroke-width:1.0;" width="10" x="399.5" y="211.9922"/><rect fill="#FFFFFF" height="189.7656" style="stroke:#181818;stroke-width:1.0;" width="10" x="399.5" y="270.2578"/><rect fill="#FFFFFF" height="131.5" style="stroke:#181818;stroke-width:1.0;" width="10" x="702.5" y="299.3906"/><rect fill="#FFFFFF" height="73.2344" style="stroke:#181818;stroke-width:1.0;" width="10" x="1120.5" y="328.5234"/><line style="stroke:#181818;stroke-width:0.5;stroke-dasharray:5.0,5.0;" x1="87" x2="87" y1="81.2969" y2="478.0234"/><line style="stroke:#181818;stroke-width:0.5;stroke-dasharray:5.0,5.0;" x1="404" x2="404" y1="81.2969" y2="478.0234"/><line style="stroke:#181818;stroke-width:0.5;stroke-dasharray:5.0,5.0;" x1="707.5" x2="707.5" y1="151.0781" y2="478.0234"/><line style="stroke:#181818;stroke-width:0.5;stroke-dasharray:5.0,5.0;" x1="871.5" x2="871.5" y1="81.2969" y2="478.0234"/><line style="stroke:#181818;stroke-width:0.5;stroke-dasharray:5.0,5.0;" x1="988.5" x2="988.5" y1="81.2969" y2="478.0234"/><line style="stroke:#181818;stroke-width:0.5;stroke-dasharray:5.0,5.0;" x1="1125.5" x2="1125.5" y1="81.2969" y2="478.0234"/><text fill="#000000" font-family="sans-serif" font-size="14" lengthAdjust="spacing" textLength="159" x="5" y="77.9951">Vehicle Fleet Manager</text><ellipse cx="87.5" cy="13.5" fill="#E3E3E3" rx="8" ry="8" style="stroke:#181818;stroke-width:0.5;"/><path d="M87.5,21.5 L87.5,48.5 M74.5,29.5 L100.5,29.5 M87.5,48.5 L74.5,63.5 M87.5,48.5 L100.5,63.5 " fill="none" style="stroke:#181818;stroke-width:0.5;"/><text fill="#000000" font-family="sans-serif" font-size="14" lengthAdjust="spacing" textLength="159" x="5" y="490.0186">Vehicle Fleet Manager</text><ellipse cx="87.5" cy="501.8203" fill="#E3E3E3" rx="8" ry="8" style="stroke:#181818;stroke-width:0.5;"/><path d="M87.5,509.8203 L87.5,536.8203 M74.5,517.8203 L100.5,517.8203 M87.5,536.8203 L74.5,551.8203 M87.5,536.8203 L100.5,551.8203 " fill="none" style="stroke:#181818;stroke-width:0.5;"/><rect fill="#E3E3E3" height="30.2969" rx="2.5" ry="2.5" style="stroke:#181818;stroke-width:0.5;" width="145" x="332" y="50"/><text fill="#000000" font-family="sans-serif" font-size="14" lengthAdjust="spacing" textLength="131" x="339" y="69.9951">:RegisterVehicleUI</text><rect fill="#E3E3E3" height="30.2969" rx="2.5" ry="2.5" style="stroke:#181818;stroke-width:0.5;" width="145" x="332" y="477.0234"/><text fill="#000000" font-family="sans-serif" font-size="14" lengthAdjust="spacing" textLength="131" x="339" y="497.0186">:RegisterVehicleUI</text><rect fill="#E3E3E3" height="30.2969" rx="2.5" ry="2.5" style="stroke:#181818;stroke-width:0.5;" width="202" x="606.5" y="477.0234"/><text fill="#000000" font-family="sans-serif" font-size="14" lengthAdjust="spacing" textLength="188" x="613.5" y="497.0186">:RegisterVehicleController</text><rect fill="#E3E3E3" height="30.2969" rx="2.5" ry="2.5" style="stroke:#181818;stroke-width:0.5;" width="107" x="818.5" y="50"/><text fill="#000000" font-family="sans-serif" font-size="14" lengthAdjust="spacing" textLength="93" x="825.5" y="69.9951">:Repositories</text><rect fill="#E3E3E3" height="30.2969" rx="2.5" ry="2.5" style="stroke:#181818;stroke-width:0.5;" width="107" x="818.5" y="477.0234"/><text fill="#000000" font-family="sans-serif" font-size="14" lengthAdjust="spacing" textLength="93" x="825.5" y="497.0186">:Repositories</text><rect fill="#E3E3E3" height="46.5938" rx="2.5" ry="2.5" style="stroke:#181818;stroke-width:0.5;" width="107" x="935.5" y="33.7031"/><text fill="#000000" font-family="sans-serif" font-size="14" lengthAdjust="spacing" textLength="84" x="947" y="53.6982">repositories</text><text fill="#000000" font-family="sans-serif" font-size="14" lengthAdjust="spacing" textLength="93" x="942.5" y="69.9951">:Repositories</text><rect fill="#E3E3E3" height="46.5938" rx="2.5" ry="2.5" style="stroke:#181818;stroke-width:0.5;" width="107" x="935.5" y="477.0234"/><text fill="#000000" font-family="sans-serif" font-size="14" lengthAdjust="spacing" textLength="84" x="947" y="497.0186">repositories</text><text fill="#000000" font-family="sans-serif" font-size="14" lengthAdjust="spacing" textLength="93" x="942.5" y="513.3154">:Repositories</text><rect fill="#E3E3E3" height="46.5938" rx="2.5" ry="2.5" style="stroke:#181818;stroke-width:0.5;" width="146" x="1052.5" y="33.7031"/><text fill="#000000" font-family="sans-serif" font-size="14" lengthAdjust="spacing" textLength="132" x="1059.5" y="53.6982">vehicleRepository:</text><text fill="#000000" font-family="sans-serif" font-size="14" lengthAdjust="spacing" textLength="129" x="1061" y="69.9951">VehicleRepository</text><rect fill="#E3E3E3" height="46.5938" rx="2.5" ry="2.5" style="stroke:#181818;stroke-width:0.5;" width="146" x="1052.5" y="477.0234"/><text fill="#000000" font-family="sans-serif" font-size="14" lengthAdjust="spacing" textLength="132" x="1059.5" y="497.0186">vehicleRepository:</text><text fill="#000000" font-family="sans-serif" font-size="14" lengthAdjust="spacing" textLength="129" x="1061" y="513.3154">VehicleRepository</text><rect fill="#FFFFFF" height="368.7266" style="stroke:#181818;stroke-width:1.0;" width="10" x="82.5" y="91.2969"/><rect fill="#FFFFFF" height="70.4297" style="stroke:#181818;stroke-width:1.0;" width="10" x="399.5" y="112.4297"/><rect fill="#FFFFFF" height="29.1328" style="stroke:#181818;stroke-width:1.0;" width="10" x="399.5" y="211.9922"/><rect fill="#FFFFFF" height="189.7656" style="stroke:#181818;stroke-width:1.0;" width="10" x="399.5" y="270.2578"/><rect fill="#FFFFFF" height="131.5" style="stroke:#181818;stroke-width:1.0;" width="10" x="702.5" y="299.3906"/><rect fill="#FFFFFF" height="73.2344" style="stroke:#181818;stroke-width:1.0;" width="10" x="1120.5" y="328.5234"/><polygon fill="#181818" points="387.5,108.4297,397.5,112.4297,387.5,116.4297,391.5,112.4297" style="stroke:#181818;stroke-width:1.0;"/><line style="stroke:#181818;stroke-width:1.0;" x1="92.5" x2="393.5" y1="112.4297" y2="112.4297"/><text fill="#000000" font-family="sans-serif" font-size="13" font-weight="bold" lengthAdjust="spacing" textLength="9" x="99.5" y="107.3638">1</text><text fill="#000000" font-family="sans-serif" font-size="13" lengthAdjust="spacing" textLength="195" x="112.5" y="107.3638">asks to register a new vehicle</text><polygon fill="#181818" points="594.5,137.5625,604.5,141.5625,594.5,145.5625,598.5,141.5625" style="stroke:#181818;stroke-width:1.0;"/><line style="stroke:#181818;stroke-width:1.0;" x1="409.5" x2="600.5" y1="141.5625" y2="141.5625"/><text fill="#000000" font-family="sans-serif" font-size="13" font-weight="bold" lengthAdjust="spacing" textLength="9" x="416.5" y="136.4966">2</text><text fill="#000000" font-family="sans-serif" font-size="13" lengthAdjust="spacing" textLength="41" x="429.5" y="136.4966">create</text><rect fill="#E3E3E3" height="30.2969" rx="2.5" ry="2.5" style="stroke:#181818;stroke-width:0.5;" width="202" x="606.5" y="120.4297"/><text fill="#000000" font-family="sans-serif" font-size="14" lengthAdjust="spacing" textLength="188" x="613.5" y="140.4248">:RegisterVehicleController</text><polygon fill="#181818" points="103.5,178.8594,93.5,182.8594,103.5,186.8594,99.5,182.8594" style="stroke:#181818;stroke-width:1.0;"/><line style="stroke:#181818;stroke-width:1.0;stroke-dasharray:2.0,2.0;" x1="97.5" x2="403.5" y1="182.8594" y2="182.8594"/><text fill="#000000" font-family="sans-serif" font-size="13" font-weight="bold" lengthAdjust="spacing" textLength="9" x="109.5" y="177.7935">3</text><text fill="#000000" font-family="sans-serif" font-size="13" lengthAdjust="spacing" textLength="82" x="122.5" y="177.7935">request data</text><polygon fill="#181818" points="387.5,207.9922,397.5,211.9922,387.5,215.9922,391.5,211.9922" style="stroke:#181818;stroke-width:1.0;"/><line style="stroke:#181818;stroke-width:1.0;" x1="92.5" x2="393.5" y1="211.9922" y2="211.9922"/><text fill="#000000" font-family="sans-serif" font-size="13" font-weight="bold" lengthAdjust="spacing" textLength="9" x="99.5" y="206.9263">4</text><text fill="#000000" font-family="sans-serif" font-size="13" lengthAdjust="spacing" textLength="261" x="112.5" y="206.9263">registerVehicle(plateID, brand, model...)</text><polygon fill="#181818" points="103.5,237.125,93.5,241.125,103.5,245.125,99.5,241.125" style="stroke:#181818;stroke-width:1.0;"/><line style="stroke:#181818;stroke-width:1.0;stroke-dasharray:2.0,2.0;" x1="97.5" x2="403.5" y1="241.125" y2="241.125"/><text fill="#000000" font-family="sans-serif" font-size="13" font-weight="bold" lengthAdjust="spacing" textLength="9" x="109.5" y="236.0591">5</text><text fill="#000000" font-family="sans-serif" font-size="13" lengthAdjust="spacing" textLength="270" x="122.5" y="236.0591">show all data registered  for confirmation</text><polygon fill="#181818" points="387.5,266.2578,397.5,270.2578,387.5,274.2578,391.5,270.2578" style="stroke:#181818;stroke-width:1.0;"/><line style="stroke:#181818;stroke-width:1.0;" x1="92.5" x2="393.5" y1="270.2578" y2="270.2578"/><text fill="#000000" font-family="sans-serif" font-size="13" font-weight="bold" lengthAdjust="spacing" textLength="9" x="99.5" y="265.1919">6</text><text fill="#000000" font-family="sans-serif" font-size="13" lengthAdjust="spacing" textLength="29" x="112.5" y="265.1919">data</text><polygon fill="#181818" points="690.5,295.3906,700.5,299.3906,690.5,303.3906,694.5,299.3906" style="stroke:#181818;stroke-width:1.0;"/><line style="stroke:#181818;stroke-width:1.0;" x1="409.5" x2="696.5" y1="299.3906" y2="299.3906"/><text fill="#000000" font-family="sans-serif" font-size="13" font-weight="bold" lengthAdjust="spacing" textLength="9" x="416.5" y="294.3247">7</text><text fill="#000000" font-family="sans-serif" font-size="13" lengthAdjust="spacing" textLength="261" x="429.5" y="294.3247">registerVehicle(plateID, brand, model...)</text><polygon fill="#181818" points="1108.5,324.5234,1118.5,328.5234,1108.5,332.5234,1112.5,328.5234" style="stroke:#181818;stroke-width:1.0;"/><line style="stroke:#181818;stroke-width:1.0;" x1="712.5" x2="1114.5" y1="328.5234" y2="328.5234"/><text fill="#000000" font-family="sans-serif" font-size="13" font-weight="bold" lengthAdjust="spacing" textLength="9" x="719.5" y="323.4575">8</text><text fill="#000000" font-family="sans-serif" font-size="13" lengthAdjust="spacing" textLength="261" x="732.5" y="323.4575">registerVehicle(plateID, brand, model...)</text><rect fill="none" height="39.1016" style="stroke:#000000;stroke-width:1.5;" width="152" x="1049.5" y="336.5234"/><path d="M1049.5,336.5234 L1115.5,336.5234 L1115.5,343.5234 L1105.5,353.5234 L1049.5,353.5234 L1049.5,336.5234 " fill="#EEEEEE" style="stroke:#000000;stroke-width:2.0;"/><text fill="#000000" font-family="sans-serif" font-size="13" font-weight="bold" lengthAdjust="spacing" textLength="21" x="1062.5" y="350.5903">ref</text><text fill="#000000" font-family="sans-serif" font-size="12" lengthAdjust="spacing" textLength="96" x="1077.5" y="368.6621">Register Vehicle</text><polygon fill="#181818" points="723.5,397.7578,713.5,401.7578,723.5,405.7578,719.5,401.7578" style="stroke:#181818;stroke-width:1.0;"/><line style="stroke:#181818;stroke-width:1.0;stroke-dasharray:2.0,2.0;" x1="717.5" x2="1124.5" y1="401.7578" y2="401.7578"/><text fill="#000000" font-family="sans-serif" font-size="13" font-weight="bold" lengthAdjust="spacing" textLength="9" x="729.5" y="396.6919">9</text><text fill="#000000" font-family="sans-serif" font-size="13" lengthAdjust="spacing" textLength="47" x="742.5" y="396.6919">vehicle</text><polygon fill="#181818" points="420.5,426.8906,410.5,430.8906,420.5,434.8906,416.5,430.8906" style="stroke:#181818;stroke-width:1.0;"/><line style="stroke:#181818;stroke-width:1.0;stroke-dasharray:2.0,2.0;" x1="414.5" x2="706.5" y1="430.8906" y2="430.8906"/><text fill="#000000" font-family="sans-serif" font-size="13" font-weight="bold" lengthAdjust="spacing" textLength="18" x="426.5" y="425.8247">10</text><text fill="#000000" font-family="sans-serif" font-size="13" lengthAdjust="spacing" textLength="47" x="448.5" y="425.8247">vehicle</text><polygon fill="#181818" points="98.5,456.0234,88.5,460.0234,98.5,464.0234,94.5,460.0234" style="stroke:#181818;stroke-width:1.0;"/><line style="stroke:#181818;stroke-width:1.0;stroke-dasharray:2.0,2.0;" x1="92.5" x2="403.5" y1="460.0234" y2="460.0234"/><text fill="#000000" font-family="sans-serif" font-size="13" font-weight="bold" lengthAdjust="spacing" textLength="18" x="104.5" y="454.9575">11</text><text fill="#000000" font-family="sans-serif" font-size="13" lengthAdjust="spacing" textLength="175" x="126.5" y="454.9575">displays operation success</text><!--SRC=[fPFFJkCm4CRlVefHBoo8xGFqW8H0I9L0GYtqn6NgJ1khZfsrdNRxzZjnG_uviDAkRqc- -Ndcco_-e4o93WiehB4oTxOW2AuYuTil9Se3xcaTpfh0aGnezhely3bczgJC7dQeFGc1LR2cAhRaXBZALKQmipPixM-1CbW7imtbIZBjIHC5U473V3S3zB1vUX5C3Kgg4as0sM95U-K3kQRcVHbrxyllPG_M16UrRh0FRwldfA2qNd4xYdpKj2_EQrLFo3CCIroluiEaWDVd-xTXnV7IJ4TUV9ZD-5siJPIYzaeTCL3qH41p-05-tl7yiE2wWuTWUIcNsG71qEcJrTMq97QjUriVnZ2iTkVcXe7I4SiwIQ9bSTt0Wg_yLP4Fa670WIgZ_csJeFu8RhYs7wNcokNZBMmTckoMOvcHdi_drmF2jrTqxGywzhaz0MeTMsxlfGmud0waDJlb2WoAjpuzYnZttiwUg8RM_jEOBJD6Lups5h6CJmFsluvE1B6lSxG3U-IefJeOdSy_4ffE1W8oMJ9KVH9it63ZOXBiqPB-qll5jBYzZlK5Ahe-dNvUlFBiwjc3BSd5o82lf2JlnKHiUe_rd_m7]--></g></svg>