<?xml version="1.0" encoding="us-ascii" standalone="no"?><svg xmlns="http://www.w3.org/2000/svg" xmlns:xlink="http://www.w3.org/1999/xlink" contentStyleType="text/css" height="388px" preserveAspectRatio="none" style="width:628px;height:388px;background:#FFFFFF;" version="1.1" viewBox="0 0 628 388" width="628px" zoomAndPan="magnify"><defs/><g><rect fill="#FFFFFF" height="235.0625" style="stroke:#181818;stroke-width:1.0;" width="10" x="116" y="83.7266"/><rect fill="#FFFFFF" height="29.1328" style="stroke:#181818;stroke-width:1.0;" width="10" x="280.5" y="136.9922"/><rect fill="#FFFFFF" height="29.1328" style="stroke:#181818;stroke-width:1.0;" width="10" x="397.5" y="195.2578"/><rect fill="#FFFFFF" height="29.1328" style="stroke:#181818;stroke-width:1.0;" width="10" x="534" y="253.5234"/><rect fill="none" height="191.9297" style="stroke:#000000;stroke-width:1.5;" width="612" x="10" y="98.7266"/><line style="stroke:#181818;stroke-width:0.5;stroke-dasharray:5.0,5.0;" x1="121" x2="121" y1="52.5938" y2="336.7891"/><line style="stroke:#181818;stroke-width:0.5;stroke-dasharray:5.0,5.0;" x1="285" x2="285" y1="52.5938" y2="336.7891"/><line style="stroke:#181818;stroke-width:0.5;stroke-dasharray:5.0,5.0;" x1="402" x2="402" y1="52.5938" y2="336.7891"/><line style="stroke:#181818;stroke-width:0.5;stroke-dasharray:5.0,5.0;" x1="539" x2="539" y1="52.5938" y2="336.7891"/><rect fill="#E3E3E3" height="30.2969" rx="2.5" ry="2.5" style="stroke:#181818;stroke-width:0.5;" width="202" x="20" y="21.2969"/><text fill="#000000" font-family="sans-serif" font-size="14" lengthAdjust="spacing" textLength="188" x="27" y="41.292">:RegisterVehicleController</text><rect fill="#E3E3E3" height="30.2969" rx="2.5" ry="2.5" style="stroke:#181818;stroke-width:0.5;" width="202" x="20" y="335.7891"/><text fill="#000000" font-family="sans-serif" font-size="14" lengthAdjust="spacing" textLength="188" x="27" y="355.7842">:RegisterVehicleController</text><rect fill="#E3E3E3" height="30.2969" rx="2.5" ry="2.5" style="stroke:#181818;stroke-width:0.5;" width="107" x="232" y="21.2969"/><text fill="#000000" font-family="sans-serif" font-size="14" lengthAdjust="spacing" textLength="93" x="239" y="41.292">:Repositories</text><rect fill="#E3E3E3" height="30.2969" rx="2.5" ry="2.5" style="stroke:#181818;stroke-width:0.5;" width="107" x="232" y="335.7891"/><text fill="#000000" font-family="sans-serif" font-size="14" lengthAdjust="spacing" textLength="93" x="239" y="355.7842">:Repositories</text><rect fill="#E3E3E3" height="46.5938" rx="2.5" ry="2.5" style="stroke:#181818;stroke-width:0.5;" width="107" x="349" y="5"/><text fill="#000000" font-family="sans-serif" font-size="14" lengthAdjust="spacing" textLength="84" x="360.5" y="24.9951">repositories</text><text fill="#000000" font-family="sans-serif" font-size="14" lengthAdjust="spacing" textLength="93" x="356" y="41.292">:Repositories</text><rect fill="#E3E3E3" height="46.5938" rx="2.5" ry="2.5" style="stroke:#181818;stroke-width:0.5;" width="107" x="349" y="335.7891"/><text fill="#000000" font-family="sans-serif" font-size="14" lengthAdjust="spacing" textLength="84" x="360.5" y="355.7842">repositories</text><text fill="#000000" font-family="sans-serif" font-size="14" lengthAdjust="spacing" textLength="93" x="356" y="372.0811">:Repositories</text><rect fill="#E3E3E3" height="46.5938" rx="2.5" ry="2.5" style="stroke:#181818;stroke-width:0.5;" width="146" x="466" y="5"/><text fill="#000000" font-family="sans-serif" font-size="14" lengthAdjust="spacing" textLength="132" x="473" y="24.9951">vehicleRepository:</text><text fill="#000000" font-family="sans-serif" font-size="14" lengthAdjust="spacing" textLength="129" x="474.5" y="41.292">VehicleRepository</text><rect fill="#E3E3E3" height="46.5938" rx="2.5" ry="2.5" style="stroke:#181818;stroke-width:0.5;" width="146" x="466" y="335.7891"/><text fill="#000000" font-family="sans-serif" font-size="14" lengthAdjust="spacing" textLength="132" x="473" y="355.7842">vehicleRepository:</text><text fill="#000000" font-family="sans-serif" font-size="14" lengthAdjust="spacing" textLength="129" x="474.5" y="372.0811">VehicleRepository</text><rect fill="#FFFFFF" height="235.0625" style="stroke:#181818;stroke-width:1.0;" width="10" x="116" y="83.7266"/><rect fill="#FFFFFF" height="29.1328" style="stroke:#181818;stroke-width:1.0;" width="10" x="280.5" y="136.9922"/><rect fill="#FFFFFF" height="29.1328" style="stroke:#181818;stroke-width:1.0;" width="10" x="397.5" y="195.2578"/><rect fill="#FFFFFF" height="29.1328" style="stroke:#181818;stroke-width:1.0;" width="10" x="534" y="253.5234"/><polygon fill="#181818" points="104,79.7266,114,83.7266,104,87.7266,108,83.7266" style="stroke:#181818;stroke-width:1.0;"/><line style="stroke:#181818;stroke-width:1.0;" x1="0" x2="110" y1="83.7266" y2="83.7266"/><text fill="#000000" font-family="sans-serif" font-size="13" font-weight="bold" lengthAdjust="spacing" textLength="9" x="7" y="78.6606">3</text><text fill="#000000" font-family="sans-serif" font-size="13" lengthAdjust="spacing" textLength="79" x="20" y="78.6606">getVehicle()</text><path d="M10,98.7266 L170,98.7266 L170,105.8594 L160,115.8594 L10,115.8594 L10,98.7266 " fill="#EEEEEE" style="stroke:#000000;stroke-width:1.5;"/><rect fill="none" height="191.9297" style="stroke:#000000;stroke-width:1.5;" width="612" x="10" y="98.7266"/><text fill="#000000" font-family="sans-serif" font-size="13" font-weight="bold" lengthAdjust="spacing" textLength="115" x="25" y="111.7935">Get Vehicle List</text><polygon fill="#181818" points="268.5,132.9922,278.5,136.9922,268.5,140.9922,272.5,136.9922" style="stroke:#181818;stroke-width:1.0;"/><line style="stroke:#181818;stroke-width:1.0;" x1="126" x2="274.5" y1="136.9922" y2="136.9922"/><text fill="#000000" font-family="sans-serif" font-size="13" font-weight="bold" lengthAdjust="spacing" textLength="23" x="133" y="131.9263">3.1</text><text fill="#000000" font-family="sans-serif" font-size="13" lengthAdjust="spacing" textLength="86" x="160" y="131.9263">getInstance()</text><polygon fill="#181818" points="137,162.125,127,166.125,137,170.125,133,166.125" style="stroke:#181818;stroke-width:1.0;"/><line style="stroke:#181818;stroke-width:1.0;stroke-dasharray:2.0,2.0;" x1="131" x2="284.5" y1="166.125" y2="166.125"/><text fill="#000000" font-family="sans-serif" font-size="13" font-weight="bold" lengthAdjust="spacing" textLength="23" x="143" y="161.0591">3.2</text><text fill="#000000" font-family="sans-serif" font-size="13" lengthAdjust="spacing" textLength="77" x="170" y="161.0591">repositories</text><polygon fill="#181818" points="385.5,191.2578,395.5,195.2578,385.5,199.2578,389.5,195.2578" style="stroke:#181818;stroke-width:1.0;"/><line style="stroke:#181818;stroke-width:1.0;" x1="126" x2="391.5" y1="195.2578" y2="195.2578"/><text fill="#000000" font-family="sans-serif" font-size="13" font-weight="bold" lengthAdjust="spacing" textLength="23" x="133" y="190.1919">3.3</text><text fill="#000000" font-family="sans-serif" font-size="13" lengthAdjust="spacing" textLength="149" x="160" y="190.1919">getVehicleRepository()</text><polygon fill="#181818" points="137,220.3906,127,224.3906,137,228.3906,133,224.3906" style="stroke:#181818;stroke-width:1.0;"/><line style="stroke:#181818;stroke-width:1.0;stroke-dasharray:2.0,2.0;" x1="131" x2="401.5" y1="224.3906" y2="224.3906"/><text fill="#000000" font-family="sans-serif" font-size="13" font-weight="bold" lengthAdjust="spacing" textLength="23" x="143" y="219.3247">3.4</text><text fill="#000000" font-family="sans-serif" font-size="13" lengthAdjust="spacing" textLength="117" x="170" y="219.3247">vehicleRepository</text><polygon fill="#181818" points="522,249.5234,532,253.5234,522,257.5234,526,253.5234" style="stroke:#181818;stroke-width:1.0;"/><line style="stroke:#181818;stroke-width:1.0;" x1="126" x2="528" y1="253.5234" y2="253.5234"/><text fill="#000000" font-family="sans-serif" font-size="13" font-weight="bold" lengthAdjust="spacing" textLength="23" x="133" y="248.4575">3.5</text><text fill="#000000" font-family="sans-serif" font-size="13" lengthAdjust="spacing" textLength="102" x="160" y="248.4575">getVehicleList()</text><polygon fill="#181818" points="137,278.6563,127,282.6563,137,286.6563,133,282.6563" style="stroke:#181818;stroke-width:1.0;"/><line style="stroke:#181818;stroke-width:1.0;stroke-dasharray:2.0,2.0;" x1="131" x2="538" y1="282.6563" y2="282.6563"/><text fill="#000000" font-family="sans-serif" font-size="13" font-weight="bold" lengthAdjust="spacing" textLength="23" x="143" y="277.5903">3.6</text><text fill="#000000" font-family="sans-serif" font-size="13" lengthAdjust="spacing" textLength="70" x="170" y="277.5903">vehicleList</text><polygon fill="#181818" points="11,314.7891,1,318.7891,11,322.7891,7,318.7891" style="stroke:#181818;stroke-width:1.0;"/><line style="stroke:#181818;stroke-width:1.0;stroke-dasharray:2.0,2.0;" x1="5" x2="120" y1="318.7891" y2="318.7891"/><text fill="#000000" font-family="sans-serif" font-size="13" font-weight="bold" lengthAdjust="spacing" textLength="9" x="17" y="313.7231">4</text><text fill="#000000" font-family="sans-serif" font-size="13" lengthAdjust="spacing" textLength="70" x="30" y="313.7231">vehicleList</text><!--SRC=[ZL8xQyCm4DxrAuuiRGSNIZkPKYWPIY53IKAcB8fyaKLioKXoslpxod8IIx45qIAuk-zn3tCGig6Qrb0hgLYfLOrWTOl4N3CDPGVASMLF5O96PgdaLLXWIbgeNo4vx6bba13QMYNRUeUQa8TI50XxfUnE_H7Y45OmqL1fOPOlaGjZKM-m5Ap2kP9Mgwf2FGDgOBvUBaQ0HXbXbHPeVCqrS5g9pfOJZY4wG6pbcE1dyRcE4SVUpC2SR-NcDkQnQseESsgHky2G2lk7Lq8W-_2jG0uSxPdfyIcgUduXb5bnT6Hzs-0Urwfju0ijd46mSDCYn2SlppCxXOb1z8BVqhYDiKunn5tbfYOOLNPlYZqxzvL3EEC8Mk3zCfT6keL4engGgHRy3aUUFT5WShJMbDCnsyNQzBuZizs6KZPJvt9hF26J3NTq7CHINQJ4V3tAml_12Rxvm7kMzHet8W6nFq_o3m00]--></g></svg>