<?xml version="1.0" encoding="us-ascii" standalone="no"?><svg xmlns="http://www.w3.org/2000/svg" xmlns:xlink="http://www.w3.org/1999/xlink" contentStyleType="text/css" height="1478px" preserveAspectRatio="none" style="width:1191px;height:1478px;background:#FFFFFF;" version="1.1" viewBox="0 0 1191 1478" width="1191px" zoomAndPan="magnify"><defs/><g><rect fill="#FFFFFF" height="1283.8926" style="stroke:#181818;stroke-width:1.0;" width="10" x="74" y="93.6211"/><rect fill="#FFFFFF" height="242.0371" style="stroke:#181818;stroke-width:1.0;" width="10" x="359" y="116.9121"/><rect fill="#FFFFFF" height="31.291" style="stroke:#181818;stroke-width:1.0;" width="10" x="359" y="390.2402"/><rect fill="#FFFFFF" height="31.291" style="stroke:#181818;stroke-width:1.0;" width="10" x="359" y="452.8223"/><rect fill="#FFFFFF" height="31.291" style="stroke:#181818;stroke-width:1.0;" width="10" x="359" y="515.4043"/><rect fill="#FFFFFF" height="31.291" style="stroke:#181818;stroke-width:1.0;" width="10" x="359" y="577.9863"/><rect fill="#FFFFFF" height="31.291" style="stroke:#181818;stroke-width:1.0;" width="10" x="359" y="640.5684"/><rect fill="#FFFFFF" height="31.291" style="stroke:#181818;stroke-width:1.0;" width="10" x="359" y="703.1504"/><rect fill="#FFFFFF" height="31.291" style="stroke:#181818;stroke-width:1.0;" width="10" x="359" y="765.7324"/><rect fill="#FFFFFF" height="31.291" style="stroke:#181818;stroke-width:1.0;" width="10" x="359" y="828.3145"/><rect fill="#FFFFFF" height="31.291" style="stroke:#181818;stroke-width:1.0;" width="10" x="359" y="890.8965"/><rect fill="#FFFFFF" height="31.291" style="stroke:#181818;stroke-width:1.0;" width="10" x="359" y="953.4785"/><rect fill="#FFFFFF" height="56.291" style="stroke:#181818;stroke-width:1.0;" width="10" x="359" y="1016.0605"/><rect fill="#FFFFFF" height="273.8711" style="stroke:#181818;stroke-width:1.0;" width="10" x="359" y="1103.6426"/><rect fill="#FFFFFF" height="79.543" style="stroke:#181818;stroke-width:1.0;" width="10" x="734" y="191.8242"/><rect fill="#FFFFFF" height="176.707" style="stroke:#181818;stroke-width:1.0;" width="10" x="734" y="1169.5156"/><rect fill="#FFFFFF" height="79.543" style="stroke:#181818;stroke-width:1.0;" width="10" x="1112.5" y="1235.3887"/><line style="stroke:#181818;stroke-width:0.5;stroke-dasharray:5.0,5.0;" x1="79" x2="79" y1="83.6211" y2="1395.5137"/><line style="stroke:#181818;stroke-width:0.5;stroke-dasharray:5.0,5.0;" x1="363.5" x2="363.5" y1="83.6211" y2="1395.5137"/><line style="stroke:#181818;stroke-width:0.5;stroke-dasharray:5.0,5.0;" x1="738.5" x2="738.5" y1="156.7227" y2="1395.5137"/><line style="stroke:#181818;stroke-width:0.5;stroke-dasharray:5.0,5.0;" x1="886.5" x2="886.5" y1="83.6211" y2="1395.5137"/><line style="stroke:#181818;stroke-width:0.5;stroke-dasharray:5.0,5.0;" x1="993.5" x2="993.5" y1="83.6211" y2="1395.5137"/><line style="stroke:#181818;stroke-width:0.5;stroke-dasharray:5.0,5.0;" x1="1117.5" x2="1117.5" y1="83.6211" y2="1395.5137"/><text fill="#000000" font-family="sans-serif" font-size="14" lengthAdjust="spacing" textLength="142" x="5" y="80.1074">Vehicle Fleet Manager</text><ellipse cx="79" cy="13.5" fill="#E3E3E3" rx="8" ry="8" style="stroke:#181818;stroke-width:0.5;"/><path d="M79,21.5 L79,48.5 M66,29.5 L92,29.5 M79,48.5 L66,63.5 M79,48.5 L92,63.5 " fill="none" style="stroke:#181818;stroke-width:0.5;"/><text fill="#000000" font-family="sans-serif" font-size="14" lengthAdjust="spacing" textLength="142" x="5" y="1409.6211">Vehicle Fleet Manager</text><ellipse cx="79" cy="1421.6348" fill="#E3E3E3" rx="8" ry="8" style="stroke:#181818;stroke-width:0.5;"/><path d="M79,1429.6348 L79,1456.6348 M66,1437.6348 L92,1437.6348 M79,1456.6348 L66,1471.6348 M79,1456.6348 L92,1471.6348 " fill="none" style="stroke:#181818;stroke-width:0.5;"/><rect fill="#E3E3E3" height="32.6211" rx="2.5" ry="2.5" style="stroke:#181818;stroke-width:0.5;" width="129" x="299.5" y="50"/><text fill="#000000" font-family="sans-serif" font-size="14" lengthAdjust="spacing" textLength="115" x="306.5" y="72.1074">:RegisterVehicleUI</text><rect fill="#E3E3E3" height="32.6211" rx="2.5" ry="2.5" style="stroke:#181818;stroke-width:0.5;" width="129" x="299.5" y="1394.5137"/><text fill="#000000" font-family="sans-serif" font-size="14" lengthAdjust="spacing" textLength="115" x="306.5" y="1416.6211">:RegisterVehicleUI</text><rect fill="#E3E3E3" height="32.6211" rx="2.5" ry="2.5" style="stroke:#181818;stroke-width:0.5;" width="179" x="649.5" y="1394.5137"/><text fill="#000000" font-family="sans-serif" font-size="14" lengthAdjust="spacing" textLength="165" x="656.5" y="1416.6211">:RegisterVehicleController</text><rect fill="#E3E3E3" height="32.6211" rx="2.5" ry="2.5" style="stroke:#181818;stroke-width:0.5;" width="97" x="838.5" y="50"/><text fill="#000000" font-family="sans-serif" font-size="14" lengthAdjust="spacing" textLength="83" x="845.5" y="72.1074">:Repositories</text><rect fill="#E3E3E3" height="32.6211" rx="2.5" ry="2.5" style="stroke:#181818;stroke-width:0.5;" width="97" x="838.5" y="1394.5137"/><text fill="#000000" font-family="sans-serif" font-size="14" lengthAdjust="spacing" textLength="83" x="845.5" y="1416.6211">:Repositories</text><rect fill="#E3E3E3" height="51.2422" rx="2.5" ry="2.5" style="stroke:#181818;stroke-width:0.5;" width="97" x="945.5" y="31.3789"/><text fill="#000000" font-family="sans-serif" font-size="14" lengthAdjust="spacing" textLength="74" x="957" y="53.4863">repositories</text><text fill="#000000" font-family="sans-serif" font-size="14" lengthAdjust="spacing" textLength="83" x="952.5" y="72.1074">:Repositories</text><rect fill="#E3E3E3" height="51.2422" rx="2.5" ry="2.5" style="stroke:#181818;stroke-width:0.5;" width="97" x="945.5" y="1394.5137"/><text fill="#000000" font-family="sans-serif" font-size="14" lengthAdjust="spacing" textLength="74" x="957" y="1416.6211">repositories</text><text fill="#000000" font-family="sans-serif" font-size="14" lengthAdjust="spacing" textLength="83" x="952.5" y="1435.2422">:Repositories</text><rect fill="#E3E3E3" height="51.2422" rx="2.5" ry="2.5" style="stroke:#181818;stroke-width:0.5;" width="130" x="1052.5" y="31.3789"/><text fill="#000000" font-family="sans-serif" font-size="14" lengthAdjust="spacing" textLength="116" x="1059.5" y="53.4863">vehicleRepository:</text><text fill="#000000" font-family="sans-serif" font-size="14" lengthAdjust="spacing" textLength="114" x="1060.5" y="72.1074">VehicleRepository</text><rect fill="#E3E3E3" height="51.2422" rx="2.5" ry="2.5" style="stroke:#181818;stroke-width:0.5;" width="130" x="1052.5" y="1394.5137"/><text fill="#000000" font-family="sans-serif" font-size="14" lengthAdjust="spacing" textLength="116" x="1059.5" y="1416.6211">vehicleRepository:</text><text fill="#000000" font-family="sans-serif" font-size="14" lengthAdjust="spacing" textLength="114" x="1060.5" y="1435.2422">VehicleRepository</text><rect fill="#FFFFFF" height="1283.8926" style="stroke:#181818;stroke-width:1.0;" width="10" x="74" y="93.6211"/><rect fill="#FFFFFF" height="242.0371" style="stroke:#181818;stroke-width:1.0;" width="10" x="359" y="116.9121"/><rect fill="#FFFFFF" height="31.291" style="stroke:#181818;stroke-width:1.0;" width="10" x="359" y="390.2402"/><rect fill="#FFFFFF" height="31.291" style="stroke:#181818;stroke-width:1.0;" width="10" x="359" y="452.8223"/><rect fill="#FFFFFF" height="31.291" style="stroke:#181818;stroke-width:1.0;" width="10" x="359" y="515.4043"/><rect fill="#FFFFFF" height="31.291" style="stroke:#181818;stroke-width:1.0;" width="10" x="359" y="577.9863"/><rect fill="#FFFFFF" height="31.291" style="stroke:#181818;stroke-width:1.0;" width="10" x="359" y="640.5684"/><rect fill="#FFFFFF" height="31.291" style="stroke:#181818;stroke-width:1.0;" width="10" x="359" y="703.1504"/><rect fill="#FFFFFF" height="31.291" style="stroke:#181818;stroke-width:1.0;" width="10" x="359" y="765.7324"/><rect fill="#FFFFFF" height="31.291" style="stroke:#181818;stroke-width:1.0;" width="10" x="359" y="828.3145"/><rect fill="#FFFFFF" height="31.291" style="stroke:#181818;stroke-width:1.0;" width="10" x="359" y="890.8965"/><rect fill="#FFFFFF" height="31.291" style="stroke:#181818;stroke-width:1.0;" width="10" x="359" y="953.4785"/><rect fill="#FFFFFF" height="56.291" style="stroke:#181818;stroke-width:1.0;" width="10" x="359" y="1016.0605"/><rect fill="#FFFFFF" height="273.8711" style="stroke:#181818;stroke-width:1.0;" width="10" x="359" y="1103.6426"/><rect fill="#FFFFFF" height="79.543" style="stroke:#181818;stroke-width:1.0;" width="10" x="734" y="191.8242"/><rect fill="#FFFFFF" height="176.707" style="stroke:#181818;stroke-width:1.0;" width="10" x="734" y="1169.5156"/><rect fill="#FFFFFF" height="79.543" style="stroke:#181818;stroke-width:1.0;" width="10" x="1112.5" y="1235.3887"/><polygon fill="#181818" points="347,112.9121,357,116.9121,347,120.9121,351,116.9121" style="stroke:#181818;stroke-width:1.0;"/><line style="stroke:#181818;stroke-width:1.0;" x1="84" x2="353" y1="116.9121" y2="116.9121"/><text fill="#000000" font-family="sans-serif" font-size="13" font-weight="bold" lengthAdjust="spacing" textLength="7" x="91" y="111.6494">1</text><text fill="#000000" font-family="sans-serif" font-size="13" lengthAdjust="spacing" textLength="171" x="102" y="111.6494">asks to register a new vehicle</text><polygon fill="#181818" points="637.5,144.2031,647.5,148.2031,637.5,152.2031,641.5,148.2031" style="stroke:#181818;stroke-width:1.0;"/><line style="stroke:#181818;stroke-width:1.0;" x1="369" x2="643.5" y1="148.2031" y2="148.2031"/><text fill="#000000" font-family="sans-serif" font-size="13" font-weight="bold" lengthAdjust="spacing" textLength="7" x="376" y="142.9404">2</text><text fill="#000000" font-family="sans-serif" font-size="13" lengthAdjust="spacing" textLength="36" x="387" y="142.9404">create</text><rect fill="#E3E3E3" height="32.6211" rx="2.5" ry="2.5" style="stroke:#181818;stroke-width:0.5;" width="179" x="649.5" y="124.9121"/><text fill="#000000" font-family="sans-serif" font-size="14" lengthAdjust="spacing" textLength="165" x="656.5" y="147.0195">:RegisterVehicleController</text><polygon fill="#181818" points="722,187.8242,732,191.8242,722,195.8242,726,191.8242" style="stroke:#181818;stroke-width:1.0;"/><line style="stroke:#181818;stroke-width:1.0;" x1="369" x2="728" y1="191.8242" y2="191.8242"/><text fill="#000000" font-family="sans-serif" font-size="13" font-weight="bold" lengthAdjust="spacing" textLength="7" x="376" y="186.5615">3</text><text fill="#000000" font-family="sans-serif" font-size="13" lengthAdjust="spacing" textLength="69" x="387" y="186.5615">getVehicle()</text><rect fill="none" height="43.252" style="stroke:#000000;stroke-width:1.5;" width="185" x="646.5" y="199.8242"/><path d="M646.5,199.8242 L708.5,199.8242 L708.5,208.8242 L698.5,218.8242 L646.5,218.8242 L646.5,199.8242 " fill="#EEEEEE" style="stroke:#000000;stroke-width:2.0;"/><text fill="#000000" font-family="sans-serif" font-size="13" font-weight="bold" lengthAdjust="spacing" textLength="17" x="659.5" y="215.8525">ref</text><text fill="#000000" font-family="sans-serif" font-size="12" lengthAdjust="spacing" textLength="85" x="696.5" y="235.7734">Get Vehicle List</text><polygon fill="#181818" points="380,267.3672,370,271.3672,380,275.3672,376,271.3672" style="stroke:#181818;stroke-width:1.0;"/><line style="stroke:#181818;stroke-width:1.0;stroke-dasharray:2.0,2.0;" x1="374" x2="738" y1="271.3672" y2="271.3672"/><text fill="#000000" font-family="sans-serif" font-size="13" font-weight="bold" lengthAdjust="spacing" textLength="7" x="386" y="266.1045">4</text><text fill="#000000" font-family="sans-serif" font-size="13" lengthAdjust="spacing" textLength="60" x="397" y="266.1045">vehicleList</text><polygon fill="#181818" points="95,298.6582,85,302.6582,95,306.6582,91,302.6582" style="stroke:#181818;stroke-width:1.0;"/><line style="stroke:#181818;stroke-width:1.0;stroke-dasharray:2.0,2.0;" x1="89" x2="358" y1="302.6582" y2="302.6582"/><text fill="#000000" font-family="sans-serif" font-size="13" font-weight="bold" lengthAdjust="spacing" textLength="7" x="101" y="297.3955">5</text><text fill="#000000" font-family="sans-serif" font-size="13" lengthAdjust="spacing" textLength="102" x="112" y="297.3955">show Vehicle List</text><polygon fill="#181818" points="95,354.9492,85,358.9492,95,362.9492,91,358.9492" style="stroke:#181818;stroke-width:1.0;"/><line style="stroke:#181818;stroke-width:1.0;stroke-dasharray:2.0,2.0;" x1="89" x2="363" y1="358.9492" y2="358.9492"/><text fill="#000000" font-family="sans-serif" font-size="13" font-weight="bold" lengthAdjust="spacing" textLength="7" x="101" y="353.6865">6</text><text fill="#000000" font-family="sans-serif" font-size="13" lengthAdjust="spacing" textLength="134" x="112" y="353.6865">request vehicle plate ID</text><polygon fill="#181818" points="347,386.2402,357,390.2402,347,394.2402,351,390.2402" style="stroke:#181818;stroke-width:1.0;"/><line style="stroke:#181818;stroke-width:1.0;" x1="84" x2="353" y1="390.2402" y2="390.2402"/><text fill="#000000" font-family="sans-serif" font-size="13" font-weight="bold" lengthAdjust="spacing" textLength="7" x="91" y="384.9775">7</text><text fill="#000000" font-family="sans-serif" font-size="13" lengthAdjust="spacing" textLength="122" x="102" y="384.9775">types requested data</text><polygon fill="#181818" points="95,417.5313,85,421.5313,95,425.5313,91,421.5313" style="stroke:#181818;stroke-width:1.0;"/><line style="stroke:#181818;stroke-width:1.0;stroke-dasharray:2.0,2.0;" x1="89" x2="363" y1="421.5313" y2="421.5313"/><text fill="#000000" font-family="sans-serif" font-size="13" font-weight="bold" lengthAdjust="spacing" textLength="7" x="101" y="416.2686">8</text><text fill="#000000" font-family="sans-serif" font-size="13" lengthAdjust="spacing" textLength="122" x="112" y="416.2686">request vehicle brand</text><polygon fill="#181818" points="347,448.8223,357,452.8223,347,456.8223,351,452.8223" style="stroke:#181818;stroke-width:1.0;"/><line style="stroke:#181818;stroke-width:1.0;" x1="84" x2="353" y1="452.8223" y2="452.8223"/><text fill="#000000" font-family="sans-serif" font-size="13" font-weight="bold" lengthAdjust="spacing" textLength="7" x="91" y="447.5596">9</text><text fill="#000000" font-family="sans-serif" font-size="13" lengthAdjust="spacing" textLength="122" x="102" y="447.5596">types requested data</text><polygon fill="#181818" points="95,480.1133,85,484.1133,95,488.1133,91,484.1133" style="stroke:#181818;stroke-width:1.0;"/><line style="stroke:#181818;stroke-width:1.0;stroke-dasharray:2.0,2.0;" x1="89" x2="363" y1="484.1133" y2="484.1133"/><text fill="#000000" font-family="sans-serif" font-size="13" font-weight="bold" lengthAdjust="spacing" textLength="14" x="101" y="478.8506">10</text><text fill="#000000" font-family="sans-serif" font-size="13" lengthAdjust="spacing" textLength="125" x="119" y="478.8506">request vehicle model</text><polygon fill="#181818" points="347,511.4043,357,515.4043,347,519.4043,351,515.4043" style="stroke:#181818;stroke-width:1.0;"/><line style="stroke:#181818;stroke-width:1.0;" x1="84" x2="353" y1="515.4043" y2="515.4043"/><text fill="#000000" font-family="sans-serif" font-size="13" font-weight="bold" lengthAdjust="spacing" textLength="14" x="91" y="510.1416">11</text><text fill="#000000" font-family="sans-serif" font-size="13" lengthAdjust="spacing" textLength="122" x="109" y="510.1416">types requested data</text><polygon fill="#181818" points="95,542.6953,85,546.6953,95,550.6953,91,546.6953" style="stroke:#181818;stroke-width:1.0;"/><line style="stroke:#181818;stroke-width:1.0;stroke-dasharray:2.0,2.0;" x1="89" x2="363" y1="546.6953" y2="546.6953"/><text fill="#000000" font-family="sans-serif" font-size="13" font-weight="bold" lengthAdjust="spacing" textLength="14" x="101" y="541.4326">12</text><text fill="#000000" font-family="sans-serif" font-size="13" lengthAdjust="spacing" textLength="115" x="119" y="541.4326">request vehicle type</text><polygon fill="#181818" points="347,573.9863,357,577.9863,347,581.9863,351,577.9863" style="stroke:#181818;stroke-width:1.0;"/><line style="stroke:#181818;stroke-width:1.0;" x1="84" x2="353" y1="577.9863" y2="577.9863"/><text fill="#000000" font-family="sans-serif" font-size="13" font-weight="bold" lengthAdjust="spacing" textLength="14" x="91" y="572.7236">13</text><text fill="#000000" font-family="sans-serif" font-size="13" lengthAdjust="spacing" textLength="122" x="109" y="572.7236">types requested data</text><polygon fill="#181818" points="95,605.2773,85,609.2773,95,613.2773,91,609.2773" style="stroke:#181818;stroke-width:1.0;"/><line style="stroke:#181818;stroke-width:1.0;stroke-dasharray:2.0,2.0;" x1="89" x2="363" y1="609.2773" y2="609.2773"/><text fill="#000000" font-family="sans-serif" font-size="13" font-weight="bold" lengthAdjust="spacing" textLength="14" x="101" y="604.0146">14</text><text fill="#000000" font-family="sans-serif" font-size="13" lengthAdjust="spacing" textLength="160" x="119" y="604.0146">request vehicle Tare Weight</text><polygon fill="#181818" points="347,636.5684,357,640.5684,347,644.5684,351,640.5684" style="stroke:#181818;stroke-width:1.0;"/><line style="stroke:#181818;stroke-width:1.0;" x1="84" x2="353" y1="640.5684" y2="640.5684"/><text fill="#000000" font-family="sans-serif" font-size="13" font-weight="bold" lengthAdjust="spacing" textLength="14" x="91" y="635.3057">15</text><text fill="#000000" font-family="sans-serif" font-size="13" lengthAdjust="spacing" textLength="122" x="109" y="635.3057">types requested data</text><polygon fill="#181818" points="95,667.8594,85,671.8594,95,675.8594,91,671.8594" style="stroke:#181818;stroke-width:1.0;"/><line style="stroke:#181818;stroke-width:1.0;stroke-dasharray:2.0,2.0;" x1="89" x2="363" y1="671.8594" y2="671.8594"/><text fill="#000000" font-family="sans-serif" font-size="13" font-weight="bold" lengthAdjust="spacing" textLength="14" x="101" y="666.5967">16</text><text fill="#000000" font-family="sans-serif" font-size="13" lengthAdjust="spacing" textLength="170" x="119" y="666.5967">request vehicle Gross Weight</text><polygon fill="#181818" points="347,699.1504,357,703.1504,347,707.1504,351,703.1504" style="stroke:#181818;stroke-width:1.0;"/><line style="stroke:#181818;stroke-width:1.0;" x1="84" x2="353" y1="703.1504" y2="703.1504"/><text fill="#000000" font-family="sans-serif" font-size="13" font-weight="bold" lengthAdjust="spacing" textLength="14" x="91" y="697.8877">17</text><text fill="#000000" font-family="sans-serif" font-size="13" lengthAdjust="spacing" textLength="122" x="109" y="697.8877">types requested data</text><polygon fill="#181818" points="95,730.4414,85,734.4414,95,738.4414,91,734.4414" style="stroke:#181818;stroke-width:1.0;"/><line style="stroke:#181818;stroke-width:1.0;stroke-dasharray:2.0,2.0;" x1="89" x2="363" y1="734.4414" y2="734.4414"/><text fill="#000000" font-family="sans-serif" font-size="13" font-weight="bold" lengthAdjust="spacing" textLength="14" x="101" y="729.1787">18</text><text fill="#000000" font-family="sans-serif" font-size="13" lengthAdjust="spacing" textLength="131" x="119" y="729.1787">request vehicle millage</text><polygon fill="#181818" points="347,761.7324,357,765.7324,347,769.7324,351,765.7324" style="stroke:#181818;stroke-width:1.0;"/><line style="stroke:#181818;stroke-width:1.0;" x1="84" x2="353" y1="765.7324" y2="765.7324"/><text fill="#000000" font-family="sans-serif" font-size="13" font-weight="bold" lengthAdjust="spacing" textLength="14" x="91" y="760.4697">19</text><text fill="#000000" font-family="sans-serif" font-size="13" lengthAdjust="spacing" textLength="122" x="109" y="760.4697">types requested data</text><polygon fill="#181818" points="95,793.0234,85,797.0234,95,801.0234,91,797.0234" style="stroke:#181818;stroke-width:1.0;"/><line style="stroke:#181818;stroke-width:1.0;stroke-dasharray:2.0,2.0;" x1="89" x2="363" y1="797.0234" y2="797.0234"/><text fill="#000000" font-family="sans-serif" font-size="13" font-weight="bold" lengthAdjust="spacing" textLength="14" x="101" y="791.7607">20</text><text fill="#000000" font-family="sans-serif" font-size="13" lengthAdjust="spacing" textLength="162" x="119" y="791.7607">request vehicle register date</text><polygon fill="#181818" points="347,824.3145,357,828.3145,347,832.3145,351,828.3145" style="stroke:#181818;stroke-width:1.0;"/><line style="stroke:#181818;stroke-width:1.0;" x1="84" x2="353" y1="828.3145" y2="828.3145"/><text fill="#000000" font-family="sans-serif" font-size="13" font-weight="bold" lengthAdjust="spacing" textLength="14" x="91" y="823.0518">21</text><text fill="#000000" font-family="sans-serif" font-size="13" lengthAdjust="spacing" textLength="122" x="109" y="823.0518">types requested data</text><polygon fill="#181818" points="95,855.6055,85,859.6055,95,863.6055,91,859.6055" style="stroke:#181818;stroke-width:1.0;"/><line style="stroke:#181818;stroke-width:1.0;stroke-dasharray:2.0,2.0;" x1="89" x2="363" y1="859.6055" y2="859.6055"/><text fill="#000000" font-family="sans-serif" font-size="13" font-weight="bold" lengthAdjust="spacing" textLength="14" x="101" y="854.3428">22</text><text fill="#000000" font-family="sans-serif" font-size="13" lengthAdjust="spacing" textLength="181" x="119" y="854.3428">request vehicle acquisition date</text><polygon fill="#181818" points="347,886.8965,357,890.8965,347,894.8965,351,890.8965" style="stroke:#181818;stroke-width:1.0;"/><line style="stroke:#181818;stroke-width:1.0;" x1="84" x2="353" y1="890.8965" y2="890.8965"/><text fill="#000000" font-family="sans-serif" font-size="13" font-weight="bold" lengthAdjust="spacing" textLength="14" x="91" y="885.6338">23</text><text fill="#000000" font-family="sans-serif" font-size="13" lengthAdjust="spacing" textLength="122" x="109" y="885.6338">types requested data</text><polygon fill="#181818" points="95,918.1875,85,922.1875,95,926.1875,91,922.1875" style="stroke:#181818;stroke-width:1.0;"/><line style="stroke:#181818;stroke-width:1.0;stroke-dasharray:2.0,2.0;" x1="89" x2="363" y1="922.1875" y2="922.1875"/><text fill="#000000" font-family="sans-serif" font-size="13" font-weight="bold" lengthAdjust="spacing" textLength="14" x="101" y="916.9248">24</text><text fill="#000000" font-family="sans-serif" font-size="13" lengthAdjust="spacing" textLength="224" x="119" y="916.9248">request vehicle maintenance frequency</text><polygon fill="#181818" points="347,949.4785,357,953.4785,347,957.4785,351,953.4785" style="stroke:#181818;stroke-width:1.0;"/><line style="stroke:#181818;stroke-width:1.0;" x1="84" x2="353" y1="953.4785" y2="953.4785"/><text fill="#000000" font-family="sans-serif" font-size="13" font-weight="bold" lengthAdjust="spacing" textLength="14" x="91" y="948.2158">25</text><text fill="#000000" font-family="sans-serif" font-size="13" lengthAdjust="spacing" textLength="122" x="109" y="948.2158">types requested data</text><polygon fill="#181818" points="95,980.7695,85,984.7695,95,988.7695,91,984.7695" style="stroke:#181818;stroke-width:1.0;"/><line style="stroke:#181818;stroke-width:1.0;stroke-dasharray:2.0,2.0;" x1="89" x2="363" y1="984.7695" y2="984.7695"/><text fill="#000000" font-family="sans-serif" font-size="13" font-weight="bold" lengthAdjust="spacing" textLength="14" x="101" y="979.5068">26</text><text fill="#000000" font-family="sans-serif" font-size="13" lengthAdjust="spacing" textLength="164" x="119" y="979.5068">request vehicle last checkup</text><polygon fill="#181818" points="347,1012.0605,357,1016.0605,347,1020.0605,351,1016.0605" style="stroke:#181818;stroke-width:1.0;"/><line style="stroke:#181818;stroke-width:1.0;" x1="84" x2="353" y1="1016.0605" y2="1016.0605"/><text fill="#000000" font-family="sans-serif" font-size="13" font-weight="bold" lengthAdjust="spacing" textLength="14" x="91" y="1010.7979">27</text><text fill="#000000" font-family="sans-serif" font-size="13" lengthAdjust="spacing" textLength="122" x="109" y="1010.7979">types requested data</text><polygon fill="#181818" points="95,1068.3516,85,1072.3516,95,1076.3516,91,1072.3516" style="stroke:#181818;stroke-width:1.0;"/><line style="stroke:#181818;stroke-width:1.0;stroke-dasharray:2.0,2.0;" x1="89" x2="363" y1="1072.3516" y2="1072.3516"/><text fill="#000000" font-family="sans-serif" font-size="13" font-weight="bold" lengthAdjust="spacing" textLength="14" x="101" y="1067.0889">28</text><text fill="#000000" font-family="sans-serif" font-size="13" lengthAdjust="spacing" textLength="233" x="119" y="1067.0889">show all data registered  for confirmation</text><polygon fill="#181818" points="347,1099.6426,357,1103.6426,347,1107.6426,351,1103.6426" style="stroke:#181818;stroke-width:1.0;"/><line style="stroke:#181818;stroke-width:1.0;" x1="84" x2="353" y1="1103.6426" y2="1103.6426"/><text fill="#000000" font-family="sans-serif" font-size="13" font-weight="bold" lengthAdjust="spacing" textLength="14" x="91" y="1098.3799">29</text><text fill="#000000" font-family="sans-serif" font-size="13" lengthAdjust="spacing" textLength="25" x="109" y="1098.3799">data</text><polygon fill="#181818" points="722,1165.5156,732,1169.5156,722,1173.5156,726,1169.5156" style="stroke:#181818;stroke-width:1.0;"/><line style="stroke:#181818;stroke-width:1.0;" x1="369" x2="728" y1="1169.5156" y2="1169.5156"/><text fill="#000000" font-family="sans-serif" font-size="13" font-weight="bold" lengthAdjust="spacing" textLength="14" x="376" y="1146.9619">30</text><text fill="#000000" font-family="sans-serif" font-size="13" lengthAdjust="spacing" textLength="328" x="394" y="1129.6709">registerVehicle(plate ID,brand, model, type, Tare Weight,</text><text fill="#000000" font-family="sans-serif" font-size="13" lengthAdjust="spacing" textLength="317" x="398" y="1146.9619">Gross Weight, millage, Register date, acquisition date,</text><text fill="#000000" font-family="sans-serif" font-size="13" lengthAdjust="spacing" textLength="220" x="394" y="1164.2529">maintenance frequency, last checkup)</text><polygon fill="#181818" points="1100.5,1231.3887,1110.5,1235.3887,1100.5,1239.3887,1104.5,1235.3887" style="stroke:#181818;stroke-width:1.0;"/><line style="stroke:#181818;stroke-width:1.0;" x1="744" x2="1106.5" y1="1235.3887" y2="1235.3887"/><text fill="#000000" font-family="sans-serif" font-size="13" font-weight="bold" lengthAdjust="spacing" textLength="14" x="751" y="1212.835">31</text><text fill="#000000" font-family="sans-serif" font-size="13" lengthAdjust="spacing" textLength="328" x="769" y="1195.5439">registerVehicle(plate ID,brand, model, type, Tare Weight,</text><text fill="#000000" font-family="sans-serif" font-size="13" lengthAdjust="spacing" textLength="317" x="773" y="1212.835">Gross Weight, millage, Register date, acquisition date,</text><text fill="#000000" font-family="sans-serif" font-size="13" lengthAdjust="spacing" textLength="220" x="769" y="1230.126">maintenance frequency, last checkup)</text><rect fill="none" height="43.252" style="stroke:#000000;stroke-width:1.5;" width="136" x="1049.5" y="1243.3887"/><path d="M1049.5,1243.3887 L1111.5,1243.3887 L1111.5,1252.3887 L1101.5,1262.3887 L1049.5,1262.3887 L1049.5,1243.3887 " fill="#EEEEEE" style="stroke:#000000;stroke-width:2.0;"/><text fill="#000000" font-family="sans-serif" font-size="13" font-weight="bold" lengthAdjust="spacing" textLength="17" x="1062.5" y="1259.417">ref</text><text fill="#000000" font-family="sans-serif" font-size="12" lengthAdjust="spacing" textLength="90" x="1072.5" y="1279.3379">Register Vehicle</text><polygon fill="#181818" points="755,1310.9316,745,1314.9316,755,1318.9316,751,1314.9316" style="stroke:#181818;stroke-width:1.0;"/><line style="stroke:#181818;stroke-width:1.0;stroke-dasharray:2.0,2.0;" x1="749" x2="1116.5" y1="1314.9316" y2="1314.9316"/><text fill="#000000" font-family="sans-serif" font-size="13" font-weight="bold" lengthAdjust="spacing" textLength="14" x="761" y="1309.6689">32</text><text fill="#000000" font-family="sans-serif" font-size="13" lengthAdjust="spacing" textLength="39" x="779" y="1309.6689">vehicle</text><polygon fill="#181818" points="380,1342.2227,370,1346.2227,380,1350.2227,376,1346.2227" style="stroke:#181818;stroke-width:1.0;"/><line style="stroke:#181818;stroke-width:1.0;stroke-dasharray:2.0,2.0;" x1="374" x2="738" y1="1346.2227" y2="1346.2227"/><text fill="#000000" font-family="sans-serif" font-size="13" font-weight="bold" lengthAdjust="spacing" textLength="14" x="386" y="1340.96">33</text><text fill="#000000" font-family="sans-serif" font-size="13" lengthAdjust="spacing" textLength="39" x="404" y="1340.96">vehicle</text><polygon fill="#181818" points="90,1373.5137,80,1377.5137,90,1381.5137,86,1377.5137" style="stroke:#181818;stroke-width:1.0;"/><line style="stroke:#181818;stroke-width:1.0;stroke-dasharray:2.0,2.0;" x1="84" x2="363" y1="1377.5137" y2="1377.5137"/><text fill="#000000" font-family="sans-serif" font-size="13" font-weight="bold" lengthAdjust="spacing" textLength="14" x="96" y="1372.251">34</text><text fill="#000000" font-family="sans-serif" font-size="13" lengthAdjust="spacing" textLength="158" x="114" y="1372.251">displays operation success</text><!--SRC=[rLRDJkGm3BxdAImk0wYym1oG40Wq4YEj-DiBbv1wfj6aIKbIs95u-7NJ7zgcCxkNLRKvjOdz-NFis7OxgGjkUGwvqKParkG8tfR8N7TISB7ZMtpqUuLWKNYkjwelu3AUca-fjx3XoY5ZlFH6b_aRMiOMcKmHDiRuD_EBSU6DXPCNpAGWj5k5w67DDU7R4-0ENcxNZ52z5BBWsiF9yW6tqdcqZSxpAiWzhuwBNHljhL6gWRr-UhYF50hZ9D6Hw89Cjx5_b9M7vCDGnVOqNdKCyEF-wcceyL6J-KPUlkgNyLxGZIHPTLVoWtiCTyAWMVG35vVaFon9R-V06mfAxJjmqFZPOdthT4XqQsm1lKKm5uHsTRCcE8ll9Jhl8EMUmwd53LhK0XD8qGah2o-DJW2atXYRSmMlUdZYKMHQ2ZePRAUbvVMNCCwViJw1XR1OCGi16ZEx3DldvyIj5cC7H4XWYxwvsTEXXSxvO69mL2to4im7tLt4e5rtbA9jmjxJFKT2gDCA9iOEr2xQQ3LXYI1I755ae-XK8L_IApEVqpo-lhwcLPg0jfQXK9MHrSqXyrLwJEMPtnVeMZHCGtvC9zTVqNYpNATiFlkvIL7DQB-2cz7y4xS8Fr5kCpyZYpjhd9kVHYwLekOp8uEkUATLWPkF1nVlfQJUGuLwRYevbzgZvjHxO1CEjTZFo4Tn-X4PYbrP_1CQ_Kf-fFfpfUhUtEOCOT9ePQclwesabbm5xnZ1FhcEpC7xw7gh7SvMfsqVIK8bJ-g2cWHtatvvIMX0wB_pf7rk2Jpqipw9aeyq9vCW6SJYZ1reycpOY-i-V1aFMV-3QmFt9iR4oM4cbXlF9XtBndCsccYYIwnM11iojCcIQEmS9U4VkFU6fM-iOtFIn1nB-Ks9BHr5SU_055WFdk1A8T0vDl4iUh_LdFqR]--></g></svg>