<?xml version="1.0" encoding="us-ascii" standalone="no"?><svg xmlns="http://www.w3.org/2000/svg" xmlns:xlink="http://www.w3.org/1999/xlink" contentStyleType="text/css" height="506px" preserveAspectRatio="none" style="width:836px;height:506px;background:#FFFFFF;" version="1.1" viewBox="0 0 836 506" width="836px" zoomAndPan="magnify"><defs/><g><rect fill="#FFFFFF" height="307.6191" style="stroke:#181818;stroke-width:1.0;" width="10" x="365" y="125.1152"/><rect fill="#FFFFFF" height="130.873" style="stroke:#181818;stroke-width:1.0;" width="10" x="370" y="256.5703"/><rect fill="#FFFFFF" height="42.291" style="stroke:#181818;stroke-width:1.0;" width="10" x="375" y="300.8613"/><rect fill="none" height="262.3281" style="stroke:#000000;stroke-width:1.5;" width="535" x="295" y="140.1152"/><line style="stroke:#181818;stroke-width:0.5;stroke-dasharray:5.0,5.0;" x1="370" x2="370" y1="57.2422" y2="450.7344"/><line style="stroke:#181818;stroke-width:0.5;stroke-dasharray:5.0,5.0;" x1="788" x2="788" y1="202.3428" y2="450.7344"/><rect fill="#E3E3E3" height="51.2422" rx="2.5" ry="2.5" style="stroke:#181818;stroke-width:0.5;" width="130" x="305" y="5"/><text fill="#000000" font-family="sans-serif" font-size="14" lengthAdjust="spacing" textLength="116" x="312" y="27.1074">vehicleRepository:</text><text fill="#000000" font-family="sans-serif" font-size="14" lengthAdjust="spacing" textLength="114" x="313" y="45.7285">VehicleRepository</text><rect fill="#E3E3E3" height="51.2422" rx="2.5" ry="2.5" style="stroke:#181818;stroke-width:0.5;" width="130" x="305" y="449.7344"/><text fill="#000000" font-family="sans-serif" font-size="14" lengthAdjust="spacing" textLength="116" x="312" y="471.8418">vehicleRepository:</text><text fill="#000000" font-family="sans-serif" font-size="14" lengthAdjust="spacing" textLength="114" x="313" y="490.4629">VehicleRepository</text><rect fill="#E3E3E3" height="51.2422" rx="2.5" ry="2.5" style="stroke:#181818;stroke-width:0.5;" width="64" x="756" y="449.7344"/><text fill="#000000" font-family="sans-serif" font-size="14" lengthAdjust="spacing" textLength="44" x="766" y="471.8418">vehicle</text><text fill="#000000" font-family="sans-serif" font-size="14" lengthAdjust="spacing" textLength="50" x="763" y="490.4629">:Vehicle</text><rect fill="#FFFFFF" height="307.6191" style="stroke:#181818;stroke-width:1.0;" width="10" x="365" y="125.1152"/><rect fill="#FFFFFF" height="130.873" style="stroke:#181818;stroke-width:1.0;" width="10" x="370" y="256.5703"/><rect fill="#FFFFFF" height="42.291" style="stroke:#181818;stroke-width:1.0;" width="10" x="375" y="300.8613"/><polygon fill="#181818" points="353,121.1152,363,125.1152,353,129.1152,357,125.1152" style="stroke:#181818;stroke-width:1.0;"/><line style="stroke:#181818;stroke-width:1.0;" x1="0" x2="359" y1="125.1152" y2="125.1152"/><text fill="#000000" font-family="sans-serif" font-size="13" font-weight="bold" lengthAdjust="spacing" textLength="14" x="7" y="102.5615">16</text><text fill="#000000" font-family="sans-serif" font-size="13" lengthAdjust="spacing" textLength="328" x="25" y="85.2705">registerVehicle(plate ID,brand, model, type, Tare Weight,</text><text fill="#000000" font-family="sans-serif" font-size="13" lengthAdjust="spacing" textLength="317" x="29" y="102.5615">Gross Weight, millage, Register date, acquisition date,</text><text fill="#000000" font-family="sans-serif" font-size="13" lengthAdjust="spacing" textLength="220" x="25" y="119.8525">maintenance frequency, last checkup)</text><path d="M295,140.1152 L444,140.1152 L444,149.4063 L434,159.4063 L295,159.4063 L295,140.1152 " fill="#EEEEEE" style="stroke:#000000;stroke-width:1.5;"/><rect fill="none" height="262.3281" style="stroke:#000000;stroke-width:1.5;" width="535" x="295" y="140.1152"/><text fill="#000000" font-family="sans-serif" font-size="13" font-weight="bold" lengthAdjust="spacing" textLength="104" x="310" y="155.1436">Register Vehicle</text><polygon fill="#181818" points="744,213.2793,754,217.2793,744,221.2793,748,217.2793" style="stroke:#181818;stroke-width:1.0;"/><line style="stroke:#181818;stroke-width:1.0;" x1="375" x2="750" y1="217.2793" y2="217.2793"/><text fill="#000000" font-family="sans-serif" font-size="13" font-weight="bold" lengthAdjust="spacing" textLength="25" x="382" y="194.7256">16.1</text><text fill="#000000" font-family="sans-serif" font-size="13" lengthAdjust="spacing" textLength="328" x="411" y="177.4346">registerVehicle(plate ID,brand, model, type, Tare Weight,</text><text fill="#000000" font-family="sans-serif" font-size="13" lengthAdjust="spacing" textLength="317" x="415" y="194.7256">Gross Weight, millage, Register date, acquisition date,</text><text fill="#000000" font-family="sans-serif" font-size="13" lengthAdjust="spacing" textLength="220" x="411" y="212.0166">maintenance frequency, last checkup)</text><rect fill="#E3E3E3" height="51.2422" rx="2.5" ry="2.5" style="stroke:#181818;stroke-width:0.5;" width="64" x="756" y="163.0371"/><text fill="#000000" font-family="sans-serif" font-size="14" lengthAdjust="spacing" textLength="44" x="766" y="185.1445">vehicle</text><text fill="#000000" font-family="sans-serif" font-size="14" lengthAdjust="spacing" textLength="50" x="763" y="203.7656">:Vehicle</text><line style="stroke:#181818;stroke-width:1.0;" x1="375" x2="422" y1="243.5703" y2="243.5703"/><line style="stroke:#181818;stroke-width:1.0;" x1="422" x2="422" y1="243.5703" y2="256.5703"/><line style="stroke:#181818;stroke-width:1.0;" x1="381" x2="422" y1="256.5703" y2="256.5703"/><polygon fill="#181818" points="391,252.5703,381,256.5703,391,260.5703,387,256.5703" style="stroke:#181818;stroke-width:1.0;"/><text fill="#000000" font-family="sans-serif" font-size="13" font-weight="bold" lengthAdjust="spacing" textLength="25" x="387" y="238.3076">16.2</text><text fill="#000000" font-family="sans-serif" font-size="13" lengthAdjust="spacing" textLength="119" x="416" y="238.3076">addVehicle (Vehicle)</text><line style="stroke:#181818;stroke-width:1.0;" x1="380" x2="427" y1="287.8613" y2="287.8613"/><line style="stroke:#181818;stroke-width:1.0;" x1="427" x2="427" y1="287.8613" y2="300.8613"/><line style="stroke:#181818;stroke-width:1.0;" x1="386" x2="427" y1="300.8613" y2="300.8613"/><polygon fill="#181818" points="396,296.8613,386,300.8613,396,304.8613,392,300.8613" style="stroke:#181818;stroke-width:1.0;"/><text fill="#000000" font-family="sans-serif" font-size="13" font-weight="bold" lengthAdjust="spacing" textLength="25" x="392" y="282.5986">16.3</text><text fill="#000000" font-family="sans-serif" font-size="13" lengthAdjust="spacing" textLength="137" x="421" y="282.5986">validateVehicle(Vehicle)</text><line style="stroke:#181818;stroke-width:1.0;stroke-dasharray:2.0,2.0;" x1="385" x2="427" y1="342.1523" y2="342.1523"/><line style="stroke:#181818;stroke-width:1.0;stroke-dasharray:2.0,2.0;" x1="427" x2="427" y1="342.1523" y2="355.1523"/><line style="stroke:#181818;stroke-width:1.0;stroke-dasharray:2.0,2.0;" x1="380" x2="427" y1="355.1523" y2="355.1523"/><polygon fill="#181818" points="390,351.1523,380,355.1523,390,359.1523,386,355.1523" style="stroke:#181818;stroke-width:1.0;"/><text fill="#000000" font-family="sans-serif" font-size="13" font-weight="bold" lengthAdjust="spacing" textLength="25" x="392" y="336.8896">16.4</text><text fill="#000000" font-family="sans-serif" font-size="13" lengthAdjust="spacing" textLength="4" x="421" y="336.8896">&#160;</text><line style="stroke:#181818;stroke-width:1.0;stroke-dasharray:2.0,2.0;" x1="380" x2="422" y1="386.4434" y2="386.4434"/><line style="stroke:#181818;stroke-width:1.0;stroke-dasharray:2.0,2.0;" x1="422" x2="422" y1="386.4434" y2="399.4434"/><line style="stroke:#181818;stroke-width:1.0;stroke-dasharray:2.0,2.0;" x1="375" x2="422" y1="399.4434" y2="399.4434"/><polygon fill="#181818" points="385,395.4434,375,399.4434,385,403.4434,381,399.4434" style="stroke:#181818;stroke-width:1.0;"/><text fill="#000000" font-family="sans-serif" font-size="13" font-weight="bold" lengthAdjust="spacing" textLength="25" x="387" y="381.1807">16.5</text><text fill="#000000" font-family="sans-serif" font-size="13" lengthAdjust="spacing" textLength="4" x="416" y="381.1807">&#160;</text><polygon fill="#181818" points="11,428.7344,1,432.7344,11,436.7344,7,432.7344" style="stroke:#181818;stroke-width:1.0;"/><line style="stroke:#181818;stroke-width:1.0;stroke-dasharray:2.0,2.0;" x1="5" x2="369" y1="432.7344" y2="432.7344"/><text fill="#000000" font-family="sans-serif" font-size="13" font-weight="bold" lengthAdjust="spacing" textLength="14" x="17" y="427.4717">17</text><text fill="#000000" font-family="sans-serif" font-size="13" lengthAdjust="spacing" textLength="39" x="35" y="427.4717">vehicle</text><!--SRC=[pL7BJiCm4BpxArOzjLMAr0j85KAg15ISa485brospZQnwgnJsodAt-Cy-WeWhlXap-xCpdZTJd695Wie31kPMrCGU5kHSATAYNA76RtvMXDOaXuvqvSDBiVKV2hEO8lQaH01zagg4jd3w42vaffYAerJtjXwaV3x41i1EdYDLpzI4rxqXBPjlOoVdfT2OEKDLyM6BCnlnUoXuI-2mKmvJxPdZ4kDdk3bCTfOv3GAELFI4VYwf0ZMQ0a-I6MvZnA6bJNE7TzGAAr3xWZYNXBI81K1odsbWcrbk4CIBb2n9qQM15jB-ufOrX5eT1vaJd9NbPE1uPkvGEdLeN7N18TmCckgyZokZo3QMdD27uIStGTCf_yvxC1oknfCqzueZFlBv1pkss_y9750hHeRny0dcKl2hqedjKxkgfRI5KtynHdqDn1nsl4k5ttN8lUpMQiI4lHB7Sxx0W00]--></g></svg>