<?xml version="1.0" encoding="us-ascii" standalone="no"?><svg xmlns="http://www.w3.org/2000/svg" xmlns:xlink="http://www.w3.org/1999/xlink" contentStyleType="text/css" height="414px" preserveAspectRatio="none" style="width:689px;height:414px;background:#FFFFFF;" version="1.1" viewBox="0 0 689 414" width="689px" zoomAndPan="magnify"><defs/><g><rect fill="#FFFFFF" height="261.0625" style="stroke:#181818;stroke-width:1.0;" width="10" x="293" y="83.7266"/><rect fill="#FFFFFF" height="156.6641" style="stroke:#181818;stroke-width:1.0;" width="10" x="298" y="144.9922"/><rect fill="#FFFFFF" height="29.1328" style="stroke:#181818;stroke-width:1.0;" width="10" x="493" y="179.125"/><rect fill="#FFFFFF" height="29.1328" style="stroke:#181818;stroke-width:1.0;" width="10" x="610" y="237.3906"/><rect fill="none" height="217.9297" style="stroke:#000000;stroke-width:1.5;" width="491.5" x="187" y="98.7266"/><line style="stroke:#181818;stroke-width:0.5;stroke-dasharray:5.0,5.0;" x1="298" x2="298" y1="52.5938" y2="362.7891"/><line style="stroke:#181818;stroke-width:0.5;stroke-dasharray:5.0,5.0;" x1="497.5" x2="497.5" y1="52.5938" y2="362.7891"/><line style="stroke:#181818;stroke-width:0.5;stroke-dasharray:5.0,5.0;" x1="614.5" x2="614.5" y1="52.5938" y2="362.7891"/><rect fill="#E3E3E3" height="30.2969" rx="2.5" ry="2.5" style="stroke:#181818;stroke-width:0.5;" width="202" x="197" y="21.2969"/><text fill="#000000" font-family="sans-serif" font-size="14" lengthAdjust="spacing" textLength="188" x="204" y="41.292">:RegisterVehicleController</text><rect fill="#E3E3E3" height="30.2969" rx="2.5" ry="2.5" style="stroke:#181818;stroke-width:0.5;" width="202" x="197" y="361.7891"/><text fill="#000000" font-family="sans-serif" font-size="14" lengthAdjust="spacing" textLength="188" x="204" y="381.7842">:RegisterVehicleController</text><rect fill="#E3E3E3" height="30.2969" rx="2.5" ry="2.5" style="stroke:#181818;stroke-width:0.5;" width="107" x="444.5" y="21.2969"/><text fill="#000000" font-family="sans-serif" font-size="14" lengthAdjust="spacing" textLength="93" x="451.5" y="41.292">:Repositories</text><rect fill="#E3E3E3" height="30.2969" rx="2.5" ry="2.5" style="stroke:#181818;stroke-width:0.5;" width="107" x="444.5" y="361.7891"/><text fill="#000000" font-family="sans-serif" font-size="14" lengthAdjust="spacing" textLength="93" x="451.5" y="381.7842">:Repositories</text><rect fill="#E3E3E3" height="46.5938" rx="2.5" ry="2.5" style="stroke:#181818;stroke-width:0.5;" width="107" x="561.5" y="5"/><text fill="#000000" font-family="sans-serif" font-size="14" lengthAdjust="spacing" textLength="84" x="573" y="24.9951">repositories</text><text fill="#000000" font-family="sans-serif" font-size="14" lengthAdjust="spacing" textLength="93" x="568.5" y="41.292">:Repositories</text><rect fill="#E3E3E3" height="46.5938" rx="2.5" ry="2.5" style="stroke:#181818;stroke-width:0.5;" width="107" x="561.5" y="361.7891"/><text fill="#000000" font-family="sans-serif" font-size="14" lengthAdjust="spacing" textLength="84" x="573" y="381.7842">repositories</text><text fill="#000000" font-family="sans-serif" font-size="14" lengthAdjust="spacing" textLength="93" x="568.5" y="398.0811">:Repositories</text><rect fill="#FFFFFF" height="261.0625" style="stroke:#181818;stroke-width:1.0;" width="10" x="293" y="83.7266"/><rect fill="#FFFFFF" height="156.6641" style="stroke:#181818;stroke-width:1.0;" width="10" x="298" y="144.9922"/><rect fill="#FFFFFF" height="29.1328" style="stroke:#181818;stroke-width:1.0;" width="10" x="493" y="179.125"/><rect fill="#FFFFFF" height="29.1328" style="stroke:#181818;stroke-width:1.0;" width="10" x="610" y="237.3906"/><polygon fill="#181818" points="281,79.7266,291,83.7266,281,87.7266,285,83.7266" style="stroke:#181818;stroke-width:1.0;"/><line style="stroke:#181818;stroke-width:1.0;" x1="0" x2="287" y1="83.7266" y2="83.7266"/><text fill="#000000" font-family="sans-serif" font-size="13" font-weight="bold" lengthAdjust="spacing" textLength="9" x="7" y="78.6606">3</text><text fill="#000000" font-family="sans-serif" font-size="13" lengthAdjust="spacing" textLength="261" x="20" y="78.6606">registerVehicle(plateID, brand, model...)</text><path d="M187,98.7266 L399,98.7266 L399,105.8594 L389,115.8594 L187,115.8594 L187,98.7266 " fill="#EEEEEE" style="stroke:#000000;stroke-width:1.5;"/><rect fill="none" height="217.9297" style="stroke:#000000;stroke-width:1.5;" width="491.5" x="187" y="98.7266"/><text fill="#000000" font-family="sans-serif" font-size="13" font-weight="bold" lengthAdjust="spacing" textLength="167" x="202" y="111.7935">Get Vehicle Repository</text><line style="stroke:#181818;stroke-width:1.0;" x1="303" x2="350" y1="131.9922" y2="131.9922"/><line style="stroke:#181818;stroke-width:1.0;" x1="350" x2="350" y1="131.9922" y2="144.9922"/><line style="stroke:#181818;stroke-width:1.0;" x1="309" x2="350" y1="144.9922" y2="144.9922"/><polygon fill="#181818" points="319,140.9922,309,144.9922,319,148.9922,315,144.9922" style="stroke:#181818;stroke-width:1.0;"/><text fill="#000000" font-family="sans-serif" font-size="13" font-weight="bold" lengthAdjust="spacing" textLength="23" x="315" y="126.9263">3.1</text><text fill="#000000" font-family="sans-serif" font-size="13" lengthAdjust="spacing" textLength="149" x="342" y="126.9263">getVehicleRepository()</text><polygon fill="#181818" points="481,175.125,491,179.125,481,183.125,485,179.125" style="stroke:#181818;stroke-width:1.0;"/><line style="stroke:#181818;stroke-width:1.0;" x1="308" x2="487" y1="179.125" y2="179.125"/><text fill="#000000" font-family="sans-serif" font-size="13" font-weight="bold" lengthAdjust="spacing" textLength="23" x="315" y="174.0591">3.2</text><text fill="#000000" font-family="sans-serif" font-size="13" lengthAdjust="spacing" textLength="86" x="342" y="174.0591">getInstance()</text><polygon fill="#181818" points="319,204.2578,309,208.2578,319,212.2578,315,208.2578" style="stroke:#181818;stroke-width:1.0;"/><line style="stroke:#181818;stroke-width:1.0;stroke-dasharray:2.0,2.0;" x1="313" x2="497" y1="208.2578" y2="208.2578"/><text fill="#000000" font-family="sans-serif" font-size="13" font-weight="bold" lengthAdjust="spacing" textLength="23" x="325" y="203.1919">3.3</text><text fill="#000000" font-family="sans-serif" font-size="13" lengthAdjust="spacing" textLength="77" x="352" y="203.1919">repositories</text><polygon fill="#181818" points="598,233.3906,608,237.3906,598,241.3906,602,237.3906" style="stroke:#181818;stroke-width:1.0;"/><line style="stroke:#181818;stroke-width:1.0;" x1="308" x2="604" y1="237.3906" y2="237.3906"/><text fill="#000000" font-family="sans-serif" font-size="13" font-weight="bold" lengthAdjust="spacing" textLength="23" x="315" y="232.3247">3.4</text><text fill="#000000" font-family="sans-serif" font-size="13" lengthAdjust="spacing" textLength="149" x="342" y="232.3247">getVehicleRepository()</text><polygon fill="#181818" points="319,262.5234,309,266.5234,319,270.5234,315,266.5234" style="stroke:#181818;stroke-width:1.0;"/><line style="stroke:#181818;stroke-width:1.0;stroke-dasharray:2.0,2.0;" x1="313" x2="614" y1="266.5234" y2="266.5234"/><text fill="#000000" font-family="sans-serif" font-size="13" font-weight="bold" lengthAdjust="spacing" textLength="23" x="325" y="261.4575">3.5</text><text fill="#000000" font-family="sans-serif" font-size="13" lengthAdjust="spacing" textLength="117" x="352" y="261.4575">vehicleRepository</text><line style="stroke:#181818;stroke-width:1.0;stroke-dasharray:2.0,2.0;" x1="308" x2="350" y1="300.6563" y2="300.6563"/><line style="stroke:#181818;stroke-width:1.0;stroke-dasharray:2.0,2.0;" x1="350" x2="350" y1="300.6563" y2="313.6563"/><line style="stroke:#181818;stroke-width:1.0;stroke-dasharray:2.0,2.0;" x1="303" x2="350" y1="313.6563" y2="313.6563"/><polygon fill="#181818" points="313,309.6563,303,313.6563,313,317.6563,309,313.6563" style="stroke:#181818;stroke-width:1.0;"/><text fill="#000000" font-family="sans-serif" font-size="13" font-weight="bold" lengthAdjust="spacing" textLength="23" x="315" y="295.5903">3.6</text><text fill="#000000" font-family="sans-serif" font-size="13" lengthAdjust="spacing" textLength="117" x="342" y="295.5903">vehicleRepository</text><polygon fill="#181818" points="676.5,340.7891,686.5,344.7891,676.5,348.7891,680.5,344.7891" style="stroke:#181818;stroke-width:1.0;"/><line style="stroke:#181818;stroke-width:1.0;" x1="298" x2="682.5" y1="344.7891" y2="344.7891"/><text fill="#000000" font-family="sans-serif" font-size="13" font-weight="bold" lengthAdjust="spacing" textLength="9" x="305" y="339.7231">4</text><text fill="#000000" font-family="sans-serif" font-size="13" lengthAdjust="spacing" textLength="261" x="318" y="339.7231">registerVehicle(plateID, brand, model...)</text><!--SRC=[dLDDQy904BtlhnYyL443fJrvA1GBHV1GL7hgPTsCoU9cD-nERFttJJRMR3H4xLm2oRnv7pDnEwbpRda6cT56fDPa26GBPExq9UTYnnDSqK4XM1J4TQB21fVos7nBdS2MAuUCyOACBh8DMiOUKXaZR8sXZVbXh4IG53Bdcc0mNM8Y7Q7zn5GAXJEZoHgbq0w0EvYjbuiBG6wS96CbEjzpUd5OoKfMITo6s03nfIy7V2nUrw5YU68C9Y-U7AQbtvR2OQuuuVnj31lBTJmkOujHHL4qQes87XaN9FTbR-q2oagiAN9uHuBZi40yOxubAC_Vw4YGZgW6D1oTWqxLPcTTWpkIgtdcsfKh5jWplaNHjO9UP5LTx9EZtIhrPakzesByluo_8AeBk3_XLWJr4Ltpx8aQa_jpjbkTNcUhhJNNSpjLG5EVZkz47VjdSEFFBCmGxlfLBaX-0G00]--></g></svg>