<?xml version="1.0" encoding="us-ascii" standalone="no"?><svg xmlns="http://www.w3.org/2000/svg" xmlns:xlink="http://www.w3.org/1999/xlink" contentStyleType="text/css" height="702px" preserveAspectRatio="none" style="width:1057px;height:702px;background:#FFFFFF;" version="1.1" viewBox="0 0 1057 702" width="1057px" zoomAndPan="magnify"><defs/><g><!--class Vehicle--><g id="elem_Vehicle"><rect codeLine="11" fill="#F1F1F1" height="292.4531" id="Vehicle" rx="2.5" ry="2.5" style="stroke:#181818;stroke-width:0.5;" width="381" x="432.5" y="403"/><ellipse cx="592.25" cy="419" fill="#ADD1B2" rx="11" ry="11" style="stroke:#181818;stroke-width:1.0;"/><path d="M595.2188,424.6406 Q594.6406,424.9375 594,425.0781 Q593.3594,425.2344 592.6563,425.2344 Q590.1563,425.2344 588.8281,423.5938 Q587.5156,421.9375 587.5156,418.8125 Q587.5156,415.6875 588.8281,414.0313 Q590.1563,412.375 592.6563,412.375 Q593.3594,412.375 594,412.5313 Q594.6563,412.6875 595.2188,412.9844 L595.2188,415.7031 Q594.5938,415.125 594,414.8594 Q593.4063,414.5781 592.7813,414.5781 Q591.4375,414.5781 590.75,415.6563 Q590.0625,416.7188 590.0625,418.8125 Q590.0625,420.9063 590.75,421.9844 Q591.4375,423.0469 592.7813,423.0469 Q593.4063,423.0469 594,422.7813 Q594.5938,422.5 595.2188,421.9219 L595.2188,424.6406 Z " fill="#000000"/><text fill="#000000" font-family="sans-serif" font-size="14" lengthAdjust="spacing" textLength="53" x="612.75" y="423.8467">Vehicle</text><line style="stroke:#181818;stroke-width:0.5;" x1="433.5" x2="812.5" y1="435" y2="435"/><text fill="#000000" font-family="sans-serif" font-size="14" lengthAdjust="spacing" textLength="102" x="438.5" y="451.9951">-String plateID</text><text fill="#000000" font-family="sans-serif" font-size="14" lengthAdjust="spacing" textLength="93" x="438.5" y="468.292">-String brand</text><text fill="#000000" font-family="sans-serif" font-size="14" lengthAdjust="spacing" textLength="96" x="438.5" y="484.5889">-String model</text><text fill="#000000" font-family="sans-serif" font-size="14" lengthAdjust="spacing" textLength="82" x="438.5" y="500.8857">-String type</text><text fill="#000000" font-family="sans-serif" font-size="14" lengthAdjust="spacing" textLength="120" x="438.5" y="517.1826">-float tareWeight</text><text fill="#000000" font-family="sans-serif" font-size="14" lengthAdjust="spacing" textLength="129" x="438.5" y="533.4795">-float grossWeight</text><text fill="#000000" font-family="sans-serif" font-size="14" lengthAdjust="spacing" textLength="94" x="438.5" y="549.7764">-float millage</text><text fill="#000000" font-family="sans-serif" font-size="14" lengthAdjust="spacing" textLength="196" x="438.5" y="566.0732">-int maintenanceFrequency</text><text fill="#000000" font-family="sans-serif" font-size="14" lengthAdjust="spacing" textLength="132" x="438.5" y="582.3701">-Data registerDate</text><text fill="#000000" font-family="sans-serif" font-size="14" lengthAdjust="spacing" textLength="154" x="438.5" y="598.667">-Data acquisitionDate</text><text fill="#000000" font-family="sans-serif" font-size="14" lengthAdjust="spacing" textLength="130" x="438.5" y="614.9639">-Data lastCheckup</text><line style="stroke:#181818;stroke-width:0.5;" x1="433.5" x2="812.5" y1="622.2656" y2="622.2656"/><text fill="#000000" font-family="sans-serif" font-size="14" lengthAdjust="spacing" textLength="350" x="438.5" y="639.2607">+Vehicle(plateID,brand, model, type, tareWeight,</text><text fill="#000000" font-family="sans-serif" font-size="14" lengthAdjust="spacing" textLength="369" x="438.5" y="655.5576">grossWeight, millage, registerDate, acquisitionDate,</text><text fill="#000000" font-family="sans-serif" font-size="14" lengthAdjust="spacing" textLength="269" x="438.5" y="671.8545">maintenanceFrequency, lastCheckup)</text><text fill="#000000" font-family="sans-serif" font-size="14" lengthAdjust="spacing" textLength="158" x="438.5" y="688.1514">-validatePlate(plateID)</text></g><!--class Data--><g id="elem_Data"><rect codeLine="28" fill="#F1F1F1" height="96.8906" id="Data" rx="2.5" ry="2.5" style="stroke:#181818;stroke-width:0.5;" width="79" x="318.5" y="500.5"/><ellipse cx="339.35" cy="516.5" fill="#ADD1B2" rx="11" ry="11" style="stroke:#181818;stroke-width:1.0;"/><path d="M342.3188,522.1406 Q341.7406,522.4375 341.1,522.5781 Q340.4594,522.7344 339.7563,522.7344 Q337.2563,522.7344 335.9281,521.0938 Q334.6156,519.4375 334.6156,516.3125 Q334.6156,513.1875 335.9281,511.5313 Q337.2563,509.875 339.7563,509.875 Q340.4594,509.875 341.1,510.0313 Q341.7563,510.1875 342.3188,510.4844 L342.3188,513.2031 Q341.6938,512.625 341.1,512.3594 Q340.5063,512.0781 339.8813,512.0781 Q338.5375,512.0781 337.85,513.1563 Q337.1625,514.2188 337.1625,516.3125 Q337.1625,518.4063 337.85,519.4844 Q338.5375,520.5469 339.8813,520.5469 Q340.5063,520.5469 341.1,520.2813 Q341.6938,520 342.3188,519.4219 L342.3188,522.1406 Z " fill="#000000"/><text fill="#000000" font-family="sans-serif" font-size="14" lengthAdjust="spacing" textLength="34" x="354.65" y="521.3467">Data</text><line style="stroke:#181818;stroke-width:0.5;" x1="319.5" x2="396.5" y1="532.5" y2="532.5"/><text fill="#000000" font-family="sans-serif" font-size="14" lengthAdjust="spacing" textLength="54" x="324.5" y="549.4951">-int ano</text><text fill="#000000" font-family="sans-serif" font-size="14" lengthAdjust="spacing" textLength="67" x="324.5" y="565.792">-Mes mes</text><text fill="#000000" font-family="sans-serif" font-size="14" lengthAdjust="spacing" textLength="49" x="324.5" y="582.0889">-int dia</text><line style="stroke:#181818;stroke-width:0.5;" x1="319.5" x2="396.5" y1="589.3906" y2="589.3906"/></g><!--class VehicleRepository--><g id="elem_VehicleRepository"><rect codeLine="36" fill="#F1F1F1" height="129.4844" id="VehicleRepository" rx="2.5" ry="2.5" style="stroke:#181818;stroke-width:0.5;" width="417" x="414.5" y="197"/><ellipse cx="554.25" cy="213" fill="#ADD1B2" rx="11" ry="11" style="stroke:#181818;stroke-width:1.0;"/><path d="M557.2188,218.6406 Q556.6406,218.9375 556,219.0781 Q555.3594,219.2344 554.6563,219.2344 Q552.1563,219.2344 550.8281,217.5938 Q549.5156,215.9375 549.5156,212.8125 Q549.5156,209.6875 550.8281,208.0313 Q552.1563,206.375 554.6563,206.375 Q555.3594,206.375 556,206.5313 Q556.6563,206.6875 557.2188,206.9844 L557.2188,209.7031 Q556.5938,209.125 556,208.8594 Q555.4063,208.5781 554.7813,208.5781 Q553.4375,208.5781 552.75,209.6563 Q552.0625,210.7188 552.0625,212.8125 Q552.0625,214.9063 552.75,215.9844 Q553.4375,217.0469 554.7813,217.0469 Q555.4063,217.0469 556,216.7813 Q556.5938,216.5 557.2188,215.9219 L557.2188,218.6406 Z " fill="#000000"/><text fill="#000000" font-family="sans-serif" font-size="14" lengthAdjust="spacing" textLength="129" x="574.75" y="217.8467">VehicleRepository</text><line style="stroke:#181818;stroke-width:0.5;" x1="415.5" x2="830.5" y1="229" y2="229"/><line style="stroke:#181818;stroke-width:0.5;" x1="415.5" x2="830.5" y1="237" y2="237"/><text fill="#000000" font-family="sans-serif" font-size="14" lengthAdjust="spacing" textLength="405" x="420.5" y="253.9951">+registerVehicle(plateID,brand, model, type, tareWeight,</text><text fill="#000000" font-family="sans-serif" font-size="14" lengthAdjust="spacing" textLength="369" x="420.5" y="270.292">grossWeight, millage, registerDate, acquisitionDate,</text><text fill="#000000" font-family="sans-serif" font-size="14" lengthAdjust="spacing" textLength="269" x="420.5" y="286.5889">maintenanceFrequency, lastCheckup)</text><text fill="#000000" font-family="sans-serif" font-size="14" lengthAdjust="spacing" textLength="146" x="420.5" y="302.8857">-addVehicle(vehicle)</text><text fill="#000000" font-family="sans-serif" font-size="14" lengthAdjust="spacing" textLength="176" x="420.5" y="319.1826">-validateVehicle(vehicle)</text></g><!--class Repositories--><g id="elem_Repositories"><rect codeLine="43" fill="#F1F1F1" height="96.8906" id="Repositories" rx="2.5" ry="2.5" style="stroke:#181818;stroke-width:0.5;" width="218" x="730" y="15"/><ellipse cx="790.75" cy="31" fill="#ADD1B2" rx="11" ry="11" style="stroke:#181818;stroke-width:1.0;"/><path d="M793.7188,36.6406 Q793.1406,36.9375 792.5,37.0781 Q791.8594,37.2344 791.1563,37.2344 Q788.6563,37.2344 787.3281,35.5938 Q786.0156,33.9375 786.0156,30.8125 Q786.0156,27.6875 787.3281,26.0313 Q788.6563,24.375 791.1563,24.375 Q791.8594,24.375 792.5,24.5313 Q793.1563,24.6875 793.7188,24.9844 L793.7188,27.7031 Q793.0938,27.125 792.5,26.8594 Q791.9063,26.5781 791.2813,26.5781 Q789.9375,26.5781 789.25,27.6563 Q788.5625,28.7188 788.5625,30.8125 Q788.5625,32.9063 789.25,33.9844 Q789.9375,35.0469 791.2813,35.0469 Q791.9063,35.0469 792.5,34.7813 Q793.0938,34.5 793.7188,33.9219 L793.7188,36.6406 Z " fill="#000000"/><text fill="#000000" font-family="sans-serif" font-size="14" lengthAdjust="spacing" textLength="88" x="811.25" y="35.8467">Repositories</text><line style="stroke:#181818;stroke-width:0.5;" x1="731" x2="947" y1="47" y2="47"/><line style="stroke:#181818;stroke-width:0.5;" x1="731" x2="947" y1="55" y2="55"/><text fill="#000000" font-family="sans-serif" font-size="14" lengthAdjust="spacing" textLength="103" x="736" y="71.9951">-Repositories()</text><text fill="#000000" font-family="sans-serif" font-size="14" lengthAdjust="spacing" textLength="206" x="736" y="88.292">+getInstance() : Repositories</text><text fill="#000000" font-family="sans-serif" font-size="14" lengthAdjust="spacing" textLength="174" x="736" y="104.5889">+getVehicleRepository()</text></g><!--class RegisterVehicleController--><g id="elem_RegisterVehicleController"><rect codeLine="49" fill="#F1F1F1" height="113.1875" id="RegisterVehicleController" rx="2.5" ry="2.5" style="stroke:#181818;stroke-width:0.5;" width="417" x="199.5" y="7"/><ellipse cx="312.25" cy="23" fill="#ADD1B2" rx="11" ry="11" style="stroke:#181818;stroke-width:1.0;"/><path d="M315.2188,28.6406 Q314.6406,28.9375 314,29.0781 Q313.3594,29.2344 312.6563,29.2344 Q310.1563,29.2344 308.8281,27.5938 Q307.5156,25.9375 307.5156,22.8125 Q307.5156,19.6875 308.8281,18.0313 Q310.1563,16.375 312.6563,16.375 Q313.3594,16.375 314,16.5313 Q314.6563,16.6875 315.2188,16.9844 L315.2188,19.7031 Q314.5938,19.125 314,18.8594 Q313.4063,18.5781 312.7813,18.5781 Q311.4375,18.5781 310.75,19.6563 Q310.0625,20.7188 310.0625,22.8125 Q310.0625,24.9063 310.75,25.9844 Q311.4375,27.0469 312.7813,27.0469 Q313.4063,27.0469 314,26.7813 Q314.5938,26.5 315.2188,25.9219 L315.2188,28.6406 Z " fill="#000000"/><text fill="#000000" font-family="sans-serif" font-size="14" lengthAdjust="spacing" textLength="183" x="332.75" y="27.8467">RegisterVehicleController</text><line style="stroke:#181818;stroke-width:0.5;" x1="200.5" x2="615.5" y1="39" y2="39"/><line style="stroke:#181818;stroke-width:0.5;" x1="200.5" x2="615.5" y1="47" y2="47"/><text fill="#000000" font-family="sans-serif" font-size="14" lengthAdjust="spacing" textLength="205" x="205.5" y="63.9951">+RegisterVehicleController()</text><text fill="#000000" font-family="sans-serif" font-size="14" lengthAdjust="spacing" textLength="405" x="205.5" y="80.292">+registerVehicle(plateID,brand, model, type, tareWeight,</text><text fill="#000000" font-family="sans-serif" font-size="14" lengthAdjust="spacing" textLength="369" x="205.5" y="96.5889">grossWeight, millage, registerDate, acquisitionDate,</text><text fill="#000000" font-family="sans-serif" font-size="14" lengthAdjust="spacing" textLength="269" x="205.5" y="112.8857">maintenanceFrequency, lastCheckup)</text></g><!--class RegisterVehicleUI--><g id="elem_RegisterVehicleUI"><rect codeLine="54" fill="#F1F1F1" height="48" id="RegisterVehicleUI" rx="2.5" ry="2.5" style="stroke:#181818;stroke-width:0.5;" width="158" x="7" y="39.5"/><ellipse cx="22" cy="55.5" fill="#ADD1B2" rx="11" ry="11" style="stroke:#181818;stroke-width:1.0;"/><path d="M24.9688,61.1406 Q24.3906,61.4375 23.75,61.5781 Q23.1094,61.7344 22.4063,61.7344 Q19.9063,61.7344 18.5781,60.0938 Q17.2656,58.4375 17.2656,55.3125 Q17.2656,52.1875 18.5781,50.5313 Q19.9063,48.875 22.4063,48.875 Q23.1094,48.875 23.75,49.0313 Q24.4063,49.1875 24.9688,49.4844 L24.9688,52.2031 Q24.3438,51.625 23.75,51.3594 Q23.1563,51.0781 22.5313,51.0781 Q21.1875,51.0781 20.5,52.1563 Q19.8125,53.2188 19.8125,55.3125 Q19.8125,57.4063 20.5,58.4844 Q21.1875,59.5469 22.5313,59.5469 Q23.1563,59.5469 23.75,59.2813 Q24.3438,59 24.9688,58.4219 L24.9688,61.1406 Z " fill="#000000"/><text fill="#000000" font-family="sans-serif" font-size="14" lengthAdjust="spacing" textLength="126" x="36" y="60.3467">RegisterVehicleUI</text><line style="stroke:#181818;stroke-width:0.5;" x1="8" x2="164" y1="71.5" y2="71.5"/><line style="stroke:#181818;stroke-width:0.5;" x1="8" x2="164" y1="79.5" y2="79.5"/></g><!--link RegisterVehicleUI to RegisterVehicleController--><g id="link_RegisterVehicleUI_RegisterVehicleController"><path codeLine="57" d="M165.13,63.5 C181.22,63.5 193.33,63.5 193.33,63.5 C193.33,63.5 189.58,63.5 193.41,63.5 " fill="none" id="RegisterVehicleUI-to-RegisterVehicleController" style="stroke:#181818;stroke-width:1.0;stroke-dasharray:7.0,7.0;"/><polygon fill="#181818" points="199.41,63.5,190.41,59.5,194.41,63.5,190.41,67.5,199.41,63.5" style="stroke:#181818;stroke-width:1.0;"/></g><!--link RegisterVehicleController to Repositories--><g id="link_RegisterVehicleController_Repositories"><path codeLine="59" d="M616.56,63.5 C655.77,63.5 689.29,63.5 723.92,63.5 " fill="none" id="RegisterVehicleController-to-Repositories" style="stroke:#181818;stroke-width:1.0;stroke-dasharray:7.0,7.0;"/><polygon fill="#181818" points="729.92,63.5,720.92,59.5,724.92,63.5,720.92,67.5,729.92,63.5" style="stroke:#181818;stroke-width:1.0;"/><text fill="#000000" font-family="sans-serif" font-size="13" lengthAdjust="spacing" textLength="77" x="634.75" y="56.5669">repositories</text></g><!--link Repositories to VehicleRepository--><g id="link_Repositories_VehicleRepository"><path codeLine="60" d="M786.44,112.2 C758.34,137.69 727.8132,165.3879 697.4432,192.9479 " fill="none" id="Repositories-to-VehicleRepository" style="stroke:#181818;stroke-width:1.0;"/><polygon fill="#181818" points="693,196.98,702.3529,193.894,696.7027,193.6199,696.9768,187.9697,693,196.98" style="stroke:#181818;stroke-width:1.0;"/><text fill="#000000" font-family="sans-serif" font-size="13" lengthAdjust="spacing" textLength="8" x="688" y="186.1505">1</text></g><!--link Repositories to Repositories--><g id="link_Repositories_Repositories"><path codeLine="61" d="M948.26,46.78 C968.64,48.84 983,54.41 983,63.5 C983,72.59 974.6096,77.5566 954.2296,79.6166 " fill="none" id="Repositories-to-Repositories" style="stroke:#181818;stroke-width:1.0;"/><polygon fill="#181818" points="948.26,80.22,957.6166,83.2946,953.2347,79.7172,956.8121,75.3352,948.26,80.22" style="stroke:#181818;stroke-width:1.0;"/><text fill="#000000" font-family="sans-serif" font-size="13" lengthAdjust="spacing" textLength="55" x="989" y="68.0669">instance</text></g><!--link RegisterVehicleController to VehicleRepository--><g id="link_RegisterVehicleController_VehicleRepository"><path codeLine="63" d="M469.04,120.14 C495.23,144.02 521.5456,168.0182 548.6556,192.7282 " fill="none" id="RegisterVehicleController-to-VehicleRepository" style="stroke:#181818;stroke-width:1.0;stroke-dasharray:7.0,7.0;"/><polygon fill="#181818" points="553.09,196.77,549.133,187.751,549.3947,193.4018,543.7439,193.6635,553.09,196.77" style="stroke:#181818;stroke-width:1.0;"/><text fill="#000000" font-family="sans-serif" font-size="13" lengthAdjust="spacing" textLength="117" x="517" y="163.0669">vehicleRepository</text></g><!--link VehicleRepository to Vehicle--><g id="link_VehicleRepository_Vehicle"><path codeLine="65" d="M623,326.22 C623,349.06 623,369.85 623,396.75 " fill="none" id="VehicleRepository-to-Vehicle" style="stroke:#181818;stroke-width:1.0;"/><polygon fill="#181818" points="623,402.75,627,393.75,623,397.75,619,393.75,623,402.75" style="stroke:#181818;stroke-width:1.0;"/><text fill="#000000" font-family="sans-serif" font-size="13" lengthAdjust="spacing" textLength="50" x="624" y="369.0669">register</text><text fill="#000000" font-family="sans-serif" font-size="13" lengthAdjust="spacing" textLength="8" x="614.7938" y="391.8809">1</text></g><!--link Data to Vehicle--><g id="link_Data_Vehicle"><path codeLine="66" d="M397.52,549 C410.01,549 411.01,549 420.45,549 " fill="none" id="Data-to-Vehicle" style="stroke:#181818;stroke-width:1.0;"/><polygon fill="none" points="432.45,549,426.45,545,420.45,549,426.45,553,432.45,549" style="stroke:#181818;stroke-width:1.0;"/></g><!--SRC=[pPCnRzim48Lt_GeYYsr4AjBLGu0YGG0F0OeORPSk5-ei4QPu2acvK8F-zvvaIgOiEtCqoE2xE_9xZzR2xPMfmK8bAZ8aIqiL2cyRJ4wL6kGU2jpwLgEmA3sOGiSDheIS_YXJY1re5rUqCkZR6aLDkkqMoU92aQodQ4XgSEwRzrQzDXutainM_KLnbomqxhpm9AmgIYzorS4eCWa__P3uYQMIJFcU27uoiULD6AlMm1izJiLN2oQVIXNbgATI1nYKdIRWuy7YB-m09d9XoRaBUgMqvl22fWmhm6yqO2G-MNnhqCWsb1_10oTSAEVHyW9Z7UHRevpg39-NsBj_A57kcxgNRuSWbi5vsfjDZmRJtbGQEKb_cuW_7Q3J2KjwJi1JbxoaCSugO1v0gvndldSy0zKg-JVUNE_ZFOe938NLCpfHeOjgkO8acWrcNx0cfYFRXerkH_xF5WVa-O1qEFwU1pKhd-oEFXK7CqGMYyjLi5-WtnZdEvxbIgmdJQUMMNpB_hJXi4c23sIy9QtHZXbVxHWnFjyjNBFtOyEsk3YNlznVDphhZrBgvwBxMZD-T0cJciYoUt7pLTpC_z7JncosgGhN_24AirpuLjRYC3ijcRS5k96jTt8yAka_teo6qdy0]--></g></svg>