<?xml version="1.0" encoding="us-ascii" standalone="no"?><svg xmlns="http://www.w3.org/2000/svg" xmlns:xlink="http://www.w3.org/1999/xlink" contentStyleType="text/css" height="525.9px" preserveAspectRatio="none" style="width:694px;height:525px;background:#FFFFFF;" version="1.1" viewBox="0 0 694 525" width="694.8px" zoomAndPan="magnify"><defs/><g><rect fill="#FFFFFF" height="470.0643" style="stroke:#181818;stroke-width:0.3;" width="3" x="31.8" y="28.0863"/><rect fill="#FFFFFF" height="102.7594" style="stroke:#181818;stroke-width:0.3;" width="3" x="167.1" y="35.0736"/><rect fill="#FFFFFF" height="9.3873" style="stroke:#181818;stroke-width:0.3;" width="3" x="167.1" y="155.1076"/><rect fill="#FFFFFF" height="9.3873" style="stroke:#181818;stroke-width:0.3;" width="3" x="167.1" y="173.8822"/><rect fill="#FFFFFF" height="9.3873" style="stroke:#181818;stroke-width:0.3;" width="3" x="167.1" y="194.7568"/><rect fill="#FFFFFF" height="9.3873" style="stroke:#181818;stroke-width:0.3;" width="3" x="167.1" y="330.6791"/><rect fill="#FFFFFF" height="9.3873" style="stroke:#181818;stroke-width:0.3;" width="3" x="167.1" y="357.341"/><rect fill="#FFFFFF" height="9.3873" style="stroke:#181818;stroke-width:0.3;" width="3" x="167.1" y="422.9502"/><rect fill="#FFFFFF" height="9.3873" style="stroke:#181818;stroke-width:0.3;" width="3" x="167.1" y="446.7141"/><rect fill="#FFFFFF" height="9.3873" style="stroke:#181818;stroke-width:0.3;" width="3" x="167.1" y="484.2633"/><rect fill="#FFFFFF" height="65.7111" style="stroke:#181818;stroke-width:0.3;" width="3" x="296.4" y="57.5473"/><rect fill="#FFFFFF" height="9.3873" style="stroke:#181818;stroke-width:0.3;" width="3" x="296.4" y="204.1441"/><rect fill="#FFFFFF" height="9.3873" style="stroke:#181818;stroke-width:0.3;" width="3" x="296.4" y="321.2918"/><rect fill="#FFFFFF" height="56.2219" style="stroke:#181818;stroke-width:0.3;" width="3" x="296.4" y="366.7283"/><rect fill="#FFFFFF" height="28.1619" style="stroke:#181818;stroke-width:0.3;" width="3" x="296.4" y="456.1014"/><rect fill="#FFFFFF" height="107.7604" style="stroke:#181818;stroke-width:0.3;" width="3" x="428.4" y="213.5314"/><rect fill="#FFFFFF" height="84.7857" style="stroke:#181818;stroke-width:0.3;" width="3" x="429.9" y="222.9188"/><rect fill="#FFFFFF" height="37.4473" style="stroke:#181818;stroke-width:0.3;" width="3" x="428.4" y="376.1156"/><rect fill="#FFFFFF" height="9.3873" style="stroke:#181818;stroke-width:0.3;" width="3" x="428.4" y="465.4887"/><rect fill="#FFFFFF" height="9.3873" style="stroke:#181818;stroke-width:0.3;" width="3" x="492.6" y="66.9346"/><rect fill="#FFFFFF" height="9.3873" style="stroke:#181818;stroke-width:0.3;" width="3" x="492.6" y="222.9188"/><rect fill="#FFFFFF" height="9.3873" style="stroke:#181818;stroke-width:0.3;" width="3" x="524.7" y="85.7092"/><rect fill="#FFFFFF" height="9.3873" style="stroke:#181818;stroke-width:0.3;" width="3" x="524.7" y="241.6934"/><rect fill="#FFFFFF" height="28.1619" style="stroke:#181818;stroke-width:0.3;" width="3" x="566.85" y="268.3553"/><rect fill="#FFFFFF" height="9.3873" style="stroke:#181818;stroke-width:0.3;" width="3" x="631.95" y="104.4838"/><rect fill="#FFFFFF" height="9.3873" style="stroke:#181818;stroke-width:0.3;" width="3" x="631.95" y="277.7426"/><rect fill="#FFFFFF" height="15.6727" style="stroke:#181818;stroke-width:0.3;" width="3" x="669.9" y="388.5029"/><rect fill="none" height="43.3365" style="stroke:#000000;stroke-width:0.44999999999999996;" width="187.5" x="3" y="142.333"/><rect fill="none" height="56.6238" style="stroke:#000000;stroke-width:0.44999999999999996;" width="234.3" x="418.8" y="255.5807"/><rect fill="none" height="151.4842" style="stroke:#000000;stroke-width:0.44999999999999996;" width="689.7" x="3" y="344.5664"/><line style="stroke:#181818;stroke-width:0.15;stroke-dasharray:5.0,5.0;" x1="33.3" x2="33.3" y1="25.0863" y2="501.1506"/><line style="stroke:#181818;stroke-width:0.15;stroke-dasharray:5.0,5.0;" x1="168.6" x2="168.6" y1="25.0863" y2="501.1506"/><line style="stroke:#181818;stroke-width:0.15;stroke-dasharray:5.0,5.0;" x1="297.9" x2="297.9" y1="47.0168" y2="501.1506"/><line style="stroke:#181818;stroke-width:0.15;stroke-dasharray:5.0,5.0;" x1="429.9" x2="429.9" y1="25.0863" y2="501.1506"/><line style="stroke:#181818;stroke-width:0.15;stroke-dasharray:5.0,5.0;" x1="493.95" x2="493.95" y1="25.0863" y2="501.1506"/><line style="stroke:#181818;stroke-width:0.15;stroke-dasharray:5.0,5.0;" x1="526.05" x2="526.05" y1="25.0863" y2="501.1506"/><line style="stroke:#181818;stroke-width:0.15;stroke-dasharray:5.0,5.0;" x1="568.35" x2="568.35" y1="25.0863" y2="501.1506"/><line style="stroke:#181818;stroke-width:0.15;stroke-dasharray:5.0,5.0;" x1="633.3" x2="633.3" y1="25.0863" y2="501.1506"/><line style="stroke:#181818;stroke-width:0.15;stroke-dasharray:5.0,5.0;" x1="671.4" x2="671.4" y1="390.852" y2="501.1506"/><text fill="#000000" font-family="sans-serif" font-size="4.2" lengthAdjust="spacing" textLength="52.8" x="6" y="24.0322">Human Resources Manager</text><ellipse cx="33.3" cy="4.05" fill="#E3E3E3" rx="2.4" ry="2.4" style="stroke:#181818;stroke-width:0.15;"/><path d="M33.3,6.45 L33.3,14.55 M29.4,8.85 L37.2,8.85 M33.3,14.55 L29.4,19.05 M33.3,14.55 L37.2,19.05 " fill="none" style="stroke:#181818;stroke-width:0.15;"/><text fill="#000000" font-family="sans-serif" font-size="4.2" lengthAdjust="spacing" textLength="52.8" x="6" y="505.3828">Human Resources Manager</text><ellipse cx="33.3" cy="508.9869" fill="#E3E3E3" rx="2.4" ry="2.4" style="stroke:#181818;stroke-width:0.15;"/><path d="M33.3,511.3869 L33.3,519.4869 M29.4,513.7869 L37.2,513.7869 M33.3,519.4869 L29.4,523.9869 M33.3,519.4869 L37.2,523.9869 " fill="none" style="stroke:#181818;stroke-width:0.15;"/><rect fill="#E3E3E3" height="9.7863" rx="0.75" ry="0.75" style="stroke:#181818;stroke-width:0.15;" width="37.8" x="149.7" y="15"/><text fill="#000000" font-family="sans-serif" font-size="4.2" lengthAdjust="spacing" textLength="33.6" x="151.8" y="21.6322">:GenerateTeamUI</text><rect fill="#E3E3E3" height="9.7863" rx="0.75" ry="0.75" style="stroke:#181818;stroke-width:0.15;" width="37.8" x="149.7" y="500.8506"/><text fill="#000000" font-family="sans-serif" font-size="4.2" lengthAdjust="spacing" textLength="33.6" x="151.8" y="507.4828">:GenerateTeamUI</text><rect fill="#E3E3E3" height="9.7863" rx="0.75" ry="0.75" style="stroke:#181818;stroke-width:0.15;" width="52.8" x="271.5" y="500.8506"/><text fill="#000000" font-family="sans-serif" font-size="4.2" lengthAdjust="spacing" textLength="48.6" x="273.6" y="507.4828">:GenerateTeamController</text><rect fill="#E3E3E3" height="9.7863" rx="0.75" ry="0.75" style="stroke:#181818;stroke-width:0.15;" width="16.2" x="421.8" y="15"/><text fill="#000000" font-family="sans-serif" font-size="4.2" lengthAdjust="spacing" textLength="12" x="423.9" y="21.6322">:Team</text><rect fill="#E3E3E3" height="9.7863" rx="0.75" ry="0.75" style="stroke:#181818;stroke-width:0.15;" width="16.2" x="421.8" y="500.8506"/><text fill="#000000" font-family="sans-serif" font-size="4.2" lengthAdjust="spacing" textLength="12" x="423.9" y="507.4828">:Team</text><rect fill="#E3E3E3" height="9.7863" rx="0.75" ry="0.75" style="stroke:#181818;stroke-width:0.15;" width="29.1" x="479.55" y="15"/><text fill="#000000" font-family="sans-serif" font-size="4.2" lengthAdjust="spacing" textLength="24.9" x="481.65" y="21.6322">:Repositories</text><rect fill="#E3E3E3" height="9.7863" rx="0.75" ry="0.75" style="stroke:#181818;stroke-width:0.15;" width="29.1" x="479.55" y="500.8506"/><text fill="#000000" font-family="sans-serif" font-size="4.2" lengthAdjust="spacing" textLength="24.9" x="481.65" y="507.4828">:Repositories</text><rect fill="#E3E3E3" height="15.3727" rx="0.75" ry="0.75" style="stroke:#181818;stroke-width:0.15;" width="29.1" x="511.65" y="9.4137"/><text fill="#000000" font-family="sans-serif" font-size="4.2" lengthAdjust="spacing" textLength="22.2" x="515.1" y="16.0459">repositories</text><text fill="#000000" font-family="sans-serif" font-size="4.2" lengthAdjust="spacing" textLength="24.9" x="513.75" y="21.6322">:Repositories</text><rect fill="#E3E3E3" height="15.3727" rx="0.75" ry="0.75" style="stroke:#181818;stroke-width:0.15;" width="29.1" x="511.65" y="500.8506"/><text fill="#000000" font-family="sans-serif" font-size="4.2" lengthAdjust="spacing" textLength="22.2" x="515.1" y="507.4828">repositories</text><text fill="#000000" font-family="sans-serif" font-size="4.2" lengthAdjust="spacing" textLength="24.9" x="513.75" y="513.0691">:Repositories</text><rect fill="#E3E3E3" height="15.3727" rx="0.75" ry="0.75" style="stroke:#181818;stroke-width:0.15;" width="49.2" x="543.75" y="9.4137"/><text fill="#000000" font-family="sans-serif" font-size="4.2" lengthAdjust="spacing" textLength="45" x="545.85" y="16.0459">CollaboratorRepository:</text><text fill="#000000" font-family="sans-serif" font-size="4.2" lengthAdjust="spacing" textLength="43.8" x="546.45" y="21.6322">CollaboratorRepository</text><rect fill="#E3E3E3" height="15.3727" rx="0.75" ry="0.75" style="stroke:#181818;stroke-width:0.15;" width="49.2" x="543.75" y="500.8506"/><text fill="#000000" font-family="sans-serif" font-size="4.2" lengthAdjust="spacing" textLength="45" x="545.85" y="507.4828">CollaboratorRepository:</text><text fill="#000000" font-family="sans-serif" font-size="4.2" lengthAdjust="spacing" textLength="43.8" x="546.45" y="513.0691">CollaboratorRepository</text><rect fill="#E3E3E3" height="15.3727" rx="0.75" ry="0.75" style="stroke:#181818;stroke-width:0.15;" width="33.3" x="616.8" y="9.4137"/><text fill="#000000" font-family="sans-serif" font-size="4.2" lengthAdjust="spacing" textLength="29.1" x="618.9" y="16.0459">SkillRepository:</text><text fill="#000000" font-family="sans-serif" font-size="4.2" lengthAdjust="spacing" textLength="27.9" x="619.5" y="21.6322">SkillRepository</text><rect fill="#E3E3E3" height="15.3727" rx="0.75" ry="0.75" style="stroke:#181818;stroke-width:0.15;" width="33.3" x="616.8" y="500.8506"/><text fill="#000000" font-family="sans-serif" font-size="4.2" lengthAdjust="spacing" textLength="29.1" x="618.9" y="507.4828">SkillRepository:</text><text fill="#000000" font-family="sans-serif" font-size="4.2" lengthAdjust="spacing" textLength="27.9" x="619.5" y="513.0691">SkillRepository</text><rect fill="#E3E3E3" height="15.3727" rx="0.75" ry="0.75" style="stroke:#181818;stroke-width:0.15;" width="36.6" x="653.1" y="500.8506"/><text fill="#000000" font-family="sans-serif" font-size="4.2" lengthAdjust="spacing" textLength="32.4" x="655.2" y="507.4828">TeamRepository:</text><text fill="#000000" font-family="sans-serif" font-size="4.2" lengthAdjust="spacing" textLength="31.2" x="655.8" y="513.0691">TeamRepository</text><rect fill="#FFFFFF" height="470.0643" style="stroke:#181818;stroke-width:0.3;" width="3" x="31.8" y="28.0863"/><rect fill="#FFFFFF" height="102.7594" style="stroke:#181818;stroke-width:0.3;" width="3" x="167.1" y="35.0736"/><rect fill="#FFFFFF" height="9.3873" style="stroke:#181818;stroke-width:0.3;" width="3" x="167.1" y="155.1076"/><rect fill="#FFFFFF" height="9.3873" style="stroke:#181818;stroke-width:0.3;" width="3" x="167.1" y="173.8822"/><rect fill="#FFFFFF" height="9.3873" style="stroke:#181818;stroke-width:0.3;" width="3" x="167.1" y="194.7568"/><rect fill="#FFFFFF" height="9.3873" style="stroke:#181818;stroke-width:0.3;" width="3" x="167.1" y="330.6791"/><rect fill="#FFFFFF" height="9.3873" style="stroke:#181818;stroke-width:0.3;" width="3" x="167.1" y="357.341"/><rect fill="#FFFFFF" height="9.3873" style="stroke:#181818;stroke-width:0.3;" width="3" x="167.1" y="422.9502"/><rect fill="#FFFFFF" height="9.3873" style="stroke:#181818;stroke-width:0.3;" width="3" x="167.1" y="446.7141"/><rect fill="#FFFFFF" height="9.3873" style="stroke:#181818;stroke-width:0.3;" width="3" x="167.1" y="484.2633"/><rect fill="#FFFFFF" height="65.7111" style="stroke:#181818;stroke-width:0.3;" width="3" x="296.4" y="57.5473"/><rect fill="#FFFFFF" height="9.3873" style="stroke:#181818;stroke-width:0.3;" width="3" x="296.4" y="204.1441"/><rect fill="#FFFFFF" height="9.3873" style="stroke:#181818;stroke-width:0.3;" width="3" x="296.4" y="321.2918"/><rect fill="#FFFFFF" height="56.2219" style="stroke:#181818;stroke-width:0.3;" width="3" x="296.4" y="366.7283"/><rect fill="#FFFFFF" height="28.1619" style="stroke:#181818;stroke-width:0.3;" width="3" x="296.4" y="456.1014"/><rect fill="#FFFFFF" height="107.7604" style="stroke:#181818;stroke-width:0.3;" width="3" x="428.4" y="213.5314"/><rect fill="#FFFFFF" height="84.7857" style="stroke:#181818;stroke-width:0.3;" width="3" x="429.9" y="222.9188"/><rect fill="#FFFFFF" height="37.4473" style="stroke:#181818;stroke-width:0.3;" width="3" x="428.4" y="376.1156"/><rect fill="#FFFFFF" height="9.3873" style="stroke:#181818;stroke-width:0.3;" width="3" x="428.4" y="465.4887"/><rect fill="#FFFFFF" height="9.3873" style="stroke:#181818;stroke-width:0.3;" width="3" x="492.6" y="66.9346"/><rect fill="#FFFFFF" height="9.3873" style="stroke:#181818;stroke-width:0.3;" width="3" x="492.6" y="222.9188"/><rect fill="#FFFFFF" height="9.3873" style="stroke:#181818;stroke-width:0.3;" width="3" x="524.7" y="85.7092"/><rect fill="#FFFFFF" height="9.3873" style="stroke:#181818;stroke-width:0.3;" width="3" x="524.7" y="241.6934"/><rect fill="#FFFFFF" height="28.1619" style="stroke:#181818;stroke-width:0.3;" width="3" x="566.85" y="268.3553"/><rect fill="#FFFFFF" height="9.3873" style="stroke:#181818;stroke-width:0.3;" width="3" x="631.95" y="104.4838"/><rect fill="#FFFFFF" height="9.3873" style="stroke:#181818;stroke-width:0.3;" width="3" x="631.95" y="277.7426"/><rect fill="#FFFFFF" height="15.6727" style="stroke:#181818;stroke-width:0.3;" width="3" x="669.9" y="388.5029"/><polygon fill="#181818" points="163.5,33.8736,166.5,35.0736,163.5,36.2736,164.7,35.0736" style="stroke:#181818;stroke-width:0.3;"/><line style="stroke:#181818;stroke-width:0.3;" x1="34.8" x2="165.3" y1="35.0736" y2="35.0736"/><text fill="#000000" font-family="sans-serif" font-size="3.9" font-weight="bold" lengthAdjust="spacing" textLength="2.1" x="36.9" y="33.4948">1</text><text fill="#000000" font-family="sans-serif" font-size="3.9" lengthAdjust="spacing" textLength="50.4" x="40.2" y="33.4948">asks to generate a new team</text><polygon fill="#181818" points="267.9,43.2609,270.9,44.4609,267.9,45.6609,269.1,44.4609" style="stroke:#181818;stroke-width:0.3;"/><line style="stroke:#181818;stroke-width:0.3;" x1="170.1" x2="269.7" y1="44.4609" y2="44.4609"/><text fill="#000000" font-family="sans-serif" font-size="3.9" font-weight="bold" lengthAdjust="spacing" textLength="2.1" x="172.2" y="42.8821">2</text><text fill="#000000" font-family="sans-serif" font-size="3.9" lengthAdjust="spacing" textLength="15" x="175.5" y="42.8821">generate</text><rect fill="#E3E3E3" height="9.7863" rx="0.75" ry="0.75" style="stroke:#181818;stroke-width:0.15;" width="52.8" x="271.5" y="37.4736"/><text fill="#000000" font-family="sans-serif" font-size="4.2" lengthAdjust="spacing" textLength="48.6" x="273.6" y="44.1059">:GenerateTeamController</text><polygon fill="#181818" points="292.8,56.3473,295.8,57.5473,292.8,58.7473,294,57.5473" style="stroke:#181818;stroke-width:0.3;"/><line style="stroke:#181818;stroke-width:0.3;" x1="170.1" x2="294.6" y1="57.5473" y2="57.5473"/><text fill="#000000" font-family="sans-serif" font-size="3.9" font-weight="bold" lengthAdjust="spacing" textLength="2.1" x="172.2" y="55.9685">3</text><text fill="#000000" font-family="sans-serif" font-size="3.9" lengthAdjust="spacing" textLength="17.4" x="175.5" y="55.9685">getSkills()</text><polygon fill="#181818" points="489,65.7346,492,66.9346,489,68.1346,490.2,66.9346" style="stroke:#181818;stroke-width:0.3;"/><line style="stroke:#181818;stroke-width:0.3;" x1="299.4" x2="490.8" y1="66.9346" y2="66.9346"/><text fill="#000000" font-family="sans-serif" font-size="3.9" font-weight="bold" lengthAdjust="spacing" textLength="2.1" x="301.5" y="65.3558">4</text><text fill="#000000" font-family="sans-serif" font-size="3.9" lengthAdjust="spacing" textLength="22.5" x="304.8" y="65.3558">getInstance()</text><polygon fill="#181818" points="302.7,75.1219,299.7,76.3219,302.7,77.5219,301.5,76.3219" style="stroke:#181818;stroke-width:0.3;"/><line style="stroke:#181818;stroke-width:0.3;stroke-dasharray:2.0,2.0;" x1="300.9" x2="493.8" y1="76.3219" y2="76.3219"/><text fill="#000000" font-family="sans-serif" font-size="3.9" font-weight="bold" lengthAdjust="spacing" textLength="2.1" x="304.5" y="74.7431">5</text><text fill="#000000" font-family="sans-serif" font-size="3.9" lengthAdjust="spacing" textLength="20.1" x="307.8" y="74.7431">repositories</text><polygon fill="#181818" points="521.1,84.5092,524.1,85.7092,521.1,86.9092,522.3,85.7092" style="stroke:#181818;stroke-width:0.3;"/><line style="stroke:#181818;stroke-width:0.3;" x1="299.4" x2="522.9" y1="85.7092" y2="85.7092"/><text fill="#000000" font-family="sans-serif" font-size="3.9" font-weight="bold" lengthAdjust="spacing" textLength="2.1" x="301.5" y="84.1304">6</text><text fill="#000000" font-family="sans-serif" font-size="3.9" lengthAdjust="spacing" textLength="36" x="304.8" y="84.1304">getSkillsRepository()</text><polygon fill="#181818" points="302.7,93.8965,299.7,95.0965,302.7,96.2965,301.5,95.0965" style="stroke:#181818;stroke-width:0.3;"/><line style="stroke:#181818;stroke-width:0.3;stroke-dasharray:2.0,2.0;" x1="300.9" x2="525.9" y1="95.0965" y2="95.0965"/><text fill="#000000" font-family="sans-serif" font-size="3.9" font-weight="bold" lengthAdjust="spacing" textLength="2.1" x="304.5" y="93.5177">7</text><text fill="#000000" font-family="sans-serif" font-size="3.9" lengthAdjust="spacing" textLength="26.1" x="307.8" y="93.5177">SkillRepository</text><polygon fill="#181818" points="628.35,103.2838,631.35,104.4838,628.35,105.6838,629.55,104.4838" style="stroke:#181818;stroke-width:0.3;"/><line style="stroke:#181818;stroke-width:0.3;" x1="299.4" x2="630.15" y1="104.4838" y2="104.4838"/><text fill="#000000" font-family="sans-serif" font-size="3.9" font-weight="bold" lengthAdjust="spacing" textLength="2.1" x="301.5" y="102.905">8</text><text fill="#000000" font-family="sans-serif" font-size="3.9" lengthAdjust="spacing" textLength="17.4" x="304.8" y="102.905">getSkills()</text><polygon fill="#181818" points="302.7,112.6711,299.7,113.8711,302.7,115.0711,301.5,113.8711" style="stroke:#181818;stroke-width:0.3;"/><line style="stroke:#181818;stroke-width:0.3;stroke-dasharray:2.0,2.0;" x1="300.9" x2="633.15" y1="113.8711" y2="113.8711"/><text fill="#000000" font-family="sans-serif" font-size="3.9" font-weight="bold" lengthAdjust="spacing" textLength="2.1" x="304.5" y="112.2923">9</text><text fill="#000000" font-family="sans-serif" font-size="3.9" lengthAdjust="spacing" textLength="32.4" x="307.8" y="112.2923">SkillRepositoryList</text><polygon fill="#181818" points="173.4,122.0584,170.4,123.2584,173.4,124.4584,172.2,123.2584" style="stroke:#181818;stroke-width:0.3;"/><line style="stroke:#181818;stroke-width:0.3;stroke-dasharray:2.0,2.0;" x1="171.6" x2="297.6" y1="123.2584" y2="123.2584"/><text fill="#000000" font-family="sans-serif" font-size="3.9" font-weight="bold" lengthAdjust="spacing" textLength="4.2" x="175.2" y="121.6796">10</text><text fill="#000000" font-family="sans-serif" font-size="3.9" lengthAdjust="spacing" textLength="32.4" x="180.6" y="121.6796">SkillRepositoryList</text><polygon fill="#181818" points="38.1,136.633,35.1,137.833,38.1,139.033,36.9,137.833" style="stroke:#181818;stroke-width:0.3;"/><line style="stroke:#181818;stroke-width:0.3;stroke-dasharray:2.0,2.0;" x1="36.3" x2="168.3" y1="137.833" y2="137.833"/><text fill="#000000" font-family="sans-serif" font-size="3.9" font-weight="bold" lengthAdjust="spacing" textLength="4.2" x="39.9" y="133.6605">11</text><text fill="#000000" font-family="sans-serif" font-size="3.9" lengthAdjust="spacing" textLength="27.6" x="45.3" y="131.0669">shows skills list</text><text fill="#000000" font-family="sans-serif" font-size="3.9" lengthAdjust="spacing" textLength="39.6" x="46.5" y="136.2542">and asks to select one</text><path d="M3,142.333 L24.9,142.333 L24.9,145.1203 L21.9,148.1203 L3,148.1203 L3,142.333 " fill="#EEEEEE" style="stroke:#000000;stroke-width:0.44999999999999996;"/><rect fill="none" height="43.3365" style="stroke:#000000;stroke-width:0.44999999999999996;" width="187.5" x="3" y="142.333"/><text fill="#000000" font-family="sans-serif" font-size="3.9" font-weight="bold" lengthAdjust="spacing" textLength="8.4" x="7.5" y="146.8415">loop</text><text fill="#000000" font-family="sans-serif" font-size="3.3" font-weight="bold" lengthAdjust="spacing" textLength="24.9" x="29.4" y="146.494">[[for each skill]</text><polygon fill="#181818" points="163.5,153.9076,166.5,155.1076,163.5,156.3076,164.7,155.1076" style="stroke:#181818;stroke-width:0.3;"/><line style="stroke:#181818;stroke-width:0.3;" x1="34.8" x2="165.3" y1="155.1076" y2="155.1076"/><text fill="#000000" font-family="sans-serif" font-size="3.9" font-weight="bold" lengthAdjust="spacing" textLength="4.2" x="36.9" y="153.5288">12</text><text fill="#000000" font-family="sans-serif" font-size="3.9" lengthAdjust="spacing" textLength="24" x="42.3" y="153.5288">selects a skill</text><polygon fill="#181818" points="38.1,163.2949,35.1,164.4949,38.1,165.6949,36.9,164.4949" style="stroke:#181818;stroke-width:0.3;"/><line style="stroke:#181818;stroke-width:0.3;stroke-dasharray:2.0,2.0;" x1="36.3" x2="168.3" y1="164.4949" y2="164.4949"/><text fill="#000000" font-family="sans-serif" font-size="3.9" font-weight="bold" lengthAdjust="spacing" textLength="4.2" x="39.9" y="162.9161">13</text><text fill="#000000" font-family="sans-serif" font-size="3.9" lengthAdjust="spacing" textLength="23.7" x="45.3" y="162.9161">requests data</text><polygon fill="#181818" points="163.5,172.6822,166.5,173.8822,163.5,175.0822,164.7,173.8822" style="stroke:#181818;stroke-width:0.3;"/><line style="stroke:#181818;stroke-width:0.3;" x1="34.8" x2="165.3" y1="173.8822" y2="173.8822"/><text fill="#000000" font-family="sans-serif" font-size="3.9" font-weight="bold" lengthAdjust="spacing" textLength="4.2" x="36.9" y="172.3034">14</text><text fill="#000000" font-family="sans-serif" font-size="3.9" lengthAdjust="spacing" textLength="121.2" x="42.3" y="172.3034">types requested data (minimumCollaborators, maximumCollaborators)</text><polygon fill="#181818" points="38.1,182.0695,35.1,183.2695,38.1,184.4695,36.9,183.2695" style="stroke:#181818;stroke-width:0.3;"/><line style="stroke:#181818;stroke-width:0.3;stroke-dasharray:2.0,2.0;" x1="36.3" x2="168.3" y1="183.2695" y2="183.2695"/><text fill="#000000" font-family="sans-serif" font-size="3.9" font-weight="bold" lengthAdjust="spacing" textLength="4.2" x="39.9" y="181.6907">15</text><text fill="#000000" font-family="sans-serif" font-size="3.9" lengthAdjust="spacing" textLength="30.6" x="45.3" y="181.6907">shows typed data</text><polygon fill="#181818" points="163.5,193.5568,166.5,194.7568,163.5,195.9568,164.7,194.7568" style="stroke:#181818;stroke-width:0.3;"/><line style="stroke:#181818;stroke-width:0.3;" x1="34.8" x2="165.3" y1="194.7568" y2="194.7568"/><text fill="#000000" font-family="sans-serif" font-size="3.9" font-weight="bold" lengthAdjust="spacing" textLength="4.2" x="36.9" y="193.178">16</text><text fill="#000000" font-family="sans-serif" font-size="3.9" lengthAdjust="spacing" textLength="45.9" x="42.3" y="193.178">confirms and submits data</text><polygon fill="#181818" points="292.8,202.9441,295.8,204.1441,292.8,205.3441,294,204.1441" style="stroke:#181818;stroke-width:0.3;"/><line style="stroke:#181818;stroke-width:0.3;" x1="168.6" x2="294.6" y1="204.1441" y2="204.1441"/><text fill="#000000" font-family="sans-serif" font-size="3.9" font-weight="bold" lengthAdjust="spacing" textLength="4.2" x="170.7" y="202.5653">17</text><text fill="#000000" font-family="sans-serif" font-size="3.9" lengthAdjust="spacing" textLength="115.2" x="176.1" y="202.5653">createTeam(skills, minimumCollaborators, maximumCollaborators)</text><polygon fill="#181818" points="424.8,212.3314,427.8,213.5314,424.8,214.7314,426,213.5314" style="stroke:#181818;stroke-width:0.3;"/><line style="stroke:#181818;stroke-width:0.3;" x1="297.9" x2="426.6" y1="213.5314" y2="213.5314"/><text fill="#000000" font-family="sans-serif" font-size="3.9" font-weight="bold" lengthAdjust="spacing" textLength="4.2" x="300" y="211.9526">18</text><text fill="#000000" font-family="sans-serif" font-size="3.9" lengthAdjust="spacing" textLength="117.9" x="305.4" y="211.9526">teamCreation(skills, minimumCollaborators, maximumCollaborators)</text><polygon fill="#181818" points="489,221.7188,492,222.9188,489,224.1188,490.2,222.9188" style="stroke:#181818;stroke-width:0.3;"/><line style="stroke:#181818;stroke-width:0.3;" x1="432.9" x2="490.8" y1="222.9188" y2="222.9188"/><text fill="#000000" font-family="sans-serif" font-size="3.9" font-weight="bold" lengthAdjust="spacing" textLength="4.2" x="435" y="221.3399">19</text><text fill="#000000" font-family="sans-serif" font-size="3.9" lengthAdjust="spacing" textLength="22.5" x="440.4" y="221.3399">getInstance()</text><polygon fill="#181818" points="436.2,231.1061,433.2,232.3061,436.2,233.5061,435,232.3061" style="stroke:#181818;stroke-width:0.3;"/><line style="stroke:#181818;stroke-width:0.3;stroke-dasharray:2.0,2.0;" x1="434.4" x2="493.8" y1="232.3061" y2="232.3061"/><text fill="#000000" font-family="sans-serif" font-size="3.9" font-weight="bold" lengthAdjust="spacing" textLength="4.2" x="438" y="230.7272">20</text><text fill="#000000" font-family="sans-serif" font-size="3.9" lengthAdjust="spacing" textLength="20.1" x="443.4" y="230.7272">repositories</text><polygon fill="#181818" points="521.1,240.4934,524.1,241.6934,521.1,242.8934,522.3,241.6934" style="stroke:#181818;stroke-width:0.3;"/><line style="stroke:#181818;stroke-width:0.3;" x1="432.9" x2="522.9" y1="241.6934" y2="241.6934"/><text fill="#000000" font-family="sans-serif" font-size="3.9" font-weight="bold" lengthAdjust="spacing" textLength="4.2" x="435" y="240.1146">21</text><text fill="#000000" font-family="sans-serif" font-size="3.9" lengthAdjust="spacing" textLength="47.1" x="440.4" y="240.1146">getCollaboratorRepository()</text><polygon fill="#181818" points="436.2,249.8807,433.2,251.0807,436.2,252.2807,435,251.0807" style="stroke:#181818;stroke-width:0.3;"/><line style="stroke:#181818;stroke-width:0.3;" x1="434.4" x2="525.9" y1="251.0807" y2="251.0807"/><text fill="#000000" font-family="sans-serif" font-size="3.9" font-weight="bold" lengthAdjust="spacing" textLength="4.2" x="438" y="249.5019">22</text><text fill="#000000" font-family="sans-serif" font-size="3.9" lengthAdjust="spacing" textLength="39.3" x="443.4" y="249.5019">CollaboratorRepository</text><path d="M418.8,255.5807 L440.7,255.5807 L440.7,258.368 L437.7,261.368 L418.8,261.368 L418.8,255.5807 " fill="#EEEEEE" style="stroke:#000000;stroke-width:0.44999999999999996;"/><rect fill="none" height="56.6238" style="stroke:#000000;stroke-width:0.44999999999999996;" width="234.3" x="418.8" y="255.5807"/><text fill="#000000" font-family="sans-serif" font-size="3.9" font-weight="bold" lengthAdjust="spacing" textLength="8.4" x="423.3" y="260.0892">loop</text><text fill="#000000" font-family="sans-serif" font-size="3.3" font-weight="bold" lengthAdjust="spacing" textLength="37.2" x="445.2" y="259.7417">[for each Collaborator]</text><polygon fill="#181818" points="563.25,267.1553,566.25,268.3553,563.25,269.5553,564.45,268.3553" style="stroke:#181818;stroke-width:0.3;"/><line style="stroke:#181818;stroke-width:0.3;" x1="432.9" x2="565.05" y1="268.3553" y2="268.3553"/><text fill="#000000" font-family="sans-serif" font-size="3.9" font-weight="bold" lengthAdjust="spacing" textLength="4.2" x="435" y="266.7765">23</text><text fill="#000000" font-family="sans-serif" font-size="3.9" lengthAdjust="spacing" textLength="49.8" x="440.4" y="266.7765">getCollaboratorBySkill(skills)</text><polygon fill="#181818" points="628.35,276.5426,631.35,277.7426,628.35,278.9426,629.55,277.7426" style="stroke:#181818;stroke-width:0.3;"/><line style="stroke:#181818;stroke-width:0.3;" x1="569.85" x2="630.15" y1="277.7426" y2="277.7426"/><text fill="#000000" font-family="sans-serif" font-size="3.9" font-weight="bold" lengthAdjust="spacing" textLength="4.2" x="571.95" y="276.1638">24</text><text fill="#000000" font-family="sans-serif" font-size="3.9" lengthAdjust="spacing" textLength="51" x="577.35" y="276.1638">getSkillsOfCollaborator(skills)</text><polygon fill="#181818" points="573.15,285.9299,570.15,287.1299,573.15,288.3299,571.95,287.1299" style="stroke:#181818;stroke-width:0.3;"/><line style="stroke:#181818;stroke-width:0.3;" x1="571.35" x2="633.15" y1="287.1299" y2="287.1299"/><text fill="#000000" font-family="sans-serif" font-size="3.9" font-weight="bold" lengthAdjust="spacing" textLength="4.2" x="574.95" y="285.5511">25</text><text fill="#000000" font-family="sans-serif" font-size="3.9" lengthAdjust="spacing" textLength="15.9" x="580.35" y="285.5511">true/false</text><polygon fill="#181818" points="436.2,295.3172,433.2,296.5172,436.2,297.7172,435,296.5172" style="stroke:#181818;stroke-width:0.3;"/><line style="stroke:#181818;stroke-width:0.3;stroke-dasharray:2.0,2.0;" x1="434.4" x2="568.05" y1="296.5172" y2="296.5172"/><text fill="#000000" font-family="sans-serif" font-size="3.9" font-weight="bold" lengthAdjust="spacing" textLength="4.2" x="438" y="294.9384">26</text><text fill="#000000" font-family="sans-serif" font-size="3.9" lengthAdjust="spacing" textLength="15.9" x="443.4" y="294.9384">true/false</text><line style="stroke:#181818;stroke-width:0.3;stroke-dasharray:2.0,2.0;" x1="432.9" x2="445.5" y1="307.4045" y2="307.4045"/><line style="stroke:#181818;stroke-width:0.3;stroke-dasharray:2.0,2.0;" x1="445.5" x2="445.5" y1="307.4045" y2="311.3045"/><line style="stroke:#181818;stroke-width:0.3;stroke-dasharray:2.0,2.0;" x1="431.4" x2="445.5" y1="311.3045" y2="311.3045"/><polygon fill="#181818" points="434.4,310.1045,431.4,311.3045,434.4,312.5045,433.2,311.3045" style="stroke:#181818;stroke-width:0.3;"/><text fill="#000000" font-family="sans-serif" font-size="3.9" font-weight="bold" lengthAdjust="spacing" textLength="4.2" x="435" y="305.8257">27</text><text fill="#000000" font-family="sans-serif" font-size="3.9" lengthAdjust="spacing" textLength="50.1" x="440.4" y="305.8257">addCollaborator(Collaborator)</text><polygon fill="#181818" points="302.7,320.0918,299.7,321.2918,302.7,322.4918,301.5,321.2918" style="stroke:#181818;stroke-width:0.3;"/><line style="stroke:#181818;stroke-width:0.3;stroke-dasharray:2.0,2.0;" x1="300.9" x2="429.6" y1="321.2918" y2="321.2918"/><text fill="#000000" font-family="sans-serif" font-size="3.9" font-weight="bold" lengthAdjust="spacing" textLength="4.2" x="304.5" y="319.713">28</text><text fill="#000000" font-family="sans-serif" font-size="3.9" lengthAdjust="spacing" textLength="26.1" x="309.9" y="319.713">Team Proposal</text><polygon fill="#181818" points="173.4,329.4791,170.4,330.6791,173.4,331.8791,172.2,330.6791" style="stroke:#181818;stroke-width:0.3;"/><line style="stroke:#181818;stroke-width:0.3;" x1="171.6" x2="297.6" y1="330.6791" y2="330.6791"/><text fill="#000000" font-family="sans-serif" font-size="3.9" font-weight="bold" lengthAdjust="spacing" textLength="4.2" x="175.2" y="329.1003">29</text><text fill="#000000" font-family="sans-serif" font-size="3.9" lengthAdjust="spacing" textLength="26.1" x="180.6" y="329.1003">Team Proposal</text><polygon fill="#181818" points="38.1,338.8664,35.1,340.0664,38.1,341.2664,36.9,340.0664" style="stroke:#181818;stroke-width:0.3;"/><line style="stroke:#181818;stroke-width:0.3;" x1="36.3" x2="168.3" y1="340.0664" y2="340.0664"/><text fill="#000000" font-family="sans-serif" font-size="3.9" font-weight="bold" lengthAdjust="spacing" textLength="4.2" x="39.9" y="338.4876">30</text><text fill="#000000" font-family="sans-serif" font-size="3.9" lengthAdjust="spacing" textLength="62.1" x="45.3" y="338.4876">Show team and ask for confirmation</text><path d="M3,344.5664 L21.3,344.5664 L21.3,347.3537 L18.3,350.3537 L3,350.3537 L3,344.5664 " fill="#EEEEEE" style="stroke:#000000;stroke-width:0.44999999999999996;"/><rect fill="none" height="151.4842" style="stroke:#000000;stroke-width:0.44999999999999996;" width="689.7" x="3" y="344.5664"/><text fill="#000000" font-family="sans-serif" font-size="3.9" font-weight="bold" lengthAdjust="spacing" textLength="4.8" x="7.5" y="349.0749">alt</text><text fill="#000000" font-family="sans-serif" font-size="3.3" font-weight="bold" lengthAdjust="spacing" textLength="38.1" x="25.8" y="348.7274">[accept team proposal]</text><polygon fill="#181818" points="163.5,356.141,166.5,357.341,163.5,358.541,164.7,357.341" style="stroke:#181818;stroke-width:0.3;"/><line style="stroke:#181818;stroke-width:0.3;" x1="34.8" x2="165.3" y1="357.341" y2="357.341"/><text fill="#000000" font-family="sans-serif" font-size="3.9" font-weight="bold" lengthAdjust="spacing" textLength="4.2" x="36.9" y="355.7622">31</text><text fill="#000000" font-family="sans-serif" font-size="3.9" lengthAdjust="spacing" textLength="21.6" x="42.3" y="355.7622">accept team</text><polygon fill="#181818" points="292.8,365.5283,295.8,366.7283,292.8,367.9283,294,366.7283" style="stroke:#181818;stroke-width:0.3;"/><line style="stroke:#181818;stroke-width:0.3;" x1="168.6" x2="294.6" y1="366.7283" y2="366.7283"/><text fill="#000000" font-family="sans-serif" font-size="3.9" font-weight="bold" lengthAdjust="spacing" textLength="4.2" x="170.7" y="365.1495">32</text><text fill="#000000" font-family="sans-serif" font-size="3.9" lengthAdjust="spacing" textLength="38.1" x="176.1" y="365.1495">acceptTeamCreation()</text><polygon fill="#181818" points="424.8,374.9156,427.8,376.1156,424.8,377.3156,426,376.1156" style="stroke:#181818;stroke-width:0.3;"/><line style="stroke:#181818;stroke-width:0.3;" x1="299.4" x2="426.6" y1="376.1156" y2="376.1156"/><text fill="#000000" font-family="sans-serif" font-size="3.9" font-weight="bold" lengthAdjust="spacing" textLength="4.2" x="301.5" y="374.5368">33</text><text fill="#000000" font-family="sans-serif" font-size="3.9" lengthAdjust="spacing" textLength="38.1" x="306.9" y="374.5368">acceptTeamCreation()</text><polygon fill="#181818" points="649.5,384.3029,652.5,385.5029,649.5,386.7029,650.7,385.5029" style="stroke:#181818;stroke-width:0.3;"/><line style="stroke:#181818;stroke-width:0.3;" x1="431.4" x2="651.3" y1="385.5029" y2="385.5029"/><text fill="#000000" font-family="sans-serif" font-size="3.9" font-weight="bold" lengthAdjust="spacing" textLength="4.2" x="433.5" y="383.9241">34</text><text fill="#000000" font-family="sans-serif" font-size="3.9" lengthAdjust="spacing" textLength="18.3" x="438.9" y="383.9241">addTeam()</text><rect fill="#E3E3E3" height="15.3727" rx="0.75" ry="0.75" style="stroke:#181818;stroke-width:0.15;" width="36.6" x="653.1" y="378.5156"/><text fill="#000000" font-family="sans-serif" font-size="4.2" lengthAdjust="spacing" textLength="32.4" x="655.2" y="385.1479">TeamRepository:</text><text fill="#000000" font-family="sans-serif" font-size="4.2" lengthAdjust="spacing" textLength="31.2" x="655.8" y="390.7342">TeamRepository</text><polygon fill="#181818" points="434.7,402.9756,431.7,404.1756,434.7,405.3756,433.5,404.1756" style="stroke:#181818;stroke-width:0.3;"/><line style="stroke:#181818;stroke-width:0.3;" x1="432.9" x2="671.1" y1="404.1756" y2="404.1756"/><text fill="#000000" font-family="sans-serif" font-size="3.9" font-weight="bold" lengthAdjust="spacing" textLength="4.2" x="436.5" y="402.5968">35</text><text fill="#000000" font-family="sans-serif" font-size="3.9" lengthAdjust="spacing" textLength="19.8" x="441.9" y="402.5968">teamAdded</text><polygon fill="#181818" points="302.7,412.3629,299.7,413.5629,302.7,414.7629,301.5,413.5629" style="stroke:#181818;stroke-width:0.3;"/><line style="stroke:#181818;stroke-width:0.3;" x1="300.9" x2="429.6" y1="413.5629" y2="413.5629"/><text fill="#000000" font-family="sans-serif" font-size="3.9" font-weight="bold" lengthAdjust="spacing" textLength="4.2" x="304.5" y="411.9841">36</text><text fill="#000000" font-family="sans-serif" font-size="3.9" lengthAdjust="spacing" textLength="42.3" x="309.9" y="411.9841">teamCreationSuccessful</text><polygon fill="#181818" points="173.4,421.7502,170.4,422.9502,173.4,424.1502,172.2,422.9502" style="stroke:#181818;stroke-width:0.3;"/><line style="stroke:#181818;stroke-width:0.3;" x1="171.6" x2="297.6" y1="422.9502" y2="422.9502"/><text fill="#000000" font-family="sans-serif" font-size="3.9" font-weight="bold" lengthAdjust="spacing" textLength="4.2" x="175.2" y="421.3714">37</text><text fill="#000000" font-family="sans-serif" font-size="3.9" lengthAdjust="spacing" textLength="43.5" x="180.6" y="421.3714">team creation successful</text><polygon fill="#181818" points="38.1,431.1375,35.1,432.3375,38.1,433.5375,36.9,432.3375" style="stroke:#181818;stroke-width:0.3;"/><line style="stroke:#181818;stroke-width:0.3;" x1="36.3" x2="168.3" y1="432.3375" y2="432.3375"/><text fill="#000000" font-family="sans-serif" font-size="3.9" font-weight="bold" lengthAdjust="spacing" textLength="4.2" x="39.9" y="430.7587">38</text><text fill="#000000" font-family="sans-serif" font-size="3.9" lengthAdjust="spacing" textLength="43.5" x="45.3" y="430.7587">team creation successful</text><line style="stroke:#000000;stroke-width:0.3;stroke-dasharray:2.0,2.0;" x1="3" x2="692.7" y1="435.0375" y2="435.0375"/><text fill="#000000" font-family="sans-serif" font-size="3.3" font-weight="bold" lengthAdjust="spacing" textLength="38.4" x="4.5" y="438.5985">[refuse team proposal]</text><polygon fill="#181818" points="163.5,445.5141,166.5,446.7141,163.5,447.9141,164.7,446.7141" style="stroke:#181818;stroke-width:0.3;"/><line style="stroke:#181818;stroke-width:0.3;" x1="34.8" x2="165.3" y1="446.7141" y2="446.7141"/><text fill="#000000" font-family="sans-serif" font-size="3.9" font-weight="bold" lengthAdjust="spacing" textLength="4.2" x="36.9" y="445.1353">39</text><text fill="#000000" font-family="sans-serif" font-size="3.9" lengthAdjust="spacing" textLength="20.4" x="42.3" y="445.1353">refuse team</text><polygon fill="#181818" points="292.8,454.9014,295.8,456.1014,292.8,457.3014,294,456.1014" style="stroke:#181818;stroke-width:0.3;"/><line style="stroke:#181818;stroke-width:0.3;" x1="168.6" x2="294.6" y1="456.1014" y2="456.1014"/><text fill="#000000" font-family="sans-serif" font-size="3.9" font-weight="bold" lengthAdjust="spacing" textLength="4.2" x="170.7" y="454.5226">40</text><text fill="#000000" font-family="sans-serif" font-size="3.9" lengthAdjust="spacing" textLength="36" x="176.1" y="454.5226">rejectTeamCreation()</text><polygon fill="#181818" points="424.8,464.2887,427.8,465.4887,424.8,466.6887,426,465.4887" style="stroke:#181818;stroke-width:0.3;"/><line style="stroke:#181818;stroke-width:0.3;" x1="299.4" x2="426.6" y1="465.4887" y2="465.4887"/><text fill="#000000" font-family="sans-serif" font-size="3.9" font-weight="bold" lengthAdjust="spacing" textLength="4.2" x="301.5" y="463.9099">41</text><text fill="#000000" font-family="sans-serif" font-size="3.9" lengthAdjust="spacing" textLength="36" x="306.9" y="463.9099">rejectTeamCreation()</text><polygon fill="#181818" points="302.7,473.676,299.7,474.876,302.7,476.076,301.5,474.876" style="stroke:#181818;stroke-width:0.3;"/><line style="stroke:#181818;stroke-width:0.3;" x1="300.9" x2="429.6" y1="474.876" y2="474.876"/><text fill="#000000" font-family="sans-serif" font-size="3.9" font-weight="bold" lengthAdjust="spacing" textLength="4.2" x="304.5" y="473.2972">42</text><text fill="#000000" font-family="sans-serif" font-size="3.9" lengthAdjust="spacing" textLength="39" x="309.9" y="473.2972">teamDeleteSuccessful</text><polygon fill="#181818" points="173.4,483.0633,170.4,484.2633,173.4,485.4633,172.2,484.2633" style="stroke:#181818;stroke-width:0.3;"/><line style="stroke:#181818;stroke-width:0.3;" x1="171.6" x2="297.6" y1="484.2633" y2="484.2633"/><text fill="#000000" font-family="sans-serif" font-size="3.9" font-weight="bold" lengthAdjust="spacing" textLength="4.2" x="175.2" y="482.6845">43</text><text fill="#000000" font-family="sans-serif" font-size="3.9" lengthAdjust="spacing" textLength="39" x="180.6" y="482.6845">teamDeleteSuccessful</text><polygon fill="#181818" points="38.1,492.4506,35.1,493.6506,38.1,494.8506,36.9,493.6506" style="stroke:#181818;stroke-width:0.3;"/><line style="stroke:#181818;stroke-width:0.3;" x1="36.3" x2="168.3" y1="493.6506" y2="493.6506"/><text fill="#000000" font-family="sans-serif" font-size="3.9" font-weight="bold" lengthAdjust="spacing" textLength="4.2" x="39.9" y="492.0718">44</text><text fill="#000000" font-family="sans-serif" font-size="3.9" lengthAdjust="spacing" textLength="40.2" x="45.3" y="492.0718">team delete successful</text><!--SRC=[hLXDJzmm4BtdLrXSO2jGxnmgKIeL950HR4_bOf9PrYMnKzifvTztx7pPZkDaQVV2hZ_Ul1dFlB5HBupNLDAAL8ABV2z51KJB1Z8rpDGqVw7FyA3VIY0ISatvS-akK7jQY5V6dycEbWgoZ3PQyAPw0fbbntjM0Da9eP_4dupcMaXoTDLKb9DxKAAHEIXoIpbQa4U4Ad9rVviXhcOvgodNvEZyAt2GLCCMQFNzsYxwVfrOSocubg8iEy3BxVrDiDgiidFcIp1t3xLG36aoK7RDCF3sm8pdw9k_HJex7laKuExcOkllk4Hsz4aWOI57-FD77fzetOXE-RWFBwmiFS1Wn285Opw4YOY7u0yCKNFsP-POsM-ClZsyZ7GV_47EFk5PaNFSzQA85kIvEoT22OTNeatyXmq331vlTaoS3sAS8TJ5brl4al2h0QKLAQYcv4J23YJm74v90IgNhDPCy5D26Dy9MT6IF79_HaE-vop76M-uQ92P_POBfJUPI-0ubs2OsMGAcNsomny-8BVUlsncaLsYxGce4z_4uBsruKsPZzsDA95qR46lkSBIp260zQ1ZkJnPRJunAsUT3-O4nXIVR2_WC7EzOwPCtF2CcrCUsUAAkc3nHivXrYTenp5xdW5GuaGzeg7zAESG-snCcs3gXYcTyc7HNEjENvzBw0xoD3sxwZJrVexTGBmgecmyI8auM7sK5uC2A2YnXn318Ok0cyetGwKGDVc1zKjmRj_2HOMbXLEe9_wQ2MAKh2SbAJwXMVrMOz_gjaFHIL75EAkQofLgTKeg-cSokZcGQ1jLOxLOv0gyoDflBkDSy1sJbRA7ePgdYhbkHrbuijKAe97-a_PmqR5tk3iJsqHszNLdJ9l8cmvlkA1I_oyclj5XsDuEffLZYVoh4c-zplTlOfqIR6DdGR3V8zfk74RXZjzH8c5OAU6ZZ0_7FtCDMl1fteGLca5dNFHPHhtVSIhJI7n-i-hQ9Ujc5dTCnxYFinjjbSJ9fFlLjvsxRP7WuVqisTiI4JHFa8_jQo85UKY_MnCiHsMM2RZwiJufnmGQZT6YyCx1_R5PIcqh9B4rOnkOjTz9k_rz9mKIfsMMiZChs575jdrd5VYC0CTQeks8U671XcXxGN-vi4NSDJdR7EPi8QYNqAL6WpdKkeMhUwhJs7aFcd7BlCY7_2TDjKNPkYrjaxhL1TmFU3RqgHOp-9ukrOkW_nQqRo1CPtjDM93zy1KvPyMN3ESMS54KKAmfZqH93bhUdeTxkNXeC5PAxPeoExJyl0AmMPLte7ZpMeCwUMQkJAlsilWUYq5c0IeVtXfs3Vxnoo9H4yxwx03kNaL8-8dt-NH5pDmXLnL4K0zhpAMh8P91N_1Dec4-VnRIPv8z1-354cSvzaxQ5DPM8caIESFRQWoEn_bf_Ztq5m00]--></g></svg>