<?xml version="1.0" encoding="us-ascii" standalone="no"?><svg xmlns="http://www.w3.org/2000/svg" xmlns:xlink="http://www.w3.org/1999/xlink" contentStyleType="text/css" height="300px" preserveAspectRatio="none" style="width:721px;height:300px;background:#FFFFFF;" version="1.1" viewBox="0 0 721 300" width="721px" zoomAndPan="magnify"><defs/><g><rect fill="#FFFFFF" height="155.6641" style="stroke:#181818;stroke-width:1.0;" width="10" x="342" y="83.7266"/><rect fill="#FFFFFF" height="29.1328" style="stroke:#181818;stroke-width:1.0;" width="10" x="529.5" y="136.9922"/><rect fill="#FFFFFF" height="29.1328" style="stroke:#181818;stroke-width:1.0;" width="10" x="646.5" y="195.2578"/><rect fill="none" height="133.6641" style="stroke:#000000;stroke-width:1.5;" width="502" x="213" y="98.7266"/><line style="stroke:#181818;stroke-width:0.5;stroke-dasharray:5.0,5.0;" x1="347" x2="347" y1="52.5938" y2="249.3906"/><line style="stroke:#181818;stroke-width:0.5;stroke-dasharray:5.0,5.0;" x1="534" x2="534" y1="52.5938" y2="249.3906"/><line style="stroke:#181818;stroke-width:0.5;stroke-dasharray:5.0,5.0;" x1="651" x2="651" y1="52.5938" y2="249.3906"/><rect fill="#E3E3E3" height="30.2969" rx="2.5" ry="2.5" style="stroke:#181818;stroke-width:0.5;" width="248" x="223" y="21.2969"/><text fill="#000000" font-family="sans-serif" font-size="14" lengthAdjust="spacing" textLength="234" x="230" y="41.292">:AssignSkillCollaboratoController</text><rect fill="#E3E3E3" height="30.2969" rx="2.5" ry="2.5" style="stroke:#181818;stroke-width:0.5;" width="248" x="223" y="248.3906"/><text fill="#000000" font-family="sans-serif" font-size="14" lengthAdjust="spacing" textLength="234" x="230" y="268.3857">:AssignSkillCollaboratoController</text><rect fill="#E3E3E3" height="30.2969" rx="2.5" ry="2.5" style="stroke:#181818;stroke-width:0.5;" width="107" x="481" y="21.2969"/><text fill="#000000" font-family="sans-serif" font-size="14" lengthAdjust="spacing" textLength="93" x="488" y="41.292">:Repositories</text><rect fill="#E3E3E3" height="30.2969" rx="2.5" ry="2.5" style="stroke:#181818;stroke-width:0.5;" width="107" x="481" y="248.3906"/><text fill="#000000" font-family="sans-serif" font-size="14" lengthAdjust="spacing" textLength="93" x="488" y="268.3857">:Repositories</text><rect fill="#E3E3E3" height="46.5938" rx="2.5" ry="2.5" style="stroke:#181818;stroke-width:0.5;" width="107" x="598" y="5"/><text fill="#000000" font-family="sans-serif" font-size="14" lengthAdjust="spacing" textLength="84" x="609.5" y="24.9951">repositories</text><text fill="#000000" font-family="sans-serif" font-size="14" lengthAdjust="spacing" textLength="93" x="605" y="41.292">:Repositories</text><rect fill="#E3E3E3" height="46.5938" rx="2.5" ry="2.5" style="stroke:#181818;stroke-width:0.5;" width="107" x="598" y="248.3906"/><text fill="#000000" font-family="sans-serif" font-size="14" lengthAdjust="spacing" textLength="84" x="609.5" y="268.3857">repositories</text><text fill="#000000" font-family="sans-serif" font-size="14" lengthAdjust="spacing" textLength="93" x="605" y="284.6826">:Repositories</text><rect fill="#FFFFFF" height="155.6641" style="stroke:#181818;stroke-width:1.0;" width="10" x="342" y="83.7266"/><rect fill="#FFFFFF" height="29.1328" style="stroke:#181818;stroke-width:1.0;" width="10" x="529.5" y="136.9922"/><rect fill="#FFFFFF" height="29.1328" style="stroke:#181818;stroke-width:1.0;" width="10" x="646.5" y="195.2578"/><polygon fill="#181818" points="330,79.7266,340,83.7266,330,87.7266,334,83.7266" style="stroke:#181818;stroke-width:1.0;"/><line style="stroke:#181818;stroke-width:1.0;" x1="0" x2="336" y1="83.7266" y2="83.7266"/><text fill="#000000" font-family="sans-serif" font-size="13" font-weight="bold" lengthAdjust="spacing" textLength="9" x="7" y="78.6606">3</text><text fill="#000000" font-family="sans-serif" font-size="13" lengthAdjust="spacing" textLength="310" x="20" y="78.6606">assignSkillCollaboratorById(collaboratorId,skill)</text><path d="M213,98.7266 L462,98.7266 L462,105.8594 L452,115.8594 L213,115.8594 L213,98.7266 " fill="#EEEEEE" style="stroke:#000000;stroke-width:1.5;"/><rect fill="none" height="133.6641" style="stroke:#000000;stroke-width:1.5;" width="502" x="213" y="98.7266"/><text fill="#000000" font-family="sans-serif" font-size="13" font-weight="bold" lengthAdjust="spacing" textLength="204" x="228" y="111.7935">Get Collaborator Repository</text><polygon fill="#181818" points="517.5,132.9922,527.5,136.9922,517.5,140.9922,521.5,136.9922" style="stroke:#181818;stroke-width:1.0;"/><line style="stroke:#181818;stroke-width:1.0;" x1="352" x2="523.5" y1="136.9922" y2="136.9922"/><text fill="#000000" font-family="sans-serif" font-size="13" font-weight="bold" lengthAdjust="spacing" textLength="23" x="359" y="131.9263">3.1</text><text fill="#000000" font-family="sans-serif" font-size="13" lengthAdjust="spacing" textLength="86" x="386" y="131.9263">getInstance()</text><polygon fill="#181818" points="363,162.125,353,166.125,363,170.125,359,166.125" style="stroke:#181818;stroke-width:1.0;"/><line style="stroke:#181818;stroke-width:1.0;stroke-dasharray:2.0,2.0;" x1="357" x2="533.5" y1="166.125" y2="166.125"/><text fill="#000000" font-family="sans-serif" font-size="13" font-weight="bold" lengthAdjust="spacing" textLength="23" x="369" y="161.0591">3.2</text><text fill="#000000" font-family="sans-serif" font-size="13" lengthAdjust="spacing" textLength="77" x="396" y="161.0591">repositories</text><polygon fill="#181818" points="634.5,191.2578,644.5,195.2578,634.5,199.2578,638.5,195.2578" style="stroke:#181818;stroke-width:1.0;"/><line style="stroke:#181818;stroke-width:1.0;" x1="352" x2="640.5" y1="195.2578" y2="195.2578"/><text fill="#000000" font-family="sans-serif" font-size="13" font-weight="bold" lengthAdjust="spacing" textLength="23" x="359" y="190.1919">3.3</text><text fill="#000000" font-family="sans-serif" font-size="13" lengthAdjust="spacing" textLength="181" x="386" y="190.1919">getCollaboratorRepository()</text><polygon fill="#181818" points="363,220.3906,353,224.3906,363,228.3906,359,224.3906" style="stroke:#181818;stroke-width:1.0;"/><line style="stroke:#181818;stroke-width:1.0;stroke-dasharray:2.0,2.0;" x1="357" x2="650.5" y1="224.3906" y2="224.3906"/><text fill="#000000" font-family="sans-serif" font-size="13" font-weight="bold" lengthAdjust="spacing" textLength="23" x="369" y="219.3247">3.4</text><text fill="#000000" font-family="sans-serif" font-size="13" lengthAdjust="spacing" textLength="150" x="396" y="219.3247">CollaboratorRepository</text><!--SRC=[ZL4zRy8m4DtzAqui1QbKgjg9eH9bg90OAc3iSZX7i71yaNrfox-la_3Xq21nYsNxlNVlteMzSILwBA1WnthdkI0GNv4AvvyIzHvpMid14dZIWYwtAI3iCECVutBOeWsa55R2hYesv9Lws9cCOCii6_vLAZB4Q5EY4nXCfY6OtAtsnjePMuiRzYWyOoS-NiaF00FCril55Mz99GSZx0s51dD-EAnCxIxsxr9ymlXo_mK-5zDrQXnUb8BnMzCS9X7HPzI_7-RPK2SFy-mnrA1HH-hfMQ4Myur2xJGGA_TSbV110gbYCebI3UvKZPFeg6VKQ30dcRiGLwDfEEhmpftxCkeWw-fJ7nzpc42QOeUQqVrjJeFKaRVEqm0kz5jpjAkwDjweNPpsIzxot4eU0oUNDMUomLULW9iDgZy0]--></g></svg>