<?xml version="1.0" encoding="us-ascii" standalone="no"?><svg xmlns="http://www.w3.org/2000/svg" xmlns:xlink="http://www.w3.org/1999/xlink" contentStyleType="text/css" height="1290px" preserveAspectRatio="none" style="width:1619px;height:1290px;background:#FFFFFF;" version="1.1" viewBox="0 0 1619 1290" width="1619px" zoomAndPan="magnify"><defs/><g><rect fill="#FFFFFF" height="1096.2246" style="stroke:#181818;stroke-width:1.0;" width="10" x="106" y="93.6211"/><rect fill="#FFFFFF" height="31.291" style="stroke:#181818;stroke-width:1.0;" width="10" x="391" y="116.9121"/><rect fill="#FFFFFF" height="606.8594" style="stroke:#181818;stroke-width:1.0;" width="10" x="391" y="179.4941"/><rect fill="#FFFFFF" height="31.291" style="stroke:#181818;stroke-width:1.0;" width="10" x="391" y="875.2266"/><rect fill="#FFFFFF" height="252.0371" style="stroke:#181818;stroke-width:1.0;" width="10" x="391" y="937.8086"/><rect fill="#FFFFFF" height="219.0371" style="stroke:#181818;stroke-width:1.0;" width="10" x="858" y="254.4063"/><rect fill="#FFFFFF" height="219.0371" style="stroke:#181818;stroke-width:1.0;" width="10" x="858" y="536.0254"/><rect fill="#FFFFFF" height="182.4551" style="stroke:#181818;stroke-width:1.0;" width="10" x="858" y="976.0996"/><rect fill="#FFFFFF" height="31.291" style="stroke:#181818;stroke-width:1.0;" width="10" x="1029" y="285.6973"/><rect fill="#FFFFFF" height="31.291" style="stroke:#181818;stroke-width:1.0;" width="10" x="1029" y="567.3164"/><rect fill="#FFFFFF" height="31.291" style="stroke:#181818;stroke-width:1.0;" width="10" x="1136" y="348.2793"/><rect fill="#FFFFFF" height="31.291" style="stroke:#181818;stroke-width:1.0;" width="10" x="1136" y="629.8984"/><rect fill="#FFFFFF" height="31.291" style="stroke:#181818;stroke-width:1.0;" width="10" x="1276.5" y="410.8613"/><rect fill="#FFFFFF" height="119.873" style="stroke:#181818;stroke-width:1.0;" width="10" x="1276.5" y="1007.3906"/><rect fill="#FFFFFF" height="31.291" style="stroke:#181818;stroke-width:1.0;" width="10" x="1552.5" y="692.4805"/><rect fill="none" height="144.4551" style="stroke:#000000;stroke-width:1.5;" width="483.5" x="10" y="801.3535"/><line style="stroke:#181818;stroke-width:0.5;stroke-dasharray:5.0,5.0;" x1="111" x2="111" y1="83.6211" y2="1207.8457"/><line style="stroke:#181818;stroke-width:0.5;stroke-dasharray:5.0,5.0;" x1="395.5" x2="395.5" y1="83.6211" y2="1207.8457"/><line style="stroke:#181818;stroke-width:0.5;stroke-dasharray:5.0,5.0;" x1="862.5" x2="862.5" y1="219.3047" y2="1207.8457"/><line style="stroke:#181818;stroke-width:0.5;stroke-dasharray:5.0,5.0;" x1="1033.5" x2="1033.5" y1="83.6211" y2="1207.8457"/><line style="stroke:#181818;stroke-width:0.5;stroke-dasharray:5.0,5.0;" x1="1140.5" x2="1140.5" y1="83.6211" y2="1207.8457"/><line style="stroke:#181818;stroke-width:0.5;stroke-dasharray:5.0,5.0;" x1="1281.5" x2="1281.5" y1="83.6211" y2="1207.8457"/><line style="stroke:#181818;stroke-width:0.5;stroke-dasharray:5.0,5.0;" x1="1557" x2="1557" y1="83.6211" y2="1207.8457"/><text fill="#000000" font-family="sans-serif" font-size="14" lengthAdjust="spacing" textLength="176" x="20" y="80.1074">Human Resources Manager</text><ellipse cx="111" cy="13.5" fill="#E3E3E3" rx="8" ry="8" style="stroke:#181818;stroke-width:0.5;"/><path d="M111,21.5 L111,48.5 M98,29.5 L124,29.5 M111,48.5 L98,63.5 M111,48.5 L124,63.5 " fill="none" style="stroke:#181818;stroke-width:0.5;"/><text fill="#000000" font-family="sans-serif" font-size="14" lengthAdjust="spacing" textLength="176" x="20" y="1221.9531">Human Resources Manager</text><ellipse cx="111" cy="1233.9668" fill="#E3E3E3" rx="8" ry="8" style="stroke:#181818;stroke-width:0.5;"/><path d="M111,1241.9668 L111,1268.9668 M98,1249.9668 L124,1249.9668 M111,1268.9668 L98,1283.9668 M111,1268.9668 L124,1283.9668 " fill="none" style="stroke:#181818;stroke-width:0.5;"/><rect fill="#E3E3E3" height="32.6211" rx="2.5" ry="2.5" style="stroke:#181818;stroke-width:0.5;" width="175" x="308.5" y="50"/><text fill="#000000" font-family="sans-serif" font-size="14" lengthAdjust="spacing" textLength="161" x="315.5" y="72.1074">:AssignSkillCollaboratorUI</text><rect fill="#E3E3E3" height="32.6211" rx="2.5" ry="2.5" style="stroke:#181818;stroke-width:0.5;" width="175" x="308.5" y="1206.8457"/><text fill="#000000" font-family="sans-serif" font-size="14" lengthAdjust="spacing" textLength="161" x="315.5" y="1228.9531">:AssignSkillCollaboratorUI</text><rect fill="#E3E3E3" height="32.6211" rx="2.5" ry="2.5" style="stroke:#181818;stroke-width:0.5;" width="225" x="750.5" y="1206.8457"/><text fill="#000000" font-family="sans-serif" font-size="14" lengthAdjust="spacing" textLength="211" x="757.5" y="1228.9531">:AssignSkillCollaboratorController</text><rect fill="#E3E3E3" height="32.6211" rx="2.5" ry="2.5" style="stroke:#181818;stroke-width:0.5;" width="97" x="985.5" y="50"/><text fill="#000000" font-family="sans-serif" font-size="14" lengthAdjust="spacing" textLength="83" x="992.5" y="72.1074">:Repositories</text><rect fill="#E3E3E3" height="32.6211" rx="2.5" ry="2.5" style="stroke:#181818;stroke-width:0.5;" width="97" x="985.5" y="1206.8457"/><text fill="#000000" font-family="sans-serif" font-size="14" lengthAdjust="spacing" textLength="83" x="992.5" y="1228.9531">:Repositories</text><rect fill="#E3E3E3" height="51.2422" rx="2.5" ry="2.5" style="stroke:#181818;stroke-width:0.5;" width="97" x="1092.5" y="31.3789"/><text fill="#000000" font-family="sans-serif" font-size="14" lengthAdjust="spacing" textLength="74" x="1104" y="53.4863">repositories</text><text fill="#000000" font-family="sans-serif" font-size="14" lengthAdjust="spacing" textLength="83" x="1099.5" y="72.1074">:Repositories</text><rect fill="#E3E3E3" height="51.2422" rx="2.5" ry="2.5" style="stroke:#181818;stroke-width:0.5;" width="97" x="1092.5" y="1206.8457"/><text fill="#000000" font-family="sans-serif" font-size="14" lengthAdjust="spacing" textLength="74" x="1104" y="1228.9531">repositories</text><text fill="#000000" font-family="sans-serif" font-size="14" lengthAdjust="spacing" textLength="83" x="1099.5" y="1247.5742">:Repositories</text><rect fill="#E3E3E3" height="51.2422" rx="2.5" ry="2.5" style="stroke:#181818;stroke-width:0.5;" width="164" x="1199.5" y="31.3789"/><text fill="#000000" font-family="sans-serif" font-size="14" lengthAdjust="spacing" textLength="143" x="1210" y="53.4863">collaboratorRepository</text><text fill="#000000" font-family="sans-serif" font-size="14" lengthAdjust="spacing" textLength="150" x="1206.5" y="72.1074">:CollaboratorRepository</text><rect fill="#E3E3E3" height="51.2422" rx="2.5" ry="2.5" style="stroke:#181818;stroke-width:0.5;" width="164" x="1199.5" y="1206.8457"/><text fill="#000000" font-family="sans-serif" font-size="14" lengthAdjust="spacing" textLength="143" x="1210" y="1228.9531">collaboratorRepository</text><text fill="#000000" font-family="sans-serif" font-size="14" lengthAdjust="spacing" textLength="150" x="1206.5" y="1247.5742">:CollaboratorRepository</text><rect fill="#E3E3E3" height="51.2422" rx="2.5" ry="2.5" style="stroke:#181818;stroke-width:0.5;" width="111" x="1502" y="31.3789"/><text fill="#000000" font-family="sans-serif" font-size="14" lengthAdjust="spacing" textLength="91" x="1512" y="53.4863">skillRepository</text><text fill="#000000" font-family="sans-serif" font-size="14" lengthAdjust="spacing" textLength="97" x="1509" y="72.1074">:SkillRepository</text><rect fill="#E3E3E3" height="51.2422" rx="2.5" ry="2.5" style="stroke:#181818;stroke-width:0.5;" width="111" x="1502" y="1206.8457"/><text fill="#000000" font-family="sans-serif" font-size="14" lengthAdjust="spacing" textLength="91" x="1512" y="1228.9531">skillRepository</text><text fill="#000000" font-family="sans-serif" font-size="14" lengthAdjust="spacing" textLength="97" x="1509" y="1247.5742">:SkillRepository</text><rect fill="#FFFFFF" height="1096.2246" style="stroke:#181818;stroke-width:1.0;" width="10" x="106" y="93.6211"/><rect fill="#FFFFFF" height="31.291" style="stroke:#181818;stroke-width:1.0;" width="10" x="391" y="116.9121"/><rect fill="#FFFFFF" height="606.8594" style="stroke:#181818;stroke-width:1.0;" width="10" x="391" y="179.4941"/><rect fill="#FFFFFF" height="31.291" style="stroke:#181818;stroke-width:1.0;" width="10" x="391" y="875.2266"/><rect fill="#FFFFFF" height="252.0371" style="stroke:#181818;stroke-width:1.0;" width="10" x="391" y="937.8086"/><rect fill="#FFFFFF" height="219.0371" style="stroke:#181818;stroke-width:1.0;" width="10" x="858" y="254.4063"/><rect fill="#FFFFFF" height="219.0371" style="stroke:#181818;stroke-width:1.0;" width="10" x="858" y="536.0254"/><rect fill="#FFFFFF" height="182.4551" style="stroke:#181818;stroke-width:1.0;" width="10" x="858" y="976.0996"/><rect fill="#FFFFFF" height="31.291" style="stroke:#181818;stroke-width:1.0;" width="10" x="1029" y="285.6973"/><rect fill="#FFFFFF" height="31.291" style="stroke:#181818;stroke-width:1.0;" width="10" x="1029" y="567.3164"/><rect fill="#FFFFFF" height="31.291" style="stroke:#181818;stroke-width:1.0;" width="10" x="1136" y="348.2793"/><rect fill="#FFFFFF" height="31.291" style="stroke:#181818;stroke-width:1.0;" width="10" x="1136" y="629.8984"/><rect fill="#FFFFFF" height="31.291" style="stroke:#181818;stroke-width:1.0;" width="10" x="1276.5" y="410.8613"/><rect fill="#FFFFFF" height="119.873" style="stroke:#181818;stroke-width:1.0;" width="10" x="1276.5" y="1007.3906"/><rect fill="#FFFFFF" height="31.291" style="stroke:#181818;stroke-width:1.0;" width="10" x="1552.5" y="692.4805"/><polygon fill="#181818" points="379,112.9121,389,116.9121,379,120.9121,383,116.9121" style="stroke:#181818;stroke-width:1.0;"/><line style="stroke:#181818;stroke-width:1.0;" x1="116" x2="385" y1="116.9121" y2="116.9121"/><text fill="#000000" font-family="sans-serif" font-size="13" font-weight="bold" lengthAdjust="spacing" textLength="7" x="123" y="111.6494">1</text><text fill="#000000" font-family="sans-serif" font-size="13" lengthAdjust="spacing" textLength="220" x="134" y="111.6494">asks to assign a skill to a collaborator</text><polygon fill="#181818" points="127,144.2031,117,148.2031,127,152.2031,123,148.2031" style="stroke:#181818;stroke-width:1.0;"/><line style="stroke:#181818;stroke-width:1.0;stroke-dasharray:2.0,2.0;" x1="121" x2="395" y1="148.2031" y2="148.2031"/><text fill="#000000" font-family="sans-serif" font-size="13" font-weight="bold" lengthAdjust="spacing" textLength="7" x="133" y="142.9404">2</text><text fill="#000000" font-family="sans-serif" font-size="13" lengthAdjust="spacing" textLength="217" x="144" y="142.9404">request data (collaboratorTaxNumber)</text><polygon fill="#181818" points="379,175.4941,389,179.4941,379,183.4941,383,179.4941" style="stroke:#181818;stroke-width:1.0;"/><line style="stroke:#181818;stroke-width:1.0;" x1="116" x2="385" y1="179.4941" y2="179.4941"/><text fill="#000000" font-family="sans-serif" font-size="13" font-weight="bold" lengthAdjust="spacing" textLength="7" x="123" y="174.2314">3</text><text fill="#000000" font-family="sans-serif" font-size="13" lengthAdjust="spacing" textLength="139" x="134" y="174.2314">confirms requested data</text><polygon fill="#181818" points="738.5,206.7852,748.5,210.7852,738.5,214.7852,742.5,210.7852" style="stroke:#181818;stroke-width:1.0;"/><line style="stroke:#181818;stroke-width:1.0;" x1="401" x2="744.5" y1="210.7852" y2="210.7852"/><text fill="#000000" font-family="sans-serif" font-size="13" font-weight="bold" lengthAdjust="spacing" textLength="7" x="408" y="205.5225">4</text><text fill="#000000" font-family="sans-serif" font-size="13" lengthAdjust="spacing" textLength="36" x="419" y="205.5225">create</text><rect fill="#E3E3E3" height="32.6211" rx="2.5" ry="2.5" style="stroke:#181818;stroke-width:0.5;" width="225" x="750.5" y="187.4941"/><text fill="#000000" font-family="sans-serif" font-size="14" lengthAdjust="spacing" textLength="211" x="757.5" y="209.6016">:AssignSkillCollaboratorController</text><polygon fill="#181818" points="846,250.4063,856,254.4063,846,258.4063,850,254.4063" style="stroke:#181818;stroke-width:1.0;"/><line style="stroke:#181818;stroke-width:1.0;" x1="401" x2="852" y1="254.4063" y2="254.4063"/><text fill="#000000" font-family="sans-serif" font-size="13" font-weight="bold" lengthAdjust="spacing" textLength="7" x="408" y="249.1436">5</text><text fill="#000000" font-family="sans-serif" font-size="13" lengthAdjust="spacing" textLength="341" x="419" y="249.1436">containsCollaboratorByTaxNumber(collaboratorTaxNumber)</text><polygon fill="#181818" points="1017,281.6973,1027,285.6973,1017,289.6973,1021,285.6973" style="stroke:#181818;stroke-width:1.0;"/><line style="stroke:#181818;stroke-width:1.0;" x1="868" x2="1023" y1="285.6973" y2="285.6973"/><text fill="#000000" font-family="sans-serif" font-size="13" font-weight="bold" lengthAdjust="spacing" textLength="7" x="875" y="280.4346">6</text><text fill="#000000" font-family="sans-serif" font-size="13" lengthAdjust="spacing" textLength="75" x="886" y="280.4346">getInstance()</text><polygon fill="#181818" points="879,312.9883,869,316.9883,879,320.9883,875,316.9883" style="stroke:#181818;stroke-width:1.0;"/><line style="stroke:#181818;stroke-width:1.0;stroke-dasharray:2.0,2.0;" x1="873" x2="1033" y1="316.9883" y2="316.9883"/><text fill="#000000" font-family="sans-serif" font-size="13" font-weight="bold" lengthAdjust="spacing" textLength="7" x="885" y="311.7256">7</text><text fill="#000000" font-family="sans-serif" font-size="13" lengthAdjust="spacing" textLength="67" x="896" y="311.7256">repositories</text><polygon fill="#181818" points="1124,344.2793,1134,348.2793,1124,352.2793,1128,348.2793" style="stroke:#181818;stroke-width:1.0;"/><line style="stroke:#181818;stroke-width:1.0;" x1="868" x2="1130" y1="348.2793" y2="348.2793"/><text fill="#000000" font-family="sans-serif" font-size="13" font-weight="bold" lengthAdjust="spacing" textLength="7" x="875" y="343.0166">8</text><text fill="#000000" font-family="sans-serif" font-size="13" lengthAdjust="spacing" textLength="157" x="886" y="343.0166">getCollaboratorRepository()</text><polygon fill="#181818" points="879,375.5703,869,379.5703,879,383.5703,875,379.5703" style="stroke:#181818;stroke-width:1.0;"/><line style="stroke:#181818;stroke-width:1.0;stroke-dasharray:2.0,2.0;" x1="873" x2="1140" y1="379.5703" y2="379.5703"/><text fill="#000000" font-family="sans-serif" font-size="13" font-weight="bold" lengthAdjust="spacing" textLength="7" x="885" y="374.3076">9</text><text fill="#000000" font-family="sans-serif" font-size="13" lengthAdjust="spacing" textLength="129" x="896" y="374.3076">collaboratorRepository</text><polygon fill="#181818" points="1264.5,406.8613,1274.5,410.8613,1264.5,414.8613,1268.5,410.8613" style="stroke:#181818;stroke-width:1.0;"/><line style="stroke:#181818;stroke-width:1.0;" x1="868" x2="1270.5" y1="410.8613" y2="410.8613"/><text fill="#000000" font-family="sans-serif" font-size="13" font-weight="bold" lengthAdjust="spacing" textLength="14" x="875" y="405.5986">10</text><text fill="#000000" font-family="sans-serif" font-size="13" lengthAdjust="spacing" textLength="261" x="893" y="405.5986">isCollaboratorIDValid(collaboratorTaxNumber)</text><polygon fill="#181818" points="879,438.1523,869,442.1523,879,446.1523,875,442.1523" style="stroke:#181818;stroke-width:1.0;"/><line style="stroke:#181818;stroke-width:1.0;" x1="873" x2="1280.5" y1="442.1523" y2="442.1523"/><text fill="#000000" font-family="sans-serif" font-size="13" font-weight="bold" lengthAdjust="spacing" textLength="14" x="885" y="436.8896">11</text><text fill="#000000" font-family="sans-serif" font-size="13" lengthAdjust="spacing" textLength="53" x="903" y="436.8896">true/false</text><polygon fill="#181818" points="412,469.4434,402,473.4434,412,477.4434,408,473.4434" style="stroke:#181818;stroke-width:1.0;"/><line style="stroke:#181818;stroke-width:1.0;" x1="406" x2="862" y1="473.4434" y2="473.4434"/><text fill="#000000" font-family="sans-serif" font-size="13" font-weight="bold" lengthAdjust="spacing" textLength="14" x="418" y="468.1807">12</text><text fill="#000000" font-family="sans-serif" font-size="13" lengthAdjust="spacing" textLength="53" x="436" y="468.1807">true/false</text><polygon fill="#181818" points="127,500.7344,117,504.7344,127,508.7344,123,504.7344" style="stroke:#181818;stroke-width:1.0;"/><line style="stroke:#181818;stroke-width:1.0;" x1="121" x2="390" y1="504.7344" y2="504.7344"/><text fill="#000000" font-family="sans-serif" font-size="13" font-weight="bold" lengthAdjust="spacing" textLength="14" x="133" y="499.4717">13</text><text fill="#000000" font-family="sans-serif" font-size="13" lengthAdjust="spacing" textLength="191" x="151" y="499.4717">displays that Tax Number is valid</text><polygon fill="#181818" points="846,532.0254,856,536.0254,846,540.0254,850,536.0254" style="stroke:#181818;stroke-width:1.0;"/><line style="stroke:#181818;stroke-width:1.0;" x1="401" x2="852" y1="536.0254" y2="536.0254"/><text fill="#000000" font-family="sans-serif" font-size="13" font-weight="bold" lengthAdjust="spacing" textLength="14" x="408" y="530.7627">14</text><text fill="#000000" font-family="sans-serif" font-size="13" lengthAdjust="spacing" textLength="72" x="426" y="530.7627">getSkillList()</text><polygon fill="#181818" points="1017,563.3164,1027,567.3164,1017,571.3164,1021,567.3164" style="stroke:#181818;stroke-width:1.0;"/><line style="stroke:#181818;stroke-width:1.0;" x1="868" x2="1023" y1="567.3164" y2="567.3164"/><text fill="#000000" font-family="sans-serif" font-size="13" font-weight="bold" lengthAdjust="spacing" textLength="14" x="875" y="562.0537">15</text><text fill="#000000" font-family="sans-serif" font-size="13" lengthAdjust="spacing" textLength="75" x="893" y="562.0537">getInstance()</text><polygon fill="#181818" points="879,594.6074,869,598.6074,879,602.6074,875,598.6074" style="stroke:#181818;stroke-width:1.0;"/><line style="stroke:#181818;stroke-width:1.0;stroke-dasharray:2.0,2.0;" x1="873" x2="1033" y1="598.6074" y2="598.6074"/><text fill="#000000" font-family="sans-serif" font-size="13" font-weight="bold" lengthAdjust="spacing" textLength="14" x="885" y="593.3447">16</text><text fill="#000000" font-family="sans-serif" font-size="13" lengthAdjust="spacing" textLength="67" x="903" y="593.3447">repositories</text><polygon fill="#181818" points="1124,625.8984,1134,629.8984,1124,633.8984,1128,629.8984" style="stroke:#181818;stroke-width:1.0;"/><line style="stroke:#181818;stroke-width:1.0;" x1="868" x2="1130" y1="629.8984" y2="629.8984"/><text fill="#000000" font-family="sans-serif" font-size="13" font-weight="bold" lengthAdjust="spacing" textLength="14" x="875" y="624.6357">17</text><text fill="#000000" font-family="sans-serif" font-size="13" lengthAdjust="spacing" textLength="113" x="893" y="624.6357">getSkillRepository()</text><polygon fill="#181818" points="879,657.1895,869,661.1895,879,665.1895,875,661.1895" style="stroke:#181818;stroke-width:1.0;"/><line style="stroke:#181818;stroke-width:1.0;stroke-dasharray:2.0,2.0;" x1="873" x2="1140" y1="661.1895" y2="661.1895"/><text fill="#000000" font-family="sans-serif" font-size="13" font-weight="bold" lengthAdjust="spacing" textLength="14" x="885" y="655.9268">18</text><text fill="#000000" font-family="sans-serif" font-size="13" lengthAdjust="spacing" textLength="85" x="903" y="655.9268">skillRepository</text><polygon fill="#181818" points="1540.5,688.4805,1550.5,692.4805,1540.5,696.4805,1544.5,692.4805" style="stroke:#181818;stroke-width:1.0;"/><line style="stroke:#181818;stroke-width:1.0;" x1="868" x2="1546.5" y1="692.4805" y2="692.4805"/><text fill="#000000" font-family="sans-serif" font-size="13" font-weight="bold" lengthAdjust="spacing" textLength="14" x="875" y="687.2178">19</text><text fill="#000000" font-family="sans-serif" font-size="13" lengthAdjust="spacing" textLength="72" x="893" y="687.2178">getSkillList()</text><polygon fill="#181818" points="879,719.7715,869,723.7715,879,727.7715,875,723.7715" style="stroke:#181818;stroke-width:1.0;"/><line style="stroke:#181818;stroke-width:1.0;stroke-dasharray:2.0,2.0;" x1="873" x2="1556.5" y1="723.7715" y2="723.7715"/><text fill="#000000" font-family="sans-serif" font-size="13" font-weight="bold" lengthAdjust="spacing" textLength="14" x="885" y="718.5088">20</text><text fill="#000000" font-family="sans-serif" font-size="13" lengthAdjust="spacing" textLength="44" x="903" y="718.5088">skillList</text><polygon fill="#181818" points="412,751.0625,402,755.0625,412,759.0625,408,755.0625" style="stroke:#181818;stroke-width:1.0;"/><line style="stroke:#181818;stroke-width:1.0;" x1="406" x2="862" y1="755.0625" y2="755.0625"/><text fill="#000000" font-family="sans-serif" font-size="13" font-weight="bold" lengthAdjust="spacing" textLength="14" x="418" y="749.7998">21</text><text fill="#000000" font-family="sans-serif" font-size="13" lengthAdjust="spacing" textLength="44" x="436" y="749.7998">skillList</text><polygon fill="#181818" points="127,782.3535,117,786.3535,127,790.3535,123,786.3535" style="stroke:#181818;stroke-width:1.0;"/><line style="stroke:#181818;stroke-width:1.0;" x1="121" x2="395" y1="786.3535" y2="786.3535"/><text fill="#000000" font-family="sans-serif" font-size="13" font-weight="bold" lengthAdjust="spacing" textLength="14" x="133" y="781.0908">22</text><text fill="#000000" font-family="sans-serif" font-size="13" lengthAdjust="spacing" textLength="85" x="151" y="781.0908">shows skillList</text><path d="M10,801.3535 L83,801.3535 L83,810.6445 L73,820.6445 L10,820.6445 L10,801.3535 " fill="#EEEEEE" style="stroke:#000000;stroke-width:1.5;"/><rect fill="none" height="144.4551" style="stroke:#000000;stroke-width:1.5;" width="483.5" x="10" y="801.3535"/><text fill="#000000" font-family="sans-serif" font-size="13" font-weight="bold" lengthAdjust="spacing" textLength="28" x="25" y="816.3818">loop</text><text fill="#000000" font-family="sans-serif" font-size="11" font-weight="bold" lengthAdjust="spacing" textLength="82" x="98" y="815.2236">[selects skills]</text><polygon fill="#181818" points="127,839.9355,117,843.9355,127,847.9355,123,843.9355" style="stroke:#181818;stroke-width:1.0;"/><line style="stroke:#181818;stroke-width:1.0;stroke-dasharray:2.0,2.0;" x1="121" x2="395" y1="843.9355" y2="843.9355"/><text fill="#000000" font-family="sans-serif" font-size="13" font-weight="bold" lengthAdjust="spacing" textLength="14" x="133" y="838.6729">23</text><text fill="#000000" font-family="sans-serif" font-size="13" lengthAdjust="spacing" textLength="107" x="151" y="838.6729">request data (skill)</text><polygon fill="#181818" points="379,871.2266,389,875.2266,379,879.2266,383,875.2266" style="stroke:#181818;stroke-width:1.0;"/><line style="stroke:#181818;stroke-width:1.0;" x1="116" x2="385" y1="875.2266" y2="875.2266"/><text fill="#000000" font-family="sans-serif" font-size="13" font-weight="bold" lengthAdjust="spacing" textLength="14" x="123" y="869.9639">24</text><text fill="#000000" font-family="sans-serif" font-size="13" lengthAdjust="spacing" textLength="73" x="141" y="869.9639">selects  skill</text><polygon fill="#181818" points="127,902.5176,117,906.5176,127,910.5176,123,906.5176" style="stroke:#181818;stroke-width:1.0;"/><line style="stroke:#181818;stroke-width:1.0;stroke-dasharray:2.0,2.0;" x1="121" x2="395" y1="906.5176" y2="906.5176"/><text fill="#000000" font-family="sans-serif" font-size="13" font-weight="bold" lengthAdjust="spacing" textLength="14" x="133" y="901.2549">25</text><text fill="#000000" font-family="sans-serif" font-size="13" lengthAdjust="spacing" textLength="233" x="151" y="901.2549">show all data registered  for confirmation</text><polygon fill="#181818" points="379,933.8086,389,937.8086,379,941.8086,383,937.8086" style="stroke:#181818;stroke-width:1.0;"/><line style="stroke:#181818;stroke-width:1.0;" x1="116" x2="385" y1="937.8086" y2="937.8086"/><text fill="#000000" font-family="sans-serif" font-size="13" font-weight="bold" lengthAdjust="spacing" textLength="14" x="123" y="932.5459">26</text><text fill="#000000" font-family="sans-serif" font-size="13" lengthAdjust="spacing" textLength="75" x="141" y="932.5459">submits data</text><polygon fill="#181818" points="846,972.0996,856,976.0996,846,980.0996,850,976.0996" style="stroke:#181818;stroke-width:1.0;"/><line style="stroke:#181818;stroke-width:1.0;" x1="401" x2="852" y1="976.0996" y2="976.0996"/><text fill="#000000" font-family="sans-serif" font-size="13" font-weight="bold" lengthAdjust="spacing" textLength="14" x="408" y="970.8369">27</text><text fill="#000000" font-family="sans-serif" font-size="13" lengthAdjust="spacing" textLength="420" x="426" y="970.8369">assignSkillCollaboratorByTaxNumber(collaboratorTaxNumber, skillName)</text><polygon fill="#181818" points="1264.5,1003.3906,1274.5,1007.3906,1264.5,1011.3906,1268.5,1007.3906" style="stroke:#181818;stroke-width:1.0;"/><line style="stroke:#181818;stroke-width:1.0;" x1="868" x2="1270.5" y1="1007.3906" y2="1007.3906"/><text fill="#000000" font-family="sans-serif" font-size="13" font-weight="bold" lengthAdjust="spacing" textLength="14" x="875" y="1002.1279">28</text><text fill="#000000" font-family="sans-serif" font-size="13" lengthAdjust="spacing" textLength="304" x="893" y="1002.1279">assignSkillCollaborator(collaboratorTaxNumber, skill)</text><line style="stroke:#181818;stroke-width:1.0;" x1="1286.5" x2="1328.5" y1="1038.6816" y2="1038.6816"/><line style="stroke:#181818;stroke-width:1.0;" x1="1328.5" x2="1328.5" y1="1038.6816" y2="1051.6816"/><line style="stroke:#181818;stroke-width:1.0;" x1="1287.5" x2="1328.5" y1="1051.6816" y2="1051.6816"/><polygon fill="#181818" points="1297.5,1047.6816,1287.5,1051.6816,1297.5,1055.6816,1293.5,1051.6816" style="stroke:#181818;stroke-width:1.0;"/><text fill="#000000" font-family="sans-serif" font-size="13" font-weight="bold" lengthAdjust="spacing" textLength="14" x="1293.5" y="1033.4189">29</text><text fill="#000000" font-family="sans-serif" font-size="13" lengthAdjust="spacing" textLength="234" x="1311.5" y="1033.4189">findCollaborator(collaboratorTaxNumber);</text><line style="stroke:#181818;stroke-width:1.0;" x1="1286.5" x2="1328.5" y1="1082.9727" y2="1082.9727"/><line style="stroke:#181818;stroke-width:1.0;" x1="1328.5" x2="1328.5" y1="1082.9727" y2="1095.9727"/><line style="stroke:#181818;stroke-width:1.0;" x1="1287.5" x2="1328.5" y1="1095.9727" y2="1095.9727"/><polygon fill="#181818" points="1297.5,1091.9727,1287.5,1095.9727,1297.5,1099.9727,1293.5,1095.9727" style="stroke:#181818;stroke-width:1.0;"/><text fill="#000000" font-family="sans-serif" font-size="13" font-weight="bold" lengthAdjust="spacing" textLength="14" x="1293.5" y="1077.71">30</text><text fill="#000000" font-family="sans-serif" font-size="13" lengthAdjust="spacing" textLength="77" x="1311.5" y="1077.71">addSkill(skill)</text><polygon fill="#181818" points="879,1123.2637,869,1127.2637,879,1131.2637,875,1127.2637" style="stroke:#181818;stroke-width:1.0;"/><line style="stroke:#181818;stroke-width:1.0;stroke-dasharray:2.0,2.0;" x1="873" x2="1280.5" y1="1127.2637" y2="1127.2637"/><text fill="#000000" font-family="sans-serif" font-size="13" font-weight="bold" lengthAdjust="spacing" textLength="14" x="885" y="1122.001">31</text><text fill="#000000" font-family="sans-serif" font-size="13" lengthAdjust="spacing" textLength="53" x="903" y="1122.001">true/false</text><polygon fill="#181818" points="412,1154.5547,402,1158.5547,412,1162.5547,408,1158.5547" style="stroke:#181818;stroke-width:1.0;"/><line style="stroke:#181818;stroke-width:1.0;stroke-dasharray:2.0,2.0;" x1="406" x2="862" y1="1158.5547" y2="1158.5547"/><text fill="#000000" font-family="sans-serif" font-size="13" font-weight="bold" lengthAdjust="spacing" textLength="14" x="418" y="1153.292">32</text><text fill="#000000" font-family="sans-serif" font-size="13" lengthAdjust="spacing" textLength="53" x="436" y="1153.292">true/false</text><polygon fill="#181818" points="122,1185.8457,112,1189.8457,122,1193.8457,118,1189.8457" style="stroke:#181818;stroke-width:1.0;"/><line style="stroke:#181818;stroke-width:1.0;stroke-dasharray:2.0,2.0;" x1="116" x2="395" y1="1189.8457" y2="1189.8457"/><text fill="#000000" font-family="sans-serif" font-size="13" font-weight="bold" lengthAdjust="spacing" textLength="14" x="128" y="1184.583">33</text><text fill="#000000" font-family="sans-serif" font-size="13" lengthAdjust="spacing" textLength="220" x="146" y="1184.583">displays the success of the operation.</text><!--SRC=[hLTBRzim3BxhLmYzh2cMxPu11Thiq01jCIJfJhimjf88iILFajlctu-MOqTsfFY1-H9O9Zz-fFYAFd2HWOAKfbB8QAzaogXHEIEw_f91T80TMvbZmgXYaG6nIrm1lOTOVd2nerj8D2C4SYD5dcwO8kJBdiUCRgKq6_b9839IqPkdF0L1bqpBN4LCqnSGQ47TKD3qQVb24DVmY6SW3BsPFMZDTs9ru4aobqa26wa0OTuMLlvjqKzyBeLH-7uoCryldrkAIvP9pL6KCsrbweFZYXS-erTD5ULe_16N0B-U7zPDZSXXT8P7tRdtWqNnwpHnTU5k0t3LFB58BIbIt0T_1yDir0azFVX2f_SOMJf3hOEcHk9l4LKA9OOzQH0ZP_KQ5A-cFaImAM8Mq3FCehyvquR6O83UkZ1h-7orcJEfDMFM0FIoZAJOSfNg2fd55hkRqhrDXBkx0aCnbAY_EfzB0mQuqEurFHvhjbq-D4dOtAjEhG4qv4asjBjZPY4qbbp4RYU4EEw7djgABtixjNqifkSmk0dVYULSt2WkLMIAAYf3uI-Isqd_eDYAx1It5gVkxNihS400-jcjFFRRGoAyaO2BdxyXuN6lvBiMb81xdG01ckUu5PFaUpaK1iHgB9qgUhOZZ3DjAxDJeUmCPIkBkSuIE6AFt8EX67rQXX-lYhuNjzCNxXGop7BRkP-vDgt4li9oI1CProp6DeOXJU2ou5j3BCJ-ihhQ5ToUVBtBjEBK0kXvKnS3rvLgGxRf5i0XeXV095W93XW9fNmek_LUVkXkDdOkLyCfaJAZcYMuAPvKTQyrm8eE6_kLbTACVzhxJHUEKS15njfMR8VUCOLh0wwggbedm71CqG0XBvzyatBaqzWzseoAToPYueJCrmd0lyPsBXrVos2yGigkjWyoTWW5Y5rb4nv6exj-UFW4f-UMYxYRykG7-NzMSO6EOnkhAh_Fpr0RW-PgZtdgPr5UlyteXY7IDJPzOwsijyQKnDwLH_YdJrEvjQyoOyfMsZSIgBNMIV5VvHy0]--></g></svg>