<?xml version="1.0" encoding="us-ascii" standalone="no"?><svg xmlns="http://www.w3.org/2000/svg" xmlns:xlink="http://www.w3.org/1999/xlink" contentStyleType="text/css" height="318px" preserveAspectRatio="none" style="width:1122px;height:318px;background:#FFFFFF;" version="1.1" viewBox="0 0 1122 318" width="1122px" zoomAndPan="magnify"><defs/><g><!--class SkillRepository--><g id="elem_SkillRepository"><rect codeLine="12" fill="#F1F1F1" height="66.6211" id="SkillRepository" rx="2.5" ry="2.5" style="stroke:#181818;stroke-width:0.5;" width="125" x="809" y="226.5"/><ellipse cx="824" cy="242.5" fill="#ADD1B2" rx="11" ry="11" style="stroke:#181818;stroke-width:1.0;"/><path d="M826.7656,238.375 Q826.9219,238.1563 827.1094,238.0469 Q827.2969,237.9375 827.5156,237.9375 Q827.8906,237.9375 828.125,238.2031 Q828.3594,238.4531 828.3594,239.0625 L828.3594,240.5156 Q828.3594,241.125 828.125,241.3906 Q827.8906,241.6563 827.5156,241.6563 Q827.1719,241.6563 826.9688,241.4531 Q826.7656,241.2656 826.6563,240.75 Q826.6094,240.3906 826.4219,240.2031 Q826.0938,239.8281 825.4844,239.6094 Q824.875,239.3906 824.25,239.3906 Q823.4844,239.3906 822.8438,239.7188 Q822.2188,240.0469 821.7188,240.7969 Q821.2344,241.5469 821.2344,242.5781 L821.2344,243.6719 Q821.2344,244.9063 822.125,245.7344 Q823.0156,246.5469 824.6094,246.5469 Q825.5469,246.5469 826.2031,246.2969 Q826.5938,246.1406 827.0156,245.7031 Q827.2813,245.4375 827.4219,245.3594 Q827.5781,245.2813 827.7813,245.2813 Q828.1094,245.2813 828.3594,245.5469 Q828.625,245.7969 828.625,246.1406 Q828.625,246.4844 828.2813,246.8906 Q827.7813,247.4688 826.9844,247.7969 Q825.9063,248.25 824.6094,248.25 Q823.0938,248.25 821.8906,247.625 Q820.9063,247.125 820.2188,246.0625 Q819.5313,244.9844 819.5313,243.7031 L819.5313,242.5469 Q819.5313,241.2188 820.1406,240.0781 Q820.7656,238.9219 821.8594,238.3125 Q822.9531,237.6875 824.1875,237.6875 Q824.9219,237.6875 825.5625,237.8594 Q826.2188,238.0156 826.7656,238.375 Z " fill="#000000"/><text fill="#000000" font-family="sans-serif" font-size="14" lengthAdjust="spacing" textLength="93" x="838" y="248.2969">SkillRepository</text><line style="stroke:#181818;stroke-width:0.5;" x1="810" x2="933" y1="258.5" y2="258.5"/><line style="stroke:#181818;stroke-width:0.5;" x1="810" x2="933" y1="266.5" y2="266.5"/><ellipse cx="820" cy="281.3105" fill="#84BE84" rx="3" ry="3" style="stroke:#038048;stroke-width:1.0;"/><text fill="#000000" font-family="sans-serif" font-size="14" lengthAdjust="spacing" textLength="77" x="829" y="285.6074">getSkillList()</text></g><!--class CollaboratorRepository--><g id="elem_CollaboratorRepository"><rect codeLine="17" fill="#F1F1F1" height="103.8633" id="CollaboratorRepository" rx="2.5" ry="2.5" style="stroke:#181818;stroke-width:0.5;" width="358" x="377.5" y="208"/><ellipse cx="479.25" cy="224" fill="#ADD1B2" rx="11" ry="11" style="stroke:#181818;stroke-width:1.0;"/><path d="M482.0156,219.875 Q482.1719,219.6563 482.3594,219.5469 Q482.5469,219.4375 482.7656,219.4375 Q483.1406,219.4375 483.375,219.7031 Q483.6094,219.9531 483.6094,220.5625 L483.6094,222.0156 Q483.6094,222.625 483.375,222.8906 Q483.1406,223.1563 482.7656,223.1563 Q482.4219,223.1563 482.2188,222.9531 Q482.0156,222.7656 481.9063,222.25 Q481.8594,221.8906 481.6719,221.7031 Q481.3438,221.3281 480.7344,221.1094 Q480.125,220.8906 479.5,220.8906 Q478.7344,220.8906 478.0938,221.2188 Q477.4688,221.5469 476.9688,222.2969 Q476.4844,223.0469 476.4844,224.0781 L476.4844,225.1719 Q476.4844,226.4063 477.375,227.2344 Q478.2656,228.0469 479.8594,228.0469 Q480.7969,228.0469 481.4531,227.7969 Q481.8438,227.6406 482.2656,227.2031 Q482.5313,226.9375 482.6719,226.8594 Q482.8281,226.7813 483.0313,226.7813 Q483.3594,226.7813 483.6094,227.0469 Q483.875,227.2969 483.875,227.6406 Q483.875,227.9844 483.5313,228.3906 Q483.0313,228.9688 482.2344,229.2969 Q481.1563,229.75 479.8594,229.75 Q478.3438,229.75 477.1406,229.125 Q476.1563,228.625 475.4688,227.5625 Q474.7813,226.4844 474.7813,225.2031 L474.7813,224.0469 Q474.7813,222.7188 475.3906,221.5781 Q476.0156,220.4219 477.1094,219.8125 Q478.2031,219.1875 479.4375,219.1875 Q480.1719,219.1875 480.8125,219.3594 Q481.4688,219.5156 482.0156,219.875 Z " fill="#000000"/><text fill="#000000" font-family="sans-serif" font-size="14" lengthAdjust="spacing" textLength="146" x="499.75" y="229.7969">CollaboratorRepository</text><line style="stroke:#181818;stroke-width:0.5;" x1="378.5" x2="734.5" y1="240" y2="240"/><line style="stroke:#181818;stroke-width:0.5;" x1="378.5" x2="734.5" y1="248" y2="248"/><ellipse cx="388.5" cy="262.8105" fill="#84BE84" rx="3" ry="3" style="stroke:#038048;stroke-width:1.0;"/><text fill="#000000" font-family="sans-serif" font-size="14" lengthAdjust="spacing" textLength="258" x="397.5" y="267.1074">findCollaborator(collaboratorTaxNumber)</text><ellipse cx="388.5" cy="281.4316" fill="#84BE84" rx="3" ry="3" style="stroke:#038048;stroke-width:1.0;"/><text fill="#000000" font-family="sans-serif" font-size="14" lengthAdjust="spacing" textLength="332" x="397.5" y="285.7285">assignSkillCollaborator(collaboratorTaxNumber, skill)</text><ellipse cx="388.5" cy="300.0527" fill="#84BE84" rx="3" ry="3" style="stroke:#038048;stroke-width:1.0;"/><text fill="#000000" font-family="sans-serif" font-size="14" lengthAdjust="spacing" textLength="82" x="397.5" y="304.3496">addSkill(skill)</text></g><!--class Repositories--><g id="elem_Repositories"><rect codeLine="26" fill="#F1F1F1" height="122.4844" id="Repositories" rx="2.5" ry="2.5" style="stroke:#181818;stroke-width:0.5;" width="202" x="817.5" y="7"/><ellipse cx="874.75" cy="23" fill="#ADD1B2" rx="11" ry="11" style="stroke:#181818;stroke-width:1.0;"/><path d="M877.5156,18.875 Q877.6719,18.6563 877.8594,18.5469 Q878.0469,18.4375 878.2656,18.4375 Q878.6406,18.4375 878.875,18.7031 Q879.1094,18.9531 879.1094,19.5625 L879.1094,21.0156 Q879.1094,21.625 878.875,21.8906 Q878.6406,22.1563 878.2656,22.1563 Q877.9219,22.1563 877.7188,21.9531 Q877.5156,21.7656 877.4063,21.25 Q877.3594,20.8906 877.1719,20.7031 Q876.8438,20.3281 876.2344,20.1094 Q875.625,19.8906 875,19.8906 Q874.2344,19.8906 873.5938,20.2188 Q872.9688,20.5469 872.4688,21.2969 Q871.9844,22.0469 871.9844,23.0781 L871.9844,24.1719 Q871.9844,25.4063 872.875,26.2344 Q873.7656,27.0469 875.3594,27.0469 Q876.2969,27.0469 876.9531,26.7969 Q877.3438,26.6406 877.7656,26.2031 Q878.0313,25.9375 878.1719,25.8594 Q878.3281,25.7813 878.5313,25.7813 Q878.8594,25.7813 879.1094,26.0469 Q879.375,26.2969 879.375,26.6406 Q879.375,26.9844 879.0313,27.3906 Q878.5313,27.9688 877.7344,28.2969 Q876.6563,28.75 875.3594,28.75 Q873.8438,28.75 872.6406,28.125 Q871.6563,27.625 870.9688,26.5625 Q870.2813,25.4844 870.2813,24.2031 L870.2813,23.0469 Q870.2813,21.7188 870.8906,20.5781 Q871.5156,19.4219 872.6094,18.8125 Q873.7031,18.1875 874.9375,18.1875 Q875.6719,18.1875 876.3125,18.3594 Q876.9688,18.5156 877.5156,18.875 Z " fill="#000000"/><text fill="#000000" font-family="sans-serif" font-size="14" lengthAdjust="spacing" textLength="79" x="895.25" y="28.7969">Repositories</text><line style="stroke:#181818;stroke-width:0.5;" x1="818.5" x2="1018.5" y1="39" y2="39"/><line style="stroke:#181818;stroke-width:0.5;" x1="818.5" x2="1018.5" y1="47" y2="47"/><rect fill="#F24D5C" height="6" style="stroke:#C82930;stroke-width:1.0;" width="6" x="825.5" y="58.8105"/><text fill="#000000" font-family="sans-serif" font-size="14" lengthAdjust="spacing" textLength="89" x="837.5" y="66.1074">Repositories()</text><ellipse cx="828.5" cy="80.4316" fill="#84BE84" rx="3" ry="3" style="stroke:#038048;stroke-width:1.0;"/><text fill="#000000" font-family="sans-serif" font-size="14" lengthAdjust="spacing" textLength="174" x="837.5" y="84.7285">getInstance() : Repositories</text><ellipse cx="828.5" cy="99.0527" fill="#84BE84" rx="3" ry="3" style="stroke:#038048;stroke-width:1.0;"/><text fill="#000000" font-family="sans-serif" font-size="14" lengthAdjust="spacing" textLength="123" x="837.5" y="103.3496">getSkillRepository()</text><ellipse cx="828.5" cy="117.6738" fill="#84BE84" rx="3" ry="3" style="stroke:#038048;stroke-width:1.0;"/><text fill="#000000" font-family="sans-serif" font-size="14" lengthAdjust="spacing" textLength="176" x="837.5" y="121.9707">getCollaboratorRepository()</text></g><!--class AssignSkillCollaboratoController--><g id="elem_AssignSkillCollaboratoController"><rect codeLine="33" fill="#F1F1F1" height="122.4844" id="AssignSkillCollaboratoController" rx="2.5" ry="2.5" style="stroke:#181818;stroke-width:0.5;" width="482" x="231.5" y="7"/><ellipse cx="367.25" cy="23" fill="#ADD1B2" rx="11" ry="11" style="stroke:#181818;stroke-width:1.0;"/><path d="M370.0156,18.875 Q370.1719,18.6563 370.3594,18.5469 Q370.5469,18.4375 370.7656,18.4375 Q371.1406,18.4375 371.375,18.7031 Q371.6094,18.9531 371.6094,19.5625 L371.6094,21.0156 Q371.6094,21.625 371.375,21.8906 Q371.1406,22.1563 370.7656,22.1563 Q370.4219,22.1563 370.2188,21.9531 Q370.0156,21.7656 369.9063,21.25 Q369.8594,20.8906 369.6719,20.7031 Q369.3438,20.3281 368.7344,20.1094 Q368.125,19.8906 367.5,19.8906 Q366.7344,19.8906 366.0938,20.2188 Q365.4688,20.5469 364.9688,21.2969 Q364.4844,22.0469 364.4844,23.0781 L364.4844,24.1719 Q364.4844,25.4063 365.375,26.2344 Q366.2656,27.0469 367.8594,27.0469 Q368.7969,27.0469 369.4531,26.7969 Q369.8438,26.6406 370.2656,26.2031 Q370.5313,25.9375 370.6719,25.8594 Q370.8281,25.7813 371.0313,25.7813 Q371.3594,25.7813 371.6094,26.0469 Q371.875,26.2969 371.875,26.6406 Q371.875,26.9844 371.5313,27.3906 Q371.0313,27.9688 370.2344,28.2969 Q369.1563,28.75 367.8594,28.75 Q366.3438,28.75 365.1406,28.125 Q364.1563,27.625 363.4688,26.5625 Q362.7813,25.4844 362.7813,24.2031 L362.7813,23.0469 Q362.7813,21.7188 363.3906,20.5781 Q364.0156,19.4219 365.1094,18.8125 Q366.2031,18.1875 367.4375,18.1875 Q368.1719,18.1875 368.8125,18.3594 Q369.4688,18.5156 370.0156,18.875 Z " fill="#000000"/><text fill="#000000" font-family="sans-serif" font-size="14" lengthAdjust="spacing" textLength="202" x="387.75" y="28.7969">AssignSkillCollaboratoController</text><line style="stroke:#181818;stroke-width:0.5;" x1="232.5" x2="712.5" y1="39" y2="39"/><line style="stroke:#181818;stroke-width:0.5;" x1="232.5" x2="712.5" y1="47" y2="47"/><ellipse cx="242.5" cy="61.8105" fill="#84BE84" rx="3" ry="3" style="stroke:#038048;stroke-width:1.0;"/><text fill="#000000" font-family="sans-serif" font-size="14" lengthAdjust="spacing" textLength="450" x="251.5" y="66.1074">AssignSkillCollaboratoController(skillRepository,collaboratorRepository)</text><ellipse cx="242.5" cy="80.4316" fill="#84BE84" rx="3" ry="3" style="stroke:#038048;stroke-width:1.0;"/><text fill="#000000" font-family="sans-serif" font-size="14" lengthAdjust="spacing" textLength="77" x="251.5" y="84.7285">getSkillList()</text><ellipse cx="242.5" cy="99.0527" fill="#84BE84" rx="3" ry="3" style="stroke:#038048;stroke-width:1.0;"/><text fill="#000000" font-family="sans-serif" font-size="14" lengthAdjust="spacing" textLength="456" x="251.5" y="103.3496">assignSkillCollaboratorByTaxNumber(collaboratorTaxNumber, skillName)</text><ellipse cx="242.5" cy="117.6738" fill="#84BE84" rx="3" ry="3" style="stroke:#038048;stroke-width:1.0;"/><text fill="#000000" font-family="sans-serif" font-size="14" lengthAdjust="spacing" textLength="289" x="251.5" y="121.9707">isCollaboratorIDValid(collaboratorTaxNumber)</text></g><!--class AssignSkillCollaboratorUI--><g id="elem_AssignSkillCollaboratorUI"><rect codeLine="41" fill="#F1F1F1" height="48" id="AssignSkillCollaboratorUI" rx="2.5" ry="2.5" style="stroke:#181818;stroke-width:0.5;" width="189" x="7" y="44"/><ellipse cx="22" cy="60" fill="#ADD1B2" rx="11" ry="11" style="stroke:#181818;stroke-width:1.0;"/><path d="M24.7656,55.875 Q24.9219,55.6563 25.1094,55.5469 Q25.2969,55.4375 25.5156,55.4375 Q25.8906,55.4375 26.125,55.7031 Q26.3594,55.9531 26.3594,56.5625 L26.3594,58.0156 Q26.3594,58.625 26.125,58.8906 Q25.8906,59.1563 25.5156,59.1563 Q25.1719,59.1563 24.9688,58.9531 Q24.7656,58.7656 24.6563,58.25 Q24.6094,57.8906 24.4219,57.7031 Q24.0938,57.3281 23.4844,57.1094 Q22.875,56.8906 22.25,56.8906 Q21.4844,56.8906 20.8438,57.2188 Q20.2188,57.5469 19.7188,58.2969 Q19.2344,59.0469 19.2344,60.0781 L19.2344,61.1719 Q19.2344,62.4063 20.125,63.2344 Q21.0156,64.0469 22.6094,64.0469 Q23.5469,64.0469 24.2031,63.7969 Q24.5938,63.6406 25.0156,63.2031 Q25.2813,62.9375 25.4219,62.8594 Q25.5781,62.7813 25.7813,62.7813 Q26.1094,62.7813 26.3594,63.0469 Q26.625,63.2969 26.625,63.6406 Q26.625,63.9844 26.2813,64.3906 Q25.7813,64.9688 24.9844,65.2969 Q23.9063,65.75 22.6094,65.75 Q21.0938,65.75 19.8906,65.125 Q18.9063,64.625 18.2188,63.5625 Q17.5313,62.4844 17.5313,61.2031 L17.5313,60.0469 Q17.5313,58.7188 18.1406,57.5781 Q18.7656,56.4219 19.8594,55.8125 Q20.9531,55.1875 22.1875,55.1875 Q22.9219,55.1875 23.5625,55.3594 Q24.2188,55.5156 24.7656,55.875 Z " fill="#000000"/><text fill="#000000" font-family="sans-serif" font-size="14" lengthAdjust="spacing" textLength="157" x="36" y="65.7969">AssignSkillCollaboratorUI</text><line style="stroke:#181818;stroke-width:0.5;" x1="8" x2="195" y1="76" y2="76"/><line style="stroke:#181818;stroke-width:0.5;" x1="8" x2="195" y1="84" y2="84"/></g><!--link AssignSkillCollaboratorUI to AssignSkillCollaboratoController--><g id="link_AssignSkillCollaboratorUI_AssignSkillCollaboratoController"><path codeLine="44" d="M196.17,68 C212.94,68 225.17,68 225.17,68 C225.17,68 221.48,68 225.47,68 " fill="none" id="AssignSkillCollaboratorUI-to-AssignSkillCollaboratoController" style="stroke:#181818;stroke-width:1.0;stroke-dasharray:7.0,7.0;"/><polygon fill="#181818" points="231.47,68,222.47,64,226.47,68,222.47,72,231.47,68" style="stroke:#181818;stroke-width:1.0;"/></g><!--link AssignSkillCollaboratoController to Repositories--><g id="link_AssignSkillCollaboratoController_Repositories"><path codeLine="46" d="M713.77,68 C750.31,68 780.18,68 811.44,68 " fill="none" id="AssignSkillCollaboratoController-to-Repositories" style="stroke:#181818;stroke-width:1.0;stroke-dasharray:7.0,7.0;"/><polygon fill="#181818" points="817.44,68,808.44,64,812.44,68,808.44,72,817.44,68" style="stroke:#181818;stroke-width:1.0;"/><text fill="#000000" font-family="sans-serif" font-size="13" lengthAdjust="spacing" textLength="67" x="732" y="61.0283">repositories</text></g><!--link Repositories to SkillRepository--><g id="link_Repositories_SkillRepository"><path codeLine="47" d="M903.63,129.12 C895.67,161.3 887.6098,193.8553 881.0198,220.5153 " fill="none" id="Repositories-to-SkillRepository" style="stroke:#181818;stroke-width:1.0;stroke-dasharray:7.0,7.0;"/><polygon fill="#181818" points="879.58,226.34,885.6228,218.5628,880.7798,221.4861,877.8566,216.6431,879.58,226.34" style="stroke:#181818;stroke-width:1.0;"/><text fill="#000000" font-family="sans-serif" font-size="13" lengthAdjust="spacing" textLength="7" x="869.0879" y="215.134">1</text></g><!--link Repositories to CollaboratorRepository--><g id="link_Repositories_CollaboratorRepository"><path codeLine="48" d="M870.42,129.24 C850.3,154.45 831.5,178 831.5,178 C831.5,178 790.5557,190.0654 735.6357,206.2354 " fill="none" id="Repositories-to-CollaboratorRepository" style="stroke:#181818;stroke-width:1.0;stroke-dasharray:7.0,7.0;"/><polygon fill="#181818" points="729.88,207.93,739.6433,209.2252,734.6764,206.5178,737.3838,201.5509,729.88,207.93" style="stroke:#181818;stroke-width:1.0;"/><text fill="#000000" font-family="sans-serif" font-size="13" lengthAdjust="spacing" textLength="7" x="741.4389" y="196.848">1</text></g><!--link Repositories to Repositories--><g id="link_Repositories_Repositories"><path codeLine="49" d="M1019.62,49.99 C1039.96,51.99 1054.5,57.99 1054.5,68 C1054.5,78.01 1045.9312,83.4229 1025.5912,85.4229 " fill="none" id="Repositories-to-Repositories" style="stroke:#181818;stroke-width:1.0;"/><polygon fill="#181818" points="1019.62,86.01,1028.9682,89.1101,1024.596,85.5207,1028.1854,81.1485,1019.62,86.01" style="stroke:#181818;stroke-width:1.0;"/><text fill="#000000" font-family="sans-serif" font-size="13" lengthAdjust="spacing" textLength="49" x="1060.5" y="73.5283">instance</text></g><!--link AssignSkillCollaboratoController to SkillRepository--><g id="link_AssignSkillCollaboratoController_SkillRepository"><path codeLine="51" d="M598.75,129.12 C668.72,162.44 747.2429,199.8303 803.3529,226.5503 " fill="none" id="AssignSkillCollaboratoController-to-SkillRepository" style="stroke:#181818;stroke-width:1.0;stroke-dasharray:7.0,7.0;"/><polygon fill="#181818" points="808.77,229.13,802.3641,221.6491,804.2557,226.9803,798.9245,228.8719,808.77,229.13" style="stroke:#181818;stroke-width:1.0;"/><text fill="#000000" font-family="sans-serif" font-size="13" lengthAdjust="spacing" textLength="85" x="697.5" y="174.0283">skillRepository</text></g><!--link AssignSkillCollaboratoController to CollaboratorRepository--><g id="link_AssignSkillCollaboratoController_CollaboratorRepository"><path codeLine="52" d="M499.08,129.12 C510.28,154.45 520.7547,178.132 531.4847,202.412 " fill="none" id="AssignSkillCollaboratoController-to-CollaboratorRepository" style="stroke:#181818;stroke-width:1.0;stroke-dasharray:7.0,7.0;"/><polygon fill="#181818" points="533.91,207.9,533.9307,198.0512,531.8889,203.3267,526.6134,201.2849,533.91,207.9" style="stroke:#181818;stroke-width:1.0;"/><text fill="#000000" font-family="sans-serif" font-size="13" lengthAdjust="spacing" textLength="129" x="521.5" y="174.0283">collaboratorRepository</text></g><!--SRC=[ZLDDJyCm3BtdLrYxhDK-1DSTa61S9g4T673FMg-pbYPLaWaAuh-JbgvBktPTRedVir-UxR4vaCouvYcaIgfehrMAOFKHsJcIyUZ04zpON21eZ2oNYV01PizZzKaoWHqNney8acZp325J8YykRDmHLDegFn09RioZjPgsHukhICaDVIFSiR70dGMhG5Eojn1JeOQKPCKfMR0va12lc2b3LkaSVjW44hJbymiP6uIC_Px0IoK4tohD7RJ10NSci2CP-v0WyYvl_6jzJBUemmhj4b8YoqB3f2cO0bXpuxWa1jLhgR4IMGiZD9MqMUCnE6Ln_rn9uzeJOH32eW4wGreE-UnkFnoYTkonyvDB9QrsLzIrTqF0_v-UYqoZpjfXItVLmgkEF-MrpLVDN_CKJwd8-1bMpnzSKDpNxo4xzFlA-U10_U7vmw13VNJFR9UbCHqBjvvUoninc3lqw1v6xHNfWtKFGnCzkn10rG3UejvLkjZN1RG6uoON-ZPv0TrZnTWV]--></g></svg>