<?xml version="1.0" encoding="us-ascii" standalone="no"?><svg xmlns="http://www.w3.org/2000/svg" xmlns:xlink="http://www.w3.org/1999/xlink" contentStyleType="text/css" height="1319px" preserveAspectRatio="none" style="width:1777px;height:1319px;background:#FFFFFF;" version="1.1" viewBox="0 0 1777 1319" width="1777px" zoomAndPan="magnify"><defs/><g><rect fill="#FFFFFF" height="1129.8125" style="stroke:#181818;stroke-width:1.0;" width="10" x="116.5" y="91.2969"/><rect fill="#FFFFFF" height="29.1328" style="stroke:#181818;stroke-width:1.0;" width="10" x="442.5" y="112.4297"/><rect fill="#FFFFFF" height="356.7578" style="stroke:#181818;stroke-width:1.0;" width="10" x="442.5" y="170.6953"/><rect fill="#FFFFFF" height="29.1328" style="stroke:#181818;stroke-width:1.0;" width="10" x="442.5" y="556.5859"/><rect fill="#FFFFFF" height="606.2578" style="stroke:#181818;stroke-width:1.0;" width="10" x="442.5" y="614.8516"/><rect fill="#FFFFFF" height="203.9297" style="stroke:#181818;stroke-width:1.0;" width="10" x="803.5" y="241.125"/><rect fill="#FFFFFF" height="540.9922" style="stroke:#181818;stroke-width:1.0;" width="10" x="803.5" y="650.9844"/><rect fill="#FFFFFF" height="467.7266" style="stroke:#181818;stroke-width:1.0;" width="10" x="808.5" y="688.1172"/><rect fill="#FFFFFF" height="29.1328" style="stroke:#181818;stroke-width:1.0;" width="10" x="1159.5" y="270.2578"/><rect fill="#FFFFFF" height="29.1328" style="stroke:#181818;stroke-width:1.0;" width="10" x="1159.5" y="722.25"/><rect fill="#FFFFFF" height="29.1328" style="stroke:#181818;stroke-width:1.0;" width="10" x="1276.5" y="328.5234"/><rect fill="#FFFFFF" height="29.1328" style="stroke:#181818;stroke-width:1.0;" width="10" x="1276.5" y="780.5156"/><rect fill="#FFFFFF" height="281.9297" style="stroke:#181818;stroke-width:1.0;" width="10" x="1432" y="838.7813"/><rect fill="#FFFFFF" height="208.6641" style="stroke:#181818;stroke-width:1.0;" width="10" x="1437" y="875.9141"/><rect fill="#FFFFFF" height="124.3984" style="stroke:#181818;stroke-width:1.0;" width="10" x="1442" y="918.0469"/><rect fill="#FFFFFF" height="40.1328" style="stroke:#181818;stroke-width:1.0;" width="10" x="1447" y="960.1797"/><rect fill="#FFFFFF" height="29.1328" style="stroke:#181818;stroke-width:1.0;" width="10" x="1704" y="386.7891"/><rect fill="none" height="133.6641" style="stroke:#000000;stroke-width:1.5;" width="546" x="10" y="489.1875"/><line style="stroke:#181818;stroke-width:0.5;stroke-dasharray:5.0,5.0;" x1="121" x2="121" y1="81.2969" y2="1239.1094"/><line style="stroke:#181818;stroke-width:0.5;stroke-dasharray:5.0,5.0;" x1="447" x2="447" y1="81.2969" y2="1239.1094"/><line style="stroke:#181818;stroke-width:0.5;stroke-dasharray:5.0,5.0;" x1="808.5" x2="808.5" y1="209.3438" y2="1239.1094"/><line style="stroke:#181818;stroke-width:0.5;stroke-dasharray:5.0,5.0;" x1="1164" x2="1164" y1="81.2969" y2="1239.1094"/><line style="stroke:#181818;stroke-width:0.5;stroke-dasharray:5.0,5.0;" x1="1281" x2="1281" y1="81.2969" y2="1239.1094"/><line style="stroke:#181818;stroke-width:0.5;stroke-dasharray:5.0,5.0;" x1="1437" x2="1437" y1="81.2969" y2="1239.1094"/><line style="stroke:#181818;stroke-width:0.5;stroke-dasharray:5.0,5.0;" x1="1709" x2="1709" y1="81.2969" y2="1239.1094"/><text fill="#000000" font-family="sans-serif" font-size="14" lengthAdjust="spacing" textLength="197" x="20" y="77.9951">Human Resources Manager</text><ellipse cx="121.5" cy="13.5" fill="#E3E3E3" rx="8" ry="8" style="stroke:#181818;stroke-width:0.5;"/><path d="M121.5,21.5 L121.5,48.5 M108.5,29.5 L134.5,29.5 M121.5,48.5 L108.5,63.5 M121.5,48.5 L134.5,63.5 " fill="none" style="stroke:#181818;stroke-width:0.5;"/><text fill="#000000" font-family="sans-serif" font-size="14" lengthAdjust="spacing" textLength="197" x="20" y="1251.1045">Human Resources Manager</text><ellipse cx="121.5" cy="1262.9063" fill="#E3E3E3" rx="8" ry="8" style="stroke:#181818;stroke-width:0.5;"/><path d="M121.5,1270.9063 L121.5,1297.9063 M108.5,1278.9063 L134.5,1278.9063 M121.5,1297.9063 L108.5,1312.9063 M121.5,1297.9063 L134.5,1312.9063 " fill="none" style="stroke:#181818;stroke-width:0.5;"/><rect fill="#E3E3E3" height="30.2969" rx="2.5" ry="2.5" style="stroke:#181818;stroke-width:0.5;" width="197" x="349" y="50"/><text fill="#000000" font-family="sans-serif" font-size="14" lengthAdjust="spacing" textLength="183" x="356" y="69.9951">:AssignSkillCollaboratorUI</text><rect fill="#E3E3E3" height="30.2969" rx="2.5" ry="2.5" style="stroke:#181818;stroke-width:0.5;" width="197" x="349" y="1238.1094"/><text fill="#000000" font-family="sans-serif" font-size="14" lengthAdjust="spacing" textLength="183" x="356" y="1258.1045">:AssignSkillCollaboratorUI</text><rect fill="#E3E3E3" height="30.2969" rx="2.5" ry="2.5" style="stroke:#181818;stroke-width:0.5;" width="248" x="684.5" y="1238.1094"/><text fill="#000000" font-family="sans-serif" font-size="14" lengthAdjust="spacing" textLength="234" x="691.5" y="1258.1045">:AssignSkillCollaboratoController</text><rect fill="#E3E3E3" height="30.2969" rx="2.5" ry="2.5" style="stroke:#181818;stroke-width:0.5;" width="107" x="1111" y="50"/><text fill="#000000" font-family="sans-serif" font-size="14" lengthAdjust="spacing" textLength="93" x="1118" y="69.9951">:Repositories</text><rect fill="#E3E3E3" height="30.2969" rx="2.5" ry="2.5" style="stroke:#181818;stroke-width:0.5;" width="107" x="1111" y="1238.1094"/><text fill="#000000" font-family="sans-serif" font-size="14" lengthAdjust="spacing" textLength="93" x="1118" y="1258.1045">:Repositories</text><rect fill="#E3E3E3" height="46.5938" rx="2.5" ry="2.5" style="stroke:#181818;stroke-width:0.5;" width="107" x="1228" y="33.7031"/><text fill="#000000" font-family="sans-serif" font-size="14" lengthAdjust="spacing" textLength="84" x="1239.5" y="53.6982">repositories</text><text fill="#000000" font-family="sans-serif" font-size="14" lengthAdjust="spacing" textLength="93" x="1235" y="69.9951">:Repositories</text><rect fill="#E3E3E3" height="46.5938" rx="2.5" ry="2.5" style="stroke:#181818;stroke-width:0.5;" width="107" x="1228" y="1238.1094"/><text fill="#000000" font-family="sans-serif" font-size="14" lengthAdjust="spacing" textLength="84" x="1239.5" y="1258.1045">repositories</text><text fill="#000000" font-family="sans-serif" font-size="14" lengthAdjust="spacing" textLength="93" x="1235" y="1274.4014">:Repositories</text><rect fill="#E3E3E3" height="46.5938" rx="2.5" ry="2.5" style="stroke:#181818;stroke-width:0.5;" width="184" x="1345" y="33.7031"/><text fill="#000000" font-family="sans-serif" font-size="14" lengthAdjust="spacing" textLength="163" x="1355.5" y="53.6982">collaboratorRepository</text><text fill="#000000" font-family="sans-serif" font-size="14" lengthAdjust="spacing" textLength="170" x="1352" y="69.9951">:CollaboratorRepository</text><rect fill="#E3E3E3" height="46.5938" rx="2.5" ry="2.5" style="stroke:#181818;stroke-width:0.5;" width="184" x="1345" y="1238.1094"/><text fill="#000000" font-family="sans-serif" font-size="14" lengthAdjust="spacing" textLength="163" x="1355.5" y="1258.1045">collaboratorRepository</text><text fill="#000000" font-family="sans-serif" font-size="14" lengthAdjust="spacing" textLength="170" x="1352" y="1274.4014">:CollaboratorRepository</text><rect fill="#E3E3E3" height="46.5938" rx="2.5" ry="2.5" style="stroke:#181818;stroke-width:0.5;" width="124" x="1647" y="33.7031"/><text fill="#000000" font-family="sans-serif" font-size="14" lengthAdjust="spacing" textLength="103" x="1657.5" y="53.6982">skillRepository</text><text fill="#000000" font-family="sans-serif" font-size="14" lengthAdjust="spacing" textLength="110" x="1654" y="69.9951">:SkillRepository</text><rect fill="#E3E3E3" height="46.5938" rx="2.5" ry="2.5" style="stroke:#181818;stroke-width:0.5;" width="124" x="1647" y="1238.1094"/><text fill="#000000" font-family="sans-serif" font-size="14" lengthAdjust="spacing" textLength="103" x="1657.5" y="1258.1045">skillRepository</text><text fill="#000000" font-family="sans-serif" font-size="14" lengthAdjust="spacing" textLength="110" x="1654" y="1274.4014">:SkillRepository</text><rect fill="#FFFFFF" height="1129.8125" style="stroke:#181818;stroke-width:1.0;" width="10" x="116.5" y="91.2969"/><rect fill="#FFFFFF" height="29.1328" style="stroke:#181818;stroke-width:1.0;" width="10" x="442.5" y="112.4297"/><rect fill="#FFFFFF" height="356.7578" style="stroke:#181818;stroke-width:1.0;" width="10" x="442.5" y="170.6953"/><rect fill="#FFFFFF" height="29.1328" style="stroke:#181818;stroke-width:1.0;" width="10" x="442.5" y="556.5859"/><rect fill="#FFFFFF" height="606.2578" style="stroke:#181818;stroke-width:1.0;" width="10" x="442.5" y="614.8516"/><rect fill="#FFFFFF" height="203.9297" style="stroke:#181818;stroke-width:1.0;" width="10" x="803.5" y="241.125"/><rect fill="#FFFFFF" height="540.9922" style="stroke:#181818;stroke-width:1.0;" width="10" x="803.5" y="650.9844"/><rect fill="#FFFFFF" height="467.7266" style="stroke:#181818;stroke-width:1.0;" width="10" x="808.5" y="688.1172"/><rect fill="#FFFFFF" height="29.1328" style="stroke:#181818;stroke-width:1.0;" width="10" x="1159.5" y="270.2578"/><rect fill="#FFFFFF" height="29.1328" style="stroke:#181818;stroke-width:1.0;" width="10" x="1159.5" y="722.25"/><rect fill="#FFFFFF" height="29.1328" style="stroke:#181818;stroke-width:1.0;" width="10" x="1276.5" y="328.5234"/><rect fill="#FFFFFF" height="29.1328" style="stroke:#181818;stroke-width:1.0;" width="10" x="1276.5" y="780.5156"/><rect fill="#FFFFFF" height="281.9297" style="stroke:#181818;stroke-width:1.0;" width="10" x="1432" y="838.7813"/><rect fill="#FFFFFF" height="208.6641" style="stroke:#181818;stroke-width:1.0;" width="10" x="1437" y="875.9141"/><rect fill="#FFFFFF" height="124.3984" style="stroke:#181818;stroke-width:1.0;" width="10" x="1442" y="918.0469"/><rect fill="#FFFFFF" height="40.1328" style="stroke:#181818;stroke-width:1.0;" width="10" x="1447" y="960.1797"/><rect fill="#FFFFFF" height="29.1328" style="stroke:#181818;stroke-width:1.0;" width="10" x="1704" y="386.7891"/><polygon fill="#181818" points="430.5,108.4297,440.5,112.4297,430.5,116.4297,434.5,112.4297" style="stroke:#181818;stroke-width:1.0;"/><line style="stroke:#181818;stroke-width:1.0;" x1="126.5" x2="436.5" y1="112.4297" y2="112.4297"/><text fill="#000000" font-family="sans-serif" font-size="13" font-weight="bold" lengthAdjust="spacing" textLength="9" x="133.5" y="107.3638">1</text><text fill="#000000" font-family="sans-serif" font-size="13" lengthAdjust="spacing" textLength="247" x="146.5" y="107.3638">asks to assign a skill to a collaborator</text><polygon fill="#181818" points="137.5,137.5625,127.5,141.5625,137.5,145.5625,133.5,141.5625" style="stroke:#181818;stroke-width:1.0;"/><line style="stroke:#181818;stroke-width:1.0;stroke-dasharray:2.0,2.0;" x1="131.5" x2="446.5" y1="141.5625" y2="141.5625"/><text fill="#000000" font-family="sans-serif" font-size="13" font-weight="bold" lengthAdjust="spacing" textLength="9" x="143.5" y="136.4966">2</text><text fill="#000000" font-family="sans-serif" font-size="13" lengthAdjust="spacing" textLength="250" x="156.5" y="136.4966">request data (Collaborator ID Number)</text><polygon fill="#181818" points="430.5,166.6953,440.5,170.6953,430.5,174.6953,434.5,170.6953" style="stroke:#181818;stroke-width:1.0;"/><line style="stroke:#181818;stroke-width:1.0;" x1="126.5" x2="436.5" y1="170.6953" y2="170.6953"/><text fill="#000000" font-family="sans-serif" font-size="13" font-weight="bold" lengthAdjust="spacing" textLength="9" x="133.5" y="165.6294">3</text><text fill="#000000" font-family="sans-serif" font-size="13" lengthAdjust="spacing" textLength="148" x="146.5" y="165.6294">selects requested data</text><polygon fill="#181818" points="672.5,195.8281,682.5,199.8281,672.5,203.8281,676.5,199.8281" style="stroke:#181818;stroke-width:1.0;"/><line style="stroke:#181818;stroke-width:1.0;" x1="452.5" x2="678.5" y1="199.8281" y2="199.8281"/><text fill="#000000" font-family="sans-serif" font-size="13" font-weight="bold" lengthAdjust="spacing" textLength="9" x="459.5" y="194.7622">4</text><text fill="#000000" font-family="sans-serif" font-size="13" lengthAdjust="spacing" textLength="41" x="472.5" y="194.7622">create</text><rect fill="#E3E3E3" height="30.2969" rx="2.5" ry="2.5" style="stroke:#181818;stroke-width:0.5;" width="248" x="684.5" y="178.6953"/><text fill="#000000" font-family="sans-serif" font-size="14" lengthAdjust="spacing" textLength="234" x="691.5" y="198.6904">:AssignSkillCollaboratoController</text><polygon fill="#181818" points="791.5,237.125,801.5,241.125,791.5,245.125,795.5,241.125" style="stroke:#181818;stroke-width:1.0;"/><line style="stroke:#181818;stroke-width:1.0;" x1="452.5" x2="797.5" y1="241.125" y2="241.125"/><text fill="#000000" font-family="sans-serif" font-size="13" font-weight="bold" lengthAdjust="spacing" textLength="9" x="459.5" y="236.0591">5</text><text fill="#000000" font-family="sans-serif" font-size="13" lengthAdjust="spacing" textLength="82" x="472.5" y="236.0591">getSkillList()</text><polygon fill="#181818" points="1147.5,266.2578,1157.5,270.2578,1147.5,274.2578,1151.5,270.2578" style="stroke:#181818;stroke-width:1.0;"/><line style="stroke:#181818;stroke-width:1.0;" x1="813.5" x2="1153.5" y1="270.2578" y2="270.2578"/><text fill="#000000" font-family="sans-serif" font-size="13" font-weight="bold" lengthAdjust="spacing" textLength="9" x="820.5" y="265.1919">6</text><text fill="#000000" font-family="sans-serif" font-size="13" lengthAdjust="spacing" textLength="86" x="833.5" y="265.1919">getInstance()</text><polygon fill="#181818" points="824.5,295.3906,814.5,299.3906,824.5,303.3906,820.5,299.3906" style="stroke:#181818;stroke-width:1.0;"/><line style="stroke:#181818;stroke-width:1.0;stroke-dasharray:2.0,2.0;" x1="818.5" x2="1163.5" y1="299.3906" y2="299.3906"/><text fill="#000000" font-family="sans-serif" font-size="13" font-weight="bold" lengthAdjust="spacing" textLength="9" x="830.5" y="294.3247">7</text><text fill="#000000" font-family="sans-serif" font-size="13" lengthAdjust="spacing" textLength="77" x="843.5" y="294.3247">repositories</text><polygon fill="#181818" points="1264.5,324.5234,1274.5,328.5234,1264.5,332.5234,1268.5,328.5234" style="stroke:#181818;stroke-width:1.0;"/><line style="stroke:#181818;stroke-width:1.0;" x1="813.5" x2="1270.5" y1="328.5234" y2="328.5234"/><text fill="#000000" font-family="sans-serif" font-size="13" font-weight="bold" lengthAdjust="spacing" textLength="9" x="820.5" y="323.4575">8</text><text fill="#000000" font-family="sans-serif" font-size="13" lengthAdjust="spacing" textLength="129" x="833.5" y="323.4575">getSkillRepository()</text><polygon fill="#181818" points="824.5,353.6563,814.5,357.6563,824.5,361.6563,820.5,357.6563" style="stroke:#181818;stroke-width:1.0;"/><line style="stroke:#181818;stroke-width:1.0;stroke-dasharray:2.0,2.0;" x1="818.5" x2="1280.5" y1="357.6563" y2="357.6563"/><text fill="#000000" font-family="sans-serif" font-size="13" font-weight="bold" lengthAdjust="spacing" textLength="9" x="830.5" y="352.5903">9</text><text fill="#000000" font-family="sans-serif" font-size="13" lengthAdjust="spacing" textLength="97" x="843.5" y="352.5903">skillRepository</text><polygon fill="#181818" points="1692,382.7891,1702,386.7891,1692,390.7891,1696,386.7891" style="stroke:#181818;stroke-width:1.0;"/><line style="stroke:#181818;stroke-width:1.0;" x1="813.5" x2="1698" y1="386.7891" y2="386.7891"/><text fill="#000000" font-family="sans-serif" font-size="13" font-weight="bold" lengthAdjust="spacing" textLength="18" x="820.5" y="381.7231">10</text><text fill="#000000" font-family="sans-serif" font-size="13" lengthAdjust="spacing" textLength="82" x="842.5" y="381.7231">getSkillList()</text><polygon fill="#181818" points="824.5,411.9219,814.5,415.9219,824.5,419.9219,820.5,415.9219" style="stroke:#181818;stroke-width:1.0;"/><line style="stroke:#181818;stroke-width:1.0;stroke-dasharray:2.0,2.0;" x1="818.5" x2="1708" y1="415.9219" y2="415.9219"/><text fill="#000000" font-family="sans-serif" font-size="13" font-weight="bold" lengthAdjust="spacing" textLength="18" x="830.5" y="410.856">11</text><text fill="#000000" font-family="sans-serif" font-size="13" lengthAdjust="spacing" textLength="50" x="852.5" y="410.856">skillList</text><polygon fill="#181818" points="463.5,441.0547,453.5,445.0547,463.5,449.0547,459.5,445.0547" style="stroke:#181818;stroke-width:1.0;"/><line style="stroke:#181818;stroke-width:1.0;" x1="457.5" x2="807.5" y1="445.0547" y2="445.0547"/><text fill="#000000" font-family="sans-serif" font-size="13" font-weight="bold" lengthAdjust="spacing" textLength="18" x="469.5" y="439.9888">12</text><text fill="#000000" font-family="sans-serif" font-size="13" lengthAdjust="spacing" textLength="50" x="491.5" y="439.9888">skillList</text><polygon fill="#181818" points="137.5,470.1875,127.5,474.1875,137.5,478.1875,133.5,474.1875" style="stroke:#181818;stroke-width:1.0;"/><line style="stroke:#181818;stroke-width:1.0;" x1="131.5" x2="441.5" y1="474.1875" y2="474.1875"/><text fill="#000000" font-family="sans-serif" font-size="13" font-weight="bold" lengthAdjust="spacing" textLength="18" x="143.5" y="469.1216">13</text><text fill="#000000" font-family="sans-serif" font-size="13" lengthAdjust="spacing" textLength="95" x="165.5" y="469.1216">shows skillList</text><path d="M10,489.1875 L86,489.1875 L86,496.3203 L76,506.3203 L10,506.3203 L10,489.1875 " fill="#EEEEEE" style="stroke:#000000;stroke-width:1.5;"/><rect fill="none" height="133.6641" style="stroke:#000000;stroke-width:1.5;" width="546" x="10" y="489.1875"/><text fill="#000000" font-family="sans-serif" font-size="13" font-weight="bold" lengthAdjust="spacing" textLength="31" x="25" y="502.2544">loop</text><text fill="#000000" font-family="sans-serif" font-size="11" font-weight="bold" lengthAdjust="spacing" textLength="91" x="101" y="501.3979">[selects skills]</text><polygon fill="#181818" points="137.5,523.4531,127.5,527.4531,137.5,531.4531,133.5,527.4531" style="stroke:#181818;stroke-width:1.0;"/><line style="stroke:#181818;stroke-width:1.0;stroke-dasharray:2.0,2.0;" x1="131.5" x2="446.5" y1="527.4531" y2="527.4531"/><text fill="#000000" font-family="sans-serif" font-size="13" font-weight="bold" lengthAdjust="spacing" textLength="18" x="143.5" y="522.3872">14</text><text fill="#000000" font-family="sans-serif" font-size="13" lengthAdjust="spacing" textLength="123" x="165.5" y="522.3872">request data (skill)</text><polygon fill="#181818" points="430.5,552.5859,440.5,556.5859,430.5,560.5859,434.5,556.5859" style="stroke:#181818;stroke-width:1.0;"/><line style="stroke:#181818;stroke-width:1.0;" x1="126.5" x2="436.5" y1="556.5859" y2="556.5859"/><text fill="#000000" font-family="sans-serif" font-size="13" font-weight="bold" lengthAdjust="spacing" textLength="18" x="133.5" y="551.52">15</text><text fill="#000000" font-family="sans-serif" font-size="13" lengthAdjust="spacing" textLength="81" x="155.5" y="551.52">selects  skill</text><polygon fill="#181818" points="137.5,581.7188,127.5,585.7188,137.5,589.7188,133.5,585.7188" style="stroke:#181818;stroke-width:1.0;"/><line style="stroke:#181818;stroke-width:1.0;stroke-dasharray:2.0,2.0;" x1="131.5" x2="446.5" y1="585.7188" y2="585.7188"/><text fill="#000000" font-family="sans-serif" font-size="13" font-weight="bold" lengthAdjust="spacing" textLength="18" x="143.5" y="580.6528">16</text><text fill="#000000" font-family="sans-serif" font-size="13" lengthAdjust="spacing" textLength="270" x="165.5" y="580.6528">show all data registered  for confirmation</text><polygon fill="#181818" points="430.5,610.8516,440.5,614.8516,430.5,618.8516,434.5,614.8516" style="stroke:#181818;stroke-width:1.0;"/><line style="stroke:#181818;stroke-width:1.0;" x1="126.5" x2="436.5" y1="614.8516" y2="614.8516"/><text fill="#000000" font-family="sans-serif" font-size="13" font-weight="bold" lengthAdjust="spacing" textLength="18" x="133.5" y="609.7856">17</text><text fill="#000000" font-family="sans-serif" font-size="13" lengthAdjust="spacing" textLength="85" x="155.5" y="609.7856">submits data</text><polygon fill="#181818" points="791.5,646.9844,801.5,650.9844,791.5,654.9844,795.5,650.9844" style="stroke:#181818;stroke-width:1.0;"/><line style="stroke:#181818;stroke-width:1.0;" x1="452.5" x2="797.5" y1="650.9844" y2="650.9844"/><text fill="#000000" font-family="sans-serif" font-size="13" font-weight="bold" lengthAdjust="spacing" textLength="18" x="459.5" y="645.9185">18</text><text fill="#000000" font-family="sans-serif" font-size="13" lengthAdjust="spacing" textLength="310" x="481.5" y="645.9185">assignSkillCollaboratorById(collaboratorId,skill)</text><line style="stroke:#181818;stroke-width:1.0;" x1="813.5" x2="860.5" y1="675.1172" y2="675.1172"/><line style="stroke:#181818;stroke-width:1.0;" x1="860.5" x2="860.5" y1="675.1172" y2="688.1172"/><line style="stroke:#181818;stroke-width:1.0;" x1="819.5" x2="860.5" y1="688.1172" y2="688.1172"/><polygon fill="#181818" points="829.5,684.1172,819.5,688.1172,829.5,692.1172,825.5,688.1172" style="stroke:#181818;stroke-width:1.0;"/><text fill="#000000" font-family="sans-serif" font-size="13" font-weight="bold" lengthAdjust="spacing" textLength="18" x="825.5" y="670.0513">19</text><text fill="#000000" font-family="sans-serif" font-size="13" lengthAdjust="spacing" textLength="310" x="847.5" y="670.0513">assignSkillCollaboratorById(collaboratorId,skill)</text><polygon fill="#181818" points="1147.5,718.25,1157.5,722.25,1147.5,726.25,1151.5,722.25" style="stroke:#181818;stroke-width:1.0;"/><line style="stroke:#181818;stroke-width:1.0;" x1="818.5" x2="1153.5" y1="722.25" y2="722.25"/><text fill="#000000" font-family="sans-serif" font-size="13" font-weight="bold" lengthAdjust="spacing" textLength="18" x="825.5" y="717.1841">20</text><text fill="#000000" font-family="sans-serif" font-size="13" lengthAdjust="spacing" textLength="86" x="847.5" y="717.1841">getInstance()</text><polygon fill="#181818" points="829.5,747.3828,819.5,751.3828,829.5,755.3828,825.5,751.3828" style="stroke:#181818;stroke-width:1.0;"/><line style="stroke:#181818;stroke-width:1.0;stroke-dasharray:2.0,2.0;" x1="823.5" x2="1163.5" y1="751.3828" y2="751.3828"/><text fill="#000000" font-family="sans-serif" font-size="13" font-weight="bold" lengthAdjust="spacing" textLength="18" x="835.5" y="746.3169">21</text><text fill="#000000" font-family="sans-serif" font-size="13" lengthAdjust="spacing" textLength="77" x="857.5" y="746.3169">repositories</text><polygon fill="#181818" points="1264.5,776.5156,1274.5,780.5156,1264.5,784.5156,1268.5,780.5156" style="stroke:#181818;stroke-width:1.0;"/><line style="stroke:#181818;stroke-width:1.0;" x1="818.5" x2="1270.5" y1="780.5156" y2="780.5156"/><text fill="#000000" font-family="sans-serif" font-size="13" font-weight="bold" lengthAdjust="spacing" textLength="18" x="825.5" y="775.4497">22</text><text fill="#000000" font-family="sans-serif" font-size="13" lengthAdjust="spacing" textLength="181" x="847.5" y="775.4497">getCollaboratorRepository()</text><polygon fill="#181818" points="829.5,805.6484,819.5,809.6484,829.5,813.6484,825.5,809.6484" style="stroke:#181818;stroke-width:1.0;"/><line style="stroke:#181818;stroke-width:1.0;stroke-dasharray:2.0,2.0;" x1="823.5" x2="1280.5" y1="809.6484" y2="809.6484"/><text fill="#000000" font-family="sans-serif" font-size="13" font-weight="bold" lengthAdjust="spacing" textLength="18" x="835.5" y="804.5825">23</text><text fill="#000000" font-family="sans-serif" font-size="13" lengthAdjust="spacing" textLength="148" x="857.5" y="804.5825">collaboratorRepository</text><polygon fill="#181818" points="1420,834.7813,1430,838.7813,1420,842.7813,1424,838.7813" style="stroke:#181818;stroke-width:1.0;"/><line style="stroke:#181818;stroke-width:1.0;" x1="818.5" x2="1426" y1="838.7813" y2="838.7813"/><text fill="#000000" font-family="sans-serif" font-size="13" font-weight="bold" lengthAdjust="spacing" textLength="18" x="825.5" y="833.7153">24</text><text fill="#000000" font-family="sans-serif" font-size="13" lengthAdjust="spacing" textLength="310" x="847.5" y="833.7153">assignSkillCollaboratorById(collaboratorId,skill)</text><line style="stroke:#181818;stroke-width:1.0;" x1="1442" x2="1489" y1="862.9141" y2="862.9141"/><line style="stroke:#181818;stroke-width:1.0;" x1="1489" x2="1489" y1="862.9141" y2="875.9141"/><line style="stroke:#181818;stroke-width:1.0;" x1="1448" x2="1489" y1="875.9141" y2="875.9141"/><polygon fill="#181818" points="1458,871.9141,1448,875.9141,1458,879.9141,1454,875.9141" style="stroke:#181818;stroke-width:1.0;"/><text fill="#000000" font-family="sans-serif" font-size="13" font-weight="bold" lengthAdjust="spacing" textLength="18" x="1454" y="857.8481">25</text><text fill="#000000" font-family="sans-serif" font-size="13" lengthAdjust="spacing" textLength="226" x="1476" y="857.8481">findCollaboratorById(collboratorId)</text><line style="stroke:#181818;stroke-width:1.0;" x1="1447" x2="1494" y1="905.0469" y2="905.0469"/><line style="stroke:#181818;stroke-width:1.0;" x1="1494" x2="1494" y1="905.0469" y2="918.0469"/><line style="stroke:#181818;stroke-width:1.0;" x1="1453" x2="1494" y1="918.0469" y2="918.0469"/><polygon fill="#181818" points="1463,914.0469,1453,918.0469,1463,922.0469,1459,918.0469" style="stroke:#181818;stroke-width:1.0;"/><text fill="#000000" font-family="sans-serif" font-size="13" font-weight="bold" lengthAdjust="spacing" textLength="18" x="1459" y="899.981">26</text><text fill="#000000" font-family="sans-serif" font-size="13" lengthAdjust="spacing" textLength="187" x="1481" y="899.981">assignSkillCollaborator(skill)</text><line style="stroke:#181818;stroke-width:1.0;" x1="1452" x2="1499" y1="947.1797" y2="947.1797"/><line style="stroke:#181818;stroke-width:1.0;" x1="1499" x2="1499" y1="947.1797" y2="960.1797"/><line style="stroke:#181818;stroke-width:1.0;" x1="1458" x2="1499" y1="960.1797" y2="960.1797"/><polygon fill="#181818" points="1468,956.1797,1458,960.1797,1468,964.1797,1464,960.1797" style="stroke:#181818;stroke-width:1.0;"/><text fill="#000000" font-family="sans-serif" font-size="13" font-weight="bold" lengthAdjust="spacing" textLength="18" x="1464" y="942.1138">27</text><text fill="#000000" font-family="sans-serif" font-size="13" lengthAdjust="spacing" textLength="152" x="1486" y="942.1138">validateIfHasSkill(skill)</text><line style="stroke:#181818;stroke-width:1.0;stroke-dasharray:2.0,2.0;" x1="1457" x2="1499" y1="999.3125" y2="999.3125"/><line style="stroke:#181818;stroke-width:1.0;stroke-dasharray:2.0,2.0;" x1="1499" x2="1499" y1="999.3125" y2="1012.3125"/><line style="stroke:#181818;stroke-width:1.0;stroke-dasharray:2.0,2.0;" x1="1452" x2="1499" y1="1012.3125" y2="1012.3125"/><polygon fill="#181818" points="1462,1008.3125,1452,1012.3125,1462,1016.3125,1458,1012.3125" style="stroke:#181818;stroke-width:1.0;"/><text fill="#000000" font-family="sans-serif" font-size="13" font-weight="bold" lengthAdjust="spacing" textLength="18" x="1464" y="994.2466">28</text><text fill="#000000" font-family="sans-serif" font-size="13" lengthAdjust="spacing" textLength="4" x="1486" y="994.2466">&#160;</text><line style="stroke:#181818;stroke-width:1.0;stroke-dasharray:2.0,2.0;" x1="1452" x2="1494" y1="1041.4453" y2="1041.4453"/><line style="stroke:#181818;stroke-width:1.0;stroke-dasharray:2.0,2.0;" x1="1494" x2="1494" y1="1041.4453" y2="1054.4453"/><line style="stroke:#181818;stroke-width:1.0;stroke-dasharray:2.0,2.0;" x1="1447" x2="1494" y1="1054.4453" y2="1054.4453"/><polygon fill="#181818" points="1457,1050.4453,1447,1054.4453,1457,1058.4453,1453,1054.4453" style="stroke:#181818;stroke-width:1.0;"/><text fill="#000000" font-family="sans-serif" font-size="13" font-weight="bold" lengthAdjust="spacing" textLength="18" x="1459" y="1036.3794">29</text><text fill="#000000" font-family="sans-serif" font-size="13" lengthAdjust="spacing" textLength="4" x="1481" y="1036.3794">&#160;</text><line style="stroke:#181818;stroke-width:1.0;stroke-dasharray:2.0,2.0;" x1="1447" x2="1489" y1="1083.5781" y2="1083.5781"/><line style="stroke:#181818;stroke-width:1.0;stroke-dasharray:2.0,2.0;" x1="1489" x2="1489" y1="1083.5781" y2="1096.5781"/><line style="stroke:#181818;stroke-width:1.0;stroke-dasharray:2.0,2.0;" x1="1442" x2="1489" y1="1096.5781" y2="1096.5781"/><polygon fill="#181818" points="1452,1092.5781,1442,1096.5781,1452,1100.5781,1448,1096.5781" style="stroke:#181818;stroke-width:1.0;"/><text fill="#000000" font-family="sans-serif" font-size="13" font-weight="bold" lengthAdjust="spacing" textLength="18" x="1454" y="1078.5122">30</text><text fill="#000000" font-family="sans-serif" font-size="13" lengthAdjust="spacing" textLength="4" x="1476" y="1078.5122">&#160;</text><polygon fill="#181818" points="829.5,1116.7109,819.5,1120.7109,829.5,1124.7109,825.5,1120.7109" style="stroke:#181818;stroke-width:1.0;"/><line style="stroke:#181818;stroke-width:1.0;stroke-dasharray:2.0,2.0;" x1="823.5" x2="1436" y1="1120.7109" y2="1120.7109"/><text fill="#000000" font-family="sans-serif" font-size="13" font-weight="bold" lengthAdjust="spacing" textLength="18" x="835.5" y="1115.645">31</text><text fill="#000000" font-family="sans-serif" font-size="13" lengthAdjust="spacing" textLength="62" x="857.5" y="1115.645">true/false</text><line style="stroke:#181818;stroke-width:1.0;stroke-dasharray:2.0,2.0;" x1="818.5" x2="860.5" y1="1154.8438" y2="1154.8438"/><line style="stroke:#181818;stroke-width:1.0;stroke-dasharray:2.0,2.0;" x1="860.5" x2="860.5" y1="1154.8438" y2="1167.8438"/><line style="stroke:#181818;stroke-width:1.0;stroke-dasharray:2.0,2.0;" x1="813.5" x2="860.5" y1="1167.8438" y2="1167.8438"/><polygon fill="#181818" points="823.5,1163.8438,813.5,1167.8438,823.5,1171.8438,819.5,1167.8438" style="stroke:#181818;stroke-width:1.0;"/><text fill="#000000" font-family="sans-serif" font-size="13" font-weight="bold" lengthAdjust="spacing" textLength="18" x="825.5" y="1149.7778">32</text><text fill="#000000" font-family="sans-serif" font-size="13" lengthAdjust="spacing" textLength="62" x="847.5" y="1149.7778">true/false</text><polygon fill="#181818" points="463.5,1187.9766,453.5,1191.9766,463.5,1195.9766,459.5,1191.9766" style="stroke:#181818;stroke-width:1.0;"/><line style="stroke:#181818;stroke-width:1.0;stroke-dasharray:2.0,2.0;" x1="457.5" x2="807.5" y1="1191.9766" y2="1191.9766"/><text fill="#000000" font-family="sans-serif" font-size="13" font-weight="bold" lengthAdjust="spacing" textLength="18" x="469.5" y="1186.9106">33</text><text fill="#000000" font-family="sans-serif" font-size="13" lengthAdjust="spacing" textLength="62" x="491.5" y="1186.9106">true/false</text><polygon fill="#181818" points="132.5,1217.1094,122.5,1221.1094,132.5,1225.1094,128.5,1221.1094" style="stroke:#181818;stroke-width:1.0;"/><line style="stroke:#181818;stroke-width:1.0;stroke-dasharray:2.0,2.0;" x1="126.5" x2="446.5" y1="1221.1094" y2="1221.1094"/><text fill="#000000" font-family="sans-serif" font-size="13" font-weight="bold" lengthAdjust="spacing" textLength="18" x="138.5" y="1216.0435">34</text><text fill="#000000" font-family="sans-serif" font-size="13" lengthAdjust="spacing" textLength="246" x="160.5" y="1216.0435">displays the success of the operation.</text><!--SRC=[pLV1Zjem4BtxAwozb5sLzivXfIqz48cjAbXklPXa08l4Jcrdj_nznmu4EpW10OVD1SMPUVDcU3EszPQBaYbMq48AcMwKB80QLG7HpPUIfLksXhdPvK0Lf8Q9TUuRw0tBv0SNQxfYkGP2M6Mag8ebA4A-R7W6T2MbMSf_XAL6AlemgGecw0oqh5GAchuoWH7K0sMQJcQl174DJtd9XA4FenUj-LhCjppFnpBFsL8gXZ2BnDalaelCnr8OXQ_xAEEtsRJbDuDIQex07BIpQHPsSsvJngH25-Lv_16d0B-dBs-XH-hnFyAZxpZwmQ74VK9SRRCD0EVXYaDgMH7xT_1tPi0LdT3zWozq-8o5fIFqscfg9FxQeb9MOxYLW1WvkZUW-CyqYmWsH4mBFK8H_Qr06venm-Z0JvqcF-alfvp7nZM3035AKqEEmjG7PCWSzdbApqu8Jqy8aIf0YzXd_BW6umewvTeC7azndPoQPViuHmI8YAZ6IuJ6Jah1WmiWO-eBB6F8moDbNvo1drVFip4EMLWbUsKu-dMnTz8FFZa8ZrzRZ1qKJu4Ed5e0tVzIGEoa1tohDcIRhWNk8jeBVE3in1h1yd2Sb7pVMeXrv-YD_D2UV_rOgrpAica3Pw0lwZvdUbsprM7YJHOFRUbJXlF3nLQmnXn0ORVY1g5mdeWLLmKp76NOGIZAfreM7Fa4BTzcPDz1PCGhMRJJMNop-R5Bie4_y9BiQwjqaO4GrS1T0bqmWUunZQwRJFUOKjTEhFxf5TzcBqdwT0xr3RUEFVk21EiuPrEA1xYRh8BKEvBfTEpWriTwnKKMfTkm_GGyEuixkB6IzoFupdAEOn2IrOHfn_CSjvkhU8vi9zkpY5vNtAbmFH8aduF53JJ8DKJsyyfU-RxNjxSR2FGFhMkZxRVIK_W6Tf7qOlOThi8ZoeXcN9Svs-6TPuD7kYh5swccSkLUPGdA7Kw-aOxZIMl5tgh-0m00]--></g></svg>