<?xml version="1.0" encoding="us-ascii" standalone="no"?><svg xmlns="http://www.w3.org/2000/svg" xmlns:xlink="http://www.w3.org/1999/xlink" contentStyleType="text/css" height="466px" preserveAspectRatio="none" style="width:653px;height:466px;background:#FFFFFF;" version="1.1" viewBox="0 0 653 466" width="653px" zoomAndPan="magnify"><defs/><g><rect fill="#FFFFFF" height="322.0625" style="stroke:#181818;stroke-width:1.0;" width="10" x="351" y="83.7266"/><rect fill="#FFFFFF" height="208.6641" style="stroke:#181818;stroke-width:1.0;" width="10" x="356" y="144.9922"/><rect fill="#FFFFFF" height="124.3984" style="stroke:#181818;stroke-width:1.0;" width="10" x="361" y="187.125"/><rect fill="#FFFFFF" height="40.1328" style="stroke:#181818;stroke-width:1.0;" width="10" x="366" y="229.2578"/><rect fill="none" height="269.9297" style="stroke:#000000;stroke-width:1.5;" width="393" x="254" y="98.7266"/><line style="stroke:#181818;stroke-width:0.5;stroke-dasharray:5.0,5.0;" x1="60" x2="60" y1="52.5938" y2="414.7891"/><line style="stroke:#181818;stroke-width:0.5;stroke-dasharray:5.0,5.0;" x1="356" x2="356" y1="52.5938" y2="414.7891"/><rect fill="#E3E3E3" height="46.5938" rx="2.5" ry="2.5" style="stroke:#181818;stroke-width:0.5;" width="110" x="5" y="5"/><text fill="#000000" font-family="sans-serif" font-size="14" lengthAdjust="spacing" textLength="89" x="15.5" y="24.9951">organization</text><text fill="#000000" font-family="sans-serif" font-size="14" lengthAdjust="spacing" textLength="96" x="12" y="41.292">:Organization</text><rect fill="#E3E3E3" height="46.5938" rx="2.5" ry="2.5" style="stroke:#181818;stroke-width:0.5;" width="110" x="5" y="413.7891"/><text fill="#000000" font-family="sans-serif" font-size="14" lengthAdjust="spacing" textLength="89" x="15.5" y="433.7842">organization</text><text fill="#000000" font-family="sans-serif" font-size="14" lengthAdjust="spacing" textLength="96" x="12" y="450.0811">:Organization</text><rect fill="#E3E3E3" height="46.5938" rx="2.5" ry="2.5" style="stroke:#181818;stroke-width:0.5;" width="184" x="264" y="5"/><text fill="#000000" font-family="sans-serif" font-size="14" lengthAdjust="spacing" textLength="163" x="274.5" y="24.9951">collaboratorRepository</text><text fill="#000000" font-family="sans-serif" font-size="14" lengthAdjust="spacing" textLength="170" x="271" y="41.292">:CollaboratorRepository</text><rect fill="#E3E3E3" height="46.5938" rx="2.5" ry="2.5" style="stroke:#181818;stroke-width:0.5;" width="184" x="264" y="413.7891"/><text fill="#000000" font-family="sans-serif" font-size="14" lengthAdjust="spacing" textLength="163" x="274.5" y="433.7842">collaboratorRepository</text><text fill="#000000" font-family="sans-serif" font-size="14" lengthAdjust="spacing" textLength="170" x="271" y="450.0811">:CollaboratorRepository</text><rect fill="#FFFFFF" height="322.0625" style="stroke:#181818;stroke-width:1.0;" width="10" x="351" y="83.7266"/><rect fill="#FFFFFF" height="208.6641" style="stroke:#181818;stroke-width:1.0;" width="10" x="356" y="144.9922"/><rect fill="#FFFFFF" height="124.3984" style="stroke:#181818;stroke-width:1.0;" width="10" x="361" y="187.125"/><rect fill="#FFFFFF" height="40.1328" style="stroke:#181818;stroke-width:1.0;" width="10" x="366" y="229.2578"/><polygon fill="#181818" points="339,79.7266,349,83.7266,339,87.7266,343,83.7266" style="stroke:#181818;stroke-width:1.0;"/><line style="stroke:#181818;stroke-width:1.0;" x1="0" x2="345" y1="83.7266" y2="83.7266"/><text fill="#000000" font-family="sans-serif" font-size="13" font-weight="bold" lengthAdjust="spacing" textLength="18" x="7" y="78.6606">16</text><text fill="#000000" font-family="sans-serif" font-size="13" lengthAdjust="spacing" textLength="310" x="29" y="78.6606">assignSkillCollaboratorById(collaboratorId,skill)</text><path d="M254,98.7266 L497,98.7266 L497,105.8594 L487,115.8594 L254,115.8594 L254,98.7266 " fill="#EEEEEE" style="stroke:#000000;stroke-width:1.5;"/><rect fill="none" height="269.9297" style="stroke:#000000;stroke-width:1.5;" width="393" x="254" y="98.7266"/><text fill="#000000" font-family="sans-serif" font-size="13" font-weight="bold" lengthAdjust="spacing" textLength="198" x="269" y="111.7935">Assign Skill to Collaborator</text><line style="stroke:#181818;stroke-width:1.0;" x1="361" x2="408" y1="131.9922" y2="131.9922"/><line style="stroke:#181818;stroke-width:1.0;" x1="408" x2="408" y1="131.9922" y2="144.9922"/><line style="stroke:#181818;stroke-width:1.0;" x1="367" x2="408" y1="144.9922" y2="144.9922"/><polygon fill="#181818" points="377,140.9922,367,144.9922,377,148.9922,373,144.9922" style="stroke:#181818;stroke-width:1.0;"/><text fill="#000000" font-family="sans-serif" font-size="13" font-weight="bold" lengthAdjust="spacing" textLength="32" x="373" y="126.9263">16.1</text><text fill="#000000" font-family="sans-serif" font-size="13" lengthAdjust="spacing" textLength="226" x="409" y="126.9263">findCollaboratorById(collboratorId)</text><line style="stroke:#181818;stroke-width:1.0;" x1="366" x2="413" y1="174.125" y2="174.125"/><line style="stroke:#181818;stroke-width:1.0;" x1="413" x2="413" y1="174.125" y2="187.125"/><line style="stroke:#181818;stroke-width:1.0;" x1="372" x2="413" y1="187.125" y2="187.125"/><polygon fill="#181818" points="382,183.125,372,187.125,382,191.125,378,187.125" style="stroke:#181818;stroke-width:1.0;"/><text fill="#000000" font-family="sans-serif" font-size="13" font-weight="bold" lengthAdjust="spacing" textLength="32" x="378" y="169.0591">16.2</text><text fill="#000000" font-family="sans-serif" font-size="13" lengthAdjust="spacing" textLength="187" x="414" y="169.0591">assignSkillCollaborator(skill)</text><line style="stroke:#181818;stroke-width:1.0;" x1="371" x2="418" y1="216.2578" y2="216.2578"/><line style="stroke:#181818;stroke-width:1.0;" x1="418" x2="418" y1="216.2578" y2="229.2578"/><line style="stroke:#181818;stroke-width:1.0;" x1="377" x2="418" y1="229.2578" y2="229.2578"/><polygon fill="#181818" points="387,225.2578,377,229.2578,387,233.2578,383,229.2578" style="stroke:#181818;stroke-width:1.0;"/><text fill="#000000" font-family="sans-serif" font-size="13" font-weight="bold" lengthAdjust="spacing" textLength="32" x="383" y="211.1919">16.3</text><text fill="#000000" font-family="sans-serif" font-size="13" lengthAdjust="spacing" textLength="152" x="419" y="211.1919">validateIfHasSkill(skill)</text><line style="stroke:#181818;stroke-width:1.0;stroke-dasharray:2.0,2.0;" x1="376" x2="418" y1="268.3906" y2="268.3906"/><line style="stroke:#181818;stroke-width:1.0;stroke-dasharray:2.0,2.0;" x1="418" x2="418" y1="268.3906" y2="281.3906"/><line style="stroke:#181818;stroke-width:1.0;stroke-dasharray:2.0,2.0;" x1="371" x2="418" y1="281.3906" y2="281.3906"/><polygon fill="#181818" points="381,277.3906,371,281.3906,381,285.3906,377,281.3906" style="stroke:#181818;stroke-width:1.0;"/><text fill="#000000" font-family="sans-serif" font-size="13" font-weight="bold" lengthAdjust="spacing" textLength="32" x="383" y="263.3247">16.4</text><text fill="#000000" font-family="sans-serif" font-size="13" lengthAdjust="spacing" textLength="4" x="419" y="263.3247">&#160;</text><line style="stroke:#181818;stroke-width:1.0;stroke-dasharray:2.0,2.0;" x1="371" x2="413" y1="310.5234" y2="310.5234"/><line style="stroke:#181818;stroke-width:1.0;stroke-dasharray:2.0,2.0;" x1="413" x2="413" y1="310.5234" y2="323.5234"/><line style="stroke:#181818;stroke-width:1.0;stroke-dasharray:2.0,2.0;" x1="366" x2="413" y1="323.5234" y2="323.5234"/><polygon fill="#181818" points="376,319.5234,366,323.5234,376,327.5234,372,323.5234" style="stroke:#181818;stroke-width:1.0;"/><text fill="#000000" font-family="sans-serif" font-size="13" font-weight="bold" lengthAdjust="spacing" textLength="32" x="378" y="305.4575">16.5</text><text fill="#000000" font-family="sans-serif" font-size="13" lengthAdjust="spacing" textLength="4" x="414" y="305.4575">&#160;</text><line style="stroke:#181818;stroke-width:1.0;stroke-dasharray:2.0,2.0;" x1="366" x2="408" y1="352.6563" y2="352.6563"/><line style="stroke:#181818;stroke-width:1.0;stroke-dasharray:2.0,2.0;" x1="408" x2="408" y1="352.6563" y2="365.6563"/><line style="stroke:#181818;stroke-width:1.0;stroke-dasharray:2.0,2.0;" x1="361" x2="408" y1="365.6563" y2="365.6563"/><polygon fill="#181818" points="371,361.6563,361,365.6563,371,369.6563,367,365.6563" style="stroke:#181818;stroke-width:1.0;"/><text fill="#000000" font-family="sans-serif" font-size="13" font-weight="bold" lengthAdjust="spacing" textLength="32" x="373" y="347.5903">16.6</text><text fill="#000000" font-family="sans-serif" font-size="13" lengthAdjust="spacing" textLength="4" x="409" y="347.5903">&#160;</text><polygon fill="#181818" points="11,392.7891,1,396.7891,11,400.7891,7,396.7891" style="stroke:#181818;stroke-width:1.0;"/><line style="stroke:#181818;stroke-width:1.0;stroke-dasharray:2.0,2.0;" x1="5" x2="350" y1="396.7891" y2="396.7891"/><text fill="#000000" font-family="sans-serif" font-size="13" font-weight="bold" lengthAdjust="spacing" textLength="18" x="17" y="391.7231">17</text><text fill="#000000" font-family="sans-serif" font-size="13" lengthAdjust="spacing" textLength="62" x="39" y="391.7231">true/false</text><!--SRC=[lPJ1IyCm5CRl-IiUEsrWbLqKYWZgGNiQR5SlRqsQXQPv9KadzQ-tpQH4QNMRi9pIv7tVxqlQFbSgKwF52YeobEyiLGAyRGHpmqwDUObIR7oh1LYHUpHInmLkXvpUbP5Ge7Q2iMxPgrpLQ3pCo4eqwWEz8lDcqbNqE0Dqi5g_V1Vaf3LkoQ8dknOrETLDsaxwFBeHJCOrZ67ZoJJLLbXOthBaOQ8mxJoSacPJAgrZp5ERyNcioVYLwuiMFxolbmnph_RenMGOw8QqrDJm66WGSE09OcGewyUu3KmU0b8ebE6ZyOVqYy7-gBZdv9YypFdNpHsRuFm0UzIATyvPyOekv3YL_ITyaZuekVZl0NzvrHUYd8WHXXyayRzn5rRkasJwk-qxpisXUKIWlZEmJm00]--></g></svg>