<?xml version="1.0" encoding="us-ascii" standalone="no"?><svg xmlns="http://www.w3.org/2000/svg" xmlns:xlink="http://www.w3.org/1999/xlink" contentStyleType="text/css" height="300px" preserveAspectRatio="none" style="width:1234px;height:300px;background:#FFFFFF;" version="1.1" viewBox="0 0 1234 300" width="1234px" zoomAndPan="magnify"><defs/><g><!--class SkillRepository--><g id="elem_SkillRepository"><rect codeLine="12" fill="#F1F1F1" height="64.2969" id="SkillRepository" rx="2.5" ry="2.5" style="stroke:#181818;stroke-width:0.5;" width="137" x="876.5" y="213.5"/><ellipse cx="891.5" cy="229.5" fill="#ADD1B2" rx="11" ry="11" style="stroke:#181818;stroke-width:1.0;"/><path d="M894.4688,235.1406 Q893.8906,235.4375 893.25,235.5781 Q892.6094,235.7344 891.9063,235.7344 Q889.4063,235.7344 888.0781,234.0938 Q886.7656,232.4375 886.7656,229.3125 Q886.7656,226.1875 888.0781,224.5313 Q889.4063,222.875 891.9063,222.875 Q892.6094,222.875 893.25,223.0313 Q893.9063,223.1875 894.4688,223.4844 L894.4688,226.2031 Q893.8438,225.625 893.25,225.3594 Q892.6563,225.0781 892.0313,225.0781 Q890.6875,225.0781 890,226.1563 Q889.3125,227.2188 889.3125,229.3125 Q889.3125,231.4063 890,232.4844 Q890.6875,233.5469 892.0313,233.5469 Q892.6563,233.5469 893.25,233.2813 Q893.8438,233 894.4688,232.4219 L894.4688,235.1406 Z " fill="#000000"/><text fill="#000000" font-family="sans-serif" font-size="14" lengthAdjust="spacing" textLength="105" x="905.5" y="234.3467">SkillRepository</text><line style="stroke:#181818;stroke-width:0.5;" x1="877.5" x2="1012.5" y1="245.5" y2="245.5"/><line style="stroke:#181818;stroke-width:0.5;" x1="877.5" x2="1012.5" y1="253.5" y2="253.5"/><ellipse cx="887.5" cy="267.1484" fill="#84BE84" rx="3" ry="3" style="stroke:#038048;stroke-width:1.0;"/><text fill="#000000" font-family="sans-serif" font-size="14" lengthAdjust="spacing" textLength="86" x="896.5" y="270.4951">getSkillList()</text></g><!--class CollaboratorRepository--><g id="elem_CollaboratorRepository"><rect codeLine="17" fill="#F1F1F1" height="96.8906" id="CollaboratorRepository" rx="2.5" ry="2.5" style="stroke:#181818;stroke-width:0.5;" width="274" x="509" y="197"/><ellipse cx="559.25" cy="213" fill="#ADD1B2" rx="11" ry="11" style="stroke:#181818;stroke-width:1.0;"/><path d="M562.2188,218.6406 Q561.6406,218.9375 561,219.0781 Q560.3594,219.2344 559.6563,219.2344 Q557.1563,219.2344 555.8281,217.5938 Q554.5156,215.9375 554.5156,212.8125 Q554.5156,209.6875 555.8281,208.0313 Q557.1563,206.375 559.6563,206.375 Q560.3594,206.375 561,206.5313 Q561.6563,206.6875 562.2188,206.9844 L562.2188,209.7031 Q561.5938,209.125 561,208.8594 Q560.4063,208.5781 559.7813,208.5781 Q558.4375,208.5781 557.75,209.6563 Q557.0625,210.7188 557.0625,212.8125 Q557.0625,214.9063 557.75,215.9844 Q558.4375,217.0469 559.7813,217.0469 Q560.4063,217.0469 561,216.7813 Q561.5938,216.5 562.2188,215.9219 L562.2188,218.6406 Z " fill="#000000"/><text fill="#000000" font-family="sans-serif" font-size="14" lengthAdjust="spacing" textLength="165" x="579.75" y="217.8467">CollaboratorRepository</text><line style="stroke:#181818;stroke-width:0.5;" x1="510" x2="782" y1="229" y2="229"/><line style="stroke:#181818;stroke-width:0.5;" x1="510" x2="782" y1="237" y2="237"/><ellipse cx="520" cy="250.6484" fill="#84BE84" rx="3" ry="3" style="stroke:#038048;stroke-width:1.0;"/><text fill="#000000" font-family="sans-serif" font-size="14" lengthAdjust="spacing" textLength="248" x="529" y="253.9951">findCollaboratorById(collboratorId)</text><ellipse cx="520" cy="266.9453" fill="#84BE84" rx="3" ry="3" style="stroke:#038048;stroke-width:1.0;"/><text fill="#000000" font-family="sans-serif" font-size="14" lengthAdjust="spacing" textLength="200" x="529" y="270.292">assignSkillCollaborator(skill)</text><ellipse cx="520" cy="283.2422" fill="#84BE84" rx="3" ry="3" style="stroke:#038048;stroke-width:1.0;"/><text fill="#000000" font-family="sans-serif" font-size="14" lengthAdjust="spacing" textLength="159" x="529" y="286.5889">validateIfHasSkill(skill)</text></g><!--class Repositories--><g id="elem_Repositories"><rect codeLine="25" fill="#F1F1F1" height="113.1875" id="Repositories" rx="2.5" ry="2.5" style="stroke:#181818;stroke-width:0.5;" width="224" x="901" y="7"/><ellipse cx="964.75" cy="23" fill="#ADD1B2" rx="11" ry="11" style="stroke:#181818;stroke-width:1.0;"/><path d="M967.7188,28.6406 Q967.1406,28.9375 966.5,29.0781 Q965.8594,29.2344 965.1563,29.2344 Q962.6563,29.2344 961.3281,27.5938 Q960.0156,25.9375 960.0156,22.8125 Q960.0156,19.6875 961.3281,18.0313 Q962.6563,16.375 965.1563,16.375 Q965.8594,16.375 966.5,16.5313 Q967.1563,16.6875 967.7188,16.9844 L967.7188,19.7031 Q967.0938,19.125 966.5,18.8594 Q965.9063,18.5781 965.2813,18.5781 Q963.9375,18.5781 963.25,19.6563 Q962.5625,20.7188 962.5625,22.8125 Q962.5625,24.9063 963.25,25.9844 Q963.9375,27.0469 965.2813,27.0469 Q965.9063,27.0469 966.5,26.7813 Q967.0938,26.5 967.7188,25.9219 L967.7188,28.6406 Z " fill="#000000"/><text fill="#000000" font-family="sans-serif" font-size="14" lengthAdjust="spacing" textLength="88" x="985.25" y="27.8467">Repositories</text><line style="stroke:#181818;stroke-width:0.5;" x1="902" x2="1124" y1="39" y2="39"/><line style="stroke:#181818;stroke-width:0.5;" x1="902" x2="1124" y1="47" y2="47"/><rect fill="#F24D5C" height="6" style="stroke:#C82930;stroke-width:1.0;" width="6" x="909" y="57.6484"/><text fill="#000000" font-family="sans-serif" font-size="14" lengthAdjust="spacing" textLength="98" x="921" y="63.9951">Repositories()</text><ellipse cx="912" cy="76.9453" fill="#84BE84" rx="3" ry="3" style="stroke:#038048;stroke-width:1.0;"/><text fill="#000000" font-family="sans-serif" font-size="14" lengthAdjust="spacing" textLength="194" x="921" y="80.292">getInstance() : Repositories</text><ellipse cx="912" cy="93.2422" fill="#84BE84" rx="3" ry="3" style="stroke:#038048;stroke-width:1.0;"/><text fill="#000000" font-family="sans-serif" font-size="14" lengthAdjust="spacing" textLength="138" x="921" y="96.5889">getSkillRepository()</text><ellipse cx="912" cy="109.5391" fill="#84BE84" rx="3" ry="3" style="stroke:#038048;stroke-width:1.0;"/><text fill="#000000" font-family="sans-serif" font-size="14" lengthAdjust="spacing" textLength="198" x="921" y="112.8857">getCollaboratorRepository()</text></g><!--class AssignSkillCollaboratoController--><g id="elem_AssignSkillCollaboratoController"><rect codeLine="32" fill="#F1F1F1" height="96.8906" id="AssignSkillCollaboratoController" rx="2.5" ry="2.5" style="stroke:#181818;stroke-width:0.5;" width="535" x="252.5" y="15"/><ellipse cx="401.25" cy="31" fill="#ADD1B2" rx="11" ry="11" style="stroke:#181818;stroke-width:1.0;"/><path d="M404.2188,36.6406 Q403.6406,36.9375 403,37.0781 Q402.3594,37.2344 401.6563,37.2344 Q399.1563,37.2344 397.8281,35.5938 Q396.5156,33.9375 396.5156,30.8125 Q396.5156,27.6875 397.8281,26.0313 Q399.1563,24.375 401.6563,24.375 Q402.3594,24.375 403,24.5313 Q403.6563,24.6875 404.2188,24.9844 L404.2188,27.7031 Q403.5938,27.125 403,26.8594 Q402.4063,26.5781 401.7813,26.5781 Q400.4375,26.5781 399.75,27.6563 Q399.0625,28.7188 399.0625,30.8125 Q399.0625,32.9063 399.75,33.9844 Q400.4375,35.0469 401.7813,35.0469 Q402.4063,35.0469 403,34.7813 Q403.5938,34.5 404.2188,33.9219 L404.2188,36.6406 Z " fill="#000000"/><text fill="#000000" font-family="sans-serif" font-size="14" lengthAdjust="spacing" textLength="229" x="421.75" y="35.8467">AssignSkillCollaboratoController</text><line style="stroke:#181818;stroke-width:0.5;" x1="253.5" x2="786.5" y1="47" y2="47"/><line style="stroke:#181818;stroke-width:0.5;" x1="253.5" x2="786.5" y1="55" y2="55"/><ellipse cx="263.5" cy="68.6484" fill="#84BE84" rx="3" ry="3" style="stroke:#038048;stroke-width:1.0;"/><text fill="#000000" font-family="sans-serif" font-size="14" lengthAdjust="spacing" textLength="509" x="272.5" y="71.9951">AssignSkillCollaboratoController(skillRepository,collaboratorRepository)</text><ellipse cx="263.5" cy="84.9453" fill="#84BE84" rx="3" ry="3" style="stroke:#038048;stroke-width:1.0;"/><text fill="#000000" font-family="sans-serif" font-size="14" lengthAdjust="spacing" textLength="86" x="272.5" y="88.292">getSkillList()</text><ellipse cx="263.5" cy="101.2422" fill="#84BE84" rx="3" ry="3" style="stroke:#038048;stroke-width:1.0;"/><text fill="#000000" font-family="sans-serif" font-size="14" lengthAdjust="spacing" textLength="335" x="272.5" y="104.5889">assignSkillCollaboratorById(collaboratorId,skill)</text></g><!--class AssignSkillCollaboratorUI--><g id="elem_AssignSkillCollaboratorUI"><rect codeLine="39" fill="#F1F1F1" height="48" id="AssignSkillCollaboratorUI" rx="2.5" ry="2.5" style="stroke:#181818;stroke-width:0.5;" width="210" x="7" y="39.5"/><ellipse cx="22" cy="55.5" fill="#ADD1B2" rx="11" ry="11" style="stroke:#181818;stroke-width:1.0;"/><path d="M24.9688,61.1406 Q24.3906,61.4375 23.75,61.5781 Q23.1094,61.7344 22.4063,61.7344 Q19.9063,61.7344 18.5781,60.0938 Q17.2656,58.4375 17.2656,55.3125 Q17.2656,52.1875 18.5781,50.5313 Q19.9063,48.875 22.4063,48.875 Q23.1094,48.875 23.75,49.0313 Q24.4063,49.1875 24.9688,49.4844 L24.9688,52.2031 Q24.3438,51.625 23.75,51.3594 Q23.1563,51.0781 22.5313,51.0781 Q21.1875,51.0781 20.5,52.1563 Q19.8125,53.2188 19.8125,55.3125 Q19.8125,57.4063 20.5,58.4844 Q21.1875,59.5469 22.5313,59.5469 Q23.1563,59.5469 23.75,59.2813 Q24.3438,59 24.9688,58.4219 L24.9688,61.1406 Z " fill="#000000"/><text fill="#000000" font-family="sans-serif" font-size="14" lengthAdjust="spacing" textLength="178" x="36" y="60.3467">AssignSkillCollaboratorUI</text><line style="stroke:#181818;stroke-width:0.5;" x1="8" x2="216" y1="71.5" y2="71.5"/><line style="stroke:#181818;stroke-width:0.5;" x1="8" x2="216" y1="79.5" y2="79.5"/></g><!--link AssignSkillCollaboratorUI to AssignSkillCollaboratoController--><g id="link_AssignSkillCollaboratorUI_AssignSkillCollaboratoController"><path codeLine="42" d="M217.14,63.5 C235.05,63.5 248,63.5 248,63.5 C248,63.5 243.51,63.5 246.22,63.5 " fill="none" id="AssignSkillCollaboratorUI-to-AssignSkillCollaboratoController" style="stroke:#181818;stroke-width:1.0;stroke-dasharray:7.0,7.0;"/><polygon fill="#181818" points="252.22,63.5,243.22,59.5,247.22,63.5,243.22,67.5,252.22,63.5" style="stroke:#181818;stroke-width:1.0;"/></g><!--link AssignSkillCollaboratoController to Repositories--><g id="link_AssignSkillCollaboratoController_Repositories"><path codeLine="44" d="M787.78,63.5 C827.57,63.5 860.62,63.5 894.74,63.5 " fill="none" id="AssignSkillCollaboratoController-to-Repositories" style="stroke:#181818;stroke-width:1.0;stroke-dasharray:7.0,7.0;"/><polygon fill="#181818" points="900.74,63.5,891.74,59.5,895.74,63.5,891.74,67.5,900.74,63.5" style="stroke:#181818;stroke-width:1.0;"/><text fill="#000000" font-family="sans-serif" font-size="13" lengthAdjust="spacing" textLength="77" x="805.75" y="56.5669">repositories</text></g><!--link Repositories to SkillRepository--><g id="link_Repositories_SkillRepository"><path codeLine="45" d="M995.05,120.25 C987.31,144.29 980,167 980,167 C980,167 971.2402,186.3921 961.5002,207.9521 " fill="none" id="Repositories-to-SkillRepository" style="stroke:#181818;stroke-width:1.0;stroke-dasharray:7.0,7.0;"/><polygon fill="#181818" points="959.03,213.42,966.3806,206.8649,961.0885,208.8634,959.09,203.5713,959.03,213.42" style="stroke:#181818;stroke-width:1.0;"/><text fill="#000000" font-family="sans-serif" font-size="13" lengthAdjust="spacing" textLength="8" x="948.6862" y="202.3066">1</text></g><!--link Repositories to CollaboratorRepository--><g id="link_Repositories_CollaboratorRepository"><path codeLine="46" d="M963.51,120.25 C942.16,144.29 922,167 922,167 C922,167 858.2366,184.908 788.9666,204.358 " fill="none" id="Repositories-to-CollaboratorRepository" style="stroke:#181818;stroke-width:1.0;stroke-dasharray:7.0,7.0;"/><polygon fill="#181818" points="783.19,205.98,792.9362,207.3981,788.0038,204.6283,790.7736,199.696,783.19,205.98" style="stroke:#181818;stroke-width:1.0;"/><text fill="#000000" font-family="sans-serif" font-size="13" lengthAdjust="spacing" textLength="8" x="791.0207" y="200.4821">1</text></g><!--link Repositories to Repositories--><g id="link_Repositories_Repositories"><path codeLine="47" d="M1125.16,46.84 C1145.64,48.95 1160,54.5 1160,63.5 C1160,72.5 1151.6084,77.4351 1131.1284,79.5451 " fill="none" id="Repositories-to-Repositories" style="stroke:#181818;stroke-width:1.0;"/><polygon fill="#181818" points="1125.16,80.16,1134.5226,83.2166,1130.1337,79.6476,1133.7027,75.2587,1125.16,80.16" style="stroke:#181818;stroke-width:1.0;"/><text fill="#000000" font-family="sans-serif" font-size="13" lengthAdjust="spacing" textLength="55" x="1166" y="68.0669">instance</text></g><!--link AssignSkillCollaboratoController to SkillRepository--><g id="link_AssignSkillCollaboratoController_SkillRepository"><path codeLine="49" d="M647.22,112 C699.93,131.68 749,150 749,150 C749,150 818.0156,183.2738 875.1456,210.8238 " fill="none" id="AssignSkillCollaboratoController-to-SkillRepository" style="stroke:#181818;stroke-width:1.0;stroke-dasharray:7.0,7.0;"/><polygon fill="#181818" points="880.55,213.43,874.1808,205.9178,876.0463,211.2582,870.7059,213.1237,880.55,213.43" style="stroke:#181818;stroke-width:1.0;"/><text fill="#000000" font-family="sans-serif" font-size="13" lengthAdjust="spacing" textLength="97" x="783" y="163.0669">skillRepository</text></g><!--link AssignSkillCollaboratoController to CollaboratorRepository--><g id="link_AssignSkillCollaboratoController_CollaboratorRepository"><path codeLine="50" d="M553.43,112.26 C571.73,138.41 590.8994,165.7845 609.1894,191.9145 " fill="none" id="AssignSkillCollaboratoController-to-CollaboratorRepository" style="stroke:#181818;stroke-width:1.0;stroke-dasharray:7.0,7.0;"/><polygon fill="#181818" points="612.63,196.83,610.746,187.163,609.7628,192.7338,604.192,191.7505,612.63,196.83" style="stroke:#181818;stroke-width:1.0;"/><text fill="#000000" font-family="sans-serif" font-size="13" lengthAdjust="spacing" textLength="148" x="592" y="163.0669">collaboratorRepository</text></g><!--SRC=[ZLDDRuCm3BtdLrYx5DGFRLSEaxfUXhJJgls050orcYOeIJUnQVzzWG4D5DhcPlivViylcPa3oO9hVeIZaYhPQtL4iFg4x5mfU7BWEMvjAH0q9fRBNFW0i-Uf-YAPGyQ5yIk29DgoG2YKAAk0pKQAIblb5nB1ZLbRgsbtiXWdIcxf6-6HpGHc5gm2JVdUGaeL6rAILQVkWks1X7Z7GXcoIfVmm-QGewtJRsHi43Bssu8tIWY-KvexQAy7t9b3HZBr8Izbd0Q9IpHnd8ODqbr6kQo7-0s1gJ8jw9CBIhaJbBroKsFRUiMeeTJH83GDaMKl6RJNELMnDCwC18CGeXxe31dim-yUL-yGtNxMex8sIbhjGjJTfcu1_uMUXooIqTdXW7TZsDKTTwRmpfM5jzPhGlH7x1Guq7HvzNnJsrIxjoPtIy_No7qZpwnU3LOE_V043yEdF0KRjx6FNbuGeERftCFUJRhuLn4CBBrh2rC_BeBn1y7O7m00]--></g></svg>