<?xml version="1.0" encoding="us-ascii" standalone="no"?><svg xmlns="http://www.w3.org/2000/svg" xmlns:xlink="http://www.w3.org/1999/xlink" contentStyleType="text/css" height="971px" preserveAspectRatio="none" style="width:1490px;height:971px;background:#FFFFFF;" version="1.1" viewBox="0 0 1490 971" width="1490px" zoomAndPan="magnify"><defs/><g><rect fill="#FFFFFF" height="776.9063" style="stroke:#181818;stroke-width:1.0;" width="10" x="106" y="93.6211"/><rect fill="#FFFFFF" height="31.291" style="stroke:#181818;stroke-width:1.0;" width="10" x="391" y="116.9121"/><rect fill="#FFFFFF" height="327.8711" style="stroke:#181818;stroke-width:1.0;" width="10" x="391" y="179.4941"/><rect fill="#FFFFFF" height="31.291" style="stroke:#181818;stroke-width:1.0;" width="10" x="391" y="596.2383"/><rect fill="#FFFFFF" height="211.707" style="stroke:#181818;stroke-width:1.0;" width="10" x="391" y="658.8203"/><rect fill="#FFFFFF" height="79.543" style="stroke:#181818;stroke-width:1.0;" width="10" x="858" y="254.4063"/><rect fill="#FFFFFF" height="79.543" style="stroke:#181818;stroke-width:1.0;" width="10" x="858" y="396.5313"/><rect fill="#FFFFFF" height="142.125" style="stroke:#181818;stroke-width:1.0;" width="10" x="858" y="697.1113"/><rect fill="#FFFFFF" height="79.543" style="stroke:#181818;stroke-width:1.0;" width="10" x="1276.5" y="728.4023"/><rect fill="none" height="144.4551" style="stroke:#000000;stroke-width:1.5;" width="483.5" x="10" y="522.3652"/><line style="stroke:#181818;stroke-width:0.5;stroke-dasharray:5.0,5.0;" x1="111" x2="111" y1="83.6211" y2="888.5273"/><line style="stroke:#181818;stroke-width:0.5;stroke-dasharray:5.0,5.0;" x1="395.5" x2="395.5" y1="83.6211" y2="888.5273"/><line style="stroke:#181818;stroke-width:0.5;stroke-dasharray:5.0,5.0;" x1="862.5" x2="862.5" y1="219.3047" y2="888.5273"/><line style="stroke:#181818;stroke-width:0.5;stroke-dasharray:5.0,5.0;" x1="1033.5" x2="1033.5" y1="83.6211" y2="888.5273"/><line style="stroke:#181818;stroke-width:0.5;stroke-dasharray:5.0,5.0;" x1="1140.5" x2="1140.5" y1="83.6211" y2="888.5273"/><line style="stroke:#181818;stroke-width:0.5;stroke-dasharray:5.0,5.0;" x1="1281.5" x2="1281.5" y1="83.6211" y2="888.5273"/><line style="stroke:#181818;stroke-width:0.5;stroke-dasharray:5.0,5.0;" x1="1428.5" x2="1428.5" y1="83.6211" y2="888.5273"/><text fill="#000000" font-family="sans-serif" font-size="14" lengthAdjust="spacing" textLength="176" x="20" y="80.1074">Human Resources Manager</text><ellipse cx="111" cy="13.5" fill="#E3E3E3" rx="8" ry="8" style="stroke:#181818;stroke-width:0.5;"/><path d="M111,21.5 L111,48.5 M98,29.5 L124,29.5 M111,48.5 L98,63.5 M111,48.5 L124,63.5 " fill="none" style="stroke:#181818;stroke-width:0.5;"/><text fill="#000000" font-family="sans-serif" font-size="14" lengthAdjust="spacing" textLength="176" x="20" y="902.6348">Human Resources Manager</text><ellipse cx="111" cy="914.6484" fill="#E3E3E3" rx="8" ry="8" style="stroke:#181818;stroke-width:0.5;"/><path d="M111,922.6484 L111,949.6484 M98,930.6484 L124,930.6484 M111,949.6484 L98,964.6484 M111,949.6484 L124,964.6484 " fill="none" style="stroke:#181818;stroke-width:0.5;"/><rect fill="#E3E3E3" height="32.6211" rx="2.5" ry="2.5" style="stroke:#181818;stroke-width:0.5;" width="175" x="308.5" y="50"/><text fill="#000000" font-family="sans-serif" font-size="14" lengthAdjust="spacing" textLength="161" x="315.5" y="72.1074">:AssignSkillCollaboratorUI</text><rect fill="#E3E3E3" height="32.6211" rx="2.5" ry="2.5" style="stroke:#181818;stroke-width:0.5;" width="175" x="308.5" y="887.5273"/><text fill="#000000" font-family="sans-serif" font-size="14" lengthAdjust="spacing" textLength="161" x="315.5" y="909.6348">:AssignSkillCollaboratorUI</text><rect fill="#E3E3E3" height="32.6211" rx="2.5" ry="2.5" style="stroke:#181818;stroke-width:0.5;" width="225" x="750.5" y="887.5273"/><text fill="#000000" font-family="sans-serif" font-size="14" lengthAdjust="spacing" textLength="211" x="757.5" y="909.6348">:AssignSkillCollaboratorController</text><rect fill="#E3E3E3" height="32.6211" rx="2.5" ry="2.5" style="stroke:#181818;stroke-width:0.5;" width="97" x="985.5" y="50"/><text fill="#000000" font-family="sans-serif" font-size="14" lengthAdjust="spacing" textLength="83" x="992.5" y="72.1074">:Repositories</text><rect fill="#E3E3E3" height="32.6211" rx="2.5" ry="2.5" style="stroke:#181818;stroke-width:0.5;" width="97" x="985.5" y="887.5273"/><text fill="#000000" font-family="sans-serif" font-size="14" lengthAdjust="spacing" textLength="83" x="992.5" y="909.6348">:Repositories</text><rect fill="#E3E3E3" height="51.2422" rx="2.5" ry="2.5" style="stroke:#181818;stroke-width:0.5;" width="97" x="1092.5" y="31.3789"/><text fill="#000000" font-family="sans-serif" font-size="14" lengthAdjust="spacing" textLength="74" x="1104" y="53.4863">repositories</text><text fill="#000000" font-family="sans-serif" font-size="14" lengthAdjust="spacing" textLength="83" x="1099.5" y="72.1074">:Repositories</text><rect fill="#E3E3E3" height="51.2422" rx="2.5" ry="2.5" style="stroke:#181818;stroke-width:0.5;" width="97" x="1092.5" y="887.5273"/><text fill="#000000" font-family="sans-serif" font-size="14" lengthAdjust="spacing" textLength="74" x="1104" y="909.6348">repositories</text><text fill="#000000" font-family="sans-serif" font-size="14" lengthAdjust="spacing" textLength="83" x="1099.5" y="928.2559">:Repositories</text><rect fill="#E3E3E3" height="51.2422" rx="2.5" ry="2.5" style="stroke:#181818;stroke-width:0.5;" width="164" x="1199.5" y="31.3789"/><text fill="#000000" font-family="sans-serif" font-size="14" lengthAdjust="spacing" textLength="143" x="1210" y="53.4863">collaboratorRepository</text><text fill="#000000" font-family="sans-serif" font-size="14" lengthAdjust="spacing" textLength="150" x="1206.5" y="72.1074">:CollaboratorRepository</text><rect fill="#E3E3E3" height="51.2422" rx="2.5" ry="2.5" style="stroke:#181818;stroke-width:0.5;" width="164" x="1199.5" y="887.5273"/><text fill="#000000" font-family="sans-serif" font-size="14" lengthAdjust="spacing" textLength="143" x="1210" y="909.6348">collaboratorRepository</text><text fill="#000000" font-family="sans-serif" font-size="14" lengthAdjust="spacing" textLength="150" x="1206.5" y="928.2559">:CollaboratorRepository</text><rect fill="#E3E3E3" height="51.2422" rx="2.5" ry="2.5" style="stroke:#181818;stroke-width:0.5;" width="111" x="1373.5" y="31.3789"/><text fill="#000000" font-family="sans-serif" font-size="14" lengthAdjust="spacing" textLength="91" x="1383.5" y="53.4863">skillRepository</text><text fill="#000000" font-family="sans-serif" font-size="14" lengthAdjust="spacing" textLength="97" x="1380.5" y="72.1074">:SkillRepository</text><rect fill="#E3E3E3" height="51.2422" rx="2.5" ry="2.5" style="stroke:#181818;stroke-width:0.5;" width="111" x="1373.5" y="887.5273"/><text fill="#000000" font-family="sans-serif" font-size="14" lengthAdjust="spacing" textLength="91" x="1383.5" y="909.6348">skillRepository</text><text fill="#000000" font-family="sans-serif" font-size="14" lengthAdjust="spacing" textLength="97" x="1380.5" y="928.2559">:SkillRepository</text><rect fill="#FFFFFF" height="776.9063" style="stroke:#181818;stroke-width:1.0;" width="10" x="106" y="93.6211"/><rect fill="#FFFFFF" height="31.291" style="stroke:#181818;stroke-width:1.0;" width="10" x="391" y="116.9121"/><rect fill="#FFFFFF" height="327.8711" style="stroke:#181818;stroke-width:1.0;" width="10" x="391" y="179.4941"/><rect fill="#FFFFFF" height="31.291" style="stroke:#181818;stroke-width:1.0;" width="10" x="391" y="596.2383"/><rect fill="#FFFFFF" height="211.707" style="stroke:#181818;stroke-width:1.0;" width="10" x="391" y="658.8203"/><rect fill="#FFFFFF" height="79.543" style="stroke:#181818;stroke-width:1.0;" width="10" x="858" y="254.4063"/><rect fill="#FFFFFF" height="79.543" style="stroke:#181818;stroke-width:1.0;" width="10" x="858" y="396.5313"/><rect fill="#FFFFFF" height="142.125" style="stroke:#181818;stroke-width:1.0;" width="10" x="858" y="697.1113"/><rect fill="#FFFFFF" height="79.543" style="stroke:#181818;stroke-width:1.0;" width="10" x="1276.5" y="728.4023"/><polygon fill="#181818" points="379,112.9121,389,116.9121,379,120.9121,383,116.9121" style="stroke:#181818;stroke-width:1.0;"/><line style="stroke:#181818;stroke-width:1.0;" x1="116" x2="385" y1="116.9121" y2="116.9121"/><text fill="#000000" font-family="sans-serif" font-size="13" font-weight="bold" lengthAdjust="spacing" textLength="7" x="123" y="111.6494">1</text><text fill="#000000" font-family="sans-serif" font-size="13" lengthAdjust="spacing" textLength="220" x="134" y="111.6494">asks to assign a skill to a collaborator</text><polygon fill="#181818" points="127,144.2031,117,148.2031,127,152.2031,123,148.2031" style="stroke:#181818;stroke-width:1.0;"/><line style="stroke:#181818;stroke-width:1.0;stroke-dasharray:2.0,2.0;" x1="121" x2="395" y1="148.2031" y2="148.2031"/><text fill="#000000" font-family="sans-serif" font-size="13" font-weight="bold" lengthAdjust="spacing" textLength="7" x="133" y="142.9404">2</text><text fill="#000000" font-family="sans-serif" font-size="13" lengthAdjust="spacing" textLength="217" x="144" y="142.9404">request data (collaboratorTaxNumber)</text><polygon fill="#181818" points="379,175.4941,389,179.4941,379,183.4941,383,179.4941" style="stroke:#181818;stroke-width:1.0;"/><line style="stroke:#181818;stroke-width:1.0;" x1="116" x2="385" y1="179.4941" y2="179.4941"/><text fill="#000000" font-family="sans-serif" font-size="13" font-weight="bold" lengthAdjust="spacing" textLength="7" x="123" y="174.2314">3</text><text fill="#000000" font-family="sans-serif" font-size="13" lengthAdjust="spacing" textLength="139" x="134" y="174.2314">confirms requested data</text><polygon fill="#181818" points="738.5,206.7852,748.5,210.7852,738.5,214.7852,742.5,210.7852" style="stroke:#181818;stroke-width:1.0;"/><line style="stroke:#181818;stroke-width:1.0;" x1="401" x2="744.5" y1="210.7852" y2="210.7852"/><text fill="#000000" font-family="sans-serif" font-size="13" font-weight="bold" lengthAdjust="spacing" textLength="7" x="408" y="205.5225">4</text><text fill="#000000" font-family="sans-serif" font-size="13" lengthAdjust="spacing" textLength="36" x="419" y="205.5225">create</text><rect fill="#E3E3E3" height="32.6211" rx="2.5" ry="2.5" style="stroke:#181818;stroke-width:0.5;" width="225" x="750.5" y="187.4941"/><text fill="#000000" font-family="sans-serif" font-size="14" lengthAdjust="spacing" textLength="211" x="757.5" y="209.6016">:AssignSkillCollaboratorController</text><polygon fill="#181818" points="846,250.4063,856,254.4063,846,258.4063,850,254.4063" style="stroke:#181818;stroke-width:1.0;"/><line style="stroke:#181818;stroke-width:1.0;" x1="401" x2="852" y1="254.4063" y2="254.4063"/><text fill="#000000" font-family="sans-serif" font-size="13" font-weight="bold" lengthAdjust="spacing" textLength="7" x="408" y="249.1436">5</text><text fill="#000000" font-family="sans-serif" font-size="13" lengthAdjust="spacing" textLength="341" x="419" y="249.1436">containsCollaboratorByTaxNumber(collaboratorTaxNumber)</text><rect fill="none" height="43.252" style="stroke:#000000;stroke-width:1.5;" width="231" x="747.5" y="262.4063"/><path d="M747.5,262.4063 L809.5,262.4063 L809.5,271.4063 L799.5,281.4063 L747.5,281.4063 L747.5,262.4063 " fill="#EEEEEE" style="stroke:#000000;stroke-width:2.0;"/><text fill="#000000" font-family="sans-serif" font-size="13" font-weight="bold" lengthAdjust="spacing" textLength="17" x="760.5" y="278.4346">ref</text><text fill="#000000" font-family="sans-serif" font-size="12" lengthAdjust="spacing" textLength="127" x="799.5" y="298.3555">Collaborator Searching</text><polygon fill="#181818" points="412,329.9492,402,333.9492,412,337.9492,408,333.9492" style="stroke:#181818;stroke-width:1.0;"/><line style="stroke:#181818;stroke-width:1.0;" x1="406" x2="862" y1="333.9492" y2="333.9492"/><text fill="#000000" font-family="sans-serif" font-size="13" font-weight="bold" lengthAdjust="spacing" textLength="7" x="418" y="328.6865">6</text><text fill="#000000" font-family="sans-serif" font-size="13" lengthAdjust="spacing" textLength="57" x="429" y="328.6865">true/ false</text><polygon fill="#181818" points="127,361.2402,117,365.2402,127,369.2402,123,365.2402" style="stroke:#181818;stroke-width:1.0;"/><line style="stroke:#181818;stroke-width:1.0;" x1="121" x2="390" y1="365.2402" y2="365.2402"/><text fill="#000000" font-family="sans-serif" font-size="13" font-weight="bold" lengthAdjust="spacing" textLength="7" x="133" y="359.9775">7</text><text fill="#000000" font-family="sans-serif" font-size="13" lengthAdjust="spacing" textLength="191" x="144" y="359.9775">displays that Tax Number is valid</text><polygon fill="#181818" points="846,392.5313,856,396.5313,846,400.5313,850,396.5313" style="stroke:#181818;stroke-width:1.0;"/><line style="stroke:#181818;stroke-width:1.0;" x1="401" x2="852" y1="396.5313" y2="396.5313"/><text fill="#000000" font-family="sans-serif" font-size="13" font-weight="bold" lengthAdjust="spacing" textLength="7" x="408" y="391.2686">8</text><text fill="#000000" font-family="sans-serif" font-size="13" lengthAdjust="spacing" textLength="72" x="419" y="391.2686">getSkillList()</text><rect fill="none" height="43.252" style="stroke:#000000;stroke-width:1.5;" width="231" x="747.5" y="404.5313"/><path d="M747.5,404.5313 L809.5,404.5313 L809.5,413.5313 L799.5,423.5313 L747.5,423.5313 L747.5,404.5313 " fill="#EEEEEE" style="stroke:#000000;stroke-width:2.0;"/><text fill="#000000" font-family="sans-serif" font-size="13" font-weight="bold" lengthAdjust="spacing" textLength="17" x="760.5" y="420.5596">ref</text><text fill="#000000" font-family="sans-serif" font-size="12" lengthAdjust="spacing" textLength="68" x="829" y="440.4805">Get Skill List</text><polygon fill="#181818" points="412,472.0742,402,476.0742,412,480.0742,408,476.0742" style="stroke:#181818;stroke-width:1.0;"/><line style="stroke:#181818;stroke-width:1.0;" x1="406" x2="862" y1="476.0742" y2="476.0742"/><text fill="#000000" font-family="sans-serif" font-size="13" font-weight="bold" lengthAdjust="spacing" textLength="7" x="418" y="470.8115">9</text><text fill="#000000" font-family="sans-serif" font-size="13" lengthAdjust="spacing" textLength="44" x="429" y="470.8115">skillList</text><polygon fill="#181818" points="127,503.3652,117,507.3652,127,511.3652,123,507.3652" style="stroke:#181818;stroke-width:1.0;"/><line style="stroke:#181818;stroke-width:1.0;" x1="121" x2="395" y1="507.3652" y2="507.3652"/><text fill="#000000" font-family="sans-serif" font-size="13" font-weight="bold" lengthAdjust="spacing" textLength="14" x="133" y="502.1025">10</text><text fill="#000000" font-family="sans-serif" font-size="13" lengthAdjust="spacing" textLength="85" x="151" y="502.1025">shows skillList</text><path d="M10,522.3652 L83,522.3652 L83,531.6563 L73,541.6563 L10,541.6563 L10,522.3652 " fill="#EEEEEE" style="stroke:#000000;stroke-width:1.5;"/><rect fill="none" height="144.4551" style="stroke:#000000;stroke-width:1.5;" width="483.5" x="10" y="522.3652"/><text fill="#000000" font-family="sans-serif" font-size="13" font-weight="bold" lengthAdjust="spacing" textLength="28" x="25" y="537.3936">loop</text><text fill="#000000" font-family="sans-serif" font-size="11" font-weight="bold" lengthAdjust="spacing" textLength="82" x="98" y="536.2354">[selects skills]</text><polygon fill="#181818" points="127,560.9473,117,564.9473,127,568.9473,123,564.9473" style="stroke:#181818;stroke-width:1.0;"/><line style="stroke:#181818;stroke-width:1.0;stroke-dasharray:2.0,2.0;" x1="121" x2="395" y1="564.9473" y2="564.9473"/><text fill="#000000" font-family="sans-serif" font-size="13" font-weight="bold" lengthAdjust="spacing" textLength="14" x="133" y="559.6846">11</text><text fill="#000000" font-family="sans-serif" font-size="13" lengthAdjust="spacing" textLength="107" x="151" y="559.6846">request data (skill)</text><polygon fill="#181818" points="379,592.2383,389,596.2383,379,600.2383,383,596.2383" style="stroke:#181818;stroke-width:1.0;"/><line style="stroke:#181818;stroke-width:1.0;" x1="116" x2="385" y1="596.2383" y2="596.2383"/><text fill="#000000" font-family="sans-serif" font-size="13" font-weight="bold" lengthAdjust="spacing" textLength="14" x="123" y="590.9756">12</text><text fill="#000000" font-family="sans-serif" font-size="13" lengthAdjust="spacing" textLength="73" x="141" y="590.9756">selects  skill</text><polygon fill="#181818" points="127,623.5293,117,627.5293,127,631.5293,123,627.5293" style="stroke:#181818;stroke-width:1.0;"/><line style="stroke:#181818;stroke-width:1.0;stroke-dasharray:2.0,2.0;" x1="121" x2="395" y1="627.5293" y2="627.5293"/><text fill="#000000" font-family="sans-serif" font-size="13" font-weight="bold" lengthAdjust="spacing" textLength="14" x="133" y="622.2666">13</text><text fill="#000000" font-family="sans-serif" font-size="13" lengthAdjust="spacing" textLength="233" x="151" y="622.2666">show all data registered  for confirmation</text><polygon fill="#181818" points="379,654.8203,389,658.8203,379,662.8203,383,658.8203" style="stroke:#181818;stroke-width:1.0;"/><line style="stroke:#181818;stroke-width:1.0;" x1="116" x2="385" y1="658.8203" y2="658.8203"/><text fill="#000000" font-family="sans-serif" font-size="13" font-weight="bold" lengthAdjust="spacing" textLength="14" x="123" y="653.5576">14</text><text fill="#000000" font-family="sans-serif" font-size="13" lengthAdjust="spacing" textLength="75" x="141" y="653.5576">submits data</text><polygon fill="#181818" points="846,693.1113,856,697.1113,846,701.1113,850,697.1113" style="stroke:#181818;stroke-width:1.0;"/><line style="stroke:#181818;stroke-width:1.0;" x1="401" x2="852" y1="697.1113" y2="697.1113"/><text fill="#000000" font-family="sans-serif" font-size="13" font-weight="bold" lengthAdjust="spacing" textLength="14" x="408" y="691.8486">15</text><text fill="#000000" font-family="sans-serif" font-size="13" lengthAdjust="spacing" textLength="420" x="426" y="691.8486">assignSkillCollaboratorByTaxNumber(collaboratorTaxNumber, skillName)</text><polygon fill="#181818" points="1264.5,724.4023,1274.5,728.4023,1264.5,732.4023,1268.5,728.4023" style="stroke:#181818;stroke-width:1.0;"/><line style="stroke:#181818;stroke-width:1.0;" x1="868" x2="1270.5" y1="728.4023" y2="728.4023"/><text fill="#000000" font-family="sans-serif" font-size="13" font-weight="bold" lengthAdjust="spacing" textLength="14" x="875" y="723.1396">16</text><text fill="#000000" font-family="sans-serif" font-size="13" lengthAdjust="spacing" textLength="304" x="893" y="723.1396">assignSkillCollaborator(collaboratorTaxNumber, skill)</text><rect fill="none" height="43.252" style="stroke:#000000;stroke-width:1.5;" width="173" x="1196.5" y="736.4023"/><path d="M1196.5,736.4023 L1258.5,736.4023 L1258.5,745.4023 L1248.5,755.4023 L1196.5,755.4023 L1196.5,736.4023 " fill="#EEEEEE" style="stroke:#000000;stroke-width:2.0;"/><text fill="#000000" font-family="sans-serif" font-size="13" font-weight="bold" lengthAdjust="spacing" textLength="17" x="1209.5" y="752.4307">ref</text><text fill="#000000" font-family="sans-serif" font-size="12" lengthAdjust="spacing" textLength="165" x="1200.5" y="772.3516">Assigning Skill to Collaborator</text><polygon fill="#181818" points="879,803.9453,869,807.9453,879,811.9453,875,807.9453" style="stroke:#181818;stroke-width:1.0;"/><line style="stroke:#181818;stroke-width:1.0;stroke-dasharray:2.0,2.0;" x1="873" x2="1280.5" y1="807.9453" y2="807.9453"/><text fill="#000000" font-family="sans-serif" font-size="13" font-weight="bold" lengthAdjust="spacing" textLength="14" x="885" y="802.6826">17</text><text fill="#000000" font-family="sans-serif" font-size="13" lengthAdjust="spacing" textLength="53" x="903" y="802.6826">true/false</text><polygon fill="#181818" points="412,835.2363,402,839.2363,412,843.2363,408,839.2363" style="stroke:#181818;stroke-width:1.0;"/><line style="stroke:#181818;stroke-width:1.0;stroke-dasharray:2.0,2.0;" x1="406" x2="862" y1="839.2363" y2="839.2363"/><text fill="#000000" font-family="sans-serif" font-size="13" font-weight="bold" lengthAdjust="spacing" textLength="14" x="418" y="833.9736">18</text><text fill="#000000" font-family="sans-serif" font-size="13" lengthAdjust="spacing" textLength="53" x="436" y="833.9736">true/false</text><polygon fill="#181818" points="122,866.5273,112,870.5273,122,874.5273,118,870.5273" style="stroke:#181818;stroke-width:1.0;"/><line style="stroke:#181818;stroke-width:1.0;stroke-dasharray:2.0,2.0;" x1="116" x2="395" y1="870.5273" y2="870.5273"/><text fill="#000000" font-family="sans-serif" font-size="13" font-weight="bold" lengthAdjust="spacing" textLength="14" x="128" y="865.2646">19</text><text fill="#000000" font-family="sans-serif" font-size="13" lengthAdjust="spacing" textLength="220" x="146" y="865.2646">displays the success of the operation.</text><!--SRC=[bLR1Rjim3BthAuXUrXRBTk-XG9V3Mg0jXgIzxSBOJ2B4bZn9Rfk_7ot5ZkLOJgjBO8byf1xvgDYTL1KQBA7KIcTReqi2PseIjZkfCDlXXfPkNn0OoXogJT4ti5lCzRjK6rXZOKa8h9rMTRaY8yIthSm9rbgxbVuGc3bjuEA-Bb71WgokJKOMdb1n17C1QE5-yIGOrybCLgWSNDpSMIitQhcJHJ7NHO4hRP1XNX-y_Ul3vypdMZd3tuSmyvV5uy1nGPMsaaqbMM_JRUoNihaptofsCJsFl-eKuC_ZtKliaVKoEiApxtpqmAEC-yIujhbk1BYCTppIm4eqzP1lwCYpBk2m-0DcjymitB3NpeBJ_Dkm2XWm_4wKc3YwTw1SccwJmMQCsK3VS1VzgyawoD4XNFPXNl3ZsNVELUUPKmGuccMcrLgQqhR8b7liyodT-aQulcum3B55Tzex3W4SIcNxPVgrxx8zTuSu2TzxyHalGslGRsJ2yV2q7nYMX2RRSa-Uc97AJv7z7Lgg6dN_F2XrQDYZEkGen2dQS0MUGc5pQQi2zzmnMtJ0H41W0gI5DonaBeOXFeT-gCA6d6_hHsdTPSpk1BdJnFRNRtBW0q0JOTBK4osIB0UPU1IHOZT5ejtgTzi3I5J8Yw4jKA5r1POA7iy7L_ifxNdJhscjZHB2Z4jiF7HpCK1crySsjE7RaM6jyljWMWsZapnc4mcDvbElIidvH88VPdGisKbFzpiCnz-Eiqh_7iXunf8cspBPKctpZC_wP6AJsLmbetLP9PwMf6CdfOJZEJM7jxdvgx1idv7-TSIqsiJqG4fmDplE3p_xnaVVICEbo1dF8bJGDsKKwEoG7PjuGJBHF2Lkz8p_B5dGQ_-fAp9UB3z4GYw3dUQD_my0]--></g></svg>