<?xml version="1.0" encoding="us-ascii" standalone="no"?><svg xmlns="http://www.w3.org/2000/svg" xmlns:xlink="http://www.w3.org/1999/xlink" contentStyleType="text/css" height="388px" preserveAspectRatio="none" style="width:652px;height:388px;background:#FFFFFF;" version="1.1" viewBox="0 0 652 388" width="652px" zoomAndPan="magnify"><defs/><g><rect fill="#FFFFFF" height="235.0625" style="stroke:#181818;stroke-width:1.0;" width="10" x="139" y="83.7266"/><rect fill="#FFFFFF" height="29.1328" style="stroke:#181818;stroke-width:1.0;" width="10" x="326.5" y="136.9922"/><rect fill="#FFFFFF" height="29.1328" style="stroke:#181818;stroke-width:1.0;" width="10" x="443.5" y="195.2578"/><rect fill="#FFFFFF" height="29.1328" style="stroke:#181818;stroke-width:1.0;" width="10" x="569" y="253.5234"/><rect fill="none" height="191.9297" style="stroke:#000000;stroke-width:1.5;" width="636" x="10" y="98.7266"/><line style="stroke:#181818;stroke-width:0.5;stroke-dasharray:5.0,5.0;" x1="144" x2="144" y1="52.5938" y2="336.7891"/><line style="stroke:#181818;stroke-width:0.5;stroke-dasharray:5.0,5.0;" x1="331" x2="331" y1="52.5938" y2="336.7891"/><line style="stroke:#181818;stroke-width:0.5;stroke-dasharray:5.0,5.0;" x1="448" x2="448" y1="52.5938" y2="336.7891"/><line style="stroke:#181818;stroke-width:0.5;stroke-dasharray:5.0,5.0;" x1="574" x2="574" y1="52.5938" y2="336.7891"/><rect fill="#E3E3E3" height="30.2969" rx="2.5" ry="2.5" style="stroke:#181818;stroke-width:0.5;" width="248" x="20" y="21.2969"/><text fill="#000000" font-family="sans-serif" font-size="14" lengthAdjust="spacing" textLength="234" x="27" y="41.292">:AssignSkillCollaboratoController</text><rect fill="#E3E3E3" height="30.2969" rx="2.5" ry="2.5" style="stroke:#181818;stroke-width:0.5;" width="248" x="20" y="335.7891"/><text fill="#000000" font-family="sans-serif" font-size="14" lengthAdjust="spacing" textLength="234" x="27" y="355.7842">:AssignSkillCollaboratoController</text><rect fill="#E3E3E3" height="30.2969" rx="2.5" ry="2.5" style="stroke:#181818;stroke-width:0.5;" width="107" x="278" y="21.2969"/><text fill="#000000" font-family="sans-serif" font-size="14" lengthAdjust="spacing" textLength="93" x="285" y="41.292">:Repositories</text><rect fill="#E3E3E3" height="30.2969" rx="2.5" ry="2.5" style="stroke:#181818;stroke-width:0.5;" width="107" x="278" y="335.7891"/><text fill="#000000" font-family="sans-serif" font-size="14" lengthAdjust="spacing" textLength="93" x="285" y="355.7842">:Repositories</text><rect fill="#E3E3E3" height="46.5938" rx="2.5" ry="2.5" style="stroke:#181818;stroke-width:0.5;" width="107" x="395" y="5"/><text fill="#000000" font-family="sans-serif" font-size="14" lengthAdjust="spacing" textLength="84" x="406.5" y="24.9951">repositories</text><text fill="#000000" font-family="sans-serif" font-size="14" lengthAdjust="spacing" textLength="93" x="402" y="41.292">:Repositories</text><rect fill="#E3E3E3" height="46.5938" rx="2.5" ry="2.5" style="stroke:#181818;stroke-width:0.5;" width="107" x="395" y="335.7891"/><text fill="#000000" font-family="sans-serif" font-size="14" lengthAdjust="spacing" textLength="84" x="406.5" y="355.7842">repositories</text><text fill="#000000" font-family="sans-serif" font-size="14" lengthAdjust="spacing" textLength="93" x="402" y="372.0811">:Repositories</text><rect fill="#E3E3E3" height="46.5938" rx="2.5" ry="2.5" style="stroke:#181818;stroke-width:0.5;" width="124" x="512" y="5"/><text fill="#000000" font-family="sans-serif" font-size="14" lengthAdjust="spacing" textLength="103" x="522.5" y="24.9951">skillRepository</text><text fill="#000000" font-family="sans-serif" font-size="14" lengthAdjust="spacing" textLength="110" x="519" y="41.292">:SkillRepository</text><rect fill="#E3E3E3" height="46.5938" rx="2.5" ry="2.5" style="stroke:#181818;stroke-width:0.5;" width="124" x="512" y="335.7891"/><text fill="#000000" font-family="sans-serif" font-size="14" lengthAdjust="spacing" textLength="103" x="522.5" y="355.7842">skillRepository</text><text fill="#000000" font-family="sans-serif" font-size="14" lengthAdjust="spacing" textLength="110" x="519" y="372.0811">:SkillRepository</text><rect fill="#FFFFFF" height="235.0625" style="stroke:#181818;stroke-width:1.0;" width="10" x="139" y="83.7266"/><rect fill="#FFFFFF" height="29.1328" style="stroke:#181818;stroke-width:1.0;" width="10" x="326.5" y="136.9922"/><rect fill="#FFFFFF" height="29.1328" style="stroke:#181818;stroke-width:1.0;" width="10" x="443.5" y="195.2578"/><rect fill="#FFFFFF" height="29.1328" style="stroke:#181818;stroke-width:1.0;" width="10" x="569" y="253.5234"/><polygon fill="#181818" points="127,79.7266,137,83.7266,127,87.7266,131,83.7266" style="stroke:#181818;stroke-width:1.0;"/><line style="stroke:#181818;stroke-width:1.0;" x1="0" x2="133" y1="83.7266" y2="83.7266"/><text fill="#000000" font-family="sans-serif" font-size="13" font-weight="bold" lengthAdjust="spacing" textLength="9" x="7" y="78.6606">3</text><text fill="#000000" font-family="sans-serif" font-size="13" lengthAdjust="spacing" textLength="82" x="20" y="78.6606">getSkillList()</text><path d="M10,98.7266 L147,98.7266 L147,105.8594 L137,115.8594 L10,115.8594 L10,98.7266 " fill="#EEEEEE" style="stroke:#000000;stroke-width:1.5;"/><rect fill="none" height="191.9297" style="stroke:#000000;stroke-width:1.5;" width="636" x="10" y="98.7266"/><text fill="#000000" font-family="sans-serif" font-size="13" font-weight="bold" lengthAdjust="spacing" textLength="92" x="25" y="111.7935">Get Skill List</text><polygon fill="#181818" points="314.5,132.9922,324.5,136.9922,314.5,140.9922,318.5,136.9922" style="stroke:#181818;stroke-width:1.0;"/><line style="stroke:#181818;stroke-width:1.0;" x1="149" x2="320.5" y1="136.9922" y2="136.9922"/><text fill="#000000" font-family="sans-serif" font-size="13" font-weight="bold" lengthAdjust="spacing" textLength="23" x="156" y="131.9263">3.1</text><text fill="#000000" font-family="sans-serif" font-size="13" lengthAdjust="spacing" textLength="86" x="183" y="131.9263">getInstance()</text><polygon fill="#181818" points="160,162.125,150,166.125,160,170.125,156,166.125" style="stroke:#181818;stroke-width:1.0;"/><line style="stroke:#181818;stroke-width:1.0;stroke-dasharray:2.0,2.0;" x1="154" x2="330.5" y1="166.125" y2="166.125"/><text fill="#000000" font-family="sans-serif" font-size="13" font-weight="bold" lengthAdjust="spacing" textLength="23" x="166" y="161.0591">3.2</text><text fill="#000000" font-family="sans-serif" font-size="13" lengthAdjust="spacing" textLength="77" x="193" y="161.0591">repositories</text><polygon fill="#181818" points="431.5,191.2578,441.5,195.2578,431.5,199.2578,435.5,195.2578" style="stroke:#181818;stroke-width:1.0;"/><line style="stroke:#181818;stroke-width:1.0;" x1="149" x2="437.5" y1="195.2578" y2="195.2578"/><text fill="#000000" font-family="sans-serif" font-size="13" font-weight="bold" lengthAdjust="spacing" textLength="23" x="156" y="190.1919">3.3</text><text fill="#000000" font-family="sans-serif" font-size="13" lengthAdjust="spacing" textLength="129" x="183" y="190.1919">getSkillRepository()</text><polygon fill="#181818" points="160,220.3906,150,224.3906,160,228.3906,156,224.3906" style="stroke:#181818;stroke-width:1.0;"/><line style="stroke:#181818;stroke-width:1.0;stroke-dasharray:2.0,2.0;" x1="154" x2="447.5" y1="224.3906" y2="224.3906"/><text fill="#000000" font-family="sans-serif" font-size="13" font-weight="bold" lengthAdjust="spacing" textLength="23" x="166" y="219.3247">3.4</text><text fill="#000000" font-family="sans-serif" font-size="13" lengthAdjust="spacing" textLength="97" x="193" y="219.3247">skillRepository</text><polygon fill="#181818" points="557,249.5234,567,253.5234,557,257.5234,561,253.5234" style="stroke:#181818;stroke-width:1.0;"/><line style="stroke:#181818;stroke-width:1.0;" x1="149" x2="563" y1="253.5234" y2="253.5234"/><text fill="#000000" font-family="sans-serif" font-size="13" font-weight="bold" lengthAdjust="spacing" textLength="23" x="156" y="248.4575">3.5</text><text fill="#000000" font-family="sans-serif" font-size="13" lengthAdjust="spacing" textLength="82" x="183" y="248.4575">getSkillList()</text><polygon fill="#181818" points="160,278.6563,150,282.6563,160,286.6563,156,282.6563" style="stroke:#181818;stroke-width:1.0;"/><line style="stroke:#181818;stroke-width:1.0;stroke-dasharray:2.0,2.0;" x1="154" x2="573" y1="282.6563" y2="282.6563"/><text fill="#000000" font-family="sans-serif" font-size="13" font-weight="bold" lengthAdjust="spacing" textLength="23" x="166" y="277.5903">3.6</text><text fill="#000000" font-family="sans-serif" font-size="13" lengthAdjust="spacing" textLength="50" x="193" y="277.5903">skillList</text><polygon fill="#181818" points="11,314.7891,1,318.7891,11,322.7891,7,318.7891" style="stroke:#181818;stroke-width:1.0;"/><line style="stroke:#181818;stroke-width:1.0;stroke-dasharray:2.0,2.0;" x1="5" x2="143" y1="318.7891" y2="318.7891"/><text fill="#000000" font-family="sans-serif" font-size="13" font-weight="bold" lengthAdjust="spacing" textLength="9" x="17" y="313.7231">4</text><text fill="#000000" font-family="sans-serif" font-size="13" lengthAdjust="spacing" textLength="50" x="30" y="313.7231">skillList</text><!--SRC=[ZL8xJyCm4DxzAqvTW2582AOA8Q4C2Aa3QZgoN9DhQiNnHRO3zD_ZkAHncaJ2IvIx-nxti9NK3HgieMRD-T5mJU1CIy9UCWtc5PQKkPCYC9GxrAMA2-mH2_wMkeG3Aaj2OEjOj_MUZ10tHraG79ZTdd-4y0WdSzcWTh1QlrehIvrLKgcKbS8z6tISidR6_v9P0Lf8TzlD5MvB3Llfs4YoeUOIE6MoS-Vrnn0J8JxrbE1ZyxeR8spdQk3re6mS2RWTsYf5HwKF3Abu1F0e12GleGrOGqaky6oaTRTtexhx1u6var-Uxjmq-5SQRXju8mS11XrEY93gNs3s2ZD3E0k-Q-kNbfFNYt4NiRdfZIgxDyUU_FMrXdY-8sX1_vVf6-cM4Orgm2qr4BOtSHne1ejN2rroEUNgRStlUhhJMOjBXt9jUa4a6Ix8zb9B7In9XNhIHVX6X_SK0iz9SbOOIKIquIJ5Bm00]--></g></svg>