<?xml version="1.0" encoding="us-ascii" standalone="no"?><svg xmlns="http://www.w3.org/2000/svg" xmlns:xlink="http://www.w3.org/1999/xlink" contentStyleType="text/css" height="908px" preserveAspectRatio="none" style="width:1669px;height:908px;background:#FFFFFF;" version="1.1" viewBox="0 0 1669 908" width="1669px" zoomAndPan="magnify"><defs/><g><rect fill="#FFFFFF" height="717.9922" style="stroke:#181818;stroke-width:1.0;" width="10" x="116.5" y="91.2969"/><rect fill="#FFFFFF" height="29.1328" style="stroke:#181818;stroke-width:1.0;" width="10" x="442.5" y="112.4297"/><rect fill="#FFFFFF" height="226.0625" style="stroke:#181818;stroke-width:1.0;" width="10" x="442.5" y="170.6953"/><rect fill="#FFFFFF" height="29.1328" style="stroke:#181818;stroke-width:1.0;" width="10" x="442.5" y="425.8906"/><rect fill="#FFFFFF" height="325.1328" style="stroke:#181818;stroke-width:1.0;" width="10" x="442.5" y="484.1563"/><rect fill="#FFFFFF" height="73.2344" style="stroke:#181818;stroke-width:1.0;" width="10" x="803.5" y="241.125"/><rect fill="#FFFFFF" height="259.8672" style="stroke:#181818;stroke-width:1.0;" width="10" x="803.5" y="520.2891"/><rect fill="#FFFFFF" height="186.6016" style="stroke:#181818;stroke-width:1.0;" width="10" x="808.5" y="557.4219"/><rect fill="#FFFFFF" height="73.2344" style="stroke:#181818;stroke-width:1.0;" width="10" x="1432" y="635.6563"/><rect fill="none" height="133.6641" style="stroke:#000000;stroke-width:1.5;" width="546" x="10" y="358.4922"/><line style="stroke:#181818;stroke-width:0.5;stroke-dasharray:5.0,5.0;" x1="121" x2="121" y1="81.2969" y2="827.2891"/><line style="stroke:#181818;stroke-width:0.5;stroke-dasharray:5.0,5.0;" x1="447" x2="447" y1="81.2969" y2="827.2891"/><line style="stroke:#181818;stroke-width:0.5;stroke-dasharray:5.0,5.0;" x1="808.5" x2="808.5" y1="209.3438" y2="827.2891"/><line style="stroke:#181818;stroke-width:0.5;stroke-dasharray:5.0,5.0;" x1="1164" x2="1164" y1="81.2969" y2="827.2891"/><line style="stroke:#181818;stroke-width:0.5;stroke-dasharray:5.0,5.0;" x1="1281" x2="1281" y1="81.2969" y2="827.2891"/><line style="stroke:#181818;stroke-width:0.5;stroke-dasharray:5.0,5.0;" x1="1437" x2="1437" y1="81.2969" y2="827.2891"/><line style="stroke:#181818;stroke-width:0.5;stroke-dasharray:5.0,5.0;" x1="1601" x2="1601" y1="81.2969" y2="827.2891"/><text fill="#000000" font-family="sans-serif" font-size="14" lengthAdjust="spacing" textLength="197" x="20" y="77.9951">Human Resources Manager</text><ellipse cx="121.5" cy="13.5" fill="#E3E3E3" rx="8" ry="8" style="stroke:#181818;stroke-width:0.5;"/><path d="M121.5,21.5 L121.5,48.5 M108.5,29.5 L134.5,29.5 M121.5,48.5 L108.5,63.5 M121.5,48.5 L134.5,63.5 " fill="none" style="stroke:#181818;stroke-width:0.5;"/><text fill="#000000" font-family="sans-serif" font-size="14" lengthAdjust="spacing" textLength="197" x="20" y="839.2842">Human Resources Manager</text><ellipse cx="121.5" cy="851.0859" fill="#E3E3E3" rx="8" ry="8" style="stroke:#181818;stroke-width:0.5;"/><path d="M121.5,859.0859 L121.5,886.0859 M108.5,867.0859 L134.5,867.0859 M121.5,886.0859 L108.5,901.0859 M121.5,886.0859 L134.5,901.0859 " fill="none" style="stroke:#181818;stroke-width:0.5;"/><rect fill="#E3E3E3" height="30.2969" rx="2.5" ry="2.5" style="stroke:#181818;stroke-width:0.5;" width="197" x="349" y="50"/><text fill="#000000" font-family="sans-serif" font-size="14" lengthAdjust="spacing" textLength="183" x="356" y="69.9951">:AssignSkillCollaboratorUI</text><rect fill="#E3E3E3" height="30.2969" rx="2.5" ry="2.5" style="stroke:#181818;stroke-width:0.5;" width="197" x="349" y="826.2891"/><text fill="#000000" font-family="sans-serif" font-size="14" lengthAdjust="spacing" textLength="183" x="356" y="846.2842">:AssignSkillCollaboratorUI</text><rect fill="#E3E3E3" height="30.2969" rx="2.5" ry="2.5" style="stroke:#181818;stroke-width:0.5;" width="248" x="684.5" y="826.2891"/><text fill="#000000" font-family="sans-serif" font-size="14" lengthAdjust="spacing" textLength="234" x="691.5" y="846.2842">:AssignSkillCollaboratoController</text><rect fill="#E3E3E3" height="30.2969" rx="2.5" ry="2.5" style="stroke:#181818;stroke-width:0.5;" width="107" x="1111" y="50"/><text fill="#000000" font-family="sans-serif" font-size="14" lengthAdjust="spacing" textLength="93" x="1118" y="69.9951">:Repositories</text><rect fill="#E3E3E3" height="30.2969" rx="2.5" ry="2.5" style="stroke:#181818;stroke-width:0.5;" width="107" x="1111" y="826.2891"/><text fill="#000000" font-family="sans-serif" font-size="14" lengthAdjust="spacing" textLength="93" x="1118" y="846.2842">:Repositories</text><rect fill="#E3E3E3" height="46.5938" rx="2.5" ry="2.5" style="stroke:#181818;stroke-width:0.5;" width="107" x="1228" y="33.7031"/><text fill="#000000" font-family="sans-serif" font-size="14" lengthAdjust="spacing" textLength="84" x="1239.5" y="53.6982">repositories</text><text fill="#000000" font-family="sans-serif" font-size="14" lengthAdjust="spacing" textLength="93" x="1235" y="69.9951">:Repositories</text><rect fill="#E3E3E3" height="46.5938" rx="2.5" ry="2.5" style="stroke:#181818;stroke-width:0.5;" width="107" x="1228" y="826.2891"/><text fill="#000000" font-family="sans-serif" font-size="14" lengthAdjust="spacing" textLength="84" x="1239.5" y="846.2842">repositories</text><text fill="#000000" font-family="sans-serif" font-size="14" lengthAdjust="spacing" textLength="93" x="1235" y="862.5811">:Repositories</text><rect fill="#E3E3E3" height="46.5938" rx="2.5" ry="2.5" style="stroke:#181818;stroke-width:0.5;" width="184" x="1345" y="33.7031"/><text fill="#000000" font-family="sans-serif" font-size="14" lengthAdjust="spacing" textLength="163" x="1355.5" y="53.6982">collaboratorRepository</text><text fill="#000000" font-family="sans-serif" font-size="14" lengthAdjust="spacing" textLength="170" x="1352" y="69.9951">:CollaboratorRepository</text><rect fill="#E3E3E3" height="46.5938" rx="2.5" ry="2.5" style="stroke:#181818;stroke-width:0.5;" width="184" x="1345" y="826.2891"/><text fill="#000000" font-family="sans-serif" font-size="14" lengthAdjust="spacing" textLength="163" x="1355.5" y="846.2842">collaboratorRepository</text><text fill="#000000" font-family="sans-serif" font-size="14" lengthAdjust="spacing" textLength="170" x="1352" y="862.5811">:CollaboratorRepository</text><rect fill="#E3E3E3" height="46.5938" rx="2.5" ry="2.5" style="stroke:#181818;stroke-width:0.5;" width="124" x="1539" y="33.7031"/><text fill="#000000" font-family="sans-serif" font-size="14" lengthAdjust="spacing" textLength="103" x="1549.5" y="53.6982">skillRepository</text><text fill="#000000" font-family="sans-serif" font-size="14" lengthAdjust="spacing" textLength="110" x="1546" y="69.9951">:SkillRepository</text><rect fill="#E3E3E3" height="46.5938" rx="2.5" ry="2.5" style="stroke:#181818;stroke-width:0.5;" width="124" x="1539" y="826.2891"/><text fill="#000000" font-family="sans-serif" font-size="14" lengthAdjust="spacing" textLength="103" x="1549.5" y="846.2842">skillRepository</text><text fill="#000000" font-family="sans-serif" font-size="14" lengthAdjust="spacing" textLength="110" x="1546" y="862.5811">:SkillRepository</text><rect fill="#FFFFFF" height="717.9922" style="stroke:#181818;stroke-width:1.0;" width="10" x="116.5" y="91.2969"/><rect fill="#FFFFFF" height="29.1328" style="stroke:#181818;stroke-width:1.0;" width="10" x="442.5" y="112.4297"/><rect fill="#FFFFFF" height="226.0625" style="stroke:#181818;stroke-width:1.0;" width="10" x="442.5" y="170.6953"/><rect fill="#FFFFFF" height="29.1328" style="stroke:#181818;stroke-width:1.0;" width="10" x="442.5" y="425.8906"/><rect fill="#FFFFFF" height="325.1328" style="stroke:#181818;stroke-width:1.0;" width="10" x="442.5" y="484.1563"/><rect fill="#FFFFFF" height="73.2344" style="stroke:#181818;stroke-width:1.0;" width="10" x="803.5" y="241.125"/><rect fill="#FFFFFF" height="259.8672" style="stroke:#181818;stroke-width:1.0;" width="10" x="803.5" y="520.2891"/><rect fill="#FFFFFF" height="186.6016" style="stroke:#181818;stroke-width:1.0;" width="10" x="808.5" y="557.4219"/><rect fill="#FFFFFF" height="73.2344" style="stroke:#181818;stroke-width:1.0;" width="10" x="1432" y="635.6563"/><polygon fill="#181818" points="430.5,108.4297,440.5,112.4297,430.5,116.4297,434.5,112.4297" style="stroke:#181818;stroke-width:1.0;"/><line style="stroke:#181818;stroke-width:1.0;" x1="126.5" x2="436.5" y1="112.4297" y2="112.4297"/><text fill="#000000" font-family="sans-serif" font-size="13" font-weight="bold" lengthAdjust="spacing" textLength="9" x="133.5" y="107.3638">1</text><text fill="#000000" font-family="sans-serif" font-size="13" lengthAdjust="spacing" textLength="247" x="146.5" y="107.3638">asks to assign a skill to a collaborator</text><polygon fill="#181818" points="137.5,137.5625,127.5,141.5625,137.5,145.5625,133.5,141.5625" style="stroke:#181818;stroke-width:1.0;"/><line style="stroke:#181818;stroke-width:1.0;stroke-dasharray:2.0,2.0;" x1="131.5" x2="446.5" y1="141.5625" y2="141.5625"/><text fill="#000000" font-family="sans-serif" font-size="13" font-weight="bold" lengthAdjust="spacing" textLength="9" x="143.5" y="136.4966">2</text><text fill="#000000" font-family="sans-serif" font-size="13" lengthAdjust="spacing" textLength="250" x="156.5" y="136.4966">request data (Collaborator ID Number)</text><polygon fill="#181818" points="430.5,166.6953,440.5,170.6953,430.5,174.6953,434.5,170.6953" style="stroke:#181818;stroke-width:1.0;"/><line style="stroke:#181818;stroke-width:1.0;" x1="126.5" x2="436.5" y1="170.6953" y2="170.6953"/><text fill="#000000" font-family="sans-serif" font-size="13" font-weight="bold" lengthAdjust="spacing" textLength="9" x="133.5" y="165.6294">3</text><text fill="#000000" font-family="sans-serif" font-size="13" lengthAdjust="spacing" textLength="148" x="146.5" y="165.6294">selects requested data</text><polygon fill="#181818" points="672.5,195.8281,682.5,199.8281,672.5,203.8281,676.5,199.8281" style="stroke:#181818;stroke-width:1.0;"/><line style="stroke:#181818;stroke-width:1.0;" x1="452.5" x2="678.5" y1="199.8281" y2="199.8281"/><text fill="#000000" font-family="sans-serif" font-size="13" font-weight="bold" lengthAdjust="spacing" textLength="9" x="459.5" y="194.7622">4</text><text fill="#000000" font-family="sans-serif" font-size="13" lengthAdjust="spacing" textLength="41" x="472.5" y="194.7622">create</text><rect fill="#E3E3E3" height="30.2969" rx="2.5" ry="2.5" style="stroke:#181818;stroke-width:0.5;" width="248" x="684.5" y="178.6953"/><text fill="#000000" font-family="sans-serif" font-size="14" lengthAdjust="spacing" textLength="234" x="691.5" y="198.6904">:AssignSkillCollaboratoController</text><polygon fill="#181818" points="791.5,237.125,801.5,241.125,791.5,245.125,795.5,241.125" style="stroke:#181818;stroke-width:1.0;"/><line style="stroke:#181818;stroke-width:1.0;" x1="452.5" x2="797.5" y1="241.125" y2="241.125"/><text fill="#000000" font-family="sans-serif" font-size="13" font-weight="bold" lengthAdjust="spacing" textLength="9" x="459.5" y="236.0591">5</text><text fill="#000000" font-family="sans-serif" font-size="13" lengthAdjust="spacing" textLength="82" x="472.5" y="236.0591">getSkillList()</text><rect fill="none" height="39.1016" style="stroke:#000000;stroke-width:1.5;" width="254" x="681.5" y="249.125"/><path d="M681.5,249.125 L747.5,249.125 L747.5,256.125 L737.5,266.125 L681.5,266.125 L681.5,249.125 " fill="#EEEEEE" style="stroke:#000000;stroke-width:2.0;"/><text fill="#000000" font-family="sans-serif" font-size="13" font-weight="bold" lengthAdjust="spacing" textLength="21" x="694.5" y="263.1919">ref</text><text fill="#000000" font-family="sans-serif" font-size="12" lengthAdjust="spacing" textLength="74" x="771.5" y="281.2637">Get Skill List</text><polygon fill="#181818" points="463.5,310.3594,453.5,314.3594,463.5,318.3594,459.5,314.3594" style="stroke:#181818;stroke-width:1.0;"/><line style="stroke:#181818;stroke-width:1.0;" x1="457.5" x2="807.5" y1="314.3594" y2="314.3594"/><text fill="#000000" font-family="sans-serif" font-size="13" font-weight="bold" lengthAdjust="spacing" textLength="9" x="469.5" y="309.2935">6</text><text fill="#000000" font-family="sans-serif" font-size="13" lengthAdjust="spacing" textLength="50" x="482.5" y="309.2935">skillList</text><polygon fill="#181818" points="137.5,339.4922,127.5,343.4922,137.5,347.4922,133.5,343.4922" style="stroke:#181818;stroke-width:1.0;"/><line style="stroke:#181818;stroke-width:1.0;" x1="131.5" x2="441.5" y1="343.4922" y2="343.4922"/><text fill="#000000" font-family="sans-serif" font-size="13" font-weight="bold" lengthAdjust="spacing" textLength="9" x="143.5" y="338.4263">7</text><text fill="#000000" font-family="sans-serif" font-size="13" lengthAdjust="spacing" textLength="95" x="156.5" y="338.4263">shows skillList</text><path d="M10,358.4922 L86,358.4922 L86,365.625 L76,375.625 L10,375.625 L10,358.4922 " fill="#EEEEEE" style="stroke:#000000;stroke-width:1.5;"/><rect fill="none" height="133.6641" style="stroke:#000000;stroke-width:1.5;" width="546" x="10" y="358.4922"/><text fill="#000000" font-family="sans-serif" font-size="13" font-weight="bold" lengthAdjust="spacing" textLength="31" x="25" y="371.5591">loop</text><text fill="#000000" font-family="sans-serif" font-size="11" font-weight="bold" lengthAdjust="spacing" textLength="91" x="101" y="370.7026">[selects skills]</text><polygon fill="#181818" points="137.5,392.7578,127.5,396.7578,137.5,400.7578,133.5,396.7578" style="stroke:#181818;stroke-width:1.0;"/><line style="stroke:#181818;stroke-width:1.0;stroke-dasharray:2.0,2.0;" x1="131.5" x2="446.5" y1="396.7578" y2="396.7578"/><text fill="#000000" font-family="sans-serif" font-size="13" font-weight="bold" lengthAdjust="spacing" textLength="9" x="143.5" y="391.6919">8</text><text fill="#000000" font-family="sans-serif" font-size="13" lengthAdjust="spacing" textLength="123" x="156.5" y="391.6919">request data (skill)</text><polygon fill="#181818" points="430.5,421.8906,440.5,425.8906,430.5,429.8906,434.5,425.8906" style="stroke:#181818;stroke-width:1.0;"/><line style="stroke:#181818;stroke-width:1.0;" x1="126.5" x2="436.5" y1="425.8906" y2="425.8906"/><text fill="#000000" font-family="sans-serif" font-size="13" font-weight="bold" lengthAdjust="spacing" textLength="9" x="133.5" y="420.8247">9</text><text fill="#000000" font-family="sans-serif" font-size="13" lengthAdjust="spacing" textLength="81" x="146.5" y="420.8247">selects  skill</text><polygon fill="#181818" points="137.5,451.0234,127.5,455.0234,137.5,459.0234,133.5,455.0234" style="stroke:#181818;stroke-width:1.0;"/><line style="stroke:#181818;stroke-width:1.0;stroke-dasharray:2.0,2.0;" x1="131.5" x2="446.5" y1="455.0234" y2="455.0234"/><text fill="#000000" font-family="sans-serif" font-size="13" font-weight="bold" lengthAdjust="spacing" textLength="18" x="143.5" y="449.9575">10</text><text fill="#000000" font-family="sans-serif" font-size="13" lengthAdjust="spacing" textLength="270" x="165.5" y="449.9575">show all data registered  for confirmation</text><polygon fill="#181818" points="430.5,480.1563,440.5,484.1563,430.5,488.1563,434.5,484.1563" style="stroke:#181818;stroke-width:1.0;"/><line style="stroke:#181818;stroke-width:1.0;" x1="126.5" x2="436.5" y1="484.1563" y2="484.1563"/><text fill="#000000" font-family="sans-serif" font-size="13" font-weight="bold" lengthAdjust="spacing" textLength="18" x="133.5" y="479.0903">11</text><text fill="#000000" font-family="sans-serif" font-size="13" lengthAdjust="spacing" textLength="85" x="155.5" y="479.0903">submits data</text><polygon fill="#181818" points="791.5,516.2891,801.5,520.2891,791.5,524.2891,795.5,520.2891" style="stroke:#181818;stroke-width:1.0;"/><line style="stroke:#181818;stroke-width:1.0;" x1="452.5" x2="797.5" y1="520.2891" y2="520.2891"/><text fill="#000000" font-family="sans-serif" font-size="13" font-weight="bold" lengthAdjust="spacing" textLength="18" x="459.5" y="515.2231">12</text><text fill="#000000" font-family="sans-serif" font-size="13" lengthAdjust="spacing" textLength="310" x="481.5" y="515.2231">assignSkillCollaboratorById(collaboratorId,skill)</text><line style="stroke:#181818;stroke-width:1.0;" x1="813.5" x2="860.5" y1="544.4219" y2="544.4219"/><line style="stroke:#181818;stroke-width:1.0;" x1="860.5" x2="860.5" y1="544.4219" y2="557.4219"/><line style="stroke:#181818;stroke-width:1.0;" x1="819.5" x2="860.5" y1="557.4219" y2="557.4219"/><polygon fill="#181818" points="829.5,553.4219,819.5,557.4219,829.5,561.4219,825.5,557.4219" style="stroke:#181818;stroke-width:1.0;"/><text fill="#000000" font-family="sans-serif" font-size="13" font-weight="bold" lengthAdjust="spacing" textLength="18" x="825.5" y="539.356">13</text><text fill="#000000" font-family="sans-serif" font-size="13" lengthAdjust="spacing" textLength="310" x="847.5" y="539.356">assignSkillCollaboratorById(collaboratorId,skill)</text><rect fill="none" height="39.1016" style="stroke:#000000;stroke-width:1.5;" width="254" x="681.5" y="570.4219"/><path d="M681.5,570.4219 L747.5,570.4219 L747.5,577.4219 L737.5,587.4219 L681.5,587.4219 L681.5,570.4219 " fill="#EEEEEE" style="stroke:#000000;stroke-width:2.0;"/><text fill="#000000" font-family="sans-serif" font-size="13" font-weight="bold" lengthAdjust="spacing" textLength="21" x="694.5" y="584.4888">ref</text><text fill="#000000" font-family="sans-serif" font-size="12" lengthAdjust="spacing" textLength="164" x="726.5" y="602.5605">Get Collaborator Repository</text><polygon fill="#181818" points="1420,631.6563,1430,635.6563,1420,639.6563,1424,635.6563" style="stroke:#181818;stroke-width:1.0;"/><line style="stroke:#181818;stroke-width:1.0;" x1="818.5" x2="1426" y1="635.6563" y2="635.6563"/><text fill="#000000" font-family="sans-serif" font-size="13" font-weight="bold" lengthAdjust="spacing" textLength="18" x="825.5" y="630.5903">14</text><text fill="#000000" font-family="sans-serif" font-size="13" lengthAdjust="spacing" textLength="310" x="847.5" y="630.5903">assignSkillCollaboratorById(collaboratorId,skill)</text><rect fill="none" height="39.1016" style="stroke:#000000;stroke-width:1.5;" width="190" x="1342" y="643.6563"/><path d="M1342,643.6563 L1408,643.6563 L1408,650.6563 L1398,660.6563 L1342,660.6563 L1342,643.6563 " fill="#EEEEEE" style="stroke:#000000;stroke-width:2.0;"/><text fill="#000000" font-family="sans-serif" font-size="13" font-weight="bold" lengthAdjust="spacing" textLength="21" x="1355" y="657.7231">ref</text><text fill="#000000" font-family="sans-serif" font-size="12" lengthAdjust="spacing" textLength="159" x="1357.5" y="675.7949">Assign Skill to Collaborator</text><polygon fill="#181818" points="829.5,704.8906,819.5,708.8906,829.5,712.8906,825.5,708.8906" style="stroke:#181818;stroke-width:1.0;"/><line style="stroke:#181818;stroke-width:1.0;stroke-dasharray:2.0,2.0;" x1="823.5" x2="1436" y1="708.8906" y2="708.8906"/><text fill="#000000" font-family="sans-serif" font-size="13" font-weight="bold" lengthAdjust="spacing" textLength="18" x="835.5" y="703.8247">15</text><text fill="#000000" font-family="sans-serif" font-size="13" lengthAdjust="spacing" textLength="62" x="857.5" y="703.8247">true/false</text><line style="stroke:#181818;stroke-width:1.0;stroke-dasharray:2.0,2.0;" x1="818.5" x2="860.5" y1="743.0234" y2="743.0234"/><line style="stroke:#181818;stroke-width:1.0;stroke-dasharray:2.0,2.0;" x1="860.5" x2="860.5" y1="743.0234" y2="756.0234"/><line style="stroke:#181818;stroke-width:1.0;stroke-dasharray:2.0,2.0;" x1="813.5" x2="860.5" y1="756.0234" y2="756.0234"/><polygon fill="#181818" points="823.5,752.0234,813.5,756.0234,823.5,760.0234,819.5,756.0234" style="stroke:#181818;stroke-width:1.0;"/><text fill="#000000" font-family="sans-serif" font-size="13" font-weight="bold" lengthAdjust="spacing" textLength="18" x="825.5" y="737.9575">16</text><text fill="#000000" font-family="sans-serif" font-size="13" lengthAdjust="spacing" textLength="62" x="847.5" y="737.9575">true/false</text><polygon fill="#181818" points="463.5,776.1563,453.5,780.1563,463.5,784.1563,459.5,780.1563" style="stroke:#181818;stroke-width:1.0;"/><line style="stroke:#181818;stroke-width:1.0;stroke-dasharray:2.0,2.0;" x1="457.5" x2="807.5" y1="780.1563" y2="780.1563"/><text fill="#000000" font-family="sans-serif" font-size="13" font-weight="bold" lengthAdjust="spacing" textLength="18" x="469.5" y="775.0903">17</text><text fill="#000000" font-family="sans-serif" font-size="13" lengthAdjust="spacing" textLength="62" x="491.5" y="775.0903">true/false</text><polygon fill="#181818" points="132.5,805.2891,122.5,809.2891,132.5,813.2891,128.5,809.2891" style="stroke:#181818;stroke-width:1.0;"/><line style="stroke:#181818;stroke-width:1.0;stroke-dasharray:2.0,2.0;" x1="126.5" x2="446.5" y1="809.2891" y2="809.2891"/><text fill="#000000" font-family="sans-serif" font-size="13" font-weight="bold" lengthAdjust="spacing" textLength="18" x="138.5" y="804.2231">18</text><text fill="#000000" font-family="sans-serif" font-size="13" lengthAdjust="spacing" textLength="246" x="160.5" y="804.2231">displays the success of the operation.</text><!--SRC=[hLR1Rjim3BthAuXSbXRBTi-XG9S1gu5q69BcjejYCuuGM_8akLt-VhISE99ZUK5HNG9Bv2Fv-4J578IikEObb4ggTAzLYM1rZSnq9nLF3pp7jJqM21fJosLU-0PcppFr9cGEEruOP8pNLicwtA9cxDDUP0WxfUnM_MKyjKh3vAakkOGL6bNh50qySqaHz0IuWQVLCoDSAr9HSMbXCdyqHkHoVH15iL15mRTASuBP9Cv-aznalb3IQleyHLcyh9OzlnLMoWW25cYSJRTnN8kcP2egTD6Unszv3V1h-VWIUgHU_XTuybqC7ZYKOPyGrpJL1e3hSCSXzQnOqmxnoYqwqXcS5dt0x868XJbv7GnOHRyDgS1R3BSJ9COkxXqeTQRR9B0POJRGSnBHdngDXOnR3bE_T4Y-mq-ddBlEDSC0SJ1DWmK9qvoHCNFO_q_fmGdX_fuWKeraCNHCXpbQH-XI63kzkyPrShhuQjo1UaNTxeEtVg05XmGDL7U4CcE1dOjxhgubFN3e4NCLfys-fTlirPlnCDhLM1LALHrtpi3Sr39d-huEjM66EpCSkaaVE37cOclCgGRKr6AQAff4A7T2bzmAkfsHX0RpgRUbe7m2dVGpwbfpeMnG7dnuGdqx9jdKloL9zhb7tPYAV1ryIA18G8Yik8hxgr5rS8sz8HFpQNcDdPxh7Xv-7yP4m4PaqB8R68guZd7MFbEdOK3prAzYdBJOOOIhsKK-pSl-jNsaOo3UrOdnCTwpzqOxYVyQleFT9AEOO-Cm72fpo8If2dwafssFD0fI-XDYGEtSfwfGkt7oXKK6Ic-dUJp_0G00]--></g></svg>