<?xml version="1.0" encoding="us-ascii" standalone="no"?><svg xmlns="http://www.w3.org/2000/svg" xmlns:xlink="http://www.w3.org/1999/xlink" contentStyleType="text/css" height="417px" preserveAspectRatio="none" style="width:1003px;height:417px;background:#FFFFFF;" version="1.1" viewBox="0 0 1003 417" width="1003px" zoomAndPan="magnify"><defs/><g><rect fill="#FFFFFF" height="261.3281" style="stroke:#181818;stroke-width:1.0;" width="10" x="371" y="90.5332"/><rect fill="#FFFFFF" height="31.291" style="stroke:#181818;stroke-width:1.0;" width="10" x="542" y="148.1152"/><rect fill="#FFFFFF" height="31.291" style="stroke:#181818;stroke-width:1.0;" width="10" x="649" y="210.6973"/><rect fill="#FFFFFF" height="31.291" style="stroke:#181818;stroke-width:1.0;" width="10" x="789.5" y="273.2793"/><rect fill="none" height="207.0371" style="stroke:#000000;stroke-width:1.5;" width="633" x="253.5" y="105.5332"/><line style="stroke:#181818;stroke-width:0.5;stroke-dasharray:5.0,5.0;" x1="375.5" x2="375.5" y1="57.2422" y2="360.8613"/><line style="stroke:#181818;stroke-width:0.5;stroke-dasharray:5.0,5.0;" x1="546.5" x2="546.5" y1="57.2422" y2="360.8613"/><line style="stroke:#181818;stroke-width:0.5;stroke-dasharray:5.0,5.0;" x1="653.5" x2="653.5" y1="57.2422" y2="360.8613"/><line style="stroke:#181818;stroke-width:0.5;stroke-dasharray:5.0,5.0;" x1="794.5" x2="794.5" y1="57.2422" y2="360.8613"/><line style="stroke:#181818;stroke-width:0.5;stroke-dasharray:5.0,5.0;" x1="941.5" x2="941.5" y1="57.2422" y2="360.8613"/><rect fill="#E3E3E3" height="32.6211" rx="2.5" ry="2.5" style="stroke:#181818;stroke-width:0.5;" width="225" x="263.5" y="23.6211"/><text fill="#000000" font-family="sans-serif" font-size="14" lengthAdjust="spacing" textLength="211" x="270.5" y="45.7285">:AssignSkillCollaboratorController</text><rect fill="#E3E3E3" height="32.6211" rx="2.5" ry="2.5" style="stroke:#181818;stroke-width:0.5;" width="225" x="263.5" y="359.8613"/><text fill="#000000" font-family="sans-serif" font-size="14" lengthAdjust="spacing" textLength="211" x="270.5" y="381.9688">:AssignSkillCollaboratorController</text><rect fill="#E3E3E3" height="32.6211" rx="2.5" ry="2.5" style="stroke:#181818;stroke-width:0.5;" width="97" x="498.5" y="23.6211"/><text fill="#000000" font-family="sans-serif" font-size="14" lengthAdjust="spacing" textLength="83" x="505.5" y="45.7285">:Repositories</text><rect fill="#E3E3E3" height="32.6211" rx="2.5" ry="2.5" style="stroke:#181818;stroke-width:0.5;" width="97" x="498.5" y="359.8613"/><text fill="#000000" font-family="sans-serif" font-size="14" lengthAdjust="spacing" textLength="83" x="505.5" y="381.9688">:Repositories</text><rect fill="#E3E3E3" height="51.2422" rx="2.5" ry="2.5" style="stroke:#181818;stroke-width:0.5;" width="97" x="605.5" y="5"/><text fill="#000000" font-family="sans-serif" font-size="14" lengthAdjust="spacing" textLength="74" x="617" y="27.1074">repositories</text><text fill="#000000" font-family="sans-serif" font-size="14" lengthAdjust="spacing" textLength="83" x="612.5" y="45.7285">:Repositories</text><rect fill="#E3E3E3" height="51.2422" rx="2.5" ry="2.5" style="stroke:#181818;stroke-width:0.5;" width="97" x="605.5" y="359.8613"/><text fill="#000000" font-family="sans-serif" font-size="14" lengthAdjust="spacing" textLength="74" x="617" y="381.9688">repositories</text><text fill="#000000" font-family="sans-serif" font-size="14" lengthAdjust="spacing" textLength="83" x="612.5" y="400.5898">:Repositories</text><rect fill="#E3E3E3" height="51.2422" rx="2.5" ry="2.5" style="stroke:#181818;stroke-width:0.5;" width="164" x="712.5" y="5"/><text fill="#000000" font-family="sans-serif" font-size="14" lengthAdjust="spacing" textLength="143" x="723" y="27.1074">collaboratorRepository</text><text fill="#000000" font-family="sans-serif" font-size="14" lengthAdjust="spacing" textLength="150" x="719.5" y="45.7285">:CollaboratorRepository</text><rect fill="#E3E3E3" height="51.2422" rx="2.5" ry="2.5" style="stroke:#181818;stroke-width:0.5;" width="164" x="712.5" y="359.8613"/><text fill="#000000" font-family="sans-serif" font-size="14" lengthAdjust="spacing" textLength="143" x="723" y="381.9688">collaboratorRepository</text><text fill="#000000" font-family="sans-serif" font-size="14" lengthAdjust="spacing" textLength="150" x="719.5" y="400.5898">:CollaboratorRepository</text><rect fill="#E3E3E3" height="51.2422" rx="2.5" ry="2.5" style="stroke:#181818;stroke-width:0.5;" width="111" x="886.5" y="5"/><text fill="#000000" font-family="sans-serif" font-size="14" lengthAdjust="spacing" textLength="91" x="896.5" y="27.1074">skillRepository</text><text fill="#000000" font-family="sans-serif" font-size="14" lengthAdjust="spacing" textLength="97" x="893.5" y="45.7285">:SkillRepository</text><rect fill="#E3E3E3" height="51.2422" rx="2.5" ry="2.5" style="stroke:#181818;stroke-width:0.5;" width="111" x="886.5" y="359.8613"/><text fill="#000000" font-family="sans-serif" font-size="14" lengthAdjust="spacing" textLength="91" x="896.5" y="381.9688">skillRepository</text><text fill="#000000" font-family="sans-serif" font-size="14" lengthAdjust="spacing" textLength="97" x="893.5" y="400.5898">:SkillRepository</text><rect fill="#FFFFFF" height="261.3281" style="stroke:#181818;stroke-width:1.0;" width="10" x="371" y="90.5332"/><rect fill="#FFFFFF" height="31.291" style="stroke:#181818;stroke-width:1.0;" width="10" x="542" y="148.1152"/><rect fill="#FFFFFF" height="31.291" style="stroke:#181818;stroke-width:1.0;" width="10" x="649" y="210.6973"/><rect fill="#FFFFFF" height="31.291" style="stroke:#181818;stroke-width:1.0;" width="10" x="789.5" y="273.2793"/><polygon fill="#181818" points="359,86.5332,369,90.5332,359,94.5332,363,90.5332" style="stroke:#181818;stroke-width:1.0;"/><line style="stroke:#181818;stroke-width:1.0;" x1="0" x2="365" y1="90.5332" y2="90.5332"/><text fill="#000000" font-family="sans-serif" font-size="13" font-weight="bold" lengthAdjust="spacing" textLength="7" x="7" y="85.2705">1</text><text fill="#000000" font-family="sans-serif" font-size="13" lengthAdjust="spacing" textLength="341" x="18" y="85.2705">containsCollaboratorByTaxNumber(collaboratorTaxNumber)</text><path d="M253.5,105.5332 L446.5,105.5332 L446.5,114.8242 L436.5,124.8242 L253.5,124.8242 L253.5,105.5332 " fill="#EEEEEE" style="stroke:#000000;stroke-width:1.5;"/><rect fill="none" height="207.0371" style="stroke:#000000;stroke-width:1.5;" width="633" x="253.5" y="105.5332"/><text fill="#000000" font-family="sans-serif" font-size="13" font-weight="bold" lengthAdjust="spacing" textLength="148" x="268.5" y="120.5615">Collaborator Searching</text><polygon fill="#181818" points="530,144.1152,540,148.1152,530,152.1152,534,148.1152" style="stroke:#181818;stroke-width:1.0;"/><line style="stroke:#181818;stroke-width:1.0;" x1="381" x2="536" y1="148.1152" y2="148.1152"/><text fill="#000000" font-family="sans-serif" font-size="13" font-weight="bold" lengthAdjust="spacing" textLength="7" x="388" y="142.8525">2</text><text fill="#000000" font-family="sans-serif" font-size="13" lengthAdjust="spacing" textLength="75" x="399" y="142.8525">getInstance()</text><polygon fill="#181818" points="392,175.4063,382,179.4063,392,183.4063,388,179.4063" style="stroke:#181818;stroke-width:1.0;"/><line style="stroke:#181818;stroke-width:1.0;stroke-dasharray:2.0,2.0;" x1="386" x2="546" y1="179.4063" y2="179.4063"/><text fill="#000000" font-family="sans-serif" font-size="13" font-weight="bold" lengthAdjust="spacing" textLength="7" x="398" y="174.1436">3</text><text fill="#000000" font-family="sans-serif" font-size="13" lengthAdjust="spacing" textLength="67" x="409" y="174.1436">repositories</text><polygon fill="#181818" points="637,206.6973,647,210.6973,637,214.6973,641,210.6973" style="stroke:#181818;stroke-width:1.0;"/><line style="stroke:#181818;stroke-width:1.0;" x1="381" x2="643" y1="210.6973" y2="210.6973"/><text fill="#000000" font-family="sans-serif" font-size="13" font-weight="bold" lengthAdjust="spacing" textLength="7" x="388" y="205.4346">4</text><text fill="#000000" font-family="sans-serif" font-size="13" lengthAdjust="spacing" textLength="157" x="399" y="205.4346">getCollaboratorRepository()</text><polygon fill="#181818" points="392,237.9883,382,241.9883,392,245.9883,388,241.9883" style="stroke:#181818;stroke-width:1.0;"/><line style="stroke:#181818;stroke-width:1.0;stroke-dasharray:2.0,2.0;" x1="386" x2="653" y1="241.9883" y2="241.9883"/><text fill="#000000" font-family="sans-serif" font-size="13" font-weight="bold" lengthAdjust="spacing" textLength="7" x="398" y="236.7256">5</text><text fill="#000000" font-family="sans-serif" font-size="13" lengthAdjust="spacing" textLength="129" x="409" y="236.7256">collaboratorRepository</text><polygon fill="#181818" points="777.5,269.2793,787.5,273.2793,777.5,277.2793,781.5,273.2793" style="stroke:#181818;stroke-width:1.0;"/><line style="stroke:#181818;stroke-width:1.0;" x1="381" x2="783.5" y1="273.2793" y2="273.2793"/><text fill="#000000" font-family="sans-serif" font-size="13" font-weight="bold" lengthAdjust="spacing" textLength="7" x="388" y="268.0166">6</text><text fill="#000000" font-family="sans-serif" font-size="13" lengthAdjust="spacing" textLength="261" x="399" y="268.0166">isCollaboratorIDValid(collaboratorTaxNumber)</text><polygon fill="#181818" points="392,300.5703,382,304.5703,392,308.5703,388,304.5703" style="stroke:#181818;stroke-width:1.0;"/><line style="stroke:#181818;stroke-width:1.0;" x1="386" x2="793.5" y1="304.5703" y2="304.5703"/><text fill="#000000" font-family="sans-serif" font-size="13" font-weight="bold" lengthAdjust="spacing" textLength="7" x="398" y="299.3076">7</text><text fill="#000000" font-family="sans-serif" font-size="13" lengthAdjust="spacing" textLength="53" x="409" y="299.3076">true/false</text><polygon fill="#181818" points="11,338.8613,1,342.8613,11,346.8613,7,342.8613" style="stroke:#181818;stroke-width:1.0;"/><line style="stroke:#181818;stroke-width:1.0;" x1="5" x2="370" y1="342.8613" y2="342.8613"/><text fill="#000000" font-family="sans-serif" font-size="13" font-weight="bold" lengthAdjust="spacing" textLength="7" x="17" y="337.5986">8</text><text fill="#000000" font-family="sans-serif" font-size="13" lengthAdjust="spacing" textLength="53" x="28" y="337.5986">true/false</text><!--SRC=[fLInRiCW5Dpv2fJ96QpkKLKfTPT8KLN5KQSkB_ZLGS5W0MwRloycYWCfgPEMpN1txpXEDZikMz3Gq4P9nRPQDKYjxf2OuQG5jeCQIxiNI3Ko2x8M8S1ieLAVNDRq7OH1Gg2pIdRD1ZKXn64iPxm5QUbaDZU6rxBSSI4A9GHib0QhTA6arUuRzOI2eSLwjJmZhh1LXZieH-CnmyQ-vBqXDpAcw83n9dyAl2pdwvZ10aSdUSSjaWTU9Ss9TKr_tKYmZ7UyqXcAaFp11q5dReYqmAK9VJpkr_3rx5FEGXF3xfJGS06p_0Ci7iADpsgjkfQ6whH4q6phaXsGtelpb0ZUMQpHBgHntM2OJKc_wCWQ3ALUSfITSf6V4WiVVrIhmlzvEIRJD-eGHRemsVJwK7mxH-5-OXuM9Td66mAuRkxnnkbvpWYFkhfuUWN1gwjw-bie5wutAd31vYct_fTtT_XxtP3LN-sWhCP1z3vFk2Fa6m00]--></g></svg>