<?xml version="1.0" encoding="us-ascii" standalone="no"?><svg xmlns="http://www.w3.org/2000/svg" xmlns:xlink="http://www.w3.org/1999/xlink" contentStyleType="text/css" height="380px" preserveAspectRatio="none" style="width:1263px;height:380px;background:#FFFFFF;" version="1.1" viewBox="0 0 1263 380" width="1263px" zoomAndPan="magnify"><defs/><g><rect fill="#FFFFFF" height="224.7461" style="stroke:#181818;stroke-width:1.0;" width="10" x="450" y="90.5332"/><rect fill="#FFFFFF" height="119.873" style="stroke:#181818;stroke-width:1.0;" width="10" x="983.5" y="148.1152"/><rect fill="none" height="170.4551" style="stroke:#000000;stroke-width:1.5;" width="922.5" x="335" y="105.5332"/><line style="stroke:#181818;stroke-width:0.5;stroke-dasharray:5.0,5.0;" x1="455" x2="455" y1="57.2422" y2="324.2793"/><line style="stroke:#181818;stroke-width:0.5;stroke-dasharray:5.0,5.0;" x1="623" x2="623" y1="57.2422" y2="324.2793"/><line style="stroke:#181818;stroke-width:0.5;stroke-dasharray:5.0,5.0;" x1="730" x2="730" y1="57.2422" y2="324.2793"/><line style="stroke:#181818;stroke-width:0.5;stroke-dasharray:5.0,5.0;" x1="844" x2="844" y1="57.2422" y2="324.2793"/><line style="stroke:#181818;stroke-width:0.5;stroke-dasharray:5.0,5.0;" x1="988" x2="988" y1="57.2422" y2="324.2793"/><rect fill="#E3E3E3" height="32.6211" rx="2.5" ry="2.5" style="stroke:#181818;stroke-width:0.5;" width="220" x="345" y="23.6211"/><text fill="#000000" font-family="sans-serif" font-size="14" lengthAdjust="spacing" textLength="206" x="352" y="45.7285">:AssignSkillCollaboratoController</text><rect fill="#E3E3E3" height="32.6211" rx="2.5" ry="2.5" style="stroke:#181818;stroke-width:0.5;" width="220" x="345" y="323.2793"/><text fill="#000000" font-family="sans-serif" font-size="14" lengthAdjust="spacing" textLength="206" x="352" y="345.3867">:AssignSkillCollaboratoController</text><rect fill="#E3E3E3" height="32.6211" rx="2.5" ry="2.5" style="stroke:#181818;stroke-width:0.5;" width="97" x="575" y="23.6211"/><text fill="#000000" font-family="sans-serif" font-size="14" lengthAdjust="spacing" textLength="83" x="582" y="45.7285">:Repositories</text><rect fill="#E3E3E3" height="32.6211" rx="2.5" ry="2.5" style="stroke:#181818;stroke-width:0.5;" width="97" x="575" y="323.2793"/><text fill="#000000" font-family="sans-serif" font-size="14" lengthAdjust="spacing" textLength="83" x="582" y="345.3867">:Repositories</text><rect fill="#E3E3E3" height="51.2422" rx="2.5" ry="2.5" style="stroke:#181818;stroke-width:0.5;" width="97" x="682" y="5"/><text fill="#000000" font-family="sans-serif" font-size="14" lengthAdjust="spacing" textLength="74" x="693.5" y="27.1074">repositories</text><text fill="#000000" font-family="sans-serif" font-size="14" lengthAdjust="spacing" textLength="83" x="689" y="45.7285">:Repositories</text><rect fill="#E3E3E3" height="51.2422" rx="2.5" ry="2.5" style="stroke:#181818;stroke-width:0.5;" width="97" x="682" y="323.2793"/><text fill="#000000" font-family="sans-serif" font-size="14" lengthAdjust="spacing" textLength="74" x="693.5" y="345.3867">repositories</text><text fill="#000000" font-family="sans-serif" font-size="14" lengthAdjust="spacing" textLength="83" x="689" y="364.0078">:Repositories</text><rect fill="#E3E3E3" height="51.2422" rx="2.5" ry="2.5" style="stroke:#181818;stroke-width:0.5;" width="111" x="789" y="5"/><text fill="#000000" font-family="sans-serif" font-size="14" lengthAdjust="spacing" textLength="91" x="799" y="27.1074">skillRepository</text><text fill="#000000" font-family="sans-serif" font-size="14" lengthAdjust="spacing" textLength="97" x="796" y="45.7285">:SkillRepository</text><rect fill="#E3E3E3" height="51.2422" rx="2.5" ry="2.5" style="stroke:#181818;stroke-width:0.5;" width="111" x="789" y="323.2793"/><text fill="#000000" font-family="sans-serif" font-size="14" lengthAdjust="spacing" textLength="91" x="799" y="345.3867">skillRepository</text><text fill="#000000" font-family="sans-serif" font-size="14" lengthAdjust="spacing" textLength="97" x="796" y="364.0078">:SkillRepository</text><rect fill="#E3E3E3" height="32.6211" rx="2.5" ry="2.5" style="stroke:#181818;stroke-width:0.5;" width="157" x="910" y="23.6211"/><text fill="#000000" font-family="sans-serif" font-size="14" lengthAdjust="spacing" textLength="143" x="917" y="45.7285">collaboratorRepository</text><rect fill="#E3E3E3" height="32.6211" rx="2.5" ry="2.5" style="stroke:#181818;stroke-width:0.5;" width="157" x="910" y="323.2793"/><text fill="#000000" font-family="sans-serif" font-size="14" lengthAdjust="spacing" textLength="143" x="917" y="345.3867">collaboratorRepository</text><rect fill="#FFFFFF" height="224.7461" style="stroke:#181818;stroke-width:1.0;" width="10" x="450" y="90.5332"/><rect fill="#FFFFFF" height="119.873" style="stroke:#181818;stroke-width:1.0;" width="10" x="983.5" y="148.1152"/><polygon fill="#181818" points="438,86.5332,448,90.5332,438,94.5332,442,90.5332" style="stroke:#181818;stroke-width:1.0;"/><line style="stroke:#181818;stroke-width:1.0;" x1="0" x2="444" y1="90.5332" y2="90.5332"/><text fill="#000000" font-family="sans-serif" font-size="13" font-weight="bold" lengthAdjust="spacing" textLength="7" x="7" y="85.2705">1</text><text fill="#000000" font-family="sans-serif" font-size="13" lengthAdjust="spacing" textLength="420" x="18" y="85.2705">assignSkillCollaboratorByTaxNumber(collaboratorTaxNumber, skillName)</text><path d="M335,105.5332 L572,105.5332 L572,114.8242 L562,124.8242 L335,124.8242 L335,105.5332 " fill="#EEEEEE" style="stroke:#000000;stroke-width:1.5;"/><rect fill="none" height="170.4551" style="stroke:#000000;stroke-width:1.5;" width="922.5" x="335" y="105.5332"/><text fill="#000000" font-family="sans-serif" font-size="13" font-weight="bold" lengthAdjust="spacing" textLength="192" x="350" y="120.5615">Assigning Skill to Collaborator</text><polygon fill="#181818" points="971.5,144.1152,981.5,148.1152,971.5,152.1152,975.5,148.1152" style="stroke:#181818;stroke-width:1.0;"/><line style="stroke:#181818;stroke-width:1.0;" x1="460" x2="977.5" y1="148.1152" y2="148.1152"/><text fill="#000000" font-family="sans-serif" font-size="13" font-weight="bold" lengthAdjust="spacing" textLength="7" x="467" y="142.8525">2</text><text fill="#000000" font-family="sans-serif" font-size="13" lengthAdjust="spacing" textLength="304" x="478" y="142.8525">assignSkillCollaborator(collaboratorTaxNumber, skill)</text><line style="stroke:#181818;stroke-width:1.0;" x1="993.5" x2="1035.5" y1="179.4063" y2="179.4063"/><line style="stroke:#181818;stroke-width:1.0;" x1="1035.5" x2="1035.5" y1="179.4063" y2="192.4063"/><line style="stroke:#181818;stroke-width:1.0;" x1="994.5" x2="1035.5" y1="192.4063" y2="192.4063"/><polygon fill="#181818" points="1004.5,188.4063,994.5,192.4063,1004.5,196.4063,1000.5,192.4063" style="stroke:#181818;stroke-width:1.0;"/><text fill="#000000" font-family="sans-serif" font-size="13" font-weight="bold" lengthAdjust="spacing" textLength="7" x="1000.5" y="174.1436">3</text><text fill="#000000" font-family="sans-serif" font-size="13" lengthAdjust="spacing" textLength="234" x="1011.5" y="174.1436">findCollaborator(collaboratorTaxNumber);</text><line style="stroke:#181818;stroke-width:1.0;" x1="993.5" x2="1035.5" y1="223.6973" y2="223.6973"/><line style="stroke:#181818;stroke-width:1.0;" x1="1035.5" x2="1035.5" y1="223.6973" y2="236.6973"/><line style="stroke:#181818;stroke-width:1.0;" x1="994.5" x2="1035.5" y1="236.6973" y2="236.6973"/><polygon fill="#181818" points="1004.5,232.6973,994.5,236.6973,1004.5,240.6973,1000.5,236.6973" style="stroke:#181818;stroke-width:1.0;"/><text fill="#000000" font-family="sans-serif" font-size="13" font-weight="bold" lengthAdjust="spacing" textLength="7" x="1000.5" y="218.4346">4</text><text fill="#000000" font-family="sans-serif" font-size="13" lengthAdjust="spacing" textLength="77" x="1011.5" y="218.4346">addSkill(skill)</text><polygon fill="#181818" points="471,263.9883,461,267.9883,471,271.9883,467,267.9883" style="stroke:#181818;stroke-width:1.0;"/><line style="stroke:#181818;stroke-width:1.0;stroke-dasharray:2.0,2.0;" x1="465" x2="987.5" y1="267.9883" y2="267.9883"/><text fill="#000000" font-family="sans-serif" font-size="13" font-weight="bold" lengthAdjust="spacing" textLength="7" x="477" y="262.7256">5</text><text fill="#000000" font-family="sans-serif" font-size="13" lengthAdjust="spacing" textLength="53" x="488" y="262.7256">true/false</text><polygon fill="#181818" points="11,302.2793,1,306.2793,11,310.2793,7,306.2793" style="stroke:#181818;stroke-width:1.0;"/><line style="stroke:#181818;stroke-width:1.0;" x1="5" x2="449" y1="306.2793" y2="306.2793"/><text fill="#000000" font-family="sans-serif" font-size="13" font-weight="bold" lengthAdjust="spacing" textLength="7" x="17" y="301.0166">6</text><text fill="#000000" font-family="sans-serif" font-size="13" lengthAdjust="spacing" textLength="53" x="28" y="301.0166">true/false</text><!--SRC=[hLDDRy8m3BtdLrXS1jBGxcoQn7f5QA8zxc8QKwAcSPMa6_pxXO1A2vHfqtoBdUVtqSQLojHeiOAA3UTRonM1jmq9rqvgp4iiAFLxJM0fzsWAtRtWjYZvIva2DgWT2O6DPzDKQx92F6oL9DWm-pNlX0W8ht9Le_4mcisTKuL9IwLrmbhZcYrwJjXu6uvaHu0EacorkC2jg6QdF5j5Bjvf6_jK7TG5_Zx4TX0Vvdh1-sAUzH7keEgyDu3IVYVYCdHbWfwAq3YFX9Y-HjqmmviMxTi-mzqoPZJEE_ss-mXHm18hcWZe5EPUVGR6OowzKQZ2SbF3CTV35ud4u1cwv9UWjgBa8BshwEngqCnT1vD1jjR9RJen21oGTqSuR9IHFqkUF8l_Ovq1IXcp6f-2-FNgzY-AR_BfzBo6jaZwSw9avFNmPNgB_Hi0]--></g></svg>