<?xml version="1.0" encoding="us-ascii" standalone="no"?><svg xmlns="http://www.w3.org/2000/svg" xmlns:xlink="http://www.w3.org/1999/xlink" contentStyleType="text/css" height="1120px" preserveAspectRatio="none" style="width:1255px;height:1120px;background:#FFFFFF;" version="1.1" viewBox="0 0 1255 1120" width="1255.2px" zoomAndPan="magnify"><defs/><g><rect fill="#FFFFFF" height="964.4125" style="stroke:#181818;stroke-width:0.8000000000000002;" width="8" x="84.8" y="74.8969"/><rect fill="#FFFFFF" height="25.0328" style="stroke:#181818;stroke-width:0.8000000000000002;" width="8" x="312.8" y="93.5297"/><rect fill="#FFFFFF" height="306.2578" style="stroke:#181818;stroke-width:0.8000000000000002;" width="8" x="312.8" y="143.5953"/><rect fill="#FFFFFF" height="25.0328" style="stroke:#181818;stroke-width:0.8000000000000002;" width="8" x="312.8" y="474.8859"/><rect fill="#FFFFFF" height="514.3578" style="stroke:#181818;stroke-width:0.8000000000000002;" width="8" x="312.8" y="524.9516"/><rect fill="#FFFFFF" height="175.2297" style="stroke:#181818;stroke-width:0.8000000000000002;" width="8" x="566.4" y="203.525"/><rect fill="#FFFFFF" height="458.6922" style="stroke:#181818;stroke-width:0.8000000000000002;" width="8" x="566.4" y="555.5844"/><rect fill="#FFFFFF" height="396.6266" style="stroke:#181818;stroke-width:0.8000000000000002;" width="8" x="570.4" y="587.0172"/><rect fill="#FFFFFF" height="25.0328" style="stroke:#181818;stroke-width:0.8000000000000002;" width="8" x="816" y="228.5578"/><rect fill="#FFFFFF" height="25.0328" style="stroke:#181818;stroke-width:0.8000000000000002;" width="8" x="816" y="616.05"/><rect fill="#FFFFFF" height="25.0328" style="stroke:#181818;stroke-width:0.8000000000000002;" width="8" x="901.6" y="278.6234"/><rect fill="#FFFFFF" height="25.0328" style="stroke:#181818;stroke-width:0.8000000000000002;" width="8" x="901.6" y="666.1156"/><rect fill="#FFFFFF" height="237.6297" style="stroke:#181818;stroke-width:0.8000000000000002;" width="8" x="1014" y="716.1813"/><rect fill="#FFFFFF" height="175.5641" style="stroke:#181818;stroke-width:0.8000000000000002;" width="8" x="1018" y="747.6141"/><rect fill="#FFFFFF" height="104.6984" style="stroke:#181818;stroke-width:0.8000000000000002;" width="8" x="1022" y="783.0469"/><rect fill="#FFFFFF" height="33.8328" style="stroke:#181818;stroke-width:0.8000000000000002;" width="8" x="1026" y="818.4797"/><rect fill="#FFFFFF" height="25.0328" style="stroke:#181818;stroke-width:0.8000000000000002;" width="8" x="1202" y="328.6891"/><rect fill="none" height="115.5641" style="stroke:#000000;stroke-width:1.2000000000000002;" width="386.8" x="8" y="415.7875"/><line style="stroke:#181818;stroke-width:0.4000000000000001;stroke-dasharray:5.0,5.0;" x1="88.8" x2="88.8" y1="66.8969" y2="1053.7094"/><line style="stroke:#181818;stroke-width:0.4000000000000001;stroke-dasharray:5.0,5.0;" x1="316.4" x2="316.4" y1="66.8969" y2="1053.7094"/><line style="stroke:#181818;stroke-width:0.4000000000000001;stroke-dasharray:5.0,5.0;" x1="570" x2="570" y1="175.4438" y2="1053.7094"/><line style="stroke:#181818;stroke-width:0.4000000000000001;stroke-dasharray:5.0,5.0;" x1="819.6" x2="819.6" y1="66.8969" y2="1053.7094"/><line style="stroke:#181818;stroke-width:0.4000000000000001;stroke-dasharray:5.0,5.0;" x1="905.2" x2="905.2" y1="66.8969" y2="1053.7094"/><line style="stroke:#181818;stroke-width:0.4000000000000001;stroke-dasharray:5.0,5.0;" x1="1018" x2="1018" y1="66.8969" y2="1053.7094"/><line style="stroke:#181818;stroke-width:0.4000000000000001;stroke-dasharray:5.0,5.0;" x1="1205.6" x2="1205.6" y1="66.8969" y2="1053.7094"/><text fill="#000000" font-family="sans-serif" font-size="11.2" lengthAdjust="spacing" textLength="140.8" x="16" y="64.0859">Human Resources Manager</text><ellipse cx="88.8" cy="10.8" fill="#E3E3E3" rx="6.4" ry="6.4" style="stroke:#181818;stroke-width:0.4000000000000001;"/><path d="M88.8,17.2 L88.8,38.8 M78.4,23.6 L99.2,23.6 M88.8,38.8 L78.4,50.8 M88.8,38.8 L99.2,50.8 " fill="none" style="stroke:#181818;stroke-width:0.4000000000000001;"/><text fill="#000000" font-family="sans-serif" font-size="11.2" lengthAdjust="spacing" textLength="140.8" x="16" y="1064.9953">Human Resources Manager</text><ellipse cx="88.8" cy="1074.6063" fill="#E3E3E3" rx="6.4" ry="6.4" style="stroke:#181818;stroke-width:0.4000000000000001;"/><path d="M88.8,1081.0063 L88.8,1102.6063 M78.4,1087.4063 L99.2,1087.4063 M88.8,1102.6063 L78.4,1114.6063 M88.8,1102.6063 L99.2,1114.6063 " fill="none" style="stroke:#181818;stroke-width:0.4000000000000001;"/><rect fill="#E3E3E3" height="26.0969" rx="2" ry="2" style="stroke:#181818;stroke-width:0.4000000000000001;" width="140" x="246.8" y="40"/><text fill="#000000" font-family="sans-serif" font-size="11.2" lengthAdjust="spacing" textLength="128.8" x="252.4" y="57.6859">:AssignSkillCollaboratorUI</text><rect fill="#E3E3E3" height="26.0969" rx="2" ry="2" style="stroke:#181818;stroke-width:0.4000000000000001;" width="140" x="246.8" y="1052.9094"/><text fill="#000000" font-family="sans-serif" font-size="11.2" lengthAdjust="spacing" textLength="128.8" x="252.4" y="1070.5953">:AssignSkillCollaboratorUI</text><rect fill="#E3E3E3" height="26.0969" rx="2" ry="2" style="stroke:#181818;stroke-width:0.4000000000000001;" width="180" x="480.4" y="1052.9094"/><text fill="#000000" font-family="sans-serif" font-size="11.2" lengthAdjust="spacing" textLength="168.8" x="486" y="1070.5953">:AssignSkillCollaboratorController</text><rect fill="#E3E3E3" height="26.0969" rx="2" ry="2" style="stroke:#181818;stroke-width:0.4000000000000001;" width="77.6" x="781.2" y="40"/><text fill="#000000" font-family="sans-serif" font-size="11.2" lengthAdjust="spacing" textLength="66.4" x="786.8" y="57.6859">:Repositories</text><rect fill="#E3E3E3" height="26.0969" rx="2" ry="2" style="stroke:#181818;stroke-width:0.4000000000000001;" width="77.6" x="781.2" y="1052.9094"/><text fill="#000000" font-family="sans-serif" font-size="11.2" lengthAdjust="spacing" textLength="66.4" x="786.8" y="1070.5953">:Repositories</text><rect fill="#E3E3E3" height="40.9938" rx="2" ry="2" style="stroke:#181818;stroke-width:0.4000000000000001;" width="77.6" x="866.8" y="25.1031"/><text fill="#000000" font-family="sans-serif" font-size="11.2" lengthAdjust="spacing" textLength="59.2" x="876" y="42.7891">repositories</text><text fill="#000000" font-family="sans-serif" font-size="11.2" lengthAdjust="spacing" textLength="66.4" x="872.4" y="57.6859">:Repositories</text><rect fill="#E3E3E3" height="40.9938" rx="2" ry="2" style="stroke:#181818;stroke-width:0.4000000000000001;" width="77.6" x="866.8" y="1052.9094"/><text fill="#000000" font-family="sans-serif" font-size="11.2" lengthAdjust="spacing" textLength="59.2" x="876" y="1070.5953">repositories</text><text fill="#000000" font-family="sans-serif" font-size="11.2" lengthAdjust="spacing" textLength="66.4" x="872.4" y="1085.4922">:Repositories</text><rect fill="#E3E3E3" height="40.9938" rx="2" ry="2" style="stroke:#181818;stroke-width:0.4000000000000001;" width="131.2" x="952.4" y="25.1031"/><text fill="#000000" font-family="sans-serif" font-size="11.2" lengthAdjust="spacing" textLength="114.4" x="960.8" y="42.7891">collaboratorRepository</text><text fill="#000000" font-family="sans-serif" font-size="11.2" lengthAdjust="spacing" textLength="120" x="958" y="57.6859">:CollaboratorRepository</text><rect fill="#E3E3E3" height="40.9938" rx="2" ry="2" style="stroke:#181818;stroke-width:0.4000000000000001;" width="131.2" x="952.4" y="1052.9094"/><text fill="#000000" font-family="sans-serif" font-size="11.2" lengthAdjust="spacing" textLength="114.4" x="960.8" y="1070.5953">collaboratorRepository</text><text fill="#000000" font-family="sans-serif" font-size="11.2" lengthAdjust="spacing" textLength="120" x="958" y="1085.4922">:CollaboratorRepository</text><rect fill="#E3E3E3" height="40.9938" rx="2" ry="2" style="stroke:#181818;stroke-width:0.4000000000000001;" width="88.8" x="1161.6" y="25.1031"/><text fill="#000000" font-family="sans-serif" font-size="11.2" lengthAdjust="spacing" textLength="72.8" x="1169.6" y="42.7891">skillRepository</text><text fill="#000000" font-family="sans-serif" font-size="11.2" lengthAdjust="spacing" textLength="77.6" x="1167.2" y="57.6859">:SkillRepository</text><rect fill="#E3E3E3" height="40.9938" rx="2" ry="2" style="stroke:#181818;stroke-width:0.4000000000000001;" width="88.8" x="1161.6" y="1052.9094"/><text fill="#000000" font-family="sans-serif" font-size="11.2" lengthAdjust="spacing" textLength="72.8" x="1169.6" y="1070.5953">skillRepository</text><text fill="#000000" font-family="sans-serif" font-size="11.2" lengthAdjust="spacing" textLength="77.6" x="1167.2" y="1085.4922">:SkillRepository</text><rect fill="#FFFFFF" height="964.4125" style="stroke:#181818;stroke-width:0.8000000000000002;" width="8" x="84.8" y="74.8969"/><rect fill="#FFFFFF" height="25.0328" style="stroke:#181818;stroke-width:0.8000000000000002;" width="8" x="312.8" y="93.5297"/><rect fill="#FFFFFF" height="306.2578" style="stroke:#181818;stroke-width:0.8000000000000002;" width="8" x="312.8" y="143.5953"/><rect fill="#FFFFFF" height="25.0328" style="stroke:#181818;stroke-width:0.8000000000000002;" width="8" x="312.8" y="474.8859"/><rect fill="#FFFFFF" height="514.3578" style="stroke:#181818;stroke-width:0.8000000000000002;" width="8" x="312.8" y="524.9516"/><rect fill="#FFFFFF" height="175.2297" style="stroke:#181818;stroke-width:0.8000000000000002;" width="8" x="566.4" y="203.525"/><rect fill="#FFFFFF" height="458.6922" style="stroke:#181818;stroke-width:0.8000000000000002;" width="8" x="566.4" y="555.5844"/><rect fill="#FFFFFF" height="396.6266" style="stroke:#181818;stroke-width:0.8000000000000002;" width="8" x="570.4" y="587.0172"/><rect fill="#FFFFFF" height="25.0328" style="stroke:#181818;stroke-width:0.8000000000000002;" width="8" x="816" y="228.5578"/><rect fill="#FFFFFF" height="25.0328" style="stroke:#181818;stroke-width:0.8000000000000002;" width="8" x="816" y="616.05"/><rect fill="#FFFFFF" height="25.0328" style="stroke:#181818;stroke-width:0.8000000000000002;" width="8" x="901.6" y="278.6234"/><rect fill="#FFFFFF" height="25.0328" style="stroke:#181818;stroke-width:0.8000000000000002;" width="8" x="901.6" y="666.1156"/><rect fill="#FFFFFF" height="237.6297" style="stroke:#181818;stroke-width:0.8000000000000002;" width="8" x="1014" y="716.1813"/><rect fill="#FFFFFF" height="175.5641" style="stroke:#181818;stroke-width:0.8000000000000002;" width="8" x="1018" y="747.6141"/><rect fill="#FFFFFF" height="104.6984" style="stroke:#181818;stroke-width:0.8000000000000002;" width="8" x="1022" y="783.0469"/><rect fill="#FFFFFF" height="33.8328" style="stroke:#181818;stroke-width:0.8000000000000002;" width="8" x="1026" y="818.4797"/><rect fill="#FFFFFF" height="25.0328" style="stroke:#181818;stroke-width:0.8000000000000002;" width="8" x="1202" y="328.6891"/><polygon fill="#181818" points="303.2,90.3297,311.2,93.5297,303.2,96.7297,306.4,93.5297" style="stroke:#181818;stroke-width:0.8000000000000002;"/><line style="stroke:#181818;stroke-width:0.8000000000000002;" x1="92.8" x2="308" y1="93.5297" y2="93.5297"/><text fill="#000000" font-family="sans-serif" font-size="10.4" font-weight="bold" lengthAdjust="spacing" textLength="5.6" x="98.4" y="89.3195">1</text><text fill="#000000" font-family="sans-serif" font-size="10.4" lengthAdjust="spacing" textLength="176" x="107.2" y="89.3195">asks to assign a skill to a collaborator</text><polygon fill="#181818" points="101.6,115.3625,93.6,118.5625,101.6,121.7625,98.4,118.5625" style="stroke:#181818;stroke-width:0.8000000000000002;"/><line style="stroke:#181818;stroke-width:0.8000000000000002;stroke-dasharray:2.0,2.0;" x1="96.8" x2="316" y1="118.5625" y2="118.5625"/><text fill="#000000" font-family="sans-serif" font-size="10.4" font-weight="bold" lengthAdjust="spacing" textLength="5.6" x="106.4" y="114.3523">2</text><text fill="#000000" font-family="sans-serif" font-size="10.4" lengthAdjust="spacing" textLength="174.4" x="115.2" y="114.3523">request data (Collaborator ID Number)</text><polygon fill="#181818" points="303.2,140.3953,311.2,143.5953,303.2,146.7953,306.4,143.5953" style="stroke:#181818;stroke-width:0.8000000000000002;"/><line style="stroke:#181818;stroke-width:0.8000000000000002;" x1="92.8" x2="308" y1="143.5953" y2="143.5953"/><text fill="#000000" font-family="sans-serif" font-size="10.4" font-weight="bold" lengthAdjust="spacing" textLength="5.6" x="98.4" y="139.3852">3</text><text fill="#000000" font-family="sans-serif" font-size="10.4" lengthAdjust="spacing" textLength="105.6" x="107.2" y="139.3852">selects requested data</text><polygon fill="#181818" points="470.8,165.4281,478.8,168.6281,470.8,171.8281,474,168.6281" style="stroke:#181818;stroke-width:0.8000000000000002;"/><line style="stroke:#181818;stroke-width:0.8000000000000002;" x1="320.8" x2="475.6" y1="168.6281" y2="168.6281"/><text fill="#000000" font-family="sans-serif" font-size="10.4" font-weight="bold" lengthAdjust="spacing" textLength="5.6" x="326.4" y="164.418">4</text><text fill="#000000" font-family="sans-serif" font-size="10.4" lengthAdjust="spacing" textLength="28.8" x="335.2" y="164.418">create</text><rect fill="#E3E3E3" height="26.0969" rx="2" ry="2" style="stroke:#181818;stroke-width:0.4000000000000001;" width="180" x="480.4" y="149.9953"/><text fill="#000000" font-family="sans-serif" font-size="11.2" lengthAdjust="spacing" textLength="168.8" x="486" y="167.6813">:AssignSkillCollaboratorController</text><polygon fill="#181818" points="556.8,200.325,564.8,203.525,556.8,206.725,560,203.525" style="stroke:#181818;stroke-width:0.8000000000000002;"/><line style="stroke:#181818;stroke-width:0.8000000000000002;" x1="320.8" x2="561.6" y1="203.525" y2="203.525"/><text fill="#000000" font-family="sans-serif" font-size="10.4" font-weight="bold" lengthAdjust="spacing" textLength="5.6" x="326.4" y="199.3148">5</text><text fill="#000000" font-family="sans-serif" font-size="10.4" lengthAdjust="spacing" textLength="57.6" x="335.2" y="199.3148">getSkillList()</text><polygon fill="#181818" points="806.4,225.3578,814.4,228.5578,806.4,231.7578,809.6,228.5578" style="stroke:#181818;stroke-width:0.8000000000000002;"/><line style="stroke:#181818;stroke-width:0.8000000000000002;" x1="574.4" x2="811.2" y1="228.5578" y2="228.5578"/><text fill="#000000" font-family="sans-serif" font-size="10.4" font-weight="bold" lengthAdjust="spacing" textLength="5.6" x="580" y="224.3477">6</text><text fill="#000000" font-family="sans-serif" font-size="10.4" lengthAdjust="spacing" textLength="60" x="588.8" y="224.3477">getInstance()</text><polygon fill="#181818" points="583.2,250.3906,575.2,253.5906,583.2,256.7906,580,253.5906" style="stroke:#181818;stroke-width:0.8000000000000002;"/><line style="stroke:#181818;stroke-width:0.8000000000000002;stroke-dasharray:2.0,2.0;" x1="578.4" x2="819.2" y1="253.5906" y2="253.5906"/><text fill="#000000" font-family="sans-serif" font-size="10.4" font-weight="bold" lengthAdjust="spacing" textLength="5.6" x="588" y="249.3805">7</text><text fill="#000000" font-family="sans-serif" font-size="10.4" lengthAdjust="spacing" textLength="53.6" x="596.8" y="249.3805">repositories</text><polygon fill="#181818" points="892,275.4234,900,278.6234,892,281.8234,895.2,278.6234" style="stroke:#181818;stroke-width:0.8000000000000002;"/><line style="stroke:#181818;stroke-width:0.8000000000000002;" x1="574.4" x2="896.8" y1="278.6234" y2="278.6234"/><text fill="#000000" font-family="sans-serif" font-size="10.4" font-weight="bold" lengthAdjust="spacing" textLength="5.6" x="580" y="274.4133">8</text><text fill="#000000" font-family="sans-serif" font-size="10.4" lengthAdjust="spacing" textLength="90.4" x="588.8" y="274.4133">getSkillRepository()</text><polygon fill="#181818" points="583.2,300.4563,575.2,303.6563,583.2,306.8563,580,303.6563" style="stroke:#181818;stroke-width:0.8000000000000002;"/><line style="stroke:#181818;stroke-width:0.8000000000000002;stroke-dasharray:2.0,2.0;" x1="578.4" x2="904.8" y1="303.6563" y2="303.6563"/><text fill="#000000" font-family="sans-serif" font-size="10.4" font-weight="bold" lengthAdjust="spacing" textLength="5.6" x="588" y="299.4461">9</text><text fill="#000000" font-family="sans-serif" font-size="10.4" lengthAdjust="spacing" textLength="68" x="596.8" y="299.4461">skillRepository</text><polygon fill="#181818" points="1192.4,325.4891,1200.4,328.6891,1192.4,331.8891,1195.6,328.6891" style="stroke:#181818;stroke-width:0.8000000000000002;"/><line style="stroke:#181818;stroke-width:0.8000000000000002;" x1="574.4" x2="1197.2" y1="328.6891" y2="328.6891"/><text fill="#000000" font-family="sans-serif" font-size="10.4" font-weight="bold" lengthAdjust="spacing" textLength="11.2" x="580" y="324.4789">10</text><text fill="#000000" font-family="sans-serif" font-size="10.4" lengthAdjust="spacing" textLength="57.6" x="594.4" y="324.4789">getSkillList()</text><polygon fill="#181818" points="583.2,350.5219,575.2,353.7219,583.2,356.9219,580,353.7219" style="stroke:#181818;stroke-width:0.8000000000000002;"/><line style="stroke:#181818;stroke-width:0.8000000000000002;stroke-dasharray:2.0,2.0;" x1="578.4" x2="1205.2" y1="353.7219" y2="353.7219"/><text fill="#000000" font-family="sans-serif" font-size="10.4" font-weight="bold" lengthAdjust="spacing" textLength="11.2" x="588" y="349.5117">11</text><text fill="#000000" font-family="sans-serif" font-size="10.4" lengthAdjust="spacing" textLength="35.2" x="602.4" y="349.5117">skillList</text><polygon fill="#181818" points="329.6,375.5547,321.6,378.7547,329.6,381.9547,326.4,378.7547" style="stroke:#181818;stroke-width:0.8000000000000002;"/><line style="stroke:#181818;stroke-width:0.8000000000000002;" x1="324.8" x2="569.6" y1="378.7547" y2="378.7547"/><text fill="#000000" font-family="sans-serif" font-size="10.4" font-weight="bold" lengthAdjust="spacing" textLength="11.2" x="334.4" y="374.5445">12</text><text fill="#000000" font-family="sans-serif" font-size="10.4" lengthAdjust="spacing" textLength="35.2" x="348.8" y="374.5445">skillList</text><polygon fill="#181818" points="101.6,400.5875,93.6,403.7875,101.6,406.9875,98.4,403.7875" style="stroke:#181818;stroke-width:0.8000000000000002;"/><line style="stroke:#181818;stroke-width:0.8000000000000002;" x1="96.8" x2="312" y1="403.7875" y2="403.7875"/><text fill="#000000" font-family="sans-serif" font-size="10.4" font-weight="bold" lengthAdjust="spacing" textLength="11.2" x="106.4" y="399.5773">13</text><text fill="#000000" font-family="sans-serif" font-size="10.4" lengthAdjust="spacing" textLength="68" x="120.8" y="399.5773">shows skillList</text><path d="M8,415.7875 L66.4,415.7875 L66.4,423.2203 L58.4,431.2203 L8,431.2203 L8,415.7875 " fill="#EEEEEE" style="stroke:#000000;stroke-width:1.2000000000000002;"/><rect fill="none" height="115.5641" style="stroke:#000000;stroke-width:1.2000000000000002;" width="386.8" x="8" y="415.7875"/><text fill="#000000" font-family="sans-serif" font-size="10.4" font-weight="bold" lengthAdjust="spacing" textLength="22.4" x="20" y="427.8102">loop</text><text fill="#000000" font-family="sans-serif" font-size="8.8" font-weight="bold" lengthAdjust="spacing" textLength="65.6" x="78.4" y="426.8836">[selects skills]</text><polygon fill="#181818" points="101.6,446.6531,93.6,449.8531,101.6,453.0531,98.4,449.8531" style="stroke:#181818;stroke-width:0.8000000000000002;"/><line style="stroke:#181818;stroke-width:0.8000000000000002;stroke-dasharray:2.0,2.0;" x1="96.8" x2="316" y1="449.8531" y2="449.8531"/><text fill="#000000" font-family="sans-serif" font-size="10.4" font-weight="bold" lengthAdjust="spacing" textLength="11.2" x="106.4" y="445.643">14</text><text fill="#000000" font-family="sans-serif" font-size="10.4" lengthAdjust="spacing" textLength="85.6" x="120.8" y="445.643">request data (skill)</text><polygon fill="#181818" points="303.2,471.6859,311.2,474.8859,303.2,478.0859,306.4,474.8859" style="stroke:#181818;stroke-width:0.8000000000000002;"/><line style="stroke:#181818;stroke-width:0.8000000000000002;" x1="92.8" x2="308" y1="474.8859" y2="474.8859"/><text fill="#000000" font-family="sans-serif" font-size="10.4" font-weight="bold" lengthAdjust="spacing" textLength="11.2" x="98.4" y="470.6758">15</text><text fill="#000000" font-family="sans-serif" font-size="10.4" lengthAdjust="spacing" textLength="58.4" x="112.8" y="470.6758">selects  skill</text><polygon fill="#181818" points="101.6,496.7188,93.6,499.9188,101.6,503.1188,98.4,499.9188" style="stroke:#181818;stroke-width:0.8000000000000002;"/><line style="stroke:#181818;stroke-width:0.8000000000000002;stroke-dasharray:2.0,2.0;" x1="96.8" x2="316" y1="499.9188" y2="499.9188"/><text fill="#000000" font-family="sans-serif" font-size="10.4" font-weight="bold" lengthAdjust="spacing" textLength="11.2" x="106.4" y="495.7086">16</text><text fill="#000000" font-family="sans-serif" font-size="10.4" lengthAdjust="spacing" textLength="186.4" x="120.8" y="495.7086">show all data registered  for confirmation</text><polygon fill="#181818" points="303.2,521.7516,311.2,524.9516,303.2,528.1516,306.4,524.9516" style="stroke:#181818;stroke-width:0.8000000000000002;"/><line style="stroke:#181818;stroke-width:0.8000000000000002;" x1="92.8" x2="308" y1="524.9516" y2="524.9516"/><text fill="#000000" font-family="sans-serif" font-size="10.4" font-weight="bold" lengthAdjust="spacing" textLength="11.2" x="98.4" y="520.7414">17</text><text fill="#000000" font-family="sans-serif" font-size="10.4" lengthAdjust="spacing" textLength="60" x="112.8" y="520.7414">submits data</text><polygon fill="#181818" points="556.8,552.3844,564.8,555.5844,556.8,558.7844,560,555.5844" style="stroke:#181818;stroke-width:0.8000000000000002;"/><line style="stroke:#181818;stroke-width:0.8000000000000002;" x1="320.8" x2="561.6" y1="555.5844" y2="555.5844"/><text fill="#000000" font-family="sans-serif" font-size="10.4" font-weight="bold" lengthAdjust="spacing" textLength="11.2" x="326.4" y="551.3742">18</text><text fill="#000000" font-family="sans-serif" font-size="10.4" lengthAdjust="spacing" textLength="216" x="340.8" y="551.3742">assignSkillCollaboratorById(collaboratorId,skill)</text><line style="stroke:#181818;stroke-width:0.8000000000000002;" x1="574.4" x2="612" y1="576.6172" y2="576.6172"/><line style="stroke:#181818;stroke-width:0.8000000000000002;" x1="612" x2="612" y1="576.6172" y2="587.0172"/><line style="stroke:#181818;stroke-width:0.8000000000000002;" x1="579.2" x2="612" y1="587.0172" y2="587.0172"/><polygon fill="#181818" points="587.2,583.8172,579.2,587.0172,587.2,590.2172,584,587.0172" style="stroke:#181818;stroke-width:0.8000000000000002;"/><text fill="#000000" font-family="sans-serif" font-size="10.4" font-weight="bold" lengthAdjust="spacing" textLength="11.2" x="584" y="572.407">19</text><text fill="#000000" font-family="sans-serif" font-size="10.4" lengthAdjust="spacing" textLength="216" x="598.4" y="572.407">assignSkillCollaboratorById(collaboratorId,skill)</text><polygon fill="#181818" points="806.4,612.85,814.4,616.05,806.4,619.25,809.6,616.05" style="stroke:#181818;stroke-width:0.8000000000000002;"/><line style="stroke:#181818;stroke-width:0.8000000000000002;" x1="578.4" x2="811.2" y1="616.05" y2="616.05"/><text fill="#000000" font-family="sans-serif" font-size="10.4" font-weight="bold" lengthAdjust="spacing" textLength="11.2" x="584" y="611.8398">20</text><text fill="#000000" font-family="sans-serif" font-size="10.4" lengthAdjust="spacing" textLength="60" x="598.4" y="611.8398">getInstance()</text><polygon fill="#181818" points="587.2,637.8828,579.2,641.0828,587.2,644.2828,584,641.0828" style="stroke:#181818;stroke-width:0.8000000000000002;"/><line style="stroke:#181818;stroke-width:0.8000000000000002;stroke-dasharray:2.0,2.0;" x1="582.4" x2="819.2" y1="641.0828" y2="641.0828"/><text fill="#000000" font-family="sans-serif" font-size="10.4" font-weight="bold" lengthAdjust="spacing" textLength="11.2" x="592" y="636.8727">21</text><text fill="#000000" font-family="sans-serif" font-size="10.4" lengthAdjust="spacing" textLength="53.6" x="606.4" y="636.8727">repositories</text><polygon fill="#181818" points="892,662.9156,900,666.1156,892,669.3156,895.2,666.1156" style="stroke:#181818;stroke-width:0.8000000000000002;"/><line style="stroke:#181818;stroke-width:0.8000000000000002;" x1="578.4" x2="896.8" y1="666.1156" y2="666.1156"/><text fill="#000000" font-family="sans-serif" font-size="10.4" font-weight="bold" lengthAdjust="spacing" textLength="11.2" x="584" y="661.9055">22</text><text fill="#000000" font-family="sans-serif" font-size="10.4" lengthAdjust="spacing" textLength="125.6" x="598.4" y="661.9055">getCollaboratorRepository()</text><polygon fill="#181818" points="587.2,687.9484,579.2,691.1484,587.2,694.3484,584,691.1484" style="stroke:#181818;stroke-width:0.8000000000000002;"/><line style="stroke:#181818;stroke-width:0.8000000000000002;stroke-dasharray:2.0,2.0;" x1="582.4" x2="904.8" y1="691.1484" y2="691.1484"/><text fill="#000000" font-family="sans-serif" font-size="10.4" font-weight="bold" lengthAdjust="spacing" textLength="11.2" x="592" y="686.9383">23</text><text fill="#000000" font-family="sans-serif" font-size="10.4" lengthAdjust="spacing" textLength="103.2" x="606.4" y="686.9383">collaboratorRepository</text><polygon fill="#181818" points="1004.4,712.9813,1012.4,716.1813,1004.4,719.3813,1007.6,716.1813" style="stroke:#181818;stroke-width:0.8000000000000002;"/><line style="stroke:#181818;stroke-width:0.8000000000000002;" x1="578.4" x2="1009.2" y1="716.1813" y2="716.1813"/><text fill="#000000" font-family="sans-serif" font-size="10.4" font-weight="bold" lengthAdjust="spacing" textLength="11.2" x="584" y="711.9711">24</text><text fill="#000000" font-family="sans-serif" font-size="10.4" lengthAdjust="spacing" textLength="216" x="598.4" y="711.9711">assignSkillCollaboratorById(collaboratorId,skill)</text><line style="stroke:#181818;stroke-width:0.8000000000000002;" x1="1022" x2="1059.6" y1="737.2141" y2="737.2141"/><line style="stroke:#181818;stroke-width:0.8000000000000002;" x1="1059.6" x2="1059.6" y1="737.2141" y2="747.6141"/><line style="stroke:#181818;stroke-width:0.8000000000000002;" x1="1026.8" x2="1059.6" y1="747.6141" y2="747.6141"/><polygon fill="#181818" points="1034.8,744.4141,1026.8,747.6141,1034.8,750.8141,1031.6,747.6141" style="stroke:#181818;stroke-width:0.8000000000000002;"/><text fill="#000000" font-family="sans-serif" font-size="10.4" font-weight="bold" lengthAdjust="spacing" textLength="11.2" x="1031.6" y="733.0039">25</text><text fill="#000000" font-family="sans-serif" font-size="10.4" lengthAdjust="spacing" textLength="154.4" x="1046" y="733.0039">findCollaboratorById(collboratorId)</text><line style="stroke:#181818;stroke-width:0.8000000000000002;" x1="1026" x2="1063.6" y1="772.6469" y2="772.6469"/><line style="stroke:#181818;stroke-width:0.8000000000000002;" x1="1063.6" x2="1063.6" y1="772.6469" y2="783.0469"/><line style="stroke:#181818;stroke-width:0.8000000000000002;" x1="1030.8" x2="1063.6" y1="783.0469" y2="783.0469"/><polygon fill="#181818" points="1038.8,779.8469,1030.8,783.0469,1038.8,786.2469,1035.6,783.0469" style="stroke:#181818;stroke-width:0.8000000000000002;"/><text fill="#000000" font-family="sans-serif" font-size="10.4" font-weight="bold" lengthAdjust="spacing" textLength="11.2" x="1035.6" y="768.4367">26</text><text fill="#000000" font-family="sans-serif" font-size="10.4" lengthAdjust="spacing" textLength="130.4" x="1050" y="768.4367">assignSkillCollaborator(skill)</text><line style="stroke:#181818;stroke-width:0.8000000000000002;" x1="1030" x2="1067.6" y1="808.0797" y2="808.0797"/><line style="stroke:#181818;stroke-width:0.8000000000000002;" x1="1067.6" x2="1067.6" y1="808.0797" y2="818.4797"/><line style="stroke:#181818;stroke-width:0.8000000000000002;" x1="1034.8" x2="1067.6" y1="818.4797" y2="818.4797"/><polygon fill="#181818" points="1042.8,815.2797,1034.8,818.4797,1042.8,821.6797,1039.6,818.4797" style="stroke:#181818;stroke-width:0.8000000000000002;"/><text fill="#000000" font-family="sans-serif" font-size="10.4" font-weight="bold" lengthAdjust="spacing" textLength="11.2" x="1039.6" y="803.8695">27</text><text fill="#000000" font-family="sans-serif" font-size="10.4" lengthAdjust="spacing" textLength="102.4" x="1054" y="803.8695">validateIfHasSkill(skill)</text><line style="stroke:#181818;stroke-width:0.8000000000000002;stroke-dasharray:2.0,2.0;" x1="1034" x2="1067.6" y1="851.5125" y2="851.5125"/><line style="stroke:#181818;stroke-width:0.8000000000000002;stroke-dasharray:2.0,2.0;" x1="1067.6" x2="1067.6" y1="851.5125" y2="861.9125"/><line style="stroke:#181818;stroke-width:0.8000000000000002;stroke-dasharray:2.0,2.0;" x1="1030" x2="1067.6" y1="861.9125" y2="861.9125"/><polygon fill="#181818" points="1038,858.7125,1030,861.9125,1038,865.1125,1034.8,861.9125" style="stroke:#181818;stroke-width:0.8000000000000002;"/><text fill="#000000" font-family="sans-serif" font-size="10.4" font-weight="bold" lengthAdjust="spacing" textLength="11.2" x="1039.6" y="847.3023">28</text><text fill="#000000" font-family="sans-serif" font-size="10.4" lengthAdjust="spacing" textLength="3.2" x="1054" y="847.3023">&#160;</text><line style="stroke:#181818;stroke-width:0.8000000000000002;stroke-dasharray:2.0,2.0;" x1="1030" x2="1063.6" y1="886.9453" y2="886.9453"/><line style="stroke:#181818;stroke-width:0.8000000000000002;stroke-dasharray:2.0,2.0;" x1="1063.6" x2="1063.6" y1="886.9453" y2="897.3453"/><line style="stroke:#181818;stroke-width:0.8000000000000002;stroke-dasharray:2.0,2.0;" x1="1026" x2="1063.6" y1="897.3453" y2="897.3453"/><polygon fill="#181818" points="1034,894.1453,1026,897.3453,1034,900.5453,1030.8,897.3453" style="stroke:#181818;stroke-width:0.8000000000000002;"/><text fill="#000000" font-family="sans-serif" font-size="10.4" font-weight="bold" lengthAdjust="spacing" textLength="11.2" x="1035.6" y="882.7352">29</text><text fill="#000000" font-family="sans-serif" font-size="10.4" lengthAdjust="spacing" textLength="3.2" x="1050" y="882.7352">&#160;</text><line style="stroke:#181818;stroke-width:0.8000000000000002;stroke-dasharray:2.0,2.0;" x1="1026" x2="1059.6" y1="922.3781" y2="922.3781"/><line style="stroke:#181818;stroke-width:0.8000000000000002;stroke-dasharray:2.0,2.0;" x1="1059.6" x2="1059.6" y1="922.3781" y2="932.7781"/><line style="stroke:#181818;stroke-width:0.8000000000000002;stroke-dasharray:2.0,2.0;" x1="1022" x2="1059.6" y1="932.7781" y2="932.7781"/><polygon fill="#181818" points="1030,929.5781,1022,932.7781,1030,935.9781,1026.8,932.7781" style="stroke:#181818;stroke-width:0.8000000000000002;"/><text fill="#000000" font-family="sans-serif" font-size="10.4" font-weight="bold" lengthAdjust="spacing" textLength="11.2" x="1031.6" y="918.168">30</text><text fill="#000000" font-family="sans-serif" font-size="10.4" lengthAdjust="spacing" textLength="3.2" x="1046" y="918.168">&#160;</text><polygon fill="#181818" points="587.2,950.6109,579.2,953.8109,587.2,957.0109,584,953.8109" style="stroke:#181818;stroke-width:0.8000000000000002;"/><line style="stroke:#181818;stroke-width:0.8000000000000002;stroke-dasharray:2.0,2.0;" x1="582.4" x2="1017.2" y1="953.8109" y2="953.8109"/><text fill="#000000" font-family="sans-serif" font-size="10.4" font-weight="bold" lengthAdjust="spacing" textLength="11.2" x="592" y="949.6008">31</text><text fill="#000000" font-family="sans-serif" font-size="10.4" lengthAdjust="spacing" textLength="42.4" x="606.4" y="949.6008">true/false</text><line style="stroke:#181818;stroke-width:0.8000000000000002;stroke-dasharray:2.0,2.0;" x1="578.4" x2="612" y1="982.8438" y2="982.8438"/><line style="stroke:#181818;stroke-width:0.8000000000000002;stroke-dasharray:2.0,2.0;" x1="612" x2="612" y1="982.8438" y2="993.2438"/><line style="stroke:#181818;stroke-width:0.8000000000000002;stroke-dasharray:2.0,2.0;" x1="574.4" x2="612" y1="993.2438" y2="993.2438"/><polygon fill="#181818" points="582.4,990.0438,574.4,993.2438,582.4,996.4438,579.2,993.2438" style="stroke:#181818;stroke-width:0.8000000000000002;"/><text fill="#000000" font-family="sans-serif" font-size="10.4" font-weight="bold" lengthAdjust="spacing" textLength="11.2" x="584" y="978.6336">32</text><text fill="#000000" font-family="sans-serif" font-size="10.4" lengthAdjust="spacing" textLength="42.4" x="598.4" y="978.6336">true/false</text><polygon fill="#181818" points="329.6,1011.0766,321.6,1014.2766,329.6,1017.4766,326.4,1014.2766" style="stroke:#181818;stroke-width:0.8000000000000002;"/><line style="stroke:#181818;stroke-width:0.8000000000000002;stroke-dasharray:2.0,2.0;" x1="324.8" x2="569.6" y1="1014.2766" y2="1014.2766"/><text fill="#000000" font-family="sans-serif" font-size="10.4" font-weight="bold" lengthAdjust="spacing" textLength="11.2" x="334.4" y="1010.0664">33</text><text fill="#000000" font-family="sans-serif" font-size="10.4" lengthAdjust="spacing" textLength="42.4" x="348.8" y="1010.0664">true/false</text><polygon fill="#181818" points="97.6,1036.1094,89.6,1039.3094,97.6,1042.5094,94.4,1039.3094" style="stroke:#181818;stroke-width:0.8000000000000002;"/><line style="stroke:#181818;stroke-width:0.8000000000000002;stroke-dasharray:2.0,2.0;" x1="92.8" x2="316" y1="1039.3094" y2="1039.3094"/><text fill="#000000" font-family="sans-serif" font-size="10.4" font-weight="bold" lengthAdjust="spacing" textLength="11.2" x="102.4" y="1035.0992">34</text><text fill="#000000" font-family="sans-serif" font-size="10.4" lengthAdjust="spacing" textLength="176" x="116.8" y="1035.0992">displays the success of the operation.</text><!--SRC=[pLV1Zjem4BtxAwozb5sLzivXfIqz48cjAbXklPXa08l4Jcrdj_nznmu4EpW10OVD1SMPUVDcU3EszPQBaYbMq48AcMwKB80QLG7HpPUIfLksXhdPvK0Lf8Q9TUuRw0tBv0SNQxfYkGP2M6Mag8ebA4A-R7W6T2MbMSf_XAL6AlemgGecw0oqh5GAchuoWH7K0sMQJcQl174DJtd9XA4FenUj-LhCjppFnpBFsL8gXZ2BnDalailCnr8OXU_xCEEtsRJbE8DIQewc7BIpQHPsSsvpngn25-Lv_16d0B-dBs-XH-enEiAZxpZwmQ74VK9SRTCD0EVXYaDgMH7xV_1tPi1LdT3zWozq-8oLfIFqscfg9FxQgb9MOxYLW1WvkZUW-DSqYmWsH4mBFK8L_Qr06venm-Z0JvqcF-al9vt7nZM3035AKqEEojG7PCWSzdbApqu8Jqy8aIf0YzXd_BW6umewvTeC7azndPoQPViuHmI8YAZ6IuJ6Lah1WmiWO-eBB6F8moDbNvo1drVFip4EMLWbUsKu-dMnTz8FFZa8ZrzRZ1qKJu4Ed5e0tVzIGEoa1tohDcIRhWNk8jeBVE3in1h1yd2Sb7pVMeXrv-YD_D2UV_rOgrpAica3Pw0lwZvdUbsprM7YJHOFRUbJXlF3nLQmnXn0ORVY3g5mdeWLLmKp76NOGIZAfreM7Fa4BTzcPDz1PCGhMRJJMNpx-B5Bie4_y9BiQwjqaO4GrS1T0bqmWUunZQwRJFUOKjTEhFxf5TzcBqdwT0xr3RUEFVk21EiuPrEA1xYRh8BKEvBfTEpWriTwnKKMfTkm_GGyEuixkB6IzoFupdAEOn2IrOHfn_CSjvkhU8vi9zkpY5vNtAbmFH8aduF53JJ8DKJsyyhU-RxNrxSR2FGFhMkZxRVIK_W6Tf7qOlOThi8ZoeXcN9Svs-6TPuD7kYh5wwccSkLUPGdA7Kw-aOxZIMl5tgh-0m00]--></g></svg>