<?xml version="1.0" encoding="us-ascii" standalone="no"?><svg xmlns="http://www.w3.org/2000/svg" xmlns:xlink="http://www.w3.org/1999/xlink" contentStyleType="text/css" height="1744px" preserveAspectRatio="none" style="width:2400px;height:1744px;background:#FFFFFF;" version="1.1" viewBox="0 0 2400 1744" width="2400px" zoomAndPan="magnify"><defs/><g><text fill="#000000" font-family="sans-serif" font-size="14" font-weight="bold" lengthAdjust="spacing" textLength="315" x="1041.75" y="30.1074">UI Sequence Diagram (SSD) - Alternative One</text><rect fill="#FFFFFF" height="1519.5527" style="stroke:#181818;stroke-width:1.0;" width="10" x="75" y="133.2422"/><rect fill="#FFFFFF" height="1132.6426" style="stroke:#181818;stroke-width:1.0;" width="10" x="338" y="156.5332"/><rect fill="#FFFFFF" height="323.3281" style="stroke:#181818;stroke-width:1.0;" width="10" x="338" y="1320.4668"/><rect fill="#FFFFFF" height="519.0742" style="stroke:#181818;stroke-width:1.0;" width="10" x="615" y="231.4453"/><rect fill="#FFFFFF" height="191.4551" style="stroke:#181818;stroke-width:1.0;" width="10" x="620" y="270.7363"/><rect fill="#FFFFFF" height="192.7461" style="stroke:#181818;stroke-width:1.0;" width="10" x="620" y="526.4824"/><rect fill="#FFFFFF" height="350.9102" style="stroke:#181818;stroke-width:1.0;" width="10" x="620" y="844.3926"/><rect fill="#FFFFFF" height="62.582" style="stroke:#181818;stroke-width:1.0;" width="10" x="620" y="844.3926"/><rect fill="#FFFFFF" height="192.7461" style="stroke:#181818;stroke-width:1.0;" width="10" x="620" y="971.2656"/><rect fill="#FFFFFF" height="153.873" style="stroke:#181818;stroke-width:1.0;" width="10" x="615" y="1351.7578"/><rect fill="#FFFFFF" height="31.291" style="stroke:#181818;stroke-width:1.0;" width="10" x="615" y="1581.2129"/><rect fill="#FFFFFF" height="31.291" style="stroke:#181818;stroke-width:1.0;" width="10" x="954" y="307.0273"/><rect fill="#FFFFFF" height="31.291" style="stroke:#181818;stroke-width:1.0;" width="10" x="1101" y="369.6094"/><rect fill="#FFFFFF" height="30" style="stroke:#181818;stroke-width:1.0;" width="10" x="1234" y="432.1914"/><rect fill="#FFFFFF" height="31.291" style="stroke:#181818;stroke-width:1.0;" width="10" x="1478" y="562.7734"/><rect fill="#FFFFFF" height="31.291" style="stroke:#181818;stroke-width:1.0;" width="10" x="1478" y="1007.5566"/><rect fill="#FFFFFF" height="31.291" style="stroke:#181818;stroke-width:1.0;" width="10" x="1585" y="625.3555"/><rect fill="#FFFFFF" height="31.291" style="stroke:#181818;stroke-width:1.0;" width="10" x="1585" y="1070.1387"/><rect fill="#FFFFFF" height="31.291" style="stroke:#181818;stroke-width:1.0;" width="10" x="1711" y="687.9375"/><rect fill="#FFFFFF" height="31.291" style="stroke:#181818;stroke-width:1.0;" width="10" x="1711" y="875.6836"/><rect fill="#FFFFFF" height="30" style="stroke:#181818;stroke-width:1.0;" width="10" x="1711" y="1444.3398"/><rect fill="#FFFFFF" height="75.582" style="stroke:#181818;stroke-width:1.0;" width="10" x="1711" y="1505.6309"/><rect fill="#FFFFFF" height="31.291" style="stroke:#181818;stroke-width:1.0;" width="10" x="2006.5" y="1132.7207"/><rect fill="#FFFFFF" height="30" style="stroke:#181818;stroke-width:1.0;" width="10" x="2006.5" y="1383.0488"/><line style="stroke:#181818;stroke-width:0.5;stroke-dasharray:5.0,5.0;" x1="80" x2="80" y1="123.2422" y2="1661.7949"/><line style="stroke:#181818;stroke-width:0.5;stroke-dasharray:5.0,5.0;" x1="342.5" x2="342.5" y1="123.2422" y2="1661.7949"/><line style="stroke:#181818;stroke-width:0.5;stroke-dasharray:5.0,5.0;" x1="619.5" x2="619.5" y1="196.3438" y2="1661.7949"/><line style="stroke:#181818;stroke-width:0.5;stroke-dasharray:5.0,5.0;" x1="958.5" x2="958.5" y1="123.2422" y2="1661.7949"/><line style="stroke:#181818;stroke-width:0.5;stroke-dasharray:5.0,5.0;" x1="1105.5" x2="1105.5" y1="123.2422" y2="1661.7949"/><line style="stroke:#181818;stroke-width:0.5;stroke-dasharray:5.0,5.0;" x1="1238.5" x2="1238.5" y1="123.2422" y2="1661.7949"/><line style="stroke:#181818;stroke-width:0.5;stroke-dasharray:5.0,5.0;" x1="1363.5" x2="1363.5" y1="123.2422" y2="1661.7949"/><line style="stroke:#181818;stroke-width:0.5;stroke-dasharray:5.0,5.0;" x1="1482.5" x2="1482.5" y1="123.2422" y2="1661.7949"/><line style="stroke:#181818;stroke-width:0.5;stroke-dasharray:5.0,5.0;" x1="1589.5" x2="1589.5" y1="123.2422" y2="1661.7949"/><line style="stroke:#181818;stroke-width:0.5;stroke-dasharray:5.0,5.0;" x1="1715.5" x2="1715.5" y1="123.2422" y2="1661.7949"/><line style="stroke:#181818;stroke-width:0.5;stroke-dasharray:5.0,5.0;" x1="1864.5" x2="1864.5" y1="123.2422" y2="1661.7949"/><line style="stroke:#181818;stroke-width:0.5;stroke-dasharray:5.0,5.0;" x1="2011.5" x2="2011.5" y1="123.2422" y2="1661.7949"/><line style="stroke:#181818;stroke-width:0.5;stroke-dasharray:5.0,5.0;" x1="2148.5" x2="2148.5" y1="123.2422" y2="1661.7949"/><line style="stroke:#181818;stroke-width:0.5;stroke-dasharray:5.0,5.0;" x1="2252.5" x2="2252.5" y1="123.2422" y2="1661.7949"/><line style="stroke:#181818;stroke-width:0.5;stroke-dasharray:5.0,5.0;" x1="2344.5" x2="2344.5" y1="123.2422" y2="1661.7949"/><text fill="#000000" font-family="sans-serif" font-size="14" lengthAdjust="spacing" textLength="144" x="5" y="119.7285">Green Space Manager</text><ellipse cx="80" cy="53.1211" fill="#E3E3E3" rx="8" ry="8" style="stroke:#181818;stroke-width:0.5;"/><path d="M80,61.1211 L80,88.1211 M67,69.1211 L93,69.1211 M80,88.1211 L67,103.1211 M80,88.1211 L93,103.1211 " fill="none" style="stroke:#181818;stroke-width:0.5;"/><text fill="#000000" font-family="sans-serif" font-size="14" lengthAdjust="spacing" textLength="144" x="5" y="1675.9023">Green Space Manager</text><ellipse cx="80" cy="1687.916" fill="#E3E3E3" rx="8" ry="8" style="stroke:#181818;stroke-width:0.5;"/><path d="M80,1695.916 L80,1722.916 M67,1703.916 L93,1703.916 M80,1722.916 L67,1737.916 M80,1722.916 L93,1737.916 " fill="none" style="stroke:#181818;stroke-width:0.5;"/><rect fill="#E3E3E3" height="32.6211" rx="2.5" ry="2.5" style="stroke:#181818;stroke-width:0.5;" width="87" x="299.5" y="89.6211"/><text fill="#000000" font-family="sans-serif" font-size="14" lengthAdjust="spacing" textLength="73" x="306.5" y="111.7285">:ToDoListUI</text><rect fill="#E3E3E3" height="32.6211" rx="2.5" ry="2.5" style="stroke:#181818;stroke-width:0.5;" width="87" x="299.5" y="1660.7949"/><text fill="#000000" font-family="sans-serif" font-size="14" lengthAdjust="spacing" textLength="73" x="306.5" y="1682.9023">:ToDoListUI</text><rect fill="#E3E3E3" height="32.6211" rx="2.5" ry="2.5" style="stroke:#181818;stroke-width:0.5;" width="137" x="551.5" y="1660.7949"/><text fill="#000000" font-family="sans-serif" font-size="14" lengthAdjust="spacing" textLength="123" x="558.5" y="1682.9023">:ToDoListController</text><rect fill="#E3E3E3" height="32.6211" rx="2.5" ry="2.5" style="stroke:#181818;stroke-width:0.5;" width="137" x="890.5" y="89.6211"/><text fill="#000000" font-family="sans-serif" font-size="14" lengthAdjust="spacing" textLength="123" x="897.5" y="111.7285">:ApplicationSession</text><rect fill="#E3E3E3" height="32.6211" rx="2.5" ry="2.5" style="stroke:#181818;stroke-width:0.5;" width="137" x="890.5" y="1660.7949"/><text fill="#000000" font-family="sans-serif" font-size="14" lengthAdjust="spacing" textLength="123" x="897.5" y="1682.9023">:ApplicationSession</text><rect fill="#E3E3E3" height="51.2422" rx="2.5" ry="2.5" style="stroke:#181818;stroke-width:0.5;" width="137" x="1037.5" y="71"/><text fill="#000000" font-family="sans-serif" font-size="14" lengthAdjust="spacing" textLength="74" x="1069" y="93.1074">appSession</text><text fill="#000000" font-family="sans-serif" font-size="14" lengthAdjust="spacing" textLength="123" x="1044.5" y="111.7285">:ApplicationSession</text><rect fill="#E3E3E3" height="51.2422" rx="2.5" ry="2.5" style="stroke:#181818;stroke-width:0.5;" width="137" x="1037.5" y="1660.7949"/><text fill="#000000" font-family="sans-serif" font-size="14" lengthAdjust="spacing" textLength="74" x="1069" y="1682.9023">appSession</text><text fill="#000000" font-family="sans-serif" font-size="14" lengthAdjust="spacing" textLength="123" x="1044.5" y="1701.5234">:ApplicationSession</text><rect fill="#E3E3E3" height="51.2422" rx="2.5" ry="2.5" style="stroke:#181818;stroke-width:0.5;" width="109" x="1184.5" y="71"/><text fill="#000000" font-family="sans-serif" font-size="14" lengthAdjust="spacing" textLength="95" x="1191.5" y="93.1074">currentSession</text><text fill="#000000" font-family="sans-serif" font-size="14" lengthAdjust="spacing" textLength="83" x="1197.5" y="111.7285">:UserSession</text><rect fill="#E3E3E3" height="51.2422" rx="2.5" ry="2.5" style="stroke:#181818;stroke-width:0.5;" width="109" x="1184.5" y="1660.7949"/><text fill="#000000" font-family="sans-serif" font-size="14" lengthAdjust="spacing" textLength="95" x="1191.5" y="1682.9023">currentSession</text><text fill="#000000" font-family="sans-serif" font-size="14" lengthAdjust="spacing" textLength="83" x="1197.5" y="1701.5234">:UserSession</text><rect fill="#E3E3E3" height="51.2422" rx="2.5" ry="2.5" style="stroke:#181818;stroke-width:0.5;" width="121" x="1303.5" y="71"/><text fill="#000000" font-family="sans-serif" font-size="14" lengthAdjust="spacing" textLength="107" x="1310.5" y="93.1074">responsibleEmail</text><text fill="#000000" font-family="sans-serif" font-size="14" lengthAdjust="spacing" textLength="41" x="1343.5" y="111.7285">:String</text><rect fill="#E3E3E3" height="51.2422" rx="2.5" ry="2.5" style="stroke:#181818;stroke-width:0.5;" width="121" x="1303.5" y="1660.7949"/><text fill="#000000" font-family="sans-serif" font-size="14" lengthAdjust="spacing" textLength="107" x="1310.5" y="1682.9023">responsibleEmail</text><text fill="#000000" font-family="sans-serif" font-size="14" lengthAdjust="spacing" textLength="41" x="1343.5" y="1701.5234">:String</text><rect fill="#E3E3E3" height="32.6211" rx="2.5" ry="2.5" style="stroke:#181818;stroke-width:0.5;" width="97" x="1434.5" y="89.6211"/><text fill="#000000" font-family="sans-serif" font-size="14" lengthAdjust="spacing" textLength="83" x="1441.5" y="111.7285">:Repositories</text><rect fill="#E3E3E3" height="32.6211" rx="2.5" ry="2.5" style="stroke:#181818;stroke-width:0.5;" width="97" x="1434.5" y="1660.7949"/><text fill="#000000" font-family="sans-serif" font-size="14" lengthAdjust="spacing" textLength="83" x="1441.5" y="1682.9023">:Repositories</text><rect fill="#E3E3E3" height="51.2422" rx="2.5" ry="2.5" style="stroke:#181818;stroke-width:0.5;" width="97" x="1541.5" y="71"/><text fill="#000000" font-family="sans-serif" font-size="14" lengthAdjust="spacing" textLength="74" x="1553" y="93.1074">repositories</text><text fill="#000000" font-family="sans-serif" font-size="14" lengthAdjust="spacing" textLength="83" x="1548.5" y="111.7285">:Repositories</text><rect fill="#E3E3E3" height="51.2422" rx="2.5" ry="2.5" style="stroke:#181818;stroke-width:0.5;" width="97" x="1541.5" y="1660.7949"/><text fill="#000000" font-family="sans-serif" font-size="14" lengthAdjust="spacing" textLength="74" x="1553" y="1682.9023">repositories</text><text fill="#000000" font-family="sans-serif" font-size="14" lengthAdjust="spacing" textLength="83" x="1548.5" y="1701.5234">:Repositories</text><rect fill="#E3E3E3" height="51.2422" rx="2.5" ry="2.5" style="stroke:#181818;stroke-width:0.5;" width="135" x="1648.5" y="71"/><text fill="#000000" font-family="sans-serif" font-size="14" lengthAdjust="spacing" textLength="48" x="1692" y="93.1074">agenda</text><text fill="#000000" font-family="sans-serif" font-size="14" lengthAdjust="spacing" textLength="121" x="1655.5" y="111.7285">:AgendaRepository</text><rect fill="#E3E3E3" height="51.2422" rx="2.5" ry="2.5" style="stroke:#181818;stroke-width:0.5;" width="135" x="1648.5" y="1660.7949"/><text fill="#000000" font-family="sans-serif" font-size="14" lengthAdjust="spacing" textLength="48" x="1692" y="1682.9023">agenda</text><text fill="#000000" font-family="sans-serif" font-size="14" lengthAdjust="spacing" textLength="121" x="1655.5" y="1701.5234">:AgendaRepository</text><rect fill="#E3E3E3" height="51.2422" rx="2.5" ry="2.5" style="stroke:#181818;stroke-width:0.5;" width="142" x="1793.5" y="71"/><text fill="#000000" font-family="sans-serif" font-size="14" lengthAdjust="spacing" textLength="92" x="1818.5" y="93.1074">agendaEntries</text><text fill="#000000" font-family="sans-serif" font-size="14" lengthAdjust="spacing" textLength="128" x="1800.5" y="111.7285">: List&lt;AgendaEntry&gt;</text><rect fill="#E3E3E3" height="51.2422" rx="2.5" ry="2.5" style="stroke:#181818;stroke-width:0.5;" width="142" x="1793.5" y="1660.7949"/><text fill="#000000" font-family="sans-serif" font-size="14" lengthAdjust="spacing" textLength="92" x="1818.5" y="1682.9023">agendaEntries</text><text fill="#000000" font-family="sans-serif" font-size="14" lengthAdjust="spacing" textLength="128" x="1800.5" y="1701.5234">: List&lt;AgendaEntry&gt;</text><rect fill="#E3E3E3" height="51.2422" rx="2.5" ry="2.5" style="stroke:#181818;stroke-width:0.5;" width="132" x="1945.5" y="71"/><text fill="#000000" font-family="sans-serif" font-size="14" lengthAdjust="spacing" textLength="112" x="1955.5" y="93.1074">vehicleRepository</text><text fill="#000000" font-family="sans-serif" font-size="14" lengthAdjust="spacing" textLength="118" x="1952.5" y="111.7285">:VehicleRepository</text><rect fill="#E3E3E3" height="51.2422" rx="2.5" ry="2.5" style="stroke:#181818;stroke-width:0.5;" width="132" x="1945.5" y="1660.7949"/><text fill="#000000" font-family="sans-serif" font-size="14" lengthAdjust="spacing" textLength="112" x="1955.5" y="1682.9023">vehicleRepository</text><text fill="#000000" font-family="sans-serif" font-size="14" lengthAdjust="spacing" textLength="118" x="1952.5" y="1701.5234">:VehicleRepository</text><rect fill="#E3E3E3" height="51.2422" rx="2.5" ry="2.5" style="stroke:#181818;stroke-width:0.5;" width="123" x="2087.5" y="71"/><text fill="#000000" font-family="sans-serif" font-size="14" lengthAdjust="spacing" textLength="109" x="2094.5" y="93.1074">availableVehicles</text><text fill="#000000" font-family="sans-serif" font-size="14" lengthAdjust="spacing" textLength="92" x="2103" y="111.7285">: List&lt;Vehicle&gt;</text><rect fill="#E3E3E3" height="51.2422" rx="2.5" ry="2.5" style="stroke:#181818;stroke-width:0.5;" width="123" x="2087.5" y="1660.7949"/><text fill="#000000" font-family="sans-serif" font-size="14" lengthAdjust="spacing" textLength="109" x="2094.5" y="1682.9023">availableVehicles</text><text fill="#000000" font-family="sans-serif" font-size="14" lengthAdjust="spacing" textLength="92" x="2103" y="1701.5234">: List&lt;Vehicle&gt;</text><rect fill="#E3E3E3" height="51.2422" rx="2.5" ry="2.5" style="stroke:#181818;stroke-width:0.5;" width="64" x="2220.5" y="71"/><text fill="#000000" font-family="sans-serif" font-size="14" lengthAdjust="spacing" textLength="15" x="2245" y="93.1074">v1</text><text fill="#000000" font-family="sans-serif" font-size="14" lengthAdjust="spacing" textLength="50" x="2227.5" y="111.7285">:Vehicle</text><rect fill="#E3E3E3" height="51.2422" rx="2.5" ry="2.5" style="stroke:#181818;stroke-width:0.5;" width="64" x="2220.5" y="1660.7949"/><text fill="#000000" font-family="sans-serif" font-size="14" lengthAdjust="spacing" textLength="15" x="2245" y="1682.9023">v1</text><text fill="#000000" font-family="sans-serif" font-size="14" lengthAdjust="spacing" textLength="50" x="2227.5" y="1701.5234">:Vehicle</text><rect fill="#E3E3E3" height="51.2422" rx="2.5" ry="2.5" style="stroke:#181818;stroke-width:0.5;" width="100" x="2294.5" y="71"/><text fill="#000000" font-family="sans-serif" font-size="14" lengthAdjust="spacing" textLength="34" x="2327.5" y="93.1074">task1</text><text fill="#000000" font-family="sans-serif" font-size="14" lengthAdjust="spacing" textLength="86" x="2301.5" y="111.7285">:AgendaEntry</text><rect fill="#E3E3E3" height="51.2422" rx="2.5" ry="2.5" style="stroke:#181818;stroke-width:0.5;" width="100" x="2294.5" y="1660.7949"/><text fill="#000000" font-family="sans-serif" font-size="14" lengthAdjust="spacing" textLength="34" x="2327.5" y="1682.9023">task1</text><text fill="#000000" font-family="sans-serif" font-size="14" lengthAdjust="spacing" textLength="86" x="2301.5" y="1701.5234">:AgendaEntry</text><rect fill="#FFFFFF" height="1519.5527" style="stroke:#181818;stroke-width:1.0;" width="10" x="75" y="133.2422"/><rect fill="#FFFFFF" height="1132.6426" style="stroke:#181818;stroke-width:1.0;" width="10" x="338" y="156.5332"/><rect fill="#FFFFFF" height="323.3281" style="stroke:#181818;stroke-width:1.0;" width="10" x="338" y="1320.4668"/><rect fill="#FFFFFF" height="519.0742" style="stroke:#181818;stroke-width:1.0;" width="10" x="615" y="231.4453"/><rect fill="#FFFFFF" height="191.4551" style="stroke:#181818;stroke-width:1.0;" width="10" x="620" y="270.7363"/><rect fill="#FFFFFF" height="192.7461" style="stroke:#181818;stroke-width:1.0;" width="10" x="620" y="526.4824"/><rect fill="#FFFFFF" height="350.9102" style="stroke:#181818;stroke-width:1.0;" width="10" x="620" y="844.3926"/><rect fill="#FFFFFF" height="62.582" style="stroke:#181818;stroke-width:1.0;" width="10" x="620" y="844.3926"/><rect fill="#FFFFFF" height="192.7461" style="stroke:#181818;stroke-width:1.0;" width="10" x="620" y="971.2656"/><rect fill="#FFFFFF" height="153.873" style="stroke:#181818;stroke-width:1.0;" width="10" x="615" y="1351.7578"/><rect fill="#FFFFFF" height="31.291" style="stroke:#181818;stroke-width:1.0;" width="10" x="615" y="1581.2129"/><rect fill="#FFFFFF" height="31.291" style="stroke:#181818;stroke-width:1.0;" width="10" x="954" y="307.0273"/><rect fill="#FFFFFF" height="31.291" style="stroke:#181818;stroke-width:1.0;" width="10" x="1101" y="369.6094"/><rect fill="#FFFFFF" height="30" style="stroke:#181818;stroke-width:1.0;" width="10" x="1234" y="432.1914"/><rect fill="#FFFFFF" height="31.291" style="stroke:#181818;stroke-width:1.0;" width="10" x="1478" y="562.7734"/><rect fill="#FFFFFF" height="31.291" style="stroke:#181818;stroke-width:1.0;" width="10" x="1478" y="1007.5566"/><rect fill="#FFFFFF" height="31.291" style="stroke:#181818;stroke-width:1.0;" width="10" x="1585" y="625.3555"/><rect fill="#FFFFFF" height="31.291" style="stroke:#181818;stroke-width:1.0;" width="10" x="1585" y="1070.1387"/><rect fill="#FFFFFF" height="31.291" style="stroke:#181818;stroke-width:1.0;" width="10" x="1711" y="687.9375"/><rect fill="#FFFFFF" height="31.291" style="stroke:#181818;stroke-width:1.0;" width="10" x="1711" y="875.6836"/><rect fill="#FFFFFF" height="30" style="stroke:#181818;stroke-width:1.0;" width="10" x="1711" y="1444.3398"/><rect fill="#FFFFFF" height="75.582" style="stroke:#181818;stroke-width:1.0;" width="10" x="1711" y="1505.6309"/><rect fill="#FFFFFF" height="31.291" style="stroke:#181818;stroke-width:1.0;" width="10" x="2006.5" y="1132.7207"/><rect fill="#FFFFFF" height="30" style="stroke:#181818;stroke-width:1.0;" width="10" x="2006.5" y="1383.0488"/><polygon fill="#181818" points="326,152.5332,336,156.5332,326,160.5332,330,156.5332" style="stroke:#181818;stroke-width:1.0;"/><line style="stroke:#181818;stroke-width:1.0;" x1="85" x2="332" y1="156.5332" y2="156.5332"/><text fill="#000000" font-family="sans-serif" font-size="13" font-weight="bold" lengthAdjust="spacing" textLength="7" x="92" y="151.2705">1</text><text fill="#000000" font-family="sans-serif" font-size="13" lengthAdjust="spacing" textLength="187" x="103" y="151.2705">ask to assign a vehicle to a task</text><polygon fill="#181818" points="539.5,183.8242,549.5,187.8242,539.5,191.8242,543.5,187.8242" style="stroke:#181818;stroke-width:1.0;"/><line style="stroke:#181818;stroke-width:1.0;" x1="348" x2="545.5" y1="187.8242" y2="187.8242"/><text fill="#000000" font-family="sans-serif" font-size="13" font-weight="bold" lengthAdjust="spacing" textLength="7" x="355" y="182.5615">2</text><text fill="#000000" font-family="sans-serif" font-size="13" lengthAdjust="spacing" textLength="36" x="366" y="182.5615">create</text><rect fill="#E3E3E3" height="32.6211" rx="2.5" ry="2.5" style="stroke:#181818;stroke-width:0.5;" width="137" x="551.5" y="164.5332"/><text fill="#000000" font-family="sans-serif" font-size="14" lengthAdjust="spacing" textLength="123" x="558.5" y="186.6406">:ToDoListController</text><polygon fill="#181818" points="603,227.4453,613,231.4453,603,235.4453,607,231.4453" style="stroke:#181818;stroke-width:1.0;"/><line style="stroke:#181818;stroke-width:1.0;" x1="348" x2="609" y1="231.4453" y2="231.4453"/><text fill="#000000" font-family="sans-serif" font-size="13" font-weight="bold" lengthAdjust="spacing" textLength="7" x="355" y="226.1826">3</text><text fill="#000000" font-family="sans-serif" font-size="13" lengthAdjust="spacing" textLength="198" x="366" y="226.1826">getAgendaEntriesByResponsible()</text><line style="stroke:#181818;stroke-width:1.0;" x1="625" x2="672" y1="257.7363" y2="257.7363"/><line style="stroke:#181818;stroke-width:1.0;" x1="672" x2="672" y1="257.7363" y2="270.7363"/><line style="stroke:#181818;stroke-width:1.0;" x1="631" x2="672" y1="270.7363" y2="270.7363"/><polygon fill="#181818" points="641,266.7363,631,270.7363,641,274.7363,637,270.7363" style="stroke:#181818;stroke-width:1.0;"/><text fill="#000000" font-family="sans-serif" font-size="13" font-weight="bold" lengthAdjust="spacing" textLength="7" x="637" y="252.4736">4</text><text fill="#000000" font-family="sans-serif" font-size="13" lengthAdjust="spacing" textLength="97" x="648" y="252.4736">getResponsible()</text><polygon fill="#181818" points="942,303.0273,952,307.0273,942,311.0273,946,307.0273" style="stroke:#181818;stroke-width:1.0;"/><line style="stroke:#181818;stroke-width:1.0;" x1="630" x2="948" y1="307.0273" y2="307.0273"/><text fill="#000000" font-family="sans-serif" font-size="13" font-weight="bold" lengthAdjust="spacing" textLength="7" x="637" y="301.7646">5</text><text fill="#000000" font-family="sans-serif" font-size="13" lengthAdjust="spacing" textLength="75" x="648" y="301.7646">getInstance()</text><polygon fill="#181818" points="641,334.3184,631,338.3184,641,342.3184,637,338.3184" style="stroke:#181818;stroke-width:1.0;"/><line style="stroke:#181818;stroke-width:1.0;" x1="635" x2="958" y1="338.3184" y2="338.3184"/><text fill="#000000" font-family="sans-serif" font-size="13" font-weight="bold" lengthAdjust="spacing" textLength="7" x="647" y="333.0557">6</text><text fill="#000000" font-family="sans-serif" font-size="13" lengthAdjust="spacing" textLength="68" x="658" y="333.0557">appSession</text><polygon fill="#181818" points="1089,365.6094,1099,369.6094,1089,373.6094,1093,369.6094" style="stroke:#181818;stroke-width:1.0;"/><line style="stroke:#181818;stroke-width:1.0;" x1="630" x2="1095" y1="369.6094" y2="369.6094"/><text fill="#000000" font-family="sans-serif" font-size="13" font-weight="bold" lengthAdjust="spacing" textLength="7" x="637" y="364.3467">7</text><text fill="#000000" font-family="sans-serif" font-size="13" lengthAdjust="spacing" textLength="115" x="648" y="364.3467">getCurrentSession()</text><polygon fill="#181818" points="641,396.9004,631,400.9004,641,404.9004,637,400.9004" style="stroke:#181818;stroke-width:1.0;"/><line style="stroke:#181818;stroke-width:1.0;stroke-dasharray:2.0,2.0;" x1="635" x2="1105" y1="400.9004" y2="400.9004"/><text fill="#000000" font-family="sans-serif" font-size="13" font-weight="bold" lengthAdjust="spacing" textLength="7" x="647" y="395.6377">8</text><text fill="#000000" font-family="sans-serif" font-size="13" lengthAdjust="spacing" textLength="87" x="658" y="395.6377">currentSession</text><polygon fill="#181818" points="1222,428.1914,1232,432.1914,1222,436.1914,1226,432.1914" style="stroke:#181818;stroke-width:1.0;"/><line style="stroke:#181818;stroke-width:1.0;" x1="630" x2="1228" y1="432.1914" y2="432.1914"/><text fill="#000000" font-family="sans-serif" font-size="13" font-weight="bold" lengthAdjust="spacing" textLength="7" x="637" y="426.9287">9</text><text fill="#000000" font-family="sans-serif" font-size="13" lengthAdjust="spacing" textLength="86" x="648" y="426.9287">getUserEmail()</text><line style="stroke:#181818;stroke-width:1.0;" x1="625" x2="672" y1="513.4824" y2="513.4824"/><line style="stroke:#181818;stroke-width:1.0;" x1="672" x2="672" y1="513.4824" y2="526.4824"/><line style="stroke:#181818;stroke-width:1.0;" x1="631" x2="672" y1="526.4824" y2="526.4824"/><polygon fill="#181818" points="641,522.4824,631,526.4824,641,530.4824,637,526.4824" style="stroke:#181818;stroke-width:1.0;"/><text fill="#000000" font-family="sans-serif" font-size="13" font-weight="bold" lengthAdjust="spacing" textLength="14" x="637" y="508.2197">10</text><text fill="#000000" font-family="sans-serif" font-size="13" lengthAdjust="spacing" textLength="297" x="655" y="508.2197">getAgendaEntriesByResponsible(responsibleEmail)</text><polygon fill="#181818" points="1466,558.7734,1476,562.7734,1466,566.7734,1470,562.7734" style="stroke:#181818;stroke-width:1.0;"/><line style="stroke:#181818;stroke-width:1.0;" x1="630" x2="1472" y1="562.7734" y2="562.7734"/><text fill="#000000" font-family="sans-serif" font-size="13" font-weight="bold" lengthAdjust="spacing" textLength="14" x="637" y="557.5107">11</text><text fill="#000000" font-family="sans-serif" font-size="13" lengthAdjust="spacing" textLength="75" x="655" y="557.5107">getInstance()</text><polygon fill="#181818" points="641,590.0645,631,594.0645,641,598.0645,637,594.0645" style="stroke:#181818;stroke-width:1.0;"/><line style="stroke:#181818;stroke-width:1.0;stroke-dasharray:2.0,2.0;" x1="635" x2="1482" y1="594.0645" y2="594.0645"/><text fill="#000000" font-family="sans-serif" font-size="13" font-weight="bold" lengthAdjust="spacing" textLength="14" x="647" y="588.8018">12</text><text fill="#000000" font-family="sans-serif" font-size="13" lengthAdjust="spacing" textLength="67" x="665" y="588.8018">repositories</text><polygon fill="#181818" points="1573,621.3555,1583,625.3555,1573,629.3555,1577,625.3555" style="stroke:#181818;stroke-width:1.0;"/><line style="stroke:#181818;stroke-width:1.0;" x1="630" x2="1579" y1="625.3555" y2="625.3555"/><text fill="#000000" font-family="sans-serif" font-size="13" font-weight="bold" lengthAdjust="spacing" textLength="14" x="637" y="620.0928">13</text><text fill="#000000" font-family="sans-serif" font-size="13" lengthAdjust="spacing" textLength="70" x="655" y="620.0928">getAgenda()</text><polygon fill="#181818" points="641,652.6465,631,656.6465,641,660.6465,637,656.6465" style="stroke:#181818;stroke-width:1.0;"/><line style="stroke:#181818;stroke-width:1.0;stroke-dasharray:2.0,2.0;" x1="635" x2="1589" y1="656.6465" y2="656.6465"/><text fill="#000000" font-family="sans-serif" font-size="13" font-weight="bold" lengthAdjust="spacing" textLength="14" x="647" y="651.3838">14</text><text fill="#000000" font-family="sans-serif" font-size="13" lengthAdjust="spacing" textLength="44" x="665" y="651.3838">Agenda</text><polygon fill="#181818" points="1699,683.9375,1709,687.9375,1699,691.9375,1703,687.9375" style="stroke:#181818;stroke-width:1.0;"/><line style="stroke:#181818;stroke-width:1.0;" x1="630" x2="1705" y1="687.9375" y2="687.9375"/><text fill="#000000" font-family="sans-serif" font-size="13" font-weight="bold" lengthAdjust="spacing" textLength="14" x="637" y="682.6748">15</text><text fill="#000000" font-family="sans-serif" font-size="13" lengthAdjust="spacing" textLength="297" x="655" y="682.6748">getAgendaEntriesByResponsible(responsibleEmail)</text><polygon fill="#181818" points="636,715.2285,626,719.2285,636,723.2285,632,719.2285" style="stroke:#181818;stroke-width:1.0;"/><line style="stroke:#181818;stroke-width:1.0;" x1="630" x2="1715" y1="719.2285" y2="719.2285"/><text fill="#000000" font-family="sans-serif" font-size="13" font-weight="bold" lengthAdjust="spacing" textLength="14" x="642" y="713.9658">16</text><text fill="#000000" font-family="sans-serif" font-size="13" lengthAdjust="spacing" textLength="83" x="660" y="713.9658">agendaEntries</text><polygon fill="#181818" points="359,746.5195,349,750.5195,359,754.5195,355,750.5195" style="stroke:#181818;stroke-width:1.0;"/><line style="stroke:#181818;stroke-width:1.0;" x1="353" x2="619" y1="750.5195" y2="750.5195"/><text fill="#000000" font-family="sans-serif" font-size="13" font-weight="bold" lengthAdjust="spacing" textLength="14" x="365" y="745.2568">17</text><text fill="#000000" font-family="sans-serif" font-size="13" lengthAdjust="spacing" textLength="83" x="383" y="745.2568">agendaEntries</text><polygon fill="#181818" points="96,777.8105,86,781.8105,96,785.8105,92,781.8105" style="stroke:#181818;stroke-width:1.0;"/><line style="stroke:#181818;stroke-width:1.0;" x1="90" x2="337" y1="781.8105" y2="781.8105"/><text fill="#000000" font-family="sans-serif" font-size="13" font-weight="bold" lengthAdjust="spacing" textLength="14" x="102" y="776.5479">18</text><text fill="#000000" font-family="sans-serif" font-size="13" lengthAdjust="spacing" textLength="161" x="120" y="776.5479">shows list of agenda entries</text><polygon fill="#181818" points="326,809.1016,336,813.1016,326,817.1016,330,813.1016" style="stroke:#181818;stroke-width:1.0;"/><line style="stroke:#181818;stroke-width:1.0;" x1="85" x2="332" y1="813.1016" y2="813.1016"/><text fill="#000000" font-family="sans-serif" font-size="13" font-weight="bold" lengthAdjust="spacing" textLength="14" x="92" y="807.8389">19</text><text fill="#000000" font-family="sans-serif" font-size="13" lengthAdjust="spacing" textLength="211" x="110" y="807.8389">selects an agenda entry from the list</text><polygon fill="#181818" points="608,840.3926,618,844.3926,608,848.3926,612,844.3926" style="stroke:#181818;stroke-width:1.0;"/><line style="stroke:#181818;stroke-width:1.0;" x1="348" x2="614" y1="844.3926" y2="844.3926"/><text fill="#000000" font-family="sans-serif" font-size="13" font-weight="bold" lengthAdjust="spacing" textLength="14" x="355" y="839.1299">20</text><text fill="#000000" font-family="sans-serif" font-size="13" lengthAdjust="spacing" textLength="127" x="373" y="839.1299">getAvailableVehicles()</text><polygon fill="#181818" points="1699,871.6836,1709,875.6836,1699,879.6836,1703,875.6836" style="stroke:#181818;stroke-width:1.0;"/><line style="stroke:#181818;stroke-width:1.0;" x1="630" x2="1705" y1="875.6836" y2="875.6836"/><text fill="#000000" font-family="sans-serif" font-size="13" font-weight="bold" lengthAdjust="spacing" textLength="14" x="637" y="870.4209">21</text><text fill="#000000" font-family="sans-serif" font-size="13" lengthAdjust="spacing" textLength="111" x="655" y="870.4209">getAgendaEntries()</text><polygon fill="#181818" points="636,902.9746,626,906.9746,636,910.9746,632,906.9746" style="stroke:#181818;stroke-width:1.0;"/><line style="stroke:#181818;stroke-width:1.0;" x1="630" x2="1715" y1="906.9746" y2="906.9746"/><text fill="#000000" font-family="sans-serif" font-size="13" font-weight="bold" lengthAdjust="spacing" textLength="14" x="642" y="901.7119">22</text><text fill="#000000" font-family="sans-serif" font-size="13" lengthAdjust="spacing" textLength="83" x="660" y="901.7119">agendaEntries</text><line style="stroke:#181818;stroke-width:1.0;" x1="625" x2="672" y1="958.2656" y2="958.2656"/><line style="stroke:#181818;stroke-width:1.0;" x1="672" x2="672" y1="958.2656" y2="971.2656"/><line style="stroke:#181818;stroke-width:1.0;" x1="631" x2="672" y1="971.2656" y2="971.2656"/><polygon fill="#181818" points="641,967.2656,631,971.2656,641,975.2656,637,971.2656" style="stroke:#181818;stroke-width:1.0;"/><text fill="#000000" font-family="sans-serif" font-size="13" font-weight="bold" lengthAdjust="spacing" textLength="14" x="637" y="953.0029">23</text><text fill="#000000" font-family="sans-serif" font-size="13" lengthAdjust="spacing" textLength="210" x="655" y="953.0029">getAvailableVehicles(agendaEntries)</text><polygon fill="#181818" points="1466,1003.5566,1476,1007.5566,1466,1011.5566,1470,1007.5566" style="stroke:#181818;stroke-width:1.0;"/><line style="stroke:#181818;stroke-width:1.0;" x1="630" x2="1472" y1="1007.5566" y2="1007.5566"/><text fill="#000000" font-family="sans-serif" font-size="13" font-weight="bold" lengthAdjust="spacing" textLength="14" x="637" y="1002.2939">24</text><text fill="#000000" font-family="sans-serif" font-size="13" lengthAdjust="spacing" textLength="75" x="655" y="1002.2939">getInstance()</text><polygon fill="#181818" points="641,1034.8477,631,1038.8477,641,1042.8477,637,1038.8477" style="stroke:#181818;stroke-width:1.0;"/><line style="stroke:#181818;stroke-width:1.0;stroke-dasharray:2.0,2.0;" x1="635" x2="1482" y1="1038.8477" y2="1038.8477"/><text fill="#000000" font-family="sans-serif" font-size="13" font-weight="bold" lengthAdjust="spacing" textLength="14" x="647" y="1033.585">25</text><text fill="#000000" font-family="sans-serif" font-size="13" lengthAdjust="spacing" textLength="67" x="665" y="1033.585">repositories</text><polygon fill="#181818" points="1573,1066.1387,1583,1070.1387,1573,1074.1387,1577,1070.1387" style="stroke:#181818;stroke-width:1.0;"/><line style="stroke:#181818;stroke-width:1.0;" x1="630" x2="1579" y1="1070.1387" y2="1070.1387"/><text fill="#000000" font-family="sans-serif" font-size="13" font-weight="bold" lengthAdjust="spacing" textLength="14" x="637" y="1064.876">26</text><text fill="#000000" font-family="sans-serif" font-size="13" lengthAdjust="spacing" textLength="131" x="655" y="1064.876">getVehicleRepository()</text><polygon fill="#181818" points="641,1097.4297,631,1101.4297,641,1105.4297,637,1101.4297" style="stroke:#181818;stroke-width:1.0;"/><line style="stroke:#181818;stroke-width:1.0;stroke-dasharray:2.0,2.0;" x1="635" x2="1589" y1="1101.4297" y2="1101.4297"/><text fill="#000000" font-family="sans-serif" font-size="13" font-weight="bold" lengthAdjust="spacing" textLength="14" x="647" y="1096.167">27</text><text fill="#000000" font-family="sans-serif" font-size="13" lengthAdjust="spacing" textLength="105" x="665" y="1096.167">VehicleRepository</text><polygon fill="#181818" points="1994.5,1128.7207,2004.5,1132.7207,1994.5,1136.7207,1998.5,1132.7207" style="stroke:#181818;stroke-width:1.0;"/><line style="stroke:#181818;stroke-width:1.0;" x1="630" x2="2000.5" y1="1132.7207" y2="1132.7207"/><text fill="#000000" font-family="sans-serif" font-size="13" font-weight="bold" lengthAdjust="spacing" textLength="14" x="637" y="1127.458">28</text><text fill="#000000" font-family="sans-serif" font-size="13" lengthAdjust="spacing" textLength="210" x="655" y="1127.458">getAvailableVehicles(agendaEntries)</text><polygon fill="#181818" points="636,1160.0117,626,1164.0117,636,1168.0117,632,1164.0117" style="stroke:#181818;stroke-width:1.0;"/><line style="stroke:#181818;stroke-width:1.0;" x1="630" x2="2010.5" y1="1164.0117" y2="1164.0117"/><text fill="#000000" font-family="sans-serif" font-size="13" font-weight="bold" lengthAdjust="spacing" textLength="14" x="642" y="1158.749">29</text><text fill="#000000" font-family="sans-serif" font-size="13" lengthAdjust="spacing" textLength="99" x="660" y="1158.749">availableVehicles</text><polygon fill="#181818" points="359,1191.3027,349,1195.3027,359,1199.3027,355,1195.3027" style="stroke:#181818;stroke-width:1.0;"/><line style="stroke:#181818;stroke-width:1.0;" x1="353" x2="619" y1="1195.3027" y2="1195.3027"/><text fill="#000000" font-family="sans-serif" font-size="13" font-weight="bold" lengthAdjust="spacing" textLength="14" x="365" y="1190.04">30</text><text fill="#000000" font-family="sans-serif" font-size="13" lengthAdjust="spacing" textLength="99" x="383" y="1190.04">availableVehicles</text><polygon fill="#181818" points="96,1222.5938,86,1226.5938,96,1230.5938,92,1226.5938" style="stroke:#181818;stroke-width:1.0;"/><line style="stroke:#181818;stroke-width:1.0;" x1="90" x2="337" y1="1226.5938" y2="1226.5938"/><text fill="#000000" font-family="sans-serif" font-size="13" font-weight="bold" lengthAdjust="spacing" textLength="14" x="102" y="1221.3311">31</text><text fill="#000000" font-family="sans-serif" font-size="13" lengthAdjust="spacing" textLength="175" x="120" y="1221.3311">shows list of available vehicles</text><polygon fill="#181818" points="326,1253.8848,336,1257.8848,326,1261.8848,330,1257.8848" style="stroke:#181818;stroke-width:1.0;"/><line style="stroke:#181818;stroke-width:1.0;" x1="85" x2="332" y1="1257.8848" y2="1257.8848"/><text fill="#000000" font-family="sans-serif" font-size="13" font-weight="bold" lengthAdjust="spacing" textLength="14" x="92" y="1252.6221">32</text><text fill="#000000" font-family="sans-serif" font-size="13" lengthAdjust="spacing" textLength="168" x="110" y="1252.6221">selects a vehicle from the list</text><polygon fill="#181818" points="96,1285.1758,86,1289.1758,96,1293.1758,92,1289.1758" style="stroke:#181818;stroke-width:1.0;"/><line style="stroke:#181818;stroke-width:1.0;stroke-dasharray:2.0,2.0;" x1="90" x2="342" y1="1289.1758" y2="1289.1758"/><text fill="#000000" font-family="sans-serif" font-size="13" font-weight="bold" lengthAdjust="spacing" textLength="14" x="102" y="1283.9131">33</text><text fill="#000000" font-family="sans-serif" font-size="13" lengthAdjust="spacing" textLength="169" x="120" y="1283.9131">shows the confirmation menu</text><polygon fill="#181818" points="326,1316.4668,336,1320.4668,326,1324.4668,330,1320.4668" style="stroke:#181818;stroke-width:1.0;"/><line style="stroke:#181818;stroke-width:1.0;" x1="85" x2="332" y1="1320.4668" y2="1320.4668"/><text fill="#000000" font-family="sans-serif" font-size="13" font-weight="bold" lengthAdjust="spacing" textLength="14" x="92" y="1315.2041">34</text><text fill="#000000" font-family="sans-serif" font-size="13" lengthAdjust="spacing" textLength="75" x="110" y="1315.2041">submits data</text><polygon fill="#181818" points="603,1347.7578,613,1351.7578,603,1355.7578,607,1351.7578" style="stroke:#181818;stroke-width:1.0;"/><line style="stroke:#181818;stroke-width:1.0;" x1="348" x2="609" y1="1351.7578" y2="1351.7578"/><text fill="#000000" font-family="sans-serif" font-size="13" font-weight="bold" lengthAdjust="spacing" textLength="14" x="355" y="1346.4951">35</text><text fill="#000000" font-family="sans-serif" font-size="13" lengthAdjust="spacing" textLength="230" x="373" y="1346.4951">assignVehicle(agendaTaskID, vehicleID)</text><polygon fill="#181818" points="1994.5,1379.0488,2004.5,1383.0488,1994.5,1387.0488,1998.5,1383.0488" style="stroke:#181818;stroke-width:1.0;"/><line style="stroke:#181818;stroke-width:1.0;" x1="625" x2="2000.5" y1="1383.0488" y2="1383.0488"/><text fill="#000000" font-family="sans-serif" font-size="13" font-weight="bold" lengthAdjust="spacing" textLength="14" x="632" y="1377.7861">36</text><text fill="#000000" font-family="sans-serif" font-size="13" lengthAdjust="spacing" textLength="148" x="650" y="1377.7861">getVehicleByID(vehicleID)</text><polygon fill="#181818" points="1699,1440.3398,1709,1444.3398,1699,1448.3398,1703,1444.3398" style="stroke:#181818;stroke-width:1.0;"/><line style="stroke:#181818;stroke-width:1.0;" x1="625" x2="1705" y1="1444.3398" y2="1444.3398"/><text fill="#000000" font-family="sans-serif" font-size="13" font-weight="bold" lengthAdjust="spacing" textLength="14" x="632" y="1439.0771">37</text><text fill="#000000" font-family="sans-serif" font-size="13" lengthAdjust="spacing" textLength="164" x="650" y="1439.0771">getTaskByID(agendaTaskID)</text><polygon fill="#181818" points="1699,1501.6309,1709,1505.6309,1699,1509.6309,1703,1505.6309" style="stroke:#181818;stroke-width:1.0;"/><line style="stroke:#181818;stroke-width:1.0;" x1="620" x2="1705" y1="1505.6309" y2="1505.6309"/><text fill="#000000" font-family="sans-serif" font-size="13" font-weight="bold" lengthAdjust="spacing" textLength="14" x="627" y="1500.3682">38</text><text fill="#000000" font-family="sans-serif" font-size="13" lengthAdjust="spacing" textLength="141" x="645" y="1500.3682">assignVehicle(task1, v1)</text><line style="stroke:#181818;stroke-width:1.0;" x1="1721" x2="1763" y1="1536.9219" y2="1536.9219"/><line style="stroke:#181818;stroke-width:1.0;" x1="1763" x2="1763" y1="1536.9219" y2="1549.9219"/><line style="stroke:#181818;stroke-width:1.0;" x1="1722" x2="1763" y1="1549.9219" y2="1549.9219"/><polygon fill="#181818" points="1732,1545.9219,1722,1549.9219,1732,1553.9219,1728,1549.9219" style="stroke:#181818;stroke-width:1.0;"/><text fill="#000000" font-family="sans-serif" font-size="13" font-weight="bold" lengthAdjust="spacing" textLength="14" x="1728" y="1531.6592">39</text><text fill="#000000" font-family="sans-serif" font-size="13" lengthAdjust="spacing" textLength="84" x="1746" y="1531.6592">addVehicle(v1)</text><polygon fill="#181818" points="636,1577.2129,626,1581.2129,636,1585.2129,632,1581.2129" style="stroke:#181818;stroke-width:1.0;"/><line style="stroke:#181818;stroke-width:1.0;stroke-dasharray:2.0,2.0;" x1="630" x2="1715" y1="1581.2129" y2="1581.2129"/><text fill="#000000" font-family="sans-serif" font-size="13" font-weight="bold" lengthAdjust="spacing" textLength="14" x="642" y="1575.9502">40</text><text fill="#000000" font-family="sans-serif" font-size="13" lengthAdjust="spacing" textLength="49" x="660" y="1575.9502">success</text><polygon fill="#181818" points="359,1608.5039,349,1612.5039,359,1616.5039,355,1612.5039" style="stroke:#181818;stroke-width:1.0;"/><line style="stroke:#181818;stroke-width:1.0;stroke-dasharray:2.0,2.0;" x1="353" x2="619" y1="1612.5039" y2="1612.5039"/><text fill="#000000" font-family="sans-serif" font-size="13" font-weight="bold" lengthAdjust="spacing" textLength="14" x="365" y="1607.2412">41</text><text fill="#000000" font-family="sans-serif" font-size="13" lengthAdjust="spacing" textLength="49" x="383" y="1607.2412">success</text><polygon fill="#181818" points="96,1639.7949,86,1643.7949,96,1647.7949,92,1643.7949" style="stroke:#181818;stroke-width:1.0;"/><line style="stroke:#181818;stroke-width:1.0;stroke-dasharray:2.0,2.0;" x1="90" x2="342" y1="1643.7949" y2="1643.7949"/><text fill="#000000" font-family="sans-serif" font-size="13" font-weight="bold" lengthAdjust="spacing" textLength="14" x="102" y="1638.5322">42</text><text fill="#000000" font-family="sans-serif" font-size="13" lengthAdjust="spacing" textLength="165" x="120" y="1638.5322">shows operation (in)success</text><!--SRC=[hLZTQzim47_FNo7wb8xreQzb3BmcR8PkBN4w60o6wbnJKLlo92KZq3z-P_bJiXmvRVMIHBxxtUzEzs55FJDUK4bpaWikqYSfSY1Qxc2csYS5JP_f5X9zo818I3Nbswmle9xeHlnZV4iUQQPWDjDCe-XzJ1BukmEU0bamkYr5vqcoE2SN9CeqI4ursmEvvQX2TrhmNVu04h-dMaXozbK2S9AWUI3VAKSAyenGHPPvaOa3m0ojQvQoWd9DpgxMOY5kcDBtiP6wZqUUNmkkfSYo6krwlRfn9AEYo5YAv0HFG2dyC99_ehixMv8MHItmcuzf3PJIdPJ0TQTuhq3sDP9baaItjf84LGYks4C6ovoo3DKIBJ7aLKI-Hx7hn0eAeHW6ae4oGkt68M7b0MAyNHkT1k8F0EvkehNZ_nRuXfQ-co-TXShphyiVYyYdiSGJg8oGyaG-HUtkuRDHpN2tshJLz_34qWmwGmZnqzqp23-Nt-Bhc-LgUNURnElRrI-7nnw3I36QjNR7fTxeUDGR3f7BphAHt5_Q0fggvyisCiOr8sVsPoR7sPvgwB9vHd0rlyZ5vx9-hb3bcMY17ufjEQ6aZe3PCs16hKN3h3SRg8i8PMv_-80egGHywZx21rlGKVz8lXnMNQRDpsrmKofcosXRA9FKtDN0b9LbK6AkiBka3OIxMaXJYcHabGyRSXZ0jaQz2XkmGOyJRNXUMpKSOcjmnzWQiYrRkpc468y2DtohLc8ebrt6j8uGsxhzc1MmtuW6n4m2-6HUNbwEyv-KfMvl3FWNJaTFfoGdfQUlrNerV9QwPEWtv52C9vjid2oxUJ-q8PzCz_UA6AIETTst0tp7uTfQC-FZ5QSVACPgAdc5QfDTubdZAbYDHv3TQZZkUjNvBTidebPDlfqcL_YE9lvLyuo8nngRW0i-63yACdpXKuJoliw1FEAB8j5FO11TixsgTSTiByl2xU64qfsSFFFpsJHRnqxp3VaodZT7XCi-EH5iUeYEdPBbHo1YfnpF55wlxRvJrkdjSifwOnUVibxJwKy9UZSD1g_Jxn7kyMu_PJa3Pi3mFQBwDePD60Ut3dBrzlgQ4k3XTUVLc4CVUltDzUGzGl-EtFq3qHwhNXUy7JGqH1kavbAcHkvmxH1jRs_E-BJcfyzaAPeA_iXaRlvW83dmdKkykViDxUyUSeRsDrJJq7NHN3dBksOTdZfLrtZJZ1SV6mVYXU-E5wY4NdVvSeWNyp6iaNm8Punl-9V4ZRM-7uv1QzIFlD0DiEqecMizXkUoQPQ-wuyNk7k7wA0tcmQt1BJ4kcDIkpJ5Q-Bi2Ecnu-aImmjXp_6nd1G5o2ePvuoVZq1XWlq7]--></g></svg>