<?xml version="1.0" encoding="us-ascii" standalone="no"?><svg xmlns="http://www.w3.org/2000/svg" xmlns:xlink="http://www.w3.org/1999/xlink" contentStyleType="text/css" height="813px" preserveAspectRatio="none" style="width:866px;height:813px;background:#FFFFFF;" version="1.1" viewBox="0 0 866 813" width="866px" zoomAndPan="magnify"><defs/><g><!--class AssignVehicleToTaskAgendaUI--><g id="elem_AssignVehicleToTaskAgendaUI"><rect codeLine="9" fill="#F1F1F1" height="48" id="AssignVehicleToTaskAgendaUI" rx="2.5" ry="2.5" style="stroke:#181818;stroke-width:0.5;" width="229" x="553" y="7"/><ellipse cx="568" cy="23" fill="#ADD1B2" rx="11" ry="11" style="stroke:#181818;stroke-width:1.0;"/><path d="M570.7656,18.875 Q570.9219,18.6563 571.1094,18.5469 Q571.2969,18.4375 571.5156,18.4375 Q571.8906,18.4375 572.125,18.7031 Q572.3594,18.9531 572.3594,19.5625 L572.3594,21.0156 Q572.3594,21.625 572.125,21.8906 Q571.8906,22.1563 571.5156,22.1563 Q571.1719,22.1563 570.9688,21.9531 Q570.7656,21.7656 570.6563,21.25 Q570.6094,20.8906 570.4219,20.7031 Q570.0938,20.3281 569.4844,20.1094 Q568.875,19.8906 568.25,19.8906 Q567.4844,19.8906 566.8438,20.2188 Q566.2188,20.5469 565.7188,21.2969 Q565.2344,22.0469 565.2344,23.0781 L565.2344,24.1719 Q565.2344,25.4063 566.125,26.2344 Q567.0156,27.0469 568.6094,27.0469 Q569.5469,27.0469 570.2031,26.7969 Q570.5938,26.6406 571.0156,26.2031 Q571.2813,25.9375 571.4219,25.8594 Q571.5781,25.7813 571.7813,25.7813 Q572.1094,25.7813 572.3594,26.0469 Q572.625,26.2969 572.625,26.6406 Q572.625,26.9844 572.2813,27.3906 Q571.7813,27.9688 570.9844,28.2969 Q569.9063,28.75 568.6094,28.75 Q567.0938,28.75 565.8906,28.125 Q564.9063,27.625 564.2188,26.5625 Q563.5313,25.4844 563.5313,24.2031 L563.5313,23.0469 Q563.5313,21.7188 564.1406,20.5781 Q564.7656,19.4219 565.8594,18.8125 Q566.9531,18.1875 568.1875,18.1875 Q568.9219,18.1875 569.5625,18.3594 Q570.2188,18.5156 570.7656,18.875 Z " fill="#000000"/><text fill="#000000" font-family="sans-serif" font-size="14" lengthAdjust="spacing" textLength="197" x="582" y="28.7969">AssignVehicleToTaskAgendaUI</text><line style="stroke:#181818;stroke-width:0.5;" x1="554" x2="781" y1="39" y2="39"/><line style="stroke:#181818;stroke-width:0.5;" x1="554" x2="781" y1="47" y2="47"/></g><!--class AgendaController--><g id="elem_AgendaController"><rect codeLine="12" fill="#F1F1F1" height="159.7266" id="AgendaController" rx="2.5" ry="2.5" style="stroke:#181818;stroke-width:0.5;" width="384" x="475.5" y="116"/><ellipse cx="607.75" cy="132" fill="#ADD1B2" rx="11" ry="11" style="stroke:#181818;stroke-width:1.0;"/><path d="M610.5156,127.875 Q610.6719,127.6563 610.8594,127.5469 Q611.0469,127.4375 611.2656,127.4375 Q611.6406,127.4375 611.875,127.7031 Q612.1094,127.9531 612.1094,128.5625 L612.1094,130.0156 Q612.1094,130.625 611.875,130.8906 Q611.6406,131.1563 611.2656,131.1563 Q610.9219,131.1563 610.7188,130.9531 Q610.5156,130.7656 610.4063,130.25 Q610.3594,129.8906 610.1719,129.7031 Q609.8438,129.3281 609.2344,129.1094 Q608.625,128.8906 608,128.8906 Q607.2344,128.8906 606.5938,129.2188 Q605.9688,129.5469 605.4688,130.2969 Q604.9844,131.0469 604.9844,132.0781 L604.9844,133.1719 Q604.9844,134.4063 605.875,135.2344 Q606.7656,136.0469 608.3594,136.0469 Q609.2969,136.0469 609.9531,135.7969 Q610.3438,135.6406 610.7656,135.2031 Q611.0313,134.9375 611.1719,134.8594 Q611.3281,134.7813 611.5313,134.7813 Q611.8594,134.7813 612.1094,135.0469 Q612.375,135.2969 612.375,135.6406 Q612.375,135.9844 612.0313,136.3906 Q611.5313,136.9688 610.7344,137.2969 Q609.6563,137.75 608.3594,137.75 Q606.8438,137.75 605.6406,137.125 Q604.6563,136.625 603.9688,135.5625 Q603.2813,134.4844 603.2813,133.2031 L603.2813,132.0469 Q603.2813,130.7188 603.8906,129.5781 Q604.5156,128.4219 605.6094,127.8125 Q606.7031,127.1875 607.9375,127.1875 Q608.6719,127.1875 609.3125,127.3594 Q609.9688,127.5156 610.5156,127.875 Z " fill="#000000"/><text fill="#000000" font-family="sans-serif" font-size="14" lengthAdjust="spacing" textLength="111" x="628.25" y="137.7969">AgendaController</text><line style="stroke:#181818;stroke-width:0.5;" x1="476.5" x2="858.5" y1="148" y2="148"/><text fill="#000000" font-family="sans-serif" font-size="14" lengthAdjust="spacing" textLength="242" x="481.5" y="167.1074">-AgendaRepository agendaRepository</text><text fill="#000000" font-family="sans-serif" font-size="14" lengthAdjust="spacing" textLength="235" x="481.5" y="185.7285">-VehicleRepository vehicleRepository</text><line style="stroke:#181818;stroke-width:0.5;" x1="476.5" x2="858.5" y1="193.2422" y2="193.2422"/><text fill="#000000" font-family="sans-serif" font-size="14" lengthAdjust="spacing" textLength="372" x="481.5" y="212.3496">+assignVehicle(AgendaEntry agendaTask, Vehicle vehicle)</text><text fill="#000000" font-family="sans-serif" font-size="14" lengthAdjust="spacing" textLength="157" x="481.5" y="230.9707">+String getResponsible()</text><text fill="#000000" font-family="sans-serif" font-size="14" lengthAdjust="spacing" textLength="338" x="481.5" y="249.5918">+List&lt;ToDoEntry&gt; getToDoEntryListForResponsible()</text><text fill="#000000" font-family="sans-serif" font-size="14" lengthAdjust="spacing" textLength="240" x="481.5" y="268.2129">+List &lt;Vehicle&gt; getAvailableVehicles()</text></g><!--class AgendaRepository--><g id="elem_AgendaRepository"><rect codeLine="22" fill="#F1F1F1" height="103.8633" id="AgendaRepository" rx="2.5" ry="2.5" style="stroke:#181818;stroke-width:0.5;" width="515" x="72" y="538"/><ellipse cx="266.75" cy="554" fill="#ADD1B2" rx="11" ry="11" style="stroke:#181818;stroke-width:1.0;"/><path d="M269.5156,549.875 Q269.6719,549.6563 269.8594,549.5469 Q270.0469,549.4375 270.2656,549.4375 Q270.6406,549.4375 270.875,549.7031 Q271.1094,549.9531 271.1094,550.5625 L271.1094,552.0156 Q271.1094,552.625 270.875,552.8906 Q270.6406,553.1563 270.2656,553.1563 Q269.9219,553.1563 269.7188,552.9531 Q269.5156,552.7656 269.4063,552.25 Q269.3594,551.8906 269.1719,551.7031 Q268.8438,551.3281 268.2344,551.1094 Q267.625,550.8906 267,550.8906 Q266.2344,550.8906 265.5938,551.2188 Q264.9688,551.5469 264.4688,552.2969 Q263.9844,553.0469 263.9844,554.0781 L263.9844,555.1719 Q263.9844,556.4063 264.875,557.2344 Q265.7656,558.0469 267.3594,558.0469 Q268.2969,558.0469 268.9531,557.7969 Q269.3438,557.6406 269.7656,557.2031 Q270.0313,556.9375 270.1719,556.8594 Q270.3281,556.7813 270.5313,556.7813 Q270.8594,556.7813 271.1094,557.0469 Q271.375,557.2969 271.375,557.6406 Q271.375,557.9844 271.0313,558.3906 Q270.5313,558.9688 269.7344,559.2969 Q268.6563,559.75 267.3594,559.75 Q265.8438,559.75 264.6406,559.125 Q263.6563,558.625 262.9688,557.5625 Q262.2813,556.4844 262.2813,555.2031 L262.2813,554.0469 Q262.2813,552.7188 262.8906,551.5781 Q263.5156,550.4219 264.6094,549.8125 Q265.7031,549.1875 266.9375,549.1875 Q267.6719,549.1875 268.3125,549.3594 Q268.9688,549.5156 269.5156,549.875 Z " fill="#000000"/><text fill="#000000" font-family="sans-serif" font-size="14" lengthAdjust="spacing" textLength="117" x="287.25" y="559.7969">AgendaRepository</text><line style="stroke:#181818;stroke-width:0.5;" x1="73" x2="586" y1="570" y2="570"/><text fill="#000000" font-family="sans-serif" font-size="14" lengthAdjust="spacing" textLength="177" x="78" y="589.1074">-List&lt;AgendaEntry&gt; agenda</text><line style="stroke:#181818;stroke-width:0.5;" x1="73" x2="586" y1="596.6211" y2="596.6211"/><text fill="#000000" font-family="sans-serif" font-size="14" lengthAdjust="spacing" textLength="503" x="78" y="615.7285">+List&lt;AgendaEntry&gt; getAgendaEntriesForResponsible(String responsibleEmail)</text><text fill="#000000" font-family="sans-serif" font-size="14" lengthAdjust="spacing" textLength="372" x="78" y="634.3496">+assignVehicle(AgendaEntry agendaTask, Vehicle vehicle)</text></g><!--class ToDoListRepository--><g id="elem_ToDoListRepository"><rect codeLine="29" fill="#F1F1F1" height="66.6211" id="ToDoListRepository" rx="2.5" ry="2.5" style="stroke:#181818;stroke-width:0.5;" width="179" x="7" y="730"/><ellipse cx="31.9" cy="746" fill="#ADD1B2" rx="11" ry="11" style="stroke:#181818;stroke-width:1.0;"/><path d="M34.6656,741.875 Q34.8219,741.6563 35.0094,741.5469 Q35.1969,741.4375 35.4156,741.4375 Q35.7906,741.4375 36.025,741.7031 Q36.2594,741.9531 36.2594,742.5625 L36.2594,744.0156 Q36.2594,744.625 36.025,744.8906 Q35.7906,745.1563 35.4156,745.1563 Q35.0719,745.1563 34.8688,744.9531 Q34.6656,744.7656 34.5563,744.25 Q34.5094,743.8906 34.3219,743.7031 Q33.9938,743.3281 33.3844,743.1094 Q32.775,742.8906 32.15,742.8906 Q31.3844,742.8906 30.7438,743.2188 Q30.1188,743.5469 29.6188,744.2969 Q29.1344,745.0469 29.1344,746.0781 L29.1344,747.1719 Q29.1344,748.4063 30.025,749.2344 Q30.9156,750.0469 32.5094,750.0469 Q33.4469,750.0469 34.1031,749.7969 Q34.4938,749.6406 34.9156,749.2031 Q35.1813,748.9375 35.3219,748.8594 Q35.4781,748.7813 35.6813,748.7813 Q36.0094,748.7813 36.2594,749.0469 Q36.525,749.2969 36.525,749.6406 Q36.525,749.9844 36.1813,750.3906 Q35.6813,750.9688 34.8844,751.2969 Q33.8063,751.75 32.5094,751.75 Q30.9938,751.75 29.7906,751.125 Q28.8063,750.625 28.1188,749.5625 Q27.4313,748.4844 27.4313,747.2031 L27.4313,746.0469 Q27.4313,744.7188 28.0406,743.5781 Q28.6656,742.4219 29.7594,741.8125 Q30.8531,741.1875 32.0875,741.1875 Q32.8219,741.1875 33.4625,741.3594 Q34.1188,741.5156 34.6656,741.875 Z " fill="#000000"/><text fill="#000000" font-family="sans-serif" font-size="14" lengthAdjust="spacing" textLength="125" x="48.1" y="751.7969">ToDoListRepository</text><line style="stroke:#181818;stroke-width:0.5;" x1="8" x2="185" y1="762" y2="762"/><text fill="#000000" font-family="sans-serif" font-size="14" lengthAdjust="spacing" textLength="167" x="13" y="781.1074">-List&lt;ToDoEntry&gt; toDoList</text><line style="stroke:#181818;stroke-width:0.5;" x1="8" x2="185" y1="788.6211" y2="788.6211"/></g><!--class VehicleRepository--><g id="elem_VehicleRepository"><rect codeLine="33" fill="#F1F1F1" height="85.2422" id="VehicleRepository" rx="2.5" ry="2.5" style="stroke:#181818;stroke-width:0.5;" width="206" x="537.5" y="721"/><ellipse cx="579.5" cy="737" fill="#ADD1B2" rx="11" ry="11" style="stroke:#181818;stroke-width:1.0;"/><path d="M582.2656,732.875 Q582.4219,732.6563 582.6094,732.5469 Q582.7969,732.4375 583.0156,732.4375 Q583.3906,732.4375 583.625,732.7031 Q583.8594,732.9531 583.8594,733.5625 L583.8594,735.0156 Q583.8594,735.625 583.625,735.8906 Q583.3906,736.1563 583.0156,736.1563 Q582.6719,736.1563 582.4688,735.9531 Q582.2656,735.7656 582.1563,735.25 Q582.1094,734.8906 581.9219,734.7031 Q581.5938,734.3281 580.9844,734.1094 Q580.375,733.8906 579.75,733.8906 Q578.9844,733.8906 578.3438,734.2188 Q577.7188,734.5469 577.2188,735.2969 Q576.7344,736.0469 576.7344,737.0781 L576.7344,738.1719 Q576.7344,739.4063 577.625,740.2344 Q578.5156,741.0469 580.1094,741.0469 Q581.0469,741.0469 581.7031,740.7969 Q582.0938,740.6406 582.5156,740.2031 Q582.7813,739.9375 582.9219,739.8594 Q583.0781,739.7813 583.2813,739.7813 Q583.6094,739.7813 583.8594,740.0469 Q584.125,740.2969 584.125,740.6406 Q584.125,740.9844 583.7813,741.3906 Q583.2813,741.9688 582.4844,742.2969 Q581.4063,742.75 580.1094,742.75 Q578.5938,742.75 577.3906,742.125 Q576.4063,741.625 575.7188,740.5625 Q575.0313,739.4844 575.0313,738.2031 L575.0313,737.0469 Q575.0313,735.7188 575.6406,734.5781 Q576.2656,733.4219 577.3594,732.8125 Q578.4531,732.1875 579.6875,732.1875 Q580.4219,732.1875 581.0625,732.3594 Q581.7188,732.5156 582.2656,732.875 Z " fill="#000000"/><text fill="#000000" font-family="sans-serif" font-size="14" lengthAdjust="spacing" textLength="114" x="599.5" y="742.7969">VehicleRepository</text><line style="stroke:#181818;stroke-width:0.5;" x1="538.5" x2="742.5" y1="753" y2="753"/><text fill="#000000" font-family="sans-serif" font-size="14" lengthAdjust="spacing" textLength="159" x="543.5" y="772.1074">-List&lt;Vehicle&gt; vehicleList</text><line style="stroke:#181818;stroke-width:0.5;" x1="538.5" x2="742.5" y1="779.6211" y2="779.6211"/><text fill="#000000" font-family="sans-serif" font-size="14" lengthAdjust="spacing" textLength="194" x="543.5" y="798.7285">+List&lt;Vehicle&gt; getListVehicle()</text></g><!--class Repositories--><g id="elem_Repositories"><rect codeLine="37" fill="#F1F1F1" height="103.8633" id="Repositories" rx="2.5" ry="2.5" style="stroke:#181818;stroke-width:0.5;" width="194" x="298.5" y="355"/><ellipse cx="351.75" cy="371" fill="#ADD1B2" rx="11" ry="11" style="stroke:#181818;stroke-width:1.0;"/><path d="M354.5156,366.875 Q354.6719,366.6563 354.8594,366.5469 Q355.0469,366.4375 355.2656,366.4375 Q355.6406,366.4375 355.875,366.7031 Q356.1094,366.9531 356.1094,367.5625 L356.1094,369.0156 Q356.1094,369.625 355.875,369.8906 Q355.6406,370.1563 355.2656,370.1563 Q354.9219,370.1563 354.7188,369.9531 Q354.5156,369.7656 354.4063,369.25 Q354.3594,368.8906 354.1719,368.7031 Q353.8438,368.3281 353.2344,368.1094 Q352.625,367.8906 352,367.8906 Q351.2344,367.8906 350.5938,368.2188 Q349.9688,368.5469 349.4688,369.2969 Q348.9844,370.0469 348.9844,371.0781 L348.9844,372.1719 Q348.9844,373.4063 349.875,374.2344 Q350.7656,375.0469 352.3594,375.0469 Q353.2969,375.0469 353.9531,374.7969 Q354.3438,374.6406 354.7656,374.2031 Q355.0313,373.9375 355.1719,373.8594 Q355.3281,373.7813 355.5313,373.7813 Q355.8594,373.7813 356.1094,374.0469 Q356.375,374.2969 356.375,374.6406 Q356.375,374.9844 356.0313,375.3906 Q355.5313,375.9688 354.7344,376.2969 Q353.6563,376.75 352.3594,376.75 Q350.8438,376.75 349.6406,376.125 Q348.6563,375.625 347.9688,374.5625 Q347.2813,373.4844 347.2813,372.2031 L347.2813,371.0469 Q347.2813,369.7188 347.8906,368.5781 Q348.5156,367.4219 349.6094,366.8125 Q350.7031,366.1875 351.9375,366.1875 Q352.6719,366.1875 353.3125,366.3594 Q353.9688,366.5156 354.5156,366.875 Z " fill="#000000"/><text fill="#000000" font-family="sans-serif" font-size="14" lengthAdjust="spacing" textLength="79" x="372.25" y="376.7969">Repositories</text><line style="stroke:#181818;stroke-width:0.5;" x1="299.5" x2="491.5" y1="387" y2="387"/><line style="stroke:#181818;stroke-width:0.5;" x1="299.5" x2="491.5" y1="395" y2="395"/><text fill="#000000" font-family="sans-serif" font-size="14" lengthAdjust="spacing" textLength="94" x="304.5" y="414.1074">-Repositories()</text><text fill="#000000" font-family="sans-serif" font-size="14" lengthAdjust="spacing" textLength="182" x="304.5" y="432.7285">+getInstance() : Repositories</text><text fill="#000000" font-family="sans-serif" font-size="14" lengthAdjust="spacing" textLength="131" x="304.5" y="451.3496">+getSkillRepository()</text></g><!--link AssignVehicleToTaskAgendaUI to AgendaController--><g id="link_AssignVehicleToTaskAgendaUI_AgendaController"><path codeLine="44" d="M667.5,55.01 C667.5,71.07 667.5,87.53 667.5,109.77 " fill="none" id="AssignVehicleToTaskAgendaUI-to-AgendaController" style="stroke:#181818;stroke-width:1.0;stroke-dasharray:7.0,7.0;"/><polygon fill="#181818" points="667.5,115.77,671.5,106.77,667.5,110.77,663.5,106.77,667.5,115.77" style="stroke:#181818;stroke-width:1.0;"/></g><!--link AgendaController to AgendaRepository--><g id="link_AgendaController_AgendaRepository"><path codeLine="45" d="M643.58,276.32 C620.33,353.43 588.5,459 588.5,459 C588.5,459 509.0424,498.8784 436.4824,535.2984 " fill="none" id="AgendaController-to-AgendaRepository" style="stroke:#181818;stroke-width:1.0;stroke-dasharray:7.0,7.0;"/><polygon fill="#181818" points="431.12,537.99,440.958,537.5276,435.5887,535.747,437.3693,530.3777,431.12,537.99" style="stroke:#181818;stroke-width:1.0;"/><text fill="#000000" font-family="sans-serif" font-size="13" lengthAdjust="spacing" textLength="104" x="620.5" y="412.5283">agendaRepository</text></g><!--link AgendaController to VehicleRepository--><g id="link_AgendaController_VehicleRepository"><path codeLine="46" d="M700.69,276.46 C717.13,315.81 733.5,355 733.5,355 C733.5,355 733.5,459 733.5,459 C733.5,459 680.4677,632.0732 654.9977,715.2032 " fill="none" id="AgendaController-to-VehicleRepository" style="stroke:#181818;stroke-width:1.0;stroke-dasharray:7.0,7.0;"/><polygon fill="#181818" points="653.24,720.94,659.701,713.5066,654.7047,716.1594,652.052,711.1631,653.24,720.94" style="stroke:#181818;stroke-width:1.0;"/><text fill="#000000" font-family="sans-serif" font-size="13" lengthAdjust="spacing" textLength="101" x="725.5" y="504.0283">vehicleRepository</text></g><!--link AgendaRepository to ToDoListRepository--><g id="link_AgendaRepository_ToDoListRepository"><path codeLine="47" d="M259.91,642.22 C221.29,670.65 179.2419,701.5929 145.6219,726.3429 " fill="none" id="AgendaRepository-to-ToDoListRepository" style="stroke:#181818;stroke-width:1.0;stroke-dasharray:7.0,7.0;"/><polygon fill="#181818" points="140.79,729.9,150.4092,727.7856,144.8166,726.9358,145.6664,721.3431,140.79,729.9" style="stroke:#181818;stroke-width:1.0;"/><text fill="#000000" font-family="sans-serif" font-size="13" lengthAdjust="spacing" textLength="110" x="214.5" y="687.0283">toDoListRepository</text></g><!--link AgendaRepository to VehicleRepository--><g id="link_AgendaRepository_VehicleRepository"><path codeLine="48" d="M422.39,642.22 C467.94,667.34 516.8457,694.3131 559.7957,717.9931 " fill="none" id="AgendaRepository-to-VehicleRepository" style="stroke:#181818;stroke-width:1.0;stroke-dasharray:7.0,7.0;"/><polygon fill="#181818" points="565.05,720.89,559.0998,713.0418,560.6714,718.4759,555.2372,720.0475,565.05,720.89" style="stroke:#181818;stroke-width:1.0;"/><text fill="#000000" font-family="sans-serif" font-size="13" lengthAdjust="spacing" textLength="101" x="505.5" y="687.0283">vehicleRepository</text></g><!--link Repositories to Repositories--><g id="link_Repositories_Repositories"><path codeLine="49" d="M492.78,390.72 C512.98,392.43 527.5,397.86 527.5,407 C527.5,416.14 518.9586,421.0639 498.7586,422.7739 " fill="none" id="Repositories-to-Repositories" style="stroke:#181818;stroke-width:1.0;"/><polygon fill="#181818" points="492.78,423.28,502.0853,426.5066,497.7622,422.8582,501.4105,418.5351,492.78,423.28" style="stroke:#181818;stroke-width:1.0;"/><text fill="#000000" font-family="sans-serif" font-size="13" lengthAdjust="spacing" textLength="49" x="533.5" y="412.5283">instance</text></g><!--link Repositories to VehicleRepository--><g id="link_Repositories_VehicleRepository"><path codeLine="50" d="M477.5,459.01 C536.06,495.43 604.5,538 604.5,538 C604.5,538 622.45,649.9557 632.86,714.8757 " fill="none" id="Repositories-to-VehicleRepository" style="stroke:#181818;stroke-width:1.0;"/><polygon fill="#181818" points="633.81,720.8,636.3346,711.2802,633.0184,715.8631,628.4355,712.5468,633.81,720.8" style="stroke:#181818;stroke-width:1.0;"/><text fill="#000000" font-family="sans-serif" font-size="13" lengthAdjust="spacing" textLength="7" x="620.8672" y="709.6722">1</text></g><!--link Repositories to ToDoListRepository--><g id="link_Repositories_ToDoListRepository"><path codeLine="51" d="M298.24,445.08 C197.45,483.5 54.5,538 54.5,538 C54.5,538 54.5,642 54.5,642 C54.5,642 70.7266,688.5338 83.1566,724.2238 " fill="none" id="Repositories-to-ToDoListRepository" style="stroke:#181818;stroke-width:1.0;"/><polygon fill="#181818" points="85.13,729.89,85.9474,720.0751,83.4855,725.1682,78.3924,722.7063,85.13,729.89" style="stroke:#181818;stroke-width:1.0;"/><text fill="#000000" font-family="sans-serif" font-size="13" lengthAdjust="spacing" textLength="7" x="70.8087" y="718.6939">1</text></g><!--link Repositories to AgendaRepository--><g id="link_Repositories_AgendaRepository"><path codeLine="52" d="M376.76,459.38 C367.81,483.94 359.1758,507.6232 350.2258,532.1632 " fill="none" id="Repositories-to-AgendaRepository" style="stroke:#181818;stroke-width:1.0;"/><polygon fill="#181818" points="348.17,537.8,355.0116,530.7153,349.8832,533.1027,347.4958,527.9742,348.17,537.8" style="stroke:#181818;stroke-width:1.0;"/><text fill="#000000" font-family="sans-serif" font-size="13" lengthAdjust="spacing" textLength="7" x="338.9397" y="526.7005">1</text></g><!--link AgendaController to Repositories--><g id="link_AgendaController_Repositories"><path codeLine="53" d="M564.67,276.01 C530.37,302.37 497.8278,327.3744 467.0078,351.0544 " fill="none" id="AgendaController-to-Repositories" style="stroke:#181818;stroke-width:1.0;stroke-dasharray:7.0,7.0;"/><polygon fill="#181818" points="462.25,354.71,471.8238,352.3985,466.2148,351.6637,466.9497,346.0548,462.25,354.71" style="stroke:#181818;stroke-width:1.0;"/><text fill="#000000" font-family="sans-serif" font-size="13" lengthAdjust="spacing" textLength="72" x="524.5" y="321.0283">Repositories</text></g><!--SRC=[fLF1Rjim3BthAuXUic9BqLsD8e2nTK20dffiTzLXRIAAQ4XgXwpOlqzoP5csawt0V1Fv7X_vQ2xiddGhZJp0WJLNZU43WZClA8PCAwkzh77ZZWh1OEMahbKEi8tSyK_IDJnBPVEC8etks2Aqh8xX8HPdacnSmnchKjBQqZb3JoyErnNh3Vr2k1KBXSyE78EXkd6mez0DiHQYeq1fBTNw1pPKATpoLjfzMQFUoU_hD_4xeRhG5zREi59eu4s0_vOnyOWjMt9iZY0dWOYB0XdmTHeH7VGZoBoZ3oU1Uo_SrmujVkeBzcMk8tdZ7V2crkWUqRQiBJtv8dtsWQoxs_9Nxkgj0YozGkuRcqiqk8kA7QjybQIanyIWzTY9MTcelLcTV3RGAauaylP6-I2LteHsqc2SrWoX-uDlxFh_d4o316z2JvT6oPnq4JgGvniVSPERKROZPpRaReT0FqLexoIGAdjVKkqycFRdIworzJTOUJuK8z00sUn9gQ7TqqR5N-u3RcvMiyiGirCPK9aNnVnGpXBdBXPdBcTMFb3FRAz8U_eN-NswenKiL-EL543Hz34EbXvvzHckvYANWFDHBY7BTxawwNFqF_m1]--></g></svg>