<?xml version="1.0" encoding="us-ascii" standalone="no"?><svg xmlns="http://www.w3.org/2000/svg" xmlns:xlink="http://www.w3.org/1999/xlink" contentStyleType="text/css" height="414px" preserveAspectRatio="none" style="width:475px;height:414px;background:#FFFFFF;" version="1.1" viewBox="0 0 475 414" width="475px" zoomAndPan="magnify"><defs/><g><text fill="#000000" font-family="sans-serif" font-size="14" font-weight="bold" lengthAdjust="spacing" textLength="351" x="61.25" y="30.1074">System Sequence Diagram (SSD) - Alternative One</text><rect fill="#FFFFFF" height="179.7461" style="stroke:#181818;stroke-width:1.0;" width="10" x="17.5" y="133.2422"/><rect fill="#FFFFFF" height="31.291" style="stroke:#181818;stroke-width:1.0;" width="10" x="432.5" y="156.5332"/><rect fill="#FFFFFF" height="31.291" style="stroke:#181818;stroke-width:1.0;" width="10" x="432.5" y="219.1152"/><rect fill="#FFFFFF" height="31.291" style="stroke:#181818;stroke-width:1.0;" width="10" x="432.5" y="281.6973"/><line style="stroke:#181818;stroke-width:0.5;stroke-dasharray:5.0,5.0;" x1="22" x2="22" y1="123.2422" y2="330.9883"/><line style="stroke:#181818;stroke-width:0.5;stroke-dasharray:5.0,5.0;" x1="437.5" x2="437.5" y1="123.2422" y2="330.9883"/><text fill="#000000" font-family="sans-serif" font-size="14" lengthAdjust="spacing" textLength="29" x="5" y="119.7285">User</text><ellipse cx="22.5" cy="53.1211" fill="#E3E3E3" rx="8" ry="8" style="stroke:#181818;stroke-width:0.5;"/><path d="M22.5,61.1211 L22.5,88.1211 M9.5,69.1211 L35.5,69.1211 M22.5,88.1211 L9.5,103.1211 M22.5,88.1211 L35.5,103.1211 " fill="none" style="stroke:#181818;stroke-width:0.5;"/><text fill="#000000" font-family="sans-serif" font-size="14" lengthAdjust="spacing" textLength="29" x="5" y="345.0957">User</text><ellipse cx="22.5" cy="357.1094" fill="#E3E3E3" rx="8" ry="8" style="stroke:#181818;stroke-width:0.5;"/><path d="M22.5,365.1094 L22.5,392.1094 M9.5,373.1094 L35.5,373.1094 M22.5,392.1094 L9.5,407.1094 M22.5,392.1094 L35.5,407.1094 " fill="none" style="stroke:#181818;stroke-width:0.5;"/><rect fill="#E3E3E3" height="32.6211" rx="2.5" ry="2.5" style="stroke:#181818;stroke-width:0.5;" width="64" x="405.5" y="89.6211"/><text fill="#000000" font-family="sans-serif" font-size="14" lengthAdjust="spacing" textLength="50" x="412.5" y="111.7285">:System</text><rect fill="#E3E3E3" height="32.6211" rx="2.5" ry="2.5" style="stroke:#181818;stroke-width:0.5;" width="64" x="405.5" y="329.9883"/><text fill="#000000" font-family="sans-serif" font-size="14" lengthAdjust="spacing" textLength="50" x="412.5" y="352.0957">:System</text><rect fill="#FFFFFF" height="179.7461" style="stroke:#181818;stroke-width:1.0;" width="10" x="17.5" y="133.2422"/><rect fill="#FFFFFF" height="31.291" style="stroke:#181818;stroke-width:1.0;" width="10" x="432.5" y="156.5332"/><rect fill="#FFFFFF" height="31.291" style="stroke:#181818;stroke-width:1.0;" width="10" x="432.5" y="219.1152"/><rect fill="#FFFFFF" height="31.291" style="stroke:#181818;stroke-width:1.0;" width="10" x="432.5" y="281.6973"/><polygon fill="#181818" points="420.5,152.5332,430.5,156.5332,420.5,160.5332,424.5,156.5332" style="stroke:#181818;stroke-width:1.0;"/><line style="stroke:#181818;stroke-width:1.0;stroke-dasharray:2.0,2.0;" x1="27.5" x2="426.5" y1="156.5332" y2="156.5332"/><text fill="#000000" font-family="sans-serif" font-size="13" font-weight="bold" lengthAdjust="spacing" textLength="7" x="34.5" y="151.2705">1</text><text fill="#000000" font-family="sans-serif" font-size="13" lengthAdjust="spacing" textLength="256" x="45.5" y="151.2705">Asks to respond the user park questionnaire</text><polygon fill="#181818" points="38.5,183.8242,28.5,187.8242,38.5,191.8242,34.5,187.8242" style="stroke:#181818;stroke-width:1.0;"/><line style="stroke:#181818;stroke-width:1.0;" x1="32.5" x2="436.5" y1="187.8242" y2="187.8242"/><text fill="#000000" font-family="sans-serif" font-size="13" font-weight="bold" lengthAdjust="spacing" textLength="7" x="44.5" y="182.5615">2</text><text fill="#000000" font-family="sans-serif" font-size="13" lengthAdjust="spacing" textLength="327" x="55.5" y="182.5615">Request data (Age, Recommendation, Visits Frequency)</text><polygon fill="#181818" points="420.5,215.1152,430.5,219.1152,420.5,223.1152,424.5,219.1152" style="stroke:#181818;stroke-width:1.0;"/><line style="stroke:#181818;stroke-width:1.0;" x1="27.5" x2="426.5" y1="219.1152" y2="219.1152"/><text fill="#000000" font-family="sans-serif" font-size="13" font-weight="bold" lengthAdjust="spacing" textLength="7" x="34.5" y="213.8525">3</text><text fill="#000000" font-family="sans-serif" font-size="13" lengthAdjust="spacing" textLength="375" x="45.5" y="213.8525">Types requested data (Age, Recommendation, Visits Frequency)</text><polygon fill="#181818" points="38.5,246.4063,28.5,250.4063,38.5,254.4063,34.5,250.4063" style="stroke:#181818;stroke-width:1.0;"/><line style="stroke:#181818;stroke-width:1.0;stroke-dasharray:2.0,2.0;" x1="32.5" x2="436.5" y1="250.4063" y2="250.4063"/><text fill="#000000" font-family="sans-serif" font-size="13" font-weight="bold" lengthAdjust="spacing" textLength="7" x="44.5" y="245.1436">4</text><text fill="#000000" font-family="sans-serif" font-size="13" lengthAdjust="spacing" textLength="261" x="55.5" y="245.1436">Shows entered data and request confirmation</text><polygon fill="#181818" points="420.5,277.6973,430.5,281.6973,420.5,285.6973,424.5,281.6973" style="stroke:#181818;stroke-width:1.0;"/><line style="stroke:#181818;stroke-width:1.0;" x1="27.5" x2="426.5" y1="281.6973" y2="281.6973"/><text fill="#000000" font-family="sans-serif" font-size="13" font-weight="bold" lengthAdjust="spacing" textLength="7" x="34.5" y="276.4346">5</text><text fill="#000000" font-family="sans-serif" font-size="13" lengthAdjust="spacing" textLength="141" x="45.5" y="276.4346">Confirms submitted data</text><polygon fill="#181818" points="33.5,308.9883,23.5,312.9883,33.5,316.9883,29.5,312.9883" style="stroke:#181818;stroke-width:1.0;"/><line style="stroke:#181818;stroke-width:1.0;stroke-dasharray:2.0,2.0;" x1="27.5" x2="436.5" y1="312.9883" y2="312.9883"/><text fill="#000000" font-family="sans-serif" font-size="13" font-weight="bold" lengthAdjust="spacing" textLength="7" x="39.5" y="307.7256">6</text><text fill="#000000" font-family="sans-serif" font-size="13" lengthAdjust="spacing" textLength="149" x="50.5" y="307.7256">Shows operation success</text><!--SRC=[dP7BJiD034Nt-GghgrPgVw0Bf8gABH81zkx4JKRDUCBOQPM_ntcqb28Ga9NZnps-7ZbuRZ1XW10vkYh5GA2ffKmkbGRT0KlAjQi94Zb5Bklh1gcmY2VF9Uon5ieozMgjUITA0N9wQuaTmTPZsRVFytoxW1LiQgN4gFv8yCWsXgr6RiEEaiLEOuBPYr2Q0GhqGMOuzSuto0gpzQW_LCSmos3wRDeVKMaSkwJxFrYjxgR-DMpa8A3HN4aJkG2j2Dg-oKW7iBr5VMH6d-YhzYrqyclo0sSDJpGeG86ACD-KjBIKYo4GMyg4b_3gnQl0GngFr2qkQWNTWZwxE9impdFNa40QQLJyZVTxNn_6yYgU18Zj_SuujEjD6u2BlFSf3CWV_7nlw7uK491s5xoUFVr_rTXG6jOnHUT8v1TdlghqMky0]--></g></svg>