<?xml version="1.0" encoding="us-ascii" standalone="no"?><svg xmlns="http://www.w3.org/2000/svg" xmlns:xlink="http://www.w3.org/1999/xlink" contentStyleType="text/css" height="946px" preserveAspectRatio="none" style="width:1357px;height:946px;background:#FFFFFF;" version="1.1" viewBox="0 0 1357 946" width="1357px" zoomAndPan="magnify"><defs/><g><rect fill="#FFFFFF" height="755.6758" style="stroke:#181818;stroke-width:1.0;" width="10" x="96.5" y="91.4883"/><rect fill="#FFFFFF" height="70.7988" style="stroke:#181818;stroke-width:1.0;" width="10" x="404.5" y="112.7988"/><rect fill="#FFFFFF" height="29.3105" style="stroke:#181818;stroke-width:1.0;" width="10" x="404.5" y="212.9082"/><rect fill="#FFFFFF" height="575.6348" style="stroke:#181818;stroke-width:1.0;" width="10" x="404.5" y="271.5293"/><rect fill="#FFFFFF" height="146.5527" style="stroke:#181818;stroke-width:1.0;" width="10" x="578.5" y="300.8398"/><rect fill="#FFFFFF" height="29.3105" style="stroke:#181818;stroke-width:1.0;" width="10" x="578.5" y="788.543"/><rect fill="#FFFFFF" height="29.3105" style="stroke:#181818;stroke-width:1.0;" width="10" x="723" y="330.1504"/><rect fill="#FFFFFF" height="29.3105" style="stroke:#181818;stroke-width:1.0;" width="10" x="836" y="388.7715"/><rect fill="#FFFFFF" height="341.1504" style="stroke:#181818;stroke-width:1.0;" width="10" x="954" y="447.3926"/><rect fill="#FFFFFF" height="124.9316" style="stroke:#181818;stroke-width:1.0;" width="10" x="959" y="627.3008"/><rect fill="#FFFFFF" height="40.3105" style="stroke:#181818;stroke-width:1.0;" width="10" x="964" y="669.6113"/><rect fill="#FFFFFF" height="138.5977" style="stroke:#181818;stroke-width:1.0;" width="10" x="1137" y="486.7031"/><rect fill="#FFFFFF" height="40.3105" style="stroke:#181818;stroke-width:1.0;" width="10" x="1142" y="542.6797"/><line style="stroke:#181818;stroke-width:0.5;stroke-dasharray:5.0,5.0;" x1="101" x2="101" y1="81.4883" y2="865.1641"/><line style="stroke:#181818;stroke-width:0.5;stroke-dasharray:5.0,5.0;" x1="409.5" x2="409.5" y1="81.4883" y2="865.1641"/><line style="stroke:#181818;stroke-width:0.5;stroke-dasharray:5.0,5.0;" x1="583.5" x2="583.5" y1="151.543" y2="865.1641"/><line style="stroke:#181818;stroke-width:0.5;stroke-dasharray:5.0,5.0;" x1="727.5" x2="727.5" y1="81.4883" y2="865.1641"/><line style="stroke:#181818;stroke-width:0.5;stroke-dasharray:5.0,5.0;" x1="840.5" x2="840.5" y1="81.4883" y2="865.1641"/><line style="stroke:#181818;stroke-width:0.5;stroke-dasharray:5.0,5.0;" x1="958.5" x2="958.5" y1="81.4883" y2="865.1641"/><line style="stroke:#181818;stroke-width:0.5;stroke-dasharray:5.0,5.0;" x1="1142" x2="1142" y1="494.3809" y2="865.1641"/><text fill="#000000" font-family="sans-serif" font-size="14" lengthAdjust="spacing" textLength="187" x="5" y="78.5352">Human Resources Manager</text><ellipse cx="101.5" cy="13.5" fill="#E3E3E3" rx="8" ry="8" style="stroke:#181818;stroke-width:0.5;"/><path d="M101.5,21.5 L101.5,48.5 M88.5,29.5 L114.5,29.5 M101.5,48.5 L88.5,63.5 M101.5,48.5 L114.5,63.5 " fill="none" style="stroke:#181818;stroke-width:0.5;"/><text fill="#000000" font-family="sans-serif" font-size="14" lengthAdjust="spacing" textLength="187" x="5" y="877.6992">Human Resources Manager</text><ellipse cx="101.5" cy="889.1523" fill="#E3E3E3" rx="8" ry="8" style="stroke:#181818;stroke-width:0.5;"/><path d="M101.5,897.1523 L101.5,924.1523 M88.5,905.1523 L114.5,905.1523 M101.5,924.1523 L88.5,939.1523 M101.5,924.1523 L114.5,939.1523 " fill="none" style="stroke:#181818;stroke-width:0.5;"/><rect fill="#E3E3E3" height="30.4883" rx="2.5" ry="2.5" style="stroke:#181818;stroke-width:0.5;" width="110" x="354.5" y="50"/><text fill="#000000" font-family="sans-serif" font-size="14" lengthAdjust="spacing" textLength="96" x="361.5" y="70.5352">:RegisterJobUI</text><rect fill="#E3E3E3" height="30.4883" rx="2.5" ry="2.5" style="stroke:#181818;stroke-width:0.5;" width="110" x="354.5" y="864.1641"/><text fill="#000000" font-family="sans-serif" font-size="14" lengthAdjust="spacing" textLength="96" x="361.5" y="884.6992">:RegisterJobUI</text><rect fill="#E3E3E3" height="30.4883" rx="2.5" ry="2.5" style="stroke:#181818;stroke-width:0.5;" width="166" x="500.5" y="864.1641"/><text fill="#000000" font-family="sans-serif" font-size="14" lengthAdjust="spacing" textLength="152" x="507.5" y="884.6992">:RegisterJobController</text><rect fill="#E3E3E3" height="30.4883" rx="2.5" ry="2.5" style="stroke:#181818;stroke-width:0.5;" width="103" x="676.5" y="50"/><text fill="#000000" font-family="sans-serif" font-size="14" lengthAdjust="spacing" textLength="89" x="683.5" y="70.5352">:Repositories</text><rect fill="#E3E3E3" height="30.4883" rx="2.5" ry="2.5" style="stroke:#181818;stroke-width:0.5;" width="103" x="676.5" y="864.1641"/><text fill="#000000" font-family="sans-serif" font-size="14" lengthAdjust="spacing" textLength="89" x="683.5" y="884.6992">:Repositories</text><rect fill="#E3E3E3" height="46.9766" rx="2.5" ry="2.5" style="stroke:#181818;stroke-width:0.5;" width="103" x="789.5" y="33.5117"/><text fill="#000000" font-family="sans-serif" font-size="14" lengthAdjust="spacing" textLength="82" x="800" y="54.0469">repositories</text><text fill="#000000" font-family="sans-serif" font-size="14" lengthAdjust="spacing" textLength="89" x="796.5" y="70.5352">:Repositories</text><rect fill="#E3E3E3" height="46.9766" rx="2.5" ry="2.5" style="stroke:#181818;stroke-width:0.5;" width="103" x="789.5" y="864.1641"/><text fill="#000000" font-family="sans-serif" font-size="14" lengthAdjust="spacing" textLength="82" x="800" y="884.6992">repositories</text><text fill="#000000" font-family="sans-serif" font-size="14" lengthAdjust="spacing" textLength="89" x="796.5" y="901.1875">:Repositories</text><rect fill="#E3E3E3" height="46.9766" rx="2.5" ry="2.5" style="stroke:#181818;stroke-width:0.5;" width="113" x="902.5" y="33.5117"/><text fill="#000000" font-family="sans-serif" font-size="14" lengthAdjust="spacing" textLength="95" x="911.5" y="54.0469">jobRepository</text><text fill="#000000" font-family="sans-serif" font-size="14" lengthAdjust="spacing" textLength="99" x="909.5" y="70.5352">:JobRepository</text><rect fill="#E3E3E3" height="46.9766" rx="2.5" ry="2.5" style="stroke:#181818;stroke-width:0.5;" width="113" x="902.5" y="864.1641"/><text fill="#000000" font-family="sans-serif" font-size="14" lengthAdjust="spacing" textLength="95" x="911.5" y="884.6992">jobRepository</text><text fill="#000000" font-family="sans-serif" font-size="14" lengthAdjust="spacing" textLength="99" x="909.5" y="901.1875">:JobRepository</text><rect fill="#E3E3E3" height="46.9766" rx="2.5" ry="2.5" style="stroke:#181818;stroke-width:0.5;" width="40" x="1122" y="864.1641"/><text fill="#000000" font-family="sans-serif" font-size="14" lengthAdjust="spacing" textLength="22" x="1131" y="884.6992">job</text><text fill="#000000" font-family="sans-serif" font-size="14" lengthAdjust="spacing" textLength="26" x="1129" y="901.1875">:Job</text><rect fill="#FFFFFF" height="755.6758" style="stroke:#181818;stroke-width:1.0;" width="10" x="96.5" y="91.4883"/><rect fill="#FFFFFF" height="70.7988" style="stroke:#181818;stroke-width:1.0;" width="10" x="404.5" y="112.7988"/><rect fill="#FFFFFF" height="29.3105" style="stroke:#181818;stroke-width:1.0;" width="10" x="404.5" y="212.9082"/><rect fill="#FFFFFF" height="575.6348" style="stroke:#181818;stroke-width:1.0;" width="10" x="404.5" y="271.5293"/><rect fill="#FFFFFF" height="146.5527" style="stroke:#181818;stroke-width:1.0;" width="10" x="578.5" y="300.8398"/><rect fill="#FFFFFF" height="29.3105" style="stroke:#181818;stroke-width:1.0;" width="10" x="578.5" y="788.543"/><rect fill="#FFFFFF" height="29.3105" style="stroke:#181818;stroke-width:1.0;" width="10" x="723" y="330.1504"/><rect fill="#FFFFFF" height="29.3105" style="stroke:#181818;stroke-width:1.0;" width="10" x="836" y="388.7715"/><rect fill="#FFFFFF" height="341.1504" style="stroke:#181818;stroke-width:1.0;" width="10" x="954" y="447.3926"/><rect fill="#FFFFFF" height="124.9316" style="stroke:#181818;stroke-width:1.0;" width="10" x="959" y="627.3008"/><rect fill="#FFFFFF" height="40.3105" style="stroke:#181818;stroke-width:1.0;" width="10" x="964" y="669.6113"/><rect fill="#FFFFFF" height="138.5977" style="stroke:#181818;stroke-width:1.0;" width="10" x="1137" y="486.7031"/><rect fill="#FFFFFF" height="40.3105" style="stroke:#181818;stroke-width:1.0;" width="10" x="1142" y="542.6797"/><polygon fill="#181818" points="392.5,108.7988,402.5,112.7988,392.5,116.7988,396.5,112.7988" style="stroke:#181818;stroke-width:1.0;"/><line style="stroke:#181818;stroke-width:1.0;" x1="106.5" x2="398.5" y1="112.7988" y2="112.7988"/><text fill="#000000" font-family="sans-serif" font-size="13" font-weight="bold" lengthAdjust="spacing" textLength="9" x="113.5" y="108.0566">1</text><text fill="#000000" font-family="sans-serif" font-size="13" lengthAdjust="spacing" textLength="162" x="126.5" y="108.0566">asks to register a new job</text><polygon fill="#181818" points="488.5,138.1094,498.5,142.1094,488.5,146.1094,492.5,142.1094" style="stroke:#181818;stroke-width:1.0;"/><line style="stroke:#181818;stroke-width:1.0;" x1="414.5" x2="494.5" y1="142.1094" y2="142.1094"/><text fill="#000000" font-family="sans-serif" font-size="13" font-weight="bold" lengthAdjust="spacing" textLength="9" x="421.5" y="137.3672">2</text><text fill="#000000" font-family="sans-serif" font-size="13" lengthAdjust="spacing" textLength="38" x="434.5" y="137.3672">create</text><rect fill="#E3E3E3" height="30.4883" rx="2.5" ry="2.5" style="stroke:#181818;stroke-width:0.5;" width="166" x="500.5" y="120.7988"/><text fill="#000000" font-family="sans-serif" font-size="14" lengthAdjust="spacing" textLength="152" x="507.5" y="141.334">:RegisterJobController</text><polygon fill="#181818" points="117.5,179.5977,107.5,183.5977,117.5,187.5977,113.5,183.5977" style="stroke:#181818;stroke-width:1.0;"/><line style="stroke:#181818;stroke-width:1.0;stroke-dasharray:2.0,2.0;" x1="111.5" x2="408.5" y1="183.5977" y2="183.5977"/><text fill="#000000" font-family="sans-serif" font-size="13" font-weight="bold" lengthAdjust="spacing" textLength="9" x="123.5" y="178.8555">3</text><text fill="#000000" font-family="sans-serif" font-size="13" lengthAdjust="spacing" textLength="146" x="136.5" y="178.8555">request data (jobName)</text><polygon fill="#181818" points="392.5,208.9082,402.5,212.9082,392.5,216.9082,396.5,212.9082" style="stroke:#181818;stroke-width:1.0;"/><line style="stroke:#181818;stroke-width:1.0;" x1="106.5" x2="398.5" y1="212.9082" y2="212.9082"/><text fill="#000000" font-family="sans-serif" font-size="13" font-weight="bold" lengthAdjust="spacing" textLength="9" x="113.5" y="208.166">4</text><text fill="#000000" font-family="sans-serif" font-size="13" lengthAdjust="spacing" textLength="199" x="126.5" y="208.166">types requested data (jobName)</text><polygon fill="#181818" points="117.5,238.2188,107.5,242.2188,117.5,246.2188,113.5,242.2188" style="stroke:#181818;stroke-width:1.0;"/><line style="stroke:#181818;stroke-width:1.0;stroke-dasharray:2.0,2.0;" x1="111.5" x2="408.5" y1="242.2188" y2="242.2188"/><text fill="#000000" font-family="sans-serif" font-size="13" font-weight="bold" lengthAdjust="spacing" textLength="9" x="123.5" y="237.4766">5</text><text fill="#000000" font-family="sans-serif" font-size="13" lengthAdjust="spacing" textLength="261" x="136.5" y="237.4766">show all data registered  for confirmation</text><polygon fill="#181818" points="392.5,267.5293,402.5,271.5293,392.5,275.5293,396.5,271.5293" style="stroke:#181818;stroke-width:1.0;"/><line style="stroke:#181818;stroke-width:1.0;" x1="106.5" x2="398.5" y1="271.5293" y2="271.5293"/><text fill="#000000" font-family="sans-serif" font-size="13" font-weight="bold" lengthAdjust="spacing" textLength="9" x="113.5" y="266.7871">6</text><text fill="#000000" font-family="sans-serif" font-size="13" lengthAdjust="spacing" textLength="82" x="126.5" y="266.7871">submits data</text><polygon fill="#181818" points="566.5,296.8398,576.5,300.8398,566.5,304.8398,570.5,300.8398" style="stroke:#181818;stroke-width:1.0;"/><line style="stroke:#181818;stroke-width:1.0;" x1="414.5" x2="572.5" y1="300.8398" y2="300.8398"/><text fill="#000000" font-family="sans-serif" font-size="13" font-weight="bold" lengthAdjust="spacing" textLength="9" x="421.5" y="296.0977">7</text><text fill="#000000" font-family="sans-serif" font-size="13" lengthAdjust="spacing" textLength="132" x="434.5" y="296.0977">registerJob(jobName)</text><polygon fill="#181818" points="711,326.1504,721,330.1504,711,334.1504,715,330.1504" style="stroke:#181818;stroke-width:1.0;"/><line style="stroke:#181818;stroke-width:1.0;" x1="588.5" x2="717" y1="330.1504" y2="330.1504"/><text fill="#000000" font-family="sans-serif" font-size="13" font-weight="bold" lengthAdjust="spacing" textLength="9" x="595.5" y="325.4082">8</text><text fill="#000000" font-family="sans-serif" font-size="13" lengthAdjust="spacing" textLength="81" x="608.5" y="325.4082">getInstance()</text><polygon fill="#181818" points="599.5,355.4609,589.5,359.4609,599.5,363.4609,595.5,359.4609" style="stroke:#181818;stroke-width:1.0;"/><line style="stroke:#181818;stroke-width:1.0;stroke-dasharray:2.0,2.0;" x1="593.5" x2="727" y1="359.4609" y2="359.4609"/><text fill="#000000" font-family="sans-serif" font-size="13" font-weight="bold" lengthAdjust="spacing" textLength="9" x="605.5" y="354.7188">9</text><text fill="#000000" font-family="sans-serif" font-size="13" lengthAdjust="spacing" textLength="75" x="618.5" y="354.7188">repositories</text><polygon fill="#181818" points="824,384.7715,834,388.7715,824,392.7715,828,388.7715" style="stroke:#181818;stroke-width:1.0;"/><line style="stroke:#181818;stroke-width:1.0;" x1="588.5" x2="830" y1="388.7715" y2="388.7715"/><text fill="#000000" font-family="sans-serif" font-size="13" font-weight="bold" lengthAdjust="spacing" textLength="18" x="595.5" y="384.0293">10</text><text fill="#000000" font-family="sans-serif" font-size="13" lengthAdjust="spacing" textLength="115" x="617.5" y="384.0293">getJobRepository()</text><polygon fill="#181818" points="599.5,414.082,589.5,418.082,599.5,422.082,595.5,418.082" style="stroke:#181818;stroke-width:1.0;"/><line style="stroke:#181818;stroke-width:1.0;stroke-dasharray:2.0,2.0;" x1="593.5" x2="840" y1="418.082" y2="418.082"/><text fill="#000000" font-family="sans-serif" font-size="13" font-weight="bold" lengthAdjust="spacing" textLength="18" x="605.5" y="413.3398">11</text><text fill="#000000" font-family="sans-serif" font-size="13" lengthAdjust="spacing" textLength="87" x="627.5" y="413.3398">jobRepository</text><polygon fill="#181818" points="942,443.3926,952,447.3926,942,451.3926,946,447.3926" style="stroke:#181818;stroke-width:1.0;"/><line style="stroke:#181818;stroke-width:1.0;" x1="583.5" x2="948" y1="447.3926" y2="447.3926"/><text fill="#000000" font-family="sans-serif" font-size="13" font-weight="bold" lengthAdjust="spacing" textLength="18" x="590.5" y="442.6504">12</text><text fill="#000000" font-family="sans-serif" font-size="13" lengthAdjust="spacing" textLength="132" x="612.5" y="442.6504">registerJob(jobName)</text><polygon fill="#181818" points="1110,472.7031,1120,476.7031,1110,480.7031,1114,476.7031" style="stroke:#181818;stroke-width:1.0;"/><line style="stroke:#181818;stroke-width:1.0;" x1="964" x2="1116" y1="476.7031" y2="476.7031"/><text fill="#000000" font-family="sans-serif" font-size="13" font-weight="bold" lengthAdjust="spacing" textLength="18" x="971" y="471.9609">13</text><text fill="#000000" font-family="sans-serif" font-size="13" lengthAdjust="spacing" textLength="112" x="993" y="471.9609">register(jobName)</text><rect fill="#E3E3E3" height="46.9766" rx="2.5" ry="2.5" style="stroke:#181818;stroke-width:0.5;" width="40" x="1122" y="455.3926"/><text fill="#000000" font-family="sans-serif" font-size="14" lengthAdjust="spacing" textLength="22" x="1131" y="475.9277">job</text><text fill="#000000" font-family="sans-serif" font-size="14" lengthAdjust="spacing" textLength="26" x="1129" y="492.416">:Job</text><line style="stroke:#181818;stroke-width:1.0;" x1="1147" x2="1194" y1="529.6797" y2="529.6797"/><line style="stroke:#181818;stroke-width:1.0;" x1="1194" x2="1194" y1="529.6797" y2="542.6797"/><line style="stroke:#181818;stroke-width:1.0;" x1="1153" x2="1194" y1="542.6797" y2="542.6797"/><polygon fill="#181818" points="1163,538.6797,1153,542.6797,1163,546.6797,1159,542.6797" style="stroke:#181818;stroke-width:1.0;"/><text fill="#000000" font-family="sans-serif" font-size="13" font-weight="bold" lengthAdjust="spacing" textLength="18" x="1159" y="524.9375">14</text><text fill="#000000" font-family="sans-serif" font-size="13" lengthAdjust="spacing" textLength="169" x="1181" y="524.9375">validateJobName(jobName)</text><line style="stroke:#181818;stroke-width:1.0;stroke-dasharray:2.0,2.0;" x1="1152" x2="1194" y1="581.9902" y2="581.9902"/><line style="stroke:#181818;stroke-width:1.0;stroke-dasharray:2.0,2.0;" x1="1194" x2="1194" y1="581.9902" y2="594.9902"/><line style="stroke:#181818;stroke-width:1.0;stroke-dasharray:2.0,2.0;" x1="1147" x2="1194" y1="594.9902" y2="594.9902"/><polygon fill="#181818" points="1157,590.9902,1147,594.9902,1157,598.9902,1153,594.9902" style="stroke:#181818;stroke-width:1.0;"/><text fill="#000000" font-family="sans-serif" font-size="13" font-weight="bold" lengthAdjust="spacing" textLength="18" x="1159" y="577.248">15</text><text fill="#000000" font-family="sans-serif" font-size="13" lengthAdjust="spacing" textLength="4" x="1181" y="577.248">&#160;</text><line style="stroke:#181818;stroke-width:1.0;" x1="969" x2="1011" y1="619.3008" y2="619.3008"/><line style="stroke:#181818;stroke-width:1.0;" x1="1011" x2="1011" y1="619.3008" y2="632.3008"/><line style="stroke:#181818;stroke-width:1.0;" x1="970" x2="1011" y1="632.3008" y2="632.3008"/><polygon fill="#181818" points="980,628.3008,970,632.3008,980,636.3008,976,632.3008" style="stroke:#181818;stroke-width:1.0;"/><text fill="#000000" font-family="sans-serif" font-size="13" font-weight="bold" lengthAdjust="spacing" textLength="18" x="976" y="614.5586">16</text><text fill="#000000" font-family="sans-serif" font-size="13" lengthAdjust="spacing" textLength="71" x="998" y="614.5586">addJob(job)</text><line style="stroke:#181818;stroke-width:1.0;" x1="969" x2="1016" y1="656.6113" y2="656.6113"/><line style="stroke:#181818;stroke-width:1.0;" x1="1016" x2="1016" y1="656.6113" y2="669.6113"/><line style="stroke:#181818;stroke-width:1.0;" x1="975" x2="1016" y1="669.6113" y2="669.6113"/><polygon fill="#181818" points="985,665.6113,975,669.6113,985,673.6113,981,669.6113" style="stroke:#181818;stroke-width:1.0;"/><text fill="#000000" font-family="sans-serif" font-size="13" font-weight="bold" lengthAdjust="spacing" textLength="18" x="981" y="651.8691">17</text><text fill="#000000" font-family="sans-serif" font-size="13" lengthAdjust="spacing" textLength="97" x="1003" y="651.8691">validateJob(job)</text><line style="stroke:#181818;stroke-width:1.0;stroke-dasharray:2.0,2.0;" x1="974" x2="1016" y1="708.9219" y2="708.9219"/><line style="stroke:#181818;stroke-width:1.0;stroke-dasharray:2.0,2.0;" x1="1016" x2="1016" y1="708.9219" y2="721.9219"/><line style="stroke:#181818;stroke-width:1.0;stroke-dasharray:2.0,2.0;" x1="969" x2="1016" y1="721.9219" y2="721.9219"/><polygon fill="#181818" points="979,717.9219,969,721.9219,979,725.9219,975,721.9219" style="stroke:#181818;stroke-width:1.0;"/><text fill="#000000" font-family="sans-serif" font-size="13" font-weight="bold" lengthAdjust="spacing" textLength="18" x="981" y="704.1797">18</text><text fill="#000000" font-family="sans-serif" font-size="13" lengthAdjust="spacing" textLength="4" x="1003" y="704.1797">&#160;</text><line style="stroke:#181818;stroke-width:1.0;stroke-dasharray:2.0,2.0;" x1="969" x2="1011" y1="751.2324" y2="751.2324"/><line style="stroke:#181818;stroke-width:1.0;stroke-dasharray:2.0,2.0;" x1="1011" x2="1011" y1="751.2324" y2="764.2324"/><line style="stroke:#181818;stroke-width:1.0;stroke-dasharray:2.0,2.0;" x1="964" x2="1011" y1="764.2324" y2="764.2324"/><polygon fill="#181818" points="974,760.2324,964,764.2324,974,768.2324,970,764.2324" style="stroke:#181818;stroke-width:1.0;"/><text fill="#000000" font-family="sans-serif" font-size="13" font-weight="bold" lengthAdjust="spacing" textLength="18" x="976" y="746.4902">19</text><text fill="#000000" font-family="sans-serif" font-size="13" lengthAdjust="spacing" textLength="4" x="998" y="746.4902">&#160;</text><polygon fill="#181818" points="599.5,784.543,589.5,788.543,599.5,792.543,595.5,788.543" style="stroke:#181818;stroke-width:1.0;"/><line style="stroke:#181818;stroke-width:1.0;stroke-dasharray:2.0,2.0;" x1="593.5" x2="958" y1="788.543" y2="788.543"/><text fill="#000000" font-family="sans-serif" font-size="13" font-weight="bold" lengthAdjust="spacing" textLength="18" x="605.5" y="783.8008">20</text><text fill="#000000" font-family="sans-serif" font-size="13" lengthAdjust="spacing" textLength="20" x="627.5" y="783.8008">job</text><polygon fill="#181818" points="425.5,813.8535,415.5,817.8535,425.5,821.8535,421.5,817.8535" style="stroke:#181818;stroke-width:1.0;"/><line style="stroke:#181818;stroke-width:1.0;stroke-dasharray:2.0,2.0;" x1="419.5" x2="582.5" y1="817.8535" y2="817.8535"/><text fill="#000000" font-family="sans-serif" font-size="13" font-weight="bold" lengthAdjust="spacing" textLength="18" x="431.5" y="813.1113">21</text><text fill="#000000" font-family="sans-serif" font-size="13" lengthAdjust="spacing" textLength="20" x="453.5" y="813.1113">job</text><polygon fill="#181818" points="112.5,843.1641,102.5,847.1641,112.5,851.1641,108.5,847.1641" style="stroke:#181818;stroke-width:1.0;"/><line style="stroke:#181818;stroke-width:1.0;stroke-dasharray:2.0,2.0;" x1="106.5" x2="408.5" y1="847.1641" y2="847.1641"/><text fill="#000000" font-family="sans-serif" font-size="13" font-weight="bold" lengthAdjust="spacing" textLength="18" x="118.5" y="842.4219">22</text><text fill="#000000" font-family="sans-serif" font-size="13" lengthAdjust="spacing" textLength="239" x="140.5" y="842.4219">displays the success of the operation.</text><!--SRC=[lLRBRjim4BppAnQ-D36GVe0F1OeWQ6p4RU0ajrxMqjfcBP4gISNrttT5APAeH-p0HNcJE3ixd5q-x5wg30sca6gbevtHAO4pEGbRpsGOxN5BJ-wO41YA7AfjqWRO7SRw8DKMDfXO4W9pfrMUhia8yMadOuADrcwj_mYCd3OmkSzJLB0YgtCJaOKbAivW9e0MxbTBmRnEHZ93vM0oMz5MMaTceTSlSuzvcOz3RhLoHYT9HNVxl7heWJDj9GkHP3sc_d5yaiNQM7qOObeHFrMVuF7XwtCOyKkl6rOEMRI_VKo0w0MN8HvujtnStNtx8Ghpv2iwyXO9g0P_mCqNjWHcZDvRS9ghLDe128eEHIhH1DGqx6BzayEPf31hEcMYo10ZH2lg3SIe8kECS_pEoJg8qI5SSOhlcD9rZOyfo2EwKjqnuy9N91GFqOmAhJNOdJu09aaP_RPgPkE6Cn1fjP4cHIUvdYEwXboq-JgLpdhIOFtz5VNjyyxKpTZt9U3npHbCUGgc6cX9PjwIcolB6p2Ygn7AeLuEa4FCDvNuGdlJsa5OoxUJATuMKMoBKdNG_cFI_IuAfZn18oxSCYFg-YnjIG756QNgaFk2TUVhsL2VwAi808MSQczFfusKHiTuelf8W85HJRRekGQlc4ZkPrgKvEEB7Sm38wDErUHwpxrJTEzQrQaSnd5LjEj_bNAaZd3cEAMuLO9IzjdC5meR4DTLTpPNozfEj_zF9PUfw2ke3kxYdhme_OUAsJ_ycuFANqN3WawTHiq5EODOsYp18xy9TiJNMiHlBGjwupzrHiPVZP_5oENO-LEyElu2]--></g></svg>