<?xml version="1.0" encoding="us-ascii" standalone="no"?><svg xmlns="http://www.w3.org/2000/svg" xmlns:xlink="http://www.w3.org/1999/xlink" contentStyleType="text/css" height="575px" preserveAspectRatio="none" style="width:834px;height:575px;background:#FFFFFF;" version="1.1" viewBox="0 0 834 575" width="834px" zoomAndPan="magnify"><defs/><g><rect fill="#FFFFFF" height="385.1699" style="stroke:#181818;stroke-width:1.0;" width="10" x="96.5" y="91.4883"/><rect fill="#FFFFFF" height="29.3105" style="stroke:#181818;stroke-width:1.0;" width="10" x="415.5" y="112.7988"/><rect fill="#FFFFFF" height="29.3105" style="stroke:#181818;stroke-width:1.0;" width="10" x="415.5" y="171.4199"/><rect fill="#FFFFFF" height="246.6172" style="stroke:#181818;stroke-width:1.0;" width="10" x="415.5" y="230.041"/><rect fill="#FFFFFF" height="146.5078" style="stroke:#181818;stroke-width:1.0;" width="10" x="589.5" y="300.8398"/><rect fill="#FFFFFF" height="87.8867" style="stroke:#181818;stroke-width:1.0;" width="10" x="763.5" y="330.1504"/><line style="stroke:#181818;stroke-width:0.5;stroke-dasharray:5.0,5.0;" x1="101" x2="101" y1="81.4883" y2="494.6582"/><line style="stroke:#181818;stroke-width:0.5;stroke-dasharray:5.0,5.0;" x1="420.5" x2="420.5" y1="81.4883" y2="494.6582"/><line style="stroke:#181818;stroke-width:0.5;stroke-dasharray:5.0,5.0;" x1="594.5" x2="594.5" y1="268.7852" y2="494.6582"/><line style="stroke:#181818;stroke-width:0.5;stroke-dasharray:5.0,5.0;" x1="768" x2="768" y1="81.4883" y2="494.6582"/><text fill="#000000" font-family="sans-serif" font-size="14" lengthAdjust="spacing" textLength="187" x="5" y="78.5352">Human Resources Manager</text><ellipse cx="101.5" cy="13.5" fill="#E3E3E3" rx="8" ry="8" style="stroke:#181818;stroke-width:0.5;"/><path d="M101.5,21.5 L101.5,48.5 M88.5,29.5 L114.5,29.5 M101.5,48.5 L88.5,63.5 M101.5,48.5 L114.5,63.5 " fill="none" style="stroke:#181818;stroke-width:0.5;"/><text fill="#000000" font-family="sans-serif" font-size="14" lengthAdjust="spacing" textLength="187" x="5" y="507.1934">Human Resources Manager</text><ellipse cx="101.5" cy="518.6465" fill="#E3E3E3" rx="8" ry="8" style="stroke:#181818;stroke-width:0.5;"/><path d="M101.5,526.6465 L101.5,553.6465 M88.5,534.6465 L114.5,534.6465 M101.5,553.6465 L88.5,568.6465 M101.5,553.6465 L114.5,568.6465 " fill="none" style="stroke:#181818;stroke-width:0.5;"/><rect fill="#E3E3E3" height="30.4883" rx="2.5" ry="2.5" style="stroke:#181818;stroke-width:0.5;" width="110" x="365.5" y="50"/><text fill="#000000" font-family="sans-serif" font-size="14" lengthAdjust="spacing" textLength="96" x="372.5" y="70.5352">:RegisterJobUI</text><rect fill="#E3E3E3" height="30.4883" rx="2.5" ry="2.5" style="stroke:#181818;stroke-width:0.5;" width="110" x="365.5" y="493.6582"/><text fill="#000000" font-family="sans-serif" font-size="14" lengthAdjust="spacing" textLength="96" x="372.5" y="514.1934">:RegisterJobUI</text><rect fill="#E3E3E3" height="30.4883" rx="2.5" ry="2.5" style="stroke:#181818;stroke-width:0.5;" width="166" x="511.5" y="493.6582"/><text fill="#000000" font-family="sans-serif" font-size="14" lengthAdjust="spacing" textLength="152" x="518.5" y="514.1934">:RegisterJobController</text><rect fill="#E3E3E3" height="46.9766" rx="2.5" ry="2.5" style="stroke:#181818;stroke-width:0.5;" width="113" x="712" y="33.5117"/><text fill="#000000" font-family="sans-serif" font-size="14" lengthAdjust="spacing" textLength="95" x="721" y="54.0469">jobRepository</text><text fill="#000000" font-family="sans-serif" font-size="14" lengthAdjust="spacing" textLength="99" x="719" y="70.5352">:JobRepository</text><rect fill="#E3E3E3" height="46.9766" rx="2.5" ry="2.5" style="stroke:#181818;stroke-width:0.5;" width="113" x="712" y="493.6582"/><text fill="#000000" font-family="sans-serif" font-size="14" lengthAdjust="spacing" textLength="95" x="721" y="514.1934">jobRepository</text><text fill="#000000" font-family="sans-serif" font-size="14" lengthAdjust="spacing" textLength="99" x="719" y="530.6816">:JobRepository</text><rect fill="#FFFFFF" height="385.1699" style="stroke:#181818;stroke-width:1.0;" width="10" x="96.5" y="91.4883"/><rect fill="#FFFFFF" height="29.3105" style="stroke:#181818;stroke-width:1.0;" width="10" x="415.5" y="112.7988"/><rect fill="#FFFFFF" height="29.3105" style="stroke:#181818;stroke-width:1.0;" width="10" x="415.5" y="171.4199"/><rect fill="#FFFFFF" height="246.6172" style="stroke:#181818;stroke-width:1.0;" width="10" x="415.5" y="230.041"/><rect fill="#FFFFFF" height="146.5078" style="stroke:#181818;stroke-width:1.0;" width="10" x="589.5" y="300.8398"/><rect fill="#FFFFFF" height="87.8867" style="stroke:#181818;stroke-width:1.0;" width="10" x="763.5" y="330.1504"/><polygon fill="#181818" points="403.5,108.7988,413.5,112.7988,403.5,116.7988,407.5,112.7988" style="stroke:#181818;stroke-width:1.0;"/><line style="stroke:#181818;stroke-width:1.0;" x1="106.5" x2="409.5" y1="112.7988" y2="112.7988"/><text fill="#000000" font-family="sans-serif" font-size="13" font-weight="bold" lengthAdjust="spacing" textLength="9" x="113.5" y="108.0566">1</text><text fill="#000000" font-family="sans-serif" font-size="13" lengthAdjust="spacing" textLength="162" x="126.5" y="108.0566">asks to register a new job</text><polygon fill="#181818" points="117.5,138.1094,107.5,142.1094,117.5,146.1094,113.5,142.1094" style="stroke:#181818;stroke-width:1.0;"/><line style="stroke:#181818;stroke-width:1.0;stroke-dasharray:2.0,2.0;" x1="111.5" x2="419.5" y1="142.1094" y2="142.1094"/><text fill="#000000" font-family="sans-serif" font-size="13" font-weight="bold" lengthAdjust="spacing" textLength="9" x="123.5" y="137.3672">2</text><text fill="#000000" font-family="sans-serif" font-size="13" lengthAdjust="spacing" textLength="146" x="136.5" y="137.3672">request data (jobName)</text><polygon fill="#181818" points="403.5,167.4199,413.5,171.4199,403.5,175.4199,407.5,171.4199" style="stroke:#181818;stroke-width:1.0;"/><line style="stroke:#181818;stroke-width:1.0;" x1="106.5" x2="409.5" y1="171.4199" y2="171.4199"/><text fill="#000000" font-family="sans-serif" font-size="13" font-weight="bold" lengthAdjust="spacing" textLength="9" x="113.5" y="166.6777">3</text><text fill="#000000" font-family="sans-serif" font-size="13" lengthAdjust="spacing" textLength="199" x="126.5" y="166.6777">types requested data (jobName)</text><polygon fill="#181818" points="117.5,196.7305,107.5,200.7305,117.5,204.7305,113.5,200.7305" style="stroke:#181818;stroke-width:1.0;"/><line style="stroke:#181818;stroke-width:1.0;stroke-dasharray:2.0,2.0;" x1="111.5" x2="419.5" y1="200.7305" y2="200.7305"/><text fill="#000000" font-family="sans-serif" font-size="13" font-weight="bold" lengthAdjust="spacing" textLength="9" x="123.5" y="195.9883">4</text><text fill="#000000" font-family="sans-serif" font-size="13" lengthAdjust="spacing" textLength="261" x="136.5" y="195.9883">show all data registered  for confirmation</text><polygon fill="#181818" points="403.5,226.041,413.5,230.041,403.5,234.041,407.5,230.041" style="stroke:#181818;stroke-width:1.0;"/><line style="stroke:#181818;stroke-width:1.0;" x1="106.5" x2="409.5" y1="230.041" y2="230.041"/><text fill="#000000" font-family="sans-serif" font-size="13" font-weight="bold" lengthAdjust="spacing" textLength="9" x="113.5" y="225.2988">5</text><text fill="#000000" font-family="sans-serif" font-size="13" lengthAdjust="spacing" textLength="82" x="126.5" y="225.2988">submits data</text><polygon fill="#181818" points="499.5,255.3516,509.5,259.3516,499.5,263.3516,503.5,259.3516" style="stroke:#181818;stroke-width:1.0;"/><line style="stroke:#181818;stroke-width:1.0;" x1="425.5" x2="505.5" y1="259.3516" y2="259.3516"/><text fill="#000000" font-family="sans-serif" font-size="13" font-weight="bold" lengthAdjust="spacing" textLength="9" x="432.5" y="254.6094">6</text><text fill="#000000" font-family="sans-serif" font-size="13" lengthAdjust="spacing" textLength="38" x="445.5" y="254.6094">create</text><rect fill="#E3E3E3" height="30.4883" rx="2.5" ry="2.5" style="stroke:#181818;stroke-width:0.5;" width="166" x="511.5" y="238.041"/><text fill="#000000" font-family="sans-serif" font-size="14" lengthAdjust="spacing" textLength="152" x="518.5" y="258.5762">:RegisterJobController</text><polygon fill="#181818" points="577.5,296.8398,587.5,300.8398,577.5,304.8398,581.5,300.8398" style="stroke:#181818;stroke-width:1.0;"/><line style="stroke:#181818;stroke-width:1.0;" x1="425.5" x2="583.5" y1="300.8398" y2="300.8398"/><text fill="#000000" font-family="sans-serif" font-size="13" font-weight="bold" lengthAdjust="spacing" textLength="9" x="432.5" y="296.0977">7</text><text fill="#000000" font-family="sans-serif" font-size="13" lengthAdjust="spacing" textLength="132" x="445.5" y="296.0977">registerJob(jobName)</text><polygon fill="#181818" points="751.5,326.1504,761.5,330.1504,751.5,334.1504,755.5,330.1504" style="stroke:#181818;stroke-width:1.0;"/><line style="stroke:#181818;stroke-width:1.0;" x1="599.5" x2="757.5" y1="330.1504" y2="330.1504"/><text fill="#000000" font-family="sans-serif" font-size="13" font-weight="bold" lengthAdjust="spacing" textLength="9" x="606.5" y="325.4082">8</text><text fill="#000000" font-family="sans-serif" font-size="13" lengthAdjust="spacing" textLength="132" x="619.5" y="325.4082">registerJob(jobName)</text><rect fill="none" height="53.5762" style="stroke:#000000;stroke-width:1.5;" width="119" x="709" y="338.1504"/><path d="M709,338.1504 L773,338.1504 L773,345.1504 L763,355.1504 L709,355.1504 L709,338.1504 " fill="#EEEEEE" style="stroke:#000000;stroke-width:2.0;"/><text fill="#000000" font-family="sans-serif" font-size="13" font-weight="bold" lengthAdjust="spacing" textLength="19" x="722" y="352.7188">ref</text><text fill="#000000" font-family="sans-serif" font-size="12" lengthAdjust="spacing" textLength="70" x="733.5" y="370.752">Register Job</text><text fill="#000000" font-family="sans-serif" font-size="12" lengthAdjust="spacing" textLength="4" x="766.5" y="384.8848">&#160;</text><polygon fill="#181818" points="610.5,414.0371,600.5,418.0371,610.5,422.0371,606.5,418.0371" style="stroke:#181818;stroke-width:1.0;"/><line style="stroke:#181818;stroke-width:1.0;stroke-dasharray:2.0,2.0;" x1="604.5" x2="767.5" y1="418.0371" y2="418.0371"/><text fill="#000000" font-family="sans-serif" font-size="13" font-weight="bold" lengthAdjust="spacing" textLength="9" x="616.5" y="413.2949">9</text><text fill="#000000" font-family="sans-serif" font-size="13" lengthAdjust="spacing" textLength="20" x="629.5" y="413.2949">Job</text><polygon fill="#181818" points="436.5,443.3477,426.5,447.3477,436.5,451.3477,432.5,447.3477" style="stroke:#181818;stroke-width:1.0;"/><line style="stroke:#181818;stroke-width:1.0;stroke-dasharray:2.0,2.0;" x1="430.5" x2="593.5" y1="447.3477" y2="447.3477"/><text fill="#000000" font-family="sans-serif" font-size="13" font-weight="bold" lengthAdjust="spacing" textLength="18" x="442.5" y="442.6055">10</text><text fill="#000000" font-family="sans-serif" font-size="13" lengthAdjust="spacing" textLength="20" x="464.5" y="442.6055">job</text><polygon fill="#181818" points="112.5,472.6582,102.5,476.6582,112.5,480.6582,108.5,476.6582" style="stroke:#181818;stroke-width:1.0;"/><line style="stroke:#181818;stroke-width:1.0;stroke-dasharray:2.0,2.0;" x1="106.5" x2="419.5" y1="476.6582" y2="476.6582"/><text fill="#000000" font-family="sans-serif" font-size="13" font-weight="bold" lengthAdjust="spacing" textLength="18" x="118.5" y="471.916">11</text><text fill="#000000" font-family="sans-serif" font-size="13" lengthAdjust="spacing" textLength="263" x="140.5" y="471.916">displays the (un)success of the operation.</text><!--SRC=[ZPFFKkCm3CRlVWfDBmlCi0-G0nSkq5ds4E2s5yLH6cyJA-i_TFlsA4vRuf8ow1JRdtxvBCb-Q-o03dlesR9k7VS4mKLI_dGoeDxYXfx3lYDmf0FQJJSN-1PhtXcxWGOxJqfX36nZNv5JwaThQeA6ELJyNw4Ex63r47kqK9Bdw3HvU48hVt0hG0yFvPCIRZ3Q36W3h8gIDiO7SckkNX-JvlNnikIURN3STGVS_KlvAnV_vQgaWRqHA_i_jbZFroadKwZHj7d3GCcQ0WdvWDixiG65wBSU0ajb9Wk0O6atCYRjALjCgsbh3Ccz5SH8AYJtNoGVeCQ0S2Mflx6dwqbSKqvOs3kt5FQ35FK0fVeS-ydLeYVVyWwmwwRiu-s49irqeDasnlKO3DllMFAnwatm2VQrWRlKifiRITAEHB5mcafswdX-imoUkZ-h-XW98A2ionU0UUO9UpOWS1QE6k0t6OLS1mjn75nO7-Tb7cJhpviPD3NiK98HCHVEMlA5uQaSgKz5cjeBY5JA-Td7j1HG6pzqk9U7q19SHNljevQ7xO6RjCK3kJGhFvU6PROSdzWx]--></g></svg>