<?xml version="1.0" encoding="us-ascii" standalone="no"?><svg xmlns="http://www.w3.org/2000/svg" xmlns:xlink="http://www.w3.org/1999/xlink" contentStyleType="text/css" height="302px" preserveAspectRatio="none" style="width:494px;height:302px;background:#FFFFFF;" version="1.1" viewBox="0 0 494 302" width="494px" zoomAndPan="magnify"><defs/><g><rect fill="#FFFFFF" height="141.5527" style="stroke:#181818;stroke-width:1.0;" width="10" x="164" y="84.2871"/><rect fill="#FFFFFF" height="29.3105" style="stroke:#181818;stroke-width:1.0;" width="10" x="308.5" y="137.9082"/><rect fill="#FFFFFF" height="29.3105" style="stroke:#181818;stroke-width:1.0;" width="10" x="421.5" y="196.5293"/><rect fill="none" height="134.5527" style="stroke:#000000;stroke-width:1.5;" width="412" x="76" y="99.2871"/><line style="stroke:#181818;stroke-width:0.5;stroke-dasharray:5.0,5.0;" x1="169" x2="169" y1="52.9766" y2="250.8398"/><line style="stroke:#181818;stroke-width:0.5;stroke-dasharray:5.0,5.0;" x1="313" x2="313" y1="52.9766" y2="250.8398"/><line style="stroke:#181818;stroke-width:0.5;stroke-dasharray:5.0,5.0;" x1="426" x2="426" y1="52.9766" y2="250.8398"/><rect fill="#E3E3E3" height="30.4883" rx="2.5" ry="2.5" style="stroke:#181818;stroke-width:0.5;" width="166" x="86" y="21.4883"/><text fill="#000000" font-family="sans-serif" font-size="14" lengthAdjust="spacing" textLength="152" x="93" y="42.0234">:RegisterJobController</text><rect fill="#E3E3E3" height="30.4883" rx="2.5" ry="2.5" style="stroke:#181818;stroke-width:0.5;" width="166" x="86" y="249.8398"/><text fill="#000000" font-family="sans-serif" font-size="14" lengthAdjust="spacing" textLength="152" x="93" y="270.375">:RegisterJobController</text><rect fill="#E3E3E3" height="30.4883" rx="2.5" ry="2.5" style="stroke:#181818;stroke-width:0.5;" width="103" x="262" y="21.4883"/><text fill="#000000" font-family="sans-serif" font-size="14" lengthAdjust="spacing" textLength="89" x="269" y="42.0234">:Repositories</text><rect fill="#E3E3E3" height="30.4883" rx="2.5" ry="2.5" style="stroke:#181818;stroke-width:0.5;" width="103" x="262" y="249.8398"/><text fill="#000000" font-family="sans-serif" font-size="14" lengthAdjust="spacing" textLength="89" x="269" y="270.375">:Repositories</text><rect fill="#E3E3E3" height="46.9766" rx="2.5" ry="2.5" style="stroke:#181818;stroke-width:0.5;" width="103" x="375" y="5"/><text fill="#000000" font-family="sans-serif" font-size="14" lengthAdjust="spacing" textLength="82" x="385.5" y="25.5352">repositories</text><text fill="#000000" font-family="sans-serif" font-size="14" lengthAdjust="spacing" textLength="89" x="382" y="42.0234">:Repositories</text><rect fill="#E3E3E3" height="46.9766" rx="2.5" ry="2.5" style="stroke:#181818;stroke-width:0.5;" width="103" x="375" y="249.8398"/><text fill="#000000" font-family="sans-serif" font-size="14" lengthAdjust="spacing" textLength="82" x="385.5" y="270.375">repositories</text><text fill="#000000" font-family="sans-serif" font-size="14" lengthAdjust="spacing" textLength="89" x="382" y="286.8633">:Repositories</text><rect fill="#FFFFFF" height="141.5527" style="stroke:#181818;stroke-width:1.0;" width="10" x="164" y="84.2871"/><rect fill="#FFFFFF" height="29.3105" style="stroke:#181818;stroke-width:1.0;" width="10" x="308.5" y="137.9082"/><rect fill="#FFFFFF" height="29.3105" style="stroke:#181818;stroke-width:1.0;" width="10" x="421.5" y="196.5293"/><polygon fill="#181818" points="152,80.2871,162,84.2871,152,88.2871,156,84.2871" style="stroke:#181818;stroke-width:1.0;"/><line style="stroke:#181818;stroke-width:1.0;" x1="0" x2="158" y1="84.2871" y2="84.2871"/><text fill="#000000" font-family="sans-serif" font-size="13" font-weight="bold" lengthAdjust="spacing" textLength="9" x="7" y="79.5449">7</text><text fill="#000000" font-family="sans-serif" font-size="13" lengthAdjust="spacing" textLength="132" x="20" y="79.5449">registerJob(jobName)</text><path d="M76,99.2871 L246,99.2871 L246,106.5977 L236,116.5977 L76,116.5977 L76,99.2871 " fill="#EEEEEE" style="stroke:#000000;stroke-width:1.5;"/><rect fill="none" height="134.5527" style="stroke:#000000;stroke-width:1.5;" width="412" x="76" y="99.2871"/><text fill="#000000" font-family="sans-serif" font-size="13" font-weight="bold" lengthAdjust="spacing" textLength="125" x="91" y="112.8555">Get Job Repository</text><polygon fill="#181818" points="296.5,133.9082,306.5,137.9082,296.5,141.9082,300.5,137.9082" style="stroke:#181818;stroke-width:1.0;"/><line style="stroke:#181818;stroke-width:1.0;" x1="174" x2="302.5" y1="137.9082" y2="137.9082"/><text fill="#000000" font-family="sans-serif" font-size="13" font-weight="bold" lengthAdjust="spacing" textLength="21" x="181" y="133.166">7.1</text><text fill="#000000" font-family="sans-serif" font-size="13" lengthAdjust="spacing" textLength="81" x="206" y="133.166">getInstance()</text><polygon fill="#181818" points="185,163.2188,175,167.2188,185,171.2188,181,167.2188" style="stroke:#181818;stroke-width:1.0;"/><line style="stroke:#181818;stroke-width:1.0;stroke-dasharray:2.0,2.0;" x1="179" x2="312.5" y1="167.2188" y2="167.2188"/><text fill="#000000" font-family="sans-serif" font-size="13" font-weight="bold" lengthAdjust="spacing" textLength="21" x="191" y="162.4766">7.2</text><text fill="#000000" font-family="sans-serif" font-size="13" lengthAdjust="spacing" textLength="75" x="216" y="162.4766">repositories</text><polygon fill="#181818" points="409.5,192.5293,419.5,196.5293,409.5,200.5293,413.5,196.5293" style="stroke:#181818;stroke-width:1.0;"/><line style="stroke:#181818;stroke-width:1.0;" x1="174" x2="415.5" y1="196.5293" y2="196.5293"/><text fill="#000000" font-family="sans-serif" font-size="13" font-weight="bold" lengthAdjust="spacing" textLength="21" x="181" y="191.7871">7.3</text><text fill="#000000" font-family="sans-serif" font-size="13" lengthAdjust="spacing" textLength="115" x="206" y="191.7871">getJobRepository()</text><polygon fill="#181818" points="180,221.8398,170,225.8398,180,229.8398,176,225.8398" style="stroke:#181818;stroke-width:1.0;"/><line style="stroke:#181818;stroke-width:1.0;stroke-dasharray:2.0,2.0;" x1="174" x2="425.5" y1="225.8398" y2="225.8398"/><text fill="#000000" font-family="sans-serif" font-size="13" font-weight="bold" lengthAdjust="spacing" textLength="21" x="186" y="221.0977">7.4</text><text fill="#000000" font-family="sans-serif" font-size="13" lengthAdjust="spacing" textLength="87" x="211" y="221.0977">jobRepository</text><!--SRC=[ZL6zJiD03Dxz55ONsg58J4WTa5071AeGQZkoE8cRNfkSepi7wDjpJI2za5J2u_dxzVcZiHKvAh4KA-dUIScehcRmtQQYz4WvR_HKC3fEbMnUn02_fqm-ZSrnHuLd0AfLR5qcx01kzYPZt8be8by0WQ4cDHLPnSbYpRdnokv5agLOTL8Kx2P87fVRzMe0hiGR5MVODvZkuRGnvqZ1j4zn4UFT3WNULe_RE2tU0-3yeJ77HUZQfPiU97cbacSzzEqTKAhcWvJRm1WcTr9N-CIAWHTbX30OJMCIp4PQ1E-SzTdwSEgKfxCUhtCSgzz3ZYdFV-gTsrskqQDb_7-BtnBdIxQfG-aBwrhqzl3ngX6uX3l4AjVI3LN-Bg_ichzgcMmpWC7g6m00]--></g></svg>