<?xml version="1.0" encoding="us-ascii" standalone="no"?><svg xmlns="http://www.w3.org/2000/svg" xmlns:xlink="http://www.w3.org/1999/xlink" contentStyleType="text/css" height="526px" preserveAspectRatio="none" style="width:626px;height:526px;background:#FFFFFF;" version="1.1" viewBox="0 0 626 526" width="626px" zoomAndPan="magnify"><defs/><g><rect fill="#FFFFFF" height="372.4609" style="stroke:#181818;stroke-width:1.0;" width="10" x="185" y="84.2871"/><rect fill="#FFFFFF" height="124.9316" style="stroke:#181818;stroke-width:1.0;" width="10" x="190" y="288.5059"/><rect fill="#FFFFFF" height="40.3105" style="stroke:#181818;stroke-width:1.0;" width="10" x="195" y="330.8164"/><rect fill="#FFFFFF" height="138.5977" style="stroke:#181818;stroke-width:1.0;" width="10" x="383" y="147.9082"/><rect fill="#FFFFFF" height="40.3105" style="stroke:#181818;stroke-width:1.0;" width="10" x="388" y="203.8848"/><rect fill="none" height="329.1504" style="stroke:#000000;stroke-width:1.5;" width="499" x="121" y="99.2871"/><line style="stroke:#181818;stroke-width:0.5;stroke-dasharray:5.0,5.0;" x1="190" x2="190" y1="52.9766" y2="474.748"/><line style="stroke:#181818;stroke-width:0.5;stroke-dasharray:5.0,5.0;" x1="388" x2="388" y1="155.5859" y2="474.748"/><rect fill="#E3E3E3" height="46.9766" rx="2.5" ry="2.5" style="stroke:#181818;stroke-width:0.5;" width="118" x="131" y="5"/><text fill="#000000" font-family="sans-serif" font-size="14" lengthAdjust="spacing" textLength="100" x="140" y="25.5352">skillRepository</text><text fill="#000000" font-family="sans-serif" font-size="14" lengthAdjust="spacing" textLength="104" x="138" y="42.0234">:skillRepository</text><rect fill="#E3E3E3" height="46.9766" rx="2.5" ry="2.5" style="stroke:#181818;stroke-width:0.5;" width="118" x="131" y="473.748"/><text fill="#000000" font-family="sans-serif" font-size="14" lengthAdjust="spacing" textLength="100" x="140" y="494.2832">skillRepository</text><text fill="#000000" font-family="sans-serif" font-size="14" lengthAdjust="spacing" textLength="104" x="138" y="510.7715">:skillRepository</text><rect fill="#E3E3E3" height="46.9766" rx="2.5" ry="2.5" style="stroke:#181818;stroke-width:0.5;" width="46" x="365" y="473.748"/><text fill="#000000" font-family="sans-serif" font-size="14" lengthAdjust="spacing" textLength="27" x="374.5" y="494.2832">skill</text><text fill="#000000" font-family="sans-serif" font-size="14" lengthAdjust="spacing" textLength="32" x="372" y="510.7715">:Skill</text><rect fill="#FFFFFF" height="372.4609" style="stroke:#181818;stroke-width:1.0;" width="10" x="185" y="84.2871"/><rect fill="#FFFFFF" height="124.9316" style="stroke:#181818;stroke-width:1.0;" width="10" x="190" y="288.5059"/><rect fill="#FFFFFF" height="40.3105" style="stroke:#181818;stroke-width:1.0;" width="10" x="195" y="330.8164"/><rect fill="#FFFFFF" height="138.5977" style="stroke:#181818;stroke-width:1.0;" width="10" x="383" y="147.9082"/><rect fill="#FFFFFF" height="40.3105" style="stroke:#181818;stroke-width:1.0;" width="10" x="388" y="203.8848"/><polygon fill="#181818" points="173,80.2871,183,84.2871,173,88.2871,177,84.2871" style="stroke:#181818;stroke-width:1.0;"/><line style="stroke:#181818;stroke-width:1.0;" x1="0" x2="179" y1="84.2871" y2="84.2871"/><text fill="#000000" font-family="sans-serif" font-size="13" font-weight="bold" lengthAdjust="spacing" textLength="30" x="7" y="79.5449">16.1</text><text fill="#000000" font-family="sans-serif" font-size="13" lengthAdjust="spacing" textLength="132" x="41" y="79.5449">registerJob(jobName)</text><path d="M121,99.2871 L247,99.2871 L247,106.5977 L237,116.5977 L121,116.5977 L121,99.2871 " fill="#EEEEEE" style="stroke:#000000;stroke-width:1.5;"/><rect fill="none" height="329.1504" style="stroke:#000000;stroke-width:1.5;" width="499" x="121" y="99.2871"/><text fill="#000000" font-family="sans-serif" font-size="13" font-weight="bold" lengthAdjust="spacing" textLength="81" x="136" y="112.8555">Register job</text><polygon fill="#181818" points="353,133.9082,363,137.9082,353,141.9082,357,137.9082" style="stroke:#181818;stroke-width:1.0;"/><line style="stroke:#181818;stroke-width:1.0;" x1="195" x2="359" y1="137.9082" y2="137.9082"/><text fill="#000000" font-family="sans-serif" font-size="13" font-weight="bold" lengthAdjust="spacing" textLength="30" x="202" y="133.166">16.2</text><text fill="#000000" font-family="sans-serif" font-size="13" lengthAdjust="spacing" textLength="112" x="236" y="133.166">register(JobName)</text><rect fill="#E3E3E3" height="46.9766" rx="2.5" ry="2.5" style="stroke:#181818;stroke-width:0.5;" width="46" x="365" y="116.5977"/><text fill="#000000" font-family="sans-serif" font-size="14" lengthAdjust="spacing" textLength="27" x="374.5" y="137.1328">skill</text><text fill="#000000" font-family="sans-serif" font-size="14" lengthAdjust="spacing" textLength="32" x="372" y="153.6211">:Skill</text><line style="stroke:#181818;stroke-width:1.0;" x1="393" x2="440" y1="190.8848" y2="190.8848"/><line style="stroke:#181818;stroke-width:1.0;" x1="440" x2="440" y1="190.8848" y2="203.8848"/><line style="stroke:#181818;stroke-width:1.0;" x1="399" x2="440" y1="203.8848" y2="203.8848"/><polygon fill="#181818" points="409,199.8848,399,203.8848,409,207.8848,405,203.8848" style="stroke:#181818;stroke-width:1.0;"/><text fill="#000000" font-family="sans-serif" font-size="13" font-weight="bold" lengthAdjust="spacing" textLength="30" x="405" y="186.1426">16.3</text><text fill="#000000" font-family="sans-serif" font-size="13" lengthAdjust="spacing" textLength="169" x="439" y="186.1426">validateJobName(jobName)</text><line style="stroke:#181818;stroke-width:1.0;stroke-dasharray:2.0,2.0;" x1="398" x2="440" y1="243.1953" y2="243.1953"/><line style="stroke:#181818;stroke-width:1.0;stroke-dasharray:2.0,2.0;" x1="440" x2="440" y1="243.1953" y2="256.1953"/><line style="stroke:#181818;stroke-width:1.0;stroke-dasharray:2.0,2.0;" x1="393" x2="440" y1="256.1953" y2="256.1953"/><polygon fill="#181818" points="403,252.1953,393,256.1953,403,260.1953,399,256.1953" style="stroke:#181818;stroke-width:1.0;"/><text fill="#000000" font-family="sans-serif" font-size="13" font-weight="bold" lengthAdjust="spacing" textLength="30" x="405" y="238.4531">16.4</text><text fill="#000000" font-family="sans-serif" font-size="13" lengthAdjust="spacing" textLength="4" x="439" y="238.4531">&#160;</text><line style="stroke:#181818;stroke-width:1.0;" x1="200" x2="242" y1="280.5059" y2="280.5059"/><line style="stroke:#181818;stroke-width:1.0;" x1="242" x2="242" y1="280.5059" y2="293.5059"/><line style="stroke:#181818;stroke-width:1.0;" x1="201" x2="242" y1="293.5059" y2="293.5059"/><polygon fill="#181818" points="211,289.5059,201,293.5059,211,297.5059,207,293.5059" style="stroke:#181818;stroke-width:1.0;"/><text fill="#000000" font-family="sans-serif" font-size="13" font-weight="bold" lengthAdjust="spacing" textLength="30" x="207" y="275.7637">16.5</text><text fill="#000000" font-family="sans-serif" font-size="13" lengthAdjust="spacing" textLength="71" x="241" y="275.7637">addJob(job)</text><line style="stroke:#181818;stroke-width:1.0;" x1="200" x2="247" y1="317.8164" y2="317.8164"/><line style="stroke:#181818;stroke-width:1.0;" x1="247" x2="247" y1="317.8164" y2="330.8164"/><line style="stroke:#181818;stroke-width:1.0;" x1="206" x2="247" y1="330.8164" y2="330.8164"/><polygon fill="#181818" points="216,326.8164,206,330.8164,216,334.8164,212,330.8164" style="stroke:#181818;stroke-width:1.0;"/><text fill="#000000" font-family="sans-serif" font-size="13" font-weight="bold" lengthAdjust="spacing" textLength="30" x="212" y="313.0742">16.6</text><text fill="#000000" font-family="sans-serif" font-size="13" lengthAdjust="spacing" textLength="97" x="246" y="313.0742">validateJob(job)</text><line style="stroke:#181818;stroke-width:1.0;stroke-dasharray:2.0,2.0;" x1="205" x2="247" y1="370.127" y2="370.127"/><line style="stroke:#181818;stroke-width:1.0;stroke-dasharray:2.0,2.0;" x1="247" x2="247" y1="370.127" y2="383.127"/><line style="stroke:#181818;stroke-width:1.0;stroke-dasharray:2.0,2.0;" x1="200" x2="247" y1="383.127" y2="383.127"/><polygon fill="#181818" points="210,379.127,200,383.127,210,387.127,206,383.127" style="stroke:#181818;stroke-width:1.0;"/><text fill="#000000" font-family="sans-serif" font-size="13" font-weight="bold" lengthAdjust="spacing" textLength="30" x="212" y="365.3848">16.7</text><text fill="#000000" font-family="sans-serif" font-size="13" lengthAdjust="spacing" textLength="4" x="246" y="365.3848">&#160;</text><line style="stroke:#181818;stroke-width:1.0;stroke-dasharray:2.0,2.0;" x1="200" x2="242" y1="412.4375" y2="412.4375"/><line style="stroke:#181818;stroke-width:1.0;stroke-dasharray:2.0,2.0;" x1="242" x2="242" y1="412.4375" y2="425.4375"/><line style="stroke:#181818;stroke-width:1.0;stroke-dasharray:2.0,2.0;" x1="195" x2="242" y1="425.4375" y2="425.4375"/><polygon fill="#181818" points="205,421.4375,195,425.4375,205,429.4375,201,425.4375" style="stroke:#181818;stroke-width:1.0;"/><text fill="#000000" font-family="sans-serif" font-size="13" font-weight="bold" lengthAdjust="spacing" textLength="30" x="207" y="407.6953">16.8</text><text fill="#000000" font-family="sans-serif" font-size="13" lengthAdjust="spacing" textLength="4" x="241" y="407.6953">&#160;</text><polygon fill="#181818" points="11,452.748,1,456.748,11,460.748,7,456.748" style="stroke:#181818;stroke-width:1.0;"/><line style="stroke:#181818;stroke-width:1.0;stroke-dasharray:2.0,2.0;" x1="5" x2="189" y1="456.748" y2="456.748"/><text fill="#000000" font-family="sans-serif" font-size="13" font-weight="bold" lengthAdjust="spacing" textLength="18" x="17" y="452.0059">17</text><text fill="#000000" font-family="sans-serif" font-size="13" lengthAdjust="spacing" textLength="20" x="39" y="452.0059">job</text><!--SRC=[XP9DQyCm38Rl_XMYfwwGGIyRXB5RAHIsZlIwYn9hgTV43hRJqNy_ntKJDrjJNKAazttqWSr1o0Orrb0hgOgzLZM1rIqnqrSQB0vOqiwUAW9DXKLPLh70x96h7o5B-CBA46CkRKKX6fGMPavNLHaroWYhzEbJfgFC3D30Dbl_OtFYNVVrajNRHxPQRnd3rYhPrZbfM3wDVX-NZ468vBN3fcxcKXXBUgFo-RVAtx6cXrxK1HPM7D6Ido8kb5gr3MJ13yxSbvsqQn26MYnWw3FVN9gmFnqkIyHTGYx2ETWHAy6T8x3k3DxV1aRHimVujOZJD2JiwG-9d8SR3cDC-M_UDOP6YrwJ9mazvOovjL9NOlSy8tsN8idFllXnFVlCIv9uIkgVmxZNBm00]--></g></svg>