<?xml version="1.0" encoding="us-ascii" standalone="no"?><svg xmlns="http://www.w3.org/2000/svg" xmlns:xlink="http://www.w3.org/1999/xlink" contentStyleType="text/css" height="896px" preserveAspectRatio="none" style="width:1131px;height:896px;background:#FFFFFF;" version="1.1" viewBox="0 0 1131 896" width="1131px" zoomAndPan="magnify"><defs/><g><rect fill="#FFFFFF" height="706.3203" style="stroke:#181818;stroke-width:1.0;" width="10" x="96.5" y="91.4883"/><rect fill="#FFFFFF" height="305.2832" style="stroke:#181818;stroke-width:1.0;" width="10" x="397.5" y="112.7988"/><rect fill="#FFFFFF" height="29.3105" style="stroke:#181818;stroke-width:1.0;" width="10" x="397.5" y="447.3926"/><rect fill="#FFFFFF" height="291.7949" style="stroke:#181818;stroke-width:1.0;" width="10" x="397.5" y="506.0137"/><rect fill="#FFFFFF" height="654.6992" style="stroke:#181818;stroke-width:1.0;" width="10" x="570.5" y="152.1094"/><rect fill="#FFFFFF" height="205.1738" style="stroke:#181818;stroke-width:1.0;" width="10" x="575.5" y="183.5977"/><rect fill="#FFFFFF" height="233.1738" style="stroke:#181818;stroke-width:1.0;" width="10" x="575.5" y="535.3242"/><rect fill="#FFFFFF" height="29.3105" style="stroke:#181818;stroke-width:1.0;" width="10" x="715" y="212.9082"/><rect fill="#FFFFFF" height="29.3105" style="stroke:#181818;stroke-width:1.0;" width="10" x="828" y="271.5293"/><rect fill="#FFFFFF" height="29.3105" style="stroke:#181818;stroke-width:1.0;" width="10" x="957.5" y="330.1504"/><rect fill="#FFFFFF" height="145.2422" style="stroke:#181818;stroke-width:1.0;" width="10" x="957.5" y="593.9453"/><rect fill="#FFFFFF" height="40.3105" style="stroke:#181818;stroke-width:1.0;" width="10" x="962.5" y="655.5664"/><rect fill="#FFFFFF" height="29.3105" style="stroke:#181818;stroke-width:1.0;" width="10" x="1100.5" y="564.6348"/><rect fill="none" height="101.9316" style="stroke:#000000;stroke-width:1.5;" width="226" x="884.5" y="608.9453"/><line style="stroke:#181818;stroke-width:0.5;stroke-dasharray:5.0,5.0;" x1="101" x2="101" y1="81.4883" y2="815.8086"/><line style="stroke:#181818;stroke-width:0.5;stroke-dasharray:5.0,5.0;" x1="402.5" x2="402.5" y1="81.4883" y2="815.8086"/><line style="stroke:#181818;stroke-width:0.5;stroke-dasharray:5.0,5.0;" x1="575.5" x2="575.5" y1="151.543" y2="815.8086"/><line style="stroke:#181818;stroke-width:0.5;stroke-dasharray:5.0,5.0;" x1="719.5" x2="719.5" y1="81.4883" y2="815.8086"/><line style="stroke:#181818;stroke-width:0.5;stroke-dasharray:5.0,5.0;" x1="832.5" x2="832.5" y1="81.4883" y2="815.8086"/><line style="stroke:#181818;stroke-width:0.5;stroke-dasharray:5.0,5.0;" x1="962.5" x2="962.5" y1="81.4883" y2="815.8086"/><line style="stroke:#181818;stroke-width:0.5;stroke-dasharray:5.0,5.0;" x1="1105.5" x2="1105.5" y1="81.4883" y2="815.8086"/><text fill="#000000" font-family="sans-serif" font-size="14" lengthAdjust="spacing" textLength="187" x="5" y="78.5352">Human Resources Manager</text><ellipse cx="101.5" cy="13.5" fill="#E3E3E3" rx="8" ry="8" style="stroke:#181818;stroke-width:0.5;"/><path d="M101.5,21.5 L101.5,48.5 M88.5,29.5 L114.5,29.5 M101.5,48.5 L88.5,63.5 M101.5,48.5 L114.5,63.5 " fill="none" style="stroke:#181818;stroke-width:0.5;"/><text fill="#000000" font-family="sans-serif" font-size="14" lengthAdjust="spacing" textLength="187" x="5" y="828.3438">Human Resources Manager</text><ellipse cx="101.5" cy="839.7969" fill="#E3E3E3" rx="8" ry="8" style="stroke:#181818;stroke-width:0.5;"/><path d="M101.5,847.7969 L101.5,874.7969 M88.5,855.7969 L114.5,855.7969 M101.5,874.7969 L88.5,889.7969 M101.5,874.7969 L114.5,889.7969 " fill="none" style="stroke:#181818;stroke-width:0.5;"/><rect fill="#E3E3E3" height="30.4883" rx="2.5" ry="2.5" style="stroke:#181818;stroke-width:0.5;" width="110" x="347.5" y="50"/><text fill="#000000" font-family="sans-serif" font-size="14" lengthAdjust="spacing" textLength="96" x="354.5" y="70.5352">:RegisterJobUI</text><rect fill="#E3E3E3" height="30.4883" rx="2.5" ry="2.5" style="stroke:#181818;stroke-width:0.5;" width="110" x="347.5" y="814.8086"/><text fill="#000000" font-family="sans-serif" font-size="14" lengthAdjust="spacing" textLength="96" x="354.5" y="835.3438">:RegisterJobUI</text><rect fill="#E3E3E3" height="30.4883" rx="2.5" ry="2.5" style="stroke:#181818;stroke-width:0.5;" width="166" x="492.5" y="814.8086"/><text fill="#000000" font-family="sans-serif" font-size="14" lengthAdjust="spacing" textLength="152" x="499.5" y="835.3438">:RegisterJobController</text><rect fill="#E3E3E3" height="30.4883" rx="2.5" ry="2.5" style="stroke:#181818;stroke-width:0.5;" width="103" x="668.5" y="50"/><text fill="#000000" font-family="sans-serif" font-size="14" lengthAdjust="spacing" textLength="89" x="675.5" y="70.5352">:Repositories</text><rect fill="#E3E3E3" height="30.4883" rx="2.5" ry="2.5" style="stroke:#181818;stroke-width:0.5;" width="103" x="668.5" y="814.8086"/><text fill="#000000" font-family="sans-serif" font-size="14" lengthAdjust="spacing" textLength="89" x="675.5" y="835.3438">:Repositories</text><rect fill="#E3E3E3" height="46.9766" rx="2.5" ry="2.5" style="stroke:#181818;stroke-width:0.5;" width="103" x="781.5" y="33.5117"/><text fill="#000000" font-family="sans-serif" font-size="14" lengthAdjust="spacing" textLength="82" x="792" y="54.0469">repositories</text><text fill="#000000" font-family="sans-serif" font-size="14" lengthAdjust="spacing" textLength="89" x="788.5" y="70.5352">:Repositories</text><rect fill="#E3E3E3" height="46.9766" rx="2.5" ry="2.5" style="stroke:#181818;stroke-width:0.5;" width="103" x="781.5" y="814.8086"/><text fill="#000000" font-family="sans-serif" font-size="14" lengthAdjust="spacing" textLength="82" x="792" y="835.3438">repositories</text><text fill="#000000" font-family="sans-serif" font-size="14" lengthAdjust="spacing" textLength="89" x="788.5" y="851.832">:Repositories</text><rect fill="#E3E3E3" height="46.9766" rx="2.5" ry="2.5" style="stroke:#181818;stroke-width:0.5;" width="136" x="894.5" y="33.5117"/><text fill="#000000" font-family="sans-serif" font-size="14" lengthAdjust="spacing" textLength="118" x="903.5" y="54.0469">jobListRepository</text><text fill="#000000" font-family="sans-serif" font-size="14" lengthAdjust="spacing" textLength="122" x="901.5" y="70.5352">:jobListRepository</text><rect fill="#E3E3E3" height="46.9766" rx="2.5" ry="2.5" style="stroke:#181818;stroke-width:0.5;" width="136" x="894.5" y="814.8086"/><text fill="#000000" font-family="sans-serif" font-size="14" lengthAdjust="spacing" textLength="118" x="903.5" y="835.3438">jobListRepository</text><text fill="#000000" font-family="sans-serif" font-size="14" lengthAdjust="spacing" textLength="122" x="901.5" y="851.832">:jobListRepository</text><rect fill="#E3E3E3" height="46.9766" rx="2.5" ry="2.5" style="stroke:#181818;stroke-width:0.5;" width="40" x="1085.5" y="33.5117"/><text fill="#000000" font-family="sans-serif" font-size="14" lengthAdjust="spacing" textLength="22" x="1094.5" y="54.0469">job</text><text fill="#000000" font-family="sans-serif" font-size="14" lengthAdjust="spacing" textLength="26" x="1092.5" y="70.5352">:Job</text><rect fill="#E3E3E3" height="46.9766" rx="2.5" ry="2.5" style="stroke:#181818;stroke-width:0.5;" width="40" x="1085.5" y="814.8086"/><text fill="#000000" font-family="sans-serif" font-size="14" lengthAdjust="spacing" textLength="22" x="1094.5" y="835.3438">job</text><text fill="#000000" font-family="sans-serif" font-size="14" lengthAdjust="spacing" textLength="26" x="1092.5" y="851.832">:Job</text><rect fill="#FFFFFF" height="706.3203" style="stroke:#181818;stroke-width:1.0;" width="10" x="96.5" y="91.4883"/><rect fill="#FFFFFF" height="305.2832" style="stroke:#181818;stroke-width:1.0;" width="10" x="397.5" y="112.7988"/><rect fill="#FFFFFF" height="29.3105" style="stroke:#181818;stroke-width:1.0;" width="10" x="397.5" y="447.3926"/><rect fill="#FFFFFF" height="291.7949" style="stroke:#181818;stroke-width:1.0;" width="10" x="397.5" y="506.0137"/><rect fill="#FFFFFF" height="654.6992" style="stroke:#181818;stroke-width:1.0;" width="10" x="570.5" y="152.1094"/><rect fill="#FFFFFF" height="205.1738" style="stroke:#181818;stroke-width:1.0;" width="10" x="575.5" y="183.5977"/><rect fill="#FFFFFF" height="233.1738" style="stroke:#181818;stroke-width:1.0;" width="10" x="575.5" y="535.3242"/><rect fill="#FFFFFF" height="29.3105" style="stroke:#181818;stroke-width:1.0;" width="10" x="715" y="212.9082"/><rect fill="#FFFFFF" height="29.3105" style="stroke:#181818;stroke-width:1.0;" width="10" x="828" y="271.5293"/><rect fill="#FFFFFF" height="29.3105" style="stroke:#181818;stroke-width:1.0;" width="10" x="957.5" y="330.1504"/><rect fill="#FFFFFF" height="145.2422" style="stroke:#181818;stroke-width:1.0;" width="10" x="957.5" y="593.9453"/><rect fill="#FFFFFF" height="40.3105" style="stroke:#181818;stroke-width:1.0;" width="10" x="962.5" y="655.5664"/><rect fill="#FFFFFF" height="29.3105" style="stroke:#181818;stroke-width:1.0;" width="10" x="1100.5" y="564.6348"/><polygon fill="#181818" points="385.5,108.7988,395.5,112.7988,385.5,116.7988,389.5,112.7988" style="stroke:#181818;stroke-width:1.0;"/><line style="stroke:#181818;stroke-width:1.0;" x1="106.5" x2="391.5" y1="112.7988" y2="112.7988"/><text fill="#000000" font-family="sans-serif" font-size="13" font-weight="bold" lengthAdjust="spacing" textLength="9" x="113.5" y="108.0566">1</text><text fill="#000000" font-family="sans-serif" font-size="13" lengthAdjust="spacing" textLength="162" x="126.5" y="108.0566">asks to register a new job</text><polygon fill="#181818" points="480.5,138.1094,490.5,142.1094,480.5,146.1094,484.5,142.1094" style="stroke:#181818;stroke-width:1.0;"/><line style="stroke:#181818;stroke-width:1.0;" x1="407.5" x2="486.5" y1="142.1094" y2="142.1094"/><text fill="#000000" font-family="sans-serif" font-size="13" font-weight="bold" lengthAdjust="spacing" textLength="9" x="414.5" y="137.3672">2</text><text fill="#000000" font-family="sans-serif" font-size="13" lengthAdjust="spacing" textLength="48" x="427.5" y="137.3672">register</text><rect fill="#E3E3E3" height="30.4883" rx="2.5" ry="2.5" style="stroke:#181818;stroke-width:0.5;" width="166" x="492.5" y="120.7988"/><text fill="#000000" font-family="sans-serif" font-size="14" lengthAdjust="spacing" textLength="152" x="499.5" y="141.334">:RegisterJobController</text><polygon fill="#181818" points="563.5,179.5977,573.5,183.5977,563.5,187.5977,567.5,183.5977" style="stroke:#181818;stroke-width:1.0;"/><line style="stroke:#181818;stroke-width:1.0;" x1="407.5" x2="569.5" y1="183.5977" y2="183.5977"/><text fill="#000000" font-family="sans-serif" font-size="13" font-weight="bold" lengthAdjust="spacing" textLength="9" x="414.5" y="178.8555">3</text><text fill="#000000" font-family="sans-serif" font-size="13" lengthAdjust="spacing" textLength="71" x="427.5" y="178.8555">getJobList()</text><polygon fill="#181818" points="703,208.9082,713,212.9082,703,216.9082,707,212.9082" style="stroke:#181818;stroke-width:1.0;"/><line style="stroke:#181818;stroke-width:1.0;" x1="585.5" x2="709" y1="212.9082" y2="212.9082"/><text fill="#000000" font-family="sans-serif" font-size="13" font-weight="bold" lengthAdjust="spacing" textLength="9" x="592.5" y="208.166">4</text><text fill="#000000" font-family="sans-serif" font-size="13" lengthAdjust="spacing" textLength="81" x="605.5" y="208.166">getInstance()</text><polygon fill="#181818" points="596.5,238.2188,586.5,242.2188,596.5,246.2188,592.5,242.2188" style="stroke:#181818;stroke-width:1.0;"/><line style="stroke:#181818;stroke-width:1.0;stroke-dasharray:2.0,2.0;" x1="590.5" x2="719" y1="242.2188" y2="242.2188"/><text fill="#000000" font-family="sans-serif" font-size="13" font-weight="bold" lengthAdjust="spacing" textLength="9" x="602.5" y="237.4766">5</text><text fill="#000000" font-family="sans-serif" font-size="13" lengthAdjust="spacing" textLength="75" x="615.5" y="237.4766">repositories</text><polygon fill="#181818" points="816,267.5293,826,271.5293,816,275.5293,820,271.5293" style="stroke:#181818;stroke-width:1.0;"/><line style="stroke:#181818;stroke-width:1.0;" x1="585.5" x2="822" y1="271.5293" y2="271.5293"/><text fill="#000000" font-family="sans-serif" font-size="13" font-weight="bold" lengthAdjust="spacing" textLength="9" x="592.5" y="266.7871">6</text><text fill="#000000" font-family="sans-serif" font-size="13" lengthAdjust="spacing" textLength="115" x="605.5" y="266.7871">getJobRepository()</text><polygon fill="#181818" points="596.5,296.8398,586.5,300.8398,596.5,304.8398,592.5,300.8398" style="stroke:#181818;stroke-width:1.0;"/><line style="stroke:#181818;stroke-width:1.0;stroke-dasharray:2.0,2.0;" x1="590.5" x2="832" y1="300.8398" y2="300.8398"/><text fill="#000000" font-family="sans-serif" font-size="13" font-weight="bold" lengthAdjust="spacing" textLength="9" x="602.5" y="296.0977">7</text><text fill="#000000" font-family="sans-serif" font-size="13" lengthAdjust="spacing" textLength="110" x="615.5" y="296.0977">jobListRepository</text><polygon fill="#181818" points="945.5,326.1504,955.5,330.1504,945.5,334.1504,949.5,330.1504" style="stroke:#181818;stroke-width:1.0;"/><line style="stroke:#181818;stroke-width:1.0;" x1="585.5" x2="951.5" y1="330.1504" y2="330.1504"/><text fill="#000000" font-family="sans-serif" font-size="13" font-weight="bold" lengthAdjust="spacing" textLength="9" x="592.5" y="325.4082">8</text><text fill="#000000" font-family="sans-serif" font-size="13" lengthAdjust="spacing" textLength="71" x="605.5" y="325.4082">getJobList()</text><polygon fill="#181818" points="596.5,355.4609,586.5,359.4609,596.5,363.4609,592.5,359.4609" style="stroke:#181818;stroke-width:1.0;"/><line style="stroke:#181818;stroke-width:1.0;stroke-dasharray:2.0,2.0;" x1="590.5" x2="961.5" y1="359.4609" y2="359.4609"/><text fill="#000000" font-family="sans-serif" font-size="13" font-weight="bold" lengthAdjust="spacing" textLength="9" x="602.5" y="354.7188">9</text><text fill="#000000" font-family="sans-serif" font-size="13" lengthAdjust="spacing" textLength="43" x="615.5" y="354.7188">jobList</text><polygon fill="#181818" points="418.5,384.7715,408.5,388.7715,418.5,392.7715,414.5,388.7715" style="stroke:#181818;stroke-width:1.0;"/><line style="stroke:#181818;stroke-width:1.0;stroke-dasharray:2.0,2.0;" x1="412.5" x2="569.5" y1="388.7715" y2="388.7715"/><text fill="#000000" font-family="sans-serif" font-size="13" font-weight="bold" lengthAdjust="spacing" textLength="18" x="424.5" y="384.0293">10</text><text fill="#000000" font-family="sans-serif" font-size="13" lengthAdjust="spacing" textLength="43" x="446.5" y="384.0293">jobList</text><polygon fill="#181818" points="117.5,414.082,107.5,418.082,117.5,422.082,113.5,418.082" style="stroke:#181818;stroke-width:1.0;"/><line style="stroke:#181818;stroke-width:1.0;stroke-dasharray:2.0,2.0;" x1="111.5" x2="401.5" y1="418.082" y2="418.082"/><text fill="#000000" font-family="sans-serif" font-size="13" font-weight="bold" lengthAdjust="spacing" textLength="18" x="123.5" y="413.3398">11</text><text fill="#000000" font-family="sans-serif" font-size="13" lengthAdjust="spacing" textLength="88" x="145.5" y="413.3398">shows job list</text><polygon fill="#181818" points="385.5,443.3926,395.5,447.3926,385.5,451.3926,389.5,447.3926" style="stroke:#181818;stroke-width:1.0;"/><line style="stroke:#181818;stroke-width:1.0;" x1="106.5" x2="391.5" y1="447.3926" y2="447.3926"/><text fill="#000000" font-family="sans-serif" font-size="13" font-weight="bold" lengthAdjust="spacing" textLength="18" x="113.5" y="442.6504">12</text><text fill="#000000" font-family="sans-serif" font-size="13" lengthAdjust="spacing" textLength="177" x="135.5" y="442.6504">types requested data (name)</text><polygon fill="#181818" points="117.5,472.7031,107.5,476.7031,117.5,480.7031,113.5,476.7031" style="stroke:#181818;stroke-width:1.0;"/><line style="stroke:#181818;stroke-width:1.0;stroke-dasharray:2.0,2.0;" x1="111.5" x2="401.5" y1="476.7031" y2="476.7031"/><text fill="#000000" font-family="sans-serif" font-size="13" font-weight="bold" lengthAdjust="spacing" textLength="18" x="123.5" y="471.9609">13</text><text fill="#000000" font-family="sans-serif" font-size="13" lengthAdjust="spacing" textLength="178" x="145.5" y="471.9609">asks operation confirmation</text><polygon fill="#181818" points="385.5,502.0137,395.5,506.0137,385.5,510.0137,389.5,506.0137" style="stroke:#181818;stroke-width:1.0;"/><line style="stroke:#181818;stroke-width:1.0;" x1="106.5" x2="391.5" y1="506.0137" y2="506.0137"/><text fill="#000000" font-family="sans-serif" font-size="13" font-weight="bold" lengthAdjust="spacing" textLength="18" x="113.5" y="501.2715">14</text><text fill="#000000" font-family="sans-serif" font-size="13" lengthAdjust="spacing" textLength="120" x="135.5" y="501.2715">confirms operation</text><polygon fill="#181818" points="563.5,531.3242,573.5,535.3242,563.5,539.3242,567.5,535.3242" style="stroke:#181818;stroke-width:1.0;"/><line style="stroke:#181818;stroke-width:1.0;" x1="407.5" x2="569.5" y1="535.3242" y2="535.3242"/><text fill="#000000" font-family="sans-serif" font-size="13" font-weight="bold" lengthAdjust="spacing" textLength="18" x="414.5" y="530.582">15</text><text fill="#000000" font-family="sans-serif" font-size="13" lengthAdjust="spacing" textLength="110" x="436.5" y="530.582">registerJob(name)</text><polygon fill="#181818" points="1088.5,560.6348,1098.5,564.6348,1088.5,568.6348,1092.5,564.6348" style="stroke:#181818;stroke-width:1.0;"/><line style="stroke:#181818;stroke-width:1.0;" x1="585.5" x2="1094.5" y1="564.6348" y2="564.6348"/><text fill="#000000" font-family="sans-serif" font-size="13" font-weight="bold" lengthAdjust="spacing" textLength="18" x="592.5" y="559.8926">16</text><text fill="#000000" font-family="sans-serif" font-size="13" lengthAdjust="spacing" textLength="110" x="614.5" y="559.8926">registerJob(name)</text><polygon fill="#181818" points="978.5,589.9453,968.5,593.9453,978.5,597.9453,974.5,593.9453" style="stroke:#181818;stroke-width:1.0;"/><line style="stroke:#181818;stroke-width:1.0;" x1="972.5" x2="1104.5" y1="593.9453" y2="593.9453"/><text fill="#000000" font-family="sans-serif" font-size="13" font-weight="bold" lengthAdjust="spacing" textLength="18" x="984.5" y="589.2031">17</text><text fill="#000000" font-family="sans-serif" font-size="13" lengthAdjust="spacing" textLength="71" x="1006.5" y="589.2031">addJob(job)</text><path d="M884.5,608.9453 L958.5,608.9453 L958.5,616.2559 L948.5,626.2559 L884.5,626.2559 L884.5,608.9453 " fill="#EEEEEE" style="stroke:#000000;stroke-width:1.5;"/><rect fill="none" height="101.9316" style="stroke:#000000;stroke-width:1.5;" width="226" x="884.5" y="608.9453"/><text fill="#000000" font-family="sans-serif" font-size="13" font-weight="bold" lengthAdjust="spacing" textLength="29" x="899.5" y="622.5137">loop</text><a href="for" target="_top" title="for" xlink:actuate="onRequest" xlink:href="for" xlink:show="new" xlink:title="for" xlink:type="simple"><text fill="#1D1D1D" font-family="sans-serif" font-size="11" font-weight="bold" lengthAdjust="spacing" text-decoration="underline" textLength="104" x="973.5" y="621.5801">each job in jobList</text></a><line style="stroke:#181818;stroke-width:1.0;stroke-dasharray:2.0,2.0;" x1="967.5" x2="1014.5" y1="642.5664" y2="642.5664"/><line style="stroke:#181818;stroke-width:1.0;stroke-dasharray:2.0,2.0;" x1="1014.5" x2="1014.5" y1="642.5664" y2="655.5664"/><line style="stroke:#181818;stroke-width:1.0;stroke-dasharray:2.0,2.0;" x1="973.5" x2="1014.5" y1="655.5664" y2="655.5664"/><polygon fill="#181818" points="983.5,651.5664,973.5,655.5664,983.5,659.5664,979.5,655.5664" style="stroke:#181818;stroke-width:1.0;"/><text fill="#000000" font-family="sans-serif" font-size="13" font-weight="bold" lengthAdjust="spacing" textLength="18" x="979.5" y="637.8242">18</text><text fill="#000000" font-family="sans-serif" font-size="13" lengthAdjust="spacing" textLength="97" x="1001.5" y="637.8242">validateJob(job)</text><line style="stroke:#181818;stroke-width:1.0;stroke-dasharray:2.0,2.0;" x1="972.5" x2="1014.5" y1="694.877" y2="694.877"/><line style="stroke:#181818;stroke-width:1.0;stroke-dasharray:2.0,2.0;" x1="1014.5" x2="1014.5" y1="694.877" y2="707.877"/><line style="stroke:#181818;stroke-width:1.0;stroke-dasharray:2.0,2.0;" x1="967.5" x2="1014.5" y1="707.877" y2="707.877"/><polygon fill="#181818" points="977.5,703.877,967.5,707.877,977.5,711.877,973.5,707.877" style="stroke:#181818;stroke-width:1.0;"/><text fill="#000000" font-family="sans-serif" font-size="13" font-weight="bold" lengthAdjust="spacing" textLength="18" x="979.5" y="690.1348">19</text><text fill="#000000" font-family="sans-serif" font-size="13" lengthAdjust="spacing" textLength="62" x="1001.5" y="690.1348">true/false</text><polygon fill="#181818" points="596.5,735.1875,586.5,739.1875,596.5,743.1875,592.5,739.1875" style="stroke:#181818;stroke-width:1.0;"/><line style="stroke:#181818;stroke-width:1.0;stroke-dasharray:2.0,2.0;" x1="590.5" x2="961.5" y1="739.1875" y2="739.1875"/><text fill="#000000" font-family="sans-serif" font-size="13" font-weight="bold" lengthAdjust="spacing" textLength="18" x="602.5" y="734.4453">20</text><text fill="#000000" font-family="sans-serif" font-size="13" lengthAdjust="spacing" textLength="81" x="624.5" y="734.4453">validated job</text><polygon fill="#181818" points="418.5,764.498,408.5,768.498,418.5,772.498,414.5,768.498" style="stroke:#181818;stroke-width:1.0;"/><line style="stroke:#181818;stroke-width:1.0;stroke-dasharray:2.0,2.0;" x1="412.5" x2="569.5" y1="768.498" y2="768.498"/><text fill="#000000" font-family="sans-serif" font-size="13" font-weight="bold" lengthAdjust="spacing" textLength="18" x="424.5" y="763.7559">21</text><text fill="#000000" font-family="sans-serif" font-size="13" lengthAdjust="spacing" textLength="81" x="446.5" y="763.7559">validated job</text><polygon fill="#181818" points="112.5,793.8086,102.5,797.8086,112.5,801.8086,108.5,797.8086" style="stroke:#181818;stroke-width:1.0;"/><line style="stroke:#181818;stroke-width:1.0;stroke-dasharray:2.0,2.0;" x1="106.5" x2="401.5" y1="797.8086" y2="797.8086"/><text fill="#000000" font-family="sans-serif" font-size="13" font-weight="bold" lengthAdjust="spacing" textLength="18" x="118.5" y="793.0664">22</text><text fill="#000000" font-family="sans-serif" font-size="13" lengthAdjust="spacing" textLength="245" x="140.5" y="793.0664">Confirms the success of the operation.</text><!--SRC=[ZLLDZzem4BtxLuouT5c9ziwXKeLMNLQWhhAxfxO7aqp09R5JsrdAl-_O-N8IaZO7HCnxC-Ftdeqv2rbmpNF8bLJnIQiSmUeIcMb_ANXyvaTyiTSCGMDikJnc8S2SUA8kGXuXvPb1ndXfbIpp0sh6Ffn4Wf0gPG_g3-EnLHeMZsNE9KHeLAbZDB3daZhe1N03Zz6UKLqhOb5mQM6nZl0eZ4Nzf0vlMuzvsqv3DafQhRAiBhTvZNOZSA6Ce4446ezf5wulmksDfkzJTC3u8SS5ddTVNlkCN-gmeucwoaGRhNakhNOheo94eprvuCF-ENhu-eqv4SKxj-YbOlG1gyya2Qm9TJPW5RbKoG4S95vSYuv4sZ424yL9StzFj0RUWRng0On0HxHFrGRkbaEWXn3qXf0LSoiDnIR6a7fBTNQhmgeUmWtQ2SyId2_L3ENCQUVlaE4etZ_cWLspaLrXnuhHjEXvEAbLtsdM9wqwfUl6ORi1jUhRk7u3t_b789UGDPrITV5fWsm0Tea8KsIl1Pr9ZRzBf5Gaa73BuKxo79VZ6BNrVVPKWPfRGQR5IgP2v_vbhbcD2wXJKGs2Ik8Ev-a7iJuhiupsFB7wsyX9sbIIE2QjBiDDDDGfVpAb2lYUqbL7d9CNNSZ6fvyCw1cxFsZzpZD1ocFRtx4c6aBz_BEekze_LRUqmqyc36Ko4z1cjCJVBFyLqndICAjhs3IPi2S4KyRq5q7vIFrh6vEFmrG5h-vY_0i0]--></g></svg>