<?xml version="1.0" encoding="us-ascii" standalone="no"?><svg xmlns="http://www.w3.org/2000/svg" xmlns:xlink="http://www.w3.org/1999/xlink" contentStyleType="text/css" height="648px" preserveAspectRatio="none" style="width:1035px;height:648px;background:#FFFFFF;" version="1.1" viewBox="0 0 1035 648" width="1035px" zoomAndPan="magnify"><defs/><g><rect fill="#FFFFFF" height="457.8789" style="stroke:#181818;stroke-width:1.0;" width="10" x="96.5" y="91.4883"/><rect fill="#FFFFFF" height="29.3105" style="stroke:#181818;stroke-width:1.0;" width="10" x="415.5" y="112.7988"/><rect fill="#FFFFFF" height="29.3105" style="stroke:#181818;stroke-width:1.0;" width="10" x="415.5" y="171.4199"/><rect fill="#FFFFFF" height="319.3262" style="stroke:#181818;stroke-width:1.0;" width="10" x="415.5" y="230.041"/><rect fill="#FFFFFF" height="219.2168" style="stroke:#181818;stroke-width:1.0;" width="10" x="589.5" y="300.8398"/><rect fill="#FFFFFF" height="87.8867" style="stroke:#181818;stroke-width:1.0;" width="10" x="965" y="402.8594"/><line style="stroke:#181818;stroke-width:0.5;stroke-dasharray:5.0,5.0;" x1="101" x2="101" y1="81.4883" y2="567.3672"/><line style="stroke:#181818;stroke-width:0.5;stroke-dasharray:5.0,5.0;" x1="420.5" x2="420.5" y1="81.4883" y2="567.3672"/><line style="stroke:#181818;stroke-width:0.5;stroke-dasharray:5.0,5.0;" x1="594.5" x2="594.5" y1="268.7852" y2="567.3672"/><line style="stroke:#181818;stroke-width:0.5;stroke-dasharray:5.0,5.0;" x1="738.5" x2="738.5" y1="81.4883" y2="567.3672"/><line style="stroke:#181818;stroke-width:0.5;stroke-dasharray:5.0,5.0;" x1="851.5" x2="851.5" y1="81.4883" y2="567.3672"/><line style="stroke:#181818;stroke-width:0.5;stroke-dasharray:5.0,5.0;" x1="969.5" x2="969.5" y1="81.4883" y2="567.3672"/><text fill="#000000" font-family="sans-serif" font-size="14" lengthAdjust="spacing" textLength="187" x="5" y="78.5352">Human Resources Manager</text><ellipse cx="101.5" cy="13.5" fill="#E3E3E3" rx="8" ry="8" style="stroke:#181818;stroke-width:0.5;"/><path d="M101.5,21.5 L101.5,48.5 M88.5,29.5 L114.5,29.5 M101.5,48.5 L88.5,63.5 M101.5,48.5 L114.5,63.5 " fill="none" style="stroke:#181818;stroke-width:0.5;"/><text fill="#000000" font-family="sans-serif" font-size="14" lengthAdjust="spacing" textLength="187" x="5" y="579.9023">Human Resources Manager</text><ellipse cx="101.5" cy="591.3555" fill="#E3E3E3" rx="8" ry="8" style="stroke:#181818;stroke-width:0.5;"/><path d="M101.5,599.3555 L101.5,626.3555 M88.5,607.3555 L114.5,607.3555 M101.5,626.3555 L88.5,641.3555 M101.5,626.3555 L114.5,641.3555 " fill="none" style="stroke:#181818;stroke-width:0.5;"/><rect fill="#E3E3E3" height="30.4883" rx="2.5" ry="2.5" style="stroke:#181818;stroke-width:0.5;" width="110" x="365.5" y="50"/><text fill="#000000" font-family="sans-serif" font-size="14" lengthAdjust="spacing" textLength="96" x="372.5" y="70.5352">:RegisterJobUI</text><rect fill="#E3E3E3" height="30.4883" rx="2.5" ry="2.5" style="stroke:#181818;stroke-width:0.5;" width="110" x="365.5" y="566.3672"/><text fill="#000000" font-family="sans-serif" font-size="14" lengthAdjust="spacing" textLength="96" x="372.5" y="586.9023">:RegisterJobUI</text><rect fill="#E3E3E3" height="30.4883" rx="2.5" ry="2.5" style="stroke:#181818;stroke-width:0.5;" width="166" x="511.5" y="566.3672"/><text fill="#000000" font-family="sans-serif" font-size="14" lengthAdjust="spacing" textLength="152" x="518.5" y="586.9023">:RegisterJobController</text><rect fill="#E3E3E3" height="30.4883" rx="2.5" ry="2.5" style="stroke:#181818;stroke-width:0.5;" width="103" x="687.5" y="50"/><text fill="#000000" font-family="sans-serif" font-size="14" lengthAdjust="spacing" textLength="89" x="694.5" y="70.5352">:Repositories</text><rect fill="#E3E3E3" height="30.4883" rx="2.5" ry="2.5" style="stroke:#181818;stroke-width:0.5;" width="103" x="687.5" y="566.3672"/><text fill="#000000" font-family="sans-serif" font-size="14" lengthAdjust="spacing" textLength="89" x="694.5" y="586.9023">:Repositories</text><rect fill="#E3E3E3" height="46.9766" rx="2.5" ry="2.5" style="stroke:#181818;stroke-width:0.5;" width="103" x="800.5" y="33.5117"/><text fill="#000000" font-family="sans-serif" font-size="14" lengthAdjust="spacing" textLength="82" x="811" y="54.0469">repositories</text><text fill="#000000" font-family="sans-serif" font-size="14" lengthAdjust="spacing" textLength="89" x="807.5" y="70.5352">:Repositories</text><rect fill="#E3E3E3" height="46.9766" rx="2.5" ry="2.5" style="stroke:#181818;stroke-width:0.5;" width="103" x="800.5" y="566.3672"/><text fill="#000000" font-family="sans-serif" font-size="14" lengthAdjust="spacing" textLength="82" x="811" y="586.9023">repositories</text><text fill="#000000" font-family="sans-serif" font-size="14" lengthAdjust="spacing" textLength="89" x="807.5" y="603.3906">:Repositories</text><rect fill="#E3E3E3" height="46.9766" rx="2.5" ry="2.5" style="stroke:#181818;stroke-width:0.5;" width="113" x="913.5" y="33.5117"/><text fill="#000000" font-family="sans-serif" font-size="14" lengthAdjust="spacing" textLength="95" x="922.5" y="54.0469">jobRepository</text><text fill="#000000" font-family="sans-serif" font-size="14" lengthAdjust="spacing" textLength="99" x="920.5" y="70.5352">:JobRepository</text><rect fill="#E3E3E3" height="46.9766" rx="2.5" ry="2.5" style="stroke:#181818;stroke-width:0.5;" width="113" x="913.5" y="566.3672"/><text fill="#000000" font-family="sans-serif" font-size="14" lengthAdjust="spacing" textLength="95" x="922.5" y="586.9023">jobRepository</text><text fill="#000000" font-family="sans-serif" font-size="14" lengthAdjust="spacing" textLength="99" x="920.5" y="603.3906">:JobRepository</text><rect fill="#FFFFFF" height="457.8789" style="stroke:#181818;stroke-width:1.0;" width="10" x="96.5" y="91.4883"/><rect fill="#FFFFFF" height="29.3105" style="stroke:#181818;stroke-width:1.0;" width="10" x="415.5" y="112.7988"/><rect fill="#FFFFFF" height="29.3105" style="stroke:#181818;stroke-width:1.0;" width="10" x="415.5" y="171.4199"/><rect fill="#FFFFFF" height="319.3262" style="stroke:#181818;stroke-width:1.0;" width="10" x="415.5" y="230.041"/><rect fill="#FFFFFF" height="219.2168" style="stroke:#181818;stroke-width:1.0;" width="10" x="589.5" y="300.8398"/><rect fill="#FFFFFF" height="87.8867" style="stroke:#181818;stroke-width:1.0;" width="10" x="965" y="402.8594"/><polygon fill="#181818" points="403.5,108.7988,413.5,112.7988,403.5,116.7988,407.5,112.7988" style="stroke:#181818;stroke-width:1.0;"/><line style="stroke:#181818;stroke-width:1.0;" x1="106.5" x2="409.5" y1="112.7988" y2="112.7988"/><text fill="#000000" font-family="sans-serif" font-size="13" font-weight="bold" lengthAdjust="spacing" textLength="9" x="113.5" y="108.0566">1</text><text fill="#000000" font-family="sans-serif" font-size="13" lengthAdjust="spacing" textLength="162" x="126.5" y="108.0566">asks to register a new job</text><polygon fill="#181818" points="117.5,138.1094,107.5,142.1094,117.5,146.1094,113.5,142.1094" style="stroke:#181818;stroke-width:1.0;"/><line style="stroke:#181818;stroke-width:1.0;stroke-dasharray:2.0,2.0;" x1="111.5" x2="419.5" y1="142.1094" y2="142.1094"/><text fill="#000000" font-family="sans-serif" font-size="13" font-weight="bold" lengthAdjust="spacing" textLength="9" x="123.5" y="137.3672">2</text><text fill="#000000" font-family="sans-serif" font-size="13" lengthAdjust="spacing" textLength="146" x="136.5" y="137.3672">request data (jobName)</text><polygon fill="#181818" points="403.5,167.4199,413.5,171.4199,403.5,175.4199,407.5,171.4199" style="stroke:#181818;stroke-width:1.0;"/><line style="stroke:#181818;stroke-width:1.0;" x1="106.5" x2="409.5" y1="171.4199" y2="171.4199"/><text fill="#000000" font-family="sans-serif" font-size="13" font-weight="bold" lengthAdjust="spacing" textLength="9" x="113.5" y="166.6777">3</text><text fill="#000000" font-family="sans-serif" font-size="13" lengthAdjust="spacing" textLength="199" x="126.5" y="166.6777">types requested data (jobName)</text><polygon fill="#181818" points="117.5,196.7305,107.5,200.7305,117.5,204.7305,113.5,200.7305" style="stroke:#181818;stroke-width:1.0;"/><line style="stroke:#181818;stroke-width:1.0;stroke-dasharray:2.0,2.0;" x1="111.5" x2="419.5" y1="200.7305" y2="200.7305"/><text fill="#000000" font-family="sans-serif" font-size="13" font-weight="bold" lengthAdjust="spacing" textLength="9" x="123.5" y="195.9883">4</text><text fill="#000000" font-family="sans-serif" font-size="13" lengthAdjust="spacing" textLength="261" x="136.5" y="195.9883">show all data registered  for confirmation</text><polygon fill="#181818" points="403.5,226.041,413.5,230.041,403.5,234.041,407.5,230.041" style="stroke:#181818;stroke-width:1.0;"/><line style="stroke:#181818;stroke-width:1.0;" x1="106.5" x2="409.5" y1="230.041" y2="230.041"/><text fill="#000000" font-family="sans-serif" font-size="13" font-weight="bold" lengthAdjust="spacing" textLength="9" x="113.5" y="225.2988">5</text><text fill="#000000" font-family="sans-serif" font-size="13" lengthAdjust="spacing" textLength="82" x="126.5" y="225.2988">submits data</text><polygon fill="#181818" points="499.5,255.3516,509.5,259.3516,499.5,263.3516,503.5,259.3516" style="stroke:#181818;stroke-width:1.0;"/><line style="stroke:#181818;stroke-width:1.0;" x1="425.5" x2="505.5" y1="259.3516" y2="259.3516"/><text fill="#000000" font-family="sans-serif" font-size="13" font-weight="bold" lengthAdjust="spacing" textLength="9" x="432.5" y="254.6094">6</text><text fill="#000000" font-family="sans-serif" font-size="13" lengthAdjust="spacing" textLength="38" x="445.5" y="254.6094">create</text><rect fill="#E3E3E3" height="30.4883" rx="2.5" ry="2.5" style="stroke:#181818;stroke-width:0.5;" width="166" x="511.5" y="238.041"/><text fill="#000000" font-family="sans-serif" font-size="14" lengthAdjust="spacing" textLength="152" x="518.5" y="258.5762">:RegisterJobController</text><polygon fill="#181818" points="577.5,296.8398,587.5,300.8398,577.5,304.8398,581.5,300.8398" style="stroke:#181818;stroke-width:1.0;"/><line style="stroke:#181818;stroke-width:1.0;" x1="425.5" x2="583.5" y1="300.8398" y2="300.8398"/><text fill="#000000" font-family="sans-serif" font-size="13" font-weight="bold" lengthAdjust="spacing" textLength="9" x="432.5" y="296.0977">7</text><text fill="#000000" font-family="sans-serif" font-size="13" lengthAdjust="spacing" textLength="132" x="445.5" y="296.0977">registerJob(jobName)</text><rect fill="none" height="67.709" style="stroke:#000000;stroke-width:1.5;" width="172" x="508.5" y="308.8398"/><path d="M508.5,308.8398 L572.5,308.8398 L572.5,315.8398 L562.5,325.8398 L508.5,325.8398 L508.5,308.8398 " fill="#EEEEEE" style="stroke:#000000;stroke-width:2.0;"/><text fill="#000000" font-family="sans-serif" font-size="13" font-weight="bold" lengthAdjust="spacing" textLength="19" x="521.5" y="323.4082">ref</text><text fill="#000000" font-family="sans-serif" font-size="12" lengthAdjust="spacing" textLength="4" x="592.5" y="341.4414">&#160;</text><text fill="#000000" font-family="sans-serif" font-size="12" lengthAdjust="spacing" textLength="108" x="540.5" y="355.5742">Get Job Repository</text><text fill="#000000" font-family="sans-serif" font-size="12" lengthAdjust="spacing" textLength="4" x="592.5" y="369.707">&#160;</text><polygon fill="#181818" points="953,398.8594,963,402.8594,953,406.8594,957,402.8594" style="stroke:#181818;stroke-width:1.0;"/><line style="stroke:#181818;stroke-width:1.0;" x1="599.5" x2="959" y1="402.8594" y2="402.8594"/><text fill="#000000" font-family="sans-serif" font-size="13" font-weight="bold" lengthAdjust="spacing" textLength="9" x="606.5" y="398.1172">8</text><text fill="#000000" font-family="sans-serif" font-size="13" lengthAdjust="spacing" textLength="132" x="619.5" y="398.1172">registerJob(jobName)</text><rect fill="none" height="53.5762" style="stroke:#000000;stroke-width:1.5;" width="119" x="910.5" y="410.8594"/><path d="M910.5,410.8594 L974.5,410.8594 L974.5,417.8594 L964.5,427.8594 L910.5,427.8594 L910.5,410.8594 " fill="#EEEEEE" style="stroke:#000000;stroke-width:2.0;"/><text fill="#000000" font-family="sans-serif" font-size="13" font-weight="bold" lengthAdjust="spacing" textLength="19" x="923.5" y="425.4277">ref</text><text fill="#000000" font-family="sans-serif" font-size="12" lengthAdjust="spacing" textLength="70" x="935" y="443.4609">Register Job</text><text fill="#000000" font-family="sans-serif" font-size="12" lengthAdjust="spacing" textLength="4" x="968" y="457.5938">&#160;</text><polygon fill="#181818" points="610.5,486.7461,600.5,490.7461,610.5,494.7461,606.5,490.7461" style="stroke:#181818;stroke-width:1.0;"/><line style="stroke:#181818;stroke-width:1.0;stroke-dasharray:2.0,2.0;" x1="604.5" x2="969" y1="490.7461" y2="490.7461"/><text fill="#000000" font-family="sans-serif" font-size="13" font-weight="bold" lengthAdjust="spacing" textLength="9" x="616.5" y="486.0039">9</text><text fill="#000000" font-family="sans-serif" font-size="13" lengthAdjust="spacing" textLength="20" x="629.5" y="486.0039">Job</text><polygon fill="#181818" points="436.5,516.0566,426.5,520.0566,436.5,524.0566,432.5,520.0566" style="stroke:#181818;stroke-width:1.0;"/><line style="stroke:#181818;stroke-width:1.0;stroke-dasharray:2.0,2.0;" x1="430.5" x2="593.5" y1="520.0566" y2="520.0566"/><text fill="#000000" font-family="sans-serif" font-size="13" font-weight="bold" lengthAdjust="spacing" textLength="18" x="442.5" y="515.3145">10</text><text fill="#000000" font-family="sans-serif" font-size="13" lengthAdjust="spacing" textLength="20" x="464.5" y="515.3145">job</text><polygon fill="#181818" points="112.5,545.3672,102.5,549.3672,112.5,553.3672,108.5,549.3672" style="stroke:#181818;stroke-width:1.0;"/><line style="stroke:#181818;stroke-width:1.0;stroke-dasharray:2.0,2.0;" x1="106.5" x2="419.5" y1="549.3672" y2="549.3672"/><text fill="#000000" font-family="sans-serif" font-size="13" font-weight="bold" lengthAdjust="spacing" textLength="18" x="118.5" y="544.625">11</text><text fill="#000000" font-family="sans-serif" font-size="13" lengthAdjust="spacing" textLength="263" x="140.5" y="544.625">displays the (un)success of the operation.</text><!--SRC=[ZLH1Rjim4Bpp5GjVcWH87w13W2A79a5I54vowsL5hIpM4bSbgRZ-VLUKevAs78GdYPmPpUuEvRV6zkYmWuujwyPnHn3SGChF9ptgBMxeEUnR0aSweDsqAS0tMF7Es0tKs7fI2eV0TkXASafzQKn5K3E7alygr84ThEw63YsioVFWD7buGYjVS2j03tVh9oMwmMZJemsmAjQqCJwGU-3ozJvYNk_FGsxP1iTjUv2xVLa_de1xzaQC6F8HCs_idyrOcxZFAIvX_BAd0ZyVlxtaZDzS_bSLoaFw7ZaPOcoCUSD0iNm5ikG1hc-aL2W4llKGMBe_bGa8bdQZn8ITsT8ODMsDIxZN8Z4g5SBzCv0FK650k13g3-peSW9Nb2iix1rR2ljU1dSGfUfOziJLeYVVy0wmRIVsUtMY9e5neDdMndKOZCpZ4vRyK7Oc-2ZsiO6R68khAo5fHu9OE8qjcrELLvQ9nuJ1l997HpNmcuphFEGx1H3v988gEILRfVCSLxGc5hFudB6QCsV3UV8oJEOwny72UhzsOmcdGj7zyMOc6gDmQFOeaGAJONzWU6f7J40HxyCPYQC9f3aie3A-Rt4lLwmXk1ZifH-q_9OyS1stk2SNK_XrAOR9wtXv_m40]--></g></svg>