<?xml version="1.0" encoding="us-ascii" standalone="no"?><svg xmlns="http://www.w3.org/2000/svg" xmlns:xlink="http://www.w3.org/1999/xlink" contentStyleType="text/css" height="977px" preserveAspectRatio="none" style="width:1383px;height:977px;background:#FFFFFF;" version="1.1" viewBox="0 0 1383 977" width="1383px" zoomAndPan="magnify"><defs/><g><rect fill="#FFFFFF" height="794.9863" style="stroke:#181818;stroke-width:1.0;" width="10" x="111.5" y="91.4883"/><rect fill="#FFFFFF" height="95.1094" style="stroke:#181818;stroke-width:1.0;" width="10" x="419.5" y="112.7988"/><rect fill="#FFFFFF" height="29.3105" style="stroke:#181818;stroke-width:1.0;" width="10" x="419.5" y="237.2188"/><rect fill="#FFFFFF" height="590.6348" style="stroke:#181818;stroke-width:1.0;" width="10" x="419.5" y="295.8398"/><rect fill="#FFFFFF" height="146.5527" style="stroke:#181818;stroke-width:1.0;" width="10" x="593.5" y="325.1504"/><rect fill="#FFFFFF" height="29.3105" style="stroke:#181818;stroke-width:1.0;" width="10" x="593.5" y="812.8535"/><rect fill="#FFFFFF" height="29.3105" style="stroke:#181818;stroke-width:1.0;" width="10" x="738" y="354.4609"/><rect fill="#FFFFFF" height="29.3105" style="stroke:#181818;stroke-width:1.0;" width="10" x="851" y="413.082"/><rect fill="#FFFFFF" height="341.1504" style="stroke:#181818;stroke-width:1.0;" width="10" x="969" y="471.7031"/><rect fill="#FFFFFF" height="124.9316" style="stroke:#181818;stroke-width:1.0;" width="10" x="974" y="651.6113"/><rect fill="#FFFFFF" height="40.3105" style="stroke:#181818;stroke-width:1.0;" width="10" x="979" y="693.9219"/><rect fill="#FFFFFF" height="138.5977" style="stroke:#181818;stroke-width:1.0;" width="10" x="1152" y="511.0137"/><rect fill="#FFFFFF" height="40.3105" style="stroke:#181818;stroke-width:1.0;" width="10" x="1157" y="566.9902"/><rect fill="none" height="710.1875" style="stroke:#000000;stroke-width:1.5;" width="1367" x="10" y="169.2871"/><line style="stroke:#181818;stroke-width:0.5;stroke-dasharray:5.0,5.0;" x1="116" x2="116" y1="81.4883" y2="896.4746"/><line style="stroke:#181818;stroke-width:0.5;stroke-dasharray:5.0,5.0;" x1="424.5" x2="424.5" y1="81.4883" y2="896.4746"/><line style="stroke:#181818;stroke-width:0.5;stroke-dasharray:5.0,5.0;" x1="598.5" x2="598.5" y1="151.543" y2="896.4746"/><line style="stroke:#181818;stroke-width:0.5;stroke-dasharray:5.0,5.0;" x1="742.5" x2="742.5" y1="81.4883" y2="896.4746"/><line style="stroke:#181818;stroke-width:0.5;stroke-dasharray:5.0,5.0;" x1="855.5" x2="855.5" y1="81.4883" y2="896.4746"/><line style="stroke:#181818;stroke-width:0.5;stroke-dasharray:5.0,5.0;" x1="973.5" x2="973.5" y1="81.4883" y2="896.4746"/><line style="stroke:#181818;stroke-width:0.5;stroke-dasharray:5.0,5.0;" x1="1157" x2="1157" y1="518.6914" y2="896.4746"/><text fill="#000000" font-family="sans-serif" font-size="14" lengthAdjust="spacing" textLength="187" x="20" y="78.5352">Human Resources Manager</text><ellipse cx="116.5" cy="13.5" fill="#E3E3E3" rx="8" ry="8" style="stroke:#181818;stroke-width:0.5;"/><path d="M116.5,21.5 L116.5,48.5 M103.5,29.5 L129.5,29.5 M116.5,48.5 L103.5,63.5 M116.5,48.5 L129.5,63.5 " fill="none" style="stroke:#181818;stroke-width:0.5;"/><text fill="#000000" font-family="sans-serif" font-size="14" lengthAdjust="spacing" textLength="187" x="20" y="909.0098">Human Resources Manager</text><ellipse cx="116.5" cy="920.4629" fill="#E3E3E3" rx="8" ry="8" style="stroke:#181818;stroke-width:0.5;"/><path d="M116.5,928.4629 L116.5,955.4629 M103.5,936.4629 L129.5,936.4629 M116.5,955.4629 L103.5,970.4629 M116.5,955.4629 L129.5,970.4629 " fill="none" style="stroke:#181818;stroke-width:0.5;"/><rect fill="#E3E3E3" height="30.4883" rx="2.5" ry="2.5" style="stroke:#181818;stroke-width:0.5;" width="110" x="369.5" y="50"/><text fill="#000000" font-family="sans-serif" font-size="14" lengthAdjust="spacing" textLength="96" x="376.5" y="70.5352">:RegisterJobUI</text><rect fill="#E3E3E3" height="30.4883" rx="2.5" ry="2.5" style="stroke:#181818;stroke-width:0.5;" width="110" x="369.5" y="895.4746"/><text fill="#000000" font-family="sans-serif" font-size="14" lengthAdjust="spacing" textLength="96" x="376.5" y="916.0098">:RegisterJobUI</text><rect fill="#E3E3E3" height="30.4883" rx="2.5" ry="2.5" style="stroke:#181818;stroke-width:0.5;" width="166" x="515.5" y="895.4746"/><text fill="#000000" font-family="sans-serif" font-size="14" lengthAdjust="spacing" textLength="152" x="522.5" y="916.0098">:RegisterJobController</text><rect fill="#E3E3E3" height="30.4883" rx="2.5" ry="2.5" style="stroke:#181818;stroke-width:0.5;" width="103" x="691.5" y="50"/><text fill="#000000" font-family="sans-serif" font-size="14" lengthAdjust="spacing" textLength="89" x="698.5" y="70.5352">:Repositories</text><rect fill="#E3E3E3" height="30.4883" rx="2.5" ry="2.5" style="stroke:#181818;stroke-width:0.5;" width="103" x="691.5" y="895.4746"/><text fill="#000000" font-family="sans-serif" font-size="14" lengthAdjust="spacing" textLength="89" x="698.5" y="916.0098">:Repositories</text><rect fill="#E3E3E3" height="46.9766" rx="2.5" ry="2.5" style="stroke:#181818;stroke-width:0.5;" width="103" x="804.5" y="33.5117"/><text fill="#000000" font-family="sans-serif" font-size="14" lengthAdjust="spacing" textLength="82" x="815" y="54.0469">repositories</text><text fill="#000000" font-family="sans-serif" font-size="14" lengthAdjust="spacing" textLength="89" x="811.5" y="70.5352">:Repositories</text><rect fill="#E3E3E3" height="46.9766" rx="2.5" ry="2.5" style="stroke:#181818;stroke-width:0.5;" width="103" x="804.5" y="895.4746"/><text fill="#000000" font-family="sans-serif" font-size="14" lengthAdjust="spacing" textLength="82" x="815" y="916.0098">repositories</text><text fill="#000000" font-family="sans-serif" font-size="14" lengthAdjust="spacing" textLength="89" x="811.5" y="932.498">:Repositories</text><rect fill="#E3E3E3" height="46.9766" rx="2.5" ry="2.5" style="stroke:#181818;stroke-width:0.5;" width="113" x="917.5" y="33.5117"/><text fill="#000000" font-family="sans-serif" font-size="14" lengthAdjust="spacing" textLength="95" x="926.5" y="54.0469">jobRepository</text><text fill="#000000" font-family="sans-serif" font-size="14" lengthAdjust="spacing" textLength="99" x="924.5" y="70.5352">:JobRepository</text><rect fill="#E3E3E3" height="46.9766" rx="2.5" ry="2.5" style="stroke:#181818;stroke-width:0.5;" width="113" x="917.5" y="895.4746"/><text fill="#000000" font-family="sans-serif" font-size="14" lengthAdjust="spacing" textLength="95" x="926.5" y="916.0098">jobRepository</text><text fill="#000000" font-family="sans-serif" font-size="14" lengthAdjust="spacing" textLength="99" x="924.5" y="932.498">:JobRepository</text><rect fill="#E3E3E3" height="46.9766" rx="2.5" ry="2.5" style="stroke:#181818;stroke-width:0.5;" width="40" x="1137" y="895.4746"/><text fill="#000000" font-family="sans-serif" font-size="14" lengthAdjust="spacing" textLength="22" x="1146" y="916.0098">job</text><text fill="#000000" font-family="sans-serif" font-size="14" lengthAdjust="spacing" textLength="26" x="1144" y="932.498">:Job</text><rect fill="#FFFFFF" height="794.9863" style="stroke:#181818;stroke-width:1.0;" width="10" x="111.5" y="91.4883"/><rect fill="#FFFFFF" height="95.1094" style="stroke:#181818;stroke-width:1.0;" width="10" x="419.5" y="112.7988"/><rect fill="#FFFFFF" height="29.3105" style="stroke:#181818;stroke-width:1.0;" width="10" x="419.5" y="237.2188"/><rect fill="#FFFFFF" height="590.6348" style="stroke:#181818;stroke-width:1.0;" width="10" x="419.5" y="295.8398"/><rect fill="#FFFFFF" height="146.5527" style="stroke:#181818;stroke-width:1.0;" width="10" x="593.5" y="325.1504"/><rect fill="#FFFFFF" height="29.3105" style="stroke:#181818;stroke-width:1.0;" width="10" x="593.5" y="812.8535"/><rect fill="#FFFFFF" height="29.3105" style="stroke:#181818;stroke-width:1.0;" width="10" x="738" y="354.4609"/><rect fill="#FFFFFF" height="29.3105" style="stroke:#181818;stroke-width:1.0;" width="10" x="851" y="413.082"/><rect fill="#FFFFFF" height="341.1504" style="stroke:#181818;stroke-width:1.0;" width="10" x="969" y="471.7031"/><rect fill="#FFFFFF" height="124.9316" style="stroke:#181818;stroke-width:1.0;" width="10" x="974" y="651.6113"/><rect fill="#FFFFFF" height="40.3105" style="stroke:#181818;stroke-width:1.0;" width="10" x="979" y="693.9219"/><rect fill="#FFFFFF" height="138.5977" style="stroke:#181818;stroke-width:1.0;" width="10" x="1152" y="511.0137"/><rect fill="#FFFFFF" height="40.3105" style="stroke:#181818;stroke-width:1.0;" width="10" x="1157" y="566.9902"/><polygon fill="#181818" points="407.5,108.7988,417.5,112.7988,407.5,116.7988,411.5,112.7988" style="stroke:#181818;stroke-width:1.0;"/><line style="stroke:#181818;stroke-width:1.0;" x1="121.5" x2="413.5" y1="112.7988" y2="112.7988"/><text fill="#000000" font-family="sans-serif" font-size="13" font-weight="bold" lengthAdjust="spacing" textLength="9" x="128.5" y="108.0566">1</text><text fill="#000000" font-family="sans-serif" font-size="13" lengthAdjust="spacing" textLength="162" x="141.5" y="108.0566">asks to register a new job</text><polygon fill="#181818" points="503.5,138.1094,513.5,142.1094,503.5,146.1094,507.5,142.1094" style="stroke:#181818;stroke-width:1.0;"/><line style="stroke:#181818;stroke-width:1.0;" x1="429.5" x2="509.5" y1="142.1094" y2="142.1094"/><text fill="#000000" font-family="sans-serif" font-size="13" font-weight="bold" lengthAdjust="spacing" textLength="9" x="436.5" y="137.3672">2</text><text fill="#000000" font-family="sans-serif" font-size="13" lengthAdjust="spacing" textLength="38" x="449.5" y="137.3672">create</text><rect fill="#E3E3E3" height="30.4883" rx="2.5" ry="2.5" style="stroke:#181818;stroke-width:0.5;" width="166" x="515.5" y="120.7988"/><text fill="#000000" font-family="sans-serif" font-size="14" lengthAdjust="spacing" textLength="152" x="522.5" y="141.334">:RegisterJobController</text><path d="M10,169.2871 L84,169.2871 L84,176.5977 L74,186.5977 L10,186.5977 L10,169.2871 " fill="#EEEEEE" style="stroke:#000000;stroke-width:1.5;"/><rect fill="none" height="710.1875" style="stroke:#000000;stroke-width:1.5;" width="1367" x="10" y="169.2871"/><text fill="#000000" font-family="sans-serif" font-size="13" font-weight="bold" lengthAdjust="spacing" textLength="29" x="25" y="182.8555">loop</text><text fill="#000000" font-family="sans-serif" font-size="11" font-weight="bold" lengthAdjust="spacing" textLength="88" x="99" y="181.9219">[for every skill]</text><polygon fill="#181818" points="132.5,203.9082,122.5,207.9082,132.5,211.9082,128.5,207.9082" style="stroke:#181818;stroke-width:1.0;"/><line style="stroke:#181818;stroke-width:1.0;stroke-dasharray:2.0,2.0;" x1="126.5" x2="423.5" y1="207.9082" y2="207.9082"/><text fill="#000000" font-family="sans-serif" font-size="13" font-weight="bold" lengthAdjust="spacing" textLength="9" x="138.5" y="203.166">3</text><text fill="#000000" font-family="sans-serif" font-size="13" lengthAdjust="spacing" textLength="146" x="151.5" y="203.166">request data (jobName)</text><polygon fill="#181818" points="407.5,233.2188,417.5,237.2188,407.5,241.2188,411.5,237.2188" style="stroke:#181818;stroke-width:1.0;"/><line style="stroke:#181818;stroke-width:1.0;" x1="121.5" x2="413.5" y1="237.2188" y2="237.2188"/><text fill="#000000" font-family="sans-serif" font-size="13" font-weight="bold" lengthAdjust="spacing" textLength="9" x="128.5" y="232.4766">4</text><text fill="#000000" font-family="sans-serif" font-size="13" lengthAdjust="spacing" textLength="199" x="141.5" y="232.4766">types requested data (jobName)</text><polygon fill="#181818" points="132.5,262.5293,122.5,266.5293,132.5,270.5293,128.5,266.5293" style="stroke:#181818;stroke-width:1.0;"/><line style="stroke:#181818;stroke-width:1.0;stroke-dasharray:2.0,2.0;" x1="126.5" x2="423.5" y1="266.5293" y2="266.5293"/><text fill="#000000" font-family="sans-serif" font-size="13" font-weight="bold" lengthAdjust="spacing" textLength="9" x="138.5" y="261.7871">5</text><text fill="#000000" font-family="sans-serif" font-size="13" lengthAdjust="spacing" textLength="261" x="151.5" y="261.7871">show all data registered  for confirmation</text><polygon fill="#181818" points="407.5,291.8398,417.5,295.8398,407.5,299.8398,411.5,295.8398" style="stroke:#181818;stroke-width:1.0;"/><line style="stroke:#181818;stroke-width:1.0;" x1="121.5" x2="413.5" y1="295.8398" y2="295.8398"/><text fill="#000000" font-family="sans-serif" font-size="13" font-weight="bold" lengthAdjust="spacing" textLength="9" x="128.5" y="291.0977">6</text><text fill="#000000" font-family="sans-serif" font-size="13" lengthAdjust="spacing" textLength="82" x="141.5" y="291.0977">submits data</text><polygon fill="#181818" points="581.5,321.1504,591.5,325.1504,581.5,329.1504,585.5,325.1504" style="stroke:#181818;stroke-width:1.0;"/><line style="stroke:#181818;stroke-width:1.0;" x1="429.5" x2="587.5" y1="325.1504" y2="325.1504"/><text fill="#000000" font-family="sans-serif" font-size="13" font-weight="bold" lengthAdjust="spacing" textLength="9" x="436.5" y="320.4082">7</text><text fill="#000000" font-family="sans-serif" font-size="13" lengthAdjust="spacing" textLength="132" x="449.5" y="320.4082">registerJob(jobName)</text><polygon fill="#181818" points="726,350.4609,736,354.4609,726,358.4609,730,354.4609" style="stroke:#181818;stroke-width:1.0;"/><line style="stroke:#181818;stroke-width:1.0;" x1="603.5" x2="732" y1="354.4609" y2="354.4609"/><text fill="#000000" font-family="sans-serif" font-size="13" font-weight="bold" lengthAdjust="spacing" textLength="9" x="610.5" y="349.7188">8</text><text fill="#000000" font-family="sans-serif" font-size="13" lengthAdjust="spacing" textLength="81" x="623.5" y="349.7188">getInstance()</text><polygon fill="#181818" points="614.5,379.7715,604.5,383.7715,614.5,387.7715,610.5,383.7715" style="stroke:#181818;stroke-width:1.0;"/><line style="stroke:#181818;stroke-width:1.0;stroke-dasharray:2.0,2.0;" x1="608.5" x2="742" y1="383.7715" y2="383.7715"/><text fill="#000000" font-family="sans-serif" font-size="13" font-weight="bold" lengthAdjust="spacing" textLength="9" x="620.5" y="379.0293">9</text><text fill="#000000" font-family="sans-serif" font-size="13" lengthAdjust="spacing" textLength="75" x="633.5" y="379.0293">repositories</text><polygon fill="#181818" points="839,409.082,849,413.082,839,417.082,843,413.082" style="stroke:#181818;stroke-width:1.0;"/><line style="stroke:#181818;stroke-width:1.0;" x1="603.5" x2="845" y1="413.082" y2="413.082"/><text fill="#000000" font-family="sans-serif" font-size="13" font-weight="bold" lengthAdjust="spacing" textLength="18" x="610.5" y="408.3398">10</text><text fill="#000000" font-family="sans-serif" font-size="13" lengthAdjust="spacing" textLength="115" x="632.5" y="408.3398">getJobRepository()</text><polygon fill="#181818" points="614.5,438.3926,604.5,442.3926,614.5,446.3926,610.5,442.3926" style="stroke:#181818;stroke-width:1.0;"/><line style="stroke:#181818;stroke-width:1.0;stroke-dasharray:2.0,2.0;" x1="608.5" x2="855" y1="442.3926" y2="442.3926"/><text fill="#000000" font-family="sans-serif" font-size="13" font-weight="bold" lengthAdjust="spacing" textLength="18" x="620.5" y="437.6504">11</text><text fill="#000000" font-family="sans-serif" font-size="13" lengthAdjust="spacing" textLength="87" x="642.5" y="437.6504">jobRepository</text><polygon fill="#181818" points="957,467.7031,967,471.7031,957,475.7031,961,471.7031" style="stroke:#181818;stroke-width:1.0;"/><line style="stroke:#181818;stroke-width:1.0;" x1="598.5" x2="963" y1="471.7031" y2="471.7031"/><text fill="#000000" font-family="sans-serif" font-size="13" font-weight="bold" lengthAdjust="spacing" textLength="18" x="605.5" y="466.9609">12</text><text fill="#000000" font-family="sans-serif" font-size="13" lengthAdjust="spacing" textLength="132" x="627.5" y="466.9609">registerJob(jobName)</text><polygon fill="#181818" points="1125,497.0137,1135,501.0137,1125,505.0137,1129,501.0137" style="stroke:#181818;stroke-width:1.0;"/><line style="stroke:#181818;stroke-width:1.0;" x1="979" x2="1131" y1="501.0137" y2="501.0137"/><text fill="#000000" font-family="sans-serif" font-size="13" font-weight="bold" lengthAdjust="spacing" textLength="18" x="986" y="496.2715">13</text><text fill="#000000" font-family="sans-serif" font-size="13" lengthAdjust="spacing" textLength="112" x="1008" y="496.2715">register(jobName)</text><rect fill="#E3E3E3" height="46.9766" rx="2.5" ry="2.5" style="stroke:#181818;stroke-width:0.5;" width="40" x="1137" y="479.7031"/><text fill="#000000" font-family="sans-serif" font-size="14" lengthAdjust="spacing" textLength="22" x="1146" y="500.2383">job</text><text fill="#000000" font-family="sans-serif" font-size="14" lengthAdjust="spacing" textLength="26" x="1144" y="516.7266">:Job</text><line style="stroke:#181818;stroke-width:1.0;" x1="1162" x2="1209" y1="553.9902" y2="553.9902"/><line style="stroke:#181818;stroke-width:1.0;" x1="1209" x2="1209" y1="553.9902" y2="566.9902"/><line style="stroke:#181818;stroke-width:1.0;" x1="1168" x2="1209" y1="566.9902" y2="566.9902"/><polygon fill="#181818" points="1178,562.9902,1168,566.9902,1178,570.9902,1174,566.9902" style="stroke:#181818;stroke-width:1.0;"/><text fill="#000000" font-family="sans-serif" font-size="13" font-weight="bold" lengthAdjust="spacing" textLength="18" x="1174" y="549.248">14</text><text fill="#000000" font-family="sans-serif" font-size="13" lengthAdjust="spacing" textLength="169" x="1196" y="549.248">validateJobName(jobName)</text><line style="stroke:#181818;stroke-width:1.0;stroke-dasharray:2.0,2.0;" x1="1167" x2="1209" y1="606.3008" y2="606.3008"/><line style="stroke:#181818;stroke-width:1.0;stroke-dasharray:2.0,2.0;" x1="1209" x2="1209" y1="606.3008" y2="619.3008"/><line style="stroke:#181818;stroke-width:1.0;stroke-dasharray:2.0,2.0;" x1="1162" x2="1209" y1="619.3008" y2="619.3008"/><polygon fill="#181818" points="1172,615.3008,1162,619.3008,1172,623.3008,1168,619.3008" style="stroke:#181818;stroke-width:1.0;"/><text fill="#000000" font-family="sans-serif" font-size="13" font-weight="bold" lengthAdjust="spacing" textLength="18" x="1174" y="601.5586">15</text><text fill="#000000" font-family="sans-serif" font-size="13" lengthAdjust="spacing" textLength="4" x="1196" y="601.5586">&#160;</text><line style="stroke:#181818;stroke-width:1.0;" x1="984" x2="1026" y1="643.6113" y2="643.6113"/><line style="stroke:#181818;stroke-width:1.0;" x1="1026" x2="1026" y1="643.6113" y2="656.6113"/><line style="stroke:#181818;stroke-width:1.0;" x1="985" x2="1026" y1="656.6113" y2="656.6113"/><polygon fill="#181818" points="995,652.6113,985,656.6113,995,660.6113,991,656.6113" style="stroke:#181818;stroke-width:1.0;"/><text fill="#000000" font-family="sans-serif" font-size="13" font-weight="bold" lengthAdjust="spacing" textLength="18" x="991" y="638.8691">16</text><text fill="#000000" font-family="sans-serif" font-size="13" lengthAdjust="spacing" textLength="71" x="1013" y="638.8691">addJob(job)</text><line style="stroke:#181818;stroke-width:1.0;" x1="984" x2="1031" y1="680.9219" y2="680.9219"/><line style="stroke:#181818;stroke-width:1.0;" x1="1031" x2="1031" y1="680.9219" y2="693.9219"/><line style="stroke:#181818;stroke-width:1.0;" x1="990" x2="1031" y1="693.9219" y2="693.9219"/><polygon fill="#181818" points="1000,689.9219,990,693.9219,1000,697.9219,996,693.9219" style="stroke:#181818;stroke-width:1.0;"/><text fill="#000000" font-family="sans-serif" font-size="13" font-weight="bold" lengthAdjust="spacing" textLength="18" x="996" y="676.1797">17</text><text fill="#000000" font-family="sans-serif" font-size="13" lengthAdjust="spacing" textLength="97" x="1018" y="676.1797">validateJob(job)</text><line style="stroke:#181818;stroke-width:1.0;stroke-dasharray:2.0,2.0;" x1="989" x2="1031" y1="733.2324" y2="733.2324"/><line style="stroke:#181818;stroke-width:1.0;stroke-dasharray:2.0,2.0;" x1="1031" x2="1031" y1="733.2324" y2="746.2324"/><line style="stroke:#181818;stroke-width:1.0;stroke-dasharray:2.0,2.0;" x1="984" x2="1031" y1="746.2324" y2="746.2324"/><polygon fill="#181818" points="994,742.2324,984,746.2324,994,750.2324,990,746.2324" style="stroke:#181818;stroke-width:1.0;"/><text fill="#000000" font-family="sans-serif" font-size="13" font-weight="bold" lengthAdjust="spacing" textLength="18" x="996" y="728.4902">18</text><text fill="#000000" font-family="sans-serif" font-size="13" lengthAdjust="spacing" textLength="4" x="1018" y="728.4902">&#160;</text><line style="stroke:#181818;stroke-width:1.0;stroke-dasharray:2.0,2.0;" x1="984" x2="1026" y1="775.543" y2="775.543"/><line style="stroke:#181818;stroke-width:1.0;stroke-dasharray:2.0,2.0;" x1="1026" x2="1026" y1="775.543" y2="788.543"/><line style="stroke:#181818;stroke-width:1.0;stroke-dasharray:2.0,2.0;" x1="979" x2="1026" y1="788.543" y2="788.543"/><polygon fill="#181818" points="989,784.543,979,788.543,989,792.543,985,788.543" style="stroke:#181818;stroke-width:1.0;"/><text fill="#000000" font-family="sans-serif" font-size="13" font-weight="bold" lengthAdjust="spacing" textLength="18" x="991" y="770.8008">19</text><text fill="#000000" font-family="sans-serif" font-size="13" lengthAdjust="spacing" textLength="4" x="1013" y="770.8008">&#160;</text><polygon fill="#181818" points="614.5,808.8535,604.5,812.8535,614.5,816.8535,610.5,812.8535" style="stroke:#181818;stroke-width:1.0;"/><line style="stroke:#181818;stroke-width:1.0;stroke-dasharray:2.0,2.0;" x1="608.5" x2="973" y1="812.8535" y2="812.8535"/><text fill="#000000" font-family="sans-serif" font-size="13" font-weight="bold" lengthAdjust="spacing" textLength="18" x="620.5" y="808.1113">20</text><text fill="#000000" font-family="sans-serif" font-size="13" lengthAdjust="spacing" textLength="20" x="642.5" y="808.1113">job</text><polygon fill="#181818" points="440.5,838.1641,430.5,842.1641,440.5,846.1641,436.5,842.1641" style="stroke:#181818;stroke-width:1.0;"/><line style="stroke:#181818;stroke-width:1.0;stroke-dasharray:2.0,2.0;" x1="434.5" x2="597.5" y1="842.1641" y2="842.1641"/><text fill="#000000" font-family="sans-serif" font-size="13" font-weight="bold" lengthAdjust="spacing" textLength="18" x="446.5" y="837.4219">21</text><text fill="#000000" font-family="sans-serif" font-size="13" lengthAdjust="spacing" textLength="20" x="468.5" y="837.4219">job</text><polygon fill="#181818" points="132.5,867.4746,122.5,871.4746,132.5,875.4746,128.5,871.4746" style="stroke:#181818;stroke-width:1.0;"/><line style="stroke:#181818;stroke-width:1.0;stroke-dasharray:2.0,2.0;" x1="126.5" x2="418.5" y1="871.4746" y2="871.4746"/><text fill="#000000" font-family="sans-serif" font-size="13" font-weight="bold" lengthAdjust="spacing" textLength="18" x="138.5" y="866.7324">22</text><text fill="#000000" font-family="sans-serif" font-size="13" lengthAdjust="spacing" textLength="239" x="160.5" y="866.7324">displays the success of the operation.</text><!--SRC=[lLRBRjim4BppAnQ-D36GVe0F1OeWQ6p4RU0ajrveQIspfaYLfEpwxxkYP4dK8tRWehn9t9aTpYuVTYTKnWrF8TLAHrkZKmHdScIsdibujEC9lhYZH30OEQuIsGwmMnxhWr09RBYqo1ZFdLPvkaR3sAUjY14sMhkr_iDuvBI1oMEUSWKhj3et4LfOSaKPp0IuXSVLaX6l4v78k78mcQqm4TQXMUZrszp7lCt7G-wrSaPBMT7TlwwUUi6PjeA42BG-flvnV175saXz234jn4_L9tX- -leQ8dxfTSDAa4NxssE2Y1wuXFZ0X-Npwk7R3rQO9_RSeRU8GJNe0-w-a2Kme-YT1QUfIgKTm47XeKZ56a1DGoxMFmbE98LPqoaHHGOfWa1IwuogPm3tQ8v0HPUo1fs0X2nKp2ZlxnojWvWx3ZUKzZjFyRQEZp78pRhotJ6ZPgX8C1wY6HLVQx1RVG0kPOa-EK5iVXcHLXjXKku4rNX4rv2pDb-dmbbF6go_lwA-fTwPka7xlWGylc63AKz1L0DjIim9khcoj2aZl1cX7Ehl87A8-QuINsXlsZs0jNmxc-AqY6AhbAg3BJ4ctU-iOCeJDEB2RJIYhi_IbXHGN52g3halM7U-dWtriRwA8A2GK-ttwRIHqkWOJrGV4p0mgiaMFTLWpwMWViP5IJw-sC4yC3BgL4skzzmxH_UkLPtAyJYkYdRxhrAEr14k7ESKjqfGohwO-KfX0-AwwYxcQbdRwVR_gUGw5Nq5rS5Tt9rNfVzGCVk7VtDG-QjeMD2vqwYv86SG2vj9VgHtmXRfMele_ML1R_odpj3ug_4pGnMFt8-TFyLZv2y0]--></g></svg>