<?xml version="1.0" encoding="us-ascii" standalone="no"?><svg xmlns="http://www.w3.org/2000/svg" xmlns:xlink="http://www.w3.org/1999/xlink" contentStyleType="text/css" height="860px" preserveAspectRatio="none" style="width:1374px;height:860px;background:#FFFFFF;" version="1.1" viewBox="0 0 1374 860" width="1374px" zoomAndPan="magnify"><defs/><g><rect fill="#FFFFFF" height="677.7441" style="stroke:#181818;stroke-width:1.0;" width="10" x="111.5" y="91.4883"/><rect fill="#FFFFFF" height="95.1094" style="stroke:#181818;stroke-width:1.0;" width="10" x="419.5" y="112.7988"/><rect fill="#FFFFFF" height="29.3105" style="stroke:#181818;stroke-width:1.0;" width="10" x="419.5" y="237.2188"/><rect fill="#FFFFFF" height="473.3926" style="stroke:#181818;stroke-width:1.0;" width="10" x="419.5" y="295.8398"/><rect fill="#FFFFFF" height="29.3105" style="stroke:#181818;stroke-width:1.0;" width="10" x="593.5" y="325.1504"/><rect fill="#FFFFFF" height="29.3105" style="stroke:#181818;stroke-width:1.0;" width="10" x="593.5" y="695.6113"/><rect fill="#FFFFFF" height="341.1504" style="stroke:#181818;stroke-width:1.0;" width="10" x="969" y="354.4609"/><rect fill="#FFFFFF" height="124.9316" style="stroke:#181818;stroke-width:1.0;" width="10" x="974" y="534.3691"/><rect fill="#FFFFFF" height="40.3105" style="stroke:#181818;stroke-width:1.0;" width="10" x="979" y="576.6797"/><rect fill="#FFFFFF" height="138.5977" style="stroke:#181818;stroke-width:1.0;" width="10" x="1143" y="393.7715"/><rect fill="#FFFFFF" height="40.3105" style="stroke:#181818;stroke-width:1.0;" width="10" x="1148" y="449.748"/><rect fill="none" height="592.9453" style="stroke:#000000;stroke-width:1.5;" width="1358" x="10" y="169.2871"/><line style="stroke:#181818;stroke-width:0.5;stroke-dasharray:5.0,5.0;" x1="116" x2="116" y1="81.4883" y2="779.2324"/><line style="stroke:#181818;stroke-width:0.5;stroke-dasharray:5.0,5.0;" x1="424.5" x2="424.5" y1="81.4883" y2="779.2324"/><line style="stroke:#181818;stroke-width:0.5;stroke-dasharray:5.0,5.0;" x1="598.5" x2="598.5" y1="151.543" y2="779.2324"/><line style="stroke:#181818;stroke-width:0.5;stroke-dasharray:5.0,5.0;" x1="742.5" x2="742.5" y1="81.4883" y2="779.2324"/><line style="stroke:#181818;stroke-width:0.5;stroke-dasharray:5.0,5.0;" x1="855.5" x2="855.5" y1="81.4883" y2="779.2324"/><line style="stroke:#181818;stroke-width:0.5;stroke-dasharray:5.0,5.0;" x1="973.5" x2="973.5" y1="81.4883" y2="779.2324"/><line style="stroke:#181818;stroke-width:0.5;stroke-dasharray:5.0,5.0;" x1="1148" x2="1148" y1="401.4492" y2="779.2324"/><text fill="#000000" font-family="sans-serif" font-size="14" lengthAdjust="spacing" textLength="187" x="20" y="78.5352">Human Resources Manager</text><ellipse cx="116.5" cy="13.5" fill="#E3E3E3" rx="8" ry="8" style="stroke:#181818;stroke-width:0.5;"/><path d="M116.5,21.5 L116.5,48.5 M103.5,29.5 L129.5,29.5 M116.5,48.5 L103.5,63.5 M116.5,48.5 L129.5,63.5 " fill="none" style="stroke:#181818;stroke-width:0.5;"/><text fill="#000000" font-family="sans-serif" font-size="14" lengthAdjust="spacing" textLength="187" x="20" y="791.7676">Human Resources Manager</text><ellipse cx="116.5" cy="803.2207" fill="#E3E3E3" rx="8" ry="8" style="stroke:#181818;stroke-width:0.5;"/><path d="M116.5,811.2207 L116.5,838.2207 M103.5,819.2207 L129.5,819.2207 M116.5,838.2207 L103.5,853.2207 M116.5,838.2207 L129.5,853.2207 " fill="none" style="stroke:#181818;stroke-width:0.5;"/><rect fill="#E3E3E3" height="30.4883" rx="2.5" ry="2.5" style="stroke:#181818;stroke-width:0.5;" width="110" x="369.5" y="50"/><text fill="#000000" font-family="sans-serif" font-size="14" lengthAdjust="spacing" textLength="96" x="376.5" y="70.5352">:RegisterJobUI</text><rect fill="#E3E3E3" height="30.4883" rx="2.5" ry="2.5" style="stroke:#181818;stroke-width:0.5;" width="110" x="369.5" y="778.2324"/><text fill="#000000" font-family="sans-serif" font-size="14" lengthAdjust="spacing" textLength="96" x="376.5" y="798.7676">:RegisterJobUI</text><rect fill="#E3E3E3" height="30.4883" rx="2.5" ry="2.5" style="stroke:#181818;stroke-width:0.5;" width="166" x="515.5" y="778.2324"/><text fill="#000000" font-family="sans-serif" font-size="14" lengthAdjust="spacing" textLength="152" x="522.5" y="798.7676">:RegisterJobController</text><rect fill="#E3E3E3" height="30.4883" rx="2.5" ry="2.5" style="stroke:#181818;stroke-width:0.5;" width="103" x="691.5" y="50"/><text fill="#000000" font-family="sans-serif" font-size="14" lengthAdjust="spacing" textLength="89" x="698.5" y="70.5352">:Repositories</text><rect fill="#E3E3E3" height="30.4883" rx="2.5" ry="2.5" style="stroke:#181818;stroke-width:0.5;" width="103" x="691.5" y="778.2324"/><text fill="#000000" font-family="sans-serif" font-size="14" lengthAdjust="spacing" textLength="89" x="698.5" y="798.7676">:Repositories</text><rect fill="#E3E3E3" height="46.9766" rx="2.5" ry="2.5" style="stroke:#181818;stroke-width:0.5;" width="103" x="804.5" y="33.5117"/><text fill="#000000" font-family="sans-serif" font-size="14" lengthAdjust="spacing" textLength="82" x="815" y="54.0469">repositories</text><text fill="#000000" font-family="sans-serif" font-size="14" lengthAdjust="spacing" textLength="89" x="811.5" y="70.5352">:Repositories</text><rect fill="#E3E3E3" height="46.9766" rx="2.5" ry="2.5" style="stroke:#181818;stroke-width:0.5;" width="103" x="804.5" y="778.2324"/><text fill="#000000" font-family="sans-serif" font-size="14" lengthAdjust="spacing" textLength="82" x="815" y="798.7676">repositories</text><text fill="#000000" font-family="sans-serif" font-size="14" lengthAdjust="spacing" textLength="89" x="811.5" y="815.2559">:Repositories</text><rect fill="#E3E3E3" height="46.9766" rx="2.5" ry="2.5" style="stroke:#181818;stroke-width:0.5;" width="113" x="917.5" y="33.5117"/><text fill="#000000" font-family="sans-serif" font-size="14" lengthAdjust="spacing" textLength="95" x="926.5" y="54.0469">jobRepository</text><text fill="#000000" font-family="sans-serif" font-size="14" lengthAdjust="spacing" textLength="99" x="924.5" y="70.5352">:JobRepository</text><rect fill="#E3E3E3" height="46.9766" rx="2.5" ry="2.5" style="stroke:#181818;stroke-width:0.5;" width="113" x="917.5" y="778.2324"/><text fill="#000000" font-family="sans-serif" font-size="14" lengthAdjust="spacing" textLength="95" x="926.5" y="798.7676">jobRepository</text><text fill="#000000" font-family="sans-serif" font-size="14" lengthAdjust="spacing" textLength="99" x="924.5" y="815.2559">:JobRepository</text><rect fill="#E3E3E3" height="46.9766" rx="2.5" ry="2.5" style="stroke:#181818;stroke-width:0.5;" width="40" x="1128" y="778.2324"/><text fill="#000000" font-family="sans-serif" font-size="14" lengthAdjust="spacing" textLength="22" x="1137" y="798.7676">job</text><text fill="#000000" font-family="sans-serif" font-size="14" lengthAdjust="spacing" textLength="26" x="1135" y="815.2559">:Job</text><rect fill="#FFFFFF" height="677.7441" style="stroke:#181818;stroke-width:1.0;" width="10" x="111.5" y="91.4883"/><rect fill="#FFFFFF" height="95.1094" style="stroke:#181818;stroke-width:1.0;" width="10" x="419.5" y="112.7988"/><rect fill="#FFFFFF" height="29.3105" style="stroke:#181818;stroke-width:1.0;" width="10" x="419.5" y="237.2188"/><rect fill="#FFFFFF" height="473.3926" style="stroke:#181818;stroke-width:1.0;" width="10" x="419.5" y="295.8398"/><rect fill="#FFFFFF" height="29.3105" style="stroke:#181818;stroke-width:1.0;" width="10" x="593.5" y="325.1504"/><rect fill="#FFFFFF" height="29.3105" style="stroke:#181818;stroke-width:1.0;" width="10" x="593.5" y="695.6113"/><rect fill="#FFFFFF" height="341.1504" style="stroke:#181818;stroke-width:1.0;" width="10" x="969" y="354.4609"/><rect fill="#FFFFFF" height="124.9316" style="stroke:#181818;stroke-width:1.0;" width="10" x="974" y="534.3691"/><rect fill="#FFFFFF" height="40.3105" style="stroke:#181818;stroke-width:1.0;" width="10" x="979" y="576.6797"/><rect fill="#FFFFFF" height="138.5977" style="stroke:#181818;stroke-width:1.0;" width="10" x="1143" y="393.7715"/><rect fill="#FFFFFF" height="40.3105" style="stroke:#181818;stroke-width:1.0;" width="10" x="1148" y="449.748"/><polygon fill="#181818" points="407.5,108.7988,417.5,112.7988,407.5,116.7988,411.5,112.7988" style="stroke:#181818;stroke-width:1.0;"/><line style="stroke:#181818;stroke-width:1.0;" x1="121.5" x2="413.5" y1="112.7988" y2="112.7988"/><text fill="#000000" font-family="sans-serif" font-size="13" font-weight="bold" lengthAdjust="spacing" textLength="9" x="128.5" y="108.0566">1</text><text fill="#000000" font-family="sans-serif" font-size="13" lengthAdjust="spacing" textLength="162" x="141.5" y="108.0566">asks to register a new job</text><polygon fill="#181818" points="503.5,138.1094,513.5,142.1094,503.5,146.1094,507.5,142.1094" style="stroke:#181818;stroke-width:1.0;"/><line style="stroke:#181818;stroke-width:1.0;" x1="429.5" x2="509.5" y1="142.1094" y2="142.1094"/><text fill="#000000" font-family="sans-serif" font-size="13" font-weight="bold" lengthAdjust="spacing" textLength="9" x="436.5" y="137.3672">2</text><text fill="#000000" font-family="sans-serif" font-size="13" lengthAdjust="spacing" textLength="38" x="449.5" y="137.3672">create</text><rect fill="#E3E3E3" height="30.4883" rx="2.5" ry="2.5" style="stroke:#181818;stroke-width:0.5;" width="166" x="515.5" y="120.7988"/><text fill="#000000" font-family="sans-serif" font-size="14" lengthAdjust="spacing" textLength="152" x="522.5" y="141.334">:RegisterJobController</text><path d="M10,169.2871 L84,169.2871 L84,176.5977 L74,186.5977 L10,186.5977 L10,169.2871 " fill="#EEEEEE" style="stroke:#000000;stroke-width:1.5;"/><rect fill="none" height="592.9453" style="stroke:#000000;stroke-width:1.5;" width="1358" x="10" y="169.2871"/><text fill="#000000" font-family="sans-serif" font-size="13" font-weight="bold" lengthAdjust="spacing" textLength="29" x="25" y="182.8555">loop</text><text fill="#000000" font-family="sans-serif" font-size="11" font-weight="bold" lengthAdjust="spacing" textLength="88" x="99" y="181.9219">[for every skill]</text><polygon fill="#181818" points="132.5,203.9082,122.5,207.9082,132.5,211.9082,128.5,207.9082" style="stroke:#181818;stroke-width:1.0;"/><line style="stroke:#181818;stroke-width:1.0;stroke-dasharray:2.0,2.0;" x1="126.5" x2="423.5" y1="207.9082" y2="207.9082"/><text fill="#000000" font-family="sans-serif" font-size="13" font-weight="bold" lengthAdjust="spacing" textLength="9" x="138.5" y="203.166">3</text><text fill="#000000" font-family="sans-serif" font-size="13" lengthAdjust="spacing" textLength="146" x="151.5" y="203.166">request data (jobName)</text><polygon fill="#181818" points="407.5,233.2188,417.5,237.2188,407.5,241.2188,411.5,237.2188" style="stroke:#181818;stroke-width:1.0;"/><line style="stroke:#181818;stroke-width:1.0;" x1="121.5" x2="413.5" y1="237.2188" y2="237.2188"/><text fill="#000000" font-family="sans-serif" font-size="13" font-weight="bold" lengthAdjust="spacing" textLength="9" x="128.5" y="232.4766">4</text><text fill="#000000" font-family="sans-serif" font-size="13" lengthAdjust="spacing" textLength="199" x="141.5" y="232.4766">types requested data (jobName)</text><polygon fill="#181818" points="132.5,262.5293,122.5,266.5293,132.5,270.5293,128.5,266.5293" style="stroke:#181818;stroke-width:1.0;"/><line style="stroke:#181818;stroke-width:1.0;stroke-dasharray:2.0,2.0;" x1="126.5" x2="423.5" y1="266.5293" y2="266.5293"/><text fill="#000000" font-family="sans-serif" font-size="13" font-weight="bold" lengthAdjust="spacing" textLength="9" x="138.5" y="261.7871">5</text><text fill="#000000" font-family="sans-serif" font-size="13" lengthAdjust="spacing" textLength="261" x="151.5" y="261.7871">show all data registered  for confirmation</text><polygon fill="#181818" points="407.5,291.8398,417.5,295.8398,407.5,299.8398,411.5,295.8398" style="stroke:#181818;stroke-width:1.0;"/><line style="stroke:#181818;stroke-width:1.0;" x1="121.5" x2="413.5" y1="295.8398" y2="295.8398"/><text fill="#000000" font-family="sans-serif" font-size="13" font-weight="bold" lengthAdjust="spacing" textLength="9" x="128.5" y="291.0977">6</text><text fill="#000000" font-family="sans-serif" font-size="13" lengthAdjust="spacing" textLength="82" x="141.5" y="291.0977">submits data</text><polygon fill="#181818" points="581.5,321.1504,591.5,325.1504,581.5,329.1504,585.5,325.1504" style="stroke:#181818;stroke-width:1.0;"/><line style="stroke:#181818;stroke-width:1.0;" x1="429.5" x2="587.5" y1="325.1504" y2="325.1504"/><text fill="#000000" font-family="sans-serif" font-size="13" font-weight="bold" lengthAdjust="spacing" textLength="9" x="436.5" y="320.4082">7</text><text fill="#000000" font-family="sans-serif" font-size="13" lengthAdjust="spacing" textLength="132" x="449.5" y="320.4082">registerJob(jobName)</text><polygon fill="#181818" points="957,350.4609,967,354.4609,957,358.4609,961,354.4609" style="stroke:#181818;stroke-width:1.0;"/><line style="stroke:#181818;stroke-width:1.0;" x1="598.5" x2="963" y1="354.4609" y2="354.4609"/><text fill="#000000" font-family="sans-serif" font-size="13" font-weight="bold" lengthAdjust="spacing" textLength="9" x="605.5" y="349.7188">8</text><text fill="#000000" font-family="sans-serif" font-size="13" lengthAdjust="spacing" textLength="132" x="618.5" y="349.7188">registerJob(jobName)</text><polygon fill="#181818" points="1116,379.7715,1126,383.7715,1116,387.7715,1120,383.7715" style="stroke:#181818;stroke-width:1.0;"/><line style="stroke:#181818;stroke-width:1.0;" x1="979" x2="1122" y1="383.7715" y2="383.7715"/><text fill="#000000" font-family="sans-serif" font-size="13" font-weight="bold" lengthAdjust="spacing" textLength="9" x="986" y="379.0293">9</text><text fill="#000000" font-family="sans-serif" font-size="13" lengthAdjust="spacing" textLength="112" x="999" y="379.0293">register(jobName)</text><rect fill="#E3E3E3" height="46.9766" rx="2.5" ry="2.5" style="stroke:#181818;stroke-width:0.5;" width="40" x="1128" y="362.4609"/><text fill="#000000" font-family="sans-serif" font-size="14" lengthAdjust="spacing" textLength="22" x="1137" y="382.9961">job</text><text fill="#000000" font-family="sans-serif" font-size="14" lengthAdjust="spacing" textLength="26" x="1135" y="399.4844">:Job</text><line style="stroke:#181818;stroke-width:1.0;" x1="1153" x2="1200" y1="436.748" y2="436.748"/><line style="stroke:#181818;stroke-width:1.0;" x1="1200" x2="1200" y1="436.748" y2="449.748"/><line style="stroke:#181818;stroke-width:1.0;" x1="1159" x2="1200" y1="449.748" y2="449.748"/><polygon fill="#181818" points="1169,445.748,1159,449.748,1169,453.748,1165,449.748" style="stroke:#181818;stroke-width:1.0;"/><text fill="#000000" font-family="sans-serif" font-size="13" font-weight="bold" lengthAdjust="spacing" textLength="18" x="1165" y="432.0059">10</text><text fill="#000000" font-family="sans-serif" font-size="13" lengthAdjust="spacing" textLength="169" x="1187" y="432.0059">validateJobName(jobName)</text><line style="stroke:#181818;stroke-width:1.0;stroke-dasharray:2.0,2.0;" x1="1158" x2="1200" y1="489.0586" y2="489.0586"/><line style="stroke:#181818;stroke-width:1.0;stroke-dasharray:2.0,2.0;" x1="1200" x2="1200" y1="489.0586" y2="502.0586"/><line style="stroke:#181818;stroke-width:1.0;stroke-dasharray:2.0,2.0;" x1="1153" x2="1200" y1="502.0586" y2="502.0586"/><polygon fill="#181818" points="1163,498.0586,1153,502.0586,1163,506.0586,1159,502.0586" style="stroke:#181818;stroke-width:1.0;"/><text fill="#000000" font-family="sans-serif" font-size="13" font-weight="bold" lengthAdjust="spacing" textLength="18" x="1165" y="484.3164">11</text><text fill="#000000" font-family="sans-serif" font-size="13" lengthAdjust="spacing" textLength="4" x="1187" y="484.3164">&#160;</text><line style="stroke:#181818;stroke-width:1.0;" x1="984" x2="1026" y1="526.3691" y2="526.3691"/><line style="stroke:#181818;stroke-width:1.0;" x1="1026" x2="1026" y1="526.3691" y2="539.3691"/><line style="stroke:#181818;stroke-width:1.0;" x1="985" x2="1026" y1="539.3691" y2="539.3691"/><polygon fill="#181818" points="995,535.3691,985,539.3691,995,543.3691,991,539.3691" style="stroke:#181818;stroke-width:1.0;"/><text fill="#000000" font-family="sans-serif" font-size="13" font-weight="bold" lengthAdjust="spacing" textLength="18" x="991" y="521.627">12</text><text fill="#000000" font-family="sans-serif" font-size="13" lengthAdjust="spacing" textLength="71" x="1013" y="521.627">addJob(job)</text><line style="stroke:#181818;stroke-width:1.0;" x1="984" x2="1031" y1="563.6797" y2="563.6797"/><line style="stroke:#181818;stroke-width:1.0;" x1="1031" x2="1031" y1="563.6797" y2="576.6797"/><line style="stroke:#181818;stroke-width:1.0;" x1="990" x2="1031" y1="576.6797" y2="576.6797"/><polygon fill="#181818" points="1000,572.6797,990,576.6797,1000,580.6797,996,576.6797" style="stroke:#181818;stroke-width:1.0;"/><text fill="#000000" font-family="sans-serif" font-size="13" font-weight="bold" lengthAdjust="spacing" textLength="18" x="996" y="558.9375">13</text><text fill="#000000" font-family="sans-serif" font-size="13" lengthAdjust="spacing" textLength="97" x="1018" y="558.9375">validateJob(job)</text><line style="stroke:#181818;stroke-width:1.0;stroke-dasharray:2.0,2.0;" x1="989" x2="1031" y1="615.9902" y2="615.9902"/><line style="stroke:#181818;stroke-width:1.0;stroke-dasharray:2.0,2.0;" x1="1031" x2="1031" y1="615.9902" y2="628.9902"/><line style="stroke:#181818;stroke-width:1.0;stroke-dasharray:2.0,2.0;" x1="984" x2="1031" y1="628.9902" y2="628.9902"/><polygon fill="#181818" points="994,624.9902,984,628.9902,994,632.9902,990,628.9902" style="stroke:#181818;stroke-width:1.0;"/><text fill="#000000" font-family="sans-serif" font-size="13" font-weight="bold" lengthAdjust="spacing" textLength="18" x="996" y="611.248">14</text><text fill="#000000" font-family="sans-serif" font-size="13" lengthAdjust="spacing" textLength="4" x="1018" y="611.248">&#160;</text><line style="stroke:#181818;stroke-width:1.0;stroke-dasharray:2.0,2.0;" x1="984" x2="1026" y1="658.3008" y2="658.3008"/><line style="stroke:#181818;stroke-width:1.0;stroke-dasharray:2.0,2.0;" x1="1026" x2="1026" y1="658.3008" y2="671.3008"/><line style="stroke:#181818;stroke-width:1.0;stroke-dasharray:2.0,2.0;" x1="979" x2="1026" y1="671.3008" y2="671.3008"/><polygon fill="#181818" points="989,667.3008,979,671.3008,989,675.3008,985,671.3008" style="stroke:#181818;stroke-width:1.0;"/><text fill="#000000" font-family="sans-serif" font-size="13" font-weight="bold" lengthAdjust="spacing" textLength="18" x="991" y="653.5586">15</text><text fill="#000000" font-family="sans-serif" font-size="13" lengthAdjust="spacing" textLength="4" x="1013" y="653.5586">&#160;</text><polygon fill="#181818" points="614.5,691.6113,604.5,695.6113,614.5,699.6113,610.5,695.6113" style="stroke:#181818;stroke-width:1.0;"/><line style="stroke:#181818;stroke-width:1.0;stroke-dasharray:2.0,2.0;" x1="608.5" x2="973" y1="695.6113" y2="695.6113"/><text fill="#000000" font-family="sans-serif" font-size="13" font-weight="bold" lengthAdjust="spacing" textLength="18" x="620.5" y="690.8691">16</text><text fill="#000000" font-family="sans-serif" font-size="13" lengthAdjust="spacing" textLength="20" x="642.5" y="690.8691">job</text><polygon fill="#181818" points="440.5,720.9219,430.5,724.9219,440.5,728.9219,436.5,724.9219" style="stroke:#181818;stroke-width:1.0;"/><line style="stroke:#181818;stroke-width:1.0;stroke-dasharray:2.0,2.0;" x1="434.5" x2="597.5" y1="724.9219" y2="724.9219"/><text fill="#000000" font-family="sans-serif" font-size="13" font-weight="bold" lengthAdjust="spacing" textLength="18" x="446.5" y="720.1797">17</text><text fill="#000000" font-family="sans-serif" font-size="13" lengthAdjust="spacing" textLength="20" x="468.5" y="720.1797">job</text><polygon fill="#181818" points="132.5,750.2324,122.5,754.2324,132.5,758.2324,128.5,754.2324" style="stroke:#181818;stroke-width:1.0;"/><line style="stroke:#181818;stroke-width:1.0;stroke-dasharray:2.0,2.0;" x1="126.5" x2="418.5" y1="754.2324" y2="754.2324"/><text fill="#000000" font-family="sans-serif" font-size="13" font-weight="bold" lengthAdjust="spacing" textLength="18" x="138.5" y="749.4902">18</text><text fill="#000000" font-family="sans-serif" font-size="13" lengthAdjust="spacing" textLength="239" x="160.5" y="749.4902">displays the success of the operation.</text><!--SRC=[lLPDRzim3BthLn2vR0tG_O0S1Wn5iJPejY9jRximDfEeaILFafFbtu-MNN-xoP2XkadYUtnw96YxdTGfMamWCTf4MsiI0cyp4gwwIJ7QuOQU_54HM8eywerg1hWjnkOWzGRMg1m9WPatEajMP8Nuj9KnmTeOlp9_14RUM9ZSPGbgM98pcOt8mG8rPx0JG0TtouLWNYyZcQBsC9ajQIET9pitgvVx4FDoFnvoOxItHgcIxkPv-T0BJesJB4II2p7LmV59vczZzMs8RI1-wJx1uyEtvpRYrQngLeRCc_k0QKNqm0Ka1Duk7fUttt-At3ovHq_18W7buWrSVsLBOCRHEmVUS9KAEm11qo5F9Mf0HSCkLeSCPvBShEcKYI9B7C4WPKpArRD0Ux97uA8hLO7UW8pCLSmux- -Cd8SOFS9dJli34xggucDgvHPT-VwOSZEK91GFqOoAhpIuhJa0AbMWtvnWjl2CoEYrj0bwoJKUqJNahCjMYVGkaBRUttzHtzBWJDMWVLzQFA5Xsqpv2ZpCrsgRCtWxxmlitVlgjjsJ0ofQ0RcSiZcdqrfAhMCyKTNJCB3AomOz6xX79TbycXVauuyTp0CZgqfLvthFlLDqxrhLgHp6SLcqg_-LSgIESEOwfRXHWaBssSmN2XiGrrLtDbV3sawtVwIIorJq5PHJ9X_q5wN_fs8MasfuK8MvEIper3Igf_aCOkbIXKV-g6s9Pt34FmiEp3fiJKespF4lWdGyCimx9_cNyoy0]--></g></svg>