<?xml version="1.0" encoding="us-ascii" standalone="no"?><svg xmlns="http://www.w3.org/2000/svg" xmlns:xlink="http://www.w3.org/1999/xlink" contentStyleType="text/css" height="1833.7px" preserveAspectRatio="none" style="width:2649px;height:1833px;background:#FFFFFF;" version="1.1" viewBox="0 0 2649 1833" width="2649.9px" zoomAndPan="magnify"><defs/><g><text fill="#000000" font-family="sans-serif" font-size="15.4" font-weight="bold" lengthAdjust="spacing" textLength="346.5" x="1150.875" y="33.1182">UI Sequence Diagram (SSD) - Alternative One</text><rect fill="#FFFFFF" height="1586.4342" style="stroke:#181818;stroke-width:1.1;" width="11" x="82.5" y="146.5664"/><rect fill="#FFFFFF" height="855.5057" style="stroke:#181818;stroke-width:1.1;" width="11" x="512.6" y="172.1865"/><rect fill="#FFFFFF" height="53.4402" style="stroke:#181818;stroke-width:1.1;" width="11" x="512.6" y="1062.1123"/><rect fill="#FFFFFF" height="573.1279" style="stroke:#181818;stroke-width:1.1;" width="11" x="512.6" y="1149.9727"/><rect fill="#FFFFFF" height="669.842" style="stroke:#181818;stroke-width:1.1;" width="11" x="1052.7" y="254.5898"/><rect fill="#FFFFFF" height="253.0408" style="stroke:#181818;stroke-width:1.1;" width="11" x="1058.2" y="297.81"/><rect fill="#FFFFFF" height="253.0408" style="stroke:#181818;stroke-width:1.1;" width="11" x="1058.2" y="629.2709"/><rect fill="#FFFFFF" height="172.1006" style="stroke:#181818;stroke-width:1.1;" width="11" x="1052.7" y="1184.3928"/><rect fill="#FFFFFF" height="34.4201" style="stroke:#181818;stroke-width:1.1;" width="11" x="1052.7" y="1654.2604"/><rect fill="#FFFFFF" height="34.4201" style="stroke:#181818;stroke-width:1.1;" width="11" x="1344.2" y="669.191"/><rect fill="#FFFFFF" height="34.4201" style="stroke:#181818;stroke-width:1.1;" width="11" x="1344.2" y="1218.8129"/><rect fill="#FFFFFF" height="34.4201" style="stroke:#181818;stroke-width:1.1;" width="11" x="1461.9" y="738.0313"/><rect fill="#FFFFFF" height="34.4201" style="stroke:#181818;stroke-width:1.1;" width="11" x="1461.9" y="1287.6531"/><rect fill="#FFFFFF" height="34.4201" style="stroke:#181818;stroke-width:1.1;" width="11" x="1617.55" y="806.8715"/><rect fill="#FFFFFF" height="297.767" style="stroke:#181818;stroke-width:1.1;" width="11" x="1891.45" y="1356.4934"/><rect fill="#FFFFFF" height="143.9604" style="stroke:#181818;stroke-width:1.1;" width="11" x="1896.95" y="1468.1799"/><rect fill="#FFFFFF" height="46.5201" style="stroke:#181818;stroke-width:1.1;" width="11" x="1902.45" y="1516.9"/><rect fill="#FFFFFF" height="34.4201" style="stroke:#181818;stroke-width:1.1;" width="11" x="2270.4" y="337.7301"/><rect fill="#FFFFFF" height="34.4201" style="stroke:#181818;stroke-width:1.1;" width="11" x="2432.1" y="406.5703"/><rect fill="#FFFFFF" height="34.4201" style="stroke:#181818;stroke-width:1.1;" width="11" x="2578.4" y="475.4105"/><line style="stroke:#181818;stroke-width:0.55;stroke-dasharray:5.0,5.0;" x1="88" x2="88" y1="135.5664" y2="1742.9006"/><line style="stroke:#181818;stroke-width:0.55;stroke-dasharray:5.0,5.0;" x1="517.55" x2="517.55" y1="135.5664" y2="1742.9006"/><line style="stroke:#181818;stroke-width:0.55;stroke-dasharray:5.0,5.0;" x1="1057.65" x2="1057.65" y1="215.9781" y2="1742.9006"/><line style="stroke:#181818;stroke-width:0.55;stroke-dasharray:5.0,5.0;" x1="1349.15" x2="1349.15" y1="135.5664" y2="1742.9006"/><line style="stroke:#181818;stroke-width:0.55;stroke-dasharray:5.0,5.0;" x1="1466.85" x2="1466.85" y1="135.5664" y2="1742.9006"/><line style="stroke:#181818;stroke-width:0.55;stroke-dasharray:5.0,5.0;" x1="1623.05" x2="1623.05" y1="135.5664" y2="1742.9006"/><line style="stroke:#181818;stroke-width:0.55;stroke-dasharray:5.0,5.0;" x1="1767.15" x2="1767.15" y1="135.5664" y2="1742.9006"/><line style="stroke:#181818;stroke-width:0.55;stroke-dasharray:5.0,5.0;" x1="1896.95" x2="1896.95" y1="135.5664" y2="1742.9006"/><line style="stroke:#181818;stroke-width:0.55;stroke-dasharray:5.0,5.0;" x1="2135.65" x2="2135.65" y1="1410.5266" y2="1742.9006"/><line style="stroke:#181818;stroke-width:0.55;stroke-dasharray:5.0,5.0;" x1="2275.35" x2="2275.35" y1="135.5664" y2="1742.9006"/><line style="stroke:#181818;stroke-width:0.55;stroke-dasharray:5.0,5.0;" x1="2437.05" x2="2437.05" y1="135.5664" y2="1742.9006"/><line style="stroke:#181818;stroke-width:0.55;stroke-dasharray:5.0,5.0;" x1="2583.35" x2="2583.35" y1="135.5664" y2="1742.9006"/><text fill="#000000" font-family="sans-serif" font-size="15.4" lengthAdjust="spacing" textLength="158.4" x="5.5" y="131.7014">Green Space Manager</text><ellipse cx="88" cy="58.4332" fill="#E3E3E3" rx="8.8" ry="8.8" style="stroke:#181818;stroke-width:0.55;"/><path d="M88,67.2332 L88,96.9332 M73.7,76.0332 L102.3,76.0332 M88,96.9332 L73.7,113.4332 M88,96.9332 L102.3,113.4332 " fill="none" style="stroke:#181818;stroke-width:0.55;"/><text fill="#000000" font-family="sans-serif" font-size="15.4" lengthAdjust="spacing" textLength="158.4" x="5.5" y="1758.4188">Green Space Manager</text><ellipse cx="88" cy="1771.6338" fill="#E3E3E3" rx="8.8" ry="8.8" style="stroke:#181818;stroke-width:0.55;"/><path d="M88,1780.4338 L88,1810.1338 M73.7,1789.2338 L102.3,1789.2338 M88,1810.1338 L73.7,1826.6338 M88,1810.1338 L102.3,1826.6338 " fill="none" style="stroke:#181818;stroke-width:0.55;"/><rect fill="#E3E3E3" height="35.8832" rx="2.75" ry="2.75" style="stroke:#181818;stroke-width:0.55;" width="95.7" x="470.25" y="98.5832"/><text fill="#000000" font-family="sans-serif" font-size="15.4" lengthAdjust="spacing" textLength="80.3" x="477.95" y="122.9014">:ToDoListUI</text><rect fill="#E3E3E3" height="35.8832" rx="2.75" ry="2.75" style="stroke:#181818;stroke-width:0.55;" width="95.7" x="470.25" y="1741.8006"/><text fill="#000000" font-family="sans-serif" font-size="15.4" lengthAdjust="spacing" textLength="80.3" x="477.95" y="1766.1188">:ToDoListUI</text><rect fill="#E3E3E3" height="35.8832" rx="2.75" ry="2.75" style="stroke:#181818;stroke-width:0.55;" width="150.7" x="982.85" y="1741.8006"/><text fill="#000000" font-family="sans-serif" font-size="15.4" lengthAdjust="spacing" textLength="135.3" x="990.55" y="1766.1188">:ToDoListController</text><rect fill="#E3E3E3" height="35.8832" rx="2.75" ry="2.75" style="stroke:#181818;stroke-width:0.55;" width="106.7" x="1296.35" y="98.5832"/><text fill="#000000" font-family="sans-serif" font-size="15.4" lengthAdjust="spacing" textLength="91.3" x="1304.05" y="122.9014">:Repositories</text><rect fill="#E3E3E3" height="35.8832" rx="2.75" ry="2.75" style="stroke:#181818;stroke-width:0.55;" width="106.7" x="1296.35" y="1741.8006"/><text fill="#000000" font-family="sans-serif" font-size="15.4" lengthAdjust="spacing" textLength="91.3" x="1304.05" y="1766.1188">:Repositories</text><rect fill="#E3E3E3" height="56.3664" rx="2.75" ry="2.75" style="stroke:#181818;stroke-width:0.55;" width="106.7" x="1414.05" y="78.1"/><text fill="#000000" font-family="sans-serif" font-size="15.4" lengthAdjust="spacing" textLength="81.4" x="1426.7" y="102.4182">repositories</text><text fill="#000000" font-family="sans-serif" font-size="15.4" lengthAdjust="spacing" textLength="91.3" x="1421.75" y="122.9014">:Repositories</text><rect fill="#E3E3E3" height="56.3664" rx="2.75" ry="2.75" style="stroke:#181818;stroke-width:0.55;" width="106.7" x="1414.05" y="1741.8006"/><text fill="#000000" font-family="sans-serif" font-size="15.4" lengthAdjust="spacing" textLength="81.4" x="1426.7" y="1766.1188">repositories</text><text fill="#000000" font-family="sans-serif" font-size="15.4" lengthAdjust="spacing" textLength="91.3" x="1421.75" y="1786.602">:Repositories</text><rect fill="#E3E3E3" height="56.3664" rx="2.75" ry="2.75" style="stroke:#181818;stroke-width:0.55;" width="182.6" x="1531.75" y="78.1"/><text fill="#000000" font-family="sans-serif" font-size="15.4" lengthAdjust="spacing" textLength="159.5" x="1543.3" y="102.4182">greenSpaceRepository</text><text fill="#000000" font-family="sans-serif" font-size="15.4" lengthAdjust="spacing" textLength="167.2" x="1539.45" y="122.9014">:GreenSpaceRepository</text><rect fill="#E3E3E3" height="56.3664" rx="2.75" ry="2.75" style="stroke:#181818;stroke-width:0.55;" width="182.6" x="1531.75" y="1741.8006"/><text fill="#000000" font-family="sans-serif" font-size="15.4" lengthAdjust="spacing" textLength="159.5" x="1543.3" y="1766.1188">greenSpaceRepository</text><text fill="#000000" font-family="sans-serif" font-size="15.4" lengthAdjust="spacing" textLength="167.2" x="1539.45" y="1786.602">:GreenSpaceRepository</text><rect fill="#E3E3E3" height="35.8832" rx="2.75" ry="2.75" style="stroke:#181818;stroke-width:0.55;" width="84.7" x="1725.35" y="98.5832"/><text fill="#000000" font-family="sans-serif" font-size="15.4" lengthAdjust="spacing" textLength="69.3" x="1733.05" y="122.9014">toDoEntry</text><rect fill="#E3E3E3" height="35.8832" rx="2.75" ry="2.75" style="stroke:#181818;stroke-width:0.55;" width="84.7" x="1725.35" y="1741.8006"/><text fill="#000000" font-family="sans-serif" font-size="15.4" lengthAdjust="spacing" textLength="69.3" x="1733.05" y="1766.1188">toDoEntry</text><rect fill="#E3E3E3" height="56.3664" rx="2.75" ry="2.75" style="stroke:#181818;stroke-width:0.55;" width="151.8" x="1821.05" y="78.1"/><text fill="#000000" font-family="sans-serif" font-size="15.4" lengthAdjust="spacing" textLength="132" x="1830.95" y="102.4182">toDoListRepository</text><text fill="#000000" font-family="sans-serif" font-size="15.4" lengthAdjust="spacing" textLength="136.4" x="1828.75" y="122.9014">:toDoListRepository</text><rect fill="#E3E3E3" height="56.3664" rx="2.75" ry="2.75" style="stroke:#181818;stroke-width:0.55;" width="151.8" x="1821.05" y="1741.8006"/><text fill="#000000" font-family="sans-serif" font-size="15.4" lengthAdjust="spacing" textLength="132" x="1830.95" y="1766.1188">toDoListRepository</text><text fill="#000000" font-family="sans-serif" font-size="15.4" lengthAdjust="spacing" textLength="136.4" x="1828.75" y="1786.602">:toDoListRepository</text><rect fill="#E3E3E3" height="56.3664" rx="2.75" ry="2.75" style="stroke:#181818;stroke-width:0.55;" width="107.8" x="2081.75" y="1741.8006"/><text fill="#000000" font-family="sans-serif" font-size="15.4" lengthAdjust="spacing" textLength="84.7" x="2093.3" y="1766.1188">greenSpace</text><text fill="#000000" font-family="sans-serif" font-size="15.4" lengthAdjust="spacing" textLength="92.4" x="2089.45" y="1786.602">:GreenSpace</text><rect fill="#E3E3E3" height="35.8832" rx="2.75" ry="2.75" style="stroke:#181818;stroke-width:0.55;" width="150.7" x="2200.55" y="98.5832"/><text fill="#000000" font-family="sans-serif" font-size="15.4" lengthAdjust="spacing" textLength="135.3" x="2208.25" y="122.9014">:ApplicationSession</text><rect fill="#E3E3E3" height="35.8832" rx="2.75" ry="2.75" style="stroke:#181818;stroke-width:0.55;" width="150.7" x="2200.55" y="1741.8006"/><text fill="#000000" font-family="sans-serif" font-size="15.4" lengthAdjust="spacing" textLength="135.3" x="2208.25" y="1766.1188">:ApplicationSession</text><rect fill="#E3E3E3" height="56.3664" rx="2.75" ry="2.75" style="stroke:#181818;stroke-width:0.55;" width="150.7" x="2362.25" y="78.1"/><text fill="#000000" font-family="sans-serif" font-size="15.4" lengthAdjust="spacing" textLength="81.4" x="2396.9" y="102.4182">appSession</text><text fill="#000000" font-family="sans-serif" font-size="15.4" lengthAdjust="spacing" textLength="135.3" x="2369.95" y="122.9014">:ApplicationSession</text><rect fill="#E3E3E3" height="56.3664" rx="2.75" ry="2.75" style="stroke:#181818;stroke-width:0.55;" width="150.7" x="2362.25" y="1741.8006"/><text fill="#000000" font-family="sans-serif" font-size="15.4" lengthAdjust="spacing" textLength="81.4" x="2396.9" y="1766.1188">appSession</text><text fill="#000000" font-family="sans-serif" font-size="15.4" lengthAdjust="spacing" textLength="135.3" x="2369.95" y="1786.602">:ApplicationSession</text><rect fill="#E3E3E3" height="56.3664" rx="2.75" ry="2.75" style="stroke:#181818;stroke-width:0.55;" width="119.9" x="2523.95" y="78.1"/><text fill="#000000" font-family="sans-serif" font-size="15.4" lengthAdjust="spacing" textLength="104.5" x="2531.65" y="102.4182">currentSession</text><text fill="#000000" font-family="sans-serif" font-size="15.4" lengthAdjust="spacing" textLength="91.3" x="2538.25" y="122.9014">:UserSession</text><rect fill="#E3E3E3" height="56.3664" rx="2.75" ry="2.75" style="stroke:#181818;stroke-width:0.55;" width="119.9" x="2523.95" y="1741.8006"/><text fill="#000000" font-family="sans-serif" font-size="15.4" lengthAdjust="spacing" textLength="104.5" x="2531.65" y="1766.1188">currentSession</text><text fill="#000000" font-family="sans-serif" font-size="15.4" lengthAdjust="spacing" textLength="91.3" x="2538.25" y="1786.602">:UserSession</text><rect fill="#FFFFFF" height="1586.4342" style="stroke:#181818;stroke-width:1.1;" width="11" x="82.5" y="146.5664"/><rect fill="#FFFFFF" height="855.5057" style="stroke:#181818;stroke-width:1.1;" width="11" x="512.6" y="172.1865"/><rect fill="#FFFFFF" height="53.4402" style="stroke:#181818;stroke-width:1.1;" width="11" x="512.6" y="1062.1123"/><rect fill="#FFFFFF" height="573.1279" style="stroke:#181818;stroke-width:1.1;" width="11" x="512.6" y="1149.9727"/><rect fill="#FFFFFF" height="669.842" style="stroke:#181818;stroke-width:1.1;" width="11" x="1052.7" y="254.5898"/><rect fill="#FFFFFF" height="253.0408" style="stroke:#181818;stroke-width:1.1;" width="11" x="1058.2" y="297.81"/><rect fill="#FFFFFF" height="253.0408" style="stroke:#181818;stroke-width:1.1;" width="11" x="1058.2" y="629.2709"/><rect fill="#FFFFFF" height="172.1006" style="stroke:#181818;stroke-width:1.1;" width="11" x="1052.7" y="1184.3928"/><rect fill="#FFFFFF" height="34.4201" style="stroke:#181818;stroke-width:1.1;" width="11" x="1052.7" y="1654.2604"/><rect fill="#FFFFFF" height="34.4201" style="stroke:#181818;stroke-width:1.1;" width="11" x="1344.2" y="669.191"/><rect fill="#FFFFFF" height="34.4201" style="stroke:#181818;stroke-width:1.1;" width="11" x="1344.2" y="1218.8129"/><rect fill="#FFFFFF" height="34.4201" style="stroke:#181818;stroke-width:1.1;" width="11" x="1461.9" y="738.0313"/><rect fill="#FFFFFF" height="34.4201" style="stroke:#181818;stroke-width:1.1;" width="11" x="1461.9" y="1287.6531"/><rect fill="#FFFFFF" height="34.4201" style="stroke:#181818;stroke-width:1.1;" width="11" x="1617.55" y="806.8715"/><rect fill="#FFFFFF" height="297.767" style="stroke:#181818;stroke-width:1.1;" width="11" x="1891.45" y="1356.4934"/><rect fill="#FFFFFF" height="143.9604" style="stroke:#181818;stroke-width:1.1;" width="11" x="1896.95" y="1468.1799"/><rect fill="#FFFFFF" height="46.5201" style="stroke:#181818;stroke-width:1.1;" width="11" x="1902.45" y="1516.9"/><rect fill="#FFFFFF" height="34.4201" style="stroke:#181818;stroke-width:1.1;" width="11" x="2270.4" y="337.7301"/><rect fill="#FFFFFF" height="34.4201" style="stroke:#181818;stroke-width:1.1;" width="11" x="2432.1" y="406.5703"/><rect fill="#FFFFFF" height="34.4201" style="stroke:#181818;stroke-width:1.1;" width="11" x="2578.4" y="475.4105"/><polygon fill="#181818" points="499.4,167.7865,510.4,172.1865,499.4,176.5865,503.8,172.1865" style="stroke:#181818;stroke-width:1.1;"/><line style="stroke:#181818;stroke-width:1.1;" x1="93.5" x2="506" y1="172.1865" y2="172.1865"/><text fill="#000000" font-family="sans-serif" font-size="14.3" font-weight="bold" lengthAdjust="spacing" textLength="7.7" x="101.2" y="166.3976">1</text><text fill="#000000" font-family="sans-serif" font-size="14.3" lengthAdjust="spacing" textLength="151.8" x="113.3" y="166.3976">ask to add a to-do entry</text><polygon fill="#181818" points="969.65,202.2066,980.65,206.6066,969.65,211.0066,974.05,206.6066" style="stroke:#181818;stroke-width:1.1;"/><line style="stroke:#181818;stroke-width:1.1;" x1="523.6" x2="976.25" y1="206.6066" y2="206.6066"/><text fill="#000000" font-family="sans-serif" font-size="14.3" font-weight="bold" lengthAdjust="spacing" textLength="7.7" x="531.3" y="200.8177">2</text><text fill="#000000" font-family="sans-serif" font-size="14.3" lengthAdjust="spacing" textLength="39.6" x="543.4" y="200.8177">create</text><rect fill="#E3E3E3" height="35.8832" rx="2.75" ry="2.75" style="stroke:#181818;stroke-width:0.55;" width="150.7" x="982.85" y="180.9865"/><text fill="#000000" font-family="sans-serif" font-size="15.4" lengthAdjust="spacing" textLength="135.3" x="990.55" y="205.3047">:ToDoListController</text><polygon fill="#181818" points="1039.5,250.1898,1050.5,254.5898,1039.5,258.9898,1043.9,254.5898" style="stroke:#181818;stroke-width:1.1;"/><line style="stroke:#181818;stroke-width:1.1;" x1="523.6" x2="1046.1" y1="254.5898" y2="254.5898"/><text fill="#000000" font-family="sans-serif" font-size="14.3" font-weight="bold" lengthAdjust="spacing" textLength="7.7" x="531.3" y="248.8009">3</text><text fill="#000000" font-family="sans-serif" font-size="14.3" lengthAdjust="spacing" textLength="211.2" x="543.4" y="248.8009">getGreenSpacesByResponsible()</text><line style="stroke:#181818;stroke-width:1.1;" x1="1063.7" x2="1115.4" y1="283.51" y2="283.51"/><line style="stroke:#181818;stroke-width:1.1;" x1="1115.4" x2="1115.4" y1="283.51" y2="297.81"/><line style="stroke:#181818;stroke-width:1.1;" x1="1070.3" x2="1115.4" y1="297.81" y2="297.81"/><polygon fill="#181818" points="1081.3,293.41,1070.3,297.81,1081.3,302.21,1076.9,297.81" style="stroke:#181818;stroke-width:1.1;"/><text fill="#000000" font-family="sans-serif" font-size="14.3" font-weight="bold" lengthAdjust="spacing" textLength="7.7" x="1076.9" y="277.721">4</text><text fill="#000000" font-family="sans-serif" font-size="14.3" lengthAdjust="spacing" textLength="106.7" x="1089" y="277.721">getResponsible()</text><polygon fill="#181818" points="2257.2,333.3301,2268.2,337.7301,2257.2,342.1301,2261.6,337.7301" style="stroke:#181818;stroke-width:1.1;"/><line style="stroke:#181818;stroke-width:1.1;" x1="1069.2" x2="2263.8" y1="337.7301" y2="337.7301"/><text fill="#000000" font-family="sans-serif" font-size="14.3" font-weight="bold" lengthAdjust="spacing" textLength="7.7" x="1076.9" y="331.9411">5</text><text fill="#000000" font-family="sans-serif" font-size="14.3" lengthAdjust="spacing" textLength="82.5" x="1089" y="331.9411">getInstance()</text><polygon fill="#181818" points="1081.3,367.7502,1070.3,372.1502,1081.3,376.5502,1076.9,372.1502" style="stroke:#181818;stroke-width:1.1;"/><line style="stroke:#181818;stroke-width:1.1;" x1="1074.7" x2="2274.8" y1="372.1502" y2="372.1502"/><text fill="#000000" font-family="sans-serif" font-size="14.3" font-weight="bold" lengthAdjust="spacing" textLength="7.7" x="1087.9" y="366.3612">6</text><text fill="#000000" font-family="sans-serif" font-size="14.3" lengthAdjust="spacing" textLength="74.8" x="1100" y="366.3612">appSession</text><polygon fill="#181818" points="2418.9,402.1703,2429.9,406.5703,2418.9,410.9703,2423.3,406.5703" style="stroke:#181818;stroke-width:1.1;"/><line style="stroke:#181818;stroke-width:1.1;" x1="1069.2" x2="2425.5" y1="406.5703" y2="406.5703"/><text fill="#000000" font-family="sans-serif" font-size="14.3" font-weight="bold" lengthAdjust="spacing" textLength="7.7" x="1076.9" y="400.7813">7</text><text fill="#000000" font-family="sans-serif" font-size="14.3" lengthAdjust="spacing" textLength="126.5" x="1089" y="400.7813">getCurrentSession()</text><polygon fill="#181818" points="1081.3,436.5904,1070.3,440.9904,1081.3,445.3904,1076.9,440.9904" style="stroke:#181818;stroke-width:1.1;"/><line style="stroke:#181818;stroke-width:1.1;stroke-dasharray:2.0,2.0;" x1="1074.7" x2="2436.5" y1="440.9904" y2="440.9904"/><text fill="#000000" font-family="sans-serif" font-size="14.3" font-weight="bold" lengthAdjust="spacing" textLength="7.7" x="1087.9" y="435.2015">8</text><text fill="#000000" font-family="sans-serif" font-size="14.3" lengthAdjust="spacing" textLength="95.7" x="1100" y="435.2015">currentSession</text><polygon fill="#181818" points="2565.2,471.0105,2576.2,475.4105,2565.2,479.8105,2569.6,475.4105" style="stroke:#181818;stroke-width:1.1;"/><line style="stroke:#181818;stroke-width:1.1;" x1="1069.2" x2="2571.8" y1="475.4105" y2="475.4105"/><text fill="#000000" font-family="sans-serif" font-size="14.3" font-weight="bold" lengthAdjust="spacing" textLength="7.7" x="1076.9" y="469.6216">9</text><text fill="#000000" font-family="sans-serif" font-size="14.3" lengthAdjust="spacing" textLength="94.6" x="1089" y="469.6216">getUserEmail()</text><polygon fill="#181818" points="1081.3,505.4307,1070.3,509.8307,1081.3,514.2307,1076.9,509.8307" style="stroke:#181818;stroke-width:1.1;"/><line style="stroke:#181818;stroke-width:1.1;stroke-dasharray:2.0,2.0;" x1="1074.7" x2="2582.8" y1="509.8307" y2="509.8307"/><text fill="#000000" font-family="sans-serif" font-size="14.3" font-weight="bold" lengthAdjust="spacing" textLength="15.4" x="1087.9" y="504.0417">10</text><text fill="#000000" font-family="sans-serif" font-size="14.3" lengthAdjust="spacing" textLength="34.1" x="1107.7" y="504.0417">email</text><line style="stroke:#181818;stroke-width:1.1;stroke-dasharray:2.0,2.0;" x1="1069.2" x2="1115.4" y1="549.7508" y2="549.7508"/><line style="stroke:#181818;stroke-width:1.1;stroke-dasharray:2.0,2.0;" x1="1115.4" x2="1115.4" y1="549.7508" y2="564.0508"/><line style="stroke:#181818;stroke-width:1.1;stroke-dasharray:2.0,2.0;" x1="1063.7" x2="1115.4" y1="564.0508" y2="564.0508"/><polygon fill="#181818" points="1074.7,559.6508,1063.7,564.0508,1074.7,568.4508,1070.3,564.0508" style="stroke:#181818;stroke-width:1.1;"/><text fill="#000000" font-family="sans-serif" font-size="14.3" font-weight="bold" lengthAdjust="spacing" textLength="15.4" x="1076.9" y="543.9618">11</text><text fill="#000000" font-family="sans-serif" font-size="14.3" lengthAdjust="spacing" textLength="4.4" x="1096.7" y="543.9618">&#160;</text><line style="stroke:#181818;stroke-width:1.1;" x1="1063.7" x2="1115.4" y1="614.9709" y2="614.9709"/><line style="stroke:#181818;stroke-width:1.1;" x1="1115.4" x2="1115.4" y1="614.9709" y2="629.2709"/><line style="stroke:#181818;stroke-width:1.1;" x1="1070.3" x2="1115.4" y1="629.2709" y2="629.2709"/><polygon fill="#181818" points="1081.3,624.8709,1070.3,629.2709,1081.3,633.6709,1076.9,629.2709" style="stroke:#181818;stroke-width:1.1;"/><text fill="#000000" font-family="sans-serif" font-size="14.3" font-weight="bold" lengthAdjust="spacing" textLength="15.4" x="1076.9" y="609.1819">12</text><text fill="#000000" font-family="sans-serif" font-size="14.3" lengthAdjust="spacing" textLength="245.3" x="1096.7" y="609.1819">getGreenSpacesByResponsible(email)</text><polygon fill="#181818" points="1331,664.791,1342,669.191,1331,673.591,1335.4,669.191" style="stroke:#181818;stroke-width:1.1;"/><line style="stroke:#181818;stroke-width:1.1;" x1="1069.2" x2="1337.6" y1="669.191" y2="669.191"/><text fill="#000000" font-family="sans-serif" font-size="14.3" font-weight="bold" lengthAdjust="spacing" textLength="15.4" x="1076.9" y="663.4021">13</text><text fill="#000000" font-family="sans-serif" font-size="14.3" lengthAdjust="spacing" textLength="82.5" x="1096.7" y="663.4021">getInstance()</text><polygon fill="#181818" points="1081.3,699.2111,1070.3,703.6111,1081.3,708.0111,1076.9,703.6111" style="stroke:#181818;stroke-width:1.1;"/><line style="stroke:#181818;stroke-width:1.1;stroke-dasharray:2.0,2.0;" x1="1074.7" x2="1348.6" y1="703.6111" y2="703.6111"/><text fill="#000000" font-family="sans-serif" font-size="14.3" font-weight="bold" lengthAdjust="spacing" textLength="15.4" x="1087.9" y="697.8222">14</text><text fill="#000000" font-family="sans-serif" font-size="14.3" lengthAdjust="spacing" textLength="73.7" x="1107.7" y="697.8222">repositories</text><polygon fill="#181818" points="1448.7,733.6313,1459.7,738.0313,1448.7,742.4313,1453.1,738.0313" style="stroke:#181818;stroke-width:1.1;"/><line style="stroke:#181818;stroke-width:1.1;" x1="1069.2" x2="1455.3" y1="738.0313" y2="738.0313"/><text fill="#000000" font-family="sans-serif" font-size="14.3" font-weight="bold" lengthAdjust="spacing" textLength="15.4" x="1076.9" y="732.2423">15</text><text fill="#000000" font-family="sans-serif" font-size="14.3" lengthAdjust="spacing" textLength="176" x="1096.7" y="732.2423">getGreenSpaceRepository()</text><polygon fill="#181818" points="1081.3,768.0514,1070.3,772.4514,1081.3,776.8514,1076.9,772.4514" style="stroke:#181818;stroke-width:1.1;"/><line style="stroke:#181818;stroke-width:1.1;stroke-dasharray:2.0,2.0;" x1="1074.7" x2="1466.3" y1="772.4514" y2="772.4514"/><text fill="#000000" font-family="sans-serif" font-size="14.3" font-weight="bold" lengthAdjust="spacing" textLength="15.4" x="1087.9" y="766.6624">16</text><text fill="#000000" font-family="sans-serif" font-size="14.3" lengthAdjust="spacing" textLength="147.4" x="1107.7" y="766.6624">GreenSpaceRepository</text><polygon fill="#181818" points="1604.35,802.4715,1615.35,806.8715,1604.35,811.2715,1608.75,806.8715" style="stroke:#181818;stroke-width:1.1;"/><line style="stroke:#181818;stroke-width:1.1;" x1="1069.2" x2="1610.95" y1="806.8715" y2="806.8715"/><text fill="#000000" font-family="sans-serif" font-size="14.3" font-weight="bold" lengthAdjust="spacing" textLength="15.4" x="1076.9" y="801.0825">17</text><text fill="#000000" font-family="sans-serif" font-size="14.3" lengthAdjust="spacing" textLength="245.3" x="1096.7" y="801.0825">getGreenSpacesByResponsible(email)</text><polygon fill="#181818" points="1081.3,836.8916,1070.3,841.2916,1081.3,845.6916,1076.9,841.2916" style="stroke:#181818;stroke-width:1.1;"/><line style="stroke:#181818;stroke-width:1.1;" x1="1074.7" x2="1621.95" y1="841.2916" y2="841.2916"/><text fill="#000000" font-family="sans-serif" font-size="14.3" font-weight="bold" lengthAdjust="spacing" textLength="15.4" x="1087.9" y="835.5026">18</text><text fill="#000000" font-family="sans-serif" font-size="14.3" lengthAdjust="spacing" textLength="83.6" x="1107.7" y="835.5026">greenSpaces</text><line style="stroke:#181818;stroke-width:1.1;stroke-dasharray:2.0,2.0;" x1="1069.2" x2="1115.4" y1="881.2117" y2="881.2117"/><line style="stroke:#181818;stroke-width:1.1;stroke-dasharray:2.0,2.0;" x1="1115.4" x2="1115.4" y1="881.2117" y2="895.5117"/><line style="stroke:#181818;stroke-width:1.1;stroke-dasharray:2.0,2.0;" x1="1063.7" x2="1115.4" y1="895.5117" y2="895.5117"/><polygon fill="#181818" points="1074.7,891.1117,1063.7,895.5117,1074.7,899.9117,1070.3,895.5117" style="stroke:#181818;stroke-width:1.1;"/><text fill="#000000" font-family="sans-serif" font-size="14.3" font-weight="bold" lengthAdjust="spacing" textLength="15.4" x="1076.9" y="875.4228">19</text><text fill="#000000" font-family="sans-serif" font-size="14.3" lengthAdjust="spacing" textLength="4.4" x="1096.7" y="875.4228">&#160;</text><polygon fill="#181818" points="535.7,920.0318,524.7,924.4318,535.7,928.8318,531.3,924.4318" style="stroke:#181818;stroke-width:1.1;"/><line style="stroke:#181818;stroke-width:1.1;" x1="529.1" x2="1057.1" y1="924.4318" y2="924.4318"/><text fill="#000000" font-family="sans-serif" font-size="14.3" font-weight="bold" lengthAdjust="spacing" textLength="15.4" x="542.3" y="918.6429">20</text><text fill="#000000" font-family="sans-serif" font-size="14.3" lengthAdjust="spacing" textLength="83.6" x="562.1" y="918.6429">greenSpaces</text><polygon fill="#181818" points="105.6,954.452,94.6,958.852,105.6,963.252,101.2,958.852" style="stroke:#181818;stroke-width:1.1;"/><line style="stroke:#181818;stroke-width:1.1;" x1="99" x2="511.5" y1="958.852" y2="958.852"/><text fill="#000000" font-family="sans-serif" font-size="14.3" font-weight="bold" lengthAdjust="spacing" textLength="15.4" x="112.2" y="953.063">21</text><text fill="#000000" font-family="sans-serif" font-size="14.3" lengthAdjust="spacing" textLength="169.4" x="132" y="953.063">shows list of green spaces</text><polygon fill="#181818" points="499.4,988.8721,510.4,993.2721,499.4,997.6721,503.8,993.2721" style="stroke:#181818;stroke-width:1.1;"/><line style="stroke:#181818;stroke-width:1.1;" x1="93.5" x2="506" y1="993.2721" y2="993.2721"/><text fill="#000000" font-family="sans-serif" font-size="14.3" font-weight="bold" lengthAdjust="spacing" textLength="15.4" x="101.2" y="987.4831">22</text><text fill="#000000" font-family="sans-serif" font-size="14.3" lengthAdjust="spacing" textLength="220" x="121" y="987.4831">selects a green space from the list</text><polygon fill="#181818" points="105.6,1023.2922,94.6,1027.6922,105.6,1032.0922,101.2,1027.6922" style="stroke:#181818;stroke-width:1.1;"/><line style="stroke:#181818;stroke-width:1.1;stroke-dasharray:2.0,2.0;" x1="99" x2="517" y1="1027.6922" y2="1027.6922"/><text fill="#000000" font-family="sans-serif" font-size="14.3" font-weight="bold" lengthAdjust="spacing" textLength="15.4" x="112.2" y="1021.9032">23</text><text fill="#000000" font-family="sans-serif" font-size="14.3" lengthAdjust="spacing" textLength="372.9" x="132" y="1021.9032">request data (title, description, urgency, expectedDuration)</text><polygon fill="#181818" points="499.4,1057.7123,510.4,1062.1123,499.4,1066.5123,503.8,1062.1123" style="stroke:#181818;stroke-width:1.1;"/><line style="stroke:#181818;stroke-width:1.1;" x1="93.5" x2="506" y1="1062.1123" y2="1062.1123"/><text fill="#000000" font-family="sans-serif" font-size="14.3" font-weight="bold" lengthAdjust="spacing" textLength="15.4" x="101.2" y="1056.3233">24</text><text fill="#000000" font-family="sans-serif" font-size="14.3" lengthAdjust="spacing" textLength="134.2" x="121" y="1056.3233">types requested data</text><polygon fill="#181818" points="105.6,1111.1525,94.6,1115.5525,105.6,1119.9525,101.2,1115.5525" style="stroke:#181818;stroke-width:1.1;"/><line style="stroke:#181818;stroke-width:1.1;stroke-dasharray:2.0,2.0;" x1="99" x2="517" y1="1115.5525" y2="1115.5525"/><text fill="#000000" font-family="sans-serif" font-size="14.3" font-weight="bold" lengthAdjust="spacing" textLength="15.4" x="112.2" y="1100.2535">25</text><text fill="#000000" font-family="sans-serif" font-size="14.3" lengthAdjust="spacing" textLength="150.7" x="132" y="1090.7435">show all data registered</text><text fill="#000000" font-family="sans-serif" font-size="14.3" lengthAdjust="spacing" textLength="168.3" x="136.4" y="1109.7636">and the confirmation menu</text><polygon fill="#181818" points="499.4,1145.5727,510.4,1149.9727,499.4,1154.3727,503.8,1149.9727" style="stroke:#181818;stroke-width:1.1;"/><line style="stroke:#181818;stroke-width:1.1;" x1="93.5" x2="506" y1="1149.9727" y2="1149.9727"/><text fill="#000000" font-family="sans-serif" font-size="14.3" font-weight="bold" lengthAdjust="spacing" textLength="15.4" x="101.2" y="1144.1837">26</text><text fill="#000000" font-family="sans-serif" font-size="14.3" lengthAdjust="spacing" textLength="82.5" x="121" y="1144.1837">submits data</text><polygon fill="#181818" points="1039.5,1179.9928,1050.5,1184.3928,1039.5,1188.7928,1043.9,1184.3928" style="stroke:#181818;stroke-width:1.1;"/><line style="stroke:#181818;stroke-width:1.1;" x1="523.6" x2="1046.1" y1="1184.3928" y2="1184.3928"/><text fill="#000000" font-family="sans-serif" font-size="14.3" font-weight="bold" lengthAdjust="spacing" textLength="15.4" x="531.3" y="1178.6038">27</text><text fill="#000000" font-family="sans-serif" font-size="14.3" lengthAdjust="spacing" textLength="488.4" x="551.1" y="1178.6038">registerToDoEntry(greenSpace ,title, description, urgency, expectedDuration)</text><polygon fill="#181818" points="1331,1214.4129,1342,1218.8129,1331,1223.2129,1335.4,1218.8129" style="stroke:#181818;stroke-width:1.1;"/><line style="stroke:#181818;stroke-width:1.1;" x1="1063.7" x2="1337.6" y1="1218.8129" y2="1218.8129"/><text fill="#000000" font-family="sans-serif" font-size="14.3" font-weight="bold" lengthAdjust="spacing" textLength="15.4" x="1071.4" y="1213.0239">28</text><text fill="#000000" font-family="sans-serif" font-size="14.3" lengthAdjust="spacing" textLength="82.5" x="1091.2" y="1213.0239">getInstance()</text><polygon fill="#181818" points="1075.8,1248.833,1064.8,1253.233,1075.8,1257.633,1071.4,1253.233" style="stroke:#181818;stroke-width:1.1;"/><line style="stroke:#181818;stroke-width:1.1;stroke-dasharray:2.0,2.0;" x1="1069.2" x2="1348.6" y1="1253.233" y2="1253.233"/><text fill="#000000" font-family="sans-serif" font-size="14.3" font-weight="bold" lengthAdjust="spacing" textLength="15.4" x="1082.4" y="1247.444">29</text><text fill="#000000" font-family="sans-serif" font-size="14.3" lengthAdjust="spacing" textLength="73.7" x="1102.2" y="1247.444">repositories</text><polygon fill="#181818" points="1448.7,1283.2531,1459.7,1287.6531,1448.7,1292.0531,1453.1,1287.6531" style="stroke:#181818;stroke-width:1.1;"/><line style="stroke:#181818;stroke-width:1.1;" x1="1063.7" x2="1455.3" y1="1287.6531" y2="1287.6531"/><text fill="#000000" font-family="sans-serif" font-size="14.3" font-weight="bold" lengthAdjust="spacing" textLength="15.4" x="1071.4" y="1281.8642">30</text><text fill="#000000" font-family="sans-serif" font-size="14.3" lengthAdjust="spacing" textLength="152.9" x="1091.2" y="1281.8642">getToDoListRepository()</text><polygon fill="#181818" points="1075.8,1317.6732,1064.8,1322.0732,1075.8,1326.4732,1071.4,1322.0732" style="stroke:#181818;stroke-width:1.1;"/><line style="stroke:#181818;stroke-width:1.1;stroke-dasharray:2.0,2.0;" x1="1069.2" x2="1466.3" y1="1322.0732" y2="1322.0732"/><text fill="#000000" font-family="sans-serif" font-size="14.3" font-weight="bold" lengthAdjust="spacing" textLength="15.4" x="1082.4" y="1316.2843">31</text><text fill="#000000" font-family="sans-serif" font-size="14.3" lengthAdjust="spacing" textLength="121" x="1102.2" y="1316.2843">toDoListRepository</text><polygon fill="#181818" points="1878.25,1352.0934,1889.25,1356.4934,1878.25,1360.8934,1882.65,1356.4934" style="stroke:#181818;stroke-width:1.1;"/><line style="stroke:#181818;stroke-width:1.1;" x1="1058.2" x2="1884.85" y1="1356.4934" y2="1356.4934"/><text fill="#000000" font-family="sans-serif" font-size="14.3" font-weight="bold" lengthAdjust="spacing" textLength="15.4" x="1065.9" y="1350.7044">32</text><text fill="#000000" font-family="sans-serif" font-size="14.3" lengthAdjust="spacing" textLength="488.4" x="1085.7" y="1350.7044">registerToDoEntry(greenSpace ,title, description, urgency, expectedDuration)</text><polygon fill="#181818" points="2068.55,1386.5135,2079.55,1390.9135,2068.55,1395.3135,2072.95,1390.9135" style="stroke:#181818;stroke-width:1.1;"/><line style="stroke:#181818;stroke-width:1.1;" x1="1902.45" x2="2075.15" y1="1390.9135" y2="1390.9135"/><text fill="#000000" font-family="sans-serif" font-size="14.3" font-weight="bold" lengthAdjust="spacing" textLength="15.4" x="1910.15" y="1385.1245">33</text><text fill="#000000" font-family="sans-serif" font-size="14.3" lengthAdjust="spacing" textLength="39.6" x="1929.95" y="1385.1245">create</text><rect fill="#E3E3E3" height="56.3664" rx="2.75" ry="2.75" style="stroke:#181818;stroke-width:0.55;" width="107.8" x="2081.75" y="1365.2934"/><text fill="#000000" font-family="sans-serif" font-size="15.4" lengthAdjust="spacing" textLength="84.7" x="2093.3" y="1389.6115">greenSpace</text><text fill="#000000" font-family="sans-serif" font-size="15.4" lengthAdjust="spacing" textLength="92.4" x="2089.45" y="1410.0947">:GreenSpace</text><line style="stroke:#181818;stroke-width:1.1;" x1="1902.45" x2="1954.15" y1="1453.8799" y2="1453.8799"/><line style="stroke:#181818;stroke-width:1.1;" x1="1954.15" x2="1954.15" y1="1453.8799" y2="1468.1799"/><line style="stroke:#181818;stroke-width:1.1;" x1="1909.05" x2="1954.15" y1="1468.1799" y2="1468.1799"/><polygon fill="#181818" points="1920.05,1463.7799,1909.05,1468.1799,1920.05,1472.5799,1915.65,1468.1799" style="stroke:#181818;stroke-width:1.1;"/><text fill="#000000" font-family="sans-serif" font-size="14.3" font-weight="bold" lengthAdjust="spacing" textLength="15.4" x="1915.65" y="1448.0909">34</text><text fill="#000000" font-family="sans-serif" font-size="14.3" lengthAdjust="spacing" textLength="162.8" x="1935.45" y="1448.0909">addToDoEntry(toDoEntry)</text><line style="stroke:#181818;stroke-width:1.1;" x1="1907.95" x2="1959.65" y1="1502.6" y2="1502.6"/><line style="stroke:#181818;stroke-width:1.1;" x1="1959.65" x2="1959.65" y1="1502.6" y2="1516.9"/><line style="stroke:#181818;stroke-width:1.1;" x1="1914.55" x2="1959.65" y1="1516.9" y2="1516.9"/><polygon fill="#181818" points="1925.55,1512.5,1914.55,1516.9,1925.55,1521.3,1921.15,1516.9" style="stroke:#181818;stroke-width:1.1;"/><text fill="#000000" font-family="sans-serif" font-size="14.3" font-weight="bold" lengthAdjust="spacing" textLength="15.4" x="1921.15" y="1496.811">35</text><text fill="#000000" font-family="sans-serif" font-size="14.3" lengthAdjust="spacing" textLength="187" x="1940.95" y="1496.811">validateToDoEntry(toDoEntry)</text><line style="stroke:#181818;stroke-width:1.1;stroke-dasharray:2.0,2.0;" x1="1913.45" x2="1959.65" y1="1562.3201" y2="1562.3201"/><line style="stroke:#181818;stroke-width:1.1;stroke-dasharray:2.0,2.0;" x1="1959.65" x2="1959.65" y1="1562.3201" y2="1576.6201"/><line style="stroke:#181818;stroke-width:1.1;stroke-dasharray:2.0,2.0;" x1="1907.95" x2="1959.65" y1="1576.6201" y2="1576.6201"/><polygon fill="#181818" points="1918.95,1572.2201,1907.95,1576.6201,1918.95,1581.0201,1914.55,1576.6201" style="stroke:#181818;stroke-width:1.1;"/><text fill="#000000" font-family="sans-serif" font-size="14.3" font-weight="bold" lengthAdjust="spacing" textLength="15.4" x="1921.15" y="1556.5312">36</text><text fill="#000000" font-family="sans-serif" font-size="14.3" lengthAdjust="spacing" textLength="4.4" x="1940.95" y="1556.5312">&#160;</text><line style="stroke:#181818;stroke-width:1.1;stroke-dasharray:2.0,2.0;" x1="1907.95" x2="1954.15" y1="1611.0402" y2="1611.0402"/><line style="stroke:#181818;stroke-width:1.1;stroke-dasharray:2.0,2.0;" x1="1954.15" x2="1954.15" y1="1611.0402" y2="1625.3402"/><line style="stroke:#181818;stroke-width:1.1;stroke-dasharray:2.0,2.0;" x1="1902.45" x2="1954.15" y1="1625.3402" y2="1625.3402"/><polygon fill="#181818" points="1913.45,1620.9402,1902.45,1625.3402,1913.45,1629.7402,1909.05,1625.3402" style="stroke:#181818;stroke-width:1.1;"/><text fill="#000000" font-family="sans-serif" font-size="14.3" font-weight="bold" lengthAdjust="spacing" textLength="15.4" x="1915.65" y="1605.2513">37</text><text fill="#000000" font-family="sans-serif" font-size="14.3" lengthAdjust="spacing" textLength="4.4" x="1935.45" y="1605.2513">&#160;</text><polygon fill="#181818" points="1075.8,1649.8604,1064.8,1654.2604,1075.8,1658.6604,1071.4,1654.2604" style="stroke:#181818;stroke-width:1.1;"/><line style="stroke:#181818;stroke-width:1.1;stroke-dasharray:2.0,2.0;" x1="1069.2" x2="1895.85" y1="1654.2604" y2="1654.2604"/><text fill="#000000" font-family="sans-serif" font-size="14.3" font-weight="bold" lengthAdjust="spacing" textLength="15.4" x="1082.4" y="1648.4714">38</text><text fill="#000000" font-family="sans-serif" font-size="14.3" lengthAdjust="spacing" textLength="63.8" x="1102.2" y="1648.4714">toDoEntry</text><polygon fill="#181818" points="535.7,1684.2805,524.7,1688.6805,535.7,1693.0805,531.3,1688.6805" style="stroke:#181818;stroke-width:1.1;"/><line style="stroke:#181818;stroke-width:1.1;stroke-dasharray:2.0,2.0;" x1="529.1" x2="1057.1" y1="1688.6805" y2="1688.6805"/><text fill="#000000" font-family="sans-serif" font-size="14.3" font-weight="bold" lengthAdjust="spacing" textLength="15.4" x="542.3" y="1682.8915">39</text><text fill="#000000" font-family="sans-serif" font-size="14.3" lengthAdjust="spacing" textLength="63.8" x="562.1" y="1682.8915">toDoEntry</text><polygon fill="#181818" points="105.6,1718.7006,94.6,1723.1006,105.6,1727.5006,101.2,1723.1006" style="stroke:#181818;stroke-width:1.1;"/><line style="stroke:#181818;stroke-width:1.1;stroke-dasharray:2.0,2.0;" x1="99" x2="517" y1="1723.1006" y2="1723.1006"/><text fill="#000000" font-family="sans-serif" font-size="14.3" font-weight="bold" lengthAdjust="spacing" textLength="15.4" x="112.2" y="1717.3116">40</text><text fill="#000000" font-family="sans-serif" font-size="14.3" lengthAdjust="spacing" textLength="181.5" x="132" y="1717.3116">shows operation (in)success</text><!--SRC=[jLVRJkCm47tlLunuQb7v0HvMwj8ALM81DUt3IaWhaqo3HM9dRGUs4X-_4wUvEqsuvGMmvvmvCvdC3FgPYuGf5aCiXVIVb8mHZ4fneikRXFdFB4JF7284XRvX8epg1lg91VALYn3sBD8ucHXko7It1W__fYXyX2LdOMOwzRpb32vW4HbKWXd-Wd0d2C9I8qKQFwAYttqZ5PnTAqG17hb7-CK4IL1dm3IiuYII1yG9UJVSvmaJ1iukjt8fRxWskxMrsgrxxg-aC4f6qP7jQhkvQLbkC96QamQEsjgK1mUFPx6Jr2P4rH0FeajmVxFODX5X5foDhI8dvBNZs39SRrQhszP5az5GV2iABRTVtMutlxi6MG8Q3hk75juzxfFV45r9RQLqaIGHz-bzI-6XrlJ3clvPtDytBLcI70s8k0VL0VcfKYXC1TnfL7M4j_AynPsjBFx235OrD05wYh_WuaTMjPS4UQOK00i2OFJBHI01izHQwvA4IimU48I0MI6TdnFOLqYtxIkw2D5KgT8_3nlKYHIQFqOudJMfRLNQ8ujjS8o2jP-29ikuPLaBJH-oNr2qdvBIlYBeURBBGXnbhNntJa20JTBJGWkTLurtEwJMylQfjM9BjSsY6LBSIrpepKlCIiwgRnKp7WsfBSgoJt1-NzEC6UkGr2DhlzWZtH1FhytRszlfN8oeTnl9G7g6gzdHcE5TrUtgx4w4orFrNkhzVoYjerqMGMR3evtDYcGeGZjwd2QMjuh1HJuKIpzv8TurjyQLnkcmdFFG2N4gg1Lf9MCeMgVFh_dCJYVHpgIwq7TovbEed7ANjB79LmqH3NYG-vmPT8kwCnGrHhJyQPg8DG3iQMK4yuIMhUcowLDbko0v39XXCBKhufmqQr_n99lmSqXLIClYOGxuBo5F62nJPOT_NkAr-8h9sz5e3WdgmXK6rjd4FRNTAhFC08kYNAR2aA92XS6302O26wWlnPwhs2g364KwMfrE7sDE6RIg1bO9cx7S-xROxAPL3S3y0nbiryVaC_rqN4FxGDySsokx_N7RsLfTUfjDgzK57OlloRvNYEZYlkC5kkTpUU8GRmqSuehMtDbOtRREy6WzhY8h__sOVKQJqyyBYpXzClYrpfpUsfzoZyLNyfqYF3Q2CjonTDqQAKTItYRx29ihbxizQf09vbK9KovcElLfS6X75_mF]--></g></svg>