<?xml version="1.0" encoding="us-ascii" standalone="no"?><svg xmlns="http://www.w3.org/2000/svg" xmlns:xlink="http://www.w3.org/1999/xlink" contentStyleType="text/css" height="438px" preserveAspectRatio="none" style="width:769px;height:438px;background:#FFFFFF;" version="1.1" viewBox="0 0 769 438" width="769px" zoomAndPan="magnify"><defs/><g><text fill="#000000" font-family="sans-serif" font-size="14" font-weight="bold" lengthAdjust="spacing" textLength="482" x="145" y="30.1074">UI Sequence Diagram (SSD) - Get Green Spaces by Responsible User</text><rect fill="#FFFFFF" height="265.3281" style="stroke:#181818;stroke-width:1.0;" width="10" x="83.5" y="106.8633"/><rect fill="#FFFFFF" height="31.291" style="stroke:#181818;stroke-width:1.0;" width="10" x="416.5" y="200.7363"/><rect fill="#FFFFFF" height="31.291" style="stroke:#181818;stroke-width:1.0;" width="10" x="523.5" y="263.3184"/><rect fill="#FFFFFF" height="31.291" style="stroke:#181818;stroke-width:1.0;" width="10" x="665" y="325.9004"/><rect fill="none" height="207.0371" style="stroke:#000000;stroke-width:1.5;" width="753" x="10" y="158.1543"/><line style="stroke:#181818;stroke-width:0.5;stroke-dasharray:5.0,5.0;" x1="88" x2="88" y1="96.8633" y2="382.1914"/><line style="stroke:#181818;stroke-width:0.5;stroke-dasharray:5.0,5.0;" x1="421" x2="421" y1="96.8633" y2="382.1914"/><line style="stroke:#181818;stroke-width:0.5;stroke-dasharray:5.0,5.0;" x1="528" x2="528" y1="96.8633" y2="382.1914"/><line style="stroke:#181818;stroke-width:0.5;stroke-dasharray:5.0,5.0;" x1="670" x2="670" y1="96.8633" y2="382.1914"/><rect fill="#E3E3E3" height="32.6211" rx="2.5" ry="2.5" style="stroke:#181818;stroke-width:0.5;" width="137" x="20" y="63.2422"/><text fill="#000000" font-family="sans-serif" font-size="14" lengthAdjust="spacing" textLength="123" x="27" y="85.3496">:ToDoListController</text><rect fill="#E3E3E3" height="32.6211" rx="2.5" ry="2.5" style="stroke:#181818;stroke-width:0.5;" width="137" x="20" y="381.1914"/><text fill="#000000" font-family="sans-serif" font-size="14" lengthAdjust="spacing" textLength="123" x="27" y="403.2988">:ToDoListController</text><rect fill="#E3E3E3" height="32.6211" rx="2.5" ry="2.5" style="stroke:#181818;stroke-width:0.5;" width="97" x="373" y="63.2422"/><text fill="#000000" font-family="sans-serif" font-size="14" lengthAdjust="spacing" textLength="83" x="380" y="85.3496">:Repositories</text><rect fill="#E3E3E3" height="32.6211" rx="2.5" ry="2.5" style="stroke:#181818;stroke-width:0.5;" width="97" x="373" y="381.1914"/><text fill="#000000" font-family="sans-serif" font-size="14" lengthAdjust="spacing" textLength="83" x="380" y="403.2988">:Repositories</text><rect fill="#E3E3E3" height="51.2422" rx="2.5" ry="2.5" style="stroke:#181818;stroke-width:0.5;" width="97" x="480" y="44.6211"/><text fill="#000000" font-family="sans-serif" font-size="14" lengthAdjust="spacing" textLength="74" x="491.5" y="66.7285">repositories</text><text fill="#000000" font-family="sans-serif" font-size="14" lengthAdjust="spacing" textLength="83" x="487" y="85.3496">:Repositories</text><rect fill="#E3E3E3" height="51.2422" rx="2.5" ry="2.5" style="stroke:#181818;stroke-width:0.5;" width="97" x="480" y="381.1914"/><text fill="#000000" font-family="sans-serif" font-size="14" lengthAdjust="spacing" textLength="74" x="491.5" y="403.2988">repositories</text><text fill="#000000" font-family="sans-serif" font-size="14" lengthAdjust="spacing" textLength="83" x="487" y="421.9199">:Repositories</text><rect fill="#E3E3E3" height="51.2422" rx="2.5" ry="2.5" style="stroke:#181818;stroke-width:0.5;" width="166" x="587" y="44.6211"/><text fill="#000000" font-family="sans-serif" font-size="14" lengthAdjust="spacing" textLength="145" x="597.5" y="66.7285">greenSpaceRepository</text><text fill="#000000" font-family="sans-serif" font-size="14" lengthAdjust="spacing" textLength="152" x="594" y="85.3496">:GreenSpaceRepository</text><rect fill="#E3E3E3" height="51.2422" rx="2.5" ry="2.5" style="stroke:#181818;stroke-width:0.5;" width="166" x="587" y="381.1914"/><text fill="#000000" font-family="sans-serif" font-size="14" lengthAdjust="spacing" textLength="145" x="597.5" y="403.2988">greenSpaceRepository</text><text fill="#000000" font-family="sans-serif" font-size="14" lengthAdjust="spacing" textLength="152" x="594" y="421.9199">:GreenSpaceRepository</text><rect fill="#FFFFFF" height="265.3281" style="stroke:#181818;stroke-width:1.0;" width="10" x="83.5" y="106.8633"/><rect fill="#FFFFFF" height="31.291" style="stroke:#181818;stroke-width:1.0;" width="10" x="416.5" y="200.7363"/><rect fill="#FFFFFF" height="31.291" style="stroke:#181818;stroke-width:1.0;" width="10" x="523.5" y="263.3184"/><rect fill="#FFFFFF" height="31.291" style="stroke:#181818;stroke-width:1.0;" width="10" x="665" y="325.9004"/><line style="stroke:#181818;stroke-width:1.0;" x1="93.5" x2="135.5" y1="130.1543" y2="130.1543"/><line style="stroke:#181818;stroke-width:1.0;" x1="135.5" x2="135.5" y1="130.1543" y2="143.1543"/><line style="stroke:#181818;stroke-width:1.0;" x1="94.5" x2="135.5" y1="143.1543" y2="143.1543"/><polygon fill="#181818" points="104.5,139.1543,94.5,143.1543,104.5,147.1543,100.5,143.1543" style="stroke:#181818;stroke-width:1.0;"/><text fill="#000000" font-family="sans-serif" font-size="13" font-weight="bold" lengthAdjust="spacing" textLength="14" x="100.5" y="124.8916">12</text><text fill="#000000" font-family="sans-serif" font-size="13" lengthAdjust="spacing" textLength="291" x="118.5" y="124.8916">getGreenSpacesByResponsible(responsibleEmail)</text><path d="M10,158.1543 L302,158.1543 L302,167.4453 L292,177.4453 L10,177.4453 L10,158.1543 " fill="#EEEEEE" style="stroke:#000000;stroke-width:1.5;"/><rect fill="none" height="207.0371" style="stroke:#000000;stroke-width:1.5;" width="753" x="10" y="158.1543"/><text fill="#000000" font-family="sans-serif" font-size="13" font-weight="bold" lengthAdjust="spacing" textLength="247" x="25" y="173.1826">Get Green Spaces by Responsible User</text><polygon fill="#181818" points="404.5,196.7363,414.5,200.7363,404.5,204.7363,408.5,200.7363" style="stroke:#181818;stroke-width:1.0;"/><line style="stroke:#181818;stroke-width:1.0;" x1="93.5" x2="410.5" y1="200.7363" y2="200.7363"/><text fill="#000000" font-family="sans-serif" font-size="13" font-weight="bold" lengthAdjust="spacing" textLength="25" x="100.5" y="195.4736">12.1</text><text fill="#000000" font-family="sans-serif" font-size="13" lengthAdjust="spacing" textLength="75" x="129.5" y="195.4736">getInstance()</text><polygon fill="#181818" points="104.5,228.0273,94.5,232.0273,104.5,236.0273,100.5,232.0273" style="stroke:#181818;stroke-width:1.0;"/><line style="stroke:#181818;stroke-width:1.0;stroke-dasharray:2.0,2.0;" x1="98.5" x2="420.5" y1="232.0273" y2="232.0273"/><text fill="#000000" font-family="sans-serif" font-size="13" font-weight="bold" lengthAdjust="spacing" textLength="25" x="110.5" y="226.7646">12.2</text><text fill="#000000" font-family="sans-serif" font-size="13" lengthAdjust="spacing" textLength="67" x="139.5" y="226.7646">repositories</text><polygon fill="#181818" points="511.5,259.3184,521.5,263.3184,511.5,267.3184,515.5,263.3184" style="stroke:#181818;stroke-width:1.0;"/><line style="stroke:#181818;stroke-width:1.0;" x1="93.5" x2="517.5" y1="263.3184" y2="263.3184"/><text fill="#000000" font-family="sans-serif" font-size="13" font-weight="bold" lengthAdjust="spacing" textLength="25" x="100.5" y="258.0557">12.3</text><text fill="#000000" font-family="sans-serif" font-size="13" lengthAdjust="spacing" textLength="160" x="129.5" y="258.0557">getGreenSpaceRepository()</text><polygon fill="#181818" points="104.5,290.6094,94.5,294.6094,104.5,298.6094,100.5,294.6094" style="stroke:#181818;stroke-width:1.0;"/><line style="stroke:#181818;stroke-width:1.0;stroke-dasharray:2.0,2.0;" x1="98.5" x2="527.5" y1="294.6094" y2="294.6094"/><text fill="#000000" font-family="sans-serif" font-size="13" font-weight="bold" lengthAdjust="spacing" textLength="25" x="110.5" y="289.3467">12.4</text><text fill="#000000" font-family="sans-serif" font-size="13" lengthAdjust="spacing" textLength="134" x="139.5" y="289.3467">GreenSpaceRepository</text><polygon fill="#181818" points="653,321.9004,663,325.9004,653,329.9004,657,325.9004" style="stroke:#181818;stroke-width:1.0;"/><line style="stroke:#181818;stroke-width:1.0;" x1="93.5" x2="659" y1="325.9004" y2="325.9004"/><text fill="#000000" font-family="sans-serif" font-size="13" font-weight="bold" lengthAdjust="spacing" textLength="25" x="100.5" y="320.6377">12.5</text><text fill="#000000" font-family="sans-serif" font-size="13" lengthAdjust="spacing" textLength="291" x="129.5" y="320.6377">getGreenSpacesByResponsible(responsibleEmail)</text><polygon fill="#181818" points="104.5,353.1914,94.5,357.1914,104.5,361.1914,100.5,357.1914" style="stroke:#181818;stroke-width:1.0;"/><line style="stroke:#181818;stroke-width:1.0;" x1="98.5" x2="669" y1="357.1914" y2="357.1914"/><text fill="#000000" font-family="sans-serif" font-size="13" font-weight="bold" lengthAdjust="spacing" textLength="25" x="110.5" y="351.9287">12.6</text><text fill="#000000" font-family="sans-serif" font-size="13" lengthAdjust="spacing" textLength="76" x="139.5" y="351.9287">greenSpaces</text><!--SRC=[bL8zJyCm4DtzAqvCxL2aCdP0WhQAAbK89MLZSTF3jPhOmRw0yk-nNHIxnKBWoVAzZtjtjYUfEcvu2wrMkZuQtIAGwP7PiTBn-iG5LZGq20PhuaeqAS0U-K5_IYNWZJSM6ID93lgoWGhVUrGrmafouQ6JgbfDOGO54XG6KK7bvD72Ve0IRQULbNlFjMWOuprfrRTxVsVEYsGjEwu8RXOxlT9RQMcf5HdTD6XkW5jOxihj5RB4Jbj9saYq0JC-39NqIPp79SKaZ5VrK-1v-x2xP0WV9II9uevPP9w3Gb6krqzN1HUHyPha1oSyvuZnONx7_1FCxaC95Y2Gehnz79BfJKoyhrikcobZmkY- -zlOBsnlvwDnPcxdFZRAkZzHusGQ0-I6d1EOVITQG3frTi1VbSQU_2gkXn49QKDXQG4UBNESr3fmHg_SqlwzY54x-mMo5idEeq_QPbOArO6beF2ZtFa2]--></g></svg>