<?xml version="1.0" encoding="us-ascii" standalone="no"?><svg xmlns="http://www.w3.org/2000/svg" xmlns:xlink="http://www.w3.org/1999/xlink" contentStyleType="text/css" height="469px" preserveAspectRatio="none" style="width:778px;height:469px;background:#FFFFFF;" version="1.1" viewBox="0 0 778 469" width="778px" zoomAndPan="magnify"><defs/><g><text fill="#000000" font-family="sans-serif" font-size="14" font-weight="bold" lengthAdjust="spacing" textLength="411" x="185" y="30.1074">UI Sequence Diagram (SSD) - Get Responsible User's Email</text><rect fill="#FFFFFF" height="297.6191" style="stroke:#181818;stroke-width:1.0;" width="10" x="43.5" y="106.8633"/><rect fill="#FFFFFF" height="274.3281" style="stroke:#181818;stroke-width:1.0;" width="10" x="275.5" y="130.1543"/><rect fill="#FFFFFF" height="208.7461" style="stroke:#181818;stroke-width:1.0;" width="10" x="285.5" y="195.7363"/><rect fill="#FFFFFF" height="207.7461" style="stroke:#181818;stroke-width:1.0;" width="10" x="285.5" y="195.7363"/><rect fill="#FFFFFF" height="31.291" style="stroke:#181818;stroke-width:1.0;" width="10" x="422.5" y="232.0273"/><rect fill="#FFFFFF" height="31.291" style="stroke:#181818;stroke-width:1.0;" width="10" x="569.5" y="294.6094"/><rect fill="#FFFFFF" height="46.291" style="stroke:#181818;stroke-width:1.0;" width="10" x="702.5" y="357.1914"/><rect fill="none" height="251.3281" style="stroke:#000000;stroke-width:1.5;" width="570" x="202" y="145.1543"/><line style="stroke:#181818;stroke-width:0.5;stroke-dasharray:5.0,5.0;" x1="48" x2="48" y1="96.8633" y2="413.4824"/><line style="stroke:#181818;stroke-width:0.5;stroke-dasharray:5.0,5.0;" x1="280" x2="280" y1="96.8633" y2="413.4824"/><line style="stroke:#181818;stroke-width:0.5;stroke-dasharray:5.0,5.0;" x1="427" x2="427" y1="96.8633" y2="413.4824"/><line style="stroke:#181818;stroke-width:0.5;stroke-dasharray:5.0,5.0;" x1="574" x2="574" y1="96.8633" y2="413.4824"/><line style="stroke:#181818;stroke-width:0.5;stroke-dasharray:5.0,5.0;" x1="707" x2="707" y1="96.8633" y2="413.4824"/><rect fill="#E3E3E3" height="32.6211" rx="2.5" ry="2.5" style="stroke:#181818;stroke-width:0.5;" width="87" x="5" y="63.2422"/><text fill="#000000" font-family="sans-serif" font-size="14" lengthAdjust="spacing" textLength="73" x="12" y="85.3496">:ToDoListUI</text><rect fill="#E3E3E3" height="32.6211" rx="2.5" ry="2.5" style="stroke:#181818;stroke-width:0.5;" width="87" x="5" y="412.4824"/><text fill="#000000" font-family="sans-serif" font-size="14" lengthAdjust="spacing" textLength="73" x="12" y="434.5898">:ToDoListUI</text><rect fill="#E3E3E3" height="32.6211" rx="2.5" ry="2.5" style="stroke:#181818;stroke-width:0.5;" width="137" x="212" y="63.2422"/><text fill="#000000" font-family="sans-serif" font-size="14" lengthAdjust="spacing" textLength="123" x="219" y="85.3496">:ToDoListController</text><rect fill="#E3E3E3" height="32.6211" rx="2.5" ry="2.5" style="stroke:#181818;stroke-width:0.5;" width="137" x="212" y="412.4824"/><text fill="#000000" font-family="sans-serif" font-size="14" lengthAdjust="spacing" textLength="123" x="219" y="434.5898">:ToDoListController</text><rect fill="#E3E3E3" height="32.6211" rx="2.5" ry="2.5" style="stroke:#181818;stroke-width:0.5;" width="137" x="359" y="63.2422"/><text fill="#000000" font-family="sans-serif" font-size="14" lengthAdjust="spacing" textLength="123" x="366" y="85.3496">:ApplicationSession</text><rect fill="#E3E3E3" height="32.6211" rx="2.5" ry="2.5" style="stroke:#181818;stroke-width:0.5;" width="137" x="359" y="412.4824"/><text fill="#000000" font-family="sans-serif" font-size="14" lengthAdjust="spacing" textLength="123" x="366" y="434.5898">:ApplicationSession</text><rect fill="#E3E3E3" height="51.2422" rx="2.5" ry="2.5" style="stroke:#181818;stroke-width:0.5;" width="137" x="506" y="44.6211"/><text fill="#000000" font-family="sans-serif" font-size="14" lengthAdjust="spacing" textLength="74" x="537.5" y="66.7285">appSession</text><text fill="#000000" font-family="sans-serif" font-size="14" lengthAdjust="spacing" textLength="123" x="513" y="85.3496">:ApplicationSession</text><rect fill="#E3E3E3" height="51.2422" rx="2.5" ry="2.5" style="stroke:#181818;stroke-width:0.5;" width="137" x="506" y="412.4824"/><text fill="#000000" font-family="sans-serif" font-size="14" lengthAdjust="spacing" textLength="74" x="537.5" y="434.5898">appSession</text><text fill="#000000" font-family="sans-serif" font-size="14" lengthAdjust="spacing" textLength="123" x="513" y="453.2109">:ApplicationSession</text><rect fill="#E3E3E3" height="51.2422" rx="2.5" ry="2.5" style="stroke:#181818;stroke-width:0.5;" width="109" x="653" y="44.6211"/><text fill="#000000" font-family="sans-serif" font-size="14" lengthAdjust="spacing" textLength="95" x="660" y="66.7285">currentSession</text><text fill="#000000" font-family="sans-serif" font-size="14" lengthAdjust="spacing" textLength="83" x="666" y="85.3496">:UserSession</text><rect fill="#E3E3E3" height="51.2422" rx="2.5" ry="2.5" style="stroke:#181818;stroke-width:0.5;" width="109" x="653" y="412.4824"/><text fill="#000000" font-family="sans-serif" font-size="14" lengthAdjust="spacing" textLength="95" x="660" y="434.5898">currentSession</text><text fill="#000000" font-family="sans-serif" font-size="14" lengthAdjust="spacing" textLength="83" x="666" y="453.2109">:UserSession</text><rect fill="#FFFFFF" height="297.6191" style="stroke:#181818;stroke-width:1.0;" width="10" x="43.5" y="106.8633"/><rect fill="#FFFFFF" height="274.3281" style="stroke:#181818;stroke-width:1.0;" width="10" x="275.5" y="130.1543"/><rect fill="#FFFFFF" height="208.7461" style="stroke:#181818;stroke-width:1.0;" width="10" x="285.5" y="195.7363"/><rect fill="#FFFFFF" height="207.7461" style="stroke:#181818;stroke-width:1.0;" width="10" x="285.5" y="195.7363"/><rect fill="#FFFFFF" height="31.291" style="stroke:#181818;stroke-width:1.0;" width="10" x="422.5" y="232.0273"/><rect fill="#FFFFFF" height="31.291" style="stroke:#181818;stroke-width:1.0;" width="10" x="569.5" y="294.6094"/><rect fill="#FFFFFF" height="46.291" style="stroke:#181818;stroke-width:1.0;" width="10" x="702.5" y="357.1914"/><polygon fill="#181818" points="263.5,126.1543,273.5,130.1543,263.5,134.1543,267.5,130.1543" style="stroke:#181818;stroke-width:1.0;"/><line style="stroke:#181818;stroke-width:1.0;" x1="53.5" x2="269.5" y1="130.1543" y2="130.1543"/><text fill="#000000" font-family="sans-serif" font-size="13" font-weight="bold" lengthAdjust="spacing" textLength="7" x="60.5" y="124.8916">3</text><text fill="#000000" font-family="sans-serif" font-size="13" lengthAdjust="spacing" textLength="192" x="71.5" y="124.8916">getGreenSpacesByResponsible()</text><path d="M202,145.1543 L431,145.1543 L431,154.4453 L421,164.4453 L202,164.4453 L202,145.1543 " fill="#EEEEEE" style="stroke:#000000;stroke-width:1.5;"/><rect fill="none" height="251.3281" style="stroke:#000000;stroke-width:1.5;" width="570" x="202" y="145.1543"/><text fill="#000000" font-family="sans-serif" font-size="13" font-weight="bold" lengthAdjust="spacing" textLength="184" x="217" y="160.1826">Get Responsible User's Email</text><line style="stroke:#181818;stroke-width:1.0;" x1="285.5" x2="332.5" y1="182.7363" y2="182.7363"/><line style="stroke:#181818;stroke-width:1.0;" x1="332.5" x2="332.5" y1="182.7363" y2="195.7363"/><line style="stroke:#181818;stroke-width:1.0;" x1="291.5" x2="332.5" y1="195.7363" y2="195.7363"/><polygon fill="#181818" points="301.5,191.7363,291.5,195.7363,301.5,199.7363,297.5,195.7363" style="stroke:#181818;stroke-width:1.0;"/><text fill="#000000" font-family="sans-serif" font-size="13" font-weight="bold" lengthAdjust="spacing" textLength="18" x="297.5" y="177.4736">3.1</text><text fill="#000000" font-family="sans-serif" font-size="13" lengthAdjust="spacing" textLength="97" x="319.5" y="177.4736">getResponsible()</text><polygon fill="#181818" points="410.5,228.0273,420.5,232.0273,410.5,236.0273,414.5,232.0273" style="stroke:#181818;stroke-width:1.0;"/><line style="stroke:#181818;stroke-width:1.0;" x1="295.5" x2="416.5" y1="232.0273" y2="232.0273"/><text fill="#000000" font-family="sans-serif" font-size="13" font-weight="bold" lengthAdjust="spacing" textLength="18" x="302.5" y="226.7646">3.2</text><text fill="#000000" font-family="sans-serif" font-size="13" lengthAdjust="spacing" textLength="75" x="324.5" y="226.7646">getInstance()</text><polygon fill="#181818" points="306.5,259.3184,296.5,263.3184,306.5,267.3184,302.5,263.3184" style="stroke:#181818;stroke-width:1.0;"/><line style="stroke:#181818;stroke-width:1.0;" x1="300.5" x2="426.5" y1="263.3184" y2="263.3184"/><text fill="#000000" font-family="sans-serif" font-size="13" font-weight="bold" lengthAdjust="spacing" textLength="18" x="312.5" y="258.0557">3.3</text><text fill="#000000" font-family="sans-serif" font-size="13" lengthAdjust="spacing" textLength="68" x="334.5" y="258.0557">appSession</text><polygon fill="#181818" points="557.5,290.6094,567.5,294.6094,557.5,298.6094,561.5,294.6094" style="stroke:#181818;stroke-width:1.0;"/><line style="stroke:#181818;stroke-width:1.0;" x1="295.5" x2="563.5" y1="294.6094" y2="294.6094"/><text fill="#000000" font-family="sans-serif" font-size="13" font-weight="bold" lengthAdjust="spacing" textLength="18" x="302.5" y="289.3467">3.4</text><text fill="#000000" font-family="sans-serif" font-size="13" lengthAdjust="spacing" textLength="115" x="324.5" y="289.3467">getCurrentSession()</text><polygon fill="#181818" points="306.5,321.9004,296.5,325.9004,306.5,329.9004,302.5,325.9004" style="stroke:#181818;stroke-width:1.0;"/><line style="stroke:#181818;stroke-width:1.0;stroke-dasharray:2.0,2.0;" x1="300.5" x2="573.5" y1="325.9004" y2="325.9004"/><text fill="#000000" font-family="sans-serif" font-size="13" font-weight="bold" lengthAdjust="spacing" textLength="18" x="312.5" y="320.6377">3.5</text><text fill="#000000" font-family="sans-serif" font-size="13" lengthAdjust="spacing" textLength="87" x="334.5" y="320.6377">currentSession</text><polygon fill="#181818" points="690.5,353.1914,700.5,357.1914,690.5,361.1914,694.5,357.1914" style="stroke:#181818;stroke-width:1.0;"/><line style="stroke:#181818;stroke-width:1.0;" x1="295.5" x2="696.5" y1="357.1914" y2="357.1914"/><text fill="#000000" font-family="sans-serif" font-size="13" font-weight="bold" lengthAdjust="spacing" textLength="18" x="302.5" y="351.9287">3.6</text><text fill="#000000" font-family="sans-serif" font-size="13" lengthAdjust="spacing" textLength="86" x="324.5" y="351.9287">getUserEmail()</text><polygon fill="#181818" points="306.5,384.4824,296.5,388.4824,306.5,392.4824,302.5,388.4824" style="stroke:#181818;stroke-width:1.0;"/><line style="stroke:#181818;stroke-width:1.0;stroke-dasharray:2.0,2.0;" x1="300.5" x2="701.5" y1="388.4824" y2="388.4824"/><text fill="#000000" font-family="sans-serif" font-size="13" font-weight="bold" lengthAdjust="spacing" textLength="18" x="312.5" y="383.2197">3.7</text><text fill="#000000" font-family="sans-serif" font-size="13" lengthAdjust="spacing" textLength="99" x="334.5" y="383.2197">responsibleEmail</text><!--SRC=[ZPBFQy8m5CVl-IiUNgO71yERXu5J4K6O6BqDHenlDTWcMVAwuN-_9Fvewd3iqjBc-wFly-eFIblXH0MLqKRkdQaGoDN8_FN42daG1N8wbWWE9GbTbBd0xyNEV2jTm8SeFJ96Ye9qCmUEdpLgYJ1HeeZIBkUJ7lHXXWGhzDPehxPHwz4zU9XMGfMCYPgChgijEiPOw20bbHMQe3DScubPA4-RUGU43nrtpiT6apDbYIxfnklLuaOvihPKKf0ocgFtuPQKxwFbigqKrfu5R_gUwvT9riwXfiOO9ymTVChvw3NCAabz2OguihbXm0A-_dFwS1X2WJHpY9g7PQ1_EMRikhqc8ut92cTg-s_4C7XyOgccLVTdmytZnHtP9VDS-_2No9OpWOsNIyyG6h9iXstXDVCIEMu1pOEZFCLUSzlmy-nMz6a5AJt2IMJouFEAJhSitZLeJZHHx_AIosgpLudJ3m00]--></g></svg>