<?xml version="1.0" encoding="us-ascii" standalone="no"?><svg xmlns="http://www.w3.org/2000/svg" xmlns:xlink="http://www.w3.org/1999/xlink" contentStyleType="text/css" height="1238px" preserveAspectRatio="none" style="width:1414px;height:1238px;background:#FFFFFF;" version="1.1" viewBox="0 0 1414 1238" width="1414px" zoomAndPan="magnify"><defs/><g><text fill="#000000" font-family="sans-serif" font-size="14" font-weight="bold" lengthAdjust="spacing" textLength="482" x="467.75" y="30.1074">UI Sequence Diagram (SSD) - Get Green Spaces by Responsible User</text><rect fill="#FFFFFF" height="1066.459" style="stroke:#181818;stroke-width:1.0;" width="10" x="68.5" y="106.8633"/><rect fill="#FFFFFF" height="192.7461" style="stroke:#181818;stroke-width:1.0;" width="10" x="73.5" y="138.1543"/><rect fill="#FFFFFF" height="31.291" style="stroke:#181818;stroke-width:1.0;" width="10" x="215.5" y="174.4453"/><rect fill="#FFFFFF" height="31.291" style="stroke:#181818;stroke-width:1.0;" width="10" x="362.5" y="237.0273"/><rect fill="#FFFFFF" height="31.291" style="stroke:#181818;stroke-width:1.0;" width="10" x="495.5" y="299.6094"/><rect fill="#FFFFFF" height="433.5215" style="stroke:#181818;stroke-width:1.0;" width="10" x="643" y="362.1914"/><rect fill="#FFFFFF" height="28" style="stroke:#181818;stroke-width:1.0;" width="10" x="648" y="490.0156"/><rect fill="#FFFFFF" height="30" style="stroke:#181818;stroke-width:1.0;" width="10" x="804" y="720.4219"/><rect fill="#FFFFFF" height="30" style="stroke:#181818;stroke-width:1.0;" width="10" x="804" y="946.8281"/><rect fill="#FFFFFF" height="346.3184" style="stroke:#181818;stroke-width:1.0;" width="10" x="946.5" y="827.0039"/><rect fill="#FFFFFF" height="36.291" style="stroke:#181818;stroke-width:1.0;" width="10" x="951.5" y="1016.1191"/><rect fill="#FFFFFF" height="96.5332" style="stroke:#181818;stroke-width:1.0;" width="10" x="1103.5" y="566.3066"/><rect fill="#FFFFFF" height="30" style="stroke:#181818;stroke-width:1.0;" width="10" x="1245.5" y="1096.0313"/><rect fill="none" height="325.9883" style="stroke:#000000;stroke-width:1.5;" width="702.5" x="545" y="439.4336"/><rect fill="none" height="80.582" style="stroke:#000000;stroke-width:1.5;" width="332" x="555" y="677.8398"/><rect fill="none" height="229.7852" style="stroke:#000000;stroke-width:1.5;" width="677.5" x="731" y="904.2461"/><line style="stroke:#181818;stroke-width:0.5;stroke-dasharray:5.0,5.0;" x1="73" x2="73" y1="96.8633" y2="1182.3223"/><line style="stroke:#181818;stroke-width:0.5;stroke-dasharray:5.0,5.0;" x1="220" x2="220" y1="96.8633" y2="1182.3223"/><line style="stroke:#181818;stroke-width:0.5;stroke-dasharray:5.0,5.0;" x1="367" x2="367" y1="96.8633" y2="1182.3223"/><line style="stroke:#181818;stroke-width:0.5;stroke-dasharray:5.0,5.0;" x1="500" x2="500" y1="96.8633" y2="1182.3223"/><line style="stroke:#181818;stroke-width:0.5;stroke-dasharray:5.0,5.0;" x1="648" x2="648" y1="96.8633" y2="1182.3223"/><line style="stroke:#181818;stroke-width:0.5;stroke-dasharray:5.0,5.0;" x1="809" x2="809" y1="411.3125" y2="1182.3223"/><line style="stroke:#181818;stroke-width:0.5;stroke-dasharray:5.0,5.0;" x1="951" x2="951" y1="96.8633" y2="1182.3223"/><line style="stroke:#181818;stroke-width:0.5;stroke-dasharray:5.0,5.0;" x1="1108.5" x2="1108.5" y1="574.1367" y2="1182.3223"/><line style="stroke:#181818;stroke-width:0.5;stroke-dasharray:5.0,5.0;" x1="1250.5" x2="1250.5" y1="876.125" y2="1182.3223"/><line style="stroke:#181818;stroke-width:0.5;stroke-dasharray:5.0,5.0;" x1="1370.5" x2="1370.5" y1="1060.9297" y2="1182.3223"/><rect fill="#E3E3E3" height="32.6211" rx="2.5" ry="2.5" style="stroke:#181818;stroke-width:0.5;" width="137" x="5" y="63.2422"/><text fill="#000000" font-family="sans-serif" font-size="14" lengthAdjust="spacing" textLength="123" x="12" y="85.3496">:ToDoListController</text><rect fill="#E3E3E3" height="32.6211" rx="2.5" ry="2.5" style="stroke:#181818;stroke-width:0.5;" width="137" x="5" y="1181.3223"/><text fill="#000000" font-family="sans-serif" font-size="14" lengthAdjust="spacing" textLength="123" x="12" y="1203.4297">:ToDoListController</text><rect fill="#E3E3E3" height="32.6211" rx="2.5" ry="2.5" style="stroke:#181818;stroke-width:0.5;" width="137" x="152" y="63.2422"/><text fill="#000000" font-family="sans-serif" font-size="14" lengthAdjust="spacing" textLength="123" x="159" y="85.3496">:ApplicationSession</text><rect fill="#E3E3E3" height="32.6211" rx="2.5" ry="2.5" style="stroke:#181818;stroke-width:0.5;" width="137" x="152" y="1181.3223"/><text fill="#000000" font-family="sans-serif" font-size="14" lengthAdjust="spacing" textLength="123" x="159" y="1203.4297">:ApplicationSession</text><rect fill="#E3E3E3" height="51.2422" rx="2.5" ry="2.5" style="stroke:#181818;stroke-width:0.5;" width="137" x="299" y="44.6211"/><text fill="#000000" font-family="sans-serif" font-size="14" lengthAdjust="spacing" textLength="74" x="330.5" y="66.7285">appSession</text><text fill="#000000" font-family="sans-serif" font-size="14" lengthAdjust="spacing" textLength="123" x="306" y="85.3496">:ApplicationSession</text><rect fill="#E3E3E3" height="51.2422" rx="2.5" ry="2.5" style="stroke:#181818;stroke-width:0.5;" width="137" x="299" y="1181.3223"/><text fill="#000000" font-family="sans-serif" font-size="14" lengthAdjust="spacing" textLength="74" x="330.5" y="1203.4297">appSession</text><text fill="#000000" font-family="sans-serif" font-size="14" lengthAdjust="spacing" textLength="123" x="306" y="1222.0508">:ApplicationSession</text><rect fill="#E3E3E3" height="51.2422" rx="2.5" ry="2.5" style="stroke:#181818;stroke-width:0.5;" width="109" x="446" y="44.6211"/><text fill="#000000" font-family="sans-serif" font-size="14" lengthAdjust="spacing" textLength="95" x="453" y="66.7285">currentSession</text><text fill="#000000" font-family="sans-serif" font-size="14" lengthAdjust="spacing" textLength="83" x="459" y="85.3496">:UserSession</text><rect fill="#E3E3E3" height="51.2422" rx="2.5" ry="2.5" style="stroke:#181818;stroke-width:0.5;" width="109" x="446" y="1181.3223"/><text fill="#000000" font-family="sans-serif" font-size="14" lengthAdjust="spacing" textLength="95" x="453" y="1203.4297">currentSession</text><text fill="#000000" font-family="sans-serif" font-size="14" lengthAdjust="spacing" textLength="83" x="459" y="1222.0508">:UserSession</text><rect fill="#E3E3E3" height="51.2422" rx="2.5" ry="2.5" style="stroke:#181818;stroke-width:0.5;" width="166" x="565" y="44.6211"/><text fill="#000000" font-family="sans-serif" font-size="14" lengthAdjust="spacing" textLength="145" x="575.5" y="66.7285">greenSpaceRepository</text><text fill="#000000" font-family="sans-serif" font-size="14" lengthAdjust="spacing" textLength="152" x="572" y="85.3496">:GreenSpaceRepository</text><rect fill="#E3E3E3" height="51.2422" rx="2.5" ry="2.5" style="stroke:#181818;stroke-width:0.5;" width="166" x="565" y="1181.3223"/><text fill="#000000" font-family="sans-serif" font-size="14" lengthAdjust="spacing" textLength="145" x="575.5" y="1203.4297">greenSpaceRepository</text><text fill="#000000" font-family="sans-serif" font-size="14" lengthAdjust="spacing" textLength="152" x="572" y="1222.0508">:GreenSpaceRepository</text><rect fill="#E3E3E3" height="51.2422" rx="2.5" ry="2.5" style="stroke:#181818;stroke-width:0.5;" width="136" x="741" y="1181.3223"/><text fill="#000000" font-family="sans-serif" font-size="14" lengthAdjust="spacing" textLength="97" x="760.5" y="1203.4297">listGreenSpace</text><text fill="#000000" font-family="sans-serif" font-size="14" lengthAdjust="spacing" textLength="122" x="748" y="1222.0508">:List&lt;GreenSpace&gt;</text><rect fill="#E3E3E3" height="51.2422" rx="2.5" ry="2.5" style="stroke:#181818;stroke-width:0.5;" width="129" x="887" y="44.6211"/><text fill="#000000" font-family="sans-serif" font-size="14" lengthAdjust="spacing" textLength="111" x="896" y="66.7285">toDoEntryMapper</text><text fill="#000000" font-family="sans-serif" font-size="14" lengthAdjust="spacing" textLength="115" x="894" y="85.3496">:toDoEntryMapper</text><rect fill="#E3E3E3" height="51.2422" rx="2.5" ry="2.5" style="stroke:#181818;stroke-width:0.5;" width="129" x="887" y="1181.3223"/><text fill="#000000" font-family="sans-serif" font-size="14" lengthAdjust="spacing" textLength="111" x="896" y="1203.4297">toDoEntryMapper</text><text fill="#000000" font-family="sans-serif" font-size="14" lengthAdjust="spacing" textLength="115" x="894" y="1222.0508">:toDoEntryMapper</text><rect fill="#E3E3E3" height="51.2422" rx="2.5" ry="2.5" style="stroke:#181818;stroke-width:0.5;" width="98" x="1059.5" y="1181.3223"/><text fill="#000000" font-family="sans-serif" font-size="14" lengthAdjust="spacing" textLength="77" x="1070" y="1203.4297">greenSpace</text><text fill="#000000" font-family="sans-serif" font-size="14" lengthAdjust="spacing" textLength="84" x="1066.5" y="1222.0508">:GreenSpace</text><rect fill="#E3E3E3" height="51.2422" rx="2.5" ry="2.5" style="stroke:#181818;stroke-width:0.5;" width="166" x="1167.5" y="1181.3223"/><text fill="#000000" font-family="sans-serif" font-size="14" lengthAdjust="spacing" textLength="127" x="1187" y="1203.4297">listGreenSpaceDTO</text><text fill="#000000" font-family="sans-serif" font-size="14" lengthAdjust="spacing" textLength="152" x="1174.5" y="1222.0508">:List&lt;GreenSpaceDTO&gt;</text><rect fill="#E3E3E3" height="32.6211" rx="2.5" ry="2.5" style="stroke:#181818;stroke-width:0.5;" width="55" x="1343.5" y="1181.3223"/><text fill="#000000" font-family="sans-serif" font-size="14" lengthAdjust="spacing" textLength="41" x="1350.5" y="1203.4297">objDto</text><rect fill="#FFFFFF" height="1066.459" style="stroke:#181818;stroke-width:1.0;" width="10" x="68.5" y="106.8633"/><rect fill="#FFFFFF" height="192.7461" style="stroke:#181818;stroke-width:1.0;" width="10" x="73.5" y="138.1543"/><rect fill="#FFFFFF" height="31.291" style="stroke:#181818;stroke-width:1.0;" width="10" x="215.5" y="174.4453"/><rect fill="#FFFFFF" height="31.291" style="stroke:#181818;stroke-width:1.0;" width="10" x="362.5" y="237.0273"/><rect fill="#FFFFFF" height="31.291" style="stroke:#181818;stroke-width:1.0;" width="10" x="495.5" y="299.6094"/><rect fill="#FFFFFF" height="433.5215" style="stroke:#181818;stroke-width:1.0;" width="10" x="643" y="362.1914"/><rect fill="#FFFFFF" height="28" style="stroke:#181818;stroke-width:1.0;" width="10" x="648" y="490.0156"/><rect fill="#FFFFFF" height="30" style="stroke:#181818;stroke-width:1.0;" width="10" x="804" y="720.4219"/><rect fill="#FFFFFF" height="30" style="stroke:#181818;stroke-width:1.0;" width="10" x="804" y="946.8281"/><rect fill="#FFFFFF" height="346.3184" style="stroke:#181818;stroke-width:1.0;" width="10" x="946.5" y="827.0039"/><rect fill="#FFFFFF" height="36.291" style="stroke:#181818;stroke-width:1.0;" width="10" x="951.5" y="1016.1191"/><rect fill="#FFFFFF" height="96.5332" style="stroke:#181818;stroke-width:1.0;" width="10" x="1103.5" y="566.3066"/><rect fill="#FFFFFF" height="30" style="stroke:#181818;stroke-width:1.0;" width="10" x="1245.5" y="1096.0313"/><line style="stroke:#181818;stroke-width:1.0;" x1="78.5" x2="125.5" y1="125.1543" y2="125.1543"/><line style="stroke:#181818;stroke-width:1.0;" x1="125.5" x2="125.5" y1="125.1543" y2="138.1543"/><line style="stroke:#181818;stroke-width:1.0;" x1="84.5" x2="125.5" y1="138.1543" y2="138.1543"/><polygon fill="#181818" points="94.5,134.1543,84.5,138.1543,94.5,142.1543,90.5,138.1543" style="stroke:#181818;stroke-width:1.0;"/><text fill="#000000" font-family="sans-serif" font-size="13" font-weight="bold" lengthAdjust="spacing" textLength="7" x="90.5" y="119.8916">1</text><text fill="#000000" font-family="sans-serif" font-size="13" lengthAdjust="spacing" textLength="97" x="101.5" y="119.8916">getResponsible()</text><polygon fill="#181818" points="203.5,170.4453,213.5,174.4453,203.5,178.4453,207.5,174.4453" style="stroke:#181818;stroke-width:1.0;"/><line style="stroke:#181818;stroke-width:1.0;" x1="83.5" x2="209.5" y1="174.4453" y2="174.4453"/><text fill="#000000" font-family="sans-serif" font-size="13" font-weight="bold" lengthAdjust="spacing" textLength="7" x="90.5" y="169.1826">2</text><text fill="#000000" font-family="sans-serif" font-size="13" lengthAdjust="spacing" textLength="75" x="101.5" y="169.1826">getInstance()</text><polygon fill="#181818" points="94.5,201.7363,84.5,205.7363,94.5,209.7363,90.5,205.7363" style="stroke:#181818;stroke-width:1.0;"/><line style="stroke:#181818;stroke-width:1.0;" x1="88.5" x2="219.5" y1="205.7363" y2="205.7363"/><text fill="#000000" font-family="sans-serif" font-size="13" font-weight="bold" lengthAdjust="spacing" textLength="7" x="100.5" y="200.4736">3</text><text fill="#000000" font-family="sans-serif" font-size="13" lengthAdjust="spacing" textLength="68" x="111.5" y="200.4736">appSession</text><polygon fill="#181818" points="350.5,233.0273,360.5,237.0273,350.5,241.0273,354.5,237.0273" style="stroke:#181818;stroke-width:1.0;"/><line style="stroke:#181818;stroke-width:1.0;" x1="83.5" x2="356.5" y1="237.0273" y2="237.0273"/><text fill="#000000" font-family="sans-serif" font-size="13" font-weight="bold" lengthAdjust="spacing" textLength="7" x="90.5" y="231.7646">4</text><text fill="#000000" font-family="sans-serif" font-size="13" lengthAdjust="spacing" textLength="115" x="101.5" y="231.7646">getCurrentSession()</text><polygon fill="#181818" points="94.5,264.3184,84.5,268.3184,94.5,272.3184,90.5,268.3184" style="stroke:#181818;stroke-width:1.0;"/><line style="stroke:#181818;stroke-width:1.0;stroke-dasharray:2.0,2.0;" x1="88.5" x2="366.5" y1="268.3184" y2="268.3184"/><text fill="#000000" font-family="sans-serif" font-size="13" font-weight="bold" lengthAdjust="spacing" textLength="7" x="100.5" y="263.0557">5</text><text fill="#000000" font-family="sans-serif" font-size="13" lengthAdjust="spacing" textLength="87" x="111.5" y="263.0557">currentSession</text><polygon fill="#181818" points="483.5,295.6094,493.5,299.6094,483.5,303.6094,487.5,299.6094" style="stroke:#181818;stroke-width:1.0;"/><line style="stroke:#181818;stroke-width:1.0;" x1="83.5" x2="489.5" y1="299.6094" y2="299.6094"/><text fill="#000000" font-family="sans-serif" font-size="13" font-weight="bold" lengthAdjust="spacing" textLength="7" x="90.5" y="294.3467">6</text><text fill="#000000" font-family="sans-serif" font-size="13" lengthAdjust="spacing" textLength="86" x="101.5" y="294.3467">getUserEmail()</text><polygon fill="#181818" points="89.5,326.9004,79.5,330.9004,89.5,334.9004,85.5,330.9004" style="stroke:#181818;stroke-width:1.0;"/><line style="stroke:#181818;stroke-width:1.0;stroke-dasharray:2.0,2.0;" x1="83.5" x2="499.5" y1="330.9004" y2="330.9004"/><text fill="#000000" font-family="sans-serif" font-size="13" font-weight="bold" lengthAdjust="spacing" textLength="7" x="95.5" y="325.6377">7</text><text fill="#000000" font-family="sans-serif" font-size="13" lengthAdjust="spacing" textLength="99" x="106.5" y="325.6377">responsibleEmail</text><polygon fill="#181818" points="631,358.1914,641,362.1914,631,366.1914,635,362.1914" style="stroke:#181818;stroke-width:1.0;"/><line style="stroke:#181818;stroke-width:1.0;" x1="78.5" x2="637" y1="362.1914" y2="362.1914"/><text fill="#000000" font-family="sans-serif" font-size="13" font-weight="bold" lengthAdjust="spacing" textLength="7" x="85.5" y="356.9287">8</text><text fill="#000000" font-family="sans-serif" font-size="13" lengthAdjust="spacing" textLength="291" x="96.5" y="356.9287">getGreenSpacesByResponsible(responsibleEmail)</text><polygon fill="#181818" points="729,389.4824,739,393.4824,729,397.4824,733,393.4824" style="stroke:#181818;stroke-width:1.0;"/><line style="stroke:#181818;stroke-width:1.0;" x1="653" x2="735" y1="393.4824" y2="393.4824"/><text fill="#000000" font-family="sans-serif" font-size="13" font-weight="bold" lengthAdjust="spacing" textLength="7" x="660" y="388.2197">9</text><text fill="#000000" font-family="sans-serif" font-size="13" lengthAdjust="spacing" textLength="36" x="671" y="388.2197">create</text><rect fill="#E3E3E3" height="51.2422" rx="2.5" ry="2.5" style="stroke:#181818;stroke-width:0.5;" width="136" x="741" y="370.1914"/><text fill="#000000" font-family="sans-serif" font-size="14" lengthAdjust="spacing" textLength="97" x="760.5" y="392.2988">listGreenSpace</text><text fill="#000000" font-family="sans-serif" font-size="14" lengthAdjust="spacing" textLength="122" x="748" y="410.9199">:List&lt;GreenSpace&gt;</text><path d="M545,439.4336 L622,439.4336 L622,448.7246 L612,458.7246 L545,458.7246 L545,439.4336 " fill="#EEEEEE" style="stroke:#000000;stroke-width:1.5;"/><rect fill="none" height="325.9883" style="stroke:#000000;stroke-width:1.5;" width="702.5" x="545" y="439.4336"/><text fill="#000000" font-family="sans-serif" font-size="13" font-weight="bold" lengthAdjust="spacing" textLength="28" x="560" y="454.4619">loop</text><text fill="#000000" font-family="sans-serif" font-size="11" font-weight="bold" lengthAdjust="spacing" textLength="254" x="637" y="453.3037">[for each object in the GreenSpaceRepository]</text><line style="stroke:#181818;stroke-width:1.0;" x1="658" x2="700" y1="482.0156" y2="482.0156"/><line style="stroke:#181818;stroke-width:1.0;" x1="700" x2="700" y1="482.0156" y2="495.0156"/><line style="stroke:#181818;stroke-width:1.0;" x1="659" x2="700" y1="495.0156" y2="495.0156"/><polygon fill="#181818" points="669,491.0156,659,495.0156,669,499.0156,665,495.0156" style="stroke:#181818;stroke-width:1.0;"/><text fill="#000000" font-family="sans-serif" font-size="13" font-weight="bold" lengthAdjust="spacing" textLength="14" x="665" y="476.7529">10</text><text fill="#000000" font-family="sans-serif" font-size="13" lengthAdjust="spacing" textLength="62" x="683" y="476.7529">obj = get(i)</text><polygon fill="#181818" points="1047.5,552.3066,1057.5,556.3066,1047.5,560.3066,1051.5,556.3066" style="stroke:#181818;stroke-width:1.0;"/><line style="stroke:#181818;stroke-width:1.0;" x1="653" x2="1053.5" y1="556.3066" y2="556.3066"/><text fill="#000000" font-family="sans-serif" font-size="13" font-weight="bold" lengthAdjust="spacing" textLength="14" x="660" y="551.0439">11</text><text fill="#000000" font-family="sans-serif" font-size="13" lengthAdjust="spacing" textLength="97" x="678" y="551.0439">getResponsible()</text><rect fill="#E3E3E3" height="51.2422" rx="2.5" ry="2.5" style="stroke:#181818;stroke-width:0.5;" width="98" x="1059.5" y="533.0156"/><text fill="#000000" font-family="sans-serif" font-size="14" lengthAdjust="spacing" textLength="77" x="1070" y="555.123">greenSpace</text><text fill="#000000" font-family="sans-serif" font-size="14" lengthAdjust="spacing" textLength="84" x="1066.5" y="573.7441">:GreenSpace</text><line style="stroke:#181818;stroke-width:1.0;" x1="1113.5" x2="1155.5" y1="618.5488" y2="618.5488"/><line style="stroke:#181818;stroke-width:1.0;" x1="1155.5" x2="1155.5" y1="618.5488" y2="631.5488"/><line style="stroke:#181818;stroke-width:1.0;" x1="1114.5" x2="1155.5" y1="631.5488" y2="631.5488"/><polygon fill="#181818" points="1124.5,627.5488,1114.5,631.5488,1124.5,635.5488,1120.5,631.5488" style="stroke:#181818;stroke-width:1.0;"/><text fill="#000000" font-family="sans-serif" font-size="13" font-weight="bold" lengthAdjust="spacing" textLength="14" x="1120.5" y="613.2861">12</text><text fill="#000000" font-family="sans-serif" font-size="13" lengthAdjust="spacing" textLength="97" x="1138.5" y="613.2861">getResponsible()</text><polygon fill="#181818" points="664,658.8398,654,662.8398,664,666.8398,660,662.8398" style="stroke:#181818;stroke-width:1.0;"/><line style="stroke:#181818;stroke-width:1.0;stroke-dasharray:2.0,2.0;" x1="658" x2="1107.5" y1="662.8398" y2="662.8398"/><text fill="#000000" font-family="sans-serif" font-size="13" font-weight="bold" lengthAdjust="spacing" textLength="14" x="670" y="657.5771">13</text><text fill="#000000" font-family="sans-serif" font-size="13" lengthAdjust="spacing" textLength="88" x="688" y="657.5771">objResponsible</text><path d="M555,677.8398 L612,677.8398 L612,687.1309 L602,697.1309 L555,697.1309 L555,677.8398 " fill="#EEEEEE" style="stroke:#000000;stroke-width:1.5;"/><rect fill="none" height="80.582" style="stroke:#000000;stroke-width:1.5;" width="332" x="555" y="677.8398"/><text fill="#000000" font-family="sans-serif" font-size="13" font-weight="bold" lengthAdjust="spacing" textLength="8" x="570" y="692.8682">if</text><text fill="#000000" font-family="sans-serif" font-size="11" font-weight="bold" lengthAdjust="spacing" textLength="208" x="627" y="691.71">[objResponsible == responsibleEmail]</text><polygon fill="#181818" points="792,716.4219,802,720.4219,792,724.4219,796,720.4219" style="stroke:#181818;stroke-width:1.0;"/><line style="stroke:#181818;stroke-width:1.0;" x1="653" x2="798" y1="720.4219" y2="720.4219"/><text fill="#000000" font-family="sans-serif" font-size="13" font-weight="bold" lengthAdjust="spacing" textLength="14" x="660" y="715.1592">14</text><text fill="#000000" font-family="sans-serif" font-size="13" lengthAdjust="spacing" textLength="46" x="678" y="715.1592">add(obj)</text><polygon fill="#181818" points="89.5,791.7129,79.5,795.7129,89.5,799.7129,85.5,795.7129" style="stroke:#181818;stroke-width:1.0;"/><line style="stroke:#181818;stroke-width:1.0;stroke-dasharray:2.0,2.0;" x1="83.5" x2="647" y1="795.7129" y2="795.7129"/><text fill="#000000" font-family="sans-serif" font-size="13" font-weight="bold" lengthAdjust="spacing" textLength="14" x="95.5" y="790.4502">15</text><text fill="#000000" font-family="sans-serif" font-size="13" lengthAdjust="spacing" textLength="176" x="113.5" y="790.4502">listGreenSpaceByResponsible</text><polygon fill="#181818" points="934.5,823.0039,944.5,827.0039,934.5,831.0039,938.5,827.0039" style="stroke:#181818;stroke-width:1.0;"/><line style="stroke:#181818;stroke-width:1.0;" x1="78.5" x2="940.5" y1="827.0039" y2="827.0039"/><text fill="#000000" font-family="sans-serif" font-size="13" font-weight="bold" lengthAdjust="spacing" textLength="14" x="85.5" y="821.7412">16</text><text fill="#000000" font-family="sans-serif" font-size="13" lengthAdjust="spacing" textLength="215" x="103.5" y="821.7412">toDto(listGreenSpaceByResponsible)</text><polygon fill="#181818" points="1155.5,854.2949,1165.5,858.2949,1155.5,862.2949,1159.5,858.2949" style="stroke:#181818;stroke-width:1.0;"/><line style="stroke:#181818;stroke-width:1.0;" x1="956.5" x2="1161.5" y1="858.2949" y2="858.2949"/><text fill="#000000" font-family="sans-serif" font-size="13" font-weight="bold" lengthAdjust="spacing" textLength="14" x="963.5" y="853.0322">17</text><text fill="#000000" font-family="sans-serif" font-size="13" lengthAdjust="spacing" textLength="36" x="981.5" y="853.0322">create</text><rect fill="#E3E3E3" height="51.2422" rx="2.5" ry="2.5" style="stroke:#181818;stroke-width:0.5;" width="166" x="1167.5" y="835.0039"/><text fill="#000000" font-family="sans-serif" font-size="14" lengthAdjust="spacing" textLength="127" x="1187" y="857.1113">listGreenSpaceDTO</text><text fill="#000000" font-family="sans-serif" font-size="14" lengthAdjust="spacing" textLength="152" x="1174.5" y="875.7324">:List&lt;GreenSpaceDTO&gt;</text><path d="M731,904.2461 L808,904.2461 L808,913.5371 L798,923.5371 L731,923.5371 L731,904.2461 " fill="#EEEEEE" style="stroke:#000000;stroke-width:1.5;"/><rect fill="none" height="229.7852" style="stroke:#000000;stroke-width:1.5;" width="677.5" x="731" y="904.2461"/><text fill="#000000" font-family="sans-serif" font-size="13" font-weight="bold" lengthAdjust="spacing" textLength="28" x="746" y="919.2744">loop</text><text fill="#000000" font-family="sans-serif" font-size="11" font-weight="bold" lengthAdjust="spacing" textLength="190" x="823" y="918.1162">[for each object in listGreenSpace]</text><polygon fill="#181818" points="825,942.8281,815,946.8281,825,950.8281,821,946.8281" style="stroke:#181818;stroke-width:1.0;"/><line style="stroke:#181818;stroke-width:1.0;" x1="819" x2="945.5" y1="946.8281" y2="946.8281"/><text fill="#000000" font-family="sans-serif" font-size="13" font-weight="bold" lengthAdjust="spacing" textLength="14" x="831" y="941.5654">18</text><text fill="#000000" font-family="sans-serif" font-size="13" lengthAdjust="spacing" textLength="62" x="849" y="941.5654">obj = get(i)</text><line style="stroke:#181818;stroke-width:1.0;" x1="956.5" x2="1003.5" y1="1003.1191" y2="1003.1191"/><line style="stroke:#181818;stroke-width:1.0;" x1="1003.5" x2="1003.5" y1="1003.1191" y2="1016.1191"/><line style="stroke:#181818;stroke-width:1.0;" x1="962.5" x2="1003.5" y1="1016.1191" y2="1016.1191"/><polygon fill="#181818" points="972.5,1012.1191,962.5,1016.1191,972.5,1020.1191,968.5,1016.1191" style="stroke:#181818;stroke-width:1.0;"/><text fill="#000000" font-family="sans-serif" font-size="13" font-weight="bold" lengthAdjust="spacing" textLength="14" x="968.5" y="997.8564">19</text><text fill="#000000" font-family="sans-serif" font-size="13" lengthAdjust="spacing" textLength="115" x="986.5" y="997.8564">objDto = toDTO(obj)</text><polygon fill="#181818" points="1331.5,1048.4102,1341.5,1052.4102,1331.5,1056.4102,1335.5,1052.4102" style="stroke:#181818;stroke-width:1.0;"/><line style="stroke:#181818;stroke-width:1.0;stroke-dasharray:2.0,2.0;" x1="956.5" x2="1337.5" y1="1052.4102" y2="1052.4102"/><text fill="#000000" font-family="sans-serif" font-size="13" font-weight="bold" lengthAdjust="spacing" textLength="14" x="963.5" y="1047.1475">20</text><text fill="#000000" font-family="sans-serif" font-size="13" lengthAdjust="spacing" textLength="61" x="981.5" y="1047.1475">create(obj)</text><rect fill="#E3E3E3" height="32.6211" rx="2.5" ry="2.5" style="stroke:#181818;stroke-width:0.5;" width="55" x="1343.5" y="1029.1191"/><text fill="#000000" font-family="sans-serif" font-size="14" lengthAdjust="spacing" textLength="41" x="1350.5" y="1051.2266">objDto</text><polygon fill="#181818" points="1233.5,1092.0313,1243.5,1096.0313,1233.5,1100.0313,1237.5,1096.0313" style="stroke:#181818;stroke-width:1.0;"/><line style="stroke:#181818;stroke-width:1.0;" x1="956.5" x2="1239.5" y1="1096.0313" y2="1096.0313"/><text fill="#000000" font-family="sans-serif" font-size="13" font-weight="bold" lengthAdjust="spacing" textLength="14" x="963.5" y="1090.7686">21</text><text fill="#000000" font-family="sans-serif" font-size="13" lengthAdjust="spacing" textLength="66" x="981.5" y="1090.7686">add(objDto)</text><polygon fill="#181818" points="89.5,1160.3223,79.5,1164.3223,89.5,1168.3223,85.5,1164.3223" style="stroke:#181818;stroke-width:1.0;"/><line style="stroke:#181818;stroke-width:1.0;stroke-dasharray:2.0,2.0;" x1="83.5" x2="945.5" y1="1164.3223" y2="1164.3223"/><text fill="#000000" font-family="sans-serif" font-size="13" font-weight="bold" lengthAdjust="spacing" textLength="14" x="95.5" y="1159.0596">22</text><text fill="#000000" font-family="sans-serif" font-size="13" lengthAdjust="spacing" textLength="109" x="113.5" y="1159.0596">listGreenSpaceDto</text><!--SRC=[bLLXRzem4FtkNt7g9wZKFu3MIbr1g5AtLeHzwgR9X6lm6kpCDfluzpix8RQ3GpKaI6BVUtVlxiMOTo4RhlaUzaggSgVL7i7g0pBJxpIyVESL5lPO8sWiBPTL7GUO7T-glq9MyCPhWunPOIdqsoCK-Fk0iaIO2rwvq4bHpATm0qkqiDI84WgYHmER8wpGD4eQiN5OWvenVh1A7lORTyyO9REY50sN5gvcQpLNJyBO1oMjLdMD-WguWOVrwcaGUTyqjIYv5KeMQ0nTVEJF-vUND98tJHVmNOwXpa3bGMkKDW1TwJ6YM1J5_NCAgfnqhto5ZJB2Adqaw3Apx3cMgyNYws0ZPQof5G5ENAutdyBAdUT9er86ImrTK2-FNwWFg8bYiE8PzlvsJ4sY8LH-gTJv-lcyMbeC1TC3JP-NLlpX5ji9C_SBDtV-2MPGeOtiCvcEXRkX- -X7QSZ7PHBg7U5-JiGp29PWMqm3UyuJvKFYX9ZOXNlQdZTrJSoTKBVUyUpELeiz5tLCt7chlKJqElJ2O-847IPQILkKyvgl88p7V3x6tHvcYmhC6fVbLbtgr1dNrpJOKYFni4ghGmErKWsylYaDLFmErEONdKOW9DWTGkxb-S60FcFfikipSBnmwnHFnDGJN9RZ8g9kvYL_M8TNUsRZy-o1gOUE0RkeSQKaD49bXRILj-qNR_2QGk3szinhRSylwKt7J7NmxNP2nDCUsTSmEB1E-r6LcGYKM-Q- -VpXq4YXYQVPXmCzlIxjWKXiT5fQDRd06RqMtIdQORkMq3dt7vPF4xLDJ_d2xko2fJFz6-_k84kldUX9F6MW9goVmoo7WcCuuLjO93eWenewR4OXvGhk8QQCDFVdaT7abfr5ecAofY1Inlu1]--></g></svg>