<?xml version="1.0" encoding="us-ascii" standalone="no"?><svg xmlns="http://www.w3.org/2000/svg" xmlns:xlink="http://www.w3.org/1999/xlink" contentStyleType="text/css" height="678px" preserveAspectRatio="none" style="width:1089px;height:678px;background:#FFFFFF;" version="1.1" viewBox="0 0 1089 678" width="1089px" zoomAndPan="magnify"><defs/><g><text fill="#000000" font-family="sans-serif" font-size="14" font-weight="bold" lengthAdjust="spacing" textLength="350" x="368.5" y="30.1074">UI Sequence Diagram (SSD) - Register To-Do Entry</text><rect fill="#FFFFFF" height="506.4434" style="stroke:#181818;stroke-width:1.0;" width="10" x="68.5" y="106.8633"/><rect fill="#FFFFFF" height="66.291" style="stroke:#181818;stroke-width:1.0;" width="10" x="73.5" y="138.1543"/><rect fill="#FFFFFF" height="31.291" style="stroke:#181818;stroke-width:1.0;" width="10" x="334.5" y="235.7363"/><rect fill="#FFFFFF" height="31.291" style="stroke:#181818;stroke-width:1.0;" width="10" x="441.5" y="298.3184"/><rect fill="#FFFFFF" height="182.1152" style="stroke:#181818;stroke-width:1.0;" width="10" x="569" y="422.1914"/><rect fill="#FFFFFF" height="30" style="stroke:#181818;stroke-width:1.0;" width="10" x="1010" y="174.4453"/><rect fill="#FFFFFF" height="30" style="stroke:#181818;stroke-width:1.0;" width="10" x="1010" y="360.9004"/><line style="stroke:#181818;stroke-width:0.5;stroke-dasharray:5.0,5.0;" x1="73" x2="73" y1="96.8633" y2="622.3066"/><line style="stroke:#181818;stroke-width:0.5;stroke-dasharray:5.0,5.0;" x1="339" x2="339" y1="96.8633" y2="622.3066"/><line style="stroke:#181818;stroke-width:0.5;stroke-dasharray:5.0,5.0;" x1="446" x2="446" y1="96.8633" y2="622.3066"/><line style="stroke:#181818;stroke-width:0.5;stroke-dasharray:5.0,5.0;" x1="574" x2="574" y1="96.8633" y2="622.3066"/><line style="stroke:#181818;stroke-width:0.5;stroke-dasharray:5.0,5.0;" x1="786" x2="786" y1="471.3125" y2="622.3066"/><line style="stroke:#181818;stroke-width:0.5;stroke-dasharray:5.0,5.0;" x1="888" x2="888" y1="96.8633" y2="622.3066"/><line style="stroke:#181818;stroke-width:0.5;stroke-dasharray:5.0,5.0;" x1="1015" x2="1015" y1="96.8633" y2="622.3066"/><rect fill="#E3E3E3" height="32.6211" rx="2.5" ry="2.5" style="stroke:#181818;stroke-width:0.5;" width="137" x="5" y="63.2422"/><text fill="#000000" font-family="sans-serif" font-size="14" lengthAdjust="spacing" textLength="123" x="12" y="85.3496">:ToDoListController</text><rect fill="#E3E3E3" height="32.6211" rx="2.5" ry="2.5" style="stroke:#181818;stroke-width:0.5;" width="137" x="5" y="621.3066"/><text fill="#000000" font-family="sans-serif" font-size="14" lengthAdjust="spacing" textLength="123" x="12" y="643.4141">:ToDoListController</text><rect fill="#E3E3E3" height="32.6211" rx="2.5" ry="2.5" style="stroke:#181818;stroke-width:0.5;" width="97" x="291" y="63.2422"/><text fill="#000000" font-family="sans-serif" font-size="14" lengthAdjust="spacing" textLength="83" x="298" y="85.3496">:Repositories</text><rect fill="#E3E3E3" height="32.6211" rx="2.5" ry="2.5" style="stroke:#181818;stroke-width:0.5;" width="97" x="291" y="621.3066"/><text fill="#000000" font-family="sans-serif" font-size="14" lengthAdjust="spacing" textLength="83" x="298" y="643.4141">:Repositories</text><rect fill="#E3E3E3" height="51.2422" rx="2.5" ry="2.5" style="stroke:#181818;stroke-width:0.5;" width="97" x="398" y="44.6211"/><text fill="#000000" font-family="sans-serif" font-size="14" lengthAdjust="spacing" textLength="74" x="409.5" y="66.7285">repositories</text><text fill="#000000" font-family="sans-serif" font-size="14" lengthAdjust="spacing" textLength="83" x="405" y="85.3496">:Repositories</text><rect fill="#E3E3E3" height="51.2422" rx="2.5" ry="2.5" style="stroke:#181818;stroke-width:0.5;" width="97" x="398" y="621.3066"/><text fill="#000000" font-family="sans-serif" font-size="14" lengthAdjust="spacing" textLength="74" x="409.5" y="643.4141">repositories</text><text fill="#000000" font-family="sans-serif" font-size="14" lengthAdjust="spacing" textLength="83" x="405" y="662.0352">:Repositories</text><rect fill="#E3E3E3" height="51.2422" rx="2.5" ry="2.5" style="stroke:#181818;stroke-width:0.5;" width="138" x="505" y="44.6211"/><text fill="#000000" font-family="sans-serif" font-size="14" lengthAdjust="spacing" textLength="120" x="514" y="66.7285">toDoListRepository</text><text fill="#000000" font-family="sans-serif" font-size="14" lengthAdjust="spacing" textLength="124" x="512" y="85.3496">:toDoListRepository</text><rect fill="#E3E3E3" height="51.2422" rx="2.5" ry="2.5" style="stroke:#181818;stroke-width:0.5;" width="138" x="505" y="621.3066"/><text fill="#000000" font-family="sans-serif" font-size="14" lengthAdjust="spacing" textLength="120" x="514" y="643.4141">toDoListRepository</text><text fill="#000000" font-family="sans-serif" font-size="14" lengthAdjust="spacing" textLength="124" x="512" y="662.0352">:toDoListRepository</text><rect fill="#E3E3E3" height="51.2422" rx="2.5" ry="2.5" style="stroke:#181818;stroke-width:0.5;" width="86" x="743" y="621.3066"/><text fill="#000000" font-family="sans-serif" font-size="14" lengthAdjust="spacing" textLength="63" x="754.5" y="643.4141">toDoEntry</text><text fill="#000000" font-family="sans-serif" font-size="14" lengthAdjust="spacing" textLength="72" x="750" y="662.0352">:ToDoEntry</text><rect fill="#E3E3E3" height="51.2422" rx="2.5" ry="2.5" style="stroke:#181818;stroke-width:0.5;" width="98" x="839" y="44.6211"/><text fill="#000000" font-family="sans-serif" font-size="14" lengthAdjust="spacing" textLength="77" x="849.5" y="66.7285">greenSpace</text><text fill="#000000" font-family="sans-serif" font-size="14" lengthAdjust="spacing" textLength="84" x="846" y="85.3496">:GreenSpace</text><rect fill="#E3E3E3" height="51.2422" rx="2.5" ry="2.5" style="stroke:#181818;stroke-width:0.5;" width="98" x="839" y="621.3066"/><text fill="#000000" font-family="sans-serif" font-size="14" lengthAdjust="spacing" textLength="77" x="849.5" y="643.4141">greenSpace</text><text fill="#000000" font-family="sans-serif" font-size="14" lengthAdjust="spacing" textLength="84" x="846" y="662.0352">:GreenSpace</text><rect fill="#E3E3E3" height="51.2422" rx="2.5" ry="2.5" style="stroke:#181818;stroke-width:0.5;" width="136" x="947" y="44.6211"/><text fill="#000000" font-family="sans-serif" font-size="14" lengthAdjust="spacing" textLength="97" x="966.5" y="66.7285">listGreenSpace</text><text fill="#000000" font-family="sans-serif" font-size="14" lengthAdjust="spacing" textLength="122" x="954" y="85.3496">:List&lt;GreenSpace&gt;</text><rect fill="#E3E3E3" height="51.2422" rx="2.5" ry="2.5" style="stroke:#181818;stroke-width:0.5;" width="136" x="947" y="621.3066"/><text fill="#000000" font-family="sans-serif" font-size="14" lengthAdjust="spacing" textLength="97" x="966.5" y="643.4141">listGreenSpace</text><text fill="#000000" font-family="sans-serif" font-size="14" lengthAdjust="spacing" textLength="122" x="954" y="662.0352">:List&lt;GreenSpace&gt;</text><rect fill="#FFFFFF" height="506.4434" style="stroke:#181818;stroke-width:1.0;" width="10" x="68.5" y="106.8633"/><rect fill="#FFFFFF" height="66.291" style="stroke:#181818;stroke-width:1.0;" width="10" x="73.5" y="138.1543"/><rect fill="#FFFFFF" height="31.291" style="stroke:#181818;stroke-width:1.0;" width="10" x="334.5" y="235.7363"/><rect fill="#FFFFFF" height="31.291" style="stroke:#181818;stroke-width:1.0;" width="10" x="441.5" y="298.3184"/><rect fill="#FFFFFF" height="182.1152" style="stroke:#181818;stroke-width:1.0;" width="10" x="569" y="422.1914"/><rect fill="#FFFFFF" height="30" style="stroke:#181818;stroke-width:1.0;" width="10" x="1010" y="174.4453"/><rect fill="#FFFFFF" height="30" style="stroke:#181818;stroke-width:1.0;" width="10" x="1010" y="360.9004"/><line style="stroke:#181818;stroke-width:1.0;" x1="78.5" x2="125.5" y1="125.1543" y2="125.1543"/><line style="stroke:#181818;stroke-width:1.0;" x1="125.5" x2="125.5" y1="125.1543" y2="138.1543"/><line style="stroke:#181818;stroke-width:1.0;" x1="84.5" x2="125.5" y1="138.1543" y2="138.1543"/><polygon fill="#181818" points="94.5,134.1543,84.5,138.1543,94.5,142.1543,90.5,138.1543" style="stroke:#181818;stroke-width:1.0;"/><text fill="#000000" font-family="sans-serif" font-size="13" font-weight="bold" lengthAdjust="spacing" textLength="7" x="90.5" y="119.8916">1</text><text fill="#000000" font-family="sans-serif" font-size="13" lengthAdjust="spacing" textLength="231" x="101.5" y="119.8916">searchForGreenSpaceID(greenSpaceID)</text><polygon fill="#181818" points="998,170.4453,1008,174.4453,998,178.4453,1002,174.4453" style="stroke:#181818;stroke-width:1.0;"/><line style="stroke:#181818;stroke-width:1.0;" x1="83.5" x2="1004" y1="174.4453" y2="174.4453"/><text fill="#000000" font-family="sans-serif" font-size="13" font-weight="bold" lengthAdjust="spacing" textLength="7" x="90.5" y="169.1826">2</text><text fill="#000000" font-family="sans-serif" font-size="13" lengthAdjust="spacing" textLength="196" x="101.5" y="169.1826">greenSpace  = get(greenSpaceID)</text><polygon fill="#181818" points="322.5,231.7363,332.5,235.7363,322.5,239.7363,326.5,235.7363" style="stroke:#181818;stroke-width:1.0;"/><line style="stroke:#181818;stroke-width:1.0;" x1="78.5" x2="328.5" y1="235.7363" y2="235.7363"/><text fill="#000000" font-family="sans-serif" font-size="13" font-weight="bold" lengthAdjust="spacing" textLength="7" x="85.5" y="230.4736">3</text><text fill="#000000" font-family="sans-serif" font-size="13" lengthAdjust="spacing" textLength="75" x="96.5" y="230.4736">getInstance()</text><polygon fill="#181818" points="89.5,263.0273,79.5,267.0273,89.5,271.0273,85.5,267.0273" style="stroke:#181818;stroke-width:1.0;"/><line style="stroke:#181818;stroke-width:1.0;stroke-dasharray:2.0,2.0;" x1="83.5" x2="338.5" y1="267.0273" y2="267.0273"/><text fill="#000000" font-family="sans-serif" font-size="13" font-weight="bold" lengthAdjust="spacing" textLength="7" x="95.5" y="261.7646">4</text><text fill="#000000" font-family="sans-serif" font-size="13" lengthAdjust="spacing" textLength="67" x="106.5" y="261.7646">repositories</text><polygon fill="#181818" points="429.5,294.3184,439.5,298.3184,429.5,302.3184,433.5,298.3184" style="stroke:#181818;stroke-width:1.0;"/><line style="stroke:#181818;stroke-width:1.0;" x1="78.5" x2="435.5" y1="298.3184" y2="298.3184"/><text fill="#000000" font-family="sans-serif" font-size="13" font-weight="bold" lengthAdjust="spacing" textLength="7" x="85.5" y="293.0557">5</text><text fill="#000000" font-family="sans-serif" font-size="13" lengthAdjust="spacing" textLength="139" x="96.5" y="293.0557">getToDoListRepository()</text><polygon fill="#181818" points="89.5,325.6094,79.5,329.6094,89.5,333.6094,85.5,329.6094" style="stroke:#181818;stroke-width:1.0;"/><line style="stroke:#181818;stroke-width:1.0;stroke-dasharray:2.0,2.0;" x1="83.5" x2="445.5" y1="329.6094" y2="329.6094"/><text fill="#000000" font-family="sans-serif" font-size="13" font-weight="bold" lengthAdjust="spacing" textLength="7" x="95.5" y="324.3467">6</text><text fill="#000000" font-family="sans-serif" font-size="13" lengthAdjust="spacing" textLength="110" x="106.5" y="324.3467">toDoListRepository</text><polygon fill="#181818" points="998,356.9004,1008,360.9004,998,364.9004,1002,360.9004" style="stroke:#181818;stroke-width:1.0;"/><line style="stroke:#181818;stroke-width:1.0;" x1="78.5" x2="1004" y1="360.9004" y2="360.9004"/><text fill="#000000" font-family="sans-serif" font-size="13" font-weight="bold" lengthAdjust="spacing" textLength="7" x="85.5" y="355.6377">7</text><text fill="#000000" font-family="sans-serif" font-size="13" lengthAdjust="spacing" textLength="192" x="96.5" y="355.6377">greenSpace = get(greenSpaceID)</text><polygon fill="#181818" points="557,418.1914,567,422.1914,557,426.1914,561,422.1914" style="stroke:#181818;stroke-width:1.0;"/><line style="stroke:#181818;stroke-width:1.0;" x1="78.5" x2="563" y1="422.1914" y2="422.1914"/><text fill="#000000" font-family="sans-serif" font-size="13" font-weight="bold" lengthAdjust="spacing" textLength="7" x="85.5" y="416.9287">8</text><text fill="#000000" font-family="sans-serif" font-size="13" lengthAdjust="spacing" textLength="444" x="96.5" y="416.9287">registerToDoEntry(greenSpace, title, description, urgency, expectedDuration)</text><polygon fill="#181818" points="731,449.4824,741,453.4824,731,457.4824,735,453.4824" style="stroke:#181818;stroke-width:1.0;"/><line style="stroke:#181818;stroke-width:1.0;" x1="579" x2="737" y1="453.4824" y2="453.4824"/><text fill="#000000" font-family="sans-serif" font-size="13" font-weight="bold" lengthAdjust="spacing" textLength="7" x="586" y="448.2197">9</text><text fill="#000000" font-family="sans-serif" font-size="13" lengthAdjust="spacing" textLength="36" x="597" y="448.2197">create</text><rect fill="#E3E3E3" height="51.2422" rx="2.5" ry="2.5" style="stroke:#181818;stroke-width:0.5;" width="86" x="743" y="430.1914"/><text fill="#000000" font-family="sans-serif" font-size="14" lengthAdjust="spacing" textLength="63" x="754.5" y="452.2988">toDoEntry</text><text fill="#000000" font-family="sans-serif" font-size="14" lengthAdjust="spacing" textLength="72" x="750" y="470.9199">:ToDoEntry</text><line style="stroke:#181818;stroke-width:1.0;" x1="579" x2="621" y1="515.7246" y2="515.7246"/><line style="stroke:#181818;stroke-width:1.0;" x1="621" x2="621" y1="515.7246" y2="528.7246"/><line style="stroke:#181818;stroke-width:1.0;" x1="580" x2="621" y1="528.7246" y2="528.7246"/><polygon fill="#181818" points="590,524.7246,580,528.7246,590,532.7246,586,528.7246" style="stroke:#181818;stroke-width:1.0;"/><text fill="#000000" font-family="sans-serif" font-size="13" font-weight="bold" lengthAdjust="spacing" textLength="14" x="586" y="510.4619">10</text><text fill="#000000" font-family="sans-serif" font-size="13" lengthAdjust="spacing" textLength="148" x="604" y="510.4619">addToDoEntry(toDoEntry)</text><line style="stroke:#181818;stroke-width:1.0;" x1="579" x2="621" y1="560.0156" y2="560.0156"/><line style="stroke:#181818;stroke-width:1.0;" x1="621" x2="621" y1="560.0156" y2="573.0156"/><line style="stroke:#181818;stroke-width:1.0;" x1="580" x2="621" y1="573.0156" y2="573.0156"/><polygon fill="#181818" points="590,569.0156,580,573.0156,590,577.0156,586,573.0156" style="stroke:#181818;stroke-width:1.0;"/><text fill="#000000" font-family="sans-serif" font-size="13" font-weight="bold" lengthAdjust="spacing" textLength="14" x="586" y="554.7529">11</text><text fill="#000000" font-family="sans-serif" font-size="13" lengthAdjust="spacing" textLength="170" x="604" y="554.7529">validateToDoEntry(toDoEntry)</text><polygon fill="#181818" points="89.5,600.3066,79.5,604.3066,89.5,608.3066,85.5,604.3066" style="stroke:#181818;stroke-width:1.0;"/><line style="stroke:#181818;stroke-width:1.0;stroke-dasharray:2.0,2.0;" x1="83.5" x2="573" y1="604.3066" y2="604.3066"/><text fill="#000000" font-family="sans-serif" font-size="13" font-weight="bold" lengthAdjust="spacing" textLength="14" x="95.5" y="599.0439">12</text><text fill="#000000" font-family="sans-serif" font-size="13" lengthAdjust="spacing" textLength="58" x="113.5" y="599.0439">toDoEntry</text><!--SRC=[bLJ1Rjim3BthAuYUaYBvWQ0hCDHP421eXzYxxQB9h2FKaJn9xfQ_7oqtbXmhGUUBRUgznoUIadsJgk667-6ebHO7euy8phJ8xB3ISF76AypTgKOmA1nNLHq3x86N-ezK5RposY9ZJZg2_jX2ZhzRL08XaxpgeBCyp-QmX3rMqZeqKEXbfc6jd3annbkdLNlyXOOnadPIo8Oh1tUhGcTwHumdJKXTrsZkW5juAlQx2-GU6ssbqqQYzPWXSCfbPvnIZ2acOlnKKu7lkw_5cE4-t0Hfuas3dZqDJxNyzacYE7zxPl6IlOonbK5KEVK32RmPVZnwir-ldyVmcj9kOahduo547ZrnZA8c22VVkSE-k0oYful0yh5_hy0YD-BmJPj0tsQpAlgPZ-Wtb6FriQ4L1460Br2Xkv5YbEPYPvUu4gyXnzuYN6yyB9yj9sQCwaDMjyhISH4u2pO7iTHW3gYKulAZz2k8HvObVDwKFflkvhftMKncDENNduCXxDd1KMBC4xvwYKyqEjNdQzswqSTpfgaxw8hOtq73gOloBS3VOGioRuMHZPDQBQ0r5TrcfmNWtuRkGIoprl1kAJANA0HBf2TJtVc-loSZmY0nhw2IrdbP1jV33JB_7ubtNikIqdvQ9vpx0HYNFhNlVm00]--></g></svg>