<?xml version="1.0" encoding="us-ascii" standalone="no"?><svg xmlns="http://www.w3.org/2000/svg" xmlns:xlink="http://www.w3.org/1999/xlink" contentStyleType="text/css" height="1114px" preserveAspectRatio="none" style="width:2306px;height:1114px;background:#FFFFFF;" version="1.1" viewBox="0 0 2306 1114" width="2306px" zoomAndPan="magnify"><defs/><g><text fill="#000000" font-family="sans-serif" font-size="14" font-weight="bold" lengthAdjust="spacing" textLength="315" x="994.75" y="30.1074">UI Sequence Diagram (SSD) - Alternative One</text><rect fill="#FFFFFF" height="889.1973" style="stroke:#181818;stroke-width:1.0;" width="10" x="75" y="133.2422"/><rect fill="#FFFFFF" height="415.8711" style="stroke:#181818;stroke-width:1.0;" width="10" x="459" y="156.5332"/><rect fill="#FFFFFF" height="48.582" style="stroke:#181818;stroke-width:1.0;" width="10" x="459" y="603.6953"/><rect fill="#FFFFFF" height="329.8711" style="stroke:#181818;stroke-width:1.0;" width="10" x="459" y="683.5684"/><rect fill="#FFFFFF" height="247.0859" style="stroke:#181818;stroke-width:1.0;" width="10" x="950" y="231.4453"/><rect fill="#FFFFFF" height="156.4551" style="stroke:#181818;stroke-width:1.0;" width="10" x="950" y="714.8594"/><rect fill="#FFFFFF" height="31.291" style="stroke:#181818;stroke-width:1.0;" width="10" x="950" y="950.8574"/><rect fill="#FFFFFF" height="31.291" style="stroke:#181818;stroke-width:1.0;" width="10" x="1208" y="746.1504"/><rect fill="#FFFFFF" height="31.291" style="stroke:#181818;stroke-width:1.0;" width="10" x="1315" y="808.7324"/><rect fill="#FFFFFF" height="79.543" style="stroke:#181818;stroke-width:1.0;" width="10" x="1705.5" y="871.3145"/><line style="stroke:#181818;stroke-width:0.5;stroke-dasharray:5.0,5.0;" x1="80" x2="80" y1="123.2422" y2="1031.4395"/><line style="stroke:#181818;stroke-width:0.5;stroke-dasharray:5.0,5.0;" x1="463.5" x2="463.5" y1="123.2422" y2="1031.4395"/><line style="stroke:#181818;stroke-width:0.5;stroke-dasharray:5.0,5.0;" x1="954.5" x2="954.5" y1="196.3438" y2="1031.4395"/><line style="stroke:#181818;stroke-width:0.5;stroke-dasharray:5.0,5.0;" x1="1212.5" x2="1212.5" y1="123.2422" y2="1031.4395"/><line style="stroke:#181818;stroke-width:0.5;stroke-dasharray:5.0,5.0;" x1="1319.5" x2="1319.5" y1="123.2422" y2="1031.4395"/><line style="stroke:#181818;stroke-width:0.5;stroke-dasharray:5.0,5.0;" x1="1461.5" x2="1461.5" y1="123.2422" y2="1031.4395"/><line style="stroke:#181818;stroke-width:0.5;stroke-dasharray:5.0,5.0;" x1="1592.5" x2="1592.5" y1="123.2422" y2="1031.4395"/><line style="stroke:#181818;stroke-width:0.5;stroke-dasharray:5.0,5.0;" x1="1710.5" x2="1710.5" y1="123.2422" y2="1031.4395"/><line style="stroke:#181818;stroke-width:0.5;stroke-dasharray:5.0,5.0;" x1="1838.5" x2="1838.5" y1="123.2422" y2="1031.4395"/><line style="stroke:#181818;stroke-width:0.5;stroke-dasharray:5.0,5.0;" x1="1965.5" x2="1965.5" y1="123.2422" y2="1031.4395"/><line style="stroke:#181818;stroke-width:0.5;stroke-dasharray:5.0,5.0;" x1="2112.5" x2="2112.5" y1="123.2422" y2="1031.4395"/><line style="stroke:#181818;stroke-width:0.5;stroke-dasharray:5.0,5.0;" x1="2245.5" x2="2245.5" y1="123.2422" y2="1031.4395"/><text fill="#000000" font-family="sans-serif" font-size="14" lengthAdjust="spacing" textLength="144" x="5" y="119.7285">Green Space Manager</text><ellipse cx="80" cy="53.1211" fill="#E3E3E3" rx="8" ry="8" style="stroke:#181818;stroke-width:0.5;"/><path d="M80,61.1211 L80,88.1211 M67,69.1211 L93,69.1211 M80,88.1211 L67,103.1211 M80,88.1211 L93,103.1211 " fill="none" style="stroke:#181818;stroke-width:0.5;"/><text fill="#000000" font-family="sans-serif" font-size="14" lengthAdjust="spacing" textLength="144" x="5" y="1045.5469">Green Space Manager</text><ellipse cx="80" cy="1057.5605" fill="#E3E3E3" rx="8" ry="8" style="stroke:#181818;stroke-width:0.5;"/><path d="M80,1065.5605 L80,1092.5605 M67,1073.5605 L93,1073.5605 M80,1092.5605 L67,1107.5605 M80,1092.5605 L93,1107.5605 " fill="none" style="stroke:#181818;stroke-width:0.5;"/><rect fill="#E3E3E3" height="32.6211" rx="2.5" ry="2.5" style="stroke:#181818;stroke-width:0.5;" width="87" x="420.5" y="89.6211"/><text fill="#000000" font-family="sans-serif" font-size="14" lengthAdjust="spacing" textLength="73" x="427.5" y="111.7285">:ToDoListUI</text><rect fill="#E3E3E3" height="32.6211" rx="2.5" ry="2.5" style="stroke:#181818;stroke-width:0.5;" width="87" x="420.5" y="1030.4395"/><text fill="#000000" font-family="sans-serif" font-size="14" lengthAdjust="spacing" textLength="73" x="427.5" y="1052.5469">:ToDoListUI</text><rect fill="#E3E3E3" height="32.6211" rx="2.5" ry="2.5" style="stroke:#181818;stroke-width:0.5;" width="137" x="886.5" y="1030.4395"/><text fill="#000000" font-family="sans-serif" font-size="14" lengthAdjust="spacing" textLength="123" x="893.5" y="1052.5469">:ToDoListController</text><rect fill="#E3E3E3" height="32.6211" rx="2.5" ry="2.5" style="stroke:#181818;stroke-width:0.5;" width="97" x="1164.5" y="89.6211"/><text fill="#000000" font-family="sans-serif" font-size="14" lengthAdjust="spacing" textLength="83" x="1171.5" y="111.7285">:Repositories</text><rect fill="#E3E3E3" height="32.6211" rx="2.5" ry="2.5" style="stroke:#181818;stroke-width:0.5;" width="97" x="1164.5" y="1030.4395"/><text fill="#000000" font-family="sans-serif" font-size="14" lengthAdjust="spacing" textLength="83" x="1171.5" y="1052.5469">:Repositories</text><rect fill="#E3E3E3" height="51.2422" rx="2.5" ry="2.5" style="stroke:#181818;stroke-width:0.5;" width="97" x="1271.5" y="71"/><text fill="#000000" font-family="sans-serif" font-size="14" lengthAdjust="spacing" textLength="74" x="1283" y="93.1074">repositories</text><text fill="#000000" font-family="sans-serif" font-size="14" lengthAdjust="spacing" textLength="83" x="1278.5" y="111.7285">:Repositories</text><rect fill="#E3E3E3" height="51.2422" rx="2.5" ry="2.5" style="stroke:#181818;stroke-width:0.5;" width="97" x="1271.5" y="1030.4395"/><text fill="#000000" font-family="sans-serif" font-size="14" lengthAdjust="spacing" textLength="74" x="1283" y="1052.5469">repositories</text><text fill="#000000" font-family="sans-serif" font-size="14" lengthAdjust="spacing" textLength="83" x="1278.5" y="1071.168">:Repositories</text><rect fill="#E3E3E3" height="51.2422" rx="2.5" ry="2.5" style="stroke:#181818;stroke-width:0.5;" width="166" x="1378.5" y="71"/><text fill="#000000" font-family="sans-serif" font-size="14" lengthAdjust="spacing" textLength="145" x="1389" y="93.1074">greenSpaceRepository</text><text fill="#000000" font-family="sans-serif" font-size="14" lengthAdjust="spacing" textLength="152" x="1385.5" y="111.7285">:GreenSpaceRepository</text><rect fill="#E3E3E3" height="51.2422" rx="2.5" ry="2.5" style="stroke:#181818;stroke-width:0.5;" width="166" x="1378.5" y="1030.4395"/><text fill="#000000" font-family="sans-serif" font-size="14" lengthAdjust="spacing" textLength="145" x="1389" y="1052.5469">greenSpaceRepository</text><text fill="#000000" font-family="sans-serif" font-size="14" lengthAdjust="spacing" textLength="152" x="1385.5" y="1071.168">:GreenSpaceRepository</text><rect fill="#E3E3E3" height="32.6211" rx="2.5" ry="2.5" style="stroke:#181818;stroke-width:0.5;" width="77" x="1554.5" y="89.6211"/><text fill="#000000" font-family="sans-serif" font-size="14" lengthAdjust="spacing" textLength="63" x="1561.5" y="111.7285">toDoEntry</text><rect fill="#E3E3E3" height="32.6211" rx="2.5" ry="2.5" style="stroke:#181818;stroke-width:0.5;" width="77" x="1554.5" y="1030.4395"/><text fill="#000000" font-family="sans-serif" font-size="14" lengthAdjust="spacing" textLength="63" x="1561.5" y="1052.5469">toDoEntry</text><rect fill="#E3E3E3" height="51.2422" rx="2.5" ry="2.5" style="stroke:#181818;stroke-width:0.5;" width="138" x="1641.5" y="71"/><text fill="#000000" font-family="sans-serif" font-size="14" lengthAdjust="spacing" textLength="120" x="1650.5" y="93.1074">toDoListRepository</text><text fill="#000000" font-family="sans-serif" font-size="14" lengthAdjust="spacing" textLength="124" x="1648.5" y="111.7285">:toDoListRepository</text><rect fill="#E3E3E3" height="51.2422" rx="2.5" ry="2.5" style="stroke:#181818;stroke-width:0.5;" width="138" x="1641.5" y="1030.4395"/><text fill="#000000" font-family="sans-serif" font-size="14" lengthAdjust="spacing" textLength="120" x="1650.5" y="1052.5469">toDoListRepository</text><text fill="#000000" font-family="sans-serif" font-size="14" lengthAdjust="spacing" textLength="124" x="1648.5" y="1071.168">:toDoListRepository</text><rect fill="#E3E3E3" height="51.2422" rx="2.5" ry="2.5" style="stroke:#181818;stroke-width:0.5;" width="98" x="1789.5" y="71"/><text fill="#000000" font-family="sans-serif" font-size="14" lengthAdjust="spacing" textLength="77" x="1800" y="93.1074">greenSpace</text><text fill="#000000" font-family="sans-serif" font-size="14" lengthAdjust="spacing" textLength="84" x="1796.5" y="111.7285">:GreenSpace</text><rect fill="#E3E3E3" height="51.2422" rx="2.5" ry="2.5" style="stroke:#181818;stroke-width:0.5;" width="98" x="1789.5" y="1030.4395"/><text fill="#000000" font-family="sans-serif" font-size="14" lengthAdjust="spacing" textLength="77" x="1800" y="1052.5469">greenSpace</text><text fill="#000000" font-family="sans-serif" font-size="14" lengthAdjust="spacing" textLength="84" x="1796.5" y="1071.168">:GreenSpace</text><rect fill="#E3E3E3" height="32.6211" rx="2.5" ry="2.5" style="stroke:#181818;stroke-width:0.5;" width="137" x="1897.5" y="89.6211"/><text fill="#000000" font-family="sans-serif" font-size="14" lengthAdjust="spacing" textLength="123" x="1904.5" y="111.7285">:ApplicationSession</text><rect fill="#E3E3E3" height="32.6211" rx="2.5" ry="2.5" style="stroke:#181818;stroke-width:0.5;" width="137" x="1897.5" y="1030.4395"/><text fill="#000000" font-family="sans-serif" font-size="14" lengthAdjust="spacing" textLength="123" x="1904.5" y="1052.5469">:ApplicationSession</text><rect fill="#E3E3E3" height="51.2422" rx="2.5" ry="2.5" style="stroke:#181818;stroke-width:0.5;" width="137" x="2044.5" y="71"/><text fill="#000000" font-family="sans-serif" font-size="14" lengthAdjust="spacing" textLength="74" x="2076" y="93.1074">appSession</text><text fill="#000000" font-family="sans-serif" font-size="14" lengthAdjust="spacing" textLength="123" x="2051.5" y="111.7285">:ApplicationSession</text><rect fill="#E3E3E3" height="51.2422" rx="2.5" ry="2.5" style="stroke:#181818;stroke-width:0.5;" width="137" x="2044.5" y="1030.4395"/><text fill="#000000" font-family="sans-serif" font-size="14" lengthAdjust="spacing" textLength="74" x="2076" y="1052.5469">appSession</text><text fill="#000000" font-family="sans-serif" font-size="14" lengthAdjust="spacing" textLength="123" x="2051.5" y="1071.168">:ApplicationSession</text><rect fill="#E3E3E3" height="51.2422" rx="2.5" ry="2.5" style="stroke:#181818;stroke-width:0.5;" width="109" x="2191.5" y="71"/><text fill="#000000" font-family="sans-serif" font-size="14" lengthAdjust="spacing" textLength="95" x="2198.5" y="93.1074">currentSession</text><text fill="#000000" font-family="sans-serif" font-size="14" lengthAdjust="spacing" textLength="83" x="2204.5" y="111.7285">:UserSession</text><rect fill="#E3E3E3" height="51.2422" rx="2.5" ry="2.5" style="stroke:#181818;stroke-width:0.5;" width="109" x="2191.5" y="1030.4395"/><text fill="#000000" font-family="sans-serif" font-size="14" lengthAdjust="spacing" textLength="95" x="2198.5" y="1052.5469">currentSession</text><text fill="#000000" font-family="sans-serif" font-size="14" lengthAdjust="spacing" textLength="83" x="2204.5" y="1071.168">:UserSession</text><rect fill="#FFFFFF" height="889.1973" style="stroke:#181818;stroke-width:1.0;" width="10" x="75" y="133.2422"/><rect fill="#FFFFFF" height="415.8711" style="stroke:#181818;stroke-width:1.0;" width="10" x="459" y="156.5332"/><rect fill="#FFFFFF" height="48.582" style="stroke:#181818;stroke-width:1.0;" width="10" x="459" y="603.6953"/><rect fill="#FFFFFF" height="329.8711" style="stroke:#181818;stroke-width:1.0;" width="10" x="459" y="683.5684"/><rect fill="#FFFFFF" height="247.0859" style="stroke:#181818;stroke-width:1.0;" width="10" x="950" y="231.4453"/><rect fill="#FFFFFF" height="156.4551" style="stroke:#181818;stroke-width:1.0;" width="10" x="950" y="714.8594"/><rect fill="#FFFFFF" height="31.291" style="stroke:#181818;stroke-width:1.0;" width="10" x="950" y="950.8574"/><rect fill="#FFFFFF" height="31.291" style="stroke:#181818;stroke-width:1.0;" width="10" x="1208" y="746.1504"/><rect fill="#FFFFFF" height="31.291" style="stroke:#181818;stroke-width:1.0;" width="10" x="1315" y="808.7324"/><rect fill="#FFFFFF" height="79.543" style="stroke:#181818;stroke-width:1.0;" width="10" x="1705.5" y="871.3145"/><polygon fill="#181818" points="447,152.5332,457,156.5332,447,160.5332,451,156.5332" style="stroke:#181818;stroke-width:1.0;"/><line style="stroke:#181818;stroke-width:1.0;" x1="85" x2="453" y1="156.5332" y2="156.5332"/><text fill="#000000" font-family="sans-serif" font-size="13" font-weight="bold" lengthAdjust="spacing" textLength="7" x="92" y="151.2705">1</text><text fill="#000000" font-family="sans-serif" font-size="13" lengthAdjust="spacing" textLength="138" x="103" y="151.2705">ask to add a to-do entry</text><polygon fill="#181818" points="874.5,183.8242,884.5,187.8242,874.5,191.8242,878.5,187.8242" style="stroke:#181818;stroke-width:1.0;"/><line style="stroke:#181818;stroke-width:1.0;" x1="469" x2="880.5" y1="187.8242" y2="187.8242"/><text fill="#000000" font-family="sans-serif" font-size="13" font-weight="bold" lengthAdjust="spacing" textLength="7" x="476" y="182.5615">2</text><text fill="#000000" font-family="sans-serif" font-size="13" lengthAdjust="spacing" textLength="36" x="487" y="182.5615">create</text><rect fill="#E3E3E3" height="32.6211" rx="2.5" ry="2.5" style="stroke:#181818;stroke-width:0.5;" width="137" x="886.5" y="164.5332"/><text fill="#000000" font-family="sans-serif" font-size="14" lengthAdjust="spacing" textLength="123" x="893.5" y="186.6406">:ToDoListController</text><polygon fill="#181818" points="938,227.4453,948,231.4453,938,235.4453,942,231.4453" style="stroke:#181818;stroke-width:1.0;"/><line style="stroke:#181818;stroke-width:1.0;" x1="469" x2="944" y1="231.4453" y2="231.4453"/><text fill="#000000" font-family="sans-serif" font-size="13" font-weight="bold" lengthAdjust="spacing" textLength="7" x="476" y="226.1826">3</text><text fill="#000000" font-family="sans-serif" font-size="13" lengthAdjust="spacing" textLength="192" x="487" y="226.1826">getGreenSpacesByResponsible()</text><rect fill="none" height="43.252" style="stroke:#000000;stroke-width:1.5;" width="175" x="883.5" y="264.4453"/><path d="M883.5,264.4453 L945.5,264.4453 L945.5,273.4453 L935.5,283.4453 L883.5,283.4453 L883.5,264.4453 " fill="#EEEEEE" style="stroke:#000000;stroke-width:2.0;"/><text fill="#000000" font-family="sans-serif" font-size="13" font-weight="bold" lengthAdjust="spacing" textLength="17" x="896.5" y="280.4736">ref</text><text fill="#000000" font-family="sans-serif" font-size="12" lengthAdjust="spacing" textLength="167" x="887.5" y="300.3945">Get Responsible User's Email</text><line style="stroke:#181818;stroke-width:1.0;" x1="960" x2="1002" y1="360.9883" y2="360.9883"/><line style="stroke:#181818;stroke-width:1.0;" x1="1002" x2="1002" y1="360.9883" y2="373.9883"/><line style="stroke:#181818;stroke-width:1.0;" x1="961" x2="1002" y1="373.9883" y2="373.9883"/><polygon fill="#181818" points="971,369.9883,961,373.9883,971,377.9883,967,373.9883" style="stroke:#181818;stroke-width:1.0;"/><text fill="#000000" font-family="sans-serif" font-size="13" font-weight="bold" lengthAdjust="spacing" textLength="7" x="967" y="355.7256">4</text><text fill="#000000" font-family="sans-serif" font-size="13" lengthAdjust="spacing" textLength="223" x="978" y="355.7256">getGreenSpacesByResponsible(email)</text><rect fill="none" height="43.252" style="stroke:#000000;stroke-width:1.5;" width="228" x="883.5" y="406.9883"/><path d="M883.5,406.9883 L945.5,406.9883 L945.5,415.9883 L935.5,425.9883 L883.5,425.9883 L883.5,406.9883 " fill="#EEEEEE" style="stroke:#000000;stroke-width:2.0;"/><text fill="#000000" font-family="sans-serif" font-size="13" font-weight="bold" lengthAdjust="spacing" textLength="17" x="896.5" y="423.0166">ref</text><text fill="#000000" font-family="sans-serif" font-size="12" lengthAdjust="spacing" textLength="220" x="887.5" y="442.9375">Get Green Spaces by Responsible User</text><polygon fill="#181818" points="480,474.5313,470,478.5313,480,482.5313,476,478.5313" style="stroke:#181818;stroke-width:1.0;"/><line style="stroke:#181818;stroke-width:1.0;" x1="474" x2="954" y1="478.5313" y2="478.5313"/><text fill="#000000" font-family="sans-serif" font-size="13" font-weight="bold" lengthAdjust="spacing" textLength="7" x="486" y="473.2686">5</text><text fill="#000000" font-family="sans-serif" font-size="13" lengthAdjust="spacing" textLength="76" x="497" y="473.2686">greenSpaces</text><polygon fill="#181818" points="96,505.8223,86,509.8223,96,513.8223,92,509.8223" style="stroke:#181818;stroke-width:1.0;"/><line style="stroke:#181818;stroke-width:1.0;" x1="90" x2="458" y1="509.8223" y2="509.8223"/><text fill="#000000" font-family="sans-serif" font-size="13" font-weight="bold" lengthAdjust="spacing" textLength="7" x="102" y="504.5596">6</text><text fill="#000000" font-family="sans-serif" font-size="13" lengthAdjust="spacing" textLength="154" x="113" y="504.5596">shows list of green spaces</text><polygon fill="#181818" points="447,537.1133,457,541.1133,447,545.1133,451,541.1133" style="stroke:#181818;stroke-width:1.0;"/><line style="stroke:#181818;stroke-width:1.0;" x1="85" x2="453" y1="541.1133" y2="541.1133"/><text fill="#000000" font-family="sans-serif" font-size="13" font-weight="bold" lengthAdjust="spacing" textLength="7" x="92" y="535.8506">7</text><text fill="#000000" font-family="sans-serif" font-size="13" lengthAdjust="spacing" textLength="200" x="103" y="535.8506">selects a green space from the list</text><polygon fill="#181818" points="96,568.4043,86,572.4043,96,576.4043,92,572.4043" style="stroke:#181818;stroke-width:1.0;"/><line style="stroke:#181818;stroke-width:1.0;stroke-dasharray:2.0,2.0;" x1="90" x2="463" y1="572.4043" y2="572.4043"/><text fill="#000000" font-family="sans-serif" font-size="13" font-weight="bold" lengthAdjust="spacing" textLength="7" x="102" y="567.1416">8</text><text fill="#000000" font-family="sans-serif" font-size="13" lengthAdjust="spacing" textLength="339" x="113" y="567.1416">request data (title, description, urgency, expectedDuration)</text><polygon fill="#181818" points="447,599.6953,457,603.6953,447,607.6953,451,603.6953" style="stroke:#181818;stroke-width:1.0;"/><line style="stroke:#181818;stroke-width:1.0;" x1="85" x2="453" y1="603.6953" y2="603.6953"/><text fill="#000000" font-family="sans-serif" font-size="13" font-weight="bold" lengthAdjust="spacing" textLength="7" x="92" y="598.4326">9</text><text fill="#000000" font-family="sans-serif" font-size="13" lengthAdjust="spacing" textLength="122" x="103" y="598.4326">types requested data</text><polygon fill="#181818" points="96,648.2773,86,652.2773,96,656.2773,92,652.2773" style="stroke:#181818;stroke-width:1.0;"/><line style="stroke:#181818;stroke-width:1.0;stroke-dasharray:2.0,2.0;" x1="90" x2="463" y1="652.2773" y2="652.2773"/><text fill="#000000" font-family="sans-serif" font-size="13" font-weight="bold" lengthAdjust="spacing" textLength="14" x="102" y="638.3691">10</text><text fill="#000000" font-family="sans-serif" font-size="13" lengthAdjust="spacing" textLength="137" x="120" y="629.7236">show all data registered</text><text fill="#000000" font-family="sans-serif" font-size="13" lengthAdjust="spacing" textLength="153" x="124" y="647.0146">and the confirmation menu</text><polygon fill="#181818" points="447,679.5684,457,683.5684,447,687.5684,451,683.5684" style="stroke:#181818;stroke-width:1.0;"/><line style="stroke:#181818;stroke-width:1.0;" x1="85" x2="453" y1="683.5684" y2="683.5684"/><text fill="#000000" font-family="sans-serif" font-size="13" font-weight="bold" lengthAdjust="spacing" textLength="14" x="92" y="678.3057">11</text><text fill="#000000" font-family="sans-serif" font-size="13" lengthAdjust="spacing" textLength="75" x="110" y="678.3057">submits data</text><polygon fill="#181818" points="938,710.8594,948,714.8594,938,718.8594,942,714.8594" style="stroke:#181818;stroke-width:1.0;"/><line style="stroke:#181818;stroke-width:1.0;" x1="469" x2="944" y1="714.8594" y2="714.8594"/><text fill="#000000" font-family="sans-serif" font-size="13" font-weight="bold" lengthAdjust="spacing" textLength="14" x="476" y="709.5967">12</text><text fill="#000000" font-family="sans-serif" font-size="13" lengthAdjust="spacing" textLength="444" x="494" y="709.5967">registerToDoEntry(greenSpace ,title, description, urgency, expectedDuration)</text><polygon fill="#181818" points="1196,742.1504,1206,746.1504,1196,750.1504,1200,746.1504" style="stroke:#181818;stroke-width:1.0;"/><line style="stroke:#181818;stroke-width:1.0;" x1="960" x2="1202" y1="746.1504" y2="746.1504"/><text fill="#000000" font-family="sans-serif" font-size="13" font-weight="bold" lengthAdjust="spacing" textLength="14" x="967" y="740.8877">13</text><text fill="#000000" font-family="sans-serif" font-size="13" lengthAdjust="spacing" textLength="75" x="985" y="740.8877">getInstance()</text><polygon fill="#181818" points="971,773.4414,961,777.4414,971,781.4414,967,777.4414" style="stroke:#181818;stroke-width:1.0;"/><line style="stroke:#181818;stroke-width:1.0;stroke-dasharray:2.0,2.0;" x1="965" x2="1212" y1="777.4414" y2="777.4414"/><text fill="#000000" font-family="sans-serif" font-size="13" font-weight="bold" lengthAdjust="spacing" textLength="14" x="977" y="772.1787">14</text><text fill="#000000" font-family="sans-serif" font-size="13" lengthAdjust="spacing" textLength="67" x="995" y="772.1787">repositories</text><polygon fill="#181818" points="1303,804.7324,1313,808.7324,1303,812.7324,1307,808.7324" style="stroke:#181818;stroke-width:1.0;"/><line style="stroke:#181818;stroke-width:1.0;" x1="960" x2="1309" y1="808.7324" y2="808.7324"/><text fill="#000000" font-family="sans-serif" font-size="13" font-weight="bold" lengthAdjust="spacing" textLength="14" x="967" y="803.4697">15</text><text fill="#000000" font-family="sans-serif" font-size="13" lengthAdjust="spacing" textLength="139" x="985" y="803.4697">getToDoListRepository()</text><polygon fill="#181818" points="971,836.0234,961,840.0234,971,844.0234,967,840.0234" style="stroke:#181818;stroke-width:1.0;"/><line style="stroke:#181818;stroke-width:1.0;stroke-dasharray:2.0,2.0;" x1="965" x2="1319" y1="840.0234" y2="840.0234"/><text fill="#000000" font-family="sans-serif" font-size="13" font-weight="bold" lengthAdjust="spacing" textLength="14" x="977" y="834.7607">16</text><text fill="#000000" font-family="sans-serif" font-size="13" lengthAdjust="spacing" textLength="110" x="995" y="834.7607">toDoListRepository</text><polygon fill="#181818" points="1693.5,867.3145,1703.5,871.3145,1693.5,875.3145,1697.5,871.3145" style="stroke:#181818;stroke-width:1.0;"/><line style="stroke:#181818;stroke-width:1.0;" x1="955" x2="1699.5" y1="871.3145" y2="871.3145"/><text fill="#000000" font-family="sans-serif" font-size="13" font-weight="bold" lengthAdjust="spacing" textLength="14" x="962" y="866.0518">17</text><text fill="#000000" font-family="sans-serif" font-size="13" lengthAdjust="spacing" textLength="444" x="980" y="866.0518">registerToDoEntry(greenSpace ,title, description, urgency, expectedDuration)</text><rect fill="none" height="43.252" style="stroke:#000000;stroke-width:1.5;" width="144" x="1638.5" y="879.3145"/><path d="M1638.5,879.3145 L1700.5,879.3145 L1700.5,888.3145 L1690.5,898.3145 L1638.5,898.3145 L1638.5,879.3145 " fill="#EEEEEE" style="stroke:#000000;stroke-width:2.0;"/><text fill="#000000" font-family="sans-serif" font-size="13" font-weight="bold" lengthAdjust="spacing" textLength="17" x="1651.5" y="895.3428">ref</text><text fill="#000000" font-family="sans-serif" font-size="12" lengthAdjust="spacing" textLength="114" x="1653.5" y="915.2637">Register To-Do Entry</text><polygon fill="#181818" points="971,946.8574,961,950.8574,971,954.8574,967,950.8574" style="stroke:#181818;stroke-width:1.0;"/><line style="stroke:#181818;stroke-width:1.0;stroke-dasharray:2.0,2.0;" x1="965" x2="1709.5" y1="950.8574" y2="950.8574"/><text fill="#000000" font-family="sans-serif" font-size="13" font-weight="bold" lengthAdjust="spacing" textLength="14" x="977" y="945.5947">18</text><text fill="#000000" font-family="sans-serif" font-size="13" lengthAdjust="spacing" textLength="58" x="995" y="945.5947">toDoEntry</text><polygon fill="#181818" points="480,978.1484,470,982.1484,480,986.1484,476,982.1484" style="stroke:#181818;stroke-width:1.0;"/><line style="stroke:#181818;stroke-width:1.0;stroke-dasharray:2.0,2.0;" x1="474" x2="954" y1="982.1484" y2="982.1484"/><text fill="#000000" font-family="sans-serif" font-size="13" font-weight="bold" lengthAdjust="spacing" textLength="14" x="486" y="976.8857">19</text><text fill="#000000" font-family="sans-serif" font-size="13" lengthAdjust="spacing" textLength="58" x="504" y="976.8857">toDoEntry</text><polygon fill="#181818" points="96,1009.4395,86,1013.4395,96,1017.4395,92,1013.4395" style="stroke:#181818;stroke-width:1.0;"/><line style="stroke:#181818;stroke-width:1.0;stroke-dasharray:2.0,2.0;" x1="90" x2="463" y1="1013.4395" y2="1013.4395"/><text fill="#000000" font-family="sans-serif" font-size="13" font-weight="bold" lengthAdjust="spacing" textLength="14" x="102" y="1008.1768">20</text><text fill="#000000" font-family="sans-serif" font-size="13" lengthAdjust="spacing" textLength="165" x="120" y="1008.1768">shows operation (in)success</text><!--SRC=[jLN1Rjim3BtxAuXUbXJ93_Gm86kC843N5d5o651WK6p64MfBdYIt2z2F7oKdTcGhMJ5WljYMoCVtA9BIhrnKJB4IIYbakbUoH32gnaYtEnLBNrcEYJaK20fJmqHUd1leFSlaEnSvx5YXCOeCDsIwMKA2lseKASASizoQZf9aFeOfp0g3IZ33tn2U1BcmsaXHbrjKz9qQgU1ceH0591GUuJiJH47T0DCGbrKX3uWHHJSyvHKJ1cxkrd8k7xWscwMpsYmlxDzBOPGiYYFQ_NhrqBDSOIKr9muSjRDf5mu9jzg9gk-YpZnUn13W-M6szZroAyvfwy39Sn5OTWYBLHm_zZPyH4FwOfBMsCUFwzMFeO5DW1TmkEZSXykNw7kaEwgzbCwggk0fdRSK2MfDBsVwS_Ryx5kogZeQ4F05hu5JMYk5mdIE6utgt2E9asJsv2gBlp63NGr5GC_f3wPVRTNUaSihfG1ObW6ZZsac0MrgdNKBGYNc5iY576qXtTwISwgGTljRj96ZwLAblnrMg2ifDDyME1hxqAugxSh7nuTxAzo1V4FLxG0iqC0P1bZLNsn_C5uSJL1arZKw_lhF2Rl_11UTXizfGKjW75s5xSSEwMiKdeq13Tl3GB47q-gDegigt2btHQp3rXdw1z9PDUVQriqTpK3vhg6WbW6vQv11zw07PQQne76ggSRE7617GnZC7XsQ7zAFgUnqfO0PCmn6RkXEYBDE5QzipqoWLZcDtyC4y7T5aJ2RrygrKtCwP_fEjJpWQ0uLvVqO2ZCNB0htGPYbpGomecXeAin95IhCNWGmEYqhD9LYnrNfc469eluqErrlIquPTAp-qfmkOqtqzMbMZheQWCa_PB1V7r6_q09NHzCzIw7f8arFdU-1XUwRrYg4E3rAj0gxgoSArF5Lw1DfUrqrBDU3Uo34rrrlxRBpxXW5hf80hmxYH6BezpyESDZadh80UNySNr6tEdA5jPpE9SJj1J8OLlOd87VQ5MvxkVSxunB1eQOchsrRNm9i2lbwEskG5JPPX14NOrsdDEXqe6l_0000]--></g></svg>