<?xml version="1.0" encoding="us-ascii" standalone="no"?><svg xmlns="http://www.w3.org/2000/svg" xmlns:xlink="http://www.w3.org/1999/xlink" contentStyleType="text/css" height="876px" preserveAspectRatio="none" style="width:1189px;height:876px;background:#FFFFFF;" version="1.1" viewBox="0 0 1189 876" width="1189px" zoomAndPan="magnify"><defs/><g><text fill="#000000" font-family="sans-serif" font-size="14" font-weight="bold" lengthAdjust="spacing" textLength="315" x="439" y="30.1074">UI Sequence Diagram (SSD) - Alternative One</text><rect fill="#FFFFFF" height="651.4512" style="stroke:#181818;stroke-width:1.0;" width="10" x="75" y="133.2422"/><rect fill="#FFFFFF" height="365.8711" style="stroke:#181818;stroke-width:1.0;" width="10" x="459" y="156.5332"/><rect fill="#FFFFFF" height="48.582" style="stroke:#181818;stroke-width:1.0;" width="10" x="459" y="553.6953"/><rect fill="#FFFFFF" height="142.125" style="stroke:#181818;stroke-width:1.0;" width="10" x="459" y="633.5684"/><rect fill="#FFFFFF" height="197.0859" style="stroke:#181818;stroke-width:1.0;" width="10" x="962" y="231.4453"/><rect fill="#FFFFFF" height="79.543" style="stroke:#181818;stroke-width:1.0;" width="10" x="962" y="664.8594"/><line style="stroke:#181818;stroke-width:0.5;stroke-dasharray:5.0,5.0;" x1="80" x2="80" y1="123.2422" y2="793.6934"/><line style="stroke:#181818;stroke-width:0.5;stroke-dasharray:5.0,5.0;" x1="463.5" x2="463.5" y1="123.2422" y2="793.6934"/><line style="stroke:#181818;stroke-width:0.5;stroke-dasharray:5.0,5.0;" x1="966.5" x2="966.5" y1="196.3438" y2="793.6934"/><text fill="#000000" font-family="sans-serif" font-size="14" lengthAdjust="spacing" textLength="144" x="5" y="119.7285">Green Space Manager</text><ellipse cx="80" cy="53.1211" fill="#E3E3E3" rx="8" ry="8" style="stroke:#181818;stroke-width:0.5;"/><path d="M80,61.1211 L80,88.1211 M67,69.1211 L93,69.1211 M80,88.1211 L67,103.1211 M80,88.1211 L93,103.1211 " fill="none" style="stroke:#181818;stroke-width:0.5;"/><text fill="#000000" font-family="sans-serif" font-size="14" lengthAdjust="spacing" textLength="144" x="5" y="807.8008">Green Space Manager</text><ellipse cx="80" cy="819.8145" fill="#E3E3E3" rx="8" ry="8" style="stroke:#181818;stroke-width:0.5;"/><path d="M80,827.8145 L80,854.8145 M67,835.8145 L93,835.8145 M80,854.8145 L67,869.8145 M80,854.8145 L93,869.8145 " fill="none" style="stroke:#181818;stroke-width:0.5;"/><rect fill="#E3E3E3" height="32.6211" rx="2.5" ry="2.5" style="stroke:#181818;stroke-width:0.5;" width="87" x="420.5" y="89.6211"/><text fill="#000000" font-family="sans-serif" font-size="14" lengthAdjust="spacing" textLength="73" x="427.5" y="111.7285">:ToDoListUI</text><rect fill="#E3E3E3" height="32.6211" rx="2.5" ry="2.5" style="stroke:#181818;stroke-width:0.5;" width="87" x="420.5" y="792.6934"/><text fill="#000000" font-family="sans-serif" font-size="14" lengthAdjust="spacing" textLength="73" x="427.5" y="814.8008">:ToDoListUI</text><rect fill="#E3E3E3" height="32.6211" rx="2.5" ry="2.5" style="stroke:#181818;stroke-width:0.5;" width="137" x="898.5" y="792.6934"/><text fill="#000000" font-family="sans-serif" font-size="14" lengthAdjust="spacing" textLength="123" x="905.5" y="814.8008">:ToDoListController</text><rect fill="#FFFFFF" height="651.4512" style="stroke:#181818;stroke-width:1.0;" width="10" x="75" y="133.2422"/><rect fill="#FFFFFF" height="365.8711" style="stroke:#181818;stroke-width:1.0;" width="10" x="459" y="156.5332"/><rect fill="#FFFFFF" height="48.582" style="stroke:#181818;stroke-width:1.0;" width="10" x="459" y="553.6953"/><rect fill="#FFFFFF" height="142.125" style="stroke:#181818;stroke-width:1.0;" width="10" x="459" y="633.5684"/><rect fill="#FFFFFF" height="197.0859" style="stroke:#181818;stroke-width:1.0;" width="10" x="962" y="231.4453"/><rect fill="#FFFFFF" height="79.543" style="stroke:#181818;stroke-width:1.0;" width="10" x="962" y="664.8594"/><polygon fill="#181818" points="447,152.5332,457,156.5332,447,160.5332,451,156.5332" style="stroke:#181818;stroke-width:1.0;"/><line style="stroke:#181818;stroke-width:1.0;" x1="85" x2="453" y1="156.5332" y2="156.5332"/><text fill="#000000" font-family="sans-serif" font-size="13" font-weight="bold" lengthAdjust="spacing" textLength="7" x="92" y="151.2705">1</text><text fill="#000000" font-family="sans-serif" font-size="13" lengthAdjust="spacing" textLength="138" x="103" y="151.2705">ask to add a to-do entry</text><polygon fill="#181818" points="886.5,183.8242,896.5,187.8242,886.5,191.8242,890.5,187.8242" style="stroke:#181818;stroke-width:1.0;"/><line style="stroke:#181818;stroke-width:1.0;" x1="469" x2="892.5" y1="187.8242" y2="187.8242"/><text fill="#000000" font-family="sans-serif" font-size="13" font-weight="bold" lengthAdjust="spacing" textLength="7" x="476" y="182.5615">2</text><text fill="#000000" font-family="sans-serif" font-size="13" lengthAdjust="spacing" textLength="36" x="487" y="182.5615">create</text><rect fill="#E3E3E3" height="32.6211" rx="2.5" ry="2.5" style="stroke:#181818;stroke-width:0.5;" width="137" x="898.5" y="164.5332"/><text fill="#000000" font-family="sans-serif" font-size="14" lengthAdjust="spacing" textLength="123" x="905.5" y="186.6406">:ToDoListController</text><polygon fill="#181818" points="950,227.4453,960,231.4453,950,235.4453,954,231.4453" style="stroke:#181818;stroke-width:1.0;"/><line style="stroke:#181818;stroke-width:1.0;" x1="469" x2="956" y1="231.4453" y2="231.4453"/><text fill="#000000" font-family="sans-serif" font-size="13" font-weight="bold" lengthAdjust="spacing" textLength="7" x="476" y="226.1826">3</text><text fill="#000000" font-family="sans-serif" font-size="13" lengthAdjust="spacing" textLength="211" x="487" y="226.1826">getGreenSpaceDTOByResponsible()</text><rect fill="none" height="43.252" style="stroke:#000000;stroke-width:1.5;" width="175" x="895.5" y="239.4453"/><path d="M895.5,239.4453 L957.5,239.4453 L957.5,248.4453 L947.5,258.4453 L895.5,258.4453 L895.5,239.4453 " fill="#EEEEEE" style="stroke:#000000;stroke-width:2.0;"/><text fill="#000000" font-family="sans-serif" font-size="13" font-weight="bold" lengthAdjust="spacing" textLength="17" x="908.5" y="255.4736">ref</text><text fill="#000000" font-family="sans-serif" font-size="12" lengthAdjust="spacing" textLength="167" x="899.5" y="275.3945">Get Responsible User's Email</text><line style="stroke:#181818;stroke-width:1.0;" x1="972" x2="1014" y1="335.9883" y2="335.9883"/><line style="stroke:#181818;stroke-width:1.0;" x1="1014" x2="1014" y1="335.9883" y2="348.9883"/><line style="stroke:#181818;stroke-width:1.0;" x1="973" x2="1014" y1="348.9883" y2="348.9883"/><polygon fill="#181818" points="983,344.9883,973,348.9883,983,352.9883,979,348.9883" style="stroke:#181818;stroke-width:1.0;"/><text fill="#000000" font-family="sans-serif" font-size="13" font-weight="bold" lengthAdjust="spacing" textLength="7" x="979" y="330.7256">4</text><text fill="#000000" font-family="sans-serif" font-size="13" lengthAdjust="spacing" textLength="192" x="990" y="330.7256">getGreenSpacesByResponsible()</text><rect fill="none" height="43.252" style="stroke:#000000;stroke-width:1.5;" width="228" x="895.5" y="356.9883"/><path d="M895.5,356.9883 L957.5,356.9883 L957.5,365.9883 L947.5,375.9883 L895.5,375.9883 L895.5,356.9883 " fill="#EEEEEE" style="stroke:#000000;stroke-width:2.0;"/><text fill="#000000" font-family="sans-serif" font-size="13" font-weight="bold" lengthAdjust="spacing" textLength="17" x="908.5" y="373.0166">ref</text><text fill="#000000" font-family="sans-serif" font-size="12" lengthAdjust="spacing" textLength="220" x="899.5" y="392.9375">Get Green Spaces by Responsible User</text><polygon fill="#181818" points="480,424.5313,470,428.5313,480,432.5313,476,428.5313" style="stroke:#181818;stroke-width:1.0;"/><line style="stroke:#181818;stroke-width:1.0;stroke-dasharray:2.0,2.0;" x1="474" x2="966" y1="428.5313" y2="428.5313"/><text fill="#000000" font-family="sans-serif" font-size="13" font-weight="bold" lengthAdjust="spacing" textLength="7" x="486" y="423.2686">5</text><text fill="#000000" font-family="sans-serif" font-size="13" lengthAdjust="spacing" textLength="109" x="497" y="423.2686">listGreenSpaceDto</text><polygon fill="#181818" points="96,455.8223,86,459.8223,96,463.8223,92,459.8223" style="stroke:#181818;stroke-width:1.0;"/><line style="stroke:#181818;stroke-width:1.0;" x1="90" x2="458" y1="459.8223" y2="459.8223"/><text fill="#000000" font-family="sans-serif" font-size="13" font-weight="bold" lengthAdjust="spacing" textLength="7" x="102" y="454.5596">6</text><text fill="#000000" font-family="sans-serif" font-size="13" lengthAdjust="spacing" textLength="154" x="113" y="454.5596">shows list of green spaces</text><polygon fill="#181818" points="447,487.1133,457,491.1133,447,495.1133,451,491.1133" style="stroke:#181818;stroke-width:1.0;"/><line style="stroke:#181818;stroke-width:1.0;" x1="85" x2="453" y1="491.1133" y2="491.1133"/><text fill="#000000" font-family="sans-serif" font-size="13" font-weight="bold" lengthAdjust="spacing" textLength="7" x="92" y="485.8506">7</text><text fill="#000000" font-family="sans-serif" font-size="13" lengthAdjust="spacing" textLength="200" x="103" y="485.8506">selects a green space from the list</text><polygon fill="#181818" points="96,518.4043,86,522.4043,96,526.4043,92,522.4043" style="stroke:#181818;stroke-width:1.0;"/><line style="stroke:#181818;stroke-width:1.0;stroke-dasharray:2.0,2.0;" x1="90" x2="463" y1="522.4043" y2="522.4043"/><text fill="#000000" font-family="sans-serif" font-size="13" font-weight="bold" lengthAdjust="spacing" textLength="7" x="102" y="517.1416">8</text><text fill="#000000" font-family="sans-serif" font-size="13" lengthAdjust="spacing" textLength="339" x="113" y="517.1416">request data (title, description, urgency, expectedDuration)</text><polygon fill="#181818" points="447,549.6953,457,553.6953,447,557.6953,451,553.6953" style="stroke:#181818;stroke-width:1.0;"/><line style="stroke:#181818;stroke-width:1.0;" x1="85" x2="453" y1="553.6953" y2="553.6953"/><text fill="#000000" font-family="sans-serif" font-size="13" font-weight="bold" lengthAdjust="spacing" textLength="7" x="92" y="548.4326">9</text><text fill="#000000" font-family="sans-serif" font-size="13" lengthAdjust="spacing" textLength="122" x="103" y="548.4326">types requested data</text><polygon fill="#181818" points="96,598.2773,86,602.2773,96,606.2773,92,602.2773" style="stroke:#181818;stroke-width:1.0;"/><line style="stroke:#181818;stroke-width:1.0;stroke-dasharray:2.0,2.0;" x1="90" x2="463" y1="602.2773" y2="602.2773"/><text fill="#000000" font-family="sans-serif" font-size="13" font-weight="bold" lengthAdjust="spacing" textLength="14" x="102" y="588.3691">10</text><text fill="#000000" font-family="sans-serif" font-size="13" lengthAdjust="spacing" textLength="137" x="120" y="579.7236">show all data registered</text><text fill="#000000" font-family="sans-serif" font-size="13" lengthAdjust="spacing" textLength="153" x="124" y="597.0146">and the confirmation menu</text><polygon fill="#181818" points="447,629.5684,457,633.5684,447,637.5684,451,633.5684" style="stroke:#181818;stroke-width:1.0;"/><line style="stroke:#181818;stroke-width:1.0;" x1="85" x2="453" y1="633.5684" y2="633.5684"/><text fill="#000000" font-family="sans-serif" font-size="13" font-weight="bold" lengthAdjust="spacing" textLength="14" x="92" y="628.3057">11</text><text fill="#000000" font-family="sans-serif" font-size="13" lengthAdjust="spacing" textLength="75" x="110" y="628.3057">submits data</text><polygon fill="#181818" points="950,660.8594,960,664.8594,950,668.8594,954,664.8594" style="stroke:#181818;stroke-width:1.0;"/><line style="stroke:#181818;stroke-width:1.0;" x1="469" x2="956" y1="664.8594" y2="664.8594"/><text fill="#000000" font-family="sans-serif" font-size="13" font-weight="bold" lengthAdjust="spacing" textLength="14" x="476" y="659.5967">12</text><text fill="#000000" font-family="sans-serif" font-size="13" lengthAdjust="spacing" textLength="456" x="494" y="659.5967">registerToDoEntry(greenSpaceID ,title, description, urgency, expectedDuration)</text><rect fill="none" height="43.252" style="stroke:#000000;stroke-width:1.5;" width="143" x="895.5" y="672.8594"/><path d="M895.5,672.8594 L957.5,672.8594 L957.5,681.8594 L947.5,691.8594 L895.5,691.8594 L895.5,672.8594 " fill="#EEEEEE" style="stroke:#000000;stroke-width:2.0;"/><text fill="#000000" font-family="sans-serif" font-size="13" font-weight="bold" lengthAdjust="spacing" textLength="17" x="908.5" y="688.8877">ref</text><text fill="#000000" font-family="sans-serif" font-size="12" lengthAdjust="spacing" textLength="114" x="910" y="708.8086">Register To-Do Entry</text><polygon fill="#181818" points="480,740.4023,470,744.4023,480,748.4023,476,744.4023" style="stroke:#181818;stroke-width:1.0;"/><line style="stroke:#181818;stroke-width:1.0;stroke-dasharray:2.0,2.0;" x1="474" x2="966" y1="744.4023" y2="744.4023"/><text fill="#000000" font-family="sans-serif" font-size="13" font-weight="bold" lengthAdjust="spacing" textLength="14" x="486" y="739.1396">13</text><text fill="#000000" font-family="sans-serif" font-size="13" lengthAdjust="spacing" textLength="58" x="504" y="739.1396">toDoEntry</text><polygon fill="#181818" points="96,771.6934,86,775.6934,96,779.6934,92,775.6934" style="stroke:#181818;stroke-width:1.0;"/><line style="stroke:#181818;stroke-width:1.0;stroke-dasharray:2.0,2.0;" x1="90" x2="463" y1="775.6934" y2="775.6934"/><text fill="#000000" font-family="sans-serif" font-size="13" font-weight="bold" lengthAdjust="spacing" textLength="14" x="102" y="770.4307">14</text><text fill="#000000" font-family="sans-serif" font-size="13" lengthAdjust="spacing" textLength="165" x="120" y="770.4307">shows operation (in)success</text><!--SRC=[dLHDRzf04BtxLuou52Bu0nmgjJ6Aa595ukFMos8FPiLwnzqTarhYntTs7Gp4X4JTa-tvUE_jlB7VQriffqeeoLAsSrGYiAinyLsaKjbU5RZanY0up5ZPmbmc-9tAwLNR0hRAU4mIrYofwpaiyK-DDaD8jIf2wd2vJ4SmWH-6qLd5-e3mOgL4rKosBZVev3bZSZ1uSeWMbWAFy4jPeU06e3pCoifGWvW8EkjCLyeo3AOhIkbPUrxFOzPw_a7yaImxCkQjs-DgyPp48x3we1ZF00d8ERt1v7kGD9MYFJ21odDGyZ392L1QDZ6xQoBuyOEKI650UNYGuioXHD-7950WHy5HRxfw-Taiq5TalTuO78wkcqVIuOl3BT01tVdB4p9SLCBQe_iMBarf4nFGvg6ifT0xn-FnPY2oxDXUaVMtgDuxVTBtJX1qOGKFcwOdyDCcdUXxcQt6qvYDUELY8antQtEy7iuvkProvwAfh0kz-jWUQ0j5bEQZj7DHptGUZMoU5yTT5C1MzXLuXx7RDUGrfWkBA82vOWN3k9zZuUmpfolMPCTGkq8sjHa3_gq42VEqTYg4sdbUw3ivkyUHcqh6ymQ5UGHBRc_5RPRXPa0Pqz9qM8WgT9Z_jg1aW45eHdQhNHcPGOcs_Z8xNszABJSOMNsogl76MlJmsvY5zHuMdHdcAOp_umxVEoJvsb8itfZ0YYOfmQpxr_JCtJSndzWdDqrwVnGUgC9M00or7Vaw4vFw6pV-3m00]--></g></svg>