<?xml version="1.0" encoding="us-ascii" standalone="no"?><svg xmlns="http://www.w3.org/2000/svg" xmlns:xlink="http://www.w3.org/1999/xlink" contentStyleType="text/css" height="539px" preserveAspectRatio="none" style="width:954px;height:539px;background:#FFFFFF;" version="1.1" viewBox="0 0 954 539" width="954px" zoomAndPan="magnify"><defs/><g><text fill="#000000" font-family="sans-serif" font-size="14" font-weight="bold" lengthAdjust="spacing" textLength="350" x="303.75" y="30.1074">UI Sequence Diagram (SSD) - Register To-Do Entry</text><rect fill="#FFFFFF" height="358.5703" style="stroke:#181818;stroke-width:1.0;" width="10" x="165.5" y="106.8633"/><rect fill="#FFFFFF" height="311.9883" style="stroke:#181818;stroke-width:1.0;" width="10" x="656.5" y="130.1543"/><rect fill="#FFFFFF" height="130.873" style="stroke:#181818;stroke-width:1.0;" width="10" x="661.5" y="257.9785"/><rect fill="#FFFFFF" height="42.291" style="stroke:#181818;stroke-width:1.0;" width="10" x="666.5" y="302.2695"/><rect fill="none" height="289.9883" style="stroke:#000000;stroke-width:1.5;" width="856.5" x="92" y="145.1543"/><line style="stroke:#181818;stroke-width:0.5;stroke-dasharray:5.0,5.0;" x1="48" x2="48" y1="96.8633" y2="483.4336"/><line style="stroke:#181818;stroke-width:0.5;stroke-dasharray:5.0,5.0;" x1="170" x2="170" y1="96.8633" y2="483.4336"/><line style="stroke:#181818;stroke-width:0.5;stroke-dasharray:5.0,5.0;" x1="297" x2="297" y1="96.8633" y2="483.4336"/><line style="stroke:#181818;stroke-width:0.5;stroke-dasharray:5.0,5.0;" x1="404" x2="404" y1="96.8633" y2="483.4336"/><line style="stroke:#181818;stroke-width:0.5;stroke-dasharray:5.0,5.0;" x1="661.5" x2="661.5" y1="96.8633" y2="483.4336"/><line style="stroke:#181818;stroke-width:0.5;stroke-dasharray:5.0,5.0;" x1="889.5" x2="889.5" y1="205.5664" y2="483.4336"/><rect fill="#E3E3E3" height="32.6211" rx="2.5" ry="2.5" style="stroke:#181818;stroke-width:0.5;" width="87" x="5" y="63.2422"/><text fill="#000000" font-family="sans-serif" font-size="14" lengthAdjust="spacing" textLength="73" x="12" y="85.3496">:ToDoListUI</text><rect fill="#E3E3E3" height="32.6211" rx="2.5" ry="2.5" style="stroke:#181818;stroke-width:0.5;" width="87" x="5" y="482.4336"/><text fill="#000000" font-family="sans-serif" font-size="14" lengthAdjust="spacing" textLength="73" x="12" y="504.541">:ToDoListUI</text><rect fill="#E3E3E3" height="32.6211" rx="2.5" ry="2.5" style="stroke:#181818;stroke-width:0.5;" width="137" x="102" y="63.2422"/><text fill="#000000" font-family="sans-serif" font-size="14" lengthAdjust="spacing" textLength="123" x="109" y="85.3496">:ToDoListController</text><rect fill="#E3E3E3" height="32.6211" rx="2.5" ry="2.5" style="stroke:#181818;stroke-width:0.5;" width="137" x="102" y="482.4336"/><text fill="#000000" font-family="sans-serif" font-size="14" lengthAdjust="spacing" textLength="123" x="109" y="504.541">:ToDoListController</text><rect fill="#E3E3E3" height="32.6211" rx="2.5" ry="2.5" style="stroke:#181818;stroke-width:0.5;" width="97" x="249" y="63.2422"/><text fill="#000000" font-family="sans-serif" font-size="14" lengthAdjust="spacing" textLength="83" x="256" y="85.3496">:Repositories</text><rect fill="#E3E3E3" height="32.6211" rx="2.5" ry="2.5" style="stroke:#181818;stroke-width:0.5;" width="97" x="249" y="482.4336"/><text fill="#000000" font-family="sans-serif" font-size="14" lengthAdjust="spacing" textLength="83" x="256" y="504.541">:Repositories</text><rect fill="#E3E3E3" height="51.2422" rx="2.5" ry="2.5" style="stroke:#181818;stroke-width:0.5;" width="97" x="356" y="44.6211"/><text fill="#000000" font-family="sans-serif" font-size="14" lengthAdjust="spacing" textLength="74" x="367.5" y="66.7285">repositories</text><text fill="#000000" font-family="sans-serif" font-size="14" lengthAdjust="spacing" textLength="83" x="363" y="85.3496">:Repositories</text><rect fill="#E3E3E3" height="51.2422" rx="2.5" ry="2.5" style="stroke:#181818;stroke-width:0.5;" width="97" x="356" y="482.4336"/><text fill="#000000" font-family="sans-serif" font-size="14" lengthAdjust="spacing" textLength="74" x="367.5" y="504.541">repositories</text><text fill="#000000" font-family="sans-serif" font-size="14" lengthAdjust="spacing" textLength="83" x="363" y="523.1621">:Repositories</text><rect fill="#E3E3E3" height="51.2422" rx="2.5" ry="2.5" style="stroke:#181818;stroke-width:0.5;" width="138" x="592.5" y="44.6211"/><text fill="#000000" font-family="sans-serif" font-size="14" lengthAdjust="spacing" textLength="120" x="601.5" y="66.7285">toDoListRepository</text><text fill="#000000" font-family="sans-serif" font-size="14" lengthAdjust="spacing" textLength="124" x="599.5" y="85.3496">:toDoListRepository</text><rect fill="#E3E3E3" height="51.2422" rx="2.5" ry="2.5" style="stroke:#181818;stroke-width:0.5;" width="138" x="592.5" y="482.4336"/><text fill="#000000" font-family="sans-serif" font-size="14" lengthAdjust="spacing" textLength="120" x="601.5" y="504.541">toDoListRepository</text><text fill="#000000" font-family="sans-serif" font-size="14" lengthAdjust="spacing" textLength="124" x="599.5" y="523.1621">:toDoListRepository</text><rect fill="#E3E3E3" height="51.2422" rx="2.5" ry="2.5" style="stroke:#181818;stroke-width:0.5;" width="98" x="840.5" y="482.4336"/><text fill="#000000" font-family="sans-serif" font-size="14" lengthAdjust="spacing" textLength="77" x="851" y="504.541">greenSpace</text><text fill="#000000" font-family="sans-serif" font-size="14" lengthAdjust="spacing" textLength="84" x="847.5" y="523.1621">:GreenSpace</text><rect fill="#FFFFFF" height="358.5703" style="stroke:#181818;stroke-width:1.0;" width="10" x="165.5" y="106.8633"/><rect fill="#FFFFFF" height="311.9883" style="stroke:#181818;stroke-width:1.0;" width="10" x="656.5" y="130.1543"/><rect fill="#FFFFFF" height="130.873" style="stroke:#181818;stroke-width:1.0;" width="10" x="661.5" y="257.9785"/><rect fill="#FFFFFF" height="42.291" style="stroke:#181818;stroke-width:1.0;" width="10" x="666.5" y="302.2695"/><polygon fill="#181818" points="644.5,126.1543,654.5,130.1543,644.5,134.1543,648.5,130.1543" style="stroke:#181818;stroke-width:1.0;"/><line style="stroke:#181818;stroke-width:1.0;" x1="175.5" x2="650.5" y1="130.1543" y2="130.1543"/><text fill="#000000" font-family="sans-serif" font-size="13" font-weight="bold" lengthAdjust="spacing" textLength="14" x="182.5" y="124.8916">32</text><text fill="#000000" font-family="sans-serif" font-size="13" lengthAdjust="spacing" textLength="444" x="200.5" y="124.8916">registerToDoEntry(greenSpace ,title, description, urgency, expectedDuration)</text><path d="M92,145.1543 L266,145.1543 L266,154.4453 L256,164.4453 L92,164.4453 L92,145.1543 " fill="#EEEEEE" style="stroke:#000000;stroke-width:1.5;"/><rect fill="none" height="289.9883" style="stroke:#000000;stroke-width:1.5;" width="856.5" x="92" y="145.1543"/><text fill="#000000" font-family="sans-serif" font-size="13" font-weight="bold" lengthAdjust="spacing" textLength="129" x="107" y="160.1826">Register To-Do Entry</text><polygon fill="#181818" points="828.5,183.7363,838.5,187.7363,828.5,191.7363,832.5,187.7363" style="stroke:#181818;stroke-width:1.0;"/><line style="stroke:#181818;stroke-width:1.0;" x1="666.5" x2="834.5" y1="187.7363" y2="187.7363"/><text fill="#000000" font-family="sans-serif" font-size="13" font-weight="bold" lengthAdjust="spacing" textLength="25" x="673.5" y="182.4736">32.1</text><text fill="#000000" font-family="sans-serif" font-size="13" lengthAdjust="spacing" textLength="36" x="702.5" y="182.4736">create</text><rect fill="#E3E3E3" height="51.2422" rx="2.5" ry="2.5" style="stroke:#181818;stroke-width:0.5;" width="98" x="840.5" y="164.4453"/><text fill="#000000" font-family="sans-serif" font-size="14" lengthAdjust="spacing" textLength="77" x="851" y="186.5527">greenSpace</text><text fill="#000000" font-family="sans-serif" font-size="14" lengthAdjust="spacing" textLength="84" x="847.5" y="205.1738">:GreenSpace</text><line style="stroke:#181818;stroke-width:1.0;" x1="666.5" x2="713.5" y1="244.9785" y2="244.9785"/><line style="stroke:#181818;stroke-width:1.0;" x1="713.5" x2="713.5" y1="244.9785" y2="257.9785"/><line style="stroke:#181818;stroke-width:1.0;" x1="672.5" x2="713.5" y1="257.9785" y2="257.9785"/><polygon fill="#181818" points="682.5,253.9785,672.5,257.9785,682.5,261.9785,678.5,257.9785" style="stroke:#181818;stroke-width:1.0;"/><text fill="#000000" font-family="sans-serif" font-size="13" font-weight="bold" lengthAdjust="spacing" textLength="25" x="678.5" y="239.7158">32.2</text><text fill="#000000" font-family="sans-serif" font-size="13" lengthAdjust="spacing" textLength="148" x="707.5" y="239.7158">addToDoEntry(toDoEntry)</text><line style="stroke:#181818;stroke-width:1.0;" x1="671.5" x2="718.5" y1="289.2695" y2="289.2695"/><line style="stroke:#181818;stroke-width:1.0;" x1="718.5" x2="718.5" y1="289.2695" y2="302.2695"/><line style="stroke:#181818;stroke-width:1.0;" x1="677.5" x2="718.5" y1="302.2695" y2="302.2695"/><polygon fill="#181818" points="687.5,298.2695,677.5,302.2695,687.5,306.2695,683.5,302.2695" style="stroke:#181818;stroke-width:1.0;"/><text fill="#000000" font-family="sans-serif" font-size="13" font-weight="bold" lengthAdjust="spacing" textLength="25" x="683.5" y="284.0068">32.3</text><text fill="#000000" font-family="sans-serif" font-size="13" lengthAdjust="spacing" textLength="170" x="712.5" y="284.0068">validateToDoEntry(toDoEntry)</text><line style="stroke:#181818;stroke-width:1.0;stroke-dasharray:2.0,2.0;" x1="676.5" x2="718.5" y1="343.5605" y2="343.5605"/><line style="stroke:#181818;stroke-width:1.0;stroke-dasharray:2.0,2.0;" x1="718.5" x2="718.5" y1="343.5605" y2="356.5605"/><line style="stroke:#181818;stroke-width:1.0;stroke-dasharray:2.0,2.0;" x1="671.5" x2="718.5" y1="356.5605" y2="356.5605"/><polygon fill="#181818" points="681.5,352.5605,671.5,356.5605,681.5,360.5605,677.5,356.5605" style="stroke:#181818;stroke-width:1.0;"/><text fill="#000000" font-family="sans-serif" font-size="13" font-weight="bold" lengthAdjust="spacing" textLength="25" x="683.5" y="338.2979">32.4</text><text fill="#000000" font-family="sans-serif" font-size="13" lengthAdjust="spacing" textLength="4" x="712.5" y="338.2979">&#160;</text><line style="stroke:#181818;stroke-width:1.0;stroke-dasharray:2.0,2.0;" x1="671.5" x2="713.5" y1="387.8516" y2="387.8516"/><line style="stroke:#181818;stroke-width:1.0;stroke-dasharray:2.0,2.0;" x1="713.5" x2="713.5" y1="387.8516" y2="400.8516"/><line style="stroke:#181818;stroke-width:1.0;stroke-dasharray:2.0,2.0;" x1="666.5" x2="713.5" y1="400.8516" y2="400.8516"/><polygon fill="#181818" points="676.5,396.8516,666.5,400.8516,676.5,404.8516,672.5,400.8516" style="stroke:#181818;stroke-width:1.0;"/><text fill="#000000" font-family="sans-serif" font-size="13" font-weight="bold" lengthAdjust="spacing" textLength="25" x="678.5" y="382.5889">32.5</text><text fill="#000000" font-family="sans-serif" font-size="13" lengthAdjust="spacing" textLength="4" x="707.5" y="382.5889">&#160;</text><polygon fill="#181818" points="186.5,423.1426,176.5,427.1426,186.5,431.1426,182.5,427.1426" style="stroke:#181818;stroke-width:1.0;"/><line style="stroke:#181818;stroke-width:1.0;stroke-dasharray:2.0,2.0;" x1="180.5" x2="655.5" y1="427.1426" y2="427.1426"/><text fill="#000000" font-family="sans-serif" font-size="13" font-weight="bold" lengthAdjust="spacing" textLength="25" x="192.5" y="421.8799">32.6</text><text fill="#000000" font-family="sans-serif" font-size="13" lengthAdjust="spacing" textLength="58" x="221.5" y="421.8799">toDoEntry</text><polygon fill="#181818" points="59.5,461.4336,49.5,465.4336,59.5,469.4336,55.5,465.4336" style="stroke:#181818;stroke-width:1.0;"/><line style="stroke:#181818;stroke-width:1.0;stroke-dasharray:2.0,2.0;" x1="53.5" x2="169.5" y1="465.4336" y2="465.4336"/><text fill="#000000" font-family="sans-serif" font-size="13" font-weight="bold" lengthAdjust="spacing" textLength="14" x="65.5" y="460.1709">33</text><text fill="#000000" font-family="sans-serif" font-size="13" lengthAdjust="spacing" textLength="58" x="83.5" y="460.1709">toDoEntry</text><!--SRC=[nLHDJuD04BtlhvXuQXjgehtrO69AqpHfZ05wyxAo8zqKTd5tgVBl7MZbmrADYOatc7tpvhrz0tOlLSuDpo3JIiSxepC4PmfajZd9URpd2OQkJ14Cnewh9Eq2x8uB_IPL0YyyjSYOauwWspM4-5gWYX5yoPCAEWf3VmnJ232Hrg61I4zz3KlbJCaOBvnMHVQCXZ56t4x6CkVAmTKyqhxUKCjsVGNS4lU5yuKcAfscQ6hS8WesNv01vjfAfur4MsEQGXdAoXbfwBUOJiUJEYTutDn7_GvtKjDIKzzviUu-B_Uv4eEeGWe1YMFLlDIzgs2vVA2xuh6J1-xmwBTpZp2xPLKDfdS3Ws1EUHw3gEwlJc7KpWEl3j83WJOsCdTIAmyAar2afGVudjCoeF0BmwkZSIjZm5DYT94FvzwJUtt31eII_DhhP4AQOuCqv09iq2KNeZNeFf- -5_mB-WDFfI2QFvanE8G9_4UUUeFcq9XYgCGFJBrGPwST92hwANI9EYJ7rUqKw1l_0000]--></g></svg>