<?xml version="1.0" encoding="us-ascii" standalone="no"?><svg xmlns="http://www.w3.org/2000/svg" xmlns:xlink="http://www.w3.org/1999/xlink" contentStyleType="text/css" height="1667px" preserveAspectRatio="none" style="width:2477px;height:1667px;background:#FFFFFF;" version="1.1" viewBox="0 0 2477 1667" width="2477px" zoomAndPan="magnify"><defs/><g><text fill="#000000" font-family="sans-serif" font-size="14" font-weight="bold" lengthAdjust="spacing" textLength="315" x="1080.25" y="30.1074">UI Sequence Diagram (SSD) - Alternative One</text><rect fill="#FFFFFF" height="1442.2129" style="stroke:#181818;stroke-width:1.0;" width="10" x="75" y="133.2422"/><rect fill="#FFFFFF" height="777.7324" style="stroke:#181818;stroke-width:1.0;" width="10" x="466" y="156.5332"/><rect fill="#FFFFFF" height="48.582" style="stroke:#181818;stroke-width:1.0;" width="10" x="466" y="965.5566"/><rect fill="#FFFFFF" height="521.0254" style="stroke:#181818;stroke-width:1.0;" width="10" x="466" y="1045.4297"/><rect fill="#FFFFFF" height="608.9473" style="stroke:#181818;stroke-width:1.0;" width="10" x="957" y="231.4453"/><rect fill="#FFFFFF" height="230.0371" style="stroke:#181818;stroke-width:1.0;" width="10" x="962" y="270.7363"/><rect fill="#FFFFFF" height="230.0371" style="stroke:#181818;stroke-width:1.0;" width="10" x="962" y="572.0645"/><rect fill="#FFFFFF" height="156.4551" style="stroke:#181818;stroke-width:1.0;" width="10" x="957" y="1076.7207"/><rect fill="#FFFFFF" height="31.291" style="stroke:#181818;stroke-width:1.0;" width="10" x="957" y="1503.873"/><rect fill="#FFFFFF" height="31.291" style="stroke:#181818;stroke-width:1.0;" width="10" x="1290" y="608.3555"/><rect fill="#FFFFFF" height="31.291" style="stroke:#181818;stroke-width:1.0;" width="10" x="1290" y="1108.0117"/><rect fill="#FFFFFF" height="31.291" style="stroke:#181818;stroke-width:1.0;" width="10" x="1397" y="670.9375"/><rect fill="#FFFFFF" height="31.291" style="stroke:#181818;stroke-width:1.0;" width="10" x="1397" y="1170.5938"/><rect fill="#FFFFFF" height="31.291" style="stroke:#181818;stroke-width:1.0;" width="10" x="1538.5" y="733.5195"/><rect fill="#FFFFFF" height="270.6973" style="stroke:#181818;stroke-width:1.0;" width="10" x="1787.5" y="1233.1758"/><rect fill="#FFFFFF" height="130.873" style="stroke:#181818;stroke-width:1.0;" width="10" x="1792.5" y="1334.709"/><rect fill="#FFFFFF" height="42.291" style="stroke:#181818;stroke-width:1.0;" width="10" x="1797.5" y="1379"/><rect fill="#FFFFFF" height="31.291" style="stroke:#181818;stroke-width:1.0;" width="10" x="2132" y="307.0273"/><rect fill="#FFFFFF" height="31.291" style="stroke:#181818;stroke-width:1.0;" width="10" x="2279" y="369.6094"/><rect fill="#FFFFFF" height="31.291" style="stroke:#181818;stroke-width:1.0;" width="10" x="2412" y="432.1914"/><line style="stroke:#181818;stroke-width:0.5;stroke-dasharray:5.0,5.0;" x1="80" x2="80" y1="123.2422" y2="1584.4551"/><line style="stroke:#181818;stroke-width:0.5;stroke-dasharray:5.0,5.0;" x1="470.5" x2="470.5" y1="123.2422" y2="1584.4551"/><line style="stroke:#181818;stroke-width:0.5;stroke-dasharray:5.0,5.0;" x1="961.5" x2="961.5" y1="196.3438" y2="1584.4551"/><line style="stroke:#181818;stroke-width:0.5;stroke-dasharray:5.0,5.0;" x1="1294.5" x2="1294.5" y1="123.2422" y2="1584.4551"/><line style="stroke:#181818;stroke-width:0.5;stroke-dasharray:5.0,5.0;" x1="1401.5" x2="1401.5" y1="123.2422" y2="1584.4551"/><line style="stroke:#181818;stroke-width:0.5;stroke-dasharray:5.0,5.0;" x1="1543.5" x2="1543.5" y1="123.2422" y2="1584.4551"/><line style="stroke:#181818;stroke-width:0.5;stroke-dasharray:5.0,5.0;" x1="1674.5" x2="1674.5" y1="123.2422" y2="1584.4551"/><line style="stroke:#181818;stroke-width:0.5;stroke-dasharray:5.0,5.0;" x1="1792.5" x2="1792.5" y1="123.2422" y2="1584.4551"/><line style="stroke:#181818;stroke-width:0.5;stroke-dasharray:5.0,5.0;" x1="2009.5" x2="2009.5" y1="1282.2969" y2="1584.4551"/><line style="stroke:#181818;stroke-width:0.5;stroke-dasharray:5.0,5.0;" x1="2136.5" x2="2136.5" y1="123.2422" y2="1584.4551"/><line style="stroke:#181818;stroke-width:0.5;stroke-dasharray:5.0,5.0;" x1="2283.5" x2="2283.5" y1="123.2422" y2="1584.4551"/><line style="stroke:#181818;stroke-width:0.5;stroke-dasharray:5.0,5.0;" x1="2416.5" x2="2416.5" y1="123.2422" y2="1584.4551"/><text fill="#000000" font-family="sans-serif" font-size="14" lengthAdjust="spacing" textLength="144" x="5" y="119.7285">Green Space Manager</text><ellipse cx="80" cy="53.1211" fill="#E3E3E3" rx="8" ry="8" style="stroke:#181818;stroke-width:0.5;"/><path d="M80,61.1211 L80,88.1211 M67,69.1211 L93,69.1211 M80,88.1211 L67,103.1211 M80,88.1211 L93,103.1211 " fill="none" style="stroke:#181818;stroke-width:0.5;"/><text fill="#000000" font-family="sans-serif" font-size="14" lengthAdjust="spacing" textLength="144" x="5" y="1598.5625">Green Space Manager</text><ellipse cx="80" cy="1610.5762" fill="#E3E3E3" rx="8" ry="8" style="stroke:#181818;stroke-width:0.5;"/><path d="M80,1618.5762 L80,1645.5762 M67,1626.5762 L93,1626.5762 M80,1645.5762 L67,1660.5762 M80,1645.5762 L93,1660.5762 " fill="none" style="stroke:#181818;stroke-width:0.5;"/><rect fill="#E3E3E3" height="32.6211" rx="2.5" ry="2.5" style="stroke:#181818;stroke-width:0.5;" width="87" x="427.5" y="89.6211"/><text fill="#000000" font-family="sans-serif" font-size="14" lengthAdjust="spacing" textLength="73" x="434.5" y="111.7285">:ToDoListUI</text><rect fill="#E3E3E3" height="32.6211" rx="2.5" ry="2.5" style="stroke:#181818;stroke-width:0.5;" width="87" x="427.5" y="1583.4551"/><text fill="#000000" font-family="sans-serif" font-size="14" lengthAdjust="spacing" textLength="73" x="434.5" y="1605.5625">:ToDoListUI</text><rect fill="#E3E3E3" height="32.6211" rx="2.5" ry="2.5" style="stroke:#181818;stroke-width:0.5;" width="137" x="893.5" y="1583.4551"/><text fill="#000000" font-family="sans-serif" font-size="14" lengthAdjust="spacing" textLength="123" x="900.5" y="1605.5625">:ToDoListController</text><rect fill="#E3E3E3" height="32.6211" rx="2.5" ry="2.5" style="stroke:#181818;stroke-width:0.5;" width="97" x="1246.5" y="89.6211"/><text fill="#000000" font-family="sans-serif" font-size="14" lengthAdjust="spacing" textLength="83" x="1253.5" y="111.7285">:Repositories</text><rect fill="#E3E3E3" height="32.6211" rx="2.5" ry="2.5" style="stroke:#181818;stroke-width:0.5;" width="97" x="1246.5" y="1583.4551"/><text fill="#000000" font-family="sans-serif" font-size="14" lengthAdjust="spacing" textLength="83" x="1253.5" y="1605.5625">:Repositories</text><rect fill="#E3E3E3" height="51.2422" rx="2.5" ry="2.5" style="stroke:#181818;stroke-width:0.5;" width="97" x="1353.5" y="71"/><text fill="#000000" font-family="sans-serif" font-size="14" lengthAdjust="spacing" textLength="74" x="1365" y="93.1074">repositories</text><text fill="#000000" font-family="sans-serif" font-size="14" lengthAdjust="spacing" textLength="83" x="1360.5" y="111.7285">:Repositories</text><rect fill="#E3E3E3" height="51.2422" rx="2.5" ry="2.5" style="stroke:#181818;stroke-width:0.5;" width="97" x="1353.5" y="1583.4551"/><text fill="#000000" font-family="sans-serif" font-size="14" lengthAdjust="spacing" textLength="74" x="1365" y="1605.5625">repositories</text><text fill="#000000" font-family="sans-serif" font-size="14" lengthAdjust="spacing" textLength="83" x="1360.5" y="1624.1836">:Repositories</text><rect fill="#E3E3E3" height="51.2422" rx="2.5" ry="2.5" style="stroke:#181818;stroke-width:0.5;" width="166" x="1460.5" y="71"/><text fill="#000000" font-family="sans-serif" font-size="14" lengthAdjust="spacing" textLength="145" x="1471" y="93.1074">greenSpaceRepository</text><text fill="#000000" font-family="sans-serif" font-size="14" lengthAdjust="spacing" textLength="152" x="1467.5" y="111.7285">:GreenSpaceRepository</text><rect fill="#E3E3E3" height="51.2422" rx="2.5" ry="2.5" style="stroke:#181818;stroke-width:0.5;" width="166" x="1460.5" y="1583.4551"/><text fill="#000000" font-family="sans-serif" font-size="14" lengthAdjust="spacing" textLength="145" x="1471" y="1605.5625">greenSpaceRepository</text><text fill="#000000" font-family="sans-serif" font-size="14" lengthAdjust="spacing" textLength="152" x="1467.5" y="1624.1836">:GreenSpaceRepository</text><rect fill="#E3E3E3" height="32.6211" rx="2.5" ry="2.5" style="stroke:#181818;stroke-width:0.5;" width="77" x="1636.5" y="89.6211"/><text fill="#000000" font-family="sans-serif" font-size="14" lengthAdjust="spacing" textLength="63" x="1643.5" y="111.7285">toDoEntry</text><rect fill="#E3E3E3" height="32.6211" rx="2.5" ry="2.5" style="stroke:#181818;stroke-width:0.5;" width="77" x="1636.5" y="1583.4551"/><text fill="#000000" font-family="sans-serif" font-size="14" lengthAdjust="spacing" textLength="63" x="1643.5" y="1605.5625">toDoEntry</text><rect fill="#E3E3E3" height="51.2422" rx="2.5" ry="2.5" style="stroke:#181818;stroke-width:0.5;" width="138" x="1723.5" y="71"/><text fill="#000000" font-family="sans-serif" font-size="14" lengthAdjust="spacing" textLength="120" x="1732.5" y="93.1074">toDoListRepository</text><text fill="#000000" font-family="sans-serif" font-size="14" lengthAdjust="spacing" textLength="124" x="1730.5" y="111.7285">:toDoListRepository</text><rect fill="#E3E3E3" height="51.2422" rx="2.5" ry="2.5" style="stroke:#181818;stroke-width:0.5;" width="138" x="1723.5" y="1583.4551"/><text fill="#000000" font-family="sans-serif" font-size="14" lengthAdjust="spacing" textLength="120" x="1732.5" y="1605.5625">toDoListRepository</text><text fill="#000000" font-family="sans-serif" font-size="14" lengthAdjust="spacing" textLength="124" x="1730.5" y="1624.1836">:toDoListRepository</text><rect fill="#E3E3E3" height="51.2422" rx="2.5" ry="2.5" style="stroke:#181818;stroke-width:0.5;" width="98" x="1960.5" y="1583.4551"/><text fill="#000000" font-family="sans-serif" font-size="14" lengthAdjust="spacing" textLength="77" x="1971" y="1605.5625">greenSpace</text><text fill="#000000" font-family="sans-serif" font-size="14" lengthAdjust="spacing" textLength="84" x="1967.5" y="1624.1836">:GreenSpace</text><rect fill="#E3E3E3" height="32.6211" rx="2.5" ry="2.5" style="stroke:#181818;stroke-width:0.5;" width="137" x="2068.5" y="89.6211"/><text fill="#000000" font-family="sans-serif" font-size="14" lengthAdjust="spacing" textLength="123" x="2075.5" y="111.7285">:ApplicationSession</text><rect fill="#E3E3E3" height="32.6211" rx="2.5" ry="2.5" style="stroke:#181818;stroke-width:0.5;" width="137" x="2068.5" y="1583.4551"/><text fill="#000000" font-family="sans-serif" font-size="14" lengthAdjust="spacing" textLength="123" x="2075.5" y="1605.5625">:ApplicationSession</text><rect fill="#E3E3E3" height="51.2422" rx="2.5" ry="2.5" style="stroke:#181818;stroke-width:0.5;" width="137" x="2215.5" y="71"/><text fill="#000000" font-family="sans-serif" font-size="14" lengthAdjust="spacing" textLength="74" x="2247" y="93.1074">appSession</text><text fill="#000000" font-family="sans-serif" font-size="14" lengthAdjust="spacing" textLength="123" x="2222.5" y="111.7285">:ApplicationSession</text><rect fill="#E3E3E3" height="51.2422" rx="2.5" ry="2.5" style="stroke:#181818;stroke-width:0.5;" width="137" x="2215.5" y="1583.4551"/><text fill="#000000" font-family="sans-serif" font-size="14" lengthAdjust="spacing" textLength="74" x="2247" y="1605.5625">appSession</text><text fill="#000000" font-family="sans-serif" font-size="14" lengthAdjust="spacing" textLength="123" x="2222.5" y="1624.1836">:ApplicationSession</text><rect fill="#E3E3E3" height="51.2422" rx="2.5" ry="2.5" style="stroke:#181818;stroke-width:0.5;" width="109" x="2362.5" y="71"/><text fill="#000000" font-family="sans-serif" font-size="14" lengthAdjust="spacing" textLength="95" x="2369.5" y="93.1074">currentSession</text><text fill="#000000" font-family="sans-serif" font-size="14" lengthAdjust="spacing" textLength="83" x="2375.5" y="111.7285">:UserSession</text><rect fill="#E3E3E3" height="51.2422" rx="2.5" ry="2.5" style="stroke:#181818;stroke-width:0.5;" width="109" x="2362.5" y="1583.4551"/><text fill="#000000" font-family="sans-serif" font-size="14" lengthAdjust="spacing" textLength="95" x="2369.5" y="1605.5625">currentSession</text><text fill="#000000" font-family="sans-serif" font-size="14" lengthAdjust="spacing" textLength="83" x="2375.5" y="1624.1836">:UserSession</text><rect fill="#FFFFFF" height="1442.2129" style="stroke:#181818;stroke-width:1.0;" width="10" x="75" y="133.2422"/><rect fill="#FFFFFF" height="777.7324" style="stroke:#181818;stroke-width:1.0;" width="10" x="466" y="156.5332"/><rect fill="#FFFFFF" height="48.582" style="stroke:#181818;stroke-width:1.0;" width="10" x="466" y="965.5566"/><rect fill="#FFFFFF" height="521.0254" style="stroke:#181818;stroke-width:1.0;" width="10" x="466" y="1045.4297"/><rect fill="#FFFFFF" height="608.9473" style="stroke:#181818;stroke-width:1.0;" width="10" x="957" y="231.4453"/><rect fill="#FFFFFF" height="230.0371" style="stroke:#181818;stroke-width:1.0;" width="10" x="962" y="270.7363"/><rect fill="#FFFFFF" height="230.0371" style="stroke:#181818;stroke-width:1.0;" width="10" x="962" y="572.0645"/><rect fill="#FFFFFF" height="156.4551" style="stroke:#181818;stroke-width:1.0;" width="10" x="957" y="1076.7207"/><rect fill="#FFFFFF" height="31.291" style="stroke:#181818;stroke-width:1.0;" width="10" x="957" y="1503.873"/><rect fill="#FFFFFF" height="31.291" style="stroke:#181818;stroke-width:1.0;" width="10" x="1290" y="608.3555"/><rect fill="#FFFFFF" height="31.291" style="stroke:#181818;stroke-width:1.0;" width="10" x="1290" y="1108.0117"/><rect fill="#FFFFFF" height="31.291" style="stroke:#181818;stroke-width:1.0;" width="10" x="1397" y="670.9375"/><rect fill="#FFFFFF" height="31.291" style="stroke:#181818;stroke-width:1.0;" width="10" x="1397" y="1170.5938"/><rect fill="#FFFFFF" height="31.291" style="stroke:#181818;stroke-width:1.0;" width="10" x="1538.5" y="733.5195"/><rect fill="#FFFFFF" height="270.6973" style="stroke:#181818;stroke-width:1.0;" width="10" x="1787.5" y="1233.1758"/><rect fill="#FFFFFF" height="130.873" style="stroke:#181818;stroke-width:1.0;" width="10" x="1792.5" y="1334.709"/><rect fill="#FFFFFF" height="42.291" style="stroke:#181818;stroke-width:1.0;" width="10" x="1797.5" y="1379"/><rect fill="#FFFFFF" height="31.291" style="stroke:#181818;stroke-width:1.0;" width="10" x="2132" y="307.0273"/><rect fill="#FFFFFF" height="31.291" style="stroke:#181818;stroke-width:1.0;" width="10" x="2279" y="369.6094"/><rect fill="#FFFFFF" height="31.291" style="stroke:#181818;stroke-width:1.0;" width="10" x="2412" y="432.1914"/><polygon fill="#181818" points="454,152.5332,464,156.5332,454,160.5332,458,156.5332" style="stroke:#181818;stroke-width:1.0;"/><line style="stroke:#181818;stroke-width:1.0;" x1="85" x2="460" y1="156.5332" y2="156.5332"/><text fill="#000000" font-family="sans-serif" font-size="13" font-weight="bold" lengthAdjust="spacing" textLength="7" x="92" y="151.2705">1</text><text fill="#000000" font-family="sans-serif" font-size="13" lengthAdjust="spacing" textLength="138" x="103" y="151.2705">ask to add a to-do entry</text><polygon fill="#181818" points="881.5,183.8242,891.5,187.8242,881.5,191.8242,885.5,187.8242" style="stroke:#181818;stroke-width:1.0;"/><line style="stroke:#181818;stroke-width:1.0;" x1="476" x2="887.5" y1="187.8242" y2="187.8242"/><text fill="#000000" font-family="sans-serif" font-size="13" font-weight="bold" lengthAdjust="spacing" textLength="7" x="483" y="182.5615">2</text><text fill="#000000" font-family="sans-serif" font-size="13" lengthAdjust="spacing" textLength="36" x="494" y="182.5615">create</text><rect fill="#E3E3E3" height="32.6211" rx="2.5" ry="2.5" style="stroke:#181818;stroke-width:0.5;" width="137" x="893.5" y="164.5332"/><text fill="#000000" font-family="sans-serif" font-size="14" lengthAdjust="spacing" textLength="123" x="900.5" y="186.6406">:ToDoListController</text><polygon fill="#181818" points="945,227.4453,955,231.4453,945,235.4453,949,231.4453" style="stroke:#181818;stroke-width:1.0;"/><line style="stroke:#181818;stroke-width:1.0;" x1="476" x2="951" y1="231.4453" y2="231.4453"/><text fill="#000000" font-family="sans-serif" font-size="13" font-weight="bold" lengthAdjust="spacing" textLength="7" x="483" y="226.1826">3</text><text fill="#000000" font-family="sans-serif" font-size="13" lengthAdjust="spacing" textLength="192" x="494" y="226.1826">getGreenSpacesByResponsible()</text><line style="stroke:#181818;stroke-width:1.0;" x1="967" x2="1014" y1="257.7363" y2="257.7363"/><line style="stroke:#181818;stroke-width:1.0;" x1="1014" x2="1014" y1="257.7363" y2="270.7363"/><line style="stroke:#181818;stroke-width:1.0;" x1="973" x2="1014" y1="270.7363" y2="270.7363"/><polygon fill="#181818" points="983,266.7363,973,270.7363,983,274.7363,979,270.7363" style="stroke:#181818;stroke-width:1.0;"/><text fill="#000000" font-family="sans-serif" font-size="13" font-weight="bold" lengthAdjust="spacing" textLength="7" x="979" y="252.4736">4</text><text fill="#000000" font-family="sans-serif" font-size="13" lengthAdjust="spacing" textLength="97" x="990" y="252.4736">getResponsible()</text><polygon fill="#181818" points="2120,303.0273,2130,307.0273,2120,311.0273,2124,307.0273" style="stroke:#181818;stroke-width:1.0;"/><line style="stroke:#181818;stroke-width:1.0;" x1="972" x2="2126" y1="307.0273" y2="307.0273"/><text fill="#000000" font-family="sans-serif" font-size="13" font-weight="bold" lengthAdjust="spacing" textLength="7" x="979" y="301.7646">5</text><text fill="#000000" font-family="sans-serif" font-size="13" lengthAdjust="spacing" textLength="75" x="990" y="301.7646">getInstance()</text><polygon fill="#181818" points="983,334.3184,973,338.3184,983,342.3184,979,338.3184" style="stroke:#181818;stroke-width:1.0;"/><line style="stroke:#181818;stroke-width:1.0;" x1="977" x2="2136" y1="338.3184" y2="338.3184"/><text fill="#000000" font-family="sans-serif" font-size="13" font-weight="bold" lengthAdjust="spacing" textLength="7" x="989" y="333.0557">6</text><text fill="#000000" font-family="sans-serif" font-size="13" lengthAdjust="spacing" textLength="68" x="1000" y="333.0557">appSession</text><polygon fill="#181818" points="2267,365.6094,2277,369.6094,2267,373.6094,2271,369.6094" style="stroke:#181818;stroke-width:1.0;"/><line style="stroke:#181818;stroke-width:1.0;" x1="972" x2="2273" y1="369.6094" y2="369.6094"/><text fill="#000000" font-family="sans-serif" font-size="13" font-weight="bold" lengthAdjust="spacing" textLength="7" x="979" y="364.3467">7</text><text fill="#000000" font-family="sans-serif" font-size="13" lengthAdjust="spacing" textLength="115" x="990" y="364.3467">getCurrentSession()</text><polygon fill="#181818" points="983,396.9004,973,400.9004,983,404.9004,979,400.9004" style="stroke:#181818;stroke-width:1.0;"/><line style="stroke:#181818;stroke-width:1.0;stroke-dasharray:2.0,2.0;" x1="977" x2="2283" y1="400.9004" y2="400.9004"/><text fill="#000000" font-family="sans-serif" font-size="13" font-weight="bold" lengthAdjust="spacing" textLength="7" x="989" y="395.6377">8</text><text fill="#000000" font-family="sans-serif" font-size="13" lengthAdjust="spacing" textLength="87" x="1000" y="395.6377">currentSession</text><polygon fill="#181818" points="2400,428.1914,2410,432.1914,2400,436.1914,2404,432.1914" style="stroke:#181818;stroke-width:1.0;"/><line style="stroke:#181818;stroke-width:1.0;" x1="972" x2="2406" y1="432.1914" y2="432.1914"/><text fill="#000000" font-family="sans-serif" font-size="13" font-weight="bold" lengthAdjust="spacing" textLength="7" x="979" y="426.9287">9</text><text fill="#000000" font-family="sans-serif" font-size="13" lengthAdjust="spacing" textLength="86" x="990" y="426.9287">getUserEmail()</text><polygon fill="#181818" points="983,459.4824,973,463.4824,983,467.4824,979,463.4824" style="stroke:#181818;stroke-width:1.0;"/><line style="stroke:#181818;stroke-width:1.0;stroke-dasharray:2.0,2.0;" x1="977" x2="2416" y1="463.4824" y2="463.4824"/><text fill="#000000" font-family="sans-serif" font-size="13" font-weight="bold" lengthAdjust="spacing" textLength="14" x="989" y="458.2197">10</text><text fill="#000000" font-family="sans-serif" font-size="13" lengthAdjust="spacing" textLength="99" x="1007" y="458.2197">responsibleEmail</text><line style="stroke:#181818;stroke-width:1.0;stroke-dasharray:2.0,2.0;" x1="972" x2="1014" y1="499.7734" y2="499.7734"/><line style="stroke:#181818;stroke-width:1.0;stroke-dasharray:2.0,2.0;" x1="1014" x2="1014" y1="499.7734" y2="512.7734"/><line style="stroke:#181818;stroke-width:1.0;stroke-dasharray:2.0,2.0;" x1="967" x2="1014" y1="512.7734" y2="512.7734"/><polygon fill="#181818" points="977,508.7734,967,512.7734,977,516.7734,973,512.7734" style="stroke:#181818;stroke-width:1.0;"/><text fill="#000000" font-family="sans-serif" font-size="13" font-weight="bold" lengthAdjust="spacing" textLength="14" x="979" y="494.5107">11</text><text fill="#000000" font-family="sans-serif" font-size="13" lengthAdjust="spacing" textLength="4" x="997" y="494.5107">&#160;</text><line style="stroke:#181818;stroke-width:1.0;" x1="967" x2="1014" y1="559.0645" y2="559.0645"/><line style="stroke:#181818;stroke-width:1.0;" x1="1014" x2="1014" y1="559.0645" y2="572.0645"/><line style="stroke:#181818;stroke-width:1.0;" x1="973" x2="1014" y1="572.0645" y2="572.0645"/><polygon fill="#181818" points="983,568.0645,973,572.0645,983,576.0645,979,572.0645" style="stroke:#181818;stroke-width:1.0;"/><text fill="#000000" font-family="sans-serif" font-size="13" font-weight="bold" lengthAdjust="spacing" textLength="14" x="979" y="553.8018">12</text><text fill="#000000" font-family="sans-serif" font-size="13" lengthAdjust="spacing" textLength="291" x="997" y="553.8018">getGreenSpacesByResponsible(responsibleEmail)</text><polygon fill="#181818" points="1278,604.3555,1288,608.3555,1278,612.3555,1282,608.3555" style="stroke:#181818;stroke-width:1.0;"/><line style="stroke:#181818;stroke-width:1.0;" x1="972" x2="1284" y1="608.3555" y2="608.3555"/><text fill="#000000" font-family="sans-serif" font-size="13" font-weight="bold" lengthAdjust="spacing" textLength="14" x="979" y="603.0928">13</text><text fill="#000000" font-family="sans-serif" font-size="13" lengthAdjust="spacing" textLength="75" x="997" y="603.0928">getInstance()</text><polygon fill="#181818" points="983,635.6465,973,639.6465,983,643.6465,979,639.6465" style="stroke:#181818;stroke-width:1.0;"/><line style="stroke:#181818;stroke-width:1.0;stroke-dasharray:2.0,2.0;" x1="977" x2="1294" y1="639.6465" y2="639.6465"/><text fill="#000000" font-family="sans-serif" font-size="13" font-weight="bold" lengthAdjust="spacing" textLength="14" x="989" y="634.3838">14</text><text fill="#000000" font-family="sans-serif" font-size="13" lengthAdjust="spacing" textLength="67" x="1007" y="634.3838">repositories</text><polygon fill="#181818" points="1385,666.9375,1395,670.9375,1385,674.9375,1389,670.9375" style="stroke:#181818;stroke-width:1.0;"/><line style="stroke:#181818;stroke-width:1.0;" x1="972" x2="1391" y1="670.9375" y2="670.9375"/><text fill="#000000" font-family="sans-serif" font-size="13" font-weight="bold" lengthAdjust="spacing" textLength="14" x="979" y="665.6748">15</text><text fill="#000000" font-family="sans-serif" font-size="13" lengthAdjust="spacing" textLength="160" x="997" y="665.6748">getGreenSpaceRepository()</text><polygon fill="#181818" points="983,698.2285,973,702.2285,983,706.2285,979,702.2285" style="stroke:#181818;stroke-width:1.0;"/><line style="stroke:#181818;stroke-width:1.0;stroke-dasharray:2.0,2.0;" x1="977" x2="1401" y1="702.2285" y2="702.2285"/><text fill="#000000" font-family="sans-serif" font-size="13" font-weight="bold" lengthAdjust="spacing" textLength="14" x="989" y="696.9658">16</text><text fill="#000000" font-family="sans-serif" font-size="13" lengthAdjust="spacing" textLength="134" x="1007" y="696.9658">GreenSpaceRepository</text><polygon fill="#181818" points="1526.5,729.5195,1536.5,733.5195,1526.5,737.5195,1530.5,733.5195" style="stroke:#181818;stroke-width:1.0;"/><line style="stroke:#181818;stroke-width:1.0;" x1="972" x2="1532.5" y1="733.5195" y2="733.5195"/><text fill="#000000" font-family="sans-serif" font-size="13" font-weight="bold" lengthAdjust="spacing" textLength="14" x="979" y="728.2568">17</text><text fill="#000000" font-family="sans-serif" font-size="13" lengthAdjust="spacing" textLength="291" x="997" y="728.2568">getGreenSpacesByResponsible(responsibleEmail)</text><polygon fill="#181818" points="983,760.8105,973,764.8105,983,768.8105,979,764.8105" style="stroke:#181818;stroke-width:1.0;"/><line style="stroke:#181818;stroke-width:1.0;" x1="977" x2="1542.5" y1="764.8105" y2="764.8105"/><text fill="#000000" font-family="sans-serif" font-size="13" font-weight="bold" lengthAdjust="spacing" textLength="14" x="989" y="759.5479">18</text><text fill="#000000" font-family="sans-serif" font-size="13" lengthAdjust="spacing" textLength="76" x="1007" y="759.5479">greenSpaces</text><line style="stroke:#181818;stroke-width:1.0;stroke-dasharray:2.0,2.0;" x1="972" x2="1014" y1="801.1016" y2="801.1016"/><line style="stroke:#181818;stroke-width:1.0;stroke-dasharray:2.0,2.0;" x1="1014" x2="1014" y1="801.1016" y2="814.1016"/><line style="stroke:#181818;stroke-width:1.0;stroke-dasharray:2.0,2.0;" x1="967" x2="1014" y1="814.1016" y2="814.1016"/><polygon fill="#181818" points="977,810.1016,967,814.1016,977,818.1016,973,814.1016" style="stroke:#181818;stroke-width:1.0;"/><text fill="#000000" font-family="sans-serif" font-size="13" font-weight="bold" lengthAdjust="spacing" textLength="14" x="979" y="795.8389">19</text><text fill="#000000" font-family="sans-serif" font-size="13" lengthAdjust="spacing" textLength="4" x="997" y="795.8389">&#160;</text><polygon fill="#181818" points="487,836.3926,477,840.3926,487,844.3926,483,840.3926" style="stroke:#181818;stroke-width:1.0;"/><line style="stroke:#181818;stroke-width:1.0;" x1="481" x2="961" y1="840.3926" y2="840.3926"/><text fill="#000000" font-family="sans-serif" font-size="13" font-weight="bold" lengthAdjust="spacing" textLength="14" x="493" y="835.1299">20</text><text fill="#000000" font-family="sans-serif" font-size="13" lengthAdjust="spacing" textLength="76" x="511" y="835.1299">greenSpaces</text><polygon fill="#181818" points="96,867.6836,86,871.6836,96,875.6836,92,871.6836" style="stroke:#181818;stroke-width:1.0;"/><line style="stroke:#181818;stroke-width:1.0;" x1="90" x2="465" y1="871.6836" y2="871.6836"/><text fill="#000000" font-family="sans-serif" font-size="13" font-weight="bold" lengthAdjust="spacing" textLength="14" x="102" y="866.4209">21</text><text fill="#000000" font-family="sans-serif" font-size="13" lengthAdjust="spacing" textLength="154" x="120" y="866.4209">shows list of green spaces</text><polygon fill="#181818" points="454,898.9746,464,902.9746,454,906.9746,458,902.9746" style="stroke:#181818;stroke-width:1.0;"/><line style="stroke:#181818;stroke-width:1.0;" x1="85" x2="460" y1="902.9746" y2="902.9746"/><text fill="#000000" font-family="sans-serif" font-size="13" font-weight="bold" lengthAdjust="spacing" textLength="14" x="92" y="897.7119">22</text><text fill="#000000" font-family="sans-serif" font-size="13" lengthAdjust="spacing" textLength="200" x="110" y="897.7119">selects a green space from the list</text><polygon fill="#181818" points="96,930.2656,86,934.2656,96,938.2656,92,934.2656" style="stroke:#181818;stroke-width:1.0;"/><line style="stroke:#181818;stroke-width:1.0;stroke-dasharray:2.0,2.0;" x1="90" x2="470" y1="934.2656" y2="934.2656"/><text fill="#000000" font-family="sans-serif" font-size="13" font-weight="bold" lengthAdjust="spacing" textLength="14" x="102" y="929.0029">23</text><text fill="#000000" font-family="sans-serif" font-size="13" lengthAdjust="spacing" textLength="339" x="120" y="929.0029">request data (title, description, urgency, expectedDuration)</text><polygon fill="#181818" points="454,961.5566,464,965.5566,454,969.5566,458,965.5566" style="stroke:#181818;stroke-width:1.0;"/><line style="stroke:#181818;stroke-width:1.0;" x1="85" x2="460" y1="965.5566" y2="965.5566"/><text fill="#000000" font-family="sans-serif" font-size="13" font-weight="bold" lengthAdjust="spacing" textLength="14" x="92" y="960.2939">24</text><text fill="#000000" font-family="sans-serif" font-size="13" lengthAdjust="spacing" textLength="122" x="110" y="960.2939">types requested data</text><polygon fill="#181818" points="96,1010.1387,86,1014.1387,96,1018.1387,92,1014.1387" style="stroke:#181818;stroke-width:1.0;"/><line style="stroke:#181818;stroke-width:1.0;stroke-dasharray:2.0,2.0;" x1="90" x2="470" y1="1014.1387" y2="1014.1387"/><text fill="#000000" font-family="sans-serif" font-size="13" font-weight="bold" lengthAdjust="spacing" textLength="14" x="102" y="1000.2305">25</text><text fill="#000000" font-family="sans-serif" font-size="13" lengthAdjust="spacing" textLength="137" x="120" y="991.585">show all data registered</text><text fill="#000000" font-family="sans-serif" font-size="13" lengthAdjust="spacing" textLength="153" x="124" y="1008.876">and the confirmation menu</text><polygon fill="#181818" points="454,1041.4297,464,1045.4297,454,1049.4297,458,1045.4297" style="stroke:#181818;stroke-width:1.0;"/><line style="stroke:#181818;stroke-width:1.0;" x1="85" x2="460" y1="1045.4297" y2="1045.4297"/><text fill="#000000" font-family="sans-serif" font-size="13" font-weight="bold" lengthAdjust="spacing" textLength="14" x="92" y="1040.167">26</text><text fill="#000000" font-family="sans-serif" font-size="13" lengthAdjust="spacing" textLength="75" x="110" y="1040.167">submits data</text><polygon fill="#181818" points="945,1072.7207,955,1076.7207,945,1080.7207,949,1076.7207" style="stroke:#181818;stroke-width:1.0;"/><line style="stroke:#181818;stroke-width:1.0;" x1="476" x2="951" y1="1076.7207" y2="1076.7207"/><text fill="#000000" font-family="sans-serif" font-size="13" font-weight="bold" lengthAdjust="spacing" textLength="14" x="483" y="1071.458">27</text><text fill="#000000" font-family="sans-serif" font-size="13" lengthAdjust="spacing" textLength="444" x="501" y="1071.458">registerToDoEntry(greenSpace ,title, description, urgency, expectedDuration)</text><polygon fill="#181818" points="1278,1104.0117,1288,1108.0117,1278,1112.0117,1282,1108.0117" style="stroke:#181818;stroke-width:1.0;"/><line style="stroke:#181818;stroke-width:1.0;" x1="967" x2="1284" y1="1108.0117" y2="1108.0117"/><text fill="#000000" font-family="sans-serif" font-size="13" font-weight="bold" lengthAdjust="spacing" textLength="14" x="974" y="1102.749">28</text><text fill="#000000" font-family="sans-serif" font-size="13" lengthAdjust="spacing" textLength="75" x="992" y="1102.749">getInstance()</text><polygon fill="#181818" points="978,1135.3027,968,1139.3027,978,1143.3027,974,1139.3027" style="stroke:#181818;stroke-width:1.0;"/><line style="stroke:#181818;stroke-width:1.0;stroke-dasharray:2.0,2.0;" x1="972" x2="1294" y1="1139.3027" y2="1139.3027"/><text fill="#000000" font-family="sans-serif" font-size="13" font-weight="bold" lengthAdjust="spacing" textLength="14" x="984" y="1134.04">29</text><text fill="#000000" font-family="sans-serif" font-size="13" lengthAdjust="spacing" textLength="67" x="1002" y="1134.04">repositories</text><polygon fill="#181818" points="1385,1166.5938,1395,1170.5938,1385,1174.5938,1389,1170.5938" style="stroke:#181818;stroke-width:1.0;"/><line style="stroke:#181818;stroke-width:1.0;" x1="967" x2="1391" y1="1170.5938" y2="1170.5938"/><text fill="#000000" font-family="sans-serif" font-size="13" font-weight="bold" lengthAdjust="spacing" textLength="14" x="974" y="1165.3311">30</text><text fill="#000000" font-family="sans-serif" font-size="13" lengthAdjust="spacing" textLength="139" x="992" y="1165.3311">getToDoListRepository()</text><polygon fill="#181818" points="978,1197.8848,968,1201.8848,978,1205.8848,974,1201.8848" style="stroke:#181818;stroke-width:1.0;"/><line style="stroke:#181818;stroke-width:1.0;stroke-dasharray:2.0,2.0;" x1="972" x2="1401" y1="1201.8848" y2="1201.8848"/><text fill="#000000" font-family="sans-serif" font-size="13" font-weight="bold" lengthAdjust="spacing" textLength="14" x="984" y="1196.6221">31</text><text fill="#000000" font-family="sans-serif" font-size="13" lengthAdjust="spacing" textLength="110" x="1002" y="1196.6221">toDoListRepository</text><polygon fill="#181818" points="1775.5,1229.1758,1785.5,1233.1758,1775.5,1237.1758,1779.5,1233.1758" style="stroke:#181818;stroke-width:1.0;"/><line style="stroke:#181818;stroke-width:1.0;" x1="962" x2="1781.5" y1="1233.1758" y2="1233.1758"/><text fill="#000000" font-family="sans-serif" font-size="13" font-weight="bold" lengthAdjust="spacing" textLength="14" x="969" y="1227.9131">32</text><text fill="#000000" font-family="sans-serif" font-size="13" lengthAdjust="spacing" textLength="444" x="987" y="1227.9131">registerToDoEntry(greenSpace ,title, description, urgency, expectedDuration)</text><polygon fill="#181818" points="1948.5,1260.4668,1958.5,1264.4668,1948.5,1268.4668,1952.5,1264.4668" style="stroke:#181818;stroke-width:1.0;"/><line style="stroke:#181818;stroke-width:1.0;" x1="1797.5" x2="1954.5" y1="1264.4668" y2="1264.4668"/><text fill="#000000" font-family="sans-serif" font-size="13" font-weight="bold" lengthAdjust="spacing" textLength="14" x="1804.5" y="1259.2041">33</text><text fill="#000000" font-family="sans-serif" font-size="13" lengthAdjust="spacing" textLength="36" x="1822.5" y="1259.2041">create</text><rect fill="#E3E3E3" height="51.2422" rx="2.5" ry="2.5" style="stroke:#181818;stroke-width:0.5;" width="98" x="1960.5" y="1241.1758"/><text fill="#000000" font-family="sans-serif" font-size="14" lengthAdjust="spacing" textLength="77" x="1971" y="1263.2832">greenSpace</text><text fill="#000000" font-family="sans-serif" font-size="14" lengthAdjust="spacing" textLength="84" x="1967.5" y="1281.9043">:GreenSpace</text><line style="stroke:#181818;stroke-width:1.0;" x1="1797.5" x2="1844.5" y1="1321.709" y2="1321.709"/><line style="stroke:#181818;stroke-width:1.0;" x1="1844.5" x2="1844.5" y1="1321.709" y2="1334.709"/><line style="stroke:#181818;stroke-width:1.0;" x1="1803.5" x2="1844.5" y1="1334.709" y2="1334.709"/><polygon fill="#181818" points="1813.5,1330.709,1803.5,1334.709,1813.5,1338.709,1809.5,1334.709" style="stroke:#181818;stroke-width:1.0;"/><text fill="#000000" font-family="sans-serif" font-size="13" font-weight="bold" lengthAdjust="spacing" textLength="14" x="1809.5" y="1316.4463">34</text><text fill="#000000" font-family="sans-serif" font-size="13" lengthAdjust="spacing" textLength="148" x="1827.5" y="1316.4463">addToDoEntry(toDoEntry)</text><line style="stroke:#181818;stroke-width:1.0;" x1="1802.5" x2="1849.5" y1="1366" y2="1366"/><line style="stroke:#181818;stroke-width:1.0;" x1="1849.5" x2="1849.5" y1="1366" y2="1379"/><line style="stroke:#181818;stroke-width:1.0;" x1="1808.5" x2="1849.5" y1="1379" y2="1379"/><polygon fill="#181818" points="1818.5,1375,1808.5,1379,1818.5,1383,1814.5,1379" style="stroke:#181818;stroke-width:1.0;"/><text fill="#000000" font-family="sans-serif" font-size="13" font-weight="bold" lengthAdjust="spacing" textLength="14" x="1814.5" y="1360.7373">35</text><text fill="#000000" font-family="sans-serif" font-size="13" lengthAdjust="spacing" textLength="170" x="1832.5" y="1360.7373">validateToDoEntry(toDoEntry)</text><line style="stroke:#181818;stroke-width:1.0;stroke-dasharray:2.0,2.0;" x1="1807.5" x2="1849.5" y1="1420.291" y2="1420.291"/><line style="stroke:#181818;stroke-width:1.0;stroke-dasharray:2.0,2.0;" x1="1849.5" x2="1849.5" y1="1420.291" y2="1433.291"/><line style="stroke:#181818;stroke-width:1.0;stroke-dasharray:2.0,2.0;" x1="1802.5" x2="1849.5" y1="1433.291" y2="1433.291"/><polygon fill="#181818" points="1812.5,1429.291,1802.5,1433.291,1812.5,1437.291,1808.5,1433.291" style="stroke:#181818;stroke-width:1.0;"/><text fill="#000000" font-family="sans-serif" font-size="13" font-weight="bold" lengthAdjust="spacing" textLength="14" x="1814.5" y="1415.0283">36</text><text fill="#000000" font-family="sans-serif" font-size="13" lengthAdjust="spacing" textLength="4" x="1832.5" y="1415.0283">&#160;</text><line style="stroke:#181818;stroke-width:1.0;stroke-dasharray:2.0,2.0;" x1="1802.5" x2="1844.5" y1="1464.582" y2="1464.582"/><line style="stroke:#181818;stroke-width:1.0;stroke-dasharray:2.0,2.0;" x1="1844.5" x2="1844.5" y1="1464.582" y2="1477.582"/><line style="stroke:#181818;stroke-width:1.0;stroke-dasharray:2.0,2.0;" x1="1797.5" x2="1844.5" y1="1477.582" y2="1477.582"/><polygon fill="#181818" points="1807.5,1473.582,1797.5,1477.582,1807.5,1481.582,1803.5,1477.582" style="stroke:#181818;stroke-width:1.0;"/><text fill="#000000" font-family="sans-serif" font-size="13" font-weight="bold" lengthAdjust="spacing" textLength="14" x="1809.5" y="1459.3193">37</text><text fill="#000000" font-family="sans-serif" font-size="13" lengthAdjust="spacing" textLength="4" x="1827.5" y="1459.3193">&#160;</text><polygon fill="#181818" points="978,1499.873,968,1503.873,978,1507.873,974,1503.873" style="stroke:#181818;stroke-width:1.0;"/><line style="stroke:#181818;stroke-width:1.0;stroke-dasharray:2.0,2.0;" x1="972" x2="1791.5" y1="1503.873" y2="1503.873"/><text fill="#000000" font-family="sans-serif" font-size="13" font-weight="bold" lengthAdjust="spacing" textLength="14" x="984" y="1498.6104">38</text><text fill="#000000" font-family="sans-serif" font-size="13" lengthAdjust="spacing" textLength="58" x="1002" y="1498.6104">toDoEntry</text><polygon fill="#181818" points="487,1531.1641,477,1535.1641,487,1539.1641,483,1535.1641" style="stroke:#181818;stroke-width:1.0;"/><line style="stroke:#181818;stroke-width:1.0;stroke-dasharray:2.0,2.0;" x1="481" x2="961" y1="1535.1641" y2="1535.1641"/><text fill="#000000" font-family="sans-serif" font-size="13" font-weight="bold" lengthAdjust="spacing" textLength="14" x="493" y="1529.9014">39</text><text fill="#000000" font-family="sans-serif" font-size="13" lengthAdjust="spacing" textLength="58" x="511" y="1529.9014">toDoEntry</text><polygon fill="#181818" points="96,1562.4551,86,1566.4551,96,1570.4551,92,1566.4551" style="stroke:#181818;stroke-width:1.0;"/><line style="stroke:#181818;stroke-width:1.0;stroke-dasharray:2.0,2.0;" x1="90" x2="470" y1="1566.4551" y2="1566.4551"/><text fill="#000000" font-family="sans-serif" font-size="13" font-weight="bold" lengthAdjust="spacing" textLength="14" x="102" y="1561.1924">40</text><text fill="#000000" font-family="sans-serif" font-size="13" lengthAdjust="spacing" textLength="165" x="120" y="1561.1924">shows operation (in)success</text><!--SRC=[jLVRJkCm47tlLunuQb7v0HvMwaA5Ah60clPXfPLM9fa62yVEsWvi9Jv-9qvpTvfosRm0zfmpPoQJcS4ySvaopH98b5JXarO9WjKPJanraxBmcSKOsBr0q1XQ9cFHD31FB5AlNCQmOyBWP6Av9TFj2WByaw4C4QuvYtFJQH1Sp-025iAYbipo5uHxIH2MMIMpv14r_HvQfU7iHYDA2CWzmWycIO8-0sPWcQH2xH4dvDtoaATCMZYxtAXhTSkDtQwSrNOrS7-bfDLAY0FRrMPzsx5SOweC9mqSZREf3lO1psCdgMs8RY1-oJx1m-rYqqR4UN0kjfgSa3UUOyTmirukxpeNRKPByIqfjC9-URTP_-mRv0beEUmVEdZ_U4X-ItGjjPFIHPeA7jBxLZ90O-Y7C_szU7XeMx8qFHWGyG2g1mephL7Q6hWrg9k8O1a4YtjNMVo5MQnhQ0Bqb7_1nRUyQYy9yamf01P5mEYNYqW1vgbrrXK9bPWx80W1yq8wFoTmg95kkrTq4QEjKsM-xzTeKYKDVnGudRMfNLMw8uTjSPm4wpubJPvnnxAIXZxaiAJeFXMbUqKmyEINfJZAMlNkl808swJ7XPOwhrhlTaojunrIwyHMQjj5CwPuaBZKMvIOavnNtp9XN8ofBSjoI71ntz2iwrVl78ofFZWOrdrW7kCPj7bxUpkUbXDAlnlKIDB6QzpJhk5TDU_hzrw4prFpRTLZO2p39xiiWyn7IZUnDSbOX6uWUKqSRns3Ztmibc7oKhnlchsxIev7w1sONeXNJADqQqLZWNjzVit7TpoVRcWrXRwJinXJrHYyf9LElHeGj060sXNCO3hKlQbfKD1sQ6XaDW2mevqIx1CwjhRBja-TBulaC6AMmTJja7FIR4BDqtm5c4EcOzecztF0lobvmkWwqsuxAAgz4LyvcdiQxJv5Kxh2o3cR-CUwNsMU6M12538rnXGLQen-IM0oSe66IkwuJfmoI51c9wipsMF2AODErSYkuJ9MUD-Kgz-qhW6OVo23tVgOVAQrdjRRFj12JssR_LQvwQsrFhtj_jLfY9xD-6WBB4NqSV_Z1VgdTdNY4UyCFEBABjrRQVsstl1eVwuZg_u_cNr6azVF2nESFXdyMcTURzrFUS3YA_cE4HuQGHNkgNJz6gb6Kj4cXmZRsvU_FHfGAHPL2LCkPoOBQN0OJnVy1m00]--></g></svg>