<?xml version="1.0" encoding="us-ascii" standalone="no"?><svg xmlns="http://www.w3.org/2000/svg" xmlns:xlink="http://www.w3.org/1999/xlink" contentStyleType="text/css" height="909px" preserveAspectRatio="none" style="width:2568px;height:909px;background:#FFFFFF;" version="1.1" viewBox="0 0 2568 909" width="2568px" zoomAndPan="magnify"><defs/><g><!--class ToDoListUI--><g id="elem_ToDoListUI"><rect codeLine="9" fill="#F1F1F1" height="48" id="ToDoListUI" rx="2.5" ry="2.5" style="stroke:#181818;stroke-width:0.5;" width="101" x="676" y="91"/><ellipse cx="691" cy="107" fill="#ADD1B2" rx="11" ry="11" style="stroke:#181818;stroke-width:1.0;"/><path d="M693.7656,102.875 Q693.9219,102.6563 694.1094,102.5469 Q694.2969,102.4375 694.5156,102.4375 Q694.8906,102.4375 695.125,102.7031 Q695.3594,102.9531 695.3594,103.5625 L695.3594,105.0156 Q695.3594,105.625 695.125,105.8906 Q694.8906,106.1563 694.5156,106.1563 Q694.1719,106.1563 693.9688,105.9531 Q693.7656,105.7656 693.6563,105.25 Q693.6094,104.8906 693.4219,104.7031 Q693.0938,104.3281 692.4844,104.1094 Q691.875,103.8906 691.25,103.8906 Q690.4844,103.8906 689.8438,104.2188 Q689.2188,104.5469 688.7188,105.2969 Q688.2344,106.0469 688.2344,107.0781 L688.2344,108.1719 Q688.2344,109.4063 689.125,110.2344 Q690.0156,111.0469 691.6094,111.0469 Q692.5469,111.0469 693.2031,110.7969 Q693.5938,110.6406 694.0156,110.2031 Q694.2813,109.9375 694.4219,109.8594 Q694.5781,109.7813 694.7813,109.7813 Q695.1094,109.7813 695.3594,110.0469 Q695.625,110.2969 695.625,110.6406 Q695.625,110.9844 695.2813,111.3906 Q694.7813,111.9688 693.9844,112.2969 Q692.9063,112.75 691.6094,112.75 Q690.0938,112.75 688.8906,112.125 Q687.9063,111.625 687.2188,110.5625 Q686.5313,109.4844 686.5313,108.2031 L686.5313,107.0469 Q686.5313,105.7188 687.1406,104.5781 Q687.7656,103.4219 688.8594,102.8125 Q689.9531,102.1875 691.1875,102.1875 Q691.9219,102.1875 692.5625,102.3594 Q693.2188,102.5156 693.7656,102.875 Z " fill="#000000"/><text fill="#000000" font-family="sans-serif" font-size="14" lengthAdjust="spacing" textLength="69" x="705" y="112.7969">ToDoListUI</text><line style="stroke:#181818;stroke-width:0.5;" x1="677" x2="776" y1="123" y2="123"/><line style="stroke:#181818;stroke-width:0.5;" x1="677" x2="776" y1="131" y2="131"/></g><!--class ToDoListController--><g id="elem_ToDoListController"><rect codeLine="13" fill="#F1F1F1" height="215.5898" id="ToDoListController" rx="2.5" ry="2.5" style="stroke:#181818;stroke-width:0.5;" width="314" x="812.5" y="7"/><ellipse cx="905.75" cy="23" fill="#ADD1B2" rx="11" ry="11" style="stroke:#181818;stroke-width:1.0;"/><path d="M908.5156,18.875 Q908.6719,18.6563 908.8594,18.5469 Q909.0469,18.4375 909.2656,18.4375 Q909.6406,18.4375 909.875,18.7031 Q910.1094,18.9531 910.1094,19.5625 L910.1094,21.0156 Q910.1094,21.625 909.875,21.8906 Q909.6406,22.1563 909.2656,22.1563 Q908.9219,22.1563 908.7188,21.9531 Q908.5156,21.7656 908.4063,21.25 Q908.3594,20.8906 908.1719,20.7031 Q907.8438,20.3281 907.2344,20.1094 Q906.625,19.8906 906,19.8906 Q905.2344,19.8906 904.5938,20.2188 Q903.9688,20.5469 903.4688,21.2969 Q902.9844,22.0469 902.9844,23.0781 L902.9844,24.1719 Q902.9844,25.4063 903.875,26.2344 Q904.7656,27.0469 906.3594,27.0469 Q907.2969,27.0469 907.9531,26.7969 Q908.3438,26.6406 908.7656,26.2031 Q909.0313,25.9375 909.1719,25.8594 Q909.3281,25.7813 909.5313,25.7813 Q909.8594,25.7813 910.1094,26.0469 Q910.375,26.2969 910.375,26.6406 Q910.375,26.9844 910.0313,27.3906 Q909.5313,27.9688 908.7344,28.2969 Q907.6563,28.75 906.3594,28.75 Q904.8438,28.75 903.6406,28.125 Q902.6563,27.625 901.9688,26.5625 Q901.2813,25.4844 901.2813,24.2031 L901.2813,23.0469 Q901.2813,21.7188 901.8906,20.5781 Q902.5156,19.4219 903.6094,18.8125 Q904.7031,18.1875 905.9375,18.1875 Q906.6719,18.1875 907.3125,18.3594 Q907.9688,18.5156 908.5156,18.875 Z " fill="#000000"/><text fill="#000000" font-family="sans-serif" font-size="14" lengthAdjust="spacing" textLength="119" x="926.25" y="28.7969">ToDoListController</text><line style="stroke:#181818;stroke-width:0.5;" x1="813.5" x2="1125.5" y1="39" y2="39"/><text fill="#000000" font-family="sans-serif" font-size="14" lengthAdjust="spacing" textLength="302" x="818.5" y="58.1074">-GreenSpaceRepository greenSpaceRepository</text><text fill="#000000" font-family="sans-serif" font-size="14" lengthAdjust="spacing" textLength="254" x="818.5" y="76.7285">-ToDoListRepository toDoListRepository</text><line style="stroke:#181818;stroke-width:0.5;" x1="813.5" x2="1125.5" y1="84.2422" y2="84.2422"/><text fill="#000000" font-family="sans-serif" font-size="14" lengthAdjust="spacing" textLength="137" x="818.5" y="103.3496">+ToDoListController()</text><text fill="#000000" font-family="sans-serif" font-size="14" lengthAdjust="spacing" textLength="183" x="818.5" y="121.9707">-getGreenSpaceRepository()</text><text fill="#000000" font-family="sans-serif" font-size="14" lengthAdjust="spacing" textLength="160" x="818.5" y="140.5918">-getToDoListRepository()</text><text fill="#000000" font-family="sans-serif" font-size="14" lengthAdjust="spacing" textLength="134" x="818.5" y="159.2129">+registerToDoEntry()</text><text fill="#000000" font-family="sans-serif" font-size="14" lengthAdjust="spacing" textLength="282" x="818.5" y="177.834">-searchForGreenSpaceID(int greenSpaceID)</text><text fill="#000000" font-family="sans-serif" font-size="14" lengthAdjust="spacing" textLength="219" x="818.5" y="196.4551">+getGreenSpacesByResponsible()</text><text fill="#000000" font-family="sans-serif" font-size="14" lengthAdjust="spacing" textLength="242" x="818.5" y="215.0762">+getGreenSpaceDTOByResponsible()</text></g><!--class Repositories--><g id="elem_Repositories"><rect codeLine="25" fill="#F1F1F1" height="141.1055" id="Repositories" rx="2.5" ry="2.5" style="stroke:#181818;stroke-width:0.5;" width="208" x="1418.5" y="44.5"/><ellipse cx="1478.75" cy="60.5" fill="#ADD1B2" rx="11" ry="11" style="stroke:#181818;stroke-width:1.0;"/><path d="M1481.5156,56.375 Q1481.6719,56.1563 1481.8594,56.0469 Q1482.0469,55.9375 1482.2656,55.9375 Q1482.6406,55.9375 1482.875,56.2031 Q1483.1094,56.4531 1483.1094,57.0625 L1483.1094,58.5156 Q1483.1094,59.125 1482.875,59.3906 Q1482.6406,59.6563 1482.2656,59.6563 Q1481.9219,59.6563 1481.7188,59.4531 Q1481.5156,59.2656 1481.4063,58.75 Q1481.3594,58.3906 1481.1719,58.2031 Q1480.8438,57.8281 1480.2344,57.6094 Q1479.625,57.3906 1479,57.3906 Q1478.2344,57.3906 1477.5938,57.7188 Q1476.9688,58.0469 1476.4688,58.7969 Q1475.9844,59.5469 1475.9844,60.5781 L1475.9844,61.6719 Q1475.9844,62.9063 1476.875,63.7344 Q1477.7656,64.5469 1479.3594,64.5469 Q1480.2969,64.5469 1480.9531,64.2969 Q1481.3438,64.1406 1481.7656,63.7031 Q1482.0313,63.4375 1482.1719,63.3594 Q1482.3281,63.2813 1482.5313,63.2813 Q1482.8594,63.2813 1483.1094,63.5469 Q1483.375,63.7969 1483.375,64.1406 Q1483.375,64.4844 1483.0313,64.8906 Q1482.5313,65.4688 1481.7344,65.7969 Q1480.6563,66.25 1479.3594,66.25 Q1477.8438,66.25 1476.6406,65.625 Q1475.6563,65.125 1474.9688,64.0625 Q1474.2813,62.9844 1474.2813,61.7031 L1474.2813,60.5469 Q1474.2813,59.2188 1474.8906,58.0781 Q1475.5156,56.9219 1476.6094,56.3125 Q1477.7031,55.6875 1478.9375,55.6875 Q1479.6719,55.6875 1480.3125,55.8594 Q1480.9688,56.0156 1481.5156,56.375 Z " fill="#000000"/><text fill="#000000" font-family="sans-serif" font-size="14" lengthAdjust="spacing" textLength="79" x="1499.25" y="66.2969">Repositories</text><line style="stroke:#181818;stroke-width:0.5;" x1="1419.5" x2="1625.5" y1="76.5" y2="76.5"/><line style="stroke:#181818;stroke-width:0.5;" x1="1419.5" x2="1625.5" y1="84.5" y2="84.5"/><text fill="#000000" font-family="sans-serif" font-size="14" lengthAdjust="spacing" textLength="94" x="1424.5" y="103.6074">-Repositories()</text><text fill="#000000" font-family="sans-serif" font-size="14" lengthAdjust="spacing" textLength="182" x="1424.5" y="122.2285">+getInstance() : Repositories</text><text fill="#000000" font-family="sans-serif" font-size="14" lengthAdjust="spacing" textLength="186" x="1424.5" y="140.8496">+getGreenSpaceRepository()</text><text fill="#000000" font-family="sans-serif" font-size="14" lengthAdjust="spacing" textLength="163" x="1424.5" y="159.4707">+getToDoListRepository()</text><text fill="#000000" font-family="sans-serif" font-size="14" lengthAdjust="spacing" textLength="196" x="1424.5" y="178.0918">+getAuthenticationRepository()</text></g><!--class AuthenticationRepository--><g id="elem_AuthenticationRepository"><rect codeLine="33" fill="#F1F1F1" height="66.6211" id="AuthenticationRepository" rx="2.5" ry="2.5" style="stroke:#181818;stroke-width:0.5;" width="190" x="1427.5" y="339"/><ellipse cx="1442.5" cy="355" fill="#ADD1B2" rx="11" ry="11" style="stroke:#181818;stroke-width:1.0;"/><path d="M1445.2656,350.875 Q1445.4219,350.6563 1445.6094,350.5469 Q1445.7969,350.4375 1446.0156,350.4375 Q1446.3906,350.4375 1446.625,350.7031 Q1446.8594,350.9531 1446.8594,351.5625 L1446.8594,353.0156 Q1446.8594,353.625 1446.625,353.8906 Q1446.3906,354.1563 1446.0156,354.1563 Q1445.6719,354.1563 1445.4688,353.9531 Q1445.2656,353.7656 1445.1563,353.25 Q1445.1094,352.8906 1444.9219,352.7031 Q1444.5938,352.3281 1443.9844,352.1094 Q1443.375,351.8906 1442.75,351.8906 Q1441.9844,351.8906 1441.3438,352.2188 Q1440.7188,352.5469 1440.2188,353.2969 Q1439.7344,354.0469 1439.7344,355.0781 L1439.7344,356.1719 Q1439.7344,357.4063 1440.625,358.2344 Q1441.5156,359.0469 1443.1094,359.0469 Q1444.0469,359.0469 1444.7031,358.7969 Q1445.0938,358.6406 1445.5156,358.2031 Q1445.7813,357.9375 1445.9219,357.8594 Q1446.0781,357.7813 1446.2813,357.7813 Q1446.6094,357.7813 1446.8594,358.0469 Q1447.125,358.2969 1447.125,358.6406 Q1447.125,358.9844 1446.7813,359.3906 Q1446.2813,359.9688 1445.4844,360.2969 Q1444.4063,360.75 1443.1094,360.75 Q1441.5938,360.75 1440.3906,360.125 Q1439.4063,359.625 1438.7188,358.5625 Q1438.0313,357.4844 1438.0313,356.2031 L1438.0313,355.0469 Q1438.0313,353.7188 1438.6406,352.5781 Q1439.2656,351.4219 1440.3594,350.8125 Q1441.4531,350.1875 1442.6875,350.1875 Q1443.4219,350.1875 1444.0625,350.3594 Q1444.7188,350.5156 1445.2656,350.875 Z " fill="#000000"/><text fill="#000000" font-family="sans-serif" font-size="14" lengthAdjust="spacing" textLength="158" x="1456.5" y="360.7969">AuthenticationRepository</text><line style="stroke:#181818;stroke-width:0.5;" x1="1428.5" x2="1616.5" y1="371" y2="371"/><line style="stroke:#181818;stroke-width:0.5;" x1="1428.5" x2="1616.5" y1="379" y2="379"/><text fill="#000000" font-family="sans-serif" font-size="14" lengthAdjust="spacing" textLength="165" x="1433.5" y="398.1074">+getCurrentUserSession()</text></g><!--class UserSession--><g id="elem_UserSession"><rect codeLine="37" fill="#F1F1F1" height="66.6211" id="UserSession" rx="2.5" ry="2.5" style="stroke:#181818;stroke-width:0.5;" width="111" x="1703" y="339"/><ellipse cx="1718" cy="355" fill="#ADD1B2" rx="11" ry="11" style="stroke:#181818;stroke-width:1.0;"/><path d="M1720.7656,350.875 Q1720.9219,350.6563 1721.1094,350.5469 Q1721.2969,350.4375 1721.5156,350.4375 Q1721.8906,350.4375 1722.125,350.7031 Q1722.3594,350.9531 1722.3594,351.5625 L1722.3594,353.0156 Q1722.3594,353.625 1722.125,353.8906 Q1721.8906,354.1563 1721.5156,354.1563 Q1721.1719,354.1563 1720.9688,353.9531 Q1720.7656,353.7656 1720.6563,353.25 Q1720.6094,352.8906 1720.4219,352.7031 Q1720.0938,352.3281 1719.4844,352.1094 Q1718.875,351.8906 1718.25,351.8906 Q1717.4844,351.8906 1716.8438,352.2188 Q1716.2188,352.5469 1715.7188,353.2969 Q1715.2344,354.0469 1715.2344,355.0781 L1715.2344,356.1719 Q1715.2344,357.4063 1716.125,358.2344 Q1717.0156,359.0469 1718.6094,359.0469 Q1719.5469,359.0469 1720.2031,358.7969 Q1720.5938,358.6406 1721.0156,358.2031 Q1721.2813,357.9375 1721.4219,357.8594 Q1721.5781,357.7813 1721.7813,357.7813 Q1722.1094,357.7813 1722.3594,358.0469 Q1722.625,358.2969 1722.625,358.6406 Q1722.625,358.9844 1722.2813,359.3906 Q1721.7813,359.9688 1720.9844,360.2969 Q1719.9063,360.75 1718.6094,360.75 Q1717.0938,360.75 1715.8906,360.125 Q1714.9063,359.625 1714.2188,358.5625 Q1713.5313,357.4844 1713.5313,356.2031 L1713.5313,355.0469 Q1713.5313,353.7188 1714.1406,352.5781 Q1714.7656,351.4219 1715.8594,350.8125 Q1716.9531,350.1875 1718.1875,350.1875 Q1718.9219,350.1875 1719.5625,350.3594 Q1720.2188,350.5156 1720.7656,350.875 Z " fill="#000000"/><text fill="#000000" font-family="sans-serif" font-size="14" lengthAdjust="spacing" textLength="79" x="1732" y="360.7969">UserSession</text><line style="stroke:#181818;stroke-width:0.5;" x1="1704" x2="1813" y1="371" y2="371"/><line style="stroke:#181818;stroke-width:0.5;" x1="1704" x2="1813" y1="379" y2="379"/><text fill="#000000" font-family="sans-serif" font-size="14" lengthAdjust="spacing" textLength="78" x="1709" y="398.1074">+getUserId()</text></g><!--class ToDoListRepository--><g id="elem_ToDoListRepository"><rect codeLine="42" fill="#F1F1F1" height="122.4844" id="ToDoListRepository" rx="2.5" ry="2.5" style="stroke:#181818;stroke-width:0.5;" width="712" x="1849.5" y="311.5"/><ellipse cx="2138.75" cy="327.5" fill="#ADD1B2" rx="11" ry="11" style="stroke:#181818;stroke-width:1.0;"/><path d="M2141.5156,323.375 Q2141.6719,323.1563 2141.8594,323.0469 Q2142.0469,322.9375 2142.2656,322.9375 Q2142.6406,322.9375 2142.875,323.2031 Q2143.1094,323.4531 2143.1094,324.0625 L2143.1094,325.5156 Q2143.1094,326.125 2142.875,326.3906 Q2142.6406,326.6563 2142.2656,326.6563 Q2141.9219,326.6563 2141.7188,326.4531 Q2141.5156,326.2656 2141.4063,325.75 Q2141.3594,325.3906 2141.1719,325.2031 Q2140.8438,324.8281 2140.2344,324.6094 Q2139.625,324.3906 2139,324.3906 Q2138.2344,324.3906 2137.5938,324.7188 Q2136.9688,325.0469 2136.4688,325.7969 Q2135.9844,326.5469 2135.9844,327.5781 L2135.9844,328.6719 Q2135.9844,329.9063 2136.875,330.7344 Q2137.7656,331.5469 2139.3594,331.5469 Q2140.2969,331.5469 2140.9531,331.2969 Q2141.3438,331.1406 2141.7656,330.7031 Q2142.0313,330.4375 2142.1719,330.3594 Q2142.3281,330.2813 2142.5313,330.2813 Q2142.8594,330.2813 2143.1094,330.5469 Q2143.375,330.7969 2143.375,331.1406 Q2143.375,331.4844 2143.0313,331.8906 Q2142.5313,332.4688 2141.7344,332.7969 Q2140.6563,333.25 2139.3594,333.25 Q2137.8438,333.25 2136.6406,332.625 Q2135.6563,332.125 2134.9688,331.0625 Q2134.2813,329.9844 2134.2813,328.7031 L2134.2813,327.5469 Q2134.2813,326.2188 2134.8906,325.0781 Q2135.5156,323.9219 2136.6094,323.3125 Q2137.7031,322.6875 2138.9375,322.6875 Q2139.6719,322.6875 2140.3125,322.8594 Q2140.9688,323.0156 2141.5156,323.375 Z " fill="#000000"/><text fill="#000000" font-family="sans-serif" font-size="14" lengthAdjust="spacing" textLength="125" x="2159.25" y="333.2969">ToDoListRepository</text><line style="stroke:#181818;stroke-width:0.5;" x1="1850.5" x2="2560.5" y1="343.5" y2="343.5"/><text fill="#000000" font-family="sans-serif" font-size="14" lengthAdjust="spacing" textLength="167" x="1855.5" y="362.6074">-List&lt;ToDoEntry&gt; toDoList</text><line style="stroke:#181818;stroke-width:0.5;" x1="1850.5" x2="2560.5" y1="370.1211" y2="370.1211"/><text fill="#000000" font-family="sans-serif" font-size="14" lengthAdjust="spacing" textLength="700" x="1855.5" y="389.2285">+registerToDoEntry(GreenSpace greenSpace, String title, String description, int urgency, int expectedDuration)</text><text fill="#000000" font-family="sans-serif" font-size="14" lengthAdjust="spacing" textLength="242" x="1855.5" y="407.8496">-addToDoEntry(ToDoEntry toDoEntry)</text><text fill="#000000" font-family="sans-serif" font-size="14" lengthAdjust="spacing" textLength="199" x="1855.5" y="426.4707">-validate(ToDoEntry toDoEntry)</text></g><!--class GreenSpaceRepository--><g id="elem_GreenSpaceRepository"><rect codeLine="51" fill="#F1F1F1" height="122.4844" id="GreenSpaceRepository" rx="2.5" ry="2.5" style="stroke:#181818;stroke-width:0.5;" width="575" x="7" y="311.5"/><ellipse cx="216.25" cy="327.5" fill="#ADD1B2" rx="11" ry="11" style="stroke:#181818;stroke-width:1.0;"/><path d="M219.0156,323.375 Q219.1719,323.1563 219.3594,323.0469 Q219.5469,322.9375 219.7656,322.9375 Q220.1406,322.9375 220.375,323.2031 Q220.6094,323.4531 220.6094,324.0625 L220.6094,325.5156 Q220.6094,326.125 220.375,326.3906 Q220.1406,326.6563 219.7656,326.6563 Q219.4219,326.6563 219.2188,326.4531 Q219.0156,326.2656 218.9063,325.75 Q218.8594,325.3906 218.6719,325.2031 Q218.3438,324.8281 217.7344,324.6094 Q217.125,324.3906 216.5,324.3906 Q215.7344,324.3906 215.0938,324.7188 Q214.4688,325.0469 213.9688,325.7969 Q213.4844,326.5469 213.4844,327.5781 L213.4844,328.6719 Q213.4844,329.9063 214.375,330.7344 Q215.2656,331.5469 216.8594,331.5469 Q217.7969,331.5469 218.4531,331.2969 Q218.8438,331.1406 219.2656,330.7031 Q219.5313,330.4375 219.6719,330.3594 Q219.8281,330.2813 220.0313,330.2813 Q220.3594,330.2813 220.6094,330.5469 Q220.875,330.7969 220.875,331.1406 Q220.875,331.4844 220.5313,331.8906 Q220.0313,332.4688 219.2344,332.7969 Q218.1563,333.25 216.8594,333.25 Q215.3438,333.25 214.1406,332.625 Q213.1563,332.125 212.4688,331.0625 Q211.7813,329.9844 211.7813,328.7031 L211.7813,327.5469 Q211.7813,326.2188 212.3906,325.0781 Q213.0156,323.9219 214.1094,323.3125 Q215.2031,322.6875 216.4375,322.6875 Q217.1719,322.6875 217.8125,322.8594 Q218.4688,323.0156 219.0156,323.375 Z " fill="#000000"/><text fill="#000000" font-family="sans-serif" font-size="14" lengthAdjust="spacing" textLength="148" x="236.75" y="333.2969">GreenSpaceRepository</text><line style="stroke:#181818;stroke-width:0.5;" x1="8" x2="581" y1="343.5" y2="343.5"/><text fill="#000000" font-family="sans-serif" font-size="14" lengthAdjust="spacing" textLength="237" x="13" y="362.6074">-List&lt;GreenSpace&gt; greenSpacesList;</text><line style="stroke:#181818;stroke-width:0.5;" x1="8" x2="581" y1="370.1211" y2="370.1211"/><text fill="#000000" font-family="sans-serif" font-size="14" lengthAdjust="spacing" textLength="563" x="13" y="389.2285">+registerGreenSpace(String name, int size, float area, String address, String responsible)</text><text fill="#000000" font-family="sans-serif" font-size="14" lengthAdjust="spacing" textLength="280" x="13" y="407.8496">-addGreenSpace(GreenSpace greenSpace)</text><text fill="#000000" font-family="sans-serif" font-size="14" lengthAdjust="spacing" textLength="225" x="13" y="426.4707">-validate(GreenSpace greenSpace)</text></g><!--class ToDoListMapper--><g id="elem_ToDoListMapper"><rect codeLine="58" fill="#F1F1F1" height="103.8633" id="ToDoListMapper" rx="2.5" ry="2.5" style="stroke:#181818;stroke-width:0.5;" width="273" x="934" y="578"/><ellipse cx="1013.75" cy="594" fill="#ADD1B2" rx="11" ry="11" style="stroke:#181818;stroke-width:1.0;"/><path d="M1016.5156,589.875 Q1016.6719,589.6563 1016.8594,589.5469 Q1017.0469,589.4375 1017.2656,589.4375 Q1017.6406,589.4375 1017.875,589.7031 Q1018.1094,589.9531 1018.1094,590.5625 L1018.1094,592.0156 Q1018.1094,592.625 1017.875,592.8906 Q1017.6406,593.1563 1017.2656,593.1563 Q1016.9219,593.1563 1016.7188,592.9531 Q1016.5156,592.7656 1016.4063,592.25 Q1016.3594,591.8906 1016.1719,591.7031 Q1015.8438,591.3281 1015.2344,591.1094 Q1014.625,590.8906 1014,590.8906 Q1013.2344,590.8906 1012.5938,591.2188 Q1011.9688,591.5469 1011.4688,592.2969 Q1010.9844,593.0469 1010.9844,594.0781 L1010.9844,595.1719 Q1010.9844,596.4063 1011.875,597.2344 Q1012.7656,598.0469 1014.3594,598.0469 Q1015.2969,598.0469 1015.9531,597.7969 Q1016.3438,597.6406 1016.7656,597.2031 Q1017.0313,596.9375 1017.1719,596.8594 Q1017.3281,596.7813 1017.5313,596.7813 Q1017.8594,596.7813 1018.1094,597.0469 Q1018.375,597.2969 1018.375,597.6406 Q1018.375,597.9844 1018.0313,598.3906 Q1017.5313,598.9688 1016.7344,599.2969 Q1015.6563,599.75 1014.3594,599.75 Q1012.8438,599.75 1011.6406,599.125 Q1010.6563,598.625 1009.9688,597.5625 Q1009.2813,596.4844 1009.2813,595.2031 L1009.2813,594.0469 Q1009.2813,592.7188 1009.8906,591.5781 Q1010.5156,590.4219 1011.6094,589.8125 Q1012.7031,589.1875 1013.9375,589.1875 Q1014.6719,589.1875 1015.3125,589.3594 Q1015.9688,589.5156 1016.5156,589.875 Z " fill="#000000"/><text fill="#000000" font-family="sans-serif" font-size="14" lengthAdjust="spacing" textLength="105" x="1034.25" y="599.7969">ToDoListMapper</text><line style="stroke:#181818;stroke-width:0.5;" x1="935" x2="1206" y1="610" y2="610"/><line style="stroke:#181818;stroke-width:0.5;" x1="935" x2="1206" y1="618" y2="618"/><text fill="#000000" font-family="sans-serif" font-size="14" lengthAdjust="spacing" textLength="123" x="940" y="637.1074">+ToDoListMapper()</text><text fill="#000000" font-family="sans-serif" font-size="14" lengthAdjust="spacing" textLength="261" x="940" y="655.7285">+toDto(List&lt;GreenSpace&gt; GreenSpaces)</text><text fill="#000000" font-family="sans-serif" font-size="14" lengthAdjust="spacing" textLength="210" x="940" y="674.3496">-toDto(GreenSpace greenSpace)</text></g><!--class GreenSpaceDTO--><g id="elem_GreenSpaceDTO"><rect codeLine="64" fill="#F1F1F1" height="103.8633" id="GreenSpaceDTO" rx="2.5" ry="2.5" style="stroke:#181818;stroke-width:0.5;" width="301" x="920" y="799"/><ellipse cx="1011.25" cy="815" fill="#ADD1B2" rx="11" ry="11" style="stroke:#181818;stroke-width:1.0;"/><path d="M1014.0156,810.875 Q1014.1719,810.6563 1014.3594,810.5469 Q1014.5469,810.4375 1014.7656,810.4375 Q1015.1406,810.4375 1015.375,810.7031 Q1015.6094,810.9531 1015.6094,811.5625 L1015.6094,813.0156 Q1015.6094,813.625 1015.375,813.8906 Q1015.1406,814.1563 1014.7656,814.1563 Q1014.4219,814.1563 1014.2188,813.9531 Q1014.0156,813.7656 1013.9063,813.25 Q1013.8594,812.8906 1013.6719,812.7031 Q1013.3438,812.3281 1012.7344,812.1094 Q1012.125,811.8906 1011.5,811.8906 Q1010.7344,811.8906 1010.0938,812.2188 Q1009.4688,812.5469 1008.9688,813.2969 Q1008.4844,814.0469 1008.4844,815.0781 L1008.4844,816.1719 Q1008.4844,817.4063 1009.375,818.2344 Q1010.2656,819.0469 1011.8594,819.0469 Q1012.7969,819.0469 1013.4531,818.7969 Q1013.8438,818.6406 1014.2656,818.2031 Q1014.5313,817.9375 1014.6719,817.8594 Q1014.8281,817.7813 1015.0313,817.7813 Q1015.3594,817.7813 1015.6094,818.0469 Q1015.875,818.2969 1015.875,818.6406 Q1015.875,818.9844 1015.5313,819.3906 Q1015.0313,819.9688 1014.2344,820.2969 Q1013.1563,820.75 1011.8594,820.75 Q1010.3438,820.75 1009.1406,820.125 Q1008.1563,819.625 1007.4688,818.5625 Q1006.7813,817.4844 1006.7813,816.2031 L1006.7813,815.0469 Q1006.7813,813.7188 1007.3906,812.5781 Q1008.0156,811.4219 1009.1094,810.8125 Q1010.2031,810.1875 1011.4375,810.1875 Q1012.1719,810.1875 1012.8125,810.3594 Q1013.4688,810.5156 1014.0156,810.875 Z " fill="#000000"/><text fill="#000000" font-family="sans-serif" font-size="14" lengthAdjust="spacing" textLength="110" x="1031.75" y="820.7969">GreenSpaceDTO</text><line style="stroke:#181818;stroke-width:0.5;" x1="921" x2="1220" y1="831" y2="831"/><text fill="#000000" font-family="sans-serif" font-size="14" lengthAdjust="spacing" textLength="130" x="926" y="850.1074">-GreenSpace objDto</text><line style="stroke:#181818;stroke-width:0.5;" x1="921" x2="1220" y1="857.6211" y2="857.6211"/><text fill="#000000" font-family="sans-serif" font-size="14" lengthAdjust="spacing" textLength="289" x="926" y="876.7285">+GreenSpaceDTO(GreenSpace greenSpace)</text><text fill="#000000" font-family="sans-serif" font-size="14" lengthAdjust="spacing" textLength="82" x="926" y="895.3496">+getObjDto()</text></g><!--class ToDoEntry--><g id="elem_ToDoEntry"><rect codeLine="71" fill="#F1F1F1" height="215.5898" id="ToDoEntry" rx="2.5" ry="2.5" style="stroke:#181818;stroke-width:0.5;" width="664" x="1873.5" y="522"/><ellipse cx="2167.25" cy="538" fill="#ADD1B2" rx="11" ry="11" style="stroke:#181818;stroke-width:1.0;"/><path d="M2170.0156,533.875 Q2170.1719,533.6563 2170.3594,533.5469 Q2170.5469,533.4375 2170.7656,533.4375 Q2171.1406,533.4375 2171.375,533.7031 Q2171.6094,533.9531 2171.6094,534.5625 L2171.6094,536.0156 Q2171.6094,536.625 2171.375,536.8906 Q2171.1406,537.1563 2170.7656,537.1563 Q2170.4219,537.1563 2170.2188,536.9531 Q2170.0156,536.7656 2169.9063,536.25 Q2169.8594,535.8906 2169.6719,535.7031 Q2169.3438,535.3281 2168.7344,535.1094 Q2168.125,534.8906 2167.5,534.8906 Q2166.7344,534.8906 2166.0938,535.2188 Q2165.4688,535.5469 2164.9688,536.2969 Q2164.4844,537.0469 2164.4844,538.0781 L2164.4844,539.1719 Q2164.4844,540.4063 2165.375,541.2344 Q2166.2656,542.0469 2167.8594,542.0469 Q2168.7969,542.0469 2169.4531,541.7969 Q2169.8438,541.6406 2170.2656,541.2031 Q2170.5313,540.9375 2170.6719,540.8594 Q2170.8281,540.7813 2171.0313,540.7813 Q2171.3594,540.7813 2171.6094,541.0469 Q2171.875,541.2969 2171.875,541.6406 Q2171.875,541.9844 2171.5313,542.3906 Q2171.0313,542.9688 2170.2344,543.2969 Q2169.1563,543.75 2167.8594,543.75 Q2166.3438,543.75 2165.1406,543.125 Q2164.1563,542.625 2163.4688,541.5625 Q2162.7813,540.4844 2162.7813,539.2031 L2162.7813,538.0469 Q2162.7813,536.7188 2163.3906,535.5781 Q2164.0156,534.4219 2165.1094,533.8125 Q2166.2031,533.1875 2167.4375,533.1875 Q2168.1719,533.1875 2168.8125,533.3594 Q2169.4688,533.5156 2170.0156,533.875 Z " fill="#000000"/><text fill="#000000" font-family="sans-serif" font-size="14" lengthAdjust="spacing" textLength="68" x="2187.75" y="543.7969">ToDoEntry</text><line style="stroke:#181818;stroke-width:0.5;" x1="1874.5" x2="2536.5" y1="554" y2="554"/><text fill="#000000" font-family="sans-serif" font-size="14" lengthAdjust="spacing" textLength="166" x="1879.5" y="573.1074">-GreenSpace greenSpace</text><text fill="#000000" font-family="sans-serif" font-size="14" lengthAdjust="spacing" textLength="72" x="1879.5" y="591.7285">-String title;</text><text fill="#000000" font-family="sans-serif" font-size="14" lengthAdjust="spacing" textLength="119" x="1879.5" y="610.3496">-String description;</text><text fill="#000000" font-family="sans-serif" font-size="14" lengthAdjust="spacing" textLength="79" x="1879.5" y="628.9707">-int urgency;</text><text fill="#000000" font-family="sans-serif" font-size="14" lengthAdjust="spacing" textLength="139" x="1879.5" y="647.5918">-int expectedDuration;</text><text fill="#000000" font-family="sans-serif" font-size="14" lengthAdjust="spacing" textLength="88" x="1879.5" y="666.2129">-String status;</text><text fill="#000000" font-family="sans-serif" font-size="14" lengthAdjust="spacing" textLength="123" x="1879.5" y="684.834">-String responsible;</text><line style="stroke:#181818;stroke-width:0.5;" x1="1874.5" x2="2536.5" y1="692.3477" y2="692.3477"/><text fill="#000000" font-family="sans-serif" font-size="14" lengthAdjust="spacing" textLength="652" x="1879.5" y="711.4551">+ToDoEntry(GreenSpace greenSpace, String title, String description, int urgency, int expectedDuration)</text><text fill="#000000" font-family="sans-serif" font-size="14" lengthAdjust="spacing" textLength="376" x="1879.5" y="730.0762">-validateToDo(title, description, urgency, expectedDuration)</text></g><!--class GreenSpace--><g id="elem_GreenSpace"><rect codeLine="83" fill="#F1F1F1" height="141.1055" id="GreenSpace" rx="2.5" ry="2.5" style="stroke:#181818;stroke-width:0.5;" width="131" x="668" y="302"/><ellipse cx="691.55" cy="318" fill="#ADD1B2" rx="11" ry="11" style="stroke:#181818;stroke-width:1.0;"/><path d="M694.3156,313.875 Q694.4719,313.6563 694.6594,313.5469 Q694.8469,313.4375 695.0656,313.4375 Q695.4406,313.4375 695.675,313.7031 Q695.9094,313.9531 695.9094,314.5625 L695.9094,316.0156 Q695.9094,316.625 695.675,316.8906 Q695.4406,317.1563 695.0656,317.1563 Q694.7219,317.1563 694.5188,316.9531 Q694.3156,316.7656 694.2063,316.25 Q694.1594,315.8906 693.9719,315.7031 Q693.6438,315.3281 693.0344,315.1094 Q692.425,314.8906 691.8,314.8906 Q691.0344,314.8906 690.3938,315.2188 Q689.7688,315.5469 689.2688,316.2969 Q688.7844,317.0469 688.7844,318.0781 L688.7844,319.1719 Q688.7844,320.4063 689.675,321.2344 Q690.5656,322.0469 692.1594,322.0469 Q693.0969,322.0469 693.7531,321.7969 Q694.1438,321.6406 694.5656,321.2031 Q694.8313,320.9375 694.9719,320.8594 Q695.1281,320.7813 695.3313,320.7813 Q695.6594,320.7813 695.9094,321.0469 Q696.175,321.2969 696.175,321.6406 Q696.175,321.9844 695.8313,322.3906 Q695.3313,322.9688 694.5344,323.2969 Q693.4563,323.75 692.1594,323.75 Q690.6438,323.75 689.4406,323.125 Q688.4563,322.625 687.7688,321.5625 Q687.0813,320.4844 687.0813,319.2031 L687.0813,318.0469 Q687.0813,316.7188 687.6906,315.5781 Q688.3156,314.4219 689.4094,313.8125 Q690.5031,313.1875 691.7375,313.1875 Q692.4719,313.1875 693.1125,313.3594 Q693.7688,313.5156 694.3156,313.875 Z " fill="#000000"/><text fill="#000000" font-family="sans-serif" font-size="14" lengthAdjust="spacing" textLength="80" x="707.45" y="323.7969">GreenSpace</text><line style="stroke:#181818;stroke-width:0.5;" x1="669" x2="798" y1="334" y2="334"/><text fill="#000000" font-family="sans-serif" font-size="14" lengthAdjust="spacing" textLength="81" x="674" y="353.1074">-String name</text><text fill="#000000" font-family="sans-serif" font-size="14" lengthAdjust="spacing" textLength="97" x="674" y="371.7285">-String address</text><text fill="#000000" font-family="sans-serif" font-size="14" lengthAdjust="spacing" textLength="119" x="674" y="390.3496">-String responsible</text><text fill="#000000" font-family="sans-serif" font-size="14" lengthAdjust="spacing" textLength="59" x="674" y="408.9707">-Size size</text><text fill="#000000" font-family="sans-serif" font-size="14" lengthAdjust="spacing" textLength="65" x="674" y="427.5918">-float area</text><line style="stroke:#181818;stroke-width:0.5;" x1="669" x2="798" y1="435.1055" y2="435.1055"/></g><!--class ToDoEntryDTO--><g id="elem_ToDoEntryDTO"><rect fill="#F1F1F1" height="48" id="ToDoEntryDTO" rx="2.5" ry="2.5" style="stroke:#181818;stroke-width:0.5;" width="130" x="1262.5" y="348.5"/><ellipse cx="1277.5" cy="364.5" fill="#ADD1B2" rx="11" ry="11" style="stroke:#181818;stroke-width:1.0;"/><path d="M1280.2656,360.375 Q1280.4219,360.1563 1280.6094,360.0469 Q1280.7969,359.9375 1281.0156,359.9375 Q1281.3906,359.9375 1281.625,360.2031 Q1281.8594,360.4531 1281.8594,361.0625 L1281.8594,362.5156 Q1281.8594,363.125 1281.625,363.3906 Q1281.3906,363.6563 1281.0156,363.6563 Q1280.6719,363.6563 1280.4688,363.4531 Q1280.2656,363.2656 1280.1563,362.75 Q1280.1094,362.3906 1279.9219,362.2031 Q1279.5938,361.8281 1278.9844,361.6094 Q1278.375,361.3906 1277.75,361.3906 Q1276.9844,361.3906 1276.3438,361.7188 Q1275.7188,362.0469 1275.2188,362.7969 Q1274.7344,363.5469 1274.7344,364.5781 L1274.7344,365.6719 Q1274.7344,366.9063 1275.625,367.7344 Q1276.5156,368.5469 1278.1094,368.5469 Q1279.0469,368.5469 1279.7031,368.2969 Q1280.0938,368.1406 1280.5156,367.7031 Q1280.7813,367.4375 1280.9219,367.3594 Q1281.0781,367.2813 1281.2813,367.2813 Q1281.6094,367.2813 1281.8594,367.5469 Q1282.125,367.7969 1282.125,368.1406 Q1282.125,368.4844 1281.7813,368.8906 Q1281.2813,369.4688 1280.4844,369.7969 Q1279.4063,370.25 1278.1094,370.25 Q1276.5938,370.25 1275.3906,369.625 Q1274.4063,369.125 1273.7188,368.0625 Q1273.0313,366.9844 1273.0313,365.7031 L1273.0313,364.5469 Q1273.0313,363.2188 1273.6406,362.0781 Q1274.2656,360.9219 1275.3594,360.3125 Q1276.4531,359.6875 1277.6875,359.6875 Q1278.4219,359.6875 1279.0625,359.8594 Q1279.7188,360.0156 1280.2656,360.375 Z " fill="#000000"/><text fill="#000000" font-family="sans-serif" font-size="14" lengthAdjust="spacing" textLength="98" x="1291.5" y="370.2969">ToDoEntryDTO</text><line style="stroke:#181818;stroke-width:0.5;" x1="1263.5" x2="1391.5" y1="380.5" y2="380.5"/><line style="stroke:#181818;stroke-width:0.5;" x1="1263.5" x2="1391.5" y1="388.5" y2="388.5"/></g><!--link ToDoListUI to ToDoListController--><g id="link_ToDoListUI_ToDoListController"><path codeLine="94" d="M777.34,115 C793.61,115 807.5,115 807.5,115 C807.5,115 803.28,115 806.32,115 " fill="none" id="ToDoListUI-to-ToDoListController" style="stroke:#181818;stroke-width:1.0;stroke-dasharray:7.0,7.0;"/><polygon fill="#181818" points="812.32,115,803.32,111,807.32,115,803.32,119,812.32,115" style="stroke:#181818;stroke-width:1.0;"/></g><!--link ToDoListController to ToDoListMapper--><g id="link_ToDoListController_ToDoListMapper"><path codeLine="96" d="M927.46,223.12 C911.23,264.47 896.5,302 896.5,302 C896.5,302 896.5,443 896.5,443 C896.5,443 966.891,518.2484 1018.391,573.2984 " fill="none" id="ToDoListController-to-ToDoListMapper" style="stroke:#181818;stroke-width:1.0;stroke-dasharray:7.0,7.0;"/><polygon fill="#181818" points="1022.49,577.68,1019.2625,568.375,1019.0742,574.0287,1013.4204,573.8403,1022.49,577.68" style="stroke:#181818;stroke-width:1.0;"/><text fill="#000000" font-family="sans-serif" font-size="13" lengthAdjust="spacing" textLength="129" x="897.5" y="378.0283">sendGreenSpaceList()</text></g><!--reverse link ToDoListController to ToDoListMapper--><g id="link_ToDoListController_ToDoListMapper"><path codeLine="97" d="M1007.107,228.8122 C1020.887,270.1622 1031.5,302 1031.5,302 C1031.5,302 1053.44,485.94 1064.41,577.91 " fill="none" id="ToDoListController-backto-ToDoListMapper" style="stroke:#181818;stroke-width:1.0;stroke-dasharray:7.0,7.0;"/><polygon fill="#181818" points="1005.21,223.12,1004.2606,232.923,1006.7908,227.8635,1011.8503,230.3937,1005.21,223.12" style="stroke:#181818;stroke-width:1.0;"/><text fill="#000000" font-family="sans-serif" font-size="13" lengthAdjust="spacing" textLength="155" x="1049.5" y="378.0283">sendGreenSpaceListDTO()</text></g><!--link ToDoListMapper to GreenSpaceDTO--><g id="link_ToDoListMapper_GreenSpaceDTO"><path codeLine="98" d="M1070.5,682.07 C1070.5,717.21 1070.5,757.7 1070.5,792.85 " fill="none" id="ToDoListMapper-to-GreenSpaceDTO" style="stroke:#181818;stroke-width:1.0;stroke-dasharray:7.0,7.0;"/><polygon fill="#181818" points="1070.5,798.85,1074.5,789.85,1070.5,793.85,1066.5,789.85,1070.5,798.85" style="stroke:#181818;stroke-width:1.0;"/></g><!--link Repositories to ToDoListRepository--><g id="link_Repositories_ToDoListRepository"><path codeLine="99" d="M1626.6,154.94 C1737.89,196.57 1910.1204,260.9975 2039.3504,309.3475 " fill="none" id="Repositories-to-ToDoListRepository" style="stroke:#181818;stroke-width:1.0;"/><polygon fill="#181818" points="2044.97,311.45,2037.9423,304.5499,2040.287,309.6979,2035.139,312.0426,2044.97,311.45" style="stroke:#181818;stroke-width:1.0;"/><text fill="#000000" font-family="sans-serif" font-size="13" lengthAdjust="spacing" textLength="49" x="1926.5" y="268.0283">contains</text></g><!--link ToDoListController to GreenSpaceRepository--><g id="link_ToDoListController_GreenSpaceRepository"><path codeLine="100" d="M812.24,212.15 C801.31,218.84 794.5,223 794.5,223 C794.5,223 641.2217,268.5217 502.5417,309.7117 " fill="none" id="ToDoListController-to-GreenSpaceRepository" style="stroke:#181818;stroke-width:1.0;stroke-dasharray:7.0,7.0;"/><polygon fill="#181818" points="496.79,311.42,506.5564,312.6919,501.5831,309.9964,504.2786,305.0231,496.79,311.42" style="stroke:#181818;stroke-width:1.0;"/><text fill="#000000" font-family="sans-serif" font-size="13" lengthAdjust="spacing" textLength="119" x="687.5" y="268.0283">getGreenSpaceList()</text></g><!--link GreenSpaceRepository to GreenSpace--><g id="link_GreenSpaceRepository_GreenSpace"><path codeLine="101" d="M582.11,372.5 C613.84,372.5 637.46,372.5 661.94,372.5 " fill="none" id="GreenSpaceRepository-to-GreenSpace" style="stroke:#181818;stroke-width:1.0;"/><polygon fill="#181818" points="667.94,372.5,658.94,368.5,662.94,372.5,658.94,376.5,667.94,372.5" style="stroke:#181818;stroke-width:1.0;"/><text fill="#000000" font-family="sans-serif" font-size="13" lengthAdjust="spacing" textLength="49" x="600.5" y="365.5283">contains</text><text fill="#000000" font-family="sans-serif" font-size="13" lengthAdjust="spacing" textLength="5" x="655.0706" y="368.5562">*</text></g><!--link ToDoListRepository to ToDoEntry--><g id="link_ToDoListRepository_ToDoEntry"><path codeLine="102" d="M2205.5,433.73 C2205.5,460.06 2205.5,485.77 2205.5,515.9 " fill="none" id="ToDoListRepository-to-ToDoEntry" style="stroke:#181818;stroke-width:1.0;"/><polygon fill="#181818" points="2205.5,521.9,2209.5,512.9,2205.5,516.9,2201.5,512.9,2205.5,521.9" style="stroke:#181818;stroke-width:1.0;"/><text fill="#000000" font-family="sans-serif" font-size="13" lengthAdjust="spacing" textLength="49" x="2206.5" y="488.0283">contains</text><text fill="#000000" font-family="sans-serif" font-size="13" lengthAdjust="spacing" textLength="7" x="2198.0953" y="455.8097">1</text><text fill="#000000" font-family="sans-serif" font-size="13" lengthAdjust="spacing" textLength="5" x="2200.3242" y="510.7545">*</text></g><!--link Repositories to AuthenticationRepository--><g id="link_Repositories_AuthenticationRepository"><path codeLine="103" d="M1522.5,185.82 C1522.5,235.61 1522.5,294.3 1522.5,332.7 " fill="none" id="Repositories-to-AuthenticationRepository" style="stroke:#181818;stroke-width:1.0;"/><polygon fill="#181818" points="1522.5,338.7,1526.5,329.7,1522.5,333.7,1518.5,329.7,1522.5,338.7" style="stroke:#181818;stroke-width:1.0;"/><text fill="#000000" font-family="sans-serif" font-size="13" lengthAdjust="spacing" textLength="49" x="1523.5" y="268.0283">contains</text><text fill="#000000" font-family="sans-serif" font-size="13" lengthAdjust="spacing" textLength="7" x="1515.1555" y="207.6655">1</text><text fill="#000000" font-family="sans-serif" font-size="13" lengthAdjust="spacing" textLength="7" x="1514.8328" y="327.7287">1</text></g><!--link AuthenticationRepository to UserSession--><g id="link_AuthenticationRepository_UserSession"><path codeLine="104" d="M1617.81,372.5 C1646.72,372.5 1671.52,372.5 1696.91,372.5 " fill="none" id="AuthenticationRepository-to-UserSession" style="stroke:#181818;stroke-width:1.0;"/><polygon fill="#181818" points="1702.91,372.5,1693.91,368.5,1697.91,372.5,1693.91,376.5,1702.91,372.5" style="stroke:#181818;stroke-width:1.0;"/><text fill="#000000" font-family="sans-serif" font-size="13" lengthAdjust="spacing" textLength="49" x="1635.75" y="365.5283">contains</text></g><!--link ToDoListController to Repositories--><g id="link_ToDoListController_Repositories"><path codeLine="105" d="M1126.86,115 C1220.25,115 1330.06,115 1412.19,115 " fill="none" id="ToDoListController-to-Repositories" style="stroke:#181818;stroke-width:1.0;stroke-dasharray:7.0,7.0;"/><polygon fill="#181818" points="1418.19,115,1409.19,111,1413.19,115,1409.19,119,1418.19,115" style="stroke:#181818;stroke-width:1.0;"/><text fill="#000000" font-family="sans-serif" font-size="13" lengthAdjust="spacing" textLength="67" x="1239" y="108.0283">repositories</text></g><!--link Repositories to Repositories--><g id="link_Repositories_Repositories"><path codeLine="106" d="M1626.76,88.84 C1647.08,91.88 1661.5,100.6 1661.5,115 C1661.5,129.4 1653.014,137.2322 1632.694,140.2722 " fill="none" id="Repositories-to-Repositories" style="stroke:#181818;stroke-width:1.0;"/><polygon fill="#181818" points="1626.76,141.16,1636.2528,143.7843,1631.705,140.4202,1635.0691,135.8724,1626.76,141.16" style="stroke:#181818;stroke-width:1.0;"/><text fill="#000000" font-family="sans-serif" font-size="13" lengthAdjust="spacing" textLength="49" x="1667.5" y="120.5283">instance</text></g><!--link ToDoEntryDTO to ToDoListMapper--><g id="link_ToDoEntryDTO_ToDoListMapper"><path codeLine="107" d="M1304.24,396.62 C1263.28,437.35 1181.6249,518.5197 1126.1549,573.6697 " fill="none" id="ToDoEntryDTO-to-ToDoListMapper" style="stroke:#181818;stroke-width:1.0;stroke-dasharray:7.0,7.0;"/><polygon fill="#181818" points="1121.9,577.9,1131.1026,574.3911,1125.4457,574.3747,1125.4621,568.7179,1121.9,577.9" style="stroke:#181818;stroke-width:1.0;"/><text fill="#000000" font-family="sans-serif" font-size="13" lengthAdjust="spacing" textLength="88" x="1223.5" y="488.0283">returns Dto Obj</text></g><!--SRC=[lLR1Rjim3BthAuHSaYrDi5tJ8a3NR4E03GMQzGDKctMqEf8XoTkoeVy-of5jobRQdPPBRFAH5Cb7qLFx95KbZ3ZmWrOwsnjz0EvC3QpNL29x4WNitB44RY1pGXKb1TYzoFLFgGh-A4fBDQLKu8uLy4gNH__2fWcbDauJewmKrbuxP-H3xM2RQRMJlu6_OzCI7XrtcXjPx1tFfJ-Cr8gnneH_qnlzHLftl-L_s3CRYc-qSaQN9HXKS_mj-6S3e7QO8Dn1fQrqsXnvaH06VEkAeDr8r63dYR2pDy5D0IuLcUh7aO9sZYqeK076GpwYxzxEWZ3P_fCslVVjPYQL8pbjDwsVw1Jsm_4ERAMLbGybp9AOpRVR8UgvBN9tJWcsAoyLKfTRPP546JhWgmYKYfgemClrGUrrxVQWdCo4vqU4wKvy3XDEt_YvgOr1pBq5imDh4KSz434ryk9jVW8EA3YAil3IgwwJwuvEPtlT5uOqzOBlS5nm09rqPV-MWysCh7n-5zpJe3O5gEnuUe5V5SuFv9lQD2LeMIJol0_NFJKdQvvQt0zHobmuI6D8ziafQpdI5A17h4bMrkik1vNeeREGfH87E6LayPwuu8-b5euB0w8h1APai57Tk-b9JB8chfDL7YL-1lKyRFjNKLMdMsSUYpndvxvgJiz6XI33YR15WBqMCnhNyJt7zSDtT1EA6e5VIheXzcrZEYBsgVMdK7oHT19qbAINiOnGjTKGmbBHaBO3HtYpkDeEXAJVGJFd_s-a26Lyq5dm6Bdgt8nT95hRJGydCp0G1SuFfAGIdSPlLpywhQ0VeARJZ975kbmd5XkRiiIINH9ic80LhYX5vioha4y9uwlbSlalrfwtlOC0z94ZQhDeFIqMwyIDlEBufU64LFPSCibxR1Llgv1H4efX9sydj8s9c0G_UJzfpkgD-a4ZDb5M7Hh_p-usOdmMWpxePdkbBkjuzQ-GOMIVntKVOMNu461TUjYiD74CkDeeo_46udWHCVON]--></g></svg>