<?xml version="1.0" encoding="us-ascii" standalone="no"?><svg xmlns="http://www.w3.org/2000/svg" xmlns:xlink="http://www.w3.org/1999/xlink" contentStyleType="text/css" height="469px" preserveAspectRatio="none" style="width:797px;height:469px;background:#FFFFFF;" version="1.1" viewBox="0 0 797 469" width="797px" zoomAndPan="magnify"><defs/><g><text fill="#000000" font-family="sans-serif" font-size="14" font-weight="bold" lengthAdjust="spacing" textLength="411" x="194.5" y="30.1074">UI Sequence Diagram (SSD) - Get Responsible User's Email</text><rect fill="#FFFFFF" height="297.6191" style="stroke:#181818;stroke-width:1.0;" width="10" x="43.5" y="106.8633"/><rect fill="#FFFFFF" height="274.3281" style="stroke:#181818;stroke-width:1.0;" width="10" x="294.5" y="130.1543"/><rect fill="#FFFFFF" height="208.7461" style="stroke:#181818;stroke-width:1.0;" width="10" x="304.5" y="195.7363"/><rect fill="#FFFFFF" height="207.7461" style="stroke:#181818;stroke-width:1.0;" width="10" x="304.5" y="195.7363"/><rect fill="#FFFFFF" height="31.291" style="stroke:#181818;stroke-width:1.0;" width="10" x="441.5" y="232.0273"/><rect fill="#FFFFFF" height="31.291" style="stroke:#181818;stroke-width:1.0;" width="10" x="588.5" y="294.6094"/><rect fill="#FFFFFF" height="46.291" style="stroke:#181818;stroke-width:1.0;" width="10" x="721.5" y="357.1914"/><rect fill="none" height="251.3281" style="stroke:#000000;stroke-width:1.5;" width="570" x="221" y="145.1543"/><line style="stroke:#181818;stroke-width:0.5;stroke-dasharray:5.0,5.0;" x1="48" x2="48" y1="96.8633" y2="413.4824"/><line style="stroke:#181818;stroke-width:0.5;stroke-dasharray:5.0,5.0;" x1="299" x2="299" y1="96.8633" y2="413.4824"/><line style="stroke:#181818;stroke-width:0.5;stroke-dasharray:5.0,5.0;" x1="446" x2="446" y1="96.8633" y2="413.4824"/><line style="stroke:#181818;stroke-width:0.5;stroke-dasharray:5.0,5.0;" x1="593" x2="593" y1="96.8633" y2="413.4824"/><line style="stroke:#181818;stroke-width:0.5;stroke-dasharray:5.0,5.0;" x1="726" x2="726" y1="96.8633" y2="413.4824"/><rect fill="#E3E3E3" height="32.6211" rx="2.5" ry="2.5" style="stroke:#181818;stroke-width:0.5;" width="87" x="5" y="63.2422"/><text fill="#000000" font-family="sans-serif" font-size="14" lengthAdjust="spacing" textLength="73" x="12" y="85.3496">:ToDoListUI</text><rect fill="#E3E3E3" height="32.6211" rx="2.5" ry="2.5" style="stroke:#181818;stroke-width:0.5;" width="87" x="5" y="412.4824"/><text fill="#000000" font-family="sans-serif" font-size="14" lengthAdjust="spacing" textLength="73" x="12" y="434.5898">:ToDoListUI</text><rect fill="#E3E3E3" height="32.6211" rx="2.5" ry="2.5" style="stroke:#181818;stroke-width:0.5;" width="137" x="231" y="63.2422"/><text fill="#000000" font-family="sans-serif" font-size="14" lengthAdjust="spacing" textLength="123" x="238" y="85.3496">:ToDoListController</text><rect fill="#E3E3E3" height="32.6211" rx="2.5" ry="2.5" style="stroke:#181818;stroke-width:0.5;" width="137" x="231" y="412.4824"/><text fill="#000000" font-family="sans-serif" font-size="14" lengthAdjust="spacing" textLength="123" x="238" y="434.5898">:ToDoListController</text><rect fill="#E3E3E3" height="32.6211" rx="2.5" ry="2.5" style="stroke:#181818;stroke-width:0.5;" width="137" x="378" y="63.2422"/><text fill="#000000" font-family="sans-serif" font-size="14" lengthAdjust="spacing" textLength="123" x="385" y="85.3496">:ApplicationSession</text><rect fill="#E3E3E3" height="32.6211" rx="2.5" ry="2.5" style="stroke:#181818;stroke-width:0.5;" width="137" x="378" y="412.4824"/><text fill="#000000" font-family="sans-serif" font-size="14" lengthAdjust="spacing" textLength="123" x="385" y="434.5898">:ApplicationSession</text><rect fill="#E3E3E3" height="51.2422" rx="2.5" ry="2.5" style="stroke:#181818;stroke-width:0.5;" width="137" x="525" y="44.6211"/><text fill="#000000" font-family="sans-serif" font-size="14" lengthAdjust="spacing" textLength="74" x="556.5" y="66.7285">appSession</text><text fill="#000000" font-family="sans-serif" font-size="14" lengthAdjust="spacing" textLength="123" x="532" y="85.3496">:ApplicationSession</text><rect fill="#E3E3E3" height="51.2422" rx="2.5" ry="2.5" style="stroke:#181818;stroke-width:0.5;" width="137" x="525" y="412.4824"/><text fill="#000000" font-family="sans-serif" font-size="14" lengthAdjust="spacing" textLength="74" x="556.5" y="434.5898">appSession</text><text fill="#000000" font-family="sans-serif" font-size="14" lengthAdjust="spacing" textLength="123" x="532" y="453.2109">:ApplicationSession</text><rect fill="#E3E3E3" height="51.2422" rx="2.5" ry="2.5" style="stroke:#181818;stroke-width:0.5;" width="109" x="672" y="44.6211"/><text fill="#000000" font-family="sans-serif" font-size="14" lengthAdjust="spacing" textLength="95" x="679" y="66.7285">currentSession</text><text fill="#000000" font-family="sans-serif" font-size="14" lengthAdjust="spacing" textLength="83" x="685" y="85.3496">:UserSession</text><rect fill="#E3E3E3" height="51.2422" rx="2.5" ry="2.5" style="stroke:#181818;stroke-width:0.5;" width="109" x="672" y="412.4824"/><text fill="#000000" font-family="sans-serif" font-size="14" lengthAdjust="spacing" textLength="95" x="679" y="434.5898">currentSession</text><text fill="#000000" font-family="sans-serif" font-size="14" lengthAdjust="spacing" textLength="83" x="685" y="453.2109">:UserSession</text><rect fill="#FFFFFF" height="297.6191" style="stroke:#181818;stroke-width:1.0;" width="10" x="43.5" y="106.8633"/><rect fill="#FFFFFF" height="274.3281" style="stroke:#181818;stroke-width:1.0;" width="10" x="294.5" y="130.1543"/><rect fill="#FFFFFF" height="208.7461" style="stroke:#181818;stroke-width:1.0;" width="10" x="304.5" y="195.7363"/><rect fill="#FFFFFF" height="207.7461" style="stroke:#181818;stroke-width:1.0;" width="10" x="304.5" y="195.7363"/><rect fill="#FFFFFF" height="31.291" style="stroke:#181818;stroke-width:1.0;" width="10" x="441.5" y="232.0273"/><rect fill="#FFFFFF" height="31.291" style="stroke:#181818;stroke-width:1.0;" width="10" x="588.5" y="294.6094"/><rect fill="#FFFFFF" height="46.291" style="stroke:#181818;stroke-width:1.0;" width="10" x="721.5" y="357.1914"/><polygon fill="#181818" points="282.5,126.1543,292.5,130.1543,282.5,134.1543,286.5,130.1543" style="stroke:#181818;stroke-width:1.0;"/><line style="stroke:#181818;stroke-width:1.0;" x1="53.5" x2="288.5" y1="130.1543" y2="130.1543"/><text fill="#000000" font-family="sans-serif" font-size="13" font-weight="bold" lengthAdjust="spacing" textLength="7" x="60.5" y="124.8916">3</text><text fill="#000000" font-family="sans-serif" font-size="13" lengthAdjust="spacing" textLength="211" x="71.5" y="124.8916">getGreenSpaceDTOByResponsible()</text><path d="M221,145.1543 L450,145.1543 L450,154.4453 L440,164.4453 L221,164.4453 L221,145.1543 " fill="#EEEEEE" style="stroke:#000000;stroke-width:1.5;"/><rect fill="none" height="251.3281" style="stroke:#000000;stroke-width:1.5;" width="570" x="221" y="145.1543"/><text fill="#000000" font-family="sans-serif" font-size="13" font-weight="bold" lengthAdjust="spacing" textLength="184" x="236" y="160.1826">Get Responsible User's Email</text><line style="stroke:#181818;stroke-width:1.0;" x1="304.5" x2="351.5" y1="182.7363" y2="182.7363"/><line style="stroke:#181818;stroke-width:1.0;" x1="351.5" x2="351.5" y1="182.7363" y2="195.7363"/><line style="stroke:#181818;stroke-width:1.0;" x1="310.5" x2="351.5" y1="195.7363" y2="195.7363"/><polygon fill="#181818" points="320.5,191.7363,310.5,195.7363,320.5,199.7363,316.5,195.7363" style="stroke:#181818;stroke-width:1.0;"/><text fill="#000000" font-family="sans-serif" font-size="13" font-weight="bold" lengthAdjust="spacing" textLength="18" x="316.5" y="177.4736">3.1</text><text fill="#000000" font-family="sans-serif" font-size="13" lengthAdjust="spacing" textLength="97" x="338.5" y="177.4736">getResponsible()</text><polygon fill="#181818" points="429.5,228.0273,439.5,232.0273,429.5,236.0273,433.5,232.0273" style="stroke:#181818;stroke-width:1.0;"/><line style="stroke:#181818;stroke-width:1.0;" x1="314.5" x2="435.5" y1="232.0273" y2="232.0273"/><text fill="#000000" font-family="sans-serif" font-size="13" font-weight="bold" lengthAdjust="spacing" textLength="18" x="321.5" y="226.7646">3.2</text><text fill="#000000" font-family="sans-serif" font-size="13" lengthAdjust="spacing" textLength="75" x="343.5" y="226.7646">getInstance()</text><polygon fill="#181818" points="325.5,259.3184,315.5,263.3184,325.5,267.3184,321.5,263.3184" style="stroke:#181818;stroke-width:1.0;"/><line style="stroke:#181818;stroke-width:1.0;" x1="319.5" x2="445.5" y1="263.3184" y2="263.3184"/><text fill="#000000" font-family="sans-serif" font-size="13" font-weight="bold" lengthAdjust="spacing" textLength="18" x="331.5" y="258.0557">3.3</text><text fill="#000000" font-family="sans-serif" font-size="13" lengthAdjust="spacing" textLength="68" x="353.5" y="258.0557">appSession</text><polygon fill="#181818" points="576.5,290.6094,586.5,294.6094,576.5,298.6094,580.5,294.6094" style="stroke:#181818;stroke-width:1.0;"/><line style="stroke:#181818;stroke-width:1.0;" x1="314.5" x2="582.5" y1="294.6094" y2="294.6094"/><text fill="#000000" font-family="sans-serif" font-size="13" font-weight="bold" lengthAdjust="spacing" textLength="18" x="321.5" y="289.3467">3.4</text><text fill="#000000" font-family="sans-serif" font-size="13" lengthAdjust="spacing" textLength="115" x="343.5" y="289.3467">getCurrentSession()</text><polygon fill="#181818" points="325.5,321.9004,315.5,325.9004,325.5,329.9004,321.5,325.9004" style="stroke:#181818;stroke-width:1.0;"/><line style="stroke:#181818;stroke-width:1.0;stroke-dasharray:2.0,2.0;" x1="319.5" x2="592.5" y1="325.9004" y2="325.9004"/><text fill="#000000" font-family="sans-serif" font-size="13" font-weight="bold" lengthAdjust="spacing" textLength="18" x="331.5" y="320.6377">3.5</text><text fill="#000000" font-family="sans-serif" font-size="13" lengthAdjust="spacing" textLength="87" x="353.5" y="320.6377">currentSession</text><polygon fill="#181818" points="709.5,353.1914,719.5,357.1914,709.5,361.1914,713.5,357.1914" style="stroke:#181818;stroke-width:1.0;"/><line style="stroke:#181818;stroke-width:1.0;" x1="314.5" x2="715.5" y1="357.1914" y2="357.1914"/><text fill="#000000" font-family="sans-serif" font-size="13" font-weight="bold" lengthAdjust="spacing" textLength="18" x="321.5" y="351.9287">3.6</text><text fill="#000000" font-family="sans-serif" font-size="13" lengthAdjust="spacing" textLength="86" x="343.5" y="351.9287">getUserEmail()</text><polygon fill="#181818" points="325.5,384.4824,315.5,388.4824,325.5,392.4824,321.5,388.4824" style="stroke:#181818;stroke-width:1.0;"/><line style="stroke:#181818;stroke-width:1.0;stroke-dasharray:2.0,2.0;" x1="319.5" x2="720.5" y1="388.4824" y2="388.4824"/><text fill="#000000" font-family="sans-serif" font-size="13" font-weight="bold" lengthAdjust="spacing" textLength="18" x="331.5" y="383.2197">3.7</text><text fill="#000000" font-family="sans-serif" font-size="13" lengthAdjust="spacing" textLength="99" x="353.5" y="383.2197">responsibleEmail</text><!--SRC=[ZPBFQy8m5CVl-IiUNgO71yERXu6p8eAW6BqDHenlDTWcMVAwuN-_9bgRRZXsQMdp_T7tUVKdfQrmeeJIQ2EFpfG8v2fa_dPYXJo973cT2mI7aeJEYrJWZ-9WlfJEuLqK7XaZHRLqjm2E7nLgYP0faGTfd_Di04EO8y46lJNQgttGUdGF7cQbK0LZeYAZgtAFZZ5MTv2IoWfDq1jlJMQMojDkqGFXwuuxvrEZoPcYG1Trq-rc-KCviRPGKf0ocgFtzIqgtoRhTLSfhBqANlKzro-Jh9n3JQqnJ9Ww-8ppoQgULPBw51Hm9NF3YDNuXi_nms4CETBS8MfUBmEpxUhbdD3h3zgKE2ZBdQdilo73wF69nQ9EuPyDFnuRTw0NpGljw_z4TfmHRRWqFMDesR83TeMtp2Posa6Q1WTvZBtbTl6dsPteon9YUe0JoQJ1roLTRacyQz5SQA8-f2NDSfDNaTCt]--></g></svg>