<?xml version="1.0" encoding="us-ascii" standalone="no"?><svg xmlns="http://www.w3.org/2000/svg" xmlns:xlink="http://www.w3.org/1999/xlink" contentStyleType="text/css" height="487px" preserveAspectRatio="none" style="width:1362px;height:487px;background:#FFFFFF;" version="1.1" viewBox="0 0 1362 487" width="1362px" zoomAndPan="magnify"><defs/><g><text fill="#000000" font-family="sans-serif" font-size="14" font-weight="bold" lengthAdjust="spacing" textLength="363" x="498.5" y="28.5352">System Sequence Diagram (SSD) - Alternative One</text><rect fill="#FFFFFF" height="235.4844" style="stroke:#181818;stroke-width:1.0;" width="10" x="33" y="145.4648"/><rect fill="#FFFFFF" height="29.3105" style="stroke:#181818;stroke-width:1.0;" width="10" x="1318" y="166.7754"/><rect fill="#FFFFFF" height="29.3105" style="stroke:#181818;stroke-width:1.0;" width="10" x="1318" y="225.3965"/><rect fill="#FFFFFF" height="29.3105" style="stroke:#181818;stroke-width:1.0;" width="10" x="1318" y="284.0176"/><rect fill="#FFFFFF" height="29.3105" style="stroke:#181818;stroke-width:1.0;" width="10" x="1318" y="342.6387"/><line style="stroke:#181818;stroke-width:0.5;stroke-dasharray:5.0,5.0;" x1="38" x2="38" y1="135.4648" y2="389.9492"/><line style="stroke:#181818;stroke-width:0.5;stroke-dasharray:5.0,5.0;" x1="1323" x2="1323" y1="135.4648" y2="389.9492"/><text fill="#000000" font-family="sans-serif" font-size="14" lengthAdjust="spacing" textLength="33" x="18.5" y="116.0234">Fleet</text><text fill="#000000" font-family="sans-serif" font-size="14" lengthAdjust="spacing" textLength="60" x="5" y="132.5117">Manager</text><ellipse cx="38" cy="50.9883" fill="#E3E3E3" rx="8" ry="8" style="stroke:#181818;stroke-width:0.5;"/><path d="M38,58.9883 L38,85.9883 M25,66.9883 L51,66.9883 M38,85.9883 L25,100.9883 M38,85.9883 L51,100.9883 " fill="none" style="stroke:#181818;stroke-width:0.5;"/><text fill="#000000" font-family="sans-serif" font-size="14" lengthAdjust="spacing" textLength="33" x="18.5" y="402.4844">Fleet</text><text fill="#000000" font-family="sans-serif" font-size="14" lengthAdjust="spacing" textLength="60" x="5" y="418.9727">Manager</text><ellipse cx="38" cy="430.4258" fill="#E3E3E3" rx="8" ry="8" style="stroke:#181818;stroke-width:0.5;"/><path d="M38,438.4258 L38,465.4258 M25,446.4258 L51,446.4258 M38,465.4258 L25,480.4258 M38,465.4258 L51,480.4258 " fill="none" style="stroke:#181818;stroke-width:0.5;"/><rect fill="#E3E3E3" height="30.4883" rx="2.5" ry="2.5" style="stroke:#181818;stroke-width:0.5;" width="66" x="1290" y="103.9766"/><text fill="#000000" font-family="sans-serif" font-size="14" lengthAdjust="spacing" textLength="52" x="1297" y="124.5117">:System</text><rect fill="#E3E3E3" height="30.4883" rx="2.5" ry="2.5" style="stroke:#181818;stroke-width:0.5;" width="66" x="1290" y="388.9492"/><text fill="#000000" font-family="sans-serif" font-size="14" lengthAdjust="spacing" textLength="52" x="1297" y="409.4844">:System</text><rect fill="#FFFFFF" height="235.4844" style="stroke:#181818;stroke-width:1.0;" width="10" x="33" y="145.4648"/><rect fill="#FFFFFF" height="29.3105" style="stroke:#181818;stroke-width:1.0;" width="10" x="1318" y="166.7754"/><rect fill="#FFFFFF" height="29.3105" style="stroke:#181818;stroke-width:1.0;" width="10" x="1318" y="225.3965"/><rect fill="#FFFFFF" height="29.3105" style="stroke:#181818;stroke-width:1.0;" width="10" x="1318" y="284.0176"/><rect fill="#FFFFFF" height="29.3105" style="stroke:#181818;stroke-width:1.0;" width="10" x="1318" y="342.6387"/><polygon fill="#181818" points="1306,162.7754,1316,166.7754,1306,170.7754,1310,166.7754" style="stroke:#181818;stroke-width:1.0;"/><line style="stroke:#181818;stroke-width:1.0;" x1="43" x2="1312" y1="166.7754" y2="166.7754"/><text fill="#000000" font-family="sans-serif" font-size="13" font-weight="bold" lengthAdjust="spacing" textLength="9" x="50" y="162.0332">1</text><text fill="#000000" font-family="sans-serif" font-size="13" lengthAdjust="spacing" textLength="342" x="63" y="162.0332">Fleet manager accesses the fleet management system.</text><polygon fill="#181818" points="54,192.0859,44,196.0859,54,200.0859,50,196.0859" style="stroke:#181818;stroke-width:1.0;"/><line style="stroke:#181818;stroke-width:1.0;stroke-dasharray:2.0,2.0;" x1="48" x2="1322" y1="196.0859" y2="196.0859"/><text fill="#000000" font-family="sans-serif" font-size="13" font-weight="bold" lengthAdjust="spacing" textLength="9" x="60" y="191.3438">2</text><text fill="#000000" font-family="sans-serif" font-size="13" lengthAdjust="spacing" textLength="1238" x="73" y="191.3438">The system gives the FM the option to insert the range of kilometers needed for overhauling and the option to set a number of kms to warn the user when current kilometers are close to limit value</text><polygon fill="#181818" points="54,221.3965,44,225.3965,54,229.3965,50,225.3965" style="stroke:#181818;stroke-width:1.0;"/><line style="stroke:#181818;stroke-width:1.0;" x1="48" x2="1317" y1="225.3965" y2="225.3965"/><text fill="#000000" font-family="sans-serif" font-size="13" font-weight="bold" lengthAdjust="spacing" textLength="9" x="60" y="220.6543">3</text><text fill="#000000" font-family="sans-serif" font-size="13" lengthAdjust="spacing" textLength="435" x="73" y="220.6543">The system provides an option to view vehicles that need inspection.</text><polygon fill="#181818" points="1311,250.707,1321,254.707,1311,258.707,1315,254.707" style="stroke:#181818;stroke-width:1.0;"/><line style="stroke:#181818;stroke-width:1.0;stroke-dasharray:2.0,2.0;" x1="43" x2="1317" y1="254.707" y2="254.707"/><text fill="#000000" font-family="sans-serif" font-size="13" font-weight="bold" lengthAdjust="spacing" textLength="9" x="50" y="249.9648">4</text><text fill="#000000" font-family="sans-serif" font-size="13" lengthAdjust="spacing" textLength="241" x="63" y="249.9648">FM selects the vehicles for inspection.</text><polygon fill="#181818" points="54,280.0176,44,284.0176,54,288.0176,50,284.0176" style="stroke:#181818;stroke-width:1.0;"/><line style="stroke:#181818;stroke-width:1.0;" x1="48" x2="1317" y1="284.0176" y2="284.0176"/><text fill="#000000" font-family="sans-serif" font-size="13" font-weight="bold" lengthAdjust="spacing" textLength="9" x="60" y="279.2754">5</text><text fill="#000000" font-family="sans-serif" font-size="13" lengthAdjust="spacing" textLength="424" x="73" y="279.2754">The system displays selected vehicles&#8217; details (kms, plate, brand&#8230;)</text><polygon fill="#181818" points="1311,309.3281,1321,313.3281,1311,317.3281,1315,313.3281" style="stroke:#181818;stroke-width:1.0;"/><line style="stroke:#181818;stroke-width:1.0;stroke-dasharray:2.0,2.0;" x1="43" x2="1317" y1="313.3281" y2="313.3281"/><text fill="#000000" font-family="sans-serif" font-size="13" font-weight="bold" lengthAdjust="spacing" textLength="9" x="50" y="308.5859">6</text><text fill="#000000" font-family="sans-serif" font-size="13" lengthAdjust="spacing" textLength="524" x="63" y="308.5859">FM confirms (or not) the initialization of the overhaul process for selected vehicles.</text><polygon fill="#181818" points="54,338.6387,44,342.6387,54,346.6387,50,342.6387" style="stroke:#181818;stroke-width:1.0;"/><line style="stroke:#181818;stroke-width:1.0;" x1="48" x2="1317" y1="342.6387" y2="342.6387"/><text fill="#000000" font-family="sans-serif" font-size="13" font-weight="bold" lengthAdjust="spacing" textLength="9" x="60" y="337.8965">7</text><text fill="#000000" font-family="sans-serif" font-size="13" lengthAdjust="spacing" textLength="87" x="73" y="337.8965">confirms data</text><polygon fill="#181818" points="54,367.9492,44,371.9492,54,375.9492,50,371.9492" style="stroke:#181818;stroke-width:1.0;"/><line style="stroke:#181818;stroke-width:1.0;stroke-dasharray:2.0,2.0;" x1="48" x2="1322" y1="371.9492" y2="371.9492"/><text fill="#000000" font-family="sans-serif" font-size="13" font-weight="bold" lengthAdjust="spacing" textLength="9" x="60" y="367.207">8</text><text fill="#000000" font-family="sans-serif" font-size="13" lengthAdjust="spacing" textLength="170" x="73" y="367.207">displays operation success</text><!--SRC=[bLD1Zjim3Bpx5KHE2R3f0t9OeC0Yjw07zzWBLwPZ8ZBbbMW7wMc_iH_em_ObfUGaI7TR5D75WaZES8PqEh0C6B67FaXmNGmzWSQHgdID3EWEkATQJvuWabEKlRzDI1qsuSYoXnPzegfILakjJqcfXvfUHX97yCIup-dBkdvQmHg-UgKeg3mHV1Chmr63ZFqpHRix3H4MMq-aFsI7OXt41M22xQuoMcN70uh2OZFpbDXyBTKyeL9Ehi3ETWVhnqj76oYmqC-eWCvHIfH0EuBs9jIJ4QHIzAN0N74lH70-P-IraHZL1huRqbm8UzCtGriaVyAW70Gq04kYgEKncgaMQk70tcPWpYGGeeOQQCs8C57iSFJPP9Jc0qwoZX5cwmf6d_Bp4QEKpD5euDYHW1jZpA9kM30IE1yIvHBFFIjCw6q3igw6_Yhv8lUpsY66YHiJZ7BJuCHqX8awThvuWLh4PGC6MoZB-e-_UNv_371dehsLpivUeRDN7q7lrj1m6ZoUqfd2-hpWlx- -6PmY-mHBS_a1B57f0PvjVitxww_LtJ9Sa9QZ3MnfhKlGLH74mihe-ISM2sscPUBdBSWkvvKjSZyrUO_gAtk3YlUj-DMbC52SsqnZ-PF-mVyR]--></g></svg>