<?xml version="1.0" encoding="us-ascii" standalone="no"?><svg xmlns="http://www.w3.org/2000/svg" xmlns:xlink="http://www.w3.org/1999/xlink" contentStyleType="text/css" height="399px" preserveAspectRatio="none" style="width:822px;height:399px;background:#FFFFFF;" version="1.1" viewBox="0 0 822 399" width="822px" zoomAndPan="magnify"><defs/><g><text fill="#000000" font-family="sans-serif" font-size="14" font-weight="bold" lengthAdjust="spacing" textLength="363" x="228.5" y="28.5352">System Sequence Diagram (SSD) - Alternative One</text><rect fill="#FFFFFF" height="147.5527" style="stroke:#181818;stroke-width:1.0;" width="10" x="33" y="145.4648"/><rect fill="#FFFFFF" height="29.3105" style="stroke:#181818;stroke-width:1.0;" width="10" x="778" y="166.7754"/><rect fill="#FFFFFF" height="29.3105" style="stroke:#181818;stroke-width:1.0;" width="10" x="778" y="225.3965"/><rect fill="#FFFFFF" height="9" style="stroke:#181818;stroke-width:1.0;" width="10" x="778" y="284.0176"/><line style="stroke:#181818;stroke-width:0.5;stroke-dasharray:5.0,5.0;" x1="38" x2="38" y1="135.4648" y2="302.0176"/><line style="stroke:#181818;stroke-width:0.5;stroke-dasharray:5.0,5.0;" x1="783" x2="783" y1="135.4648" y2="302.0176"/><text fill="#000000" font-family="sans-serif" font-size="14" lengthAdjust="spacing" textLength="33" x="18.5" y="116.0234">Fleet</text><text fill="#000000" font-family="sans-serif" font-size="14" lengthAdjust="spacing" textLength="60" x="5" y="132.5117">Manager</text><ellipse cx="38" cy="50.9883" fill="#E3E3E3" rx="8" ry="8" style="stroke:#181818;stroke-width:0.5;"/><path d="M38,58.9883 L38,85.9883 M25,66.9883 L51,66.9883 M38,85.9883 L25,100.9883 M38,85.9883 L51,100.9883 " fill="none" style="stroke:#181818;stroke-width:0.5;"/><text fill="#000000" font-family="sans-serif" font-size="14" lengthAdjust="spacing" textLength="33" x="18.5" y="314.5527">Fleet</text><text fill="#000000" font-family="sans-serif" font-size="14" lengthAdjust="spacing" textLength="60" x="5" y="331.041">Manager</text><ellipse cx="38" cy="342.4941" fill="#E3E3E3" rx="8" ry="8" style="stroke:#181818;stroke-width:0.5;"/><path d="M38,350.4941 L38,377.4941 M25,358.4941 L51,358.4941 M38,377.4941 L25,392.4941 M38,377.4941 L51,392.4941 " fill="none" style="stroke:#181818;stroke-width:0.5;"/><rect fill="#E3E3E3" height="30.4883" rx="2.5" ry="2.5" style="stroke:#181818;stroke-width:0.5;" width="66" x="750" y="103.9766"/><text fill="#000000" font-family="sans-serif" font-size="14" lengthAdjust="spacing" textLength="52" x="757" y="124.5117">:System</text><rect fill="#E3E3E3" height="30.4883" rx="2.5" ry="2.5" style="stroke:#181818;stroke-width:0.5;" width="66" x="750" y="301.0176"/><text fill="#000000" font-family="sans-serif" font-size="14" lengthAdjust="spacing" textLength="52" x="757" y="321.5527">:System</text><rect fill="#FFFFFF" height="147.5527" style="stroke:#181818;stroke-width:1.0;" width="10" x="33" y="145.4648"/><rect fill="#FFFFFF" height="29.3105" style="stroke:#181818;stroke-width:1.0;" width="10" x="778" y="166.7754"/><rect fill="#FFFFFF" height="29.3105" style="stroke:#181818;stroke-width:1.0;" width="10" x="778" y="225.3965"/><rect fill="#FFFFFF" height="9" style="stroke:#181818;stroke-width:1.0;" width="10" x="778" y="284.0176"/><polygon fill="#181818" points="766,162.7754,776,166.7754,766,170.7754,770,166.7754" style="stroke:#181818;stroke-width:1.0;"/><line style="stroke:#181818;stroke-width:1.0;" x1="43" x2="772" y1="166.7754" y2="166.7754"/><text fill="#000000" font-family="sans-serif" font-size="13" font-weight="bold" lengthAdjust="spacing" textLength="9" x="50" y="162.0332">1</text><text fill="#000000" font-family="sans-serif" font-size="13" lengthAdjust="spacing" textLength="252" x="63" y="162.0332">Accesses the fleet management system.</text><polygon fill="#181818" points="54,192.0859,44,196.0859,54,200.0859,50,196.0859" style="stroke:#181818;stroke-width:1.0;"/><line style="stroke:#181818;stroke-width:1.0;" x1="48" x2="782" y1="196.0859" y2="196.0859"/><text fill="#000000" font-family="sans-serif" font-size="13" font-weight="bold" lengthAdjust="spacing" textLength="9" x="60" y="191.3438">2</text><text fill="#000000" font-family="sans-serif" font-size="13" lengthAdjust="spacing" textLength="516" x="73" y="191.3438">Provides the FM the option to insert the range of kilometers needed for check-up.</text><polygon fill="#181818" points="54,221.3965,44,225.3965,54,229.3965,50,225.3965" style="stroke:#181818;stroke-width:1.0;"/><line style="stroke:#181818;stroke-width:1.0;stroke-dasharray:2.0,2.0;" x1="48" x2="777" y1="225.3965" y2="225.3965"/><text fill="#000000" font-family="sans-serif" font-size="13" font-weight="bold" lengthAdjust="spacing" textLength="9" x="60" y="220.6543">3</text><text fill="#000000" font-family="sans-serif" font-size="13" lengthAdjust="spacing" textLength="703" x="73" y="220.6543">Provides the option to set a number of kms the user wants to be informed before reaching the overhauling limit</text><polygon fill="#181818" points="54,250.707,44,254.707,54,258.707,50,254.707" style="stroke:#181818;stroke-width:1.0;"/><line style="stroke:#181818;stroke-width:1.0;" x1="48" x2="782" y1="254.707" y2="254.707"/><text fill="#000000" font-family="sans-serif" font-size="13" font-weight="bold" lengthAdjust="spacing" textLength="9" x="60" y="249.9648">4</text><text fill="#000000" font-family="sans-serif" font-size="13" lengthAdjust="spacing" textLength="408" x="73" y="249.9648">Provides a list of vehicles (and all their info) that need check-up.</text><polygon fill="#181818" points="54,280.0176,44,284.0176,54,288.0176,50,284.0176" style="stroke:#181818;stroke-width:1.0;"/><line style="stroke:#181818;stroke-width:1.0;stroke-dasharray:2.0,2.0;" x1="48" x2="777" y1="284.0176" y2="284.0176"/><text fill="#000000" font-family="sans-serif" font-size="13" font-weight="bold" lengthAdjust="spacing" textLength="9" x="60" y="279.2754">5</text><text fill="#000000" font-family="sans-serif" font-size="13" lengthAdjust="spacing" textLength="172" x="73" y="279.2754">Displays operation success</text><!--SRC=[bL7BRi903BpdAonEvK0_W4Cb9CGDjLAklPYD8HRxIDTEAlw-tWrGL77fNk9unpFZMJbp731ZW91YSdrEWK3pI8tSRmPqPpnHgnTFaCafnfD_14YFNVhcU88ZUg6cKLQ3jXTH2j3IrqZH4MmPJmN-qhRR9QnWuvLoHEM9u3tQ68wQuXWEbArscZ8iTfv8F-CUepd82q21tRunMMN70qQ5nNhMgNTpMQTvGgK2Ri3ERW-hjvkZDMoS8n4Iq9xWM3GWL8b0HYaLzbe7xqmtwjAyyXYZyQxX8wU9kokRTSed3SefWYRWA9IrDhCbPrT7EBEte6rzWKZKKGT7szRrvCwhSPYLo-degVwZXwScVjN5LaEOKwtAOKQCPWg-BK0fg0EPJRCGpCc1h2WFZQulRrhv9iezZhxyUmwi_yy6RL2qM9YeP-UjzOAn0_I-I72k3fPMezPG_iJnZoYsB8F7YrWCbB4c8MDzyQUsVm00]--></g></svg>