<?xml version="1.0" encoding="us-ascii" standalone="no"?><svg xmlns="http://www.w3.org/2000/svg" xmlns:xlink="http://www.w3.org/1999/xlink" contentStyleType="text/css" height="1204px" preserveAspectRatio="none" style="width:1412px;height:1204px;background:#FFFFFF;" version="1.1" viewBox="0 0 1412 1204" width="1412px" zoomAndPan="magnify"><defs/><g><rect fill="#FFFFFF" height="1014.875" style="stroke:#181818;stroke-width:1.0;" width="10" x="82.5" y="91.2969"/><rect fill="#FFFFFF" height="70.4297" style="stroke:#181818;stroke-width:1.0;" width="10" x="403.5" y="112.4297"/><rect fill="#FFFFFF" height="361.5938" style="stroke:#181818;stroke-width:1.0;" width="10" x="403.5" y="211.9922"/><rect fill="#FFFFFF" height="29.1328" style="stroke:#181818;stroke-width:1.0;" width="10" x="403.5" y="602.7188"/><rect fill="#FFFFFF" height="44.2656" style="stroke:#181818;stroke-width:1.0;" width="10" x="403.5" y="660.9844"/><rect fill="#FFFFFF" height="371.7891" style="stroke:#181818;stroke-width:1.0;" width="10" x="403.5" y="734.3828"/><rect fill="#FFFFFF" height="288.1953" style="stroke:#181818;stroke-width:1.0;" width="10" x="715.5" y="241.125"/><rect fill="#FFFFFF" height="156.6641" style="stroke:#181818;stroke-width:1.0;" width="10" x="720.5" y="278.2578"/><rect fill="#FFFFFF" height="313.5234" style="stroke:#181818;stroke-width:1.0;" width="10" x="715.5" y="763.5156"/><rect fill="#FFFFFF" height="29.1328" style="stroke:#181818;stroke-width:1.0;" width="10" x="901.5" y="312.3906"/><rect fill="#FFFFFF" height="29.1328" style="stroke:#181818;stroke-width:1.0;" width="10" x="1018.5" y="370.6563"/><rect fill="#FFFFFF" height="29.1328" style="stroke:#181818;stroke-width:1.0;" width="10" x="1155" y="471.0547"/><rect fill="#FFFFFF" height="255.2578" style="stroke:#181818;stroke-width:1.0;" width="10" x="1155" y="792.6484"/><rect fill="#FFFFFF" height="124.3984" style="stroke:#181818;stroke-width:1.0;" width="10" x="1160" y="887.375"/><rect fill="#FFFFFF" height="40.1328" style="stroke:#181818;stroke-width:1.0;" width="10" x="1165" y="929.5078"/><line style="stroke:#181818;stroke-width:0.5;stroke-dasharray:5.0,5.0;" x1="87" x2="87" y1="81.2969" y2="1124.1719"/><line style="stroke:#181818;stroke-width:0.5;stroke-dasharray:5.0,5.0;" x1="408" x2="408" y1="81.2969" y2="1124.1719"/><line style="stroke:#181818;stroke-width:0.5;stroke-dasharray:5.0,5.0;" x1="720" x2="720" y1="151.0781" y2="1124.1719"/><line style="stroke:#181818;stroke-width:0.5;stroke-dasharray:5.0,5.0;" x1="906" x2="906" y1="81.2969" y2="1124.1719"/><line style="stroke:#181818;stroke-width:0.5;stroke-dasharray:5.0,5.0;" x1="1023" x2="1023" y1="81.2969" y2="1124.1719"/><line style="stroke:#181818;stroke-width:0.5;stroke-dasharray:5.0,5.0;" x1="1160" x2="1160" y1="81.2969" y2="1124.1719"/><line style="stroke:#181818;stroke-width:0.5;stroke-dasharray:5.0,5.0;" x1="1370" x2="1370" y1="839.4453" y2="1124.1719"/><text fill="#000000" font-family="sans-serif" font-size="14" lengthAdjust="spacing" textLength="159" x="5" y="77.9951">Vehicle Fleet Manager</text><ellipse cx="87.5" cy="13.5" fill="#E3E3E3" rx="8" ry="8" style="stroke:#181818;stroke-width:0.5;"/><path d="M87.5,21.5 L87.5,48.5 M74.5,29.5 L100.5,29.5 M87.5,48.5 L74.5,63.5 M87.5,48.5 L100.5,63.5 " fill="none" style="stroke:#181818;stroke-width:0.5;"/><text fill="#000000" font-family="sans-serif" font-size="14" lengthAdjust="spacing" textLength="159" x="5" y="1136.167">Vehicle Fleet Manager</text><ellipse cx="87.5" cy="1147.9688" fill="#E3E3E3" rx="8" ry="8" style="stroke:#181818;stroke-width:0.5;"/><path d="M87.5,1155.9688 L87.5,1182.9688 M74.5,1163.9688 L100.5,1163.9688 M87.5,1182.9688 L74.5,1197.9688 M87.5,1182.9688 L100.5,1197.9688 " fill="none" style="stroke:#181818;stroke-width:0.5;"/><rect fill="#E3E3E3" height="30.2969" rx="2.5" ry="2.5" style="stroke:#181818;stroke-width:0.5;" width="145" x="336" y="50"/><text fill="#000000" font-family="sans-serif" font-size="14" lengthAdjust="spacing" textLength="131" x="343" y="69.9951">:RegisterVehicleUI</text><rect fill="#E3E3E3" height="30.2969" rx="2.5" ry="2.5" style="stroke:#181818;stroke-width:0.5;" width="145" x="336" y="1123.1719"/><text fill="#000000" font-family="sans-serif" font-size="14" lengthAdjust="spacing" textLength="131" x="343" y="1143.167">:RegisterVehicleUI</text><rect fill="#E3E3E3" height="30.2969" rx="2.5" ry="2.5" style="stroke:#181818;stroke-width:0.5;" width="143" x="649" y="1123.1719"/><text fill="#000000" font-family="sans-serif" font-size="14" lengthAdjust="spacing" textLength="129" x="656" y="1143.167">:VehicleController</text><rect fill="#E3E3E3" height="30.2969" rx="2.5" ry="2.5" style="stroke:#181818;stroke-width:0.5;" width="107" x="853" y="50"/><text fill="#000000" font-family="sans-serif" font-size="14" lengthAdjust="spacing" textLength="93" x="860" y="69.9951">:Repositories</text><rect fill="#E3E3E3" height="30.2969" rx="2.5" ry="2.5" style="stroke:#181818;stroke-width:0.5;" width="107" x="853" y="1123.1719"/><text fill="#000000" font-family="sans-serif" font-size="14" lengthAdjust="spacing" textLength="93" x="860" y="1143.167">:Repositories</text><rect fill="#E3E3E3" height="46.5938" rx="2.5" ry="2.5" style="stroke:#181818;stroke-width:0.5;" width="107" x="970" y="33.7031"/><text fill="#000000" font-family="sans-serif" font-size="14" lengthAdjust="spacing" textLength="84" x="981.5" y="53.6982">repositories</text><text fill="#000000" font-family="sans-serif" font-size="14" lengthAdjust="spacing" textLength="93" x="977" y="69.9951">:Repositories</text><rect fill="#E3E3E3" height="46.5938" rx="2.5" ry="2.5" style="stroke:#181818;stroke-width:0.5;" width="107" x="970" y="1123.1719"/><text fill="#000000" font-family="sans-serif" font-size="14" lengthAdjust="spacing" textLength="84" x="981.5" y="1143.167">repositories</text><text fill="#000000" font-family="sans-serif" font-size="14" lengthAdjust="spacing" textLength="93" x="977" y="1159.4639">:Repositories</text><rect fill="#E3E3E3" height="46.5938" rx="2.5" ry="2.5" style="stroke:#181818;stroke-width:0.5;" width="146" x="1087" y="33.7031"/><text fill="#000000" font-family="sans-serif" font-size="14" lengthAdjust="spacing" textLength="132" x="1094" y="53.6982">vehicleRepository:</text><text fill="#000000" font-family="sans-serif" font-size="14" lengthAdjust="spacing" textLength="129" x="1095.5" y="69.9951">VehicleRepository</text><rect fill="#E3E3E3" height="46.5938" rx="2.5" ry="2.5" style="stroke:#181818;stroke-width:0.5;" width="146" x="1087" y="1123.1719"/><text fill="#000000" font-family="sans-serif" font-size="14" lengthAdjust="spacing" textLength="132" x="1094" y="1143.167">vehicleRepository:</text><text fill="#000000" font-family="sans-serif" font-size="14" lengthAdjust="spacing" textLength="129" x="1095.5" y="1159.4639">VehicleRepository</text><rect fill="#E3E3E3" height="46.5938" rx="2.5" ry="2.5" style="stroke:#181818;stroke-width:0.5;" width="72" x="1334" y="1123.1719"/><text fill="#000000" font-family="sans-serif" font-size="14" lengthAdjust="spacing" textLength="51" x="1344.5" y="1143.167">vehicle</text><text fill="#000000" font-family="sans-serif" font-size="14" lengthAdjust="spacing" textLength="58" x="1341" y="1159.4639">:Vehicle</text><rect fill="#FFFFFF" height="1014.875" style="stroke:#181818;stroke-width:1.0;" width="10" x="82.5" y="91.2969"/><rect fill="#FFFFFF" height="70.4297" style="stroke:#181818;stroke-width:1.0;" width="10" x="403.5" y="112.4297"/><rect fill="#FFFFFF" height="361.5938" style="stroke:#181818;stroke-width:1.0;" width="10" x="403.5" y="211.9922"/><rect fill="#FFFFFF" height="29.1328" style="stroke:#181818;stroke-width:1.0;" width="10" x="403.5" y="602.7188"/><rect fill="#FFFFFF" height="44.2656" style="stroke:#181818;stroke-width:1.0;" width="10" x="403.5" y="660.9844"/><rect fill="#FFFFFF" height="371.7891" style="stroke:#181818;stroke-width:1.0;" width="10" x="403.5" y="734.3828"/><rect fill="#FFFFFF" height="288.1953" style="stroke:#181818;stroke-width:1.0;" width="10" x="715.5" y="241.125"/><rect fill="#FFFFFF" height="156.6641" style="stroke:#181818;stroke-width:1.0;" width="10" x="720.5" y="278.2578"/><rect fill="#FFFFFF" height="313.5234" style="stroke:#181818;stroke-width:1.0;" width="10" x="715.5" y="763.5156"/><rect fill="#FFFFFF" height="29.1328" style="stroke:#181818;stroke-width:1.0;" width="10" x="901.5" y="312.3906"/><rect fill="#FFFFFF" height="29.1328" style="stroke:#181818;stroke-width:1.0;" width="10" x="1018.5" y="370.6563"/><rect fill="#FFFFFF" height="29.1328" style="stroke:#181818;stroke-width:1.0;" width="10" x="1155" y="471.0547"/><rect fill="#FFFFFF" height="255.2578" style="stroke:#181818;stroke-width:1.0;" width="10" x="1155" y="792.6484"/><rect fill="#FFFFFF" height="124.3984" style="stroke:#181818;stroke-width:1.0;" width="10" x="1160" y="887.375"/><rect fill="#FFFFFF" height="40.1328" style="stroke:#181818;stroke-width:1.0;" width="10" x="1165" y="929.5078"/><polygon fill="#181818" points="391.5,108.4297,401.5,112.4297,391.5,116.4297,395.5,112.4297" style="stroke:#181818;stroke-width:1.0;"/><line style="stroke:#181818;stroke-width:1.0;" x1="92.5" x2="397.5" y1="112.4297" y2="112.4297"/><text fill="#000000" font-family="sans-serif" font-size="13" font-weight="bold" lengthAdjust="spacing" textLength="9" x="99.5" y="107.3638">1</text><text fill="#000000" font-family="sans-serif" font-size="13" lengthAdjust="spacing" textLength="195" x="112.5" y="107.3638">asks to register a new vehicle</text><polygon fill="#181818" points="637,137.5625,647,141.5625,637,145.5625,641,141.5625" style="stroke:#181818;stroke-width:1.0;"/><line style="stroke:#181818;stroke-width:1.0;" x1="413.5" x2="643" y1="141.5625" y2="141.5625"/><text fill="#000000" font-family="sans-serif" font-size="13" font-weight="bold" lengthAdjust="spacing" textLength="9" x="420.5" y="136.4966">2</text><text fill="#000000" font-family="sans-serif" font-size="13" lengthAdjust="spacing" textLength="41" x="433.5" y="136.4966">create</text><rect fill="#E3E3E3" height="30.2969" rx="2.5" ry="2.5" style="stroke:#181818;stroke-width:0.5;" width="143" x="649" y="120.4297"/><text fill="#000000" font-family="sans-serif" font-size="14" lengthAdjust="spacing" textLength="129" x="656" y="140.4248">:VehicleController</text><polygon fill="#181818" points="103.5,178.8594,93.5,182.8594,103.5,186.8594,99.5,182.8594" style="stroke:#181818;stroke-width:1.0;"/><line style="stroke:#181818;stroke-width:1.0;stroke-dasharray:2.0,2.0;" x1="97.5" x2="407.5" y1="182.8594" y2="182.8594"/><text fill="#000000" font-family="sans-serif" font-size="13" font-weight="bold" lengthAdjust="spacing" textLength="9" x="109.5" y="177.7935">3</text><text fill="#000000" font-family="sans-serif" font-size="13" lengthAdjust="spacing" textLength="249" x="122.5" y="177.7935">request data (plateID, brand, model...)</text><polygon fill="#181818" points="391.5,207.9922,401.5,211.9922,391.5,215.9922,395.5,211.9922" style="stroke:#181818;stroke-width:1.0;"/><line style="stroke:#181818;stroke-width:1.0;" x1="92.5" x2="397.5" y1="211.9922" y2="211.9922"/><text fill="#000000" font-family="sans-serif" font-size="13" font-weight="bold" lengthAdjust="spacing" textLength="9" x="99.5" y="206.9263">4</text><text fill="#000000" font-family="sans-serif" font-size="13" lengthAdjust="spacing" textLength="138" x="112.5" y="206.9263">types requested data</text><polygon fill="#181818" points="703.5,237.125,713.5,241.125,703.5,245.125,707.5,241.125" style="stroke:#181818;stroke-width:1.0;"/><line style="stroke:#181818;stroke-width:1.0;" x1="413.5" x2="709.5" y1="241.125" y2="241.125"/><text fill="#000000" font-family="sans-serif" font-size="13" font-weight="bold" lengthAdjust="spacing" textLength="9" x="420.5" y="236.0591">5</text><text fill="#000000" font-family="sans-serif" font-size="13" lengthAdjust="spacing" textLength="83" x="433.5" y="236.0591">showTypes()</text><line style="stroke:#181818;stroke-width:1.0;" x1="725.5" x2="772.5" y1="265.2578" y2="265.2578"/><line style="stroke:#181818;stroke-width:1.0;" x1="772.5" x2="772.5" y1="265.2578" y2="278.2578"/><line style="stroke:#181818;stroke-width:1.0;" x1="731.5" x2="772.5" y1="278.2578" y2="278.2578"/><polygon fill="#181818" points="741.5,274.2578,731.5,278.2578,741.5,282.2578,737.5,278.2578" style="stroke:#181818;stroke-width:1.0;"/><text fill="#000000" font-family="sans-serif" font-size="13" font-weight="bold" lengthAdjust="spacing" textLength="9" x="737.5" y="260.1919">6</text><text fill="#000000" font-family="sans-serif" font-size="13" lengthAdjust="spacing" textLength="149" x="750.5" y="260.1919">getVehicleRepository()</text><polygon fill="#181818" points="889.5,308.3906,899.5,312.3906,889.5,316.3906,893.5,312.3906" style="stroke:#181818;stroke-width:1.0;"/><line style="stroke:#181818;stroke-width:1.0;" x1="730.5" x2="895.5" y1="312.3906" y2="312.3906"/><text fill="#000000" font-family="sans-serif" font-size="13" font-weight="bold" lengthAdjust="spacing" textLength="9" x="737.5" y="307.3247">7</text><text fill="#000000" font-family="sans-serif" font-size="13" lengthAdjust="spacing" textLength="86" x="750.5" y="307.3247">getInstance()</text><polygon fill="#181818" points="741.5,337.5234,731.5,341.5234,741.5,345.5234,737.5,341.5234" style="stroke:#181818;stroke-width:1.0;"/><line style="stroke:#181818;stroke-width:1.0;stroke-dasharray:2.0,2.0;" x1="735.5" x2="905.5" y1="341.5234" y2="341.5234"/><text fill="#000000" font-family="sans-serif" font-size="13" font-weight="bold" lengthAdjust="spacing" textLength="9" x="747.5" y="336.4575">8</text><text fill="#000000" font-family="sans-serif" font-size="13" lengthAdjust="spacing" textLength="77" x="760.5" y="336.4575">repositories</text><polygon fill="#181818" points="1006.5,366.6563,1016.5,370.6563,1006.5,374.6563,1010.5,370.6563" style="stroke:#181818;stroke-width:1.0;"/><line style="stroke:#181818;stroke-width:1.0;" x1="730.5" x2="1012.5" y1="370.6563" y2="370.6563"/><text fill="#000000" font-family="sans-serif" font-size="13" font-weight="bold" lengthAdjust="spacing" textLength="9" x="737.5" y="365.5903">9</text><text fill="#000000" font-family="sans-serif" font-size="13" lengthAdjust="spacing" textLength="149" x="750.5" y="365.5903">getVehicleRepository()</text><polygon fill="#181818" points="741.5,395.7891,731.5,399.7891,741.5,403.7891,737.5,399.7891" style="stroke:#181818;stroke-width:1.0;"/><line style="stroke:#181818;stroke-width:1.0;stroke-dasharray:2.0,2.0;" x1="735.5" x2="1022.5" y1="399.7891" y2="399.7891"/><text fill="#000000" font-family="sans-serif" font-size="13" font-weight="bold" lengthAdjust="spacing" textLength="18" x="747.5" y="394.7231">10</text><text fill="#000000" font-family="sans-serif" font-size="13" lengthAdjust="spacing" textLength="117" x="769.5" y="394.7231">vehicleRepository</text><line style="stroke:#181818;stroke-width:1.0;stroke-dasharray:2.0,2.0;" x1="730.5" x2="772.5" y1="433.9219" y2="433.9219"/><line style="stroke:#181818;stroke-width:1.0;stroke-dasharray:2.0,2.0;" x1="772.5" x2="772.5" y1="433.9219" y2="446.9219"/><line style="stroke:#181818;stroke-width:1.0;stroke-dasharray:2.0,2.0;" x1="725.5" x2="772.5" y1="446.9219" y2="446.9219"/><polygon fill="#181818" points="735.5,442.9219,725.5,446.9219,735.5,450.9219,731.5,446.9219" style="stroke:#181818;stroke-width:1.0;"/><text fill="#000000" font-family="sans-serif" font-size="13" font-weight="bold" lengthAdjust="spacing" textLength="18" x="737.5" y="428.856">11</text><text fill="#000000" font-family="sans-serif" font-size="13" lengthAdjust="spacing" textLength="117" x="759.5" y="428.856">vehicleRepository</text><polygon fill="#181818" points="1143,467.0547,1153,471.0547,1143,475.0547,1147,471.0547" style="stroke:#181818;stroke-width:1.0;"/><line style="stroke:#181818;stroke-width:1.0;" x1="725.5" x2="1149" y1="471.0547" y2="471.0547"/><text fill="#000000" font-family="sans-serif" font-size="13" font-weight="bold" lengthAdjust="spacing" textLength="18" x="732.5" y="465.9888">12</text><text fill="#000000" font-family="sans-serif" font-size="13" lengthAdjust="spacing" textLength="83" x="754.5" y="465.9888">showTypes()</text><polygon fill="#181818" points="736.5,496.1875,726.5,500.1875,736.5,504.1875,732.5,500.1875" style="stroke:#181818;stroke-width:1.0;"/><line style="stroke:#181818;stroke-width:1.0;stroke-dasharray:2.0,2.0;" x1="730.5" x2="1159" y1="500.1875" y2="500.1875"/><text fill="#000000" font-family="sans-serif" font-size="13" font-weight="bold" lengthAdjust="spacing" textLength="18" x="742.5" y="495.1216">13</text><text fill="#000000" font-family="sans-serif" font-size="13" lengthAdjust="spacing" textLength="39" x="764.5" y="495.1216">Types</text><polygon fill="#181818" points="424.5,525.3203,414.5,529.3203,424.5,533.3203,420.5,529.3203" style="stroke:#181818;stroke-width:1.0;"/><line style="stroke:#181818;stroke-width:1.0;stroke-dasharray:2.0,2.0;" x1="418.5" x2="719.5" y1="529.3203" y2="529.3203"/><text fill="#000000" font-family="sans-serif" font-size="13" font-weight="bold" lengthAdjust="spacing" textLength="18" x="430.5" y="524.2544">14</text><text fill="#000000" font-family="sans-serif" font-size="13" lengthAdjust="spacing" textLength="36" x="452.5" y="524.2544">types</text><polygon fill="#181818" points="103.5,569.5859,93.5,573.5859,103.5,577.5859,99.5,573.5859" style="stroke:#181818;stroke-width:1.0;"/><line style="stroke:#181818;stroke-width:1.0;stroke-dasharray:2.0,2.0;" x1="97.5" x2="407.5" y1="573.5859" y2="573.5859"/><text fill="#000000" font-family="sans-serif" font-size="13" font-weight="bold" lengthAdjust="spacing" textLength="18" x="109.5" y="560.9536">15</text><text fill="#000000" font-family="sans-serif" font-size="13" lengthAdjust="spacing" textLength="156" x="131.5" y="553.3872">shows types of vehicles</text><text fill="#000000" font-family="sans-serif" font-size="13" lengthAdjust="spacing" textLength="152" x="135.5" y="568.52">and request a selection</text><polygon fill="#181818" points="391.5,598.7188,401.5,602.7188,391.5,606.7188,395.5,602.7188" style="stroke:#181818;stroke-width:1.0;"/><line style="stroke:#181818;stroke-width:1.0;" x1="92.5" x2="397.5" y1="602.7188" y2="602.7188"/><text fill="#000000" font-family="sans-serif" font-size="13" font-weight="bold" lengthAdjust="spacing" textLength="18" x="99.5" y="597.6528">16</text><text fill="#000000" font-family="sans-serif" font-size="13" lengthAdjust="spacing" textLength="85" x="121.5" y="597.6528">Select a type</text><polygon fill="#181818" points="103.5,627.8516,93.5,631.8516,103.5,635.8516,99.5,631.8516" style="stroke:#181818;stroke-width:1.0;"/><line style="stroke:#181818;stroke-width:1.0;stroke-dasharray:2.0,2.0;" x1="97.5" x2="407.5" y1="631.8516" y2="631.8516"/><text fill="#000000" font-family="sans-serif" font-size="13" font-weight="bold" lengthAdjust="spacing" textLength="18" x="109.5" y="626.7856">17</text><text fill="#000000" font-family="sans-serif" font-size="13" lengthAdjust="spacing" textLength="265" x="131.5" y="626.7856">request data (tareWeight,grossWeight...)</text><polygon fill="#181818" points="391.5,656.9844,401.5,660.9844,391.5,664.9844,395.5,660.9844" style="stroke:#181818;stroke-width:1.0;"/><line style="stroke:#181818;stroke-width:1.0;" x1="92.5" x2="397.5" y1="660.9844" y2="660.9844"/><text fill="#000000" font-family="sans-serif" font-size="13" font-weight="bold" lengthAdjust="spacing" textLength="18" x="99.5" y="655.9185">18</text><text fill="#000000" font-family="sans-serif" font-size="13" lengthAdjust="spacing" textLength="138" x="121.5" y="655.9185">types requested data</text><polygon fill="#181818" points="103.5,701.25,93.5,705.25,103.5,709.25,99.5,705.25" style="stroke:#181818;stroke-width:1.0;"/><line style="stroke:#181818;stroke-width:1.0;stroke-dasharray:2.0,2.0;" x1="97.5" x2="407.5" y1="705.25" y2="705.25"/><text fill="#000000" font-family="sans-serif" font-size="13" font-weight="bold" lengthAdjust="spacing" textLength="18" x="109.5" y="692.6177">19</text><text fill="#000000" font-family="sans-serif" font-size="13" lengthAdjust="spacing" textLength="157" x="131.5" y="685.0513">show all data registered</text><text fill="#000000" font-family="sans-serif" font-size="13" lengthAdjust="spacing" textLength="177" x="135.5" y="700.1841">and the confirmation menu</text><polygon fill="#181818" points="391.5,730.3828,401.5,734.3828,391.5,738.3828,395.5,734.3828" style="stroke:#181818;stroke-width:1.0;"/><line style="stroke:#181818;stroke-width:1.0;" x1="92.5" x2="397.5" y1="734.3828" y2="734.3828"/><text fill="#000000" font-family="sans-serif" font-size="13" font-weight="bold" lengthAdjust="spacing" textLength="18" x="99.5" y="729.3169">20</text><text fill="#000000" font-family="sans-serif" font-size="13" lengthAdjust="spacing" textLength="85" x="121.5" y="729.3169">submits data</text><polygon fill="#181818" points="703.5,759.5156,713.5,763.5156,703.5,767.5156,707.5,763.5156" style="stroke:#181818;stroke-width:1.0;"/><line style="stroke:#181818;stroke-width:1.0;" x1="413.5" x2="709.5" y1="763.5156" y2="763.5156"/><text fill="#000000" font-family="sans-serif" font-size="13" font-weight="bold" lengthAdjust="spacing" textLength="18" x="420.5" y="758.4497">21</text><text fill="#000000" font-family="sans-serif" font-size="13" lengthAdjust="spacing" textLength="261" x="442.5" y="758.4497">registerVehicle(plateID, brand, model...)</text><polygon fill="#181818" points="1143,788.6484,1153,792.6484,1143,796.6484,1147,792.6484" style="stroke:#181818;stroke-width:1.0;"/><line style="stroke:#181818;stroke-width:1.0;" x1="725.5" x2="1149" y1="792.6484" y2="792.6484"/><text fill="#000000" font-family="sans-serif" font-size="13" font-weight="bold" lengthAdjust="spacing" textLength="18" x="732.5" y="787.5825">22</text><text fill="#000000" font-family="sans-serif" font-size="13" lengthAdjust="spacing" textLength="261" x="754.5" y="787.5825">registerVehicle(plateID, brand, model...)</text><polygon fill="#181818" points="1322,817.7813,1332,821.7813,1322,825.7813,1326,821.7813" style="stroke:#181818;stroke-width:1.0;"/><line style="stroke:#181818;stroke-width:1.0;" x1="1165" x2="1328" y1="821.7813" y2="821.7813"/><text fill="#000000" font-family="sans-serif" font-size="13" font-weight="bold" lengthAdjust="spacing" textLength="18" x="1172" y="816.7153">23</text><text fill="#000000" font-family="sans-serif" font-size="13" lengthAdjust="spacing" textLength="41" x="1194" y="816.7153">create</text><rect fill="#E3E3E3" height="46.5938" rx="2.5" ry="2.5" style="stroke:#181818;stroke-width:0.5;" width="72" x="1334" y="800.6484"/><text fill="#000000" font-family="sans-serif" font-size="14" lengthAdjust="spacing" textLength="51" x="1344.5" y="820.6436">vehicle</text><text fill="#000000" font-family="sans-serif" font-size="14" lengthAdjust="spacing" textLength="58" x="1341" y="836.9404">:Vehicle</text><line style="stroke:#181818;stroke-width:1.0;" x1="1170" x2="1212" y1="879.375" y2="879.375"/><line style="stroke:#181818;stroke-width:1.0;" x1="1212" x2="1212" y1="879.375" y2="892.375"/><line style="stroke:#181818;stroke-width:1.0;" x1="1171" x2="1212" y1="892.375" y2="892.375"/><polygon fill="#181818" points="1181,888.375,1171,892.375,1181,896.375,1177,892.375" style="stroke:#181818;stroke-width:1.0;"/><text fill="#000000" font-family="sans-serif" font-size="13" font-weight="bold" lengthAdjust="spacing" textLength="18" x="1177" y="874.3091">24</text><text fill="#000000" font-family="sans-serif" font-size="13" lengthAdjust="spacing" textLength="130" x="1199" y="874.3091">addVehicle(Vehicle)</text><line style="stroke:#181818;stroke-width:1.0;" x1="1170" x2="1217" y1="916.5078" y2="916.5078"/><line style="stroke:#181818;stroke-width:1.0;" x1="1217" x2="1217" y1="916.5078" y2="929.5078"/><line style="stroke:#181818;stroke-width:1.0;" x1="1176" x2="1217" y1="929.5078" y2="929.5078"/><polygon fill="#181818" points="1186,925.5078,1176,929.5078,1186,933.5078,1182,929.5078" style="stroke:#181818;stroke-width:1.0;"/><text fill="#000000" font-family="sans-serif" font-size="13" font-weight="bold" lengthAdjust="spacing" textLength="18" x="1182" y="911.4419">25</text><text fill="#000000" font-family="sans-serif" font-size="13" lengthAdjust="spacing" textLength="159" x="1204" y="911.4419">validateVehicle(Vehicle)</text><line style="stroke:#181818;stroke-width:1.0;stroke-dasharray:2.0,2.0;" x1="1175" x2="1217" y1="968.6406" y2="968.6406"/><line style="stroke:#181818;stroke-width:1.0;stroke-dasharray:2.0,2.0;" x1="1217" x2="1217" y1="968.6406" y2="981.6406"/><line style="stroke:#181818;stroke-width:1.0;stroke-dasharray:2.0,2.0;" x1="1170" x2="1217" y1="981.6406" y2="981.6406"/><polygon fill="#181818" points="1180,977.6406,1170,981.6406,1180,985.6406,1176,981.6406" style="stroke:#181818;stroke-width:1.0;"/><text fill="#000000" font-family="sans-serif" font-size="13" font-weight="bold" lengthAdjust="spacing" textLength="18" x="1182" y="963.5747">26</text><text fill="#000000" font-family="sans-serif" font-size="13" lengthAdjust="spacing" textLength="4" x="1204" y="963.5747">&#160;</text><line style="stroke:#181818;stroke-width:1.0;stroke-dasharray:2.0,2.0;" x1="1170" x2="1212" y1="1010.7734" y2="1010.7734"/><line style="stroke:#181818;stroke-width:1.0;stroke-dasharray:2.0,2.0;" x1="1212" x2="1212" y1="1010.7734" y2="1023.7734"/><line style="stroke:#181818;stroke-width:1.0;stroke-dasharray:2.0,2.0;" x1="1165" x2="1212" y1="1023.7734" y2="1023.7734"/><polygon fill="#181818" points="1175,1019.7734,1165,1023.7734,1175,1027.7734,1171,1023.7734" style="stroke:#181818;stroke-width:1.0;"/><text fill="#000000" font-family="sans-serif" font-size="13" font-weight="bold" lengthAdjust="spacing" textLength="18" x="1177" y="1005.7075">27</text><text fill="#000000" font-family="sans-serif" font-size="13" lengthAdjust="spacing" textLength="4" x="1199" y="1005.7075">&#160;</text><polygon fill="#181818" points="736.5,1043.9063,726.5,1047.9063,736.5,1051.9063,732.5,1047.9063" style="stroke:#181818;stroke-width:1.0;"/><line style="stroke:#181818;stroke-width:1.0;stroke-dasharray:2.0,2.0;" x1="730.5" x2="1159" y1="1047.9063" y2="1047.9063"/><text fill="#000000" font-family="sans-serif" font-size="13" font-weight="bold" lengthAdjust="spacing" textLength="18" x="742.5" y="1042.8403">28</text><text fill="#000000" font-family="sans-serif" font-size="13" lengthAdjust="spacing" textLength="47" x="764.5" y="1042.8403">vehicle</text><polygon fill="#181818" points="424.5,1073.0391,414.5,1077.0391,424.5,1081.0391,420.5,1077.0391" style="stroke:#181818;stroke-width:1.0;"/><line style="stroke:#181818;stroke-width:1.0;stroke-dasharray:2.0,2.0;" x1="418.5" x2="719.5" y1="1077.0391" y2="1077.0391"/><text fill="#000000" font-family="sans-serif" font-size="13" font-weight="bold" lengthAdjust="spacing" textLength="18" x="430.5" y="1071.9731">29</text><text fill="#000000" font-family="sans-serif" font-size="13" lengthAdjust="spacing" textLength="47" x="452.5" y="1071.9731">vehicle</text><polygon fill="#181818" points="98.5,1102.1719,88.5,1106.1719,98.5,1110.1719,94.5,1106.1719" style="stroke:#181818;stroke-width:1.0;"/><line style="stroke:#181818;stroke-width:1.0;stroke-dasharray:2.0,2.0;" x1="92.5" x2="407.5" y1="1106.1719" y2="1106.1719"/><text fill="#000000" font-family="sans-serif" font-size="13" font-weight="bold" lengthAdjust="spacing" textLength="18" x="104.5" y="1101.106">30</text><text fill="#000000" font-family="sans-serif" font-size="13" lengthAdjust="spacing" textLength="166" x="126.5" y="1101.106">shows operation success.</text><!--SRC=[lLR9RkCm3BthAuXUqWPfFg270aKN842B6NIRIo-ApDX2RSaZoUtqxuVUOZjI7ASOZ2vnRFBnaH8VPT-bohdX6MHQQP4OdI4uKo2psoyv5-yynYVtbI8O58whEEqRs8H7-bEg63OyjSWOBvnMHRP6mzWiaH72HcktrdyO5quRE7d5H0f2kqiH7JnmHVZc1BY5rxi7HgXE2fbpvU3auX5ZQHsQnkTbLTczh7RCci_NMZcZqxI1ktv-lFVmScqbqP1eAvljYwydMMP6t8SkfkVnfdo0d_TNpqEFZvfCXtpnfbvttrM-dcKGYA8sxdMHRbVNB_S_M5bE-S4TLcLZq2pw0-UNL2Au8Ejt2qxJljLL10uAFzkmdSyMYGhBPj1R17DEQ5St3mHdy7U1rbc8kEDmQd231fN01KHeXP6varej0AJQQ9Fn5DxKy8j3aIWfwClWTLGONZy9RTqPwnEO2OCbiselTvbTLg_dS-9MctKfDSJBQco9Dxppb2nNDmjO6wwY1Ht-2DFbSZaC7E6WAg7okgySRGkEKGKVhgbFcjnjeZ-VIuZJCz-hodT0gFBgl6Dqtg4w7QRGNoF0kwiD56YDEkvAMP81WIFX1Y53FJRgMQvGzFCc_N97kpOSXUfjuz4qsaAKBNvynGSbg5JYOCvLe2v9NnucPdeuMfrQTvgcX-g56HwbjbeUrA6ZxiVkG7sm7kaAaGM81H2znBiEPljI2sf9cOfjMbzlsb0q6e34PAiq72ocD2r9rOvLbQVAaH3A68VbP8_8EMxm5yeuSOlOQ6lhv_-dSeDw0K_JcbSxYJ1g2kOI9DLN6qa3ewmMPAWADaAlJyqMwqmsyuXD4rqpl51C60Oxnvs5LTaV-jy8TQWj-dQ1phXixmRpUJSGlKOEEWReyoXgcJU_Uu_EzagoL_-cwSjKQXyybRJdEChlcnpsgyuq_saoz2-Y7HTfL4cz6-5n-3rHxR36XaRWYabztOghph6-45A32u7MBbb03FhdZox0Vm40]--></g></svg>