<?xml version="1.0" encoding="us-ascii" standalone="no"?><svg xmlns="http://www.w3.org/2000/svg" xmlns:xlink="http://www.w3.org/1999/xlink" contentStyleType="text/css" height="751px" preserveAspectRatio="none" style="width:1057px;height:751px;background:#FFFFFF;" version="1.1" viewBox="0 0 1057 751" width="1057px" zoomAndPan="magnify"><defs/><g><!--class Vehicle--><g id="elem_Vehicle"><rect codeLine="11" fill="#F1F1F1" height="308.75" id="Vehicle" rx="2.5" ry="2.5" style="stroke:#181818;stroke-width:0.5;" width="381" x="432.5" y="436"/><ellipse cx="592.25" cy="452" fill="#ADD1B2" rx="11" ry="11" style="stroke:#181818;stroke-width:1.0;"/><path d="M595.2188,457.6406 Q594.6406,457.9375 594,458.0781 Q593.3594,458.2344 592.6563,458.2344 Q590.1563,458.2344 588.8281,456.5938 Q587.5156,454.9375 587.5156,451.8125 Q587.5156,448.6875 588.8281,447.0313 Q590.1563,445.375 592.6563,445.375 Q593.3594,445.375 594,445.5313 Q594.6563,445.6875 595.2188,445.9844 L595.2188,448.7031 Q594.5938,448.125 594,447.8594 Q593.4063,447.5781 592.7813,447.5781 Q591.4375,447.5781 590.75,448.6563 Q590.0625,449.7188 590.0625,451.8125 Q590.0625,453.9063 590.75,454.9844 Q591.4375,456.0469 592.7813,456.0469 Q593.4063,456.0469 594,455.7813 Q594.5938,455.5 595.2188,454.9219 L595.2188,457.6406 Z " fill="#000000"/><text fill="#000000" font-family="sans-serif" font-size="14" lengthAdjust="spacing" textLength="53" x="612.75" y="456.8467">Vehicle</text><line style="stroke:#181818;stroke-width:0.5;" x1="433.5" x2="812.5" y1="468" y2="468"/><text fill="#000000" font-family="sans-serif" font-size="14" lengthAdjust="spacing" textLength="102" x="438.5" y="484.9951">-String plateID</text><text fill="#000000" font-family="sans-serif" font-size="14" lengthAdjust="spacing" textLength="93" x="438.5" y="501.292">-String brand</text><text fill="#000000" font-family="sans-serif" font-size="14" lengthAdjust="spacing" textLength="96" x="438.5" y="517.5889">-String model</text><text fill="#000000" font-family="sans-serif" font-size="14" lengthAdjust="spacing" textLength="75" x="438.5" y="533.8857">-Type type</text><text fill="#000000" font-family="sans-serif" font-size="14" lengthAdjust="spacing" textLength="120" x="438.5" y="550.1826">-float tareWeight</text><text fill="#000000" font-family="sans-serif" font-size="14" lengthAdjust="spacing" textLength="129" x="438.5" y="566.4795">-float grossWeight</text><text fill="#000000" font-family="sans-serif" font-size="14" lengthAdjust="spacing" textLength="94" x="438.5" y="582.7764">-float millage</text><text fill="#000000" font-family="sans-serif" font-size="14" lengthAdjust="spacing" textLength="196" x="438.5" y="599.0732">-int maintenanceFrequency</text><text fill="#000000" font-family="sans-serif" font-size="14" lengthAdjust="spacing" textLength="132" x="438.5" y="615.3701">-Data registerDate</text><text fill="#000000" font-family="sans-serif" font-size="14" lengthAdjust="spacing" textLength="154" x="438.5" y="631.667">-Data acquisitionDate</text><text fill="#000000" font-family="sans-serif" font-size="14" lengthAdjust="spacing" textLength="130" x="438.5" y="647.9639">-Data lastCheckup</text><line style="stroke:#181818;stroke-width:0.5;" x1="433.5" x2="812.5" y1="655.2656" y2="655.2656"/><text fill="#000000" font-family="sans-serif" font-size="14" lengthAdjust="spacing" textLength="102" x="438.5" y="672.2607">+ShowTypes()</text><text fill="#000000" font-family="sans-serif" font-size="14" lengthAdjust="spacing" textLength="350" x="438.5" y="688.5576">+Vehicle(plateID,brand, model, type, tareWeight,</text><text fill="#000000" font-family="sans-serif" font-size="14" lengthAdjust="spacing" textLength="369" x="438.5" y="704.8545">grossWeight, millage, registerDate, acquisitionDate,</text><text fill="#000000" font-family="sans-serif" font-size="14" lengthAdjust="spacing" textLength="269" x="438.5" y="721.1514">maintenanceFrequency, lastCheckup)</text><text fill="#000000" font-family="sans-serif" font-size="14" lengthAdjust="spacing" textLength="158" x="438.5" y="737.4482">-validatePlate(plateID)</text></g><!--class Data--><g id="elem_Data"><rect codeLine="29" fill="#F1F1F1" height="96.8906" id="Data" rx="2.5" ry="2.5" style="stroke:#181818;stroke-width:0.5;" width="79" x="318.5" y="542"/><ellipse cx="339.35" cy="558" fill="#ADD1B2" rx="11" ry="11" style="stroke:#181818;stroke-width:1.0;"/><path d="M342.3188,563.6406 Q341.7406,563.9375 341.1,564.0781 Q340.4594,564.2344 339.7563,564.2344 Q337.2563,564.2344 335.9281,562.5938 Q334.6156,560.9375 334.6156,557.8125 Q334.6156,554.6875 335.9281,553.0313 Q337.2563,551.375 339.7563,551.375 Q340.4594,551.375 341.1,551.5313 Q341.7563,551.6875 342.3188,551.9844 L342.3188,554.7031 Q341.6938,554.125 341.1,553.8594 Q340.5063,553.5781 339.8813,553.5781 Q338.5375,553.5781 337.85,554.6563 Q337.1625,555.7188 337.1625,557.8125 Q337.1625,559.9063 337.85,560.9844 Q338.5375,562.0469 339.8813,562.0469 Q340.5063,562.0469 341.1,561.7813 Q341.6938,561.5 342.3188,560.9219 L342.3188,563.6406 Z " fill="#000000"/><text fill="#000000" font-family="sans-serif" font-size="14" lengthAdjust="spacing" textLength="34" x="354.65" y="562.8467">Data</text><line style="stroke:#181818;stroke-width:0.5;" x1="319.5" x2="396.5" y1="574" y2="574"/><text fill="#000000" font-family="sans-serif" font-size="14" lengthAdjust="spacing" textLength="54" x="324.5" y="590.9951">-int ano</text><text fill="#000000" font-family="sans-serif" font-size="14" lengthAdjust="spacing" textLength="67" x="324.5" y="607.292">-Mes mes</text><text fill="#000000" font-family="sans-serif" font-size="14" lengthAdjust="spacing" textLength="49" x="324.5" y="623.5889">-int dia</text><line style="stroke:#181818;stroke-width:0.5;" x1="319.5" x2="396.5" y1="630.8906" y2="630.8906"/></g><!--class VehicleRepository--><g id="elem_VehicleRepository"><rect codeLine="37" fill="#F1F1F1" height="145.7813" id="VehicleRepository" rx="2.5" ry="2.5" style="stroke:#181818;stroke-width:0.5;" width="417" x="414.5" y="213"/><ellipse cx="554.25" cy="229" fill="#ADD1B2" rx="11" ry="11" style="stroke:#181818;stroke-width:1.0;"/><path d="M557.2188,234.6406 Q556.6406,234.9375 556,235.0781 Q555.3594,235.2344 554.6563,235.2344 Q552.1563,235.2344 550.8281,233.5938 Q549.5156,231.9375 549.5156,228.8125 Q549.5156,225.6875 550.8281,224.0313 Q552.1563,222.375 554.6563,222.375 Q555.3594,222.375 556,222.5313 Q556.6563,222.6875 557.2188,222.9844 L557.2188,225.7031 Q556.5938,225.125 556,224.8594 Q555.4063,224.5781 554.7813,224.5781 Q553.4375,224.5781 552.75,225.6563 Q552.0625,226.7188 552.0625,228.8125 Q552.0625,230.9063 552.75,231.9844 Q553.4375,233.0469 554.7813,233.0469 Q555.4063,233.0469 556,232.7813 Q556.5938,232.5 557.2188,231.9219 L557.2188,234.6406 Z " fill="#000000"/><text fill="#000000" font-family="sans-serif" font-size="14" lengthAdjust="spacing" textLength="129" x="574.75" y="233.8467">VehicleRepository</text><line style="stroke:#181818;stroke-width:0.5;" x1="415.5" x2="830.5" y1="245" y2="245"/><line style="stroke:#181818;stroke-width:0.5;" x1="415.5" x2="830.5" y1="253" y2="253"/><text fill="#000000" font-family="sans-serif" font-size="14" lengthAdjust="spacing" textLength="405" x="420.5" y="269.9951">+registerVehicle(plateID,brand, model, type, tareWeight,</text><text fill="#000000" font-family="sans-serif" font-size="14" lengthAdjust="spacing" textLength="369" x="420.5" y="286.292">grossWeight, millage, registerDate, acquisitionDate,</text><text fill="#000000" font-family="sans-serif" font-size="14" lengthAdjust="spacing" textLength="269" x="420.5" y="302.5889">maintenanceFrequency, lastCheckup)</text><text fill="#000000" font-family="sans-serif" font-size="14" lengthAdjust="spacing" textLength="102" x="420.5" y="318.8857">+ShowTypes()</text><text fill="#000000" font-family="sans-serif" font-size="14" lengthAdjust="spacing" textLength="146" x="420.5" y="335.1826">-addVehicle(vehicle)</text><text fill="#000000" font-family="sans-serif" font-size="14" lengthAdjust="spacing" textLength="176" x="420.5" y="351.4795">-validateVehicle(vehicle)</text></g><!--class Repositories--><g id="elem_Repositories"><rect codeLine="45" fill="#F1F1F1" height="96.8906" id="Repositories" rx="2.5" ry="2.5" style="stroke:#181818;stroke-width:0.5;" width="218" x="730" y="23"/><ellipse cx="790.75" cy="39" fill="#ADD1B2" rx="11" ry="11" style="stroke:#181818;stroke-width:1.0;"/><path d="M793.7188,44.6406 Q793.1406,44.9375 792.5,45.0781 Q791.8594,45.2344 791.1563,45.2344 Q788.6563,45.2344 787.3281,43.5938 Q786.0156,41.9375 786.0156,38.8125 Q786.0156,35.6875 787.3281,34.0313 Q788.6563,32.375 791.1563,32.375 Q791.8594,32.375 792.5,32.5313 Q793.1563,32.6875 793.7188,32.9844 L793.7188,35.7031 Q793.0938,35.125 792.5,34.8594 Q791.9063,34.5781 791.2813,34.5781 Q789.9375,34.5781 789.25,35.6563 Q788.5625,36.7188 788.5625,38.8125 Q788.5625,40.9063 789.25,41.9844 Q789.9375,43.0469 791.2813,43.0469 Q791.9063,43.0469 792.5,42.7813 Q793.0938,42.5 793.7188,41.9219 L793.7188,44.6406 Z " fill="#000000"/><text fill="#000000" font-family="sans-serif" font-size="14" lengthAdjust="spacing" textLength="88" x="811.25" y="43.8467">Repositories</text><line style="stroke:#181818;stroke-width:0.5;" x1="731" x2="947" y1="55" y2="55"/><line style="stroke:#181818;stroke-width:0.5;" x1="731" x2="947" y1="63" y2="63"/><text fill="#000000" font-family="sans-serif" font-size="14" lengthAdjust="spacing" textLength="103" x="736" y="79.9951">-Repositories()</text><text fill="#000000" font-family="sans-serif" font-size="14" lengthAdjust="spacing" textLength="206" x="736" y="96.292">+getInstance() : Repositories</text><text fill="#000000" font-family="sans-serif" font-size="14" lengthAdjust="spacing" textLength="174" x="736" y="112.5889">+getVehicleRepository()</text></g><!--class VehicleController--><g id="elem_VehicleController"><rect codeLine="51" fill="#F1F1F1" height="129.4844" id="VehicleController" rx="2.5" ry="2.5" style="stroke:#181818;stroke-width:0.5;" width="417" x="199.5" y="7"/><ellipse cx="341.75" cy="23" fill="#ADD1B2" rx="11" ry="11" style="stroke:#181818;stroke-width:1.0;"/><path d="M344.7188,28.6406 Q344.1406,28.9375 343.5,29.0781 Q342.8594,29.2344 342.1563,29.2344 Q339.6563,29.2344 338.3281,27.5938 Q337.0156,25.9375 337.0156,22.8125 Q337.0156,19.6875 338.3281,18.0313 Q339.6563,16.375 342.1563,16.375 Q342.8594,16.375 343.5,16.5313 Q344.1563,16.6875 344.7188,16.9844 L344.7188,19.7031 Q344.0938,19.125 343.5,18.8594 Q342.9063,18.5781 342.2813,18.5781 Q340.9375,18.5781 340.25,19.6563 Q339.5625,20.7188 339.5625,22.8125 Q339.5625,24.9063 340.25,25.9844 Q340.9375,27.0469 342.2813,27.0469 Q342.9063,27.0469 343.5,26.7813 Q344.0938,26.5 344.7188,25.9219 L344.7188,28.6406 Z " fill="#000000"/><text fill="#000000" font-family="sans-serif" font-size="14" lengthAdjust="spacing" textLength="124" x="362.25" y="27.8467">VehicleController</text><line style="stroke:#181818;stroke-width:0.5;" x1="200.5" x2="615.5" y1="39" y2="39"/><line style="stroke:#181818;stroke-width:0.5;" x1="200.5" x2="615.5" y1="47" y2="47"/><text fill="#000000" font-family="sans-serif" font-size="14" lengthAdjust="spacing" textLength="146" x="205.5" y="63.9951">+VehicleController()</text><text fill="#000000" font-family="sans-serif" font-size="14" lengthAdjust="spacing" textLength="102" x="205.5" y="80.292">+ShowTypes()</text><text fill="#000000" font-family="sans-serif" font-size="14" lengthAdjust="spacing" textLength="405" x="205.5" y="96.5889">+registerVehicle(plateID,brand, model, type, tareWeight,</text><text fill="#000000" font-family="sans-serif" font-size="14" lengthAdjust="spacing" textLength="369" x="205.5" y="112.8857">grossWeight, millage, registerDate, acquisitionDate,</text><text fill="#000000" font-family="sans-serif" font-size="14" lengthAdjust="spacing" textLength="269" x="205.5" y="129.1826">maintenanceFrequency, lastCheckup)</text></g><!--class RegisterVehicleUI--><g id="elem_RegisterVehicleUI"><rect codeLine="57" fill="#F1F1F1" height="48" id="RegisterVehicleUI" rx="2.5" ry="2.5" style="stroke:#181818;stroke-width:0.5;" width="158" x="7" y="47.5"/><ellipse cx="22" cy="63.5" fill="#ADD1B2" rx="11" ry="11" style="stroke:#181818;stroke-width:1.0;"/><path d="M24.9688,69.1406 Q24.3906,69.4375 23.75,69.5781 Q23.1094,69.7344 22.4063,69.7344 Q19.9063,69.7344 18.5781,68.0938 Q17.2656,66.4375 17.2656,63.3125 Q17.2656,60.1875 18.5781,58.5313 Q19.9063,56.875 22.4063,56.875 Q23.1094,56.875 23.75,57.0313 Q24.4063,57.1875 24.9688,57.4844 L24.9688,60.2031 Q24.3438,59.625 23.75,59.3594 Q23.1563,59.0781 22.5313,59.0781 Q21.1875,59.0781 20.5,60.1563 Q19.8125,61.2188 19.8125,63.3125 Q19.8125,65.4063 20.5,66.4844 Q21.1875,67.5469 22.5313,67.5469 Q23.1563,67.5469 23.75,67.2813 Q24.3438,67 24.9688,66.4219 L24.9688,69.1406 Z " fill="#000000"/><text fill="#000000" font-family="sans-serif" font-size="14" lengthAdjust="spacing" textLength="126" x="36" y="68.3467">RegisterVehicleUI</text><line style="stroke:#181818;stroke-width:0.5;" x1="8" x2="164" y1="79.5" y2="79.5"/><line style="stroke:#181818;stroke-width:0.5;" x1="8" x2="164" y1="87.5" y2="87.5"/></g><!--link RegisterVehicleUI to VehicleController--><g id="link_RegisterVehicleUI_VehicleController"><path codeLine="60" d="M165.13,71.5 C181.22,71.5 193.33,71.5 193.33,71.5 C193.33,71.5 189.58,71.5 193.41,71.5 " fill="none" id="RegisterVehicleUI-to-VehicleController" style="stroke:#181818;stroke-width:1.0;stroke-dasharray:7.0,7.0;"/><polygon fill="#181818" points="199.41,71.5,190.41,67.5,194.41,71.5,190.41,75.5,199.41,71.5" style="stroke:#181818;stroke-width:1.0;"/></g><!--link VehicleController to Repositories--><g id="link_VehicleController_Repositories"><path codeLine="62" d="M616.56,71.5 C655.77,71.5 689.29,71.5 723.92,71.5 " fill="none" id="VehicleController-to-Repositories" style="stroke:#181818;stroke-width:1.0;stroke-dasharray:7.0,7.0;"/><polygon fill="#181818" points="729.92,71.5,720.92,67.5,724.92,71.5,720.92,75.5,729.92,71.5" style="stroke:#181818;stroke-width:1.0;"/><text fill="#000000" font-family="sans-serif" font-size="13" lengthAdjust="spacing" textLength="77" x="634.75" y="64.5669">repositories</text></g><!--link Repositories to VehicleRepository--><g id="link_Repositories_VehicleRepository"><path codeLine="63" d="M790.53,120.19 C762.79,147.48 731.7069,178.0519 700.6369,208.6219 " fill="none" id="Repositories-to-VehicleRepository" style="stroke:#181818;stroke-width:1.0;"/><polygon fill="#181818" points="696.36,212.83,705.5808,209.3691,699.9241,209.3233,699.97,203.6666,696.36,212.83" style="stroke:#181818;stroke-width:1.0;"/><text fill="#000000" font-family="sans-serif" font-size="13" lengthAdjust="spacing" textLength="8" x="690.9908" y="201.9732">1</text></g><!--link Repositories to Repositories--><g id="link_Repositories_Repositories"><path codeLine="64" d="M948.26,53.36 C968.64,55.59 983,61.64 983,71.5 C983,81.36 974.6044,86.7574 954.2244,88.9874 " fill="none" id="Repositories-to-Repositories" style="stroke:#181818;stroke-width:1.0;"/><polygon fill="#181818" points="948.26,89.64,957.6417,92.6373,953.2303,89.0961,956.7715,84.6848,948.26,89.64" style="stroke:#181818;stroke-width:1.0;"/><text fill="#000000" font-family="sans-serif" font-size="13" lengthAdjust="spacing" textLength="55" x="989" y="76.0669">instance</text></g><!--link VehicleController to VehicleRepository--><g id="link_VehicleController_VehicleRepository"><path codeLine="66" d="M472.51,136.26 C496.87,160.34 520.5028,183.6921 545.6028,208.5021 " fill="none" id="VehicleController-to-VehicleRepository" style="stroke:#181818;stroke-width:1.0;stroke-dasharray:7.0,7.0;"/><polygon fill="#181818" points="549.87,212.72,546.2811,203.5483,546.314,209.2051,540.6572,209.2379,549.87,212.72" style="stroke:#181818;stroke-width:1.0;"/><text fill="#000000" font-family="sans-serif" font-size="13" lengthAdjust="spacing" textLength="117" x="517" y="179.0669">vehicleRepository</text></g><!--link VehicleRepository to Vehicle--><g id="link_VehicleRepository_Vehicle"><path codeLine="68" d="M623,359.07 C623,382.31 623,403.03 623,429.85 " fill="none" id="VehicleRepository-to-Vehicle" style="stroke:#181818;stroke-width:1.0;"/><polygon fill="#181818" points="623,435.85,627,426.85,623,430.85,619,426.85,623,435.85" style="stroke:#181818;stroke-width:1.0;"/><text fill="#000000" font-family="sans-serif" font-size="13" lengthAdjust="spacing" textLength="50" x="624" y="402.0669">register</text><text fill="#000000" font-family="sans-serif" font-size="13" lengthAdjust="spacing" textLength="8" x="614.8063" y="425.072">1</text></g><!--link Data to Vehicle--><g id="link_Data_Vehicle"><path codeLine="69" d="M397.52,590.5 C410.01,590.5 411.01,590.5 420.45,590.5 " fill="none" id="Data-to-Vehicle" style="stroke:#181818;stroke-width:1.0;"/><polygon fill="none" points="432.45,590.5,426.45,586.5,420.45,590.5,426.45,594.5,432.45,590.5" style="stroke:#181818;stroke-width:1.0;"/></g><!--SRC=[pPC_Rzim4CLtVWeYYsr4AjhLGu0YGG4F0OAuVvOk5-ai4QP8XQGSg46_Uqyo9PEckaU31Buxah_tIAtiKQWM33IyqKeNjT4DScSwP9TA2yKHAjoxNY8tM3XGbGmRR0sbVXEguWUGDgn8eT3rBV9MotuOiDL2KHkdWqc516k_EcV4I-TmLsYr5t-GVsOhYGV7dUP6LBNZfHXWX5QCdd4I_ucrA8ZodN5wShwdHGYhbK0BFSJYYm5LnbAZIvHU-ZwG3NX-V90QQ7Cm-0k7xIEvCjhQ1RqHKb9qNXEA5A0tAb05VZFusg4gUbz-00UKRoMiGqC337KeNZjXnM3tkaJEtNsDnR5hH_cMxslzDl3RzSOhFfYrJo8RpMTdmzbeCmkyPRzLu2YRR6GHNNRDHBEMt6KXuCQ3dq2AakOy3JmJrORzdKzoTFOU10TA-z4ZMjwW3Mgb01RCzMQViTL4fqtl5xgT-JzC70FMVmujvr2M4-Zf_BsEBobVGfZT2ufh2Z8KvxjHeTifwmRAzOPlewPBInBgUjmjIlnUAsUqb6Zcn9FAl6rwIJ_SwLmCFiTeFtPaa8gf_EakjSnOcW_rHIUq9TmWzgZ6y_oEttpXD-dDZXlpP57X3tOHWHWM_fKjFoMxiBJDGyrCeuDp6cpyUNCzbVu1]--></g></svg>