<?xml version="1.0" encoding="us-ascii" standalone="no"?><svg xmlns="http://www.w3.org/2000/svg" xmlns:xlink="http://www.w3.org/1999/xlink" contentStyleType="text/css" height="941px" preserveAspectRatio="none" style="width:1399px;height:941px;background:#FFFFFF;" version="1.1" viewBox="0 0 1399 941" width="1399px" zoomAndPan="magnify"><defs/><g><rect fill="#FFFFFF" height="751.5469" style="stroke:#181818;stroke-width:1.0;" width="10" x="82.5" y="91.2969"/><rect fill="#FFFFFF" height="70.4297" style="stroke:#181818;stroke-width:1.0;" width="10" x="399.5" y="112.4297"/><rect fill="#FFFFFF" height="29.1328" style="stroke:#181818;stroke-width:1.0;" width="10" x="399.5" y="211.9922"/><rect fill="#FFFFFF" height="572.5859" style="stroke:#181818;stroke-width:1.0;" width="10" x="399.5" y="270.2578"/><rect fill="#FFFFFF" height="514.3203" style="stroke:#181818;stroke-width:1.0;" width="10" x="702.5" y="299.3906"/><rect fill="#FFFFFF" height="156.6641" style="stroke:#181818;stroke-width:1.0;" width="10" x="707.5" y="336.5234"/><rect fill="#FFFFFF" height="29.1328" style="stroke:#181818;stroke-width:1.0;" width="10" x="888.5" y="370.6563"/><rect fill="#FFFFFF" height="29.1328" style="stroke:#181818;stroke-width:1.0;" width="10" x="1005.5" y="428.9219"/><rect fill="#FFFFFF" height="255.2578" style="stroke:#181818;stroke-width:1.0;" width="10" x="1142" y="529.3203"/><rect fill="#FFFFFF" height="124.3984" style="stroke:#181818;stroke-width:1.0;" width="10" x="1147" y="624.0469"/><rect fill="#FFFFFF" height="40.1328" style="stroke:#181818;stroke-width:1.0;" width="10" x="1152" y="666.1797"/><line style="stroke:#181818;stroke-width:0.5;stroke-dasharray:5.0,5.0;" x1="87" x2="87" y1="81.2969" y2="860.8438"/><line style="stroke:#181818;stroke-width:0.5;stroke-dasharray:5.0,5.0;" x1="404" x2="404" y1="81.2969" y2="860.8438"/><line style="stroke:#181818;stroke-width:0.5;stroke-dasharray:5.0,5.0;" x1="707.5" x2="707.5" y1="151.0781" y2="860.8438"/><line style="stroke:#181818;stroke-width:0.5;stroke-dasharray:5.0,5.0;" x1="893" x2="893" y1="81.2969" y2="860.8438"/><line style="stroke:#181818;stroke-width:0.5;stroke-dasharray:5.0,5.0;" x1="1010" x2="1010" y1="81.2969" y2="860.8438"/><line style="stroke:#181818;stroke-width:0.5;stroke-dasharray:5.0,5.0;" x1="1147" x2="1147" y1="81.2969" y2="860.8438"/><line style="stroke:#181818;stroke-width:0.5;stroke-dasharray:5.0,5.0;" x1="1357" x2="1357" y1="576.1172" y2="860.8438"/><text fill="#000000" font-family="sans-serif" font-size="14" lengthAdjust="spacing" textLength="159" x="5" y="77.9951">Vehicle Fleet Manager</text><ellipse cx="87.5" cy="13.5" fill="#E3E3E3" rx="8" ry="8" style="stroke:#181818;stroke-width:0.5;"/><path d="M87.5,21.5 L87.5,48.5 M74.5,29.5 L100.5,29.5 M87.5,48.5 L74.5,63.5 M87.5,48.5 L100.5,63.5 " fill="none" style="stroke:#181818;stroke-width:0.5;"/><text fill="#000000" font-family="sans-serif" font-size="14" lengthAdjust="spacing" textLength="159" x="5" y="872.8389">Vehicle Fleet Manager</text><ellipse cx="87.5" cy="884.6406" fill="#E3E3E3" rx="8" ry="8" style="stroke:#181818;stroke-width:0.5;"/><path d="M87.5,892.6406 L87.5,919.6406 M74.5,900.6406 L100.5,900.6406 M87.5,919.6406 L74.5,934.6406 M87.5,919.6406 L100.5,934.6406 " fill="none" style="stroke:#181818;stroke-width:0.5;"/><rect fill="#E3E3E3" height="30.2969" rx="2.5" ry="2.5" style="stroke:#181818;stroke-width:0.5;" width="145" x="332" y="50"/><text fill="#000000" font-family="sans-serif" font-size="14" lengthAdjust="spacing" textLength="131" x="339" y="69.9951">:RegisterVehicleUI</text><rect fill="#E3E3E3" height="30.2969" rx="2.5" ry="2.5" style="stroke:#181818;stroke-width:0.5;" width="145" x="332" y="859.8438"/><text fill="#000000" font-family="sans-serif" font-size="14" lengthAdjust="spacing" textLength="131" x="339" y="879.8389">:RegisterVehicleUI</text><rect fill="#E3E3E3" height="30.2969" rx="2.5" ry="2.5" style="stroke:#181818;stroke-width:0.5;" width="202" x="606.5" y="859.8438"/><text fill="#000000" font-family="sans-serif" font-size="14" lengthAdjust="spacing" textLength="188" x="613.5" y="879.8389">:RegisterVehicleController</text><rect fill="#E3E3E3" height="30.2969" rx="2.5" ry="2.5" style="stroke:#181818;stroke-width:0.5;" width="107" x="840" y="50"/><text fill="#000000" font-family="sans-serif" font-size="14" lengthAdjust="spacing" textLength="93" x="847" y="69.9951">:Repositories</text><rect fill="#E3E3E3" height="30.2969" rx="2.5" ry="2.5" style="stroke:#181818;stroke-width:0.5;" width="107" x="840" y="859.8438"/><text fill="#000000" font-family="sans-serif" font-size="14" lengthAdjust="spacing" textLength="93" x="847" y="879.8389">:Repositories</text><rect fill="#E3E3E3" height="46.5938" rx="2.5" ry="2.5" style="stroke:#181818;stroke-width:0.5;" width="107" x="957" y="33.7031"/><text fill="#000000" font-family="sans-serif" font-size="14" lengthAdjust="spacing" textLength="84" x="968.5" y="53.6982">repositories</text><text fill="#000000" font-family="sans-serif" font-size="14" lengthAdjust="spacing" textLength="93" x="964" y="69.9951">:Repositories</text><rect fill="#E3E3E3" height="46.5938" rx="2.5" ry="2.5" style="stroke:#181818;stroke-width:0.5;" width="107" x="957" y="859.8438"/><text fill="#000000" font-family="sans-serif" font-size="14" lengthAdjust="spacing" textLength="84" x="968.5" y="879.8389">repositories</text><text fill="#000000" font-family="sans-serif" font-size="14" lengthAdjust="spacing" textLength="93" x="964" y="896.1357">:Repositories</text><rect fill="#E3E3E3" height="46.5938" rx="2.5" ry="2.5" style="stroke:#181818;stroke-width:0.5;" width="146" x="1074" y="33.7031"/><text fill="#000000" font-family="sans-serif" font-size="14" lengthAdjust="spacing" textLength="132" x="1081" y="53.6982">vehicleRepository:</text><text fill="#000000" font-family="sans-serif" font-size="14" lengthAdjust="spacing" textLength="129" x="1082.5" y="69.9951">VehicleRepository</text><rect fill="#E3E3E3" height="46.5938" rx="2.5" ry="2.5" style="stroke:#181818;stroke-width:0.5;" width="146" x="1074" y="859.8438"/><text fill="#000000" font-family="sans-serif" font-size="14" lengthAdjust="spacing" textLength="132" x="1081" y="879.8389">vehicleRepository:</text><text fill="#000000" font-family="sans-serif" font-size="14" lengthAdjust="spacing" textLength="129" x="1082.5" y="896.1357">VehicleRepository</text><rect fill="#E3E3E3" height="46.5938" rx="2.5" ry="2.5" style="stroke:#181818;stroke-width:0.5;" width="72" x="1321" y="859.8438"/><text fill="#000000" font-family="sans-serif" font-size="14" lengthAdjust="spacing" textLength="51" x="1331.5" y="879.8389">vehicle</text><text fill="#000000" font-family="sans-serif" font-size="14" lengthAdjust="spacing" textLength="58" x="1328" y="896.1357">:Vehicle</text><rect fill="#FFFFFF" height="751.5469" style="stroke:#181818;stroke-width:1.0;" width="10" x="82.5" y="91.2969"/><rect fill="#FFFFFF" height="70.4297" style="stroke:#181818;stroke-width:1.0;" width="10" x="399.5" y="112.4297"/><rect fill="#FFFFFF" height="29.1328" style="stroke:#181818;stroke-width:1.0;" width="10" x="399.5" y="211.9922"/><rect fill="#FFFFFF" height="572.5859" style="stroke:#181818;stroke-width:1.0;" width="10" x="399.5" y="270.2578"/><rect fill="#FFFFFF" height="514.3203" style="stroke:#181818;stroke-width:1.0;" width="10" x="702.5" y="299.3906"/><rect fill="#FFFFFF" height="156.6641" style="stroke:#181818;stroke-width:1.0;" width="10" x="707.5" y="336.5234"/><rect fill="#FFFFFF" height="29.1328" style="stroke:#181818;stroke-width:1.0;" width="10" x="888.5" y="370.6563"/><rect fill="#FFFFFF" height="29.1328" style="stroke:#181818;stroke-width:1.0;" width="10" x="1005.5" y="428.9219"/><rect fill="#FFFFFF" height="255.2578" style="stroke:#181818;stroke-width:1.0;" width="10" x="1142" y="529.3203"/><rect fill="#FFFFFF" height="124.3984" style="stroke:#181818;stroke-width:1.0;" width="10" x="1147" y="624.0469"/><rect fill="#FFFFFF" height="40.1328" style="stroke:#181818;stroke-width:1.0;" width="10" x="1152" y="666.1797"/><polygon fill="#181818" points="387.5,108.4297,397.5,112.4297,387.5,116.4297,391.5,112.4297" style="stroke:#181818;stroke-width:1.0;"/><line style="stroke:#181818;stroke-width:1.0;" x1="92.5" x2="393.5" y1="112.4297" y2="112.4297"/><text fill="#000000" font-family="sans-serif" font-size="13" font-weight="bold" lengthAdjust="spacing" textLength="9" x="99.5" y="107.3638">1</text><text fill="#000000" font-family="sans-serif" font-size="13" lengthAdjust="spacing" textLength="195" x="112.5" y="107.3638">asks to register a new vehicle</text><polygon fill="#181818" points="594.5,137.5625,604.5,141.5625,594.5,145.5625,598.5,141.5625" style="stroke:#181818;stroke-width:1.0;"/><line style="stroke:#181818;stroke-width:1.0;" x1="409.5" x2="600.5" y1="141.5625" y2="141.5625"/><text fill="#000000" font-family="sans-serif" font-size="13" font-weight="bold" lengthAdjust="spacing" textLength="9" x="416.5" y="136.4966">2</text><text fill="#000000" font-family="sans-serif" font-size="13" lengthAdjust="spacing" textLength="41" x="429.5" y="136.4966">create</text><rect fill="#E3E3E3" height="30.2969" rx="2.5" ry="2.5" style="stroke:#181818;stroke-width:0.5;" width="202" x="606.5" y="120.4297"/><text fill="#000000" font-family="sans-serif" font-size="14" lengthAdjust="spacing" textLength="188" x="613.5" y="140.4248">:RegisterVehicleController</text><polygon fill="#181818" points="103.5,178.8594,93.5,182.8594,103.5,186.8594,99.5,182.8594" style="stroke:#181818;stroke-width:1.0;"/><line style="stroke:#181818;stroke-width:1.0;stroke-dasharray:2.0,2.0;" x1="97.5" x2="403.5" y1="182.8594" y2="182.8594"/><text fill="#000000" font-family="sans-serif" font-size="13" font-weight="bold" lengthAdjust="spacing" textLength="9" x="109.5" y="177.7935">3</text><text fill="#000000" font-family="sans-serif" font-size="13" lengthAdjust="spacing" textLength="249" x="122.5" y="177.7935">request data (plateID, brand, model...)</text><polygon fill="#181818" points="387.5,207.9922,397.5,211.9922,387.5,215.9922,391.5,211.9922" style="stroke:#181818;stroke-width:1.0;"/><line style="stroke:#181818;stroke-width:1.0;" x1="92.5" x2="393.5" y1="211.9922" y2="211.9922"/><text fill="#000000" font-family="sans-serif" font-size="13" font-weight="bold" lengthAdjust="spacing" textLength="9" x="99.5" y="206.9263">4</text><text fill="#000000" font-family="sans-serif" font-size="13" lengthAdjust="spacing" textLength="138" x="112.5" y="206.9263">types requested data</text><polygon fill="#181818" points="103.5,237.125,93.5,241.125,103.5,245.125,99.5,241.125" style="stroke:#181818;stroke-width:1.0;"/><line style="stroke:#181818;stroke-width:1.0;stroke-dasharray:2.0,2.0;" x1="97.5" x2="403.5" y1="241.125" y2="241.125"/><text fill="#000000" font-family="sans-serif" font-size="13" font-weight="bold" lengthAdjust="spacing" textLength="9" x="109.5" y="236.0591">5</text><text fill="#000000" font-family="sans-serif" font-size="13" lengthAdjust="spacing" textLength="270" x="122.5" y="236.0591">show all data registered  for confirmation</text><polygon fill="#181818" points="387.5,266.2578,397.5,270.2578,387.5,274.2578,391.5,270.2578" style="stroke:#181818;stroke-width:1.0;"/><line style="stroke:#181818;stroke-width:1.0;" x1="92.5" x2="393.5" y1="270.2578" y2="270.2578"/><text fill="#000000" font-family="sans-serif" font-size="13" font-weight="bold" lengthAdjust="spacing" textLength="9" x="99.5" y="265.1919">6</text><text fill="#000000" font-family="sans-serif" font-size="13" lengthAdjust="spacing" textLength="85" x="112.5" y="265.1919">submits data</text><polygon fill="#181818" points="690.5,295.3906,700.5,299.3906,690.5,303.3906,694.5,299.3906" style="stroke:#181818;stroke-width:1.0;"/><line style="stroke:#181818;stroke-width:1.0;" x1="409.5" x2="696.5" y1="299.3906" y2="299.3906"/><text fill="#000000" font-family="sans-serif" font-size="13" font-weight="bold" lengthAdjust="spacing" textLength="9" x="416.5" y="294.3247">7</text><text fill="#000000" font-family="sans-serif" font-size="13" lengthAdjust="spacing" textLength="261" x="429.5" y="294.3247">registerVehicle(plateID, brand, model...)</text><line style="stroke:#181818;stroke-width:1.0;" x1="712.5" x2="759.5" y1="323.5234" y2="323.5234"/><line style="stroke:#181818;stroke-width:1.0;" x1="759.5" x2="759.5" y1="323.5234" y2="336.5234"/><line style="stroke:#181818;stroke-width:1.0;" x1="718.5" x2="759.5" y1="336.5234" y2="336.5234"/><polygon fill="#181818" points="728.5,332.5234,718.5,336.5234,728.5,340.5234,724.5,336.5234" style="stroke:#181818;stroke-width:1.0;"/><text fill="#000000" font-family="sans-serif" font-size="13" font-weight="bold" lengthAdjust="spacing" textLength="9" x="724.5" y="318.4575">8</text><text fill="#000000" font-family="sans-serif" font-size="13" lengthAdjust="spacing" textLength="149" x="737.5" y="318.4575">getVehicleRepository()</text><polygon fill="#181818" points="876.5,366.6563,886.5,370.6563,876.5,374.6563,880.5,370.6563" style="stroke:#181818;stroke-width:1.0;"/><line style="stroke:#181818;stroke-width:1.0;" x1="717.5" x2="882.5" y1="370.6563" y2="370.6563"/><text fill="#000000" font-family="sans-serif" font-size="13" font-weight="bold" lengthAdjust="spacing" textLength="9" x="724.5" y="365.5903">9</text><text fill="#000000" font-family="sans-serif" font-size="13" lengthAdjust="spacing" textLength="86" x="737.5" y="365.5903">getInstance()</text><polygon fill="#181818" points="728.5,395.7891,718.5,399.7891,728.5,403.7891,724.5,399.7891" style="stroke:#181818;stroke-width:1.0;"/><line style="stroke:#181818;stroke-width:1.0;stroke-dasharray:2.0,2.0;" x1="722.5" x2="892.5" y1="399.7891" y2="399.7891"/><text fill="#000000" font-family="sans-serif" font-size="13" font-weight="bold" lengthAdjust="spacing" textLength="18" x="734.5" y="394.7231">10</text><text fill="#000000" font-family="sans-serif" font-size="13" lengthAdjust="spacing" textLength="77" x="756.5" y="394.7231">repositories</text><polygon fill="#181818" points="993.5,424.9219,1003.5,428.9219,993.5,432.9219,997.5,428.9219" style="stroke:#181818;stroke-width:1.0;"/><line style="stroke:#181818;stroke-width:1.0;" x1="717.5" x2="999.5" y1="428.9219" y2="428.9219"/><text fill="#000000" font-family="sans-serif" font-size="13" font-weight="bold" lengthAdjust="spacing" textLength="18" x="724.5" y="423.856">11</text><text fill="#000000" font-family="sans-serif" font-size="13" lengthAdjust="spacing" textLength="149" x="746.5" y="423.856">getVehicleRepository()</text><polygon fill="#181818" points="728.5,454.0547,718.5,458.0547,728.5,462.0547,724.5,458.0547" style="stroke:#181818;stroke-width:1.0;"/><line style="stroke:#181818;stroke-width:1.0;stroke-dasharray:2.0,2.0;" x1="722.5" x2="1009.5" y1="458.0547" y2="458.0547"/><text fill="#000000" font-family="sans-serif" font-size="13" font-weight="bold" lengthAdjust="spacing" textLength="18" x="734.5" y="452.9888">12</text><text fill="#000000" font-family="sans-serif" font-size="13" lengthAdjust="spacing" textLength="117" x="756.5" y="452.9888">vehicleRepository</text><line style="stroke:#181818;stroke-width:1.0;stroke-dasharray:2.0,2.0;" x1="717.5" x2="759.5" y1="492.1875" y2="492.1875"/><line style="stroke:#181818;stroke-width:1.0;stroke-dasharray:2.0,2.0;" x1="759.5" x2="759.5" y1="492.1875" y2="505.1875"/><line style="stroke:#181818;stroke-width:1.0;stroke-dasharray:2.0,2.0;" x1="712.5" x2="759.5" y1="505.1875" y2="505.1875"/><polygon fill="#181818" points="722.5,501.1875,712.5,505.1875,722.5,509.1875,718.5,505.1875" style="stroke:#181818;stroke-width:1.0;"/><text fill="#000000" font-family="sans-serif" font-size="13" font-weight="bold" lengthAdjust="spacing" textLength="18" x="724.5" y="487.1216">13</text><text fill="#000000" font-family="sans-serif" font-size="13" lengthAdjust="spacing" textLength="117" x="746.5" y="487.1216">vehicleRepository</text><polygon fill="#181818" points="1130,525.3203,1140,529.3203,1130,533.3203,1134,529.3203" style="stroke:#181818;stroke-width:1.0;"/><line style="stroke:#181818;stroke-width:1.0;" x1="712.5" x2="1136" y1="529.3203" y2="529.3203"/><text fill="#000000" font-family="sans-serif" font-size="13" font-weight="bold" lengthAdjust="spacing" textLength="18" x="719.5" y="524.2544">14</text><text fill="#000000" font-family="sans-serif" font-size="13" lengthAdjust="spacing" textLength="261" x="741.5" y="524.2544">registerVehicle(plateID, brand, model...)</text><polygon fill="#181818" points="1309,554.4531,1319,558.4531,1309,562.4531,1313,558.4531" style="stroke:#181818;stroke-width:1.0;"/><line style="stroke:#181818;stroke-width:1.0;" x1="1152" x2="1315" y1="558.4531" y2="558.4531"/><text fill="#000000" font-family="sans-serif" font-size="13" font-weight="bold" lengthAdjust="spacing" textLength="18" x="1159" y="553.3872">15</text><text fill="#000000" font-family="sans-serif" font-size="13" lengthAdjust="spacing" textLength="41" x="1181" y="553.3872">create</text><rect fill="#E3E3E3" height="46.5938" rx="2.5" ry="2.5" style="stroke:#181818;stroke-width:0.5;" width="72" x="1321" y="537.3203"/><text fill="#000000" font-family="sans-serif" font-size="14" lengthAdjust="spacing" textLength="51" x="1331.5" y="557.3154">vehicle</text><text fill="#000000" font-family="sans-serif" font-size="14" lengthAdjust="spacing" textLength="58" x="1328" y="573.6123">:Vehicle</text><line style="stroke:#181818;stroke-width:1.0;" x1="1157" x2="1199" y1="616.0469" y2="616.0469"/><line style="stroke:#181818;stroke-width:1.0;" x1="1199" x2="1199" y1="616.0469" y2="629.0469"/><line style="stroke:#181818;stroke-width:1.0;" x1="1158" x2="1199" y1="629.0469" y2="629.0469"/><polygon fill="#181818" points="1168,625.0469,1158,629.0469,1168,633.0469,1164,629.0469" style="stroke:#181818;stroke-width:1.0;"/><text fill="#000000" font-family="sans-serif" font-size="13" font-weight="bold" lengthAdjust="spacing" textLength="18" x="1164" y="610.981">16</text><text fill="#000000" font-family="sans-serif" font-size="13" lengthAdjust="spacing" textLength="130" x="1186" y="610.981">addVehicle(Vehicle)</text><line style="stroke:#181818;stroke-width:1.0;" x1="1157" x2="1204" y1="653.1797" y2="653.1797"/><line style="stroke:#181818;stroke-width:1.0;" x1="1204" x2="1204" y1="653.1797" y2="666.1797"/><line style="stroke:#181818;stroke-width:1.0;" x1="1163" x2="1204" y1="666.1797" y2="666.1797"/><polygon fill="#181818" points="1173,662.1797,1163,666.1797,1173,670.1797,1169,666.1797" style="stroke:#181818;stroke-width:1.0;"/><text fill="#000000" font-family="sans-serif" font-size="13" font-weight="bold" lengthAdjust="spacing" textLength="18" x="1169" y="648.1138">17</text><text fill="#000000" font-family="sans-serif" font-size="13" lengthAdjust="spacing" textLength="159" x="1191" y="648.1138">validateVehicle(Vehicle)</text><line style="stroke:#181818;stroke-width:1.0;stroke-dasharray:2.0,2.0;" x1="1162" x2="1204" y1="705.3125" y2="705.3125"/><line style="stroke:#181818;stroke-width:1.0;stroke-dasharray:2.0,2.0;" x1="1204" x2="1204" y1="705.3125" y2="718.3125"/><line style="stroke:#181818;stroke-width:1.0;stroke-dasharray:2.0,2.0;" x1="1157" x2="1204" y1="718.3125" y2="718.3125"/><polygon fill="#181818" points="1167,714.3125,1157,718.3125,1167,722.3125,1163,718.3125" style="stroke:#181818;stroke-width:1.0;"/><text fill="#000000" font-family="sans-serif" font-size="13" font-weight="bold" lengthAdjust="spacing" textLength="18" x="1169" y="700.2466">18</text><text fill="#000000" font-family="sans-serif" font-size="13" lengthAdjust="spacing" textLength="4" x="1191" y="700.2466">&#160;</text><line style="stroke:#181818;stroke-width:1.0;stroke-dasharray:2.0,2.0;" x1="1157" x2="1199" y1="747.4453" y2="747.4453"/><line style="stroke:#181818;stroke-width:1.0;stroke-dasharray:2.0,2.0;" x1="1199" x2="1199" y1="747.4453" y2="760.4453"/><line style="stroke:#181818;stroke-width:1.0;stroke-dasharray:2.0,2.0;" x1="1152" x2="1199" y1="760.4453" y2="760.4453"/><polygon fill="#181818" points="1162,756.4453,1152,760.4453,1162,764.4453,1158,760.4453" style="stroke:#181818;stroke-width:1.0;"/><text fill="#000000" font-family="sans-serif" font-size="13" font-weight="bold" lengthAdjust="spacing" textLength="18" x="1164" y="742.3794">19</text><text fill="#000000" font-family="sans-serif" font-size="13" lengthAdjust="spacing" textLength="4" x="1186" y="742.3794">&#160;</text><polygon fill="#181818" points="723.5,780.5781,713.5,784.5781,723.5,788.5781,719.5,784.5781" style="stroke:#181818;stroke-width:1.0;"/><line style="stroke:#181818;stroke-width:1.0;stroke-dasharray:2.0,2.0;" x1="717.5" x2="1146" y1="784.5781" y2="784.5781"/><text fill="#000000" font-family="sans-serif" font-size="13" font-weight="bold" lengthAdjust="spacing" textLength="18" x="729.5" y="779.5122">20</text><text fill="#000000" font-family="sans-serif" font-size="13" lengthAdjust="spacing" textLength="47" x="751.5" y="779.5122">vehicle</text><polygon fill="#181818" points="420.5,809.7109,410.5,813.7109,420.5,817.7109,416.5,813.7109" style="stroke:#181818;stroke-width:1.0;"/><line style="stroke:#181818;stroke-width:1.0;stroke-dasharray:2.0,2.0;" x1="414.5" x2="706.5" y1="813.7109" y2="813.7109"/><text fill="#000000" font-family="sans-serif" font-size="13" font-weight="bold" lengthAdjust="spacing" textLength="18" x="426.5" y="808.645">21</text><text fill="#000000" font-family="sans-serif" font-size="13" lengthAdjust="spacing" textLength="47" x="448.5" y="808.645">vehicle</text><polygon fill="#181818" points="98.5,838.8438,88.5,842.8438,98.5,846.8438,94.5,842.8438" style="stroke:#181818;stroke-width:1.0;"/><line style="stroke:#181818;stroke-width:1.0;stroke-dasharray:2.0,2.0;" x1="92.5" x2="403.5" y1="842.8438" y2="842.8438"/><text fill="#000000" font-family="sans-serif" font-size="13" font-weight="bold" lengthAdjust="spacing" textLength="18" x="104.5" y="837.7778">22</text><text fill="#000000" font-family="sans-serif" font-size="13" lengthAdjust="spacing" textLength="166" x="126.5" y="837.7778">shows operation success.</text><!--SRC=[fLPDRo8n3BtdLrXSw2BW1t2eLD6jX0JQLLiuSGaP0n53Cfi4klttw_bWPiA4uMDp0HBx-VavTh0xgH9k-1xsMccnDNgFuCm1cIrF4YvsV8CVxZj6C2WSLvkuRc2tFD9VKcrWpMEBZF63q-gmNw5XhBkL4S9QQxVIVnaNJXleB70h1Q6znOWEPbmHlka0jx1ucp52TLB8X2i7dT4xRgHrQ0gV-IIpcq_QpSPQEQFZk80TVxvF6mw9jfBeIBIPJRdn_I7J32a7tyNKF9Qg2V1x-lBfUnnpCXNoQAaMvtkPRyCo24HH2_TSh9-JyNpwYwMooYDtcCd7e5Zq0mRF91MCo7fdmMcgNouJS53uTGfR-PH8933hGcqHp83GNbvd16Vmpm6jin1nn-79u1eDAe5zYD0A8nCdjUe3IBNMPizZM2h_nA7OAYdenDkE3eRdtuIsxWUh4-WAWocph9Rdp9wpxLwFkELcLKe5yLIDadZ1Eud9SlBQXvNXAkfJ4qGO3uT3Ft24dYeXUTrtWlO4Zb467zOqJCjkzHVmECvvdOf4GDGvXhHGQqaofigm5bPrHlQmsikYGAp1eYbTfetNGZUeKs9cDM6UQXbe1Rv1rxZvJxxEzNM632th52ZGltdSYR8qimIsXFD2XWP1gsUwGj47HVgfjDMiQ8MgLVLk6YSXqZbql-AU1Daekvfp5gXAiZd3RipqUhGyjUestHwg5gOnEEehU7URy_k19l64RHBtx1h7AOjYpFTwrMnhf15q3D3dKNHYNdnUd7NbwtBnbjnMXLkf7NaiQLfXAxy7ELpW4IB2hjoYAnNytsZtHGf7yPk4iSVmovwRJogiMrkhUjtonys2JZ1_s-bf4WAj7RB0CrQ_V_HVvXy0]--></g></svg>