<?xml version="1.0" encoding="us-ascii" standalone="no"?><svg xmlns="http://www.w3.org/2000/svg" xmlns:xlink="http://www.w3.org/1999/xlink" contentStyleType="text/css" height="866px" preserveAspectRatio="none" style="width:1270px;height:866px;background:#FFFFFF;" version="1.1" viewBox="0 0 1270 866" width="1270px" zoomAndPan="magnify"><defs/><g><rect fill="#FFFFFF" height="676.1563" style="stroke:#181818;stroke-width:1.0;" width="10" x="82.5" y="91.2969"/><rect fill="#FFFFFF" height="70.4297" style="stroke:#181818;stroke-width:1.0;" width="10" x="403.5" y="112.4297"/><rect fill="#FFFFFF" height="204.8984" style="stroke:#181818;stroke-width:1.0;" width="10" x="403.5" y="211.9922"/><rect fill="#FFFFFF" height="29.1328" style="stroke:#181818;stroke-width:1.0;" width="10" x="403.5" y="446.0234"/><rect fill="#FFFFFF" height="44.2656" style="stroke:#181818;stroke-width:1.0;" width="10" x="403.5" y="504.2891"/><rect fill="#FFFFFF" height="189.7656" style="stroke:#181818;stroke-width:1.0;" width="10" x="403.5" y="577.6875"/><rect fill="#FFFFFF" height="131.5" style="stroke:#181818;stroke-width:1.0;" width="10" x="715.5" y="241.125"/><rect fill="#FFFFFF" height="131.5" style="stroke:#181818;stroke-width:1.0;" width="10" x="715.5" y="606.8203"/><rect fill="#FFFFFF" height="29.1328" style="stroke:#181818;stroke-width:1.0;" width="10" x="1104" y="314.3594"/><rect fill="#FFFFFF" height="73.2344" style="stroke:#181818;stroke-width:1.0;" width="10" x="1104" y="635.9531"/><line style="stroke:#181818;stroke-width:0.5;stroke-dasharray:5.0,5.0;" x1="87" x2="87" y1="81.2969" y2="785.4531"/><line style="stroke:#181818;stroke-width:0.5;stroke-dasharray:5.0,5.0;" x1="408" x2="408" y1="81.2969" y2="785.4531"/><line style="stroke:#181818;stroke-width:0.5;stroke-dasharray:5.0,5.0;" x1="720" x2="720" y1="151.0781" y2="785.4531"/><line style="stroke:#181818;stroke-width:0.5;stroke-dasharray:5.0,5.0;" x1="855" x2="855" y1="81.2969" y2="785.4531"/><line style="stroke:#181818;stroke-width:0.5;stroke-dasharray:5.0,5.0;" x1="972" x2="972" y1="81.2969" y2="785.4531"/><line style="stroke:#181818;stroke-width:0.5;stroke-dasharray:5.0,5.0;" x1="1109" x2="1109" y1="81.2969" y2="785.4531"/><line style="stroke:#181818;stroke-width:0.5;stroke-dasharray:5.0,5.0;" x1="1228" x2="1228" y1="81.2969" y2="785.4531"/><text fill="#000000" font-family="sans-serif" font-size="14" lengthAdjust="spacing" textLength="159" x="5" y="77.9951">Vehicle Fleet Manager</text><ellipse cx="87.5" cy="13.5" fill="#E3E3E3" rx="8" ry="8" style="stroke:#181818;stroke-width:0.5;"/><path d="M87.5,21.5 L87.5,48.5 M74.5,29.5 L100.5,29.5 M87.5,48.5 L74.5,63.5 M87.5,48.5 L100.5,63.5 " fill="none" style="stroke:#181818;stroke-width:0.5;"/><text fill="#000000" font-family="sans-serif" font-size="14" lengthAdjust="spacing" textLength="159" x="5" y="797.4482">Vehicle Fleet Manager</text><ellipse cx="87.5" cy="809.25" fill="#E3E3E3" rx="8" ry="8" style="stroke:#181818;stroke-width:0.5;"/><path d="M87.5,817.25 L87.5,844.25 M74.5,825.25 L100.5,825.25 M87.5,844.25 L74.5,859.25 M87.5,844.25 L100.5,859.25 " fill="none" style="stroke:#181818;stroke-width:0.5;"/><rect fill="#E3E3E3" height="30.2969" rx="2.5" ry="2.5" style="stroke:#181818;stroke-width:0.5;" width="145" x="336" y="50"/><text fill="#000000" font-family="sans-serif" font-size="14" lengthAdjust="spacing" textLength="131" x="343" y="69.9951">:RegisterVehicleUI</text><rect fill="#E3E3E3" height="30.2969" rx="2.5" ry="2.5" style="stroke:#181818;stroke-width:0.5;" width="145" x="336" y="784.4531"/><text fill="#000000" font-family="sans-serif" font-size="14" lengthAdjust="spacing" textLength="131" x="343" y="804.4482">:RegisterVehicleUI</text><rect fill="#E3E3E3" height="30.2969" rx="2.5" ry="2.5" style="stroke:#181818;stroke-width:0.5;" width="143" x="649" y="784.4531"/><text fill="#000000" font-family="sans-serif" font-size="14" lengthAdjust="spacing" textLength="129" x="656" y="804.4482">:VehicleController</text><rect fill="#E3E3E3" height="30.2969" rx="2.5" ry="2.5" style="stroke:#181818;stroke-width:0.5;" width="107" x="802" y="50"/><text fill="#000000" font-family="sans-serif" font-size="14" lengthAdjust="spacing" textLength="93" x="809" y="69.9951">:Repositories</text><rect fill="#E3E3E3" height="30.2969" rx="2.5" ry="2.5" style="stroke:#181818;stroke-width:0.5;" width="107" x="802" y="784.4531"/><text fill="#000000" font-family="sans-serif" font-size="14" lengthAdjust="spacing" textLength="93" x="809" y="804.4482">:Repositories</text><rect fill="#E3E3E3" height="46.5938" rx="2.5" ry="2.5" style="stroke:#181818;stroke-width:0.5;" width="107" x="919" y="33.7031"/><text fill="#000000" font-family="sans-serif" font-size="14" lengthAdjust="spacing" textLength="84" x="930.5" y="53.6982">repositories</text><text fill="#000000" font-family="sans-serif" font-size="14" lengthAdjust="spacing" textLength="93" x="926" y="69.9951">:Repositories</text><rect fill="#E3E3E3" height="46.5938" rx="2.5" ry="2.5" style="stroke:#181818;stroke-width:0.5;" width="107" x="919" y="784.4531"/><text fill="#000000" font-family="sans-serif" font-size="14" lengthAdjust="spacing" textLength="84" x="930.5" y="804.4482">repositories</text><text fill="#000000" font-family="sans-serif" font-size="14" lengthAdjust="spacing" textLength="93" x="926" y="820.7451">:Repositories</text><rect fill="#E3E3E3" height="46.5938" rx="2.5" ry="2.5" style="stroke:#181818;stroke-width:0.5;" width="146" x="1036" y="33.7031"/><text fill="#000000" font-family="sans-serif" font-size="14" lengthAdjust="spacing" textLength="132" x="1043" y="53.6982">vehicleRepository:</text><text fill="#000000" font-family="sans-serif" font-size="14" lengthAdjust="spacing" textLength="129" x="1044.5" y="69.9951">VehicleRepository</text><rect fill="#E3E3E3" height="46.5938" rx="2.5" ry="2.5" style="stroke:#181818;stroke-width:0.5;" width="146" x="1036" y="784.4531"/><text fill="#000000" font-family="sans-serif" font-size="14" lengthAdjust="spacing" textLength="132" x="1043" y="804.4482">vehicleRepository:</text><text fill="#000000" font-family="sans-serif" font-size="14" lengthAdjust="spacing" textLength="129" x="1044.5" y="820.7451">VehicleRepository</text><rect fill="#E3E3E3" height="46.5938" rx="2.5" ry="2.5" style="stroke:#181818;stroke-width:0.5;" width="72" x="1192" y="33.7031"/><text fill="#000000" font-family="sans-serif" font-size="14" lengthAdjust="spacing" textLength="51" x="1202.5" y="53.6982">vehicle</text><text fill="#000000" font-family="sans-serif" font-size="14" lengthAdjust="spacing" textLength="58" x="1199" y="69.9951">:Vehicle</text><rect fill="#E3E3E3" height="46.5938" rx="2.5" ry="2.5" style="stroke:#181818;stroke-width:0.5;" width="72" x="1192" y="784.4531"/><text fill="#000000" font-family="sans-serif" font-size="14" lengthAdjust="spacing" textLength="51" x="1202.5" y="804.4482">vehicle</text><text fill="#000000" font-family="sans-serif" font-size="14" lengthAdjust="spacing" textLength="58" x="1199" y="820.7451">:Vehicle</text><rect fill="#FFFFFF" height="676.1563" style="stroke:#181818;stroke-width:1.0;" width="10" x="82.5" y="91.2969"/><rect fill="#FFFFFF" height="70.4297" style="stroke:#181818;stroke-width:1.0;" width="10" x="403.5" y="112.4297"/><rect fill="#FFFFFF" height="204.8984" style="stroke:#181818;stroke-width:1.0;" width="10" x="403.5" y="211.9922"/><rect fill="#FFFFFF" height="29.1328" style="stroke:#181818;stroke-width:1.0;" width="10" x="403.5" y="446.0234"/><rect fill="#FFFFFF" height="44.2656" style="stroke:#181818;stroke-width:1.0;" width="10" x="403.5" y="504.2891"/><rect fill="#FFFFFF" height="189.7656" style="stroke:#181818;stroke-width:1.0;" width="10" x="403.5" y="577.6875"/><rect fill="#FFFFFF" height="131.5" style="stroke:#181818;stroke-width:1.0;" width="10" x="715.5" y="241.125"/><rect fill="#FFFFFF" height="131.5" style="stroke:#181818;stroke-width:1.0;" width="10" x="715.5" y="606.8203"/><rect fill="#FFFFFF" height="29.1328" style="stroke:#181818;stroke-width:1.0;" width="10" x="1104" y="314.3594"/><rect fill="#FFFFFF" height="73.2344" style="stroke:#181818;stroke-width:1.0;" width="10" x="1104" y="635.9531"/><polygon fill="#181818" points="391.5,108.4297,401.5,112.4297,391.5,116.4297,395.5,112.4297" style="stroke:#181818;stroke-width:1.0;"/><line style="stroke:#181818;stroke-width:1.0;" x1="92.5" x2="397.5" y1="112.4297" y2="112.4297"/><text fill="#000000" font-family="sans-serif" font-size="13" font-weight="bold" lengthAdjust="spacing" textLength="9" x="99.5" y="107.3638">1</text><text fill="#000000" font-family="sans-serif" font-size="13" lengthAdjust="spacing" textLength="195" x="112.5" y="107.3638">asks to register a new vehicle</text><polygon fill="#181818" points="637,137.5625,647,141.5625,637,145.5625,641,141.5625" style="stroke:#181818;stroke-width:1.0;"/><line style="stroke:#181818;stroke-width:1.0;" x1="413.5" x2="643" y1="141.5625" y2="141.5625"/><text fill="#000000" font-family="sans-serif" font-size="13" font-weight="bold" lengthAdjust="spacing" textLength="9" x="420.5" y="136.4966">2</text><text fill="#000000" font-family="sans-serif" font-size="13" lengthAdjust="spacing" textLength="41" x="433.5" y="136.4966">create</text><rect fill="#E3E3E3" height="30.2969" rx="2.5" ry="2.5" style="stroke:#181818;stroke-width:0.5;" width="143" x="649" y="120.4297"/><text fill="#000000" font-family="sans-serif" font-size="14" lengthAdjust="spacing" textLength="129" x="656" y="140.4248">:VehicleController</text><polygon fill="#181818" points="103.5,178.8594,93.5,182.8594,103.5,186.8594,99.5,182.8594" style="stroke:#181818;stroke-width:1.0;"/><line style="stroke:#181818;stroke-width:1.0;stroke-dasharray:2.0,2.0;" x1="97.5" x2="407.5" y1="182.8594" y2="182.8594"/><text fill="#000000" font-family="sans-serif" font-size="13" font-weight="bold" lengthAdjust="spacing" textLength="9" x="109.5" y="177.7935">3</text><text fill="#000000" font-family="sans-serif" font-size="13" lengthAdjust="spacing" textLength="249" x="122.5" y="177.7935">request data (plateID, brand, model...)</text><polygon fill="#181818" points="391.5,207.9922,401.5,211.9922,391.5,215.9922,395.5,211.9922" style="stroke:#181818;stroke-width:1.0;"/><line style="stroke:#181818;stroke-width:1.0;" x1="92.5" x2="397.5" y1="211.9922" y2="211.9922"/><text fill="#000000" font-family="sans-serif" font-size="13" font-weight="bold" lengthAdjust="spacing" textLength="9" x="99.5" y="206.9263">4</text><text fill="#000000" font-family="sans-serif" font-size="13" lengthAdjust="spacing" textLength="138" x="112.5" y="206.9263">types requested data</text><polygon fill="#181818" points="703.5,237.125,713.5,241.125,703.5,245.125,707.5,241.125" style="stroke:#181818;stroke-width:1.0;"/><line style="stroke:#181818;stroke-width:1.0;" x1="413.5" x2="709.5" y1="241.125" y2="241.125"/><text fill="#000000" font-family="sans-serif" font-size="13" font-weight="bold" lengthAdjust="spacing" textLength="9" x="420.5" y="236.0591">5</text><text fill="#000000" font-family="sans-serif" font-size="13" lengthAdjust="spacing" textLength="83" x="433.5" y="236.0591">showTypes()</text><rect fill="none" height="39.1016" style="stroke:#000000;stroke-width:1.5;" width="149" x="646" y="249.125"/><path d="M646,249.125 L712,249.125 L712,256.125 L702,266.125 L646,266.125 L646,249.125 " fill="#EEEEEE" style="stroke:#000000;stroke-width:2.0;"/><text fill="#000000" font-family="sans-serif" font-size="13" font-weight="bold" lengthAdjust="spacing" textLength="21" x="659" y="263.1919">ref</text><text fill="#000000" font-family="sans-serif" font-size="12" lengthAdjust="spacing" textLength="135" x="653" y="281.2637">Get Vehicle Repository</text><polygon fill="#181818" points="1092,310.3594,1102,314.3594,1092,318.3594,1096,314.3594" style="stroke:#181818;stroke-width:1.0;"/><line style="stroke:#181818;stroke-width:1.0;" x1="725.5" x2="1098" y1="314.3594" y2="314.3594"/><text fill="#000000" font-family="sans-serif" font-size="13" font-weight="bold" lengthAdjust="spacing" textLength="9" x="732.5" y="309.2935">6</text><text fill="#000000" font-family="sans-serif" font-size="13" lengthAdjust="spacing" textLength="83" x="745.5" y="309.2935">showTypes()</text><polygon fill="#181818" points="736.5,339.4922,726.5,343.4922,736.5,347.4922,732.5,343.4922" style="stroke:#181818;stroke-width:1.0;"/><line style="stroke:#181818;stroke-width:1.0;stroke-dasharray:2.0,2.0;" x1="730.5" x2="1108" y1="343.4922" y2="343.4922"/><text fill="#000000" font-family="sans-serif" font-size="13" font-weight="bold" lengthAdjust="spacing" textLength="9" x="742.5" y="338.4263">7</text><text fill="#000000" font-family="sans-serif" font-size="13" lengthAdjust="spacing" textLength="39" x="755.5" y="338.4263">Types</text><polygon fill="#181818" points="424.5,368.625,414.5,372.625,424.5,376.625,420.5,372.625" style="stroke:#181818;stroke-width:1.0;"/><line style="stroke:#181818;stroke-width:1.0;stroke-dasharray:2.0,2.0;" x1="418.5" x2="719.5" y1="372.625" y2="372.625"/><text fill="#000000" font-family="sans-serif" font-size="13" font-weight="bold" lengthAdjust="spacing" textLength="9" x="430.5" y="367.5591">8</text><text fill="#000000" font-family="sans-serif" font-size="13" lengthAdjust="spacing" textLength="36" x="443.5" y="367.5591">types</text><polygon fill="#181818" points="103.5,412.8906,93.5,416.8906,103.5,420.8906,99.5,416.8906" style="stroke:#181818;stroke-width:1.0;"/><line style="stroke:#181818;stroke-width:1.0;stroke-dasharray:2.0,2.0;" x1="97.5" x2="407.5" y1="416.8906" y2="416.8906"/><text fill="#000000" font-family="sans-serif" font-size="13" font-weight="bold" lengthAdjust="spacing" textLength="9" x="109.5" y="404.2583">9</text><text fill="#000000" font-family="sans-serif" font-size="13" lengthAdjust="spacing" textLength="156" x="122.5" y="396.6919">shows types of vehicles</text><text fill="#000000" font-family="sans-serif" font-size="13" lengthAdjust="spacing" textLength="152" x="126.5" y="411.8247">and request a selection</text><polygon fill="#181818" points="391.5,442.0234,401.5,446.0234,391.5,450.0234,395.5,446.0234" style="stroke:#181818;stroke-width:1.0;"/><line style="stroke:#181818;stroke-width:1.0;" x1="92.5" x2="397.5" y1="446.0234" y2="446.0234"/><text fill="#000000" font-family="sans-serif" font-size="13" font-weight="bold" lengthAdjust="spacing" textLength="18" x="99.5" y="440.9575">10</text><text fill="#000000" font-family="sans-serif" font-size="13" lengthAdjust="spacing" textLength="85" x="121.5" y="440.9575">Select a type</text><polygon fill="#181818" points="103.5,471.1563,93.5,475.1563,103.5,479.1563,99.5,475.1563" style="stroke:#181818;stroke-width:1.0;"/><line style="stroke:#181818;stroke-width:1.0;stroke-dasharray:2.0,2.0;" x1="97.5" x2="407.5" y1="475.1563" y2="475.1563"/><text fill="#000000" font-family="sans-serif" font-size="13" font-weight="bold" lengthAdjust="spacing" textLength="18" x="109.5" y="470.0903">11</text><text fill="#000000" font-family="sans-serif" font-size="13" lengthAdjust="spacing" textLength="265" x="131.5" y="470.0903">request data (tareWeight,grossWeight...)</text><polygon fill="#181818" points="391.5,500.2891,401.5,504.2891,391.5,508.2891,395.5,504.2891" style="stroke:#181818;stroke-width:1.0;"/><line style="stroke:#181818;stroke-width:1.0;" x1="92.5" x2="397.5" y1="504.2891" y2="504.2891"/><text fill="#000000" font-family="sans-serif" font-size="13" font-weight="bold" lengthAdjust="spacing" textLength="18" x="99.5" y="499.2231">12</text><text fill="#000000" font-family="sans-serif" font-size="13" lengthAdjust="spacing" textLength="138" x="121.5" y="499.2231">types requested data</text><polygon fill="#181818" points="103.5,544.5547,93.5,548.5547,103.5,552.5547,99.5,548.5547" style="stroke:#181818;stroke-width:1.0;"/><line style="stroke:#181818;stroke-width:1.0;stroke-dasharray:2.0,2.0;" x1="97.5" x2="407.5" y1="548.5547" y2="548.5547"/><text fill="#000000" font-family="sans-serif" font-size="13" font-weight="bold" lengthAdjust="spacing" textLength="18" x="109.5" y="535.9224">13</text><text fill="#000000" font-family="sans-serif" font-size="13" lengthAdjust="spacing" textLength="157" x="131.5" y="528.356">show all data registered</text><text fill="#000000" font-family="sans-serif" font-size="13" lengthAdjust="spacing" textLength="177" x="135.5" y="543.4888">and the confirmation menu</text><polygon fill="#181818" points="391.5,573.6875,401.5,577.6875,391.5,581.6875,395.5,577.6875" style="stroke:#181818;stroke-width:1.0;"/><line style="stroke:#181818;stroke-width:1.0;" x1="92.5" x2="397.5" y1="577.6875" y2="577.6875"/><text fill="#000000" font-family="sans-serif" font-size="13" font-weight="bold" lengthAdjust="spacing" textLength="18" x="99.5" y="572.6216">14</text><text fill="#000000" font-family="sans-serif" font-size="13" lengthAdjust="spacing" textLength="85" x="121.5" y="572.6216">submits data</text><polygon fill="#181818" points="703.5,602.8203,713.5,606.8203,703.5,610.8203,707.5,606.8203" style="stroke:#181818;stroke-width:1.0;"/><line style="stroke:#181818;stroke-width:1.0;" x1="413.5" x2="709.5" y1="606.8203" y2="606.8203"/><text fill="#000000" font-family="sans-serif" font-size="13" font-weight="bold" lengthAdjust="spacing" textLength="18" x="420.5" y="601.7544">15</text><text fill="#000000" font-family="sans-serif" font-size="13" lengthAdjust="spacing" textLength="261" x="442.5" y="601.7544">registerVehicle(plateID, brand, model...)</text><polygon fill="#181818" points="1092,631.9531,1102,635.9531,1092,639.9531,1096,635.9531" style="stroke:#181818;stroke-width:1.0;"/><line style="stroke:#181818;stroke-width:1.0;" x1="725.5" x2="1098" y1="635.9531" y2="635.9531"/><text fill="#000000" font-family="sans-serif" font-size="13" font-weight="bold" lengthAdjust="spacing" textLength="18" x="732.5" y="630.8872">16</text><text fill="#000000" font-family="sans-serif" font-size="13" lengthAdjust="spacing" textLength="261" x="754.5" y="630.8872">registerVehicle(plateID, brand, model...)</text><rect fill="none" height="39.1016" style="stroke:#000000;stroke-width:1.5;" width="152" x="1033" y="643.9531"/><path d="M1033,643.9531 L1099,643.9531 L1099,650.9531 L1089,660.9531 L1033,660.9531 L1033,643.9531 " fill="#EEEEEE" style="stroke:#000000;stroke-width:2.0;"/><text fill="#000000" font-family="sans-serif" font-size="13" font-weight="bold" lengthAdjust="spacing" textLength="21" x="1046" y="658.02">ref</text><text fill="#000000" font-family="sans-serif" font-size="12" lengthAdjust="spacing" textLength="96" x="1061" y="676.0918">Register Vehicle</text><polygon fill="#181818" points="736.5,705.1875,726.5,709.1875,736.5,713.1875,732.5,709.1875" style="stroke:#181818;stroke-width:1.0;"/><line style="stroke:#181818;stroke-width:1.0;stroke-dasharray:2.0,2.0;" x1="730.5" x2="1108" y1="709.1875" y2="709.1875"/><text fill="#000000" font-family="sans-serif" font-size="13" font-weight="bold" lengthAdjust="spacing" textLength="18" x="742.5" y="704.1216">17</text><text fill="#000000" font-family="sans-serif" font-size="13" lengthAdjust="spacing" textLength="47" x="764.5" y="704.1216">vehicle</text><polygon fill="#181818" points="424.5,734.3203,414.5,738.3203,424.5,742.3203,420.5,738.3203" style="stroke:#181818;stroke-width:1.0;"/><line style="stroke:#181818;stroke-width:1.0;stroke-dasharray:2.0,2.0;" x1="418.5" x2="719.5" y1="738.3203" y2="738.3203"/><text fill="#000000" font-family="sans-serif" font-size="13" font-weight="bold" lengthAdjust="spacing" textLength="18" x="430.5" y="733.2544">18</text><text fill="#000000" font-family="sans-serif" font-size="13" lengthAdjust="spacing" textLength="47" x="452.5" y="733.2544">vehicle</text><polygon fill="#181818" points="98.5,763.4531,88.5,767.4531,98.5,771.4531,94.5,767.4531" style="stroke:#181818;stroke-width:1.0;"/><line style="stroke:#181818;stroke-width:1.0;stroke-dasharray:2.0,2.0;" x1="92.5" x2="407.5" y1="767.4531" y2="767.4531"/><text fill="#000000" font-family="sans-serif" font-size="13" font-weight="bold" lengthAdjust="spacing" textLength="18" x="104.5" y="762.3872">19</text><text fill="#000000" font-family="sans-serif" font-size="13" lengthAdjust="spacing" textLength="166" x="126.5" y="762.3872">shows operation success.</text><!--SRC=[lLLDZzem4BtxLupsmkuA-04SLbgntGe9r6hvw8MBSIR48h5Jsu7oxplv8Z49NTf3SqhicJVFp_CczY1LoWrF8D5AYyZe1C6P39czxAHS7FWUb-uS8nWKZgjzt0wm4G_qIQezX3oso1ZFd5PPiaF3s22I0KAejTlfNumBfmqyR32IWj3UOqG72wu8tpm0jx1vNp12TLB8b2i73vCFt4lhq5GvwraHjvvTXLNRKwsSqN5SmKrN7_CENggj91eIRH5pMJWlPNuoukwdc5R6LdK1lizVLtx6iIJJ84-sQdEzLkHs8dk1g6gLNehqPJPTpx-nN4vvv0uBsHXK3tt0w8KaWWb57omuJVTMgWWS59xgiatE1Oc4PGDeFGGp8hJNjmN16VoPeNKM0kuuF1eCqQ0IE8G0hJ0oTLAh8O1KeJO9Zs6h_1s78b9Iq8wt76I6bsz2M_V4sWG6mc3EhBZBQsOlnVBpCt4hmveZLSHpDIx4AzvfJ96pjo7i35V1a9e_m7Wy7lk50_HKwPFNdLEqDJW61No_fbtIb6uZVLhb48zFtQpYl1uXaXlqaIwn8yLNib5jgbOljKDG1Jb0WrXm82wT5loCMBTd6z0ksAWvRe78UkJjGVHPUdht8NYAU3UV7yLM5wN3kXGP6NYXIDaN72p6DDke1_-s1vP58Y7aDJw__1ijwRZ17oZtaHlkZRQsVFz_FUdf1JoEIrxrtC2W4in5I1vLeIHxvsf1WYfZVw3NfcQpNIAhwS7kiuZnn_yTrhqo4FCzTBFh_wNKtRRmxTkDzEBgFrxjQ7-tu-ExhDSP-FSxyCg53TODgDuvNRPNxKQTOZdlgIE4G6l7hATxMf_v_-qt]--></g></svg>