<?xml version="1.0" encoding="us-ascii" standalone="no"?><svg xmlns="http://www.w3.org/2000/svg" xmlns:xlink="http://www.w3.org/1999/xlink" contentStyleType="text/css" height="414px" preserveAspectRatio="none" style="width:511px;height:414px;background:#FFFFFF;" version="1.1" viewBox="0 0 511 414" width="511px" zoomAndPan="magnify"><defs/><g><rect fill="#FFFFFF" height="261.0625" style="stroke:#181818;stroke-width:1.0;" width="10" x="115" y="83.7266"/><rect fill="#FFFFFF" height="156.6641" style="stroke:#181818;stroke-width:1.0;" width="10" x="120" y="144.9922"/><rect fill="#FFFFFF" height="29.1328" style="stroke:#181818;stroke-width:1.0;" width="10" x="315" y="179.125"/><rect fill="#FFFFFF" height="29.1328" style="stroke:#181818;stroke-width:1.0;" width="10" x="432" y="237.3906"/><rect fill="none" height="217.9297" style="stroke:#000000;stroke-width:1.5;" width="462" x="38.5" y="98.7266"/><line style="stroke:#181818;stroke-width:0.5;stroke-dasharray:5.0,5.0;" x1="119.5" x2="119.5" y1="52.5938" y2="362.7891"/><line style="stroke:#181818;stroke-width:0.5;stroke-dasharray:5.0,5.0;" x1="319.5" x2="319.5" y1="52.5938" y2="362.7891"/><line style="stroke:#181818;stroke-width:0.5;stroke-dasharray:5.0,5.0;" x1="436.5" x2="436.5" y1="52.5938" y2="362.7891"/><rect fill="#E3E3E3" height="30.2969" rx="2.5" ry="2.5" style="stroke:#181818;stroke-width:0.5;" width="143" x="48.5" y="21.2969"/><text fill="#000000" font-family="sans-serif" font-size="14" lengthAdjust="spacing" textLength="129" x="55.5" y="41.292">:VehicleController</text><rect fill="#E3E3E3" height="30.2969" rx="2.5" ry="2.5" style="stroke:#181818;stroke-width:0.5;" width="143" x="48.5" y="361.7891"/><text fill="#000000" font-family="sans-serif" font-size="14" lengthAdjust="spacing" textLength="129" x="55.5" y="381.7842">:VehicleController</text><rect fill="#E3E3E3" height="30.2969" rx="2.5" ry="2.5" style="stroke:#181818;stroke-width:0.5;" width="107" x="266.5" y="21.2969"/><text fill="#000000" font-family="sans-serif" font-size="14" lengthAdjust="spacing" textLength="93" x="273.5" y="41.292">:Repositories</text><rect fill="#E3E3E3" height="30.2969" rx="2.5" ry="2.5" style="stroke:#181818;stroke-width:0.5;" width="107" x="266.5" y="361.7891"/><text fill="#000000" font-family="sans-serif" font-size="14" lengthAdjust="spacing" textLength="93" x="273.5" y="381.7842">:Repositories</text><rect fill="#E3E3E3" height="46.5938" rx="2.5" ry="2.5" style="stroke:#181818;stroke-width:0.5;" width="107" x="383.5" y="5"/><text fill="#000000" font-family="sans-serif" font-size="14" lengthAdjust="spacing" textLength="84" x="395" y="24.9951">repositories</text><text fill="#000000" font-family="sans-serif" font-size="14" lengthAdjust="spacing" textLength="93" x="390.5" y="41.292">:Repositories</text><rect fill="#E3E3E3" height="46.5938" rx="2.5" ry="2.5" style="stroke:#181818;stroke-width:0.5;" width="107" x="383.5" y="361.7891"/><text fill="#000000" font-family="sans-serif" font-size="14" lengthAdjust="spacing" textLength="84" x="395" y="381.7842">repositories</text><text fill="#000000" font-family="sans-serif" font-size="14" lengthAdjust="spacing" textLength="93" x="390.5" y="398.0811">:Repositories</text><rect fill="#FFFFFF" height="261.0625" style="stroke:#181818;stroke-width:1.0;" width="10" x="115" y="83.7266"/><rect fill="#FFFFFF" height="156.6641" style="stroke:#181818;stroke-width:1.0;" width="10" x="120" y="144.9922"/><rect fill="#FFFFFF" height="29.1328" style="stroke:#181818;stroke-width:1.0;" width="10" x="315" y="179.125"/><rect fill="#FFFFFF" height="29.1328" style="stroke:#181818;stroke-width:1.0;" width="10" x="432" y="237.3906"/><polygon fill="#181818" points="103,79.7266,113,83.7266,103,87.7266,107,83.7266" style="stroke:#181818;stroke-width:1.0;"/><line style="stroke:#181818;stroke-width:1.0;" x1="0" x2="109" y1="83.7266" y2="83.7266"/><text fill="#000000" font-family="sans-serif" font-size="13" font-weight="bold" lengthAdjust="spacing" textLength="9" x="7" y="78.6606">3</text><text fill="#000000" font-family="sans-serif" font-size="13" lengthAdjust="spacing" textLength="83" x="20" y="78.6606">showTypes()</text><path d="M38.5,98.7266 L250.5,98.7266 L250.5,105.8594 L240.5,115.8594 L38.5,115.8594 L38.5,98.7266 " fill="#EEEEEE" style="stroke:#000000;stroke-width:1.5;"/><rect fill="none" height="217.9297" style="stroke:#000000;stroke-width:1.5;" width="462" x="38.5" y="98.7266"/><text fill="#000000" font-family="sans-serif" font-size="13" font-weight="bold" lengthAdjust="spacing" textLength="167" x="53.5" y="111.7935">Get Vehicle Repository</text><line style="stroke:#181818;stroke-width:1.0;" x1="125" x2="172" y1="131.9922" y2="131.9922"/><line style="stroke:#181818;stroke-width:1.0;" x1="172" x2="172" y1="131.9922" y2="144.9922"/><line style="stroke:#181818;stroke-width:1.0;" x1="131" x2="172" y1="144.9922" y2="144.9922"/><polygon fill="#181818" points="141,140.9922,131,144.9922,141,148.9922,137,144.9922" style="stroke:#181818;stroke-width:1.0;"/><text fill="#000000" font-family="sans-serif" font-size="13" font-weight="bold" lengthAdjust="spacing" textLength="23" x="137" y="126.9263">3.1</text><text fill="#000000" font-family="sans-serif" font-size="13" lengthAdjust="spacing" textLength="149" x="164" y="126.9263">getVehicleRepository()</text><polygon fill="#181818" points="303,175.125,313,179.125,303,183.125,307,179.125" style="stroke:#181818;stroke-width:1.0;"/><line style="stroke:#181818;stroke-width:1.0;" x1="130" x2="309" y1="179.125" y2="179.125"/><text fill="#000000" font-family="sans-serif" font-size="13" font-weight="bold" lengthAdjust="spacing" textLength="23" x="137" y="174.0591">3.2</text><text fill="#000000" font-family="sans-serif" font-size="13" lengthAdjust="spacing" textLength="86" x="164" y="174.0591">getInstance()</text><polygon fill="#181818" points="141,204.2578,131,208.2578,141,212.2578,137,208.2578" style="stroke:#181818;stroke-width:1.0;"/><line style="stroke:#181818;stroke-width:1.0;stroke-dasharray:2.0,2.0;" x1="135" x2="319" y1="208.2578" y2="208.2578"/><text fill="#000000" font-family="sans-serif" font-size="13" font-weight="bold" lengthAdjust="spacing" textLength="23" x="147" y="203.1919">3.3</text><text fill="#000000" font-family="sans-serif" font-size="13" lengthAdjust="spacing" textLength="77" x="174" y="203.1919">repositories</text><polygon fill="#181818" points="420,233.3906,430,237.3906,420,241.3906,424,237.3906" style="stroke:#181818;stroke-width:1.0;"/><line style="stroke:#181818;stroke-width:1.0;" x1="130" x2="426" y1="237.3906" y2="237.3906"/><text fill="#000000" font-family="sans-serif" font-size="13" font-weight="bold" lengthAdjust="spacing" textLength="23" x="137" y="232.3247">3.4</text><text fill="#000000" font-family="sans-serif" font-size="13" lengthAdjust="spacing" textLength="149" x="164" y="232.3247">getVehicleRepository()</text><polygon fill="#181818" points="141,262.5234,131,266.5234,141,270.5234,137,266.5234" style="stroke:#181818;stroke-width:1.0;"/><line style="stroke:#181818;stroke-width:1.0;stroke-dasharray:2.0,2.0;" x1="135" x2="436" y1="266.5234" y2="266.5234"/><text fill="#000000" font-family="sans-serif" font-size="13" font-weight="bold" lengthAdjust="spacing" textLength="23" x="147" y="261.4575">3.5</text><text fill="#000000" font-family="sans-serif" font-size="13" lengthAdjust="spacing" textLength="117" x="174" y="261.4575">vehicleRepository</text><line style="stroke:#181818;stroke-width:1.0;stroke-dasharray:2.0,2.0;" x1="130" x2="172" y1="300.6563" y2="300.6563"/><line style="stroke:#181818;stroke-width:1.0;stroke-dasharray:2.0,2.0;" x1="172" x2="172" y1="300.6563" y2="313.6563"/><line style="stroke:#181818;stroke-width:1.0;stroke-dasharray:2.0,2.0;" x1="125" x2="172" y1="313.6563" y2="313.6563"/><polygon fill="#181818" points="135,309.6563,125,313.6563,135,317.6563,131,313.6563" style="stroke:#181818;stroke-width:1.0;"/><text fill="#000000" font-family="sans-serif" font-size="13" font-weight="bold" lengthAdjust="spacing" textLength="23" x="137" y="295.5903">3.6</text><text fill="#000000" font-family="sans-serif" font-size="13" lengthAdjust="spacing" textLength="117" x="164" y="295.5903">vehicleRepository</text><polygon fill="#181818" points="498.5,340.7891,508.5,344.7891,498.5,348.7891,502.5,344.7891" style="stroke:#181818;stroke-width:1.0;"/><line style="stroke:#181818;stroke-width:1.0;" x1="120" x2="504.5" y1="344.7891" y2="344.7891"/><text fill="#000000" font-family="sans-serif" font-size="13" font-weight="bold" lengthAdjust="spacing" textLength="9" x="127" y="339.7231">4</text><text fill="#000000" font-family="sans-serif" font-size="13" lengthAdjust="spacing" textLength="83" x="140" y="339.7231">showTypes()</text><!--SRC=[dPEnRi9038PtFuN5qdQWKjLE39KgXgeIGmMeKvVZOf8JoJcwSw2yVSE5aWkaGEibKkBVdt_RyIjZI-LKWGLRrfdZWb1SHU0FNqgbLogbcMnpGaTQb4tpEC5dAk6DiIakLUu9G5N2jYeMv01kCfCGBfbbmLy0jKACDgMoWeFH1sL6vpHcAuxpdDm0bSVnV3evIfnIoTu8EqC-v1nUR6TcrquDx4fSfFYqfmNU9o_pk5Dy1C3XSu3ZgFR4c_cs97zxrqcwVm2bnQoLKDCdrf4whafy9S6zeQWzW90IHI2qf9Hahsf5DHH_YIuT-WhtpARXl5bVBq_JcV8THD-GpoftqKSVxksEC5xBsL89_R-Ddq7iTlpt2NT6q9p99Sy1r9fS7zEkTNgPrbXhh-TwL8HfJYTaaat2Cxhn9uXdY4S_mqcPRm00]--></g></svg>