<?xml version="1.0" encoding="us-ascii" standalone="no"?><svg xmlns="http://www.w3.org/2000/svg" xmlns:xlink="http://www.w3.org/1999/xlink" contentStyleType="text/css" height="1234px" preserveAspectRatio="none" style="width:1412px;height:1234px;background:#FFFFFF;" version="1.1" viewBox="0 0 1412 1234" width="1412px" zoomAndPan="magnify"><defs/><g><rect fill="#FFFFFF" height="1044.6797" style="stroke:#181818;stroke-width:1.0;" width="10" x="82.5" y="91.2969"/><rect fill="#FFFFFF" height="70.4297" style="stroke:#181818;stroke-width:1.0;" width="10" x="403.5" y="112.4297"/><rect fill="#FFFFFF" height="419.8594" style="stroke:#181818;stroke-width:1.0;" width="10" x="403.5" y="211.9922"/><rect fill="#FFFFFF" height="29.1328" style="stroke:#181818;stroke-width:1.0;" width="10" x="403.5" y="660.9844"/><rect fill="#FFFFFF" height="44.2656" style="stroke:#181818;stroke-width:1.0;" width="10" x="403.5" y="719.25"/><rect fill="#FFFFFF" height="343.3281" style="stroke:#181818;stroke-width:1.0;" width="10" x="403.5" y="792.6484"/><rect fill="#FFFFFF" height="346.4609" style="stroke:#181818;stroke-width:1.0;" width="10" x="715.5" y="241.125"/><rect fill="#FFFFFF" height="156.6641" style="stroke:#181818;stroke-width:1.0;" width="10" x="720.5" y="278.2578"/><rect fill="#FFFFFF" height="285.0625" style="stroke:#181818;stroke-width:1.0;" width="10" x="715.5" y="821.7813"/><rect fill="#FFFFFF" height="29.1328" style="stroke:#181818;stroke-width:1.0;" width="10" x="901.5" y="312.3906"/><rect fill="#FFFFFF" height="29.1328" style="stroke:#181818;stroke-width:1.0;" width="10" x="1018.5" y="370.6563"/><rect fill="#FFFFFF" height="87.3984" style="stroke:#181818;stroke-width:1.0;" width="10" x="1155" y="471.0547"/><rect fill="#FFFFFF" height="226.7969" style="stroke:#181818;stroke-width:1.0;" width="10" x="1155" y="850.9141"/><rect fill="#FFFFFF" height="124.3984" style="stroke:#181818;stroke-width:1.0;" width="10" x="1160" y="917.1797"/><rect fill="#FFFFFF" height="40.1328" style="stroke:#181818;stroke-width:1.0;" width="10" x="1165" y="959.3125"/><rect fill="#FFFFFF" height="29.1328" style="stroke:#181818;stroke-width:1.0;" width="10" x="1365" y="500.1875"/><line style="stroke:#181818;stroke-width:0.5;stroke-dasharray:5.0,5.0;" x1="87" x2="87" y1="81.2969" y2="1153.9766"/><line style="stroke:#181818;stroke-width:0.5;stroke-dasharray:5.0,5.0;" x1="408" x2="408" y1="81.2969" y2="1153.9766"/><line style="stroke:#181818;stroke-width:0.5;stroke-dasharray:5.0,5.0;" x1="720" x2="720" y1="151.0781" y2="1153.9766"/><line style="stroke:#181818;stroke-width:0.5;stroke-dasharray:5.0,5.0;" x1="906" x2="906" y1="81.2969" y2="1153.9766"/><line style="stroke:#181818;stroke-width:0.5;stroke-dasharray:5.0,5.0;" x1="1023" x2="1023" y1="81.2969" y2="1153.9766"/><line style="stroke:#181818;stroke-width:0.5;stroke-dasharray:5.0,5.0;" x1="1160" x2="1160" y1="81.2969" y2="1153.9766"/><line style="stroke:#181818;stroke-width:0.5;stroke-dasharray:5.0,5.0;" x1="1370" x2="1370" y1="81.2969" y2="1153.9766"/><text fill="#000000" font-family="sans-serif" font-size="14" lengthAdjust="spacing" textLength="159" x="5" y="77.9951">Vehicle Fleet Manager</text><ellipse cx="87.5" cy="13.5" fill="#E3E3E3" rx="8" ry="8" style="stroke:#181818;stroke-width:0.5;"/><path d="M87.5,21.5 L87.5,48.5 M74.5,29.5 L100.5,29.5 M87.5,48.5 L74.5,63.5 M87.5,48.5 L100.5,63.5 " fill="none" style="stroke:#181818;stroke-width:0.5;"/><text fill="#000000" font-family="sans-serif" font-size="14" lengthAdjust="spacing" textLength="159" x="5" y="1165.9717">Vehicle Fleet Manager</text><ellipse cx="87.5" cy="1177.7734" fill="#E3E3E3" rx="8" ry="8" style="stroke:#181818;stroke-width:0.5;"/><path d="M87.5,1185.7734 L87.5,1212.7734 M74.5,1193.7734 L100.5,1193.7734 M87.5,1212.7734 L74.5,1227.7734 M87.5,1212.7734 L100.5,1227.7734 " fill="none" style="stroke:#181818;stroke-width:0.5;"/><rect fill="#E3E3E3" height="30.2969" rx="2.5" ry="2.5" style="stroke:#181818;stroke-width:0.5;" width="145" x="336" y="50"/><text fill="#000000" font-family="sans-serif" font-size="14" lengthAdjust="spacing" textLength="131" x="343" y="69.9951">:RegisterVehicleUI</text><rect fill="#E3E3E3" height="30.2969" rx="2.5" ry="2.5" style="stroke:#181818;stroke-width:0.5;" width="145" x="336" y="1152.9766"/><text fill="#000000" font-family="sans-serif" font-size="14" lengthAdjust="spacing" textLength="131" x="343" y="1172.9717">:RegisterVehicleUI</text><rect fill="#E3E3E3" height="30.2969" rx="2.5" ry="2.5" style="stroke:#181818;stroke-width:0.5;" width="143" x="649" y="1152.9766"/><text fill="#000000" font-family="sans-serif" font-size="14" lengthAdjust="spacing" textLength="129" x="656" y="1172.9717">:VehicleController</text><rect fill="#E3E3E3" height="30.2969" rx="2.5" ry="2.5" style="stroke:#181818;stroke-width:0.5;" width="107" x="853" y="50"/><text fill="#000000" font-family="sans-serif" font-size="14" lengthAdjust="spacing" textLength="93" x="860" y="69.9951">:Repositories</text><rect fill="#E3E3E3" height="30.2969" rx="2.5" ry="2.5" style="stroke:#181818;stroke-width:0.5;" width="107" x="853" y="1152.9766"/><text fill="#000000" font-family="sans-serif" font-size="14" lengthAdjust="spacing" textLength="93" x="860" y="1172.9717">:Repositories</text><rect fill="#E3E3E3" height="46.5938" rx="2.5" ry="2.5" style="stroke:#181818;stroke-width:0.5;" width="107" x="970" y="33.7031"/><text fill="#000000" font-family="sans-serif" font-size="14" lengthAdjust="spacing" textLength="84" x="981.5" y="53.6982">repositories</text><text fill="#000000" font-family="sans-serif" font-size="14" lengthAdjust="spacing" textLength="93" x="977" y="69.9951">:Repositories</text><rect fill="#E3E3E3" height="46.5938" rx="2.5" ry="2.5" style="stroke:#181818;stroke-width:0.5;" width="107" x="970" y="1152.9766"/><text fill="#000000" font-family="sans-serif" font-size="14" lengthAdjust="spacing" textLength="84" x="981.5" y="1172.9717">repositories</text><text fill="#000000" font-family="sans-serif" font-size="14" lengthAdjust="spacing" textLength="93" x="977" y="1189.2686">:Repositories</text><rect fill="#E3E3E3" height="46.5938" rx="2.5" ry="2.5" style="stroke:#181818;stroke-width:0.5;" width="146" x="1087" y="33.7031"/><text fill="#000000" font-family="sans-serif" font-size="14" lengthAdjust="spacing" textLength="132" x="1094" y="53.6982">vehicleRepository:</text><text fill="#000000" font-family="sans-serif" font-size="14" lengthAdjust="spacing" textLength="129" x="1095.5" y="69.9951">VehicleRepository</text><rect fill="#E3E3E3" height="46.5938" rx="2.5" ry="2.5" style="stroke:#181818;stroke-width:0.5;" width="146" x="1087" y="1152.9766"/><text fill="#000000" font-family="sans-serif" font-size="14" lengthAdjust="spacing" textLength="132" x="1094" y="1172.9717">vehicleRepository:</text><text fill="#000000" font-family="sans-serif" font-size="14" lengthAdjust="spacing" textLength="129" x="1095.5" y="1189.2686">VehicleRepository</text><rect fill="#E3E3E3" height="46.5938" rx="2.5" ry="2.5" style="stroke:#181818;stroke-width:0.5;" width="72" x="1334" y="33.7031"/><text fill="#000000" font-family="sans-serif" font-size="14" lengthAdjust="spacing" textLength="51" x="1344.5" y="53.6982">vehicle</text><text fill="#000000" font-family="sans-serif" font-size="14" lengthAdjust="spacing" textLength="58" x="1341" y="69.9951">:Vehicle</text><rect fill="#E3E3E3" height="46.5938" rx="2.5" ry="2.5" style="stroke:#181818;stroke-width:0.5;" width="72" x="1334" y="1152.9766"/><text fill="#000000" font-family="sans-serif" font-size="14" lengthAdjust="spacing" textLength="51" x="1344.5" y="1172.9717">vehicle</text><text fill="#000000" font-family="sans-serif" font-size="14" lengthAdjust="spacing" textLength="58" x="1341" y="1189.2686">:Vehicle</text><rect fill="#FFFFFF" height="1044.6797" style="stroke:#181818;stroke-width:1.0;" width="10" x="82.5" y="91.2969"/><rect fill="#FFFFFF" height="70.4297" style="stroke:#181818;stroke-width:1.0;" width="10" x="403.5" y="112.4297"/><rect fill="#FFFFFF" height="419.8594" style="stroke:#181818;stroke-width:1.0;" width="10" x="403.5" y="211.9922"/><rect fill="#FFFFFF" height="29.1328" style="stroke:#181818;stroke-width:1.0;" width="10" x="403.5" y="660.9844"/><rect fill="#FFFFFF" height="44.2656" style="stroke:#181818;stroke-width:1.0;" width="10" x="403.5" y="719.25"/><rect fill="#FFFFFF" height="343.3281" style="stroke:#181818;stroke-width:1.0;" width="10" x="403.5" y="792.6484"/><rect fill="#FFFFFF" height="346.4609" style="stroke:#181818;stroke-width:1.0;" width="10" x="715.5" y="241.125"/><rect fill="#FFFFFF" height="156.6641" style="stroke:#181818;stroke-width:1.0;" width="10" x="720.5" y="278.2578"/><rect fill="#FFFFFF" height="285.0625" style="stroke:#181818;stroke-width:1.0;" width="10" x="715.5" y="821.7813"/><rect fill="#FFFFFF" height="29.1328" style="stroke:#181818;stroke-width:1.0;" width="10" x="901.5" y="312.3906"/><rect fill="#FFFFFF" height="29.1328" style="stroke:#181818;stroke-width:1.0;" width="10" x="1018.5" y="370.6563"/><rect fill="#FFFFFF" height="87.3984" style="stroke:#181818;stroke-width:1.0;" width="10" x="1155" y="471.0547"/><rect fill="#FFFFFF" height="226.7969" style="stroke:#181818;stroke-width:1.0;" width="10" x="1155" y="850.9141"/><rect fill="#FFFFFF" height="124.3984" style="stroke:#181818;stroke-width:1.0;" width="10" x="1160" y="917.1797"/><rect fill="#FFFFFF" height="40.1328" style="stroke:#181818;stroke-width:1.0;" width="10" x="1165" y="959.3125"/><rect fill="#FFFFFF" height="29.1328" style="stroke:#181818;stroke-width:1.0;" width="10" x="1365" y="500.1875"/><polygon fill="#181818" points="391.5,108.4297,401.5,112.4297,391.5,116.4297,395.5,112.4297" style="stroke:#181818;stroke-width:1.0;"/><line style="stroke:#181818;stroke-width:1.0;" x1="92.5" x2="397.5" y1="112.4297" y2="112.4297"/><text fill="#000000" font-family="sans-serif" font-size="13" font-weight="bold" lengthAdjust="spacing" textLength="9" x="99.5" y="107.3638">1</text><text fill="#000000" font-family="sans-serif" font-size="13" lengthAdjust="spacing" textLength="195" x="112.5" y="107.3638">asks to register a new vehicle</text><polygon fill="#181818" points="637,137.5625,647,141.5625,637,145.5625,641,141.5625" style="stroke:#181818;stroke-width:1.0;"/><line style="stroke:#181818;stroke-width:1.0;" x1="413.5" x2="643" y1="141.5625" y2="141.5625"/><text fill="#000000" font-family="sans-serif" font-size="13" font-weight="bold" lengthAdjust="spacing" textLength="9" x="420.5" y="136.4966">2</text><text fill="#000000" font-family="sans-serif" font-size="13" lengthAdjust="spacing" textLength="41" x="433.5" y="136.4966">create</text><rect fill="#E3E3E3" height="30.2969" rx="2.5" ry="2.5" style="stroke:#181818;stroke-width:0.5;" width="143" x="649" y="120.4297"/><text fill="#000000" font-family="sans-serif" font-size="14" lengthAdjust="spacing" textLength="129" x="656" y="140.4248">:VehicleController</text><polygon fill="#181818" points="103.5,178.8594,93.5,182.8594,103.5,186.8594,99.5,182.8594" style="stroke:#181818;stroke-width:1.0;"/><line style="stroke:#181818;stroke-width:1.0;stroke-dasharray:2.0,2.0;" x1="97.5" x2="407.5" y1="182.8594" y2="182.8594"/><text fill="#000000" font-family="sans-serif" font-size="13" font-weight="bold" lengthAdjust="spacing" textLength="9" x="109.5" y="177.7935">3</text><text fill="#000000" font-family="sans-serif" font-size="13" lengthAdjust="spacing" textLength="249" x="122.5" y="177.7935">request data (plateID, brand, model...)</text><polygon fill="#181818" points="391.5,207.9922,401.5,211.9922,391.5,215.9922,395.5,211.9922" style="stroke:#181818;stroke-width:1.0;"/><line style="stroke:#181818;stroke-width:1.0;" x1="92.5" x2="397.5" y1="211.9922" y2="211.9922"/><text fill="#000000" font-family="sans-serif" font-size="13" font-weight="bold" lengthAdjust="spacing" textLength="9" x="99.5" y="206.9263">4</text><text fill="#000000" font-family="sans-serif" font-size="13" lengthAdjust="spacing" textLength="138" x="112.5" y="206.9263">types requested data</text><polygon fill="#181818" points="703.5,237.125,713.5,241.125,703.5,245.125,707.5,241.125" style="stroke:#181818;stroke-width:1.0;"/><line style="stroke:#181818;stroke-width:1.0;" x1="413.5" x2="709.5" y1="241.125" y2="241.125"/><text fill="#000000" font-family="sans-serif" font-size="13" font-weight="bold" lengthAdjust="spacing" textLength="9" x="420.5" y="236.0591">5</text><text fill="#000000" font-family="sans-serif" font-size="13" lengthAdjust="spacing" textLength="83" x="433.5" y="236.0591">showTypes()</text><line style="stroke:#181818;stroke-width:1.0;" x1="725.5" x2="772.5" y1="265.2578" y2="265.2578"/><line style="stroke:#181818;stroke-width:1.0;" x1="772.5" x2="772.5" y1="265.2578" y2="278.2578"/><line style="stroke:#181818;stroke-width:1.0;" x1="731.5" x2="772.5" y1="278.2578" y2="278.2578"/><polygon fill="#181818" points="741.5,274.2578,731.5,278.2578,741.5,282.2578,737.5,278.2578" style="stroke:#181818;stroke-width:1.0;"/><text fill="#000000" font-family="sans-serif" font-size="13" font-weight="bold" lengthAdjust="spacing" textLength="9" x="737.5" y="260.1919">6</text><text fill="#000000" font-family="sans-serif" font-size="13" lengthAdjust="spacing" textLength="149" x="750.5" y="260.1919">getVehicleRepository()</text><polygon fill="#181818" points="889.5,308.3906,899.5,312.3906,889.5,316.3906,893.5,312.3906" style="stroke:#181818;stroke-width:1.0;"/><line style="stroke:#181818;stroke-width:1.0;" x1="730.5" x2="895.5" y1="312.3906" y2="312.3906"/><text fill="#000000" font-family="sans-serif" font-size="13" font-weight="bold" lengthAdjust="spacing" textLength="9" x="737.5" y="307.3247">7</text><text fill="#000000" font-family="sans-serif" font-size="13" lengthAdjust="spacing" textLength="86" x="750.5" y="307.3247">getInstance()</text><polygon fill="#181818" points="741.5,337.5234,731.5,341.5234,741.5,345.5234,737.5,341.5234" style="stroke:#181818;stroke-width:1.0;"/><line style="stroke:#181818;stroke-width:1.0;stroke-dasharray:2.0,2.0;" x1="735.5" x2="905.5" y1="341.5234" y2="341.5234"/><text fill="#000000" font-family="sans-serif" font-size="13" font-weight="bold" lengthAdjust="spacing" textLength="9" x="747.5" y="336.4575">8</text><text fill="#000000" font-family="sans-serif" font-size="13" lengthAdjust="spacing" textLength="77" x="760.5" y="336.4575">repositories</text><polygon fill="#181818" points="1006.5,366.6563,1016.5,370.6563,1006.5,374.6563,1010.5,370.6563" style="stroke:#181818;stroke-width:1.0;"/><line style="stroke:#181818;stroke-width:1.0;" x1="730.5" x2="1012.5" y1="370.6563" y2="370.6563"/><text fill="#000000" font-family="sans-serif" font-size="13" font-weight="bold" lengthAdjust="spacing" textLength="9" x="737.5" y="365.5903">9</text><text fill="#000000" font-family="sans-serif" font-size="13" lengthAdjust="spacing" textLength="149" x="750.5" y="365.5903">getVehicleRepository()</text><polygon fill="#181818" points="741.5,395.7891,731.5,399.7891,741.5,403.7891,737.5,399.7891" style="stroke:#181818;stroke-width:1.0;"/><line style="stroke:#181818;stroke-width:1.0;stroke-dasharray:2.0,2.0;" x1="735.5" x2="1022.5" y1="399.7891" y2="399.7891"/><text fill="#000000" font-family="sans-serif" font-size="13" font-weight="bold" lengthAdjust="spacing" textLength="18" x="747.5" y="394.7231">10</text><text fill="#000000" font-family="sans-serif" font-size="13" lengthAdjust="spacing" textLength="117" x="769.5" y="394.7231">vehicleRepository</text><line style="stroke:#181818;stroke-width:1.0;stroke-dasharray:2.0,2.0;" x1="730.5" x2="772.5" y1="433.9219" y2="433.9219"/><line style="stroke:#181818;stroke-width:1.0;stroke-dasharray:2.0,2.0;" x1="772.5" x2="772.5" y1="433.9219" y2="446.9219"/><line style="stroke:#181818;stroke-width:1.0;stroke-dasharray:2.0,2.0;" x1="725.5" x2="772.5" y1="446.9219" y2="446.9219"/><polygon fill="#181818" points="735.5,442.9219,725.5,446.9219,735.5,450.9219,731.5,446.9219" style="stroke:#181818;stroke-width:1.0;"/><text fill="#000000" font-family="sans-serif" font-size="13" font-weight="bold" lengthAdjust="spacing" textLength="18" x="737.5" y="428.856">11</text><text fill="#000000" font-family="sans-serif" font-size="13" lengthAdjust="spacing" textLength="117" x="759.5" y="428.856">vehicleRepository</text><polygon fill="#181818" points="1143,467.0547,1153,471.0547,1143,475.0547,1147,471.0547" style="stroke:#181818;stroke-width:1.0;"/><line style="stroke:#181818;stroke-width:1.0;" x1="725.5" x2="1149" y1="471.0547" y2="471.0547"/><text fill="#000000" font-family="sans-serif" font-size="13" font-weight="bold" lengthAdjust="spacing" textLength="18" x="732.5" y="465.9888">12</text><text fill="#000000" font-family="sans-serif" font-size="13" lengthAdjust="spacing" textLength="75" x="754.5" y="465.9888">showypes()</text><polygon fill="#181818" points="1353,496.1875,1363,500.1875,1353,504.1875,1357,500.1875" style="stroke:#181818;stroke-width:1.0;"/><line style="stroke:#181818;stroke-width:1.0;" x1="1165" x2="1359" y1="500.1875" y2="500.1875"/><text fill="#000000" font-family="sans-serif" font-size="13" font-weight="bold" lengthAdjust="spacing" textLength="18" x="1172" y="495.1216">13</text><text fill="#000000" font-family="sans-serif" font-size="13" lengthAdjust="spacing" textLength="83" x="1194" y="495.1216">showTypes()</text><polygon fill="#181818" points="1176,525.3203,1166,529.3203,1176,533.3203,1172,529.3203" style="stroke:#181818;stroke-width:1.0;"/><line style="stroke:#181818;stroke-width:1.0;stroke-dasharray:2.0,2.0;" x1="1170" x2="1369" y1="529.3203" y2="529.3203"/><text fill="#000000" font-family="sans-serif" font-size="13" font-weight="bold" lengthAdjust="spacing" textLength="18" x="1182" y="524.2544">14</text><text fill="#000000" font-family="sans-serif" font-size="13" lengthAdjust="spacing" textLength="36" x="1204" y="524.2544">types</text><polygon fill="#181818" points="736.5,554.4531,726.5,558.4531,736.5,562.4531,732.5,558.4531" style="stroke:#181818;stroke-width:1.0;"/><line style="stroke:#181818;stroke-width:1.0;stroke-dasharray:2.0,2.0;" x1="730.5" x2="1159" y1="558.4531" y2="558.4531"/><text fill="#000000" font-family="sans-serif" font-size="13" font-weight="bold" lengthAdjust="spacing" textLength="18" x="742.5" y="553.3872">15</text><text fill="#000000" font-family="sans-serif" font-size="13" lengthAdjust="spacing" textLength="36" x="764.5" y="553.3872">types</text><polygon fill="#181818" points="424.5,583.5859,414.5,587.5859,424.5,591.5859,420.5,587.5859" style="stroke:#181818;stroke-width:1.0;"/><line style="stroke:#181818;stroke-width:1.0;stroke-dasharray:2.0,2.0;" x1="418.5" x2="719.5" y1="587.5859" y2="587.5859"/><text fill="#000000" font-family="sans-serif" font-size="13" font-weight="bold" lengthAdjust="spacing" textLength="18" x="430.5" y="582.52">16</text><text fill="#000000" font-family="sans-serif" font-size="13" lengthAdjust="spacing" textLength="36" x="452.5" y="582.52">types</text><polygon fill="#181818" points="103.5,627.8516,93.5,631.8516,103.5,635.8516,99.5,631.8516" style="stroke:#181818;stroke-width:1.0;"/><line style="stroke:#181818;stroke-width:1.0;stroke-dasharray:2.0,2.0;" x1="97.5" x2="407.5" y1="631.8516" y2="631.8516"/><text fill="#000000" font-family="sans-serif" font-size="13" font-weight="bold" lengthAdjust="spacing" textLength="18" x="109.5" y="619.2192">17</text><text fill="#000000" font-family="sans-serif" font-size="13" lengthAdjust="spacing" textLength="156" x="131.5" y="611.6528">shows types of vehicles</text><text fill="#000000" font-family="sans-serif" font-size="13" lengthAdjust="spacing" textLength="152" x="135.5" y="626.7856">and request a selection</text><polygon fill="#181818" points="391.5,656.9844,401.5,660.9844,391.5,664.9844,395.5,660.9844" style="stroke:#181818;stroke-width:1.0;"/><line style="stroke:#181818;stroke-width:1.0;" x1="92.5" x2="397.5" y1="660.9844" y2="660.9844"/><text fill="#000000" font-family="sans-serif" font-size="13" font-weight="bold" lengthAdjust="spacing" textLength="18" x="99.5" y="655.9185">18</text><text fill="#000000" font-family="sans-serif" font-size="13" lengthAdjust="spacing" textLength="85" x="121.5" y="655.9185">Select a type</text><polygon fill="#181818" points="103.5,686.1172,93.5,690.1172,103.5,694.1172,99.5,690.1172" style="stroke:#181818;stroke-width:1.0;"/><line style="stroke:#181818;stroke-width:1.0;stroke-dasharray:2.0,2.0;" x1="97.5" x2="407.5" y1="690.1172" y2="690.1172"/><text fill="#000000" font-family="sans-serif" font-size="13" font-weight="bold" lengthAdjust="spacing" textLength="18" x="109.5" y="685.0513">19</text><text fill="#000000" font-family="sans-serif" font-size="13" lengthAdjust="spacing" textLength="265" x="131.5" y="685.0513">request data (tareWeight,grossWeight...)</text><polygon fill="#181818" points="391.5,715.25,401.5,719.25,391.5,723.25,395.5,719.25" style="stroke:#181818;stroke-width:1.0;"/><line style="stroke:#181818;stroke-width:1.0;" x1="92.5" x2="397.5" y1="719.25" y2="719.25"/><text fill="#000000" font-family="sans-serif" font-size="13" font-weight="bold" lengthAdjust="spacing" textLength="18" x="99.5" y="714.1841">20</text><text fill="#000000" font-family="sans-serif" font-size="13" lengthAdjust="spacing" textLength="138" x="121.5" y="714.1841">types requested data</text><polygon fill="#181818" points="103.5,759.5156,93.5,763.5156,103.5,767.5156,99.5,763.5156" style="stroke:#181818;stroke-width:1.0;"/><line style="stroke:#181818;stroke-width:1.0;stroke-dasharray:2.0,2.0;" x1="97.5" x2="407.5" y1="763.5156" y2="763.5156"/><text fill="#000000" font-family="sans-serif" font-size="13" font-weight="bold" lengthAdjust="spacing" textLength="18" x="109.5" y="750.8833">21</text><text fill="#000000" font-family="sans-serif" font-size="13" lengthAdjust="spacing" textLength="157" x="131.5" y="743.3169">show all data registered</text><text fill="#000000" font-family="sans-serif" font-size="13" lengthAdjust="spacing" textLength="177" x="135.5" y="758.4497">and the confirmation menu</text><polygon fill="#181818" points="391.5,788.6484,401.5,792.6484,391.5,796.6484,395.5,792.6484" style="stroke:#181818;stroke-width:1.0;"/><line style="stroke:#181818;stroke-width:1.0;" x1="92.5" x2="397.5" y1="792.6484" y2="792.6484"/><text fill="#000000" font-family="sans-serif" font-size="13" font-weight="bold" lengthAdjust="spacing" textLength="18" x="99.5" y="787.5825">22</text><text fill="#000000" font-family="sans-serif" font-size="13" lengthAdjust="spacing" textLength="85" x="121.5" y="787.5825">submits data</text><polygon fill="#181818" points="703.5,817.7813,713.5,821.7813,703.5,825.7813,707.5,821.7813" style="stroke:#181818;stroke-width:1.0;"/><line style="stroke:#181818;stroke-width:1.0;" x1="413.5" x2="709.5" y1="821.7813" y2="821.7813"/><text fill="#000000" font-family="sans-serif" font-size="13" font-weight="bold" lengthAdjust="spacing" textLength="18" x="420.5" y="816.7153">23</text><text fill="#000000" font-family="sans-serif" font-size="13" lengthAdjust="spacing" textLength="261" x="442.5" y="816.7153">registerVehicle(plateID, brand, model...)</text><polygon fill="#181818" points="1143,846.9141,1153,850.9141,1143,854.9141,1147,850.9141" style="stroke:#181818;stroke-width:1.0;"/><line style="stroke:#181818;stroke-width:1.0;" x1="725.5" x2="1149" y1="850.9141" y2="850.9141"/><text fill="#000000" font-family="sans-serif" font-size="13" font-weight="bold" lengthAdjust="spacing" textLength="18" x="732.5" y="845.8481">24</text><text fill="#000000" font-family="sans-serif" font-size="13" lengthAdjust="spacing" textLength="261" x="754.5" y="845.8481">registerVehicle(plateID, brand, model...)</text><polygon fill="#181818" points="1358,876.0469,1368,880.0469,1358,884.0469,1362,880.0469" style="stroke:#181818;stroke-width:1.0;"/><line style="stroke:#181818;stroke-width:1.0;" x1="1165" x2="1364" y1="880.0469" y2="880.0469"/><text fill="#000000" font-family="sans-serif" font-size="13" font-weight="bold" lengthAdjust="spacing" textLength="18" x="1172" y="874.981">25</text><text fill="#000000" font-family="sans-serif" font-size="13" lengthAdjust="spacing" textLength="41" x="1194" y="874.981">create</text><line style="stroke:#181818;stroke-width:1.0;" x1="1170" x2="1212" y1="909.1797" y2="909.1797"/><line style="stroke:#181818;stroke-width:1.0;" x1="1212" x2="1212" y1="909.1797" y2="922.1797"/><line style="stroke:#181818;stroke-width:1.0;" x1="1171" x2="1212" y1="922.1797" y2="922.1797"/><polygon fill="#181818" points="1181,918.1797,1171,922.1797,1181,926.1797,1177,922.1797" style="stroke:#181818;stroke-width:1.0;"/><text fill="#000000" font-family="sans-serif" font-size="13" font-weight="bold" lengthAdjust="spacing" textLength="18" x="1177" y="904.1138">26</text><text fill="#000000" font-family="sans-serif" font-size="13" lengthAdjust="spacing" textLength="130" x="1199" y="904.1138">addVehicle(Vehicle)</text><line style="stroke:#181818;stroke-width:1.0;" x1="1170" x2="1217" y1="946.3125" y2="946.3125"/><line style="stroke:#181818;stroke-width:1.0;" x1="1217" x2="1217" y1="946.3125" y2="959.3125"/><line style="stroke:#181818;stroke-width:1.0;" x1="1176" x2="1217" y1="959.3125" y2="959.3125"/><polygon fill="#181818" points="1186,955.3125,1176,959.3125,1186,963.3125,1182,959.3125" style="stroke:#181818;stroke-width:1.0;"/><text fill="#000000" font-family="sans-serif" font-size="13" font-weight="bold" lengthAdjust="spacing" textLength="18" x="1182" y="941.2466">27</text><text fill="#000000" font-family="sans-serif" font-size="13" lengthAdjust="spacing" textLength="159" x="1204" y="941.2466">validateVehicle(Vehicle)</text><line style="stroke:#181818;stroke-width:1.0;stroke-dasharray:2.0,2.0;" x1="1175" x2="1217" y1="998.4453" y2="998.4453"/><line style="stroke:#181818;stroke-width:1.0;stroke-dasharray:2.0,2.0;" x1="1217" x2="1217" y1="998.4453" y2="1011.4453"/><line style="stroke:#181818;stroke-width:1.0;stroke-dasharray:2.0,2.0;" x1="1170" x2="1217" y1="1011.4453" y2="1011.4453"/><polygon fill="#181818" points="1180,1007.4453,1170,1011.4453,1180,1015.4453,1176,1011.4453" style="stroke:#181818;stroke-width:1.0;"/><text fill="#000000" font-family="sans-serif" font-size="13" font-weight="bold" lengthAdjust="spacing" textLength="18" x="1182" y="993.3794">28</text><text fill="#000000" font-family="sans-serif" font-size="13" lengthAdjust="spacing" textLength="4" x="1204" y="993.3794">&#160;</text><line style="stroke:#181818;stroke-width:1.0;stroke-dasharray:2.0,2.0;" x1="1170" x2="1212" y1="1040.5781" y2="1040.5781"/><line style="stroke:#181818;stroke-width:1.0;stroke-dasharray:2.0,2.0;" x1="1212" x2="1212" y1="1040.5781" y2="1053.5781"/><line style="stroke:#181818;stroke-width:1.0;stroke-dasharray:2.0,2.0;" x1="1165" x2="1212" y1="1053.5781" y2="1053.5781"/><polygon fill="#181818" points="1175,1049.5781,1165,1053.5781,1175,1057.5781,1171,1053.5781" style="stroke:#181818;stroke-width:1.0;"/><text fill="#000000" font-family="sans-serif" font-size="13" font-weight="bold" lengthAdjust="spacing" textLength="18" x="1177" y="1035.5122">29</text><text fill="#000000" font-family="sans-serif" font-size="13" lengthAdjust="spacing" textLength="4" x="1199" y="1035.5122">&#160;</text><polygon fill="#181818" points="736.5,1073.7109,726.5,1077.7109,736.5,1081.7109,732.5,1077.7109" style="stroke:#181818;stroke-width:1.0;"/><line style="stroke:#181818;stroke-width:1.0;stroke-dasharray:2.0,2.0;" x1="730.5" x2="1159" y1="1077.7109" y2="1077.7109"/><text fill="#000000" font-family="sans-serif" font-size="13" font-weight="bold" lengthAdjust="spacing" textLength="18" x="742.5" y="1072.645">30</text><text fill="#000000" font-family="sans-serif" font-size="13" lengthAdjust="spacing" textLength="47" x="764.5" y="1072.645">vehicle</text><polygon fill="#181818" points="424.5,1102.8438,414.5,1106.8438,424.5,1110.8438,420.5,1106.8438" style="stroke:#181818;stroke-width:1.0;"/><line style="stroke:#181818;stroke-width:1.0;stroke-dasharray:2.0,2.0;" x1="418.5" x2="719.5" y1="1106.8438" y2="1106.8438"/><text fill="#000000" font-family="sans-serif" font-size="13" font-weight="bold" lengthAdjust="spacing" textLength="18" x="430.5" y="1101.7778">31</text><text fill="#000000" font-family="sans-serif" font-size="13" lengthAdjust="spacing" textLength="47" x="452.5" y="1101.7778">vehicle</text><polygon fill="#181818" points="98.5,1131.9766,88.5,1135.9766,98.5,1139.9766,94.5,1135.9766" style="stroke:#181818;stroke-width:1.0;"/><line style="stroke:#181818;stroke-width:1.0;stroke-dasharray:2.0,2.0;" x1="92.5" x2="407.5" y1="1135.9766" y2="1135.9766"/><text fill="#000000" font-family="sans-serif" font-size="13" font-weight="bold" lengthAdjust="spacing" textLength="18" x="104.5" y="1130.9106">32</text><text fill="#000000" font-family="sans-serif" font-size="13" lengthAdjust="spacing" textLength="166" x="126.5" y="1130.9106">shows operation success.</text><!--SRC=[lLRBRjim4BppAnQvv07R7v13W21j00C9MkJLIouqjPQ8IAHAKadpzrr9rCkYPJaegaiSYJixE-JEqhv9bNF3CyYqqY8nEaDmfa1csoyv5syynaVtcI8O58whEEqli0cFz8TKCMnvQf4nNZYjYco3Xh7JH4O8MwtTHlzXN3XjuEG54oa8xJP5T73F5U6R4-0MNcxl6Q4wAMJEbOEJomUCfNLeVCppkbhtlDvPvZ_VQEMCJbCFT_FqS3V2oxMLH4EYhTQqBpuVPLaPSH-6c5x4gne3_BoxVXf6lDTaEkJBL_Mo-wwA7QqC0b5M7rwBz7rzytptWvLoodVki9ADWN_e7rXUaKHmIQlVB3XD-rQh21mKVZHfkvWMYOHbfz1x26P9QDVVxWdEuEy2hRCGSSVXpE0M3Ig12uZG2YDp9xLQ04YrrIRZARoguHU78b5Iq9V1wwWmlFubj7Ndh4_WL1WicLLxkSligdfzSK7SwcLTIPvugKPBtFFEKrgv_hQ0ZU4gMj3XZp1ThLR3n14EL0d9wpvpj0quHXLyMDCnQGgtYVvuAY7EpiTHLRq3GbLK5nsZ6nsgis49_MS2UFTf4WLQeywxLfPiGE14ka7AK8zDHfPFAFlIbr_kQDU6ar2zRJoQHYD4sUB7ApwGe7A9WpLNYReYn_OmizB3sUhIkjCqFrKlpV0eDMgDeFnHttVInwdRDMEeigLh_plKGArDjfthuvPxE5RTt2tlrTb2JH7hjAo10ZWJbRRxqHaBswTuqE9ABQnt9BrjKj740lAurW0vM4nfY9FP7cjsZrKW8PGv3hlS7kzrtE0lb77Y5h7HrjQ__v_v3lG2dgOrhsP0OkG5SmdIC59RINEiL0ioL0MReDUdPejD9lsOPFDcWHdUSsRCg9qkPE5XCRwBV27Lt7OzrBBTb1wvIp0iG9v7KSFR_zrxS4O6CAEKaE7DfVREKqaxZfFyliXXl-VCYvzdGlyYst6P9drqT4qz3hzdgHtMr2GBt7kfgnjhrJdMjrHgRo7GsXKBM47__D6j_2y0]--></g></svg>