<?xml version="1.0" encoding="us-ascii" standalone="no"?><svg xmlns="http://www.w3.org/2000/svg" xmlns:xlink="http://www.w3.org/1999/xlink" contentStyleType="text/css" height="616px" preserveAspectRatio="none" style="width:885px;height:616px;background:#FFFFFF;" version="1.1" viewBox="0 0 885 616" width="885px" zoomAndPan="magnify"><defs/><g><rect fill="#FFFFFF" height="426.7969" style="stroke:#181818;stroke-width:1.0;" width="10" x="101.5" y="91.2969"/><rect fill="#FFFFFF" height="70.4297" style="stroke:#181818;stroke-width:1.0;" width="10" x="418.5" y="112.4297"/><rect fill="#FFFFFF" height="29.1328" style="stroke:#181818;stroke-width:1.0;" width="10" x="418.5" y="211.9922"/><rect fill="#FFFFFF" height="247.8359" style="stroke:#181818;stroke-width:1.0;" width="10" x="418.5" y="270.2578"/><rect fill="#FFFFFF" height="189.5703" style="stroke:#181818;stroke-width:1.0;" width="10" x="614.5" y="299.3906"/><rect fill="#FFFFFF" height="87.2031" style="stroke:#181818;stroke-width:1.0;" width="10" x="810.5" y="372.625"/><line style="stroke:#181818;stroke-width:0.5;stroke-dasharray:5.0,5.0;" x1="106" x2="106" y1="81.2969" y2="536.0938"/><line style="stroke:#181818;stroke-width:0.5;stroke-dasharray:5.0,5.0;" x1="423" x2="423" y1="81.2969" y2="536.0938"/><line style="stroke:#181818;stroke-width:0.5;stroke-dasharray:5.0,5.0;" x1="619.5" x2="619.5" y1="151.0781" y2="536.0938"/><line style="stroke:#181818;stroke-width:0.5;stroke-dasharray:5.0,5.0;" x1="815.5" x2="815.5" y1="81.2969" y2="536.0938"/><text fill="#000000" font-family="sans-serif" font-size="14" lengthAdjust="spacing" textLength="197" x="5" y="77.9951">Human Resources Manager</text><ellipse cx="106.5" cy="13.5" fill="#E3E3E3" rx="8" ry="8" style="stroke:#181818;stroke-width:0.5;"/><path d="M106.5,21.5 L106.5,48.5 M93.5,29.5 L119.5,29.5 M106.5,48.5 L93.5,63.5 M106.5,48.5 L119.5,63.5 " fill="none" style="stroke:#181818;stroke-width:0.5;"/><text fill="#000000" font-family="sans-serif" font-size="14" lengthAdjust="spacing" textLength="197" x="5" y="548.0889">Human Resources Manager</text><ellipse cx="106.5" cy="559.8906" fill="#E3E3E3" rx="8" ry="8" style="stroke:#181818;stroke-width:0.5;"/><path d="M106.5,567.8906 L106.5,594.8906 M93.5,575.8906 L119.5,575.8906 M106.5,594.8906 L93.5,609.8906 M106.5,594.8906 L119.5,609.8906 " fill="none" style="stroke:#181818;stroke-width:0.5;"/><rect fill="#E3E3E3" height="30.2969" rx="2.5" ry="2.5" style="stroke:#181818;stroke-width:0.5;" width="121" x="363" y="50"/><text fill="#000000" font-family="sans-serif" font-size="14" lengthAdjust="spacing" textLength="107" x="370" y="69.9951">:RegisterSkillUI</text><rect fill="#E3E3E3" height="30.2969" rx="2.5" ry="2.5" style="stroke:#181818;stroke-width:0.5;" width="121" x="363" y="535.0938"/><text fill="#000000" font-family="sans-serif" font-size="14" lengthAdjust="spacing" textLength="107" x="370" y="555.0889">:RegisterSkillUI</text><rect fill="#E3E3E3" height="30.2969" rx="2.5" ry="2.5" style="stroke:#181818;stroke-width:0.5;" width="178" x="530.5" y="535.0938"/><text fill="#000000" font-family="sans-serif" font-size="14" lengthAdjust="spacing" textLength="164" x="537.5" y="555.0889">:RegisterSkillController</text><rect fill="#E3E3E3" height="46.5938" rx="2.5" ry="2.5" style="stroke:#181818;stroke-width:0.5;" width="122" x="754.5" y="33.7031"/><text fill="#000000" font-family="sans-serif" font-size="14" lengthAdjust="spacing" textLength="103" x="764" y="53.6982">skillRepository</text><text fill="#000000" font-family="sans-serif" font-size="14" lengthAdjust="spacing" textLength="108" x="761.5" y="69.9951">:skillRepository</text><rect fill="#E3E3E3" height="46.5938" rx="2.5" ry="2.5" style="stroke:#181818;stroke-width:0.5;" width="122" x="754.5" y="535.0938"/><text fill="#000000" font-family="sans-serif" font-size="14" lengthAdjust="spacing" textLength="103" x="764" y="555.0889">skillRepository</text><text fill="#000000" font-family="sans-serif" font-size="14" lengthAdjust="spacing" textLength="108" x="761.5" y="571.3857">:skillRepository</text><rect fill="#FFFFFF" height="426.7969" style="stroke:#181818;stroke-width:1.0;" width="10" x="101.5" y="91.2969"/><rect fill="#FFFFFF" height="70.4297" style="stroke:#181818;stroke-width:1.0;" width="10" x="418.5" y="112.4297"/><rect fill="#FFFFFF" height="29.1328" style="stroke:#181818;stroke-width:1.0;" width="10" x="418.5" y="211.9922"/><rect fill="#FFFFFF" height="247.8359" style="stroke:#181818;stroke-width:1.0;" width="10" x="418.5" y="270.2578"/><rect fill="#FFFFFF" height="189.5703" style="stroke:#181818;stroke-width:1.0;" width="10" x="614.5" y="299.3906"/><rect fill="#FFFFFF" height="87.2031" style="stroke:#181818;stroke-width:1.0;" width="10" x="810.5" y="372.625"/><polygon fill="#181818" points="406.5,108.4297,416.5,112.4297,406.5,116.4297,410.5,112.4297" style="stroke:#181818;stroke-width:1.0;"/><line style="stroke:#181818;stroke-width:1.0;" x1="111.5" x2="412.5" y1="112.4297" y2="112.4297"/><text fill="#000000" font-family="sans-serif" font-size="13" font-weight="bold" lengthAdjust="spacing" textLength="9" x="118.5" y="107.3638">1</text><text fill="#000000" font-family="sans-serif" font-size="13" lengthAdjust="spacing" textLength="175" x="131.5" y="107.3638">asks to register a new skill</text><polygon fill="#181818" points="518.5,137.5625,528.5,141.5625,518.5,145.5625,522.5,141.5625" style="stroke:#181818;stroke-width:1.0;"/><line style="stroke:#181818;stroke-width:1.0;" x1="428.5" x2="524.5" y1="141.5625" y2="141.5625"/><text fill="#000000" font-family="sans-serif" font-size="13" font-weight="bold" lengthAdjust="spacing" textLength="9" x="435.5" y="136.4966">2</text><text fill="#000000" font-family="sans-serif" font-size="13" lengthAdjust="spacing" textLength="41" x="448.5" y="136.4966">create</text><rect fill="#E3E3E3" height="30.2969" rx="2.5" ry="2.5" style="stroke:#181818;stroke-width:0.5;" width="178" x="530.5" y="120.4297"/><text fill="#000000" font-family="sans-serif" font-size="14" lengthAdjust="spacing" textLength="164" x="537.5" y="140.4248">:RegisterSkillController</text><polygon fill="#181818" points="122.5,178.8594,112.5,182.8594,122.5,186.8594,118.5,182.8594" style="stroke:#181818;stroke-width:1.0;"/><line style="stroke:#181818;stroke-width:1.0;stroke-dasharray:2.0,2.0;" x1="116.5" x2="422.5" y1="182.8594" y2="182.8594"/><text fill="#000000" font-family="sans-serif" font-size="13" font-weight="bold" lengthAdjust="spacing" textLength="9" x="128.5" y="177.7935">3</text><text fill="#000000" font-family="sans-serif" font-size="13" lengthAdjust="spacing" textLength="162" x="141.5" y="177.7935">request data (skillName)</text><polygon fill="#181818" points="406.5,207.9922,416.5,211.9922,406.5,215.9922,410.5,211.9922" style="stroke:#181818;stroke-width:1.0;"/><line style="stroke:#181818;stroke-width:1.0;" x1="111.5" x2="412.5" y1="211.9922" y2="211.9922"/><text fill="#000000" font-family="sans-serif" font-size="13" font-weight="bold" lengthAdjust="spacing" textLength="9" x="118.5" y="206.9263">4</text><text fill="#000000" font-family="sans-serif" font-size="13" lengthAdjust="spacing" textLength="218" x="131.5" y="206.9263">types requested data (skillName)</text><polygon fill="#181818" points="122.5,237.125,112.5,241.125,122.5,245.125,118.5,241.125" style="stroke:#181818;stroke-width:1.0;"/><line style="stroke:#181818;stroke-width:1.0;stroke-dasharray:2.0,2.0;" x1="116.5" x2="422.5" y1="241.125" y2="241.125"/><text fill="#000000" font-family="sans-serif" font-size="13" font-weight="bold" lengthAdjust="spacing" textLength="9" x="128.5" y="236.0591">5</text><text fill="#000000" font-family="sans-serif" font-size="13" lengthAdjust="spacing" textLength="270" x="141.5" y="236.0591">show all data registered  for confirmation</text><polygon fill="#181818" points="406.5,266.2578,416.5,270.2578,406.5,274.2578,410.5,270.2578" style="stroke:#181818;stroke-width:1.0;"/><line style="stroke:#181818;stroke-width:1.0;" x1="111.5" x2="412.5" y1="270.2578" y2="270.2578"/><text fill="#000000" font-family="sans-serif" font-size="13" font-weight="bold" lengthAdjust="spacing" textLength="9" x="118.5" y="265.1919">6</text><text fill="#000000" font-family="sans-serif" font-size="13" lengthAdjust="spacing" textLength="85" x="131.5" y="265.1919">submits data</text><polygon fill="#181818" points="602.5,295.3906,612.5,299.3906,602.5,303.3906,606.5,299.3906" style="stroke:#181818;stroke-width:1.0;"/><line style="stroke:#181818;stroke-width:1.0;" x1="428.5" x2="608.5" y1="299.3906" y2="299.3906"/><text fill="#000000" font-family="sans-serif" font-size="13" font-weight="bold" lengthAdjust="spacing" textLength="9" x="435.5" y="294.3247">7</text><text fill="#000000" font-family="sans-serif" font-size="13" lengthAdjust="spacing" textLength="154" x="448.5" y="294.3247">registerSkill(skillName)</text><rect fill="none" height="39.1016" style="stroke:#000000;stroke-width:1.5;" width="184" x="527.5" y="307.3906"/><path d="M527.5,307.3906 L593.5,307.3906 L593.5,314.3906 L583.5,324.3906 L527.5,324.3906 L527.5,307.3906 " fill="#EEEEEE" style="stroke:#000000;stroke-width:2.0;"/><text fill="#000000" font-family="sans-serif" font-size="13" font-weight="bold" lengthAdjust="spacing" textLength="21" x="540.5" y="321.4575">ref</text><text fill="#000000" font-family="sans-serif" font-size="12" lengthAdjust="spacing" textLength="116" x="561.5" y="339.5293">Get Skill Repository</text><polygon fill="#181818" points="798.5,368.625,808.5,372.625,798.5,376.625,802.5,372.625" style="stroke:#181818;stroke-width:1.0;"/><line style="stroke:#181818;stroke-width:1.0;" x1="624.5" x2="804.5" y1="372.625" y2="372.625"/><text fill="#000000" font-family="sans-serif" font-size="13" font-weight="bold" lengthAdjust="spacing" textLength="9" x="631.5" y="367.5591">8</text><text fill="#000000" font-family="sans-serif" font-size="13" lengthAdjust="spacing" textLength="154" x="644.5" y="367.5591">registerSkill(skillName)</text><rect fill="none" height="53.0703" style="stroke:#000000;stroke-width:1.5;" width="128" x="751.5" y="380.625"/><path d="M751.5,380.625 L817.5,380.625 L817.5,387.625 L807.5,397.625 L751.5,397.625 L751.5,380.625 " fill="#EEEEEE" style="stroke:#000000;stroke-width:2.0;"/><text fill="#000000" font-family="sans-serif" font-size="13" font-weight="bold" lengthAdjust="spacing" textLength="21" x="764.5" y="394.6919">ref</text><text fill="#000000" font-family="sans-serif" font-size="12" lengthAdjust="spacing" textLength="77" x="777" y="412.7637">Register Skill</text><text fill="#000000" font-family="sans-serif" font-size="12" lengthAdjust="spacing" textLength="4" x="813.5" y="426.7324">&#160;</text><polygon fill="#181818" points="635.5,455.8281,625.5,459.8281,635.5,463.8281,631.5,459.8281" style="stroke:#181818;stroke-width:1.0;"/><line style="stroke:#181818;stroke-width:1.0;stroke-dasharray:2.0,2.0;" x1="629.5" x2="814.5" y1="459.8281" y2="459.8281"/><text fill="#000000" font-family="sans-serif" font-size="13" font-weight="bold" lengthAdjust="spacing" textLength="9" x="641.5" y="454.7622">9</text><text fill="#000000" font-family="sans-serif" font-size="13" lengthAdjust="spacing" textLength="27" x="654.5" y="454.7622">skill</text><polygon fill="#181818" points="439.5,484.9609,429.5,488.9609,439.5,492.9609,435.5,488.9609" style="stroke:#181818;stroke-width:1.0;"/><line style="stroke:#181818;stroke-width:1.0;stroke-dasharray:2.0,2.0;" x1="433.5" x2="618.5" y1="488.9609" y2="488.9609"/><text fill="#000000" font-family="sans-serif" font-size="13" font-weight="bold" lengthAdjust="spacing" textLength="18" x="445.5" y="483.895">10</text><text fill="#000000" font-family="sans-serif" font-size="13" lengthAdjust="spacing" textLength="27" x="467.5" y="483.895">skill</text><polygon fill="#181818" points="117.5,514.0938,107.5,518.0938,117.5,522.0938,113.5,518.0938" style="stroke:#181818;stroke-width:1.0;"/><line style="stroke:#181818;stroke-width:1.0;stroke-dasharray:2.0,2.0;" x1="111.5" x2="422.5" y1="518.0938" y2="518.0938"/><text fill="#000000" font-family="sans-serif" font-size="13" font-weight="bold" lengthAdjust="spacing" textLength="18" x="123.5" y="513.0278">11</text><text fill="#000000" font-family="sans-serif" font-size="13" lengthAdjust="spacing" textLength="166" x="145.5" y="513.0278">shows operation success.</text><!--SRC=[ZLHDRzim3BthLn2vj2lG_O0S2WmTi1POTqZNsowCp2H2PD6Lw6RvzwEbnFD7a8qdctfyUYAVbFOkD1YnXfe3srtaca1YIoRrAmtQFMxfLOwU898L35i_1AGTLdnmOGiRz8cCmLOujFMQeZ4tErSHR9XbpRyDMk48YwUsnW0hIjn6ImbUCEWESG6OuClN5wEyugnhC0WibYlQkYGKN_VE-xVdZ7fxlWPwv22HlJzHFlvSVH_3KuTQKSF9gQ3Zhx2SP7BT96Sw-Uu3XR980nhw0VSFAWUMMh5F8AmzAb808T2Xi1HqNw_oSw8BhLM6JkFTdRBOI8emutK5T3ijbVkzfIHGeI3SPkeVMDEd0gzejCEbt5Iq71iTm8cMgZdnLTszhhJZ0w3tfVxS0UNJqKUm73OkrYYEm_-8IkswTf8osLp0XSxbpWmCC3t0Y2FRuPoDj07-q66Dibry8u5C1WCBd1SfL6QWf8kiG_LCN7D5sRY-rpUp7KoYrpn5meKuNunobZbPFiaqEI7EWpxrkTXv21uCywhqqg0yut_Gp6Rnrsl5QWcuePZzf6Qn-eQapvUCDVZjhkmV]--></g></svg>