<?xml version="1.0" encoding="us-ascii" standalone="no"?><svg xmlns="http://www.w3.org/2000/svg" xmlns:xlink="http://www.w3.org/1999/xlink" contentStyleType="text/css" height="1660px" preserveAspectRatio="none" style="width:2183px;height:1660px;background:#FFFFFF;" version="1.1" viewBox="0 0 2183 1660" width="2183px" zoomAndPan="magnify"><defs/><g><rect fill="#FFFFFF" height="1473.3477" style="stroke:#181818;stroke-width:1.0;" width="10" x="106" y="93.6211"/><rect fill="#FFFFFF" height="342.5313" style="stroke:#181818;stroke-width:1.0;" width="10" x="557" y="116.9121"/><rect fill="#FFFFFF" height="31.291" style="stroke:#181818;stroke-width:1.0;" width="10" x="557" y="517.0254"/><rect fill="#FFFFFF" height="31.291" style="stroke:#181818;stroke-width:1.0;" width="10" x="557" y="579.6074"/><rect fill="#FFFFFF" height="917.7793" style="stroke:#181818;stroke-width:1.0;" width="10" x="557" y="649.1895"/><rect fill="#FFFFFF" height="219.0371" style="stroke:#181818;stroke-width:1.0;" width="10" x="988" y="191.8242"/><rect fill="#FFFFFF" height="31.291" style="stroke:#181818;stroke-width:1.0;" width="10" x="988" y="680.4805"/><rect fill="#FFFFFF" height="31.291" style="stroke:#181818;stroke-width:1.0;" width="10" x="988" y="1070.9727"/><rect fill="#FFFFFF" height="93.873" style="stroke:#181818;stroke-width:1.0;" width="10" x="988" y="1222.4277"/><rect fill="#FFFFFF" height="93.873" style="stroke:#181818;stroke-width:1.0;" width="10" x="988" y="1426.8047"/><rect fill="#FFFFFF" height="359.2012" style="stroke:#181818;stroke-width:1.0;" width="10" x="1428" y="711.7715"/><rect fill="#FFFFFF" height="282.6191" style="stroke:#181818;stroke-width:1.0;" width="10" x="1433" y="743.0625"/><rect fill="#FFFFFF" height="31.291" style="stroke:#181818;stroke-width:1.0;" width="10" x="1428" y="1253.7188"/><rect fill="#FFFFFF" height="31.291" style="stroke:#181818;stroke-width:1.0;" width="10" x="1428" y="1458.0957"/><rect fill="#FFFFFF" height="31.291" style="stroke:#181818;stroke-width:1.0;" width="10" x="1642" y="223.1152"/><rect fill="#FFFFFF" height="31.291" style="stroke:#181818;stroke-width:1.0;" width="10" x="1642" y="743.0625"/><rect fill="#FFFFFF" height="31.291" style="stroke:#181818;stroke-width:1.0;" width="10" x="1749" y="285.6973"/><rect fill="#FFFFFF" height="31.291" style="stroke:#181818;stroke-width:1.0;" width="10" x="1749" y="805.6445"/><rect fill="#FFFFFF" height="93.873" style="stroke:#181818;stroke-width:1.0;" width="10" x="1889.5" y="894.5176"/><rect fill="#FFFFFF" height="31.291" style="stroke:#181818;stroke-width:1.0;" width="10" x="2106.5" y="348.2793"/><rect fill="#FFFFFF" height="31.291" style="stroke:#181818;stroke-width:1.0;" width="10" x="2106.5" y="925.8086"/><rect fill="none" height="144.4551" style="stroke:#000000;stroke-width:1.5;" width="625" x="10" y="474.4434"/><rect fill="none" height="188.7461" style="stroke:#000000;stroke-width:1.5;" width="781" x="1396" y="851.9355"/><rect fill="none" height="411.4141" style="stroke:#000000;stroke-width:1.5;" width="1460" x="10" y="1148.5547"/><line style="stroke:#181818;stroke-width:0.5;stroke-dasharray:5.0,5.0;" x1="111" x2="111" y1="83.6211" y2="1576.9688"/><line style="stroke:#181818;stroke-width:0.5;stroke-dasharray:5.0,5.0;" x1="562" x2="562" y1="83.6211" y2="1576.9688"/><line style="stroke:#181818;stroke-width:0.5;stroke-dasharray:5.0,5.0;" x1="993" x2="993" y1="156.7227" y2="1576.9688"/><line style="stroke:#181818;stroke-width:0.5;stroke-dasharray:5.0,5.0;" x1="1433" x2="1433" y1="83.6211" y2="1576.9688"/><line style="stroke:#181818;stroke-width:0.5;stroke-dasharray:5.0,5.0;" x1="1646.5" x2="1646.5" y1="83.6211" y2="1576.9688"/><line style="stroke:#181818;stroke-width:0.5;stroke-dasharray:5.0,5.0;" x1="1753.5" x2="1753.5" y1="83.6211" y2="1576.9688"/><line style="stroke:#181818;stroke-width:0.5;stroke-dasharray:5.0,5.0;" x1="1894.5" x2="1894.5" y1="83.6211" y2="1576.9688"/><line style="stroke:#181818;stroke-width:0.5;stroke-dasharray:5.0,5.0;" x1="2111" x2="2111" y1="83.6211" y2="1576.9688"/><text fill="#000000" font-family="sans-serif" font-size="14" lengthAdjust="spacing" textLength="176" x="20" y="80.1074">Human Resources Manager</text><ellipse cx="111" cy="13.5" fill="#E3E3E3" rx="8" ry="8" style="stroke:#181818;stroke-width:0.5;"/><path d="M111,21.5 L111,48.5 M98,29.5 L124,29.5 M111,48.5 L98,63.5 M111,48.5 L124,63.5 " fill="none" style="stroke:#181818;stroke-width:0.5;"/><text fill="#000000" font-family="sans-serif" font-size="14" lengthAdjust="spacing" textLength="176" x="20" y="1591.0762">Human Resources Manager</text><ellipse cx="111" cy="1603.0898" fill="#E3E3E3" rx="8" ry="8" style="stroke:#181818;stroke-width:0.5;"/><path d="M111,1611.0898 L111,1638.0898 M98,1619.0898 L124,1619.0898 M111,1638.0898 L98,1653.0898 M111,1638.0898 L124,1653.0898 " fill="none" style="stroke:#181818;stroke-width:0.5;"/><rect fill="#E3E3E3" height="32.6211" rx="2.5" ry="2.5" style="stroke:#181818;stroke-width:0.5;" width="126" x="499" y="50"/><text fill="#000000" font-family="sans-serif" font-size="14" lengthAdjust="spacing" textLength="112" x="506" y="72.1074">:GenerateTeamUI</text><rect fill="#E3E3E3" height="32.6211" rx="2.5" ry="2.5" style="stroke:#181818;stroke-width:0.5;" width="126" x="499" y="1575.9688"/><text fill="#000000" font-family="sans-serif" font-size="14" lengthAdjust="spacing" textLength="112" x="506" y="1598.0762">:GenerateTeamUI</text><rect fill="#E3E3E3" height="32.6211" rx="2.5" ry="2.5" style="stroke:#181818;stroke-width:0.5;" width="176" x="905" y="1575.9688"/><text fill="#000000" font-family="sans-serif" font-size="14" lengthAdjust="spacing" textLength="162" x="912" y="1598.0762">:GenerateTeamController</text><rect fill="#E3E3E3" height="32.6211" rx="2.5" ry="2.5" style="stroke:#181818;stroke-width:0.5;" width="54" x="1406" y="50"/><text fill="#000000" font-family="sans-serif" font-size="14" lengthAdjust="spacing" textLength="40" x="1413" y="72.1074">:Team</text><rect fill="#E3E3E3" height="32.6211" rx="2.5" ry="2.5" style="stroke:#181818;stroke-width:0.5;" width="54" x="1406" y="1575.9688"/><text fill="#000000" font-family="sans-serif" font-size="14" lengthAdjust="spacing" textLength="40" x="1413" y="1598.0762">:Team</text><rect fill="#E3E3E3" height="32.6211" rx="2.5" ry="2.5" style="stroke:#181818;stroke-width:0.5;" width="97" x="1598.5" y="50"/><text fill="#000000" font-family="sans-serif" font-size="14" lengthAdjust="spacing" textLength="83" x="1605.5" y="72.1074">:Repositories</text><rect fill="#E3E3E3" height="32.6211" rx="2.5" ry="2.5" style="stroke:#181818;stroke-width:0.5;" width="97" x="1598.5" y="1575.9688"/><text fill="#000000" font-family="sans-serif" font-size="14" lengthAdjust="spacing" textLength="83" x="1605.5" y="1598.0762">:Repositories</text><rect fill="#E3E3E3" height="51.2422" rx="2.5" ry="2.5" style="stroke:#181818;stroke-width:0.5;" width="97" x="1705.5" y="31.3789"/><text fill="#000000" font-family="sans-serif" font-size="14" lengthAdjust="spacing" textLength="74" x="1717" y="53.4863">repositories</text><text fill="#000000" font-family="sans-serif" font-size="14" lengthAdjust="spacing" textLength="83" x="1712.5" y="72.1074">:Repositories</text><rect fill="#E3E3E3" height="51.2422" rx="2.5" ry="2.5" style="stroke:#181818;stroke-width:0.5;" width="97" x="1705.5" y="1575.9688"/><text fill="#000000" font-family="sans-serif" font-size="14" lengthAdjust="spacing" textLength="74" x="1717" y="1598.0762">repositories</text><text fill="#000000" font-family="sans-serif" font-size="14" lengthAdjust="spacing" textLength="83" x="1712.5" y="1616.6973">:Repositories</text><rect fill="#E3E3E3" height="51.2422" rx="2.5" ry="2.5" style="stroke:#181818;stroke-width:0.5;" width="164" x="1812.5" y="31.3789"/><text fill="#000000" font-family="sans-serif" font-size="14" lengthAdjust="spacing" textLength="150" x="1819.5" y="53.4863">CollaboratorRepository:</text><text fill="#000000" font-family="sans-serif" font-size="14" lengthAdjust="spacing" textLength="146" x="1821.5" y="72.1074">CollaboratorRepository</text><rect fill="#E3E3E3" height="51.2422" rx="2.5" ry="2.5" style="stroke:#181818;stroke-width:0.5;" width="164" x="1812.5" y="1575.9688"/><text fill="#000000" font-family="sans-serif" font-size="14" lengthAdjust="spacing" textLength="150" x="1819.5" y="1598.0762">CollaboratorRepository:</text><text fill="#000000" font-family="sans-serif" font-size="14" lengthAdjust="spacing" textLength="146" x="1821.5" y="1616.6973">CollaboratorRepository</text><rect fill="#E3E3E3" height="51.2422" rx="2.5" ry="2.5" style="stroke:#181818;stroke-width:0.5;" width="111" x="2056" y="31.3789"/><text fill="#000000" font-family="sans-serif" font-size="14" lengthAdjust="spacing" textLength="97" x="2063" y="53.4863">SkillRepository:</text><text fill="#000000" font-family="sans-serif" font-size="14" lengthAdjust="spacing" textLength="93" x="2065" y="72.1074">SkillRepository</text><rect fill="#E3E3E3" height="51.2422" rx="2.5" ry="2.5" style="stroke:#181818;stroke-width:0.5;" width="111" x="2056" y="1575.9688"/><text fill="#000000" font-family="sans-serif" font-size="14" lengthAdjust="spacing" textLength="97" x="2063" y="1598.0762">SkillRepository:</text><text fill="#000000" font-family="sans-serif" font-size="14" lengthAdjust="spacing" textLength="93" x="2065" y="1616.6973">SkillRepository</text><rect fill="#FFFFFF" height="1473.3477" style="stroke:#181818;stroke-width:1.0;" width="10" x="106" y="93.6211"/><rect fill="#FFFFFF" height="342.5313" style="stroke:#181818;stroke-width:1.0;" width="10" x="557" y="116.9121"/><rect fill="#FFFFFF" height="31.291" style="stroke:#181818;stroke-width:1.0;" width="10" x="557" y="517.0254"/><rect fill="#FFFFFF" height="31.291" style="stroke:#181818;stroke-width:1.0;" width="10" x="557" y="579.6074"/><rect fill="#FFFFFF" height="917.7793" style="stroke:#181818;stroke-width:1.0;" width="10" x="557" y="649.1895"/><rect fill="#FFFFFF" height="219.0371" style="stroke:#181818;stroke-width:1.0;" width="10" x="988" y="191.8242"/><rect fill="#FFFFFF" height="31.291" style="stroke:#181818;stroke-width:1.0;" width="10" x="988" y="680.4805"/><rect fill="#FFFFFF" height="31.291" style="stroke:#181818;stroke-width:1.0;" width="10" x="988" y="1070.9727"/><rect fill="#FFFFFF" height="93.873" style="stroke:#181818;stroke-width:1.0;" width="10" x="988" y="1222.4277"/><rect fill="#FFFFFF" height="93.873" style="stroke:#181818;stroke-width:1.0;" width="10" x="988" y="1426.8047"/><rect fill="#FFFFFF" height="359.2012" style="stroke:#181818;stroke-width:1.0;" width="10" x="1428" y="711.7715"/><rect fill="#FFFFFF" height="282.6191" style="stroke:#181818;stroke-width:1.0;" width="10" x="1433" y="743.0625"/><rect fill="#FFFFFF" height="31.291" style="stroke:#181818;stroke-width:1.0;" width="10" x="1428" y="1253.7188"/><rect fill="#FFFFFF" height="31.291" style="stroke:#181818;stroke-width:1.0;" width="10" x="1428" y="1458.0957"/><rect fill="#FFFFFF" height="31.291" style="stroke:#181818;stroke-width:1.0;" width="10" x="1642" y="223.1152"/><rect fill="#FFFFFF" height="31.291" style="stroke:#181818;stroke-width:1.0;" width="10" x="1642" y="743.0625"/><rect fill="#FFFFFF" height="31.291" style="stroke:#181818;stroke-width:1.0;" width="10" x="1749" y="285.6973"/><rect fill="#FFFFFF" height="31.291" style="stroke:#181818;stroke-width:1.0;" width="10" x="1749" y="805.6445"/><rect fill="#FFFFFF" height="93.873" style="stroke:#181818;stroke-width:1.0;" width="10" x="1889.5" y="894.5176"/><rect fill="#FFFFFF" height="31.291" style="stroke:#181818;stroke-width:1.0;" width="10" x="2106.5" y="348.2793"/><rect fill="#FFFFFF" height="31.291" style="stroke:#181818;stroke-width:1.0;" width="10" x="2106.5" y="925.8086"/><polygon fill="#181818" points="545,112.9121,555,116.9121,545,120.9121,549,116.9121" style="stroke:#181818;stroke-width:1.0;"/><line style="stroke:#181818;stroke-width:1.0;" x1="116" x2="551" y1="116.9121" y2="116.9121"/><text fill="#000000" font-family="sans-serif" font-size="13" font-weight="bold" lengthAdjust="spacing" textLength="7" x="123" y="111.6494">1</text><text fill="#000000" font-family="sans-serif" font-size="13" lengthAdjust="spacing" textLength="168" x="134" y="111.6494">asks to generate a new team</text><polygon fill="#181818" points="893,144.2031,903,148.2031,893,152.2031,897,148.2031" style="stroke:#181818;stroke-width:1.0;"/><line style="stroke:#181818;stroke-width:1.0;" x1="567" x2="899" y1="148.2031" y2="148.2031"/><text fill="#000000" font-family="sans-serif" font-size="13" font-weight="bold" lengthAdjust="spacing" textLength="7" x="574" y="142.9404">2</text><text fill="#000000" font-family="sans-serif" font-size="13" lengthAdjust="spacing" textLength="50" x="585" y="142.9404">generate</text><rect fill="#E3E3E3" height="32.6211" rx="2.5" ry="2.5" style="stroke:#181818;stroke-width:0.5;" width="176" x="905" y="124.9121"/><text fill="#000000" font-family="sans-serif" font-size="14" lengthAdjust="spacing" textLength="162" x="912" y="147.0195">:GenerateTeamController</text><polygon fill="#181818" points="976,187.8242,986,191.8242,976,195.8242,980,191.8242" style="stroke:#181818;stroke-width:1.0;"/><line style="stroke:#181818;stroke-width:1.0;" x1="567" x2="982" y1="191.8242" y2="191.8242"/><text fill="#000000" font-family="sans-serif" font-size="13" font-weight="bold" lengthAdjust="spacing" textLength="7" x="574" y="186.5615">3</text><text fill="#000000" font-family="sans-serif" font-size="13" lengthAdjust="spacing" textLength="58" x="585" y="186.5615">getSkills()</text><polygon fill="#181818" points="1630,219.1152,1640,223.1152,1630,227.1152,1634,223.1152" style="stroke:#181818;stroke-width:1.0;"/><line style="stroke:#181818;stroke-width:1.0;" x1="998" x2="1636" y1="223.1152" y2="223.1152"/><text fill="#000000" font-family="sans-serif" font-size="13" font-weight="bold" lengthAdjust="spacing" textLength="7" x="1005" y="217.8525">4</text><text fill="#000000" font-family="sans-serif" font-size="13" lengthAdjust="spacing" textLength="75" x="1016" y="217.8525">getInstance()</text><polygon fill="#181818" points="1009,250.4063,999,254.4063,1009,258.4063,1005,254.4063" style="stroke:#181818;stroke-width:1.0;"/><line style="stroke:#181818;stroke-width:1.0;stroke-dasharray:2.0,2.0;" x1="1003" x2="1646" y1="254.4063" y2="254.4063"/><text fill="#000000" font-family="sans-serif" font-size="13" font-weight="bold" lengthAdjust="spacing" textLength="7" x="1015" y="249.1436">5</text><text fill="#000000" font-family="sans-serif" font-size="13" lengthAdjust="spacing" textLength="67" x="1026" y="249.1436">repositories</text><polygon fill="#181818" points="1737,281.6973,1747,285.6973,1737,289.6973,1741,285.6973" style="stroke:#181818;stroke-width:1.0;"/><line style="stroke:#181818;stroke-width:1.0;" x1="998" x2="1743" y1="285.6973" y2="285.6973"/><text fill="#000000" font-family="sans-serif" font-size="13" font-weight="bold" lengthAdjust="spacing" textLength="7" x="1005" y="280.4346">6</text><text fill="#000000" font-family="sans-serif" font-size="13" lengthAdjust="spacing" textLength="120" x="1016" y="280.4346">getSkillsRepository()</text><polygon fill="#181818" points="1009,312.9883,999,316.9883,1009,320.9883,1005,316.9883" style="stroke:#181818;stroke-width:1.0;"/><line style="stroke:#181818;stroke-width:1.0;stroke-dasharray:2.0,2.0;" x1="1003" x2="1753" y1="316.9883" y2="316.9883"/><text fill="#000000" font-family="sans-serif" font-size="13" font-weight="bold" lengthAdjust="spacing" textLength="7" x="1015" y="311.7256">7</text><text fill="#000000" font-family="sans-serif" font-size="13" lengthAdjust="spacing" textLength="87" x="1026" y="311.7256">SkillRepository</text><polygon fill="#181818" points="2094.5,344.2793,2104.5,348.2793,2094.5,352.2793,2098.5,348.2793" style="stroke:#181818;stroke-width:1.0;"/><line style="stroke:#181818;stroke-width:1.0;" x1="998" x2="2100.5" y1="348.2793" y2="348.2793"/><text fill="#000000" font-family="sans-serif" font-size="13" font-weight="bold" lengthAdjust="spacing" textLength="7" x="1005" y="343.0166">8</text><text fill="#000000" font-family="sans-serif" font-size="13" lengthAdjust="spacing" textLength="58" x="1016" y="343.0166">getSkills()</text><polygon fill="#181818" points="1009,375.5703,999,379.5703,1009,383.5703,1005,379.5703" style="stroke:#181818;stroke-width:1.0;"/><line style="stroke:#181818;stroke-width:1.0;stroke-dasharray:2.0,2.0;" x1="1003" x2="2110.5" y1="379.5703" y2="379.5703"/><text fill="#000000" font-family="sans-serif" font-size="13" font-weight="bold" lengthAdjust="spacing" textLength="7" x="1015" y="374.3076">9</text><text fill="#000000" font-family="sans-serif" font-size="13" lengthAdjust="spacing" textLength="108" x="1026" y="374.3076">SkillRepositoryList</text><polygon fill="#181818" points="578,406.8613,568,410.8613,578,414.8613,574,410.8613" style="stroke:#181818;stroke-width:1.0;"/><line style="stroke:#181818;stroke-width:1.0;stroke-dasharray:2.0,2.0;" x1="572" x2="992" y1="410.8613" y2="410.8613"/><text fill="#000000" font-family="sans-serif" font-size="13" font-weight="bold" lengthAdjust="spacing" textLength="14" x="584" y="405.5986">10</text><text fill="#000000" font-family="sans-serif" font-size="13" lengthAdjust="spacing" textLength="108" x="602" y="405.5986">SkillRepositoryList</text><polygon fill="#181818" points="127,455.4434,117,459.4434,127,463.4434,123,459.4434" style="stroke:#181818;stroke-width:1.0;"/><line style="stroke:#181818;stroke-width:1.0;stroke-dasharray:2.0,2.0;" x1="121" x2="561" y1="459.4434" y2="459.4434"/><text fill="#000000" font-family="sans-serif" font-size="13" font-weight="bold" lengthAdjust="spacing" textLength="14" x="133" y="445.5352">11</text><text fill="#000000" font-family="sans-serif" font-size="13" lengthAdjust="spacing" textLength="92" x="151" y="436.8896">shows skills list</text><text fill="#000000" font-family="sans-serif" font-size="13" lengthAdjust="spacing" textLength="132" x="155" y="454.1807">and asks to select one</text><path d="M10,474.4434 L83,474.4434 L83,483.7344 L73,493.7344 L10,493.7344 L10,474.4434 " fill="#EEEEEE" style="stroke:#000000;stroke-width:1.5;"/><rect fill="none" height="144.4551" style="stroke:#000000;stroke-width:1.5;" width="625" x="10" y="474.4434"/><text fill="#000000" font-family="sans-serif" font-size="13" font-weight="bold" lengthAdjust="spacing" textLength="28" x="25" y="489.4717">loop</text><text fill="#000000" font-family="sans-serif" font-size="11" font-weight="bold" lengthAdjust="spacing" textLength="83" x="98" y="488.3135">[[for each skill]</text><polygon fill="#181818" points="545,513.0254,555,517.0254,545,521.0254,549,517.0254" style="stroke:#181818;stroke-width:1.0;"/><line style="stroke:#181818;stroke-width:1.0;" x1="116" x2="551" y1="517.0254" y2="517.0254"/><text fill="#000000" font-family="sans-serif" font-size="13" font-weight="bold" lengthAdjust="spacing" textLength="14" x="123" y="511.7627">12</text><text fill="#000000" font-family="sans-serif" font-size="13" lengthAdjust="spacing" textLength="80" x="141" y="511.7627">selects a skill</text><polygon fill="#181818" points="127,544.3164,117,548.3164,127,552.3164,123,548.3164" style="stroke:#181818;stroke-width:1.0;"/><line style="stroke:#181818;stroke-width:1.0;stroke-dasharray:2.0,2.0;" x1="121" x2="561" y1="548.3164" y2="548.3164"/><text fill="#000000" font-family="sans-serif" font-size="13" font-weight="bold" lengthAdjust="spacing" textLength="14" x="133" y="543.0537">13</text><text fill="#000000" font-family="sans-serif" font-size="13" lengthAdjust="spacing" textLength="79" x="151" y="543.0537">requests data</text><polygon fill="#181818" points="545,575.6074,555,579.6074,545,583.6074,549,579.6074" style="stroke:#181818;stroke-width:1.0;"/><line style="stroke:#181818;stroke-width:1.0;" x1="116" x2="551" y1="579.6074" y2="579.6074"/><text fill="#000000" font-family="sans-serif" font-size="13" font-weight="bold" lengthAdjust="spacing" textLength="14" x="123" y="574.3447">14</text><text fill="#000000" font-family="sans-serif" font-size="13" lengthAdjust="spacing" textLength="404" x="141" y="574.3447">types requested data (minimumCollaborators, maximumCollaborators)</text><polygon fill="#181818" points="127,606.8984,117,610.8984,127,614.8984,123,610.8984" style="stroke:#181818;stroke-width:1.0;"/><line style="stroke:#181818;stroke-width:1.0;stroke-dasharray:2.0,2.0;" x1="121" x2="561" y1="610.8984" y2="610.8984"/><text fill="#000000" font-family="sans-serif" font-size="13" font-weight="bold" lengthAdjust="spacing" textLength="14" x="133" y="605.6357">15</text><text fill="#000000" font-family="sans-serif" font-size="13" lengthAdjust="spacing" textLength="102" x="151" y="605.6357">shows typed data</text><polygon fill="#181818" points="545,645.1895,555,649.1895,545,653.1895,549,649.1895" style="stroke:#181818;stroke-width:1.0;"/><line style="stroke:#181818;stroke-width:1.0;" x1="116" x2="551" y1="649.1895" y2="649.1895"/><text fill="#000000" font-family="sans-serif" font-size="13" font-weight="bold" lengthAdjust="spacing" textLength="14" x="123" y="643.9268">16</text><text fill="#000000" font-family="sans-serif" font-size="13" lengthAdjust="spacing" textLength="153" x="141" y="643.9268">confirms and submits data</text><polygon fill="#181818" points="976,676.4805,986,680.4805,976,684.4805,980,680.4805" style="stroke:#181818;stroke-width:1.0;"/><line style="stroke:#181818;stroke-width:1.0;" x1="567" x2="982" y1="680.4805" y2="680.4805"/><text fill="#000000" font-family="sans-serif" font-size="13" font-weight="bold" lengthAdjust="spacing" textLength="14" x="574" y="675.2178">17</text><text fill="#000000" font-family="sans-serif" font-size="13" lengthAdjust="spacing" textLength="384" x="592" y="675.2178">createTeam(skills, minimumCollaborators, maximumCollaborators)</text><polygon fill="#181818" points="1416,707.7715,1426,711.7715,1416,715.7715,1420,711.7715" style="stroke:#181818;stroke-width:1.0;"/><line style="stroke:#181818;stroke-width:1.0;" x1="993" x2="1422" y1="711.7715" y2="711.7715"/><text fill="#000000" font-family="sans-serif" font-size="13" font-weight="bold" lengthAdjust="spacing" textLength="14" x="1000" y="706.5088">18</text><text fill="#000000" font-family="sans-serif" font-size="13" lengthAdjust="spacing" textLength="393" x="1018" y="706.5088">teamCreation(skills, minimumCollaborators, maximumCollaborators)</text><polygon fill="#181818" points="1630,739.0625,1640,743.0625,1630,747.0625,1634,743.0625" style="stroke:#181818;stroke-width:1.0;"/><line style="stroke:#181818;stroke-width:1.0;" x1="1443" x2="1636" y1="743.0625" y2="743.0625"/><text fill="#000000" font-family="sans-serif" font-size="13" font-weight="bold" lengthAdjust="spacing" textLength="14" x="1450" y="737.7998">19</text><text fill="#000000" font-family="sans-serif" font-size="13" lengthAdjust="spacing" textLength="75" x="1468" y="737.7998">getInstance()</text><polygon fill="#181818" points="1454,770.3535,1444,774.3535,1454,778.3535,1450,774.3535" style="stroke:#181818;stroke-width:1.0;"/><line style="stroke:#181818;stroke-width:1.0;stroke-dasharray:2.0,2.0;" x1="1448" x2="1646" y1="774.3535" y2="774.3535"/><text fill="#000000" font-family="sans-serif" font-size="13" font-weight="bold" lengthAdjust="spacing" textLength="14" x="1460" y="769.0908">20</text><text fill="#000000" font-family="sans-serif" font-size="13" lengthAdjust="spacing" textLength="67" x="1478" y="769.0908">repositories</text><polygon fill="#181818" points="1737,801.6445,1747,805.6445,1737,809.6445,1741,805.6445" style="stroke:#181818;stroke-width:1.0;"/><line style="stroke:#181818;stroke-width:1.0;" x1="1443" x2="1743" y1="805.6445" y2="805.6445"/><text fill="#000000" font-family="sans-serif" font-size="13" font-weight="bold" lengthAdjust="spacing" textLength="14" x="1450" y="800.3818">21</text><text fill="#000000" font-family="sans-serif" font-size="13" lengthAdjust="spacing" textLength="157" x="1468" y="800.3818">getCollaboratorRepository()</text><polygon fill="#181818" points="1454,832.9355,1444,836.9355,1454,840.9355,1450,836.9355" style="stroke:#181818;stroke-width:1.0;"/><line style="stroke:#181818;stroke-width:1.0;" x1="1448" x2="1753" y1="836.9355" y2="836.9355"/><text fill="#000000" font-family="sans-serif" font-size="13" font-weight="bold" lengthAdjust="spacing" textLength="14" x="1460" y="831.6729">22</text><text fill="#000000" font-family="sans-serif" font-size="13" lengthAdjust="spacing" textLength="131" x="1478" y="831.6729">CollaboratorRepository</text><path d="M1396,851.9355 L1469,851.9355 L1469,861.2266 L1459,871.2266 L1396,871.2266 L1396,851.9355 " fill="#EEEEEE" style="stroke:#000000;stroke-width:1.5;"/><rect fill="none" height="188.7461" style="stroke:#000000;stroke-width:1.5;" width="781" x="1396" y="851.9355"/><text fill="#000000" font-family="sans-serif" font-size="13" font-weight="bold" lengthAdjust="spacing" textLength="28" x="1411" y="866.9639">loop</text><text fill="#000000" font-family="sans-serif" font-size="11" font-weight="bold" lengthAdjust="spacing" textLength="124" x="1484" y="865.8057">[for each Collaborator]</text><polygon fill="#181818" points="1877.5,890.5176,1887.5,894.5176,1877.5,898.5176,1881.5,894.5176" style="stroke:#181818;stroke-width:1.0;"/><line style="stroke:#181818;stroke-width:1.0;" x1="1443" x2="1883.5" y1="894.5176" y2="894.5176"/><text fill="#000000" font-family="sans-serif" font-size="13" font-weight="bold" lengthAdjust="spacing" textLength="14" x="1450" y="889.2549">23</text><text fill="#000000" font-family="sans-serif" font-size="13" lengthAdjust="spacing" textLength="166" x="1468" y="889.2549">getCollaboratorBySkill(skills)</text><polygon fill="#181818" points="2094.5,921.8086,2104.5,925.8086,2094.5,929.8086,2098.5,925.8086" style="stroke:#181818;stroke-width:1.0;"/><line style="stroke:#181818;stroke-width:1.0;" x1="1899.5" x2="2100.5" y1="925.8086" y2="925.8086"/><text fill="#000000" font-family="sans-serif" font-size="13" font-weight="bold" lengthAdjust="spacing" textLength="14" x="1906.5" y="920.5459">24</text><text fill="#000000" font-family="sans-serif" font-size="13" lengthAdjust="spacing" textLength="170" x="1924.5" y="920.5459">getSkillsOfCollaborator(skills)</text><polygon fill="#181818" points="1910.5,953.0996,1900.5,957.0996,1910.5,961.0996,1906.5,957.0996" style="stroke:#181818;stroke-width:1.0;"/><line style="stroke:#181818;stroke-width:1.0;" x1="1904.5" x2="2110.5" y1="957.0996" y2="957.0996"/><text fill="#000000" font-family="sans-serif" font-size="13" font-weight="bold" lengthAdjust="spacing" textLength="14" x="1916.5" y="951.8369">25</text><text fill="#000000" font-family="sans-serif" font-size="13" lengthAdjust="spacing" textLength="53" x="1934.5" y="951.8369">true/false</text><polygon fill="#181818" points="1454,984.3906,1444,988.3906,1454,992.3906,1450,988.3906" style="stroke:#181818;stroke-width:1.0;"/><line style="stroke:#181818;stroke-width:1.0;stroke-dasharray:2.0,2.0;" x1="1448" x2="1893.5" y1="988.3906" y2="988.3906"/><text fill="#000000" font-family="sans-serif" font-size="13" font-weight="bold" lengthAdjust="spacing" textLength="14" x="1460" y="983.1279">26</text><text fill="#000000" font-family="sans-serif" font-size="13" lengthAdjust="spacing" textLength="53" x="1478" y="983.1279">true/false</text><line style="stroke:#181818;stroke-width:1.0;stroke-dasharray:2.0,2.0;" x1="1443" x2="1485" y1="1024.6816" y2="1024.6816"/><line style="stroke:#181818;stroke-width:1.0;stroke-dasharray:2.0,2.0;" x1="1485" x2="1485" y1="1024.6816" y2="1037.6816"/><line style="stroke:#181818;stroke-width:1.0;stroke-dasharray:2.0,2.0;" x1="1438" x2="1485" y1="1037.6816" y2="1037.6816"/><polygon fill="#181818" points="1448,1033.6816,1438,1037.6816,1448,1041.6816,1444,1037.6816" style="stroke:#181818;stroke-width:1.0;"/><text fill="#000000" font-family="sans-serif" font-size="13" font-weight="bold" lengthAdjust="spacing" textLength="14" x="1450" y="1019.4189">27</text><text fill="#000000" font-family="sans-serif" font-size="13" lengthAdjust="spacing" textLength="167" x="1468" y="1019.4189">addCollaborator(Collaborator)</text><polygon fill="#181818" points="1009,1066.9727,999,1070.9727,1009,1074.9727,1005,1070.9727" style="stroke:#181818;stroke-width:1.0;"/><line style="stroke:#181818;stroke-width:1.0;stroke-dasharray:2.0,2.0;" x1="1003" x2="1432" y1="1070.9727" y2="1070.9727"/><text fill="#000000" font-family="sans-serif" font-size="13" font-weight="bold" lengthAdjust="spacing" textLength="14" x="1015" y="1065.71">28</text><text fill="#000000" font-family="sans-serif" font-size="13" lengthAdjust="spacing" textLength="32" x="1033" y="1065.71">Team</text><polygon fill="#181818" points="578,1098.2637,568,1102.2637,578,1106.2637,574,1102.2637" style="stroke:#181818;stroke-width:1.0;"/><line style="stroke:#181818;stroke-width:1.0;" x1="572" x2="992" y1="1102.2637" y2="1102.2637"/><text fill="#000000" font-family="sans-serif" font-size="13" font-weight="bold" lengthAdjust="spacing" textLength="14" x="584" y="1097.001">29</text><text fill="#000000" font-family="sans-serif" font-size="13" lengthAdjust="spacing" textLength="32" x="602" y="1097.001">Team</text><polygon fill="#181818" points="127,1129.5547,117,1133.5547,127,1137.5547,123,1133.5547" style="stroke:#181818;stroke-width:1.0;"/><line style="stroke:#181818;stroke-width:1.0;" x1="121" x2="556" y1="1133.5547" y2="1133.5547"/><text fill="#000000" font-family="sans-serif" font-size="13" font-weight="bold" lengthAdjust="spacing" textLength="14" x="133" y="1128.292">30</text><text fill="#000000" font-family="sans-serif" font-size="13" lengthAdjust="spacing" textLength="207" x="151" y="1128.292">Show team and ask for confirmation</text><path d="M10,1148.5547 L71,1148.5547 L71,1157.8457 L61,1167.8457 L10,1167.8457 L10,1148.5547 " fill="#EEEEEE" style="stroke:#000000;stroke-width:1.5;"/><rect fill="none" height="411.4141" style="stroke:#000000;stroke-width:1.5;" width="1460" x="10" y="1148.5547"/><text fill="#000000" font-family="sans-serif" font-size="13" font-weight="bold" lengthAdjust="spacing" textLength="16" x="25" y="1163.583">alt</text><text fill="#000000" font-family="sans-serif" font-size="11" font-weight="bold" lengthAdjust="spacing" textLength="127" x="86" y="1162.4248">[accept team proposal]</text><polygon fill="#181818" points="545,1187.1367,555,1191.1367,545,1195.1367,549,1191.1367" style="stroke:#181818;stroke-width:1.0;"/><line style="stroke:#181818;stroke-width:1.0;" x1="116" x2="551" y1="1191.1367" y2="1191.1367"/><text fill="#000000" font-family="sans-serif" font-size="13" font-weight="bold" lengthAdjust="spacing" textLength="14" x="123" y="1185.874">31</text><text fill="#000000" font-family="sans-serif" font-size="13" lengthAdjust="spacing" textLength="72" x="141" y="1185.874">accept team</text><polygon fill="#181818" points="976,1218.4277,986,1222.4277,976,1226.4277,980,1222.4277" style="stroke:#181818;stroke-width:1.0;"/><line style="stroke:#181818;stroke-width:1.0;" x1="567" x2="982" y1="1222.4277" y2="1222.4277"/><text fill="#000000" font-family="sans-serif" font-size="13" font-weight="bold" lengthAdjust="spacing" textLength="14" x="574" y="1217.165">32</text><text fill="#000000" font-family="sans-serif" font-size="13" lengthAdjust="spacing" textLength="72" x="592" y="1217.165">accept team</text><polygon fill="#181818" points="1416,1249.7188,1426,1253.7188,1416,1257.7188,1420,1253.7188" style="stroke:#181818;stroke-width:1.0;"/><line style="stroke:#181818;stroke-width:1.0;" x1="998" x2="1422" y1="1253.7188" y2="1253.7188"/><text fill="#000000" font-family="sans-serif" font-size="13" font-weight="bold" lengthAdjust="spacing" textLength="14" x="1005" y="1248.4561">33</text><text fill="#000000" font-family="sans-serif" font-size="13" lengthAdjust="spacing" textLength="127" x="1023" y="1248.4561">Confirm team creation</text><polygon fill="#181818" points="1009,1281.0098,999,1285.0098,1009,1289.0098,1005,1285.0098" style="stroke:#181818;stroke-width:1.0;"/><line style="stroke:#181818;stroke-width:1.0;" x1="1003" x2="1432" y1="1285.0098" y2="1285.0098"/><text fill="#000000" font-family="sans-serif" font-size="13" font-weight="bold" lengthAdjust="spacing" textLength="14" x="1015" y="1279.7471">34</text><text fill="#000000" font-family="sans-serif" font-size="13" lengthAdjust="spacing" textLength="76" x="1033" y="1279.7471">team created</text><polygon fill="#181818" points="578,1312.3008,568,1316.3008,578,1320.3008,574,1316.3008" style="stroke:#181818;stroke-width:1.0;"/><line style="stroke:#181818;stroke-width:1.0;" x1="572" x2="992" y1="1316.3008" y2="1316.3008"/><text fill="#000000" font-family="sans-serif" font-size="13" font-weight="bold" lengthAdjust="spacing" textLength="14" x="584" y="1311.0381">35</text><text fill="#000000" font-family="sans-serif" font-size="13" lengthAdjust="spacing" textLength="145" x="602" y="1311.0381">team creation successful</text><polygon fill="#181818" points="127,1343.5918,117,1347.5918,127,1351.5918,123,1347.5918" style="stroke:#181818;stroke-width:1.0;"/><line style="stroke:#181818;stroke-width:1.0;" x1="121" x2="556" y1="1347.5918" y2="1347.5918"/><text fill="#000000" font-family="sans-serif" font-size="13" font-weight="bold" lengthAdjust="spacing" textLength="14" x="133" y="1342.3291">36</text><text fill="#000000" font-family="sans-serif" font-size="13" lengthAdjust="spacing" textLength="145" x="151" y="1342.3291">team creation successful</text><line style="stroke:#000000;stroke-width:1.0;stroke-dasharray:2.0,2.0;" x1="10" x2="1470" y1="1356.5918" y2="1356.5918"/><text fill="#000000" font-family="sans-serif" font-size="11" font-weight="bold" lengthAdjust="spacing" textLength="128" x="15" y="1368.4619">[refuse team proposal]</text><polygon fill="#181818" points="545,1391.5137,555,1395.5137,545,1399.5137,549,1395.5137" style="stroke:#181818;stroke-width:1.0;"/><line style="stroke:#181818;stroke-width:1.0;" x1="116" x2="551" y1="1395.5137" y2="1395.5137"/><text fill="#000000" font-family="sans-serif" font-size="13" font-weight="bold" lengthAdjust="spacing" textLength="14" x="123" y="1390.251">37</text><text fill="#000000" font-family="sans-serif" font-size="13" lengthAdjust="spacing" textLength="68" x="141" y="1390.251">refuse team</text><polygon fill="#181818" points="976,1422.8047,986,1426.8047,976,1430.8047,980,1426.8047" style="stroke:#181818;stroke-width:1.0;"/><line style="stroke:#181818;stroke-width:1.0;" x1="567" x2="982" y1="1426.8047" y2="1426.8047"/><text fill="#000000" font-family="sans-serif" font-size="13" font-weight="bold" lengthAdjust="spacing" textLength="14" x="574" y="1421.542">38</text><text fill="#000000" font-family="sans-serif" font-size="13" lengthAdjust="spacing" textLength="68" x="592" y="1421.542">refuse team</text><polygon fill="#181818" points="1416,1454.0957,1426,1458.0957,1416,1462.0957,1420,1458.0957" style="stroke:#181818;stroke-width:1.0;"/><line style="stroke:#181818;stroke-width:1.0;" x1="998" x2="1422" y1="1458.0957" y2="1458.0957"/><text fill="#000000" font-family="sans-serif" font-size="13" font-weight="bold" lengthAdjust="spacing" textLength="14" x="1005" y="1452.833">39</text><text fill="#000000" font-family="sans-serif" font-size="13" lengthAdjust="spacing" textLength="70" x="1023" y="1452.833">Delete team</text><polygon fill="#181818" points="1009,1485.3867,999,1489.3867,1009,1493.3867,1005,1489.3867" style="stroke:#181818;stroke-width:1.0;"/><line style="stroke:#181818;stroke-width:1.0;" x1="1003" x2="1432" y1="1489.3867" y2="1489.3867"/><text fill="#000000" font-family="sans-serif" font-size="13" font-weight="bold" lengthAdjust="spacing" textLength="14" x="1015" y="1484.124">40</text><text fill="#000000" font-family="sans-serif" font-size="13" lengthAdjust="spacing" textLength="75" x="1033" y="1484.124">team deleted</text><polygon fill="#181818" points="578,1516.6777,568,1520.6777,578,1524.6777,574,1520.6777" style="stroke:#181818;stroke-width:1.0;"/><line style="stroke:#181818;stroke-width:1.0;" x1="572" x2="992" y1="1520.6777" y2="1520.6777"/><text fill="#000000" font-family="sans-serif" font-size="13" font-weight="bold" lengthAdjust="spacing" textLength="14" x="584" y="1515.415">41</text><text fill="#000000" font-family="sans-serif" font-size="13" lengthAdjust="spacing" textLength="134" x="602" y="1515.415">team delete successful</text><polygon fill="#181818" points="127,1547.9688,117,1551.9688,127,1555.9688,123,1551.9688" style="stroke:#181818;stroke-width:1.0;"/><line style="stroke:#181818;stroke-width:1.0;" x1="121" x2="556" y1="1551.9688" y2="1551.9688"/><text fill="#000000" font-family="sans-serif" font-size="13" font-weight="bold" lengthAdjust="spacing" textLength="14" x="133" y="1546.7061">42</text><text fill="#000000" font-family="sans-serif" font-size="13" lengthAdjust="spacing" textLength="134" x="151" y="1546.7061">team delete successful</text><!--SRC=[fLTBJ-Cm4BxxLrXSe2kglND0Oa5Qa42xud5QBcuoQIqIEsix2_ttEtRIn4vSfuLSsjWptppzZQFVkAYPOXMjf93PHiaAg54D4Dtlr2nxOsjuCjiIg8BCCB4kVG6zORbyvs9D2rPg88GrHegcMe4Yv7J3Sw25b6ObFmZBZ5JqvBQfcA2Fe6MZCj3qWGcqe4ueq_JsyO4Whk4PhvamzEJY9mXGpC0piEhbpWczt2LahgKmIfPb1tZz_7W_ahPIRi_-6UqzGYqrHpSvQ2VJBsoVk8qSOmjLbAVnAgO0l- -ldaEDQ_IEhIGwBDK0V_4guXjj6D6j4FVfZPTb03XQSKYZDK9iMVW_p9vBFg7TWozqUOcvfXUezgQfaNJTvPaoAk2T6fk_Ng67mVAGK-ezYB54gAkR1yHIyBS1RJJDcM7qJ4412aG6vpG7dIbU6ox5EQLS559LhAIl8jmna6q4pt0dMCuRzCpzowGs2-8xS9efi9wvPXXxTkcMltr3ttRnaJr2JiIu3Egpq4GVlRCHRDd7QIDAf9rQq3kXyMXbC88De6EzE96sJypAiel1Lc1eqObw3iUPsmLcsznFpw2SYiWTZcW83c_mUTor2RVZc3i_Hq29YWQEJavDpESnzd9ecz7MFTSc5SEikJQStVcSG_UGf-tPdKvxtY-GpUMxfjhbWvQ8WwUFYRnd00qbpW0g1P08k3tvTgcKigP_yFnItDkqS55YQU4qyaaeCq6CEXjGISgViLcphN7kTEgGTrHKSS6hflAfLf_JYdrCLXT7EjfcrLhDPtq5aPFsd-zn9aN1LQLTCNIpghWVTjIBWBPQ0hG3xwmjBWRsbN2dRRGxODQ6JR4TnTOeKlANJExjtNxvEHX3kyVvyLN6ZKD_ZfHJn6pjp13pPyZPpyD0qF6xH2GD1rBrGDTzzVTSLsPYsc_24KhF9pxwNezsSSTTcMRYnzQnQDUhYxsuGpV6Ozohw0v9t9dqNFfL-6gp3Xu_jv8pB951-wdmlRtrfo2FcMk79CiZcNa7VFeul2c71XgCiJmFwk2_BEPQsn59JCRHVT9yn-0JX37wCIJjPag0E7j5SBCChneuoXovxwu5xbXsuycnVQZAIeCEPL2RLgjM4ZFFoadCmVV6e32H2yPQIl306tdFM2w2rici6rp73eQUSrhl1Yp8oR7D4PGgy0hdFuQjTT6KATJ9nqvGoKD10GyN3gQYmPza0VtwUV8aLRw4NBfwe-BTu3NIpE14AnOhMEx09WMRgTUqN2rEebWpjPgKAWreYIHofVHUxUVzVm00]--></g></svg>