<?xml version="1.0" encoding="us-ascii" standalone="no"?><svg xmlns="http://www.w3.org/2000/svg" xmlns:xlink="http://www.w3.org/1999/xlink" contentStyleType="text/css" height="240px" preserveAspectRatio="none" style="width:725px;height:240px;background:#FFFFFF;" version="1.1" viewBox="0 0 725 240" width="725.6px" zoomAndPan="magnify"><defs/><g><!--class Team--><g id="elem_Team"><rect codeLine="9" fill="#F1F1F1" height="68.1938" id="Team" rx="2" ry="2" style="stroke:#181818;stroke-width:0.4000000000000001;" width="175.2" x="218.8" y="166.4"/><ellipse cx="288.6" cy="179.2" fill="#ADD1B2" rx="8.8" ry="8.8" style="stroke:#181818;stroke-width:0.8000000000000002;"/><path d="M290.8125,175.9 Q290.9375,175.725 291.0875,175.6375 Q291.2375,175.55 291.4125,175.55 Q291.7125,175.55 291.9,175.7625 Q292.0875,175.9625 292.0875,176.45 L292.0875,177.6125 Q292.0875,178.1 291.9,178.3125 Q291.7125,178.525 291.4125,178.525 Q291.1375,178.525 290.975,178.3625 Q290.8125,178.2125 290.725,177.8 Q290.6875,177.5125 290.5375,177.3625 Q290.275,177.0625 289.7875,176.8875 Q289.3,176.7125 288.8,176.7125 Q288.1875,176.7125 287.675,176.975 Q287.175,177.2375 286.775,177.8375 Q286.3875,178.4375 286.3875,179.2625 L286.3875,180.1375 Q286.3875,181.125 287.1,181.7875 Q287.8125,182.4375 289.0875,182.4375 Q289.8375,182.4375 290.3625,182.2375 Q290.675,182.1125 291.0125,181.7625 Q291.225,181.55 291.3375,181.4875 Q291.4625,181.425 291.625,181.425 Q291.8875,181.425 292.0875,181.6375 Q292.3,181.8375 292.3,182.1125 Q292.3,182.3875 292.025,182.7125 Q291.625,183.175 290.9875,183.4375 Q290.125,183.8 289.0875,183.8 Q287.875,183.8 286.9125,183.3 Q286.125,182.9 285.575,182.05 Q285.025,181.1875 285.025,180.1625 L285.025,179.2375 Q285.025,178.175 285.5125,177.2625 Q286.0125,176.3375 286.8875,175.85 Q287.7625,175.35 288.75,175.35 Q289.3375,175.35 289.85,175.4875 Q290.375,175.6125 290.8125,175.9 Z " fill="#000000"/><text fill="#000000" font-family="sans-serif" font-size="11.2" lengthAdjust="spacing" textLength="28.8" x="305" y="183.8375">Team</text><line style="stroke:#181818;stroke-width:0.4000000000000001;" x1="219.6" x2="393.2" y1="192" y2="192"/><text fill="#000000" font-family="sans-serif" font-size="11.2" lengthAdjust="spacing" textLength="52.8" x="223.6" y="207.2859">-int teamId</text><text fill="#000000" font-family="sans-serif" font-size="11.2" lengthAdjust="spacing" textLength="165.6" x="223.6" y="222.1828">-List&lt;Collaborator&gt; collaborators</text><line style="stroke:#181818;stroke-width:0.4000000000000001;" x1="219.6" x2="393.2" y1="228.1938" y2="228.1938"/></g><!--class SkillRepository--><g id="elem_SkillRepository"><rect codeLine="14" fill="#F1F1F1" height="68.1938" id="SkillRepository" rx="2" ry="2" style="stroke:#181818;stroke-width:0.4000000000000001;" width="100" x="620.4" y="166.4"/><ellipse cx="632.4" cy="179.2" fill="#ADD1B2" rx="8.8" ry="8.8" style="stroke:#181818;stroke-width:0.8000000000000002;"/><path d="M634.6125,175.9 Q634.7375,175.725 634.8875,175.6375 Q635.0375,175.55 635.2125,175.55 Q635.5125,175.55 635.7,175.7625 Q635.8875,175.9625 635.8875,176.45 L635.8875,177.6125 Q635.8875,178.1 635.7,178.3125 Q635.5125,178.525 635.2125,178.525 Q634.9375,178.525 634.775,178.3625 Q634.6125,178.2125 634.525,177.8 Q634.4875,177.5125 634.3375,177.3625 Q634.075,177.0625 633.5875,176.8875 Q633.1,176.7125 632.6,176.7125 Q631.9875,176.7125 631.475,176.975 Q630.975,177.2375 630.575,177.8375 Q630.1875,178.4375 630.1875,179.2625 L630.1875,180.1375 Q630.1875,181.125 630.9,181.7875 Q631.6125,182.4375 632.8875,182.4375 Q633.6375,182.4375 634.1625,182.2375 Q634.475,182.1125 634.8125,181.7625 Q635.025,181.55 635.1375,181.4875 Q635.2625,181.425 635.425,181.425 Q635.6875,181.425 635.8875,181.6375 Q636.1,181.8375 636.1,182.1125 Q636.1,182.3875 635.825,182.7125 Q635.425,183.175 634.7875,183.4375 Q633.925,183.8 632.8875,183.8 Q631.675,183.8 630.7125,183.3 Q629.925,182.9 629.375,182.05 Q628.825,181.1875 628.825,180.1625 L628.825,179.2375 Q628.825,178.175 629.3125,177.2625 Q629.8125,176.3375 630.6875,175.85 Q631.5625,175.35 632.55,175.35 Q633.1375,175.35 633.65,175.4875 Q634.175,175.6125 634.6125,175.9 Z " fill="#000000"/><text fill="#000000" font-family="sans-serif" font-size="11.2" lengthAdjust="spacing" textLength="74.4" x="643.6" y="183.8375">SkillRepository</text><line style="stroke:#181818;stroke-width:0.4000000000000001;" x1="621.2" x2="719.6" y1="192" y2="192"/><text fill="#000000" font-family="sans-serif" font-size="11.2" lengthAdjust="spacing" textLength="76" x="625.2" y="207.2859">-List&lt;Skill&gt; skill</text><line style="stroke:#181818;stroke-width:0.4000000000000001;" x1="621.2" x2="719.6" y1="213.2969" y2="213.2969"/><text fill="#000000" font-family="sans-serif" font-size="11.2" lengthAdjust="spacing" textLength="68" x="625.2" y="228.5828">+getSkillList()</text></g><!--class CollaboratorRepository--><g id="elem_CollaboratorRepository"><rect codeLine="19" fill="#F1F1F1" height="68.1938" id="CollaboratorRepository" rx="2" ry="2" style="stroke:#181818;stroke-width:0.4000000000000001;" width="169.6" x="422.4" y="166.4"/><ellipse cx="446.64" cy="179.2" fill="#ADD1B2" rx="8.8" ry="8.8" style="stroke:#181818;stroke-width:0.8000000000000002;"/><path d="M448.8525,175.9 Q448.9775,175.725 449.1275,175.6375 Q449.2775,175.55 449.4525,175.55 Q449.7525,175.55 449.94,175.7625 Q450.1275,175.9625 450.1275,176.45 L450.1275,177.6125 Q450.1275,178.1 449.94,178.3125 Q449.7525,178.525 449.4525,178.525 Q449.1775,178.525 449.015,178.3625 Q448.8525,178.2125 448.765,177.8 Q448.7275,177.5125 448.5775,177.3625 Q448.315,177.0625 447.8275,176.8875 Q447.34,176.7125 446.84,176.7125 Q446.2275,176.7125 445.715,176.975 Q445.215,177.2375 444.815,177.8375 Q444.4275,178.4375 444.4275,179.2625 L444.4275,180.1375 Q444.4275,181.125 445.14,181.7875 Q445.8525,182.4375 447.1275,182.4375 Q447.8775,182.4375 448.4025,182.2375 Q448.715,182.1125 449.0525,181.7625 Q449.265,181.55 449.3775,181.4875 Q449.5025,181.425 449.665,181.425 Q449.9275,181.425 450.1275,181.6375 Q450.34,181.8375 450.34,182.1125 Q450.34,182.3875 450.065,182.7125 Q449.665,183.175 449.0275,183.4375 Q448.165,183.8 447.1275,183.8 Q445.915,183.8 444.9525,183.3 Q444.165,182.9 443.615,182.05 Q443.065,181.1875 443.065,180.1625 L443.065,179.2375 Q443.065,178.175 443.5525,177.2625 Q444.0525,176.3375 444.9275,175.85 Q445.8025,175.35 446.79,175.35 Q447.3775,175.35 447.89,175.4875 Q448.415,175.6125 448.8525,175.9 Z " fill="#000000"/><text fill="#000000" font-family="sans-serif" font-size="11.2" lengthAdjust="spacing" textLength="116.8" x="460.56" y="183.8375">CollaboratorRepository</text><line style="stroke:#181818;stroke-width:0.4000000000000001;" x1="423.2" x2="591.2" y1="192" y2="192"/><text fill="#000000" font-family="sans-serif" font-size="11.2" lengthAdjust="spacing" textLength="160" x="427.2" y="207.2859">-List&lt;Collaborator&gt; collaborator</text><line style="stroke:#181818;stroke-width:0.4000000000000001;" x1="423.2" x2="591.2" y1="213.2969" y2="213.2969"/><text fill="#000000" font-family="sans-serif" font-size="11.2" lengthAdjust="spacing" textLength="110.4" x="427.2" y="228.5828">+getCollaboratorList()</text></g><!--class TeamRepository--><g id="elem_TeamRepository"><rect codeLine="24" fill="#F1F1F1" height="53.2969" id="TeamRepository" rx="2" ry="2" style="stroke:#181818;stroke-width:0.4000000000000001;" width="118.4" x="5.6" y="173.6"/><ellipse cx="21.92" cy="186.4" fill="#ADD1B2" rx="8.8" ry="8.8" style="stroke:#181818;stroke-width:0.8000000000000002;"/><path d="M24.1325,183.1 Q24.2575,182.925 24.4075,182.8375 Q24.5575,182.75 24.7325,182.75 Q25.0325,182.75 25.22,182.9625 Q25.4075,183.1625 25.4075,183.65 L25.4075,184.8125 Q25.4075,185.3 25.22,185.5125 Q25.0325,185.725 24.7325,185.725 Q24.4575,185.725 24.295,185.5625 Q24.1325,185.4125 24.045,185 Q24.0075,184.7125 23.8575,184.5625 Q23.595,184.2625 23.1075,184.0875 Q22.62,183.9125 22.12,183.9125 Q21.5075,183.9125 20.995,184.175 Q20.495,184.4375 20.095,185.0375 Q19.7075,185.6375 19.7075,186.4625 L19.7075,187.3375 Q19.7075,188.325 20.42,188.9875 Q21.1325,189.6375 22.4075,189.6375 Q23.1575,189.6375 23.6825,189.4375 Q23.995,189.3125 24.3325,188.9625 Q24.545,188.75 24.6575,188.6875 Q24.7825,188.625 24.945,188.625 Q25.2075,188.625 25.4075,188.8375 Q25.62,189.0375 25.62,189.3125 Q25.62,189.5875 25.345,189.9125 Q24.945,190.375 24.3075,190.6375 Q23.445,191 22.4075,191 Q21.195,191 20.2325,190.5 Q19.445,190.1 18.895,189.25 Q18.345,188.3875 18.345,187.3625 L18.345,186.4375 Q18.345,185.375 18.8325,184.4625 Q19.3325,183.5375 20.2075,183.05 Q21.0825,182.55 22.07,182.55 Q22.6575,182.55 23.17,182.6875 Q23.695,182.8125 24.1325,183.1 Z " fill="#000000"/><text fill="#000000" font-family="sans-serif" font-size="11.2" lengthAdjust="spacing" textLength="83.2" x="34.08" y="191.0375">TeamRepository</text><line style="stroke:#181818;stroke-width:0.4000000000000001;" x1="6.4" x2="123.2" y1="199.2" y2="199.2"/><text fill="#000000" font-family="sans-serif" font-size="11.2" lengthAdjust="spacing" textLength="108.8" x="10.4" y="214.4859">-List&lt;Team&gt; teamList</text><line style="stroke:#181818;stroke-width:0.4000000000000001;" x1="6.4" x2="123.2" y1="220.4969" y2="220.4969"/></g><!--class Repositories--><g id="elem_Repositories"><rect codeLine="28" fill="#F1F1F1" height="97.9875" id="Repositories" rx="2" ry="2" style="stroke:#181818;stroke-width:0.4000000000000001;" width="156.8" x="456.8" y="5.6"/><ellipse cx="500.2" cy="18.4" fill="#ADD1B2" rx="8.8" ry="8.8" style="stroke:#181818;stroke-width:0.8000000000000002;"/><path d="M502.4125,15.1 Q502.5375,14.925 502.6875,14.8375 Q502.8375,14.75 503.0125,14.75 Q503.3125,14.75 503.5,14.9625 Q503.6875,15.1625 503.6875,15.65 L503.6875,16.8125 Q503.6875,17.3 503.5,17.5125 Q503.3125,17.725 503.0125,17.725 Q502.7375,17.725 502.575,17.5625 Q502.4125,17.4125 502.325,17 Q502.2875,16.7125 502.1375,16.5625 Q501.875,16.2625 501.3875,16.0875 Q500.9,15.9125 500.4,15.9125 Q499.7875,15.9125 499.275,16.175 Q498.775,16.4375 498.375,17.0375 Q497.9875,17.6375 497.9875,18.4625 L497.9875,19.3375 Q497.9875,20.325 498.7,20.9875 Q499.4125,21.6375 500.6875,21.6375 Q501.4375,21.6375 501.9625,21.4375 Q502.275,21.3125 502.6125,20.9625 Q502.825,20.75 502.9375,20.6875 Q503.0625,20.625 503.225,20.625 Q503.4875,20.625 503.6875,20.8375 Q503.9,21.0375 503.9,21.3125 Q503.9,21.5875 503.625,21.9125 Q503.225,22.375 502.5875,22.6375 Q501.725,23 500.6875,23 Q499.475,23 498.5125,22.5 Q497.725,22.1 497.175,21.25 Q496.625,20.3875 496.625,19.3625 L496.625,18.4375 Q496.625,17.375 497.1125,16.4625 Q497.6125,15.5375 498.4875,15.05 Q499.3625,14.55 500.35,14.55 Q500.9375,14.55 501.45,14.6875 Q501.975,14.8125 502.4125,15.1 Z " fill="#000000"/><text fill="#000000" font-family="sans-serif" font-size="11.2" lengthAdjust="spacing" textLength="63.2" x="516.6" y="23.0375">Repositories</text><line style="stroke:#181818;stroke-width:0.4000000000000001;" x1="457.6" x2="612.8" y1="31.2" y2="31.2"/><line style="stroke:#181818;stroke-width:0.4000000000000001;" x1="457.6" x2="612.8" y1="37.6" y2="37.6"/><text fill="#000000" font-family="sans-serif" font-size="11.2" lengthAdjust="spacing" textLength="75.2" x="461.6" y="52.8859">-Repositories()</text><text fill="#000000" font-family="sans-serif" font-size="11.2" lengthAdjust="spacing" textLength="145.6" x="461.6" y="67.7828">+getInstance() : Repositories</text><text fill="#000000" font-family="sans-serif" font-size="11.2" lengthAdjust="spacing" textLength="106.4" x="461.6" y="82.6797">+getSKillRepository()</text><text fill="#000000" font-family="sans-serif" font-size="11.2" lengthAdjust="spacing" textLength="147.2" x="461.6" y="97.5766">+getCollaboratorRepository()</text></g><!--class GenerateTeamController--><g id="elem_GenerateTeamController"><rect codeLine="35" fill="#F1F1F1" height="68.1938" id="GenerateTeamController" rx="2" ry="2" style="stroke:#181818;stroke-width:0.4000000000000001;" width="154.4" x="210" y="20.4"/><ellipse cx="223.08" cy="33.2" fill="#ADD1B2" rx="8.8" ry="8.8" style="stroke:#181818;stroke-width:0.8000000000000002;"/><path d="M225.2925,29.9 Q225.4175,29.725 225.5675,29.6375 Q225.7175,29.55 225.8925,29.55 Q226.1925,29.55 226.38,29.7625 Q226.5675,29.9625 226.5675,30.45 L226.5675,31.6125 Q226.5675,32.1 226.38,32.3125 Q226.1925,32.525 225.8925,32.525 Q225.6175,32.525 225.455,32.3625 Q225.2925,32.2125 225.205,31.8 Q225.1675,31.5125 225.0175,31.3625 Q224.755,31.0625 224.2675,30.8875 Q223.78,30.7125 223.28,30.7125 Q222.6675,30.7125 222.155,30.975 Q221.655,31.2375 221.255,31.8375 Q220.8675,32.4375 220.8675,33.2625 L220.8675,34.1375 Q220.8675,35.125 221.58,35.7875 Q222.2925,36.4375 223.5675,36.4375 Q224.3175,36.4375 224.8425,36.2375 Q225.155,36.1125 225.4925,35.7625 Q225.705,35.55 225.8175,35.4875 Q225.9425,35.425 226.105,35.425 Q226.3675,35.425 226.5675,35.6375 Q226.78,35.8375 226.78,36.1125 Q226.78,36.3875 226.505,36.7125 Q226.105,37.175 225.4675,37.4375 Q224.605,37.8 223.5675,37.8 Q222.355,37.8 221.3925,37.3 Q220.605,36.9 220.055,36.05 Q219.505,35.1875 219.505,34.1625 L219.505,33.2375 Q219.505,32.175 219.9925,31.2625 Q220.4925,30.3375 221.3675,29.85 Q222.2425,29.35 223.23,29.35 Q223.8175,29.35 224.33,29.4875 Q224.855,29.6125 225.2925,29.9 Z " fill="#000000"/><text fill="#000000" font-family="sans-serif" font-size="11.2" lengthAdjust="spacing" textLength="126.4" x="234.52" y="37.8375">GenerateTeamController</text><line style="stroke:#181818;stroke-width:0.4000000000000001;" x1="210.8" x2="363.6" y1="46" y2="46"/><line style="stroke:#181818;stroke-width:0.4000000000000001;" x1="210.8" x2="363.6" y1="52.4" y2="52.4"/><text fill="#000000" font-family="sans-serif" font-size="11.2" lengthAdjust="spacing" textLength="104" x="214.8" y="67.6859">-getSKillRepository()</text><text fill="#000000" font-family="sans-serif" font-size="11.2" lengthAdjust="spacing" textLength="144.8" x="214.8" y="82.5828">-getCollaboratorRepository()</text></g><!--class GenerateTeamUI--><g id="elem_GenerateTeamUI"><rect codeLine="40" fill="#F1F1F1" height="38.4" id="GenerateTeamUI" rx="2" ry="2" style="stroke:#181818;stroke-width:0.4000000000000001;" width="112" x="69.6" y="35.2"/><ellipse cx="81.6" cy="48" fill="#ADD1B2" rx="8.8" ry="8.8" style="stroke:#181818;stroke-width:0.8000000000000002;"/><path d="M83.8125,44.7 Q83.9375,44.525 84.0875,44.4375 Q84.2375,44.35 84.4125,44.35 Q84.7125,44.35 84.9,44.5625 Q85.0875,44.7625 85.0875,45.25 L85.0875,46.4125 Q85.0875,46.9 84.9,47.1125 Q84.7125,47.325 84.4125,47.325 Q84.1375,47.325 83.975,47.1625 Q83.8125,47.0125 83.725,46.6 Q83.6875,46.3125 83.5375,46.1625 Q83.275,45.8625 82.7875,45.6875 Q82.3,45.5125 81.8,45.5125 Q81.1875,45.5125 80.675,45.775 Q80.175,46.0375 79.775,46.6375 Q79.3875,47.2375 79.3875,48.0625 L79.3875,48.9375 Q79.3875,49.925 80.1,50.5875 Q80.8125,51.2375 82.0875,51.2375 Q82.8375,51.2375 83.3625,51.0375 Q83.675,50.9125 84.0125,50.5625 Q84.225,50.35 84.3375,50.2875 Q84.4625,50.225 84.625,50.225 Q84.8875,50.225 85.0875,50.4375 Q85.3,50.6375 85.3,50.9125 Q85.3,51.1875 85.025,51.5125 Q84.625,51.975 83.9875,52.2375 Q83.125,52.6 82.0875,52.6 Q80.875,52.6 79.9125,52.1 Q79.125,51.7 78.575,50.85 Q78.025,49.9875 78.025,48.9625 L78.025,48.0375 Q78.025,46.975 78.5125,46.0625 Q79.0125,45.1375 79.8875,44.65 Q80.7625,44.15 81.75,44.15 Q82.3375,44.15 82.85,44.2875 Q83.375,44.4125 83.8125,44.7 Z " fill="#000000"/><text fill="#000000" font-family="sans-serif" font-size="11.2" lengthAdjust="spacing" textLength="86.4" x="92.8" y="52.6375">GenerateTeamUI</text><line style="stroke:#181818;stroke-width:0.4000000000000001;" x1="70.4" x2="180.8" y1="60.8" y2="60.8"/><line style="stroke:#181818;stroke-width:0.4000000000000001;" x1="70.4" x2="180.8" y1="67.2" y2="67.2"/></g><!--link Repositories to Repositories--><g id="link_Repositories_Repositories"><path codeLine="43" d="M613.616,39.928 C629.896,41.448 641.6,46.272 641.6,54.4 C641.6,62.528 634.6752,66.9058 618.3952,68.4258 " fill="none" id="Repositories-to-Repositories" style="stroke:#181818;stroke-width:0.8000000000000002;"/><polygon fill="#181818" points="613.616,68.872,621.0823,71.3888,617.5987,68.5002,620.4873,65.0165,613.616,68.872" style="stroke:#181818;stroke-width:0.8000000000000002;"/><text fill="#000000" font-family="sans-serif" font-size="10.4" lengthAdjust="spacing" textLength="39.2" x="646.4" y="58.8227">instance</text></g><!--link GenerateTeamUI to GenerateTeamController--><g id="link_GenerateTeamUI_GenerateTeamController"><path codeLine="45" d="M181.784,54.4 C186.696,54.4 193.832,54.4 204.984,54.4 " fill="none" id="GenerateTeamUI-to-GenerateTeamController" style="stroke:#181818;stroke-width:0.8000000000000002;stroke-dasharray:7.0,7.0;"/><polygon fill="#181818" points="209.784,54.4,202.584,51.2,205.784,54.4,202.584,57.6,209.784,54.4" style="stroke:#181818;stroke-width:0.8000000000000002;"/></g><!--link GenerateTeamController to Repositories--><g id="link_GenerateTeamController_Repositories"><path codeLine="47" d="M364.648,54.4 C393.928,54.4 422.456,54.4 451.832,54.4 " fill="none" id="GenerateTeamController-to-Repositories" style="stroke:#181818;stroke-width:0.8000000000000002;stroke-dasharray:7.0,7.0;"/><polygon fill="#181818" points="456.632,54.4,449.432,51.2,452.632,54.4,449.432,57.6,456.632,54.4" style="stroke:#181818;stroke-width:0.8000000000000002;"/><text fill="#000000" font-family="sans-serif" font-size="10.4" lengthAdjust="spacing" textLength="53.6" x="383.8" y="48.8227">repositories</text></g><!--link Repositories to SkillRepository--><g id="link_Repositories_SkillRepository"><path codeLine="49" d="M580.216,103.28 C599.576,123.96 618.4467,144.1127 635.9507,162.8007 " fill="none" id="Repositories-to-SkillRepository" style="stroke:#181818;stroke-width:0.8000000000000002;"/><polygon fill="#181818" points="639.232,166.304,636.6455,158.8615,636.4976,163.3846,631.9745,163.2366,639.232,166.304" style="stroke:#181818;stroke-width:0.8000000000000002;"/><text fill="#000000" font-family="sans-serif" font-size="10.4" lengthAdjust="spacing" textLength="5.6" x="628.2184" y="157.412">1</text></g><!--link Repositories to CollaboratorRepository--><g id="link_Repositories_CollaboratorRepository"><path codeLine="50" d="M528.128,103.392 C525.168,123.56 522.4,142.4 522.4,142.4 C522.4,142.4 520.6167,149.105 517.2727,161.689 " fill="none" id="Repositories-to-CollaboratorRepository" style="stroke:#181818;stroke-width:0.8000000000000002;"/><polygon fill="#181818" points="516.04,166.328,520.9818,160.1913,517.0673,162.4622,514.7964,158.5477,516.04,166.328" style="stroke:#181818;stroke-width:0.8000000000000002;"/><text fill="#000000" font-family="sans-serif" font-size="10.4" lengthAdjust="spacing" textLength="5.6" x="511.4026" y="157.4398">1</text></g><!--link Repositories to TeamRepository--><g id="link_Repositories_TeamRepository"><path codeLine="51" d="M456.64,101.736 C421.568,122.512 388,142.4 388,142.4 C388,142.4 204.8,166.4 204.8,166.4 C204.8,166.4 166.9985,175.3644 128.8465,184.4124 " fill="none" id="Repositories-to-TeamRepository" style="stroke:#181818;stroke-width:0.8000000000000002;"/><polygon fill="#181818" points="124.176,185.52,131.9201,186.9722,128.068,184.597,130.4433,180.7449,124.176,185.52" style="stroke:#181818;stroke-width:0.8000000000000002;"/><text fill="#000000" font-family="sans-serif" font-size="10.4" lengthAdjust="spacing" textLength="5.6" x="130.5879" y="180.9345">1</text></g><!--link GenerateTeamController to SkillRepository--><g id="link_GenerateTeamController_SkillRepository"><path codeLine="53" d="M364.528,83.392 C434.416,108.864 526.4,142.4 526.4,142.4 C526.4,142.4 606.4,166.4 606.4,166.4 C606.4,166.4 607.9312,167.1896 616.0272,171.3896 " fill="none" id="GenerateTeamController-to-SkillRepository" style="stroke:#181818;stroke-width:0.8000000000000002;stroke-dasharray:7.0,7.0;"/><polygon fill="#181818" points="620.288,173.6,615.3704,167.4439,616.7374,171.758,612.4232,173.1249,620.288,173.6" style="stroke:#181818;stroke-width:0.8000000000000002;"/><text fill="#000000" font-family="sans-serif" font-size="10.4" lengthAdjust="spacing" textLength="68" x="527.2" y="139.2227">skillRepository</text></g><!--link GenerateTeamController to CollaboratorRepository--><g id="link_GenerateTeamController_CollaboratorRepository"><path codeLine="54" d="M296.952,88.416 C304.184,113.056 312.8,142.4 312.8,142.4 C312.8,142.4 408,166.4 408,166.4 C408,166.4 409.08,166.765 417.664,169.637 " fill="none" id="GenerateTeamController-to-CollaboratorRepository" style="stroke:#181818;stroke-width:0.8000000000000002;stroke-dasharray:7.0,7.0;"/><polygon fill="#181818" points="422.216,171.16,416.4034,165.8409,418.4227,169.8908,414.3727,171.9102,422.216,171.16" style="stroke:#181818;stroke-width:0.8000000000000002;"/><text fill="#000000" font-family="sans-serif" font-size="10.4" lengthAdjust="spacing" textLength="103.2" x="313.6" y="139.2227">collaboratorRepository</text></g><!--link GenerateTeamController to TeamRepository--><g id="link_GenerateTeamController_TeamRepository"><path codeLine="55" d="M235.896,88.512 C196.128,114.328 145.8178,146.9941 109.1378,170.8101 " fill="none" id="GenerateTeamController-to-TeamRepository" style="stroke:#181818;stroke-width:0.8000000000000002;stroke-dasharray:7.0,7.0;"/><polygon fill="#181818" points="105.112,173.424,112.8934,172.187,108.4669,171.2457,109.4081,166.8192,105.112,173.424" style="stroke:#181818;stroke-width:0.8000000000000002;"/><text fill="#000000" font-family="sans-serif" font-size="10.4" lengthAdjust="spacing" textLength="72.8" x="176.8" y="139.2227">teamRepository</text></g><!--link TeamRepository to Team--><g id="link_TeamRepository_Team"><path codeLine="57" d="M124.208,200.4 C152.648,200.4 182.456,200.4 213.848,200.4 " fill="none" id="TeamRepository-to-Team" style="stroke:#181818;stroke-width:0.8000000000000002;"/><polygon fill="#181818" points="218.648,200.4,211.448,197.2,214.648,200.4,211.448,203.6,218.648,200.4" style="stroke:#181818;stroke-width:0.8000000000000002;"/><text fill="#000000" font-family="sans-serif" font-size="10.4" lengthAdjust="spacing" textLength="65.6" x="138.6" y="194.8227">generateTeam</text><text fill="#000000" font-family="sans-serif" font-size="10.4" lengthAdjust="spacing" textLength="5.6" x="206.6811" y="197.5459">1</text></g><!--SRC=[bL91JiCm4Bpx5LOlROLQmJL2aL0FA88JXGUuxf9QSUt8TeK2uk_OBYJhD4RGI-ITsTcTxSnj8rJB33lIerQQ7um-0dNc16H0MiORLiFMTHAe0UwOgYKcs0FRwpUXQlhAfCM850fSrm9jjUp2WymdG6sS9gYBIsRjdND6x4uEAgxLLhm3lIOa8lGPFEc3KFzRKQ4STRvGxRyBZyAwsusMaksqOKwRadBqikJpHsVR22cVeDLMUA3h9QD214jgmoVMhsWDBbO3lbWEEdXOJYw_q22EEUCPmNDEEs1bF49u3ZqzNu3jEt3H3-Y7LyhwFvR3OacBX8JCFoJtmjtJ9y06xa61Xo4ikz7A6Ty1fbyhAx_wl_nBvMKzalXVbUaz2f-SisD2HithChDjoaGkrXVY1b_mOfFPpMoSladEjEz9QXgG_AP-rN7kYtFAKVSlpPcm5qcc_oOrodGH8umzZ0Z8gIVNIFWB]--></g></svg>