<?xml version="1.0" encoding="us-ascii" standalone="no"?><svg xmlns="http://www.w3.org/2000/svg" xmlns:xlink="http://www.w3.org/1999/xlink" contentStyleType="text/css" height="424px" preserveAspectRatio="none" style="width:434px;height:424px;background:#FFFFFF;" version="1.1" viewBox="0 0 434 424" width="434px" zoomAndPan="magnify"><defs/><g><text fill="#000000" font-family="sans-serif" font-size="14" font-weight="bold" lengthAdjust="spacing" textLength="406" x="10" y="27.9951">System Sequence Diagram (SSD) - Alternative One</text><rect fill="#FFFFFF" height="206.0625" style="stroke:#181818;stroke-width:1.0;" width="10" x="92" y="128.5938"/><rect fill="#FFFFFF" height="44.2656" style="stroke:#181818;stroke-width:1.0;" width="10" x="372" y="149.7266"/><rect fill="#FFFFFF" height="44.2656" style="stroke:#181818;stroke-width:1.0;" width="10" x="372" y="223.125"/><rect fill="#FFFFFF" height="29.1328" style="stroke:#181818;stroke-width:1.0;" width="10" x="372" y="296.5234"/><line style="stroke:#181818;stroke-width:0.5;stroke-dasharray:5.0,5.0;" x1="96.5" x2="96.5" y1="118.5938" y2="343.6563"/><line style="stroke:#181818;stroke-width:0.5;stroke-dasharray:5.0,5.0;" x1="376.5" x2="376.5" y1="118.5938" y2="343.6563"/><text fill="#000000" font-family="sans-serif" font-size="14" lengthAdjust="spacing" textLength="159" x="14.5" y="115.292">Green Space Manager</text><ellipse cx="97" cy="50.7969" fill="#E3E3E3" rx="8" ry="8" style="stroke:#181818;stroke-width:0.5;"/><path d="M97,58.7969 L97,85.7969 M84,66.7969 L110,66.7969 M97,85.7969 L84,100.7969 M97,85.7969 L110,100.7969 " fill="none" style="stroke:#181818;stroke-width:0.5;"/><text fill="#000000" font-family="sans-serif" font-size="14" lengthAdjust="spacing" textLength="159" x="14.5" y="355.6514">Green Space Manager</text><ellipse cx="97" cy="367.4531" fill="#E3E3E3" rx="8" ry="8" style="stroke:#181818;stroke-width:0.5;"/><path d="M97,375.4531 L97,402.4531 M84,383.4531 L110,383.4531 M97,402.4531 L84,417.4531 M97,402.4531 L110,417.4531 " fill="none" style="stroke:#181818;stroke-width:0.5;"/><rect fill="#E3E3E3" height="30.2969" rx="2.5" ry="2.5" style="stroke:#181818;stroke-width:0.5;" width="71" x="341.5" y="87.2969"/><text fill="#000000" font-family="sans-serif" font-size="14" lengthAdjust="spacing" textLength="57" x="348.5" y="107.292">:System</text><rect fill="#E3E3E3" height="30.2969" rx="2.5" ry="2.5" style="stroke:#181818;stroke-width:0.5;" width="71" x="341.5" y="342.6563"/><text fill="#000000" font-family="sans-serif" font-size="14" lengthAdjust="spacing" textLength="57" x="348.5" y="362.6514">:System</text><rect fill="#FFFFFF" height="206.0625" style="stroke:#181818;stroke-width:1.0;" width="10" x="92" y="128.5938"/><rect fill="#FFFFFF" height="44.2656" style="stroke:#181818;stroke-width:1.0;" width="10" x="372" y="149.7266"/><rect fill="#FFFFFF" height="44.2656" style="stroke:#181818;stroke-width:1.0;" width="10" x="372" y="223.125"/><rect fill="#FFFFFF" height="29.1328" style="stroke:#181818;stroke-width:1.0;" width="10" x="372" y="296.5234"/><polygon fill="#181818" points="360,145.7266,370,149.7266,360,153.7266,364,149.7266" style="stroke:#181818;stroke-width:1.0;"/><line style="stroke:#181818;stroke-width:1.0;" x1="102" x2="366" y1="149.7266" y2="149.7266"/><text fill="#000000" font-family="sans-serif" font-size="13" font-weight="bold" lengthAdjust="spacing" textLength="9" x="109" y="144.6606">1</text><text fill="#000000" font-family="sans-serif" font-size="13" lengthAdjust="spacing" textLength="238" x="122" y="144.6606">ask to cancel an entry in the Agenda</text><polygon fill="#181818" points="113,189.9922,103,193.9922,113,197.9922,109,193.9922" style="stroke:#181818;stroke-width:1.0;"/><line style="stroke:#181818;stroke-width:1.0;stroke-dasharray:2.0,2.0;" x1="107" x2="376" y1="193.9922" y2="193.9922"/><text fill="#000000" font-family="sans-serif" font-size="13" font-weight="bold" lengthAdjust="spacing" textLength="9" x="119" y="181.3599">2</text><text fill="#000000" font-family="sans-serif" font-size="13" lengthAdjust="spacing" textLength="114" x="132" y="173.7935">shows list of task</text><text fill="#000000" font-family="sans-serif" font-size="13" lengthAdjust="spacing" textLength="152" x="136" y="188.9263">and request a selection</text><polygon fill="#181818" points="360,219.125,370,223.125,360,227.125,364,223.125" style="stroke:#181818;stroke-width:1.0;"/><line style="stroke:#181818;stroke-width:1.0;" x1="102" x2="366" y1="223.125" y2="223.125"/><text fill="#000000" font-family="sans-serif" font-size="13" font-weight="bold" lengthAdjust="spacing" textLength="9" x="109" y="218.0591">3</text><text fill="#000000" font-family="sans-serif" font-size="13" lengthAdjust="spacing" textLength="104" x="122" y="218.0591">select an option</text><polygon fill="#181818" points="113,263.3906,103,267.3906,113,271.3906,109,267.3906" style="stroke:#181818;stroke-width:1.0;"/><line style="stroke:#181818;stroke-width:1.0;stroke-dasharray:2.0,2.0;" x1="107" x2="376" y1="267.3906" y2="267.3906"/><text fill="#000000" font-family="sans-serif" font-size="13" font-weight="bold" lengthAdjust="spacing" textLength="9" x="119" y="254.7583">4</text><text fill="#000000" font-family="sans-serif" font-size="13" lengthAdjust="spacing" textLength="157" x="132" y="247.1919">show all data registered</text><text fill="#000000" font-family="sans-serif" font-size="13" lengthAdjust="spacing" textLength="177" x="136" y="262.3247">and the confirmation menu</text><polygon fill="#181818" points="360,292.5234,370,296.5234,360,300.5234,364,296.5234" style="stroke:#181818;stroke-width:1.0;"/><line style="stroke:#181818;stroke-width:1.0;" x1="102" x2="366" y1="296.5234" y2="296.5234"/><text fill="#000000" font-family="sans-serif" font-size="13" font-weight="bold" lengthAdjust="spacing" textLength="9" x="109" y="291.4575">5</text><text fill="#000000" font-family="sans-serif" font-size="13" lengthAdjust="spacing" textLength="85" x="122" y="291.4575">submits data</text><polygon fill="#181818" points="113,321.6563,103,325.6563,113,329.6563,109,325.6563" style="stroke:#181818;stroke-width:1.0;"/><line style="stroke:#181818;stroke-width:1.0;stroke-dasharray:2.0,2.0;" x1="107" x2="376" y1="325.6563" y2="325.6563"/><text fill="#000000" font-family="sans-serif" font-size="13" font-weight="bold" lengthAdjust="spacing" textLength="9" x="119" y="320.5903">6</text><text fill="#000000" font-family="sans-serif" font-size="13" lengthAdjust="spacing" textLength="184" x="132" y="320.5903">shows operation (in)success</text><!--SRC=[dP2nRiCm34HtVyKXKpBa1p8K292YKz71QnT6PXmX4kLAT0B_VMaxIGkq6LfEbCIxUs8vUUaeKqHCajmnfyZGt7DLxYyTkHErNEiG69cTahJX-q0vKfCkNbeSA1IkAlLge_LGb2Dg_kXP76FdgHt7btMzMs6DRL3EGkhFZ3Sn6VMQf8zxpjOxJHcBbymig0s1yKfY67a1AdYENKW3SsK4wftlI1IBpHmvJSnjDJdvCob_QIfOtKvOFzr8DwOxGHCS6My02LWq3_02FJAsBKj3a_fkUeyPRwy-QxEyssziFUbI47nHf0FKCjx5l1lRfMt6RWc5W-tL9vbi6lvX_v1uLewegPiCgj_vSAt7YA0Gq92ISRK6ovcRA-ZuUPVau7EaCGIHfVyxQh-FNikKyL_8Oj_aF4CilQnAxnoNye3b4m00]--></g></svg>