<?xml version="1.0" encoding="us-ascii" standalone="no"?><svg xmlns="http://www.w3.org/2000/svg" xmlns:xlink="http://www.w3.org/1999/xlink" contentStyleType="text/css" height="608px" preserveAspectRatio="none" style="width:379px;height:608px;background:#FFFFFF;" version="1.1" viewBox="0 0 379 608" width="379px" zoomAndPan="magnify"><defs/><g><text fill="#000000" font-family="sans-serif" font-size="14" font-weight="bold" lengthAdjust="spacing" textLength="351" x="10" y="30.1074">System Sequence Diagram (SSD) - Alternative One</text><rect fill="#FFFFFF" height="383.0742" style="stroke:#181818;stroke-width:1.0;" width="10" x="96.5" y="133.2422"/><rect fill="#FFFFFF" height="48.582" style="stroke:#181818;stroke-width:1.0;" width="10" x="308.5" y="156.5332"/><rect fill="#FFFFFF" height="48.582" style="stroke:#181818;stroke-width:1.0;" width="10" x="308.5" y="236.4063"/><rect fill="#FFFFFF" height="48.582" style="stroke:#181818;stroke-width:1.0;" width="10" x="308.5" y="316.2793"/><rect fill="#FFFFFF" height="48.582" style="stroke:#181818;stroke-width:1.0;" width="10" x="308.5" y="396.1523"/><rect fill="#FFFFFF" height="31.291" style="stroke:#181818;stroke-width:1.0;" width="10" x="308.5" y="476.0254"/><line style="stroke:#181818;stroke-width:0.5;stroke-dasharray:5.0,5.0;" x1="101.5" x2="101.5" y1="123.2422" y2="525.3164"/><line style="stroke:#181818;stroke-width:0.5;stroke-dasharray:5.0,5.0;" x1="313.5" x2="313.5" y1="123.2422" y2="525.3164"/><text fill="#000000" font-family="sans-serif" font-size="14" lengthAdjust="spacing" textLength="144" x="26.5" y="119.7285">Green Space Manager</text><ellipse cx="101.5" cy="53.1211" fill="#E3E3E3" rx="8" ry="8" style="stroke:#181818;stroke-width:0.5;"/><path d="M101.5,61.1211 L101.5,88.1211 M88.5,69.1211 L114.5,69.1211 M101.5,88.1211 L88.5,103.1211 M101.5,88.1211 L114.5,103.1211 " fill="none" style="stroke:#181818;stroke-width:0.5;"/><text fill="#000000" font-family="sans-serif" font-size="14" lengthAdjust="spacing" textLength="144" x="26.5" y="539.4238">Green Space Manager</text><ellipse cx="101.5" cy="551.4375" fill="#E3E3E3" rx="8" ry="8" style="stroke:#181818;stroke-width:0.5;"/><path d="M101.5,559.4375 L101.5,586.4375 M88.5,567.4375 L114.5,567.4375 M101.5,586.4375 L88.5,601.4375 M101.5,586.4375 L114.5,601.4375 " fill="none" style="stroke:#181818;stroke-width:0.5;"/><rect fill="#E3E3E3" height="32.6211" rx="2.5" ry="2.5" style="stroke:#181818;stroke-width:0.5;" width="64" x="281.5" y="89.6211"/><text fill="#000000" font-family="sans-serif" font-size="14" lengthAdjust="spacing" textLength="50" x="288.5" y="111.7285">:System</text><rect fill="#E3E3E3" height="32.6211" rx="2.5" ry="2.5" style="stroke:#181818;stroke-width:0.5;" width="64" x="281.5" y="524.3164"/><text fill="#000000" font-family="sans-serif" font-size="14" lengthAdjust="spacing" textLength="50" x="288.5" y="546.4238">:System</text><rect fill="#FFFFFF" height="383.0742" style="stroke:#181818;stroke-width:1.0;" width="10" x="96.5" y="133.2422"/><rect fill="#FFFFFF" height="48.582" style="stroke:#181818;stroke-width:1.0;" width="10" x="308.5" y="156.5332"/><rect fill="#FFFFFF" height="48.582" style="stroke:#181818;stroke-width:1.0;" width="10" x="308.5" y="236.4063"/><rect fill="#FFFFFF" height="48.582" style="stroke:#181818;stroke-width:1.0;" width="10" x="308.5" y="316.2793"/><rect fill="#FFFFFF" height="48.582" style="stroke:#181818;stroke-width:1.0;" width="10" x="308.5" y="396.1523"/><rect fill="#FFFFFF" height="31.291" style="stroke:#181818;stroke-width:1.0;" width="10" x="308.5" y="476.0254"/><polygon fill="#181818" points="296.5,152.5332,306.5,156.5332,296.5,160.5332,300.5,156.5332" style="stroke:#181818;stroke-width:1.0;"/><line style="stroke:#181818;stroke-width:1.0;" x1="106.5" x2="302.5" y1="156.5332" y2="156.5332"/><text fill="#000000" font-family="sans-serif" font-size="13" font-weight="bold" lengthAdjust="spacing" textLength="7" x="113.5" y="151.2705">1</text><text fill="#000000" font-family="sans-serif" font-size="13" lengthAdjust="spacing" textLength="161" x="124.5" y="151.2705">ask to select assign a team</text><polygon fill="#181818" points="117.5,201.1152,107.5,205.1152,117.5,209.1152,113.5,205.1152" style="stroke:#181818;stroke-width:1.0;"/><line style="stroke:#181818;stroke-width:1.0;stroke-dasharray:2.0,2.0;" x1="111.5" x2="312.5" y1="205.1152" y2="205.1152"/><text fill="#000000" font-family="sans-serif" font-size="13" font-weight="bold" lengthAdjust="spacing" textLength="7" x="123.5" y="191.207">2</text><text fill="#000000" font-family="sans-serif" font-size="13" lengthAdjust="spacing" textLength="108" x="134.5" y="182.5615">shows list of tasks</text><text fill="#000000" font-family="sans-serif" font-size="13" lengthAdjust="spacing" textLength="135" x="138.5" y="199.8525">and request a selection</text><polygon fill="#181818" points="296.5,232.4063,306.5,236.4063,296.5,240.4063,300.5,236.4063" style="stroke:#181818;stroke-width:1.0;"/><line style="stroke:#181818;stroke-width:1.0;" x1="106.5" x2="302.5" y1="236.4063" y2="236.4063"/><text fill="#000000" font-family="sans-serif" font-size="13" font-weight="bold" lengthAdjust="spacing" textLength="7" x="113.5" y="231.1436">3</text><text fill="#000000" font-family="sans-serif" font-size="13" lengthAdjust="spacing" textLength="92" x="124.5" y="231.1436">select an option</text><polygon fill="#181818" points="117.5,280.9883,107.5,284.9883,117.5,288.9883,113.5,284.9883" style="stroke:#181818;stroke-width:1.0;"/><line style="stroke:#181818;stroke-width:1.0;stroke-dasharray:2.0,2.0;" x1="111.5" x2="312.5" y1="284.9883" y2="284.9883"/><text fill="#000000" font-family="sans-serif" font-size="13" font-weight="bold" lengthAdjust="spacing" textLength="7" x="123.5" y="271.0801">4</text><text fill="#000000" font-family="sans-serif" font-size="13" lengthAdjust="spacing" textLength="112" x="134.5" y="262.4346">shows list of teams</text><text fill="#000000" font-family="sans-serif" font-size="13" lengthAdjust="spacing" textLength="135" x="138.5" y="279.7256">and request a selection</text><polygon fill="#181818" points="296.5,312.2793,306.5,316.2793,296.5,320.2793,300.5,316.2793" style="stroke:#181818;stroke-width:1.0;"/><line style="stroke:#181818;stroke-width:1.0;" x1="106.5" x2="302.5" y1="316.2793" y2="316.2793"/><text fill="#000000" font-family="sans-serif" font-size="13" font-weight="bold" lengthAdjust="spacing" textLength="7" x="113.5" y="311.0166">5</text><text fill="#000000" font-family="sans-serif" font-size="13" lengthAdjust="spacing" textLength="92" x="124.5" y="311.0166">select an option</text><polygon fill="#181818" points="117.5,360.8613,107.5,364.8613,117.5,368.8613,113.5,364.8613" style="stroke:#181818;stroke-width:1.0;"/><line style="stroke:#181818;stroke-width:1.0;stroke-dasharray:2.0,2.0;" x1="111.5" x2="312.5" y1="364.8613" y2="364.8613"/><text fill="#000000" font-family="sans-serif" font-size="13" font-weight="bold" lengthAdjust="spacing" textLength="7" x="123.5" y="350.9531">6</text><text fill="#000000" font-family="sans-serif" font-size="13" lengthAdjust="spacing" textLength="158" x="134.5" y="342.3076">shows list of email services</text><text fill="#000000" font-family="sans-serif" font-size="13" lengthAdjust="spacing" textLength="135" x="138.5" y="359.5986">and request a selection</text><polygon fill="#181818" points="296.5,392.1523,306.5,396.1523,296.5,400.1523,300.5,396.1523" style="stroke:#181818;stroke-width:1.0;"/><line style="stroke:#181818;stroke-width:1.0;" x1="106.5" x2="302.5" y1="396.1523" y2="396.1523"/><text fill="#000000" font-family="sans-serif" font-size="13" font-weight="bold" lengthAdjust="spacing" textLength="7" x="113.5" y="390.8896">7</text><text fill="#000000" font-family="sans-serif" font-size="13" lengthAdjust="spacing" textLength="92" x="124.5" y="390.8896">select an option</text><polygon fill="#181818" points="117.5,440.7344,107.5,444.7344,117.5,448.7344,113.5,444.7344" style="stroke:#181818;stroke-width:1.0;"/><line style="stroke:#181818;stroke-width:1.0;stroke-dasharray:2.0,2.0;" x1="111.5" x2="312.5" y1="444.7344" y2="444.7344"/><text fill="#000000" font-family="sans-serif" font-size="13" font-weight="bold" lengthAdjust="spacing" textLength="7" x="123.5" y="430.8262">8</text><text fill="#000000" font-family="sans-serif" font-size="13" lengthAdjust="spacing" textLength="129" x="134.5" y="422.1807">show all data selected</text><text fill="#000000" font-family="sans-serif" font-size="13" lengthAdjust="spacing" textLength="153" x="138.5" y="439.4717">and the confirmation menu</text><polygon fill="#181818" points="296.5,472.0254,306.5,476.0254,296.5,480.0254,300.5,476.0254" style="stroke:#181818;stroke-width:1.0;"/><line style="stroke:#181818;stroke-width:1.0;" x1="106.5" x2="302.5" y1="476.0254" y2="476.0254"/><text fill="#000000" font-family="sans-serif" font-size="13" font-weight="bold" lengthAdjust="spacing" textLength="7" x="113.5" y="470.7627">9</text><text fill="#000000" font-family="sans-serif" font-size="13" lengthAdjust="spacing" textLength="75" x="124.5" y="470.7627">submits data</text><polygon fill="#181818" points="117.5,503.3164,107.5,507.3164,117.5,511.3164,113.5,507.3164" style="stroke:#181818;stroke-width:1.0;"/><line style="stroke:#181818;stroke-width:1.0;stroke-dasharray:2.0,2.0;" x1="111.5" x2="312.5" y1="507.3164" y2="507.3164"/><text fill="#000000" font-family="sans-serif" font-size="13" font-weight="bold" lengthAdjust="spacing" textLength="14" x="123.5" y="502.0537">10</text><text fill="#000000" font-family="sans-serif" font-size="13" lengthAdjust="spacing" textLength="160" x="141.5" y="502.0537">shows operation successful</text><!--SRC=[pP2_JiCm48VtFCMf4mnzWGv8I4LCY24hozMvfAVQvs2VM-NjkQHDG89Am5HF_dE_xpvVFh3qc310Y1BTFiL0eAbGbPUN7jq1Ewfry0I9dA9q_cj1tcCJJomTjEWpLPMoMcazPAK0DRqN4aUmPUp6yhkwtjx36XwzKX9KFXAyYiMmQ9GITfHixpGcM3qd8e7Q50XUK4mZhG0pF8NUnu6eCWDbnpsAmcfpRZbLdBVLHE8ZAdrcAh0rds3zC9jkB7S0ZP39spVjbBaJG532C8KMra8VRo_njP4MwiQc4ayPF6U5s88QEhyPJ1gReKt4hl7IYADCd8Q-yQ-Qpee2iLy0FyP_PMSVl5qx2iZUcEd8ZcvD4z1xQ51d3sekWhedS55QJW57E0IIydV5iWkiUUhmlod6dj9P81TdyyjjyLSqFW00]--></g></svg>