<?xml version="1.0" encoding="us-ascii" standalone="no"?><svg xmlns="http://www.w3.org/2000/svg" xmlns:xlink="http://www.w3.org/1999/xlink" contentStyleType="text/css" height="819.5px" preserveAspectRatio="none" style="width:1452px;height:819px;background:#FFFFFF;" version="1.1" viewBox="0 0 1452 819" width="1452px" zoomAndPan="magnify"><defs/><g><!--class AgendaUI--><g id="elem_AgendaUI"><rect codeLine="9" fill="#F1F1F1" height="52.8" id="AgendaUI" rx="2.75" ry="2.75" style="stroke:#181818;stroke-width:0.55;" width="111.1" x="7.7" y="43.45"/><ellipse cx="24.2" cy="61.05" fill="#ADD1B2" rx="12.1" ry="12.1" style="stroke:#181818;stroke-width:1.1;"/><path d="M27.4656,67.2547 Q26.8297,67.5813 26.125,67.7359 Q25.4203,67.9078 24.6469,67.9078 Q21.8969,67.9078 20.4359,66.1031 Q18.9922,64.2813 18.9922,60.8438 Q18.9922,57.4063 20.4359,55.5844 Q21.8969,53.7625 24.6469,53.7625 Q25.4203,53.7625 26.125,53.9344 Q26.8469,54.1063 27.4656,54.4328 L27.4656,57.4234 Q26.7781,56.7875 26.125,56.4953 Q25.4719,56.1859 24.7844,56.1859 Q23.3063,56.1859 22.55,57.3719 Q21.7938,58.5406 21.7938,60.8438 Q21.7938,63.1469 22.55,64.3328 Q23.3063,65.5016 24.7844,65.5016 Q25.4719,65.5016 26.125,65.2094 Q26.7781,64.9 27.4656,64.2641 L27.4656,67.2547 Z " fill="#000000"/><text fill="#000000" font-family="sans-serif" font-size="15.4" lengthAdjust="spacing" textLength="75.9" x="39.6" y="66.3813">AgendaUI</text><line style="stroke:#181818;stroke-width:0.55;" x1="8.8" x2="117.7" y1="78.65" y2="78.65"/><line style="stroke:#181818;stroke-width:0.55;" x1="8.8" x2="117.7" y1="87.45" y2="87.45"/></g><!--class AgendaController--><g id="elem_AgendaController"><rect codeLine="13" fill="#F1F1F1" height="124.5063" id="AgendaController" rx="2.75" ry="2.75" style="stroke:#181818;stroke-width:0.55;" width="443.3" x="157.3" y="7.7"/><ellipse cx="304.975" cy="25.3" fill="#ADD1B2" rx="12.1" ry="12.1" style="stroke:#181818;stroke-width:1.1;"/><path d="M308.2406,31.5047 Q307.6047,31.8313 306.9,31.9859 Q306.1953,32.1578 305.4219,32.1578 Q302.6719,32.1578 301.2109,30.3531 Q299.7672,28.5313 299.7672,25.0938 Q299.7672,21.6563 301.2109,19.8344 Q302.6719,18.0125 305.4219,18.0125 Q306.1953,18.0125 306.9,18.1844 Q307.6219,18.3563 308.2406,18.6828 L308.2406,21.6734 Q307.5531,21.0375 306.9,20.7453 Q306.2469,20.4359 305.5594,20.4359 Q304.0813,20.4359 303.325,21.6219 Q302.5688,22.7906 302.5688,25.0938 Q302.5688,27.3969 303.325,28.5828 Q304.0813,29.7516 305.5594,29.7516 Q306.2469,29.7516 306.9,29.4594 Q307.5531,29.15 308.2406,28.5141 L308.2406,31.5047 Z " fill="#000000"/><text fill="#000000" font-family="sans-serif" font-size="15.4" lengthAdjust="spacing" textLength="138.6" x="327.525" y="30.6313">AgendaController</text><line style="stroke:#181818;stroke-width:0.55;" x1="158.4" x2="599.5" y1="42.9" y2="42.9"/><text fill="#000000" font-family="sans-serif" font-size="15.4" lengthAdjust="spacing" textLength="297" x="163.9" y="61.5946">-AgendaRepository agendaRepository</text><line style="stroke:#181818;stroke-width:0.55;" x1="158.4" x2="599.5" y1="69.6266" y2="69.6266"/><text fill="#000000" font-family="sans-serif" font-size="15.4" lengthAdjust="spacing" textLength="162.8" x="163.9" y="88.3212">+AgendaController()</text><text fill="#000000" font-family="sans-serif" font-size="15.4" lengthAdjust="spacing" textLength="102.3" x="163.9" y="106.2478">-getAgenda()</text><text fill="#000000" font-family="sans-serif" font-size="15.4" lengthAdjust="spacing" textLength="430.1" x="163.9" y="124.1743">+postponeTask(int agendaTaskID, Data postponeDate)</text></g><!--class Repositories--><g id="elem_Repositories"><rect codeLine="20" fill="#F1F1F1" height="124.5063" id="Repositories" rx="2.75" ry="2.75" style="stroke:#181818;stroke-width:0.55;" width="260.7" x="743.6" y="7.7"/><ellipse cx="820.875" cy="25.3" fill="#ADD1B2" rx="12.1" ry="12.1" style="stroke:#181818;stroke-width:1.1;"/><path d="M824.1406,31.5047 Q823.5047,31.8313 822.8,31.9859 Q822.0953,32.1578 821.3219,32.1578 Q818.5719,32.1578 817.1109,30.3531 Q815.6672,28.5313 815.6672,25.0938 Q815.6672,21.6563 817.1109,19.8344 Q818.5719,18.0125 821.3219,18.0125 Q822.0953,18.0125 822.8,18.1844 Q823.5219,18.3563 824.1406,18.6828 L824.1406,21.6734 Q823.4531,21.0375 822.8,20.7453 Q822.1469,20.4359 821.4594,20.4359 Q819.9813,20.4359 819.225,21.6219 Q818.4688,22.7906 818.4688,25.0938 Q818.4688,27.3969 819.225,28.5828 Q819.9813,29.7516 821.4594,29.7516 Q822.1469,29.7516 822.8,29.4594 Q823.4531,29.15 824.1406,28.5141 L824.1406,31.5047 Z " fill="#000000"/><text fill="#000000" font-family="sans-serif" font-size="15.4" lengthAdjust="spacing" textLength="96.8" x="843.425" y="30.6313">Repositories</text><line style="stroke:#181818;stroke-width:0.55;" x1="744.7" x2="1003.2" y1="42.9" y2="42.9"/><line style="stroke:#181818;stroke-width:0.55;" x1="744.7" x2="1003.2" y1="51.7" y2="51.7"/><text fill="#000000" font-family="sans-serif" font-size="15.4" lengthAdjust="spacing" textLength="113.3" x="750.2" y="70.3946">-Repositories()</text><text fill="#000000" font-family="sans-serif" font-size="15.4" lengthAdjust="spacing" textLength="226.6" x="750.2" y="88.3212">+getInstance() : Repositories</text><text fill="#000000" font-family="sans-serif" font-size="15.4" lengthAdjust="spacing" textLength="110" x="750.2" y="106.2478">+getAgenda()</text><text fill="#000000" font-family="sans-serif" font-size="15.4" lengthAdjust="spacing" textLength="247.5" x="750.2" y="124.1743">+getAuthenticationRepository()</text></g><!--class AuthenticationRepository--><g id="elem_AuthenticationRepository"><rect codeLine="27" fill="#F1F1F1" height="70.7266" id="AuthenticationRepository" rx="2.75" ry="2.75" style="stroke:#181818;stroke-width:0.55;" width="233.2" x="757.35" y="216.7"/><ellipse cx="773.85" cy="234.3" fill="#ADD1B2" rx="12.1" ry="12.1" style="stroke:#181818;stroke-width:1.1;"/><path d="M777.1156,240.5047 Q776.4797,240.8313 775.775,240.9859 Q775.0703,241.1578 774.2969,241.1578 Q771.5469,241.1578 770.0859,239.3531 Q768.6422,237.5313 768.6422,234.0938 Q768.6422,230.6563 770.0859,228.8344 Q771.5469,227.0125 774.2969,227.0125 Q775.0703,227.0125 775.775,227.1844 Q776.4969,227.3563 777.1156,227.6828 L777.1156,230.6734 Q776.4281,230.0375 775.775,229.7453 Q775.1219,229.4359 774.4344,229.4359 Q772.9563,229.4359 772.2,230.6219 Q771.4438,231.7906 771.4438,234.0938 Q771.4438,236.3969 772.2,237.5828 Q772.9563,238.7516 774.4344,238.7516 Q775.1219,238.7516 775.775,238.4594 Q776.4281,238.15 777.1156,237.5141 L777.1156,240.5047 Z " fill="#000000"/><text fill="#000000" font-family="sans-serif" font-size="15.4" lengthAdjust="spacing" textLength="198" x="789.25" y="239.6313">AuthenticationRepository</text><line style="stroke:#181818;stroke-width:0.55;" x1="758.45" x2="989.45" y1="251.9" y2="251.9"/><line style="stroke:#181818;stroke-width:0.55;" x1="758.45" x2="989.45" y1="260.7" y2="260.7"/><text fill="#000000" font-family="sans-serif" font-size="15.4" lengthAdjust="spacing" textLength="203.5" x="763.95" y="279.3946">+getCurrentUserSession()</text></g><!--class UserSession--><g id="elem_UserSession"><rect codeLine="31" fill="#F1F1F1" height="70.7266" id="UserSession" rx="2.75" ry="2.75" style="stroke:#181818;stroke-width:0.55;" width="129.8" x="1315.05" y="216.7"/><ellipse cx="1331.55" cy="234.3" fill="#ADD1B2" rx="12.1" ry="12.1" style="stroke:#181818;stroke-width:1.1;"/><path d="M1334.8156,240.5047 Q1334.1797,240.8313 1333.475,240.9859 Q1332.7703,241.1578 1331.9969,241.1578 Q1329.2469,241.1578 1327.7859,239.3531 Q1326.3422,237.5313 1326.3422,234.0938 Q1326.3422,230.6563 1327.7859,228.8344 Q1329.2469,227.0125 1331.9969,227.0125 Q1332.7703,227.0125 1333.475,227.1844 Q1334.1969,227.3563 1334.8156,227.6828 L1334.8156,230.6734 Q1334.1281,230.0375 1333.475,229.7453 Q1332.8219,229.4359 1332.1344,229.4359 Q1330.6563,229.4359 1329.9,230.6219 Q1329.1438,231.7906 1329.1438,234.0938 Q1329.1438,236.3969 1329.9,237.5828 Q1330.6563,238.7516 1332.1344,238.7516 Q1332.8219,238.7516 1333.475,238.4594 Q1334.1281,238.15 1334.8156,237.5141 L1334.8156,240.5047 Z " fill="#000000"/><text fill="#000000" font-family="sans-serif" font-size="15.4" lengthAdjust="spacing" textLength="94.6" x="1346.95" y="239.6313">UserSession</text><line style="stroke:#181818;stroke-width:0.55;" x1="1316.15" x2="1443.75" y1="251.9" y2="251.9"/><line style="stroke:#181818;stroke-width:0.55;" x1="1316.15" x2="1443.75" y1="260.7" y2="260.7"/><text fill="#000000" font-family="sans-serif" font-size="15.4" lengthAdjust="spacing" textLength="99" x="1321.65" y="279.3946">+getUserId()</text></g><!--class Email--><g id="elem_Email"><rect codeLine="35" fill="#F1F1F1" height="70.7266" id="Email" rx="2.75" ry="2.75" style="stroke:#181818;stroke-width:0.55;" width="106.7" x="1326.6" y="407.55"/><ellipse cx="1355.475" cy="425.15" fill="#ADD1B2" rx="12.1" ry="12.1" style="stroke:#181818;stroke-width:1.1;"/><path d="M1358.7406,431.3547 Q1358.1047,431.6813 1357.4,431.8359 Q1356.6953,432.0078 1355.9219,432.0078 Q1353.1719,432.0078 1351.7109,430.2031 Q1350.2672,428.3813 1350.2672,424.9438 Q1350.2672,421.5063 1351.7109,419.6844 Q1353.1719,417.8625 1355.9219,417.8625 Q1356.6953,417.8625 1357.4,418.0344 Q1358.1219,418.2063 1358.7406,418.5328 L1358.7406,421.5234 Q1358.0531,420.8875 1357.4,420.5953 Q1356.7469,420.2859 1356.0594,420.2859 Q1354.5813,420.2859 1353.825,421.4719 Q1353.0688,422.6406 1353.0688,424.9438 Q1353.0688,427.2469 1353.825,428.4328 Q1354.5813,429.6016 1356.0594,429.6016 Q1356.7469,429.6016 1357.4,429.3094 Q1358.0531,429 1358.7406,428.3641 L1358.7406,431.3547 Z " fill="#000000"/><text fill="#000000" font-family="sans-serif" font-size="15.4" lengthAdjust="spacing" textLength="44" x="1373.625" y="430.4813">Email</text><line style="stroke:#181818;stroke-width:0.55;" x1="1327.7" x2="1432.2" y1="442.75" y2="442.75"/><line style="stroke:#181818;stroke-width:0.55;" x1="1327.7" x2="1432.2" y1="451.55" y2="451.55"/><text fill="#000000" font-family="sans-serif" font-size="15.4" lengthAdjust="spacing" textLength="93.5" x="1333.2" y="470.2446">+getEmail()</text></g><!--class AgendaRepository--><g id="elem_AgendaRepository"><rect codeLine="41" fill="#F1F1F1" height="142.4328" id="AgendaRepository" rx="2.75" ry="2.75" style="stroke:#181818;stroke-width:0.55;" width="602.8" x="684.75" y="371.8"/><ellipse cx="909.425" cy="389.4" fill="#ADD1B2" rx="12.1" ry="12.1" style="stroke:#181818;stroke-width:1.1;"/><path d="M912.6906,395.6047 Q912.0547,395.9313 911.35,396.0859 Q910.6453,396.2578 909.8719,396.2578 Q907.1219,396.2578 905.6609,394.4531 Q904.2172,392.6313 904.2172,389.1938 Q904.2172,385.7563 905.6609,383.9344 Q907.1219,382.1125 909.8719,382.1125 Q910.6453,382.1125 911.35,382.2844 Q912.0719,382.4563 912.6906,382.7828 L912.6906,385.7734 Q912.0031,385.1375 911.35,384.8453 Q910.6969,384.5359 910.0094,384.5359 Q908.5313,384.5359 907.775,385.7219 Q907.0188,386.8906 907.0188,389.1938 Q907.0188,391.4969 907.775,392.6828 Q908.5313,393.8516 910.0094,393.8516 Q910.6969,393.8516 911.35,393.5594 Q912.0031,393.25 912.6906,392.6141 L912.6906,395.6047 Z " fill="#000000"/><text fill="#000000" font-family="sans-serif" font-size="15.4" lengthAdjust="spacing" textLength="144.1" x="931.975" y="394.7313">AgendaRepository</text><line style="stroke:#181818;stroke-width:0.55;" x1="685.85" x2="1286.45" y1="407" y2="407"/><text fill="#000000" font-family="sans-serif" font-size="15.4" lengthAdjust="spacing" textLength="277.2" x="691.35" y="425.6946">-List&lt;AgendaEntry&gt; agendaEntries</text><line style="stroke:#181818;stroke-width:0.55;" x1="685.85" x2="1286.45" y1="433.7266" y2="433.7266"/><text fill="#000000" font-family="sans-serif" font-size="15.4" lengthAdjust="spacing" textLength="475.2" x="691.35" y="452.4212">+postponeTask(ToDoEntry agendaEntry, Data starting_Date)</text><text fill="#000000" font-family="sans-serif" font-size="15.4" lengthAdjust="spacing" textLength="416.9" x="691.35" y="470.3478">-getAgendaEntriesForResponsible(String responsible)</text><text fill="#000000" font-family="sans-serif" font-size="15.4" lengthAdjust="spacing" textLength="589.6" x="691.35" y="488.2743">-getTaskByResposible(int agendaTaskID, List&lt;AgendaEntry&gt; agendaTasks)</text><text fill="#000000" font-family="sans-serif" font-size="15.4" lengthAdjust="spacing" textLength="460.9" x="691.35" y="506.2009">-validPostponeDate(AgendaEntry task, Data postponeDate)</text></g><!--class AgendaMapper--><g id="elem_AgendaMapper"><rect codeLine="52" fill="#F1F1F1" height="106.5797" id="AgendaMapper" rx="2.75" ry="2.75" style="stroke:#181818;stroke-width:0.55;" width="352" x="56.65" y="389.4"/><ellipse cx="168.025" cy="407" fill="#ADD1B2" rx="12.1" ry="12.1" style="stroke:#181818;stroke-width:1.1;"/><path d="M171.2906,413.2047 Q170.6547,413.5313 169.95,413.6859 Q169.2453,413.8578 168.4719,413.8578 Q165.7219,413.8578 164.2609,412.0531 Q162.8172,410.2313 162.8172,406.7938 Q162.8172,403.3563 164.2609,401.5344 Q165.7219,399.7125 168.4719,399.7125 Q169.2453,399.7125 169.95,399.8844 Q170.6719,400.0563 171.2906,400.3828 L171.2906,403.3734 Q170.6031,402.7375 169.95,402.4453 Q169.2969,402.1359 168.6094,402.1359 Q167.1313,402.1359 166.375,403.3219 Q165.6188,404.4906 165.6188,406.7938 Q165.6188,409.0969 166.375,410.2828 Q167.1313,411.4516 168.6094,411.4516 Q169.2969,411.4516 169.95,411.1594 Q170.6031,410.85 171.2906,410.2141 L171.2906,413.2047 Z " fill="#000000"/><text fill="#000000" font-family="sans-serif" font-size="15.4" lengthAdjust="spacing" textLength="119.9" x="190.575" y="412.3313">AgendaMapper</text><line style="stroke:#181818;stroke-width:0.55;" x1="57.75" x2="407.55" y1="424.6" y2="424.6"/><line style="stroke:#181818;stroke-width:0.55;" x1="57.75" x2="407.55" y1="433.4" y2="433.4"/><text fill="#000000" font-family="sans-serif" font-size="15.4" lengthAdjust="spacing" textLength="144.1" x="63.25" y="452.0946">+AgendaMapper()</text><text fill="#000000" font-family="sans-serif" font-size="15.4" lengthAdjust="spacing" textLength="338.8" x="63.25" y="470.0212">+toDto(List&lt;AgendaEntry&gt; agendaEntries)</text><text fill="#000000" font-family="sans-serif" font-size="15.4" lengthAdjust="spacing" textLength="265.1" x="63.25" y="487.9478">-toDto(AgendaEntry agendaEntry)</text></g><!--class AgendaEntryDTO--><g id="elem_AgendaEntryDTO"><rect codeLine="58" fill="#F1F1F1" height="124.5063" id="AgendaEntryDTO" rx="2.75" ry="2.75" style="stroke:#181818;stroke-width:0.55;" width="378.4" x="43.45" y="643.5"/><ellipse cx="160.325" cy="661.1" fill="#ADD1B2" rx="12.1" ry="12.1" style="stroke:#181818;stroke-width:1.1;"/><path d="M163.5906,667.3047 Q162.9547,667.6313 162.25,667.7859 Q161.5453,667.9578 160.7719,667.9578 Q158.0219,667.9578 156.5609,666.1531 Q155.1172,664.3313 155.1172,660.8938 Q155.1172,657.4563 156.5609,655.6344 Q158.0219,653.8125 160.7719,653.8125 Q161.5453,653.8125 162.25,653.9844 Q162.9719,654.1563 163.5906,654.4828 L163.5906,657.4734 Q162.9031,656.8375 162.25,656.5453 Q161.5969,656.2359 160.9094,656.2359 Q159.4313,656.2359 158.675,657.4219 Q157.9188,658.5906 157.9188,660.8938 Q157.9188,663.1969 158.675,664.3828 Q159.4313,665.5516 160.9094,665.5516 Q161.5969,665.5516 162.25,665.2594 Q162.9031,664.95 163.5906,664.3141 L163.5906,667.3047 Z " fill="#000000"/><text fill="#000000" font-family="sans-serif" font-size="15.4" lengthAdjust="spacing" textLength="135.3" x="182.875" y="666.4313">AgendaEntryDTO</text><line style="stroke:#181818;stroke-width:0.55;" x1="44.55" x2="420.75" y1="678.7" y2="678.7"/><text fill="#000000" font-family="sans-serif" font-size="15.4" lengthAdjust="spacing" textLength="162.8" x="50.05" y="697.3946">-AgendaEntry objDto</text><line style="stroke:#181818;stroke-width:0.55;" x1="44.55" x2="420.75" y1="705.4266" y2="705.4266"/><text fill="#000000" font-family="sans-serif" font-size="15.4" lengthAdjust="spacing" textLength="365.2" x="50.05" y="724.1212">+AgendaEntryDTO(AgendaEntry agendaEntry)</text><text fill="#000000" font-family="sans-serif" font-size="15.4" lengthAdjust="spacing" textLength="103.4" x="50.05" y="742.0478">+getObjDto()</text><text fill="#000000" font-family="sans-serif" font-size="15.4" lengthAdjust="spacing" textLength="144.1" x="50.05" y="759.9743">+getResponsible()</text></g><!--class AgendaEntry--><g id="elem_AgendaEntry"><rect codeLine="66" fill="#F1F1F1" height="214.1391" id="AgendaEntry" rx="2.75" ry="2.75" style="stroke:#181818;stroke-width:0.55;" width="502.7" x="734.8" y="598.4"/><ellipse cx="930.875" cy="616" fill="#ADD1B2" rx="12.1" ry="12.1" style="stroke:#181818;stroke-width:1.1;"/><path d="M934.1406,622.2047 Q933.5047,622.5313 932.8,622.6859 Q932.0953,622.8578 931.3219,622.8578 Q928.5719,622.8578 927.1109,621.0531 Q925.6672,619.2313 925.6672,615.7938 Q925.6672,612.3563 927.1109,610.5344 Q928.5719,608.7125 931.3219,608.7125 Q932.0953,608.7125 932.8,608.8844 Q933.5219,609.0563 934.1406,609.3828 L934.1406,612.3734 Q933.4531,611.7375 932.8,611.4453 Q932.1469,611.1359 931.4594,611.1359 Q929.9813,611.1359 929.225,612.3219 Q928.4688,613.4906 928.4688,615.7938 Q928.4688,618.0969 929.225,619.2828 Q929.9813,620.4516 931.4594,620.4516 Q932.1469,620.4516 932.8,620.1594 Q933.4531,619.85 934.1406,619.2141 L934.1406,622.2047 Z " fill="#000000"/><text fill="#000000" font-family="sans-serif" font-size="15.4" lengthAdjust="spacing" textLength="101.2" x="953.425" y="621.3313">AgendaEntry</text><line style="stroke:#181818;stroke-width:0.55;" x1="735.9" x2="1236.4" y1="633.6" y2="633.6"/><text fill="#000000" font-family="sans-serif" font-size="15.4" lengthAdjust="spacing" textLength="101.2" x="741.4" y="652.2946">-Team team;</text><text fill="#000000" font-family="sans-serif" font-size="15.4" lengthAdjust="spacing" textLength="190.3" x="741.4" y="670.2212">-List&lt;Vehicle&gt; vehicles;</text><text fill="#000000" font-family="sans-serif" font-size="15.4" lengthAdjust="spacing" textLength="157.3" x="741.4" y="688.1478">-Data starting_Date;</text><text fill="#000000" font-family="sans-serif" font-size="15.4" lengthAdjust="spacing" textLength="207.9" x="741.4" y="706.0743">-Data expected_end_Date;</text><text fill="#000000" font-family="sans-serif" font-size="15.4" lengthAdjust="spacing" textLength="166.1" x="741.4" y="724.0009">-Data real_end_Date;</text><text fill="#000000" font-family="sans-serif" font-size="15.4" lengthAdjust="spacing" textLength="151.8" x="741.4" y="741.9274">-String responsible;</text><line style="stroke:#181818;stroke-width:0.55;" x1="735.9" x2="1236.4" y1="749.9594" y2="749.9594"/><text fill="#000000" font-family="sans-serif" font-size="15.4" lengthAdjust="spacing" textLength="467.5" x="741.4" y="768.654">+AgendaEntry(ToDoEntry agendaEntry, Data starting_Date)</text><text fill="#000000" font-family="sans-serif" font-size="15.4" lengthAdjust="spacing" textLength="292.6" x="741.4" y="786.5806">-setStarting_Date(Data starting_Date)</text><text fill="#000000" font-family="sans-serif" font-size="15.4" lengthAdjust="spacing" textLength="489.5" x="741.4" y="804.5071">-calculateEndDate(Data startingDate, ToDoEntry agendaEntry)</text></g><!--class enum_Status--><g id="elem_enum_Status"><rect codeLine="78" fill="#F1F1F1" height="124.5063" id="enum_Status" rx="2.75" ry="2.75" style="stroke:#181818;stroke-width:0.55;" width="136.4" x="509.85" y="380.6"/><ellipse cx="526.35" cy="398.2" fill="#ADD1B2" rx="12.1" ry="12.1" style="stroke:#181818;stroke-width:1.1;"/><path d="M529.6156,404.4047 Q528.9797,404.7313 528.275,404.8859 Q527.5703,405.0578 526.7969,405.0578 Q524.0469,405.0578 522.5859,403.2531 Q521.1422,401.4313 521.1422,397.9938 Q521.1422,394.5563 522.5859,392.7344 Q524.0469,390.9125 526.7969,390.9125 Q527.5703,390.9125 528.275,391.0844 Q528.9969,391.2563 529.6156,391.5828 L529.6156,394.5734 Q528.9281,393.9375 528.275,393.6453 Q527.6219,393.3359 526.9344,393.3359 Q525.4563,393.3359 524.7,394.5219 Q523.9438,395.6906 523.9438,397.9938 Q523.9438,400.2969 524.7,401.4828 Q525.4563,402.6516 526.9344,402.6516 Q527.6219,402.6516 528.275,402.3594 Q528.9281,402.05 529.6156,401.4141 L529.6156,404.4047 Z " fill="#000000"/><text fill="#000000" font-family="sans-serif" font-size="15.4" lengthAdjust="spacing" textLength="101.2" x="541.75" y="403.5313">enum_Status</text><line style="stroke:#181818;stroke-width:0.55;" x1="510.95" x2="645.15" y1="415.8" y2="415.8"/><text fill="#000000" font-family="sans-serif" font-size="15.4" lengthAdjust="spacing" textLength="72.6" x="516.45" y="434.4946">PLANNED</text><text fill="#000000" font-family="sans-serif" font-size="15.4" lengthAdjust="spacing" textLength="84.7" x="516.45" y="452.4212">CANCELED</text><text fill="#000000" font-family="sans-serif" font-size="15.4" lengthAdjust="spacing" textLength="45.1" x="516.45" y="470.3478">DONE</text><line style="stroke:#181818;stroke-width:0.55;" x1="510.95" x2="645.15" y1="478.3797" y2="478.3797"/><text fill="#000000" font-family="sans-serif" font-size="15.4" lengthAdjust="spacing" textLength="85.8" x="516.45" y="497.0743">+toString()</text></g><!--link AgendaUI to AgendaController--><g id="link_AgendaUI_AgendaController"><path codeLine="89" d="M118.943,69.85 C133.54,69.85 141.218,69.85 150.667,69.85 " fill="none" id="AgendaUI-to-AgendaController" style="stroke:#181818;stroke-width:1.1;stroke-dasharray:7.0,7.0;"/><polygon fill="#181818" points="157.267,69.85,147.367,65.45,151.767,69.85,147.367,74.25,157.267,69.85" style="stroke:#181818;stroke-width:1.1;"/></g><!--link AgendaController to AgendaMapper--><g id="link_AgendaController_AgendaMapper"><path codeLine="91" d="M355.014,132.022 C329.967,195.943 294.25,287.1 294.25,287.1 C294.25,287.1 273.8252,338.3563 255.9502,383.1923 " fill="none" id="AgendaController-to-AgendaMapper" style="stroke:#181818;stroke-width:1.1;stroke-dasharray:7.0,7.0;"/><polygon fill="#181818" points="253.506,389.323,261.2594,381.7563,255.5428,384.214,253.0851,378.4974,253.506,389.323" style="stroke:#181818;stroke-width:1.1;"/><text fill="#000000" font-family="sans-serif" font-size="14.3" lengthAdjust="spacing" textLength="145.2" x="321.75" y="256.9236">sendToDoEntryList()</text></g><!--reverse link AgendaController to AgendaMapper--><g id="link_AgendaController_AgendaMapper"><path codeLine="92" d="M259.0861,135.2521 C184.7371,175.1381 107.25,216.7 107.25,216.7 C107.25,216.7 107.25,287.1 107.25,287.1 C107.25,287.1 153.813,344.487 190.19,389.323 " fill="none" id="AgendaController-backto-AgendaMapper" style="stroke:#181818;stroke-width:1.1;stroke-dasharray:7.0,7.0;"/><polygon fill="#181818" points="264.902,132.132,254.098,132.9348,260.0554,134.7321,258.2581,140.6894,264.902,132.132" style="stroke:#181818;stroke-width:1.1;"/><text fill="#000000" font-family="sans-serif" font-size="14.3" lengthAdjust="spacing" textLength="176" x="108.35" y="256.9236">sendToDoEntryListDTO()</text></g><!--link AgendaMapper to AgendaEntryDTO--><g id="link_AgendaMapper_AgendaEntryDTO"><path codeLine="93" d="M255.035,496.177 C265.903,521.587 276.65,546.7 276.65,546.7 C276.65,546.7 276.65,565.4 276.65,565.4 C276.65,565.4 265.8585,599.5433 254.0665,636.8223 " fill="none" id="AgendaMapper-to-AgendaEntryDTO" style="stroke:#181818;stroke-width:1.1;stroke-dasharray:7.0,7.0;"/><polygon fill="#181818" points="252.076,643.115,259.2569,635.003,253.7347,637.8711,250.8666,632.349,252.076,643.115" style="stroke:#181818;stroke-width:1.1;"/></g><!--link AgendaEntryDTO to AgendaMapper--><g id="link_AgendaEntryDTO_AgendaMapper"><path codeLine="103" d="M199.133,643.115 C178.805,605.836 156.75,565.4 156.75,565.4 C156.75,565.4 156.75,546.7 156.75,546.7 C156.75,546.7 171.3671,526.8983 190.1111,501.4883 " fill="none" id="AgendaEntryDTO-to-AgendaMapper" style="stroke:#181818;stroke-width:1.1;stroke-dasharray:7.0,7.0;"/><polygon fill="#181818" points="194.029,496.177,184.6112,501.532,190.7641,500.6031,191.693,506.7559,194.029,496.177" style="stroke:#181818;stroke-width:1.1;"/><text fill="#000000" font-family="sans-serif" font-size="14.3" lengthAdjust="spacing" textLength="108.9" x="157.85" y="561.0736">returns Dto Obj</text></g><!--link Repositories to AuthenticationRepository--><g id="link_Repositories_AuthenticationRepository"><path codeLine="94" d="M873.95,132.341 C873.95,160.424 873.95,186.054 873.95,209.803 " fill="none" id="Repositories-to-AuthenticationRepository" style="stroke:#181818;stroke-width:1.1;"/><polygon fill="#181818" points="873.95,216.403,878.35,206.503,873.95,210.903,869.55,206.503,873.95,216.403" style="stroke:#181818;stroke-width:1.1;"/><text fill="#000000" font-family="sans-serif" font-size="14.3" lengthAdjust="spacing" textLength="60.5" x="875.05" y="179.3736">contains</text><text fill="#000000" font-family="sans-serif" font-size="14.3" lengthAdjust="spacing" textLength="8.8" x="864.6138" y="154.2325">1</text><text fill="#000000" font-family="sans-serif" font-size="14.3" lengthAdjust="spacing" textLength="8.8" x="864.2838" y="204.5461">1</text></g><!--link AuthenticationRepository to UserSession--><g id="link_AuthenticationRepository_UserSession"><path codeLine="95" d="M990.671,251.9 C1091.365,251.9 1226.511,251.9 1308.263,251.9 " fill="none" id="AuthenticationRepository-to-UserSession" style="stroke:#181818;stroke-width:1.1;"/><polygon fill="#181818" points="1314.863,251.9,1304.963,247.5,1309.363,251.9,1304.963,256.3,1314.863,251.9" style="stroke:#181818;stroke-width:1.1;"/><text fill="#000000" font-family="sans-serif" font-size="14.3" lengthAdjust="spacing" textLength="60.5" x="1122.55" y="244.2736">contains</text></g><!--link UserSession to Email--><g id="link_UserSession_Email"><path codeLine="96" d="M1379.95,287.166 C1379.95,321.244 1379.95,366.718 1379.95,400.818 " fill="none" id="UserSession-to-Email" style="stroke:#181818;stroke-width:1.1;"/><polygon fill="#181818" points="1379.95,407.418,1384.35,397.518,1379.95,401.918,1375.55,397.518,1379.95,407.418" style="stroke:#181818;stroke-width:1.1;"/><text fill="#000000" font-family="sans-serif" font-size="14.3" lengthAdjust="spacing" textLength="60.5" x="1381.05" y="334.4736">contains</text><text fill="#000000" font-family="sans-serif" font-size="14.3" lengthAdjust="spacing" textLength="8.8" x="1370.2425" y="309.3961">1</text><text fill="#000000" font-family="sans-serif" font-size="14.3" lengthAdjust="spacing" textLength="7.7" x="1371.4559" y="395.1842">*</text></g><!--link AgendaController to Repositories--><g id="link_AgendaController_Repositories"><path codeLine="97" d="M600.754,69.85 C649.495,69.85 692.978,69.85 736.736,69.85 " fill="none" id="AgendaController-to-Repositories" style="stroke:#181818;stroke-width:1.1;stroke-dasharray:7.0,7.0;"/><polygon fill="#181818" points="743.336,69.85,733.436,65.45,737.836,69.85,733.436,74.25,743.336,69.85" style="stroke:#181818;stroke-width:1.1;"/><text fill="#000000" font-family="sans-serif" font-size="14.3" lengthAdjust="spacing" textLength="84.7" x="629.75" y="62.2236">repositories</text></g><!--link Repositories to AgendaRepository--><g id="link_Repositories_AgendaRepository"><path codeLine="98" d="M931.403,132.341 C968.682,172.172 1010.35,216.7 1010.35,216.7 C1010.35,216.7 1010.35,287.1 1010.35,287.1 C1010.35,287.1 1004.5397,324.1944 998.1377,365.0924 " fill="none" id="Repositories-to-AgendaRepository" style="stroke:#181818;stroke-width:1.1;"/><polygon fill="#181818" points="997.117,371.613,1002.9951,362.5126,997.9676,366.1792,994.301,361.1516,997.117,371.613" style="stroke:#181818;stroke-width:1.1;"/><text fill="#000000" font-family="sans-serif" font-size="14.3" lengthAdjust="spacing" textLength="8.8" x="984.3946" y="359.6825">1</text></g><!--link Repositories to Repositories--><g id="link_Repositories_Repositories"><path codeLine="99" d="M1004.575,51.711 C1027.136,54.164 1042.8,60.203 1042.8,69.85 C1042.8,79.497 1033.6973,84.8226 1011.1363,87.2756 " fill="none" id="Repositories-to-Repositories" style="stroke:#181818;stroke-width:1.1;"/><polygon fill="#181818" points="1004.575,87.989,1014.8926,91.2931,1010.0428,87.3945,1013.9414,82.5447,1004.575,87.989" style="stroke:#181818;stroke-width:1.1;"/><text fill="#000000" font-family="sans-serif" font-size="14.3" lengthAdjust="spacing" textLength="60.5" x="1049.4" y="74.8736">instance</text></g><!--link AgendaController to AgendaRepository--><g id="link_AgendaController_AgendaRepository"><path codeLine="100" d="M443.289,132.022 C510.62,195.943 606.65,287.1 606.65,287.1 C606.65,287.1 707.8424,328.3138 808.3274,369.2338 " fill="none" id="AgendaController-to-AgendaRepository" style="stroke:#181818;stroke-width:1.1;stroke-dasharray:7.0,7.0;"/><polygon fill="#181818" points="814.44,371.723,806.9306,363.9141,809.3462,369.6487,803.6116,372.0643,814.44,371.723" style="stroke:#181818;stroke-width:1.1;"/><text fill="#000000" font-family="sans-serif" font-size="14.3" lengthAdjust="spacing" textLength="129.8" x="607.75" y="256.9236">agendaRepository</text></g><!--link AgendaRepository to AgendaEntry--><g id="link_AgendaRepository_AgendaEntry"><path codeLine="102" d="M986.15,513.711 C986.15,539.66 986.15,563.101 986.15,591.569 " fill="none" id="AgendaRepository-to-AgendaEntry" style="stroke:#181818;stroke-width:1.1;"/><polygon fill="#181818" points="986.15,598.169,990.55,588.269,986.15,592.669,981.75,588.269,986.15,598.169" style="stroke:#181818;stroke-width:1.1;"/><text fill="#000000" font-family="sans-serif" font-size="14.3" lengthAdjust="spacing" textLength="60.5" x="987.25" y="561.0736">contains</text></g><!--link enum_Status to AgendaRepository--><g id="link_enum_Status_AgendaRepository"><path codeLine="104" d="M646.47,442.75 C659.835,442.75 673.178,442.75 684.431,442.75 " fill="none" id="enum_Status-AgendaRepository" style="stroke:#181818;stroke-width:1.1;"/></g><!--SRC=[bLPHRzem47xthx1u0KQ3jbTM8J5W4b97gqBtMhd95JoC7TbEjspgVzyvSO9JmwhnKF1ttvtFTv_FxPi3bpdJx4YFIgfqhzKHgDK5a9CbP-c1xM1ZIm5KGsgPt8cGOFOiKp-vtD5d9ane4Lo2BNEWkHAbMv3-6QFILWLEgM36pApL_Acmi4gLtF3VG3-Ile1dIwsYck_sbcRS9SEL9AHoeRCTo8mzhEWVyagwu5n9gvKGeD58yPDumptaod2hT4dP6w3YZQ80Ww4Fi0DRspmombCQcoi9MsOE0owj3-cMgyKLNJ3BMWukO4WmqJhDTbiEfaqn1DjDSDkLDDY450P3EkcGJfGtcJcai7kGbgVCrUnqJEIyjiMwmF4PLN7cXTR8UJ2WDs0Cyi880HmwENYLXSJbaN4HKYgWPdHx5wMHt71ZhslZ4jjIJdsXtU9KXKutjcgXAcv0BNrBi9ZQedmVwvwywQuF-bNfUp0Op_0d0OCDWYXuVO82HxVZbxAYr-nO2vUEuEoc2VN21C_k0i4C0WzgaNfML5K5EoNynlAyblue19myHdYX5bODtgafCXFF37C8YXdAw8GkjhVT2rVxgQSV6AfpmnhwvVYjL6uhxqRS28IT6KQNlmvLfq6JBU2CiVZdimUgat-7FKy5JEbB_SCqrbWX7Glyod48GVQ86yLM3Kn4bbWwtjAfnFyg5Wjim6v2m-0Vt9I9j128B6KMSnroHSzc4BGPP75yn1rjqOoikvlPUhrSLB_di_LyUUCNYzlrqlVFghe0pLKdf9tRusaqRKcVH1DytFAyhYTuT9crwRg6OlJ8xtey7h_hw1JO-7hMQRz6ewGphdkVUZH9fjNtnGaweVYGMSQb8HSv62ESdu5B2BVRVUZvAHh6ZeerxRuj4nHUy61qRFuKj1TDtYulYM9o_oATQnPc44_oIVpSzYEIIoSAE74Jm5_N-HxImqFUQVXP_rh6KPsQVfwJb0PRQ6aeJXgA0uU4Qe__Uo1_0G00]--></g></svg>