<?xml version="1.0" encoding="us-ascii" standalone="no"?><svg xmlns="http://www.w3.org/2000/svg" xmlns:xlink="http://www.w3.org/1999/xlink" contentStyleType="text/css" height="620px" preserveAspectRatio="none" style="width:1079px;height:620px;background:#FFFFFF;" version="1.1" viewBox="0 0 1079 620" width="1079px" zoomAndPan="magnify"><defs/><g><rect fill="#FFFFFF" height="496.8438" style="stroke:#181818;stroke-width:1.0;" width="10" x="87.5" y="62.5938"/><rect fill="#FFFFFF" height="427.5781" style="stroke:#181818;stroke-width:1.0;" width="10" x="92.5" y="115.8594"/><rect fill="#FFFFFF" height="335.8516" style="stroke:#181818;stroke-width:1.0;" width="10" x="438.5" y="207.5859"/><rect fill="#FFFFFF" height="34.1328" style="stroke:#181818;stroke-width:1.0;" width="10" x="443.5" y="385.5781"/><rect fill="#FFFFFF" height="30" style="stroke:#181818;stroke-width:1.0;" width="10" x="632.5" y="477.3047"/><rect fill="#FFFFFF" height="30" style="stroke:#181818;stroke-width:1.0;" width="10" x="969" y="318.4453"/><rect fill="none" height="481.8438" style="stroke:#000000;stroke-width:1.5;" width="1063.5" x="10" y="69.5938"/><rect fill="none" height="235.125" style="stroke:#000000;stroke-width:1.5;" width="694" x="369.5" y="280.1797"/><line style="stroke:#181818;stroke-width:0.5;stroke-dasharray:5.0,5.0;" x1="92" x2="92" y1="52.5938" y2="568.4375"/><line style="stroke:#181818;stroke-width:0.5;stroke-dasharray:5.0,5.0;" x1="443.5" x2="443.5" y1="167.6563" y2="568.4375"/><line style="stroke:#181818;stroke-width:0.5;stroke-dasharray:5.0,5.0;" x1="637.5" x2="637.5" y1="254.3828" y2="568.4375"/><line style="stroke:#181818;stroke-width:0.5;stroke-dasharray:5.0,5.0;" x1="814.5" x2="814.5" y1="437.375" y2="568.4375"/><line style="stroke:#181818;stroke-width:0.5;stroke-dasharray:5.0,5.0;" x1="973.5" x2="973.5" y1="52.5938" y2="568.4375"/><rect fill="#E3E3E3" height="30.2969" rx="2.5" ry="2.5" style="stroke:#181818;stroke-width:0.5;" width="145" x="20" y="21.2969"/><text fill="#000000" font-family="sans-serif" font-size="14" lengthAdjust="spacing" textLength="131" x="27" y="41.292">:AgendaController</text><rect fill="#E3E3E3" height="30.2969" rx="2.5" ry="2.5" style="stroke:#181818;stroke-width:0.5;" width="145" x="20" y="567.4375"/><text fill="#000000" font-family="sans-serif" font-size="14" lengthAdjust="spacing" textLength="131" x="27" y="587.4326">:AgendaController</text><rect fill="#E3E3E3" height="46.5938" rx="2.5" ry="2.5" style="stroke:#181818;stroke-width:0.5;" width="128" x="379.5" y="567.4375"/><text fill="#000000" font-family="sans-serif" font-size="14" lengthAdjust="spacing" textLength="108" x="389.5" y="587.4326">agendaMapper</text><text fill="#000000" font-family="sans-serif" font-size="14" lengthAdjust="spacing" textLength="114" x="386.5" y="603.7295">:AgendaMapper</text><rect fill="#E3E3E3" height="46.5938" rx="2.5" ry="2.5" style="stroke:#181818;stroke-width:0.5;" width="194" x="540.5" y="567.4375"/><text fill="#000000" font-family="sans-serif" font-size="14" lengthAdjust="spacing" textLength="143" x="566" y="587.4326">listAgendaEntryDTO</text><text fill="#000000" font-family="sans-serif" font-size="14" lengthAdjust="spacing" textLength="180" x="547.5" y="603.7295">: List&lt;AgendaEntryDTO&gt;</text><rect fill="#E3E3E3" height="46.5938" rx="2.5" ry="2.5" style="stroke:#181818;stroke-width:0.5;" width="140" x="744.5" y="567.4375"/><text fill="#000000" font-family="sans-serif" font-size="14" lengthAdjust="spacing" textLength="47" x="791" y="587.4326">objDto</text><text fill="#000000" font-family="sans-serif" font-size="14" lengthAdjust="spacing" textLength="126" x="751.5" y="603.7295">: AgendaEntryDto</text><rect fill="#E3E3E3" height="46.5938" rx="2.5" ry="2.5" style="stroke:#181818;stroke-width:0.5;" width="159" x="894.5" y="5"/><text fill="#000000" font-family="sans-serif" font-size="14" lengthAdjust="spacing" textLength="112" x="918" y="24.9951">listAgendaEntry</text><text fill="#000000" font-family="sans-serif" font-size="14" lengthAdjust="spacing" textLength="145" x="901.5" y="41.292">:List&lt;AgendaEntry&gt;</text><rect fill="#E3E3E3" height="46.5938" rx="2.5" ry="2.5" style="stroke:#181818;stroke-width:0.5;" width="159" x="894.5" y="567.4375"/><text fill="#000000" font-family="sans-serif" font-size="14" lengthAdjust="spacing" textLength="112" x="918" y="587.4326">listAgendaEntry</text><text fill="#000000" font-family="sans-serif" font-size="14" lengthAdjust="spacing" textLength="145" x="901.5" y="603.7295">:List&lt;AgendaEntry&gt;</text><rect fill="#FFFFFF" height="496.8438" style="stroke:#181818;stroke-width:1.0;" width="10" x="87.5" y="62.5938"/><rect fill="#FFFFFF" height="427.5781" style="stroke:#181818;stroke-width:1.0;" width="10" x="92.5" y="115.8594"/><rect fill="#FFFFFF" height="335.8516" style="stroke:#181818;stroke-width:1.0;" width="10" x="438.5" y="207.5859"/><rect fill="#FFFFFF" height="34.1328" style="stroke:#181818;stroke-width:1.0;" width="10" x="443.5" y="385.5781"/><rect fill="#FFFFFF" height="30" style="stroke:#181818;stroke-width:1.0;" width="10" x="632.5" y="477.3047"/><rect fill="#FFFFFF" height="30" style="stroke:#181818;stroke-width:1.0;" width="10" x="969" y="318.4453"/><path d="M10,69.5938 L327,69.5938 L327,76.7266 L317,86.7266 L10,86.7266 L10,69.5938 " fill="#EEEEEE" style="stroke:#000000;stroke-width:1.5;"/><rect fill="none" height="481.8438" style="stroke:#000000;stroke-width:1.5;" width="1063.5" x="10" y="69.5938"/><text fill="#000000" font-family="sans-serif" font-size="13" font-weight="bold" lengthAdjust="spacing" textLength="272" x="25" y="82.6606">Get Agenda List DTO for Responsible</text><line style="stroke:#181818;stroke-width:1.0;" x1="97.5" x2="144.5" y1="102.8594" y2="102.8594"/><line style="stroke:#181818;stroke-width:1.0;" x1="144.5" x2="144.5" y1="102.8594" y2="115.8594"/><line style="stroke:#181818;stroke-width:1.0;" x1="103.5" x2="144.5" y1="115.8594" y2="115.8594"/><polygon fill="#181818" points="113.5,111.8594,103.5,115.8594,113.5,119.8594,109.5,115.8594" style="stroke:#181818;stroke-width:1.0;"/><text fill="#000000" font-family="sans-serif" font-size="13" font-weight="bold" lengthAdjust="spacing" textLength="23" x="109.5" y="97.7935">3.1</text><text fill="#000000" font-family="sans-serif" font-size="13" lengthAdjust="spacing" textLength="207" x="136.5" y="97.7935">getAgendaDTOForResponsible()</text><polygon fill="#181818" points="367.5,145.9922,377.5,149.9922,367.5,153.9922,371.5,149.9922" style="stroke:#181818;stroke-width:1.0;"/><line style="stroke:#181818;stroke-width:1.0;" x1="102.5" x2="373.5" y1="149.9922" y2="149.9922"/><text fill="#000000" font-family="sans-serif" font-size="13" font-weight="bold" lengthAdjust="spacing" textLength="23" x="109.5" y="144.9263">3.2</text><text fill="#000000" font-family="sans-serif" font-size="13" lengthAdjust="spacing" textLength="41" x="136.5" y="144.9263">create</text><rect fill="#E3E3E3" height="46.5938" rx="2.5" ry="2.5" style="stroke:#181818;stroke-width:0.5;" width="128" x="379.5" y="128.8594"/><text fill="#000000" font-family="sans-serif" font-size="14" lengthAdjust="spacing" textLength="108" x="389.5" y="148.8545">agendaMapper</text><text fill="#000000" font-family="sans-serif" font-size="14" lengthAdjust="spacing" textLength="114" x="386.5" y="165.1514">:AgendaMapper</text><polygon fill="#181818" points="426.5,203.5859,436.5,207.5859,426.5,211.5859,430.5,207.5859" style="stroke:#181818;stroke-width:1.0;"/><line style="stroke:#181818;stroke-width:1.0;" x1="102.5" x2="432.5" y1="207.5859" y2="207.5859"/><text fill="#000000" font-family="sans-serif" font-size="13" font-weight="bold" lengthAdjust="spacing" textLength="23" x="109.5" y="202.52">3.3</text><text fill="#000000" font-family="sans-serif" font-size="13" lengthAdjust="spacing" textLength="290" x="136.5" y="202.52">toDto( getAgendaEntryListForResponsible() )</text><polygon fill="#181818" points="528.5,232.7188,538.5,236.7188,528.5,240.7188,532.5,236.7188" style="stroke:#181818;stroke-width:1.0;"/><line style="stroke:#181818;stroke-width:1.0;" x1="448.5" x2="534.5" y1="236.7188" y2="236.7188"/><text fill="#000000" font-family="sans-serif" font-size="13" font-weight="bold" lengthAdjust="spacing" textLength="23" x="455.5" y="231.6528">3.4</text><text fill="#000000" font-family="sans-serif" font-size="13" lengthAdjust="spacing" textLength="41" x="482.5" y="231.6528">create</text><rect fill="#E3E3E3" height="46.5938" rx="2.5" ry="2.5" style="stroke:#181818;stroke-width:0.5;" width="194" x="540.5" y="215.5859"/><text fill="#000000" font-family="sans-serif" font-size="14" lengthAdjust="spacing" textLength="143" x="566" y="235.5811">listAgendaEntryDTO</text><text fill="#000000" font-family="sans-serif" font-size="14" lengthAdjust="spacing" textLength="180" x="547.5" y="251.8779">: List&lt;AgendaEntryDTO&gt;</text><path d="M369.5,280.1797 L450.5,280.1797 L450.5,287.3125 L440.5,297.3125 L369.5,297.3125 L369.5,280.1797 " fill="#EEEEEE" style="stroke:#000000;stroke-width:1.5;"/><rect fill="none" height="235.125" style="stroke:#000000;stroke-width:1.5;" width="694" x="369.5" y="280.1797"/><text fill="#000000" font-family="sans-serif" font-size="13" font-weight="bold" lengthAdjust="spacing" textLength="31" x="384.5" y="293.2466">loop</text><text fill="#000000" font-family="sans-serif" font-size="11" font-weight="bold" lengthAdjust="spacing" textLength="210" x="465.5" y="292.3901">[for each object in listToDoEntry]</text><polygon fill="#181818" points="957,314.4453,967,318.4453,957,322.4453,961,318.4453" style="stroke:#181818;stroke-width:1.0;"/><line style="stroke:#181818;stroke-width:1.0;" x1="448.5" x2="963" y1="318.4453" y2="318.4453"/><text fill="#000000" font-family="sans-serif" font-size="13" font-weight="bold" lengthAdjust="spacing" textLength="23" x="455.5" y="313.3794">3.5</text><text fill="#000000" font-family="sans-serif" font-size="13" lengthAdjust="spacing" textLength="74" x="482.5" y="313.3794">obj = get(i)</text><line style="stroke:#181818;stroke-width:1.0;" x1="448.5" x2="495.5" y1="372.5781" y2="372.5781"/><line style="stroke:#181818;stroke-width:1.0;" x1="495.5" x2="495.5" y1="372.5781" y2="385.5781"/><line style="stroke:#181818;stroke-width:1.0;" x1="454.5" x2="495.5" y1="385.5781" y2="385.5781"/><polygon fill="#181818" points="464.5,381.5781,454.5,385.5781,464.5,389.5781,460.5,385.5781" style="stroke:#181818;stroke-width:1.0;"/><text fill="#000000" font-family="sans-serif" font-size="13" font-weight="bold" lengthAdjust="spacing" textLength="23" x="460.5" y="367.5122">3.6</text><text fill="#000000" font-family="sans-serif" font-size="13" lengthAdjust="spacing" textLength="133" x="487.5" y="367.5122">objDto = toDTO(obj)</text><polygon fill="#181818" points="732.5,415.7109,742.5,419.7109,732.5,423.7109,736.5,419.7109" style="stroke:#181818;stroke-width:1.0;"/><line style="stroke:#181818;stroke-width:1.0;stroke-dasharray:2.0,2.0;" x1="448.5" x2="738.5" y1="419.7109" y2="419.7109"/><text fill="#000000" font-family="sans-serif" font-size="13" font-weight="bold" lengthAdjust="spacing" textLength="23" x="455.5" y="414.645">3.7</text><text fill="#000000" font-family="sans-serif" font-size="13" lengthAdjust="spacing" textLength="71" x="482.5" y="414.645">create(obj)</text><rect fill="#E3E3E3" height="46.5938" rx="2.5" ry="2.5" style="stroke:#181818;stroke-width:0.5;" width="140" x="744.5" y="398.5781"/><text fill="#000000" font-family="sans-serif" font-size="14" lengthAdjust="spacing" textLength="47" x="791" y="418.5732">objDto</text><text fill="#000000" font-family="sans-serif" font-size="14" lengthAdjust="spacing" textLength="126" x="751.5" y="434.8701">: AgendaEntryDto</text><polygon fill="#181818" points="620.5,473.3047,630.5,477.3047,620.5,481.3047,624.5,477.3047" style="stroke:#181818;stroke-width:1.0;"/><line style="stroke:#181818;stroke-width:1.0;" x1="448.5" x2="626.5" y1="477.3047" y2="477.3047"/><text fill="#000000" font-family="sans-serif" font-size="13" font-weight="bold" lengthAdjust="spacing" textLength="23" x="455.5" y="472.2388">3.8</text><text fill="#000000" font-family="sans-serif" font-size="13" lengthAdjust="spacing" textLength="77" x="482.5" y="472.2388">add(objDto)</text><polygon fill="#181818" points="108.5,539.4375,98.5,543.4375,108.5,547.4375,104.5,543.4375" style="stroke:#181818;stroke-width:1.0;"/><line style="stroke:#181818;stroke-width:1.0;stroke-dasharray:2.0,2.0;" x1="102.5" x2="442.5" y1="543.4375" y2="543.4375"/><text fill="#000000" font-family="sans-serif" font-size="13" font-weight="bold" lengthAdjust="spacing" textLength="23" x="114.5" y="538.3716">3.9</text><text fill="#000000" font-family="sans-serif" font-size="13" lengthAdjust="spacing" textLength="126" x="141.5" y="538.3716">listAgendaEntryDto</text><!--SRC=[ZLJBJiCm4BpxArQza5O22N515LH25BY0aA0tuB1DjgaXyKQEo-FlMSTHcZHzvT8wdjcPdRLJVcbJeCKSSZOSBotd1CwkI9NDJe7n5wRqwluo0aknGvDcRK2vn8H_j4bXWLb9Ik7AiLdbSx9AdInrGh1WTdF-LKe9nUbO5sWS3COtAPa4Rzauorb6TW1OmktivR6BmmhsX4L1zjtKhB2i67drjyl9TEa2y4wg_qrdpyA4HtbxrNqzgKfuk2owDNZ-ENNiUMsAuueHDlUA2dDJSAqsuochTbXmsLbTd9qhmDZfRtGKGW5vKikh0Xx8rPwgba2iIyWMNgWis9HwBXE2rkFfS3e9lsD8gROfl7ksBLOq3BokSATMkrv8VZIIch4bmHz02iwnn1QjBLIn-2OsZS2mLwnnLK-y1_1FhIIQzL3tsLj7cZ4NyEP398oNVhnora6RPbYLqO-j5VgodZ3sHU3QjnhfuKvYqrHpAdOX4-fZZ_3JH1-Eh3YI6SoU8raUuMfVr9jQ8XOqMf7lbscrT4YeDrUHm2I9WkAH-VexVcIykw1oQDM14EfhjlaDSltHzllVljdSVw_-3m00]--></g></svg>