<?xml version="1.0" encoding="us-ascii" standalone="no"?><svg xmlns="http://www.w3.org/2000/svg" xmlns:xlink="http://www.w3.org/1999/xlink" contentStyleType="text/css" height="399px" preserveAspectRatio="none" style="width:1119px;height:399px;background:#FFFFFF;" version="1.1" viewBox="0 0 1119 399" width="1119px" zoomAndPan="magnify"><defs/><g><rect fill="#FFFFFF" height="275.9297" style="stroke:#181818;stroke-width:1.0;" width="10" x="87.5" y="62.5938"/><rect fill="#FFFFFF" height="230.6641" style="stroke:#181818;stroke-width:1.0;" width="10" x="492.5" y="107.8594"/><rect fill="#FFFFFF" height="28" style="stroke:#181818;stroke-width:1.0;" width="10" x="497.5" y="174.125"/><rect fill="#FFFFFF" height="201.5313" style="stroke:#181818;stroke-width:1.0;" width="10" x="767.5" y="136.9922"/><rect fill="#FFFFFF" height="40.1328" style="stroke:#181818;stroke-width:1.0;" width="10" x="772.5" y="246.2578"/><rect fill="none" height="260.9297" style="stroke:#000000;stroke-width:1.5;" width="1028.5" x="10" y="69.5938"/><line style="stroke:#181818;stroke-width:0.5;stroke-dasharray:5.0,5.0;" x1="92" x2="92" y1="52.5938" y2="347.5234"/><line style="stroke:#181818;stroke-width:0.5;stroke-dasharray:5.0,5.0;" x1="497.5" x2="497.5" y1="52.5938" y2="347.5234"/><line style="stroke:#181818;stroke-width:0.5;stroke-dasharray:5.0,5.0;" x1="772" x2="772" y1="52.5938" y2="347.5234"/><line style="stroke:#181818;stroke-width:0.5;stroke-dasharray:5.0,5.0;" x1="1033" x2="1033" y1="52.5938" y2="347.5234"/><rect fill="#E3E3E3" height="30.2969" rx="2.5" ry="2.5" style="stroke:#181818;stroke-width:0.5;" width="145" x="20" y="21.2969"/><text fill="#000000" font-family="sans-serif" font-size="14" lengthAdjust="spacing" textLength="131" x="27" y="41.292">:AgendaController</text><rect fill="#E3E3E3" height="30.2969" rx="2.5" ry="2.5" style="stroke:#181818;stroke-width:0.5;" width="145" x="20" y="346.5234"/><text fill="#000000" font-family="sans-serif" font-size="14" lengthAdjust="spacing" textLength="131" x="27" y="366.5186">:AgendaController</text><rect fill="#E3E3E3" height="46.5938" rx="2.5" ry="2.5" style="stroke:#181818;stroke-width:0.5;" width="150" x="422.5" y="5"/><text fill="#000000" font-family="sans-serif" font-size="14" lengthAdjust="spacing" textLength="130" x="432.5" y="24.9951">agendaRepository</text><text fill="#000000" font-family="sans-serif" font-size="14" lengthAdjust="spacing" textLength="136" x="429.5" y="41.292">:AgendaRepository</text><rect fill="#E3E3E3" height="46.5938" rx="2.5" ry="2.5" style="stroke:#181818;stroke-width:0.5;" width="150" x="422.5" y="346.5234"/><text fill="#000000" font-family="sans-serif" font-size="14" lengthAdjust="spacing" textLength="130" x="432.5" y="366.5186">agendaRepository</text><text fill="#000000" font-family="sans-serif" font-size="14" lengthAdjust="spacing" textLength="136" x="429.5" y="382.8154">:AgendaRepository</text><rect fill="#E3E3E3" height="46.5938" rx="2.5" ry="2.5" style="stroke:#181818;stroke-width:0.5;" width="123" x="711" y="5"/><text fill="#000000" font-family="sans-serif" font-size="14" lengthAdjust="spacing" textLength="91" x="725" y="24.9951">agendaEntry</text><text fill="#000000" font-family="sans-serif" font-size="14" lengthAdjust="spacing" textLength="109" x="718" y="41.292">:AgendaEntry&gt;</text><rect fill="#E3E3E3" height="46.5938" rx="2.5" ry="2.5" style="stroke:#181818;stroke-width:0.5;" width="123" x="711" y="346.5234"/><text fill="#000000" font-family="sans-serif" font-size="14" lengthAdjust="spacing" textLength="91" x="725" y="366.5186">agendaEntry</text><text fill="#000000" font-family="sans-serif" font-size="14" lengthAdjust="spacing" textLength="109" x="718" y="382.8154">:AgendaEntry&gt;</text><rect fill="#E3E3E3" height="46.5938" rx="2.5" ry="2.5" style="stroke:#181818;stroke-width:0.5;" width="159" x="954" y="5"/><text fill="#000000" font-family="sans-serif" font-size="14" lengthAdjust="spacing" textLength="112" x="977.5" y="24.9951">listAgendaEntry</text><text fill="#000000" font-family="sans-serif" font-size="14" lengthAdjust="spacing" textLength="145" x="961" y="41.292">:List&lt;AgendaEntry&gt;</text><rect fill="#E3E3E3" height="46.5938" rx="2.5" ry="2.5" style="stroke:#181818;stroke-width:0.5;" width="159" x="954" y="346.5234"/><text fill="#000000" font-family="sans-serif" font-size="14" lengthAdjust="spacing" textLength="112" x="977.5" y="366.5186">listAgendaEntry</text><text fill="#000000" font-family="sans-serif" font-size="14" lengthAdjust="spacing" textLength="145" x="961" y="382.8154">:List&lt;AgendaEntry&gt;</text><rect fill="#FFFFFF" height="275.9297" style="stroke:#181818;stroke-width:1.0;" width="10" x="87.5" y="62.5938"/><rect fill="#FFFFFF" height="230.6641" style="stroke:#181818;stroke-width:1.0;" width="10" x="492.5" y="107.8594"/><rect fill="#FFFFFF" height="28" style="stroke:#181818;stroke-width:1.0;" width="10" x="497.5" y="174.125"/><rect fill="#FFFFFF" height="201.5313" style="stroke:#181818;stroke-width:1.0;" width="10" x="767.5" y="136.9922"/><rect fill="#FFFFFF" height="40.1328" style="stroke:#181818;stroke-width:1.0;" width="10" x="772.5" y="246.2578"/><path d="M10,69.5938 L161,69.5938 L161,76.7266 L151,86.7266 L10,86.7266 L10,69.5938 " fill="#EEEEEE" style="stroke:#000000;stroke-width:1.5;"/><rect fill="none" height="260.9297" style="stroke:#000000;stroke-width:1.5;" width="1028.5" x="10" y="69.5938"/><text fill="#000000" font-family="sans-serif" font-size="13" font-weight="bold" lengthAdjust="spacing" textLength="106" x="25" y="82.6606">Postpone task</text><polygon fill="#181818" points="480.5,103.8594,490.5,107.8594,480.5,111.8594,484.5,107.8594" style="stroke:#181818;stroke-width:1.0;"/><line style="stroke:#181818;stroke-width:1.0;" x1="97.5" x2="486.5" y1="107.8594" y2="107.8594"/><text fill="#000000" font-family="sans-serif" font-size="13" font-weight="bold" lengthAdjust="spacing" textLength="23" x="104.5" y="102.7935">3.1</text><text fill="#000000" font-family="sans-serif" font-size="13" lengthAdjust="spacing" textLength="349" x="131.5" y="102.7935">postponeTask(int agendaTaskID, Data postponeDate)</text><polygon fill="#181818" points="755.5,132.9922,765.5,136.9922,755.5,140.9922,759.5,136.9922" style="stroke:#181818;stroke-width:1.0;"/><line style="stroke:#181818;stroke-width:1.0;" x1="502.5" x2="761.5" y1="136.9922" y2="136.9922"/><text fill="#000000" font-family="sans-serif" font-size="13" font-weight="bold" lengthAdjust="spacing" textLength="23" x="509.5" y="131.9263">3.2</text><text fill="#000000" font-family="sans-serif" font-size="13" lengthAdjust="spacing" textLength="210" x="536.5" y="131.9263">setStarting_Date(postponeDate)</text><line style="stroke:#181818;stroke-width:1.0;" x1="507.5" x2="549.5" y1="166.125" y2="166.125"/><line style="stroke:#181818;stroke-width:1.0;" x1="549.5" x2="549.5" y1="166.125" y2="179.125"/><line style="stroke:#181818;stroke-width:1.0;" x1="508.5" x2="549.5" y1="179.125" y2="179.125"/><polygon fill="#181818" points="518.5,175.125,508.5,179.125,518.5,183.125,514.5,179.125" style="stroke:#181818;stroke-width:1.0;"/><text fill="#000000" font-family="sans-serif" font-size="13" font-weight="bold" lengthAdjust="spacing" textLength="23" x="514.5" y="161.0591">3.3</text><text fill="#000000" font-family="sans-serif" font-size="13" lengthAdjust="spacing" textLength="224" x="541.5" y="161.0591">validPostponeDate(postponeDate)</text><line style="stroke:#181818;stroke-width:1.0;" x1="777.5" x2="824.5" y1="233.2578" y2="233.2578"/><line style="stroke:#181818;stroke-width:1.0;" x1="824.5" x2="824.5" y1="233.2578" y2="246.2578"/><line style="stroke:#181818;stroke-width:1.0;" x1="783.5" x2="824.5" y1="246.2578" y2="246.2578"/><polygon fill="#181818" points="793.5,242.2578,783.5,246.2578,793.5,250.2578,789.5,246.2578" style="stroke:#181818;stroke-width:1.0;"/><text fill="#000000" font-family="sans-serif" font-size="13" font-weight="bold" lengthAdjust="spacing" textLength="23" x="789.5" y="228.1919">3.4</text><text fill="#000000" font-family="sans-serif" font-size="13" lengthAdjust="spacing" textLength="210" x="816.5" y="228.1919">setStarting_Date(postponeDate)</text><line style="stroke:#181818;stroke-width:1.0;" x1="782.5" x2="824.5" y1="285.3906" y2="285.3906"/><line style="stroke:#181818;stroke-width:1.0;" x1="824.5" x2="824.5" y1="285.3906" y2="298.3906"/><line style="stroke:#181818;stroke-width:1.0;" x1="777.5" x2="824.5" y1="298.3906" y2="298.3906"/><polygon fill="#181818" points="787.5,294.3906,777.5,298.3906,787.5,302.3906,783.5,298.3906" style="stroke:#181818;stroke-width:1.0;"/><text fill="#000000" font-family="sans-serif" font-size="13" font-weight="bold" lengthAdjust="spacing" textLength="23" x="789.5" y="280.3247">3.5</text><text fill="#000000" font-family="sans-serif" font-size="13" lengthAdjust="spacing" textLength="124" x="816.5" y="280.3247">calculateEndDate()</text><polygon fill="#181818" points="108.5,318.5234,98.5,322.5234,108.5,326.5234,104.5,322.5234" style="stroke:#181818;stroke-width:1.0;"/><line style="stroke:#181818;stroke-width:1.0;stroke-dasharray:2.0,2.0;" x1="102.5" x2="491.5" y1="322.5234" y2="322.5234"/><text fill="#000000" font-family="sans-serif" font-size="13" font-weight="bold" lengthAdjust="spacing" textLength="23" x="114.5" y="317.4575">3.6</text><text fill="#000000" font-family="sans-serif" font-size="13" lengthAdjust="spacing" textLength="26" x="141.5" y="317.4575">true</text><!--SRC=[ZLF1QW8n4BtdAmOlLMWBfPUo5A6eXu87KO-5CkwEQp2RMPAihN_V92jh5XKxjvbvxsNUOzVkfQxHO0KLQyvtXYi2PneIjjlKcE-nf9KxAW93kKDTgXHWTrZmZzGbR55P4W8RnxgfDcI4UDZ9Wc3Bx3RyAuJm52TpMQDsCCW-Ij85JbWxmqgH6G1QcAoNypuE8sn9DLlfs1o_z8bv7aNc6NUDF_El7A7ZndOSUQKXqdsAajObEC-Q-ydx1JNWrZnbRqq0vauUq55huHm3lAMXmElpYm1VfU6cXWLRLxFskQFTUvN0XQTnOYQ3-eHPUyXG-llQPMW_fuymHOSTnZSqYlhTEKakSH6NtImy5XE0p99RkH23Bh-3pl1Ij2VS1WT9zMMJBeC3Abai4i4RwdTF3rNGLKWFqvewkuD_shjZyQfqZYflb2VCT16bHpVlRHN5pTYyQlW6ilP735k_4ty0]--></g></svg>