<?xml version="1.0" encoding="us-ascii" standalone="no"?><svg xmlns="http://www.w3.org/2000/svg" xmlns:xlink="http://www.w3.org/1999/xlink" contentStyleType="text/css" height="912px" preserveAspectRatio="none" style="width:888px;height:912px;background:#FFFFFF;" version="1.1" viewBox="0 0 888 912" width="888px" zoomAndPan="magnify"><defs/><g><rect fill="#FFFFFF" height="731.6328" style="stroke:#181818;stroke-width:1.0;" width="10" x="82.5" y="91.2969"/><rect fill="#FFFFFF" height="409.2031" style="stroke:#181818;stroke-width:1.0;" width="10" x="380.5" y="112.4297"/><rect fill="#FFFFFF" height="29.1328" style="stroke:#181818;stroke-width:1.0;" width="10" x="380.5" y="550.7656"/><rect fill="#FFFFFF" height="44.2656" style="stroke:#181818;stroke-width:1.0;" width="10" x="380.5" y="609.0313"/><rect fill="#FFFFFF" height="131.5" style="stroke:#181818;stroke-width:1.0;" width="10" x="380.5" y="682.4297"/><rect fill="#FFFFFF" height="325.8047" style="stroke:#181818;stroke-width:1.0;" width="10" x="724.5" y="151.5625"/><rect fill="#FFFFFF" height="73.2344" style="stroke:#181818;stroke-width:1.0;" width="10" x="724.5" y="711.5625"/><line style="stroke:#181818;stroke-width:0.5;stroke-dasharray:5.0,5.0;" x1="87" x2="87" y1="81.2969" y2="831.9297"/><line style="stroke:#181818;stroke-width:0.5;stroke-dasharray:5.0,5.0;" x1="385" x2="385" y1="81.2969" y2="831.9297"/><line style="stroke:#181818;stroke-width:0.5;stroke-dasharray:5.0,5.0;" x1="729" x2="729" y1="151.0781" y2="831.9297"/><text fill="#000000" font-family="sans-serif" font-size="14" lengthAdjust="spacing" textLength="159" x="5" y="77.9951">Green Space Manager</text><ellipse cx="87.5" cy="13.5" fill="#E3E3E3" rx="8" ry="8" style="stroke:#181818;stroke-width:0.5;"/><path d="M87.5,21.5 L87.5,48.5 M74.5,29.5 L100.5,29.5 M87.5,48.5 L74.5,63.5 M87.5,48.5 L100.5,63.5 " fill="none" style="stroke:#181818;stroke-width:0.5;"/><text fill="#000000" font-family="sans-serif" font-size="14" lengthAdjust="spacing" textLength="159" x="5" y="843.9248">Green Space Manager</text><ellipse cx="87.5" cy="855.7266" fill="#E3E3E3" rx="8" ry="8" style="stroke:#181818;stroke-width:0.5;"/><path d="M87.5,863.7266 L87.5,890.7266 M74.5,871.7266 L100.5,871.7266 M87.5,890.7266 L74.5,905.7266 M87.5,890.7266 L100.5,905.7266 " fill="none" style="stroke:#181818;stroke-width:0.5;"/><rect fill="#E3E3E3" height="30.2969" rx="2.5" ry="2.5" style="stroke:#181818;stroke-width:0.5;" width="131" x="320" y="50"/><text fill="#000000" font-family="sans-serif" font-size="14" lengthAdjust="spacing" textLength="117" x="327" y="69.9951">:PostponeTaskUI</text><rect fill="#E3E3E3" height="30.2969" rx="2.5" ry="2.5" style="stroke:#181818;stroke-width:0.5;" width="131" x="320" y="830.9297"/><text fill="#000000" font-family="sans-serif" font-size="14" lengthAdjust="spacing" textLength="117" x="327" y="850.9248">:PostponeTaskUI</text><rect fill="#E3E3E3" height="30.2969" rx="2.5" ry="2.5" style="stroke:#181818;stroke-width:0.5;" width="145" x="657" y="830.9297"/><text fill="#000000" font-family="sans-serif" font-size="14" lengthAdjust="spacing" textLength="131" x="664" y="850.9248">:AgendaController</text><rect fill="#FFFFFF" height="731.6328" style="stroke:#181818;stroke-width:1.0;" width="10" x="82.5" y="91.2969"/><rect fill="#FFFFFF" height="409.2031" style="stroke:#181818;stroke-width:1.0;" width="10" x="380.5" y="112.4297"/><rect fill="#FFFFFF" height="29.1328" style="stroke:#181818;stroke-width:1.0;" width="10" x="380.5" y="550.7656"/><rect fill="#FFFFFF" height="44.2656" style="stroke:#181818;stroke-width:1.0;" width="10" x="380.5" y="609.0313"/><rect fill="#FFFFFF" height="131.5" style="stroke:#181818;stroke-width:1.0;" width="10" x="380.5" y="682.4297"/><rect fill="#FFFFFF" height="325.8047" style="stroke:#181818;stroke-width:1.0;" width="10" x="724.5" y="151.5625"/><rect fill="#FFFFFF" height="73.2344" style="stroke:#181818;stroke-width:1.0;" width="10" x="724.5" y="711.5625"/><polygon fill="#181818" points="368.5,108.4297,378.5,112.4297,368.5,116.4297,372.5,112.4297" style="stroke:#181818;stroke-width:1.0;"/><line style="stroke:#181818;stroke-width:1.0;" x1="92.5" x2="374.5" y1="112.4297" y2="112.4297"/><text fill="#000000" font-family="sans-serif" font-size="13" font-weight="bold" lengthAdjust="spacing" textLength="9" x="99.5" y="107.3638">1</text><text fill="#000000" font-family="sans-serif" font-size="13" lengthAdjust="spacing" textLength="256" x="112.5" y="107.3638">ask to postpone an entry in the Agenda</text><polygon fill="#181818" points="645,137.5625,655,141.5625,645,145.5625,649,141.5625" style="stroke:#181818;stroke-width:1.0;"/><line style="stroke:#181818;stroke-width:1.0;" x1="390.5" x2="651" y1="141.5625" y2="141.5625"/><text fill="#000000" font-family="sans-serif" font-size="13" font-weight="bold" lengthAdjust="spacing" textLength="9" x="397.5" y="136.4966">2</text><text fill="#000000" font-family="sans-serif" font-size="13" lengthAdjust="spacing" textLength="41" x="410.5" y="136.4966">create</text><rect fill="#E3E3E3" height="30.2969" rx="2.5" ry="2.5" style="stroke:#181818;stroke-width:0.5;" width="145" x="657" y="120.4297"/><text fill="#000000" font-family="sans-serif" font-size="14" lengthAdjust="spacing" textLength="131" x="664" y="140.4248">:AgendaController</text><rect fill="none" height="53.0703" style="stroke:#000000;stroke-width:1.5;" width="151" x="654" y="161.7266"/><path d="M654,161.7266 L720,161.7266 L720,168.7266 L710,178.7266 L654,178.7266 L654,161.7266 " fill="#EEEEEE" style="stroke:#000000;stroke-width:2.0;"/><text fill="#000000" font-family="sans-serif" font-size="13" font-weight="bold" lengthAdjust="spacing" textLength="21" x="667" y="175.7935">ref</text><text fill="#000000" font-family="sans-serif" font-size="12" lengthAdjust="spacing" textLength="97" x="681" y="193.8652">Get Repositories</text><text fill="#000000" font-family="sans-serif" font-size="12" lengthAdjust="spacing" textLength="4" x="727.5" y="207.834">&#160;</text><polygon fill="#181818" points="712.5,236.9297,722.5,240.9297,712.5,244.9297,716.5,240.9297" style="stroke:#181818;stroke-width:1.0;"/><line style="stroke:#181818;stroke-width:1.0;" x1="390.5" x2="718.5" y1="240.9297" y2="240.9297"/><text fill="#000000" font-family="sans-serif" font-size="13" font-weight="bold" lengthAdjust="spacing" textLength="9" x="397.5" y="235.8638">3</text><text fill="#000000" font-family="sans-serif" font-size="13" lengthAdjust="spacing" textLength="224" x="410.5" y="235.8638">getAgendaEntriesForResponsible()</text><rect fill="none" height="39.1016" style="stroke:#000000;stroke-width:1.5;" width="151" x="654" y="273.9297"/><path d="M654,273.9297 L720,273.9297 L720,280.9297 L710,290.9297 L654,290.9297 L654,273.9297 " fill="#EEEEEE" style="stroke:#000000;stroke-width:2.0;"/><text fill="#000000" font-family="sans-serif" font-size="13" font-weight="bold" lengthAdjust="spacing" textLength="21" x="667" y="287.9966">ref</text><text fill="#000000" font-family="sans-serif" font-size="12" lengthAdjust="spacing" textLength="97" x="681" y="306.0684">Get Repositories</text><rect fill="none" height="39.1016" style="stroke:#000000;stroke-width:1.5;" width="195" x="654" y="343.0313"/><path d="M654,343.0313 L720,343.0313 L720,350.0313 L710,360.0313 L654,360.0313 L654,343.0313 " fill="#EEEEEE" style="stroke:#000000;stroke-width:2.0;"/><text fill="#000000" font-family="sans-serif" font-size="13" font-weight="bold" lengthAdjust="spacing" textLength="21" x="667" y="357.0981">ref</text><text fill="#000000" font-family="sans-serif" font-size="12" lengthAdjust="spacing" textLength="187" x="658" y="375.1699">Get List of Agenda Repositories</text><rect fill="none" height="39.1016" style="stroke:#000000;stroke-width:1.5;" width="228" x="654" y="412.1328"/><path d="M654,412.1328 L720,412.1328 L720,419.1328 L710,429.1328 L654,429.1328 L654,412.1328 " fill="#EEEEEE" style="stroke:#000000;stroke-width:2.0;"/><text fill="#000000" font-family="sans-serif" font-size="13" font-weight="bold" lengthAdjust="spacing" textLength="21" x="667" y="426.1997">ref</text><text fill="#000000" font-family="sans-serif" font-size="12" lengthAdjust="spacing" textLength="220" x="658" y="444.2715">Get Agenda List DTO for Responsible</text><polygon fill="#181818" points="401.5,473.3672,391.5,477.3672,401.5,481.3672,397.5,477.3672" style="stroke:#181818;stroke-width:1.0;"/><line style="stroke:#181818;stroke-width:1.0;stroke-dasharray:2.0,2.0;" x1="395.5" x2="728.5" y1="477.3672" y2="477.3672"/><text fill="#000000" font-family="sans-serif" font-size="13" font-weight="bold" lengthAdjust="spacing" textLength="9" x="407.5" y="472.3013">4</text><text fill="#000000" font-family="sans-serif" font-size="13" lengthAdjust="spacing" textLength="126" x="420.5" y="472.3013">listAgendaEntryDto</text><polygon fill="#181818" points="103.5,517.6328,93.5,521.6328,103.5,525.6328,99.5,521.6328" style="stroke:#181818;stroke-width:1.0;"/><line style="stroke:#181818;stroke-width:1.0;stroke-dasharray:2.0,2.0;" x1="97.5" x2="384.5" y1="521.6328" y2="521.6328"/><text fill="#000000" font-family="sans-serif" font-size="13" font-weight="bold" lengthAdjust="spacing" textLength="9" x="109.5" y="509.0005">5</text><text fill="#000000" font-family="sans-serif" font-size="13" lengthAdjust="spacing" textLength="172" x="122.5" y="501.4341">shows list of agenda entry</text><text fill="#000000" font-family="sans-serif" font-size="13" lengthAdjust="spacing" textLength="152" x="126.5" y="516.5669">and request a selection</text><polygon fill="#181818" points="368.5,546.7656,378.5,550.7656,368.5,554.7656,372.5,550.7656" style="stroke:#181818;stroke-width:1.0;"/><line style="stroke:#181818;stroke-width:1.0;" x1="92.5" x2="374.5" y1="550.7656" y2="550.7656"/><text fill="#000000" font-family="sans-serif" font-size="13" font-weight="bold" lengthAdjust="spacing" textLength="9" x="99.5" y="545.6997">6</text><text fill="#000000" font-family="sans-serif" font-size="13" lengthAdjust="spacing" textLength="104" x="112.5" y="545.6997">select an option</text><polygon fill="#181818" points="103.5,575.8984,93.5,579.8984,103.5,583.8984,99.5,579.8984" style="stroke:#181818;stroke-width:1.0;"/><line style="stroke:#181818;stroke-width:1.0;stroke-dasharray:2.0,2.0;" x1="97.5" x2="384.5" y1="579.8984" y2="579.8984"/><text fill="#000000" font-family="sans-serif" font-size="13" font-weight="bold" lengthAdjust="spacing" textLength="9" x="109.5" y="574.8325">7</text><text fill="#000000" font-family="sans-serif" font-size="13" lengthAdjust="spacing" textLength="187" x="122.5" y="574.8325">request data (postponeDate)</text><polygon fill="#181818" points="368.5,605.0313,378.5,609.0313,368.5,613.0313,372.5,609.0313" style="stroke:#181818;stroke-width:1.0;"/><line style="stroke:#181818;stroke-width:1.0;" x1="92.5" x2="374.5" y1="609.0313" y2="609.0313"/><text fill="#000000" font-family="sans-serif" font-size="13" font-weight="bold" lengthAdjust="spacing" textLength="9" x="99.5" y="603.9653">8</text><text fill="#000000" font-family="sans-serif" font-size="13" lengthAdjust="spacing" textLength="138" x="112.5" y="603.9653">types requested data</text><polygon fill="#181818" points="103.5,649.2969,93.5,653.2969,103.5,657.2969,99.5,653.2969" style="stroke:#181818;stroke-width:1.0;"/><line style="stroke:#181818;stroke-width:1.0;stroke-dasharray:2.0,2.0;" x1="97.5" x2="384.5" y1="653.2969" y2="653.2969"/><text fill="#000000" font-family="sans-serif" font-size="13" font-weight="bold" lengthAdjust="spacing" textLength="9" x="109.5" y="640.6646">9</text><text fill="#000000" font-family="sans-serif" font-size="13" lengthAdjust="spacing" textLength="157" x="122.5" y="633.0981">show all data registered</text><text fill="#000000" font-family="sans-serif" font-size="13" lengthAdjust="spacing" textLength="177" x="126.5" y="648.231">and the confirmation menu</text><polygon fill="#181818" points="368.5,678.4297,378.5,682.4297,368.5,686.4297,372.5,682.4297" style="stroke:#181818;stroke-width:1.0;"/><line style="stroke:#181818;stroke-width:1.0;" x1="92.5" x2="374.5" y1="682.4297" y2="682.4297"/><text fill="#000000" font-family="sans-serif" font-size="13" font-weight="bold" lengthAdjust="spacing" textLength="18" x="99.5" y="677.3638">10</text><text fill="#000000" font-family="sans-serif" font-size="13" lengthAdjust="spacing" textLength="85" x="121.5" y="677.3638">submits data</text><polygon fill="#181818" points="712.5,707.5625,722.5,711.5625,712.5,715.5625,716.5,711.5625" style="stroke:#181818;stroke-width:1.0;"/><line style="stroke:#181818;stroke-width:1.0;" x1="390.5" x2="718.5" y1="711.5625" y2="711.5625"/><text fill="#000000" font-family="sans-serif" font-size="13" font-weight="bold" lengthAdjust="spacing" textLength="18" x="397.5" y="706.4966">11</text><text fill="#000000" font-family="sans-serif" font-size="13" lengthAdjust="spacing" textLength="293" x="419.5" y="706.4966">postponeTask(agendaTaskID, postponeDate)</text><rect fill="none" height="39.1016" style="stroke:#000000;stroke-width:1.5;" width="151" x="654" y="719.5625"/><path d="M654,719.5625 L720,719.5625 L720,726.5625 L710,736.5625 L654,736.5625 L654,719.5625 " fill="#EEEEEE" style="stroke:#000000;stroke-width:2.0;"/><text fill="#000000" font-family="sans-serif" font-size="13" font-weight="bold" lengthAdjust="spacing" textLength="21" x="667" y="733.6294">ref</text><text fill="#000000" font-family="sans-serif" font-size="12" lengthAdjust="spacing" textLength="86" x="686.5" y="751.7012">Postpone Task</text><polygon fill="#181818" points="401.5,780.7969,391.5,784.7969,401.5,788.7969,397.5,784.7969" style="stroke:#181818;stroke-width:1.0;"/><line style="stroke:#181818;stroke-width:1.0;" x1="395.5" x2="728.5" y1="784.7969" y2="784.7969"/><text fill="#000000" font-family="sans-serif" font-size="13" font-weight="bold" lengthAdjust="spacing" textLength="18" x="407.5" y="779.731">12</text><text fill="#000000" font-family="sans-serif" font-size="13" lengthAdjust="spacing" textLength="26" x="429.5" y="779.731">true</text><polygon fill="#181818" points="103.5,809.9297,93.5,813.9297,103.5,817.9297,99.5,813.9297" style="stroke:#181818;stroke-width:1.0;"/><line style="stroke:#181818;stroke-width:1.0;stroke-dasharray:2.0,2.0;" x1="97.5" x2="384.5" y1="813.9297" y2="813.9297"/><text fill="#000000" font-family="sans-serif" font-size="13" font-weight="bold" lengthAdjust="spacing" textLength="18" x="109.5" y="808.8638">13</text><text fill="#000000" font-family="sans-serif" font-size="13" lengthAdjust="spacing" textLength="184" x="131.5" y="808.8638">shows operation (in)success</text><!--SRC=[bLJ1Rk8m4BtxAqOzGRNz0GuhhKgtGkfgLnHkUncI8LWudgpjj4BYutSI9o64WAXFIUnvxytB6_kzjWKwp25doydESKuGN4dATpi59dlCw3qS386Z9A3DJF-0ts7Adzfci4NZIIai0ziotv2JvoImWuTNHsJXNR08Vg4LFFS0wE4bBmmVI8e4A-X45sW3FCp-i0y5MrgXtwyNzT7rOd3cHqOsnMUsmR4n3U3pQlccLCshFp1GZm5ajM_mz5q0OIObUmWCHSC7Q844y03QGjWHH9AwjeCK9VM7QgqNWbIHFZuAMk983dIRNKMZ2dhBqHRuWrpSWy5wfG1B4bLQxDFapsj5Kay0D0g4FwCG1Rz83rBsazsIl3JczSRGPAgEnwCQaDqMCYhcVBjIC_WqGdCFKSVsfdq0tZRkto8_AL1dv5_qkY6gUUUhtx2LqFQSKzVwhNr_QiDafFpa_s4UE1vCQP24ziT9OPV8cGmIV_eQfEeTewGwZN-j13ELFlwL9Bi8denCecOxn6-pUH7qM57bcukwS3pJbwfQqXG3mgGTbBaKJUyc3uU2V8j4QOsbrAsf6lC6q9Wemr4cBf6Zj76c6jM4xLQx7Alk82TRtkzDkSbry57MLLkwAIjwbzCa_gRgSJ7_1fVsZFpv-mUYlGQXmhyCuGakvh1rkxh0hmVlLlYu81SDd6WxzMMIaFSZFlu7]--></g></svg>