<?xml version="1.0" encoding="us-ascii" standalone="no"?><svg xmlns="http://www.w3.org/2000/svg" xmlns:xlink="http://www.w3.org/1999/xlink" contentStyleType="text/css" height="664px" preserveAspectRatio="none" style="width:1364px;height:664px;background:#FFFFFF;" version="1.1" viewBox="0 0 1364 664" width="1364px" zoomAndPan="magnify"><defs/><g><!--class PostponeTaskUI--><g id="elem_PostponeTaskUI"><rect codeLine="9" fill="#F1F1F1" height="48" id="PostponeTaskUI" rx="2.5" ry="2.5" style="stroke:#181818;stroke-width:0.5;" width="144" x="7" y="39.5"/><ellipse cx="22" cy="55.5" fill="#ADD1B2" rx="11" ry="11" style="stroke:#181818;stroke-width:1.0;"/><path d="M24.9688,61.1406 Q24.3906,61.4375 23.75,61.5781 Q23.1094,61.7344 22.4063,61.7344 Q19.9063,61.7344 18.5781,60.0938 Q17.2656,58.4375 17.2656,55.3125 Q17.2656,52.1875 18.5781,50.5313 Q19.9063,48.875 22.4063,48.875 Q23.1094,48.875 23.75,49.0313 Q24.4063,49.1875 24.9688,49.4844 L24.9688,52.2031 Q24.3438,51.625 23.75,51.3594 Q23.1563,51.0781 22.5313,51.0781 Q21.1875,51.0781 20.5,52.1563 Q19.8125,53.2188 19.8125,55.3125 Q19.8125,57.4063 20.5,58.4844 Q21.1875,59.5469 22.5313,59.5469 Q23.1563,59.5469 23.75,59.2813 Q24.3438,59 24.9688,58.4219 L24.9688,61.1406 Z " fill="#000000"/><text fill="#000000" font-family="sans-serif" font-size="14" lengthAdjust="spacing" textLength="112" x="36" y="60.3467">PostponeTaskUI</text><line style="stroke:#181818;stroke-width:0.5;" x1="8" x2="150" y1="71.5" y2="71.5"/><line style="stroke:#181818;stroke-width:0.5;" x1="8" x2="150" y1="79.5" y2="79.5"/></g><!--class AgendaController--><g id="elem_AgendaController"><rect codeLine="13" fill="#F1F1F1" height="113.1875" id="AgendaController" rx="2.5" ry="2.5" style="stroke:#181818;stroke-width:0.5;" width="403" x="186.5" y="7"/><ellipse cx="320.75" cy="23" fill="#ADD1B2" rx="11" ry="11" style="stroke:#181818;stroke-width:1.0;"/><path d="M323.7188,28.6406 Q323.1406,28.9375 322.5,29.0781 Q321.8594,29.2344 321.1563,29.2344 Q318.6563,29.2344 317.3281,27.5938 Q316.0156,25.9375 316.0156,22.8125 Q316.0156,19.6875 317.3281,18.0313 Q318.6563,16.375 321.1563,16.375 Q321.8594,16.375 322.5,16.5313 Q323.1563,16.6875 323.7188,16.9844 L323.7188,19.7031 Q323.0938,19.125 322.5,18.8594 Q321.9063,18.5781 321.2813,18.5781 Q319.9375,18.5781 319.25,19.6563 Q318.5625,20.7188 318.5625,22.8125 Q318.5625,24.9063 319.25,25.9844 Q319.9375,27.0469 321.2813,27.0469 Q321.9063,27.0469 322.5,26.7813 Q323.0938,26.5 323.7188,25.9219 L323.7188,28.6406 Z " fill="#000000"/><text fill="#000000" font-family="sans-serif" font-size="14" lengthAdjust="spacing" textLength="126" x="341.25" y="27.8467">AgendaController</text><line style="stroke:#181818;stroke-width:0.5;" x1="187.5" x2="588.5" y1="39" y2="39"/><text fill="#000000" font-family="sans-serif" font-size="14" lengthAdjust="spacing" textLength="270" x="192.5" y="55.9951">-AgendaRepository agendaRepository</text><line style="stroke:#181818;stroke-width:0.5;" x1="187.5" x2="588.5" y1="63.2969" y2="63.2969"/><text fill="#000000" font-family="sans-serif" font-size="14" lengthAdjust="spacing" textLength="148" x="192.5" y="80.292">+AgendaController()</text><text fill="#000000" font-family="sans-serif" font-size="14" lengthAdjust="spacing" textLength="93" x="192.5" y="96.5889">-getAgenda()</text><text fill="#000000" font-family="sans-serif" font-size="14" lengthAdjust="spacing" textLength="391" x="192.5" y="112.8857">+postponeTask(int agendaTaskID, Data postponeDate)</text></g><!--class Repositories--><g id="elem_Repositories"><rect codeLine="20" fill="#F1F1F1" height="113.1875" id="Repositories" rx="2.5" ry="2.5" style="stroke:#181818;stroke-width:0.5;" width="237" x="719.5" y="7"/><ellipse cx="789.75" cy="23" fill="#ADD1B2" rx="11" ry="11" style="stroke:#181818;stroke-width:1.0;"/><path d="M792.7188,28.6406 Q792.1406,28.9375 791.5,29.0781 Q790.8594,29.2344 790.1563,29.2344 Q787.6563,29.2344 786.3281,27.5938 Q785.0156,25.9375 785.0156,22.8125 Q785.0156,19.6875 786.3281,18.0313 Q787.6563,16.375 790.1563,16.375 Q790.8594,16.375 791.5,16.5313 Q792.1563,16.6875 792.7188,16.9844 L792.7188,19.7031 Q792.0938,19.125 791.5,18.8594 Q790.9063,18.5781 790.2813,18.5781 Q788.9375,18.5781 788.25,19.6563 Q787.5625,20.7188 787.5625,22.8125 Q787.5625,24.9063 788.25,25.9844 Q788.9375,27.0469 790.2813,27.0469 Q790.9063,27.0469 791.5,26.7813 Q792.0938,26.5 792.7188,25.9219 L792.7188,28.6406 Z " fill="#000000"/><text fill="#000000" font-family="sans-serif" font-size="14" lengthAdjust="spacing" textLength="88" x="810.25" y="27.8467">Repositories</text><line style="stroke:#181818;stroke-width:0.5;" x1="720.5" x2="955.5" y1="39" y2="39"/><line style="stroke:#181818;stroke-width:0.5;" x1="720.5" x2="955.5" y1="47" y2="47"/><text fill="#000000" font-family="sans-serif" font-size="14" lengthAdjust="spacing" textLength="103" x="725.5" y="63.9951">-Repositories()</text><text fill="#000000" font-family="sans-serif" font-size="14" lengthAdjust="spacing" textLength="206" x="725.5" y="80.292">+getInstance() : Repositories</text><text fill="#000000" font-family="sans-serif" font-size="14" lengthAdjust="spacing" textLength="100" x="725.5" y="96.5889">+getAgenda()</text><text fill="#000000" font-family="sans-serif" font-size="14" lengthAdjust="spacing" textLength="225" x="725.5" y="112.8857">+getAuthenticationRepository()</text></g><!--class AuthenticationRepository--><g id="elem_AuthenticationRepository"><rect codeLine="27" fill="#F1F1F1" height="64.2969" id="AuthenticationRepository" rx="2.5" ry="2.5" style="stroke:#181818;stroke-width:0.5;" width="212" x="732" y="197"/><ellipse cx="747" cy="213" fill="#ADD1B2" rx="11" ry="11" style="stroke:#181818;stroke-width:1.0;"/><path d="M749.9688,218.6406 Q749.3906,218.9375 748.75,219.0781 Q748.1094,219.2344 747.4063,219.2344 Q744.9063,219.2344 743.5781,217.5938 Q742.2656,215.9375 742.2656,212.8125 Q742.2656,209.6875 743.5781,208.0313 Q744.9063,206.375 747.4063,206.375 Q748.1094,206.375 748.75,206.5313 Q749.4063,206.6875 749.9688,206.9844 L749.9688,209.7031 Q749.3438,209.125 748.75,208.8594 Q748.1563,208.5781 747.5313,208.5781 Q746.1875,208.5781 745.5,209.6563 Q744.8125,210.7188 744.8125,212.8125 Q744.8125,214.9063 745.5,215.9844 Q746.1875,217.0469 747.5313,217.0469 Q748.1563,217.0469 748.75,216.7813 Q749.3438,216.5 749.9688,215.9219 L749.9688,218.6406 Z " fill="#000000"/><text fill="#000000" font-family="sans-serif" font-size="14" lengthAdjust="spacing" textLength="180" x="761" y="217.8467">AuthenticationRepository</text><line style="stroke:#181818;stroke-width:0.5;" x1="733" x2="943" y1="229" y2="229"/><line style="stroke:#181818;stroke-width:0.5;" x1="733" x2="943" y1="237" y2="237"/><text fill="#000000" font-family="sans-serif" font-size="14" lengthAdjust="spacing" textLength="185" x="738" y="253.9951">+getCurrentUserSession()</text></g><!--class UserSession--><g id="elem_UserSession"><rect codeLine="31" fill="#F1F1F1" height="64.2969" id="UserSession" rx="2.5" ry="2.5" style="stroke:#181818;stroke-width:0.5;" width="118" x="1239" y="197"/><ellipse cx="1254" cy="213" fill="#ADD1B2" rx="11" ry="11" style="stroke:#181818;stroke-width:1.0;"/><path d="M1256.9688,218.6406 Q1256.3906,218.9375 1255.75,219.0781 Q1255.1094,219.2344 1254.4063,219.2344 Q1251.9063,219.2344 1250.5781,217.5938 Q1249.2656,215.9375 1249.2656,212.8125 Q1249.2656,209.6875 1250.5781,208.0313 Q1251.9063,206.375 1254.4063,206.375 Q1255.1094,206.375 1255.75,206.5313 Q1256.4063,206.6875 1256.9688,206.9844 L1256.9688,209.7031 Q1256.3438,209.125 1255.75,208.8594 Q1255.1563,208.5781 1254.5313,208.5781 Q1253.1875,208.5781 1252.5,209.6563 Q1251.8125,210.7188 1251.8125,212.8125 Q1251.8125,214.9063 1252.5,215.9844 Q1253.1875,217.0469 1254.5313,217.0469 Q1255.1563,217.0469 1255.75,216.7813 Q1256.3438,216.5 1256.9688,215.9219 L1256.9688,218.6406 Z " fill="#000000"/><text fill="#000000" font-family="sans-serif" font-size="14" lengthAdjust="spacing" textLength="86" x="1268" y="217.8467">UserSession</text><line style="stroke:#181818;stroke-width:0.5;" x1="1240" x2="1356" y1="229" y2="229"/><line style="stroke:#181818;stroke-width:0.5;" x1="1240" x2="1356" y1="237" y2="237"/><text fill="#000000" font-family="sans-serif" font-size="14" lengthAdjust="spacing" textLength="90" x="1245" y="253.9951">+getUserId()</text></g><!--class Email--><g id="elem_Email"><rect codeLine="35" fill="#F1F1F1" height="64.2969" id="Email" rx="2.5" ry="2.5" style="stroke:#181818;stroke-width:0.5;" width="97" x="1249.5" y="370.5"/><ellipse cx="1275.75" cy="386.5" fill="#ADD1B2" rx="11" ry="11" style="stroke:#181818;stroke-width:1.0;"/><path d="M1278.7188,392.1406 Q1278.1406,392.4375 1277.5,392.5781 Q1276.8594,392.7344 1276.1563,392.7344 Q1273.6563,392.7344 1272.3281,391.0938 Q1271.0156,389.4375 1271.0156,386.3125 Q1271.0156,383.1875 1272.3281,381.5313 Q1273.6563,379.875 1276.1563,379.875 Q1276.8594,379.875 1277.5,380.0313 Q1278.1563,380.1875 1278.7188,380.4844 L1278.7188,383.2031 Q1278.0938,382.625 1277.5,382.3594 Q1276.9063,382.0781 1276.2813,382.0781 Q1274.9375,382.0781 1274.25,383.1563 Q1273.5625,384.2188 1273.5625,386.3125 Q1273.5625,388.4063 1274.25,389.4844 Q1274.9375,390.5469 1276.2813,390.5469 Q1276.9063,390.5469 1277.5,390.2813 Q1278.0938,390 1278.7188,389.4219 L1278.7188,392.1406 Z " fill="#000000"/><text fill="#000000" font-family="sans-serif" font-size="14" lengthAdjust="spacing" textLength="40" x="1292.25" y="391.3467">Email</text><line style="stroke:#181818;stroke-width:0.5;" x1="1250.5" x2="1345.5" y1="402.5" y2="402.5"/><line style="stroke:#181818;stroke-width:0.5;" x1="1250.5" x2="1345.5" y1="410.5" y2="410.5"/><text fill="#000000" font-family="sans-serif" font-size="14" lengthAdjust="spacing" textLength="85" x="1255.5" y="427.4951">+getEmail()</text></g><!--class AgendaRepository--><g id="elem_AgendaRepository"><rect codeLine="41" fill="#F1F1F1" height="129.4844" id="AgendaRepository" rx="2.5" ry="2.5" style="stroke:#181818;stroke-width:0.5;" width="548" x="666" y="338"/><ellipse cx="870.25" cy="354" fill="#ADD1B2" rx="11" ry="11" style="stroke:#181818;stroke-width:1.0;"/><path d="M873.2188,359.6406 Q872.6406,359.9375 872,360.0781 Q871.3594,360.2344 870.6563,360.2344 Q868.1563,360.2344 866.8281,358.5938 Q865.5156,356.9375 865.5156,353.8125 Q865.5156,350.6875 866.8281,349.0313 Q868.1563,347.375 870.6563,347.375 Q871.3594,347.375 872,347.5313 Q872.6563,347.6875 873.2188,347.9844 L873.2188,350.7031 Q872.5938,350.125 872,349.8594 Q871.4063,349.5781 870.7813,349.5781 Q869.4375,349.5781 868.75,350.6563 Q868.0625,351.7188 868.0625,353.8125 Q868.0625,355.9063 868.75,356.9844 Q869.4375,358.0469 870.7813,358.0469 Q871.4063,358.0469 872,357.7813 Q872.5938,357.5 873.2188,356.9219 L873.2188,359.6406 Z " fill="#000000"/><text fill="#000000" font-family="sans-serif" font-size="14" lengthAdjust="spacing" textLength="131" x="890.75" y="358.8467">AgendaRepository</text><line style="stroke:#181818;stroke-width:0.5;" x1="667" x2="1213" y1="370" y2="370"/><text fill="#000000" font-family="sans-serif" font-size="14" lengthAdjust="spacing" textLength="252" x="672" y="386.9951">-List&lt;AgendaEntry&gt; agendaEntries</text><line style="stroke:#181818;stroke-width:0.5;" x1="667" x2="1213" y1="394.2969" y2="394.2969"/><text fill="#000000" font-family="sans-serif" font-size="14" lengthAdjust="spacing" textLength="432" x="672" y="411.292">+postponeTask(ToDoEntry agendaEntry, Data starting_Date)</text><text fill="#000000" font-family="sans-serif" font-size="14" lengthAdjust="spacing" textLength="379" x="672" y="427.5889">-getAgendaEntriesForResponsible(String responsible)</text><text fill="#000000" font-family="sans-serif" font-size="14" lengthAdjust="spacing" textLength="536" x="672" y="443.8857">-getTaskByResposible(int agendaTaskID, List&lt;AgendaEntry&gt; agendaTasks)</text><text fill="#000000" font-family="sans-serif" font-size="14" lengthAdjust="spacing" textLength="419" x="672" y="460.1826">-validPostponeDate(AgendaEntry task, Data postponeDate)</text></g><!--class AgendaMapper--><g id="elem_AgendaMapper"><rect codeLine="52" fill="#F1F1F1" height="96.8906" id="AgendaMapper" rx="2.5" ry="2.5" style="stroke:#181818;stroke-width:0.5;" width="320" x="95" y="354"/><ellipse cx="196.25" cy="370" fill="#ADD1B2" rx="11" ry="11" style="stroke:#181818;stroke-width:1.0;"/><path d="M199.2188,375.6406 Q198.6406,375.9375 198,376.0781 Q197.3594,376.2344 196.6563,376.2344 Q194.1563,376.2344 192.8281,374.5938 Q191.5156,372.9375 191.5156,369.8125 Q191.5156,366.6875 192.8281,365.0313 Q194.1563,363.375 196.6563,363.375 Q197.3594,363.375 198,363.5313 Q198.6563,363.6875 199.2188,363.9844 L199.2188,366.7031 Q198.5938,366.125 198,365.8594 Q197.4063,365.5781 196.7813,365.5781 Q195.4375,365.5781 194.75,366.6563 Q194.0625,367.7188 194.0625,369.8125 Q194.0625,371.9063 194.75,372.9844 Q195.4375,374.0469 196.7813,374.0469 Q197.4063,374.0469 198,373.7813 Q198.5938,373.5 199.2188,372.9219 L199.2188,375.6406 Z " fill="#000000"/><text fill="#000000" font-family="sans-serif" font-size="14" lengthAdjust="spacing" textLength="109" x="216.75" y="374.8467">AgendaMapper</text><line style="stroke:#181818;stroke-width:0.5;" x1="96" x2="414" y1="386" y2="386"/><line style="stroke:#181818;stroke-width:0.5;" x1="96" x2="414" y1="394" y2="394"/><text fill="#000000" font-family="sans-serif" font-size="14" lengthAdjust="spacing" textLength="131" x="101" y="410.9951">+AgendaMapper()</text><text fill="#000000" font-family="sans-serif" font-size="14" lengthAdjust="spacing" textLength="308" x="101" y="427.292">+toDto(List&lt;AgendaEntry&gt; agendaEntries)</text><text fill="#000000" font-family="sans-serif" font-size="14" lengthAdjust="spacing" textLength="241" x="101" y="443.5889">-toDto(AgendaEntry agendaEntry)</text></g><!--class AgendaEntryDTO--><g id="elem_AgendaEntryDTO"><rect codeLine="58" fill="#F1F1F1" height="113.1875" id="AgendaEntryDTO" rx="2.5" ry="2.5" style="stroke:#181818;stroke-width:0.5;" width="344" x="83" y="544"/><ellipse cx="189.25" cy="560" fill="#ADD1B2" rx="11" ry="11" style="stroke:#181818;stroke-width:1.0;"/><path d="M192.2188,565.6406 Q191.6406,565.9375 191,566.0781 Q190.3594,566.2344 189.6563,566.2344 Q187.1563,566.2344 185.8281,564.5938 Q184.5156,562.9375 184.5156,559.8125 Q184.5156,556.6875 185.8281,555.0313 Q187.1563,553.375 189.6563,553.375 Q190.3594,553.375 191,553.5313 Q191.6563,553.6875 192.2188,553.9844 L192.2188,556.7031 Q191.5938,556.125 191,555.8594 Q190.4063,555.5781 189.7813,555.5781 Q188.4375,555.5781 187.75,556.6563 Q187.0625,557.7188 187.0625,559.8125 Q187.0625,561.9063 187.75,562.9844 Q188.4375,564.0469 189.7813,564.0469 Q190.4063,564.0469 191,563.7813 Q191.5938,563.5 192.2188,562.9219 L192.2188,565.6406 Z " fill="#000000"/><text fill="#000000" font-family="sans-serif" font-size="14" lengthAdjust="spacing" textLength="123" x="209.75" y="564.8467">AgendaEntryDTO</text><line style="stroke:#181818;stroke-width:0.5;" x1="84" x2="426" y1="576" y2="576"/><text fill="#000000" font-family="sans-serif" font-size="14" lengthAdjust="spacing" textLength="148" x="89" y="592.9951">-AgendaEntry objDto</text><line style="stroke:#181818;stroke-width:0.5;" x1="84" x2="426" y1="600.2969" y2="600.2969"/><text fill="#000000" font-family="sans-serif" font-size="14" lengthAdjust="spacing" textLength="332" x="89" y="617.292">+AgendaEntryDTO(AgendaEntry agendaEntry)</text><text fill="#000000" font-family="sans-serif" font-size="14" lengthAdjust="spacing" textLength="94" x="89" y="633.5889">+getObjDto()</text><text fill="#000000" font-family="sans-serif" font-size="14" lengthAdjust="spacing" textLength="131" x="89" y="649.8857">+getResponsible()</text></g><!--class enum_Status--><g id="elem_enum_Status"><rect codeLine="68" fill="#F1F1F1" height="113.1875" id="enum_Status" rx="2.5" ry="2.5" style="stroke:#181818;stroke-width:0.5;" width="124" x="507" y="346"/><ellipse cx="522" cy="362" fill="#ADD1B2" rx="11" ry="11" style="stroke:#181818;stroke-width:1.0;"/><path d="M524.9688,367.6406 Q524.3906,367.9375 523.75,368.0781 Q523.1094,368.2344 522.4063,368.2344 Q519.9063,368.2344 518.5781,366.5938 Q517.2656,364.9375 517.2656,361.8125 Q517.2656,358.6875 518.5781,357.0313 Q519.9063,355.375 522.4063,355.375 Q523.1094,355.375 523.75,355.5313 Q524.4063,355.6875 524.9688,355.9844 L524.9688,358.7031 Q524.3438,358.125 523.75,357.8594 Q523.1563,357.5781 522.5313,357.5781 Q521.1875,357.5781 520.5,358.6563 Q519.8125,359.7188 519.8125,361.8125 Q519.8125,363.9063 520.5,364.9844 Q521.1875,366.0469 522.5313,366.0469 Q523.1563,366.0469 523.75,365.7813 Q524.3438,365.5 524.9688,364.9219 L524.9688,367.6406 Z " fill="#000000"/><text fill="#000000" font-family="sans-serif" font-size="14" lengthAdjust="spacing" textLength="92" x="536" y="366.8467">enum_Status</text><line style="stroke:#181818;stroke-width:0.5;" x1="508" x2="630" y1="378" y2="378"/><text fill="#000000" font-family="sans-serif" font-size="14" lengthAdjust="spacing" textLength="66" x="513" y="394.9951">PLANNED</text><text fill="#000000" font-family="sans-serif" font-size="14" lengthAdjust="spacing" textLength="77" x="513" y="411.292">CANCELED</text><text fill="#000000" font-family="sans-serif" font-size="14" lengthAdjust="spacing" textLength="41" x="513" y="427.5889">DONE</text><line style="stroke:#181818;stroke-width:0.5;" x1="508" x2="630" y1="434.8906" y2="434.8906"/><text fill="#000000" font-family="sans-serif" font-size="14" lengthAdjust="spacing" textLength="78" x="513" y="451.8857">+toString()</text></g><!--link PostponeTaskUI to AgendaController--><g id="link_PostponeTaskUI_AgendaController"><path codeLine="79" d="M151.1,63.5 C168.41,63.5 182,63.5 182,63.5 C182,63.5 177.61,63.5 180.43,63.5 " fill="none" id="PostponeTaskUI-to-AgendaController" style="stroke:#181818;stroke-width:1.0;stroke-dasharray:7.0,7.0;"/><polygon fill="#181818" points="186.43,63.5,177.43,59.5,181.43,63.5,177.43,67.5,186.43,63.5" style="stroke:#181818;stroke-width:1.0;"/></g><!--link AgendaController to AgendaMapper--><g id="link_AgendaController_AgendaMapper"><path codeLine="81" d="M366.24,120.02 C343.47,178.13 311,261 311,261 C311,261 292.432,307.5966 276.182,348.3566 " fill="none" id="AgendaController-to-AgendaMapper" style="stroke:#181818;stroke-width:1.0;stroke-dasharray:7.0,7.0;"/><polygon fill="#181818" points="273.96,353.93,281.0086,347.0512,275.8116,349.2855,273.5774,344.0886,273.96,353.93" style="stroke:#181818;stroke-width:1.0;"/><text fill="#000000" font-family="sans-serif" font-size="13" lengthAdjust="spacing" textLength="132" x="336" y="233.5669">sendToDoEntryList()</text></g><!--reverse link AgendaController to AgendaMapper--><g id="link_AgendaController_AgendaMapper"><path codeLine="82" d="M279.0328,122.9564 C211.4428,159.2164 141,197 141,197 C141,197 141,261 141,261 C141,261 183.33,313.17 216.4,353.93 " fill="none" id="AgendaController-backto-AgendaMapper" style="stroke:#181818;stroke-width:1.0;stroke-dasharray:7.0,7.0;"/><polygon fill="#181818" points="284.32,120.12,274.4982,120.8498,279.914,122.4837,278.2801,127.8995,284.32,120.12" style="stroke:#181818;stroke-width:1.0;"/><text fill="#000000" font-family="sans-serif" font-size="13" lengthAdjust="spacing" textLength="160" x="142" y="233.5669">sendToDoEntryListDTO()</text></g><!--link AgendaMapper to AgendaEntryDTO--><g id="link_AgendaMapper_AgendaEntryDTO"><path codeLine="83" d="M251.44,451.07 C249.71,474.17 248,497 248,497 C248,497 248,514 248,514 C248,514 248.6193,521.5901 249.9593,537.9201 " fill="none" id="AgendaMapper-to-AgendaEntryDTO" style="stroke:#181818;stroke-width:1.0;stroke-dasharray:7.0,7.0;"/><polygon fill="#181818" points="250.45,543.9,253.7006,534.603,250.0411,538.9167,245.7274,535.2573,250.45,543.9" style="stroke:#181818;stroke-width:1.0;"/></g><!--link AgendaEntryDTO to AgendaMapper--><g id="link_AgendaEntryDTO_AgendaMapper"><path codeLine="92" d="M255,543.93 C255,514.68 255,485.18 255,457.2 " fill="none" id="AgendaEntryDTO-to-AgendaMapper" style="stroke:#181818;stroke-width:1.0;stroke-dasharray:7.0,7.0;"/><polygon fill="#181818" points="255,451.2,251,460.2,255,456.2,259,460.2,255,451.2" style="stroke:#181818;stroke-width:1.0;"/><text fill="#000000" font-family="sans-serif" font-size="13" lengthAdjust="spacing" textLength="99" x="256" y="510.0669">returns Dto Obj</text></g><!--link Repositories to AuthenticationRepository--><g id="link_Repositories_AuthenticationRepository"><path codeLine="84" d="M838,120.31 C838,145.84 838,169.14 838,190.73 " fill="none" id="Repositories-to-AuthenticationRepository" style="stroke:#181818;stroke-width:1.0;"/><polygon fill="#181818" points="838,196.73,842,187.73,838,191.73,834,187.73,838,196.73" style="stroke:#181818;stroke-width:1.0;"/><text fill="#000000" font-family="sans-serif" font-size="13" lengthAdjust="spacing" textLength="55" x="839" y="163.0669">contains</text><text fill="#000000" font-family="sans-serif" font-size="13" lengthAdjust="spacing" textLength="8" x="829.5125" y="140.2113">1</text><text fill="#000000" font-family="sans-serif" font-size="13" lengthAdjust="spacing" textLength="8" x="829.2125" y="185.951">1</text></g><!--link AuthenticationRepository to UserSession--><g id="link_AuthenticationRepository_UserSession"><path codeLine="85" d="M944.11,229 C1035.65,229 1158.51,229 1232.83,229 " fill="none" id="AuthenticationRepository-to-UserSession" style="stroke:#181818;stroke-width:1.0;"/><polygon fill="#181818" points="1238.83,229,1229.83,225,1233.83,229,1229.83,233,1238.83,229" style="stroke:#181818;stroke-width:1.0;"/><text fill="#000000" font-family="sans-serif" font-size="13" lengthAdjust="spacing" textLength="55" x="1064" y="222.0669">contains</text></g><!--link UserSession to Email--><g id="link_UserSession_Email"><path codeLine="86" d="M1298,261.06 C1298,292.04 1298,333.38 1298,364.38 " fill="none" id="UserSession-to-Email" style="stroke:#181818;stroke-width:1.0;"/><polygon fill="#181818" points="1298,370.38,1302,361.38,1298,365.38,1294,361.38,1298,370.38" style="stroke:#181818;stroke-width:1.0;"/><text fill="#000000" font-family="sans-serif" font-size="13" lengthAdjust="spacing" textLength="55" x="1299" y="304.0669">contains</text><text fill="#000000" font-family="sans-serif" font-size="13" lengthAdjust="spacing" textLength="8" x="1289.175" y="281.2692">1</text><text fill="#000000" font-family="sans-serif" font-size="13" lengthAdjust="spacing" textLength="7" x="1290.2781" y="359.2584">*</text></g><!--link AgendaController to Repositories--><g id="link_AgendaController_Repositories"><path codeLine="87" d="M589.64,63.5 C633.95,63.5 673.48,63.5 713.26,63.5 " fill="none" id="AgendaController-to-Repositories" style="stroke:#181818;stroke-width:1.0;stroke-dasharray:7.0,7.0;"/><polygon fill="#181818" points="719.26,63.5,710.26,59.5,714.26,63.5,710.26,67.5,719.26,63.5" style="stroke:#181818;stroke-width:1.0;"/><text fill="#000000" font-family="sans-serif" font-size="13" lengthAdjust="spacing" textLength="77" x="616" y="56.5669">repositories</text></g><!--link Repositories to AgendaRepository--><g id="link_Repositories_AgendaRepository"><path codeLine="88" d="M890.23,120.31 C924.12,156.52 962,197 962,197 C962,197 962,261 962,261 C962,261 956.7179,294.7222 950.8979,331.9022 " fill="none" id="Repositories-to-AgendaRepository" style="stroke:#181818;stroke-width:1.0;"/><polygon fill="#181818" points="949.97,337.83,955.3137,329.5569,950.7433,332.8902,947.41,328.3197,949.97,337.83" style="stroke:#181818;stroke-width:1.0;"/><text fill="#000000" font-family="sans-serif" font-size="13" lengthAdjust="spacing" textLength="8" x="938.4042" y="326.9841">1</text></g><!--link Repositories to Repositories--><g id="link_Repositories_Repositories"><path codeLine="89" d="M956.75,47.01 C977.26,49.24 991.5,54.73 991.5,63.5 C991.5,72.27 983.2248,77.1115 962.7148,79.3415 " fill="none" id="Repositories-to-Repositories" style="stroke:#181818;stroke-width:1.0;"/><polygon fill="#181818" points="956.75,79.99,966.1296,82.9938,961.7207,79.4495,965.2649,75.0406,956.75,79.99" style="stroke:#181818;stroke-width:1.0;"/><text fill="#000000" font-family="sans-serif" font-size="13" lengthAdjust="spacing" textLength="55" x="997.5" y="68.0669">instance</text></g><!--link AgendaController to AgendaRepository--><g id="link_AgendaController_AgendaRepository"><path codeLine="90" d="M446.49,120.02 C507.7,178.13 595,261 595,261 C595,261 686.9931,298.4671 778.3431,335.6671 " fill="none" id="AgendaController-to-AgendaRepository" style="stroke:#181818;stroke-width:1.0;stroke-dasharray:7.0,7.0;"/><polygon fill="#181818" points="783.9,337.93,777.0732,330.831,779.2692,336.0442,774.056,338.2402,783.9,337.93" style="stroke:#181818;stroke-width:1.0;"/><text fill="#000000" font-family="sans-serif" font-size="13" lengthAdjust="spacing" textLength="118" x="596" y="233.5669">agendaRepository</text></g><!--link enum_Status to AgendaRepository--><g id="link_enum_Status_AgendaRepository"><path codeLine="93" d="M631.2,402.5 C643.35,402.5 655.48,402.5 665.71,402.5 " fill="none" id="enum_Status-AgendaRepository" style="stroke:#181818;stroke-width:1.0;"/></g><!--SRC=[XLLHRzem47xthx1uWOw1jbTK8J729AIELgNTQ-M6AtW4Ex8lcxAf_ttdn4aS32eluBllFf_llZk6zYXLBemuyPDMEZqOVGAEfW3MUNAH7iKUjbXcm0saADG-2m7s87RwZrHx_YOo6teogG3B77Ykiz8TsF22KnlKGL2Q2MiNY4Q-5WZhLAkj_0ly2njcy8OSDJToVq2-aouPgHLZLGX_q1PphU19sEFpclzZxwnnBVQWTcAf5HgTPM38oUapyOv7oBMLg4t9nPcXmeqZWj6D9zW3rZvl6TDRkpH6Kg6dTCTryfad0aMBeGFSC4gqJhEzLe9jKmoDxILqxLfPQaKAeni-wu4wo5bcpbBW0HJALBZATSyap7jRh2iOdr75iooC8Sop1RC5QmaNCWJcCCYPrxiGk3e9cOMGob0Z-hsBqfZSIOktjND5RIddlj3kq5MXruqddUWA6q1Btn8gfa4IyKlTaxFkUjBlsZo29JuhNpCORSb8iZUTAGXqDtuhAtYDZhLmxGdERnkgtoAJkuT0CACWWYD1Bugggc2lX3z4djVI7uS69uynZLM2UlH1JGavySWmXw2OeOmwQ_9qtn-uEaw__YAgteGryElyhLJkg-X6t6G8EzD_FwZYzB95WKKpLWztYyrcbLI_bulDSdNd3ydzPkNlG5ttjoLZPnjcEe_s0XkoQDTCMvplm8nREhLYT4MdEwAus-bq-c6WgrKJwr7TVKqrMM-n3BuE-6GohxwlplgCq-958PLbLp744Kvw41AQs-i-3VoyXznHiURzBJYZwGfMMy_dNy47qOxeuoOHf_IxyrApA8DuvypYFuPX17BfH8GpfzMVS91f1ii3fCVdlDVmfaUNP6802wCi9vrpaZiBTHp_Tx7_]--></g></svg>