<?xml version="1.0" encoding="us-ascii" standalone="no"?><svg xmlns="http://www.w3.org/2000/svg" xmlns:xlink="http://www.w3.org/1999/xlink" contentStyleType="text/css" height="385px" preserveAspectRatio="none" style="width:691px;height:385px;background:#FFFFFF;" version="1.1" viewBox="0 0 691 385" width="691px" zoomAndPan="magnify"><defs/><g><rect fill="#FFFFFF" height="239.9297" style="stroke:#181818;stroke-width:1.0;" width="10" x="270" y="83.7266"/><rect fill="#FFFFFF" height="156.6641" style="stroke:#181818;stroke-width:1.0;" width="10" x="275" y="144.9922"/><rect fill="#FFFFFF" height="29.1328" style="stroke:#181818;stroke-width:1.0;" width="10" x="500" y="179.125"/><rect fill="#FFFFFF" height="29.1328" style="stroke:#181818;stroke-width:1.0;" width="10" x="617" y="237.3906"/><rect fill="none" height="217.9297" style="stroke:#000000;stroke-width:1.5;" width="539" x="146.5" y="98.7266"/><line style="stroke:#181818;stroke-width:0.5;stroke-dasharray:5.0,5.0;" x1="274.5" x2="274.5" y1="52.5938" y2="333.6563"/><line style="stroke:#181818;stroke-width:0.5;stroke-dasharray:5.0,5.0;" x1="504.5" x2="504.5" y1="52.5938" y2="333.6563"/><line style="stroke:#181818;stroke-width:0.5;stroke-dasharray:5.0,5.0;" x1="621.5" x2="621.5" y1="52.5938" y2="333.6563"/><rect fill="#E3E3E3" height="30.2969" rx="2.5" ry="2.5" style="stroke:#181818;stroke-width:0.5;" width="237" x="156.5" y="21.2969"/><text fill="#000000" font-family="sans-serif" font-size="14" lengthAdjust="spacing" textLength="223" x="163.5" y="41.292">:RegisterGreenSpaceController</text><rect fill="#E3E3E3" height="30.2969" rx="2.5" ry="2.5" style="stroke:#181818;stroke-width:0.5;" width="237" x="156.5" y="332.6563"/><text fill="#000000" font-family="sans-serif" font-size="14" lengthAdjust="spacing" textLength="223" x="163.5" y="352.6514">:RegisterGreenSpaceController</text><rect fill="#E3E3E3" height="30.2969" rx="2.5" ry="2.5" style="stroke:#181818;stroke-width:0.5;" width="107" x="451.5" y="21.2969"/><text fill="#000000" font-family="sans-serif" font-size="14" lengthAdjust="spacing" textLength="93" x="458.5" y="41.292">:Repositories</text><rect fill="#E3E3E3" height="30.2969" rx="2.5" ry="2.5" style="stroke:#181818;stroke-width:0.5;" width="107" x="451.5" y="332.6563"/><text fill="#000000" font-family="sans-serif" font-size="14" lengthAdjust="spacing" textLength="93" x="458.5" y="352.6514">:Repositories</text><rect fill="#E3E3E3" height="46.5938" rx="2.5" ry="2.5" style="stroke:#181818;stroke-width:0.5;" width="107" x="568.5" y="5"/><text fill="#000000" font-family="sans-serif" font-size="14" lengthAdjust="spacing" textLength="84" x="580" y="24.9951">repositories</text><text fill="#000000" font-family="sans-serif" font-size="14" lengthAdjust="spacing" textLength="93" x="575.5" y="41.292">:Repositories</text><rect fill="#E3E3E3" height="46.5938" rx="2.5" ry="2.5" style="stroke:#181818;stroke-width:0.5;" width="107" x="568.5" y="332.6563"/><text fill="#000000" font-family="sans-serif" font-size="14" lengthAdjust="spacing" textLength="84" x="580" y="352.6514">repositories</text><text fill="#000000" font-family="sans-serif" font-size="14" lengthAdjust="spacing" textLength="93" x="575.5" y="368.9482">:Repositories</text><rect fill="#FFFFFF" height="239.9297" style="stroke:#181818;stroke-width:1.0;" width="10" x="270" y="83.7266"/><rect fill="#FFFFFF" height="156.6641" style="stroke:#181818;stroke-width:1.0;" width="10" x="275" y="144.9922"/><rect fill="#FFFFFF" height="29.1328" style="stroke:#181818;stroke-width:1.0;" width="10" x="500" y="179.125"/><rect fill="#FFFFFF" height="29.1328" style="stroke:#181818;stroke-width:1.0;" width="10" x="617" y="237.3906"/><polygon fill="#181818" points="258,79.7266,268,83.7266,258,87.7266,262,83.7266" style="stroke:#181818;stroke-width:1.0;"/><line style="stroke:#181818;stroke-width:1.0;" x1="0" x2="264" y1="83.7266" y2="83.7266"/><text fill="#000000" font-family="sans-serif" font-size="13" font-weight="bold" lengthAdjust="spacing" textLength="9" x="7" y="78.6606">3</text><text fill="#000000" font-family="sans-serif" font-size="13" lengthAdjust="spacing" textLength="238" x="20" y="78.6606">registerGreenSpace(name,size,area)</text><path d="M146.5,98.7266 L393.5,98.7266 L393.5,105.8594 L383.5,115.8594 L146.5,115.8594 L146.5,98.7266 " fill="#EEEEEE" style="stroke:#000000;stroke-width:1.5;"/><rect fill="none" height="217.9297" style="stroke:#000000;stroke-width:1.5;" width="539" x="146.5" y="98.7266"/><text fill="#000000" font-family="sans-serif" font-size="13" font-weight="bold" lengthAdjust="spacing" textLength="202" x="161.5" y="111.7935">Get GreenSpace Repository</text><line style="stroke:#181818;stroke-width:1.0;" x1="280" x2="327" y1="131.9922" y2="131.9922"/><line style="stroke:#181818;stroke-width:1.0;" x1="327" x2="327" y1="131.9922" y2="144.9922"/><line style="stroke:#181818;stroke-width:1.0;" x1="286" x2="327" y1="144.9922" y2="144.9922"/><polygon fill="#181818" points="296,140.9922,286,144.9922,296,148.9922,292,144.9922" style="stroke:#181818;stroke-width:1.0;"/><text fill="#000000" font-family="sans-serif" font-size="13" font-weight="bold" lengthAdjust="spacing" textLength="23" x="292" y="126.9263">3.1</text><text fill="#000000" font-family="sans-serif" font-size="13" lengthAdjust="spacing" textLength="179" x="319" y="126.9263">getGreenSpaceRepository()</text><polygon fill="#181818" points="488,175.125,498,179.125,488,183.125,492,179.125" style="stroke:#181818;stroke-width:1.0;"/><line style="stroke:#181818;stroke-width:1.0;" x1="285" x2="494" y1="179.125" y2="179.125"/><text fill="#000000" font-family="sans-serif" font-size="13" font-weight="bold" lengthAdjust="spacing" textLength="23" x="292" y="174.0591">3.2</text><text fill="#000000" font-family="sans-serif" font-size="13" lengthAdjust="spacing" textLength="86" x="319" y="174.0591">getInstance()</text><polygon fill="#181818" points="296,204.2578,286,208.2578,296,212.2578,292,208.2578" style="stroke:#181818;stroke-width:1.0;"/><line style="stroke:#181818;stroke-width:1.0;stroke-dasharray:2.0,2.0;" x1="290" x2="504" y1="208.2578" y2="208.2578"/><text fill="#000000" font-family="sans-serif" font-size="13" font-weight="bold" lengthAdjust="spacing" textLength="23" x="302" y="203.1919">3.3</text><text fill="#000000" font-family="sans-serif" font-size="13" lengthAdjust="spacing" textLength="77" x="329" y="203.1919">repositories</text><polygon fill="#181818" points="605,233.3906,615,237.3906,605,241.3906,609,237.3906" style="stroke:#181818;stroke-width:1.0;"/><line style="stroke:#181818;stroke-width:1.0;" x1="285" x2="611" y1="237.3906" y2="237.3906"/><text fill="#000000" font-family="sans-serif" font-size="13" font-weight="bold" lengthAdjust="spacing" textLength="23" x="292" y="232.3247">3.4</text><text fill="#000000" font-family="sans-serif" font-size="13" lengthAdjust="spacing" textLength="179" x="319" y="232.3247">getGreenSpaceRepository()</text><polygon fill="#181818" points="296,262.5234,286,266.5234,296,270.5234,292,266.5234" style="stroke:#181818;stroke-width:1.0;"/><line style="stroke:#181818;stroke-width:1.0;stroke-dasharray:2.0,2.0;" x1="290" x2="621" y1="266.5234" y2="266.5234"/><text fill="#000000" font-family="sans-serif" font-size="13" font-weight="bold" lengthAdjust="spacing" textLength="23" x="302" y="261.4575">3.5</text><text fill="#000000" font-family="sans-serif" font-size="13" lengthAdjust="spacing" textLength="146" x="329" y="261.4575">greenSpaceRepository</text><line style="stroke:#181818;stroke-width:1.0;stroke-dasharray:2.0,2.0;" x1="285" x2="327" y1="300.6563" y2="300.6563"/><line style="stroke:#181818;stroke-width:1.0;stroke-dasharray:2.0,2.0;" x1="327" x2="327" y1="300.6563" y2="313.6563"/><line style="stroke:#181818;stroke-width:1.0;stroke-dasharray:2.0,2.0;" x1="280" x2="327" y1="313.6563" y2="313.6563"/><polygon fill="#181818" points="290,309.6563,280,313.6563,290,317.6563,286,313.6563" style="stroke:#181818;stroke-width:1.0;"/><text fill="#000000" font-family="sans-serif" font-size="13" font-weight="bold" lengthAdjust="spacing" textLength="23" x="292" y="295.5903">3.6</text><text fill="#000000" font-family="sans-serif" font-size="13" lengthAdjust="spacing" textLength="146" x="319" y="295.5903">greenSpaceRepository</text><!--SRC=[ZP8nJyCm48Nt-nMdBhGIHK8mTK127Iga3gZjo79DhgxLn8xE5w3yUjA49Ww911ulxtttx9TmiguWeHnpxtno59ypgfGCeVrIK78YmrizPup2YP8pMIm8HqhzXtK63vG51g1IlIlpFGl0pT6cZ0VlTUy_0Ig7siGMv1GdYmqR6vHb9SnkMotYfNSgFijO9aW1bxlDUk0fVB3gnNAeDUtWlBMNPDNklaKYnviR0bxNpxiuD3u00CwVwksua478gQESRuFzubiIfbdFUtSFbAXz9-KcFbR7Y2yBNB5YHuc20zIhsfLeM3jXfvlEQbgV3_NiSgwGaHTfc2ykLErL5vYrdfOrzeojQemu_ucxmFY1MqlA_qDVGrzQ-FFclSHDRzTnxUyocH78MBO-f0aJzJ16WL-8g0LsQTDGzqCyma3w3G00]--></g></svg>