<?xml version="1.0" encoding="us-ascii" standalone="no"?><svg xmlns="http://www.w3.org/2000/svg" xmlns:xlink="http://www.w3.org/1999/xlink" contentStyleType="text/css" height="655px" preserveAspectRatio="none" style="width:1165px;height:655px;background:#FFFFFF;" version="1.1" viewBox="0 0 1165 655" width="1165px" zoomAndPan="magnify"><defs/><g><text fill="#000000" font-family="sans-serif" font-size="14" font-weight="bold" lengthAdjust="spacing" textLength="363" x="398.5" y="27.9951">UI Sequence Diagram (SSD) - Alternative One</text><rect fill="#FFFFFF" height="436.9609" style="stroke:#181818;stroke-width:1.0;" width="10" x="82.5" y="128.5938"/><rect fill="#FFFFFF" height="70.4297" style="stroke:#181818;stroke-width:1.0;" width="10" x="325.5" y="149.7266"/><rect fill="#FFFFFF" height="44.2656" style="stroke:#181818;stroke-width:1.0;" width="10" x="325.5" y="249.2891"/><rect fill="#FFFFFF" height="233.8672" style="stroke:#181818;stroke-width:1.0;" width="10" x="325.5" y="322.6875"/><rect fill="#FFFFFF" height="175.6016" style="stroke:#181818;stroke-width:1.0;" width="10" x="605.5" y="351.8203"/><rect fill="#FFFFFF" height="73.2344" style="stroke:#181818;stroke-width:1.0;" width="10" x="1059.5" y="425.0547"/><line style="stroke:#181818;stroke-width:0.5;stroke-dasharray:5.0,5.0;" x1="87" x2="87" y1="118.5938" y2="574.5547"/><line style="stroke:#181818;stroke-width:0.5;stroke-dasharray:5.0,5.0;" x1="330.5" x2="330.5" y1="118.5938" y2="574.5547"/><line style="stroke:#181818;stroke-width:0.5;stroke-dasharray:5.0,5.0;" x1="610" x2="610" y1="188.375" y2="574.5547"/><line style="stroke:#181818;stroke-width:0.5;stroke-dasharray:5.0,5.0;" x1="792" x2="792" y1="118.5938" y2="574.5547"/><line style="stroke:#181818;stroke-width:0.5;stroke-dasharray:5.0,5.0;" x1="909" x2="909" y1="118.5938" y2="574.5547"/><line style="stroke:#181818;stroke-width:0.5;stroke-dasharray:5.0,5.0;" x1="1064" x2="1064" y1="118.5938" y2="574.5547"/><text fill="#000000" font-family="sans-serif" font-size="14" lengthAdjust="spacing" textLength="159" x="5" y="115.292">Green Space Manager</text><ellipse cx="87.5" cy="50.7969" fill="#E3E3E3" rx="8" ry="8" style="stroke:#181818;stroke-width:0.5;"/><path d="M87.5,58.7969 L87.5,85.7969 M74.5,66.7969 L100.5,66.7969 M87.5,85.7969 L74.5,100.7969 M87.5,85.7969 L100.5,100.7969 " fill="none" style="stroke:#181818;stroke-width:0.5;"/><text fill="#000000" font-family="sans-serif" font-size="14" lengthAdjust="spacing" textLength="159" x="5" y="586.5498">Green Space Manager</text><ellipse cx="87.5" cy="598.3516" fill="#E3E3E3" rx="8" ry="8" style="stroke:#181818;stroke-width:0.5;"/><path d="M87.5,606.3516 L87.5,633.3516 M74.5,614.3516 L100.5,614.3516 M87.5,633.3516 L74.5,648.3516 M87.5,633.3516 L100.5,648.3516 " fill="none" style="stroke:#181818;stroke-width:0.5;"/><rect fill="#E3E3E3" height="30.2969" rx="2.5" ry="2.5" style="stroke:#181818;stroke-width:0.5;" width="180" x="240.5" y="87.2969"/><text fill="#000000" font-family="sans-serif" font-size="14" lengthAdjust="spacing" textLength="166" x="247.5" y="107.292">:RegisterGreenSpaceUI</text><rect fill="#E3E3E3" height="30.2969" rx="2.5" ry="2.5" style="stroke:#181818;stroke-width:0.5;" width="180" x="240.5" y="573.5547"/><text fill="#000000" font-family="sans-serif" font-size="14" lengthAdjust="spacing" textLength="166" x="247.5" y="593.5498">:RegisterGreenSpaceUI</text><rect fill="#E3E3E3" height="30.2969" rx="2.5" ry="2.5" style="stroke:#181818;stroke-width:0.5;" width="237" x="492" y="573.5547"/><text fill="#000000" font-family="sans-serif" font-size="14" lengthAdjust="spacing" textLength="223" x="499" y="593.5498">:RegisterGreenSpaceController</text><rect fill="#E3E3E3" height="30.2969" rx="2.5" ry="2.5" style="stroke:#181818;stroke-width:0.5;" width="107" x="739" y="87.2969"/><text fill="#000000" font-family="sans-serif" font-size="14" lengthAdjust="spacing" textLength="93" x="746" y="107.292">:Repositories</text><rect fill="#E3E3E3" height="30.2969" rx="2.5" ry="2.5" style="stroke:#181818;stroke-width:0.5;" width="107" x="739" y="573.5547"/><text fill="#000000" font-family="sans-serif" font-size="14" lengthAdjust="spacing" textLength="93" x="746" y="593.5498">:Repositories</text><rect fill="#E3E3E3" height="46.5938" rx="2.5" ry="2.5" style="stroke:#181818;stroke-width:0.5;" width="107" x="856" y="71"/><text fill="#000000" font-family="sans-serif" font-size="14" lengthAdjust="spacing" textLength="84" x="867.5" y="90.9951">repositories</text><text fill="#000000" font-family="sans-serif" font-size="14" lengthAdjust="spacing" textLength="93" x="863" y="107.292">:Repositories</text><rect fill="#E3E3E3" height="46.5938" rx="2.5" ry="2.5" style="stroke:#181818;stroke-width:0.5;" width="107" x="856" y="573.5547"/><text fill="#000000" font-family="sans-serif" font-size="14" lengthAdjust="spacing" textLength="84" x="867.5" y="593.5498">repositories</text><text fill="#000000" font-family="sans-serif" font-size="14" lengthAdjust="spacing" textLength="93" x="863" y="609.8467">:Repositories</text><rect fill="#E3E3E3" height="46.5938" rx="2.5" ry="2.5" style="stroke:#181818;stroke-width:0.5;" width="183" x="973" y="71"/><text fill="#000000" font-family="sans-serif" font-size="14" lengthAdjust="spacing" textLength="162" x="983.5" y="90.9951">greenSpaceRepository</text><text fill="#000000" font-family="sans-serif" font-size="14" lengthAdjust="spacing" textLength="169" x="980" y="107.292">:GreenSpaceRepository</text><rect fill="#E3E3E3" height="46.5938" rx="2.5" ry="2.5" style="stroke:#181818;stroke-width:0.5;" width="183" x="973" y="573.5547"/><text fill="#000000" font-family="sans-serif" font-size="14" lengthAdjust="spacing" textLength="162" x="983.5" y="593.5498">greenSpaceRepository</text><text fill="#000000" font-family="sans-serif" font-size="14" lengthAdjust="spacing" textLength="169" x="980" y="609.8467">:GreenSpaceRepository</text><rect fill="#FFFFFF" height="436.9609" style="stroke:#181818;stroke-width:1.0;" width="10" x="82.5" y="128.5938"/><rect fill="#FFFFFF" height="70.4297" style="stroke:#181818;stroke-width:1.0;" width="10" x="325.5" y="149.7266"/><rect fill="#FFFFFF" height="44.2656" style="stroke:#181818;stroke-width:1.0;" width="10" x="325.5" y="249.2891"/><rect fill="#FFFFFF" height="233.8672" style="stroke:#181818;stroke-width:1.0;" width="10" x="325.5" y="322.6875"/><rect fill="#FFFFFF" height="175.6016" style="stroke:#181818;stroke-width:1.0;" width="10" x="605.5" y="351.8203"/><rect fill="#FFFFFF" height="73.2344" style="stroke:#181818;stroke-width:1.0;" width="10" x="1059.5" y="425.0547"/><polygon fill="#181818" points="313.5,145.7266,323.5,149.7266,313.5,153.7266,317.5,149.7266" style="stroke:#181818;stroke-width:1.0;"/><line style="stroke:#181818;stroke-width:1.0;" x1="92.5" x2="319.5" y1="149.7266" y2="149.7266"/><text fill="#000000" font-family="sans-serif" font-size="13" font-weight="bold" lengthAdjust="spacing" textLength="9" x="99.5" y="144.6606">1</text><text fill="#000000" font-family="sans-serif" font-size="13" lengthAdjust="spacing" textLength="189" x="112.5" y="144.6606">ask to register a green space</text><polygon fill="#181818" points="480,174.8594,490,178.8594,480,182.8594,484,178.8594" style="stroke:#181818;stroke-width:1.0;"/><line style="stroke:#181818;stroke-width:1.0;" x1="335.5" x2="486" y1="178.8594" y2="178.8594"/><text fill="#000000" font-family="sans-serif" font-size="13" font-weight="bold" lengthAdjust="spacing" textLength="9" x="342.5" y="173.7935">2</text><text fill="#000000" font-family="sans-serif" font-size="13" lengthAdjust="spacing" textLength="41" x="355.5" y="173.7935">create</text><rect fill="#E3E3E3" height="30.2969" rx="2.5" ry="2.5" style="stroke:#181818;stroke-width:0.5;" width="237" x="492" y="157.7266"/><text fill="#000000" font-family="sans-serif" font-size="14" lengthAdjust="spacing" textLength="223" x="499" y="177.7217">:RegisterGreenSpaceController</text><polygon fill="#181818" points="103.5,216.1563,93.5,220.1563,103.5,224.1563,99.5,220.1563" style="stroke:#181818;stroke-width:1.0;"/><line style="stroke:#181818;stroke-width:1.0;stroke-dasharray:2.0,2.0;" x1="97.5" x2="329.5" y1="220.1563" y2="220.1563"/><text fill="#000000" font-family="sans-serif" font-size="13" font-weight="bold" lengthAdjust="spacing" textLength="9" x="109.5" y="215.0903">3</text><text fill="#000000" font-family="sans-serif" font-size="13" lengthAdjust="spacing" textLength="196" x="122.5" y="215.0903">request data (name,size,area)</text><polygon fill="#181818" points="313.5,245.2891,323.5,249.2891,313.5,253.2891,317.5,249.2891" style="stroke:#181818;stroke-width:1.0;"/><line style="stroke:#181818;stroke-width:1.0;" x1="92.5" x2="319.5" y1="249.2891" y2="249.2891"/><text fill="#000000" font-family="sans-serif" font-size="13" font-weight="bold" lengthAdjust="spacing" textLength="9" x="99.5" y="244.2231">4</text><text fill="#000000" font-family="sans-serif" font-size="13" lengthAdjust="spacing" textLength="138" x="112.5" y="244.2231">types requested data</text><polygon fill="#181818" points="103.5,289.5547,93.5,293.5547,103.5,297.5547,99.5,293.5547" style="stroke:#181818;stroke-width:1.0;"/><line style="stroke:#181818;stroke-width:1.0;stroke-dasharray:2.0,2.0;" x1="97.5" x2="329.5" y1="293.5547" y2="293.5547"/><text fill="#000000" font-family="sans-serif" font-size="13" font-weight="bold" lengthAdjust="spacing" textLength="9" x="109.5" y="280.9224">5</text><text fill="#000000" font-family="sans-serif" font-size="13" lengthAdjust="spacing" textLength="157" x="122.5" y="273.356">show all data registered</text><text fill="#000000" font-family="sans-serif" font-size="13" lengthAdjust="spacing" textLength="177" x="126.5" y="288.4888">and the confirmation menu</text><polygon fill="#181818" points="313.5,318.6875,323.5,322.6875,313.5,326.6875,317.5,322.6875" style="stroke:#181818;stroke-width:1.0;"/><line style="stroke:#181818;stroke-width:1.0;" x1="92.5" x2="319.5" y1="322.6875" y2="322.6875"/><text fill="#000000" font-family="sans-serif" font-size="13" font-weight="bold" lengthAdjust="spacing" textLength="9" x="99.5" y="317.6216">6</text><text fill="#000000" font-family="sans-serif" font-size="13" lengthAdjust="spacing" textLength="85" x="112.5" y="317.6216">submits data</text><polygon fill="#181818" points="593.5,347.8203,603.5,351.8203,593.5,355.8203,597.5,351.8203" style="stroke:#181818;stroke-width:1.0;"/><line style="stroke:#181818;stroke-width:1.0;" x1="335.5" x2="599.5" y1="351.8203" y2="351.8203"/><text fill="#000000" font-family="sans-serif" font-size="13" font-weight="bold" lengthAdjust="spacing" textLength="9" x="342.5" y="346.7544">7</text><text fill="#000000" font-family="sans-serif" font-size="13" lengthAdjust="spacing" textLength="238" x="355.5" y="346.7544">registerGreenSpace(name,size,area)</text><rect fill="none" height="39.1016" style="stroke:#000000;stroke-width:1.5;" width="243" x="489" y="359.8203"/><path d="M489,359.8203 L555,359.8203 L555,366.8203 L545,376.8203 L489,376.8203 L489,359.8203 " fill="#EEEEEE" style="stroke:#000000;stroke-width:2.0;"/><text fill="#000000" font-family="sans-serif" font-size="13" font-weight="bold" lengthAdjust="spacing" textLength="21" x="502" y="373.8872">ref</text><text fill="#000000" font-family="sans-serif" font-size="12" lengthAdjust="spacing" textLength="165" x="528" y="391.959">Get GreenSpace Repository</text><polygon fill="#181818" points="1047.5,421.0547,1057.5,425.0547,1047.5,429.0547,1051.5,425.0547" style="stroke:#181818;stroke-width:1.0;"/><line style="stroke:#181818;stroke-width:1.0;" x1="615.5" x2="1053.5" y1="425.0547" y2="425.0547"/><text fill="#000000" font-family="sans-serif" font-size="13" font-weight="bold" lengthAdjust="spacing" textLength="9" x="622.5" y="419.9888">8</text><text fill="#000000" font-family="sans-serif" font-size="13" lengthAdjust="spacing" textLength="238" x="635.5" y="419.9888">registerGreenSpace(name,size,area)</text><rect fill="none" height="39.1016" style="stroke:#000000;stroke-width:1.5;" width="189" x="970" y="433.0547"/><path d="M970,433.0547 L1036,433.0547 L1036,440.0547 L1026,450.0547 L970,450.0547 L970,433.0547 " fill="#EEEEEE" style="stroke:#000000;stroke-width:2.0;"/><text fill="#000000" font-family="sans-serif" font-size="13" font-weight="bold" lengthAdjust="spacing" textLength="21" x="983" y="447.1216">ref</text><text fill="#000000" font-family="sans-serif" font-size="12" lengthAdjust="spacing" textLength="130" x="999.5" y="465.1934">Register Green Space</text><polygon fill="#181818" points="626.5,494.2891,616.5,498.2891,626.5,502.2891,622.5,498.2891" style="stroke:#181818;stroke-width:1.0;"/><line style="stroke:#181818;stroke-width:1.0;stroke-dasharray:2.0,2.0;" x1="620.5" x2="1063.5" y1="498.2891" y2="498.2891"/><text fill="#000000" font-family="sans-serif" font-size="13" font-weight="bold" lengthAdjust="spacing" textLength="9" x="632.5" y="493.2231">9</text><text fill="#000000" font-family="sans-serif" font-size="13" lengthAdjust="spacing" textLength="76" x="645.5" y="493.2231">greenSpace</text><polygon fill="#181818" points="346.5,523.4219,336.5,527.4219,346.5,531.4219,342.5,527.4219" style="stroke:#181818;stroke-width:1.0;"/><line style="stroke:#181818;stroke-width:1.0;stroke-dasharray:2.0,2.0;" x1="340.5" x2="609.5" y1="527.4219" y2="527.4219"/><text fill="#000000" font-family="sans-serif" font-size="13" font-weight="bold" lengthAdjust="spacing" textLength="18" x="352.5" y="522.356">10</text><text fill="#000000" font-family="sans-serif" font-size="13" lengthAdjust="spacing" textLength="76" x="374.5" y="522.356">greenSpace</text><polygon fill="#181818" points="103.5,552.5547,93.5,556.5547,103.5,560.5547,99.5,556.5547" style="stroke:#181818;stroke-width:1.0;"/><line style="stroke:#181818;stroke-width:1.0;stroke-dasharray:2.0,2.0;" x1="97.5" x2="329.5" y1="556.5547" y2="556.5547"/><text fill="#000000" font-family="sans-serif" font-size="13" font-weight="bold" lengthAdjust="spacing" textLength="18" x="109.5" y="551.4888">11</text><text fill="#000000" font-family="sans-serif" font-size="13" lengthAdjust="spacing" textLength="184" x="131.5" y="551.4888">shows operation (in)success</text><!--SRC=[dLF1Jkj03BpdAwoUMaH_e8Sd8K1L9H1FXDwuc8sRhffumwvJrFVrpzcGfAMfGFIKsfxnP3m9EyiLUYoXTEpCrhkIG7nDIUWx5PeTvfJAeI3mP0GvBuu7mXOpzs4vXmqMWP94hEZeUWKflTV4Xk3EOjwCJjFqRWPpk2c4FAFOFS4JAmHhSLoNR-JrsOZpC5bw8ePKrnCy8gi4Fm4CS5zMXJiG9RfThB4Lii1ayKov3SeQOH6rNiNvzUhRoLl7ubrHV6wuVNb-ECDKBbZLPId4cRvmI6tZXye_XVWZn2kV4_nzk7avHUIzde5SaSkHScGOcq-YVNQFGeDH2UYl-mVpFyrf5igm0t5wqTODm9OGGiCO8JsJMXWBYbDqOy_LbJ8OJzfjMrrR-_scXP9h0890Xe8mPIpfEjX_T8sAd4LSHcTRpfJAeQBGSL4MsP9nXUComjPz01P5gwDxOyfU6P0pa2s1SRonljH8EeQIkFwnkb2_bLP2g-eRsw8bNzCtwajF4iCOIvusuFPwgLXgAaiI67YECXcxfA-cc1OSjwkAiT3yGjM5x9t879rf9heF48u-yLF5BTEerlbWvT3_UgoBgriRkjDT9XXSlvoe0AuYtoPcQdaMQcCeX97W_0S0]--></g></svg>