<?xml version="1.0" encoding="us-ascii" standalone="no"?><svg xmlns="http://www.w3.org/2000/svg" xmlns:xlink="http://www.w3.org/1999/xlink" contentStyleType="text/css" height="1067px" preserveAspectRatio="none" style="width:1460px;height:1067px;background:#FFFFFF;" version="1.1" viewBox="0 0 1460 1067" width="1460px" zoomAndPan="magnify"><defs/><g><text fill="#000000" font-family="sans-serif" font-size="14" font-weight="bold" lengthAdjust="spacing" textLength="363" x="547.5" y="27.9951">UI Sequence Diagram (SSD) - Alternative One</text><rect fill="#FFFFFF" height="849.0781" style="stroke:#181818;stroke-width:1.0;" width="10" x="82.5" y="128.5938"/><rect fill="#FFFFFF" height="70.4297" style="stroke:#181818;stroke-width:1.0;" width="10" x="350.5" y="149.7266"/><rect fill="#FFFFFF" height="44.2656" style="stroke:#181818;stroke-width:1.0;" width="10" x="350.5" y="249.2891"/><rect fill="#FFFFFF" height="44.2656" style="stroke:#181818;stroke-width:1.0;" width="10" x="350.5" y="322.6875"/><rect fill="#FFFFFF" height="572.5859" style="stroke:#181818;stroke-width:1.0;" width="10" x="350.5" y="396.0859"/><rect fill="#FFFFFF" height="514.3203" style="stroke:#181818;stroke-width:1.0;" width="10" x="630.5" y="425.2188"/><rect fill="#FFFFFF" height="156.6641" style="stroke:#181818;stroke-width:1.0;" width="10" x="635.5" y="462.3516"/><rect fill="#FFFFFF" height="29.1328" style="stroke:#181818;stroke-width:1.0;" width="10" x="855.5" y="496.4844"/><rect fill="#FFFFFF" height="29.1328" style="stroke:#181818;stroke-width:1.0;" width="10" x="972.5" y="554.75"/><rect fill="#FFFFFF" height="255.2578" style="stroke:#181818;stroke-width:1.0;" width="10" x="1127.5" y="655.1484"/><rect fill="#FFFFFF" height="124.3984" style="stroke:#181818;stroke-width:1.0;" width="10" x="1132.5" y="749.875"/><rect fill="#FFFFFF" height="40.1328" style="stroke:#181818;stroke-width:1.0;" width="10" x="1137.5" y="792.0078"/><line style="stroke:#181818;stroke-width:0.5;stroke-dasharray:5.0,5.0;" x1="87" x2="87" y1="118.5938" y2="986.6719"/><line style="stroke:#181818;stroke-width:0.5;stroke-dasharray:5.0,5.0;" x1="355.5" x2="355.5" y1="118.5938" y2="986.6719"/><line style="stroke:#181818;stroke-width:0.5;stroke-dasharray:5.0,5.0;" x1="635" x2="635" y1="188.375" y2="986.6719"/><line style="stroke:#181818;stroke-width:0.5;stroke-dasharray:5.0,5.0;" x1="860" x2="860" y1="118.5938" y2="986.6719"/><line style="stroke:#181818;stroke-width:0.5;stroke-dasharray:5.0,5.0;" x1="977" x2="977" y1="118.5938" y2="986.6719"/><line style="stroke:#181818;stroke-width:0.5;stroke-dasharray:5.0,5.0;" x1="1132" x2="1132" y1="118.5938" y2="986.6719"/><line style="stroke:#181818;stroke-width:0.5;stroke-dasharray:5.0,5.0;" x1="1400" x2="1400" y1="701.9453" y2="986.6719"/><text fill="#000000" font-family="sans-serif" font-size="14" lengthAdjust="spacing" textLength="159" x="5" y="115.292">Green Space Manager</text><ellipse cx="87.5" cy="50.7969" fill="#E3E3E3" rx="8" ry="8" style="stroke:#181818;stroke-width:0.5;"/><path d="M87.5,58.7969 L87.5,85.7969 M74.5,66.7969 L100.5,66.7969 M87.5,85.7969 L74.5,100.7969 M87.5,85.7969 L100.5,100.7969 " fill="none" style="stroke:#181818;stroke-width:0.5;"/><text fill="#000000" font-family="sans-serif" font-size="14" lengthAdjust="spacing" textLength="159" x="5" y="998.667">Green Space Manager</text><ellipse cx="87.5" cy="1010.4688" fill="#E3E3E3" rx="8" ry="8" style="stroke:#181818;stroke-width:0.5;"/><path d="M87.5,1018.4688 L87.5,1045.4688 M74.5,1026.4688 L100.5,1026.4688 M87.5,1045.4688 L74.5,1060.4688 M87.5,1045.4688 L100.5,1060.4688 " fill="none" style="stroke:#181818;stroke-width:0.5;"/><rect fill="#E3E3E3" height="30.2969" rx="2.5" ry="2.5" style="stroke:#181818;stroke-width:0.5;" width="180" x="265.5" y="87.2969"/><text fill="#000000" font-family="sans-serif" font-size="14" lengthAdjust="spacing" textLength="166" x="272.5" y="107.292">:RegisterGreenSpaceUI</text><rect fill="#E3E3E3" height="30.2969" rx="2.5" ry="2.5" style="stroke:#181818;stroke-width:0.5;" width="180" x="265.5" y="985.6719"/><text fill="#000000" font-family="sans-serif" font-size="14" lengthAdjust="spacing" textLength="166" x="272.5" y="1005.667">:RegisterGreenSpaceUI</text><rect fill="#E3E3E3" height="30.2969" rx="2.5" ry="2.5" style="stroke:#181818;stroke-width:0.5;" width="237" x="517" y="985.6719"/><text fill="#000000" font-family="sans-serif" font-size="14" lengthAdjust="spacing" textLength="223" x="524" y="1005.667">:RegisterGreenSpaceController</text><rect fill="#E3E3E3" height="30.2969" rx="2.5" ry="2.5" style="stroke:#181818;stroke-width:0.5;" width="107" x="807" y="87.2969"/><text fill="#000000" font-family="sans-serif" font-size="14" lengthAdjust="spacing" textLength="93" x="814" y="107.292">:Repositories</text><rect fill="#E3E3E3" height="30.2969" rx="2.5" ry="2.5" style="stroke:#181818;stroke-width:0.5;" width="107" x="807" y="985.6719"/><text fill="#000000" font-family="sans-serif" font-size="14" lengthAdjust="spacing" textLength="93" x="814" y="1005.667">:Repositories</text><rect fill="#E3E3E3" height="46.5938" rx="2.5" ry="2.5" style="stroke:#181818;stroke-width:0.5;" width="107" x="924" y="71"/><text fill="#000000" font-family="sans-serif" font-size="14" lengthAdjust="spacing" textLength="84" x="935.5" y="90.9951">repositories</text><text fill="#000000" font-family="sans-serif" font-size="14" lengthAdjust="spacing" textLength="93" x="931" y="107.292">:Repositories</text><rect fill="#E3E3E3" height="46.5938" rx="2.5" ry="2.5" style="stroke:#181818;stroke-width:0.5;" width="107" x="924" y="985.6719"/><text fill="#000000" font-family="sans-serif" font-size="14" lengthAdjust="spacing" textLength="84" x="935.5" y="1005.667">repositories</text><text fill="#000000" font-family="sans-serif" font-size="14" lengthAdjust="spacing" textLength="93" x="931" y="1021.9639">:Repositories</text><rect fill="#E3E3E3" height="46.5938" rx="2.5" ry="2.5" style="stroke:#181818;stroke-width:0.5;" width="183" x="1041" y="71"/><text fill="#000000" font-family="sans-serif" font-size="14" lengthAdjust="spacing" textLength="162" x="1051.5" y="90.9951">greenSpaceRepository</text><text fill="#000000" font-family="sans-serif" font-size="14" lengthAdjust="spacing" textLength="169" x="1048" y="107.292">:GreenSpaceRepository</text><rect fill="#E3E3E3" height="46.5938" rx="2.5" ry="2.5" style="stroke:#181818;stroke-width:0.5;" width="183" x="1041" y="985.6719"/><text fill="#000000" font-family="sans-serif" font-size="14" lengthAdjust="spacing" textLength="162" x="1051.5" y="1005.667">greenSpaceRepository</text><text fill="#000000" font-family="sans-serif" font-size="14" lengthAdjust="spacing" textLength="169" x="1048" y="1021.9639">:GreenSpaceRepository</text><rect fill="#E3E3E3" height="46.5938" rx="2.5" ry="2.5" style="stroke:#181818;stroke-width:0.5;" width="107" x="1347" y="985.6719"/><text fill="#000000" font-family="sans-serif" font-size="14" lengthAdjust="spacing" textLength="86" x="1357.5" y="1005.667">greenSpace</text><text fill="#000000" font-family="sans-serif" font-size="14" lengthAdjust="spacing" textLength="93" x="1354" y="1021.9639">:GreenSpace</text><rect fill="#FFFFFF" height="849.0781" style="stroke:#181818;stroke-width:1.0;" width="10" x="82.5" y="128.5938"/><rect fill="#FFFFFF" height="70.4297" style="stroke:#181818;stroke-width:1.0;" width="10" x="350.5" y="149.7266"/><rect fill="#FFFFFF" height="44.2656" style="stroke:#181818;stroke-width:1.0;" width="10" x="350.5" y="249.2891"/><rect fill="#FFFFFF" height="44.2656" style="stroke:#181818;stroke-width:1.0;" width="10" x="350.5" y="322.6875"/><rect fill="#FFFFFF" height="572.5859" style="stroke:#181818;stroke-width:1.0;" width="10" x="350.5" y="396.0859"/><rect fill="#FFFFFF" height="514.3203" style="stroke:#181818;stroke-width:1.0;" width="10" x="630.5" y="425.2188"/><rect fill="#FFFFFF" height="156.6641" style="stroke:#181818;stroke-width:1.0;" width="10" x="635.5" y="462.3516"/><rect fill="#FFFFFF" height="29.1328" style="stroke:#181818;stroke-width:1.0;" width="10" x="855.5" y="496.4844"/><rect fill="#FFFFFF" height="29.1328" style="stroke:#181818;stroke-width:1.0;" width="10" x="972.5" y="554.75"/><rect fill="#FFFFFF" height="255.2578" style="stroke:#181818;stroke-width:1.0;" width="10" x="1127.5" y="655.1484"/><rect fill="#FFFFFF" height="124.3984" style="stroke:#181818;stroke-width:1.0;" width="10" x="1132.5" y="749.875"/><rect fill="#FFFFFF" height="40.1328" style="stroke:#181818;stroke-width:1.0;" width="10" x="1137.5" y="792.0078"/><polygon fill="#181818" points="338.5,145.7266,348.5,149.7266,338.5,153.7266,342.5,149.7266" style="stroke:#181818;stroke-width:1.0;"/><line style="stroke:#181818;stroke-width:1.0;" x1="92.5" x2="344.5" y1="149.7266" y2="149.7266"/><text fill="#000000" font-family="sans-serif" font-size="13" font-weight="bold" lengthAdjust="spacing" textLength="9" x="99.5" y="144.6606">1</text><text fill="#000000" font-family="sans-serif" font-size="13" lengthAdjust="spacing" textLength="189" x="112.5" y="144.6606">ask to register a green space</text><polygon fill="#181818" points="505,174.8594,515,178.8594,505,182.8594,509,178.8594" style="stroke:#181818;stroke-width:1.0;"/><line style="stroke:#181818;stroke-width:1.0;" x1="360.5" x2="511" y1="178.8594" y2="178.8594"/><text fill="#000000" font-family="sans-serif" font-size="13" font-weight="bold" lengthAdjust="spacing" textLength="9" x="367.5" y="173.7935">2</text><text fill="#000000" font-family="sans-serif" font-size="13" lengthAdjust="spacing" textLength="41" x="380.5" y="173.7935">create</text><rect fill="#E3E3E3" height="30.2969" rx="2.5" ry="2.5" style="stroke:#181818;stroke-width:0.5;" width="237" x="517" y="157.7266"/><text fill="#000000" font-family="sans-serif" font-size="14" lengthAdjust="spacing" textLength="223" x="524" y="177.7217">:RegisterGreenSpaceController</text><polygon fill="#181818" points="103.5,216.1563,93.5,220.1563,103.5,224.1563,99.5,220.1563" style="stroke:#181818;stroke-width:1.0;"/><line style="stroke:#181818;stroke-width:1.0;stroke-dasharray:2.0,2.0;" x1="97.5" x2="354.5" y1="220.1563" y2="220.1563"/><text fill="#000000" font-family="sans-serif" font-size="13" font-weight="bold" lengthAdjust="spacing" textLength="9" x="109.5" y="215.0903">3</text><text fill="#000000" font-family="sans-serif" font-size="13" lengthAdjust="spacing" textLength="221" x="122.5" y="215.0903">request data (name,area,address)</text><polygon fill="#181818" points="338.5,245.2891,348.5,249.2891,338.5,253.2891,342.5,249.2891" style="stroke:#181818;stroke-width:1.0;"/><line style="stroke:#181818;stroke-width:1.0;" x1="92.5" x2="344.5" y1="249.2891" y2="249.2891"/><text fill="#000000" font-family="sans-serif" font-size="13" font-weight="bold" lengthAdjust="spacing" textLength="9" x="99.5" y="244.2231">4</text><text fill="#000000" font-family="sans-serif" font-size="13" lengthAdjust="spacing" textLength="138" x="112.5" y="244.2231">types requested data</text><polygon fill="#181818" points="103.5,289.5547,93.5,293.5547,103.5,297.5547,99.5,293.5547" style="stroke:#181818;stroke-width:1.0;"/><line style="stroke:#181818;stroke-width:1.0;stroke-dasharray:2.0,2.0;" x1="97.5" x2="354.5" y1="293.5547" y2="293.5547"/><text fill="#000000" font-family="sans-serif" font-size="13" font-weight="bold" lengthAdjust="spacing" textLength="9" x="109.5" y="280.9224">5</text><text fill="#000000" font-family="sans-serif" font-size="13" lengthAdjust="spacing" textLength="164" x="122.5" y="273.356">shows list of sizes option</text><text fill="#000000" font-family="sans-serif" font-size="13" lengthAdjust="spacing" textLength="152" x="126.5" y="288.4888">and request a selection</text><polygon fill="#181818" points="338.5,318.6875,348.5,322.6875,338.5,326.6875,342.5,322.6875" style="stroke:#181818;stroke-width:1.0;"/><line style="stroke:#181818;stroke-width:1.0;" x1="92.5" x2="344.5" y1="322.6875" y2="322.6875"/><text fill="#000000" font-family="sans-serif" font-size="13" font-weight="bold" lengthAdjust="spacing" textLength="9" x="99.5" y="317.6216">6</text><text fill="#000000" font-family="sans-serif" font-size="13" lengthAdjust="spacing" textLength="104" x="112.5" y="317.6216">select an option</text><polygon fill="#181818" points="103.5,362.9531,93.5,366.9531,103.5,370.9531,99.5,366.9531" style="stroke:#181818;stroke-width:1.0;"/><line style="stroke:#181818;stroke-width:1.0;stroke-dasharray:2.0,2.0;" x1="97.5" x2="354.5" y1="366.9531" y2="366.9531"/><text fill="#000000" font-family="sans-serif" font-size="13" font-weight="bold" lengthAdjust="spacing" textLength="9" x="109.5" y="354.3208">7</text><text fill="#000000" font-family="sans-serif" font-size="13" lengthAdjust="spacing" textLength="157" x="122.5" y="346.7544">show all data registered</text><text fill="#000000" font-family="sans-serif" font-size="13" lengthAdjust="spacing" textLength="177" x="126.5" y="361.8872">and the confirmation menu</text><polygon fill="#181818" points="338.5,392.0859,348.5,396.0859,338.5,400.0859,342.5,396.0859" style="stroke:#181818;stroke-width:1.0;"/><line style="stroke:#181818;stroke-width:1.0;" x1="92.5" x2="344.5" y1="396.0859" y2="396.0859"/><text fill="#000000" font-family="sans-serif" font-size="13" font-weight="bold" lengthAdjust="spacing" textLength="9" x="99.5" y="391.02">8</text><text fill="#000000" font-family="sans-serif" font-size="13" lengthAdjust="spacing" textLength="85" x="112.5" y="391.02">submits data</text><polygon fill="#181818" points="618.5,421.2188,628.5,425.2188,618.5,429.2188,622.5,425.2188" style="stroke:#181818;stroke-width:1.0;"/><line style="stroke:#181818;stroke-width:1.0;" x1="360.5" x2="624.5" y1="425.2188" y2="425.2188"/><text fill="#000000" font-family="sans-serif" font-size="13" font-weight="bold" lengthAdjust="spacing" textLength="9" x="367.5" y="420.1528">9</text><text fill="#000000" font-family="sans-serif" font-size="13" lengthAdjust="spacing" textLength="238" x="380.5" y="420.1528">registerGreenSpace(name,size,area)</text><line style="stroke:#181818;stroke-width:1.0;" x1="640.5" x2="687.5" y1="449.3516" y2="449.3516"/><line style="stroke:#181818;stroke-width:1.0;" x1="687.5" x2="687.5" y1="449.3516" y2="462.3516"/><line style="stroke:#181818;stroke-width:1.0;" x1="646.5" x2="687.5" y1="462.3516" y2="462.3516"/><polygon fill="#181818" points="656.5,458.3516,646.5,462.3516,656.5,466.3516,652.5,462.3516" style="stroke:#181818;stroke-width:1.0;"/><text fill="#000000" font-family="sans-serif" font-size="13" font-weight="bold" lengthAdjust="spacing" textLength="18" x="652.5" y="444.2856">10</text><text fill="#000000" font-family="sans-serif" font-size="13" lengthAdjust="spacing" textLength="179" x="674.5" y="444.2856">getGreenSpaceRepository()</text><polygon fill="#181818" points="843.5,492.4844,853.5,496.4844,843.5,500.4844,847.5,496.4844" style="stroke:#181818;stroke-width:1.0;"/><line style="stroke:#181818;stroke-width:1.0;" x1="645.5" x2="849.5" y1="496.4844" y2="496.4844"/><text fill="#000000" font-family="sans-serif" font-size="13" font-weight="bold" lengthAdjust="spacing" textLength="18" x="652.5" y="491.4185">11</text><text fill="#000000" font-family="sans-serif" font-size="13" lengthAdjust="spacing" textLength="86" x="674.5" y="491.4185">getInstance()</text><polygon fill="#181818" points="656.5,521.6172,646.5,525.6172,656.5,529.6172,652.5,525.6172" style="stroke:#181818;stroke-width:1.0;"/><line style="stroke:#181818;stroke-width:1.0;stroke-dasharray:2.0,2.0;" x1="650.5" x2="859.5" y1="525.6172" y2="525.6172"/><text fill="#000000" font-family="sans-serif" font-size="13" font-weight="bold" lengthAdjust="spacing" textLength="18" x="662.5" y="520.5513">12</text><text fill="#000000" font-family="sans-serif" font-size="13" lengthAdjust="spacing" textLength="77" x="684.5" y="520.5513">repositories</text><polygon fill="#181818" points="960.5,550.75,970.5,554.75,960.5,558.75,964.5,554.75" style="stroke:#181818;stroke-width:1.0;"/><line style="stroke:#181818;stroke-width:1.0;" x1="645.5" x2="966.5" y1="554.75" y2="554.75"/><text fill="#000000" font-family="sans-serif" font-size="13" font-weight="bold" lengthAdjust="spacing" textLength="18" x="652.5" y="549.6841">13</text><text fill="#000000" font-family="sans-serif" font-size="13" lengthAdjust="spacing" textLength="179" x="674.5" y="549.6841">getGreenSpaceRepository()</text><polygon fill="#181818" points="656.5,579.8828,646.5,583.8828,656.5,587.8828,652.5,583.8828" style="stroke:#181818;stroke-width:1.0;"/><line style="stroke:#181818;stroke-width:1.0;stroke-dasharray:2.0,2.0;" x1="650.5" x2="976.5" y1="583.8828" y2="583.8828"/><text fill="#000000" font-family="sans-serif" font-size="13" font-weight="bold" lengthAdjust="spacing" textLength="18" x="662.5" y="578.8169">14</text><text fill="#000000" font-family="sans-serif" font-size="13" lengthAdjust="spacing" textLength="146" x="684.5" y="578.8169">greenSpaceRepository</text><line style="stroke:#181818;stroke-width:1.0;stroke-dasharray:2.0,2.0;" x1="645.5" x2="687.5" y1="618.0156" y2="618.0156"/><line style="stroke:#181818;stroke-width:1.0;stroke-dasharray:2.0,2.0;" x1="687.5" x2="687.5" y1="618.0156" y2="631.0156"/><line style="stroke:#181818;stroke-width:1.0;stroke-dasharray:2.0,2.0;" x1="640.5" x2="687.5" y1="631.0156" y2="631.0156"/><polygon fill="#181818" points="650.5,627.0156,640.5,631.0156,650.5,635.0156,646.5,631.0156" style="stroke:#181818;stroke-width:1.0;"/><text fill="#000000" font-family="sans-serif" font-size="13" font-weight="bold" lengthAdjust="spacing" textLength="18" x="652.5" y="612.9497">15</text><text fill="#000000" font-family="sans-serif" font-size="13" lengthAdjust="spacing" textLength="146" x="674.5" y="612.9497">greenSpaceRepository</text><polygon fill="#181818" points="1115.5,651.1484,1125.5,655.1484,1115.5,659.1484,1119.5,655.1484" style="stroke:#181818;stroke-width:1.0;"/><line style="stroke:#181818;stroke-width:1.0;" x1="640.5" x2="1121.5" y1="655.1484" y2="655.1484"/><text fill="#000000" font-family="sans-serif" font-size="13" font-weight="bold" lengthAdjust="spacing" textLength="18" x="647.5" y="650.0825">16</text><text fill="#000000" font-family="sans-serif" font-size="13" lengthAdjust="spacing" textLength="238" x="669.5" y="650.0825">registerGreenSpace(name,size,area)</text><polygon fill="#181818" points="1335,680.2813,1345,684.2813,1335,688.2813,1339,684.2813" style="stroke:#181818;stroke-width:1.0;"/><line style="stroke:#181818;stroke-width:1.0;" x1="1137.5" x2="1341" y1="684.2813" y2="684.2813"/><text fill="#000000" font-family="sans-serif" font-size="13" font-weight="bold" lengthAdjust="spacing" textLength="18" x="1144.5" y="679.2153">17</text><text fill="#000000" font-family="sans-serif" font-size="13" lengthAdjust="spacing" textLength="41" x="1166.5" y="679.2153">create</text><rect fill="#E3E3E3" height="46.5938" rx="2.5" ry="2.5" style="stroke:#181818;stroke-width:0.5;" width="107" x="1347" y="663.1484"/><text fill="#000000" font-family="sans-serif" font-size="14" lengthAdjust="spacing" textLength="86" x="1357.5" y="683.1436">greenSpace</text><text fill="#000000" font-family="sans-serif" font-size="14" lengthAdjust="spacing" textLength="93" x="1354" y="699.4404">:GreenSpace</text><line style="stroke:#181818;stroke-width:1.0;" x1="1137.5" x2="1184.5" y1="736.875" y2="736.875"/><line style="stroke:#181818;stroke-width:1.0;" x1="1184.5" x2="1184.5" y1="736.875" y2="749.875"/><line style="stroke:#181818;stroke-width:1.0;" x1="1143.5" x2="1184.5" y1="749.875" y2="749.875"/><polygon fill="#181818" points="1153.5,745.875,1143.5,749.875,1153.5,753.875,1149.5,749.875" style="stroke:#181818;stroke-width:1.0;"/><text fill="#000000" font-family="sans-serif" font-size="13" font-weight="bold" lengthAdjust="spacing" textLength="18" x="1149.5" y="731.8091">18</text><text fill="#000000" font-family="sans-serif" font-size="13" lengthAdjust="spacing" textLength="188" x="1171.5" y="731.8091">addGreenSpace(greenSpace)</text><line style="stroke:#181818;stroke-width:1.0;" x1="1142.5" x2="1189.5" y1="779.0078" y2="779.0078"/><line style="stroke:#181818;stroke-width:1.0;" x1="1189.5" x2="1189.5" y1="779.0078" y2="792.0078"/><line style="stroke:#181818;stroke-width:1.0;" x1="1148.5" x2="1189.5" y1="792.0078" y2="792.0078"/><polygon fill="#181818" points="1158.5,788.0078,1148.5,792.0078,1158.5,796.0078,1154.5,792.0078" style="stroke:#181818;stroke-width:1.0;"/><text fill="#000000" font-family="sans-serif" font-size="13" font-weight="bold" lengthAdjust="spacing" textLength="18" x="1154.5" y="773.9419">19</text><text fill="#000000" font-family="sans-serif" font-size="13" lengthAdjust="spacing" textLength="217" x="1176.5" y="773.9419">validateGreenSpace(greenSpace)</text><line style="stroke:#181818;stroke-width:1.0;stroke-dasharray:2.0,2.0;" x1="1147.5" x2="1189.5" y1="831.1406" y2="831.1406"/><line style="stroke:#181818;stroke-width:1.0;stroke-dasharray:2.0,2.0;" x1="1189.5" x2="1189.5" y1="831.1406" y2="844.1406"/><line style="stroke:#181818;stroke-width:1.0;stroke-dasharray:2.0,2.0;" x1="1142.5" x2="1189.5" y1="844.1406" y2="844.1406"/><polygon fill="#181818" points="1152.5,840.1406,1142.5,844.1406,1152.5,848.1406,1148.5,844.1406" style="stroke:#181818;stroke-width:1.0;"/><text fill="#000000" font-family="sans-serif" font-size="13" font-weight="bold" lengthAdjust="spacing" textLength="18" x="1154.5" y="826.0747">20</text><text fill="#000000" font-family="sans-serif" font-size="13" lengthAdjust="spacing" textLength="4" x="1176.5" y="826.0747">&#160;</text><line style="stroke:#181818;stroke-width:1.0;stroke-dasharray:2.0,2.0;" x1="1142.5" x2="1184.5" y1="873.2734" y2="873.2734"/><line style="stroke:#181818;stroke-width:1.0;stroke-dasharray:2.0,2.0;" x1="1184.5" x2="1184.5" y1="873.2734" y2="886.2734"/><line style="stroke:#181818;stroke-width:1.0;stroke-dasharray:2.0,2.0;" x1="1137.5" x2="1184.5" y1="886.2734" y2="886.2734"/><polygon fill="#181818" points="1147.5,882.2734,1137.5,886.2734,1147.5,890.2734,1143.5,886.2734" style="stroke:#181818;stroke-width:1.0;"/><text fill="#000000" font-family="sans-serif" font-size="13" font-weight="bold" lengthAdjust="spacing" textLength="18" x="1149.5" y="868.2075">21</text><text fill="#000000" font-family="sans-serif" font-size="13" lengthAdjust="spacing" textLength="4" x="1171.5" y="868.2075">&#160;</text><polygon fill="#181818" points="651.5,906.4063,641.5,910.4063,651.5,914.4063,647.5,910.4063" style="stroke:#181818;stroke-width:1.0;"/><line style="stroke:#181818;stroke-width:1.0;stroke-dasharray:2.0,2.0;" x1="645.5" x2="1131.5" y1="910.4063" y2="910.4063"/><text fill="#000000" font-family="sans-serif" font-size="13" font-weight="bold" lengthAdjust="spacing" textLength="18" x="657.5" y="905.3403">22</text><text fill="#000000" font-family="sans-serif" font-size="13" lengthAdjust="spacing" textLength="76" x="679.5" y="905.3403">greenSpace</text><polygon fill="#181818" points="371.5,935.5391,361.5,939.5391,371.5,943.5391,367.5,939.5391" style="stroke:#181818;stroke-width:1.0;"/><line style="stroke:#181818;stroke-width:1.0;stroke-dasharray:2.0,2.0;" x1="365.5" x2="634.5" y1="939.5391" y2="939.5391"/><text fill="#000000" font-family="sans-serif" font-size="13" font-weight="bold" lengthAdjust="spacing" textLength="18" x="377.5" y="934.4731">23</text><text fill="#000000" font-family="sans-serif" font-size="13" lengthAdjust="spacing" textLength="76" x="399.5" y="934.4731">greenSpace</text><polygon fill="#181818" points="103.5,964.6719,93.5,968.6719,103.5,972.6719,99.5,968.6719" style="stroke:#181818;stroke-width:1.0;"/><line style="stroke:#181818;stroke-width:1.0;stroke-dasharray:2.0,2.0;" x1="97.5" x2="354.5" y1="968.6719" y2="968.6719"/><text fill="#000000" font-family="sans-serif" font-size="13" font-weight="bold" lengthAdjust="spacing" textLength="18" x="109.5" y="963.606">24</text><text fill="#000000" font-family="sans-serif" font-size="13" lengthAdjust="spacing" textLength="184" x="131.5" y="963.606">shows operation (in)success</text><!--SRC=[lLNDRk8m4BxdAKQSe2elm66bggqGKgjMK6wzJ9CXM2HsrdQesAVVYKCSGXn0NMavWJtVp_nuC3iX2zIOGwwaYhTQvGHMbnGPVrDWlCEKLlQG4MYABSeqEmqmMqpKjv0fR30p54LMM0vTBs15lqkICS6JmBGA7QzMJnEOmaDcIKkqOa_m9Xc2fLMopBz8y_VOAWsZkIQIi69vWbUKR46F00qyvqMc3aGHgriHYmAbXT5iIQampEfW3hLUkFZruchaev9MgomxAZn-B5zwc48PmRu46HVZ3muhKTM3xNSX-WJnAVi4xoyF7rr4wlsqv8oS1uuTGoX-YB73KvVnzNtvF7-BNBt57YsrbOs0FyqlcFwgUZbZq0wiuX6eomTOEm1JSJg8P-AQkmF6CRggvzqTCyIQ-BQ-QgxvtYlDc9mdnbX8q2AC9UPqZmownoJHPCp4GwjFGgU2pMadf9U4FHHa6XbAd50OUfLxE0kpLTy6CYuJg0qOyOSbLM65afyIK2O-JGH36JyflkbHtv1TCCEQaMMEab6uDSFE0REiRa3JQagElksM85Po8tIE5JVa9CkexpOyGARyoeKrRSqlp8kRXVDtMWz4LKyt5PCkYNksxiWHj4GfsT0Z6WVnlZWDIU2brvmBQNWNigjsAZrNQ3tug13Zz6YtIhlT555W62vIDwQhxN8ryuvZju_yiSEtdeAh9k2jIrAREUb3YELyUlfT3C5-C1x3wa61wbtKAxAtkeRY1upoxZhns0PDeXiC_a1lZvdW9qO3el-YEI1wtiF_o1f5bubxetUpLp-zRdSD4xG3U-dFG1MawvKv5d9YoZZclxF0vlmB]--></g></svg>