<?xml version="1.0" encoding="us-ascii" standalone="no"?><svg xmlns="http://www.w3.org/2000/svg" xmlns:xlink="http://www.w3.org/1999/xlink" contentStyleType="text/css" height="411px" preserveAspectRatio="none" style="width:680px;height:411px;background:#FFFFFF;" version="1.1" viewBox="0 0 680 411" width="680px" zoomAndPan="magnify"><defs/><g><rect fill="#FFFFFF" height="257.9297" style="stroke:#181818;stroke-width:1.0;" width="10" x="358" y="83.7266"/><rect fill="#FFFFFF" height="124.3984" style="stroke:#181818;stroke-width:1.0;" width="10" x="363" y="174.125"/><rect fill="#FFFFFF" height="40.1328" style="stroke:#181818;stroke-width:1.0;" width="10" x="368" y="216.2578"/><rect fill="none" height="214.7969" style="stroke:#000000;stroke-width:1.5;" width="413" x="261.5" y="98.7266"/><line style="stroke:#181818;stroke-width:0.5;stroke-dasharray:5.0,5.0;" x1="362.5" x2="362.5" y1="52.5938" y2="359.6563"/><line style="stroke:#181818;stroke-width:0.5;stroke-dasharray:5.0,5.0;" x1="610.5" x2="610.5" y1="52.5938" y2="359.6563"/><rect fill="#E3E3E3" height="46.5938" rx="2.5" ry="2.5" style="stroke:#181818;stroke-width:0.5;" width="183" x="271.5" y="5"/><text fill="#000000" font-family="sans-serif" font-size="14" lengthAdjust="spacing" textLength="167" x="279.5" y="24.9951">greenSpaceRepository:</text><text fill="#000000" font-family="sans-serif" font-size="14" lengthAdjust="spacing" textLength="169" x="278.5" y="41.292">:GreenSpaceRepository</text><rect fill="#E3E3E3" height="46.5938" rx="2.5" ry="2.5" style="stroke:#181818;stroke-width:0.5;" width="183" x="271.5" y="358.6563"/><text fill="#000000" font-family="sans-serif" font-size="14" lengthAdjust="spacing" textLength="167" x="279.5" y="378.6514">greenSpaceRepository:</text><text fill="#000000" font-family="sans-serif" font-size="14" lengthAdjust="spacing" textLength="169" x="278.5" y="394.9482">:GreenSpaceRepository</text><rect fill="#E3E3E3" height="46.5938" rx="2.5" ry="2.5" style="stroke:#181818;stroke-width:0.5;" width="107" x="557.5" y="5"/><text fill="#000000" font-family="sans-serif" font-size="14" lengthAdjust="spacing" textLength="86" x="568" y="24.9951">greenSpace</text><text fill="#000000" font-family="sans-serif" font-size="14" lengthAdjust="spacing" textLength="93" x="564.5" y="41.292">:GreenSpace</text><rect fill="#E3E3E3" height="46.5938" rx="2.5" ry="2.5" style="stroke:#181818;stroke-width:0.5;" width="107" x="557.5" y="358.6563"/><text fill="#000000" font-family="sans-serif" font-size="14" lengthAdjust="spacing" textLength="86" x="568" y="378.6514">greenSpace</text><text fill="#000000" font-family="sans-serif" font-size="14" lengthAdjust="spacing" textLength="93" x="564.5" y="394.9482">:GreenSpace</text><rect fill="#FFFFFF" height="257.9297" style="stroke:#181818;stroke-width:1.0;" width="10" x="358" y="83.7266"/><rect fill="#FFFFFF" height="124.3984" style="stroke:#181818;stroke-width:1.0;" width="10" x="363" y="174.125"/><rect fill="#FFFFFF" height="40.1328" style="stroke:#181818;stroke-width:1.0;" width="10" x="368" y="216.2578"/><polygon fill="#181818" points="346,79.7266,356,83.7266,346,87.7266,350,83.7266" style="stroke:#181818;stroke-width:1.0;"/><line style="stroke:#181818;stroke-width:1.0;" x1="0" x2="352" y1="83.7266" y2="83.7266"/><text fill="#000000" font-family="sans-serif" font-size="13" font-weight="bold" lengthAdjust="spacing" textLength="18" x="7" y="78.6606">16</text><text fill="#000000" font-family="sans-serif" font-size="13" lengthAdjust="spacing" textLength="317" x="29" y="78.6606">registerGreenSpace(name,size,area,responsible)</text><path d="M261.5,98.7266 L465.5,98.7266 L465.5,105.8594 L455.5,115.8594 L261.5,115.8594 L261.5,98.7266 " fill="#EEEEEE" style="stroke:#000000;stroke-width:1.5;"/><rect fill="none" height="214.7969" style="stroke:#000000;stroke-width:1.5;" width="413" x="261.5" y="98.7266"/><text fill="#000000" font-family="sans-serif" font-size="13" font-weight="bold" lengthAdjust="spacing" textLength="159" x="276.5" y="111.7935">Register Green Space</text><polygon fill="#181818" points="599,132.9922,609,136.9922,599,140.9922,603,136.9922" style="stroke:#181818;stroke-width:1.0;"/><line style="stroke:#181818;stroke-width:1.0;" x1="368" x2="605" y1="136.9922" y2="136.9922"/><text fill="#000000" font-family="sans-serif" font-size="13" font-weight="bold" lengthAdjust="spacing" textLength="32" x="375" y="131.9263">16.1</text><text fill="#000000" font-family="sans-serif" font-size="13" lengthAdjust="spacing" textLength="41" x="411" y="131.9263">create</text><line style="stroke:#181818;stroke-width:1.0;" x1="373" x2="415" y1="166.125" y2="166.125"/><line style="stroke:#181818;stroke-width:1.0;" x1="415" x2="415" y1="166.125" y2="179.125"/><line style="stroke:#181818;stroke-width:1.0;" x1="374" x2="415" y1="179.125" y2="179.125"/><polygon fill="#181818" points="384,175.125,374,179.125,384,183.125,380,179.125" style="stroke:#181818;stroke-width:1.0;"/><text fill="#000000" font-family="sans-serif" font-size="13" font-weight="bold" lengthAdjust="spacing" textLength="32" x="380" y="161.0591">16.2</text><text fill="#000000" font-family="sans-serif" font-size="13" lengthAdjust="spacing" textLength="188" x="416" y="161.0591">addGreenSpace(greenSpace)</text><line style="stroke:#181818;stroke-width:1.0;" x1="373" x2="420" y1="203.2578" y2="203.2578"/><line style="stroke:#181818;stroke-width:1.0;" x1="420" x2="420" y1="203.2578" y2="216.2578"/><line style="stroke:#181818;stroke-width:1.0;" x1="379" x2="420" y1="216.2578" y2="216.2578"/><polygon fill="#181818" points="389,212.2578,379,216.2578,389,220.2578,385,216.2578" style="stroke:#181818;stroke-width:1.0;"/><text fill="#000000" font-family="sans-serif" font-size="13" font-weight="bold" lengthAdjust="spacing" textLength="32" x="385" y="198.1919">16.3</text><text fill="#000000" font-family="sans-serif" font-size="13" lengthAdjust="spacing" textLength="139" x="421" y="198.1919">validate(greenSpace)</text><line style="stroke:#181818;stroke-width:1.0;stroke-dasharray:2.0,2.0;" x1="378" x2="420" y1="255.3906" y2="255.3906"/><line style="stroke:#181818;stroke-width:1.0;stroke-dasharray:2.0,2.0;" x1="420" x2="420" y1="255.3906" y2="268.3906"/><line style="stroke:#181818;stroke-width:1.0;stroke-dasharray:2.0,2.0;" x1="373" x2="420" y1="268.3906" y2="268.3906"/><polygon fill="#181818" points="383,264.3906,373,268.3906,383,272.3906,379,268.3906" style="stroke:#181818;stroke-width:1.0;"/><text fill="#000000" font-family="sans-serif" font-size="13" font-weight="bold" lengthAdjust="spacing" textLength="32" x="385" y="250.3247">16.4</text><text fill="#000000" font-family="sans-serif" font-size="13" lengthAdjust="spacing" textLength="4" x="421" y="250.3247">&#160;</text><line style="stroke:#181818;stroke-width:1.0;stroke-dasharray:2.0,2.0;" x1="373" x2="415" y1="297.5234" y2="297.5234"/><line style="stroke:#181818;stroke-width:1.0;stroke-dasharray:2.0,2.0;" x1="415" x2="415" y1="297.5234" y2="310.5234"/><line style="stroke:#181818;stroke-width:1.0;stroke-dasharray:2.0,2.0;" x1="368" x2="415" y1="310.5234" y2="310.5234"/><polygon fill="#181818" points="378,306.5234,368,310.5234,378,314.5234,374,310.5234" style="stroke:#181818;stroke-width:1.0;"/><text fill="#000000" font-family="sans-serif" font-size="13" font-weight="bold" lengthAdjust="spacing" textLength="32" x="380" y="292.4575">16.5</text><text fill="#000000" font-family="sans-serif" font-size="13" lengthAdjust="spacing" textLength="4" x="416" y="292.4575">&#160;</text><polygon fill="#181818" points="11,337.6563,1,341.6563,11,345.6563,7,341.6563" style="stroke:#181818;stroke-width:1.0;"/><line style="stroke:#181818;stroke-width:1.0;stroke-dasharray:2.0,2.0;" x1="5" x2="362" y1="341.6563" y2="341.6563"/><text fill="#000000" font-family="sans-serif" font-size="13" font-weight="bold" lengthAdjust="spacing" textLength="18" x="17" y="336.5903">17</text><text fill="#000000" font-family="sans-serif" font-size="13" lengthAdjust="spacing" textLength="76" x="39" y="336.5903">greenSpace</text><!--SRC=[XP31JiCm38RlUGfh9oQrIBk0L24aXAhU0BLNBbvZicXj4YNfq7XwqWpQhYiiH_ltvyznUwaCMcoXrKhNEwjR0cyxOcxe6AptAAZonuR0KkrHYMOQS3la-bCg0H_OE68ibBsifK7bOIKiaQe2X4eosaclxJ5xLrcnK5y1EdWjYxy8PsCnN9Hv_bAzFJtdZ67djUhQBLdOtB7qiITbmLX8vycEWpSAMqgS_A84BM5YoHcjdDmsj9vHRZSCQoyFw2bwGNZ2wiv0-OE5o8K8Ph7Vlv25833QPL27LJv4BaBH4ZcV28uNhuSqfy5aUlHl-q9pQSi16yb3Q771lvI1T4ATzIPcVOjTcvdb-n8fVfgR_lvzh3oaQQHaC4gp-Sfl]--></g></svg>