<?xml version="1.0" encoding="us-ascii" standalone="no"?><svg xmlns="http://www.w3.org/2000/svg" xmlns:xlink="http://www.w3.org/1999/xlink" contentStyleType="text/css" height="439px" preserveAspectRatio="none" style="width:680px;height:439px;background:#FFFFFF;" version="1.1" viewBox="0 0 680 439" width="680px" zoomAndPan="magnify"><defs/><g><rect fill="#FFFFFF" height="286.3906" style="stroke:#181818;stroke-width:1.0;" width="10" x="358" y="83.7266"/><rect fill="#FFFFFF" height="124.3984" style="stroke:#181818;stroke-width:1.0;" width="10" x="363" y="202.5859"/><rect fill="#FFFFFF" height="40.1328" style="stroke:#181818;stroke-width:1.0;" width="10" x="368" y="244.7188"/><rect fill="none" height="243.2578" style="stroke:#000000;stroke-width:1.5;" width="413" x="261.5" y="98.7266"/><line style="stroke:#181818;stroke-width:0.5;stroke-dasharray:5.0,5.0;" x1="362.5" x2="362.5" y1="52.5938" y2="388.1172"/><line style="stroke:#181818;stroke-width:0.5;stroke-dasharray:5.0,5.0;" x1="610.5" x2="610.5" y1="154.6563" y2="388.1172"/><rect fill="#E3E3E3" height="46.5938" rx="2.5" ry="2.5" style="stroke:#181818;stroke-width:0.5;" width="183" x="271.5" y="5"/><text fill="#000000" font-family="sans-serif" font-size="14" lengthAdjust="spacing" textLength="167" x="279.5" y="24.9951">greenSpaceRepository:</text><text fill="#000000" font-family="sans-serif" font-size="14" lengthAdjust="spacing" textLength="169" x="278.5" y="41.292">:GreenSpaceRepository</text><rect fill="#E3E3E3" height="46.5938" rx="2.5" ry="2.5" style="stroke:#181818;stroke-width:0.5;" width="183" x="271.5" y="387.1172"/><text fill="#000000" font-family="sans-serif" font-size="14" lengthAdjust="spacing" textLength="167" x="279.5" y="407.1123">greenSpaceRepository:</text><text fill="#000000" font-family="sans-serif" font-size="14" lengthAdjust="spacing" textLength="169" x="278.5" y="423.4092">:GreenSpaceRepository</text><rect fill="#E3E3E3" height="46.5938" rx="2.5" ry="2.5" style="stroke:#181818;stroke-width:0.5;" width="107" x="557.5" y="387.1172"/><text fill="#000000" font-family="sans-serif" font-size="14" lengthAdjust="spacing" textLength="86" x="568" y="407.1123">greenSpace</text><text fill="#000000" font-family="sans-serif" font-size="14" lengthAdjust="spacing" textLength="93" x="564.5" y="423.4092">:GreenSpace</text><rect fill="#FFFFFF" height="286.3906" style="stroke:#181818;stroke-width:1.0;" width="10" x="358" y="83.7266"/><rect fill="#FFFFFF" height="124.3984" style="stroke:#181818;stroke-width:1.0;" width="10" x="363" y="202.5859"/><rect fill="#FFFFFF" height="40.1328" style="stroke:#181818;stroke-width:1.0;" width="10" x="368" y="244.7188"/><polygon fill="#181818" points="346,79.7266,356,83.7266,346,87.7266,350,83.7266" style="stroke:#181818;stroke-width:1.0;"/><line style="stroke:#181818;stroke-width:1.0;" x1="0" x2="352" y1="83.7266" y2="83.7266"/><text fill="#000000" font-family="sans-serif" font-size="13" font-weight="bold" lengthAdjust="spacing" textLength="18" x="7" y="78.6606">16</text><text fill="#000000" font-family="sans-serif" font-size="13" lengthAdjust="spacing" textLength="317" x="29" y="78.6606">registerGreenSpace(name,size,area,responsible)</text><path d="M261.5,98.7266 L465.5,98.7266 L465.5,105.8594 L455.5,115.8594 L261.5,115.8594 L261.5,98.7266 " fill="#EEEEEE" style="stroke:#000000;stroke-width:1.5;"/><rect fill="none" height="243.2578" style="stroke:#000000;stroke-width:1.5;" width="413" x="261.5" y="98.7266"/><text fill="#000000" font-family="sans-serif" font-size="13" font-weight="bold" lengthAdjust="spacing" textLength="159" x="276.5" y="111.7935">Register Green Space</text><polygon fill="#181818" points="545.5,132.9922,555.5,136.9922,545.5,140.9922,549.5,136.9922" style="stroke:#181818;stroke-width:1.0;"/><line style="stroke:#181818;stroke-width:1.0;" x1="368" x2="551.5" y1="136.9922" y2="136.9922"/><text fill="#000000" font-family="sans-serif" font-size="13" font-weight="bold" lengthAdjust="spacing" textLength="32" x="375" y="131.9263">16.1</text><text fill="#000000" font-family="sans-serif" font-size="13" lengthAdjust="spacing" textLength="41" x="411" y="131.9263">create</text><rect fill="#E3E3E3" height="46.5938" rx="2.5" ry="2.5" style="stroke:#181818;stroke-width:0.5;" width="107" x="557.5" y="115.8594"/><text fill="#000000" font-family="sans-serif" font-size="14" lengthAdjust="spacing" textLength="86" x="568" y="135.8545">greenSpace</text><text fill="#000000" font-family="sans-serif" font-size="14" lengthAdjust="spacing" textLength="93" x="564.5" y="152.1514">:GreenSpace</text><line style="stroke:#181818;stroke-width:1.0;" x1="373" x2="415" y1="194.5859" y2="194.5859"/><line style="stroke:#181818;stroke-width:1.0;" x1="415" x2="415" y1="194.5859" y2="207.5859"/><line style="stroke:#181818;stroke-width:1.0;" x1="374" x2="415" y1="207.5859" y2="207.5859"/><polygon fill="#181818" points="384,203.5859,374,207.5859,384,211.5859,380,207.5859" style="stroke:#181818;stroke-width:1.0;"/><text fill="#000000" font-family="sans-serif" font-size="13" font-weight="bold" lengthAdjust="spacing" textLength="32" x="380" y="189.52">16.2</text><text fill="#000000" font-family="sans-serif" font-size="13" lengthAdjust="spacing" textLength="188" x="416" y="189.52">addGreenSpace(greenSpace)</text><line style="stroke:#181818;stroke-width:1.0;" x1="373" x2="420" y1="231.7188" y2="231.7188"/><line style="stroke:#181818;stroke-width:1.0;" x1="420" x2="420" y1="231.7188" y2="244.7188"/><line style="stroke:#181818;stroke-width:1.0;" x1="379" x2="420" y1="244.7188" y2="244.7188"/><polygon fill="#181818" points="389,240.7188,379,244.7188,389,248.7188,385,244.7188" style="stroke:#181818;stroke-width:1.0;"/><text fill="#000000" font-family="sans-serif" font-size="13" font-weight="bold" lengthAdjust="spacing" textLength="32" x="385" y="226.6528">16.3</text><text fill="#000000" font-family="sans-serif" font-size="13" lengthAdjust="spacing" textLength="139" x="421" y="226.6528">validate(greenSpace)</text><line style="stroke:#181818;stroke-width:1.0;stroke-dasharray:2.0,2.0;" x1="378" x2="420" y1="283.8516" y2="283.8516"/><line style="stroke:#181818;stroke-width:1.0;stroke-dasharray:2.0,2.0;" x1="420" x2="420" y1="283.8516" y2="296.8516"/><line style="stroke:#181818;stroke-width:1.0;stroke-dasharray:2.0,2.0;" x1="373" x2="420" y1="296.8516" y2="296.8516"/><polygon fill="#181818" points="383,292.8516,373,296.8516,383,300.8516,379,296.8516" style="stroke:#181818;stroke-width:1.0;"/><text fill="#000000" font-family="sans-serif" font-size="13" font-weight="bold" lengthAdjust="spacing" textLength="32" x="385" y="278.7856">16.4</text><text fill="#000000" font-family="sans-serif" font-size="13" lengthAdjust="spacing" textLength="4" x="421" y="278.7856">&#160;</text><line style="stroke:#181818;stroke-width:1.0;stroke-dasharray:2.0,2.0;" x1="373" x2="415" y1="325.9844" y2="325.9844"/><line style="stroke:#181818;stroke-width:1.0;stroke-dasharray:2.0,2.0;" x1="415" x2="415" y1="325.9844" y2="338.9844"/><line style="stroke:#181818;stroke-width:1.0;stroke-dasharray:2.0,2.0;" x1="368" x2="415" y1="338.9844" y2="338.9844"/><polygon fill="#181818" points="378,334.9844,368,338.9844,378,342.9844,374,338.9844" style="stroke:#181818;stroke-width:1.0;"/><text fill="#000000" font-family="sans-serif" font-size="13" font-weight="bold" lengthAdjust="spacing" textLength="32" x="380" y="320.9185">16.5</text><text fill="#000000" font-family="sans-serif" font-size="13" lengthAdjust="spacing" textLength="4" x="416" y="320.9185">&#160;</text><polygon fill="#181818" points="11,366.1172,1,370.1172,11,374.1172,7,370.1172" style="stroke:#181818;stroke-width:1.0;"/><line style="stroke:#181818;stroke-width:1.0;stroke-dasharray:2.0,2.0;" x1="5" x2="362" y1="370.1172" y2="370.1172"/><text fill="#000000" font-family="sans-serif" font-size="13" font-weight="bold" lengthAdjust="spacing" textLength="18" x="17" y="365.0513">17</text><text fill="#000000" font-family="sans-serif" font-size="13" lengthAdjust="spacing" textLength="76" x="39" y="365.0513">greenSpace</text><!--SRC=[XP31JiCm38RlUGfh9pQrIBk0L24aXAhU07LNBbvYicXjKYNfq7XwqWpQhYiiH_ltvyznUwKRj5X3RRJXEsjg0czROgxlDCZtA6dZZnM19UvHoseSS3iKvbDf2HzOEM8ibBtYga7jOI4jaTu429NK6AUyiSViNMV5J7q1wE2rBFuYd8t5S57c-SlcxUavPmnRRtHRRyd2-ewbZnqf2yPIEKzs6BpHM5FYr1SbQ0aJIwunsgbjHSi9vNRDa7jrG4_H2yAJrhGDb3zOY5o8O1RxtGjP20A3tMgL0G_BV0XTnA8d2Z5I76vUzcb1lSluxD_sXUZSbWDMIeJGx89_AJtfX3hhZSow5hisCybt9TBYD3V-__jOUKZJICbWa6RJbTy0]--></g></svg>