<?xml version="1.0" encoding="us-ascii" standalone="no"?><svg xmlns="http://www.w3.org/2000/svg" xmlns:xlink="http://www.w3.org/1999/xlink" contentStyleType="text/css" height="339px" preserveAspectRatio="none" style="width:589px;height:339px;background:#FFFFFF;" version="1.1" viewBox="0 0 589 339" width="589px" zoomAndPan="magnify"><defs/><g><rect fill="#FFFFFF" height="218.9297" style="stroke:#181818;stroke-width:1.0;" width="10" x="182" y="67.4297"/><rect fill="#FFFFFF" height="129.5313" style="stroke:#181818;stroke-width:1.0;" width="10" x="364" y="120.6953"/><rect fill="#FFFFFF" height="71.2656" style="stroke:#181818;stroke-width:1.0;" width="10" x="474" y="149.8281"/><rect fill="none" height="175.7969" style="stroke:#000000;stroke-width:1.5;" width="524.5" x="58.5" y="82.4297"/><line style="stroke:#181818;stroke-width:0.5;stroke-dasharray:5.0,5.0;" x1="186.5" x2="186.5" y1="36.2969" y2="304.3594"/><line style="stroke:#181818;stroke-width:0.5;stroke-dasharray:5.0,5.0;" x1="368.5" x2="368.5" y1="36.2969" y2="304.3594"/><line style="stroke:#181818;stroke-width:0.5;stroke-dasharray:5.0,5.0;" x1="479" x2="479" y1="36.2969" y2="304.3594"/><rect fill="#E3E3E3" height="30.2969" rx="2.5" ry="2.5" style="stroke:#181818;stroke-width:0.5;" width="237" x="68.5" y="5"/><text fill="#000000" font-family="sans-serif" font-size="14" lengthAdjust="spacing" textLength="223" x="75.5" y="24.9951">:RegisterGreenSpaceController</text><rect fill="#E3E3E3" height="30.2969" rx="2.5" ry="2.5" style="stroke:#181818;stroke-width:0.5;" width="237" x="68.5" y="303.3594"/><text fill="#000000" font-family="sans-serif" font-size="14" lengthAdjust="spacing" textLength="223" x="75.5" y="323.3545">:RegisterGreenSpaceController</text><rect fill="#E3E3E3" height="30.2969" rx="2.5" ry="2.5" style="stroke:#181818;stroke-width:0.5;" width="107" x="315.5" y="5"/><text fill="#000000" font-family="sans-serif" font-size="14" lengthAdjust="spacing" textLength="93" x="322.5" y="24.9951">:GreenSpace</text><rect fill="#E3E3E3" height="30.2969" rx="2.5" ry="2.5" style="stroke:#181818;stroke-width:0.5;" width="107" x="315.5" y="303.3594"/><text fill="#000000" font-family="sans-serif" font-size="14" lengthAdjust="spacing" textLength="93" x="322.5" y="323.3545">:GreenSpace</text><rect fill="#E3E3E3" height="30.2969" rx="2.5" ry="2.5" style="stroke:#181818;stroke-width:0.5;" width="48" x="455" y="5"/><text fill="#000000" font-family="sans-serif" font-size="14" lengthAdjust="spacing" textLength="34" x="462" y="24.9951">:Size</text><rect fill="#E3E3E3" height="30.2969" rx="2.5" ry="2.5" style="stroke:#181818;stroke-width:0.5;" width="48" x="455" y="303.3594"/><text fill="#000000" font-family="sans-serif" font-size="14" lengthAdjust="spacing" textLength="34" x="462" y="323.3545">:Size</text><rect fill="#FFFFFF" height="218.9297" style="stroke:#181818;stroke-width:1.0;" width="10" x="182" y="67.4297"/><rect fill="#FFFFFF" height="129.5313" style="stroke:#181818;stroke-width:1.0;" width="10" x="364" y="120.6953"/><rect fill="#FFFFFF" height="71.2656" style="stroke:#181818;stroke-width:1.0;" width="10" x="474" y="149.8281"/><polygon fill="#181818" points="170,63.4297,180,67.4297,170,71.4297,174,67.4297" style="stroke:#181818;stroke-width:1.0;"/><line style="stroke:#181818;stroke-width:1.0;" x1="0" x2="176" y1="67.4297" y2="67.4297"/><text fill="#000000" font-family="sans-serif" font-size="13" font-weight="bold" lengthAdjust="spacing" textLength="9" x="7" y="62.3638">3</text><text fill="#000000" font-family="sans-serif" font-size="13" lengthAdjust="spacing" textLength="150" x="20" y="62.3638">getGreenSpacesSizes()</text><path d="M58.5,82.4297 L203.5,82.4297 L203.5,89.5625 L193.5,99.5625 L58.5,99.5625 L58.5,82.4297 " fill="#EEEEEE" style="stroke:#000000;stroke-width:1.5;"/><rect fill="none" height="175.7969" style="stroke:#000000;stroke-width:1.5;" width="524.5" x="58.5" y="82.4297"/><text fill="#000000" font-family="sans-serif" font-size="13" font-weight="bold" lengthAdjust="spacing" textLength="100" x="73.5" y="95.4966">Get Sizes List</text><polygon fill="#181818" points="352,116.6953,362,120.6953,352,124.6953,356,120.6953" style="stroke:#181818;stroke-width:1.0;"/><line style="stroke:#181818;stroke-width:1.0;" x1="192" x2="358" y1="120.6953" y2="120.6953"/><text fill="#000000" font-family="sans-serif" font-size="13" font-weight="bold" lengthAdjust="spacing" textLength="23" x="199" y="115.6294">3.1</text><text fill="#000000" font-family="sans-serif" font-size="13" lengthAdjust="spacing" textLength="78" x="226" y="115.6294">GreenSpace</text><polygon fill="#181818" points="462,145.8281,472,149.8281,462,153.8281,466,149.8281" style="stroke:#181818;stroke-width:1.0;"/><line style="stroke:#181818;stroke-width:1.0;" x1="374" x2="468" y1="149.8281" y2="149.8281"/><text fill="#000000" font-family="sans-serif" font-size="13" font-weight="bold" lengthAdjust="spacing" textLength="23" x="381" y="144.7622">3.2</text><text fill="#000000" font-family="sans-serif" font-size="13" lengthAdjust="spacing" textLength="27" x="408" y="144.7622">Size</text><line style="stroke:#181818;stroke-width:1.0;" x1="484" x2="526" y1="178.9609" y2="178.9609"/><line style="stroke:#181818;stroke-width:1.0;" x1="526" x2="526" y1="178.9609" y2="191.9609"/><line style="stroke:#181818;stroke-width:1.0;" x1="485" x2="526" y1="191.9609" y2="191.9609"/><polygon fill="#181818" points="495,187.9609,485,191.9609,495,195.9609,491,191.9609" style="stroke:#181818;stroke-width:1.0;"/><text fill="#000000" font-family="sans-serif" font-size="13" font-weight="bold" lengthAdjust="spacing" textLength="23" x="491" y="173.895">3.3</text><text fill="#000000" font-family="sans-serif" font-size="13" lengthAdjust="spacing" textLength="53" x="518" y="173.895">values()</text><polygon fill="#181818" points="385,217.0938,375,221.0938,385,225.0938,381,221.0938" style="stroke:#181818;stroke-width:1.0;"/><line style="stroke:#181818;stroke-width:1.0;stroke-dasharray:2.0,2.0;" x1="379" x2="478" y1="221.0938" y2="221.0938"/><text fill="#000000" font-family="sans-serif" font-size="13" font-weight="bold" lengthAdjust="spacing" textLength="23" x="391" y="216.0278">3.4</text><text fill="#000000" font-family="sans-serif" font-size="13" lengthAdjust="spacing" textLength="49" x="418" y="216.0278">sizeList</text><polygon fill="#181818" points="203,246.2266,193,250.2266,203,254.2266,199,250.2266" style="stroke:#181818;stroke-width:1.0;"/><line style="stroke:#181818;stroke-width:1.0;stroke-dasharray:2.0,2.0;" x1="197" x2="368" y1="250.2266" y2="250.2266"/><text fill="#000000" font-family="sans-serif" font-size="13" font-weight="bold" lengthAdjust="spacing" textLength="23" x="209" y="245.1606">3.5</text><text fill="#000000" font-family="sans-serif" font-size="13" lengthAdjust="spacing" textLength="49" x="236" y="245.1606">sizeList</text><polygon fill="#181818" points="11,282.3594,1,286.3594,11,290.3594,7,286.3594" style="stroke:#181818;stroke-width:1.0;"/><line style="stroke:#181818;stroke-width:1.0;stroke-dasharray:2.0,2.0;" x1="5" x2="186" y1="286.3594" y2="286.3594"/><text fill="#000000" font-family="sans-serif" font-size="13" font-weight="bold" lengthAdjust="spacing" textLength="23" x="17" y="281.2935">3.6</text><text fill="#000000" font-family="sans-serif" font-size="13" lengthAdjust="spacing" textLength="49" x="44" y="281.2935">sizeList</text><!--SRC=[XLBDRi8m3BxxAImksmvCchPJDUs241UcJMKl45eJ8jguIbmszlGB0KeBGVEjylVhnc-CRPHJDTPikLWxhWd5jGI-spIgs2XD2zbLX8uAKLPNVO1VgvA_ZTMuKfKd0DKAsxPUaWEuMvkISCKiI_w1G11Jc4PPmL6MapPUoCqSaLq47vgm5STLHMw4okFaAvzVSCxOYD3TPquDUoFiTXUCXVazOAVld_bqzj6BXyy0WEEtQ8IP9ZdB-ptFtpyCu8zFe0enMoLq28TXjEEsmHa9HWhEGwcuE4rK3ox9j9ZXsNH0wvoI9GVGGuo4U70zrivYkYjMPtAw3YRckEkfXTHRLRNnG70J7l0tAlkGvUfE-odftqJfejrVJ6ltT6-Vasmv8BsEnqdHtfDuWPvoV1Bm1m00]--></g></svg>