<?xml version="1.0" encoding="us-ascii" standalone="no"?><svg xmlns="http://www.w3.org/2000/svg" xmlns:xlink="http://www.w3.org/1999/xlink" contentStyleType="text/css" height="439px" preserveAspectRatio="none" style="width:635px;height:439px;background:#FFFFFF;" version="1.1" viewBox="0 0 635 439" width="635px" zoomAndPan="magnify"><defs/><g><rect fill="#FFFFFF" height="286.3906" style="stroke:#181818;stroke-width:1.0;" width="10" x="279" y="83.7266"/><rect fill="#FFFFFF" height="124.3984" style="stroke:#181818;stroke-width:1.0;" width="10" x="284" y="202.5859"/><rect fill="#FFFFFF" height="40.1328" style="stroke:#181818;stroke-width:1.0;" width="10" x="289" y="244.7188"/><rect fill="none" height="243.2578" style="stroke:#000000;stroke-width:1.5;" width="447" x="182.5" y="98.7266"/><line style="stroke:#181818;stroke-width:0.5;stroke-dasharray:5.0,5.0;" x1="283.5" x2="283.5" y1="52.5938" y2="388.1172"/><line style="stroke:#181818;stroke-width:0.5;stroke-dasharray:5.0,5.0;" x1="565.5" x2="565.5" y1="154.6563" y2="388.1172"/><rect fill="#E3E3E3" height="46.5938" rx="2.5" ry="2.5" style="stroke:#181818;stroke-width:0.5;" width="183" x="192.5" y="5"/><text fill="#000000" font-family="sans-serif" font-size="14" lengthAdjust="spacing" textLength="167" x="200.5" y="24.9951">greenSpaceRepository:</text><text fill="#000000" font-family="sans-serif" font-size="14" lengthAdjust="spacing" textLength="169" x="199.5" y="41.292">:GreenSpaceRepository</text><rect fill="#E3E3E3" height="46.5938" rx="2.5" ry="2.5" style="stroke:#181818;stroke-width:0.5;" width="183" x="192.5" y="387.1172"/><text fill="#000000" font-family="sans-serif" font-size="14" lengthAdjust="spacing" textLength="167" x="200.5" y="407.1123">greenSpaceRepository:</text><text fill="#000000" font-family="sans-serif" font-size="14" lengthAdjust="spacing" textLength="169" x="199.5" y="423.4092">:GreenSpaceRepository</text><rect fill="#E3E3E3" height="46.5938" rx="2.5" ry="2.5" style="stroke:#181818;stroke-width:0.5;" width="107" x="512.5" y="387.1172"/><text fill="#000000" font-family="sans-serif" font-size="14" lengthAdjust="spacing" textLength="86" x="523" y="407.1123">greenSpace</text><text fill="#000000" font-family="sans-serif" font-size="14" lengthAdjust="spacing" textLength="93" x="519.5" y="423.4092">:GreenSpace</text><rect fill="#FFFFFF" height="286.3906" style="stroke:#181818;stroke-width:1.0;" width="10" x="279" y="83.7266"/><rect fill="#FFFFFF" height="124.3984" style="stroke:#181818;stroke-width:1.0;" width="10" x="284" y="202.5859"/><rect fill="#FFFFFF" height="40.1328" style="stroke:#181818;stroke-width:1.0;" width="10" x="289" y="244.7188"/><polygon fill="#181818" points="267,79.7266,277,83.7266,267,87.7266,271,83.7266" style="stroke:#181818;stroke-width:1.0;"/><line style="stroke:#181818;stroke-width:1.0;" x1="0" x2="273" y1="83.7266" y2="83.7266"/><text fill="#000000" font-family="sans-serif" font-size="13" font-weight="bold" lengthAdjust="spacing" textLength="18" x="7" y="78.6606">16</text><text fill="#000000" font-family="sans-serif" font-size="13" lengthAdjust="spacing" textLength="238" x="29" y="78.6606">registerGreenSpace(name,size,area)</text><path d="M182.5,98.7266 L386.5,98.7266 L386.5,105.8594 L376.5,115.8594 L182.5,115.8594 L182.5,98.7266 " fill="#EEEEEE" style="stroke:#000000;stroke-width:1.5;"/><rect fill="none" height="243.2578" style="stroke:#000000;stroke-width:1.5;" width="447" x="182.5" y="98.7266"/><text fill="#000000" font-family="sans-serif" font-size="13" font-weight="bold" lengthAdjust="spacing" textLength="159" x="197.5" y="111.7935">Register Green Space</text><polygon fill="#181818" points="500.5,132.9922,510.5,136.9922,500.5,140.9922,504.5,136.9922" style="stroke:#181818;stroke-width:1.0;"/><line style="stroke:#181818;stroke-width:1.0;" x1="289" x2="506.5" y1="136.9922" y2="136.9922"/><text fill="#000000" font-family="sans-serif" font-size="13" font-weight="bold" lengthAdjust="spacing" textLength="32" x="296" y="131.9263">16.1</text><text fill="#000000" font-family="sans-serif" font-size="13" lengthAdjust="spacing" textLength="41" x="332" y="131.9263">create</text><rect fill="#E3E3E3" height="46.5938" rx="2.5" ry="2.5" style="stroke:#181818;stroke-width:0.5;" width="107" x="512.5" y="115.8594"/><text fill="#000000" font-family="sans-serif" font-size="14" lengthAdjust="spacing" textLength="86" x="523" y="135.8545">greenSpace</text><text fill="#000000" font-family="sans-serif" font-size="14" lengthAdjust="spacing" textLength="93" x="519.5" y="152.1514">:GreenSpace</text><line style="stroke:#181818;stroke-width:1.0;" x1="294" x2="336" y1="194.5859" y2="194.5859"/><line style="stroke:#181818;stroke-width:1.0;" x1="336" x2="336" y1="194.5859" y2="207.5859"/><line style="stroke:#181818;stroke-width:1.0;" x1="295" x2="336" y1="207.5859" y2="207.5859"/><polygon fill="#181818" points="305,203.5859,295,207.5859,305,211.5859,301,207.5859" style="stroke:#181818;stroke-width:1.0;"/><text fill="#000000" font-family="sans-serif" font-size="13" font-weight="bold" lengthAdjust="spacing" textLength="32" x="301" y="189.52">16.2</text><text fill="#000000" font-family="sans-serif" font-size="13" lengthAdjust="spacing" textLength="188" x="337" y="189.52">addGreenSpace(greenSpace)</text><line style="stroke:#181818;stroke-width:1.0;" x1="294" x2="341" y1="231.7188" y2="231.7188"/><line style="stroke:#181818;stroke-width:1.0;" x1="341" x2="341" y1="231.7188" y2="244.7188"/><line style="stroke:#181818;stroke-width:1.0;" x1="300" x2="341" y1="244.7188" y2="244.7188"/><polygon fill="#181818" points="310,240.7188,300,244.7188,310,248.7188,306,244.7188" style="stroke:#181818;stroke-width:1.0;"/><text fill="#000000" font-family="sans-serif" font-size="13" font-weight="bold" lengthAdjust="spacing" textLength="32" x="306" y="226.6528">16.3</text><text fill="#000000" font-family="sans-serif" font-size="13" lengthAdjust="spacing" textLength="217" x="342" y="226.6528">validateGreenSpace(greenSpace)</text><line style="stroke:#181818;stroke-width:1.0;stroke-dasharray:2.0,2.0;" x1="299" x2="341" y1="283.8516" y2="283.8516"/><line style="stroke:#181818;stroke-width:1.0;stroke-dasharray:2.0,2.0;" x1="341" x2="341" y1="283.8516" y2="296.8516"/><line style="stroke:#181818;stroke-width:1.0;stroke-dasharray:2.0,2.0;" x1="294" x2="341" y1="296.8516" y2="296.8516"/><polygon fill="#181818" points="304,292.8516,294,296.8516,304,300.8516,300,296.8516" style="stroke:#181818;stroke-width:1.0;"/><text fill="#000000" font-family="sans-serif" font-size="13" font-weight="bold" lengthAdjust="spacing" textLength="32" x="306" y="278.7856">16.4</text><text fill="#000000" font-family="sans-serif" font-size="13" lengthAdjust="spacing" textLength="4" x="342" y="278.7856">&#160;</text><line style="stroke:#181818;stroke-width:1.0;stroke-dasharray:2.0,2.0;" x1="294" x2="336" y1="325.9844" y2="325.9844"/><line style="stroke:#181818;stroke-width:1.0;stroke-dasharray:2.0,2.0;" x1="336" x2="336" y1="325.9844" y2="338.9844"/><line style="stroke:#181818;stroke-width:1.0;stroke-dasharray:2.0,2.0;" x1="289" x2="336" y1="338.9844" y2="338.9844"/><polygon fill="#181818" points="299,334.9844,289,338.9844,299,342.9844,295,338.9844" style="stroke:#181818;stroke-width:1.0;"/><text fill="#000000" font-family="sans-serif" font-size="13" font-weight="bold" lengthAdjust="spacing" textLength="32" x="301" y="320.9185">16.5</text><text fill="#000000" font-family="sans-serif" font-size="13" lengthAdjust="spacing" textLength="4" x="337" y="320.9185">&#160;</text><polygon fill="#181818" points="11,366.1172,1,370.1172,11,374.1172,7,370.1172" style="stroke:#181818;stroke-width:1.0;"/><line style="stroke:#181818;stroke-width:1.0;stroke-dasharray:2.0,2.0;" x1="5" x2="283" y1="370.1172" y2="370.1172"/><text fill="#000000" font-family="sans-serif" font-size="13" font-weight="bold" lengthAdjust="spacing" textLength="18" x="17" y="365.0513">17</text><text fill="#000000" font-family="sans-serif" font-size="13" lengthAdjust="spacing" textLength="76" x="39" y="365.0513">greenSpace</text><!--SRC=[XP71JiCm44Jl_efLJxHga7e1AK9824MvjIYvSbdinRMQs97j59Mlnt4XITFI-hWxysPMTZkb6xHOGssquLjhQW9lMsAktpJ8ToYfz8UAm1Btg6Kr5hWj2lEbj8HFh1mn5iPUSTMWzZ2JbaYN0K85DSOfR-mXVTTfVc4-0tImAVB_22UsACwBB5kNRo-l6MFOUgFR-eCih1vOyjoHqj1OAkV93iOxZJKjdVgc9Lh2-SHvlsB8lTgZfzW5mfFMj0qKloY8B8Wm5lVT2re8eKEZnI857W9y49t9OZSKObHhk7FUgmNrNSQd_gtFYbvAsMEbH13TYBhAwvb7wCbkrB5RiLkUYRuRaHP7t_Wd7kFaAKaY9OMXD9j6_W00]--></g></svg>