<?xml version="1.0" encoding="us-ascii" standalone="no"?><svg xmlns="http://www.w3.org/2000/svg" xmlns:xlink="http://www.w3.org/1999/xlink" contentStyleType="text/css" height="385px" preserveAspectRatio="none" style="width:555px;height:385px;background:#FFFFFF;" version="1.1" viewBox="0 0 555 385" width="555px" zoomAndPan="magnify"><defs/><g><rect fill="#FFFFFF" height="239.9297" style="stroke:#181818;stroke-width:1.0;" width="10" x="133.5" y="83.7266"/><rect fill="#FFFFFF" height="156.6641" style="stroke:#181818;stroke-width:1.0;" width="10" x="138.5" y="144.9922"/><rect fill="#FFFFFF" height="29.1328" style="stroke:#181818;stroke-width:1.0;" width="10" x="363.5" y="179.125"/><rect fill="#FFFFFF" height="29.1328" style="stroke:#181818;stroke-width:1.0;" width="10" x="480.5" y="237.3906"/><rect fill="none" height="217.9297" style="stroke:#000000;stroke-width:1.5;" width="539" x="10" y="98.7266"/><line style="stroke:#181818;stroke-width:0.5;stroke-dasharray:5.0,5.0;" x1="138" x2="138" y1="52.5938" y2="333.6563"/><line style="stroke:#181818;stroke-width:0.5;stroke-dasharray:5.0,5.0;" x1="368" x2="368" y1="52.5938" y2="333.6563"/><line style="stroke:#181818;stroke-width:0.5;stroke-dasharray:5.0,5.0;" x1="485" x2="485" y1="52.5938" y2="333.6563"/><rect fill="#E3E3E3" height="30.2969" rx="2.5" ry="2.5" style="stroke:#181818;stroke-width:0.5;" width="237" x="20" y="21.2969"/><text fill="#000000" font-family="sans-serif" font-size="14" lengthAdjust="spacing" textLength="223" x="27" y="41.292">:RegisterGreenSpaceController</text><rect fill="#E3E3E3" height="30.2969" rx="2.5" ry="2.5" style="stroke:#181818;stroke-width:0.5;" width="237" x="20" y="332.6563"/><text fill="#000000" font-family="sans-serif" font-size="14" lengthAdjust="spacing" textLength="223" x="27" y="352.6514">:RegisterGreenSpaceController</text><rect fill="#E3E3E3" height="30.2969" rx="2.5" ry="2.5" style="stroke:#181818;stroke-width:0.5;" width="107" x="315" y="21.2969"/><text fill="#000000" font-family="sans-serif" font-size="14" lengthAdjust="spacing" textLength="93" x="322" y="41.292">:Repositories</text><rect fill="#E3E3E3" height="30.2969" rx="2.5" ry="2.5" style="stroke:#181818;stroke-width:0.5;" width="107" x="315" y="332.6563"/><text fill="#000000" font-family="sans-serif" font-size="14" lengthAdjust="spacing" textLength="93" x="322" y="352.6514">:Repositories</text><rect fill="#E3E3E3" height="46.5938" rx="2.5" ry="2.5" style="stroke:#181818;stroke-width:0.5;" width="107" x="432" y="5"/><text fill="#000000" font-family="sans-serif" font-size="14" lengthAdjust="spacing" textLength="84" x="443.5" y="24.9951">repositories</text><text fill="#000000" font-family="sans-serif" font-size="14" lengthAdjust="spacing" textLength="93" x="439" y="41.292">:Repositories</text><rect fill="#E3E3E3" height="46.5938" rx="2.5" ry="2.5" style="stroke:#181818;stroke-width:0.5;" width="107" x="432" y="332.6563"/><text fill="#000000" font-family="sans-serif" font-size="14" lengthAdjust="spacing" textLength="84" x="443.5" y="352.6514">repositories</text><text fill="#000000" font-family="sans-serif" font-size="14" lengthAdjust="spacing" textLength="93" x="439" y="368.9482">:Repositories</text><rect fill="#FFFFFF" height="239.9297" style="stroke:#181818;stroke-width:1.0;" width="10" x="133.5" y="83.7266"/><rect fill="#FFFFFF" height="156.6641" style="stroke:#181818;stroke-width:1.0;" width="10" x="138.5" y="144.9922"/><rect fill="#FFFFFF" height="29.1328" style="stroke:#181818;stroke-width:1.0;" width="10" x="363.5" y="179.125"/><rect fill="#FFFFFF" height="29.1328" style="stroke:#181818;stroke-width:1.0;" width="10" x="480.5" y="237.3906"/><polygon fill="#181818" points="121.5,79.7266,131.5,83.7266,121.5,87.7266,125.5,83.7266" style="stroke:#181818;stroke-width:1.0;"/><line style="stroke:#181818;stroke-width:1.0;" x1="0" x2="127.5" y1="83.7266" y2="83.7266"/><text fill="#000000" font-family="sans-serif" font-size="13" font-weight="bold" lengthAdjust="spacing" textLength="9" x="7" y="78.6606">3</text><text fill="#000000" font-family="sans-serif" font-size="13" lengthAdjust="spacing" textLength="41" x="20" y="78.6606">create</text><path d="M10,98.7266 L257,98.7266 L257,105.8594 L247,115.8594 L10,115.8594 L10,98.7266 " fill="#EEEEEE" style="stroke:#000000;stroke-width:1.5;"/><rect fill="none" height="217.9297" style="stroke:#000000;stroke-width:1.5;" width="539" x="10" y="98.7266"/><text fill="#000000" font-family="sans-serif" font-size="13" font-weight="bold" lengthAdjust="spacing" textLength="202" x="25" y="111.7935">Get GreenSpace Repository</text><line style="stroke:#181818;stroke-width:1.0;" x1="143.5" x2="190.5" y1="131.9922" y2="131.9922"/><line style="stroke:#181818;stroke-width:1.0;" x1="190.5" x2="190.5" y1="131.9922" y2="144.9922"/><line style="stroke:#181818;stroke-width:1.0;" x1="149.5" x2="190.5" y1="144.9922" y2="144.9922"/><polygon fill="#181818" points="159.5,140.9922,149.5,144.9922,159.5,148.9922,155.5,144.9922" style="stroke:#181818;stroke-width:1.0;"/><text fill="#000000" font-family="sans-serif" font-size="13" font-weight="bold" lengthAdjust="spacing" textLength="23" x="155.5" y="126.9263">3.1</text><text fill="#000000" font-family="sans-serif" font-size="13" lengthAdjust="spacing" textLength="179" x="182.5" y="126.9263">getGreenSpaceRepository()</text><polygon fill="#181818" points="351.5,175.125,361.5,179.125,351.5,183.125,355.5,179.125" style="stroke:#181818;stroke-width:1.0;"/><line style="stroke:#181818;stroke-width:1.0;" x1="148.5" x2="357.5" y1="179.125" y2="179.125"/><text fill="#000000" font-family="sans-serif" font-size="13" font-weight="bold" lengthAdjust="spacing" textLength="23" x="155.5" y="174.0591">3.2</text><text fill="#000000" font-family="sans-serif" font-size="13" lengthAdjust="spacing" textLength="86" x="182.5" y="174.0591">getInstance()</text><polygon fill="#181818" points="159.5,204.2578,149.5,208.2578,159.5,212.2578,155.5,208.2578" style="stroke:#181818;stroke-width:1.0;"/><line style="stroke:#181818;stroke-width:1.0;stroke-dasharray:2.0,2.0;" x1="153.5" x2="367.5" y1="208.2578" y2="208.2578"/><text fill="#000000" font-family="sans-serif" font-size="13" font-weight="bold" lengthAdjust="spacing" textLength="23" x="165.5" y="203.1919">3.3</text><text fill="#000000" font-family="sans-serif" font-size="13" lengthAdjust="spacing" textLength="77" x="192.5" y="203.1919">repositories</text><polygon fill="#181818" points="468.5,233.3906,478.5,237.3906,468.5,241.3906,472.5,237.3906" style="stroke:#181818;stroke-width:1.0;"/><line style="stroke:#181818;stroke-width:1.0;" x1="148.5" x2="474.5" y1="237.3906" y2="237.3906"/><text fill="#000000" font-family="sans-serif" font-size="13" font-weight="bold" lengthAdjust="spacing" textLength="23" x="155.5" y="232.3247">3.4</text><text fill="#000000" font-family="sans-serif" font-size="13" lengthAdjust="spacing" textLength="179" x="182.5" y="232.3247">getGreenSpaceRepository()</text><polygon fill="#181818" points="159.5,262.5234,149.5,266.5234,159.5,270.5234,155.5,266.5234" style="stroke:#181818;stroke-width:1.0;"/><line style="stroke:#181818;stroke-width:1.0;stroke-dasharray:2.0,2.0;" x1="153.5" x2="484.5" y1="266.5234" y2="266.5234"/><text fill="#000000" font-family="sans-serif" font-size="13" font-weight="bold" lengthAdjust="spacing" textLength="23" x="165.5" y="261.4575">3.5</text><text fill="#000000" font-family="sans-serif" font-size="13" lengthAdjust="spacing" textLength="146" x="192.5" y="261.4575">greenSpaceRepository</text><line style="stroke:#181818;stroke-width:1.0;stroke-dasharray:2.0,2.0;" x1="148.5" x2="190.5" y1="300.6563" y2="300.6563"/><line style="stroke:#181818;stroke-width:1.0;stroke-dasharray:2.0,2.0;" x1="190.5" x2="190.5" y1="300.6563" y2="313.6563"/><line style="stroke:#181818;stroke-width:1.0;stroke-dasharray:2.0,2.0;" x1="143.5" x2="190.5" y1="313.6563" y2="313.6563"/><polygon fill="#181818" points="153.5,309.6563,143.5,313.6563,153.5,317.6563,149.5,313.6563" style="stroke:#181818;stroke-width:1.0;"/><text fill="#000000" font-family="sans-serif" font-size="13" font-weight="bold" lengthAdjust="spacing" textLength="23" x="155.5" y="295.5903">3.6</text><text fill="#000000" font-family="sans-serif" font-size="13" lengthAdjust="spacing" textLength="146" x="182.5" y="295.5903">greenSpaceRepository</text><!--SRC=[ZP8nRy8m48Nt-nKdbhO3bQfsOgXKCI0aXWeOknZdC1Q9BpfVslBl6n98d1AfzNX-x_ExEyUZ3wKHKs31WUr1k21KgGXYTrCQUpIEDdhA2OMick3oL10F9kCl7npkJHu9m5JAeIfs901t1vyHxfbrnzy0jKEzzQK9YfFPcfoFIh8Geh2f7w8v1nNESv89ceZpxNfruoavUcNn51jDLpXj_3bP_VRG8edZ8zm2tbTlspGqFWC0Jb-Rrt5cXOpIuFxn2OnL_rdNsuXO7oTSbRWWnRwT91n0W-kmw4XxOQ-xVsXeGpuqjVEvGaQwRfdB4EiDMRfm1gonKNMgCUBq4dU6wH0xIqR_Grz3doVzP-U3nErkhkN6tsTo8v2nR4D86oRPmnW5VY6IBL38sWtr7-85RgG_]--></g></svg>