<?xml version="1.0" encoding="us-ascii" standalone="no"?><svg xmlns="http://www.w3.org/2000/svg" xmlns:xlink="http://www.w3.org/1999/xlink" contentStyleType="text/css" height="1155.2px" preserveAspectRatio="none" style="width:1355px;height:1155px;background:#FFFFFF;" version="1.1" viewBox="0 0 1355 1155" width="1355.2px" zoomAndPan="magnify"><defs/><g><text fill="#000000" font-family="sans-serif" font-size="11.2" font-weight="bold" lengthAdjust="spacing" textLength="290.4" x="531.6" y="22.3961">UI Sequence Diagram (SSD) - Alternative One</text><rect fill="#FFFFFF" height="981.0188" style="stroke:#181818;stroke-width:0.8000000000000002;" width="8" x="66" y="102.875"/><rect fill="#FFFFFF" height="56.3438" style="stroke:#181818;stroke-width:0.8000000000000002;" width="8" x="280.4" y="119.7813"/><rect fill="#FFFFFF" height="35.4125" style="stroke:#181818;stroke-width:0.8000000000000002;" width="8" x="280.4" y="199.4313"/><rect fill="#FFFFFF" height="35.4125" style="stroke:#181818;stroke-width:0.8000000000000002;" width="8" x="280.4" y="258.15"/><rect fill="#FFFFFF" height="759.825" style="stroke:#181818;stroke-width:0.8000000000000002;" width="8" x="280.4" y="316.8688"/><rect fill="#FFFFFF" height="713.2125" style="stroke:#181818;stroke-width:0.8000000000000002;" width="8" x="504.4" y="340.175"/><rect fill="#FFFFFF" height="125.3313" style="stroke:#181818;stroke-width:0.8000000000000002;" width="8" x="508.4" y="369.8813"/><rect fill="#FFFFFF" height="275.3563" style="stroke:#181818;stroke-width:0.8000000000000002;" width="8" x="508.4" y="550.5188"/><rect fill="#FFFFFF" height="23.3063" style="stroke:#181818;stroke-width:0.8000000000000002;" width="8" x="731.6" y="397.1875"/><rect fill="#FFFFFF" height="23.3063" style="stroke:#181818;stroke-width:0.8000000000000002;" width="8" x="825.2" y="443.8"/><rect fill="#FFFFFF" height="23.3063" style="stroke:#181818;stroke-width:0.8000000000000002;" width="8" x="825.2" y="577.825"/><rect fill="#FFFFFF" height="158.1313" style="stroke:#181818;stroke-width:0.8000000000000002;" width="8" x="955.6" y="624.4375"/><rect fill="#FFFFFF" height="99.5188" style="stroke:#181818;stroke-width:0.8000000000000002;" width="8" x="959.6" y="654.1438"/><rect fill="#FFFFFF" height="32.1063" style="stroke:#181818;stroke-width:0.8000000000000002;" width="8" x="963.6" y="687.85"/><rect fill="#FFFFFF" height="204.2063" style="stroke:#181818;stroke-width:0.8000000000000002;" width="8" x="1116.4" y="825.875"/><rect fill="#FFFFFF" height="99.5188" style="stroke:#181818;stroke-width:0.8000000000000002;" width="8" x="1120.4" y="901.6563"/><rect fill="#FFFFFF" height="32.1063" style="stroke:#181818;stroke-width:0.8000000000000002;" width="8" x="1124.4" y="935.3625"/><line style="stroke:#181818;stroke-width:0.4000000000000001;stroke-dasharray:5.0,5.0;" x1="69.6" x2="69.6" y1="94.875" y2="1091.0938"/><line style="stroke:#181818;stroke-width:0.4000000000000001;stroke-dasharray:5.0,5.0;" x1="284.4" x2="284.4" y1="94.875" y2="1091.0938"/><line style="stroke:#181818;stroke-width:0.4000000000000001;stroke-dasharray:5.0,5.0;" x1="508" x2="508" y1="150.7" y2="1091.0938"/><line style="stroke:#181818;stroke-width:0.4000000000000001;stroke-dasharray:5.0,5.0;" x1="735.2" x2="735.2" y1="94.875" y2="1091.0938"/><line style="stroke:#181818;stroke-width:0.4000000000000001;stroke-dasharray:5.0,5.0;" x1="828.8" x2="828.8" y1="94.875" y2="1091.0938"/><line style="stroke:#181818;stroke-width:0.4000000000000001;stroke-dasharray:5.0,5.0;" x1="959.2" x2="959.2" y1="94.875" y2="1091.0938"/><line style="stroke:#181818;stroke-width:0.4000000000000001;stroke-dasharray:5.0,5.0;" x1="1120" x2="1120" y1="94.875" y2="1091.0938"/><line style="stroke:#181818;stroke-width:0.4000000000000001;stroke-dasharray:5.0,5.0;" x1="1307.2" x2="1307.2" y1="863.3125" y2="1091.0938"/><text fill="#000000" font-family="sans-serif" font-size="11.2" lengthAdjust="spacing" textLength="127.2" x="4" y="92.2336">Green Space Manager</text><ellipse cx="70" cy="40.6375" fill="#E3E3E3" rx="6.4" ry="6.4" style="stroke:#181818;stroke-width:0.4000000000000001;"/><path d="M70,47.0375 L70,68.6375 M59.6,53.4375 L80.4,53.4375 M70,68.6375 L59.6,80.6375 M70,68.6375 L80.4,80.6375 " fill="none" style="stroke:#181818;stroke-width:0.4000000000000001;"/><text fill="#000000" font-family="sans-serif" font-size="11.2" lengthAdjust="spacing" textLength="127.2" x="4" y="1100.6898">Green Space Manager</text><ellipse cx="70" cy="1110.1313" fill="#E3E3E3" rx="6.4" ry="6.4" style="stroke:#181818;stroke-width:0.4000000000000001;"/><path d="M70,1116.5313 L70,1138.1313 M59.6,1122.9313 L80.4,1122.9313 M70,1138.1313 L59.6,1150.1313 M70,1138.1313 L80.4,1150.1313 " fill="none" style="stroke:#181818;stroke-width:0.4000000000000001;"/><rect fill="#E3E3E3" height="24.2375" rx="2" ry="2" style="stroke:#181818;stroke-width:0.4000000000000001;" width="144" x="212.4" y="69.8375"/><text fill="#000000" font-family="sans-serif" font-size="11.2" lengthAdjust="spacing" textLength="132.8" x="218" y="85.8336">:RegisterGreenSpaceUI</text><rect fill="#E3E3E3" height="24.2375" rx="2" ry="2" style="stroke:#181818;stroke-width:0.4000000000000001;" width="144" x="212.4" y="1090.2938"/><text fill="#000000" font-family="sans-serif" font-size="11.2" lengthAdjust="spacing" textLength="132.8" x="218" y="1106.2898">:RegisterGreenSpaceUI</text><rect fill="#E3E3E3" height="24.2375" rx="2" ry="2" style="stroke:#181818;stroke-width:0.4000000000000001;" width="189.6" x="413.6" y="1090.2938"/><text fill="#000000" font-family="sans-serif" font-size="11.2" lengthAdjust="spacing" textLength="178.4" x="419.2" y="1106.2898">:RegisterGreenSpaceController</text><rect fill="#E3E3E3" height="24.2375" rx="2" ry="2" style="stroke:#181818;stroke-width:0.4000000000000001;" width="85.6" x="692.8" y="69.8375"/><text fill="#000000" font-family="sans-serif" font-size="11.2" lengthAdjust="spacing" textLength="74.4" x="698.4" y="85.8336">:Repositories</text><rect fill="#E3E3E3" height="24.2375" rx="2" ry="2" style="stroke:#181818;stroke-width:0.4000000000000001;" width="85.6" x="692.8" y="1090.2938"/><text fill="#000000" font-family="sans-serif" font-size="11.2" lengthAdjust="spacing" textLength="74.4" x="698.4" y="1106.2898">:Repositories</text><rect fill="#E3E3E3" height="37.275" rx="2" ry="2" style="stroke:#181818;stroke-width:0.4000000000000001;" width="85.6" x="786.4" y="56.8"/><text fill="#000000" font-family="sans-serif" font-size="11.2" lengthAdjust="spacing" textLength="67.2" x="795.6" y="72.7961">repositories</text><text fill="#000000" font-family="sans-serif" font-size="11.2" lengthAdjust="spacing" textLength="74.4" x="792" y="85.8336">:Repositories</text><rect fill="#E3E3E3" height="37.275" rx="2" ry="2" style="stroke:#181818;stroke-width:0.4000000000000001;" width="85.6" x="786.4" y="1090.2938"/><text fill="#000000" font-family="sans-serif" font-size="11.2" lengthAdjust="spacing" textLength="67.2" x="795.6" y="1106.2898">repositories</text><text fill="#000000" font-family="sans-serif" font-size="11.2" lengthAdjust="spacing" textLength="74.4" x="792" y="1119.3273">:Repositories</text><rect fill="#E3E3E3" height="37.275" rx="2" ry="2" style="stroke:#181818;stroke-width:0.4000000000000001;" width="159.2" x="880" y="56.8"/><text fill="#000000" font-family="sans-serif" font-size="11.2" lengthAdjust="spacing" textLength="143.2" x="888" y="72.7961">authenticationRepository</text><text fill="#000000" font-family="sans-serif" font-size="11.2" lengthAdjust="spacing" textLength="148" x="885.6" y="85.8336">:AuthenticationRepository</text><rect fill="#E3E3E3" height="37.275" rx="2" ry="2" style="stroke:#181818;stroke-width:0.4000000000000001;" width="159.2" x="880" y="1090.2938"/><text fill="#000000" font-family="sans-serif" font-size="11.2" lengthAdjust="spacing" textLength="143.2" x="888" y="1106.2898">authenticationRepository</text><text fill="#000000" font-family="sans-serif" font-size="11.2" lengthAdjust="spacing" textLength="148" x="885.6" y="1119.3273">:AuthenticationRepository</text><rect fill="#E3E3E3" height="37.275" rx="2" ry="2" style="stroke:#181818;stroke-width:0.4000000000000001;" width="146.4" x="1047.2" y="56.8"/><text fill="#000000" font-family="sans-serif" font-size="11.2" lengthAdjust="spacing" textLength="129.6" x="1055.6" y="72.7961">greenSpaceRepository</text><text fill="#000000" font-family="sans-serif" font-size="11.2" lengthAdjust="spacing" textLength="135.2" x="1052.8" y="85.8336">:GreenSpaceRepository</text><rect fill="#E3E3E3" height="37.275" rx="2" ry="2" style="stroke:#181818;stroke-width:0.4000000000000001;" width="146.4" x="1047.2" y="1090.2938"/><text fill="#000000" font-family="sans-serif" font-size="11.2" lengthAdjust="spacing" textLength="129.6" x="1055.6" y="1106.2898">greenSpaceRepository</text><text fill="#000000" font-family="sans-serif" font-size="11.2" lengthAdjust="spacing" textLength="135.2" x="1052.8" y="1119.3273">:GreenSpaceRepository</text><rect fill="#E3E3E3" height="37.275" rx="2" ry="2" style="stroke:#181818;stroke-width:0.4000000000000001;" width="85.6" x="1264.8" y="1090.2938"/><text fill="#000000" font-family="sans-serif" font-size="11.2" lengthAdjust="spacing" textLength="68.8" x="1273.2" y="1106.2898">greenSpace</text><text fill="#000000" font-family="sans-serif" font-size="11.2" lengthAdjust="spacing" textLength="74.4" x="1270.4" y="1119.3273">:GreenSpace</text><rect fill="#FFFFFF" height="981.0188" style="stroke:#181818;stroke-width:0.8000000000000002;" width="8" x="66" y="102.875"/><rect fill="#FFFFFF" height="56.3438" style="stroke:#181818;stroke-width:0.8000000000000002;" width="8" x="280.4" y="119.7813"/><rect fill="#FFFFFF" height="35.4125" style="stroke:#181818;stroke-width:0.8000000000000002;" width="8" x="280.4" y="199.4313"/><rect fill="#FFFFFF" height="35.4125" style="stroke:#181818;stroke-width:0.8000000000000002;" width="8" x="280.4" y="258.15"/><rect fill="#FFFFFF" height="759.825" style="stroke:#181818;stroke-width:0.8000000000000002;" width="8" x="280.4" y="316.8688"/><rect fill="#FFFFFF" height="713.2125" style="stroke:#181818;stroke-width:0.8000000000000002;" width="8" x="504.4" y="340.175"/><rect fill="#FFFFFF" height="125.3313" style="stroke:#181818;stroke-width:0.8000000000000002;" width="8" x="508.4" y="369.8813"/><rect fill="#FFFFFF" height="275.3563" style="stroke:#181818;stroke-width:0.8000000000000002;" width="8" x="508.4" y="550.5188"/><rect fill="#FFFFFF" height="23.3063" style="stroke:#181818;stroke-width:0.8000000000000002;" width="8" x="731.6" y="397.1875"/><rect fill="#FFFFFF" height="23.3063" style="stroke:#181818;stroke-width:0.8000000000000002;" width="8" x="825.2" y="443.8"/><rect fill="#FFFFFF" height="23.3063" style="stroke:#181818;stroke-width:0.8000000000000002;" width="8" x="825.2" y="577.825"/><rect fill="#FFFFFF" height="158.1313" style="stroke:#181818;stroke-width:0.8000000000000002;" width="8" x="955.6" y="624.4375"/><rect fill="#FFFFFF" height="99.5188" style="stroke:#181818;stroke-width:0.8000000000000002;" width="8" x="959.6" y="654.1438"/><rect fill="#FFFFFF" height="32.1063" style="stroke:#181818;stroke-width:0.8000000000000002;" width="8" x="963.6" y="687.85"/><rect fill="#FFFFFF" height="204.2063" style="stroke:#181818;stroke-width:0.8000000000000002;" width="8" x="1116.4" y="825.875"/><rect fill="#FFFFFF" height="99.5188" style="stroke:#181818;stroke-width:0.8000000000000002;" width="8" x="1120.4" y="901.6563"/><rect fill="#FFFFFF" height="32.1063" style="stroke:#181818;stroke-width:0.8000000000000002;" width="8" x="1124.4" y="935.3625"/><polygon fill="#181818" points="270.8,116.5813,278.8,119.7813,270.8,122.9813,274,119.7813" style="stroke:#181818;stroke-width:0.8000000000000002;"/><line style="stroke:#181818;stroke-width:0.8000000000000002;" x1="74" x2="275.6" y1="119.7813" y2="119.7813"/><text fill="#000000" font-family="sans-serif" font-size="10.4" font-weight="bold" lengthAdjust="spacing" textLength="7.2" x="79.6" y="115.7285">1</text><text fill="#000000" font-family="sans-serif" font-size="10.4" lengthAdjust="spacing" textLength="151.2" x="90" y="115.7285">ask to register a green space</text><polygon fill="#181818" points="404,139.8875,412,143.0875,404,146.2875,407.2,143.0875" style="stroke:#181818;stroke-width:0.8000000000000002;"/><line style="stroke:#181818;stroke-width:0.8000000000000002;" x1="288.4" x2="408.8" y1="143.0875" y2="143.0875"/><text fill="#000000" font-family="sans-serif" font-size="10.4" font-weight="bold" lengthAdjust="spacing" textLength="7.2" x="294" y="139.0348">2</text><text fill="#000000" font-family="sans-serif" font-size="10.4" lengthAdjust="spacing" textLength="32.8" x="304.4" y="139.0348">create</text><rect fill="#E3E3E3" height="24.2375" rx="2" ry="2" style="stroke:#181818;stroke-width:0.4000000000000001;" width="189.6" x="413.6" y="126.1813"/><text fill="#000000" font-family="sans-serif" font-size="11.2" lengthAdjust="spacing" textLength="178.4" x="419.2" y="142.1773">:RegisterGreenSpaceController</text><polygon fill="#181818" points="82.8,172.925,74.8,176.125,82.8,179.325,79.6,176.125" style="stroke:#181818;stroke-width:0.8000000000000002;"/><line style="stroke:#181818;stroke-width:0.8000000000000002;stroke-dasharray:2.0,2.0;" x1="78" x2="283.6" y1="176.125" y2="176.125"/><text fill="#000000" font-family="sans-serif" font-size="10.4" font-weight="bold" lengthAdjust="spacing" textLength="7.2" x="87.6" y="172.0723">3</text><text fill="#000000" font-family="sans-serif" font-size="10.4" lengthAdjust="spacing" textLength="176.8" x="98" y="172.0723">request data (name,area,address)</text><polygon fill="#181818" points="270.8,196.2313,278.8,199.4313,270.8,202.6313,274,199.4313" style="stroke:#181818;stroke-width:0.8000000000000002;"/><line style="stroke:#181818;stroke-width:0.8000000000000002;" x1="74" x2="275.6" y1="199.4313" y2="199.4313"/><text fill="#000000" font-family="sans-serif" font-size="10.4" font-weight="bold" lengthAdjust="spacing" textLength="7.2" x="79.6" y="195.3785">4</text><text fill="#000000" font-family="sans-serif" font-size="10.4" lengthAdjust="spacing" textLength="110.4" x="90" y="195.3785">types requested data</text><polygon fill="#181818" points="82.8,231.6438,74.8,234.8438,82.8,238.0438,79.6,234.8438" style="stroke:#181818;stroke-width:0.8000000000000002;"/><line style="stroke:#181818;stroke-width:0.8000000000000002;stroke-dasharray:2.0,2.0;" x1="78" x2="283.6" y1="234.8438" y2="234.8438"/><text fill="#000000" font-family="sans-serif" font-size="10.4" font-weight="bold" lengthAdjust="spacing" textLength="7.2" x="87.6" y="224.7379">5</text><text fill="#000000" font-family="sans-serif" font-size="10.4" lengthAdjust="spacing" textLength="131.2" x="98" y="218.6848">shows list of sizes option</text><text fill="#000000" font-family="sans-serif" font-size="10.4" lengthAdjust="spacing" textLength="121.6" x="101.2" y="230.791">and request a selection</text><polygon fill="#181818" points="270.8,254.95,278.8,258.15,270.8,261.35,274,258.15" style="stroke:#181818;stroke-width:0.8000000000000002;"/><line style="stroke:#181818;stroke-width:0.8000000000000002;" x1="74" x2="275.6" y1="258.15" y2="258.15"/><text fill="#000000" font-family="sans-serif" font-size="10.4" font-weight="bold" lengthAdjust="spacing" textLength="7.2" x="79.6" y="254.0973">6</text><text fill="#000000" font-family="sans-serif" font-size="10.4" lengthAdjust="spacing" textLength="83.2" x="90" y="254.0973">select an option</text><polygon fill="#181818" points="82.8,290.3625,74.8,293.5625,82.8,296.7625,79.6,293.5625" style="stroke:#181818;stroke-width:0.8000000000000002;"/><line style="stroke:#181818;stroke-width:0.8000000000000002;stroke-dasharray:2.0,2.0;" x1="78" x2="283.6" y1="293.5625" y2="293.5625"/><text fill="#000000" font-family="sans-serif" font-size="10.4" font-weight="bold" lengthAdjust="spacing" textLength="7.2" x="87.6" y="283.4566">7</text><text fill="#000000" font-family="sans-serif" font-size="10.4" lengthAdjust="spacing" textLength="125.6" x="98" y="277.4035">show all data registered</text><text fill="#000000" font-family="sans-serif" font-size="10.4" lengthAdjust="spacing" textLength="141.6" x="101.2" y="289.5098">and the confirmation menu</text><polygon fill="#181818" points="270.8,313.6688,278.8,316.8688,270.8,320.0688,274,316.8688" style="stroke:#181818;stroke-width:0.8000000000000002;"/><line style="stroke:#181818;stroke-width:0.8000000000000002;" x1="74" x2="275.6" y1="316.8688" y2="316.8688"/><text fill="#000000" font-family="sans-serif" font-size="10.4" font-weight="bold" lengthAdjust="spacing" textLength="7.2" x="79.6" y="312.816">8</text><text fill="#000000" font-family="sans-serif" font-size="10.4" lengthAdjust="spacing" textLength="68" x="90" y="312.816">submits data</text><polygon fill="#181818" points="494.8,336.975,502.8,340.175,494.8,343.375,498,340.175" style="stroke:#181818;stroke-width:0.8000000000000002;"/><line style="stroke:#181818;stroke-width:0.8000000000000002;" x1="288.4" x2="499.6" y1="340.175" y2="340.175"/><text fill="#000000" font-family="sans-serif" font-size="10.4" font-weight="bold" lengthAdjust="spacing" textLength="7.2" x="294" y="336.1223">9</text><text fill="#000000" font-family="sans-serif" font-size="10.4" lengthAdjust="spacing" textLength="190.4" x="304.4" y="336.1223">registerGreenSpace(name,size,area)</text><line style="stroke:#181818;stroke-width:0.8000000000000002;" x1="512.4" x2="550" y1="359.4813" y2="359.4813"/><line style="stroke:#181818;stroke-width:0.8000000000000002;" x1="550" x2="550" y1="359.4813" y2="369.8813"/><line style="stroke:#181818;stroke-width:0.8000000000000002;" x1="517.2" x2="550" y1="369.8813" y2="369.8813"/><polygon fill="#181818" points="525.2,366.6813,517.2,369.8813,525.2,373.0813,522,369.8813" style="stroke:#181818;stroke-width:0.8000000000000002;"/><text fill="#000000" font-family="sans-serif" font-size="10.4" font-weight="bold" lengthAdjust="spacing" textLength="14.4" x="522" y="355.4285">10</text><text fill="#000000" font-family="sans-serif" font-size="10.4" lengthAdjust="spacing" textLength="143.2" x="539.6" y="355.4285">getGreenSpaceRepository()</text><polygon fill="#181818" points="722,393.9875,730,397.1875,722,400.3875,725.2,397.1875" style="stroke:#181818;stroke-width:0.8000000000000002;"/><line style="stroke:#181818;stroke-width:0.8000000000000002;" x1="516.4" x2="726.8" y1="397.1875" y2="397.1875"/><text fill="#000000" font-family="sans-serif" font-size="10.4" font-weight="bold" lengthAdjust="spacing" textLength="14.4" x="522" y="393.1348">11</text><text fill="#000000" font-family="sans-serif" font-size="10.4" lengthAdjust="spacing" textLength="68.8" x="539.6" y="393.1348">getInstance()</text><polygon fill="#181818" points="525.2,417.2938,517.2,420.4938,525.2,423.6938,522,420.4938" style="stroke:#181818;stroke-width:0.8000000000000002;"/><line style="stroke:#181818;stroke-width:0.8000000000000002;stroke-dasharray:2.0,2.0;" x1="520.4" x2="734.8" y1="420.4938" y2="420.4938"/><text fill="#000000" font-family="sans-serif" font-size="10.4" font-weight="bold" lengthAdjust="spacing" textLength="14.4" x="530" y="416.441">12</text><text fill="#000000" font-family="sans-serif" font-size="10.4" lengthAdjust="spacing" textLength="61.6" x="547.6" y="416.441">repositories</text><polygon fill="#181818" points="815.6,440.6,823.6,443.8,815.6,447,818.8,443.8" style="stroke:#181818;stroke-width:0.8000000000000002;"/><line style="stroke:#181818;stroke-width:0.8000000000000002;" x1="516.4" x2="820.4" y1="443.8" y2="443.8"/><text fill="#000000" font-family="sans-serif" font-size="10.4" font-weight="bold" lengthAdjust="spacing" textLength="14.4" x="522" y="439.7473">13</text><text fill="#000000" font-family="sans-serif" font-size="10.4" lengthAdjust="spacing" textLength="143.2" x="539.6" y="439.7473">getGreenSpaceRepository()</text><polygon fill="#181818" points="525.2,463.9063,517.2,467.1063,525.2,470.3063,522,467.1063" style="stroke:#181818;stroke-width:0.8000000000000002;"/><line style="stroke:#181818;stroke-width:0.8000000000000002;stroke-dasharray:2.0,2.0;" x1="520.4" x2="828.4" y1="467.1063" y2="467.1063"/><text fill="#000000" font-family="sans-serif" font-size="10.4" font-weight="bold" lengthAdjust="spacing" textLength="14.4" x="530" y="463.0535">14</text><text fill="#000000" font-family="sans-serif" font-size="10.4" lengthAdjust="spacing" textLength="116.8" x="547.6" y="463.0535">greenSpaceRepository</text><line style="stroke:#181818;stroke-width:0.8000000000000002;stroke-dasharray:2.0,2.0;" x1="516.4" x2="550" y1="494.4125" y2="494.4125"/><line style="stroke:#181818;stroke-width:0.8000000000000002;stroke-dasharray:2.0,2.0;" x1="550" x2="550" y1="494.4125" y2="504.8125"/><line style="stroke:#181818;stroke-width:0.8000000000000002;stroke-dasharray:2.0,2.0;" x1="512.4" x2="550" y1="504.8125" y2="504.8125"/><polygon fill="#181818" points="520.4,501.6125,512.4,504.8125,520.4,508.0125,517.2,504.8125" style="stroke:#181818;stroke-width:0.8000000000000002;"/><text fill="#000000" font-family="sans-serif" font-size="10.4" font-weight="bold" lengthAdjust="spacing" textLength="14.4" x="522" y="490.3598">15</text><text fill="#000000" font-family="sans-serif" font-size="10.4" lengthAdjust="spacing" textLength="116.8" x="539.6" y="490.3598">greenSpaceRepository</text><line style="stroke:#181818;stroke-width:0.8000000000000002;" x1="512.4" x2="550" y1="540.1188" y2="540.1188"/><line style="stroke:#181818;stroke-width:0.8000000000000002;" x1="550" x2="550" y1="540.1188" y2="550.5188"/><line style="stroke:#181818;stroke-width:0.8000000000000002;" x1="517.2" x2="550" y1="550.5188" y2="550.5188"/><polygon fill="#181818" points="525.2,547.3188,517.2,550.5188,525.2,553.7188,522,550.5188" style="stroke:#181818;stroke-width:0.8000000000000002;"/><text fill="#000000" font-family="sans-serif" font-size="10.4" font-weight="bold" lengthAdjust="spacing" textLength="14.4" x="522" y="536.066">16</text><text fill="#000000" font-family="sans-serif" font-size="10.4" lengthAdjust="spacing" textLength="190.4" x="539.6" y="536.066">registerGreenSpace(name,size,area)</text><polygon fill="#181818" points="815.6,574.625,823.6,577.825,815.6,581.025,818.8,577.825" style="stroke:#181818;stroke-width:0.8000000000000002;"/><line style="stroke:#181818;stroke-width:0.8000000000000002;" x1="516.4" x2="820.4" y1="577.825" y2="577.825"/><text fill="#000000" font-family="sans-serif" font-size="10.4" font-weight="bold" lengthAdjust="spacing" textLength="14.4" x="522" y="573.7723">17</text><text fill="#000000" font-family="sans-serif" font-size="10.4" lengthAdjust="spacing" textLength="156.8" x="539.6" y="573.7723">getAuthenticationRepository()</text><polygon fill="#181818" points="525.2,597.9313,517.2,601.1313,525.2,604.3313,522,601.1313" style="stroke:#181818;stroke-width:0.8000000000000002;"/><line style="stroke:#181818;stroke-width:0.8000000000000002;stroke-dasharray:2.0,2.0;" x1="520.4" x2="828.4" y1="601.1313" y2="601.1313"/><text fill="#000000" font-family="sans-serif" font-size="10.4" font-weight="bold" lengthAdjust="spacing" textLength="14.4" x="530" y="597.0785">18</text><text fill="#000000" font-family="sans-serif" font-size="10.4" lengthAdjust="spacing" textLength="131.2" x="547.6" y="597.0785">authenticationRepository</text><polygon fill="#181818" points="946,621.2375,954,624.4375,946,627.6375,949.2,624.4375" style="stroke:#181818;stroke-width:0.8000000000000002;"/><line style="stroke:#181818;stroke-width:0.8000000000000002;" x1="516.4" x2="950.8" y1="624.4375" y2="624.4375"/><text fill="#000000" font-family="sans-serif" font-size="10.4" font-weight="bold" lengthAdjust="spacing" textLength="14.4" x="522" y="620.3848">19</text><text fill="#000000" font-family="sans-serif" font-size="10.4" lengthAdjust="spacing" textLength="127.2" x="539.6" y="620.3848">getCurrentUserSession()</text><line style="stroke:#181818;stroke-width:0.8000000000000002;" x1="963.6" x2="1001.2" y1="643.7438" y2="643.7438"/><line style="stroke:#181818;stroke-width:0.8000000000000002;" x1="1001.2" x2="1001.2" y1="643.7438" y2="654.1438"/><line style="stroke:#181818;stroke-width:0.8000000000000002;" x1="968.4" x2="1001.2" y1="654.1438" y2="654.1438"/><polygon fill="#181818" points="976.4,650.9438,968.4,654.1438,976.4,657.3438,973.2,654.1438" style="stroke:#181818;stroke-width:0.8000000000000002;"/><text fill="#000000" font-family="sans-serif" font-size="10.4" font-weight="bold" lengthAdjust="spacing" textLength="14.4" x="973.2" y="639.691">20</text><text fill="#000000" font-family="sans-serif" font-size="10.4" lengthAdjust="spacing" textLength="58.4" x="990.8" y="639.691">getUserId()</text><line style="stroke:#181818;stroke-width:0.8000000000000002;" x1="967.6" x2="1005.2" y1="677.45" y2="677.45"/><line style="stroke:#181818;stroke-width:0.8000000000000002;" x1="1005.2" x2="1005.2" y1="677.45" y2="687.85"/><line style="stroke:#181818;stroke-width:0.8000000000000002;" x1="972.4" x2="1005.2" y1="687.85" y2="687.85"/><polygon fill="#181818" points="980.4,684.65,972.4,687.85,980.4,691.05,977.2,687.85" style="stroke:#181818;stroke-width:0.8000000000000002;"/><text fill="#000000" font-family="sans-serif" font-size="10.4" font-weight="bold" lengthAdjust="spacing" textLength="14.4" x="977.2" y="673.3973">21</text><text fill="#000000" font-family="sans-serif" font-size="10.4" lengthAdjust="spacing" textLength="54.4" x="994.8" y="673.3973">getEmail()</text><line style="stroke:#181818;stroke-width:0.8000000000000002;stroke-dasharray:2.0,2.0;" x1="971.6" x2="1005.2" y1="719.1563" y2="719.1563"/><line style="stroke:#181818;stroke-width:0.8000000000000002;stroke-dasharray:2.0,2.0;" x1="1005.2" x2="1005.2" y1="719.1563" y2="729.5563"/><line style="stroke:#181818;stroke-width:0.8000000000000002;stroke-dasharray:2.0,2.0;" x1="967.6" x2="1005.2" y1="729.5563" y2="729.5563"/><polygon fill="#181818" points="975.6,726.3563,967.6,729.5563,975.6,732.7563,972.4,729.5563" style="stroke:#181818;stroke-width:0.8000000000000002;"/><text fill="#000000" font-family="sans-serif" font-size="10.4" font-weight="bold" lengthAdjust="spacing" textLength="14.4" x="977.2" y="715.1035">22</text><text fill="#000000" font-family="sans-serif" font-size="10.4" lengthAdjust="spacing" textLength="3.2" x="994.8" y="715.1035">&#160;</text><line style="stroke:#181818;stroke-width:0.8000000000000002;stroke-dasharray:2.0,2.0;" x1="967.6" x2="1001.2" y1="752.8625" y2="752.8625"/><line style="stroke:#181818;stroke-width:0.8000000000000002;stroke-dasharray:2.0,2.0;" x1="1001.2" x2="1001.2" y1="752.8625" y2="763.2625"/><line style="stroke:#181818;stroke-width:0.8000000000000002;stroke-dasharray:2.0,2.0;" x1="963.6" x2="1001.2" y1="763.2625" y2="763.2625"/><polygon fill="#181818" points="971.6,760.0625,963.6,763.2625,971.6,766.4625,968.4,763.2625" style="stroke:#181818;stroke-width:0.8000000000000002;"/><text fill="#000000" font-family="sans-serif" font-size="10.4" font-weight="bold" lengthAdjust="spacing" textLength="14.4" x="973.2" y="748.8098">23</text><text fill="#000000" font-family="sans-serif" font-size="10.4" lengthAdjust="spacing" textLength="3.2" x="990.8" y="748.8098">&#160;</text><polygon fill="#181818" points="525.2,779.3688,517.2,782.5688,525.2,785.7688,522,782.5688" style="stroke:#181818;stroke-width:0.8000000000000002;"/><line style="stroke:#181818;stroke-width:0.8000000000000002;stroke-dasharray:2.0,2.0;" x1="520.4" x2="958.8" y1="782.5688" y2="782.5688"/><text fill="#000000" font-family="sans-serif" font-size="10.4" font-weight="bold" lengthAdjust="spacing" textLength="14.4" x="530" y="778.516">24</text><text fill="#000000" font-family="sans-serif" font-size="10.4" lengthAdjust="spacing" textLength="53.6" x="547.6" y="778.516">resposible</text><polygon fill="#181818" points="1106.8,822.675,1114.8,825.875,1106.8,829.075,1110,825.875" style="stroke:#181818;stroke-width:0.8000000000000002;"/><line style="stroke:#181818;stroke-width:0.8000000000000002;" x1="512.4" x2="1111.6" y1="825.875" y2="825.875"/><text fill="#000000" font-family="sans-serif" font-size="10.4" font-weight="bold" lengthAdjust="spacing" textLength="14.4" x="518" y="821.8223">25</text><text fill="#000000" font-family="sans-serif" font-size="10.4" lengthAdjust="spacing" textLength="247.2" x="535.6" y="821.8223">registerGreenSpace(name,size,area,resposible)</text><polygon fill="#181818" points="1255.2,845.9813,1263.2,849.1813,1255.2,852.3813,1258.4,849.1813" style="stroke:#181818;stroke-width:0.8000000000000002;"/><line style="stroke:#181818;stroke-width:0.8000000000000002;" x1="1124.4" x2="1260" y1="849.1813" y2="849.1813"/><text fill="#000000" font-family="sans-serif" font-size="10.4" font-weight="bold" lengthAdjust="spacing" textLength="14.4" x="1130" y="845.1285">26</text><text fill="#000000" font-family="sans-serif" font-size="10.4" lengthAdjust="spacing" textLength="32.8" x="1147.6" y="845.1285">create</text><rect fill="#E3E3E3" height="37.275" rx="2" ry="2" style="stroke:#181818;stroke-width:0.4000000000000001;" width="85.6" x="1264.8" y="832.275"/><text fill="#000000" font-family="sans-serif" font-size="11.2" lengthAdjust="spacing" textLength="68.8" x="1273.2" y="848.2711">greenSpace</text><text fill="#000000" font-family="sans-serif" font-size="11.2" lengthAdjust="spacing" textLength="74.4" x="1270.4" y="861.3086">:GreenSpace</text><line style="stroke:#181818;stroke-width:0.8000000000000002;" x1="1124.4" x2="1162" y1="891.2563" y2="891.2563"/><line style="stroke:#181818;stroke-width:0.8000000000000002;" x1="1162" x2="1162" y1="891.2563" y2="901.6563"/><line style="stroke:#181818;stroke-width:0.8000000000000002;" x1="1129.2" x2="1162" y1="901.6563" y2="901.6563"/><polygon fill="#181818" points="1137.2,898.4563,1129.2,901.6563,1137.2,904.8563,1134,901.6563" style="stroke:#181818;stroke-width:0.8000000000000002;"/><text fill="#000000" font-family="sans-serif" font-size="10.4" font-weight="bold" lengthAdjust="spacing" textLength="14.4" x="1134" y="887.2035">27</text><text fill="#000000" font-family="sans-serif" font-size="10.4" lengthAdjust="spacing" textLength="150.4" x="1151.6" y="887.2035">addGreenSpace(greenSpace)</text><line style="stroke:#181818;stroke-width:0.8000000000000002;" x1="1128.4" x2="1166" y1="924.9625" y2="924.9625"/><line style="stroke:#181818;stroke-width:0.8000000000000002;" x1="1166" x2="1166" y1="924.9625" y2="935.3625"/><line style="stroke:#181818;stroke-width:0.8000000000000002;" x1="1133.2" x2="1166" y1="935.3625" y2="935.3625"/><polygon fill="#181818" points="1141.2,932.1625,1133.2,935.3625,1141.2,938.5625,1138,935.3625" style="stroke:#181818;stroke-width:0.8000000000000002;"/><text fill="#000000" font-family="sans-serif" font-size="10.4" font-weight="bold" lengthAdjust="spacing" textLength="14.4" x="1138" y="920.9098">28</text><text fill="#000000" font-family="sans-serif" font-size="10.4" lengthAdjust="spacing" textLength="111.2" x="1155.6" y="920.9098">validate(greenSpace)</text><line style="stroke:#181818;stroke-width:0.8000000000000002;stroke-dasharray:2.0,2.0;" x1="1132.4" x2="1166" y1="966.6688" y2="966.6688"/><line style="stroke:#181818;stroke-width:0.8000000000000002;stroke-dasharray:2.0,2.0;" x1="1166" x2="1166" y1="966.6688" y2="977.0688"/><line style="stroke:#181818;stroke-width:0.8000000000000002;stroke-dasharray:2.0,2.0;" x1="1128.4" x2="1166" y1="977.0688" y2="977.0688"/><polygon fill="#181818" points="1136.4,973.8688,1128.4,977.0688,1136.4,980.2688,1133.2,977.0688" style="stroke:#181818;stroke-width:0.8000000000000002;"/><text fill="#000000" font-family="sans-serif" font-size="10.4" font-weight="bold" lengthAdjust="spacing" textLength="14.4" x="1138" y="962.616">29</text><text fill="#000000" font-family="sans-serif" font-size="10.4" lengthAdjust="spacing" textLength="3.2" x="1155.6" y="962.616">&#160;</text><line style="stroke:#181818;stroke-width:0.8000000000000002;stroke-dasharray:2.0,2.0;" x1="1128.4" x2="1162" y1="1000.375" y2="1000.375"/><line style="stroke:#181818;stroke-width:0.8000000000000002;stroke-dasharray:2.0,2.0;" x1="1162" x2="1162" y1="1000.375" y2="1010.775"/><line style="stroke:#181818;stroke-width:0.8000000000000002;stroke-dasharray:2.0,2.0;" x1="1124.4" x2="1162" y1="1010.775" y2="1010.775"/><polygon fill="#181818" points="1132.4,1007.575,1124.4,1010.775,1132.4,1013.975,1129.2,1010.775" style="stroke:#181818;stroke-width:0.8000000000000002;"/><text fill="#000000" font-family="sans-serif" font-size="10.4" font-weight="bold" lengthAdjust="spacing" textLength="14.4" x="1134" y="996.3223">30</text><text fill="#000000" font-family="sans-serif" font-size="10.4" lengthAdjust="spacing" textLength="3.2" x="1151.6" y="996.3223">&#160;</text><polygon fill="#181818" points="521.2,1026.8813,513.2,1030.0813,521.2,1033.2813,518,1030.0813" style="stroke:#181818;stroke-width:0.8000000000000002;"/><line style="stroke:#181818;stroke-width:0.8000000000000002;stroke-dasharray:2.0,2.0;" x1="516.4" x2="1119.6" y1="1030.0813" y2="1030.0813"/><text fill="#000000" font-family="sans-serif" font-size="10.4" font-weight="bold" lengthAdjust="spacing" textLength="14.4" x="526" y="1026.0285">31</text><text fill="#000000" font-family="sans-serif" font-size="10.4" lengthAdjust="spacing" textLength="60.8" x="543.6" y="1026.0285">greenSpace</text><polygon fill="#181818" points="297.2,1050.1875,289.2,1053.3875,297.2,1056.5875,294,1053.3875" style="stroke:#181818;stroke-width:0.8000000000000002;"/><line style="stroke:#181818;stroke-width:0.8000000000000002;stroke-dasharray:2.0,2.0;" x1="292.4" x2="507.6" y1="1053.3875" y2="1053.3875"/><text fill="#000000" font-family="sans-serif" font-size="10.4" font-weight="bold" lengthAdjust="spacing" textLength="14.4" x="302" y="1049.3348">32</text><text fill="#000000" font-family="sans-serif" font-size="10.4" lengthAdjust="spacing" textLength="60.8" x="319.6" y="1049.3348">greenSpace</text><polygon fill="#181818" points="82.8,1073.4938,74.8,1076.6938,82.8,1079.8938,79.6,1076.6938" style="stroke:#181818;stroke-width:0.8000000000000002;"/><line style="stroke:#181818;stroke-width:0.8000000000000002;stroke-dasharray:2.0,2.0;" x1="78" x2="283.6" y1="1076.6938" y2="1076.6938"/><text fill="#000000" font-family="sans-serif" font-size="10.4" font-weight="bold" lengthAdjust="spacing" textLength="14.4" x="87.6" y="1072.641">33</text><text fill="#000000" font-family="sans-serif" font-size="10.4" lengthAdjust="spacing" textLength="147.2" x="105.2" y="1072.641">shows operation (in)success</text><!--SRC=[lLPDJ-Cm4BtxLumuDGZ-08UL421K2GGYzCR594DgaTXPsm5rnO_ViTCaJME7Bg3DgRNdlNdpuR7Dgv0rrxo2IacLhRMg4Anka9b-f-RPAoymjPiIGMDckIpANGEpvhbw5xA05ruQPCmAIwQh9QJukq6P8LmANZZJHPfU9d0AvwL5BRaLRmXtaY2yiKesrJDg-frPfU7eMYDAICazmYsN944V0JTmLTMbsY0oycv59cekBHoTFM0X3B5wc4Ujbjv-jVpKya99grLPRZrSF3xSJ32rCe9q2JJUfb_OfCBbW-IF8Ne7yIId1FStvuzZ1ELWZPB-KrwK71mG-ZoovPbYk35xqKSxOhuEB7lMa7sCSSJJ5kds_k7g-exvQeetRd6e6mFwkdzm-ijroXc1Ni4gQh2sEC1R1M0SfuVqJ5HHlq0uGhjg7HyJGwQHTjkjRflsUqzdH4xzQ2pat79OI5xX2IVG2SzpZSOaFTHzEKuSTjz4lDtKQ3fwpBs3CIJA5LThrkhTG4df0FK2HlmX5wfsDNwIm6NUXyF1O4a7atOcr3DH12DfcOX-wugngFgmOk1bsIQuAoNcMxtKff0f-I9qvLiLAfGDYwYSAckUAs5DczjzKUDsyANUF-HjlLqQVT6JCOS_ytx94mn41ThG6La4yNrkEfB0c6WvbzBG82LLGzFrNA7Pqbk564-tSbtOmvXXWHwOfUv4kz7qQUGZnNwOzSiUFsWAJfA0jZ59AsQd3Y6M_URnLN1h7nyV42pdb_gYqpIJgTY4ZcPhmZdAcXk8iR4UIHt4PSQeMkaNZTQqkpAeKvg2P14I7PKp7dCnJxCgI8JplimNINXeVfgBKTZV4-DISbLnKUw9-G51yw9cLCsDzOCnF-Tz4jm1Sa8mTh2q_lGQj_nS8llNJFY9iEklEnoXmNB8e3WPn2JnGTIlnETNK82xMDitrEHj4xEF14AFcvqO1gE47I3m2_xUU2deZXwx-ewdYAlzbFz7LiRcYITNri5Q-rlFFtdY1CDpPUxjg6hKxKjh8MHYcYoZ-HvuSFq5]--></g></svg>