<?xml version="1.0" encoding="us-ascii" standalone="no"?><svg xmlns="http://www.w3.org/2000/svg" xmlns:xlink="http://www.w3.org/1999/xlink" contentStyleType="text/css" height="728px" preserveAspectRatio="none" style="width:1190px;height:728px;background:#FFFFFF;" version="1.1" viewBox="0 0 1190 728" width="1190px" zoomAndPan="magnify"><defs/><g><text fill="#000000" font-family="sans-serif" font-size="14" font-weight="bold" lengthAdjust="spacing" textLength="363" x="411" y="27.9951">UI Sequence Diagram (SSD) - Alternative One</text><rect fill="#FFFFFF" height="510.3594" style="stroke:#181818;stroke-width:1.0;" width="10" x="82.5" y="128.5938"/><rect fill="#FFFFFF" height="70.4297" style="stroke:#181818;stroke-width:1.0;" width="10" x="350.5" y="149.7266"/><rect fill="#FFFFFF" height="44.2656" style="stroke:#181818;stroke-width:1.0;" width="10" x="350.5" y="249.2891"/><rect fill="#FFFFFF" height="44.2656" style="stroke:#181818;stroke-width:1.0;" width="10" x="350.5" y="322.6875"/><rect fill="#FFFFFF" height="233.8672" style="stroke:#181818;stroke-width:1.0;" width="10" x="350.5" y="396.0859"/><rect fill="#FFFFFF" height="175.6016" style="stroke:#181818;stroke-width:1.0;" width="10" x="630.5" y="425.2188"/><rect fill="#FFFFFF" height="73.2344" style="stroke:#181818;stroke-width:1.0;" width="10" x="1084.5" y="498.4531"/><line style="stroke:#181818;stroke-width:0.5;stroke-dasharray:5.0,5.0;" x1="87" x2="87" y1="118.5938" y2="647.9531"/><line style="stroke:#181818;stroke-width:0.5;stroke-dasharray:5.0,5.0;" x1="355.5" x2="355.5" y1="118.5938" y2="647.9531"/><line style="stroke:#181818;stroke-width:0.5;stroke-dasharray:5.0,5.0;" x1="635" x2="635" y1="188.375" y2="647.9531"/><line style="stroke:#181818;stroke-width:0.5;stroke-dasharray:5.0,5.0;" x1="817" x2="817" y1="118.5938" y2="647.9531"/><line style="stroke:#181818;stroke-width:0.5;stroke-dasharray:5.0,5.0;" x1="934" x2="934" y1="118.5938" y2="647.9531"/><line style="stroke:#181818;stroke-width:0.5;stroke-dasharray:5.0,5.0;" x1="1089" x2="1089" y1="118.5938" y2="647.9531"/><text fill="#000000" font-family="sans-serif" font-size="14" lengthAdjust="spacing" textLength="159" x="5" y="115.292">Green Space Manager</text><ellipse cx="87.5" cy="50.7969" fill="#E3E3E3" rx="8" ry="8" style="stroke:#181818;stroke-width:0.5;"/><path d="M87.5,58.7969 L87.5,85.7969 M74.5,66.7969 L100.5,66.7969 M87.5,85.7969 L74.5,100.7969 M87.5,85.7969 L100.5,100.7969 " fill="none" style="stroke:#181818;stroke-width:0.5;"/><text fill="#000000" font-family="sans-serif" font-size="14" lengthAdjust="spacing" textLength="159" x="5" y="659.9482">Green Space Manager</text><ellipse cx="87.5" cy="671.75" fill="#E3E3E3" rx="8" ry="8" style="stroke:#181818;stroke-width:0.5;"/><path d="M87.5,679.75 L87.5,706.75 M74.5,687.75 L100.5,687.75 M87.5,706.75 L74.5,721.75 M87.5,706.75 L100.5,721.75 " fill="none" style="stroke:#181818;stroke-width:0.5;"/><rect fill="#E3E3E3" height="30.2969" rx="2.5" ry="2.5" style="stroke:#181818;stroke-width:0.5;" width="180" x="265.5" y="87.2969"/><text fill="#000000" font-family="sans-serif" font-size="14" lengthAdjust="spacing" textLength="166" x="272.5" y="107.292">:RegisterGreenSpaceUI</text><rect fill="#E3E3E3" height="30.2969" rx="2.5" ry="2.5" style="stroke:#181818;stroke-width:0.5;" width="180" x="265.5" y="646.9531"/><text fill="#000000" font-family="sans-serif" font-size="14" lengthAdjust="spacing" textLength="166" x="272.5" y="666.9482">:RegisterGreenSpaceUI</text><rect fill="#E3E3E3" height="30.2969" rx="2.5" ry="2.5" style="stroke:#181818;stroke-width:0.5;" width="237" x="517" y="646.9531"/><text fill="#000000" font-family="sans-serif" font-size="14" lengthAdjust="spacing" textLength="223" x="524" y="666.9482">:RegisterGreenSpaceController</text><rect fill="#E3E3E3" height="30.2969" rx="2.5" ry="2.5" style="stroke:#181818;stroke-width:0.5;" width="107" x="764" y="87.2969"/><text fill="#000000" font-family="sans-serif" font-size="14" lengthAdjust="spacing" textLength="93" x="771" y="107.292">:Repositories</text><rect fill="#E3E3E3" height="30.2969" rx="2.5" ry="2.5" style="stroke:#181818;stroke-width:0.5;" width="107" x="764" y="646.9531"/><text fill="#000000" font-family="sans-serif" font-size="14" lengthAdjust="spacing" textLength="93" x="771" y="666.9482">:Repositories</text><rect fill="#E3E3E3" height="46.5938" rx="2.5" ry="2.5" style="stroke:#181818;stroke-width:0.5;" width="107" x="881" y="71"/><text fill="#000000" font-family="sans-serif" font-size="14" lengthAdjust="spacing" textLength="84" x="892.5" y="90.9951">repositories</text><text fill="#000000" font-family="sans-serif" font-size="14" lengthAdjust="spacing" textLength="93" x="888" y="107.292">:Repositories</text><rect fill="#E3E3E3" height="46.5938" rx="2.5" ry="2.5" style="stroke:#181818;stroke-width:0.5;" width="107" x="881" y="646.9531"/><text fill="#000000" font-family="sans-serif" font-size="14" lengthAdjust="spacing" textLength="84" x="892.5" y="666.9482">repositories</text><text fill="#000000" font-family="sans-serif" font-size="14" lengthAdjust="spacing" textLength="93" x="888" y="683.2451">:Repositories</text><rect fill="#E3E3E3" height="46.5938" rx="2.5" ry="2.5" style="stroke:#181818;stroke-width:0.5;" width="183" x="998" y="71"/><text fill="#000000" font-family="sans-serif" font-size="14" lengthAdjust="spacing" textLength="162" x="1008.5" y="90.9951">greenSpaceRepository</text><text fill="#000000" font-family="sans-serif" font-size="14" lengthAdjust="spacing" textLength="169" x="1005" y="107.292">:GreenSpaceRepository</text><rect fill="#E3E3E3" height="46.5938" rx="2.5" ry="2.5" style="stroke:#181818;stroke-width:0.5;" width="183" x="998" y="646.9531"/><text fill="#000000" font-family="sans-serif" font-size="14" lengthAdjust="spacing" textLength="162" x="1008.5" y="666.9482">greenSpaceRepository</text><text fill="#000000" font-family="sans-serif" font-size="14" lengthAdjust="spacing" textLength="169" x="1005" y="683.2451">:GreenSpaceRepository</text><rect fill="#FFFFFF" height="510.3594" style="stroke:#181818;stroke-width:1.0;" width="10" x="82.5" y="128.5938"/><rect fill="#FFFFFF" height="70.4297" style="stroke:#181818;stroke-width:1.0;" width="10" x="350.5" y="149.7266"/><rect fill="#FFFFFF" height="44.2656" style="stroke:#181818;stroke-width:1.0;" width="10" x="350.5" y="249.2891"/><rect fill="#FFFFFF" height="44.2656" style="stroke:#181818;stroke-width:1.0;" width="10" x="350.5" y="322.6875"/><rect fill="#FFFFFF" height="233.8672" style="stroke:#181818;stroke-width:1.0;" width="10" x="350.5" y="396.0859"/><rect fill="#FFFFFF" height="175.6016" style="stroke:#181818;stroke-width:1.0;" width="10" x="630.5" y="425.2188"/><rect fill="#FFFFFF" height="73.2344" style="stroke:#181818;stroke-width:1.0;" width="10" x="1084.5" y="498.4531"/><polygon fill="#181818" points="338.5,145.7266,348.5,149.7266,338.5,153.7266,342.5,149.7266" style="stroke:#181818;stroke-width:1.0;"/><line style="stroke:#181818;stroke-width:1.0;" x1="92.5" x2="344.5" y1="149.7266" y2="149.7266"/><text fill="#000000" font-family="sans-serif" font-size="13" font-weight="bold" lengthAdjust="spacing" textLength="9" x="99.5" y="144.6606">1</text><text fill="#000000" font-family="sans-serif" font-size="13" lengthAdjust="spacing" textLength="189" x="112.5" y="144.6606">ask to register a green space</text><polygon fill="#181818" points="505,174.8594,515,178.8594,505,182.8594,509,178.8594" style="stroke:#181818;stroke-width:1.0;"/><line style="stroke:#181818;stroke-width:1.0;" x1="360.5" x2="511" y1="178.8594" y2="178.8594"/><text fill="#000000" font-family="sans-serif" font-size="13" font-weight="bold" lengthAdjust="spacing" textLength="9" x="367.5" y="173.7935">2</text><text fill="#000000" font-family="sans-serif" font-size="13" lengthAdjust="spacing" textLength="41" x="380.5" y="173.7935">create</text><rect fill="#E3E3E3" height="30.2969" rx="2.5" ry="2.5" style="stroke:#181818;stroke-width:0.5;" width="237" x="517" y="157.7266"/><text fill="#000000" font-family="sans-serif" font-size="14" lengthAdjust="spacing" textLength="223" x="524" y="177.7217">:RegisterGreenSpaceController</text><polygon fill="#181818" points="103.5,216.1563,93.5,220.1563,103.5,224.1563,99.5,220.1563" style="stroke:#181818;stroke-width:1.0;"/><line style="stroke:#181818;stroke-width:1.0;stroke-dasharray:2.0,2.0;" x1="97.5" x2="354.5" y1="220.1563" y2="220.1563"/><text fill="#000000" font-family="sans-serif" font-size="13" font-weight="bold" lengthAdjust="spacing" textLength="9" x="109.5" y="215.0903">3</text><text fill="#000000" font-family="sans-serif" font-size="13" lengthAdjust="spacing" textLength="221" x="122.5" y="215.0903">request data (name,area,address)</text><polygon fill="#181818" points="338.5,245.2891,348.5,249.2891,338.5,253.2891,342.5,249.2891" style="stroke:#181818;stroke-width:1.0;"/><line style="stroke:#181818;stroke-width:1.0;" x1="92.5" x2="344.5" y1="249.2891" y2="249.2891"/><text fill="#000000" font-family="sans-serif" font-size="13" font-weight="bold" lengthAdjust="spacing" textLength="9" x="99.5" y="244.2231">4</text><text fill="#000000" font-family="sans-serif" font-size="13" lengthAdjust="spacing" textLength="138" x="112.5" y="244.2231">types requested data</text><polygon fill="#181818" points="103.5,289.5547,93.5,293.5547,103.5,297.5547,99.5,293.5547" style="stroke:#181818;stroke-width:1.0;"/><line style="stroke:#181818;stroke-width:1.0;stroke-dasharray:2.0,2.0;" x1="97.5" x2="354.5" y1="293.5547" y2="293.5547"/><text fill="#000000" font-family="sans-serif" font-size="13" font-weight="bold" lengthAdjust="spacing" textLength="9" x="109.5" y="280.9224">5</text><text fill="#000000" font-family="sans-serif" font-size="13" lengthAdjust="spacing" textLength="164" x="122.5" y="273.356">shows list of sizes option</text><text fill="#000000" font-family="sans-serif" font-size="13" lengthAdjust="spacing" textLength="152" x="126.5" y="288.4888">and request a selection</text><polygon fill="#181818" points="338.5,318.6875,348.5,322.6875,338.5,326.6875,342.5,322.6875" style="stroke:#181818;stroke-width:1.0;"/><line style="stroke:#181818;stroke-width:1.0;" x1="92.5" x2="344.5" y1="322.6875" y2="322.6875"/><text fill="#000000" font-family="sans-serif" font-size="13" font-weight="bold" lengthAdjust="spacing" textLength="9" x="99.5" y="317.6216">6</text><text fill="#000000" font-family="sans-serif" font-size="13" lengthAdjust="spacing" textLength="104" x="112.5" y="317.6216">select an option</text><polygon fill="#181818" points="103.5,362.9531,93.5,366.9531,103.5,370.9531,99.5,366.9531" style="stroke:#181818;stroke-width:1.0;"/><line style="stroke:#181818;stroke-width:1.0;stroke-dasharray:2.0,2.0;" x1="97.5" x2="354.5" y1="366.9531" y2="366.9531"/><text fill="#000000" font-family="sans-serif" font-size="13" font-weight="bold" lengthAdjust="spacing" textLength="9" x="109.5" y="354.3208">7</text><text fill="#000000" font-family="sans-serif" font-size="13" lengthAdjust="spacing" textLength="157" x="122.5" y="346.7544">show all data registered</text><text fill="#000000" font-family="sans-serif" font-size="13" lengthAdjust="spacing" textLength="177" x="126.5" y="361.8872">and the confirmation menu</text><polygon fill="#181818" points="338.5,392.0859,348.5,396.0859,338.5,400.0859,342.5,396.0859" style="stroke:#181818;stroke-width:1.0;"/><line style="stroke:#181818;stroke-width:1.0;" x1="92.5" x2="344.5" y1="396.0859" y2="396.0859"/><text fill="#000000" font-family="sans-serif" font-size="13" font-weight="bold" lengthAdjust="spacing" textLength="9" x="99.5" y="391.02">8</text><text fill="#000000" font-family="sans-serif" font-size="13" lengthAdjust="spacing" textLength="85" x="112.5" y="391.02">submits data</text><polygon fill="#181818" points="618.5,421.2188,628.5,425.2188,618.5,429.2188,622.5,425.2188" style="stroke:#181818;stroke-width:1.0;"/><line style="stroke:#181818;stroke-width:1.0;" x1="360.5" x2="624.5" y1="425.2188" y2="425.2188"/><text fill="#000000" font-family="sans-serif" font-size="13" font-weight="bold" lengthAdjust="spacing" textLength="9" x="367.5" y="420.1528">9</text><text fill="#000000" font-family="sans-serif" font-size="13" lengthAdjust="spacing" textLength="238" x="380.5" y="420.1528">registerGreenSpace(name,size,area)</text><rect fill="none" height="39.1016" style="stroke:#000000;stroke-width:1.5;" width="243" x="514" y="433.2188"/><path d="M514,433.2188 L580,433.2188 L580,440.2188 L570,450.2188 L514,450.2188 L514,433.2188 " fill="#EEEEEE" style="stroke:#000000;stroke-width:2.0;"/><text fill="#000000" font-family="sans-serif" font-size="13" font-weight="bold" lengthAdjust="spacing" textLength="21" x="527" y="447.2856">ref</text><text fill="#000000" font-family="sans-serif" font-size="12" lengthAdjust="spacing" textLength="165" x="553" y="465.3574">Get GreenSpace Repository</text><polygon fill="#181818" points="1072.5,494.4531,1082.5,498.4531,1072.5,502.4531,1076.5,498.4531" style="stroke:#181818;stroke-width:1.0;"/><line style="stroke:#181818;stroke-width:1.0;" x1="640.5" x2="1078.5" y1="498.4531" y2="498.4531"/><text fill="#000000" font-family="sans-serif" font-size="13" font-weight="bold" lengthAdjust="spacing" textLength="18" x="647.5" y="493.3872">10</text><text fill="#000000" font-family="sans-serif" font-size="13" lengthAdjust="spacing" textLength="238" x="669.5" y="493.3872">registerGreenSpace(name,size,area)</text><rect fill="none" height="39.1016" style="stroke:#000000;stroke-width:1.5;" width="189" x="995" y="506.4531"/><path d="M995,506.4531 L1061,506.4531 L1061,513.4531 L1051,523.4531 L995,523.4531 L995,506.4531 " fill="#EEEEEE" style="stroke:#000000;stroke-width:2.0;"/><text fill="#000000" font-family="sans-serif" font-size="13" font-weight="bold" lengthAdjust="spacing" textLength="21" x="1008" y="520.52">ref</text><text fill="#000000" font-family="sans-serif" font-size="12" lengthAdjust="spacing" textLength="130" x="1024.5" y="538.5918">Register Green Space</text><polygon fill="#181818" points="651.5,567.6875,641.5,571.6875,651.5,575.6875,647.5,571.6875" style="stroke:#181818;stroke-width:1.0;"/><line style="stroke:#181818;stroke-width:1.0;stroke-dasharray:2.0,2.0;" x1="645.5" x2="1088.5" y1="571.6875" y2="571.6875"/><text fill="#000000" font-family="sans-serif" font-size="13" font-weight="bold" lengthAdjust="spacing" textLength="18" x="657.5" y="566.6216">11</text><text fill="#000000" font-family="sans-serif" font-size="13" lengthAdjust="spacing" textLength="76" x="679.5" y="566.6216">greenSpace</text><polygon fill="#181818" points="371.5,596.8203,361.5,600.8203,371.5,604.8203,367.5,600.8203" style="stroke:#181818;stroke-width:1.0;"/><line style="stroke:#181818;stroke-width:1.0;stroke-dasharray:2.0,2.0;" x1="365.5" x2="634.5" y1="600.8203" y2="600.8203"/><text fill="#000000" font-family="sans-serif" font-size="13" font-weight="bold" lengthAdjust="spacing" textLength="18" x="377.5" y="595.7544">12</text><text fill="#000000" font-family="sans-serif" font-size="13" lengthAdjust="spacing" textLength="76" x="399.5" y="595.7544">greenSpace</text><polygon fill="#181818" points="103.5,625.9531,93.5,629.9531,103.5,633.9531,99.5,629.9531" style="stroke:#181818;stroke-width:1.0;"/><line style="stroke:#181818;stroke-width:1.0;stroke-dasharray:2.0,2.0;" x1="97.5" x2="354.5" y1="629.9531" y2="629.9531"/><text fill="#000000" font-family="sans-serif" font-size="13" font-weight="bold" lengthAdjust="spacing" textLength="18" x="109.5" y="624.8872">13</text><text fill="#000000" font-family="sans-serif" font-size="13" lengthAdjust="spacing" textLength="184" x="131.5" y="624.8872">shows operation (in)success</text><!--SRC=[dLJ1Rk903BtdAonEK9KVuB1IrQuGKbTRDUNMYvkOC68oayuuLEpNhpD34YX3krfEYUtt_7YsutVADEYmXjeQMsoThGdOjPJv8TDWiSEASZve0aS5ewdqQO7VOca_bAbWWzfJbh5YALsl8AVtban1yA2mwagdUVumWpdSQIPdaDMUuBSH2BPiJLk_aPFdWgs3oT8H6SYbFS4lD2B1JG0z_AmRRGz4cNHdLQW63SDayKoLyi8QO06rNeNwzUhRodjhs5cjZntkNvuVBp2DzKfqAVAXPWWSSjNv8VBF8Uu4yMek2PuUxrxE4TMWPoGNv38H3Wof-YpOf_R8D1gLWVpwDvZ_w4Qp48OTi9M9HZS08o7uZZ501YQnC0G49-ZEdfiROIWSIJQc-hJaXquB8PS5y0mbCiBKO4stAA1RB4j7tiy2jAIBHXTY-T2Gx-ce38JPXSZkVL2JLkItziE3bhyCTWDU_H5Qsx2ovjK0cdAGZE19oxPBPg1CA4sgZKYXEr8FbUF3y9HaJEi6r3fQsG-DogDgtX8KrcoKgx7h23MPzf_TzUrRhTX7Lx-PV9ZgvmEAe-tS3FETdPE4UmeXHnkmUrcs4EeYIs8OUKxEAcGf36GJmQ6xg4Zj_N-ekd8-PpAJDLr5_ms1aw_KkUB8bDGw7wqSyv-7TRLrjA4VtNM2qVMlBi4svEB6J9MP-ROev2uJY_CN]--></g></svg>