<?xml version="1.0" encoding="us-ascii" standalone="no"?><svg xmlns="http://www.w3.org/2000/svg" xmlns:xlink="http://www.w3.org/1999/xlink" contentStyleType="text/css" height="572px" preserveAspectRatio="none" style="width:1015px;height:572px;background:#FFFFFF;" version="1.1" viewBox="0 0 1015 572" width="1015px" zoomAndPan="magnify"><defs/><g><!--class GreenSpaceRepository--><g id="elem_GreenSpaceRepository"><rect codeLine="9" fill="#F1F1F1" height="129.4844" id="GreenSpaceRepository" rx="2.5" ry="2.5" style="stroke:#181818;stroke-width:0.5;" width="635" x="317" y="197"/><ellipse cx="548.25" cy="213" fill="#ADD1B2" rx="11" ry="11" style="stroke:#181818;stroke-width:1.0;"/><path d="M551.2188,218.6406 Q550.6406,218.9375 550,219.0781 Q549.3594,219.2344 548.6563,219.2344 Q546.1563,219.2344 544.8281,217.5938 Q543.5156,215.9375 543.5156,212.8125 Q543.5156,209.6875 544.8281,208.0313 Q546.1563,206.375 548.6563,206.375 Q549.3594,206.375 550,206.5313 Q550.6563,206.6875 551.2188,206.9844 L551.2188,209.7031 Q550.5938,209.125 550,208.8594 Q549.4063,208.5781 548.7813,208.5781 Q547.4375,208.5781 546.75,209.6563 Q546.0625,210.7188 546.0625,212.8125 Q546.0625,214.9063 546.75,215.9844 Q547.4375,217.0469 548.7813,217.0469 Q549.4063,217.0469 550,216.7813 Q550.5938,216.5 551.2188,215.9219 L551.2188,218.6406 Z " fill="#000000"/><text fill="#000000" font-family="sans-serif" font-size="14" lengthAdjust="spacing" textLength="164" x="568.75" y="217.8467">GreenSpaceRepository</text><line style="stroke:#181818;stroke-width:0.5;" x1="318" x2="951" y1="229" y2="229"/><text fill="#000000" font-family="sans-serif" font-size="14" lengthAdjust="spacing" textLength="262" x="323" y="245.9951">-List&lt;GreenSpace&gt; greenSpacesList</text><line style="stroke:#181818;stroke-width:0.5;" x1="318" x2="951" y1="253.2969" y2="253.2969"/><text fill="#000000" font-family="sans-serif" font-size="14" lengthAdjust="spacing" textLength="623" x="323" y="270.292">+registerGreenSpace(String name, int size, float area, String address, String resposible)</text><text fill="#000000" font-family="sans-serif" font-size="14" lengthAdjust="spacing" textLength="216" x="323" y="286.5889">-addGreenSpace(greenSpace)</text><text fill="#000000" font-family="sans-serif" font-size="14" lengthAdjust="spacing" textLength="158" x="323" y="302.8857">-validate(greenSpace)</text><text fill="#000000" font-family="sans-serif" font-size="14" lengthAdjust="spacing" textLength="176" x="323" y="319.1826">+getGreenSpacesSizes()</text></g><!--class GreenSpace--><g id="elem_GreenSpace"><rect codeLine="17" fill="#F1F1F1" height="162.0781" id="GreenSpace" rx="2.5" ry="2.5" style="stroke:#181818;stroke-width:0.5;" width="585" x="342" y="403"/><ellipse cx="586.25" cy="419" fill="#ADD1B2" rx="11" ry="11" style="stroke:#181818;stroke-width:1.0;"/><path d="M589.2188,424.6406 Q588.6406,424.9375 588,425.0781 Q587.3594,425.2344 586.6563,425.2344 Q584.1563,425.2344 582.8281,423.5938 Q581.5156,421.9375 581.5156,418.8125 Q581.5156,415.6875 582.8281,414.0313 Q584.1563,412.375 586.6563,412.375 Q587.3594,412.375 588,412.5313 Q588.6563,412.6875 589.2188,412.9844 L589.2188,415.7031 Q588.5938,415.125 588,414.8594 Q587.4063,414.5781 586.7813,414.5781 Q585.4375,414.5781 584.75,415.6563 Q584.0625,416.7188 584.0625,418.8125 Q584.0625,420.9063 584.75,421.9844 Q585.4375,423.0469 586.7813,423.0469 Q587.4063,423.0469 588,422.7813 Q588.5938,422.5 589.2188,421.9219 L589.2188,424.6406 Z " fill="#000000"/><text fill="#000000" font-family="sans-serif" font-size="14" lengthAdjust="spacing" textLength="88" x="606.75" y="423.8467">GreenSpace</text><line style="stroke:#181818;stroke-width:0.5;" x1="343" x2="926" y1="435" y2="435"/><text fill="#000000" font-family="sans-serif" font-size="14" lengthAdjust="spacing" textLength="92" x="348" y="451.9951">-String name</text><text fill="#000000" font-family="sans-serif" font-size="14" lengthAdjust="spacing" textLength="112" x="348" y="468.292">-String address;</text><text fill="#000000" font-family="sans-serif" font-size="14" lengthAdjust="spacing" textLength="138" x="348" y="484.5889">-String responsible;</text><text fill="#000000" font-family="sans-serif" font-size="14" lengthAdjust="spacing" textLength="70" x="348" y="500.8857">-Size size;</text><text fill="#000000" font-family="sans-serif" font-size="14" lengthAdjust="spacing" textLength="79" x="348" y="517.1826">-float area;</text><line style="stroke:#181818;stroke-width:0.5;" x1="343" x2="926" y1="524.4844" y2="524.4844"/><text fill="#000000" font-family="sans-serif" font-size="14" lengthAdjust="spacing" textLength="573" x="348" y="541.4795">+GreenSpace(String name, int size, float area, String address,String responsible)</text><text fill="#000000" font-family="sans-serif" font-size="14" lengthAdjust="spacing" textLength="369" x="348" y="557.7764">-validateInfo(String name, float area,String address)</text></g><!--class enum_Size--><g id="elem_enum_Size"><rect codeLine="29" fill="#F1F1F1" height="96.8906" id="enum_Size" rx="2.5" ry="2.5" style="stroke:#181818;stroke-width:0.5;" width="109" x="198" y="435.5"/><ellipse cx="213" cy="451.5" fill="#ADD1B2" rx="11" ry="11" style="stroke:#181818;stroke-width:1.0;"/><path d="M215.9688,457.1406 Q215.3906,457.4375 214.75,457.5781 Q214.1094,457.7344 213.4063,457.7344 Q210.9063,457.7344 209.5781,456.0938 Q208.2656,454.4375 208.2656,451.3125 Q208.2656,448.1875 209.5781,446.5313 Q210.9063,444.875 213.4063,444.875 Q214.1094,444.875 214.75,445.0313 Q215.4063,445.1875 215.9688,445.4844 L215.9688,448.2031 Q215.3438,447.625 214.75,447.3594 Q214.1563,447.0781 213.5313,447.0781 Q212.1875,447.0781 211.5,448.1563 Q210.8125,449.2188 210.8125,451.3125 Q210.8125,453.4063 211.5,454.4844 Q212.1875,455.5469 213.5313,455.5469 Q214.1563,455.5469 214.75,455.2813 Q215.3438,455 215.9688,454.4219 L215.9688,457.1406 Z " fill="#000000"/><text fill="#000000" font-family="sans-serif" font-size="14" lengthAdjust="spacing" textLength="77" x="227" y="456.3467">enum_Size</text><line style="stroke:#181818;stroke-width:0.5;" x1="199" x2="306" y1="467.5" y2="467.5"/><text fill="#000000" font-family="sans-serif" font-size="14" lengthAdjust="spacing" textLength="61" x="204" y="484.4951">GARDEN</text><text fill="#000000" font-family="sans-serif" font-size="14" lengthAdjust="spacing" textLength="58" x="204" y="500.792">MEDIUM</text><text fill="#000000" font-family="sans-serif" font-size="14" lengthAdjust="spacing" textLength="48" x="204" y="517.0889">LARGE</text><line style="stroke:#181818;stroke-width:0.5;" x1="199" x2="306" y1="524.3906" y2="524.3906"/></g><!--class Repositories--><g id="elem_Repositories"><rect codeLine="35" fill="#F1F1F1" height="96.8906" id="Repositories" rx="2.5" ry="2.5" style="stroke:#181818;stroke-width:0.5;" width="221" x="685" y="15"/><ellipse cx="747.25" cy="31" fill="#ADD1B2" rx="11" ry="11" style="stroke:#181818;stroke-width:1.0;"/><path d="M750.2188,36.6406 Q749.6406,36.9375 749,37.0781 Q748.3594,37.2344 747.6563,37.2344 Q745.1563,37.2344 743.8281,35.5938 Q742.5156,33.9375 742.5156,30.8125 Q742.5156,27.6875 743.8281,26.0313 Q745.1563,24.375 747.6563,24.375 Q748.3594,24.375 749,24.5313 Q749.6563,24.6875 750.2188,24.9844 L750.2188,27.7031 Q749.5938,27.125 749,26.8594 Q748.4063,26.5781 747.7813,26.5781 Q746.4375,26.5781 745.75,27.6563 Q745.0625,28.7188 745.0625,30.8125 Q745.0625,32.9063 745.75,33.9844 Q746.4375,35.0469 747.7813,35.0469 Q748.4063,35.0469 749,34.7813 Q749.5938,34.5 750.2188,33.9219 L750.2188,36.6406 Z " fill="#000000"/><text fill="#000000" font-family="sans-serif" font-size="14" lengthAdjust="spacing" textLength="88" x="767.75" y="35.8467">Repositories</text><line style="stroke:#181818;stroke-width:0.5;" x1="686" x2="905" y1="47" y2="47"/><line style="stroke:#181818;stroke-width:0.5;" x1="686" x2="905" y1="55" y2="55"/><text fill="#000000" font-family="sans-serif" font-size="14" lengthAdjust="spacing" textLength="103" x="691" y="71.9951">-Repositories()</text><text fill="#000000" font-family="sans-serif" font-size="14" lengthAdjust="spacing" textLength="206" x="691" y="88.292">+getInstance() : Repositories</text><text fill="#000000" font-family="sans-serif" font-size="14" lengthAdjust="spacing" textLength="209" x="691" y="104.5889">+getGreenSpaceRepository()</text></g><!--class GreenSpaceController--><g id="elem_GreenSpaceController"><rect codeLine="41" fill="#F1F1F1" height="113.1875" id="GreenSpaceController" rx="2.5" ry="2.5" style="stroke:#181818;stroke-width:0.5;" width="504" x="67.5" y="7"/><ellipse cx="235.75" cy="23" fill="#ADD1B2" rx="11" ry="11" style="stroke:#181818;stroke-width:1.0;"/><path d="M238.7188,28.6406 Q238.1406,28.9375 237.5,29.0781 Q236.8594,29.2344 236.1563,29.2344 Q233.6563,29.2344 232.3281,27.5938 Q231.0156,25.9375 231.0156,22.8125 Q231.0156,19.6875 232.3281,18.0313 Q233.6563,16.375 236.1563,16.375 Q236.8594,16.375 237.5,16.5313 Q238.1563,16.6875 238.7188,16.9844 L238.7188,19.7031 Q238.0938,19.125 237.5,18.8594 Q236.9063,18.5781 236.2813,18.5781 Q234.9375,18.5781 234.25,19.6563 Q233.5625,20.7188 233.5625,22.8125 Q233.5625,24.9063 234.25,25.9844 Q234.9375,27.0469 236.2813,27.0469 Q236.9063,27.0469 237.5,26.7813 Q238.0938,26.5 238.7188,25.9219 L238.7188,28.6406 Z " fill="#000000"/><text fill="#000000" font-family="sans-serif" font-size="14" lengthAdjust="spacing" textLength="159" x="256.25" y="27.8467">GreenSpaceController</text><line style="stroke:#181818;stroke-width:0.5;" x1="68.5" x2="570.5" y1="39" y2="39"/><line style="stroke:#181818;stroke-width:0.5;" x1="68.5" x2="570.5" y1="47" y2="47"/><text fill="#000000" font-family="sans-serif" font-size="14" lengthAdjust="spacing" textLength="181" x="73.5" y="63.9951">+GreenSpaceController()</text><text fill="#000000" font-family="sans-serif" font-size="14" lengthAdjust="spacing" textLength="492" x="73.5" y="80.292">+registerGreenSpace(String name, int size, float area,String address)</text><text fill="#000000" font-family="sans-serif" font-size="14" lengthAdjust="spacing" textLength="131" x="73.5" y="96.5889">+getResponsible()</text><text fill="#000000" font-family="sans-serif" font-size="14" lengthAdjust="spacing" textLength="176" x="73.5" y="112.8857">+getGreenSpacesSizes()</text></g><!--class RegisterGreenSpaceUI--><g id="elem_RegisterGreenSpaceUI"><rect codeLine="48" fill="#F1F1F1" height="64.2969" id="RegisterGreenSpaceUI" rx="2.5" ry="2.5" style="stroke:#181818;stroke-width:0.5;" width="275" x="7" y="229.5"/><ellipse cx="59.75" cy="245.5" fill="#ADD1B2" rx="11" ry="11" style="stroke:#181818;stroke-width:1.0;"/><path d="M62.7188,251.1406 Q62.1406,251.4375 61.5,251.5781 Q60.8594,251.7344 60.1563,251.7344 Q57.6563,251.7344 56.3281,250.0938 Q55.0156,248.4375 55.0156,245.3125 Q55.0156,242.1875 56.3281,240.5313 Q57.6563,238.875 60.1563,238.875 Q60.8594,238.875 61.5,239.0313 Q62.1563,239.1875 62.7188,239.4844 L62.7188,242.2031 Q62.0938,241.625 61.5,241.3594 Q60.9063,241.0781 60.2813,241.0781 Q58.9375,241.0781 58.25,242.1563 Q57.5625,243.2188 57.5625,245.3125 Q57.5625,247.4063 58.25,248.4844 Q58.9375,249.5469 60.2813,249.5469 Q60.9063,249.5469 61.5,249.2813 Q62.0938,249 62.7188,248.4219 L62.7188,251.1406 Z " fill="#000000"/><text fill="#000000" font-family="sans-serif" font-size="14" lengthAdjust="spacing" textLength="161" x="80.25" y="250.3467">RegisterGreenSpaceUI</text><line style="stroke:#181818;stroke-width:0.5;" x1="8" x2="281" y1="261.5" y2="261.5"/><line style="stroke:#181818;stroke-width:0.5;" x1="8" x2="281" y1="269.5" y2="269.5"/><text fill="#000000" font-family="sans-serif" font-size="14" lengthAdjust="spacing" textLength="263" x="13" y="286.4951">+showSizes(GreenSpace.Size[] sizes)</text></g><!--link RegisterGreenSpaceUI to GreenSpaceController--><g id="link_RegisterGreenSpaceUI_GreenSpaceController"><path codeLine="52" d="M195.45,229.37 C239.95,202.17 297.5,167 297.5,167 C297.5,167 301.1108,150.1564 306.2708,126.1164 " fill="none" id="RegisterGreenSpaceUI-to-GreenSpaceController" style="stroke:#181818;stroke-width:1.0;stroke-dasharray:7.0,7.0;"/><polygon fill="#181818" points="307.53,120.25,301.7303,128.2101,306.4807,125.1387,309.5522,129.889,307.53,120.25" style="stroke:#181818;stroke-width:1.0;"/></g><!--reverse link GreenSpaceController to RegisterGreenSpaceUI--><g id="link_GreenSpaceController_RegisterGreenSpaceUI"><path codeLine="54" d="M195.7194,122.6512 C160.9594,138.9812 137.5,150 137.5,150 C137.5,150 137.5,167 137.5,167 C137.5,167 140.13,202.17 142.17,229.37 " fill="none" id="GreenSpaceController-backto-RegisterGreenSpaceUI" style="stroke:#181818;stroke-width:1.0;"/><polygon fill="#181818" points="201.15,120.1,191.3033,120.3065,196.6245,122.226,194.705,127.5473,201.15,120.1" style="stroke:#181818;stroke-width:1.0;"/><text fill="#000000" font-family="sans-serif" font-size="13" lengthAdjust="spacing" textLength="150" x="138.5" y="163.0669">getGreenSpacesSizes()</text></g><!--link GreenSpaceController to Repositories--><g id="link_GreenSpaceController_Repositories"><path codeLine="55" d="M571.79,63.5 C611.44,63.5 644.56,63.5 678.72,63.5 " fill="none" id="GreenSpaceController-to-Repositories" style="stroke:#181818;stroke-width:1.0;stroke-dasharray:7.0,7.0;"/><polygon fill="#181818" points="684.72,63.5,675.72,59.5,679.72,63.5,675.72,67.5,684.72,63.5" style="stroke:#181818;stroke-width:1.0;"/><text fill="#000000" font-family="sans-serif" font-size="13" lengthAdjust="spacing" textLength="77" x="589.75" y="56.5669">repositories</text></g><!--link Repositories to GreenSpaceRepository--><g id="link_Repositories_GreenSpaceRepository"><path codeLine="56" d="M778.76,112.15 C769.36,138.92 759.5,167 759.5,167 C759.5,167 746.5449,176.6966 724.4149,193.2466 " fill="none" id="Repositories-to-GreenSpaceRepository" style="stroke:#181818;stroke-width:1.0;"/><polygon fill="#181818" points="719.61,196.84,729.213,194.6532,723.6141,193.8455,724.4218,188.2466,719.61,196.84" style="stroke:#181818;stroke-width:1.0;"/><text fill="#000000" font-family="sans-serif" font-size="13" lengthAdjust="spacing" textLength="8" x="716.2627" y="185.9952">1</text></g><!--link Repositories to Repositories--><g id="link_Repositories_Repositories"><path codeLine="57" d="M906.21,46.81 C926.64,48.9 941,54.46 941,63.5 C941,72.54 932.6088,77.4894 912.1788,79.5794 " fill="none" id="Repositories-to-Repositories" style="stroke:#181818;stroke-width:1.0;"/><polygon fill="#181818" points="906.21,80.19,915.5703,83.2533,911.184,79.6812,914.7562,75.2948,906.21,80.19" style="stroke:#181818;stroke-width:1.0;"/><text fill="#000000" font-family="sans-serif" font-size="13" lengthAdjust="spacing" textLength="55" x="947" y="68.0669">instance</text></g><!--link GreenSpaceController to GreenSpaceRepository--><g id="link_GreenSpaceController_GreenSpaceRepository"><path codeLine="58" d="M465.81,120.1 C508.78,136.43 544.5,150 544.5,150 C544.5,150 558.8702,167.6484 578.8802,192.2084 " fill="none" id="GreenSpaceController-to-GreenSpaceRepository" style="stroke:#181818;stroke-width:1.0;stroke-dasharray:7.0,7.0;"/><polygon fill="#181818" points="582.67,196.86,580.0863,187.3561,579.5118,192.9837,573.8842,192.4092,582.67,196.86" style="stroke:#181818;stroke-width:1.0;"/><text fill="#000000" font-family="sans-serif" font-size="13" lengthAdjust="spacing" textLength="146" x="558.5" y="163.0669">greenSpaceRepository</text></g><!--reverse link GreenSpaceRepository to GreenSpaceController--><g id="link_GreenSpaceRepository_GreenSpaceController"><path codeLine="59" d="M459.0105,194.8674 C414.5905,178.2474 384.5,167 384.5,167 C384.5,167 370.1,144.29 354.85,120.25 " fill="none" id="GreenSpaceRepository-backto-GreenSpaceController" style="stroke:#181818;stroke-width:1.0;"/><polygon fill="#181818" points="464.63,196.97,457.6024,190.0698,459.9471,195.2178,454.799,197.5625,464.63,196.97" style="stroke:#181818;stroke-width:1.0;"/><text fill="#000000" font-family="sans-serif" font-size="13" lengthAdjust="spacing" textLength="150" x="385.5" y="163.0669">getGreenSpacesSizes()</text></g><!--link GreenSpaceRepository to GreenSpace--><g id="link_GreenSpaceRepository_GreenSpace"><path codeLine="60" d="M634.5,326.28 C634.5,350.19 634.5,371.67 634.5,396.88 " fill="none" id="GreenSpaceRepository-to-GreenSpace" style="stroke:#181818;stroke-width:1.0;"/><polygon fill="#181818" points="634.5,402.88,638.5,393.88,634.5,397.88,630.5,393.88,634.5,402.88" style="stroke:#181818;stroke-width:1.0;"/><text fill="#000000" font-family="sans-serif" font-size="13" lengthAdjust="spacing" textLength="50" x="635.5" y="369.0669">register</text></g><!--link enum_Size to GreenSpace--><g id="link_enum_Size_GreenSpace"><path codeLine="61" d="M307.24,484 C318.83,484 330.83,484 341.65,484 " fill="none" id="enum_Size-GreenSpace" style="stroke:#181818;stroke-width:1.0;"/></g><!--SRC=[fLHTQzim57tNhxZq9Gc9m_RgXa1OGp2qUt3eqnX3jMySKLaoahAIZVxtogudoR7AIkidwNwUS-wr9lgHYOOgMaCjXIoEIjO8HfsGU4z3YqTQuTwSEOB2mb1HyJ107safdvYeu42v3ZsS2JJd1g6H_DnUo2JYbCh88AdWLEkDCOezd0ncXHHxzWVX2vbmF1Wm4XIhZWPAre9XKX3IfS1E8OgzXOivDb8p8zKP_XAmNmAtJ9kLZrX3vSwwzNLXSykliXTKFdAwjqWiDq5hN00J1hI5iu03bzG0LKWNq8VGibIejRlRIulZWUEiHs4ZWieUmZ__RyfPIStODOSAZK_LhIHwEYFFO_AECWJ8BqmzqkiBSmTOT8YzgnM_fUmidlarwS5zIgvnyqivCd6Gmy91kM6r6V6Qe3ZLlphyhvBiDldDzdjtlDlUPFTttV5sa- -sFidj3aFjf0oDqs0YcT3sTx2iPv0EWc93yriP7zmtAOoIdAFg-ywZJjV_GxjwgPR3cNlvf-_SkNm4u3vpqFLHFhrcUFUoDVpusQ7INQ5eYULo7MLEI5IiLPB4eQHl48XMiJq7eq-jli4y1pv8aZLSVOMhw9ipZ4r6TLc_D6_Wi43YJraQl5b1jsZiAealrlyb2OgqB8Dt9NKRH_oV5VPv0G00]--></g></svg>