<?xml version="1.0" encoding="us-ascii" standalone="no"?><svg xmlns="http://www.w3.org/2000/svg" xmlns:xlink="http://www.w3.org/1999/xlink" contentStyleType="text/css" height="1650px" preserveAspectRatio="none" style="width:1703px;height:1650px;background:#FFFFFF;" version="1.1" viewBox="0 0 1703 1650" width="1703px" zoomAndPan="magnify"><defs/><g><text fill="#000000" font-family="sans-serif" font-size="14" font-weight="bold" lengthAdjust="spacing" textLength="363" x="669" y="27.9951">UI Sequence Diagram (SSD) - Alternative One</text><rect fill="#FFFFFF" height="1431.875" style="stroke:#181818;stroke-width:1.0;" width="10" x="82.5" y="128.5938"/><rect fill="#FFFFFF" height="271.2266" style="stroke:#181818;stroke-width:1.0;" width="10" x="350.5" y="149.7266"/><rect fill="#FFFFFF" height="219.0625" style="stroke:#181818;stroke-width:1.0;" width="10" x="350.5" y="450.0859"/><rect fill="#FFFFFF" height="44.2656" style="stroke:#181818;stroke-width:1.0;" width="10" x="350.5" y="698.2813"/><rect fill="#FFFFFF" height="779.7891" style="stroke:#181818;stroke-width:1.0;" width="10" x="350.5" y="771.6797"/><rect fill="#FFFFFF" height="232.0938" style="stroke:#181818;stroke-width:1.0;" width="10" x="639.5" y="188.8594"/><rect fill="#FFFFFF" height="156.6641" style="stroke:#181818;stroke-width:1.0;" width="10" x="644.5" y="228.1563"/><rect fill="#FFFFFF" height="145.6641" style="stroke:#181818;stroke-width:1.0;" width="10" x="639.5" y="479.2188"/><rect fill="#FFFFFF" height="721.5234" style="stroke:#181818;stroke-width:1.0;" width="10" x="639.5" y="800.8125"/><rect fill="#FFFFFF" height="428.4609" style="stroke:#181818;stroke-width:1.0;" width="10" x="644.5" y="837.9453"/><rect fill="#FFFFFF" height="325.1953" style="stroke:#181818;stroke-width:1.0;" width="10" x="649.5" y="880.0781"/><rect fill="#FFFFFF" height="29.1328" style="stroke:#181818;stroke-width:1.0;" width="10" x="923.5" y="262.2891"/><rect fill="#FFFFFF" height="29.1328" style="stroke:#181818;stroke-width:1.0;" width="10" x="1040.5" y="320.5547"/><rect fill="#FFFFFF" height="29.1328" style="stroke:#181818;stroke-width:1.0;" width="10" x="1040.5" y="914.2109"/><rect fill="#FFFFFF" height="197.6641" style="stroke:#181818;stroke-width:1.0;" width="10" x="1203.5" y="972.4766"/><rect fill="#FFFFFF" height="124.3984" style="stroke:#181818;stroke-width:1.0;" width="10" x="1208.5" y="1009.6094"/><rect fill="#FFFFFF" height="40.1328" style="stroke:#181818;stroke-width:1.0;" width="10" x="1213.5" y="1051.7422"/><rect fill="#FFFFFF" height="87.3984" style="stroke:#181818;stroke-width:1.0;" width="10" x="1404.5" y="508.3516"/><rect fill="#FFFFFF" height="226.7969" style="stroke:#181818;stroke-width:1.0;" width="10" x="1404.5" y="1266.4063"/><rect fill="#FFFFFF" height="124.3984" style="stroke:#181818;stroke-width:1.0;" width="10" x="1409.5" y="1332.6719"/><rect fill="#FFFFFF" height="40.1328" style="stroke:#181818;stroke-width:1.0;" width="10" x="1414.5" y="1374.8047"/><rect fill="#FFFFFF" height="29.1328" style="stroke:#181818;stroke-width:1.0;" width="10" x="1638.5" y="537.4844"/><line style="stroke:#181818;stroke-width:0.5;stroke-dasharray:5.0,5.0;" x1="87" x2="87" y1="118.5938" y2="1569.4688"/><line style="stroke:#181818;stroke-width:0.5;stroke-dasharray:5.0,5.0;" x1="355.5" x2="355.5" y1="118.5938" y2="1569.4688"/><line style="stroke:#181818;stroke-width:0.5;stroke-dasharray:5.0,5.0;" x1="644" x2="644" y1="188.375" y2="1569.4688"/><line style="stroke:#181818;stroke-width:0.5;stroke-dasharray:5.0,5.0;" x1="928" x2="928" y1="118.5938" y2="1569.4688"/><line style="stroke:#181818;stroke-width:0.5;stroke-dasharray:5.0,5.0;" x1="1045" x2="1045" y1="118.5938" y2="1569.4688"/><line style="stroke:#181818;stroke-width:0.5;stroke-dasharray:5.0,5.0;" x1="1208" x2="1208" y1="118.5938" y2="1569.4688"/><line style="stroke:#181818;stroke-width:0.5;stroke-dasharray:5.0,5.0;" x1="1409" x2="1409" y1="118.5938" y2="1569.4688"/><line style="stroke:#181818;stroke-width:0.5;stroke-dasharray:5.0,5.0;" x1="1643" x2="1643" y1="118.5938" y2="1569.4688"/><text fill="#000000" font-family="sans-serif" font-size="14" lengthAdjust="spacing" textLength="159" x="5" y="115.292">Green Space Manager</text><ellipse cx="87.5" cy="50.7969" fill="#E3E3E3" rx="8" ry="8" style="stroke:#181818;stroke-width:0.5;"/><path d="M87.5,58.7969 L87.5,85.7969 M74.5,66.7969 L100.5,66.7969 M87.5,85.7969 L74.5,100.7969 M87.5,85.7969 L100.5,100.7969 " fill="none" style="stroke:#181818;stroke-width:0.5;"/><text fill="#000000" font-family="sans-serif" font-size="14" lengthAdjust="spacing" textLength="159" x="5" y="1581.4639">Green Space Manager</text><ellipse cx="87.5" cy="1593.2656" fill="#E3E3E3" rx="8" ry="8" style="stroke:#181818;stroke-width:0.5;"/><path d="M87.5,1601.2656 L87.5,1628.2656 M74.5,1609.2656 L100.5,1609.2656 M87.5,1628.2656 L74.5,1643.2656 M87.5,1628.2656 L100.5,1643.2656 " fill="none" style="stroke:#181818;stroke-width:0.5;"/><rect fill="#E3E3E3" height="30.2969" rx="2.5" ry="2.5" style="stroke:#181818;stroke-width:0.5;" width="180" x="265.5" y="87.2969"/><text fill="#000000" font-family="sans-serif" font-size="14" lengthAdjust="spacing" textLength="166" x="272.5" y="107.292">:RegisterGreenSpaceUI</text><rect fill="#E3E3E3" height="30.2969" rx="2.5" ry="2.5" style="stroke:#181818;stroke-width:0.5;" width="180" x="265.5" y="1568.4688"/><text fill="#000000" font-family="sans-serif" font-size="14" lengthAdjust="spacing" textLength="166" x="272.5" y="1588.4639">:RegisterGreenSpaceUI</text><rect fill="#E3E3E3" height="30.2969" rx="2.5" ry="2.5" style="stroke:#181818;stroke-width:0.5;" width="237" x="526" y="1568.4688"/><text fill="#000000" font-family="sans-serif" font-size="14" lengthAdjust="spacing" textLength="223" x="533" y="1588.4639">:RegisterGreenSpaceController</text><rect fill="#E3E3E3" height="30.2969" rx="2.5" ry="2.5" style="stroke:#181818;stroke-width:0.5;" width="107" x="875" y="87.2969"/><text fill="#000000" font-family="sans-serif" font-size="14" lengthAdjust="spacing" textLength="93" x="882" y="107.292">:Repositories</text><rect fill="#E3E3E3" height="30.2969" rx="2.5" ry="2.5" style="stroke:#181818;stroke-width:0.5;" width="107" x="875" y="1568.4688"/><text fill="#000000" font-family="sans-serif" font-size="14" lengthAdjust="spacing" textLength="93" x="882" y="1588.4639">:Repositories</text><rect fill="#E3E3E3" height="46.5938" rx="2.5" ry="2.5" style="stroke:#181818;stroke-width:0.5;" width="107" x="992" y="71"/><text fill="#000000" font-family="sans-serif" font-size="14" lengthAdjust="spacing" textLength="84" x="1003.5" y="90.9951">repositories</text><text fill="#000000" font-family="sans-serif" font-size="14" lengthAdjust="spacing" textLength="93" x="999" y="107.292">:Repositories</text><rect fill="#E3E3E3" height="46.5938" rx="2.5" ry="2.5" style="stroke:#181818;stroke-width:0.5;" width="107" x="992" y="1568.4688"/><text fill="#000000" font-family="sans-serif" font-size="14" lengthAdjust="spacing" textLength="84" x="1003.5" y="1588.4639">repositories</text><text fill="#000000" font-family="sans-serif" font-size="14" lengthAdjust="spacing" textLength="93" x="999" y="1604.7607">:Repositories</text><rect fill="#E3E3E3" height="46.5938" rx="2.5" ry="2.5" style="stroke:#181818;stroke-width:0.5;" width="199" x="1109" y="71"/><text fill="#000000" font-family="sans-serif" font-size="14" lengthAdjust="spacing" textLength="179" x="1119" y="90.9951">authenticationRepository</text><text fill="#000000" font-family="sans-serif" font-size="14" lengthAdjust="spacing" textLength="185" x="1116" y="107.292">:AuthenticationRepository</text><rect fill="#E3E3E3" height="46.5938" rx="2.5" ry="2.5" style="stroke:#181818;stroke-width:0.5;" width="199" x="1109" y="1568.4688"/><text fill="#000000" font-family="sans-serif" font-size="14" lengthAdjust="spacing" textLength="179" x="1119" y="1588.4639">authenticationRepository</text><text fill="#000000" font-family="sans-serif" font-size="14" lengthAdjust="spacing" textLength="185" x="1116" y="1604.7607">:AuthenticationRepository</text><rect fill="#E3E3E3" height="46.5938" rx="2.5" ry="2.5" style="stroke:#181818;stroke-width:0.5;" width="183" x="1318" y="71"/><text fill="#000000" font-family="sans-serif" font-size="14" lengthAdjust="spacing" textLength="162" x="1328.5" y="90.9951">greenSpaceRepository</text><text fill="#000000" font-family="sans-serif" font-size="14" lengthAdjust="spacing" textLength="169" x="1325" y="107.292">:GreenSpaceRepository</text><rect fill="#E3E3E3" height="46.5938" rx="2.5" ry="2.5" style="stroke:#181818;stroke-width:0.5;" width="183" x="1318" y="1568.4688"/><text fill="#000000" font-family="sans-serif" font-size="14" lengthAdjust="spacing" textLength="162" x="1328.5" y="1588.4639">greenSpaceRepository</text><text fill="#000000" font-family="sans-serif" font-size="14" lengthAdjust="spacing" textLength="169" x="1325" y="1604.7607">:GreenSpaceRepository</text><rect fill="#E3E3E3" height="46.5938" rx="2.5" ry="2.5" style="stroke:#181818;stroke-width:0.5;" width="107" x="1590" y="71"/><text fill="#000000" font-family="sans-serif" font-size="14" lengthAdjust="spacing" textLength="86" x="1600.5" y="90.9951">greenSpace</text><text fill="#000000" font-family="sans-serif" font-size="14" lengthAdjust="spacing" textLength="93" x="1597" y="107.292">:GreenSpace</text><rect fill="#E3E3E3" height="46.5938" rx="2.5" ry="2.5" style="stroke:#181818;stroke-width:0.5;" width="107" x="1590" y="1568.4688"/><text fill="#000000" font-family="sans-serif" font-size="14" lengthAdjust="spacing" textLength="86" x="1600.5" y="1588.4639">greenSpace</text><text fill="#000000" font-family="sans-serif" font-size="14" lengthAdjust="spacing" textLength="93" x="1597" y="1604.7607">:GreenSpace</text><rect fill="#FFFFFF" height="1431.875" style="stroke:#181818;stroke-width:1.0;" width="10" x="82.5" y="128.5938"/><rect fill="#FFFFFF" height="271.2266" style="stroke:#181818;stroke-width:1.0;" width="10" x="350.5" y="149.7266"/><rect fill="#FFFFFF" height="219.0625" style="stroke:#181818;stroke-width:1.0;" width="10" x="350.5" y="450.0859"/><rect fill="#FFFFFF" height="44.2656" style="stroke:#181818;stroke-width:1.0;" width="10" x="350.5" y="698.2813"/><rect fill="#FFFFFF" height="779.7891" style="stroke:#181818;stroke-width:1.0;" width="10" x="350.5" y="771.6797"/><rect fill="#FFFFFF" height="232.0938" style="stroke:#181818;stroke-width:1.0;" width="10" x="639.5" y="188.8594"/><rect fill="#FFFFFF" height="156.6641" style="stroke:#181818;stroke-width:1.0;" width="10" x="644.5" y="228.1563"/><rect fill="#FFFFFF" height="145.6641" style="stroke:#181818;stroke-width:1.0;" width="10" x="639.5" y="479.2188"/><rect fill="#FFFFFF" height="721.5234" style="stroke:#181818;stroke-width:1.0;" width="10" x="639.5" y="800.8125"/><rect fill="#FFFFFF" height="428.4609" style="stroke:#181818;stroke-width:1.0;" width="10" x="644.5" y="837.9453"/><rect fill="#FFFFFF" height="325.1953" style="stroke:#181818;stroke-width:1.0;" width="10" x="649.5" y="880.0781"/><rect fill="#FFFFFF" height="29.1328" style="stroke:#181818;stroke-width:1.0;" width="10" x="923.5" y="262.2891"/><rect fill="#FFFFFF" height="29.1328" style="stroke:#181818;stroke-width:1.0;" width="10" x="1040.5" y="320.5547"/><rect fill="#FFFFFF" height="29.1328" style="stroke:#181818;stroke-width:1.0;" width="10" x="1040.5" y="914.2109"/><rect fill="#FFFFFF" height="197.6641" style="stroke:#181818;stroke-width:1.0;" width="10" x="1203.5" y="972.4766"/><rect fill="#FFFFFF" height="124.3984" style="stroke:#181818;stroke-width:1.0;" width="10" x="1208.5" y="1009.6094"/><rect fill="#FFFFFF" height="40.1328" style="stroke:#181818;stroke-width:1.0;" width="10" x="1213.5" y="1051.7422"/><rect fill="#FFFFFF" height="87.3984" style="stroke:#181818;stroke-width:1.0;" width="10" x="1404.5" y="508.3516"/><rect fill="#FFFFFF" height="226.7969" style="stroke:#181818;stroke-width:1.0;" width="10" x="1404.5" y="1266.4063"/><rect fill="#FFFFFF" height="124.3984" style="stroke:#181818;stroke-width:1.0;" width="10" x="1409.5" y="1332.6719"/><rect fill="#FFFFFF" height="40.1328" style="stroke:#181818;stroke-width:1.0;" width="10" x="1414.5" y="1374.8047"/><rect fill="#FFFFFF" height="29.1328" style="stroke:#181818;stroke-width:1.0;" width="10" x="1638.5" y="537.4844"/><polygon fill="#181818" points="338.5,145.7266,348.5,149.7266,338.5,153.7266,342.5,149.7266" style="stroke:#181818;stroke-width:1.0;"/><line style="stroke:#181818;stroke-width:1.0;" x1="92.5" x2="344.5" y1="149.7266" y2="149.7266"/><text fill="#000000" font-family="sans-serif" font-size="13" font-weight="bold" lengthAdjust="spacing" textLength="9" x="99.5" y="144.6606">1</text><text fill="#000000" font-family="sans-serif" font-size="13" lengthAdjust="spacing" textLength="189" x="112.5" y="144.6606">ask to register a green space</text><polygon fill="#181818" points="514,174.8594,524,178.8594,514,182.8594,518,178.8594" style="stroke:#181818;stroke-width:1.0;"/><line style="stroke:#181818;stroke-width:1.0;" x1="360.5" x2="520" y1="178.8594" y2="178.8594"/><text fill="#000000" font-family="sans-serif" font-size="13" font-weight="bold" lengthAdjust="spacing" textLength="9" x="367.5" y="173.7935">2</text><text fill="#000000" font-family="sans-serif" font-size="13" lengthAdjust="spacing" textLength="41" x="380.5" y="173.7935">create</text><rect fill="#E3E3E3" height="30.2969" rx="2.5" ry="2.5" style="stroke:#181818;stroke-width:0.5;" width="237" x="526" y="157.7266"/><text fill="#000000" font-family="sans-serif" font-size="14" lengthAdjust="spacing" textLength="223" x="533" y="177.7217">:RegisterGreenSpaceController</text><line style="stroke:#181818;stroke-width:1.0;" x1="649.5" x2="696.5" y1="215.1563" y2="215.1563"/><line style="stroke:#181818;stroke-width:1.0;" x1="696.5" x2="696.5" y1="215.1563" y2="228.1563"/><line style="stroke:#181818;stroke-width:1.0;" x1="655.5" x2="696.5" y1="228.1563" y2="228.1563"/><polygon fill="#181818" points="665.5,224.1563,655.5,228.1563,665.5,232.1563,661.5,228.1563" style="stroke:#181818;stroke-width:1.0;"/><text fill="#000000" font-family="sans-serif" font-size="13" font-weight="bold" lengthAdjust="spacing" textLength="9" x="661.5" y="210.0903">3</text><text fill="#000000" font-family="sans-serif" font-size="13" lengthAdjust="spacing" textLength="179" x="674.5" y="210.0903">getGreenSpaceRepository()</text><polygon fill="#181818" points="911.5,258.2891,921.5,262.2891,911.5,266.2891,915.5,262.2891" style="stroke:#181818;stroke-width:1.0;"/><line style="stroke:#181818;stroke-width:1.0;" x1="654.5" x2="917.5" y1="262.2891" y2="262.2891"/><text fill="#000000" font-family="sans-serif" font-size="13" font-weight="bold" lengthAdjust="spacing" textLength="9" x="661.5" y="257.2231">4</text><text fill="#000000" font-family="sans-serif" font-size="13" lengthAdjust="spacing" textLength="86" x="674.5" y="257.2231">getInstance()</text><polygon fill="#181818" points="665.5,287.4219,655.5,291.4219,665.5,295.4219,661.5,291.4219" style="stroke:#181818;stroke-width:1.0;"/><line style="stroke:#181818;stroke-width:1.0;stroke-dasharray:2.0,2.0;" x1="659.5" x2="927.5" y1="291.4219" y2="291.4219"/><text fill="#000000" font-family="sans-serif" font-size="13" font-weight="bold" lengthAdjust="spacing" textLength="9" x="671.5" y="286.356">5</text><text fill="#000000" font-family="sans-serif" font-size="13" lengthAdjust="spacing" textLength="77" x="684.5" y="286.356">repositories</text><polygon fill="#181818" points="1028.5,316.5547,1038.5,320.5547,1028.5,324.5547,1032.5,320.5547" style="stroke:#181818;stroke-width:1.0;"/><line style="stroke:#181818;stroke-width:1.0;" x1="654.5" x2="1034.5" y1="320.5547" y2="320.5547"/><text fill="#000000" font-family="sans-serif" font-size="13" font-weight="bold" lengthAdjust="spacing" textLength="9" x="661.5" y="315.4888">6</text><text fill="#000000" font-family="sans-serif" font-size="13" lengthAdjust="spacing" textLength="179" x="674.5" y="315.4888">getGreenSpaceRepository()</text><polygon fill="#181818" points="665.5,345.6875,655.5,349.6875,665.5,353.6875,661.5,349.6875" style="stroke:#181818;stroke-width:1.0;"/><line style="stroke:#181818;stroke-width:1.0;stroke-dasharray:2.0,2.0;" x1="659.5" x2="1044.5" y1="349.6875" y2="349.6875"/><text fill="#000000" font-family="sans-serif" font-size="13" font-weight="bold" lengthAdjust="spacing" textLength="9" x="671.5" y="344.6216">7</text><text fill="#000000" font-family="sans-serif" font-size="13" lengthAdjust="spacing" textLength="146" x="684.5" y="344.6216">greenSpaceRepository</text><line style="stroke:#181818;stroke-width:1.0;stroke-dasharray:2.0,2.0;" x1="654.5" x2="696.5" y1="383.8203" y2="383.8203"/><line style="stroke:#181818;stroke-width:1.0;stroke-dasharray:2.0,2.0;" x1="696.5" x2="696.5" y1="383.8203" y2="396.8203"/><line style="stroke:#181818;stroke-width:1.0;stroke-dasharray:2.0,2.0;" x1="649.5" x2="696.5" y1="396.8203" y2="396.8203"/><polygon fill="#181818" points="659.5,392.8203,649.5,396.8203,659.5,400.8203,655.5,396.8203" style="stroke:#181818;stroke-width:1.0;"/><text fill="#000000" font-family="sans-serif" font-size="13" font-weight="bold" lengthAdjust="spacing" textLength="9" x="661.5" y="378.7544">8</text><text fill="#000000" font-family="sans-serif" font-size="13" lengthAdjust="spacing" textLength="146" x="674.5" y="378.7544">greenSpaceRepository</text><polygon fill="#181818" points="103.5,416.9531,93.5,420.9531,103.5,424.9531,99.5,420.9531" style="stroke:#181818;stroke-width:1.0;"/><line style="stroke:#181818;stroke-width:1.0;stroke-dasharray:2.0,2.0;" x1="97.5" x2="354.5" y1="420.9531" y2="420.9531"/><text fill="#000000" font-family="sans-serif" font-size="13" font-weight="bold" lengthAdjust="spacing" textLength="9" x="109.5" y="415.8872">9</text><text fill="#000000" font-family="sans-serif" font-size="13" lengthAdjust="spacing" textLength="221" x="122.5" y="415.8872">request data (name,area,address)</text><polygon fill="#181818" points="338.5,446.0859,348.5,450.0859,338.5,454.0859,342.5,450.0859" style="stroke:#181818;stroke-width:1.0;"/><line style="stroke:#181818;stroke-width:1.0;" x1="92.5" x2="344.5" y1="450.0859" y2="450.0859"/><text fill="#000000" font-family="sans-serif" font-size="13" font-weight="bold" lengthAdjust="spacing" textLength="18" x="99.5" y="445.02">10</text><text fill="#000000" font-family="sans-serif" font-size="13" lengthAdjust="spacing" textLength="138" x="121.5" y="445.02">types requested data</text><polygon fill="#181818" points="627.5,475.2188,637.5,479.2188,627.5,483.2188,631.5,479.2188" style="stroke:#181818;stroke-width:1.0;"/><line style="stroke:#181818;stroke-width:1.0;" x1="360.5" x2="633.5" y1="479.2188" y2="479.2188"/><text fill="#000000" font-family="sans-serif" font-size="13" font-weight="bold" lengthAdjust="spacing" textLength="18" x="367.5" y="474.1528">11</text><text fill="#000000" font-family="sans-serif" font-size="13" lengthAdjust="spacing" textLength="150" x="389.5" y="474.1528">getGreenSpacesSizes()</text><polygon fill="#181818" points="1392.5,504.3516,1402.5,508.3516,1392.5,512.3516,1396.5,508.3516" style="stroke:#181818;stroke-width:1.0;"/><line style="stroke:#181818;stroke-width:1.0;" x1="649.5" x2="1398.5" y1="508.3516" y2="508.3516"/><text fill="#000000" font-family="sans-serif" font-size="13" font-weight="bold" lengthAdjust="spacing" textLength="18" x="656.5" y="503.2856">12</text><text fill="#000000" font-family="sans-serif" font-size="13" lengthAdjust="spacing" textLength="150" x="678.5" y="503.2856">getGreenSpacesSizes()</text><polygon fill="#181818" points="1626.5,533.4844,1636.5,537.4844,1626.5,541.4844,1630.5,537.4844" style="stroke:#181818;stroke-width:1.0;"/><line style="stroke:#181818;stroke-width:1.0;" x1="1414.5" x2="1632.5" y1="537.4844" y2="537.4844"/><text fill="#000000" font-family="sans-serif" font-size="13" font-weight="bold" lengthAdjust="spacing" textLength="18" x="1421.5" y="532.4185">13</text><text fill="#000000" font-family="sans-serif" font-size="13" lengthAdjust="spacing" textLength="166" x="1443.5" y="532.4185">GreenSpace.Size.values()</text><polygon fill="#181818" points="1425.5,562.6172,1415.5,566.6172,1425.5,570.6172,1421.5,566.6172" style="stroke:#181818;stroke-width:1.0;"/><line style="stroke:#181818;stroke-width:1.0;stroke-dasharray:2.0,2.0;" x1="1419.5" x2="1642.5" y1="566.6172" y2="566.6172"/><text fill="#000000" font-family="sans-serif" font-size="13" font-weight="bold" lengthAdjust="spacing" textLength="18" x="1431.5" y="561.5513">14</text><text fill="#000000" font-family="sans-serif" font-size="13" lengthAdjust="spacing" textLength="56" x="1453.5" y="561.5513">sizesList</text><polygon fill="#181818" points="660.5,591.75,650.5,595.75,660.5,599.75,656.5,595.75" style="stroke:#181818;stroke-width:1.0;"/><line style="stroke:#181818;stroke-width:1.0;stroke-dasharray:2.0,2.0;" x1="654.5" x2="1408.5" y1="595.75" y2="595.75"/><text fill="#000000" font-family="sans-serif" font-size="13" font-weight="bold" lengthAdjust="spacing" textLength="18" x="666.5" y="590.6841">15</text><text fill="#000000" font-family="sans-serif" font-size="13" lengthAdjust="spacing" textLength="56" x="688.5" y="590.6841">sizesList</text><polygon fill="#181818" points="371.5,620.8828,361.5,624.8828,371.5,628.8828,367.5,624.8828" style="stroke:#181818;stroke-width:1.0;"/><line style="stroke:#181818;stroke-width:1.0;stroke-dasharray:2.0,2.0;" x1="365.5" x2="643.5" y1="624.8828" y2="624.8828"/><text fill="#000000" font-family="sans-serif" font-size="13" font-weight="bold" lengthAdjust="spacing" textLength="18" x="377.5" y="619.8169">16</text><text fill="#000000" font-family="sans-serif" font-size="13" lengthAdjust="spacing" textLength="56" x="399.5" y="619.8169">sizesList</text><polygon fill="#181818" points="103.5,665.1484,93.5,669.1484,103.5,673.1484,99.5,669.1484" style="stroke:#181818;stroke-width:1.0;"/><line style="stroke:#181818;stroke-width:1.0;stroke-dasharray:2.0,2.0;" x1="97.5" x2="354.5" y1="669.1484" y2="669.1484"/><text fill="#000000" font-family="sans-serif" font-size="13" font-weight="bold" lengthAdjust="spacing" textLength="18" x="109.5" y="656.5161">17</text><text fill="#000000" font-family="sans-serif" font-size="13" lengthAdjust="spacing" textLength="119" x="131.5" y="648.9497">shows list of sizes</text><text fill="#000000" font-family="sans-serif" font-size="13" lengthAdjust="spacing" textLength="152" x="135.5" y="664.0825">and request a selection</text><polygon fill="#181818" points="338.5,694.2813,348.5,698.2813,338.5,702.2813,342.5,698.2813" style="stroke:#181818;stroke-width:1.0;"/><line style="stroke:#181818;stroke-width:1.0;" x1="92.5" x2="344.5" y1="698.2813" y2="698.2813"/><text fill="#000000" font-family="sans-serif" font-size="13" font-weight="bold" lengthAdjust="spacing" textLength="18" x="99.5" y="693.2153">18</text><text fill="#000000" font-family="sans-serif" font-size="13" lengthAdjust="spacing" textLength="104" x="121.5" y="693.2153">select an option</text><polygon fill="#181818" points="103.5,738.5469,93.5,742.5469,103.5,746.5469,99.5,742.5469" style="stroke:#181818;stroke-width:1.0;"/><line style="stroke:#181818;stroke-width:1.0;stroke-dasharray:2.0,2.0;" x1="97.5" x2="354.5" y1="742.5469" y2="742.5469"/><text fill="#000000" font-family="sans-serif" font-size="13" font-weight="bold" lengthAdjust="spacing" textLength="18" x="109.5" y="729.9146">19</text><text fill="#000000" font-family="sans-serif" font-size="13" lengthAdjust="spacing" textLength="157" x="131.5" y="722.3481">show all data registered</text><text fill="#000000" font-family="sans-serif" font-size="13" lengthAdjust="spacing" textLength="177" x="135.5" y="737.481">and the confirmation menu</text><polygon fill="#181818" points="338.5,767.6797,348.5,771.6797,338.5,775.6797,342.5,771.6797" style="stroke:#181818;stroke-width:1.0;"/><line style="stroke:#181818;stroke-width:1.0;" x1="92.5" x2="344.5" y1="771.6797" y2="771.6797"/><text fill="#000000" font-family="sans-serif" font-size="13" font-weight="bold" lengthAdjust="spacing" textLength="18" x="99.5" y="766.6138">20</text><text fill="#000000" font-family="sans-serif" font-size="13" lengthAdjust="spacing" textLength="85" x="121.5" y="766.6138">submits data</text><polygon fill="#181818" points="627.5,796.8125,637.5,800.8125,627.5,804.8125,631.5,800.8125" style="stroke:#181818;stroke-width:1.0;"/><line style="stroke:#181818;stroke-width:1.0;" x1="360.5" x2="633.5" y1="800.8125" y2="800.8125"/><text fill="#000000" font-family="sans-serif" font-size="13" font-weight="bold" lengthAdjust="spacing" textLength="18" x="367.5" y="795.7466">21</text><text fill="#000000" font-family="sans-serif" font-size="13" lengthAdjust="spacing" textLength="238" x="389.5" y="795.7466">registerGreenSpace(name,size,area)</text><line style="stroke:#181818;stroke-width:1.0;" x1="649.5" x2="696.5" y1="824.9453" y2="824.9453"/><line style="stroke:#181818;stroke-width:1.0;" x1="696.5" x2="696.5" y1="824.9453" y2="837.9453"/><line style="stroke:#181818;stroke-width:1.0;" x1="655.5" x2="696.5" y1="837.9453" y2="837.9453"/><polygon fill="#181818" points="665.5,833.9453,655.5,837.9453,665.5,841.9453,661.5,837.9453" style="stroke:#181818;stroke-width:1.0;"/><text fill="#000000" font-family="sans-serif" font-size="13" font-weight="bold" lengthAdjust="spacing" textLength="18" x="661.5" y="819.8794">22</text><text fill="#000000" font-family="sans-serif" font-size="13" lengthAdjust="spacing" textLength="238" x="683.5" y="819.8794">registerGreenSpace(name,size,area)</text><line style="stroke:#181818;stroke-width:1.0;" x1="654.5" x2="701.5" y1="867.0781" y2="867.0781"/><line style="stroke:#181818;stroke-width:1.0;" x1="701.5" x2="701.5" y1="867.0781" y2="880.0781"/><line style="stroke:#181818;stroke-width:1.0;" x1="660.5" x2="701.5" y1="880.0781" y2="880.0781"/><polygon fill="#181818" points="670.5,876.0781,660.5,880.0781,670.5,884.0781,666.5,880.0781" style="stroke:#181818;stroke-width:1.0;"/><text fill="#000000" font-family="sans-serif" font-size="13" font-weight="bold" lengthAdjust="spacing" textLength="18" x="666.5" y="862.0122">23</text><text fill="#000000" font-family="sans-serif" font-size="13" lengthAdjust="spacing" textLength="110" x="688.5" y="862.0122">getResponsible()</text><polygon fill="#181818" points="1028.5,910.2109,1038.5,914.2109,1028.5,918.2109,1032.5,914.2109" style="stroke:#181818;stroke-width:1.0;"/><line style="stroke:#181818;stroke-width:1.0;" x1="659.5" x2="1034.5" y1="914.2109" y2="914.2109"/><text fill="#000000" font-family="sans-serif" font-size="13" font-weight="bold" lengthAdjust="spacing" textLength="18" x="666.5" y="909.145">24</text><text fill="#000000" font-family="sans-serif" font-size="13" lengthAdjust="spacing" textLength="196" x="688.5" y="909.145">getAuthenticationRepository()</text><polygon fill="#181818" points="670.5,939.3438,660.5,943.3438,670.5,947.3438,666.5,943.3438" style="stroke:#181818;stroke-width:1.0;"/><line style="stroke:#181818;stroke-width:1.0;stroke-dasharray:2.0,2.0;" x1="664.5" x2="1044.5" y1="943.3438" y2="943.3438"/><text fill="#000000" font-family="sans-serif" font-size="13" font-weight="bold" lengthAdjust="spacing" textLength="18" x="676.5" y="938.2778">25</text><text fill="#000000" font-family="sans-serif" font-size="13" lengthAdjust="spacing" textLength="164" x="698.5" y="938.2778">authenticationRepository</text><polygon fill="#181818" points="1191.5,968.4766,1201.5,972.4766,1191.5,976.4766,1195.5,972.4766" style="stroke:#181818;stroke-width:1.0;"/><line style="stroke:#181818;stroke-width:1.0;" x1="659.5" x2="1197.5" y1="972.4766" y2="972.4766"/><text fill="#000000" font-family="sans-serif" font-size="13" font-weight="bold" lengthAdjust="spacing" textLength="18" x="666.5" y="967.4106">26</text><text fill="#000000" font-family="sans-serif" font-size="13" lengthAdjust="spacing" textLength="159" x="688.5" y="967.4106">getCurrentUserSession()</text><line style="stroke:#181818;stroke-width:1.0;" x1="1213.5" x2="1260.5" y1="996.6094" y2="996.6094"/><line style="stroke:#181818;stroke-width:1.0;" x1="1260.5" x2="1260.5" y1="996.6094" y2="1009.6094"/><line style="stroke:#181818;stroke-width:1.0;" x1="1219.5" x2="1260.5" y1="1009.6094" y2="1009.6094"/><polygon fill="#181818" points="1229.5,1005.6094,1219.5,1009.6094,1229.5,1013.6094,1225.5,1009.6094" style="stroke:#181818;stroke-width:1.0;"/><text fill="#000000" font-family="sans-serif" font-size="13" font-weight="bold" lengthAdjust="spacing" textLength="18" x="1225.5" y="991.5435">27</text><text fill="#000000" font-family="sans-serif" font-size="13" lengthAdjust="spacing" textLength="73" x="1247.5" y="991.5435">getUserId()</text><line style="stroke:#181818;stroke-width:1.0;" x1="1218.5" x2="1265.5" y1="1038.7422" y2="1038.7422"/><line style="stroke:#181818;stroke-width:1.0;" x1="1265.5" x2="1265.5" y1="1038.7422" y2="1051.7422"/><line style="stroke:#181818;stroke-width:1.0;" x1="1224.5" x2="1265.5" y1="1051.7422" y2="1051.7422"/><polygon fill="#181818" points="1234.5,1047.7422,1224.5,1051.7422,1234.5,1055.7422,1230.5,1051.7422" style="stroke:#181818;stroke-width:1.0;"/><text fill="#000000" font-family="sans-serif" font-size="13" font-weight="bold" lengthAdjust="spacing" textLength="18" x="1230.5" y="1033.6763">28</text><text fill="#000000" font-family="sans-serif" font-size="13" lengthAdjust="spacing" textLength="68" x="1252.5" y="1033.6763">getEmail()</text><line style="stroke:#181818;stroke-width:1.0;stroke-dasharray:2.0,2.0;" x1="1223.5" x2="1265.5" y1="1090.875" y2="1090.875"/><line style="stroke:#181818;stroke-width:1.0;stroke-dasharray:2.0,2.0;" x1="1265.5" x2="1265.5" y1="1090.875" y2="1103.875"/><line style="stroke:#181818;stroke-width:1.0;stroke-dasharray:2.0,2.0;" x1="1218.5" x2="1265.5" y1="1103.875" y2="1103.875"/><polygon fill="#181818" points="1228.5,1099.875,1218.5,1103.875,1228.5,1107.875,1224.5,1103.875" style="stroke:#181818;stroke-width:1.0;"/><text fill="#000000" font-family="sans-serif" font-size="13" font-weight="bold" lengthAdjust="spacing" textLength="18" x="1230.5" y="1085.8091">29</text><text fill="#000000" font-family="sans-serif" font-size="13" lengthAdjust="spacing" textLength="4" x="1252.5" y="1085.8091">&#160;</text><line style="stroke:#181818;stroke-width:1.0;stroke-dasharray:2.0,2.0;" x1="1218.5" x2="1260.5" y1="1133.0078" y2="1133.0078"/><line style="stroke:#181818;stroke-width:1.0;stroke-dasharray:2.0,2.0;" x1="1260.5" x2="1260.5" y1="1133.0078" y2="1146.0078"/><line style="stroke:#181818;stroke-width:1.0;stroke-dasharray:2.0,2.0;" x1="1213.5" x2="1260.5" y1="1146.0078" y2="1146.0078"/><polygon fill="#181818" points="1223.5,1142.0078,1213.5,1146.0078,1223.5,1150.0078,1219.5,1146.0078" style="stroke:#181818;stroke-width:1.0;"/><text fill="#000000" font-family="sans-serif" font-size="13" font-weight="bold" lengthAdjust="spacing" textLength="18" x="1225.5" y="1127.9419">30</text><text fill="#000000" font-family="sans-serif" font-size="13" lengthAdjust="spacing" textLength="4" x="1247.5" y="1127.9419">&#160;</text><polygon fill="#181818" points="670.5,1166.1406,660.5,1170.1406,670.5,1174.1406,666.5,1170.1406" style="stroke:#181818;stroke-width:1.0;"/><line style="stroke:#181818;stroke-width:1.0;stroke-dasharray:2.0,2.0;" x1="664.5" x2="1207.5" y1="1170.1406" y2="1170.1406"/><text fill="#000000" font-family="sans-serif" font-size="13" font-weight="bold" lengthAdjust="spacing" textLength="18" x="676.5" y="1165.0747">31</text><text fill="#000000" font-family="sans-serif" font-size="13" lengthAdjust="spacing" textLength="37" x="698.5" y="1165.0747">email</text><line style="stroke:#181818;stroke-width:1.0;stroke-dasharray:2.0,2.0;" x1="659.5" x2="701.5" y1="1204.2734" y2="1204.2734"/><line style="stroke:#181818;stroke-width:1.0;stroke-dasharray:2.0,2.0;" x1="701.5" x2="701.5" y1="1204.2734" y2="1217.2734"/><line style="stroke:#181818;stroke-width:1.0;stroke-dasharray:2.0,2.0;" x1="654.5" x2="701.5" y1="1217.2734" y2="1217.2734"/><polygon fill="#181818" points="664.5,1213.2734,654.5,1217.2734,664.5,1221.2734,660.5,1217.2734" style="stroke:#181818;stroke-width:1.0;"/><text fill="#000000" font-family="sans-serif" font-size="13" font-weight="bold" lengthAdjust="spacing" textLength="18" x="666.5" y="1199.2075">32</text><text fill="#000000" font-family="sans-serif" font-size="13" lengthAdjust="spacing" textLength="67" x="688.5" y="1199.2075">resposible</text><polygon fill="#181818" points="1392.5,1262.4063,1402.5,1266.4063,1392.5,1270.4063,1396.5,1266.4063" style="stroke:#181818;stroke-width:1.0;"/><line style="stroke:#181818;stroke-width:1.0;" x1="649.5" x2="1398.5" y1="1266.4063" y2="1266.4063"/><text fill="#000000" font-family="sans-serif" font-size="13" font-weight="bold" lengthAdjust="spacing" textLength="18" x="656.5" y="1261.3403">33</text><text fill="#000000" font-family="sans-serif" font-size="13" lengthAdjust="spacing" textLength="309" x="678.5" y="1261.3403">registerGreenSpace(name,size,area,resposible)</text><polygon fill="#181818" points="1631.5,1291.5391,1641.5,1295.5391,1631.5,1299.5391,1635.5,1295.5391" style="stroke:#181818;stroke-width:1.0;"/><line style="stroke:#181818;stroke-width:1.0;" x1="1414.5" x2="1637.5" y1="1295.5391" y2="1295.5391"/><text fill="#000000" font-family="sans-serif" font-size="13" font-weight="bold" lengthAdjust="spacing" textLength="18" x="1421.5" y="1290.4731">34</text><text fill="#000000" font-family="sans-serif" font-size="13" lengthAdjust="spacing" textLength="41" x="1443.5" y="1290.4731">create</text><line style="stroke:#181818;stroke-width:1.0;" x1="1414.5" x2="1461.5" y1="1319.6719" y2="1319.6719"/><line style="stroke:#181818;stroke-width:1.0;" x1="1461.5" x2="1461.5" y1="1319.6719" y2="1332.6719"/><line style="stroke:#181818;stroke-width:1.0;" x1="1420.5" x2="1461.5" y1="1332.6719" y2="1332.6719"/><polygon fill="#181818" points="1430.5,1328.6719,1420.5,1332.6719,1430.5,1336.6719,1426.5,1332.6719" style="stroke:#181818;stroke-width:1.0;"/><text fill="#000000" font-family="sans-serif" font-size="13" font-weight="bold" lengthAdjust="spacing" textLength="18" x="1426.5" y="1314.606">35</text><text fill="#000000" font-family="sans-serif" font-size="13" lengthAdjust="spacing" textLength="188" x="1448.5" y="1314.606">addGreenSpace(greenSpace)</text><line style="stroke:#181818;stroke-width:1.0;" x1="1419.5" x2="1466.5" y1="1361.8047" y2="1361.8047"/><line style="stroke:#181818;stroke-width:1.0;" x1="1466.5" x2="1466.5" y1="1361.8047" y2="1374.8047"/><line style="stroke:#181818;stroke-width:1.0;" x1="1425.5" x2="1466.5" y1="1374.8047" y2="1374.8047"/><polygon fill="#181818" points="1435.5,1370.8047,1425.5,1374.8047,1435.5,1378.8047,1431.5,1374.8047" style="stroke:#181818;stroke-width:1.0;"/><text fill="#000000" font-family="sans-serif" font-size="13" font-weight="bold" lengthAdjust="spacing" textLength="18" x="1431.5" y="1356.7388">36</text><text fill="#000000" font-family="sans-serif" font-size="13" lengthAdjust="spacing" textLength="139" x="1453.5" y="1356.7388">validate(greenSpace)</text><line style="stroke:#181818;stroke-width:1.0;stroke-dasharray:2.0,2.0;" x1="1424.5" x2="1466.5" y1="1413.9375" y2="1413.9375"/><line style="stroke:#181818;stroke-width:1.0;stroke-dasharray:2.0,2.0;" x1="1466.5" x2="1466.5" y1="1413.9375" y2="1426.9375"/><line style="stroke:#181818;stroke-width:1.0;stroke-dasharray:2.0,2.0;" x1="1419.5" x2="1466.5" y1="1426.9375" y2="1426.9375"/><polygon fill="#181818" points="1429.5,1422.9375,1419.5,1426.9375,1429.5,1430.9375,1425.5,1426.9375" style="stroke:#181818;stroke-width:1.0;"/><text fill="#000000" font-family="sans-serif" font-size="13" font-weight="bold" lengthAdjust="spacing" textLength="18" x="1431.5" y="1408.8716">37</text><text fill="#000000" font-family="sans-serif" font-size="13" lengthAdjust="spacing" textLength="4" x="1453.5" y="1408.8716">&#160;</text><line style="stroke:#181818;stroke-width:1.0;stroke-dasharray:2.0,2.0;" x1="1419.5" x2="1461.5" y1="1456.0703" y2="1456.0703"/><line style="stroke:#181818;stroke-width:1.0;stroke-dasharray:2.0,2.0;" x1="1461.5" x2="1461.5" y1="1456.0703" y2="1469.0703"/><line style="stroke:#181818;stroke-width:1.0;stroke-dasharray:2.0,2.0;" x1="1414.5" x2="1461.5" y1="1469.0703" y2="1469.0703"/><polygon fill="#181818" points="1424.5,1465.0703,1414.5,1469.0703,1424.5,1473.0703,1420.5,1469.0703" style="stroke:#181818;stroke-width:1.0;"/><text fill="#000000" font-family="sans-serif" font-size="13" font-weight="bold" lengthAdjust="spacing" textLength="18" x="1426.5" y="1451.0044">38</text><text fill="#000000" font-family="sans-serif" font-size="13" lengthAdjust="spacing" textLength="4" x="1448.5" y="1451.0044">&#160;</text><polygon fill="#181818" points="660.5,1489.2031,650.5,1493.2031,660.5,1497.2031,656.5,1493.2031" style="stroke:#181818;stroke-width:1.0;"/><line style="stroke:#181818;stroke-width:1.0;stroke-dasharray:2.0,2.0;" x1="654.5" x2="1408.5" y1="1493.2031" y2="1493.2031"/><text fill="#000000" font-family="sans-serif" font-size="13" font-weight="bold" lengthAdjust="spacing" textLength="18" x="666.5" y="1488.1372">39</text><text fill="#000000" font-family="sans-serif" font-size="13" lengthAdjust="spacing" textLength="76" x="688.5" y="1488.1372">greenSpace</text><polygon fill="#181818" points="371.5,1518.3359,361.5,1522.3359,371.5,1526.3359,367.5,1522.3359" style="stroke:#181818;stroke-width:1.0;"/><line style="stroke:#181818;stroke-width:1.0;stroke-dasharray:2.0,2.0;" x1="365.5" x2="643.5" y1="1522.3359" y2="1522.3359"/><text fill="#000000" font-family="sans-serif" font-size="13" font-weight="bold" lengthAdjust="spacing" textLength="18" x="377.5" y="1517.27">40</text><text fill="#000000" font-family="sans-serif" font-size="13" lengthAdjust="spacing" textLength="76" x="399.5" y="1517.27">greenSpace</text><polygon fill="#181818" points="103.5,1547.4688,93.5,1551.4688,103.5,1555.4688,99.5,1551.4688" style="stroke:#181818;stroke-width:1.0;"/><line style="stroke:#181818;stroke-width:1.0;stroke-dasharray:2.0,2.0;" x1="97.5" x2="354.5" y1="1551.4688" y2="1551.4688"/><text fill="#000000" font-family="sans-serif" font-size="13" font-weight="bold" lengthAdjust="spacing" textLength="18" x="109.5" y="1546.4028">41</text><text fill="#000000" font-family="sans-serif" font-size="13" lengthAdjust="spacing" textLength="184" x="131.5" y="1546.4028">shows operation (in)success</text><!--SRC=[hLV1JkCm4BtxAqQSA08-e0Sa10XL0e4Qk74noT1Q97RMTa2i-FWTEqtID7OQkkJKn3DldcUUPrppBcJ9DI-WK5AbQwqA1AihPAPTANdwpbUOsAySGMDgkLpbsmPcpJFrAUGAtdXka34hB9a-Bo31FnNA5E5Qy9KpFKwIwncSmMLkKKjknGV2WoGNNbabg-8LDVrEhT9mTAiH9IGK7k6UIwAWZu0Rk2dAN7qXCefkHIfABYqSpPUu4ePGlPltUbvu- -V5Niih9QrMURw9SFMql1lubCe8uYNGU9lsmrSYN3w8Vjz5Rtcyo270uztbKz-3Sh16IU-K5oMx0EHz6LdoI36_FlggtMqF-JRmsQE6x6E8FPowIFUFovlR1-QhAJwunQvk3EXftk3imYbbJaxlO1K9h2uEy9e168VfNLeaggZ_G7xaxQfrSa88gKPQxPlwKiBcSI-D1zclq8PsVpnh7VemR00K446Dkv26ZacA8QoGSbgh4EBPXl8SjZNLkcGu3ZrWxPJti-rxhRQVlNz7AYYK03aFqkToTj6K8eGH0jaKeYq_iMYLvF93_SPOoBZbS2nvWQUSH77AiqoZCVNETj5slZNY6WZKVfLecX2O-I3xTBcRPfE8lsZY2eFkQQeLpCrUt1xsU7QR9nZ7vRS-odFemfsxSESVFAy6GNk1sowmQx5PyFMBxC-u7TrHBnWuRnMh2J1jBrrHmk1RmAEYtXPmhOqEBovQ26lMhDMdWPnyGRtLG2yIkCnQDNCmcDFSfURE8ABMeLnh7m82LNhNk5Q7X83dUNsAcdwCsOOLpHf8bNmJkl3p1WgKrUH3PAhNGbWpzV3emQYkJxLBap_QCnRgqopGxG-3Ye-E9PfIIIDUSzn_deUjDpRHVzX-tU2CZVzO3nwmYY7KJAyghMdrsQ1Eg8cIHOXZb4M_9SKYZR8W4Yxw8eirk6d13oVWqd1JS96FDRlf9CQ9Z30PQuMJVNud-fJ8KslVQHbTajcXksjxSdDRCiwC3YYBKMyl0D_Vtm6ew73QsqnEk-0p5hrsJ9ZGUwPoT-qTjOviW-v5MpleZ6Pi0hq3uj6DGL3dxuVwdqYHK6pgDFzzLCROb0j8jpwPQ__64GVO-QyIkt6e4dKzm8-5d9agfLka2SpnVm00]--></g></svg>