<?xml version="1.0" encoding="us-ascii" standalone="no"?><svg xmlns="http://www.w3.org/2000/svg" xmlns:xlink="http://www.w3.org/1999/xlink" contentStyleType="text/css" height="942px" preserveAspectRatio="none" style="width:1080px;height:942px;background:#FFFFFF;" version="1.1" viewBox="0 0 1080 942" width="1080px" zoomAndPan="magnify"><defs/><g><text fill="#000000" font-family="sans-serif" font-size="14" font-weight="bold" lengthAdjust="spacing" textLength="363" x="356" y="27.9951">UI Sequence Diagram (SSD) - Alternative One</text><rect fill="#FFFFFF" height="723.9609" style="stroke:#181818;stroke-width:1.0;" width="10" x="82.5" y="128.5938"/><rect fill="#FFFFFF" height="114.5313" style="stroke:#181818;stroke-width:1.0;" width="10" x="350.5" y="149.7266"/><rect fill="#FFFFFF" height="146.6328" style="stroke:#181818;stroke-width:1.0;" width="10" x="350.5" y="293.3906"/><rect fill="#FFFFFF" height="44.2656" style="stroke:#181818;stroke-width:1.0;" width="10" x="350.5" y="469.1563"/><rect fill="#FFFFFF" height="301" style="stroke:#181818;stroke-width:1.0;" width="10" x="350.5" y="542.5547"/><rect fill="#FFFFFF" height="75.3984" style="stroke:#181818;stroke-width:1.0;" width="10" x="639.5" y="188.8594"/><rect fill="#FFFFFF" height="73.2344" style="stroke:#181818;stroke-width:1.0;" width="10" x="639.5" y="322.5234"/><rect fill="#FFFFFF" height="242.7344" style="stroke:#181818;stroke-width:1.0;" width="10" x="639.5" y="571.6875"/><rect fill="#FFFFFF" height="103.2344" style="stroke:#181818;stroke-width:1.0;" width="10" x="644.5" y="608.8203"/><rect fill="#FFFFFF" height="73.2344" style="stroke:#181818;stroke-width:1.0;" width="10" x="974.5" y="712.0547"/><line style="stroke:#181818;stroke-width:0.5;stroke-dasharray:5.0,5.0;" x1="87" x2="87" y1="118.5938" y2="861.5547"/><line style="stroke:#181818;stroke-width:0.5;stroke-dasharray:5.0,5.0;" x1="355.5" x2="355.5" y1="118.5938" y2="861.5547"/><line style="stroke:#181818;stroke-width:0.5;stroke-dasharray:5.0,5.0;" x1="644" x2="644" y1="188.375" y2="861.5547"/><line style="stroke:#181818;stroke-width:0.5;stroke-dasharray:5.0,5.0;" x1="979" x2="979" y1="118.5938" y2="861.5547"/><text fill="#000000" font-family="sans-serif" font-size="14" lengthAdjust="spacing" textLength="159" x="5" y="115.292">Green Space Manager</text><ellipse cx="87.5" cy="50.7969" fill="#E3E3E3" rx="8" ry="8" style="stroke:#181818;stroke-width:0.5;"/><path d="M87.5,58.7969 L87.5,85.7969 M74.5,66.7969 L100.5,66.7969 M87.5,85.7969 L74.5,100.7969 M87.5,85.7969 L100.5,100.7969 " fill="none" style="stroke:#181818;stroke-width:0.5;"/><text fill="#000000" font-family="sans-serif" font-size="14" lengthAdjust="spacing" textLength="159" x="5" y="873.5498">Green Space Manager</text><ellipse cx="87.5" cy="885.3516" fill="#E3E3E3" rx="8" ry="8" style="stroke:#181818;stroke-width:0.5;"/><path d="M87.5,893.3516 L87.5,920.3516 M74.5,901.3516 L100.5,901.3516 M87.5,920.3516 L74.5,935.3516 M87.5,920.3516 L100.5,935.3516 " fill="none" style="stroke:#181818;stroke-width:0.5;"/><rect fill="#E3E3E3" height="30.2969" rx="2.5" ry="2.5" style="stroke:#181818;stroke-width:0.5;" width="180" x="265.5" y="87.2969"/><text fill="#000000" font-family="sans-serif" font-size="14" lengthAdjust="spacing" textLength="166" x="272.5" y="107.292">:RegisterGreenSpaceUI</text><rect fill="#E3E3E3" height="30.2969" rx="2.5" ry="2.5" style="stroke:#181818;stroke-width:0.5;" width="180" x="265.5" y="860.5547"/><text fill="#000000" font-family="sans-serif" font-size="14" lengthAdjust="spacing" textLength="166" x="272.5" y="880.5498">:RegisterGreenSpaceUI</text><rect fill="#E3E3E3" height="30.2969" rx="2.5" ry="2.5" style="stroke:#181818;stroke-width:0.5;" width="237" x="526" y="860.5547"/><text fill="#000000" font-family="sans-serif" font-size="14" lengthAdjust="spacing" textLength="223" x="533" y="880.5498">:RegisterGreenSpaceController</text><rect fill="#E3E3E3" height="46.5938" rx="2.5" ry="2.5" style="stroke:#181818;stroke-width:0.5;" width="183" x="888" y="71"/><text fill="#000000" font-family="sans-serif" font-size="14" lengthAdjust="spacing" textLength="162" x="898.5" y="90.9951">greenSpaceRepository</text><text fill="#000000" font-family="sans-serif" font-size="14" lengthAdjust="spacing" textLength="169" x="895" y="107.292">:GreenSpaceRepository</text><rect fill="#E3E3E3" height="46.5938" rx="2.5" ry="2.5" style="stroke:#181818;stroke-width:0.5;" width="183" x="888" y="860.5547"/><text fill="#000000" font-family="sans-serif" font-size="14" lengthAdjust="spacing" textLength="162" x="898.5" y="880.5498">greenSpaceRepository</text><text fill="#000000" font-family="sans-serif" font-size="14" lengthAdjust="spacing" textLength="169" x="895" y="896.8467">:GreenSpaceRepository</text><rect fill="#FFFFFF" height="723.9609" style="stroke:#181818;stroke-width:1.0;" width="10" x="82.5" y="128.5938"/><rect fill="#FFFFFF" height="114.5313" style="stroke:#181818;stroke-width:1.0;" width="10" x="350.5" y="149.7266"/><rect fill="#FFFFFF" height="146.6328" style="stroke:#181818;stroke-width:1.0;" width="10" x="350.5" y="293.3906"/><rect fill="#FFFFFF" height="44.2656" style="stroke:#181818;stroke-width:1.0;" width="10" x="350.5" y="469.1563"/><rect fill="#FFFFFF" height="301" style="stroke:#181818;stroke-width:1.0;" width="10" x="350.5" y="542.5547"/><rect fill="#FFFFFF" height="75.3984" style="stroke:#181818;stroke-width:1.0;" width="10" x="639.5" y="188.8594"/><rect fill="#FFFFFF" height="73.2344" style="stroke:#181818;stroke-width:1.0;" width="10" x="639.5" y="322.5234"/><rect fill="#FFFFFF" height="242.7344" style="stroke:#181818;stroke-width:1.0;" width="10" x="639.5" y="571.6875"/><rect fill="#FFFFFF" height="103.2344" style="stroke:#181818;stroke-width:1.0;" width="10" x="644.5" y="608.8203"/><rect fill="#FFFFFF" height="73.2344" style="stroke:#181818;stroke-width:1.0;" width="10" x="974.5" y="712.0547"/><polygon fill="#181818" points="338.5,145.7266,348.5,149.7266,338.5,153.7266,342.5,149.7266" style="stroke:#181818;stroke-width:1.0;"/><line style="stroke:#181818;stroke-width:1.0;" x1="92.5" x2="344.5" y1="149.7266" y2="149.7266"/><text fill="#000000" font-family="sans-serif" font-size="13" font-weight="bold" lengthAdjust="spacing" textLength="9" x="99.5" y="144.6606">1</text><text fill="#000000" font-family="sans-serif" font-size="13" lengthAdjust="spacing" textLength="189" x="112.5" y="144.6606">ask to register a green space</text><polygon fill="#181818" points="514,174.8594,524,178.8594,514,182.8594,518,178.8594" style="stroke:#181818;stroke-width:1.0;"/><line style="stroke:#181818;stroke-width:1.0;" x1="360.5" x2="520" y1="178.8594" y2="178.8594"/><text fill="#000000" font-family="sans-serif" font-size="13" font-weight="bold" lengthAdjust="spacing" textLength="9" x="367.5" y="173.7935">2</text><text fill="#000000" font-family="sans-serif" font-size="13" lengthAdjust="spacing" textLength="41" x="380.5" y="173.7935">create</text><rect fill="#E3E3E3" height="30.2969" rx="2.5" ry="2.5" style="stroke:#181818;stroke-width:0.5;" width="237" x="526" y="157.7266"/><text fill="#000000" font-family="sans-serif" font-size="14" lengthAdjust="spacing" textLength="223" x="533" y="177.7217">:RegisterGreenSpaceController</text><rect fill="none" height="39.1016" style="stroke:#000000;stroke-width:1.5;" width="243" x="523" y="199.0234"/><path d="M523,199.0234 L589,199.0234 L589,206.0234 L579,216.0234 L523,216.0234 L523,199.0234 " fill="#EEEEEE" style="stroke:#000000;stroke-width:2.0;"/><text fill="#000000" font-family="sans-serif" font-size="13" font-weight="bold" lengthAdjust="spacing" textLength="21" x="536" y="213.0903">ref</text><text fill="#000000" font-family="sans-serif" font-size="12" lengthAdjust="spacing" textLength="165" x="562" y="231.1621">Get GreenSpace Repository</text><polygon fill="#181818" points="103.5,260.2578,93.5,264.2578,103.5,268.2578,99.5,264.2578" style="stroke:#181818;stroke-width:1.0;"/><line style="stroke:#181818;stroke-width:1.0;stroke-dasharray:2.0,2.0;" x1="97.5" x2="354.5" y1="264.2578" y2="264.2578"/><text fill="#000000" font-family="sans-serif" font-size="13" font-weight="bold" lengthAdjust="spacing" textLength="9" x="109.5" y="259.1919">3</text><text fill="#000000" font-family="sans-serif" font-size="13" lengthAdjust="spacing" textLength="221" x="122.5" y="259.1919">request data (name,area,address)</text><polygon fill="#181818" points="338.5,289.3906,348.5,293.3906,338.5,297.3906,342.5,293.3906" style="stroke:#181818;stroke-width:1.0;"/><line style="stroke:#181818;stroke-width:1.0;" x1="92.5" x2="344.5" y1="293.3906" y2="293.3906"/><text fill="#000000" font-family="sans-serif" font-size="13" font-weight="bold" lengthAdjust="spacing" textLength="9" x="99.5" y="288.3247">4</text><text fill="#000000" font-family="sans-serif" font-size="13" lengthAdjust="spacing" textLength="138" x="112.5" y="288.3247">types requested data</text><polygon fill="#181818" points="627.5,318.5234,637.5,322.5234,627.5,326.5234,631.5,322.5234" style="stroke:#181818;stroke-width:1.0;"/><line style="stroke:#181818;stroke-width:1.0;" x1="360.5" x2="633.5" y1="322.5234" y2="322.5234"/><text fill="#000000" font-family="sans-serif" font-size="13" font-weight="bold" lengthAdjust="spacing" textLength="9" x="367.5" y="317.4575">5</text><text fill="#000000" font-family="sans-serif" font-size="13" lengthAdjust="spacing" textLength="150" x="380.5" y="317.4575">getGreenSpacesSizes()</text><rect fill="none" height="39.1016" style="stroke:#000000;stroke-width:1.5;" width="243" x="523" y="330.5234"/><path d="M523,330.5234 L589,330.5234 L589,337.5234 L579,347.5234 L523,347.5234 L523,330.5234 " fill="#EEEEEE" style="stroke:#000000;stroke-width:2.0;"/><text fill="#000000" font-family="sans-serif" font-size="13" font-weight="bold" lengthAdjust="spacing" textLength="21" x="536" y="344.5903">ref</text><text fill="#000000" font-family="sans-serif" font-size="12" lengthAdjust="spacing" textLength="80" x="604.5" y="362.6621">Get Sizes List</text><polygon fill="#181818" points="371.5,391.7578,361.5,395.7578,371.5,399.7578,367.5,395.7578" style="stroke:#181818;stroke-width:1.0;"/><line style="stroke:#181818;stroke-width:1.0;stroke-dasharray:2.0,2.0;" x1="365.5" x2="643.5" y1="395.7578" y2="395.7578"/><text fill="#000000" font-family="sans-serif" font-size="13" font-weight="bold" lengthAdjust="spacing" textLength="9" x="377.5" y="390.6919">6</text><text fill="#000000" font-family="sans-serif" font-size="13" lengthAdjust="spacing" textLength="56" x="390.5" y="390.6919">sizesList</text><polygon fill="#181818" points="103.5,436.0234,93.5,440.0234,103.5,444.0234,99.5,440.0234" style="stroke:#181818;stroke-width:1.0;"/><line style="stroke:#181818;stroke-width:1.0;stroke-dasharray:2.0,2.0;" x1="97.5" x2="354.5" y1="440.0234" y2="440.0234"/><text fill="#000000" font-family="sans-serif" font-size="13" font-weight="bold" lengthAdjust="spacing" textLength="9" x="109.5" y="427.3911">7</text><text fill="#000000" font-family="sans-serif" font-size="13" lengthAdjust="spacing" textLength="119" x="122.5" y="419.8247">shows list of sizes</text><text fill="#000000" font-family="sans-serif" font-size="13" lengthAdjust="spacing" textLength="152" x="126.5" y="434.9575">and request a selection</text><polygon fill="#181818" points="338.5,465.1563,348.5,469.1563,338.5,473.1563,342.5,469.1563" style="stroke:#181818;stroke-width:1.0;"/><line style="stroke:#181818;stroke-width:1.0;" x1="92.5" x2="344.5" y1="469.1563" y2="469.1563"/><text fill="#000000" font-family="sans-serif" font-size="13" font-weight="bold" lengthAdjust="spacing" textLength="9" x="99.5" y="464.0903">8</text><text fill="#000000" font-family="sans-serif" font-size="13" lengthAdjust="spacing" textLength="104" x="112.5" y="464.0903">select an option</text><polygon fill="#181818" points="103.5,509.4219,93.5,513.4219,103.5,517.4219,99.5,513.4219" style="stroke:#181818;stroke-width:1.0;"/><line style="stroke:#181818;stroke-width:1.0;stroke-dasharray:2.0,2.0;" x1="97.5" x2="354.5" y1="513.4219" y2="513.4219"/><text fill="#000000" font-family="sans-serif" font-size="13" font-weight="bold" lengthAdjust="spacing" textLength="9" x="109.5" y="500.7896">9</text><text fill="#000000" font-family="sans-serif" font-size="13" lengthAdjust="spacing" textLength="157" x="122.5" y="493.2231">show all data registered</text><text fill="#000000" font-family="sans-serif" font-size="13" lengthAdjust="spacing" textLength="177" x="126.5" y="508.356">and the confirmation menu</text><polygon fill="#181818" points="338.5,538.5547,348.5,542.5547,338.5,546.5547,342.5,542.5547" style="stroke:#181818;stroke-width:1.0;"/><line style="stroke:#181818;stroke-width:1.0;" x1="92.5" x2="344.5" y1="542.5547" y2="542.5547"/><text fill="#000000" font-family="sans-serif" font-size="13" font-weight="bold" lengthAdjust="spacing" textLength="18" x="99.5" y="537.4888">10</text><text fill="#000000" font-family="sans-serif" font-size="13" lengthAdjust="spacing" textLength="85" x="121.5" y="537.4888">submits data</text><polygon fill="#181818" points="627.5,567.6875,637.5,571.6875,627.5,575.6875,631.5,571.6875" style="stroke:#181818;stroke-width:1.0;"/><line style="stroke:#181818;stroke-width:1.0;" x1="360.5" x2="633.5" y1="571.6875" y2="571.6875"/><text fill="#000000" font-family="sans-serif" font-size="13" font-weight="bold" lengthAdjust="spacing" textLength="18" x="367.5" y="566.6216">11</text><text fill="#000000" font-family="sans-serif" font-size="13" lengthAdjust="spacing" textLength="238" x="389.5" y="566.6216">registerGreenSpace(name,size,area)</text><line style="stroke:#181818;stroke-width:1.0;" x1="649.5" x2="696.5" y1="595.8203" y2="595.8203"/><line style="stroke:#181818;stroke-width:1.0;" x1="696.5" x2="696.5" y1="595.8203" y2="608.8203"/><line style="stroke:#181818;stroke-width:1.0;" x1="655.5" x2="696.5" y1="608.8203" y2="608.8203"/><polygon fill="#181818" points="665.5,604.8203,655.5,608.8203,665.5,612.8203,661.5,608.8203" style="stroke:#181818;stroke-width:1.0;"/><text fill="#000000" font-family="sans-serif" font-size="13" font-weight="bold" lengthAdjust="spacing" textLength="18" x="661.5" y="590.7544">12</text><text fill="#000000" font-family="sans-serif" font-size="13" lengthAdjust="spacing" textLength="238" x="683.5" y="590.7544">registerGreenSpace(name,size,area)</text><rect fill="none" height="39.1016" style="stroke:#000000;stroke-width:1.5;" width="243" x="523" y="621.8203"/><path d="M523,621.8203 L589,621.8203 L589,628.8203 L579,638.8203 L523,638.8203 L523,621.8203 " fill="#EEEEEE" style="stroke:#000000;stroke-width:2.0;"/><text fill="#000000" font-family="sans-serif" font-size="13" font-weight="bold" lengthAdjust="spacing" textLength="21" x="536" y="635.8872">ref</text><text fill="#000000" font-family="sans-serif" font-size="12" lengthAdjust="spacing" textLength="96" x="596.5" y="653.959">Get Responsible</text><polygon fill="#181818" points="962.5,708.0547,972.5,712.0547,962.5,716.0547,966.5,712.0547" style="stroke:#181818;stroke-width:1.0;"/><line style="stroke:#181818;stroke-width:1.0;" x1="649.5" x2="968.5" y1="712.0547" y2="712.0547"/><text fill="#000000" font-family="sans-serif" font-size="13" font-weight="bold" lengthAdjust="spacing" textLength="18" x="656.5" y="706.9888">13</text><text fill="#000000" font-family="sans-serif" font-size="13" lengthAdjust="spacing" textLength="279" x="678.5" y="706.9888">registerGreenSpace(name,size,area,email)</text><rect fill="none" height="39.1016" style="stroke:#000000;stroke-width:1.5;" width="189" x="885" y="720.0547"/><path d="M885,720.0547 L951,720.0547 L951,727.0547 L941,737.0547 L885,737.0547 L885,720.0547 " fill="#EEEEEE" style="stroke:#000000;stroke-width:2.0;"/><text fill="#000000" font-family="sans-serif" font-size="13" font-weight="bold" lengthAdjust="spacing" textLength="21" x="898" y="734.1216">ref</text><text fill="#000000" font-family="sans-serif" font-size="12" lengthAdjust="spacing" textLength="130" x="914.5" y="752.1934">Register Green Space</text><polygon fill="#181818" points="660.5,781.2891,650.5,785.2891,660.5,789.2891,656.5,785.2891" style="stroke:#181818;stroke-width:1.0;"/><line style="stroke:#181818;stroke-width:1.0;stroke-dasharray:2.0,2.0;" x1="654.5" x2="978.5" y1="785.2891" y2="785.2891"/><text fill="#000000" font-family="sans-serif" font-size="13" font-weight="bold" lengthAdjust="spacing" textLength="18" x="666.5" y="780.2231">14</text><text fill="#000000" font-family="sans-serif" font-size="13" lengthAdjust="spacing" textLength="76" x="688.5" y="780.2231">greenSpace</text><polygon fill="#181818" points="371.5,810.4219,361.5,814.4219,371.5,818.4219,367.5,814.4219" style="stroke:#181818;stroke-width:1.0;"/><line style="stroke:#181818;stroke-width:1.0;stroke-dasharray:2.0,2.0;" x1="365.5" x2="643.5" y1="814.4219" y2="814.4219"/><text fill="#000000" font-family="sans-serif" font-size="13" font-weight="bold" lengthAdjust="spacing" textLength="18" x="377.5" y="809.356">15</text><text fill="#000000" font-family="sans-serif" font-size="13" lengthAdjust="spacing" textLength="76" x="399.5" y="809.356">greenSpace</text><polygon fill="#181818" points="103.5,839.5547,93.5,843.5547,103.5,847.5547,99.5,843.5547" style="stroke:#181818;stroke-width:1.0;"/><line style="stroke:#181818;stroke-width:1.0;stroke-dasharray:2.0,2.0;" x1="97.5" x2="354.5" y1="843.5547" y2="843.5547"/><text fill="#000000" font-family="sans-serif" font-size="13" font-weight="bold" lengthAdjust="spacing" textLength="18" x="109.5" y="838.4888">16</text><text fill="#000000" font-family="sans-serif" font-size="13" lengthAdjust="spacing" textLength="184" x="131.5" y="838.4888">shows operation (in)success</text><!--SRC=[fLJ1RgCm4Btp5QESGfNyG0wLLkqgYjJLIc5pwsK24sB5sAnjKcMLZz_150B5j97g4zZptinxdh4z2LMYmG8AhNHwDBeWSAQYo7Od9QOdp2bn5qbWA7MeSjaFi4VCz9jGEHnGMeeY9no7xZQGqD-AL4hmB32lG-T9yXp34dv8HqQX4sU2tueXM3cjgc9FXhzJfmtCreP8GSBf2NwXuXBC3D32pwAK-a8KSNOdKb6YSZ1RRIaNbbazpADs6n-_stmP-QILCrhAzmnFVxOlGqpUXMwfr5PmWPTNjLe7jZr3A3xooiGP7TqqHC2h_OFbO-tQYXbEu3IRtHGAs122hHazf6DYTNw3SOokAtzuO8RK49yEGxqilrKlGmVGPoRtsz1RQt9mKmOz1Mq4gQmXokW3-wqOhgRJjU9it0dMGOOEOQwme0LoYGlCCaFMna6s3tkjr95TxbAIRLDGvfDyvHB3Sd8tcJOH_yZEuqxZX6sVMzVQvydWXMzlS5pxrl_tXInR6RO6UKmNDF8NmlRQetwp81aB-j0GlIf0bNN68rYIFBn2gmWcZ1qxss2O27JfeTEsZWi2bBAvyBQHANkloXq9KgqEmXHOyq91ghhxlcsrBuIpzzwp6Srxqu2rJRuBuz2SD4JD3NsNwjEsgVjbIxRKoegzf6ZOAjVhDGhqp6FmYRcdmWKLA6GSXOQjsmc_NmCHmP2soFQ9XTuZ7lLbzR9Fl9K-B2XosHlXxlmkrl7CJHCChcvwvdH9fcdXkL2nhL9-IcoWa_y3]--></g></svg>