<?xml version="1.0" encoding="us-ascii" standalone="no"?><svg xmlns="http://www.w3.org/2000/svg" xmlns:xlink="http://www.w3.org/1999/xlink" contentStyleType="text/css" height="814px" preserveAspectRatio="none" style="width:1292px;height:814px;background:#FFFFFF;" version="1.1" viewBox="0 0 1292 814" width="1292px" zoomAndPan="magnify"><defs/><g><text fill="#000000" font-family="sans-serif" font-size="14" font-weight="bold" lengthAdjust="spacing" textLength="363" x="462" y="27.9951">UI Sequence Diagram (SSD) - Alternative One</text><rect fill="#FFFFFF" height="596.5938" style="stroke:#181818;stroke-width:1.0;" width="10" x="82.5" y="128.5938"/><rect fill="#FFFFFF" height="70.4297" style="stroke:#181818;stroke-width:1.0;" width="10" x="350.5" y="149.7266"/><rect fill="#FFFFFF" height="44.2656" style="stroke:#181818;stroke-width:1.0;" width="10" x="350.5" y="249.2891"/><rect fill="#FFFFFF" height="44.2656" style="stroke:#181818;stroke-width:1.0;" width="10" x="350.5" y="322.6875"/><rect fill="#FFFFFF" height="320.1016" style="stroke:#181818;stroke-width:1.0;" width="10" x="350.5" y="396.0859"/><rect fill="#FFFFFF" height="261.8359" style="stroke:#181818;stroke-width:1.0;" width="10" x="630.5" y="425.2188"/><rect fill="#FFFFFF" height="78.2344" style="stroke:#181818;stroke-width:1.0;" width="10" x="635.5" y="506.4531"/><rect fill="#FFFFFF" height="73.2344" style="stroke:#181818;stroke-width:1.0;" width="10" x="1186.5" y="584.6875"/><line style="stroke:#181818;stroke-width:0.5;stroke-dasharray:5.0,5.0;" x1="87" x2="87" y1="118.5938" y2="734.1875"/><line style="stroke:#181818;stroke-width:0.5;stroke-dasharray:5.0,5.0;" x1="355.5" x2="355.5" y1="118.5938" y2="734.1875"/><line style="stroke:#181818;stroke-width:0.5;stroke-dasharray:5.0,5.0;" x1="635" x2="635" y1="188.375" y2="734.1875"/><line style="stroke:#181818;stroke-width:0.5;stroke-dasharray:5.0,5.0;" x1="919" x2="919" y1="118.5938" y2="734.1875"/><line style="stroke:#181818;stroke-width:0.5;stroke-dasharray:5.0,5.0;" x1="1036" x2="1036" y1="118.5938" y2="734.1875"/><line style="stroke:#181818;stroke-width:0.5;stroke-dasharray:5.0,5.0;" x1="1191" x2="1191" y1="118.5938" y2="734.1875"/><text fill="#000000" font-family="sans-serif" font-size="14" lengthAdjust="spacing" textLength="159" x="5" y="115.292">Green Space Manager</text><ellipse cx="87.5" cy="50.7969" fill="#E3E3E3" rx="8" ry="8" style="stroke:#181818;stroke-width:0.5;"/><path d="M87.5,58.7969 L87.5,85.7969 M74.5,66.7969 L100.5,66.7969 M87.5,85.7969 L74.5,100.7969 M87.5,85.7969 L100.5,100.7969 " fill="none" style="stroke:#181818;stroke-width:0.5;"/><text fill="#000000" font-family="sans-serif" font-size="14" lengthAdjust="spacing" textLength="159" x="5" y="746.1826">Green Space Manager</text><ellipse cx="87.5" cy="757.9844" fill="#E3E3E3" rx="8" ry="8" style="stroke:#181818;stroke-width:0.5;"/><path d="M87.5,765.9844 L87.5,792.9844 M74.5,773.9844 L100.5,773.9844 M87.5,792.9844 L74.5,807.9844 M87.5,792.9844 L100.5,807.9844 " fill="none" style="stroke:#181818;stroke-width:0.5;"/><rect fill="#E3E3E3" height="30.2969" rx="2.5" ry="2.5" style="stroke:#181818;stroke-width:0.5;" width="180" x="265.5" y="87.2969"/><text fill="#000000" font-family="sans-serif" font-size="14" lengthAdjust="spacing" textLength="166" x="272.5" y="107.292">:RegisterGreenSpaceUI</text><rect fill="#E3E3E3" height="30.2969" rx="2.5" ry="2.5" style="stroke:#181818;stroke-width:0.5;" width="180" x="265.5" y="733.1875"/><text fill="#000000" font-family="sans-serif" font-size="14" lengthAdjust="spacing" textLength="166" x="272.5" y="753.1826">:RegisterGreenSpaceUI</text><rect fill="#E3E3E3" height="30.2969" rx="2.5" ry="2.5" style="stroke:#181818;stroke-width:0.5;" width="237" x="517" y="733.1875"/><text fill="#000000" font-family="sans-serif" font-size="14" lengthAdjust="spacing" textLength="223" x="524" y="753.1826">:RegisterGreenSpaceController</text><rect fill="#E3E3E3" height="30.2969" rx="2.5" ry="2.5" style="stroke:#181818;stroke-width:0.5;" width="107" x="866" y="87.2969"/><text fill="#000000" font-family="sans-serif" font-size="14" lengthAdjust="spacing" textLength="93" x="873" y="107.292">:Repositories</text><rect fill="#E3E3E3" height="30.2969" rx="2.5" ry="2.5" style="stroke:#181818;stroke-width:0.5;" width="107" x="866" y="733.1875"/><text fill="#000000" font-family="sans-serif" font-size="14" lengthAdjust="spacing" textLength="93" x="873" y="753.1826">:Repositories</text><rect fill="#E3E3E3" height="46.5938" rx="2.5" ry="2.5" style="stroke:#181818;stroke-width:0.5;" width="107" x="983" y="71"/><text fill="#000000" font-family="sans-serif" font-size="14" lengthAdjust="spacing" textLength="84" x="994.5" y="90.9951">repositories</text><text fill="#000000" font-family="sans-serif" font-size="14" lengthAdjust="spacing" textLength="93" x="990" y="107.292">:Repositories</text><rect fill="#E3E3E3" height="46.5938" rx="2.5" ry="2.5" style="stroke:#181818;stroke-width:0.5;" width="107" x="983" y="733.1875"/><text fill="#000000" font-family="sans-serif" font-size="14" lengthAdjust="spacing" textLength="84" x="994.5" y="753.1826">repositories</text><text fill="#000000" font-family="sans-serif" font-size="14" lengthAdjust="spacing" textLength="93" x="990" y="769.4795">:Repositories</text><rect fill="#E3E3E3" height="46.5938" rx="2.5" ry="2.5" style="stroke:#181818;stroke-width:0.5;" width="183" x="1100" y="71"/><text fill="#000000" font-family="sans-serif" font-size="14" lengthAdjust="spacing" textLength="162" x="1110.5" y="90.9951">greenSpaceRepository</text><text fill="#000000" font-family="sans-serif" font-size="14" lengthAdjust="spacing" textLength="169" x="1107" y="107.292">:GreenSpaceRepository</text><rect fill="#E3E3E3" height="46.5938" rx="2.5" ry="2.5" style="stroke:#181818;stroke-width:0.5;" width="183" x="1100" y="733.1875"/><text fill="#000000" font-family="sans-serif" font-size="14" lengthAdjust="spacing" textLength="162" x="1110.5" y="753.1826">greenSpaceRepository</text><text fill="#000000" font-family="sans-serif" font-size="14" lengthAdjust="spacing" textLength="169" x="1107" y="769.4795">:GreenSpaceRepository</text><rect fill="#FFFFFF" height="596.5938" style="stroke:#181818;stroke-width:1.0;" width="10" x="82.5" y="128.5938"/><rect fill="#FFFFFF" height="70.4297" style="stroke:#181818;stroke-width:1.0;" width="10" x="350.5" y="149.7266"/><rect fill="#FFFFFF" height="44.2656" style="stroke:#181818;stroke-width:1.0;" width="10" x="350.5" y="249.2891"/><rect fill="#FFFFFF" height="44.2656" style="stroke:#181818;stroke-width:1.0;" width="10" x="350.5" y="322.6875"/><rect fill="#FFFFFF" height="320.1016" style="stroke:#181818;stroke-width:1.0;" width="10" x="350.5" y="396.0859"/><rect fill="#FFFFFF" height="261.8359" style="stroke:#181818;stroke-width:1.0;" width="10" x="630.5" y="425.2188"/><rect fill="#FFFFFF" height="78.2344" style="stroke:#181818;stroke-width:1.0;" width="10" x="635.5" y="506.4531"/><rect fill="#FFFFFF" height="73.2344" style="stroke:#181818;stroke-width:1.0;" width="10" x="1186.5" y="584.6875"/><polygon fill="#181818" points="338.5,145.7266,348.5,149.7266,338.5,153.7266,342.5,149.7266" style="stroke:#181818;stroke-width:1.0;"/><line style="stroke:#181818;stroke-width:1.0;" x1="92.5" x2="344.5" y1="149.7266" y2="149.7266"/><text fill="#000000" font-family="sans-serif" font-size="13" font-weight="bold" lengthAdjust="spacing" textLength="9" x="99.5" y="144.6606">1</text><text fill="#000000" font-family="sans-serif" font-size="13" lengthAdjust="spacing" textLength="189" x="112.5" y="144.6606">ask to register a green space</text><polygon fill="#181818" points="505,174.8594,515,178.8594,505,182.8594,509,178.8594" style="stroke:#181818;stroke-width:1.0;"/><line style="stroke:#181818;stroke-width:1.0;" x1="360.5" x2="511" y1="178.8594" y2="178.8594"/><text fill="#000000" font-family="sans-serif" font-size="13" font-weight="bold" lengthAdjust="spacing" textLength="9" x="367.5" y="173.7935">2</text><text fill="#000000" font-family="sans-serif" font-size="13" lengthAdjust="spacing" textLength="41" x="380.5" y="173.7935">create</text><rect fill="#E3E3E3" height="30.2969" rx="2.5" ry="2.5" style="stroke:#181818;stroke-width:0.5;" width="237" x="517" y="157.7266"/><text fill="#000000" font-family="sans-serif" font-size="14" lengthAdjust="spacing" textLength="223" x="524" y="177.7217">:RegisterGreenSpaceController</text><polygon fill="#181818" points="103.5,216.1563,93.5,220.1563,103.5,224.1563,99.5,220.1563" style="stroke:#181818;stroke-width:1.0;"/><line style="stroke:#181818;stroke-width:1.0;stroke-dasharray:2.0,2.0;" x1="97.5" x2="354.5" y1="220.1563" y2="220.1563"/><text fill="#000000" font-family="sans-serif" font-size="13" font-weight="bold" lengthAdjust="spacing" textLength="9" x="109.5" y="215.0903">3</text><text fill="#000000" font-family="sans-serif" font-size="13" lengthAdjust="spacing" textLength="221" x="122.5" y="215.0903">request data (name,area,address)</text><polygon fill="#181818" points="338.5,245.2891,348.5,249.2891,338.5,253.2891,342.5,249.2891" style="stroke:#181818;stroke-width:1.0;"/><line style="stroke:#181818;stroke-width:1.0;" x1="92.5" x2="344.5" y1="249.2891" y2="249.2891"/><text fill="#000000" font-family="sans-serif" font-size="13" font-weight="bold" lengthAdjust="spacing" textLength="9" x="99.5" y="244.2231">4</text><text fill="#000000" font-family="sans-serif" font-size="13" lengthAdjust="spacing" textLength="138" x="112.5" y="244.2231">types requested data</text><polygon fill="#181818" points="103.5,289.5547,93.5,293.5547,103.5,297.5547,99.5,293.5547" style="stroke:#181818;stroke-width:1.0;"/><line style="stroke:#181818;stroke-width:1.0;stroke-dasharray:2.0,2.0;" x1="97.5" x2="354.5" y1="293.5547" y2="293.5547"/><text fill="#000000" font-family="sans-serif" font-size="13" font-weight="bold" lengthAdjust="spacing" textLength="9" x="109.5" y="280.9224">5</text><text fill="#000000" font-family="sans-serif" font-size="13" lengthAdjust="spacing" textLength="164" x="122.5" y="273.356">shows list of sizes option</text><text fill="#000000" font-family="sans-serif" font-size="13" lengthAdjust="spacing" textLength="152" x="126.5" y="288.4888">and request a selection</text><polygon fill="#181818" points="338.5,318.6875,348.5,322.6875,338.5,326.6875,342.5,322.6875" style="stroke:#181818;stroke-width:1.0;"/><line style="stroke:#181818;stroke-width:1.0;" x1="92.5" x2="344.5" y1="322.6875" y2="322.6875"/><text fill="#000000" font-family="sans-serif" font-size="13" font-weight="bold" lengthAdjust="spacing" textLength="9" x="99.5" y="317.6216">6</text><text fill="#000000" font-family="sans-serif" font-size="13" lengthAdjust="spacing" textLength="104" x="112.5" y="317.6216">select an option</text><polygon fill="#181818" points="103.5,362.9531,93.5,366.9531,103.5,370.9531,99.5,366.9531" style="stroke:#181818;stroke-width:1.0;"/><line style="stroke:#181818;stroke-width:1.0;stroke-dasharray:2.0,2.0;" x1="97.5" x2="354.5" y1="366.9531" y2="366.9531"/><text fill="#000000" font-family="sans-serif" font-size="13" font-weight="bold" lengthAdjust="spacing" textLength="9" x="109.5" y="354.3208">7</text><text fill="#000000" font-family="sans-serif" font-size="13" lengthAdjust="spacing" textLength="157" x="122.5" y="346.7544">show all data registered</text><text fill="#000000" font-family="sans-serif" font-size="13" lengthAdjust="spacing" textLength="177" x="126.5" y="361.8872">and the confirmation menu</text><polygon fill="#181818" points="338.5,392.0859,348.5,396.0859,338.5,400.0859,342.5,396.0859" style="stroke:#181818;stroke-width:1.0;"/><line style="stroke:#181818;stroke-width:1.0;" x1="92.5" x2="344.5" y1="396.0859" y2="396.0859"/><text fill="#000000" font-family="sans-serif" font-size="13" font-weight="bold" lengthAdjust="spacing" textLength="9" x="99.5" y="391.02">8</text><text fill="#000000" font-family="sans-serif" font-size="13" lengthAdjust="spacing" textLength="85" x="112.5" y="391.02">submits data</text><polygon fill="#181818" points="618.5,421.2188,628.5,425.2188,618.5,429.2188,622.5,425.2188" style="stroke:#181818;stroke-width:1.0;"/><line style="stroke:#181818;stroke-width:1.0;" x1="360.5" x2="624.5" y1="425.2188" y2="425.2188"/><text fill="#000000" font-family="sans-serif" font-size="13" font-weight="bold" lengthAdjust="spacing" textLength="9" x="367.5" y="420.1528">9</text><text fill="#000000" font-family="sans-serif" font-size="13" lengthAdjust="spacing" textLength="238" x="380.5" y="420.1528">registerGreenSpace(name,size,area)</text><rect fill="none" height="39.1016" style="stroke:#000000;stroke-width:1.5;" width="243" x="514" y="433.2188"/><path d="M514,433.2188 L580,433.2188 L580,440.2188 L570,450.2188 L514,450.2188 L514,433.2188 " fill="#EEEEEE" style="stroke:#000000;stroke-width:2.0;"/><text fill="#000000" font-family="sans-serif" font-size="13" font-weight="bold" lengthAdjust="spacing" textLength="21" x="527" y="447.2856">ref</text><text fill="#000000" font-family="sans-serif" font-size="12" lengthAdjust="spacing" textLength="165" x="553" y="465.3574">Get GreenSpace Repository</text><line style="stroke:#181818;stroke-width:1.0;" x1="640.5" x2="687.5" y1="493.4531" y2="493.4531"/><line style="stroke:#181818;stroke-width:1.0;" x1="687.5" x2="687.5" y1="493.4531" y2="506.4531"/><line style="stroke:#181818;stroke-width:1.0;" x1="646.5" x2="687.5" y1="506.4531" y2="506.4531"/><polygon fill="#181818" points="656.5,502.4531,646.5,506.4531,656.5,510.4531,652.5,506.4531" style="stroke:#181818;stroke-width:1.0;"/><text fill="#000000" font-family="sans-serif" font-size="13" font-weight="bold" lengthAdjust="spacing" textLength="18" x="652.5" y="488.3872">10</text><text fill="#000000" font-family="sans-serif" font-size="13" lengthAdjust="spacing" textLength="238" x="674.5" y="488.3872">registerGreenSpace(name,size,area)</text><rect fill="none" height="39.1016" style="stroke:#000000;stroke-width:1.5;" width="243" x="514" y="519.4531"/><path d="M514,519.4531 L580,519.4531 L580,526.4531 L570,536.4531 L514,536.4531 L514,519.4531 " fill="#EEEEEE" style="stroke:#000000;stroke-width:2.0;"/><text fill="#000000" font-family="sans-serif" font-size="13" font-weight="bold" lengthAdjust="spacing" textLength="21" x="527" y="533.52">ref</text><text fill="#000000" font-family="sans-serif" font-size="12" lengthAdjust="spacing" textLength="89" x="591" y="551.5918">Get User Email</text><polygon fill="#181818" points="1174.5,580.6875,1184.5,584.6875,1174.5,588.6875,1178.5,584.6875" style="stroke:#181818;stroke-width:1.0;"/><line style="stroke:#181818;stroke-width:1.0;" x1="640.5" x2="1180.5" y1="584.6875" y2="584.6875"/><text fill="#000000" font-family="sans-serif" font-size="13" font-weight="bold" lengthAdjust="spacing" textLength="18" x="647.5" y="579.6216">11</text><text fill="#000000" font-family="sans-serif" font-size="13" lengthAdjust="spacing" textLength="238" x="669.5" y="579.6216">registerGreenSpace(name,size,area)</text><rect fill="none" height="39.1016" style="stroke:#000000;stroke-width:1.5;" width="189" x="1097" y="592.6875"/><path d="M1097,592.6875 L1163,592.6875 L1163,599.6875 L1153,609.6875 L1097,609.6875 L1097,592.6875 " fill="#EEEEEE" style="stroke:#000000;stroke-width:2.0;"/><text fill="#000000" font-family="sans-serif" font-size="13" font-weight="bold" lengthAdjust="spacing" textLength="21" x="1110" y="606.7544">ref</text><text fill="#000000" font-family="sans-serif" font-size="12" lengthAdjust="spacing" textLength="130" x="1126.5" y="624.8262">Register Green Space</text><polygon fill="#181818" points="651.5,653.9219,641.5,657.9219,651.5,661.9219,647.5,657.9219" style="stroke:#181818;stroke-width:1.0;"/><line style="stroke:#181818;stroke-width:1.0;stroke-dasharray:2.0,2.0;" x1="645.5" x2="1190.5" y1="657.9219" y2="657.9219"/><text fill="#000000" font-family="sans-serif" font-size="13" font-weight="bold" lengthAdjust="spacing" textLength="18" x="657.5" y="652.856">12</text><text fill="#000000" font-family="sans-serif" font-size="13" lengthAdjust="spacing" textLength="76" x="679.5" y="652.856">greenSpace</text><polygon fill="#181818" points="371.5,683.0547,361.5,687.0547,371.5,691.0547,367.5,687.0547" style="stroke:#181818;stroke-width:1.0;"/><line style="stroke:#181818;stroke-width:1.0;stroke-dasharray:2.0,2.0;" x1="365.5" x2="634.5" y1="687.0547" y2="687.0547"/><text fill="#000000" font-family="sans-serif" font-size="13" font-weight="bold" lengthAdjust="spacing" textLength="18" x="377.5" y="681.9888">13</text><text fill="#000000" font-family="sans-serif" font-size="13" lengthAdjust="spacing" textLength="76" x="399.5" y="681.9888">greenSpace</text><polygon fill="#181818" points="103.5,712.1875,93.5,716.1875,103.5,720.1875,99.5,716.1875" style="stroke:#181818;stroke-width:1.0;"/><line style="stroke:#181818;stroke-width:1.0;stroke-dasharray:2.0,2.0;" x1="97.5" x2="354.5" y1="716.1875" y2="716.1875"/><text fill="#000000" font-family="sans-serif" font-size="13" font-weight="bold" lengthAdjust="spacing" textLength="18" x="109.5" y="711.1216">14</text><text fill="#000000" font-family="sans-serif" font-size="13" lengthAdjust="spacing" textLength="184" x="131.5" y="711.1216">shows operation (in)success</text><!--SRC=[bLJBRkCm3BpxAuYSagBvWHmMADeY2D155tLpwuMr6KU8BBcId2BxzKjByQkMqQrE2SaPZeUKx4ce2WsMK6gbiwFH9O4pDIMsorIOdR2Wr5qaWQ7CeIhaiC0UCTUVGXLmG6afIPnmNBhVGKeVDQcCu45WqPGkq_HX1MkuauwCGYVE1C-A8LWxhUhodGp_pfmsiDWQ8WKfjoVuZOebc0MWXSUoalf2b71t9p9HeNAmsBnG8IopUfX7xNU-Vh_xjl9UAsUqbDSEzwylJnDCfQrWNOAih-a2brGqVh3yCSGC46zgIl3dwUvrZ2WwFJqv8xUHi6U8rIVUFd56HxrH2V1f_y7wLpEQ3JESm6cUQ703C122RHWzf6DY2ts0SOnkxBcvOORC46T3garplkkqON9U0EiWHuUmL5ZIBJBe5lFSaBKh3yrfqcWYrbqgiYqTvPumYOkSLsEF-jE2vCy5VG0h_ZAbhfpGwaq1ghoJYs19ygPpfgECg8mg3KYckrBpHBhYA4DS9w2KmRPsG9HVLReZGQRLGPWIcmvGagh_sqbRlvV2sU3WDrFs4_nwMS8O6_VyB5TZ4dztVCZG0VIP5yk7ciYM7FGyWolai-G7S0XWt_t7AcQKj6UgQ7WQTNlBsSSIXHobHzBQqqgCNSEVIHwChHVTXMQk-UY3eZLDHVlMmU0r7RiTcA8ViUu7qEU_Bjfiw-1FktRp1ECvpTrQNP49sxuKQcNhBEFt8xBq_m00]--></g></svg>