<?xml version="1.0" encoding="us-ascii" standalone="no"?><svg xmlns="http://www.w3.org/2000/svg" xmlns:xlink="http://www.w3.org/1999/xlink" contentStyleType="text/css" height="543px" preserveAspectRatio="none" style="width:894px;height:543px;background:#FFFFFF;" version="1.1" viewBox="0 0 894 543" width="894px" zoomAndPan="magnify"><defs/><g><rect fill="#FFFFFF" height="420.7266" style="stroke:#181818;stroke-width:1.0;" width="10" x="133.5" y="62.5938"/><rect fill="#FFFFFF" height="361.4609" style="stroke:#181818;stroke-width:1.0;" width="10" x="138.5" y="91.7266"/><rect fill="#FFFFFF" height="297.3281" style="stroke:#181818;stroke-width:1.0;" width="10" x="143.5" y="133.8594"/><rect fill="#FFFFFF" height="29.1328" style="stroke:#181818;stroke-width:1.0;" width="10" x="431.5" y="192.125"/><rect fill="#FFFFFF" height="29.1328" style="stroke:#181818;stroke-width:1.0;" width="10" x="594.5" y="250.3906"/><rect fill="#FFFFFF" height="29.1328" style="stroke:#181818;stroke-width:1.0;" width="10" x="754" y="308.6563"/><rect fill="#FFFFFF" height="29.1328" style="stroke:#181818;stroke-width:1.0;" width="10" x="841" y="366.9219"/><rect fill="none" height="292.3281" style="stroke:#000000;stroke-width:1.5;" width="873" x="10" y="153.8594"/><line style="stroke:#181818;stroke-width:0.5;stroke-dasharray:5.0,5.0;" x1="138" x2="138" y1="52.5938" y2="492.3203"/><line style="stroke:#181818;stroke-width:0.5;stroke-dasharray:5.0,5.0;" x1="436" x2="436" y1="52.5938" y2="492.3203"/><line style="stroke:#181818;stroke-width:0.5;stroke-dasharray:5.0,5.0;" x1="599" x2="599" y1="52.5938" y2="492.3203"/><line style="stroke:#181818;stroke-width:0.5;stroke-dasharray:5.0,5.0;" x1="759" x2="759" y1="52.5938" y2="492.3203"/><line style="stroke:#181818;stroke-width:0.5;stroke-dasharray:5.0,5.0;" x1="846" x2="846" y1="52.5938" y2="492.3203"/><rect fill="#E3E3E3" height="30.2969" rx="2.5" ry="2.5" style="stroke:#181818;stroke-width:0.5;" width="237" x="20" y="21.2969"/><text fill="#000000" font-family="sans-serif" font-size="14" lengthAdjust="spacing" textLength="223" x="27" y="41.292">:RegisterGreenSpaceController</text><rect fill="#E3E3E3" height="30.2969" rx="2.5" ry="2.5" style="stroke:#181818;stroke-width:0.5;" width="237" x="20" y="491.3203"/><text fill="#000000" font-family="sans-serif" font-size="14" lengthAdjust="spacing" textLength="223" x="27" y="511.3154">:RegisterGreenSpaceController</text><rect fill="#E3E3E3" height="46.5938" rx="2.5" ry="2.5" style="stroke:#181818;stroke-width:0.5;" width="107" x="383" y="5"/><text fill="#000000" font-family="sans-serif" font-size="14" lengthAdjust="spacing" textLength="84" x="394.5" y="24.9951">repositories</text><text fill="#000000" font-family="sans-serif" font-size="14" lengthAdjust="spacing" textLength="93" x="390" y="41.292">:Repositories</text><rect fill="#E3E3E3" height="46.5938" rx="2.5" ry="2.5" style="stroke:#181818;stroke-width:0.5;" width="107" x="383" y="491.3203"/><text fill="#000000" font-family="sans-serif" font-size="14" lengthAdjust="spacing" textLength="84" x="394.5" y="511.3154">repositories</text><text fill="#000000" font-family="sans-serif" font-size="14" lengthAdjust="spacing" textLength="93" x="390" y="527.6123">:Repositories</text><rect fill="#E3E3E3" height="46.5938" rx="2.5" ry="2.5" style="stroke:#181818;stroke-width:0.5;" width="199" x="500" y="5"/><text fill="#000000" font-family="sans-serif" font-size="14" lengthAdjust="spacing" textLength="179" x="510" y="24.9951">authenticationRepository</text><text fill="#000000" font-family="sans-serif" font-size="14" lengthAdjust="spacing" textLength="185" x="507" y="41.292">:AuthenticationRepository</text><rect fill="#E3E3E3" height="46.5938" rx="2.5" ry="2.5" style="stroke:#181818;stroke-width:0.5;" width="199" x="500" y="491.3203"/><text fill="#000000" font-family="sans-serif" font-size="14" lengthAdjust="spacing" textLength="179" x="510" y="511.3154">authenticationRepository</text><text fill="#000000" font-family="sans-serif" font-size="14" lengthAdjust="spacing" textLength="185" x="507" y="527.6123">:AuthenticationRepository</text><rect fill="#E3E3E3" height="30.2969" rx="2.5" ry="2.5" style="stroke:#181818;stroke-width:0.5;" width="100" x="709" y="21.2969"/><text fill="#000000" font-family="sans-serif" font-size="14" lengthAdjust="spacing" textLength="86" x="716" y="41.292">UserSession</text><rect fill="#E3E3E3" height="30.2969" rx="2.5" ry="2.5" style="stroke:#181818;stroke-width:0.5;" width="100" x="709" y="491.3203"/><text fill="#000000" font-family="sans-serif" font-size="14" lengthAdjust="spacing" textLength="86" x="716" y="511.3154">UserSession</text><rect fill="#E3E3E3" height="30.2969" rx="2.5" ry="2.5" style="stroke:#181818;stroke-width:0.5;" width="54" x="819" y="21.2969"/><text fill="#000000" font-family="sans-serif" font-size="14" lengthAdjust="spacing" textLength="40" x="826" y="41.292">Email</text><rect fill="#E3E3E3" height="30.2969" rx="2.5" ry="2.5" style="stroke:#181818;stroke-width:0.5;" width="54" x="819" y="491.3203"/><text fill="#000000" font-family="sans-serif" font-size="14" lengthAdjust="spacing" textLength="40" x="826" y="511.3154">Email</text><rect fill="#FFFFFF" height="420.7266" style="stroke:#181818;stroke-width:1.0;" width="10" x="133.5" y="62.5938"/><rect fill="#FFFFFF" height="361.4609" style="stroke:#181818;stroke-width:1.0;" width="10" x="138.5" y="91.7266"/><rect fill="#FFFFFF" height="297.3281" style="stroke:#181818;stroke-width:1.0;" width="10" x="143.5" y="133.8594"/><rect fill="#FFFFFF" height="29.1328" style="stroke:#181818;stroke-width:1.0;" width="10" x="431.5" y="192.125"/><rect fill="#FFFFFF" height="29.1328" style="stroke:#181818;stroke-width:1.0;" width="10" x="594.5" y="250.3906"/><rect fill="#FFFFFF" height="29.1328" style="stroke:#181818;stroke-width:1.0;" width="10" x="754" y="308.6563"/><rect fill="#FFFFFF" height="29.1328" style="stroke:#181818;stroke-width:1.0;" width="10" x="841" y="366.9219"/><line style="stroke:#181818;stroke-width:1.0;" x1="143.5" x2="190.5" y1="78.7266" y2="78.7266"/><line style="stroke:#181818;stroke-width:1.0;" x1="190.5" x2="190.5" y1="78.7266" y2="91.7266"/><line style="stroke:#181818;stroke-width:1.0;" x1="149.5" x2="190.5" y1="91.7266" y2="91.7266"/><polygon fill="#181818" points="159.5,87.7266,149.5,91.7266,159.5,95.7266,155.5,91.7266" style="stroke:#181818;stroke-width:1.0;"/><text fill="#000000" font-family="sans-serif" font-size="13" font-weight="bold" lengthAdjust="spacing" textLength="32" x="155.5" y="73.6606">16.1</text><text fill="#000000" font-family="sans-serif" font-size="13" lengthAdjust="spacing" textLength="238" x="191.5" y="73.6606">registerGreenSpace(name,size,area)</text><line style="stroke:#181818;stroke-width:1.0;" x1="148.5" x2="195.5" y1="120.8594" y2="120.8594"/><line style="stroke:#181818;stroke-width:1.0;" x1="195.5" x2="195.5" y1="120.8594" y2="133.8594"/><line style="stroke:#181818;stroke-width:1.0;" x1="154.5" x2="195.5" y1="133.8594" y2="133.8594"/><polygon fill="#181818" points="164.5,129.8594,154.5,133.8594,164.5,137.8594,160.5,133.8594" style="stroke:#181818;stroke-width:1.0;"/><text fill="#000000" font-family="sans-serif" font-size="13" font-weight="bold" lengthAdjust="spacing" textLength="32" x="160.5" y="115.7935">16.2</text><text fill="#000000" font-family="sans-serif" font-size="13" lengthAdjust="spacing" textLength="110" x="196.5" y="115.7935">getResponsible()</text><path d="M10,153.8594 L174,153.8594 L174,160.9922 L164,170.9922 L10,170.9922 L10,153.8594 " fill="#EEEEEE" style="stroke:#000000;stroke-width:1.5;"/><rect fill="none" height="292.3281" style="stroke:#000000;stroke-width:1.5;" width="873" x="10" y="153.8594"/><text fill="#000000" font-family="sans-serif" font-size="13" font-weight="bold" lengthAdjust="spacing" textLength="119" x="25" y="166.9263">Get Responsible</text><polygon fill="#181818" points="419.5,188.125,429.5,192.125,419.5,196.125,423.5,192.125" style="stroke:#181818;stroke-width:1.0;"/><line style="stroke:#181818;stroke-width:1.0;" x1="153.5" x2="425.5" y1="192.125" y2="192.125"/><text fill="#000000" font-family="sans-serif" font-size="13" font-weight="bold" lengthAdjust="spacing" textLength="32" x="160.5" y="187.0591">16.3</text><text fill="#000000" font-family="sans-serif" font-size="13" lengthAdjust="spacing" textLength="196" x="196.5" y="187.0591">getAuthenticationRepository()</text><polygon fill="#181818" points="164.5,217.2578,154.5,221.2578,164.5,225.2578,160.5,221.2578" style="stroke:#181818;stroke-width:1.0;"/><line style="stroke:#181818;stroke-width:1.0;stroke-dasharray:2.0,2.0;" x1="158.5" x2="435.5" y1="221.2578" y2="221.2578"/><text fill="#000000" font-family="sans-serif" font-size="13" font-weight="bold" lengthAdjust="spacing" textLength="32" x="170.5" y="216.1919">16.4</text><text fill="#000000" font-family="sans-serif" font-size="13" lengthAdjust="spacing" textLength="164" x="206.5" y="216.1919">authenticationRepository</text><polygon fill="#181818" points="582.5,246.3906,592.5,250.3906,582.5,254.3906,586.5,250.3906" style="stroke:#181818;stroke-width:1.0;"/><line style="stroke:#181818;stroke-width:1.0;" x1="153.5" x2="588.5" y1="250.3906" y2="250.3906"/><text fill="#000000" font-family="sans-serif" font-size="13" font-weight="bold" lengthAdjust="spacing" textLength="32" x="160.5" y="245.3247">16.5</text><text fill="#000000" font-family="sans-serif" font-size="13" lengthAdjust="spacing" textLength="159" x="196.5" y="245.3247">getCurrentUserSession()</text><polygon fill="#181818" points="164.5,275.5234,154.5,279.5234,164.5,283.5234,160.5,279.5234" style="stroke:#181818;stroke-width:1.0;"/><line style="stroke:#181818;stroke-width:1.0;stroke-dasharray:2.0,2.0;" x1="158.5" x2="598.5" y1="279.5234" y2="279.5234"/><text fill="#000000" font-family="sans-serif" font-size="13" font-weight="bold" lengthAdjust="spacing" textLength="32" x="170.5" y="274.4575">16.6</text><text fill="#000000" font-family="sans-serif" font-size="13" lengthAdjust="spacing" textLength="126" x="206.5" y="274.4575">currentUserSession</text><polygon fill="#181818" points="742,304.6563,752,308.6563,742,312.6563,746,308.6563" style="stroke:#181818;stroke-width:1.0;"/><line style="stroke:#181818;stroke-width:1.0;" x1="153.5" x2="748" y1="308.6563" y2="308.6563"/><text fill="#000000" font-family="sans-serif" font-size="13" font-weight="bold" lengthAdjust="spacing" textLength="32" x="160.5" y="303.5903">16.7</text><text fill="#000000" font-family="sans-serif" font-size="13" lengthAdjust="spacing" textLength="73" x="196.5" y="303.5903">getUserId()</text><polygon fill="#181818" points="164.5,333.7891,154.5,337.7891,164.5,341.7891,160.5,337.7891" style="stroke:#181818;stroke-width:1.0;"/><line style="stroke:#181818;stroke-width:1.0;stroke-dasharray:2.0,2.0;" x1="158.5" x2="758" y1="337.7891" y2="337.7891"/><text fill="#000000" font-family="sans-serif" font-size="13" font-weight="bold" lengthAdjust="spacing" textLength="32" x="170.5" y="332.7231">16.8</text><text fill="#000000" font-family="sans-serif" font-size="13" lengthAdjust="spacing" textLength="78" x="206.5" y="332.7231">userSession</text><polygon fill="#181818" points="829,362.9219,839,366.9219,829,370.9219,833,366.9219" style="stroke:#181818;stroke-width:1.0;"/><line style="stroke:#181818;stroke-width:1.0;" x1="153.5" x2="835" y1="366.9219" y2="366.9219"/><text fill="#000000" font-family="sans-serif" font-size="13" font-weight="bold" lengthAdjust="spacing" textLength="32" x="160.5" y="361.856">16.9</text><text fill="#000000" font-family="sans-serif" font-size="13" lengthAdjust="spacing" textLength="68" x="196.5" y="361.856">getEmail()</text><polygon fill="#181818" points="164.5,392.0547,154.5,396.0547,164.5,400.0547,160.5,396.0547" style="stroke:#181818;stroke-width:1.0;"/><line style="stroke:#181818;stroke-width:1.0;stroke-dasharray:2.0,2.0;" x1="158.5" x2="845" y1="396.0547" y2="396.0547"/><text fill="#000000" font-family="sans-serif" font-size="13" font-weight="bold" lengthAdjust="spacing" textLength="41" x="170.5" y="390.9888">16.10</text><text fill="#000000" font-family="sans-serif" font-size="13" lengthAdjust="spacing" textLength="37" x="215.5" y="390.9888">email</text><line style="stroke:#181818;stroke-width:1.0;stroke-dasharray:2.0,2.0;" x1="153.5" x2="195.5" y1="430.1875" y2="430.1875"/><line style="stroke:#181818;stroke-width:1.0;stroke-dasharray:2.0,2.0;" x1="195.5" x2="195.5" y1="430.1875" y2="443.1875"/><line style="stroke:#181818;stroke-width:1.0;stroke-dasharray:2.0,2.0;" x1="148.5" x2="195.5" y1="443.1875" y2="443.1875"/><polygon fill="#181818" points="158.5,439.1875,148.5,443.1875,158.5,447.1875,154.5,443.1875" style="stroke:#181818;stroke-width:1.0;"/><text fill="#000000" font-family="sans-serif" font-size="13" font-weight="bold" lengthAdjust="spacing" textLength="41" x="160.5" y="425.1216">16.11</text><text fill="#000000" font-family="sans-serif" font-size="13" lengthAdjust="spacing" textLength="37" x="205.5" y="425.1216">email</text><polygon fill="#181818" points="881,470.3203,891,474.3203,881,478.3203,885,474.3203" style="stroke:#181818;stroke-width:1.0;"/><line style="stroke:#181818;stroke-width:1.0;" x1="143.5" x2="887" y1="474.3203" y2="474.3203"/><text fill="#000000" font-family="sans-serif" font-size="13" font-weight="bold" lengthAdjust="spacing" textLength="18" x="150.5" y="469.2544">17</text><text fill="#000000" font-family="sans-serif" font-size="13" lengthAdjust="spacing" textLength="279" x="172.5" y="469.2544">registerGreenSpace(name,size,area,email)</text><!--SRC=[bLInRi8m5Dpz5KzCH89ABAt4K0aXX2enL42tBe_aDLWaTcGxhUZNruaLSDAQ6Y-9xNVtxiw9zOcB2XMMK4eXqwEI9O5HDJ5zsQamFM5EEtCk21Ib1aLU-0NwY9dyuYA73omqCMQN3KzvXSB0QBwbd6j3Qgs8nCwoqL8AesHHa1e1QbZkjvi-Hb4bDJTISTBlmZ9SfotYTRFOzn5OcoC9EqV3fRW0pXQz26orJ24SOtP7Yheya8BPus3wC6EO6lw9Xfnw1cuq4vW-k-VSfZMqFXPOqaJpRvgW8amwO3FwbD0R0-ASp9Pq9ONcXuB6oQ0wI9WhMLUm9WCUdFsDzhesUODh6qepfC6NqHvRiAnjChrw31vDY22Zo4wThL07vtHPAsLttpIf7MbjAs8yXZyek362IhmyqbzwOfAuNq-NZjV81T8il6Gn8VWQR_hsUtXMw_iyHhNhRArAv8KprBwE4u3_7RMbjxquOiy5jPW8_QjWeHCTG-dHNVvs4bd_udfYmpBcHnDpOqrQ2GbZFm00]--></g></svg>