<?xml version="1.0" encoding="us-ascii" standalone="no"?><svg xmlns="http://www.w3.org/2000/svg" xmlns:xlink="http://www.w3.org/1999/xlink" contentStyleType="text/css" height="595px" preserveAspectRatio="none" style="width:748px;height:595px;background:#FFFFFF;" version="1.1" viewBox="0 0 748 595" width="748px" zoomAndPan="magnify"><defs/><g><rect fill="#FFFFFF" height="472.7266" style="stroke:#181818;stroke-width:1.0;" width="10" x="133.5" y="62.5938"/><rect fill="#FFFFFF" height="434.5938" style="stroke:#181818;stroke-width:1.0;" width="10" x="138.5" y="91.7266"/><rect fill="#FFFFFF" height="349.3281" style="stroke:#181818;stroke-width:1.0;" width="10" x="143.5" y="133.8594"/><rect fill="#FFFFFF" height="29.1328" style="stroke:#181818;stroke-width:1.0;" width="10" x="431.5" y="192.125"/><rect fill="#FFFFFF" height="197.6641" style="stroke:#181818;stroke-width:1.0;" width="10" x="594.5" y="250.3906"/><rect fill="#FFFFFF" height="124.3984" style="stroke:#181818;stroke-width:1.0;" width="10" x="599.5" y="287.5234"/><rect fill="#FFFFFF" height="40.1328" style="stroke:#181818;stroke-width:1.0;" width="10" x="604.5" y="329.6563"/><rect fill="none" height="344.3281" style="stroke:#000000;stroke-width:1.5;" width="727.5" x="10" y="153.8594"/><line style="stroke:#181818;stroke-width:0.5;stroke-dasharray:5.0,5.0;" x1="138" x2="138" y1="52.5938" y2="544.3203"/><line style="stroke:#181818;stroke-width:0.5;stroke-dasharray:5.0,5.0;" x1="436" x2="436" y1="52.5938" y2="544.3203"/><line style="stroke:#181818;stroke-width:0.5;stroke-dasharray:5.0,5.0;" x1="599" x2="599" y1="52.5938" y2="544.3203"/><rect fill="#E3E3E3" height="30.2969" rx="2.5" ry="2.5" style="stroke:#181818;stroke-width:0.5;" width="237" x="20" y="21.2969"/><text fill="#000000" font-family="sans-serif" font-size="14" lengthAdjust="spacing" textLength="223" x="27" y="41.292">:RegisterGreenSpaceController</text><rect fill="#E3E3E3" height="30.2969" rx="2.5" ry="2.5" style="stroke:#181818;stroke-width:0.5;" width="237" x="20" y="543.3203"/><text fill="#000000" font-family="sans-serif" font-size="14" lengthAdjust="spacing" textLength="223" x="27" y="563.3154">:RegisterGreenSpaceController</text><rect fill="#E3E3E3" height="46.5938" rx="2.5" ry="2.5" style="stroke:#181818;stroke-width:0.5;" width="107" x="383" y="5"/><text fill="#000000" font-family="sans-serif" font-size="14" lengthAdjust="spacing" textLength="84" x="394.5" y="24.9951">repositories</text><text fill="#000000" font-family="sans-serif" font-size="14" lengthAdjust="spacing" textLength="93" x="390" y="41.292">:Repositories</text><rect fill="#E3E3E3" height="46.5938" rx="2.5" ry="2.5" style="stroke:#181818;stroke-width:0.5;" width="107" x="383" y="543.3203"/><text fill="#000000" font-family="sans-serif" font-size="14" lengthAdjust="spacing" textLength="84" x="394.5" y="563.3154">repositories</text><text fill="#000000" font-family="sans-serif" font-size="14" lengthAdjust="spacing" textLength="93" x="390" y="579.6123">:Repositories</text><rect fill="#E3E3E3" height="46.5938" rx="2.5" ry="2.5" style="stroke:#181818;stroke-width:0.5;" width="199" x="500" y="5"/><text fill="#000000" font-family="sans-serif" font-size="14" lengthAdjust="spacing" textLength="179" x="510" y="24.9951">authenticationRepository</text><text fill="#000000" font-family="sans-serif" font-size="14" lengthAdjust="spacing" textLength="185" x="507" y="41.292">:AuthenticationRepository</text><rect fill="#E3E3E3" height="46.5938" rx="2.5" ry="2.5" style="stroke:#181818;stroke-width:0.5;" width="199" x="500" y="543.3203"/><text fill="#000000" font-family="sans-serif" font-size="14" lengthAdjust="spacing" textLength="179" x="510" y="563.3154">authenticationRepository</text><text fill="#000000" font-family="sans-serif" font-size="14" lengthAdjust="spacing" textLength="185" x="507" y="579.6123">:AuthenticationRepository</text><rect fill="#FFFFFF" height="472.7266" style="stroke:#181818;stroke-width:1.0;" width="10" x="133.5" y="62.5938"/><rect fill="#FFFFFF" height="434.5938" style="stroke:#181818;stroke-width:1.0;" width="10" x="138.5" y="91.7266"/><rect fill="#FFFFFF" height="349.3281" style="stroke:#181818;stroke-width:1.0;" width="10" x="143.5" y="133.8594"/><rect fill="#FFFFFF" height="29.1328" style="stroke:#181818;stroke-width:1.0;" width="10" x="431.5" y="192.125"/><rect fill="#FFFFFF" height="197.6641" style="stroke:#181818;stroke-width:1.0;" width="10" x="594.5" y="250.3906"/><rect fill="#FFFFFF" height="124.3984" style="stroke:#181818;stroke-width:1.0;" width="10" x="599.5" y="287.5234"/><rect fill="#FFFFFF" height="40.1328" style="stroke:#181818;stroke-width:1.0;" width="10" x="604.5" y="329.6563"/><line style="stroke:#181818;stroke-width:1.0;" x1="143.5" x2="190.5" y1="78.7266" y2="78.7266"/><line style="stroke:#181818;stroke-width:1.0;" x1="190.5" x2="190.5" y1="78.7266" y2="91.7266"/><line style="stroke:#181818;stroke-width:1.0;" x1="149.5" x2="190.5" y1="91.7266" y2="91.7266"/><polygon fill="#181818" points="159.5,87.7266,149.5,91.7266,159.5,95.7266,155.5,91.7266" style="stroke:#181818;stroke-width:1.0;"/><text fill="#000000" font-family="sans-serif" font-size="13" font-weight="bold" lengthAdjust="spacing" textLength="32" x="155.5" y="73.6606">16.1</text><text fill="#000000" font-family="sans-serif" font-size="13" lengthAdjust="spacing" textLength="238" x="191.5" y="73.6606">registerGreenSpace(name,size,area)</text><line style="stroke:#181818;stroke-width:1.0;" x1="148.5" x2="195.5" y1="120.8594" y2="120.8594"/><line style="stroke:#181818;stroke-width:1.0;" x1="195.5" x2="195.5" y1="120.8594" y2="133.8594"/><line style="stroke:#181818;stroke-width:1.0;" x1="154.5" x2="195.5" y1="133.8594" y2="133.8594"/><polygon fill="#181818" points="164.5,129.8594,154.5,133.8594,164.5,137.8594,160.5,133.8594" style="stroke:#181818;stroke-width:1.0;"/><text fill="#000000" font-family="sans-serif" font-size="13" font-weight="bold" lengthAdjust="spacing" textLength="32" x="160.5" y="115.7935">16.2</text><text fill="#000000" font-family="sans-serif" font-size="13" lengthAdjust="spacing" textLength="110" x="196.5" y="115.7935">getResponsible()</text><path d="M10,153.8594 L174,153.8594 L174,160.9922 L164,170.9922 L10,170.9922 L10,153.8594 " fill="#EEEEEE" style="stroke:#000000;stroke-width:1.5;"/><rect fill="none" height="344.3281" style="stroke:#000000;stroke-width:1.5;" width="727.5" x="10" y="153.8594"/><text fill="#000000" font-family="sans-serif" font-size="13" font-weight="bold" lengthAdjust="spacing" textLength="119" x="25" y="166.9263">Get Responsible</text><polygon fill="#181818" points="419.5,188.125,429.5,192.125,419.5,196.125,423.5,192.125" style="stroke:#181818;stroke-width:1.0;"/><line style="stroke:#181818;stroke-width:1.0;" x1="153.5" x2="425.5" y1="192.125" y2="192.125"/><text fill="#000000" font-family="sans-serif" font-size="13" font-weight="bold" lengthAdjust="spacing" textLength="32" x="160.5" y="187.0591">16.3</text><text fill="#000000" font-family="sans-serif" font-size="13" lengthAdjust="spacing" textLength="196" x="196.5" y="187.0591">getAuthenticationRepository()</text><polygon fill="#181818" points="164.5,217.2578,154.5,221.2578,164.5,225.2578,160.5,221.2578" style="stroke:#181818;stroke-width:1.0;"/><line style="stroke:#181818;stroke-width:1.0;stroke-dasharray:2.0,2.0;" x1="158.5" x2="435.5" y1="221.2578" y2="221.2578"/><text fill="#000000" font-family="sans-serif" font-size="13" font-weight="bold" lengthAdjust="spacing" textLength="32" x="170.5" y="216.1919">16.4</text><text fill="#000000" font-family="sans-serif" font-size="13" lengthAdjust="spacing" textLength="164" x="206.5" y="216.1919">authenticationRepository</text><polygon fill="#181818" points="582.5,246.3906,592.5,250.3906,582.5,254.3906,586.5,250.3906" style="stroke:#181818;stroke-width:1.0;"/><line style="stroke:#181818;stroke-width:1.0;" x1="153.5" x2="588.5" y1="250.3906" y2="250.3906"/><text fill="#000000" font-family="sans-serif" font-size="13" font-weight="bold" lengthAdjust="spacing" textLength="32" x="160.5" y="245.3247">16.5</text><text fill="#000000" font-family="sans-serif" font-size="13" lengthAdjust="spacing" textLength="159" x="196.5" y="245.3247">getCurrentUserSession()</text><line style="stroke:#181818;stroke-width:1.0;" x1="604.5" x2="651.5" y1="274.5234" y2="274.5234"/><line style="stroke:#181818;stroke-width:1.0;" x1="651.5" x2="651.5" y1="274.5234" y2="287.5234"/><line style="stroke:#181818;stroke-width:1.0;" x1="610.5" x2="651.5" y1="287.5234" y2="287.5234"/><polygon fill="#181818" points="620.5,283.5234,610.5,287.5234,620.5,291.5234,616.5,287.5234" style="stroke:#181818;stroke-width:1.0;"/><text fill="#000000" font-family="sans-serif" font-size="13" font-weight="bold" lengthAdjust="spacing" textLength="32" x="616.5" y="269.4575">16.6</text><text fill="#000000" font-family="sans-serif" font-size="13" lengthAdjust="spacing" textLength="73" x="652.5" y="269.4575">getUserId()</text><line style="stroke:#181818;stroke-width:1.0;" x1="609.5" x2="656.5" y1="316.6563" y2="316.6563"/><line style="stroke:#181818;stroke-width:1.0;" x1="656.5" x2="656.5" y1="316.6563" y2="329.6563"/><line style="stroke:#181818;stroke-width:1.0;" x1="615.5" x2="656.5" y1="329.6563" y2="329.6563"/><polygon fill="#181818" points="625.5,325.6563,615.5,329.6563,625.5,333.6563,621.5,329.6563" style="stroke:#181818;stroke-width:1.0;"/><text fill="#000000" font-family="sans-serif" font-size="13" font-weight="bold" lengthAdjust="spacing" textLength="32" x="621.5" y="311.5903">16.7</text><text fill="#000000" font-family="sans-serif" font-size="13" lengthAdjust="spacing" textLength="68" x="657.5" y="311.5903">getEmail()</text><line style="stroke:#181818;stroke-width:1.0;stroke-dasharray:2.0,2.0;" x1="614.5" x2="656.5" y1="368.7891" y2="368.7891"/><line style="stroke:#181818;stroke-width:1.0;stroke-dasharray:2.0,2.0;" x1="656.5" x2="656.5" y1="368.7891" y2="381.7891"/><line style="stroke:#181818;stroke-width:1.0;stroke-dasharray:2.0,2.0;" x1="609.5" x2="656.5" y1="381.7891" y2="381.7891"/><polygon fill="#181818" points="619.5,377.7891,609.5,381.7891,619.5,385.7891,615.5,381.7891" style="stroke:#181818;stroke-width:1.0;"/><text fill="#000000" font-family="sans-serif" font-size="13" font-weight="bold" lengthAdjust="spacing" textLength="32" x="621.5" y="363.7231">16.8</text><text fill="#000000" font-family="sans-serif" font-size="13" lengthAdjust="spacing" textLength="4" x="657.5" y="363.7231">&#160;</text><line style="stroke:#181818;stroke-width:1.0;stroke-dasharray:2.0,2.0;" x1="609.5" x2="651.5" y1="410.9219" y2="410.9219"/><line style="stroke:#181818;stroke-width:1.0;stroke-dasharray:2.0,2.0;" x1="651.5" x2="651.5" y1="410.9219" y2="423.9219"/><line style="stroke:#181818;stroke-width:1.0;stroke-dasharray:2.0,2.0;" x1="604.5" x2="651.5" y1="423.9219" y2="423.9219"/><polygon fill="#181818" points="614.5,419.9219,604.5,423.9219,614.5,427.9219,610.5,423.9219" style="stroke:#181818;stroke-width:1.0;"/><text fill="#000000" font-family="sans-serif" font-size="13" font-weight="bold" lengthAdjust="spacing" textLength="32" x="616.5" y="405.856">16.9</text><text fill="#000000" font-family="sans-serif" font-size="13" lengthAdjust="spacing" textLength="4" x="652.5" y="405.856">&#160;</text><polygon fill="#181818" points="164.5,444.0547,154.5,448.0547,164.5,452.0547,160.5,448.0547" style="stroke:#181818;stroke-width:1.0;"/><line style="stroke:#181818;stroke-width:1.0;stroke-dasharray:2.0,2.0;" x1="158.5" x2="598.5" y1="448.0547" y2="448.0547"/><text fill="#000000" font-family="sans-serif" font-size="13" font-weight="bold" lengthAdjust="spacing" textLength="41" x="170.5" y="442.9888">16.10</text><text fill="#000000" font-family="sans-serif" font-size="13" lengthAdjust="spacing" textLength="37" x="215.5" y="442.9888">email</text><line style="stroke:#181818;stroke-width:1.0;stroke-dasharray:2.0,2.0;" x1="153.5" x2="195.5" y1="482.1875" y2="482.1875"/><line style="stroke:#181818;stroke-width:1.0;stroke-dasharray:2.0,2.0;" x1="195.5" x2="195.5" y1="482.1875" y2="495.1875"/><line style="stroke:#181818;stroke-width:1.0;stroke-dasharray:2.0,2.0;" x1="148.5" x2="195.5" y1="495.1875" y2="495.1875"/><polygon fill="#181818" points="158.5,491.1875,148.5,495.1875,158.5,499.1875,154.5,495.1875" style="stroke:#181818;stroke-width:1.0;"/><text fill="#000000" font-family="sans-serif" font-size="13" font-weight="bold" lengthAdjust="spacing" textLength="41" x="160.5" y="477.1216">16.11</text><text fill="#000000" font-family="sans-serif" font-size="13" lengthAdjust="spacing" textLength="67" x="205.5" y="477.1216">resposible</text><polygon fill="#181818" points="735.5,522.3203,745.5,526.3203,735.5,530.3203,739.5,526.3203" style="stroke:#181818;stroke-width:1.0;"/><line style="stroke:#181818;stroke-width:1.0;" x1="143.5" x2="741.5" y1="526.3203" y2="526.3203"/><text fill="#000000" font-family="sans-serif" font-size="13" font-weight="bold" lengthAdjust="spacing" textLength="41" x="150.5" y="521.2544">16.12</text><text fill="#000000" font-family="sans-serif" font-size="13" lengthAdjust="spacing" textLength="309" x="195.5" y="521.2544">registerGreenSpace(name,size,area,resposible)</text><!--SRC=[jLHDRy8m3BtdLqISG899N3Q9moI49ZI9mmJijejflHBH9fMTRcA_Vcahw8T8gHZpfNBjz_pi9EQ3qYaG938nsWHxCWbAInaAFaTI20uGuSOUOvI4WGKTnVK4taDelfMEv2V4Z4AutrO5AWLjvM2snaYnHLeIejuuDbmORSd4CT900il5ThrgOWXJmyeQKiWVsZ5KRe5uMystJGHaTe_Q-M2LqMV0qQ7ddb31vCC9uI96PyaEIKuVM-x3L41WrHTOBDKBMLhkoCbp-PsvQRLR7sf8SCpg1yT02ACJCBScfMnOYpX2kqPEZMQrYt4uQcLx2ICoMIgNQ6KDBeIuZ3yLpSTT5lNDygg2uiGkvnJiawetxv5SH8VOfyQf4nztsTqY8tBHTqRQ8BFBkDgN__v8dtarTEfpyd9Thw5FqbzbtIuj7zrB0YhkadOFUTqIEpHsqzQkq6q4_w2hZwQRxbZrpZ0_Cd7_YPHlhRu4EGSLYwPFl-TbXJeKbnvndyKwhggEcilxIRHhYLy0]--></g></svg>