<?xml version="1.0" encoding="us-ascii" standalone="no"?><svg xmlns="http://www.w3.org/2000/svg" xmlns:xlink="http://www.w3.org/1999/xlink" contentStyleType="text/css" height="511px" preserveAspectRatio="none" style="width:748px;height:511px;background:#FFFFFF;" version="1.1" viewBox="0 0 748 511" width="748px" zoomAndPan="magnify"><defs/><g><rect fill="#FFFFFF" height="388.4609" style="stroke:#181818;stroke-width:1.0;" width="10" x="133.5" y="62.5938"/><rect fill="#FFFFFF" height="350.3281" style="stroke:#181818;stroke-width:1.0;" width="10" x="138.5" y="91.7266"/><rect fill="#FFFFFF" height="29.1328" style="stroke:#181818;stroke-width:1.0;" width="10" x="431.5" y="149.9922"/><rect fill="#FFFFFF" height="197.6641" style="stroke:#181818;stroke-width:1.0;" width="10" x="594.5" y="208.2578"/><rect fill="#FFFFFF" height="124.3984" style="stroke:#181818;stroke-width:1.0;" width="10" x="599.5" y="245.3906"/><rect fill="#FFFFFF" height="40.1328" style="stroke:#181818;stroke-width:1.0;" width="10" x="604.5" y="287.5234"/><rect fill="none" height="302.1953" style="stroke:#000000;stroke-width:1.5;" width="727.5" x="10" y="111.7266"/><line style="stroke:#181818;stroke-width:0.5;stroke-dasharray:5.0,5.0;" x1="138" x2="138" y1="52.5938" y2="460.0547"/><line style="stroke:#181818;stroke-width:0.5;stroke-dasharray:5.0,5.0;" x1="436" x2="436" y1="52.5938" y2="460.0547"/><line style="stroke:#181818;stroke-width:0.5;stroke-dasharray:5.0,5.0;" x1="599" x2="599" y1="52.5938" y2="460.0547"/><rect fill="#E3E3E3" height="30.2969" rx="2.5" ry="2.5" style="stroke:#181818;stroke-width:0.5;" width="237" x="20" y="21.2969"/><text fill="#000000" font-family="sans-serif" font-size="14" lengthAdjust="spacing" textLength="223" x="27" y="41.292">:RegisterGreenSpaceController</text><rect fill="#E3E3E3" height="30.2969" rx="2.5" ry="2.5" style="stroke:#181818;stroke-width:0.5;" width="237" x="20" y="459.0547"/><text fill="#000000" font-family="sans-serif" font-size="14" lengthAdjust="spacing" textLength="223" x="27" y="479.0498">:RegisterGreenSpaceController</text><rect fill="#E3E3E3" height="46.5938" rx="2.5" ry="2.5" style="stroke:#181818;stroke-width:0.5;" width="107" x="383" y="5"/><text fill="#000000" font-family="sans-serif" font-size="14" lengthAdjust="spacing" textLength="84" x="394.5" y="24.9951">repositories</text><text fill="#000000" font-family="sans-serif" font-size="14" lengthAdjust="spacing" textLength="93" x="390" y="41.292">:Repositories</text><rect fill="#E3E3E3" height="46.5938" rx="2.5" ry="2.5" style="stroke:#181818;stroke-width:0.5;" width="107" x="383" y="459.0547"/><text fill="#000000" font-family="sans-serif" font-size="14" lengthAdjust="spacing" textLength="84" x="394.5" y="479.0498">repositories</text><text fill="#000000" font-family="sans-serif" font-size="14" lengthAdjust="spacing" textLength="93" x="390" y="495.3467">:Repositories</text><rect fill="#E3E3E3" height="46.5938" rx="2.5" ry="2.5" style="stroke:#181818;stroke-width:0.5;" width="199" x="500" y="5"/><text fill="#000000" font-family="sans-serif" font-size="14" lengthAdjust="spacing" textLength="179" x="510" y="24.9951">authenticationRepository</text><text fill="#000000" font-family="sans-serif" font-size="14" lengthAdjust="spacing" textLength="185" x="507" y="41.292">:AuthenticationRepository</text><rect fill="#E3E3E3" height="46.5938" rx="2.5" ry="2.5" style="stroke:#181818;stroke-width:0.5;" width="199" x="500" y="459.0547"/><text fill="#000000" font-family="sans-serif" font-size="14" lengthAdjust="spacing" textLength="179" x="510" y="479.0498">authenticationRepository</text><text fill="#000000" font-family="sans-serif" font-size="14" lengthAdjust="spacing" textLength="185" x="507" y="495.3467">:AuthenticationRepository</text><rect fill="#FFFFFF" height="388.4609" style="stroke:#181818;stroke-width:1.0;" width="10" x="133.5" y="62.5938"/><rect fill="#FFFFFF" height="350.3281" style="stroke:#181818;stroke-width:1.0;" width="10" x="138.5" y="91.7266"/><rect fill="#FFFFFF" height="29.1328" style="stroke:#181818;stroke-width:1.0;" width="10" x="431.5" y="149.9922"/><rect fill="#FFFFFF" height="197.6641" style="stroke:#181818;stroke-width:1.0;" width="10" x="594.5" y="208.2578"/><rect fill="#FFFFFF" height="124.3984" style="stroke:#181818;stroke-width:1.0;" width="10" x="599.5" y="245.3906"/><rect fill="#FFFFFF" height="40.1328" style="stroke:#181818;stroke-width:1.0;" width="10" x="604.5" y="287.5234"/><line style="stroke:#181818;stroke-width:1.0;" x1="143.5" x2="190.5" y1="78.7266" y2="78.7266"/><line style="stroke:#181818;stroke-width:1.0;" x1="190.5" x2="190.5" y1="78.7266" y2="91.7266"/><line style="stroke:#181818;stroke-width:1.0;" x1="149.5" x2="190.5" y1="91.7266" y2="91.7266"/><polygon fill="#181818" points="159.5,87.7266,149.5,91.7266,159.5,95.7266,155.5,91.7266" style="stroke:#181818;stroke-width:1.0;"/><text fill="#000000" font-family="sans-serif" font-size="13" font-weight="bold" lengthAdjust="spacing" textLength="32" x="155.5" y="73.6606">16.1</text><text fill="#000000" font-family="sans-serif" font-size="13" lengthAdjust="spacing" textLength="238" x="191.5" y="73.6606">registerGreenSpace(name,size,area)</text><path d="M10,111.7266 L165,111.7266 L165,118.8594 L155,128.8594 L10,128.8594 L10,111.7266 " fill="#EEEEEE" style="stroke:#000000;stroke-width:1.5;"/><rect fill="none" height="302.1953" style="stroke:#000000;stroke-width:1.5;" width="727.5" x="10" y="111.7266"/><text fill="#000000" font-family="sans-serif" font-size="13" font-weight="bold" lengthAdjust="spacing" textLength="110" x="25" y="124.7935">Get User Email</text><polygon fill="#181818" points="419.5,145.9922,429.5,149.9922,419.5,153.9922,423.5,149.9922" style="stroke:#181818;stroke-width:1.0;"/><line style="stroke:#181818;stroke-width:1.0;" x1="148.5" x2="425.5" y1="149.9922" y2="149.9922"/><text fill="#000000" font-family="sans-serif" font-size="13" font-weight="bold" lengthAdjust="spacing" textLength="32" x="155.5" y="144.9263">16.2</text><text fill="#000000" font-family="sans-serif" font-size="13" lengthAdjust="spacing" textLength="196" x="191.5" y="144.9263">getAuthenticationRepository()</text><polygon fill="#181818" points="159.5,175.125,149.5,179.125,159.5,183.125,155.5,179.125" style="stroke:#181818;stroke-width:1.0;"/><line style="stroke:#181818;stroke-width:1.0;stroke-dasharray:2.0,2.0;" x1="153.5" x2="435.5" y1="179.125" y2="179.125"/><text fill="#000000" font-family="sans-serif" font-size="13" font-weight="bold" lengthAdjust="spacing" textLength="32" x="165.5" y="174.0591">16.3</text><text fill="#000000" font-family="sans-serif" font-size="13" lengthAdjust="spacing" textLength="164" x="201.5" y="174.0591">authenticationRepository</text><polygon fill="#181818" points="582.5,204.2578,592.5,208.2578,582.5,212.2578,586.5,208.2578" style="stroke:#181818;stroke-width:1.0;"/><line style="stroke:#181818;stroke-width:1.0;" x1="148.5" x2="588.5" y1="208.2578" y2="208.2578"/><text fill="#000000" font-family="sans-serif" font-size="13" font-weight="bold" lengthAdjust="spacing" textLength="32" x="155.5" y="203.1919">16.4</text><text fill="#000000" font-family="sans-serif" font-size="13" lengthAdjust="spacing" textLength="159" x="191.5" y="203.1919">getCurrentUserSession()</text><line style="stroke:#181818;stroke-width:1.0;" x1="604.5" x2="651.5" y1="232.3906" y2="232.3906"/><line style="stroke:#181818;stroke-width:1.0;" x1="651.5" x2="651.5" y1="232.3906" y2="245.3906"/><line style="stroke:#181818;stroke-width:1.0;" x1="610.5" x2="651.5" y1="245.3906" y2="245.3906"/><polygon fill="#181818" points="620.5,241.3906,610.5,245.3906,620.5,249.3906,616.5,245.3906" style="stroke:#181818;stroke-width:1.0;"/><text fill="#000000" font-family="sans-serif" font-size="13" font-weight="bold" lengthAdjust="spacing" textLength="32" x="616.5" y="227.3247">16.5</text><text fill="#000000" font-family="sans-serif" font-size="13" lengthAdjust="spacing" textLength="73" x="652.5" y="227.3247">getUserId()</text><line style="stroke:#181818;stroke-width:1.0;" x1="609.5" x2="656.5" y1="274.5234" y2="274.5234"/><line style="stroke:#181818;stroke-width:1.0;" x1="656.5" x2="656.5" y1="274.5234" y2="287.5234"/><line style="stroke:#181818;stroke-width:1.0;" x1="615.5" x2="656.5" y1="287.5234" y2="287.5234"/><polygon fill="#181818" points="625.5,283.5234,615.5,287.5234,625.5,291.5234,621.5,287.5234" style="stroke:#181818;stroke-width:1.0;"/><text fill="#000000" font-family="sans-serif" font-size="13" font-weight="bold" lengthAdjust="spacing" textLength="32" x="621.5" y="269.4575">16.6</text><text fill="#000000" font-family="sans-serif" font-size="13" lengthAdjust="spacing" textLength="68" x="657.5" y="269.4575">getEmail()</text><line style="stroke:#181818;stroke-width:1.0;stroke-dasharray:2.0,2.0;" x1="614.5" x2="656.5" y1="326.6563" y2="326.6563"/><line style="stroke:#181818;stroke-width:1.0;stroke-dasharray:2.0,2.0;" x1="656.5" x2="656.5" y1="326.6563" y2="339.6563"/><line style="stroke:#181818;stroke-width:1.0;stroke-dasharray:2.0,2.0;" x1="609.5" x2="656.5" y1="339.6563" y2="339.6563"/><polygon fill="#181818" points="619.5,335.6563,609.5,339.6563,619.5,343.6563,615.5,339.6563" style="stroke:#181818;stroke-width:1.0;"/><text fill="#000000" font-family="sans-serif" font-size="13" font-weight="bold" lengthAdjust="spacing" textLength="32" x="621.5" y="321.5903">16.7</text><text fill="#000000" font-family="sans-serif" font-size="13" lengthAdjust="spacing" textLength="4" x="657.5" y="321.5903">&#160;</text><line style="stroke:#181818;stroke-width:1.0;stroke-dasharray:2.0,2.0;" x1="609.5" x2="651.5" y1="368.7891" y2="368.7891"/><line style="stroke:#181818;stroke-width:1.0;stroke-dasharray:2.0,2.0;" x1="651.5" x2="651.5" y1="368.7891" y2="381.7891"/><line style="stroke:#181818;stroke-width:1.0;stroke-dasharray:2.0,2.0;" x1="604.5" x2="651.5" y1="381.7891" y2="381.7891"/><polygon fill="#181818" points="614.5,377.7891,604.5,381.7891,614.5,385.7891,610.5,381.7891" style="stroke:#181818;stroke-width:1.0;"/><text fill="#000000" font-family="sans-serif" font-size="13" font-weight="bold" lengthAdjust="spacing" textLength="32" x="616.5" y="363.7231">16.8</text><text fill="#000000" font-family="sans-serif" font-size="13" lengthAdjust="spacing" textLength="4" x="652.5" y="363.7231">&#160;</text><polygon fill="#181818" points="159.5,401.9219,149.5,405.9219,159.5,409.9219,155.5,405.9219" style="stroke:#181818;stroke-width:1.0;"/><line style="stroke:#181818;stroke-width:1.0;stroke-dasharray:2.0,2.0;" x1="153.5" x2="598.5" y1="405.9219" y2="405.9219"/><text fill="#000000" font-family="sans-serif" font-size="13" font-weight="bold" lengthAdjust="spacing" textLength="32" x="165.5" y="400.856">16.9</text><text fill="#000000" font-family="sans-serif" font-size="13" lengthAdjust="spacing" textLength="67" x="201.5" y="400.856">resposible</text><polygon fill="#181818" points="735.5,438.0547,745.5,442.0547,735.5,446.0547,739.5,442.0547" style="stroke:#181818;stroke-width:1.0;"/><line style="stroke:#181818;stroke-width:1.0;" x1="143.5" x2="741.5" y1="442.0547" y2="442.0547"/><text fill="#000000" font-family="sans-serif" font-size="13" font-weight="bold" lengthAdjust="spacing" textLength="41" x="150.5" y="436.9888">16.10</text><text fill="#000000" font-family="sans-serif" font-size="13" lengthAdjust="spacing" textLength="309" x="195.5" y="436.9888">registerGreenSpace(name,size,area,resposible)</text><!--SRC=[hPHHQy8m4CVVyoc2Jmewy6K37mOYGmO-37LlUpdRMmssIRbSDzodNzAogjKKhSjBIIx___roJSxkbCw189EPqIRQaibGCXKeR1t98Tf1WYlUfoW98mQTfCSRx1PYywrq8ZyXjIY4MsOLgHmqozvaYOcoZ3GdHBroRZWpcicaAL9FWfMpzN9ngY7CZLLiIA7zqCxXC2qLRulf-bG11MzHkpcmCheMx9rw6WYLJY6T42vYT95jaEJuiJ5z60k8M7q1OqKlP3NyH8wUg-_4LQjvzBw638TM_U0G265G2XCoHLxgvyZotReSBnceLDI-VbpEA1kPVMbSvWGvTEx-eAcjdSkwDgEbu-Xmg6396heOstt_Y4D-rIbc1P6B-gAiq5gteuK__3Vb-GZcRMLoI9xbDJx7w8xI7SUNgBmhbt7kGsh7Qk4A6HvTYLkbtLb4Hn1nAq7zwArVthWU-GzPhoqPwbXSUbtNTA7X0NbmskcUn57-gk_y0W00]--></g></svg>