<?xml version="1.0" encoding="us-ascii" standalone="no"?><svg xmlns="http://www.w3.org/2000/svg" xmlns:xlink="http://www.w3.org/1999/xlink" contentStyleType="text/css" height="994px" preserveAspectRatio="none" style="width:1426px;height:994px;background:#FFFFFF;" version="1.1" viewBox="0 0 1426 994" width="1426px" zoomAndPan="magnify"><defs/><g><text fill="#000000" font-family="sans-serif" font-size="14" font-weight="bold" lengthAdjust="spacing" textLength="363" x="530.5" y="27.9951">UI Sequence Diagram (SSD) - Alternative One</text><rect fill="#FFFFFF" height="775.6797" style="stroke:#181818;stroke-width:1.0;" width="10" x="82.5" y="128.5938"/><rect fill="#FFFFFF" height="70.4297" style="stroke:#181818;stroke-width:1.0;" width="10" x="325.5" y="149.7266"/><rect fill="#FFFFFF" height="44.2656" style="stroke:#181818;stroke-width:1.0;" width="10" x="325.5" y="249.2891"/><rect fill="#FFFFFF" height="572.5859" style="stroke:#181818;stroke-width:1.0;" width="10" x="325.5" y="322.6875"/><rect fill="#FFFFFF" height="514.3203" style="stroke:#181818;stroke-width:1.0;" width="10" x="605.5" y="351.8203"/><rect fill="#FFFFFF" height="156.6641" style="stroke:#181818;stroke-width:1.0;" width="10" x="610.5" y="388.9531"/><rect fill="#FFFFFF" height="29.1328" style="stroke:#181818;stroke-width:1.0;" width="10" x="821.5" y="423.0859"/><rect fill="#FFFFFF" height="29.1328" style="stroke:#181818;stroke-width:1.0;" width="10" x="938.5" y="481.3516"/><rect fill="#FFFFFF" height="255.2578" style="stroke:#181818;stroke-width:1.0;" width="10" x="1093.5" y="581.75"/><rect fill="#FFFFFF" height="124.3984" style="stroke:#181818;stroke-width:1.0;" width="10" x="1098.5" y="676.4766"/><rect fill="#FFFFFF" height="40.1328" style="stroke:#181818;stroke-width:1.0;" width="10" x="1103.5" y="718.6094"/><line style="stroke:#181818;stroke-width:0.5;stroke-dasharray:5.0,5.0;" x1="87" x2="87" y1="118.5938" y2="913.2734"/><line style="stroke:#181818;stroke-width:0.5;stroke-dasharray:5.0,5.0;" x1="330.5" x2="330.5" y1="118.5938" y2="913.2734"/><line style="stroke:#181818;stroke-width:0.5;stroke-dasharray:5.0,5.0;" x1="610" x2="610" y1="188.375" y2="913.2734"/><line style="stroke:#181818;stroke-width:0.5;stroke-dasharray:5.0,5.0;" x1="826" x2="826" y1="118.5938" y2="913.2734"/><line style="stroke:#181818;stroke-width:0.5;stroke-dasharray:5.0,5.0;" x1="943" x2="943" y1="118.5938" y2="913.2734"/><line style="stroke:#181818;stroke-width:0.5;stroke-dasharray:5.0,5.0;" x1="1098" x2="1098" y1="118.5938" y2="913.2734"/><line style="stroke:#181818;stroke-width:0.5;stroke-dasharray:5.0,5.0;" x1="1366" x2="1366" y1="628.5469" y2="913.2734"/><text fill="#000000" font-family="sans-serif" font-size="14" lengthAdjust="spacing" textLength="159" x="5" y="115.292">Green Space Manager</text><ellipse cx="87.5" cy="50.7969" fill="#E3E3E3" rx="8" ry="8" style="stroke:#181818;stroke-width:0.5;"/><path d="M87.5,58.7969 L87.5,85.7969 M74.5,66.7969 L100.5,66.7969 M87.5,85.7969 L74.5,100.7969 M87.5,85.7969 L100.5,100.7969 " fill="none" style="stroke:#181818;stroke-width:0.5;"/><text fill="#000000" font-family="sans-serif" font-size="14" lengthAdjust="spacing" textLength="159" x="5" y="925.2686">Green Space Manager</text><ellipse cx="87.5" cy="937.0703" fill="#E3E3E3" rx="8" ry="8" style="stroke:#181818;stroke-width:0.5;"/><path d="M87.5,945.0703 L87.5,972.0703 M74.5,953.0703 L100.5,953.0703 M87.5,972.0703 L74.5,987.0703 M87.5,972.0703 L100.5,987.0703 " fill="none" style="stroke:#181818;stroke-width:0.5;"/><rect fill="#E3E3E3" height="30.2969" rx="2.5" ry="2.5" style="stroke:#181818;stroke-width:0.5;" width="180" x="240.5" y="87.2969"/><text fill="#000000" font-family="sans-serif" font-size="14" lengthAdjust="spacing" textLength="166" x="247.5" y="107.292">:RegisterGreenSpaceUI</text><rect fill="#E3E3E3" height="30.2969" rx="2.5" ry="2.5" style="stroke:#181818;stroke-width:0.5;" width="180" x="240.5" y="912.2734"/><text fill="#000000" font-family="sans-serif" font-size="14" lengthAdjust="spacing" textLength="166" x="247.5" y="932.2686">:RegisterGreenSpaceUI</text><rect fill="#E3E3E3" height="30.2969" rx="2.5" ry="2.5" style="stroke:#181818;stroke-width:0.5;" width="237" x="492" y="912.2734"/><text fill="#000000" font-family="sans-serif" font-size="14" lengthAdjust="spacing" textLength="223" x="499" y="932.2686">:RegisterGreenSpaceController</text><rect fill="#E3E3E3" height="30.2969" rx="2.5" ry="2.5" style="stroke:#181818;stroke-width:0.5;" width="107" x="773" y="87.2969"/><text fill="#000000" font-family="sans-serif" font-size="14" lengthAdjust="spacing" textLength="93" x="780" y="107.292">:Repositories</text><rect fill="#E3E3E3" height="30.2969" rx="2.5" ry="2.5" style="stroke:#181818;stroke-width:0.5;" width="107" x="773" y="912.2734"/><text fill="#000000" font-family="sans-serif" font-size="14" lengthAdjust="spacing" textLength="93" x="780" y="932.2686">:Repositories</text><rect fill="#E3E3E3" height="46.5938" rx="2.5" ry="2.5" style="stroke:#181818;stroke-width:0.5;" width="107" x="890" y="71"/><text fill="#000000" font-family="sans-serif" font-size="14" lengthAdjust="spacing" textLength="84" x="901.5" y="90.9951">repositories</text><text fill="#000000" font-family="sans-serif" font-size="14" lengthAdjust="spacing" textLength="93" x="897" y="107.292">:Repositories</text><rect fill="#E3E3E3" height="46.5938" rx="2.5" ry="2.5" style="stroke:#181818;stroke-width:0.5;" width="107" x="890" y="912.2734"/><text fill="#000000" font-family="sans-serif" font-size="14" lengthAdjust="spacing" textLength="84" x="901.5" y="932.2686">repositories</text><text fill="#000000" font-family="sans-serif" font-size="14" lengthAdjust="spacing" textLength="93" x="897" y="948.5654">:Repositories</text><rect fill="#E3E3E3" height="46.5938" rx="2.5" ry="2.5" style="stroke:#181818;stroke-width:0.5;" width="183" x="1007" y="71"/><text fill="#000000" font-family="sans-serif" font-size="14" lengthAdjust="spacing" textLength="162" x="1017.5" y="90.9951">greenSpaceRepository</text><text fill="#000000" font-family="sans-serif" font-size="14" lengthAdjust="spacing" textLength="169" x="1014" y="107.292">:GreenSpaceRepository</text><rect fill="#E3E3E3" height="46.5938" rx="2.5" ry="2.5" style="stroke:#181818;stroke-width:0.5;" width="183" x="1007" y="912.2734"/><text fill="#000000" font-family="sans-serif" font-size="14" lengthAdjust="spacing" textLength="162" x="1017.5" y="932.2686">greenSpaceRepository</text><text fill="#000000" font-family="sans-serif" font-size="14" lengthAdjust="spacing" textLength="169" x="1014" y="948.5654">:GreenSpaceRepository</text><rect fill="#E3E3E3" height="46.5938" rx="2.5" ry="2.5" style="stroke:#181818;stroke-width:0.5;" width="107" x="1313" y="912.2734"/><text fill="#000000" font-family="sans-serif" font-size="14" lengthAdjust="spacing" textLength="86" x="1323.5" y="932.2686">greenSpace</text><text fill="#000000" font-family="sans-serif" font-size="14" lengthAdjust="spacing" textLength="93" x="1320" y="948.5654">:GreenSpace</text><rect fill="#FFFFFF" height="775.6797" style="stroke:#181818;stroke-width:1.0;" width="10" x="82.5" y="128.5938"/><rect fill="#FFFFFF" height="70.4297" style="stroke:#181818;stroke-width:1.0;" width="10" x="325.5" y="149.7266"/><rect fill="#FFFFFF" height="44.2656" style="stroke:#181818;stroke-width:1.0;" width="10" x="325.5" y="249.2891"/><rect fill="#FFFFFF" height="572.5859" style="stroke:#181818;stroke-width:1.0;" width="10" x="325.5" y="322.6875"/><rect fill="#FFFFFF" height="514.3203" style="stroke:#181818;stroke-width:1.0;" width="10" x="605.5" y="351.8203"/><rect fill="#FFFFFF" height="156.6641" style="stroke:#181818;stroke-width:1.0;" width="10" x="610.5" y="388.9531"/><rect fill="#FFFFFF" height="29.1328" style="stroke:#181818;stroke-width:1.0;" width="10" x="821.5" y="423.0859"/><rect fill="#FFFFFF" height="29.1328" style="stroke:#181818;stroke-width:1.0;" width="10" x="938.5" y="481.3516"/><rect fill="#FFFFFF" height="255.2578" style="stroke:#181818;stroke-width:1.0;" width="10" x="1093.5" y="581.75"/><rect fill="#FFFFFF" height="124.3984" style="stroke:#181818;stroke-width:1.0;" width="10" x="1098.5" y="676.4766"/><rect fill="#FFFFFF" height="40.1328" style="stroke:#181818;stroke-width:1.0;" width="10" x="1103.5" y="718.6094"/><polygon fill="#181818" points="313.5,145.7266,323.5,149.7266,313.5,153.7266,317.5,149.7266" style="stroke:#181818;stroke-width:1.0;"/><line style="stroke:#181818;stroke-width:1.0;" x1="92.5" x2="319.5" y1="149.7266" y2="149.7266"/><text fill="#000000" font-family="sans-serif" font-size="13" font-weight="bold" lengthAdjust="spacing" textLength="9" x="99.5" y="144.6606">1</text><text fill="#000000" font-family="sans-serif" font-size="13" lengthAdjust="spacing" textLength="189" x="112.5" y="144.6606">ask to register a green space</text><polygon fill="#181818" points="480,174.8594,490,178.8594,480,182.8594,484,178.8594" style="stroke:#181818;stroke-width:1.0;"/><line style="stroke:#181818;stroke-width:1.0;" x1="335.5" x2="486" y1="178.8594" y2="178.8594"/><text fill="#000000" font-family="sans-serif" font-size="13" font-weight="bold" lengthAdjust="spacing" textLength="9" x="342.5" y="173.7935">2</text><text fill="#000000" font-family="sans-serif" font-size="13" lengthAdjust="spacing" textLength="41" x="355.5" y="173.7935">create</text><rect fill="#E3E3E3" height="30.2969" rx="2.5" ry="2.5" style="stroke:#181818;stroke-width:0.5;" width="237" x="492" y="157.7266"/><text fill="#000000" font-family="sans-serif" font-size="14" lengthAdjust="spacing" textLength="223" x="499" y="177.7217">:RegisterGreenSpaceController</text><polygon fill="#181818" points="103.5,216.1563,93.5,220.1563,103.5,224.1563,99.5,220.1563" style="stroke:#181818;stroke-width:1.0;"/><line style="stroke:#181818;stroke-width:1.0;stroke-dasharray:2.0,2.0;" x1="97.5" x2="329.5" y1="220.1563" y2="220.1563"/><text fill="#000000" font-family="sans-serif" font-size="13" font-weight="bold" lengthAdjust="spacing" textLength="9" x="109.5" y="215.0903">3</text><text fill="#000000" font-family="sans-serif" font-size="13" lengthAdjust="spacing" textLength="196" x="122.5" y="215.0903">request data (name,size,area)</text><polygon fill="#181818" points="313.5,245.2891,323.5,249.2891,313.5,253.2891,317.5,249.2891" style="stroke:#181818;stroke-width:1.0;"/><line style="stroke:#181818;stroke-width:1.0;" x1="92.5" x2="319.5" y1="249.2891" y2="249.2891"/><text fill="#000000" font-family="sans-serif" font-size="13" font-weight="bold" lengthAdjust="spacing" textLength="9" x="99.5" y="244.2231">4</text><text fill="#000000" font-family="sans-serif" font-size="13" lengthAdjust="spacing" textLength="138" x="112.5" y="244.2231">types requested data</text><polygon fill="#181818" points="103.5,289.5547,93.5,293.5547,103.5,297.5547,99.5,293.5547" style="stroke:#181818;stroke-width:1.0;"/><line style="stroke:#181818;stroke-width:1.0;stroke-dasharray:2.0,2.0;" x1="97.5" x2="329.5" y1="293.5547" y2="293.5547"/><text fill="#000000" font-family="sans-serif" font-size="13" font-weight="bold" lengthAdjust="spacing" textLength="9" x="109.5" y="280.9224">5</text><text fill="#000000" font-family="sans-serif" font-size="13" lengthAdjust="spacing" textLength="157" x="122.5" y="273.356">show all data registered</text><text fill="#000000" font-family="sans-serif" font-size="13" lengthAdjust="spacing" textLength="177" x="126.5" y="288.4888">and the confirmation menu</text><polygon fill="#181818" points="313.5,318.6875,323.5,322.6875,313.5,326.6875,317.5,322.6875" style="stroke:#181818;stroke-width:1.0;"/><line style="stroke:#181818;stroke-width:1.0;" x1="92.5" x2="319.5" y1="322.6875" y2="322.6875"/><text fill="#000000" font-family="sans-serif" font-size="13" font-weight="bold" lengthAdjust="spacing" textLength="9" x="99.5" y="317.6216">6</text><text fill="#000000" font-family="sans-serif" font-size="13" lengthAdjust="spacing" textLength="85" x="112.5" y="317.6216">submits data</text><polygon fill="#181818" points="593.5,347.8203,603.5,351.8203,593.5,355.8203,597.5,351.8203" style="stroke:#181818;stroke-width:1.0;"/><line style="stroke:#181818;stroke-width:1.0;" x1="335.5" x2="599.5" y1="351.8203" y2="351.8203"/><text fill="#000000" font-family="sans-serif" font-size="13" font-weight="bold" lengthAdjust="spacing" textLength="9" x="342.5" y="346.7544">7</text><text fill="#000000" font-family="sans-serif" font-size="13" lengthAdjust="spacing" textLength="238" x="355.5" y="346.7544">registerGreenSpace(name,size,area)</text><line style="stroke:#181818;stroke-width:1.0;" x1="615.5" x2="662.5" y1="375.9531" y2="375.9531"/><line style="stroke:#181818;stroke-width:1.0;" x1="662.5" x2="662.5" y1="375.9531" y2="388.9531"/><line style="stroke:#181818;stroke-width:1.0;" x1="621.5" x2="662.5" y1="388.9531" y2="388.9531"/><polygon fill="#181818" points="631.5,384.9531,621.5,388.9531,631.5,392.9531,627.5,388.9531" style="stroke:#181818;stroke-width:1.0;"/><text fill="#000000" font-family="sans-serif" font-size="13" font-weight="bold" lengthAdjust="spacing" textLength="9" x="627.5" y="370.8872">8</text><text fill="#000000" font-family="sans-serif" font-size="13" lengthAdjust="spacing" textLength="179" x="640.5" y="370.8872">getGreenSpaceRepository()</text><polygon fill="#181818" points="809.5,419.0859,819.5,423.0859,809.5,427.0859,813.5,423.0859" style="stroke:#181818;stroke-width:1.0;"/><line style="stroke:#181818;stroke-width:1.0;" x1="620.5" x2="815.5" y1="423.0859" y2="423.0859"/><text fill="#000000" font-family="sans-serif" font-size="13" font-weight="bold" lengthAdjust="spacing" textLength="9" x="627.5" y="418.02">9</text><text fill="#000000" font-family="sans-serif" font-size="13" lengthAdjust="spacing" textLength="86" x="640.5" y="418.02">getInstance()</text><polygon fill="#181818" points="631.5,448.2188,621.5,452.2188,631.5,456.2188,627.5,452.2188" style="stroke:#181818;stroke-width:1.0;"/><line style="stroke:#181818;stroke-width:1.0;stroke-dasharray:2.0,2.0;" x1="625.5" x2="825.5" y1="452.2188" y2="452.2188"/><text fill="#000000" font-family="sans-serif" font-size="13" font-weight="bold" lengthAdjust="spacing" textLength="18" x="637.5" y="447.1528">10</text><text fill="#000000" font-family="sans-serif" font-size="13" lengthAdjust="spacing" textLength="77" x="659.5" y="447.1528">repositories</text><polygon fill="#181818" points="926.5,477.3516,936.5,481.3516,926.5,485.3516,930.5,481.3516" style="stroke:#181818;stroke-width:1.0;"/><line style="stroke:#181818;stroke-width:1.0;" x1="620.5" x2="932.5" y1="481.3516" y2="481.3516"/><text fill="#000000" font-family="sans-serif" font-size="13" font-weight="bold" lengthAdjust="spacing" textLength="18" x="627.5" y="476.2856">11</text><text fill="#000000" font-family="sans-serif" font-size="13" lengthAdjust="spacing" textLength="179" x="649.5" y="476.2856">getGreenSpaceRepository()</text><polygon fill="#181818" points="631.5,506.4844,621.5,510.4844,631.5,514.4844,627.5,510.4844" style="stroke:#181818;stroke-width:1.0;"/><line style="stroke:#181818;stroke-width:1.0;stroke-dasharray:2.0,2.0;" x1="625.5" x2="942.5" y1="510.4844" y2="510.4844"/><text fill="#000000" font-family="sans-serif" font-size="13" font-weight="bold" lengthAdjust="spacing" textLength="18" x="637.5" y="505.4185">12</text><text fill="#000000" font-family="sans-serif" font-size="13" lengthAdjust="spacing" textLength="146" x="659.5" y="505.4185">greenSpaceRepository</text><line style="stroke:#181818;stroke-width:1.0;stroke-dasharray:2.0,2.0;" x1="620.5" x2="662.5" y1="544.6172" y2="544.6172"/><line style="stroke:#181818;stroke-width:1.0;stroke-dasharray:2.0,2.0;" x1="662.5" x2="662.5" y1="544.6172" y2="557.6172"/><line style="stroke:#181818;stroke-width:1.0;stroke-dasharray:2.0,2.0;" x1="615.5" x2="662.5" y1="557.6172" y2="557.6172"/><polygon fill="#181818" points="625.5,553.6172,615.5,557.6172,625.5,561.6172,621.5,557.6172" style="stroke:#181818;stroke-width:1.0;"/><text fill="#000000" font-family="sans-serif" font-size="13" font-weight="bold" lengthAdjust="spacing" textLength="18" x="627.5" y="539.5513">13</text><text fill="#000000" font-family="sans-serif" font-size="13" lengthAdjust="spacing" textLength="146" x="649.5" y="539.5513">greenSpaceRepository</text><polygon fill="#181818" points="1081.5,577.75,1091.5,581.75,1081.5,585.75,1085.5,581.75" style="stroke:#181818;stroke-width:1.0;"/><line style="stroke:#181818;stroke-width:1.0;" x1="615.5" x2="1087.5" y1="581.75" y2="581.75"/><text fill="#000000" font-family="sans-serif" font-size="13" font-weight="bold" lengthAdjust="spacing" textLength="18" x="622.5" y="576.6841">14</text><text fill="#000000" font-family="sans-serif" font-size="13" lengthAdjust="spacing" textLength="238" x="644.5" y="576.6841">registerGreenSpace(name,size,area)</text><polygon fill="#181818" points="1301,606.8828,1311,610.8828,1301,614.8828,1305,610.8828" style="stroke:#181818;stroke-width:1.0;"/><line style="stroke:#181818;stroke-width:1.0;" x1="1103.5" x2="1307" y1="610.8828" y2="610.8828"/><text fill="#000000" font-family="sans-serif" font-size="13" font-weight="bold" lengthAdjust="spacing" textLength="18" x="1110.5" y="605.8169">15</text><text fill="#000000" font-family="sans-serif" font-size="13" lengthAdjust="spacing" textLength="41" x="1132.5" y="605.8169">create</text><rect fill="#E3E3E3" height="46.5938" rx="2.5" ry="2.5" style="stroke:#181818;stroke-width:0.5;" width="107" x="1313" y="589.75"/><text fill="#000000" font-family="sans-serif" font-size="14" lengthAdjust="spacing" textLength="86" x="1323.5" y="609.7451">greenSpace</text><text fill="#000000" font-family="sans-serif" font-size="14" lengthAdjust="spacing" textLength="93" x="1320" y="626.042">:GreenSpace</text><line style="stroke:#181818;stroke-width:1.0;" x1="1103.5" x2="1150.5" y1="663.4766" y2="663.4766"/><line style="stroke:#181818;stroke-width:1.0;" x1="1150.5" x2="1150.5" y1="663.4766" y2="676.4766"/><line style="stroke:#181818;stroke-width:1.0;" x1="1109.5" x2="1150.5" y1="676.4766" y2="676.4766"/><polygon fill="#181818" points="1119.5,672.4766,1109.5,676.4766,1119.5,680.4766,1115.5,676.4766" style="stroke:#181818;stroke-width:1.0;"/><text fill="#000000" font-family="sans-serif" font-size="13" font-weight="bold" lengthAdjust="spacing" textLength="18" x="1115.5" y="658.4106">16</text><text fill="#000000" font-family="sans-serif" font-size="13" lengthAdjust="spacing" textLength="188" x="1137.5" y="658.4106">addGreenSpace(greenSpace)</text><line style="stroke:#181818;stroke-width:1.0;" x1="1108.5" x2="1155.5" y1="705.6094" y2="705.6094"/><line style="stroke:#181818;stroke-width:1.0;" x1="1155.5" x2="1155.5" y1="705.6094" y2="718.6094"/><line style="stroke:#181818;stroke-width:1.0;" x1="1114.5" x2="1155.5" y1="718.6094" y2="718.6094"/><polygon fill="#181818" points="1124.5,714.6094,1114.5,718.6094,1124.5,722.6094,1120.5,718.6094" style="stroke:#181818;stroke-width:1.0;"/><text fill="#000000" font-family="sans-serif" font-size="13" font-weight="bold" lengthAdjust="spacing" textLength="18" x="1120.5" y="700.5435">17</text><text fill="#000000" font-family="sans-serif" font-size="13" lengthAdjust="spacing" textLength="217" x="1142.5" y="700.5435">validateGreenSpace(greenSpace)</text><line style="stroke:#181818;stroke-width:1.0;stroke-dasharray:2.0,2.0;" x1="1113.5" x2="1155.5" y1="757.7422" y2="757.7422"/><line style="stroke:#181818;stroke-width:1.0;stroke-dasharray:2.0,2.0;" x1="1155.5" x2="1155.5" y1="757.7422" y2="770.7422"/><line style="stroke:#181818;stroke-width:1.0;stroke-dasharray:2.0,2.0;" x1="1108.5" x2="1155.5" y1="770.7422" y2="770.7422"/><polygon fill="#181818" points="1118.5,766.7422,1108.5,770.7422,1118.5,774.7422,1114.5,770.7422" style="stroke:#181818;stroke-width:1.0;"/><text fill="#000000" font-family="sans-serif" font-size="13" font-weight="bold" lengthAdjust="spacing" textLength="18" x="1120.5" y="752.6763">18</text><text fill="#000000" font-family="sans-serif" font-size="13" lengthAdjust="spacing" textLength="4" x="1142.5" y="752.6763">&#160;</text><line style="stroke:#181818;stroke-width:1.0;stroke-dasharray:2.0,2.0;" x1="1108.5" x2="1150.5" y1="799.875" y2="799.875"/><line style="stroke:#181818;stroke-width:1.0;stroke-dasharray:2.0,2.0;" x1="1150.5" x2="1150.5" y1="799.875" y2="812.875"/><line style="stroke:#181818;stroke-width:1.0;stroke-dasharray:2.0,2.0;" x1="1103.5" x2="1150.5" y1="812.875" y2="812.875"/><polygon fill="#181818" points="1113.5,808.875,1103.5,812.875,1113.5,816.875,1109.5,812.875" style="stroke:#181818;stroke-width:1.0;"/><text fill="#000000" font-family="sans-serif" font-size="13" font-weight="bold" lengthAdjust="spacing" textLength="18" x="1115.5" y="794.8091">19</text><text fill="#000000" font-family="sans-serif" font-size="13" lengthAdjust="spacing" textLength="4" x="1137.5" y="794.8091">&#160;</text><polygon fill="#181818" points="626.5,833.0078,616.5,837.0078,626.5,841.0078,622.5,837.0078" style="stroke:#181818;stroke-width:1.0;"/><line style="stroke:#181818;stroke-width:1.0;stroke-dasharray:2.0,2.0;" x1="620.5" x2="1097.5" y1="837.0078" y2="837.0078"/><text fill="#000000" font-family="sans-serif" font-size="13" font-weight="bold" lengthAdjust="spacing" textLength="18" x="632.5" y="831.9419">20</text><text fill="#000000" font-family="sans-serif" font-size="13" lengthAdjust="spacing" textLength="76" x="654.5" y="831.9419">greenSpace</text><polygon fill="#181818" points="346.5,862.1406,336.5,866.1406,346.5,870.1406,342.5,866.1406" style="stroke:#181818;stroke-width:1.0;"/><line style="stroke:#181818;stroke-width:1.0;stroke-dasharray:2.0,2.0;" x1="340.5" x2="609.5" y1="866.1406" y2="866.1406"/><text fill="#000000" font-family="sans-serif" font-size="13" font-weight="bold" lengthAdjust="spacing" textLength="18" x="352.5" y="861.0747">21</text><text fill="#000000" font-family="sans-serif" font-size="13" lengthAdjust="spacing" textLength="76" x="374.5" y="861.0747">greenSpace</text><polygon fill="#181818" points="103.5,891.2734,93.5,895.2734,103.5,899.2734,99.5,895.2734" style="stroke:#181818;stroke-width:1.0;"/><line style="stroke:#181818;stroke-width:1.0;stroke-dasharray:2.0,2.0;" x1="97.5" x2="329.5" y1="895.2734" y2="895.2734"/><text fill="#000000" font-family="sans-serif" font-size="13" font-weight="bold" lengthAdjust="spacing" textLength="18" x="109.5" y="890.2075">22</text><text fill="#000000" font-family="sans-serif" font-size="13" lengthAdjust="spacing" textLength="184" x="131.5" y="890.2075">shows operation (in)success</text><!--SRC=[lPJ1JkCm48RlUOfHJosYBz034W9KLGA16dhZCYH3QZMnW-qKTPz-9mvnciQX5IjjJwaz_pU_npCsEo5Br5X0eQHAjbeL15PN51c_KsAomunYUyW9D2KMPPOV1vWjfkfBo0m-C3SKHLPO3jsi8ARFYcH2S2ymgqEdSNm_WpdSvfQqH2ls1C-I9LXP9QlYdJH_9rPfc2mraOIOqnCyeMGBUW9euA4eStKWYZYx5OaeKLgOBDQK2SDK9tEgpSh5RrPd8- -Kj5hb-NU6kzVruq1JAYFObo3ZOlp28HPrFTX-NwAF56zo27Xvl7tjApBlfuEpSXbOTeHG_1YnnsdA-FIoVbW-HwxUOe-Mkif6mB_s7ynlwhjSi6W7Ld4BDEK3R1o0gPbEuabSSxV0EbRNzRowOaAYYNURhNQRztsc1SEvOuo552t2L691rqRyeMjavSpfKXfa6JYrXv9CowBKqQAmmx0DirLVW7dU-6XFJEcR19Gfs2r1ekI7q0Nti99GaAmkTcUgzq9OqxWwKpPNajDs3TR5GrptkYK7w40PsL0lJODwNvmM4cZuXhcIXfy4TZNp6iyAJOcF2X7dttRhOtS3uoL7vVqHtPgkX-pioNkEtLZwPQVlF0KdBk2j3sdC7Dr3Y7BQFSDR3Cb-qHxZsOC9whbeNeh118_5ZnZ5D3tos0NDeWiC_YBV7dF18qOZIVybvqZIqplyZzGe-XayQBsBlVhkTM_NEA1hsF4drO0gIJTFvbJ8cQcIX8m9l9n_0G00]--></g></svg>