<?xml version="1.0" encoding="us-ascii" standalone="no"?><svg xmlns="http://www.w3.org/2000/svg" xmlns:xlink="http://www.w3.org/1999/xlink" contentStyleType="text/css" height="1614px" preserveAspectRatio="none" style="width:2091px;height:1614px;background:#FFFFFF;" version="1.1" viewBox="0 0 2091 1614" width="2091px" zoomAndPan="magnify"><defs/><g><text fill="#000000" font-family="sans-serif" font-size="14" font-weight="bold" lengthAdjust="spacing" textLength="363" x="863" y="27.9951">UI Sequence Diagram (SSD) - Alternative One</text><rect fill="#FFFFFF" height="1396.2031" style="stroke:#181818;stroke-width:1.0;" width="10" x="82.5" y="128.5938"/><rect fill="#FFFFFF" height="271.2266" style="stroke:#181818;stroke-width:1.0;" width="10" x="350.5" y="149.7266"/><rect fill="#FFFFFF" height="261.1953" style="stroke:#181818;stroke-width:1.0;" width="10" x="350.5" y="450.0859"/><rect fill="#FFFFFF" height="44.2656" style="stroke:#181818;stroke-width:1.0;" width="10" x="350.5" y="740.4141"/><rect fill="#FFFFFF" height="701.9844" style="stroke:#181818;stroke-width:1.0;" width="10" x="350.5" y="813.8125"/><rect fill="#FFFFFF" height="232.0938" style="stroke:#181818;stroke-width:1.0;" width="10" x="639.5" y="188.8594"/><rect fill="#FFFFFF" height="156.6641" style="stroke:#181818;stroke-width:1.0;" width="10" x="644.5" y="228.1563"/><rect fill="#FFFFFF" height="187.7969" style="stroke:#181818;stroke-width:1.0;" width="10" x="639.5" y="479.2188"/><rect fill="#FFFFFF" height="643.7188" style="stroke:#181818;stroke-width:1.0;" width="10" x="639.5" y="842.9453"/><rect fill="#FFFFFF" height="315.3281" style="stroke:#181818;stroke-width:1.0;" width="10" x="644.5" y="880.0781"/><rect fill="#FFFFFF" height="273.1953" style="stroke:#181818;stroke-width:1.0;" width="10" x="649.5" y="922.2109"/><rect fill="#FFFFFF" height="29.1328" style="stroke:#181818;stroke-width:1.0;" width="10" x="923.5" y="262.2891"/><rect fill="#FFFFFF" height="29.1328" style="stroke:#181818;stroke-width:1.0;" width="10" x="1040.5" y="320.5547"/><rect fill="#FFFFFF" height="29.1328" style="stroke:#181818;stroke-width:1.0;" width="10" x="1040.5" y="956.3438"/><rect fill="#FFFFFF" height="29.1328" style="stroke:#181818;stroke-width:1.0;" width="10" x="1203.5" y="1014.6094"/><rect fill="#FFFFFF" height="29.1328" style="stroke:#181818;stroke-width:1.0;" width="10" x="1365.5" y="1072.875"/><rect fill="#FFFFFF" height="29.1328" style="stroke:#181818;stroke-width:1.0;" width="10" x="1457.5" y="1131.1406"/><rect fill="#FFFFFF" height="200.9922" style="stroke:#181818;stroke-width:1.0;" width="10" x="1588.5" y="1256.5391"/><rect fill="#FFFFFF" height="70.1328" style="stroke:#181818;stroke-width:1.0;" width="10" x="1593.5" y="1351.2656"/><rect fill="#FFFFFF" height="28" style="stroke:#181818;stroke-width:1.0;" width="10" x="1598.5" y="1393.3984"/><rect fill="#FFFFFF" height="129.5313" style="stroke:#181818;stroke-width:1.0;" width="10" x="1822.5" y="508.3516"/><rect fill="#FFFFFF" height="71.2656" style="stroke:#181818;stroke-width:1.0;" width="10" x="1927.5" y="537.4844"/><line style="stroke:#181818;stroke-width:0.5;stroke-dasharray:5.0,5.0;" x1="87" x2="87" y1="118.5938" y2="1533.7969"/><line style="stroke:#181818;stroke-width:0.5;stroke-dasharray:5.0,5.0;" x1="355.5" x2="355.5" y1="118.5938" y2="1533.7969"/><line style="stroke:#181818;stroke-width:0.5;stroke-dasharray:5.0,5.0;" x1="644" x2="644" y1="188.375" y2="1533.7969"/><line style="stroke:#181818;stroke-width:0.5;stroke-dasharray:5.0,5.0;" x1="928" x2="928" y1="118.5938" y2="1533.7969"/><line style="stroke:#181818;stroke-width:0.5;stroke-dasharray:5.0,5.0;" x1="1045" x2="1045" y1="118.5938" y2="1533.7969"/><line style="stroke:#181818;stroke-width:0.5;stroke-dasharray:5.0,5.0;" x1="1208" x2="1208" y1="118.5938" y2="1533.7969"/><line style="stroke:#181818;stroke-width:0.5;stroke-dasharray:5.0,5.0;" x1="1370" x2="1370" y1="118.5938" y2="1533.7969"/><line style="stroke:#181818;stroke-width:0.5;stroke-dasharray:5.0,5.0;" x1="1462" x2="1462" y1="118.5938" y2="1533.7969"/><line style="stroke:#181818;stroke-width:0.5;stroke-dasharray:5.0,5.0;" x1="1593" x2="1593" y1="118.5938" y2="1533.7969"/><line style="stroke:#181818;stroke-width:0.5;stroke-dasharray:5.0,5.0;" x1="1827" x2="1827" y1="118.5938" y2="1533.7969"/><line style="stroke:#181818;stroke-width:0.5;stroke-dasharray:5.0,5.0;" x1="1932.5" x2="1932.5" y1="118.5938" y2="1533.7969"/><line style="stroke:#181818;stroke-width:0.5;stroke-dasharray:5.0,5.0;" x1="2031" x2="2031" y1="1303.3359" y2="1533.7969"/><text fill="#000000" font-family="sans-serif" font-size="14" lengthAdjust="spacing" textLength="159" x="5" y="115.292">Green Space Manager</text><ellipse cx="87.5" cy="50.7969" fill="#E3E3E3" rx="8" ry="8" style="stroke:#181818;stroke-width:0.5;"/><path d="M87.5,58.7969 L87.5,85.7969 M74.5,66.7969 L100.5,66.7969 M87.5,85.7969 L74.5,100.7969 M87.5,85.7969 L100.5,100.7969 " fill="none" style="stroke:#181818;stroke-width:0.5;"/><text fill="#000000" font-family="sans-serif" font-size="14" lengthAdjust="spacing" textLength="159" x="5" y="1545.792">Green Space Manager</text><ellipse cx="87.5" cy="1557.5938" fill="#E3E3E3" rx="8" ry="8" style="stroke:#181818;stroke-width:0.5;"/><path d="M87.5,1565.5938 L87.5,1592.5938 M74.5,1573.5938 L100.5,1573.5938 M87.5,1592.5938 L74.5,1607.5938 M87.5,1592.5938 L100.5,1607.5938 " fill="none" style="stroke:#181818;stroke-width:0.5;"/><rect fill="#E3E3E3" height="30.2969" rx="2.5" ry="2.5" style="stroke:#181818;stroke-width:0.5;" width="180" x="265.5" y="87.2969"/><text fill="#000000" font-family="sans-serif" font-size="14" lengthAdjust="spacing" textLength="166" x="272.5" y="107.292">:RegisterGreenSpaceUI</text><rect fill="#E3E3E3" height="30.2969" rx="2.5" ry="2.5" style="stroke:#181818;stroke-width:0.5;" width="180" x="265.5" y="1532.7969"/><text fill="#000000" font-family="sans-serif" font-size="14" lengthAdjust="spacing" textLength="166" x="272.5" y="1552.792">:RegisterGreenSpaceUI</text><rect fill="#E3E3E3" height="30.2969" rx="2.5" ry="2.5" style="stroke:#181818;stroke-width:0.5;" width="237" x="526" y="1532.7969"/><text fill="#000000" font-family="sans-serif" font-size="14" lengthAdjust="spacing" textLength="223" x="533" y="1552.792">:RegisterGreenSpaceController</text><rect fill="#E3E3E3" height="30.2969" rx="2.5" ry="2.5" style="stroke:#181818;stroke-width:0.5;" width="107" x="875" y="87.2969"/><text fill="#000000" font-family="sans-serif" font-size="14" lengthAdjust="spacing" textLength="93" x="882" y="107.292">:Repositories</text><rect fill="#E3E3E3" height="30.2969" rx="2.5" ry="2.5" style="stroke:#181818;stroke-width:0.5;" width="107" x="875" y="1532.7969"/><text fill="#000000" font-family="sans-serif" font-size="14" lengthAdjust="spacing" textLength="93" x="882" y="1552.792">:Repositories</text><rect fill="#E3E3E3" height="46.5938" rx="2.5" ry="2.5" style="stroke:#181818;stroke-width:0.5;" width="107" x="992" y="71"/><text fill="#000000" font-family="sans-serif" font-size="14" lengthAdjust="spacing" textLength="84" x="1003.5" y="90.9951">repositories</text><text fill="#000000" font-family="sans-serif" font-size="14" lengthAdjust="spacing" textLength="93" x="999" y="107.292">:Repositories</text><rect fill="#E3E3E3" height="46.5938" rx="2.5" ry="2.5" style="stroke:#181818;stroke-width:0.5;" width="107" x="992" y="1532.7969"/><text fill="#000000" font-family="sans-serif" font-size="14" lengthAdjust="spacing" textLength="84" x="1003.5" y="1552.792">repositories</text><text fill="#000000" font-family="sans-serif" font-size="14" lengthAdjust="spacing" textLength="93" x="999" y="1569.0889">:Repositories</text><rect fill="#E3E3E3" height="46.5938" rx="2.5" ry="2.5" style="stroke:#181818;stroke-width:0.5;" width="199" x="1109" y="71"/><text fill="#000000" font-family="sans-serif" font-size="14" lengthAdjust="spacing" textLength="179" x="1119" y="90.9951">authenticationRepository</text><text fill="#000000" font-family="sans-serif" font-size="14" lengthAdjust="spacing" textLength="185" x="1116" y="107.292">:AuthenticationRepository</text><rect fill="#E3E3E3" height="46.5938" rx="2.5" ry="2.5" style="stroke:#181818;stroke-width:0.5;" width="199" x="1109" y="1532.7969"/><text fill="#000000" font-family="sans-serif" font-size="14" lengthAdjust="spacing" textLength="179" x="1119" y="1552.792">authenticationRepository</text><text fill="#000000" font-family="sans-serif" font-size="14" lengthAdjust="spacing" textLength="185" x="1116" y="1569.0889">:AuthenticationRepository</text><rect fill="#E3E3E3" height="46.5938" rx="2.5" ry="2.5" style="stroke:#181818;stroke-width:0.5;" width="105" x="1318" y="71"/><text fill="#000000" font-family="sans-serif" font-size="14" lengthAdjust="spacing" textLength="85" x="1328" y="90.9951">userSession</text><text fill="#000000" font-family="sans-serif" font-size="14" lengthAdjust="spacing" textLength="91" x="1325" y="107.292">:UserSession</text><rect fill="#E3E3E3" height="46.5938" rx="2.5" ry="2.5" style="stroke:#181818;stroke-width:0.5;" width="105" x="1318" y="1532.7969"/><text fill="#000000" font-family="sans-serif" font-size="14" lengthAdjust="spacing" textLength="85" x="1328" y="1552.792">userSession</text><text fill="#000000" font-family="sans-serif" font-size="14" lengthAdjust="spacing" textLength="91" x="1325" y="1569.0889">:UserSession</text><rect fill="#E3E3E3" height="46.5938" rx="2.5" ry="2.5" style="stroke:#181818;stroke-width:0.5;" width="59" x="1433" y="71"/><text fill="#000000" font-family="sans-serif" font-size="14" lengthAdjust="spacing" textLength="40" x="1442.5" y="90.9951">email</text><text fill="#000000" font-family="sans-serif" font-size="14" lengthAdjust="spacing" textLength="45" x="1440" y="107.292">:Email</text><rect fill="#E3E3E3" height="46.5938" rx="2.5" ry="2.5" style="stroke:#181818;stroke-width:0.5;" width="59" x="1433" y="1532.7969"/><text fill="#000000" font-family="sans-serif" font-size="14" lengthAdjust="spacing" textLength="40" x="1442.5" y="1552.792">email</text><text fill="#000000" font-family="sans-serif" font-size="14" lengthAdjust="spacing" textLength="45" x="1440" y="1569.0889">:Email</text><rect fill="#E3E3E3" height="46.5938" rx="2.5" ry="2.5" style="stroke:#181818;stroke-width:0.5;" width="183" x="1502" y="71"/><text fill="#000000" font-family="sans-serif" font-size="14" lengthAdjust="spacing" textLength="162" x="1512.5" y="90.9951">greenSpaceRepository</text><text fill="#000000" font-family="sans-serif" font-size="14" lengthAdjust="spacing" textLength="169" x="1509" y="107.292">:GreenSpaceRepository</text><rect fill="#E3E3E3" height="46.5938" rx="2.5" ry="2.5" style="stroke:#181818;stroke-width:0.5;" width="183" x="1502" y="1532.7969"/><text fill="#000000" font-family="sans-serif" font-size="14" lengthAdjust="spacing" textLength="162" x="1512.5" y="1552.792">greenSpaceRepository</text><text fill="#000000" font-family="sans-serif" font-size="14" lengthAdjust="spacing" textLength="169" x="1509" y="1569.0889">:GreenSpaceRepository</text><rect fill="#E3E3E3" height="30.2969" rx="2.5" ry="2.5" style="stroke:#181818;stroke-width:0.5;" width="107" x="1774" y="87.2969"/><text fill="#000000" font-family="sans-serif" font-size="14" lengthAdjust="spacing" textLength="93" x="1781" y="107.292">:GreenSpace</text><rect fill="#E3E3E3" height="30.2969" rx="2.5" ry="2.5" style="stroke:#181818;stroke-width:0.5;" width="107" x="1774" y="1532.7969"/><text fill="#000000" font-family="sans-serif" font-size="14" lengthAdjust="spacing" textLength="93" x="1781" y="1552.792">:GreenSpace</text><rect fill="#E3E3E3" height="30.2969" rx="2.5" ry="2.5" style="stroke:#181818;stroke-width:0.5;" width="48" x="1908.5" y="87.2969"/><text fill="#000000" font-family="sans-serif" font-size="14" lengthAdjust="spacing" textLength="34" x="1915.5" y="107.292">:Size</text><rect fill="#E3E3E3" height="30.2969" rx="2.5" ry="2.5" style="stroke:#181818;stroke-width:0.5;" width="48" x="1908.5" y="1532.7969"/><text fill="#000000" font-family="sans-serif" font-size="14" lengthAdjust="spacing" textLength="34" x="1915.5" y="1552.792">:Size</text><rect fill="#E3E3E3" height="46.5938" rx="2.5" ry="2.5" style="stroke:#181818;stroke-width:0.5;" width="107" x="1978" y="1532.7969"/><text fill="#000000" font-family="sans-serif" font-size="14" lengthAdjust="spacing" textLength="86" x="1988.5" y="1552.792">greenSpace</text><text fill="#000000" font-family="sans-serif" font-size="14" lengthAdjust="spacing" textLength="93" x="1985" y="1569.0889">:GreenSpace</text><rect fill="#FFFFFF" height="1396.2031" style="stroke:#181818;stroke-width:1.0;" width="10" x="82.5" y="128.5938"/><rect fill="#FFFFFF" height="271.2266" style="stroke:#181818;stroke-width:1.0;" width="10" x="350.5" y="149.7266"/><rect fill="#FFFFFF" height="261.1953" style="stroke:#181818;stroke-width:1.0;" width="10" x="350.5" y="450.0859"/><rect fill="#FFFFFF" height="44.2656" style="stroke:#181818;stroke-width:1.0;" width="10" x="350.5" y="740.4141"/><rect fill="#FFFFFF" height="701.9844" style="stroke:#181818;stroke-width:1.0;" width="10" x="350.5" y="813.8125"/><rect fill="#FFFFFF" height="232.0938" style="stroke:#181818;stroke-width:1.0;" width="10" x="639.5" y="188.8594"/><rect fill="#FFFFFF" height="156.6641" style="stroke:#181818;stroke-width:1.0;" width="10" x="644.5" y="228.1563"/><rect fill="#FFFFFF" height="187.7969" style="stroke:#181818;stroke-width:1.0;" width="10" x="639.5" y="479.2188"/><rect fill="#FFFFFF" height="643.7188" style="stroke:#181818;stroke-width:1.0;" width="10" x="639.5" y="842.9453"/><rect fill="#FFFFFF" height="315.3281" style="stroke:#181818;stroke-width:1.0;" width="10" x="644.5" y="880.0781"/><rect fill="#FFFFFF" height="273.1953" style="stroke:#181818;stroke-width:1.0;" width="10" x="649.5" y="922.2109"/><rect fill="#FFFFFF" height="29.1328" style="stroke:#181818;stroke-width:1.0;" width="10" x="923.5" y="262.2891"/><rect fill="#FFFFFF" height="29.1328" style="stroke:#181818;stroke-width:1.0;" width="10" x="1040.5" y="320.5547"/><rect fill="#FFFFFF" height="29.1328" style="stroke:#181818;stroke-width:1.0;" width="10" x="1040.5" y="956.3438"/><rect fill="#FFFFFF" height="29.1328" style="stroke:#181818;stroke-width:1.0;" width="10" x="1203.5" y="1014.6094"/><rect fill="#FFFFFF" height="29.1328" style="stroke:#181818;stroke-width:1.0;" width="10" x="1365.5" y="1072.875"/><rect fill="#FFFFFF" height="29.1328" style="stroke:#181818;stroke-width:1.0;" width="10" x="1457.5" y="1131.1406"/><rect fill="#FFFFFF" height="200.9922" style="stroke:#181818;stroke-width:1.0;" width="10" x="1588.5" y="1256.5391"/><rect fill="#FFFFFF" height="70.1328" style="stroke:#181818;stroke-width:1.0;" width="10" x="1593.5" y="1351.2656"/><rect fill="#FFFFFF" height="28" style="stroke:#181818;stroke-width:1.0;" width="10" x="1598.5" y="1393.3984"/><rect fill="#FFFFFF" height="129.5313" style="stroke:#181818;stroke-width:1.0;" width="10" x="1822.5" y="508.3516"/><rect fill="#FFFFFF" height="71.2656" style="stroke:#181818;stroke-width:1.0;" width="10" x="1927.5" y="537.4844"/><polygon fill="#181818" points="338.5,145.7266,348.5,149.7266,338.5,153.7266,342.5,149.7266" style="stroke:#181818;stroke-width:1.0;"/><line style="stroke:#181818;stroke-width:1.0;" x1="92.5" x2="344.5" y1="149.7266" y2="149.7266"/><text fill="#000000" font-family="sans-serif" font-size="13" font-weight="bold" lengthAdjust="spacing" textLength="9" x="99.5" y="144.6606">1</text><text fill="#000000" font-family="sans-serif" font-size="13" lengthAdjust="spacing" textLength="189" x="112.5" y="144.6606">ask to register a green space</text><polygon fill="#181818" points="514,174.8594,524,178.8594,514,182.8594,518,178.8594" style="stroke:#181818;stroke-width:1.0;"/><line style="stroke:#181818;stroke-width:1.0;" x1="360.5" x2="520" y1="178.8594" y2="178.8594"/><text fill="#000000" font-family="sans-serif" font-size="13" font-weight="bold" lengthAdjust="spacing" textLength="9" x="367.5" y="173.7935">2</text><text fill="#000000" font-family="sans-serif" font-size="13" lengthAdjust="spacing" textLength="41" x="380.5" y="173.7935">create</text><rect fill="#E3E3E3" height="30.2969" rx="2.5" ry="2.5" style="stroke:#181818;stroke-width:0.5;" width="237" x="526" y="157.7266"/><text fill="#000000" font-family="sans-serif" font-size="14" lengthAdjust="spacing" textLength="223" x="533" y="177.7217">:RegisterGreenSpaceController</text><line style="stroke:#181818;stroke-width:1.0;" x1="649.5" x2="696.5" y1="215.1563" y2="215.1563"/><line style="stroke:#181818;stroke-width:1.0;" x1="696.5" x2="696.5" y1="215.1563" y2="228.1563"/><line style="stroke:#181818;stroke-width:1.0;" x1="655.5" x2="696.5" y1="228.1563" y2="228.1563"/><polygon fill="#181818" points="665.5,224.1563,655.5,228.1563,665.5,232.1563,661.5,228.1563" style="stroke:#181818;stroke-width:1.0;"/><text fill="#000000" font-family="sans-serif" font-size="13" font-weight="bold" lengthAdjust="spacing" textLength="9" x="661.5" y="210.0903">3</text><text fill="#000000" font-family="sans-serif" font-size="13" lengthAdjust="spacing" textLength="179" x="674.5" y="210.0903">getGreenSpaceRepository()</text><polygon fill="#181818" points="911.5,258.2891,921.5,262.2891,911.5,266.2891,915.5,262.2891" style="stroke:#181818;stroke-width:1.0;"/><line style="stroke:#181818;stroke-width:1.0;" x1="654.5" x2="917.5" y1="262.2891" y2="262.2891"/><text fill="#000000" font-family="sans-serif" font-size="13" font-weight="bold" lengthAdjust="spacing" textLength="9" x="661.5" y="257.2231">4</text><text fill="#000000" font-family="sans-serif" font-size="13" lengthAdjust="spacing" textLength="86" x="674.5" y="257.2231">getInstance()</text><polygon fill="#181818" points="665.5,287.4219,655.5,291.4219,665.5,295.4219,661.5,291.4219" style="stroke:#181818;stroke-width:1.0;"/><line style="stroke:#181818;stroke-width:1.0;stroke-dasharray:2.0,2.0;" x1="659.5" x2="927.5" y1="291.4219" y2="291.4219"/><text fill="#000000" font-family="sans-serif" font-size="13" font-weight="bold" lengthAdjust="spacing" textLength="9" x="671.5" y="286.356">5</text><text fill="#000000" font-family="sans-serif" font-size="13" lengthAdjust="spacing" textLength="77" x="684.5" y="286.356">repositories</text><polygon fill="#181818" points="1028.5,316.5547,1038.5,320.5547,1028.5,324.5547,1032.5,320.5547" style="stroke:#181818;stroke-width:1.0;"/><line style="stroke:#181818;stroke-width:1.0;" x1="654.5" x2="1034.5" y1="320.5547" y2="320.5547"/><text fill="#000000" font-family="sans-serif" font-size="13" font-weight="bold" lengthAdjust="spacing" textLength="9" x="661.5" y="315.4888">6</text><text fill="#000000" font-family="sans-serif" font-size="13" lengthAdjust="spacing" textLength="179" x="674.5" y="315.4888">getGreenSpaceRepository()</text><polygon fill="#181818" points="665.5,345.6875,655.5,349.6875,665.5,353.6875,661.5,349.6875" style="stroke:#181818;stroke-width:1.0;"/><line style="stroke:#181818;stroke-width:1.0;stroke-dasharray:2.0,2.0;" x1="659.5" x2="1044.5" y1="349.6875" y2="349.6875"/><text fill="#000000" font-family="sans-serif" font-size="13" font-weight="bold" lengthAdjust="spacing" textLength="9" x="671.5" y="344.6216">7</text><text fill="#000000" font-family="sans-serif" font-size="13" lengthAdjust="spacing" textLength="146" x="684.5" y="344.6216">greenSpaceRepository</text><line style="stroke:#181818;stroke-width:1.0;stroke-dasharray:2.0,2.0;" x1="654.5" x2="696.5" y1="383.8203" y2="383.8203"/><line style="stroke:#181818;stroke-width:1.0;stroke-dasharray:2.0,2.0;" x1="696.5" x2="696.5" y1="383.8203" y2="396.8203"/><line style="stroke:#181818;stroke-width:1.0;stroke-dasharray:2.0,2.0;" x1="649.5" x2="696.5" y1="396.8203" y2="396.8203"/><polygon fill="#181818" points="659.5,392.8203,649.5,396.8203,659.5,400.8203,655.5,396.8203" style="stroke:#181818;stroke-width:1.0;"/><text fill="#000000" font-family="sans-serif" font-size="13" font-weight="bold" lengthAdjust="spacing" textLength="9" x="661.5" y="378.7544">8</text><text fill="#000000" font-family="sans-serif" font-size="13" lengthAdjust="spacing" textLength="146" x="674.5" y="378.7544">greenSpaceRepository</text><polygon fill="#181818" points="103.5,416.9531,93.5,420.9531,103.5,424.9531,99.5,420.9531" style="stroke:#181818;stroke-width:1.0;"/><line style="stroke:#181818;stroke-width:1.0;stroke-dasharray:2.0,2.0;" x1="97.5" x2="354.5" y1="420.9531" y2="420.9531"/><text fill="#000000" font-family="sans-serif" font-size="13" font-weight="bold" lengthAdjust="spacing" textLength="9" x="109.5" y="415.8872">9</text><text fill="#000000" font-family="sans-serif" font-size="13" lengthAdjust="spacing" textLength="221" x="122.5" y="415.8872">request data (name,area,address)</text><polygon fill="#181818" points="338.5,446.0859,348.5,450.0859,338.5,454.0859,342.5,450.0859" style="stroke:#181818;stroke-width:1.0;"/><line style="stroke:#181818;stroke-width:1.0;" x1="92.5" x2="344.5" y1="450.0859" y2="450.0859"/><text fill="#000000" font-family="sans-serif" font-size="13" font-weight="bold" lengthAdjust="spacing" textLength="18" x="99.5" y="445.02">10</text><text fill="#000000" font-family="sans-serif" font-size="13" lengthAdjust="spacing" textLength="138" x="121.5" y="445.02">types requested data</text><polygon fill="#181818" points="627.5,475.2188,637.5,479.2188,627.5,483.2188,631.5,479.2188" style="stroke:#181818;stroke-width:1.0;"/><line style="stroke:#181818;stroke-width:1.0;" x1="360.5" x2="633.5" y1="479.2188" y2="479.2188"/><text fill="#000000" font-family="sans-serif" font-size="13" font-weight="bold" lengthAdjust="spacing" textLength="18" x="367.5" y="474.1528">11</text><text fill="#000000" font-family="sans-serif" font-size="13" lengthAdjust="spacing" textLength="150" x="389.5" y="474.1528">getGreenSpacesSizes()</text><polygon fill="#181818" points="1810.5,504.3516,1820.5,508.3516,1810.5,512.3516,1814.5,508.3516" style="stroke:#181818;stroke-width:1.0;"/><line style="stroke:#181818;stroke-width:1.0;" x1="649.5" x2="1816.5" y1="508.3516" y2="508.3516"/><text fill="#000000" font-family="sans-serif" font-size="13" font-weight="bold" lengthAdjust="spacing" textLength="18" x="656.5" y="503.2856">12</text><text fill="#000000" font-family="sans-serif" font-size="13" lengthAdjust="spacing" textLength="78" x="678.5" y="503.2856">GreenSpace</text><polygon fill="#181818" points="1915.5,533.4844,1925.5,537.4844,1915.5,541.4844,1919.5,537.4844" style="stroke:#181818;stroke-width:1.0;"/><line style="stroke:#181818;stroke-width:1.0;" x1="1832.5" x2="1921.5" y1="537.4844" y2="537.4844"/><text fill="#000000" font-family="sans-serif" font-size="13" font-weight="bold" lengthAdjust="spacing" textLength="18" x="1839.5" y="532.4185">13</text><text fill="#000000" font-family="sans-serif" font-size="13" lengthAdjust="spacing" textLength="27" x="1861.5" y="532.4185">Size</text><line style="stroke:#181818;stroke-width:1.0;" x1="1937.5" x2="1979.5" y1="566.6172" y2="566.6172"/><line style="stroke:#181818;stroke-width:1.0;" x1="1979.5" x2="1979.5" y1="566.6172" y2="579.6172"/><line style="stroke:#181818;stroke-width:1.0;" x1="1938.5" x2="1979.5" y1="579.6172" y2="579.6172"/><polygon fill="#181818" points="1948.5,575.6172,1938.5,579.6172,1948.5,583.6172,1944.5,579.6172" style="stroke:#181818;stroke-width:1.0;"/><text fill="#000000" font-family="sans-serif" font-size="13" font-weight="bold" lengthAdjust="spacing" textLength="18" x="1944.5" y="561.5513">14</text><text fill="#000000" font-family="sans-serif" font-size="13" lengthAdjust="spacing" textLength="53" x="1966.5" y="561.5513">values()</text><polygon fill="#181818" points="1843.5,604.75,1833.5,608.75,1843.5,612.75,1839.5,608.75" style="stroke:#181818;stroke-width:1.0;"/><line style="stroke:#181818;stroke-width:1.0;stroke-dasharray:2.0,2.0;" x1="1837.5" x2="1931.5" y1="608.75" y2="608.75"/><text fill="#000000" font-family="sans-serif" font-size="13" font-weight="bold" lengthAdjust="spacing" textLength="18" x="1849.5" y="603.6841">15</text><text fill="#000000" font-family="sans-serif" font-size="13" lengthAdjust="spacing" textLength="49" x="1871.5" y="603.6841">sizeList</text><polygon fill="#181818" points="660.5,633.8828,650.5,637.8828,660.5,641.8828,656.5,637.8828" style="stroke:#181818;stroke-width:1.0;"/><line style="stroke:#181818;stroke-width:1.0;stroke-dasharray:2.0,2.0;" x1="654.5" x2="1826.5" y1="637.8828" y2="637.8828"/><text fill="#000000" font-family="sans-serif" font-size="13" font-weight="bold" lengthAdjust="spacing" textLength="18" x="666.5" y="632.8169">16</text><text fill="#000000" font-family="sans-serif" font-size="13" lengthAdjust="spacing" textLength="49" x="688.5" y="632.8169">sizeList</text><polygon fill="#181818" points="371.5,663.0156,361.5,667.0156,371.5,671.0156,367.5,667.0156" style="stroke:#181818;stroke-width:1.0;"/><line style="stroke:#181818;stroke-width:1.0;stroke-dasharray:2.0,2.0;" x1="365.5" x2="643.5" y1="667.0156" y2="667.0156"/><text fill="#000000" font-family="sans-serif" font-size="13" font-weight="bold" lengthAdjust="spacing" textLength="18" x="377.5" y="661.9497">17</text><text fill="#000000" font-family="sans-serif" font-size="13" lengthAdjust="spacing" textLength="49" x="399.5" y="661.9497">sizeList</text><polygon fill="#181818" points="103.5,707.2813,93.5,711.2813,103.5,715.2813,99.5,711.2813" style="stroke:#181818;stroke-width:1.0;"/><line style="stroke:#181818;stroke-width:1.0;stroke-dasharray:2.0,2.0;" x1="97.5" x2="354.5" y1="711.2813" y2="711.2813"/><text fill="#000000" font-family="sans-serif" font-size="13" font-weight="bold" lengthAdjust="spacing" textLength="18" x="109.5" y="698.6489">18</text><text fill="#000000" font-family="sans-serif" font-size="13" lengthAdjust="spacing" textLength="119" x="131.5" y="691.0825">shows list of sizes</text><text fill="#000000" font-family="sans-serif" font-size="13" lengthAdjust="spacing" textLength="152" x="135.5" y="706.2153">and request a selection</text><polygon fill="#181818" points="338.5,736.4141,348.5,740.4141,338.5,744.4141,342.5,740.4141" style="stroke:#181818;stroke-width:1.0;"/><line style="stroke:#181818;stroke-width:1.0;" x1="92.5" x2="344.5" y1="740.4141" y2="740.4141"/><text fill="#000000" font-family="sans-serif" font-size="13" font-weight="bold" lengthAdjust="spacing" textLength="18" x="99.5" y="735.3481">19</text><text fill="#000000" font-family="sans-serif" font-size="13" lengthAdjust="spacing" textLength="104" x="121.5" y="735.3481">select an option</text><polygon fill="#181818" points="103.5,780.6797,93.5,784.6797,103.5,788.6797,99.5,784.6797" style="stroke:#181818;stroke-width:1.0;"/><line style="stroke:#181818;stroke-width:1.0;stroke-dasharray:2.0,2.0;" x1="97.5" x2="354.5" y1="784.6797" y2="784.6797"/><text fill="#000000" font-family="sans-serif" font-size="13" font-weight="bold" lengthAdjust="spacing" textLength="18" x="109.5" y="772.0474">20</text><text fill="#000000" font-family="sans-serif" font-size="13" lengthAdjust="spacing" textLength="157" x="131.5" y="764.481">show all data registered</text><text fill="#000000" font-family="sans-serif" font-size="13" lengthAdjust="spacing" textLength="177" x="135.5" y="779.6138">and the confirmation menu</text><polygon fill="#181818" points="338.5,809.8125,348.5,813.8125,338.5,817.8125,342.5,813.8125" style="stroke:#181818;stroke-width:1.0;"/><line style="stroke:#181818;stroke-width:1.0;" x1="92.5" x2="344.5" y1="813.8125" y2="813.8125"/><text fill="#000000" font-family="sans-serif" font-size="13" font-weight="bold" lengthAdjust="spacing" textLength="18" x="99.5" y="808.7466">21</text><text fill="#000000" font-family="sans-serif" font-size="13" lengthAdjust="spacing" textLength="85" x="121.5" y="808.7466">submits data</text><polygon fill="#181818" points="627.5,838.9453,637.5,842.9453,627.5,846.9453,631.5,842.9453" style="stroke:#181818;stroke-width:1.0;"/><line style="stroke:#181818;stroke-width:1.0;" x1="360.5" x2="633.5" y1="842.9453" y2="842.9453"/><text fill="#000000" font-family="sans-serif" font-size="13" font-weight="bold" lengthAdjust="spacing" textLength="18" x="367.5" y="837.8794">22</text><text fill="#000000" font-family="sans-serif" font-size="13" lengthAdjust="spacing" textLength="238" x="389.5" y="837.8794">registerGreenSpace(name,size,area)</text><line style="stroke:#181818;stroke-width:1.0;" x1="649.5" x2="696.5" y1="867.0781" y2="867.0781"/><line style="stroke:#181818;stroke-width:1.0;" x1="696.5" x2="696.5" y1="867.0781" y2="880.0781"/><line style="stroke:#181818;stroke-width:1.0;" x1="655.5" x2="696.5" y1="880.0781" y2="880.0781"/><polygon fill="#181818" points="665.5,876.0781,655.5,880.0781,665.5,884.0781,661.5,880.0781" style="stroke:#181818;stroke-width:1.0;"/><text fill="#000000" font-family="sans-serif" font-size="13" font-weight="bold" lengthAdjust="spacing" textLength="18" x="661.5" y="862.0122">23</text><text fill="#000000" font-family="sans-serif" font-size="13" lengthAdjust="spacing" textLength="238" x="683.5" y="862.0122">registerGreenSpace(name,size,area)</text><line style="stroke:#181818;stroke-width:1.0;" x1="654.5" x2="701.5" y1="909.2109" y2="909.2109"/><line style="stroke:#181818;stroke-width:1.0;" x1="701.5" x2="701.5" y1="909.2109" y2="922.2109"/><line style="stroke:#181818;stroke-width:1.0;" x1="660.5" x2="701.5" y1="922.2109" y2="922.2109"/><polygon fill="#181818" points="670.5,918.2109,660.5,922.2109,670.5,926.2109,666.5,922.2109" style="stroke:#181818;stroke-width:1.0;"/><text fill="#000000" font-family="sans-serif" font-size="13" font-weight="bold" lengthAdjust="spacing" textLength="18" x="666.5" y="904.145">24</text><text fill="#000000" font-family="sans-serif" font-size="13" lengthAdjust="spacing" textLength="110" x="688.5" y="904.145">getResponsible()</text><polygon fill="#181818" points="1028.5,952.3438,1038.5,956.3438,1028.5,960.3438,1032.5,956.3438" style="stroke:#181818;stroke-width:1.0;"/><line style="stroke:#181818;stroke-width:1.0;" x1="659.5" x2="1034.5" y1="956.3438" y2="956.3438"/><text fill="#000000" font-family="sans-serif" font-size="13" font-weight="bold" lengthAdjust="spacing" textLength="18" x="666.5" y="951.2778">25</text><text fill="#000000" font-family="sans-serif" font-size="13" lengthAdjust="spacing" textLength="196" x="688.5" y="951.2778">getAuthenticationRepository()</text><polygon fill="#181818" points="670.5,981.4766,660.5,985.4766,670.5,989.4766,666.5,985.4766" style="stroke:#181818;stroke-width:1.0;"/><line style="stroke:#181818;stroke-width:1.0;stroke-dasharray:2.0,2.0;" x1="664.5" x2="1044.5" y1="985.4766" y2="985.4766"/><text fill="#000000" font-family="sans-serif" font-size="13" font-weight="bold" lengthAdjust="spacing" textLength="18" x="676.5" y="980.4106">26</text><text fill="#000000" font-family="sans-serif" font-size="13" lengthAdjust="spacing" textLength="164" x="698.5" y="980.4106">authenticationRepository</text><polygon fill="#181818" points="1191.5,1010.6094,1201.5,1014.6094,1191.5,1018.6094,1195.5,1014.6094" style="stroke:#181818;stroke-width:1.0;"/><line style="stroke:#181818;stroke-width:1.0;" x1="659.5" x2="1197.5" y1="1014.6094" y2="1014.6094"/><text fill="#000000" font-family="sans-serif" font-size="13" font-weight="bold" lengthAdjust="spacing" textLength="18" x="666.5" y="1009.5435">27</text><text fill="#000000" font-family="sans-serif" font-size="13" lengthAdjust="spacing" textLength="159" x="688.5" y="1009.5435">getCurrentUserSession()</text><polygon fill="#181818" points="670.5,1039.7422,660.5,1043.7422,670.5,1047.7422,666.5,1043.7422" style="stroke:#181818;stroke-width:1.0;"/><line style="stroke:#181818;stroke-width:1.0;stroke-dasharray:2.0,2.0;" x1="664.5" x2="1207.5" y1="1043.7422" y2="1043.7422"/><text fill="#000000" font-family="sans-serif" font-size="13" font-weight="bold" lengthAdjust="spacing" textLength="18" x="676.5" y="1038.6763">28</text><text fill="#000000" font-family="sans-serif" font-size="13" lengthAdjust="spacing" textLength="126" x="698.5" y="1038.6763">currentUserSession</text><polygon fill="#181818" points="1353.5,1068.875,1363.5,1072.875,1353.5,1076.875,1357.5,1072.875" style="stroke:#181818;stroke-width:1.0;"/><line style="stroke:#181818;stroke-width:1.0;" x1="659.5" x2="1359.5" y1="1072.875" y2="1072.875"/><text fill="#000000" font-family="sans-serif" font-size="13" font-weight="bold" lengthAdjust="spacing" textLength="18" x="666.5" y="1067.8091">29</text><text fill="#000000" font-family="sans-serif" font-size="13" lengthAdjust="spacing" textLength="73" x="688.5" y="1067.8091">getUserId()</text><polygon fill="#181818" points="670.5,1098.0078,660.5,1102.0078,670.5,1106.0078,666.5,1102.0078" style="stroke:#181818;stroke-width:1.0;"/><line style="stroke:#181818;stroke-width:1.0;stroke-dasharray:2.0,2.0;" x1="664.5" x2="1369.5" y1="1102.0078" y2="1102.0078"/><text fill="#000000" font-family="sans-serif" font-size="13" font-weight="bold" lengthAdjust="spacing" textLength="18" x="676.5" y="1096.9419">30</text><text fill="#000000" font-family="sans-serif" font-size="13" lengthAdjust="spacing" textLength="78" x="698.5" y="1096.9419">userSession</text><polygon fill="#181818" points="1445.5,1127.1406,1455.5,1131.1406,1445.5,1135.1406,1449.5,1131.1406" style="stroke:#181818;stroke-width:1.0;"/><line style="stroke:#181818;stroke-width:1.0;" x1="659.5" x2="1451.5" y1="1131.1406" y2="1131.1406"/><text fill="#000000" font-family="sans-serif" font-size="13" font-weight="bold" lengthAdjust="spacing" textLength="18" x="666.5" y="1126.0747">31</text><text fill="#000000" font-family="sans-serif" font-size="13" lengthAdjust="spacing" textLength="68" x="688.5" y="1126.0747">getEmail()</text><polygon fill="#181818" points="670.5,1156.2734,660.5,1160.2734,670.5,1164.2734,666.5,1160.2734" style="stroke:#181818;stroke-width:1.0;"/><line style="stroke:#181818;stroke-width:1.0;stroke-dasharray:2.0,2.0;" x1="664.5" x2="1461.5" y1="1160.2734" y2="1160.2734"/><text fill="#000000" font-family="sans-serif" font-size="13" font-weight="bold" lengthAdjust="spacing" textLength="18" x="676.5" y="1155.2075">32</text><text fill="#000000" font-family="sans-serif" font-size="13" lengthAdjust="spacing" textLength="37" x="698.5" y="1155.2075">email</text><line style="stroke:#181818;stroke-width:1.0;stroke-dasharray:2.0,2.0;" x1="659.5" x2="701.5" y1="1194.4063" y2="1194.4063"/><line style="stroke:#181818;stroke-width:1.0;stroke-dasharray:2.0,2.0;" x1="701.5" x2="701.5" y1="1194.4063" y2="1207.4063"/><line style="stroke:#181818;stroke-width:1.0;stroke-dasharray:2.0,2.0;" x1="654.5" x2="701.5" y1="1207.4063" y2="1207.4063"/><polygon fill="#181818" points="664.5,1203.4063,654.5,1207.4063,664.5,1211.4063,660.5,1207.4063" style="stroke:#181818;stroke-width:1.0;"/><text fill="#000000" font-family="sans-serif" font-size="13" font-weight="bold" lengthAdjust="spacing" textLength="18" x="666.5" y="1189.3403">33</text><text fill="#000000" font-family="sans-serif" font-size="13" lengthAdjust="spacing" textLength="37" x="688.5" y="1189.3403">email</text><polygon fill="#181818" points="1576.5,1252.5391,1586.5,1256.5391,1576.5,1260.5391,1580.5,1256.5391" style="stroke:#181818;stroke-width:1.0;"/><line style="stroke:#181818;stroke-width:1.0;" x1="649.5" x2="1582.5" y1="1256.5391" y2="1256.5391"/><text fill="#000000" font-family="sans-serif" font-size="13" font-weight="bold" lengthAdjust="spacing" textLength="18" x="656.5" y="1251.4731">34</text><text fill="#000000" font-family="sans-serif" font-size="13" lengthAdjust="spacing" textLength="279" x="678.5" y="1251.4731">registerGreenSpace(name,size,area,email)</text><polygon fill="#181818" points="1966,1281.6719,1976,1285.6719,1966,1289.6719,1970,1285.6719" style="stroke:#181818;stroke-width:1.0;"/><line style="stroke:#181818;stroke-width:1.0;" x1="1598.5" x2="1972" y1="1285.6719" y2="1285.6719"/><text fill="#000000" font-family="sans-serif" font-size="13" font-weight="bold" lengthAdjust="spacing" textLength="18" x="1605.5" y="1280.606">35</text><text fill="#000000" font-family="sans-serif" font-size="13" lengthAdjust="spacing" textLength="41" x="1627.5" y="1280.606">create</text><rect fill="#E3E3E3" height="46.5938" rx="2.5" ry="2.5" style="stroke:#181818;stroke-width:0.5;" width="107" x="1978" y="1264.5391"/><text fill="#000000" font-family="sans-serif" font-size="14" lengthAdjust="spacing" textLength="86" x="1988.5" y="1284.5342">greenSpace</text><text fill="#000000" font-family="sans-serif" font-size="14" lengthAdjust="spacing" textLength="93" x="1985" y="1300.8311">:GreenSpace</text><line style="stroke:#181818;stroke-width:1.0;" x1="1598.5" x2="1645.5" y1="1338.2656" y2="1338.2656"/><line style="stroke:#181818;stroke-width:1.0;" x1="1645.5" x2="1645.5" y1="1338.2656" y2="1351.2656"/><line style="stroke:#181818;stroke-width:1.0;" x1="1604.5" x2="1645.5" y1="1351.2656" y2="1351.2656"/><polygon fill="#181818" points="1614.5,1347.2656,1604.5,1351.2656,1614.5,1355.2656,1610.5,1351.2656" style="stroke:#181818;stroke-width:1.0;"/><text fill="#000000" font-family="sans-serif" font-size="13" font-weight="bold" lengthAdjust="spacing" textLength="18" x="1610.5" y="1333.1997">36</text><text fill="#000000" font-family="sans-serif" font-size="13" lengthAdjust="spacing" textLength="188" x="1632.5" y="1333.1997">addGreenSpace(greenSpace)</text><line style="stroke:#181818;stroke-width:1.0;" x1="1608.5" x2="1650.5" y1="1385.3984" y2="1385.3984"/><line style="stroke:#181818;stroke-width:1.0;" x1="1650.5" x2="1650.5" y1="1385.3984" y2="1398.3984"/><line style="stroke:#181818;stroke-width:1.0;" x1="1609.5" x2="1650.5" y1="1398.3984" y2="1398.3984"/><polygon fill="#181818" points="1619.5,1394.3984,1609.5,1398.3984,1619.5,1402.3984,1615.5,1398.3984" style="stroke:#181818;stroke-width:1.0;"/><text fill="#000000" font-family="sans-serif" font-size="13" font-weight="bold" lengthAdjust="spacing" textLength="18" x="1615.5" y="1380.3325">37</text><text fill="#000000" font-family="sans-serif" font-size="13" lengthAdjust="spacing" textLength="139" x="1637.5" y="1380.3325">validate(greenSpace)</text><polygon fill="#181818" points="660.5,1453.5313,650.5,1457.5313,660.5,1461.5313,656.5,1457.5313" style="stroke:#181818;stroke-width:1.0;"/><line style="stroke:#181818;stroke-width:1.0;stroke-dasharray:2.0,2.0;" x1="654.5" x2="1592.5" y1="1457.5313" y2="1457.5313"/><text fill="#000000" font-family="sans-serif" font-size="13" font-weight="bold" lengthAdjust="spacing" textLength="18" x="666.5" y="1452.4653">38</text><text fill="#000000" font-family="sans-serif" font-size="13" lengthAdjust="spacing" textLength="76" x="688.5" y="1452.4653">greenSpace</text><polygon fill="#181818" points="371.5,1482.6641,361.5,1486.6641,371.5,1490.6641,367.5,1486.6641" style="stroke:#181818;stroke-width:1.0;"/><line style="stroke:#181818;stroke-width:1.0;stroke-dasharray:2.0,2.0;" x1="365.5" x2="643.5" y1="1486.6641" y2="1486.6641"/><text fill="#000000" font-family="sans-serif" font-size="13" font-weight="bold" lengthAdjust="spacing" textLength="18" x="377.5" y="1481.5981">39</text><text fill="#000000" font-family="sans-serif" font-size="13" lengthAdjust="spacing" textLength="76" x="399.5" y="1481.5981">greenSpace</text><polygon fill="#181818" points="103.5,1511.7969,93.5,1515.7969,103.5,1519.7969,99.5,1515.7969" style="stroke:#181818;stroke-width:1.0;"/><line style="stroke:#181818;stroke-width:1.0;stroke-dasharray:2.0,2.0;" x1="97.5" x2="354.5" y1="1515.7969" y2="1515.7969"/><text fill="#000000" font-family="sans-serif" font-size="13" font-weight="bold" lengthAdjust="spacing" textLength="18" x="109.5" y="1510.731">40</text><text fill="#000000" font-family="sans-serif" font-size="13" lengthAdjust="spacing" textLength="184" x="131.5" y="1510.731">shows operation (in)success</text><!--SRC=[dLVBJkim4DtdAqQiA88Vw0890KALG20AkxinoL0i4ZlNTa1SyV5tREVX97ORoAQ9FUVCmpFZgNxdecQALL198VCt9Ii4enhCTBzJi_oTxN1hlae4XRbXObU60lgD5VAJYnsyib9ZbXbkIFHv0rlysw384QuusrdHu-tsQWLdS54QL88P_e5mBmZ26YD5KxsWelVSI0L7DmfHm9RK8zmnGIQe8s0Qhgkwb5-86MatFESr4mQEre-uuvfO7SoXdZTE_dbpKF9I2gDaMROQBfyURsUOMcfETd7KJgPV-Dfo6myoVmnH0UAFc1Cyt5uyZH4KWpSKz4rnaM9GGEYBn9PZIk76x8r6jKMjIOG8duSl7wJXUmp3Yl6I0DVsjuq_lOs5TdqaHrRVH9OTHKn-4l01Eo0c8bl-ps_QbvH18pEy_NSFZzStzvbBDFx130ufbG4ztHUSdTiaNXFe7OoatFTv0yoR0zfoEaZFHCdc5WX7Q9j89oV4a2katR6eop9e7_lH8KX-XoOMlEDL3nZJP3EYI7vwtetGLC4vnhXYITrBnHZFMfFN4APx3obmF_NCQbiKFtFVbL6_xF23KT4yYnZdICQsd9rtHn7ZY96q1z4VFrdHPvAD3xL2RQ1WXi6nO1MUCagAKrOKYkhEUpPbcwnroJLBKFDLe-vKOE6K7ChBQPYrhIATpZ0OdkwqsZ9Omy0IYerPV0NFzZq5aLdrQr_ACw4HaHE9ITYDZecC-c1bunoA2Wy0GhH-QFg-fHAF0e9pI1lPUZE4E4aPqFd8m2p0tUds7EciWtZIwJVvgQ4aBCXNnqDN4J1HzEd8G6D9Txhj-v18jtc-UGmHWQmTD9riSuE0bQKlWwwXOj5QHVSOv5AySbMvkmmg5CtYAj3DIyMDNfhzQZO6-BAqONArkSfYZJQBjElVKQLx_oFgMWhDNygmJKUhOLQS095ATNtHSwT6YOIYFSrs-eoQhxqsKtD9Yc3QaG-wbTBWFRribABTOBHPucFIwYJKmLEM1F78P_OiYSJFxUcY4oZo0R4Bcs99448Rz_eTwWXSRNxcuo9rdLjk_lGEkTSb_lYPTQyddZRmmKs-Iwo_JWhsVVmWPRoZ9pRjslVtTnQBJcnSMTAXJfrjgqadJmy_KJtsTFnq7KwzU-KJzj9O59Ww22qoy1VwQ5ZWT6-CLItJbCMkyryBPll25LmIuubhYVhnK94ccFoXI4qLiaRbB-bZBbQwoMc4r96x-Zy0]--></g></svg>