<?xml version="1.0" encoding="us-ascii" standalone="no"?><svg xmlns="http://www.w3.org/2000/svg" xmlns:xlink="http://www.w3.org/1999/xlink" contentStyleType="text/css" height="659.4px" preserveAspectRatio="none" style="width:776px;height:659px;background:#FFFFFF;" version="1.1" viewBox="0 0 776 659" width="777px" zoomAndPan="magnify"><defs/><g><text fill="#000000" font-family="sans-serif" font-size="9.8" font-weight="bold" lengthAdjust="spacing" textLength="254.1" x="259.7" y="19.5966">UI Sequence Diagram (SSD) - Alternative One</text><rect fill="#FFFFFF" height="506.7727" style="stroke:#181818;stroke-width:0.6999999999999998;" width="7" x="57.75" y="90.0156"/><rect fill="#FFFFFF" height="80.1719" style="stroke:#181818;stroke-width:0.6999999999999998;" width="7" x="245.35" y="104.8086"/><rect fill="#FFFFFF" height="102.643" style="stroke:#181818;stroke-width:0.6999999999999998;" width="7" x="245.35" y="205.3734"/><rect fill="#FFFFFF" height="30.9859" style="stroke:#181818;stroke-width:0.6999999999999998;" width="7" x="245.35" y="328.4094"/><rect fill="#FFFFFF" height="210.7" style="stroke:#181818;stroke-width:0.6999999999999998;" width="7" x="245.35" y="379.7883"/><rect fill="#FFFFFF" height="52.7789" style="stroke:#181818;stroke-width:0.6999999999999998;" width="7" x="447.65" y="132.2016"/><rect fill="#FFFFFF" height="51.2641" style="stroke:#181818;stroke-width:0.6999999999999998;" width="7" x="447.65" y="225.7664"/><rect fill="#FFFFFF" height="169.9141" style="stroke:#181818;stroke-width:0.6999999999999998;" width="7" x="447.65" y="400.1812"/><rect fill="#FFFFFF" height="72.2641" style="stroke:#181818;stroke-width:0.6999999999999998;" width="7" x="451.15" y="426.1742"/><rect fill="#FFFFFF" height="51.2641" style="stroke:#181818;stroke-width:0.6999999999999998;" width="7" x="703.15" y="498.4383"/><line style="stroke:#181818;stroke-width:0.3499999999999999;stroke-dasharray:5.0,5.0;" x1="60.9" x2="60.9" y1="83.0156" y2="603.0883"/><line style="stroke:#181818;stroke-width:0.3499999999999999;stroke-dasharray:5.0,5.0;" x1="248.85" x2="248.85" y1="83.0156" y2="603.0883"/><line style="stroke:#181818;stroke-width:0.3499999999999999;stroke-dasharray:5.0,5.0;" x1="450.8" x2="450.8" y1="131.8625" y2="603.0883"/><line style="stroke:#181818;stroke-width:0.3499999999999999;stroke-dasharray:5.0,5.0;" x1="706.3" x2="706.3" y1="83.0156" y2="603.0883"/><text fill="#000000" font-family="sans-serif" font-size="9.8" lengthAdjust="spacing" textLength="111.3" x="3.5" y="80.7044">Green Space Manager</text><ellipse cx="61.25" cy="35.5578" fill="#E3E3E3" rx="5.6" ry="5.6" style="stroke:#181818;stroke-width:0.3499999999999999;"/><path d="M61.25,41.1578 L61.25,60.0578 M52.15,46.7578 L70.35,46.7578 M61.25,60.0578 L52.15,70.5578 M61.25,60.0578 L70.35,70.5578 " fill="none" style="stroke:#181818;stroke-width:0.3499999999999999;"/><text fill="#000000" font-family="sans-serif" font-size="9.8" lengthAdjust="spacing" textLength="111.3" x="3.5" y="611.4849">Green Space Manager</text><ellipse cx="61.25" cy="619.7461" fill="#E3E3E3" rx="5.6" ry="5.6" style="stroke:#181818;stroke-width:0.3499999999999999;"/><path d="M61.25,625.3461 L61.25,644.2461 M52.15,630.9461 L70.35,630.9461 M61.25,644.2461 L52.15,654.7461 M61.25,644.2461 L70.35,654.7461 " fill="none" style="stroke:#181818;stroke-width:0.3499999999999999;"/><rect fill="#E3E3E3" height="21.2078" rx="1.75" ry="1.75" style="stroke:#181818;stroke-width:0.3499999999999999;" width="126" x="185.85" y="61.1078"/><text fill="#000000" font-family="sans-serif" font-size="9.8" lengthAdjust="spacing" textLength="116.2" x="190.75" y="75.1044">:RegisterGreenSpaceUI</text><rect fill="#E3E3E3" height="21.2078" rx="1.75" ry="1.75" style="stroke:#181818;stroke-width:0.3499999999999999;" width="126" x="185.85" y="602.3883"/><text fill="#000000" font-family="sans-serif" font-size="9.8" lengthAdjust="spacing" textLength="116.2" x="190.75" y="616.3849">:RegisterGreenSpaceUI</text><rect fill="#E3E3E3" height="21.2078" rx="1.75" ry="1.75" style="stroke:#181818;stroke-width:0.3499999999999999;" width="165.9" x="368.2" y="602.3883"/><text fill="#000000" font-family="sans-serif" font-size="9.8" lengthAdjust="spacing" textLength="156.1" x="373.1" y="616.3849">:RegisterGreenSpaceController</text><rect fill="#E3E3E3" height="32.6156" rx="1.75" ry="1.75" style="stroke:#181818;stroke-width:0.3499999999999999;" width="128.1" x="642.6" y="49.7"/><text fill="#000000" font-family="sans-serif" font-size="9.8" lengthAdjust="spacing" textLength="113.4" x="649.95" y="63.6966">greenSpaceRepository</text><text fill="#000000" font-family="sans-serif" font-size="9.8" lengthAdjust="spacing" textLength="118.3" x="647.5" y="75.1044">:GreenSpaceRepository</text><rect fill="#E3E3E3" height="32.6156" rx="1.75" ry="1.75" style="stroke:#181818;stroke-width:0.3499999999999999;" width="128.1" x="642.6" y="602.3883"/><text fill="#000000" font-family="sans-serif" font-size="9.8" lengthAdjust="spacing" textLength="113.4" x="649.95" y="616.3849">greenSpaceRepository</text><text fill="#000000" font-family="sans-serif" font-size="9.8" lengthAdjust="spacing" textLength="118.3" x="647.5" y="627.7927">:GreenSpaceRepository</text><rect fill="#FFFFFF" height="506.7727" style="stroke:#181818;stroke-width:0.6999999999999998;" width="7" x="57.75" y="90.0156"/><rect fill="#FFFFFF" height="80.1719" style="stroke:#181818;stroke-width:0.6999999999999998;" width="7" x="245.35" y="104.8086"/><rect fill="#FFFFFF" height="102.643" style="stroke:#181818;stroke-width:0.6999999999999998;" width="7" x="245.35" y="205.3734"/><rect fill="#FFFFFF" height="30.9859" style="stroke:#181818;stroke-width:0.6999999999999998;" width="7" x="245.35" y="328.4094"/><rect fill="#FFFFFF" height="210.7" style="stroke:#181818;stroke-width:0.6999999999999998;" width="7" x="245.35" y="379.7883"/><rect fill="#FFFFFF" height="52.7789" style="stroke:#181818;stroke-width:0.6999999999999998;" width="7" x="447.65" y="132.2016"/><rect fill="#FFFFFF" height="51.2641" style="stroke:#181818;stroke-width:0.6999999999999998;" width="7" x="447.65" y="225.7664"/><rect fill="#FFFFFF" height="169.9141" style="stroke:#181818;stroke-width:0.6999999999999998;" width="7" x="447.65" y="400.1812"/><rect fill="#FFFFFF" height="72.2641" style="stroke:#181818;stroke-width:0.6999999999999998;" width="7" x="451.15" y="426.1742"/><rect fill="#FFFFFF" height="51.2641" style="stroke:#181818;stroke-width:0.6999999999999998;" width="7" x="703.15" y="498.4383"/><polygon fill="#181818" points="236.95,102.0086,243.95,104.8086,236.95,107.6086,239.75,104.8086" style="stroke:#181818;stroke-width:0.6999999999999998;"/><line style="stroke:#181818;stroke-width:0.6999999999999998;" x1="64.75" x2="241.15" y1="104.8086" y2="104.8086"/><text fill="#000000" font-family="sans-serif" font-size="9.1" font-weight="bold" lengthAdjust="spacing" textLength="6.3" x="69.65" y="101.2625">1</text><text fill="#000000" font-family="sans-serif" font-size="9.1" lengthAdjust="spacing" textLength="132.3" x="78.75" y="101.2625">ask to register a green space</text><polygon fill="#181818" points="359.8,122.4016,366.8,125.2016,359.8,128.0016,362.6,125.2016" style="stroke:#181818;stroke-width:0.6999999999999998;"/><line style="stroke:#181818;stroke-width:0.6999999999999998;" x1="252.35" x2="364" y1="125.2016" y2="125.2016"/><text fill="#000000" font-family="sans-serif" font-size="9.1" font-weight="bold" lengthAdjust="spacing" textLength="6.3" x="257.25" y="121.6554">2</text><text fill="#000000" font-family="sans-serif" font-size="9.1" lengthAdjust="spacing" textLength="28.7" x="266.35" y="121.6554">create</text><rect fill="#E3E3E3" height="21.2078" rx="1.75" ry="1.75" style="stroke:#181818;stroke-width:0.3499999999999999;" width="165.9" x="368.2" y="110.4086"/><text fill="#000000" font-family="sans-serif" font-size="9.8" lengthAdjust="spacing" textLength="156.1" x="373.1" y="124.4052">:RegisterGreenSpaceController</text><rect fill="none" height="27.3711" style="stroke:#000000;stroke-width:1.0499999999999998;" width="170.1" x="366.1" y="139.3164"/><path d="M366.1,139.3164 L412.3,139.3164 L412.3,144.2164 L405.3,151.2164 L366.1,151.2164 L366.1,139.3164 " fill="#EEEEEE" style="stroke:#000000;stroke-width:1.3999999999999997;"/><text fill="#000000" font-family="sans-serif" font-size="9.1" font-weight="bold" lengthAdjust="spacing" textLength="14.7" x="375.2" y="149.1632">ref</text><text fill="#000000" font-family="sans-serif" font-size="8.4" lengthAdjust="spacing" textLength="115.5" x="393.4" y="161.8135">Get GreenSpace Repository</text><polygon fill="#181818" points="72.45,182.1805,65.45,184.9805,72.45,187.7805,69.65,184.9805" style="stroke:#181818;stroke-width:0.6999999999999998;"/><line style="stroke:#181818;stroke-width:0.6999999999999998;stroke-dasharray:2.0,2.0;" x1="68.25" x2="248.15" y1="184.9805" y2="184.9805"/><text fill="#000000" font-family="sans-serif" font-size="9.1" font-weight="bold" lengthAdjust="spacing" textLength="6.3" x="76.65" y="181.4343">3</text><text fill="#000000" font-family="sans-serif" font-size="9.1" lengthAdjust="spacing" textLength="154.7" x="85.75" y="181.4343">request data (name,area,address)</text><polygon fill="#181818" points="236.95,202.5734,243.95,205.3734,236.95,208.1734,239.75,205.3734" style="stroke:#181818;stroke-width:0.6999999999999998;"/><line style="stroke:#181818;stroke-width:0.6999999999999998;" x1="64.75" x2="241.15" y1="205.3734" y2="205.3734"/><text fill="#000000" font-family="sans-serif" font-size="9.1" font-weight="bold" lengthAdjust="spacing" textLength="6.3" x="69.65" y="201.8273">4</text><text fill="#000000" font-family="sans-serif" font-size="9.1" lengthAdjust="spacing" textLength="96.6" x="78.75" y="201.8273">types requested data</text><polygon fill="#181818" points="439.25,222.9664,446.25,225.7664,439.25,228.5664,442.05,225.7664" style="stroke:#181818;stroke-width:0.6999999999999998;"/><line style="stroke:#181818;stroke-width:0.6999999999999998;" x1="252.35" x2="443.45" y1="225.7664" y2="225.7664"/><text fill="#000000" font-family="sans-serif" font-size="9.1" font-weight="bold" lengthAdjust="spacing" textLength="6.3" x="257.25" y="222.2203">5</text><text fill="#000000" font-family="sans-serif" font-size="9.1" lengthAdjust="spacing" textLength="105" x="266.35" y="222.2203">getGreenSpacesSizes()</text><rect fill="none" height="27.3711" style="stroke:#000000;stroke-width:1.0499999999999998;" width="170.1" x="366.1" y="231.3664"/><path d="M366.1,231.3664 L412.3,231.3664 L412.3,236.2664 L405.3,243.2664 L366.1,243.2664 L366.1,231.3664 " fill="#EEEEEE" style="stroke:#000000;stroke-width:1.3999999999999997;"/><text fill="#000000" font-family="sans-serif" font-size="9.1" font-weight="bold" lengthAdjust="spacing" textLength="14.7" x="375.2" y="241.2132">ref</text><text fill="#000000" font-family="sans-serif" font-size="8.4" lengthAdjust="spacing" textLength="56" x="423.15" y="253.8635">Get Sizes List</text><polygon fill="#181818" points="260.05,274.2305,253.05,277.0305,260.05,279.8305,257.25,277.0305" style="stroke:#181818;stroke-width:0.6999999999999998;"/><line style="stroke:#181818;stroke-width:0.6999999999999998;stroke-dasharray:2.0,2.0;" x1="255.85" x2="450.45" y1="277.0305" y2="277.0305"/><text fill="#000000" font-family="sans-serif" font-size="9.1" font-weight="bold" lengthAdjust="spacing" textLength="6.3" x="264.25" y="273.4843">6</text><text fill="#000000" font-family="sans-serif" font-size="9.1" lengthAdjust="spacing" textLength="39.2" x="273.35" y="273.4843">sizesList</text><polygon fill="#181818" points="72.45,305.2164,65.45,308.0164,72.45,310.8164,69.65,308.0164" style="stroke:#181818;stroke-width:0.6999999999999998;"/><line style="stroke:#181818;stroke-width:0.6999999999999998;stroke-dasharray:2.0,2.0;" x1="68.25" x2="248.15" y1="308.0164" y2="308.0164"/><text fill="#000000" font-family="sans-serif" font-size="9.1" font-weight="bold" lengthAdjust="spacing" textLength="6.3" x="76.65" y="299.1738">7</text><text fill="#000000" font-family="sans-serif" font-size="9.1" lengthAdjust="spacing" textLength="83.3" x="85.75" y="293.8773">shows list of sizes</text><text fill="#000000" font-family="sans-serif" font-size="9.1" lengthAdjust="spacing" textLength="106.4" x="88.55" y="304.4703">and request a selection</text><polygon fill="#181818" points="236.95,325.6094,243.95,328.4094,236.95,331.2094,239.75,328.4094" style="stroke:#181818;stroke-width:0.6999999999999998;"/><line style="stroke:#181818;stroke-width:0.6999999999999998;" x1="64.75" x2="241.15" y1="328.4094" y2="328.4094"/><text fill="#000000" font-family="sans-serif" font-size="9.1" font-weight="bold" lengthAdjust="spacing" textLength="6.3" x="69.65" y="324.8632">8</text><text fill="#000000" font-family="sans-serif" font-size="9.1" lengthAdjust="spacing" textLength="72.8" x="78.75" y="324.8632">select an option</text><polygon fill="#181818" points="72.45,356.5953,65.45,359.3953,72.45,362.1953,69.65,359.3953" style="stroke:#181818;stroke-width:0.6999999999999998;"/><line style="stroke:#181818;stroke-width:0.6999999999999998;stroke-dasharray:2.0,2.0;" x1="68.25" x2="248.15" y1="359.3953" y2="359.3953"/><text fill="#000000" font-family="sans-serif" font-size="9.1" font-weight="bold" lengthAdjust="spacing" textLength="6.3" x="76.65" y="350.5527">9</text><text fill="#000000" font-family="sans-serif" font-size="9.1" lengthAdjust="spacing" textLength="109.9" x="85.75" y="345.2562">show all data registered</text><text fill="#000000" font-family="sans-serif" font-size="9.1" lengthAdjust="spacing" textLength="123.9" x="88.55" y="355.8492">and the confirmation menu</text><polygon fill="#181818" points="236.95,376.9883,243.95,379.7883,236.95,382.5883,239.75,379.7883" style="stroke:#181818;stroke-width:0.6999999999999998;"/><line style="stroke:#181818;stroke-width:0.6999999999999998;" x1="64.75" x2="241.15" y1="379.7883" y2="379.7883"/><text fill="#000000" font-family="sans-serif" font-size="9.1" font-weight="bold" lengthAdjust="spacing" textLength="12.6" x="69.65" y="376.2421">10</text><text fill="#000000" font-family="sans-serif" font-size="9.1" lengthAdjust="spacing" textLength="59.5" x="85.05" y="376.2421">submits data</text><polygon fill="#181818" points="439.25,397.3812,446.25,400.1812,439.25,402.9812,442.05,400.1812" style="stroke:#181818;stroke-width:0.6999999999999998;"/><line style="stroke:#181818;stroke-width:0.6999999999999998;" x1="252.35" x2="443.45" y1="400.1812" y2="400.1812"/><text fill="#000000" font-family="sans-serif" font-size="9.1" font-weight="bold" lengthAdjust="spacing" textLength="12.6" x="257.25" y="396.6351">11</text><text fill="#000000" font-family="sans-serif" font-size="9.1" lengthAdjust="spacing" textLength="166.6" x="272.65" y="396.6351">registerGreenSpace(name,size,area)</text><line style="stroke:#181818;stroke-width:0.6999999999999998;" x1="454.65" x2="487.55" y1="417.0742" y2="417.0742"/><line style="stroke:#181818;stroke-width:0.6999999999999998;" x1="487.55" x2="487.55" y1="417.0742" y2="426.1742"/><line style="stroke:#181818;stroke-width:0.6999999999999998;" x1="458.85" x2="487.55" y1="426.1742" y2="426.1742"/><polygon fill="#181818" points="465.85,423.3742,458.85,426.1742,465.85,428.9742,463.05,426.1742" style="stroke:#181818;stroke-width:0.6999999999999998;"/><text fill="#000000" font-family="sans-serif" font-size="9.1" font-weight="bold" lengthAdjust="spacing" textLength="12.6" x="463.05" y="413.5281">12</text><text fill="#000000" font-family="sans-serif" font-size="9.1" lengthAdjust="spacing" textLength="166.6" x="478.45" y="413.5281">registerGreenSpace(name,size,area)</text><rect fill="none" height="27.3711" style="stroke:#000000;stroke-width:1.0499999999999998;" width="170.1" x="366.1" y="435.2742"/><path d="M366.1,435.2742 L412.3,435.2742 L412.3,440.1742 L405.3,447.1742 L366.1,447.1742 L366.1,435.2742 " fill="#EEEEEE" style="stroke:#000000;stroke-width:1.3999999999999997;"/><text fill="#000000" font-family="sans-serif" font-size="9.1" font-weight="bold" lengthAdjust="spacing" textLength="14.7" x="375.2" y="445.121">ref</text><text fill="#000000" font-family="sans-serif" font-size="8.4" lengthAdjust="spacing" textLength="67.2" x="417.55" y="457.7713">Get Responsible</text><polygon fill="#181818" points="694.75,495.6383,701.75,498.4383,694.75,501.2383,697.55,498.4383" style="stroke:#181818;stroke-width:0.6999999999999998;"/><line style="stroke:#181818;stroke-width:0.6999999999999998;" x1="454.65" x2="698.95" y1="498.4383" y2="498.4383"/><text fill="#000000" font-family="sans-serif" font-size="9.1" font-weight="bold" lengthAdjust="spacing" textLength="12.6" x="459.55" y="494.8921">13</text><text fill="#000000" font-family="sans-serif" font-size="9.1" lengthAdjust="spacing" textLength="216.3" x="474.95" y="494.8921">registerGreenSpace(name,size,area,resposible)</text><rect fill="none" height="27.3711" style="stroke:#000000;stroke-width:1.0499999999999998;" width="132.3" x="640.5" y="504.0383"/><path d="M640.5,504.0383 L686.7,504.0383 L686.7,508.9383 L679.7,515.9383 L640.5,515.9383 L640.5,504.0383 " fill="#EEEEEE" style="stroke:#000000;stroke-width:1.3999999999999997;"/><text fill="#000000" font-family="sans-serif" font-size="9.1" font-weight="bold" lengthAdjust="spacing" textLength="14.7" x="649.6" y="513.8851">ref</text><text fill="#000000" font-family="sans-serif" font-size="8.4" lengthAdjust="spacing" textLength="91" x="661.15" y="526.5354">Register Green Space</text><polygon fill="#181818" points="462.35,546.9023,455.35,549.7023,462.35,552.5023,459.55,549.7023" style="stroke:#181818;stroke-width:0.6999999999999998;"/><line style="stroke:#181818;stroke-width:0.6999999999999998;stroke-dasharray:2.0,2.0;" x1="458.15" x2="705.95" y1="549.7023" y2="549.7023"/><text fill="#000000" font-family="sans-serif" font-size="9.1" font-weight="bold" lengthAdjust="spacing" textLength="12.6" x="466.55" y="546.1562">14</text><text fill="#000000" font-family="sans-serif" font-size="9.1" lengthAdjust="spacing" textLength="53.2" x="481.95" y="546.1562">greenSpace</text><polygon fill="#181818" points="260.05,567.2953,253.05,570.0953,260.05,572.8953,257.25,570.0953" style="stroke:#181818;stroke-width:0.6999999999999998;"/><line style="stroke:#181818;stroke-width:0.6999999999999998;stroke-dasharray:2.0,2.0;" x1="255.85" x2="450.45" y1="570.0953" y2="570.0953"/><text fill="#000000" font-family="sans-serif" font-size="9.1" font-weight="bold" lengthAdjust="spacing" textLength="12.6" x="264.25" y="566.5492">15</text><text fill="#000000" font-family="sans-serif" font-size="9.1" lengthAdjust="spacing" textLength="53.2" x="279.65" y="566.5492">greenSpace</text><polygon fill="#181818" points="72.45,587.6883,65.45,590.4883,72.45,593.2883,69.65,590.4883" style="stroke:#181818;stroke-width:0.6999999999999998;"/><line style="stroke:#181818;stroke-width:0.6999999999999998;stroke-dasharray:2.0,2.0;" x1="68.25" x2="248.15" y1="590.4883" y2="590.4883"/><text fill="#000000" font-family="sans-serif" font-size="9.1" font-weight="bold" lengthAdjust="spacing" textLength="12.6" x="76.65" y="586.9421">16</text><text fill="#000000" font-family="sans-serif" font-size="9.1" lengthAdjust="spacing" textLength="128.8" x="92.05" y="586.9421">shows operation (in)success</text><!--SRC=[fLJ1RgCm4Btp5QESGfNyG0wLLkqgYjJLIc5pwyM12R5YRDPZKcMLZz_150B5j97g4zZptinxdZ6Tf2w55GKKHflqQ4s1u6o54NKdfKXF8iV4NHI2nTG9dQj-01r5Pjwapk4W564KEUauTBU11FzMg5E4PodoEdIU9CynBE67ScYrSFACy5ipH5JEwAhOe-Nlr1aBixL5r91mUeHVGdC9TWQ2u6THAdD1Z3YxawaiXNOmMsqnbyIi7kPHkusFtss-Z7mosbcZr7k6fp_Rbo4cxqAtM1gINE3bLQ_MWMtF48gFl39v5Wvl6YBWrVx1yh5sRSKC9t26pMuA1T4G0jMC7j8niJg_mJX6rvK_F313Qf5FXw5Ubj-gbyK3c3EJ-stehJKwk2c3de8s0dNM46NuWVrM35VJwLfnDku4Sf099s2kHO4BmIKkH9PP98g3R1_sMgaZkzobH6fJOEQJVEKImt9qDvcKo7z8yxZJE67RvzQrzdaoUE7R6npNllN_VI7BLWRL88_fWaR-GjXUEfet0iLOC8U6w5M3q5bdl012nSChZOvWmjYnims6YS2K7ZfjwxWW44er5zusCcRlLRaZGchqGTf2rBnGeAxklc-gzeLqTEyzsz6yDmrOs-IxC0xDIKFKtD1tgJvjcxfVjaYbqIJt2gDXgrolroZGCu_19-QU2XUspkLJnL5euhgTy2CsK18CQIjjtrdelUHHNril-yI3wSE2IfUzEUxExs8T3zuqmU3-fWVFb6YRFfvB7LELydj2WNR-3m00]--></g></svg>