<?xml version="1.0" encoding="us-ascii" standalone="no"?><svg xmlns="http://www.w3.org/2000/svg" xmlns:xlink="http://www.w3.org/1999/xlink" contentStyleType="text/css" height="482px" preserveAspectRatio="none" style="width:434px;height:482px;background:#FFFFFF;" version="1.1" viewBox="0 0 434 482" width="434px" zoomAndPan="magnify"><defs/><g><text fill="#000000" font-family="sans-serif" font-size="14" font-weight="bold" lengthAdjust="spacing" textLength="406" x="10" y="27.9951">System Sequence Diagram (SSD) - Alternative One</text><rect fill="#FFFFFF" height="264.3281" style="stroke:#181818;stroke-width:1.0;" width="10" x="101" y="128.5938"/><rect fill="#FFFFFF" height="44.2656" style="stroke:#181818;stroke-width:1.0;" width="10" x="363" y="149.7266"/><rect fill="#FFFFFF" height="29.1328" style="stroke:#181818;stroke-width:1.0;" width="10" x="363" y="223.125"/><rect fill="#FFFFFF" height="44.2656" style="stroke:#181818;stroke-width:1.0;" width="10" x="363" y="281.3906"/><rect fill="#FFFFFF" height="29.1328" style="stroke:#181818;stroke-width:1.0;" width="10" x="363" y="354.7891"/><line style="stroke:#181818;stroke-width:0.5;stroke-dasharray:5.0,5.0;" x1="105.5" x2="105.5" y1="118.5938" y2="401.9219"/><line style="stroke:#181818;stroke-width:0.5;stroke-dasharray:5.0,5.0;" x1="367.5" x2="367.5" y1="118.5938" y2="401.9219"/><text fill="#000000" font-family="sans-serif" font-size="14" lengthAdjust="spacing" textLength="159" x="23.5" y="115.292">Green Space Manager</text><ellipse cx="106" cy="50.7969" fill="#E3E3E3" rx="8" ry="8" style="stroke:#181818;stroke-width:0.5;"/><path d="M106,58.7969 L106,85.7969 M93,66.7969 L119,66.7969 M106,85.7969 L93,100.7969 M106,85.7969 L119,100.7969 " fill="none" style="stroke:#181818;stroke-width:0.5;"/><text fill="#000000" font-family="sans-serif" font-size="14" lengthAdjust="spacing" textLength="159" x="23.5" y="413.917">Green Space Manager</text><ellipse cx="106" cy="425.7188" fill="#E3E3E3" rx="8" ry="8" style="stroke:#181818;stroke-width:0.5;"/><path d="M106,433.7188 L106,460.7188 M93,441.7188 L119,441.7188 M106,460.7188 L93,475.7188 M106,460.7188 L119,475.7188 " fill="none" style="stroke:#181818;stroke-width:0.5;"/><rect fill="#E3E3E3" height="30.2969" rx="2.5" ry="2.5" style="stroke:#181818;stroke-width:0.5;" width="71" x="332.5" y="87.2969"/><text fill="#000000" font-family="sans-serif" font-size="14" lengthAdjust="spacing" textLength="57" x="339.5" y="107.292">:System</text><rect fill="#E3E3E3" height="30.2969" rx="2.5" ry="2.5" style="stroke:#181818;stroke-width:0.5;" width="71" x="332.5" y="400.9219"/><text fill="#000000" font-family="sans-serif" font-size="14" lengthAdjust="spacing" textLength="57" x="339.5" y="420.917">:System</text><rect fill="#FFFFFF" height="264.3281" style="stroke:#181818;stroke-width:1.0;" width="10" x="101" y="128.5938"/><rect fill="#FFFFFF" height="44.2656" style="stroke:#181818;stroke-width:1.0;" width="10" x="363" y="149.7266"/><rect fill="#FFFFFF" height="29.1328" style="stroke:#181818;stroke-width:1.0;" width="10" x="363" y="223.125"/><rect fill="#FFFFFF" height="44.2656" style="stroke:#181818;stroke-width:1.0;" width="10" x="363" y="281.3906"/><rect fill="#FFFFFF" height="29.1328" style="stroke:#181818;stroke-width:1.0;" width="10" x="363" y="354.7891"/><polygon fill="#181818" points="351,145.7266,361,149.7266,351,153.7266,355,149.7266" style="stroke:#181818;stroke-width:1.0;"/><line style="stroke:#181818;stroke-width:1.0;" x1="111" x2="357" y1="149.7266" y2="149.7266"/><text fill="#000000" font-family="sans-serif" font-size="13" font-weight="bold" lengthAdjust="spacing" textLength="9" x="118" y="144.6606">1</text><text fill="#000000" font-family="sans-serif" font-size="13" lengthAdjust="spacing" textLength="220" x="131" y="144.6606">ask to add an entry in the Agenda</text><polygon fill="#181818" points="122,189.9922,112,193.9922,122,197.9922,118,193.9922" style="stroke:#181818;stroke-width:1.0;"/><line style="stroke:#181818;stroke-width:1.0;stroke-dasharray:2.0,2.0;" x1="116" x2="367" y1="193.9922" y2="193.9922"/><text fill="#000000" font-family="sans-serif" font-size="13" font-weight="bold" lengthAdjust="spacing" textLength="9" x="128" y="181.3599">2</text><text fill="#000000" font-family="sans-serif" font-size="13" lengthAdjust="spacing" textLength="114" x="141" y="173.7935">shows list of task</text><text fill="#000000" font-family="sans-serif" font-size="13" lengthAdjust="spacing" textLength="152" x="145" y="188.9263">and request a selection</text><polygon fill="#181818" points="351,219.125,361,223.125,351,227.125,355,223.125" style="stroke:#181818;stroke-width:1.0;"/><line style="stroke:#181818;stroke-width:1.0;" x1="111" x2="357" y1="223.125" y2="223.125"/><text fill="#000000" font-family="sans-serif" font-size="13" font-weight="bold" lengthAdjust="spacing" textLength="9" x="118" y="218.0591">3</text><text fill="#000000" font-family="sans-serif" font-size="13" lengthAdjust="spacing" textLength="104" x="131" y="218.0591">select an option</text><polygon fill="#181818" points="122,248.2578,112,252.2578,122,256.2578,118,252.2578" style="stroke:#181818;stroke-width:1.0;"/><line style="stroke:#181818;stroke-width:1.0;stroke-dasharray:2.0,2.0;" x1="116" x2="367" y1="252.2578" y2="252.2578"/><text fill="#000000" font-family="sans-serif" font-size="13" font-weight="bold" lengthAdjust="spacing" textLength="9" x="128" y="247.1919">4</text><text fill="#000000" font-family="sans-serif" font-size="13" lengthAdjust="spacing" textLength="177" x="141" y="247.1919">request data (startingDate)</text><polygon fill="#181818" points="351,277.3906,361,281.3906,351,285.3906,355,281.3906" style="stroke:#181818;stroke-width:1.0;"/><line style="stroke:#181818;stroke-width:1.0;" x1="111" x2="357" y1="281.3906" y2="281.3906"/><text fill="#000000" font-family="sans-serif" font-size="13" font-weight="bold" lengthAdjust="spacing" textLength="9" x="118" y="276.3247">5</text><text fill="#000000" font-family="sans-serif" font-size="13" lengthAdjust="spacing" textLength="138" x="131" y="276.3247">types requested data</text><polygon fill="#181818" points="122,321.6563,112,325.6563,122,329.6563,118,325.6563" style="stroke:#181818;stroke-width:1.0;"/><line style="stroke:#181818;stroke-width:1.0;stroke-dasharray:2.0,2.0;" x1="116" x2="367" y1="325.6563" y2="325.6563"/><text fill="#000000" font-family="sans-serif" font-size="13" font-weight="bold" lengthAdjust="spacing" textLength="9" x="128" y="313.0239">6</text><text fill="#000000" font-family="sans-serif" font-size="13" lengthAdjust="spacing" textLength="157" x="141" y="305.4575">show all data registered</text><text fill="#000000" font-family="sans-serif" font-size="13" lengthAdjust="spacing" textLength="177" x="145" y="320.5903">and the confirmation menu</text><polygon fill="#181818" points="351,350.7891,361,354.7891,351,358.7891,355,354.7891" style="stroke:#181818;stroke-width:1.0;"/><line style="stroke:#181818;stroke-width:1.0;" x1="111" x2="357" y1="354.7891" y2="354.7891"/><text fill="#000000" font-family="sans-serif" font-size="13" font-weight="bold" lengthAdjust="spacing" textLength="9" x="118" y="349.7231">7</text><text fill="#000000" font-family="sans-serif" font-size="13" lengthAdjust="spacing" textLength="85" x="131" y="349.7231">submits data</text><polygon fill="#181818" points="122,379.9219,112,383.9219,122,387.9219,118,383.9219" style="stroke:#181818;stroke-width:1.0;"/><line style="stroke:#181818;stroke-width:1.0;stroke-dasharray:2.0,2.0;" x1="116" x2="367" y1="383.9219" y2="383.9219"/><text fill="#000000" font-family="sans-serif" font-size="13" font-weight="bold" lengthAdjust="spacing" textLength="9" x="128" y="378.856">8</text><text fill="#000000" font-family="sans-serif" font-size="13" lengthAdjust="spacing" textLength="184" x="141" y="378.856">shows operation (in)success</text><!--SRC=[dP6nRi8m48RtFCM92GPUWA4I4bMdgaFMBeTz10lxdFekeBnzBmcabLgGsaoES__dpt_a5BZ5WWbIvkoE9IS2BHrLCdzfqPsmeLhxI538AN8Jlm_84Ns-16xWW56egZIeZTQzA2MewQCZTWIxWCqmlgphtGhMi8rAXL73cU2DBOQTPkxIdegjdUO2YvT2n52R0i4hiccK1Q30SsfZxeagCz3WGekiiDXCHuuJqx8QIU6CIb-P2kovlS7wwMQwiTm9D0Dw3yX0hAM7mA17Wcr3x76CpiJvZ67t2baRRsPlh9jy4OX15F81r0vuPsDxAz9giLq4eMYbXimZnjCF_5tTAJcevdO4_Avtt-ucuL4Hbg93cTpiBBpwiupsBScDI7vaLW-C7dS66EEaLQYnzgYGlpOt_0sN-H1Amk7Ma8YxltVNxLDGcJJ_AIdMEvL9OXbu9Prp97B7vHC0]--></g></svg>