<?xml version="1.0" encoding="us-ascii" standalone="no"?><svg xmlns="http://www.w3.org/2000/svg" xmlns:xlink="http://www.w3.org/1999/xlink" contentStyleType="text/css" height="1396px" preserveAspectRatio="none" style="width:2361px;height:1396px;background:#FFFFFF;" version="1.1" viewBox="0 0 2361 1396" width="2361px" zoomAndPan="magnify"><defs/><g><rect fill="#FFFFFF" height="1201.8066" style="stroke:#181818;stroke-width:1.0;" width="10" x="75" y="93.6211"/><rect fill="#FFFFFF" height="74.9121" style="stroke:#181818;stroke-width:1.0;" width="10" x="606" y="116.9121"/><rect fill="#FFFFFF" height="125.1641" style="stroke:#181818;stroke-width:1.0;" width="10" x="606" y="860.6445"/><rect fill="#FFFFFF" height="31.291" style="stroke:#181818;stroke-width:1.0;" width="10" x="606" y="1264.1367"/><rect fill="#FFFFFF" height="668.8203" style="stroke:#181818;stroke-width:1.0;" width="10" x="1132" y="191.8242"/><rect fill="#FFFFFF" height="31.291" style="stroke:#181818;stroke-width:1.0;" width="10" x="1132" y="985.8086"/><rect fill="#FFFFFF" height="31.291" style="stroke:#181818;stroke-width:1.0;" width="10" x="1132" y="1232.8457"/><rect fill="#FFFFFF" height="31.291" style="stroke:#181818;stroke-width:1.0;" width="10" x="1255" y="223.1152"/><rect fill="#FFFFFF" height="31.291" style="stroke:#181818;stroke-width:1.0;" width="10" x="1362" y="285.6973"/><rect fill="#FFFFFF" height="31.291" style="stroke:#181818;stroke-width:1.0;" width="10" x="1362" y="348.2793"/><rect fill="#FFFFFF" height="293.3281" style="stroke:#181818;stroke-width:1.0;" width="10" x="1658" y="410.8613"/><rect fill="#FFFFFF" height="215.7461" style="stroke:#181818;stroke-width:1.0;" width="10" x="1658" y="1017.0996"/><rect fill="#FFFFFF" height="42.291" style="stroke:#181818;stroke-width:1.0;" width="10" x="1663" y="1082.6816"/><rect fill="#FFFFFF" height="31.291" style="stroke:#181818;stroke-width:1.0;" width="10" x="1834" y="735.4805"/><rect fill="#FFFFFF" height="31.291" style="stroke:#181818;stroke-width:1.0;" width="10" x="2101" y="798.0625"/><rect fill="#FFFFFF" height="31.291" style="stroke:#181818;stroke-width:1.0;" width="10" x="2101" y="1163.2637"/><rect fill="#FFFFFF" height="119.873" style="stroke:#181818;stroke-width:1.0;" width="10" x="2206.5" y="468.4434"/><rect fill="#FFFFFF" height="42.291" style="stroke:#181818;stroke-width:1.0;" width="10" x="2211.5" y="507.7344"/><rect fill="none" height="248.0371" style="stroke:#000000;stroke-width:1.5;" width="780" x="1575.5" y="425.8613"/><rect fill="none" height="63.582" style="stroke:#000000;stroke-width:1.5;" width="694" x="1585.5" y="603.3164"/><rect fill="none" height="170.4551" style="stroke:#000000;stroke-width:1.5;" width="573" x="1585.5" y="1032.0996"/><line style="stroke:#181818;stroke-width:0.5;stroke-dasharray:5.0,5.0;" x1="80" x2="80" y1="83.6211" y2="1313.4277"/><line style="stroke:#181818;stroke-width:0.5;stroke-dasharray:5.0,5.0;" x1="610.5" x2="610.5" y1="83.6211" y2="1313.4277"/><line style="stroke:#181818;stroke-width:0.5;stroke-dasharray:5.0,5.0;" x1="1136.5" x2="1136.5" y1="156.7227" y2="1313.4277"/><line style="stroke:#181818;stroke-width:0.5;stroke-dasharray:5.0,5.0;" x1="1259.5" x2="1259.5" y1="83.6211" y2="1313.4277"/><line style="stroke:#181818;stroke-width:0.5;stroke-dasharray:5.0,5.0;" x1="1366.5" x2="1366.5" y1="83.6211" y2="1313.4277"/><line style="stroke:#181818;stroke-width:0.5;stroke-dasharray:5.0,5.0;" x1="1662.5" x2="1662.5" y1="83.6211" y2="1313.4277"/><line style="stroke:#181818;stroke-width:0.5;stroke-dasharray:5.0,5.0;" x1="1839" x2="1839" y1="83.6211" y2="1313.4277"/><line style="stroke:#181818;stroke-width:0.5;stroke-dasharray:5.0,5.0;" x1="2105.5" x2="2105.5" y1="83.6211" y2="1313.4277"/><line style="stroke:#181818;stroke-width:0.5;stroke-dasharray:5.0,5.0;" x1="2211.5" x2="2211.5" y1="83.6211" y2="1313.4277"/><text fill="#000000" font-family="sans-serif" font-size="14" lengthAdjust="spacing" textLength="144" x="5" y="80.1074">Green Space Manager</text><ellipse cx="80" cy="13.5" fill="#E3E3E3" rx="8" ry="8" style="stroke:#181818;stroke-width:0.5;"/><path d="M80,21.5 L80,48.5 M67,29.5 L93,29.5 M80,48.5 L67,63.5 M80,48.5 L93,63.5 " fill="none" style="stroke:#181818;stroke-width:0.5;"/><text fill="#000000" font-family="sans-serif" font-size="14" lengthAdjust="spacing" textLength="144" x="5" y="1327.5352">Green Space Manager</text><ellipse cx="80" cy="1339.5488" fill="#E3E3E3" rx="8" ry="8" style="stroke:#181818;stroke-width:0.5;"/><path d="M80,1347.5488 L80,1374.5488 M67,1355.5488 L93,1355.5488 M80,1374.5488 L67,1389.5488 M80,1374.5488 L93,1389.5488 " fill="none" style="stroke:#181818;stroke-width:0.5;"/><rect fill="#E3E3E3" height="32.6211" rx="2.5" ry="2.5" style="stroke:#181818;stroke-width:0.5;" width="205" x="508.5" y="50"/><text fill="#000000" font-family="sans-serif" font-size="14" lengthAdjust="spacing" textLength="191" x="515.5" y="72.1074">:AssignTeamToTaskAgendaUI</text><rect fill="#E3E3E3" height="32.6211" rx="2.5" ry="2.5" style="stroke:#181818;stroke-width:0.5;" width="205" x="508.5" y="1312.4277"/><text fill="#000000" font-family="sans-serif" font-size="14" lengthAdjust="spacing" textLength="191" x="515.5" y="1334.5352">:AssignTeamToTaskAgendaUI</text><rect fill="#E3E3E3" height="32.6211" rx="2.5" ry="2.5" style="stroke:#181818;stroke-width:0.5;" width="129" x="1072.5" y="1312.4277"/><text fill="#000000" font-family="sans-serif" font-size="14" lengthAdjust="spacing" textLength="115" x="1079.5" y="1334.5352">:AgendaController</text><rect fill="#E3E3E3" height="32.6211" rx="2.5" ry="2.5" style="stroke:#181818;stroke-width:0.5;" width="97" x="1211.5" y="50"/><text fill="#000000" font-family="sans-serif" font-size="14" lengthAdjust="spacing" textLength="83" x="1218.5" y="72.1074">:Repositories</text><rect fill="#E3E3E3" height="32.6211" rx="2.5" ry="2.5" style="stroke:#181818;stroke-width:0.5;" width="97" x="1211.5" y="1312.4277"/><text fill="#000000" font-family="sans-serif" font-size="14" lengthAdjust="spacing" textLength="83" x="1218.5" y="1334.5352">:Repositories</text><rect fill="#E3E3E3" height="51.2422" rx="2.5" ry="2.5" style="stroke:#181818;stroke-width:0.5;" width="97" x="1318.5" y="31.3789"/><text fill="#000000" font-family="sans-serif" font-size="14" lengthAdjust="spacing" textLength="74" x="1330" y="53.4863">repositories</text><text fill="#000000" font-family="sans-serif" font-size="14" lengthAdjust="spacing" textLength="83" x="1325.5" y="72.1074">:Repositories</text><rect fill="#E3E3E3" height="51.2422" rx="2.5" ry="2.5" style="stroke:#181818;stroke-width:0.5;" width="97" x="1318.5" y="1312.4277"/><text fill="#000000" font-family="sans-serif" font-size="14" lengthAdjust="spacing" textLength="74" x="1330" y="1334.5352">repositories</text><text fill="#000000" font-family="sans-serif" font-size="14" lengthAdjust="spacing" textLength="83" x="1325.5" y="1353.1563">:Repositories</text><rect fill="#E3E3E3" height="51.2422" rx="2.5" ry="2.5" style="stroke:#181818;stroke-width:0.5;" width="135" x="1595.5" y="31.3789"/><text fill="#000000" font-family="sans-serif" font-size="14" lengthAdjust="spacing" textLength="116" x="1605" y="53.4863">agendaRepository</text><text fill="#000000" font-family="sans-serif" font-size="14" lengthAdjust="spacing" textLength="121" x="1602.5" y="72.1074">:AgendaRepository</text><rect fill="#E3E3E3" height="51.2422" rx="2.5" ry="2.5" style="stroke:#181818;stroke-width:0.5;" width="135" x="1595.5" y="1312.4277"/><text fill="#000000" font-family="sans-serif" font-size="14" lengthAdjust="spacing" textLength="116" x="1605" y="1334.5352">agendaRepository</text><text fill="#000000" font-family="sans-serif" font-size="14" lengthAdjust="spacing" textLength="121" x="1602.5" y="1353.1563">:AgendaRepository</text><rect fill="#E3E3E3" height="51.2422" rx="2.5" ry="2.5" style="stroke:#181818;stroke-width:0.5;" width="122" x="1778" y="31.3789"/><text fill="#000000" font-family="sans-serif" font-size="14" lengthAdjust="spacing" textLength="99" x="1789.5" y="53.4863">teamRepository</text><text fill="#000000" font-family="sans-serif" font-size="14" lengthAdjust="spacing" textLength="108" x="1785" y="72.1074">:TeamRepository</text><rect fill="#E3E3E3" height="51.2422" rx="2.5" ry="2.5" style="stroke:#181818;stroke-width:0.5;" width="122" x="1778" y="1312.4277"/><text fill="#000000" font-family="sans-serif" font-size="14" lengthAdjust="spacing" textLength="99" x="1789.5" y="1334.5352">teamRepository</text><text fill="#000000" font-family="sans-serif" font-size="14" lengthAdjust="spacing" textLength="108" x="1785" y="1353.1563">:TeamRepository</text><rect fill="#E3E3E3" height="51.2422" rx="2.5" ry="2.5" style="stroke:#181818;stroke-width:0.5;" width="85" x="2063.5" y="31.3789"/><text fill="#000000" font-family="sans-serif" font-size="14" lengthAdjust="spacing" textLength="65" x="2073.5" y="53.4863">sendEmail</text><text fill="#000000" font-family="sans-serif" font-size="14" lengthAdjust="spacing" textLength="71" x="2070.5" y="72.1074">:SendEmail</text><rect fill="#E3E3E3" height="51.2422" rx="2.5" ry="2.5" style="stroke:#181818;stroke-width:0.5;" width="85" x="2063.5" y="1312.4277"/><text fill="#000000" font-family="sans-serif" font-size="14" lengthAdjust="spacing" textLength="65" x="2073.5" y="1334.5352">sendEmail</text><text fill="#000000" font-family="sans-serif" font-size="14" lengthAdjust="spacing" textLength="71" x="2070.5" y="1353.1563">:SendEmail</text><rect fill="#E3E3E3" height="32.6211" rx="2.5" ry="2.5" style="stroke:#181818;stroke-width:0.5;" width="106" x="2158.5" y="50"/><text fill="#000000" font-family="sans-serif" font-size="14" lengthAdjust="spacing" textLength="92" x="2165.5" y="72.1074">MusgoSublime</text><rect fill="#E3E3E3" height="32.6211" rx="2.5" ry="2.5" style="stroke:#181818;stroke-width:0.5;" width="106" x="2158.5" y="1312.4277"/><text fill="#000000" font-family="sans-serif" font-size="14" lengthAdjust="spacing" textLength="92" x="2165.5" y="1334.5352">MusgoSublime</text><rect fill="#FFFFFF" height="1201.8066" style="stroke:#181818;stroke-width:1.0;" width="10" x="75" y="93.6211"/><rect fill="#FFFFFF" height="74.9121" style="stroke:#181818;stroke-width:1.0;" width="10" x="606" y="116.9121"/><rect fill="#FFFFFF" height="125.1641" style="stroke:#181818;stroke-width:1.0;" width="10" x="606" y="860.6445"/><rect fill="#FFFFFF" height="31.291" style="stroke:#181818;stroke-width:1.0;" width="10" x="606" y="1264.1367"/><rect fill="#FFFFFF" height="668.8203" style="stroke:#181818;stroke-width:1.0;" width="10" x="1132" y="191.8242"/><rect fill="#FFFFFF" height="31.291" style="stroke:#181818;stroke-width:1.0;" width="10" x="1132" y="985.8086"/><rect fill="#FFFFFF" height="31.291" style="stroke:#181818;stroke-width:1.0;" width="10" x="1132" y="1232.8457"/><rect fill="#FFFFFF" height="31.291" style="stroke:#181818;stroke-width:1.0;" width="10" x="1255" y="223.1152"/><rect fill="#FFFFFF" height="31.291" style="stroke:#181818;stroke-width:1.0;" width="10" x="1362" y="285.6973"/><rect fill="#FFFFFF" height="31.291" style="stroke:#181818;stroke-width:1.0;" width="10" x="1362" y="348.2793"/><rect fill="#FFFFFF" height="293.3281" style="stroke:#181818;stroke-width:1.0;" width="10" x="1658" y="410.8613"/><rect fill="#FFFFFF" height="215.7461" style="stroke:#181818;stroke-width:1.0;" width="10" x="1658" y="1017.0996"/><rect fill="#FFFFFF" height="42.291" style="stroke:#181818;stroke-width:1.0;" width="10" x="1663" y="1082.6816"/><rect fill="#FFFFFF" height="31.291" style="stroke:#181818;stroke-width:1.0;" width="10" x="1834" y="735.4805"/><rect fill="#FFFFFF" height="31.291" style="stroke:#181818;stroke-width:1.0;" width="10" x="2101" y="798.0625"/><rect fill="#FFFFFF" height="31.291" style="stroke:#181818;stroke-width:1.0;" width="10" x="2101" y="1163.2637"/><rect fill="#FFFFFF" height="119.873" style="stroke:#181818;stroke-width:1.0;" width="10" x="2206.5" y="468.4434"/><rect fill="#FFFFFF" height="42.291" style="stroke:#181818;stroke-width:1.0;" width="10" x="2211.5" y="507.7344"/><polygon fill="#181818" points="594,112.9121,604,116.9121,594,120.9121,598,116.9121" style="stroke:#181818;stroke-width:1.0;"/><line style="stroke:#181818;stroke-width:1.0;" x1="85" x2="600" y1="116.9121" y2="116.9121"/><text fill="#000000" font-family="sans-serif" font-size="13" font-weight="bold" lengthAdjust="spacing" textLength="7" x="92" y="111.6494">1</text><text fill="#000000" font-family="sans-serif" font-size="13" lengthAdjust="spacing" textLength="247" x="103" y="111.6494">Asks to assign a team to an Agenda Entry</text><polygon fill="#181818" points="1060.5,144.2031,1070.5,148.2031,1060.5,152.2031,1064.5,148.2031" style="stroke:#181818;stroke-width:1.0;"/><line style="stroke:#181818;stroke-width:1.0;" x1="616" x2="1066.5" y1="148.2031" y2="148.2031"/><text fill="#000000" font-family="sans-serif" font-size="13" font-weight="bold" lengthAdjust="spacing" textLength="7" x="623" y="142.9404">2</text><text fill="#000000" font-family="sans-serif" font-size="13" lengthAdjust="spacing" textLength="36" x="634" y="142.9404">create</text><rect fill="#E3E3E3" height="32.6211" rx="2.5" ry="2.5" style="stroke:#181818;stroke-width:0.5;" width="129" x="1072.5" y="124.9121"/><text fill="#000000" font-family="sans-serif" font-size="14" lengthAdjust="spacing" textLength="115" x="1079.5" y="147.0195">:AgendaController</text><polygon fill="#181818" points="1120,187.8242,1130,191.8242,1120,195.8242,1124,191.8242" style="stroke:#181818;stroke-width:1.0;"/><line style="stroke:#181818;stroke-width:1.0;" x1="611" x2="1126" y1="191.8242" y2="191.8242"/><text fill="#000000" font-family="sans-serif" font-size="13" font-weight="bold" lengthAdjust="spacing" textLength="7" x="618" y="186.5615">3</text><text fill="#000000" font-family="sans-serif" font-size="13" lengthAdjust="spacing" textLength="145" x="629" y="186.5615">requestEntryInformation()</text><polygon fill="#181818" points="1243,219.1152,1253,223.1152,1243,227.1152,1247,223.1152" style="stroke:#181818;stroke-width:1.0;"/><line style="stroke:#181818;stroke-width:1.0;" x1="1142" x2="1249" y1="223.1152" y2="223.1152"/><text fill="#000000" font-family="sans-serif" font-size="13" font-weight="bold" lengthAdjust="spacing" textLength="7" x="1149" y="217.8525">4</text><text fill="#000000" font-family="sans-serif" font-size="13" lengthAdjust="spacing" textLength="75" x="1160" y="217.8525">getInstance()</text><polygon fill="#181818" points="1153,250.4063,1143,254.4063,1153,258.4063,1149,254.4063" style="stroke:#181818;stroke-width:1.0;"/><line style="stroke:#181818;stroke-width:1.0;stroke-dasharray:2.0,2.0;" x1="1147" x2="1259" y1="254.4063" y2="254.4063"/><text fill="#000000" font-family="sans-serif" font-size="13" font-weight="bold" lengthAdjust="spacing" textLength="7" x="1159" y="249.1436">5</text><text fill="#000000" font-family="sans-serif" font-size="13" lengthAdjust="spacing" textLength="67" x="1170" y="249.1436">repositories</text><polygon fill="#181818" points="1350,281.6973,1360,285.6973,1350,289.6973,1354,285.6973" style="stroke:#181818;stroke-width:1.0;"/><line style="stroke:#181818;stroke-width:1.0;" x1="1142" x2="1356" y1="285.6973" y2="285.6973"/><text fill="#000000" font-family="sans-serif" font-size="13" font-weight="bold" lengthAdjust="spacing" textLength="7" x="1149" y="280.4346">6</text><text fill="#000000" font-family="sans-serif" font-size="13" lengthAdjust="spacing" textLength="120" x="1160" y="280.4346">getTeamRepository()</text><polygon fill="#181818" points="1153,312.9883,1143,316.9883,1153,320.9883,1149,316.9883" style="stroke:#181818;stroke-width:1.0;"/><line style="stroke:#181818;stroke-width:1.0;stroke-dasharray:2.0,2.0;" x1="1147" x2="1366" y1="316.9883" y2="316.9883"/><text fill="#000000" font-family="sans-serif" font-size="13" font-weight="bold" lengthAdjust="spacing" textLength="7" x="1159" y="311.7256">7</text><text fill="#000000" font-family="sans-serif" font-size="13" lengthAdjust="spacing" textLength="91" x="1170" y="311.7256">teamRepository</text><polygon fill="#181818" points="1350,344.2793,1360,348.2793,1350,352.2793,1354,348.2793" style="stroke:#181818;stroke-width:1.0;"/><line style="stroke:#181818;stroke-width:1.0;" x1="1142" x2="1356" y1="348.2793" y2="348.2793"/><text fill="#000000" font-family="sans-serif" font-size="13" font-weight="bold" lengthAdjust="spacing" textLength="7" x="1149" y="343.0166">8</text><text fill="#000000" font-family="sans-serif" font-size="13" lengthAdjust="spacing" textLength="132" x="1160" y="343.0166">getAgendaRepository()</text><polygon fill="#181818" points="1153,375.5703,1143,379.5703,1153,383.5703,1149,379.5703" style="stroke:#181818;stroke-width:1.0;"/><line style="stroke:#181818;stroke-width:1.0;stroke-dasharray:2.0,2.0;" x1="1147" x2="1366" y1="379.5703" y2="379.5703"/><text fill="#000000" font-family="sans-serif" font-size="13" font-weight="bold" lengthAdjust="spacing" textLength="7" x="1159" y="374.3076">9</text><text fill="#000000" font-family="sans-serif" font-size="13" lengthAdjust="spacing" textLength="106" x="1170" y="374.3076">AgendaRepository</text><polygon fill="#181818" points="1646,406.8613,1656,410.8613,1646,414.8613,1650,410.8613" style="stroke:#181818;stroke-width:1.0;"/><line style="stroke:#181818;stroke-width:1.0;" x1="1142" x2="1652" y1="410.8613" y2="410.8613"/><text fill="#000000" font-family="sans-serif" font-size="13" font-weight="bold" lengthAdjust="spacing" textLength="14" x="1149" y="405.5986">10</text><text fill="#000000" font-family="sans-serif" font-size="13" lengthAdjust="spacing" textLength="201" x="1167" y="405.5986">getAgendaEntriesForResponsible()</text><path d="M1575.5,425.8613 L1648.5,425.8613 L1648.5,435.1523 L1638.5,445.1523 L1575.5,445.1523 L1575.5,425.8613 " fill="#EEEEEE" style="stroke:#000000;stroke-width:1.5;"/><rect fill="none" height="248.0371" style="stroke:#000000;stroke-width:1.5;" width="780" x="1575.5" y="425.8613"/><text fill="#000000" font-family="sans-serif" font-size="13" font-weight="bold" lengthAdjust="spacing" textLength="28" x="1590.5" y="440.8896">loop</text><text fill="#000000" font-family="sans-serif" font-size="11" font-weight="bold" lengthAdjust="spacing" textLength="151" x="1663.5" y="439.7314">[for agendaEntry in agenda]</text><polygon fill="#181818" points="2194.5,464.4434,2204.5,468.4434,2194.5,472.4434,2198.5,468.4434" style="stroke:#181818;stroke-width:1.0;"/><line style="stroke:#181818;stroke-width:1.0;" x1="1668" x2="2200.5" y1="468.4434" y2="468.4434"/><text fill="#000000" font-family="sans-serif" font-size="13" font-weight="bold" lengthAdjust="spacing" textLength="14" x="1675" y="463.1807">11</text><text fill="#000000" font-family="sans-serif" font-size="13" lengthAdjust="spacing" textLength="97" x="1693" y="463.1807">getResponsible()</text><line style="stroke:#181818;stroke-width:1.0;" x1="2216.5" x2="2263.5" y1="494.7344" y2="494.7344"/><line style="stroke:#181818;stroke-width:1.0;" x1="2263.5" x2="2263.5" y1="494.7344" y2="507.7344"/><line style="stroke:#181818;stroke-width:1.0;" x1="2222.5" x2="2263.5" y1="507.7344" y2="507.7344"/><polygon fill="#181818" points="2232.5,503.7344,2222.5,507.7344,2232.5,511.7344,2228.5,507.7344" style="stroke:#181818;stroke-width:1.0;"/><text fill="#000000" font-family="sans-serif" font-size="13" font-weight="bold" lengthAdjust="spacing" textLength="14" x="2228.5" y="489.4717">12</text><text fill="#000000" font-family="sans-serif" font-size="13" lengthAdjust="spacing" textLength="97" x="2246.5" y="489.4717">getResponsible()</text><line style="stroke:#181818;stroke-width:1.0;stroke-dasharray:2.0,2.0;" x1="2221.5" x2="2263.5" y1="549.0254" y2="549.0254"/><line style="stroke:#181818;stroke-width:1.0;stroke-dasharray:2.0,2.0;" x1="2263.5" x2="2263.5" y1="549.0254" y2="562.0254"/><line style="stroke:#181818;stroke-width:1.0;stroke-dasharray:2.0,2.0;" x1="2216.5" x2="2263.5" y1="562.0254" y2="562.0254"/><polygon fill="#181818" points="2226.5,558.0254,2216.5,562.0254,2226.5,566.0254,2222.5,562.0254" style="stroke:#181818;stroke-width:1.0;"/><text fill="#000000" font-family="sans-serif" font-size="13" font-weight="bold" lengthAdjust="spacing" textLength="14" x="2228.5" y="543.7627">13</text><text fill="#000000" font-family="sans-serif" font-size="13" lengthAdjust="spacing" textLength="66" x="2246.5" y="543.7627">responsible</text><polygon fill="#181818" points="1679,584.3164,1669,588.3164,1679,592.3164,1675,588.3164" style="stroke:#181818;stroke-width:1.0;"/><line style="stroke:#181818;stroke-width:1.0;stroke-dasharray:2.0,2.0;" x1="1673" x2="2210.5" y1="588.3164" y2="588.3164"/><text fill="#000000" font-family="sans-serif" font-size="13" font-weight="bold" lengthAdjust="spacing" textLength="14" x="1685" y="583.0537">14</text><text fill="#000000" font-family="sans-serif" font-size="13" lengthAdjust="spacing" textLength="66" x="1703" y="583.0537">responsible</text><path d="M1585.5,603.3164 L1650.5,603.3164 L1650.5,612.6074 L1640.5,622.6074 L1585.5,622.6074 L1585.5,603.3164 " fill="#EEEEEE" style="stroke:#000000;stroke-width:1.5;"/><rect fill="none" height="63.582" style="stroke:#000000;stroke-width:1.5;" width="694" x="1585.5" y="603.3164"/><text fill="#000000" font-family="sans-serif" font-size="13" font-weight="bold" lengthAdjust="spacing" textLength="20" x="1600.5" y="618.3447">opt</text><text fill="#000000" font-family="sans-serif" font-size="11" font-weight="bold" lengthAdjust="spacing" textLength="609" x="1665.5" y="617.1865">[if agendaEntry.getResponsible().equals(responsible) &amp;&amp; !agendaEntry.containsTeam(agendaEntry.getTeam())]</text><line style="stroke:#181818;stroke-width:1.0;stroke-dasharray:2.0,2.0;" x1="1668" x2="1710" y1="645.8984" y2="645.8984"/><line style="stroke:#181818;stroke-width:1.0;stroke-dasharray:2.0,2.0;" x1="1710" x2="1710" y1="645.8984" y2="658.8984"/><line style="stroke:#181818;stroke-width:1.0;stroke-dasharray:2.0,2.0;" x1="1669" x2="1710" y1="658.8984" y2="658.8984"/><polygon fill="#181818" points="1679,654.8984,1669,658.8984,1679,662.8984,1675,658.8984" style="stroke:#181818;stroke-width:1.0;"/><text fill="#000000" font-family="sans-serif" font-size="13" font-weight="bold" lengthAdjust="spacing" textLength="14" x="1675" y="640.6357">15</text><text fill="#000000" font-family="sans-serif" font-size="13" lengthAdjust="spacing" textLength="134" x="1693" y="640.6357">add to agendaEntryList</text><polygon fill="#181818" points="1153,700.1895,1143,704.1895,1153,708.1895,1149,704.1895" style="stroke:#181818;stroke-width:1.0;"/><line style="stroke:#181818;stroke-width:1.0;stroke-dasharray:2.0,2.0;" x1="1147" x2="1662" y1="704.1895" y2="704.1895"/><text fill="#000000" font-family="sans-serif" font-size="13" font-weight="bold" lengthAdjust="spacing" textLength="14" x="1159" y="698.9268">16</text><text fill="#000000" font-family="sans-serif" font-size="13" lengthAdjust="spacing" textLength="94" x="1177" y="698.9268">agendaEntryList</text><polygon fill="#181818" points="1822,731.4805,1832,735.4805,1822,739.4805,1826,735.4805" style="stroke:#181818;stroke-width:1.0;"/><line style="stroke:#181818;stroke-width:1.0;" x1="1142" x2="1828" y1="735.4805" y2="735.4805"/><text fill="#000000" font-family="sans-serif" font-size="13" font-weight="bold" lengthAdjust="spacing" textLength="14" x="1149" y="730.2178">17</text><text fill="#000000" font-family="sans-serif" font-size="13" lengthAdjust="spacing" textLength="79" x="1167" y="730.2178">getListTeam()</text><polygon fill="#181818" points="1153,762.7715,1143,766.7715,1153,770.7715,1149,766.7715" style="stroke:#181818;stroke-width:1.0;"/><line style="stroke:#181818;stroke-width:1.0;stroke-dasharray:2.0,2.0;" x1="1147" x2="1838" y1="766.7715" y2="766.7715"/><text fill="#000000" font-family="sans-serif" font-size="13" font-weight="bold" lengthAdjust="spacing" textLength="14" x="1159" y="761.5088">18</text><text fill="#000000" font-family="sans-serif" font-size="13" lengthAdjust="spacing" textLength="50" x="1177" y="761.5088">teamList</text><polygon fill="#181818" points="2089,794.0625,2099,798.0625,2089,802.0625,2093,798.0625" style="stroke:#181818;stroke-width:1.0;"/><line style="stroke:#181818;stroke-width:1.0;" x1="1142" x2="2095" y1="798.0625" y2="798.0625"/><text fill="#000000" font-family="sans-serif" font-size="13" font-weight="bold" lengthAdjust="spacing" textLength="14" x="1149" y="792.7998">19</text><text fill="#000000" font-family="sans-serif" font-size="13" lengthAdjust="spacing" textLength="108" x="1167" y="792.7998">getEmailServices()</text><polygon fill="#181818" points="1153,825.3535,1143,829.3535,1153,833.3535,1149,829.3535" style="stroke:#181818;stroke-width:1.0;"/><line style="stroke:#181818;stroke-width:1.0;stroke-dasharray:2.0,2.0;" x1="1147" x2="2105" y1="829.3535" y2="829.3535"/><text fill="#000000" font-family="sans-serif" font-size="13" font-weight="bold" lengthAdjust="spacing" textLength="14" x="1159" y="824.0908">20</text><text fill="#000000" font-family="sans-serif" font-size="13" lengthAdjust="spacing" textLength="101" x="1177" y="824.0908">emailServicesList</text><polygon fill="#181818" points="627,856.6445,617,860.6445,627,864.6445,623,860.6445" style="stroke:#181818;stroke-width:1.0;"/><line style="stroke:#181818;stroke-width:1.0;stroke-dasharray:2.0,2.0;" x1="621" x2="1136" y1="860.6445" y2="860.6445"/><text fill="#000000" font-family="sans-serif" font-size="13" font-weight="bold" lengthAdjust="spacing" textLength="14" x="633" y="855.3818">21</text><text fill="#000000" font-family="sans-serif" font-size="13" lengthAdjust="spacing" textLength="282" x="651" y="855.3818">agendaEntryList, teamList and emailServicesList</text><polygon fill="#181818" points="96,887.9355,86,891.9355,96,895.9355,92,891.9355" style="stroke:#181818;stroke-width:1.0;"/><line style="stroke:#181818;stroke-width:1.0;stroke-dasharray:2.0,2.0;" x1="90" x2="605" y1="891.9355" y2="891.9355"/><text fill="#000000" font-family="sans-serif" font-size="13" font-weight="bold" lengthAdjust="spacing" textLength="14" x="102" y="886.6729">22</text><text fill="#000000" font-family="sans-serif" font-size="13" lengthAdjust="spacing" textLength="444" x="120" y="886.6729">Provides a list of agenda entries, teams and email Services (and all their info)</text><polygon fill="#181818" points="96,919.2266,86,923.2266,96,927.2266,92,923.2266" style="stroke:#181818;stroke-width:1.0;"/><line style="stroke:#181818;stroke-width:1.0;stroke-dasharray:2.0,2.0;" x1="90" x2="605" y1="923.2266" y2="923.2266"/><text fill="#000000" font-family="sans-serif" font-size="13" font-weight="bold" lengthAdjust="spacing" textLength="14" x="102" y="917.9639">23</text><text fill="#000000" font-family="sans-serif" font-size="13" lengthAdjust="spacing" textLength="479" x="120" y="917.9639">request to select an agenda entry, a team to assign and the preferred email service</text><polygon fill="#181818" points="594,950.5176,604,954.5176,594,958.5176,598,954.5176" style="stroke:#181818;stroke-width:1.0;"/><line style="stroke:#181818;stroke-width:1.0;" x1="85" x2="600" y1="954.5176" y2="954.5176"/><text fill="#000000" font-family="sans-serif" font-size="13" font-weight="bold" lengthAdjust="spacing" textLength="14" x="92" y="949.2549">24</text><text fill="#000000" font-family="sans-serif" font-size="13" lengthAdjust="spacing" textLength="163" x="110" y="949.2549">select requested information</text><polygon fill="#181818" points="1120,981.8086,1130,985.8086,1120,989.8086,1124,985.8086" style="stroke:#181818;stroke-width:1.0;"/><line style="stroke:#181818;stroke-width:1.0;" x1="611" x2="1126" y1="985.8086" y2="985.8086"/><text fill="#000000" font-family="sans-serif" font-size="13" font-weight="bold" lengthAdjust="spacing" textLength="14" x="618" y="980.5459">25</text><text fill="#000000" font-family="sans-serif" font-size="13" lengthAdjust="spacing" textLength="479" x="636" y="980.5459">assignTeam(int teamID, int agendaEntryID, String emailService, String responsible)</text><polygon fill="#181818" points="1646,1013.0996,1656,1017.0996,1646,1021.0996,1650,1017.0996" style="stroke:#181818;stroke-width:1.0;"/><line style="stroke:#181818;stroke-width:1.0;" x1="1137" x2="1652" y1="1017.0996" y2="1017.0996"/><text fill="#000000" font-family="sans-serif" font-size="13" font-weight="bold" lengthAdjust="spacing" textLength="14" x="1144" y="1011.8369">26</text><text fill="#000000" font-family="sans-serif" font-size="13" lengthAdjust="spacing" textLength="479" x="1162" y="1011.8369">assignTeam(int teamID, int agendaEntryID, String emailService, String responsible)</text><path d="M1585.5,1032.0996 L1650.5,1032.0996 L1650.5,1041.3906 L1640.5,1051.3906 L1585.5,1051.3906 L1585.5,1032.0996 " fill="#EEEEEE" style="stroke:#000000;stroke-width:1.5;"/><rect fill="none" height="170.4551" style="stroke:#000000;stroke-width:1.5;" width="573" x="1585.5" y="1032.0996"/><text fill="#000000" font-family="sans-serif" font-size="13" font-weight="bold" lengthAdjust="spacing" textLength="20" x="1600.5" y="1047.1279">opt</text><text fill="#000000" font-family="sans-serif" font-size="11" font-weight="bold" lengthAdjust="spacing" textLength="126" x="1665.5" y="1045.9697">[if validate(team, task)]</text><line style="stroke:#181818;stroke-width:1.0;" x1="1668" x2="1715" y1="1069.6816" y2="1069.6816"/><line style="stroke:#181818;stroke-width:1.0;" x1="1715" x2="1715" y1="1069.6816" y2="1082.6816"/><line style="stroke:#181818;stroke-width:1.0;" x1="1674" x2="1715" y1="1082.6816" y2="1082.6816"/><polygon fill="#181818" points="1684,1078.6816,1674,1082.6816,1684,1086.6816,1680,1082.6816" style="stroke:#181818;stroke-width:1.0;"/><text fill="#000000" font-family="sans-serif" font-size="13" font-weight="bold" lengthAdjust="spacing" textLength="14" x="1680" y="1064.4189">27</text><text fill="#000000" font-family="sans-serif" font-size="13" lengthAdjust="spacing" textLength="133" x="1698" y="1064.4189">validateInfo(team, task)</text><line style="stroke:#181818;stroke-width:1.0;stroke-dasharray:2.0,2.0;" x1="1673" x2="1715" y1="1123.9727" y2="1123.9727"/><line style="stroke:#181818;stroke-width:1.0;stroke-dasharray:2.0,2.0;" x1="1715" x2="1715" y1="1123.9727" y2="1136.9727"/><line style="stroke:#181818;stroke-width:1.0;stroke-dasharray:2.0,2.0;" x1="1668" x2="1715" y1="1136.9727" y2="1136.9727"/><polygon fill="#181818" points="1678,1132.9727,1668,1136.9727,1678,1140.9727,1674,1136.9727" style="stroke:#181818;stroke-width:1.0;"/><text fill="#000000" font-family="sans-serif" font-size="13" font-weight="bold" lengthAdjust="spacing" textLength="14" x="1680" y="1118.71">28</text><text fill="#000000" font-family="sans-serif" font-size="13" lengthAdjust="spacing" textLength="116" x="1698" y="1118.71">task.setTeam(team)</text><polygon fill="#181818" points="2089,1159.2637,2099,1163.2637,2089,1167.2637,2093,1163.2637" style="stroke:#181818;stroke-width:1.0;"/><line style="stroke:#181818;stroke-width:1.0;" x1="1668" x2="2095" y1="1163.2637" y2="1163.2637"/><text fill="#000000" font-family="sans-serif" font-size="13" font-weight="bold" lengthAdjust="spacing" textLength="14" x="1675" y="1158.001">29</text><text fill="#000000" font-family="sans-serif" font-size="13" lengthAdjust="spacing" textLength="396" x="1693" y="1158.001">sendEmail(emailService, teams.get(teamID).getCollaboratorsEmail())</text><polygon fill="#181818" points="1679,1190.5547,1669,1194.5547,1679,1198.5547,1675,1194.5547" style="stroke:#181818;stroke-width:1.0;"/><line style="stroke:#181818;stroke-width:1.0;" x1="1673" x2="2105" y1="1194.5547" y2="1194.5547"/><text fill="#000000" font-family="sans-serif" font-size="13" font-weight="bold" lengthAdjust="spacing" textLength="14" x="1685" y="1189.292">30</text><text fill="#000000" font-family="sans-serif" font-size="13" lengthAdjust="spacing" textLength="22" x="1703" y="1189.292">true</text><polygon fill="#181818" points="1153,1228.8457,1143,1232.8457,1153,1236.8457,1149,1232.8457" style="stroke:#181818;stroke-width:1.0;"/><line style="stroke:#181818;stroke-width:1.0;stroke-dasharray:2.0,2.0;" x1="1147" x2="1662" y1="1232.8457" y2="1232.8457"/><text fill="#000000" font-family="sans-serif" font-size="13" font-weight="bold" lengthAdjust="spacing" textLength="14" x="1159" y="1227.583">31</text><text fill="#000000" font-family="sans-serif" font-size="13" lengthAdjust="spacing" textLength="22" x="1177" y="1227.583">true</text><polygon fill="#181818" points="627,1260.1367,617,1264.1367,627,1268.1367,623,1264.1367" style="stroke:#181818;stroke-width:1.0;"/><line style="stroke:#181818;stroke-width:1.0;stroke-dasharray:2.0,2.0;" x1="621" x2="1136" y1="1264.1367" y2="1264.1367"/><text fill="#000000" font-family="sans-serif" font-size="13" font-weight="bold" lengthAdjust="spacing" textLength="14" x="633" y="1258.874">32</text><text fill="#000000" font-family="sans-serif" font-size="13" lengthAdjust="spacing" textLength="22" x="651" y="1258.874">true</text><polygon fill="#181818" points="91,1291.4277,81,1295.4277,91,1299.4277,87,1295.4277" style="stroke:#181818;stroke-width:1.0;"/><line style="stroke:#181818;stroke-width:1.0;stroke-dasharray:2.0,2.0;" x1="85" x2="610" y1="1295.4277" y2="1295.4277"/><text fill="#000000" font-family="sans-serif" font-size="13" font-weight="bold" lengthAdjust="spacing" textLength="14" x="97" y="1290.165">33</text><text fill="#000000" font-family="sans-serif" font-size="13" lengthAdjust="spacing" textLength="161" x="115" y="1290.165">team successfully assigned</text><!--SRC=[jLVDRjim3BxhARGUYgHe-m0v30YwhWZG0aMTtdPHR2OLOakUP6V8su-I_oZPSRl3SYXaYlm-YgH8rHwbAeKH1I-qqkc7qGNmojJ0RBzJYlGe3f1KvnouWRGIwf1J1ViXClr7gWFVYzm2OwAkjAgB7HXSfvKs_Eh902YU81Rm5w4GprnnOVbJyi8OmbGobQLG5RzQhQsL1xK5KMprLjZZ-W0g4-yRh_- -YRNzxeDMbT5vtg8-RD-U8xqtABMLw8i4wtLwmJcHxa3eScXYYCKlDGPuVLvlGmlXVHc0qMeTYRnbh1UYL7Zo06CR23n2g1FQMmH_B8JCqJJfrjwgtmaDNcfxq4czosK1NeyAV0RbILJGv0h_yBllc0U-ucjxH5SqchYCSU7TyWB5cuFpHypBUO30z34qHG2NefiR14aDu0uLez30xnfivQqtQgzD8IgfrMB9M0O1Ml_XSywyFU9CP1TX3r1jbCK2JW6XUjEfKc1J27UjXyx1eHgeIvDGWrkkPXe_mgHIRtnTCQyvy4K99uoD-fWWhhnFAMA3CSb04rSmfNH9mwZyrEODRAcLbRiy2FUe_7EjIuv9RdTyrhbKxIVZ-1iHeXEqJ1i7Ga9lrv46DUrs0kile7q2r_z2t36m6L03GnBjyFvT19v8GWokouhBFOthVNomUxngsBONn7J9hw_vDsgKOdyLKbbNjOi8pSkMI_RPGRhzSIgdpoAopFUIWUrPsih3e8JDnimfp1GSc_IXxJqn8I4P0_Kt8hoWJG4vyoOwn9de9hF8a3ZYTc8FOkkUl-_jdjcl4Z0dcOAbTsyO0QnVaXu0r2xc9hODQpS7eeZTzfxZ8CWcC2beqxP70mAXtQHPyLUZJp8379eyTuYwgsOi0jzd6ZOxKF6EYo-SJEGvhpv06kmeUxqCqTivu-hCGevl6pUw2FxvbawrTimXA0Boqi0UZ86ErZQquOXiKLiUr9N3D4DNIDNrhvw5nA7iE3S_RhbRa_0wKOB7nhSM3Milf9SucfHHn8FUSwcj_nUtBZIznYswUVdQKQssnPr4BZDKNZWNiIRmuHXINPeY4vsdmt8lZtcyBtduBqtFyTpRjgawwZ7fV3_wof67cxyQreimS_vIkVQ-Q7A-TEi7V6ABdJO2aMnZjPo92caOiGvfFjDnSF-3p9nyWAOAtLoOZNhNNME6sRXEdczSic5VdAEOANVN0-b6qB5yCx9rYltDxkiyFxTN5B9BJ0X7ljmZ_Yy0]--></g></svg>