<?xml version="1.0" encoding="us-ascii" standalone="no"?><svg xmlns="http://www.w3.org/2000/svg" xmlns:xlink="http://www.w3.org/1999/xlink" contentStyleType="text/css" height="831px" preserveAspectRatio="none" style="width:1134px;height:831px;background:#FFFFFF;" version="1.1" viewBox="0 0 1134 831" width="1134px" zoomAndPan="magnify"><defs/><g><!--class AssignTeamToTaskAgendaUI--><g id="elem_AssignTeamToTaskAgendaUI"><rect codeLine="9" fill="#F1F1F1" height="48" id="AssignTeamToTaskAgendaUI" rx="2.5" ry="2.5" style="stroke:#181818;stroke-width:0.5;" width="219" x="583" y="7"/><ellipse cx="598" cy="23" fill="#ADD1B2" rx="11" ry="11" style="stroke:#181818;stroke-width:1.0;"/><path d="M600.7656,18.875 Q600.9219,18.6563 601.1094,18.5469 Q601.2969,18.4375 601.5156,18.4375 Q601.8906,18.4375 602.125,18.7031 Q602.3594,18.9531 602.3594,19.5625 L602.3594,21.0156 Q602.3594,21.625 602.125,21.8906 Q601.8906,22.1563 601.5156,22.1563 Q601.1719,22.1563 600.9688,21.9531 Q600.7656,21.7656 600.6563,21.25 Q600.6094,20.8906 600.4219,20.7031 Q600.0938,20.3281 599.4844,20.1094 Q598.875,19.8906 598.25,19.8906 Q597.4844,19.8906 596.8438,20.2188 Q596.2188,20.5469 595.7188,21.2969 Q595.2344,22.0469 595.2344,23.0781 L595.2344,24.1719 Q595.2344,25.4063 596.125,26.2344 Q597.0156,27.0469 598.6094,27.0469 Q599.5469,27.0469 600.2031,26.7969 Q600.5938,26.6406 601.0156,26.2031 Q601.2813,25.9375 601.4219,25.8594 Q601.5781,25.7813 601.7813,25.7813 Q602.1094,25.7813 602.3594,26.0469 Q602.625,26.2969 602.625,26.6406 Q602.625,26.9844 602.2813,27.3906 Q601.7813,27.9688 600.9844,28.2969 Q599.9063,28.75 598.6094,28.75 Q597.0938,28.75 595.8906,28.125 Q594.9063,27.625 594.2188,26.5625 Q593.5313,25.4844 593.5313,24.2031 L593.5313,23.0469 Q593.5313,21.7188 594.1406,20.5781 Q594.7656,19.4219 595.8594,18.8125 Q596.9531,18.1875 598.1875,18.1875 Q598.9219,18.1875 599.5625,18.3594 Q600.2188,18.5156 600.7656,18.875 Z " fill="#000000"/><text fill="#000000" font-family="sans-serif" font-size="14" lengthAdjust="spacing" textLength="187" x="612" y="28.7969">AssignTeamToTaskAgendaUI</text><line style="stroke:#181818;stroke-width:0.5;" x1="584" x2="801" y1="39" y2="39"/><line style="stroke:#181818;stroke-width:0.5;" x1="584" x2="801" y1="47" y2="47"/></g><!--class AgendaController--><g id="elem_AgendaController"><rect codeLine="12" fill="#F1F1F1" height="178.3477" id="AgendaController" rx="2.5" ry="2.5" style="stroke:#181818;stroke-width:0.5;" width="371" x="507" y="116"/><ellipse cx="632.75" cy="132" fill="#ADD1B2" rx="11" ry="11" style="stroke:#181818;stroke-width:1.0;"/><path d="M635.5156,127.875 Q635.6719,127.6563 635.8594,127.5469 Q636.0469,127.4375 636.2656,127.4375 Q636.6406,127.4375 636.875,127.7031 Q637.1094,127.9531 637.1094,128.5625 L637.1094,130.0156 Q637.1094,130.625 636.875,130.8906 Q636.6406,131.1563 636.2656,131.1563 Q635.9219,131.1563 635.7188,130.9531 Q635.5156,130.7656 635.4063,130.25 Q635.3594,129.8906 635.1719,129.7031 Q634.8438,129.3281 634.2344,129.1094 Q633.625,128.8906 633,128.8906 Q632.2344,128.8906 631.5938,129.2188 Q630.9688,129.5469 630.4688,130.2969 Q629.9844,131.0469 629.9844,132.0781 L629.9844,133.1719 Q629.9844,134.4063 630.875,135.2344 Q631.7656,136.0469 633.3594,136.0469 Q634.2969,136.0469 634.9531,135.7969 Q635.3438,135.6406 635.7656,135.2031 Q636.0313,134.9375 636.1719,134.8594 Q636.3281,134.7813 636.5313,134.7813 Q636.8594,134.7813 637.1094,135.0469 Q637.375,135.2969 637.375,135.6406 Q637.375,135.9844 637.0313,136.3906 Q636.5313,136.9688 635.7344,137.2969 Q634.6563,137.75 633.3594,137.75 Q631.8438,137.75 630.6406,137.125 Q629.6563,136.625 628.9688,135.5625 Q628.2813,134.4844 628.2813,133.2031 L628.2813,132.0469 Q628.2813,130.7188 628.8906,129.5781 Q629.5156,128.4219 630.6094,127.8125 Q631.7031,127.1875 632.9375,127.1875 Q633.6719,127.1875 634.3125,127.3594 Q634.9688,127.5156 635.5156,127.875 Z " fill="#000000"/><text fill="#000000" font-family="sans-serif" font-size="14" lengthAdjust="spacing" textLength="111" x="653.25" y="137.7969">AgendaController</text><line style="stroke:#181818;stroke-width:0.5;" x1="508" x2="877" y1="148" y2="148"/><text fill="#000000" font-family="sans-serif" font-size="14" lengthAdjust="spacing" textLength="242" x="513" y="167.1074">-AgendaRepository agendaRepository</text><text fill="#000000" font-family="sans-serif" font-size="14" lengthAdjust="spacing" textLength="212" x="513" y="185.7285">-TeamRepository teamRepository</text><line style="stroke:#181818;stroke-width:0.5;" x1="508" x2="877" y1="193.2422" y2="193.2422"/><text fill="#000000" font-family="sans-serif" font-size="14" lengthAdjust="spacing" textLength="282" x="513" y="212.3496">+assignTeam(int, int, String, String): boolean</text><text fill="#000000" font-family="sans-serif" font-size="14" lengthAdjust="spacing" textLength="209" x="513" y="230.9707">+getEmailServices(): List&lt;String&gt;</text><text fill="#000000" font-family="sans-serif" font-size="14" lengthAdjust="spacing" textLength="161" x="513" y="249.5918">+getResponsible(): String</text><text fill="#000000" font-family="sans-serif" font-size="14" lengthAdjust="spacing" textLength="359" x="513" y="268.2129">+getAgendaEntriesForResponsible(): List&lt;AgendaEntry&gt;</text><text fill="#000000" font-family="sans-serif" font-size="14" lengthAdjust="spacing" textLength="163" x="513" y="286.834">+getTeams(): List&lt;Team&gt;</text></g><!--class AgendaRepository--><g id="elem_AgendaRepository"><rect codeLine="23" fill="#F1F1F1" height="103.8633" id="AgendaRepository" rx="2.5" ry="2.5" style="stroke:#181818;stroke-width:0.5;" width="408" x="118.5" y="556"/><ellipse cx="259.75" cy="572" fill="#ADD1B2" rx="11" ry="11" style="stroke:#181818;stroke-width:1.0;"/><path d="M262.5156,567.875 Q262.6719,567.6563 262.8594,567.5469 Q263.0469,567.4375 263.2656,567.4375 Q263.6406,567.4375 263.875,567.7031 Q264.1094,567.9531 264.1094,568.5625 L264.1094,570.0156 Q264.1094,570.625 263.875,570.8906 Q263.6406,571.1563 263.2656,571.1563 Q262.9219,571.1563 262.7188,570.9531 Q262.5156,570.7656 262.4063,570.25 Q262.3594,569.8906 262.1719,569.7031 Q261.8438,569.3281 261.2344,569.1094 Q260.625,568.8906 260,568.8906 Q259.2344,568.8906 258.5938,569.2188 Q257.9688,569.5469 257.4688,570.2969 Q256.9844,571.0469 256.9844,572.0781 L256.9844,573.1719 Q256.9844,574.4063 257.875,575.2344 Q258.7656,576.0469 260.3594,576.0469 Q261.2969,576.0469 261.9531,575.7969 Q262.3438,575.6406 262.7656,575.2031 Q263.0313,574.9375 263.1719,574.8594 Q263.3281,574.7813 263.5313,574.7813 Q263.8594,574.7813 264.1094,575.0469 Q264.375,575.2969 264.375,575.6406 Q264.375,575.9844 264.0313,576.3906 Q263.5313,576.9688 262.7344,577.2969 Q261.6563,577.75 260.3594,577.75 Q258.8438,577.75 257.6406,577.125 Q256.6563,576.625 255.9688,575.5625 Q255.2813,574.4844 255.2813,573.2031 L255.2813,572.0469 Q255.2813,570.7188 255.8906,569.5781 Q256.5156,568.4219 257.6094,567.8125 Q258.7031,567.1875 259.9375,567.1875 Q260.6719,567.1875 261.3125,567.3594 Q261.9688,567.5156 262.5156,567.875 Z " fill="#000000"/><text fill="#000000" font-family="sans-serif" font-size="14" lengthAdjust="spacing" textLength="117" x="280.25" y="577.7969">AgendaRepository</text><line style="stroke:#181818;stroke-width:0.5;" x1="119.5" x2="525.5" y1="588" y2="588"/><text fill="#000000" font-family="sans-serif" font-size="14" lengthAdjust="spacing" textLength="177" x="124.5" y="607.1074">-List&lt;AgendaEntry&gt; agenda</text><line style="stroke:#181818;stroke-width:0.5;" x1="119.5" x2="525.5" y1="614.6211" y2="614.6211"/><text fill="#000000" font-family="sans-serif" font-size="14" lengthAdjust="spacing" textLength="396" x="124.5" y="633.7285">+getAgendaEntriesForResponsible(String): List&lt;AgendaEntry&gt;</text><text fill="#000000" font-family="sans-serif" font-size="14" lengthAdjust="spacing" textLength="258" x="124.5" y="652.3496">+assignTeam(Team, int, String): boolean</text></g><!--class ToDoListRepository--><g id="elem_ToDoListRepository"><rect codeLine="30" fill="#F1F1F1" height="66.6211" id="ToDoListRepository" rx="2.5" ry="2.5" style="stroke:#181818;stroke-width:0.5;" width="179" x="7" y="748"/><ellipse cx="31.9" cy="764" fill="#ADD1B2" rx="11" ry="11" style="stroke:#181818;stroke-width:1.0;"/><path d="M34.6656,759.875 Q34.8219,759.6563 35.0094,759.5469 Q35.1969,759.4375 35.4156,759.4375 Q35.7906,759.4375 36.025,759.7031 Q36.2594,759.9531 36.2594,760.5625 L36.2594,762.0156 Q36.2594,762.625 36.025,762.8906 Q35.7906,763.1563 35.4156,763.1563 Q35.0719,763.1563 34.8688,762.9531 Q34.6656,762.7656 34.5563,762.25 Q34.5094,761.8906 34.3219,761.7031 Q33.9938,761.3281 33.3844,761.1094 Q32.775,760.8906 32.15,760.8906 Q31.3844,760.8906 30.7438,761.2188 Q30.1188,761.5469 29.6188,762.2969 Q29.1344,763.0469 29.1344,764.0781 L29.1344,765.1719 Q29.1344,766.4063 30.025,767.2344 Q30.9156,768.0469 32.5094,768.0469 Q33.4469,768.0469 34.1031,767.7969 Q34.4938,767.6406 34.9156,767.2031 Q35.1813,766.9375 35.3219,766.8594 Q35.4781,766.7813 35.6813,766.7813 Q36.0094,766.7813 36.2594,767.0469 Q36.525,767.2969 36.525,767.6406 Q36.525,767.9844 36.1813,768.3906 Q35.6813,768.9688 34.8844,769.2969 Q33.8063,769.75 32.5094,769.75 Q30.9938,769.75 29.7906,769.125 Q28.8063,768.625 28.1188,767.5625 Q27.4313,766.4844 27.4313,765.2031 L27.4313,764.0469 Q27.4313,762.7188 28.0406,761.5781 Q28.6656,760.4219 29.7594,759.8125 Q30.8531,759.1875 32.0875,759.1875 Q32.8219,759.1875 33.4625,759.3594 Q34.1188,759.5156 34.6656,759.875 Z " fill="#000000"/><text fill="#000000" font-family="sans-serif" font-size="14" lengthAdjust="spacing" textLength="125" x="48.1" y="769.7969">ToDoListRepository</text><line style="stroke:#181818;stroke-width:0.5;" x1="8" x2="185" y1="780" y2="780"/><text fill="#000000" font-family="sans-serif" font-size="14" lengthAdjust="spacing" textLength="167" x="13" y="799.1074">-List&lt;ToDoEntry&gt; toDoList</text><line style="stroke:#181818;stroke-width:0.5;" x1="8" x2="185" y1="806.6211" y2="806.6211"/></g><!--class TeamRepository--><g id="elem_TeamRepository"><rect codeLine="34" fill="#F1F1F1" height="85.2422" id="TeamRepository" rx="2.5" ry="2.5" style="stroke:#181818;stroke-width:0.5;" width="190" x="484.5" y="739"/><ellipse cx="523.8" cy="755" fill="#ADD1B2" rx="11" ry="11" style="stroke:#181818;stroke-width:1.0;"/><path d="M526.5656,750.875 Q526.7219,750.6563 526.9094,750.5469 Q527.0969,750.4375 527.3156,750.4375 Q527.6906,750.4375 527.925,750.7031 Q528.1594,750.9531 528.1594,751.5625 L528.1594,753.0156 Q528.1594,753.625 527.925,753.8906 Q527.6906,754.1563 527.3156,754.1563 Q526.9719,754.1563 526.7688,753.9531 Q526.5656,753.7656 526.4563,753.25 Q526.4094,752.8906 526.2219,752.7031 Q525.8938,752.3281 525.2844,752.1094 Q524.675,751.8906 524.05,751.8906 Q523.2844,751.8906 522.6438,752.2188 Q522.0188,752.5469 521.5188,753.2969 Q521.0344,754.0469 521.0344,755.0781 L521.0344,756.1719 Q521.0344,757.4063 521.925,758.2344 Q522.8156,759.0469 524.4094,759.0469 Q525.3469,759.0469 526.0031,758.7969 Q526.3938,758.6406 526.8156,758.2031 Q527.0813,757.9375 527.2219,757.8594 Q527.3781,757.7813 527.5813,757.7813 Q527.9094,757.7813 528.1594,758.0469 Q528.425,758.2969 528.425,758.6406 Q528.425,758.9844 528.0813,759.3906 Q527.5813,759.9688 526.7844,760.2969 Q525.7063,760.75 524.4094,760.75 Q522.8938,760.75 521.6906,760.125 Q520.7063,759.625 520.0188,758.5625 Q519.3313,757.4844 519.3313,756.2031 L519.3313,755.0469 Q519.3313,753.7188 519.9406,752.5781 Q520.5656,751.4219 521.6594,750.8125 Q522.7531,750.1875 523.9875,750.1875 Q524.7219,750.1875 525.3625,750.3594 Q526.0188,750.5156 526.5656,750.875 Z " fill="#000000"/><text fill="#000000" font-family="sans-serif" font-size="14" lengthAdjust="spacing" textLength="104" x="543.2" y="760.7969">TeamRepository</text><line style="stroke:#181818;stroke-width:0.5;" x1="485.5" x2="673.5" y1="771" y2="771"/><text fill="#000000" font-family="sans-serif" font-size="14" lengthAdjust="spacing" textLength="136" x="490.5" y="790.1074">-List&lt;Team&gt; teamList</text><line style="stroke:#181818;stroke-width:0.5;" x1="485.5" x2="673.5" y1="797.6211" y2="797.6211"/><text fill="#000000" font-family="sans-serif" font-size="14" lengthAdjust="spacing" textLength="178" x="490.5" y="816.7285">+getListTeam(): List&lt;Team&gt;</text></g><!--class Repositories--><g id="elem_Repositories"><rect codeLine="38" fill="#F1F1F1" height="103.8633" id="Repositories" rx="2.5" ry="2.5" style="stroke:#181818;stroke-width:0.5;" width="194" x="257.5" y="373"/><ellipse cx="310.75" cy="389" fill="#ADD1B2" rx="11" ry="11" style="stroke:#181818;stroke-width:1.0;"/><path d="M313.5156,384.875 Q313.6719,384.6563 313.8594,384.5469 Q314.0469,384.4375 314.2656,384.4375 Q314.6406,384.4375 314.875,384.7031 Q315.1094,384.9531 315.1094,385.5625 L315.1094,387.0156 Q315.1094,387.625 314.875,387.8906 Q314.6406,388.1563 314.2656,388.1563 Q313.9219,388.1563 313.7188,387.9531 Q313.5156,387.7656 313.4063,387.25 Q313.3594,386.8906 313.1719,386.7031 Q312.8438,386.3281 312.2344,386.1094 Q311.625,385.8906 311,385.8906 Q310.2344,385.8906 309.5938,386.2188 Q308.9688,386.5469 308.4688,387.2969 Q307.9844,388.0469 307.9844,389.0781 L307.9844,390.1719 Q307.9844,391.4063 308.875,392.2344 Q309.7656,393.0469 311.3594,393.0469 Q312.2969,393.0469 312.9531,392.7969 Q313.3438,392.6406 313.7656,392.2031 Q314.0313,391.9375 314.1719,391.8594 Q314.3281,391.7813 314.5313,391.7813 Q314.8594,391.7813 315.1094,392.0469 Q315.375,392.2969 315.375,392.6406 Q315.375,392.9844 315.0313,393.3906 Q314.5313,393.9688 313.7344,394.2969 Q312.6563,394.75 311.3594,394.75 Q309.8438,394.75 308.6406,394.125 Q307.6563,393.625 306.9688,392.5625 Q306.2813,391.4844 306.2813,390.2031 L306.2813,389.0469 Q306.2813,387.7188 306.8906,386.5781 Q307.5156,385.4219 308.6094,384.8125 Q309.7031,384.1875 310.9375,384.1875 Q311.6719,384.1875 312.3125,384.3594 Q312.9688,384.5156 313.5156,384.875 Z " fill="#000000"/><text fill="#000000" font-family="sans-serif" font-size="14" lengthAdjust="spacing" textLength="79" x="331.25" y="394.7969">Repositories</text><line style="stroke:#181818;stroke-width:0.5;" x1="258.5" x2="450.5" y1="405" y2="405"/><line style="stroke:#181818;stroke-width:0.5;" x1="258.5" x2="450.5" y1="413" y2="413"/><text fill="#000000" font-family="sans-serif" font-size="14" lengthAdjust="spacing" textLength="94" x="263.5" y="432.1074">-Repositories()</text><text fill="#000000" font-family="sans-serif" font-size="14" lengthAdjust="spacing" textLength="182" x="263.5" y="450.7285">+getInstance() : Repositories</text><text fill="#000000" font-family="sans-serif" font-size="14" lengthAdjust="spacing" textLength="131" x="263.5" y="469.3496">+getSkillRepository()</text></g><!--class SendEmail--><g id="elem_SendEmail"><rect codeLine="44" fill="#F1F1F1" height="85.2422" id="SendEmail" rx="2.5" ry="2.5" style="stroke:#181818;stroke-width:0.5;" width="301" x="826" y="382.5"/><ellipse cx="938.75" cy="398.5" fill="#ADD1B2" rx="11" ry="11" style="stroke:#181818;stroke-width:1.0;"/><path d="M941.5156,394.375 Q941.6719,394.1563 941.8594,394.0469 Q942.0469,393.9375 942.2656,393.9375 Q942.6406,393.9375 942.875,394.2031 Q943.1094,394.4531 943.1094,395.0625 L943.1094,396.5156 Q943.1094,397.125 942.875,397.3906 Q942.6406,397.6563 942.2656,397.6563 Q941.9219,397.6563 941.7188,397.4531 Q941.5156,397.2656 941.4063,396.75 Q941.3594,396.3906 941.1719,396.2031 Q940.8438,395.8281 940.2344,395.6094 Q939.625,395.3906 939,395.3906 Q938.2344,395.3906 937.5938,395.7188 Q936.9688,396.0469 936.4688,396.7969 Q935.9844,397.5469 935.9844,398.5781 L935.9844,399.6719 Q935.9844,400.9063 936.875,401.7344 Q937.7656,402.5469 939.3594,402.5469 Q940.2969,402.5469 940.9531,402.2969 Q941.3438,402.1406 941.7656,401.7031 Q942.0313,401.4375 942.1719,401.3594 Q942.3281,401.2813 942.5313,401.2813 Q942.8594,401.2813 943.1094,401.5469 Q943.375,401.7969 943.375,402.1406 Q943.375,402.4844 943.0313,402.8906 Q942.5313,403.4688 941.7344,403.7969 Q940.6563,404.25 939.3594,404.25 Q937.8438,404.25 936.6406,403.625 Q935.6563,403.125 934.9688,402.0625 Q934.2813,400.9844 934.2813,399.7031 L934.2813,398.5469 Q934.2813,397.2188 934.8906,396.0781 Q935.5156,394.9219 936.6094,394.3125 Q937.7031,393.6875 938.9375,393.6875 Q939.6719,393.6875 940.3125,393.8594 Q940.9688,394.0156 941.5156,394.375 Z " fill="#000000"/><text fill="#000000" font-family="sans-serif" font-size="14" lengthAdjust="spacing" textLength="67" x="959.25" y="404.2969">SendEmail</text><line style="stroke:#181818;stroke-width:0.5;" x1="827" x2="1126" y1="414.5" y2="414.5"/><line style="stroke:#181818;stroke-width:0.5;" x1="827" x2="1126" y1="422.5" y2="422.5"/><text fill="#000000" font-family="sans-serif" font-size="14" lengthAdjust="spacing" textLength="289" x="832" y="441.6074">+sendEmail(String, String, String, String): void</text><text fill="#000000" font-family="sans-serif" font-size="14" lengthAdjust="spacing" textLength="209" x="832" y="460.2285">+getEmailServices(): List&lt;String&gt;</text></g><!--link AssignTeamToTaskAgendaUI to AgendaController--><g id="link_AssignTeamToTaskAgendaUI_AgendaController"><path codeLine="49" d="M692.5,55.2 C692.5,71.15 692.5,87.45 692.5,109.93 " fill="none" id="AssignTeamToTaskAgendaUI-to-AgendaController" style="stroke:#181818;stroke-width:1.0;stroke-dasharray:7.0,7.0;"/><polygon fill="#181818" points="692.5,115.93,696.5,106.93,692.5,110.93,688.5,106.93,692.5,115.93" style="stroke:#181818;stroke-width:1.0;"/></g><!--link AgendaController to AgendaRepository--><g id="link_AgendaController_AgendaRepository"><path codeLine="50" d="M645.22,294.36 C602.91,373.44 547.5,477 547.5,477 C547.5,477 479.0153,516.5685 415.9753,552.9885 " fill="none" id="AgendaController-to-AgendaRepository" style="stroke:#181818;stroke-width:1.0;stroke-dasharray:7.0,7.0;"/><polygon fill="#181818" points="410.78,555.99,420.5739,554.9513,415.1094,553.4888,416.572,548.0243,410.78,555.99" style="stroke:#181818;stroke-width:1.0;"/><text fill="#000000" font-family="sans-serif" font-size="13" lengthAdjust="spacing" textLength="104" x="602.5" y="430.5283">agendaRepository</text></g><!--link AgendaController to TeamRepository--><g id="link_AgendaController_TeamRepository"><path codeLine="51" d="M704.67,294.39 C710.19,334.45 715.5,373 715.5,373 C715.5,373 715.5,477 715.5,477 C715.5,477 637.823,650.3343 600.583,733.4643 " fill="none" id="AgendaController-to-TeamRepository" style="stroke:#181818;stroke-width:1.0;stroke-dasharray:7.0,7.0;"/><polygon fill="#181818" points="598.13,738.94,605.4599,732.3618,600.1741,734.3769,598.159,729.0912,598.13,738.94" style="stroke:#181818;stroke-width:1.0;"/><text fill="#000000" font-family="sans-serif" font-size="13" lengthAdjust="spacing" textLength="91" x="702.5" y="522.0283">teamRepository</text></g><!--link AgendaRepository to ToDoListRepository--><g id="link_AgendaRepository_ToDoListRepository"><path codeLine="52" d="M255,660.22 C217.54,688.65 176.8493,719.5226 144.2393,744.2726 " fill="none" id="AgendaRepository-to-ToDoListRepository" style="stroke:#181818;stroke-width:1.0;stroke-dasharray:7.0,7.0;"/><polygon fill="#181818" points="139.46,747.9,149.0473,745.6452,143.4428,744.8772,144.2108,739.2727,139.46,747.9" style="stroke:#181818;stroke-width:1.0;"/><text fill="#000000" font-family="sans-serif" font-size="13" lengthAdjust="spacing" textLength="110" x="210.5" y="705.0283">toDoListRepository</text></g><!--link AgendaRepository to TeamRepository--><g id="link_AgendaRepository_TeamRepository"><path codeLine="53" d="M393.12,660.17 C427.07,684.78 460.5,709 460.5,709 C460.5,709 478.957,720.0898 505.137,735.8198 " fill="none" id="AgendaRepository-to-TeamRepository" style="stroke:#181818;stroke-width:1.0;stroke-dasharray:7.0,7.0;"/><polygon fill="#181818" points="510.28,738.91,504.6255,730.8461,505.9941,736.3349,500.5053,737.7035,510.28,738.91" style="stroke:#181818;stroke-width:1.0;"/><text fill="#000000" font-family="sans-serif" font-size="13" lengthAdjust="spacing" textLength="91" x="461.5" y="705.0283">teamRepository</text></g><!--link AgendaController to SendEmail--><g id="link_AgendaController_SendEmail"><path codeLine="54" d="M807.2,294.04 C846.91,324.53 884.8305,353.6367 917.4005,378.6367 " fill="none" id="AgendaController-to-SendEmail" style="stroke:#181818;stroke-width:1.0;stroke-dasharray:7.0,7.0;"/><polygon fill="#181818" points="922.16,382.29,917.4562,373.637,918.1937,379.2456,912.5851,379.9831,922.16,382.29" style="stroke:#181818;stroke-width:1.0;"/><text fill="#000000" font-family="sans-serif" font-size="13" lengthAdjust="spacing" textLength="61" x="869.5" y="339.0283">sendEmail</text></g><!--link Repositories to Repositories--><g id="link_Repositories_Repositories"><path codeLine="55" d="M451.78,408.72 C471.98,410.43 486.5,415.86 486.5,425 C486.5,434.14 477.9586,439.0639 457.7586,440.7739 " fill="none" id="Repositories-to-Repositories" style="stroke:#181818;stroke-width:1.0;"/><polygon fill="#181818" points="451.78,441.28,461.0853,444.5066,456.7622,440.8582,460.4105,436.5351,451.78,441.28" style="stroke:#181818;stroke-width:1.0;"/><text fill="#000000" font-family="sans-serif" font-size="13" lengthAdjust="spacing" textLength="49" x="492.5" y="430.5283">instance</text></g><!--link Repositories to TeamRepository--><g id="link_Repositories_TeamRepository"><path codeLine="56" d="M428.66,477.01 C481.6,513.43 543.5,556 543.5,556 C543.5,556 561.45,667.9557 571.86,732.8757 " fill="none" id="Repositories-to-TeamRepository" style="stroke:#181818;stroke-width:1.0;"/><polygon fill="#181818" points="572.81,738.8,575.3346,729.2802,572.0184,733.8631,567.4355,730.5468,572.81,738.8" style="stroke:#181818;stroke-width:1.0;"/><text fill="#000000" font-family="sans-serif" font-size="13" lengthAdjust="spacing" textLength="7" x="559.8672" y="727.6722">1</text></g><!--link Repositories to ToDoListRepository--><g id="link_Repositories_ToDoListRepository"><path codeLine="57" d="M257.39,475.7 C185.68,512.4 100.5,556 100.5,556 C100.5,556 98.2969,679.591 97.1869,741.861 " fill="none" id="Repositories-to-ToDoListRepository" style="stroke:#181818;stroke-width:1.0;"/><polygon fill="#181818" points="97.08,747.86,101.2398,738.9327,97.1691,742.8608,93.241,738.7901,97.08,747.86" style="stroke:#181818;stroke-width:1.0;"/><text fill="#000000" font-family="sans-serif" font-size="13" lengthAdjust="spacing" textLength="7" x="85.1114" y="736.658">1</text></g><!--link Repositories to AgendaRepository--><g id="link_Repositories_AgendaRepository"><path codeLine="58" d="M345.42,477.38 C341.07,501.94 336.9349,525.3517 332.5949,549.8917 " fill="none" id="Repositories-to-AgendaRepository" style="stroke:#181818;stroke-width:1.0;"/><polygon fill="#181818" points="331.55,555.8,337.0562,547.6341,332.4208,550.8764,329.1785,546.2409,331.55,555.8" style="stroke:#181818;stroke-width:1.0;"/><text fill="#000000" font-family="sans-serif" font-size="13" lengthAdjust="spacing" textLength="7" x="321.027" y="544.7005">1</text></g><!--link AgendaController to Repositories--><g id="link_AgendaController_Repositories"><path codeLine="59" d="M556,294.04 C514.41,320.87 475.1326,346.1985 438.6726,369.7085 " fill="none" id="AgendaController-to-Repositories" style="stroke:#181818;stroke-width:1.0;stroke-dasharray:7.0,7.0;"/><polygon fill="#181818" points="433.63,372.96,443.3615,371.4444,437.8321,370.2504,439.0262,364.721,433.63,372.96" style="stroke:#181818;stroke-width:1.0;"/><text fill="#000000" font-family="sans-serif" font-size="13" lengthAdjust="spacing" textLength="72" x="504.5" y="339.0283">Repositories</text></g><!--SRC=[ZLF1Rjim3BthAuXUag9BiLsD8K2mjK20dkhi0nI7TOJ8eY6f7RnY_pv9TYp9Jh3au43Y8_Nu-BWm9w5Qhda33IcgZfeQ1AlVaSL8owiJhx6qdKJGM5ckQfa2p94VwBTGDRnnQTA850fjroAq93j_O8iBGTBsI4bM9Ran6skrsBzRt5QaIl47uIjRI7opO0cqg8yM3iAp4QGO2ocmCKRKQeUysT6EczEcHdNWlxQVxEy82LS_I5bDKgA6JmRkjne2hzYI4PPq1tnoCU1yzGHbioCBe0VW8v6bKFOBX4_f6bBr-V- -W3sHHAw6d1hjKyE5B55_Y0hDqY5UXB7VU_mwmbxHjAICs4lqe3uUmtqdJwv3WUQPz0GUQaPCbnJsXEEx_hIUAfUqVbPkLd2GZjr6QPJZ6h54JF_9r4nK78dkw2VvMjUe-lX0r0xG93aVRvxe1GaJ3pbZT_uKw4sLwqkEvLplOy7qSdaVQssLSVjLkKb1aO4Yf3m9AID7bpsoBvrumKJ3EmzWpZVBt7uNxFX1ud2h5zsBrvOD7X_NipLZixsBg4JkOhvr5nCdKogcQpWh79BclYX61_mt-QON9pJZE8eu29RvORNE_L4uT_SEo76mSiYxRt0tON8LDU_h2d9pa-8Jafap_m40]--></g></svg>