<?xml version="1.0" encoding="us-ascii" standalone="no"?><svg xmlns="http://www.w3.org/2000/svg" xmlns:xlink="http://www.w3.org/1999/xlink" contentStyleType="text/css" height="1652px" preserveAspectRatio="none" style="width:1992px;height:1652px;background:#FFFFFF;" version="1.1" viewBox="0 0 1992 1652" width="1992px" zoomAndPan="magnify"><defs/><g><rect fill="#FFFFFF" height="1461.7051" style="stroke:#181818;stroke-width:1.0;" width="10" x="96.5" y="91.4883"/><rect fill="#FFFFFF" height="467.1465" style="stroke:#181818;stroke-width:1.0;" width="10" x="571.5" y="112.7988"/><rect fill="#FFFFFF" height="103.2422" style="stroke:#181818;stroke-width:1.0;" width="10" x="571.5" y="638.5664"/><rect fill="#FFFFFF" height="29.3105" style="stroke:#181818;stroke-width:1.0;" width="10" x="571.5" y="771.1191"/><rect fill="#FFFFFF" height="723.4531" style="stroke:#181818;stroke-width:1.0;" width="10" x="571.5" y="829.7402"/><rect fill="#FFFFFF" height="454.9688" style="stroke:#181818;stroke-width:1.0;" width="10" x="806.5" y="183.5977"/><rect fill="#FFFFFF" height="664.832" style="stroke:#181818;stroke-width:1.0;" width="10" x="806.5" y="859.0508"/><rect fill="#FFFFFF" height="157.5527" style="stroke:#181818;stroke-width:1.0;" width="10" x="811.5" y="896.3613"/><rect fill="#FFFFFF" height="29.3105" style="stroke:#181818;stroke-width:1.0;" width="10" x="978" y="242.2188"/><rect fill="#FFFFFF" height="29.3105" style="stroke:#181818;stroke-width:1.0;" width="10" x="978" y="930.6719"/><rect fill="#FFFFFF" height="29.3105" style="stroke:#181818;stroke-width:1.0;" width="10" x="1091" y="300.8398"/><rect fill="#FFFFFF" height="29.3105" style="stroke:#181818;stroke-width:1.0;" width="10" x="1091" y="989.293"/><rect fill="#FFFFFF" height="373.7266" style="stroke:#181818;stroke-width:1.0;" width="10" x="1241.5" y="1120.8457"/><rect fill="#FFFFFF" height="124.9316" style="stroke:#181818;stroke-width:1.0;" width="10" x="1246.5" y="1333.3301"/><rect fill="#FFFFFF" height="40.3105" style="stroke:#181818;stroke-width:1.0;" width="10" x="1251.5" y="1375.6406"/><rect fill="#FFFFFF" height="175.8633" style="stroke:#181818;stroke-width:1.0;" width="10" x="1503.5" y="359.4609"/><rect fill="#FFFFFF" height="29.3105" style="stroke:#181818;stroke-width:1.0;" width="10" x="1637.5" y="418.082"/><rect fill="#FFFFFF" height="150.5527" style="stroke:#181818;stroke-width:1.0;" width="10" x="1637.5" y="1180.7773"/><rect fill="#FFFFFF" height="40.3105" style="stroke:#181818;stroke-width:1.0;" width="10" x="1642.5" y="1248.709"/><line style="stroke:#181818;stroke-width:0.5;stroke-dasharray:5.0,5.0;" x1="101" x2="101" y1="81.4883" y2="1571.1934"/><line style="stroke:#181818;stroke-width:0.5;stroke-dasharray:5.0,5.0;" x1="576.5" x2="576.5" y1="81.4883" y2="1571.1934"/><line style="stroke:#181818;stroke-width:0.5;stroke-dasharray:5.0,5.0;" x1="811.5" x2="811.5" y1="151.543" y2="1571.1934"/><line style="stroke:#181818;stroke-width:0.5;stroke-dasharray:5.0,5.0;" x1="982.5" x2="982.5" y1="81.4883" y2="1571.1934"/><line style="stroke:#181818;stroke-width:0.5;stroke-dasharray:5.0,5.0;" x1="1095.5" x2="1095.5" y1="81.4883" y2="1571.1934"/><line style="stroke:#181818;stroke-width:0.5;stroke-dasharray:5.0,5.0;" x1="1246.5" x2="1246.5" y1="81.4883" y2="1571.1934"/><line style="stroke:#181818;stroke-width:0.5;stroke-dasharray:5.0,5.0;" x1="1508.5" x2="1508.5" y1="81.4883" y2="1571.1934"/><line style="stroke:#181818;stroke-width:0.5;stroke-dasharray:5.0,5.0;" x1="1642" x2="1642" y1="81.4883" y2="1571.1934"/><text fill="#000000" font-family="sans-serif" font-size="14" lengthAdjust="spacing" textLength="187" x="5" y="78.5352">Human Resources Manager</text><ellipse cx="101.5" cy="13.5" fill="#E3E3E3" rx="8" ry="8" style="stroke:#181818;stroke-width:0.5;"/><path d="M101.5,21.5 L101.5,48.5 M88.5,29.5 L114.5,29.5 M101.5,48.5 L88.5,63.5 M101.5,48.5 L114.5,63.5 " fill="none" style="stroke:#181818;stroke-width:0.5;"/><text fill="#000000" font-family="sans-serif" font-size="14" lengthAdjust="spacing" textLength="187" x="5" y="1583.7285">Human Resources Manager</text><ellipse cx="101.5" cy="1595.1816" fill="#E3E3E3" rx="8" ry="8" style="stroke:#181818;stroke-width:0.5;"/><path d="M101.5,1603.1816 L101.5,1630.1816 M88.5,1611.1816 L114.5,1611.1816 M101.5,1630.1816 L88.5,1645.1816 M101.5,1630.1816 L114.5,1645.1816 " fill="none" style="stroke:#181818;stroke-width:0.5;"/><rect fill="#E3E3E3" height="30.4883" rx="2.5" ry="2.5" style="stroke:#181818;stroke-width:0.5;" width="164" x="494.5" y="50"/><text fill="#000000" font-family="sans-serif" font-size="14" lengthAdjust="spacing" textLength="150" x="501.5" y="70.5352">:CreateCollaboratorUI</text><rect fill="#E3E3E3" height="30.4883" rx="2.5" ry="2.5" style="stroke:#181818;stroke-width:0.5;" width="164" x="494.5" y="1570.1934"/><text fill="#000000" font-family="sans-serif" font-size="14" lengthAdjust="spacing" textLength="150" x="501.5" y="1590.7285">:CreateCollaboratorUI</text><rect fill="#E3E3E3" height="30.4883" rx="2.5" ry="2.5" style="stroke:#181818;stroke-width:0.5;" width="220" x="701.5" y="1570.1934"/><text fill="#000000" font-family="sans-serif" font-size="14" lengthAdjust="spacing" textLength="206" x="708.5" y="1590.7285">:CreateCollaboratorController</text><rect fill="#E3E3E3" height="30.4883" rx="2.5" ry="2.5" style="stroke:#181818;stroke-width:0.5;" width="103" x="931.5" y="50"/><text fill="#000000" font-family="sans-serif" font-size="14" lengthAdjust="spacing" textLength="89" x="938.5" y="70.5352">:Repositories</text><rect fill="#E3E3E3" height="30.4883" rx="2.5" ry="2.5" style="stroke:#181818;stroke-width:0.5;" width="103" x="931.5" y="1570.1934"/><text fill="#000000" font-family="sans-serif" font-size="14" lengthAdjust="spacing" textLength="89" x="938.5" y="1590.7285">:Repositories</text><rect fill="#E3E3E3" height="46.9766" rx="2.5" ry="2.5" style="stroke:#181818;stroke-width:0.5;" width="103" x="1044.5" y="33.5117"/><text fill="#000000" font-family="sans-serif" font-size="14" lengthAdjust="spacing" textLength="82" x="1055" y="54.0469">repositories</text><text fill="#000000" font-family="sans-serif" font-size="14" lengthAdjust="spacing" textLength="89" x="1051.5" y="70.5352">:Repositories</text><rect fill="#E3E3E3" height="46.9766" rx="2.5" ry="2.5" style="stroke:#181818;stroke-width:0.5;" width="103" x="1044.5" y="1570.1934"/><text fill="#000000" font-family="sans-serif" font-size="14" lengthAdjust="spacing" textLength="82" x="1055" y="1590.7285">repositories</text><text fill="#000000" font-family="sans-serif" font-size="14" lengthAdjust="spacing" textLength="89" x="1051.5" y="1607.2168">:Repositories</text><rect fill="#E3E3E3" height="46.9766" rx="2.5" ry="2.5" style="stroke:#181818;stroke-width:0.5;" width="178" x="1157.5" y="33.5117"/><text fill="#000000" font-family="sans-serif" font-size="14" lengthAdjust="spacing" textLength="164" x="1164.5" y="54.0469">CollaboratorRepository:</text><text fill="#000000" font-family="sans-serif" font-size="14" lengthAdjust="spacing" textLength="160" x="1166.5" y="70.5352">CollaboratorRepository</text><rect fill="#E3E3E3" height="46.9766" rx="2.5" ry="2.5" style="stroke:#181818;stroke-width:0.5;" width="178" x="1157.5" y="1570.1934"/><text fill="#000000" font-family="sans-serif" font-size="14" lengthAdjust="spacing" textLength="164" x="1164.5" y="1590.7285">CollaboratorRepository:</text><text fill="#000000" font-family="sans-serif" font-size="14" lengthAdjust="spacing" textLength="160" x="1166.5" y="1607.2168">CollaboratorRepository</text><rect fill="#E3E3E3" height="46.9766" rx="2.5" ry="2.5" style="stroke:#181818;stroke-width:0.5;" width="120" x="1448.5" y="33.5117"/><text fill="#000000" font-family="sans-serif" font-size="14" lengthAdjust="spacing" textLength="106" x="1455.5" y="54.0469">JobsRepository:</text><text fill="#000000" font-family="sans-serif" font-size="14" lengthAdjust="spacing" textLength="102" x="1457.5" y="70.5352">JobsRepository</text><rect fill="#E3E3E3" height="46.9766" rx="2.5" ry="2.5" style="stroke:#181818;stroke-width:0.5;" width="120" x="1448.5" y="1570.1934"/><text fill="#000000" font-family="sans-serif" font-size="14" lengthAdjust="spacing" textLength="106" x="1455.5" y="1590.7285">JobsRepository:</text><text fill="#000000" font-family="sans-serif" font-size="14" lengthAdjust="spacing" textLength="102" x="1457.5" y="1607.2168">JobsRepository</text><rect fill="#E3E3E3" height="46.9766" rx="2.5" ry="2.5" style="stroke:#181818;stroke-width:0.5;" width="105" x="1590" y="33.5117"/><text fill="#000000" font-family="sans-serif" font-size="14" lengthAdjust="spacing" textLength="84" x="1600.5" y="54.0469">collaborator</text><text fill="#000000" font-family="sans-serif" font-size="14" lengthAdjust="spacing" textLength="91" x="1597" y="70.5352">:Collaborator</text><rect fill="#E3E3E3" height="46.9766" rx="2.5" ry="2.5" style="stroke:#181818;stroke-width:0.5;" width="105" x="1590" y="1570.1934"/><text fill="#000000" font-family="sans-serif" font-size="14" lengthAdjust="spacing" textLength="84" x="1600.5" y="1590.7285">collaborator</text><text fill="#000000" font-family="sans-serif" font-size="14" lengthAdjust="spacing" textLength="91" x="1597" y="1607.2168">:Collaborator</text><rect fill="#FFFFFF" height="1461.7051" style="stroke:#181818;stroke-width:1.0;" width="10" x="96.5" y="91.4883"/><rect fill="#FFFFFF" height="467.1465" style="stroke:#181818;stroke-width:1.0;" width="10" x="571.5" y="112.7988"/><rect fill="#FFFFFF" height="103.2422" style="stroke:#181818;stroke-width:1.0;" width="10" x="571.5" y="638.5664"/><rect fill="#FFFFFF" height="29.3105" style="stroke:#181818;stroke-width:1.0;" width="10" x="571.5" y="771.1191"/><rect fill="#FFFFFF" height="723.4531" style="stroke:#181818;stroke-width:1.0;" width="10" x="571.5" y="829.7402"/><rect fill="#FFFFFF" height="454.9688" style="stroke:#181818;stroke-width:1.0;" width="10" x="806.5" y="183.5977"/><rect fill="#FFFFFF" height="664.832" style="stroke:#181818;stroke-width:1.0;" width="10" x="806.5" y="859.0508"/><rect fill="#FFFFFF" height="157.5527" style="stroke:#181818;stroke-width:1.0;" width="10" x="811.5" y="896.3613"/><rect fill="#FFFFFF" height="29.3105" style="stroke:#181818;stroke-width:1.0;" width="10" x="978" y="242.2188"/><rect fill="#FFFFFF" height="29.3105" style="stroke:#181818;stroke-width:1.0;" width="10" x="978" y="930.6719"/><rect fill="#FFFFFF" height="29.3105" style="stroke:#181818;stroke-width:1.0;" width="10" x="1091" y="300.8398"/><rect fill="#FFFFFF" height="29.3105" style="stroke:#181818;stroke-width:1.0;" width="10" x="1091" y="989.293"/><rect fill="#FFFFFF" height="373.7266" style="stroke:#181818;stroke-width:1.0;" width="10" x="1241.5" y="1120.8457"/><rect fill="#FFFFFF" height="124.9316" style="stroke:#181818;stroke-width:1.0;" width="10" x="1246.5" y="1333.3301"/><rect fill="#FFFFFF" height="40.3105" style="stroke:#181818;stroke-width:1.0;" width="10" x="1251.5" y="1375.6406"/><rect fill="#FFFFFF" height="175.8633" style="stroke:#181818;stroke-width:1.0;" width="10" x="1503.5" y="359.4609"/><rect fill="#FFFFFF" height="29.3105" style="stroke:#181818;stroke-width:1.0;" width="10" x="1637.5" y="418.082"/><rect fill="#FFFFFF" height="150.5527" style="stroke:#181818;stroke-width:1.0;" width="10" x="1637.5" y="1180.7773"/><rect fill="#FFFFFF" height="40.3105" style="stroke:#181818;stroke-width:1.0;" width="10" x="1642.5" y="1248.709"/><polygon fill="#181818" points="559.5,108.7988,569.5,112.7988,559.5,116.7988,563.5,112.7988" style="stroke:#181818;stroke-width:1.0;"/><line style="stroke:#181818;stroke-width:1.0;" x1="106.5" x2="565.5" y1="112.7988" y2="112.7988"/><text fill="#000000" font-family="sans-serif" font-size="13" font-weight="bold" lengthAdjust="spacing" textLength="9" x="113.5" y="108.0566">1</text><text fill="#000000" font-family="sans-serif" font-size="13" lengthAdjust="spacing" textLength="208" x="126.5" y="108.0566">asks to create a new collaborator</text><polygon fill="#181818" points="689.5,138.1094,699.5,142.1094,689.5,146.1094,693.5,142.1094" style="stroke:#181818;stroke-width:1.0;"/><line style="stroke:#181818;stroke-width:1.0;" x1="581.5" x2="695.5" y1="142.1094" y2="142.1094"/><text fill="#000000" font-family="sans-serif" font-size="13" font-weight="bold" lengthAdjust="spacing" textLength="9" x="588.5" y="137.3672">2</text><text fill="#000000" font-family="sans-serif" font-size="13" lengthAdjust="spacing" textLength="38" x="601.5" y="137.3672">create</text><rect fill="#E3E3E3" height="30.4883" rx="2.5" ry="2.5" style="stroke:#181818;stroke-width:0.5;" width="220" x="701.5" y="120.7988"/><text fill="#000000" font-family="sans-serif" font-size="14" lengthAdjust="spacing" textLength="206" x="708.5" y="141.334">:CreateCollaboratorController</text><polygon fill="#181818" points="794.5,179.5977,804.5,183.5977,794.5,187.5977,798.5,183.5977" style="stroke:#181818;stroke-width:1.0;"/><line style="stroke:#181818;stroke-width:1.0;" x1="581.5" x2="800.5" y1="183.5977" y2="183.5977"/><text fill="#000000" font-family="sans-serif" font-size="13" font-weight="bold" lengthAdjust="spacing" textLength="9" x="588.5" y="178.8555">3</text><text fill="#000000" font-family="sans-serif" font-size="13" lengthAdjust="spacing" textLength="153" x="601.5" y="178.8555">requestCollaboratorJob()</text><polygon fill="#181818" points="794.5,208.9082,804.5,212.9082,794.5,216.9082,798.5,212.9082" style="stroke:#181818;stroke-width:1.0;"/><line style="stroke:#181818;stroke-width:1.0;" x1="581.5" x2="800.5" y1="212.9082" y2="212.9082"/><text fill="#000000" font-family="sans-serif" font-size="13" font-weight="bold" lengthAdjust="spacing" textLength="9" x="588.5" y="208.166">4</text><text fill="#000000" font-family="sans-serif" font-size="13" lengthAdjust="spacing" textLength="188" x="601.5" y="208.166">requestCollaboratorDocType()</text><polygon fill="#181818" points="966,238.2188,976,242.2188,966,246.2188,970,242.2188" style="stroke:#181818;stroke-width:1.0;"/><line style="stroke:#181818;stroke-width:1.0;" x1="816.5" x2="972" y1="242.2188" y2="242.2188"/><text fill="#000000" font-family="sans-serif" font-size="13" font-weight="bold" lengthAdjust="spacing" textLength="9" x="823.5" y="237.4766">5</text><text fill="#000000" font-family="sans-serif" font-size="13" lengthAdjust="spacing" textLength="81" x="836.5" y="237.4766">getInstance()</text><polygon fill="#181818" points="827.5,267.5293,817.5,271.5293,827.5,275.5293,823.5,271.5293" style="stroke:#181818;stroke-width:1.0;"/><line style="stroke:#181818;stroke-width:1.0;stroke-dasharray:2.0,2.0;" x1="821.5" x2="982" y1="271.5293" y2="271.5293"/><text fill="#000000" font-family="sans-serif" font-size="13" font-weight="bold" lengthAdjust="spacing" textLength="9" x="833.5" y="266.7871">6</text><text fill="#000000" font-family="sans-serif" font-size="13" lengthAdjust="spacing" textLength="75" x="846.5" y="266.7871">repositories</text><polygon fill="#181818" points="1079,296.8398,1089,300.8398,1079,304.8398,1083,300.8398" style="stroke:#181818;stroke-width:1.0;"/><line style="stroke:#181818;stroke-width:1.0;" x1="816.5" x2="1085" y1="300.8398" y2="300.8398"/><text fill="#000000" font-family="sans-serif" font-size="13" font-weight="bold" lengthAdjust="spacing" textLength="9" x="823.5" y="296.0977">7</text><text fill="#000000" font-family="sans-serif" font-size="13" lengthAdjust="spacing" textLength="115" x="836.5" y="296.0977">getJobRepository()</text><polygon fill="#181818" points="827.5,326.1504,817.5,330.1504,827.5,334.1504,823.5,330.1504" style="stroke:#181818;stroke-width:1.0;"/><line style="stroke:#181818;stroke-width:1.0;stroke-dasharray:2.0,2.0;" x1="821.5" x2="1095" y1="330.1504" y2="330.1504"/><text fill="#000000" font-family="sans-serif" font-size="13" font-weight="bold" lengthAdjust="spacing" textLength="9" x="833.5" y="325.4082">8</text><text fill="#000000" font-family="sans-serif" font-size="13" lengthAdjust="spacing" textLength="87" x="846.5" y="325.4082">jobRepository</text><polygon fill="#181818" points="1491.5,355.4609,1501.5,359.4609,1491.5,363.4609,1495.5,359.4609" style="stroke:#181818;stroke-width:1.0;"/><line style="stroke:#181818;stroke-width:1.0;" x1="816.5" x2="1497.5" y1="359.4609" y2="359.4609"/><text fill="#000000" font-family="sans-serif" font-size="13" font-weight="bold" lengthAdjust="spacing" textLength="9" x="823.5" y="354.7188">9</text><text fill="#000000" font-family="sans-serif" font-size="13" lengthAdjust="spacing" textLength="78" x="836.5" y="354.7188">getJobsList()</text><polygon fill="#181818" points="1491.5,384.7715,1501.5,388.7715,1491.5,392.7715,1495.5,388.7715" style="stroke:#181818;stroke-width:1.0;"/><line style="stroke:#181818;stroke-width:1.0;" x1="816.5" x2="1497.5" y1="388.7715" y2="388.7715"/><text fill="#000000" font-family="sans-serif" font-size="13" font-weight="bold" lengthAdjust="spacing" textLength="18" x="823.5" y="384.0293">10</text><text fill="#000000" font-family="sans-serif" font-size="13" lengthAdjust="spacing" textLength="188" x="845.5" y="384.0293">requestCollaboratorDocType()</text><polygon fill="#181818" points="1625.5,414.082,1635.5,418.082,1625.5,422.082,1629.5,418.082" style="stroke:#181818;stroke-width:1.0;"/><line style="stroke:#181818;stroke-width:1.0;" x1="1513.5" x2="1631.5" y1="418.082" y2="418.082"/><text fill="#000000" font-family="sans-serif" font-size="13" font-weight="bold" lengthAdjust="spacing" textLength="18" x="1520.5" y="413.3398">11</text><text fill="#000000" font-family="sans-serif" font-size="13" lengthAdjust="spacing" textLength="83" x="1542.5" y="413.3398">getDocType()</text><polygon fill="#181818" points="1524.5,443.3926,1514.5,447.3926,1524.5,451.3926,1520.5,447.3926" style="stroke:#181818;stroke-width:1.0;"/><line style="stroke:#181818;stroke-width:1.0;stroke-dasharray:2.0,2.0;" x1="1518.5" x2="1641.5" y1="447.3926" y2="447.3926"/><text fill="#000000" font-family="sans-serif" font-size="13" font-weight="bold" lengthAdjust="spacing" textLength="18" x="1530.5" y="442.6504">12</text><text fill="#000000" font-family="sans-serif" font-size="13" lengthAdjust="spacing" textLength="53" x="1552.5" y="442.6504">docType</text><polygon fill="#181818" points="827.5,472.7031,817.5,476.7031,827.5,480.7031,823.5,476.7031" style="stroke:#181818;stroke-width:1.0;"/><line style="stroke:#181818;stroke-width:1.0;stroke-dasharray:2.0,2.0;" x1="821.5" x2="1502.5" y1="476.7031" y2="476.7031"/><text fill="#000000" font-family="sans-serif" font-size="13" font-weight="bold" lengthAdjust="spacing" textLength="18" x="833.5" y="471.9609">13</text><text fill="#000000" font-family="sans-serif" font-size="13" lengthAdjust="spacing" textLength="50" x="855.5" y="471.9609">jobsList</text><polygon fill="#181818" points="592.5,502.0137,582.5,506.0137,592.5,510.0137,588.5,506.0137" style="stroke:#181818;stroke-width:1.0;"/><line style="stroke:#181818;stroke-width:1.0;stroke-dasharray:2.0,2.0;" x1="586.5" x2="805.5" y1="506.0137" y2="506.0137"/><text fill="#000000" font-family="sans-serif" font-size="13" font-weight="bold" lengthAdjust="spacing" textLength="18" x="598.5" y="501.2715">14</text><text fill="#000000" font-family="sans-serif" font-size="13" lengthAdjust="spacing" textLength="50" x="620.5" y="501.2715">jobsList</text><polygon fill="#181818" points="827.5,531.3242,817.5,535.3242,827.5,539.3242,823.5,535.3242" style="stroke:#181818;stroke-width:1.0;"/><line style="stroke:#181818;stroke-width:1.0;stroke-dasharray:2.0,2.0;" x1="821.5" x2="1507.5" y1="535.3242" y2="535.3242"/><text fill="#000000" font-family="sans-serif" font-size="13" font-weight="bold" lengthAdjust="spacing" textLength="18" x="833.5" y="530.582">15</text><text fill="#000000" font-family="sans-serif" font-size="13" lengthAdjust="spacing" textLength="53" x="855.5" y="530.582">docType</text><polygon fill="#181818" points="117.5,575.9453,107.5,579.9453,117.5,583.9453,113.5,579.9453" style="stroke:#181818;stroke-width:1.0;"/><line style="stroke:#181818;stroke-width:1.0;stroke-dasharray:2.0,2.0;" x1="111.5" x2="575.5" y1="579.9453" y2="579.9453"/><text fill="#000000" font-family="sans-serif" font-size="13" font-weight="bold" lengthAdjust="spacing" textLength="18" x="123.5" y="567.5479">16</text><text fill="#000000" font-family="sans-serif" font-size="13" lengthAdjust="spacing" textLength="118" x="145.5" y="559.8926">shows jobsList list</text><text fill="#000000" font-family="sans-serif" font-size="13" lengthAdjust="spacing" textLength="165" x="149.5" y="575.2031">and asks to select one job</text><polygon fill="#181818" points="564.5,605.2559,574.5,609.2559,564.5,613.2559,568.5,609.2559" style="stroke:#181818;stroke-width:1.0;"/><line style="stroke:#181818;stroke-width:1.0;" x1="106.5" x2="570.5" y1="609.2559" y2="609.2559"/><text fill="#000000" font-family="sans-serif" font-size="13" font-weight="bold" lengthAdjust="spacing" textLength="18" x="113.5" y="604.5137">17</text><text fill="#000000" font-family="sans-serif" font-size="13" lengthAdjust="spacing" textLength="79" x="135.5" y="604.5137">selects a job</text><polygon fill="#181818" points="592.5,634.5664,582.5,638.5664,592.5,642.5664,588.5,638.5664" style="stroke:#181818;stroke-width:1.0;"/><line style="stroke:#181818;stroke-width:1.0;stroke-dasharray:2.0,2.0;" x1="586.5" x2="810.5" y1="638.5664" y2="638.5664"/><text fill="#000000" font-family="sans-serif" font-size="13" font-weight="bold" lengthAdjust="spacing" textLength="18" x="598.5" y="633.8242">18</text><text fill="#000000" font-family="sans-serif" font-size="13" lengthAdjust="spacing" textLength="53" x="620.5" y="633.8242">docType</text><polygon fill="#181818" points="117.5,663.877,107.5,667.877,117.5,671.877,113.5,667.877" style="stroke:#181818;stroke-width:1.0;"/><line style="stroke:#181818;stroke-width:1.0;stroke-dasharray:2.0,2.0;" x1="111.5" x2="570.5" y1="667.877" y2="667.877"/><text fill="#000000" font-family="sans-serif" font-size="13" font-weight="bold" lengthAdjust="spacing" textLength="18" x="123.5" y="663.1348">19</text><text fill="#000000" font-family="sans-serif" font-size="13" lengthAdjust="spacing" textLength="419" x="145.5" y="663.1348">shows list of Identification document types and asks to select one</text><polygon fill="#181818" points="559.5,693.1875,569.5,697.1875,559.5,701.1875,563.5,697.1875" style="stroke:#181818;stroke-width:1.0;"/><line style="stroke:#181818;stroke-width:1.0;" x1="106.5" x2="565.5" y1="697.1875" y2="697.1875"/><text fill="#000000" font-family="sans-serif" font-size="13" font-weight="bold" lengthAdjust="spacing" textLength="18" x="113.5" y="692.4453">20</text><text fill="#000000" font-family="sans-serif" font-size="13" lengthAdjust="spacing" textLength="112" x="135.5" y="692.4453">selects a docType</text><polygon fill="#181818" points="117.5,737.8086,107.5,741.8086,117.5,745.8086,113.5,741.8086" style="stroke:#181818;stroke-width:1.0;"/><line style="stroke:#181818;stroke-width:1.0;stroke-dasharray:2.0,2.0;" x1="111.5" x2="575.5" y1="741.8086" y2="741.8086"/><text fill="#000000" font-family="sans-serif" font-size="13" font-weight="bold" lengthAdjust="spacing" textLength="18" x="123.5" y="729.4111">21</text><text fill="#000000" font-family="sans-serif" font-size="13" lengthAdjust="spacing" textLength="300" x="145.5" y="721.7559">requests data (name, birthDate, admissionDate,</text><text fill="#000000" font-family="sans-serif" font-size="13" lengthAdjust="spacing" textLength="304" x="145.5" y="737.0664">address, phoneNumber, email, taxpayerNumber)</text><polygon fill="#181818" points="559.5,767.1191,569.5,771.1191,559.5,775.1191,563.5,771.1191" style="stroke:#181818;stroke-width:1.0;"/><line style="stroke:#181818;stroke-width:1.0;" x1="106.5" x2="565.5" y1="771.1191" y2="771.1191"/><text fill="#000000" font-family="sans-serif" font-size="13" font-weight="bold" lengthAdjust="spacing" textLength="18" x="113.5" y="766.377">22</text><text fill="#000000" font-family="sans-serif" font-size="13" lengthAdjust="spacing" textLength="131" x="135.5" y="766.377">types requested data</text><polygon fill="#181818" points="117.5,796.4297,107.5,800.4297,117.5,804.4297,113.5,800.4297" style="stroke:#181818;stroke-width:1.0;"/><line style="stroke:#181818;stroke-width:1.0;stroke-dasharray:2.0,2.0;" x1="111.5" x2="575.5" y1="800.4297" y2="800.4297"/><text fill="#000000" font-family="sans-serif" font-size="13" font-weight="bold" lengthAdjust="spacing" textLength="18" x="123.5" y="795.6875">23</text><text fill="#000000" font-family="sans-serif" font-size="13" lengthAdjust="spacing" textLength="305" x="145.5" y="795.6875">shows selected job, docType and requested data</text><polygon fill="#181818" points="559.5,825.7402,569.5,829.7402,559.5,833.7402,563.5,829.7402" style="stroke:#181818;stroke-width:1.0;"/><line style="stroke:#181818;stroke-width:1.0;" x1="106.5" x2="565.5" y1="829.7402" y2="829.7402"/><text fill="#000000" font-family="sans-serif" font-size="13" font-weight="bold" lengthAdjust="spacing" textLength="18" x="113.5" y="824.998">24</text><text fill="#000000" font-family="sans-serif" font-size="13" lengthAdjust="spacing" textLength="82" x="135.5" y="824.998">submits data</text><polygon fill="#181818" points="794.5,855.0508,804.5,859.0508,794.5,863.0508,798.5,859.0508" style="stroke:#181818;stroke-width:1.0;"/><line style="stroke:#181818;stroke-width:1.0;" x1="581.5" x2="800.5" y1="859.0508" y2="859.0508"/><text fill="#000000" font-family="sans-serif" font-size="13" font-weight="bold" lengthAdjust="spacing" textLength="18" x="588.5" y="854.3086">25</text><text fill="#000000" font-family="sans-serif" font-size="13" lengthAdjust="spacing" textLength="81" x="610.5" y="854.3086">submitData()</text><line style="stroke:#181818;stroke-width:1.0;" x1="816.5" x2="863.5" y1="883.3613" y2="883.3613"/><line style="stroke:#181818;stroke-width:1.0;" x1="863.5" x2="863.5" y1="883.3613" y2="896.3613"/><line style="stroke:#181818;stroke-width:1.0;" x1="822.5" x2="863.5" y1="896.3613" y2="896.3613"/><polygon fill="#181818" points="832.5,892.3613,822.5,896.3613,832.5,900.3613,828.5,896.3613" style="stroke:#181818;stroke-width:1.0;"/><text fill="#000000" font-family="sans-serif" font-size="13" font-weight="bold" lengthAdjust="spacing" textLength="18" x="828.5" y="878.6191">26</text><text fill="#000000" font-family="sans-serif" font-size="13" lengthAdjust="spacing" textLength="113" x="850.5" y="878.6191">getCollaborators()</text><polygon fill="#181818" points="966,926.6719,976,930.6719,966,934.6719,970,930.6719" style="stroke:#181818;stroke-width:1.0;"/><line style="stroke:#181818;stroke-width:1.0;" x1="821.5" x2="972" y1="930.6719" y2="930.6719"/><text fill="#000000" font-family="sans-serif" font-size="13" font-weight="bold" lengthAdjust="spacing" textLength="18" x="828.5" y="925.9297">27</text><text fill="#000000" font-family="sans-serif" font-size="13" lengthAdjust="spacing" textLength="81" x="850.5" y="925.9297">getInstance()</text><polygon fill="#181818" points="832.5,955.9824,822.5,959.9824,832.5,963.9824,828.5,959.9824" style="stroke:#181818;stroke-width:1.0;"/><line style="stroke:#181818;stroke-width:1.0;stroke-dasharray:2.0,2.0;" x1="826.5" x2="982" y1="959.9824" y2="959.9824"/><text fill="#000000" font-family="sans-serif" font-size="13" font-weight="bold" lengthAdjust="spacing" textLength="18" x="838.5" y="955.2402">28</text><text fill="#000000" font-family="sans-serif" font-size="13" lengthAdjust="spacing" textLength="75" x="860.5" y="955.2402">repositories</text><polygon fill="#181818" points="1079,985.293,1089,989.293,1079,993.293,1083,989.293" style="stroke:#181818;stroke-width:1.0;"/><line style="stroke:#181818;stroke-width:1.0;" x1="821.5" x2="1085" y1="989.293" y2="989.293"/><text fill="#000000" font-family="sans-serif" font-size="13" font-weight="bold" lengthAdjust="spacing" textLength="18" x="828.5" y="984.5508">29</text><text fill="#000000" font-family="sans-serif" font-size="13" lengthAdjust="spacing" textLength="173" x="850.5" y="984.5508">getCollaboratorRepository()</text><polygon fill="#181818" points="832.5,1014.6035,822.5,1018.6035,832.5,1022.6035,828.5,1018.6035" style="stroke:#181818;stroke-width:1.0;"/><line style="stroke:#181818;stroke-width:1.0;stroke-dasharray:2.0,2.0;" x1="826.5" x2="1095" y1="1018.6035" y2="1018.6035"/><text fill="#000000" font-family="sans-serif" font-size="13" font-weight="bold" lengthAdjust="spacing" textLength="18" x="838.5" y="1013.8613">30</text><text fill="#000000" font-family="sans-serif" font-size="13" lengthAdjust="spacing" textLength="150" x="860.5" y="1013.8613">collaboratorsRepository</text><line style="stroke:#181818;stroke-width:1.0;stroke-dasharray:2.0,2.0;" x1="821.5" x2="863.5" y1="1052.9141" y2="1052.9141"/><line style="stroke:#181818;stroke-width:1.0;stroke-dasharray:2.0,2.0;" x1="863.5" x2="863.5" y1="1052.9141" y2="1065.9141"/><line style="stroke:#181818;stroke-width:1.0;stroke-dasharray:2.0,2.0;" x1="816.5" x2="863.5" y1="1065.9141" y2="1065.9141"/><polygon fill="#181818" points="826.5,1061.9141,816.5,1065.9141,826.5,1069.9141,822.5,1065.9141" style="stroke:#181818;stroke-width:1.0;"/><text fill="#000000" font-family="sans-serif" font-size="13" font-weight="bold" lengthAdjust="spacing" textLength="18" x="828.5" y="1048.1719">31</text><text fill="#000000" font-family="sans-serif" font-size="13" lengthAdjust="spacing" textLength="4" x="850.5" y="1048.1719">&#160;</text><polygon fill="#181818" points="1229.5,1116.8457,1239.5,1120.8457,1229.5,1124.8457,1233.5,1120.8457" style="stroke:#181818;stroke-width:1.0;"/><line style="stroke:#181818;stroke-width:1.0;" x1="816.5" x2="1235.5" y1="1120.8457" y2="1120.8457"/><text fill="#000000" font-family="sans-serif" font-size="13" font-weight="bold" lengthAdjust="spacing" textLength="18" x="823.5" y="1100.793">32</text><text fill="#000000" font-family="sans-serif" font-size="13" lengthAdjust="spacing" textLength="337" x="845.5" y="1085.4824">registerCollaborator(name, birthDate, admissionDate,</text><text fill="#000000" font-family="sans-serif" font-size="13" lengthAdjust="spacing" textLength="304" x="845.5" y="1100.793">address, phoneNumber, email, taxpayerNumber,</text><text fill="#000000" font-family="sans-serif" font-size="13" lengthAdjust="spacing" textLength="189" x="845.5" y="1116.1035">docType, docNumber and job)</text><polygon fill="#181818" points="1625.5,1176.7773,1635.5,1180.7773,1625.5,1184.7773,1629.5,1180.7773" style="stroke:#181818;stroke-width:1.0;"/><line style="stroke:#181818;stroke-width:1.0;" x1="1251.5" x2="1631.5" y1="1180.7773" y2="1180.7773"/><text fill="#000000" font-family="sans-serif" font-size="13" font-weight="bold" lengthAdjust="spacing" textLength="18" x="1258.5" y="1160.7246">33</text><text fill="#000000" font-family="sans-serif" font-size="13" lengthAdjust="spacing" textLength="337" x="1280.5" y="1145.4141">registerCollaborator(name, birthDate, admissionDate,</text><text fill="#000000" font-family="sans-serif" font-size="13" lengthAdjust="spacing" textLength="304" x="1280.5" y="1160.7246">address, phoneNumber, email, taxpayerNumber,</text><text fill="#000000" font-family="sans-serif" font-size="13" lengthAdjust="spacing" textLength="108" x="1280.5" y="1176.0352">docType and job)</text><line style="stroke:#181818;stroke-width:1.0;" x1="1647.5" x2="1694.5" y1="1235.709" y2="1235.709"/><line style="stroke:#181818;stroke-width:1.0;" x1="1694.5" x2="1694.5" y1="1235.709" y2="1248.709"/><line style="stroke:#181818;stroke-width:1.0;" x1="1653.5" x2="1694.5" y1="1248.709" y2="1248.709"/><polygon fill="#181818" points="1663.5,1244.709,1653.5,1248.709,1663.5,1252.709,1659.5,1248.709" style="stroke:#181818;stroke-width:1.0;"/><text fill="#000000" font-family="sans-serif" font-size="13" font-weight="bold" lengthAdjust="spacing" textLength="18" x="1659.5" y="1215.6563">34</text><text fill="#000000" font-family="sans-serif" font-size="13" lengthAdjust="spacing" textLength="289" x="1681.5" y="1200.3457">validateData(name, birthDate, admissionDate,</text><text fill="#000000" font-family="sans-serif" font-size="13" lengthAdjust="spacing" textLength="304" x="1681.5" y="1215.6563">address, phoneNumber, email, taxpayerNumber,</text><text fill="#000000" font-family="sans-serif" font-size="13" lengthAdjust="spacing" textLength="189" x="1681.5" y="1230.9668">docType, docNumber and job)</text><line style="stroke:#181818;stroke-width:1.0;stroke-dasharray:2.0,2.0;" x1="1652.5" x2="1694.5" y1="1288.0195" y2="1288.0195"/><line style="stroke:#181818;stroke-width:1.0;stroke-dasharray:2.0,2.0;" x1="1694.5" x2="1694.5" y1="1288.0195" y2="1301.0195"/><line style="stroke:#181818;stroke-width:1.0;stroke-dasharray:2.0,2.0;" x1="1647.5" x2="1694.5" y1="1301.0195" y2="1301.0195"/><polygon fill="#181818" points="1657.5,1297.0195,1647.5,1301.0195,1657.5,1305.0195,1653.5,1301.0195" style="stroke:#181818;stroke-width:1.0;"/><text fill="#000000" font-family="sans-serif" font-size="13" font-weight="bold" lengthAdjust="spacing" textLength="18" x="1659.5" y="1283.2773">35</text><text fill="#000000" font-family="sans-serif" font-size="13" lengthAdjust="spacing" textLength="4" x="1681.5" y="1283.2773">&#160;</text><line style="stroke:#181818;stroke-width:1.0;" x1="1256.5" x2="1298.5" y1="1325.3301" y2="1325.3301"/><line style="stroke:#181818;stroke-width:1.0;" x1="1298.5" x2="1298.5" y1="1325.3301" y2="1338.3301"/><line style="stroke:#181818;stroke-width:1.0;" x1="1257.5" x2="1298.5" y1="1338.3301" y2="1338.3301"/><polygon fill="#181818" points="1267.5,1334.3301,1257.5,1338.3301,1267.5,1342.3301,1263.5,1338.3301" style="stroke:#181818;stroke-width:1.0;"/><text fill="#000000" font-family="sans-serif" font-size="13" font-weight="bold" lengthAdjust="spacing" textLength="18" x="1263.5" y="1320.5879">36</text><text fill="#000000" font-family="sans-serif" font-size="13" lengthAdjust="spacing" textLength="185" x="1285.5" y="1320.5879">addCollaborator(collaborator)</text><line style="stroke:#181818;stroke-width:1.0;" x1="1256.5" x2="1303.5" y1="1362.6406" y2="1362.6406"/><line style="stroke:#181818;stroke-width:1.0;" x1="1303.5" x2="1303.5" y1="1362.6406" y2="1375.6406"/><line style="stroke:#181818;stroke-width:1.0;" x1="1262.5" x2="1303.5" y1="1375.6406" y2="1375.6406"/><polygon fill="#181818" points="1272.5,1371.6406,1262.5,1375.6406,1272.5,1379.6406,1268.5,1375.6406" style="stroke:#181818;stroke-width:1.0;"/><text fill="#000000" font-family="sans-serif" font-size="13" font-weight="bold" lengthAdjust="spacing" textLength="18" x="1268.5" y="1357.8984">37</text><text fill="#000000" font-family="sans-serif" font-size="13" lengthAdjust="spacing" textLength="211" x="1290.5" y="1357.8984">validateCollaborator(collaborator)</text><line style="stroke:#181818;stroke-width:1.0;stroke-dasharray:2.0,2.0;" x1="1261.5" x2="1303.5" y1="1414.9512" y2="1414.9512"/><line style="stroke:#181818;stroke-width:1.0;stroke-dasharray:2.0,2.0;" x1="1303.5" x2="1303.5" y1="1414.9512" y2="1427.9512"/><line style="stroke:#181818;stroke-width:1.0;stroke-dasharray:2.0,2.0;" x1="1256.5" x2="1303.5" y1="1427.9512" y2="1427.9512"/><polygon fill="#181818" points="1266.5,1423.9512,1256.5,1427.9512,1266.5,1431.9512,1262.5,1427.9512" style="stroke:#181818;stroke-width:1.0;"/><text fill="#000000" font-family="sans-serif" font-size="13" font-weight="bold" lengthAdjust="spacing" textLength="18" x="1268.5" y="1410.209">38</text><text fill="#000000" font-family="sans-serif" font-size="13" lengthAdjust="spacing" textLength="4" x="1290.5" y="1410.209">&#160;</text><line style="stroke:#181818;stroke-width:1.0;stroke-dasharray:2.0,2.0;" x1="1256.5" x2="1298.5" y1="1457.2617" y2="1457.2617"/><line style="stroke:#181818;stroke-width:1.0;stroke-dasharray:2.0,2.0;" x1="1298.5" x2="1298.5" y1="1457.2617" y2="1470.2617"/><line style="stroke:#181818;stroke-width:1.0;stroke-dasharray:2.0,2.0;" x1="1251.5" x2="1298.5" y1="1470.2617" y2="1470.2617"/><polygon fill="#181818" points="1261.5,1466.2617,1251.5,1470.2617,1261.5,1474.2617,1257.5,1470.2617" style="stroke:#181818;stroke-width:1.0;"/><text fill="#000000" font-family="sans-serif" font-size="13" font-weight="bold" lengthAdjust="spacing" textLength="18" x="1263.5" y="1452.5195">39</text><text fill="#000000" font-family="sans-serif" font-size="13" lengthAdjust="spacing" textLength="4" x="1285.5" y="1452.5195">&#160;</text><polygon fill="#181818" points="827.5,1490.5723,817.5,1494.5723,827.5,1498.5723,823.5,1494.5723" style="stroke:#181818;stroke-width:1.0;"/><line style="stroke:#181818;stroke-width:1.0;stroke-dasharray:2.0,2.0;" x1="821.5" x2="1245.5" y1="1494.5723" y2="1494.5723"/><text fill="#000000" font-family="sans-serif" font-size="13" font-weight="bold" lengthAdjust="spacing" textLength="18" x="833.5" y="1489.8301">40</text><text fill="#000000" font-family="sans-serif" font-size="13" lengthAdjust="spacing" textLength="76" x="855.5" y="1489.8301">collaborator</text><polygon fill="#181818" points="592.5,1519.8828,582.5,1523.8828,592.5,1527.8828,588.5,1523.8828" style="stroke:#181818;stroke-width:1.0;"/><line style="stroke:#181818;stroke-width:1.0;stroke-dasharray:2.0,2.0;" x1="586.5" x2="810.5" y1="1523.8828" y2="1523.8828"/><text fill="#000000" font-family="sans-serif" font-size="13" font-weight="bold" lengthAdjust="spacing" textLength="18" x="598.5" y="1519.1406">41</text><text fill="#000000" font-family="sans-serif" font-size="13" lengthAdjust="spacing" textLength="76" x="620.5" y="1519.1406">collaborator</text><polygon fill="#181818" points="112.5,1549.1934,102.5,1553.1934,112.5,1557.1934,108.5,1553.1934" style="stroke:#181818;stroke-width:1.0;"/><line style="stroke:#181818;stroke-width:1.0;stroke-dasharray:2.0,2.0;" x1="106.5" x2="575.5" y1="1553.1934" y2="1553.1934"/><text fill="#000000" font-family="sans-serif" font-size="13" font-weight="bold" lengthAdjust="spacing" textLength="18" x="118.5" y="1548.4512">42</text><text fill="#000000" font-family="sans-serif" font-size="13" lengthAdjust="spacing" textLength="245" x="140.5" y="1548.4512">Confirms the success of the operation.</text><!--SRC=[lLXDJ-Cm4BtxLuouBApA_e0ULbh1WQvWjIfmwyLDfgqXiRks2_JVxyJvibEtIKH53aX9FM_Uc_5y2FCgv9PhdaEkf4esMkK8Lk-GcUQNBKzU-HeVxJv3q9XOBjUPVy1iUAhUXLp3YcS66UCxg-GkNw9cxDj6f0WhfUnIVJ2UMANXucwNSmbpD6gd4pJmm2Lvq1V03TpD7nZXMf68BPSMBgOt6hd56vLbVAaq9uJdcJlwFEizUQEarVHUWTyypUyxDdFSAYFeg43ZpZGVze-YK4fQGXFjMIpa8S3V-rzFeONFg8MVBcJyXv9gzASGzxTQcW0l_E1mma-XVUBv82M-omCEh4YUUAFukXGng1vwWUkVb0kOaich0QiWSNa03XBV8Gb0QhC6Z9BOV2mU0YAu8b7VlnDa2HKU2O_H8Ot_TcYiJvTaNruTM3LUtKKOYtchagVz5Wdta8-p8kl8xI6mDTgPD5Gv2KPO7MKPkugzriKJOt5TQIkajJUs5ox5pz6f0rDKHHa9IasBD2OShh06wNVEMi4lliSnYkCUQqbXQJNYpBqmzjJbwvJaOFZJLx8Bqp4lWk4PbcnRy-EL4YtVXgiFUHqZdPOks8aeXovwXRGr-b85-sWzresfEJWGUn3jJXeFsnY15TrnIXDIlPk616JqPo61oxJfc0OpcgoW91R7MCHRtIVzVbjQ6MgqjL4eEoR2ZtlT14ysuuwAWZoe5SnIb5QiHCAjeEv2hdOvVG5B3iqHRG5s8yJNqMKS4AZklu6KMmwNakSuWQNGTdDBv2V0qrmOGspSwqBoDDLep0Is6tB-nsqa4y2SYsm2bdzi-Hvr-RaiW9vmbz8g5fWw6iVZ5ubTgPCiALsJMgkBLGIqB_UxPIwgMB214xKnem3ngkWFRqFTVoeBQXD-WPgwruI6Z9rx2fvd4fvv6fvZ8iQdOdpV6nkduIEoEoFzDSsCc9QnYGd3Gr3vPoVdGtl1kl6BHytrYZKrAjJ-WRDs33fT5R2hvFAZgsKgxiuuZauwVtGS6wadv_SNIXoZgsz9ED3nnZD1NGnTK_h250rRUNetdb3Dy3rdVCw32qvn21Blr-yL6yAWjvaSkwsVejxcUo3zNZumXCvHFaD2DRPKp-xibADoIYUnpFPx67nBlSLoWBEWexUBq9J0vKhedFR23T8kaYHKoiKsMRogBMgtJFvWiGN8Uot-0V4V]--></g></svg>