<?xml version="1.0" encoding="us-ascii" standalone="no"?><svg xmlns="http://www.w3.org/2000/svg" xmlns:xlink="http://www.w3.org/1999/xlink" contentStyleType="text/css" height="280.8px" preserveAspectRatio="none" style="width:687px;height:280px;background:#FFFFFF;" version="1.1" viewBox="0 0 687 280" width="687px" zoomAndPan="magnify"><defs/><g><!--class Collaborator--><g id="elem_Collaborator"><rect codeLine="11" fill="#F1F1F1" height="162.8719" id="Collaborator" rx="1.5" ry="1.5" style="stroke:#181818;stroke-width:0.3;" width="237.6" x="345.6" y="114"/><ellipse cx="438.45" cy="123.6" fill="#ADD1B2" rx="6.6" ry="6.6" style="stroke:#181818;stroke-width:0.6;"/><path d="M440.1094,121.125 Q440.2031,120.9937 440.3156,120.9281 Q440.4281,120.8625 440.5594,120.8625 Q440.7844,120.8625 440.925,121.0219 Q441.0656,121.1719 441.0656,121.5375 L441.0656,122.4094 Q441.0656,122.775 440.925,122.9344 Q440.7844,123.0938 440.5594,123.0938 Q440.3531,123.0938 440.2313,122.9719 Q440.1094,122.8594 440.0438,122.55 Q440.0156,122.3344 439.9031,122.2219 Q439.7063,121.9969 439.3406,121.8656 Q438.975,121.7344 438.6,121.7344 Q438.1406,121.7344 437.7562,121.9312 Q437.3812,122.1281 437.0813,122.5781 Q436.7906,123.0281 436.7906,123.6469 L436.7906,124.3031 Q436.7906,125.0437 437.325,125.5406 Q437.8594,126.0281 438.8156,126.0281 Q439.3781,126.0281 439.7719,125.8781 Q440.0062,125.7844 440.2594,125.5219 Q440.4188,125.3625 440.5031,125.3156 Q440.5969,125.2688 440.7188,125.2688 Q440.9156,125.2688 441.0656,125.4281 Q441.225,125.5781 441.225,125.7844 Q441.225,125.9906 441.0188,126.2344 Q440.7188,126.5813 440.2406,126.7781 Q439.5938,127.05 438.8156,127.05 Q437.9063,127.05 437.1844,126.675 Q436.5938,126.375 436.1813,125.7375 Q435.7688,125.0906 435.7688,124.3219 L435.7688,123.6281 Q435.7688,122.8313 436.1344,122.1469 Q436.5094,121.4531 437.1656,121.0875 Q437.8219,120.7125 438.5625,120.7125 Q439.0031,120.7125 439.3875,120.8156 Q439.7813,120.9094 440.1094,121.125 Z " fill="#000000"/><text fill="#000000" font-family="sans-serif" font-size="8.4" lengthAdjust="spacing" textLength="46.8" x="450.75" y="127.0781">Collaborator</text><line style="stroke:#181818;stroke-width:0.3;" x1="346.2" x2="582.6" y1="133.2" y2="133.2"/><text fill="#000000" font-family="sans-serif" font-size="8.4" lengthAdjust="spacing" textLength="48.6" x="349.2" y="144.6645">-String name</text><text fill="#000000" font-family="sans-serif" font-size="8.4" lengthAdjust="spacing" textLength="58.2" x="349.2" y="155.8371">-Data birthDate</text><text fill="#000000" font-family="sans-serif" font-size="8.4" lengthAdjust="spacing" textLength="79.2" x="349.2" y="167.0098">-Data admissionDate</text><text fill="#000000" font-family="sans-serif" font-size="8.4" lengthAdjust="spacing" textLength="58.2" x="349.2" y="178.1824">-String address</text><text fill="#000000" font-family="sans-serif" font-size="8.4" lengthAdjust="spacing" textLength="85.2" x="349.2" y="189.3551">-Integer phoneNumber</text><text fill="#000000" font-family="sans-serif" font-size="8.4" lengthAdjust="spacing" textLength="47.4" x="349.2" y="200.5277">-String email</text><text fill="#000000" font-family="sans-serif" font-size="8.4" lengthAdjust="spacing" textLength="93.6" x="349.2" y="211.7004">-Integer taxpayerNumber</text><text fill="#000000" font-family="sans-serif" font-size="8.4" lengthAdjust="spacing" textLength="60.6" x="349.2" y="222.873">-String docType</text><text fill="#000000" font-family="sans-serif" font-size="8.4" lengthAdjust="spacing" textLength="75" x="349.2" y="234.0457">-Integer docNumber</text><text fill="#000000" font-family="sans-serif" font-size="8.4" lengthAdjust="spacing" textLength="30" x="349.2" y="245.2184">-Job job</text><line style="stroke:#181818;stroke-width:0.3;" x1="346.2" x2="582.6" y1="249.7266" y2="249.7266"/><text fill="#000000" font-family="sans-serif" font-size="8.4" lengthAdjust="spacing" textLength="214.2" x="349.2" y="261.191">+validateData(name, birthDate, admissionDate, address,</text><text fill="#000000" font-family="sans-serif" font-size="8.4" lengthAdjust="spacing" textLength="230.4" x="349.2" y="272.3637">phone, email, taxpayerNumber, docNumber, docNumber, job)</text></g><!--class JobRepository--><g id="elem_JobRepository"><rect codeLine="26" fill="#F1F1F1" height="51.1453" id="JobRepository" rx="1.5" ry="1.5" style="stroke:#181818;stroke-width:0.3;" width="73.2" x="604.2" y="169.8"/><ellipse cx="613.2" cy="179.4" fill="#ADD1B2" rx="6.6" ry="6.6" style="stroke:#181818;stroke-width:0.6;"/><path d="M614.8594,176.925 Q614.9531,176.7938 615.0656,176.7281 Q615.1781,176.6625 615.3094,176.6625 Q615.5344,176.6625 615.675,176.8219 Q615.8156,176.9719 615.8156,177.3375 L615.8156,178.2094 Q615.8156,178.575 615.675,178.7344 Q615.5344,178.8937 615.3094,178.8937 Q615.1031,178.8937 614.9812,178.7719 Q614.8594,178.6594 614.7937,178.35 Q614.7656,178.1344 614.6531,178.0219 Q614.4563,177.7969 614.0906,177.6656 Q613.725,177.5344 613.35,177.5344 Q612.8906,177.5344 612.5063,177.7313 Q612.1313,177.9281 611.8313,178.3781 Q611.5406,178.8281 611.5406,179.4469 L611.5406,180.1031 Q611.5406,180.8438 612.075,181.3406 Q612.6094,181.8281 613.5656,181.8281 Q614.1281,181.8281 614.5219,181.6781 Q614.7563,181.5844 615.0094,181.3219 Q615.1687,181.1625 615.2531,181.1156 Q615.3469,181.0688 615.4688,181.0688 Q615.6656,181.0688 615.8156,181.2281 Q615.975,181.3781 615.975,181.5844 Q615.975,181.7906 615.7688,182.0344 Q615.4688,182.3813 614.9906,182.5781 Q614.3438,182.85 613.5656,182.85 Q612.6563,182.85 611.9344,182.475 Q611.3438,182.175 610.9313,181.5375 Q610.5188,180.8906 610.5188,180.1219 L610.5188,179.4281 Q610.5188,178.6313 610.8844,177.9469 Q611.2594,177.2531 611.9156,176.8875 Q612.5719,176.5125 613.3125,176.5125 Q613.7531,176.5125 614.1375,176.6156 Q614.5313,176.7094 614.8594,176.925 Z " fill="#000000"/><text fill="#000000" font-family="sans-serif" font-size="8.4" lengthAdjust="spacing" textLength="54" x="621.6" y="182.8781">JobRepository</text><line style="stroke:#181818;stroke-width:0.3;" x1="604.8" x2="676.8" y1="189" y2="189"/><text fill="#000000" font-family="sans-serif" font-size="8.4" lengthAdjust="spacing" textLength="52.8" x="607.8" y="200.4645">-List&lt;Job&gt; job</text><line style="stroke:#181818;stroke-width:0.3;" x1="604.8" x2="676.8" y1="204.9727" y2="204.9727"/><text fill="#000000" font-family="sans-serif" font-size="8.4" lengthAdjust="spacing" textLength="65.4" x="607.8" y="216.4371">+getJob(position)</text></g><!--class CollaboratorRepository--><g id="elem_CollaboratorRepository"><rect codeLine="32" fill="#F1F1F1" height="84.6633" id="CollaboratorRepository" rx="1.5" ry="1.5" style="stroke:#181818;stroke-width:0.3;" width="252" x="4.2" y="153"/><ellipse cx="83.85" cy="162.6" fill="#ADD1B2" rx="6.6" ry="6.6" style="stroke:#181818;stroke-width:0.6;"/><path d="M85.5094,160.125 Q85.6031,159.9938 85.7156,159.9281 Q85.8281,159.8625 85.9594,159.8625 Q86.1844,159.8625 86.325,160.0219 Q86.4656,160.1719 86.4656,160.5375 L86.4656,161.4094 Q86.4656,161.775 86.325,161.9344 Q86.1844,162.0938 85.9594,162.0938 Q85.7531,162.0938 85.6313,161.9719 Q85.5094,161.8594 85.4438,161.55 Q85.4156,161.3344 85.3031,161.2219 Q85.1063,160.9969 84.7406,160.8656 Q84.375,160.7344 84,160.7344 Q83.5406,160.7344 83.1563,160.9313 Q82.7813,161.1281 82.4813,161.5781 Q82.1906,162.0281 82.1906,162.6469 L82.1906,163.3031 Q82.1906,164.0438 82.725,164.5406 Q83.2594,165.0281 84.2156,165.0281 Q84.7781,165.0281 85.1719,164.8781 Q85.4063,164.7844 85.6594,164.5219 Q85.8188,164.3625 85.9031,164.3156 Q85.9969,164.2687 86.1187,164.2687 Q86.3156,164.2687 86.4656,164.4281 Q86.625,164.5781 86.625,164.7844 Q86.625,164.9906 86.4188,165.2344 Q86.1187,165.5812 85.6406,165.7781 Q84.9937,166.05 84.2156,166.05 Q83.3062,166.05 82.5844,165.675 Q81.9937,165.375 81.5813,164.7375 Q81.1688,164.0906 81.1688,163.3219 L81.1688,162.6281 Q81.1688,161.8312 81.5344,161.1469 Q81.9094,160.4531 82.5656,160.0875 Q83.2219,159.7125 83.9625,159.7125 Q84.4031,159.7125 84.7875,159.8156 Q85.1812,159.9094 85.5094,160.125 Z " fill="#000000"/><text fill="#000000" font-family="sans-serif" font-size="8.4" lengthAdjust="spacing" textLength="87.6" x="96.15" y="166.0781">CollaboratorRepository</text><line style="stroke:#181818;stroke-width:0.3;" x1="4.8" x2="255.6" y1="172.2" y2="172.2"/><text fill="#000000" font-family="sans-serif" font-size="8.4" lengthAdjust="spacing" textLength="120" x="7.8" y="183.6645">-List&lt;Collaborator&gt; collaborator</text><line style="stroke:#181818;stroke-width:0.3;" x1="4.8" x2="255.6" y1="188.1727" y2="188.1727"/><text fill="#000000" font-family="sans-serif" font-size="8.4" lengthAdjust="spacing" textLength="242.4" x="7.8" y="199.6371">+registerCollaborator(name, birthDate, admissionDate, address,</text><text fill="#000000" font-family="sans-serif" font-size="8.4" lengthAdjust="spacing" textLength="230.4" x="7.8" y="210.8098">phone, email, taxpayerNumber, docNumber, docNumber, job)</text><text fill="#000000" font-family="sans-serif" font-size="8.4" lengthAdjust="spacing" textLength="117" x="7.8" y="221.9824">+addCollaborator(collaborator)</text><text fill="#000000" font-family="sans-serif" font-size="8.4" lengthAdjust="spacing" textLength="135" x="7.8" y="233.1551">+validateCollaborator(collaborator))</text></g><!--class Repositories--><g id="elem_Repositories"><rect codeLine="40" fill="#F1F1F1" height="73.4906" id="Repositories" rx="1.5" ry="1.5" style="stroke:#181818;stroke-width:0.3;" width="117.6" x="507.6" y="4.2"/><ellipse cx="540.15" cy="13.8" fill="#ADD1B2" rx="6.6" ry="6.6" style="stroke:#181818;stroke-width:0.6;"/><path d="M541.8094,11.325 Q541.9031,11.1938 542.0156,11.1281 Q542.1281,11.0625 542.2594,11.0625 Q542.4844,11.0625 542.625,11.2219 Q542.7656,11.3719 542.7656,11.7375 L542.7656,12.6094 Q542.7656,12.975 542.625,13.1344 Q542.4844,13.2938 542.2594,13.2938 Q542.0531,13.2938 541.9313,13.1719 Q541.8094,13.0594 541.7438,12.75 Q541.7156,12.5344 541.6031,12.4219 Q541.4063,12.1969 541.0406,12.0656 Q540.675,11.9344 540.3,11.9344 Q539.8406,11.9344 539.4563,12.1313 Q539.0813,12.3281 538.7813,12.7781 Q538.4906,13.2281 538.4906,13.8469 L538.4906,14.5031 Q538.4906,15.2437 539.025,15.7406 Q539.5594,16.2281 540.5156,16.2281 Q541.0781,16.2281 541.4719,16.0781 Q541.7063,15.9844 541.9594,15.7219 Q542.1188,15.5625 542.2031,15.5156 Q542.2969,15.4688 542.4187,15.4688 Q542.6156,15.4688 542.7656,15.6281 Q542.925,15.7781 542.925,15.9844 Q542.925,16.1906 542.7188,16.4344 Q542.4187,16.7813 541.9406,16.9781 Q541.2937,17.25 540.5156,17.25 Q539.6062,17.25 538.8844,16.875 Q538.2937,16.575 537.8813,15.9375 Q537.4688,15.2906 537.4688,14.5219 L537.4688,13.8281 Q537.4688,13.0313 537.8344,12.3469 Q538.2094,11.6531 538.8656,11.2875 Q539.5219,10.9125 540.2625,10.9125 Q540.7031,10.9125 541.0875,11.0156 Q541.4812,11.1094 541.8094,11.325 Z " fill="#000000"/><text fill="#000000" font-family="sans-serif" font-size="8.4" lengthAdjust="spacing" textLength="47.4" x="552.45" y="17.2781">Repositories</text><line style="stroke:#181818;stroke-width:0.3;" x1="508.2" x2="624.6" y1="23.4" y2="23.4"/><line style="stroke:#181818;stroke-width:0.3;" x1="508.2" x2="624.6" y1="28.2" y2="28.2"/><text fill="#000000" font-family="sans-serif" font-size="8.4" lengthAdjust="spacing" textLength="56.4" x="511.2" y="39.6645">-Repositories()</text><text fill="#000000" font-family="sans-serif" font-size="8.4" lengthAdjust="spacing" textLength="109.2" x="511.2" y="50.8371">+getInstance() : Repositories</text><text fill="#000000" font-family="sans-serif" font-size="8.4" lengthAdjust="spacing" textLength="76.8" x="511.2" y="62.0098">+getJobRepository()</text><text fill="#000000" font-family="sans-serif" font-size="8.4" lengthAdjust="spacing" textLength="110.4" x="511.2" y="73.1824">+getCollaboratorRepository()</text></g><!--class CreateCollaboratorController--><g id="elem_CreateCollaboratorController"><rect codeLine="47" fill="#F1F1F1" height="51.1453" id="CreateCollaboratorController" rx="1.5" ry="1.5" style="stroke:#181818;stroke-width:0.3;" width="186" x="259.2" y="15.3"/><ellipse cx="294.75" cy="24.9" fill="#ADD1B2" rx="6.6" ry="6.6" style="stroke:#181818;stroke-width:0.6;"/><path d="M296.4094,22.425 Q296.5031,22.2938 296.6156,22.2281 Q296.7281,22.1625 296.8594,22.1625 Q297.0844,22.1625 297.225,22.3219 Q297.3656,22.4719 297.3656,22.8375 L297.3656,23.7094 Q297.3656,24.075 297.225,24.2344 Q297.0844,24.3938 296.8594,24.3938 Q296.6531,24.3938 296.5313,24.2719 Q296.4094,24.1594 296.3438,23.85 Q296.3156,23.6344 296.2031,23.5219 Q296.0062,23.2969 295.6406,23.1656 Q295.275,23.0344 294.9,23.0344 Q294.4406,23.0344 294.0563,23.2313 Q293.6813,23.4281 293.3812,23.8781 Q293.0906,24.3281 293.0906,24.9469 L293.0906,25.6031 Q293.0906,26.3438 293.625,26.8406 Q294.1594,27.3281 295.1156,27.3281 Q295.6781,27.3281 296.0719,27.1781 Q296.3063,27.0844 296.5594,26.8219 Q296.7188,26.6625 296.8031,26.6156 Q296.8969,26.5687 297.0188,26.5687 Q297.2156,26.5687 297.3656,26.7281 Q297.525,26.8781 297.525,27.0844 Q297.525,27.2906 297.3187,27.5344 Q297.0188,27.8812 296.5406,28.0781 Q295.8938,28.35 295.1156,28.35 Q294.2063,28.35 293.4844,27.975 Q292.8938,27.675 292.4813,27.0375 Q292.0687,26.3906 292.0687,25.6219 L292.0687,24.9281 Q292.0687,24.1312 292.4344,23.4469 Q292.8094,22.7531 293.4656,22.3875 Q294.1219,22.0125 294.8625,22.0125 Q295.3031,22.0125 295.6875,22.1156 Q296.0813,22.2094 296.4094,22.425 Z " fill="#000000"/><text fill="#000000" font-family="sans-serif" font-size="8.4" lengthAdjust="spacing" textLength="109.8" x="307.05" y="28.3781">CreateCollaboratorController</text><line style="stroke:#181818;stroke-width:0.3;" x1="259.8" x2="444.6" y1="34.5" y2="34.5"/><text fill="#000000" font-family="sans-serif" font-size="8.4" lengthAdjust="spacing" textLength="178.8" x="262.8" y="45.9645">-CollaboratorRepository collaboratorRepository</text><text fill="#000000" font-family="sans-serif" font-size="8.4" lengthAdjust="spacing" textLength="111.6" x="262.8" y="57.1371">-JobRepository jobRepository</text><line style="stroke:#181818;stroke-width:0.3;" x1="259.8" x2="444.6" y1="61.6453" y2="61.6453"/></g><!--class CreateCollaboratorUI--><g id="elem_CreateCollaboratorUI"><rect codeLine="53" fill="#F1F1F1" height="28.8" id="CreateCollaboratorUI" rx="1.5" ry="1.5" style="stroke:#181818;stroke-width:0.3;" width="99" x="138.9" y="26.4"/><ellipse cx="147.9" cy="36" fill="#ADD1B2" rx="6.6" ry="6.6" style="stroke:#181818;stroke-width:0.6;"/><path d="M149.5594,33.525 Q149.6531,33.3938 149.7656,33.3281 Q149.8781,33.2625 150.0094,33.2625 Q150.2344,33.2625 150.375,33.4219 Q150.5156,33.5719 150.5156,33.9375 L150.5156,34.8094 Q150.5156,35.175 150.375,35.3344 Q150.2344,35.4938 150.0094,35.4938 Q149.8031,35.4938 149.6813,35.3719 Q149.5594,35.2594 149.4938,34.95 Q149.4656,34.7344 149.3531,34.6219 Q149.1563,34.3969 148.7906,34.2656 Q148.425,34.1344 148.05,34.1344 Q147.5906,34.1344 147.2062,34.3313 Q146.8312,34.5281 146.5313,34.9781 Q146.2406,35.4281 146.2406,36.0469 L146.2406,36.7031 Q146.2406,37.4438 146.775,37.9406 Q147.3094,38.4281 148.2656,38.4281 Q148.8281,38.4281 149.2219,38.2781 Q149.4562,38.1844 149.7094,37.9219 Q149.8688,37.7625 149.9531,37.7156 Q150.0469,37.6687 150.1688,37.6687 Q150.3656,37.6687 150.5156,37.8281 Q150.675,37.9781 150.675,38.1844 Q150.675,38.3906 150.4688,38.6344 Q150.1688,38.9812 149.6906,39.1781 Q149.0438,39.45 148.2656,39.45 Q147.3563,39.45 146.6344,39.075 Q146.0438,38.775 145.6313,38.1375 Q145.2188,37.4906 145.2188,36.7219 L145.2188,36.0281 Q145.2188,35.2312 145.5844,34.5469 Q145.9594,33.8531 146.6156,33.4875 Q147.2719,33.1125 148.0125,33.1125 Q148.4531,33.1125 148.8375,33.2156 Q149.2313,33.3094 149.5594,33.525 Z " fill="#000000"/><text fill="#000000" font-family="sans-serif" font-size="8.4" lengthAdjust="spacing" textLength="79.8" x="156.3" y="39.4781">CreateCollaboratorUI</text><line style="stroke:#181818;stroke-width:0.3;" x1="139.5" x2="237.3" y1="45.6" y2="45.6"/><line style="stroke:#181818;stroke-width:0.3;" x1="139.5" x2="237.3" y1="50.4" y2="50.4"/></g><!--link Repositories to Repositories--><g id="link_Repositories_Repositories"><path codeLine="56" d="M625.212,31.032 C637.422,32.058 646.2,35.316 646.2,40.8 C646.2,46.284 641.0094,49.2406 628.7994,50.2666 " fill="none" id="Repositories-to-Repositories" style="stroke:#181818;stroke-width:0.6;"/><polygon fill="#181818" points="625.212,50.568,630.794,52.5074,628.2015,50.3168,630.3921,47.7243,625.212,50.568" style="stroke:#181818;stroke-width:0.6;"/><text fill="#000000" font-family="sans-serif" font-size="7.8" lengthAdjust="spacing" textLength="29.4" x="649.8" y="44.117">instance</text></g><!--link CreateCollaboratorUI to CreateCollaboratorController--><g id="link_CreateCollaboratorUI_CreateCollaboratorController"><path codeLine="58" d="M237.96,40.8 C241.08,40.8 243,40.8 243,40.8 C243,40.8 246.45,40.8 255.486,40.8 " fill="none" id="CreateCollaboratorUI-to-CreateCollaboratorController" style="stroke:#181818;stroke-width:0.6;stroke-dasharray:7.0,7.0;"/><polygon fill="#181818" points="259.086,40.8,253.686,38.4,256.086,40.8,253.686,43.2,259.086,40.8" style="stroke:#181818;stroke-width:0.6;"/></g><!--link CreateCollaboratorController to Repositories--><g id="link_CreateCollaboratorController_Repositories"><path codeLine="60" d="M445.218,40.8 C466.386,40.8 484.704,40.8 503.982,40.8 " fill="none" id="CreateCollaboratorController-to-Repositories" style="stroke:#181818;stroke-width:0.6;stroke-dasharray:7.0,7.0;"/><polygon fill="#181818" points="507.582,40.8,502.182,38.4,504.582,40.8,502.182,43.2,507.582,40.8" style="stroke:#181818;stroke-width:0.6;"/><text fill="#000000" font-family="sans-serif" font-size="7.8" lengthAdjust="spacing" textLength="40.2" x="456.3" y="36.617">repositories</text></g><!--link Repositories to CollaboratorRepository--><g id="link_Repositories_CollaboratorRepository"><path codeLine="62" d="M507.486,60.504 C480.918,69.126 455.4,77.4 455.4,77.4 C455.4,77.4 334.8,114 334.8,114 C334.8,114 289.3689,131.9211 239.4429,151.6131 " fill="none" id="Repositories-to-CollaboratorRepository" style="stroke:#181818;stroke-width:0.6;"/><polygon fill="#181818" points="236.094,152.934,241.998,153.1853,238.8848,151.8333,240.2368,148.7201,236.094,152.934" style="stroke:#181818;stroke-width:0.6;"/><text fill="#000000" font-family="sans-serif" font-size="7.8" lengthAdjust="spacing" textLength="4.2" x="242.5978" y="146.2618">1</text></g><!--link Repositories to JobRepository--><g id="link_Repositories_JobRepository"><path codeLine="63" d="M583.938,77.538 C597.684,105.864 614.886,141.3073 627.036,166.3393 " fill="none" id="Repositories-to-JobRepository" style="stroke:#181818;stroke-width:0.6;"/><polygon fill="#181818" points="628.608,169.578,628.4091,163.672,627.298,166.8791,624.0909,165.768,628.608,169.578" style="stroke:#181818;stroke-width:0.6;"/><text fill="#000000" font-family="sans-serif" font-size="7.8" lengthAdjust="spacing" textLength="4.2" x="622.2195" y="163.0776">1</text></g><!--link CollaboratorRepository to Collaborator--><g id="link_CollaboratorRepository_Collaborator"><path codeLine="64" d="M256.308,195.3 C285.528,195.3 312.93,195.3 341.832,195.3 " fill="none" id="CollaboratorRepository-to-Collaborator" style="stroke:#181818;stroke-width:0.6;"/><polygon fill="#181818" points="345.432,195.3,340.032,192.9,342.432,195.3,340.032,197.7,345.432,195.3" style="stroke:#181818;stroke-width:0.6;"/><text fill="#000000" font-family="sans-serif" font-size="7.8" lengthAdjust="spacing" textLength="67.2" x="267.3" y="191.117">registerCollaborator</text><text fill="#000000" font-family="sans-serif" font-size="7.8" lengthAdjust="spacing" textLength="4.2" x="336.5028" y="193.3159">1</text></g><!--link CreateCollaboratorController to CollaboratorRepository--><g id="link_CreateCollaboratorController_CollaboratorRepository"><path codeLine="67" d="M316.038,66.372 C282.126,89.79 233.7343,123.2044 193.6003,150.9184 " fill="none" id="CreateCollaboratorController-to-CollaboratorRepository" style="stroke:#181818;stroke-width:0.6;stroke-dasharray:7.0,7.0;"/><polygon fill="#181818" points="190.638,152.964,196.4453,151.8705,193.1066,151.2593,193.7178,147.9207,190.638,152.964" style="stroke:#181818;stroke-width:0.6;"/></g><!--link CreateCollaboratorController to JobRepository--><g id="link_CreateCollaboratorController_JobRepository"><path codeLine="68" d="M435.246,66.336 C505.212,87.342 594,114 594,114 C594,114 610.7037,142.8059 624.4437,166.4939 " fill="none" id="CreateCollaboratorController-to-JobRepository" style="stroke:#181818;stroke-width:0.6;stroke-dasharray:7.0,7.0;"/><polygon fill="#181818" points="626.25,169.608,625.6166,163.7327,624.7448,167.013,621.4645,166.1411,626.25,169.608" style="stroke:#181818;stroke-width:0.6;"/></g><!--SRC=[lPF1Rjim38RlUWgYbpYOKspNOWXGT9SKnGxBTjj5bbbRhImP4hFD6_RkezqabXoxlIqdY_n9_lmKhSApjgtqie76MQTgxne4yWSKOwQLwbbMkAVE87XK96rbOa6ePUb-Qbl1epGXpXXjaReMeNMcwmzYDPDqdfo8gfIH8TmIULqS27VAsRt-ZV1UY9N1Hm9ou7LL4vIwjwET5MAeWJjdZ2oSb-Gy_170lmtikH5xixB1O-IJ90c5zbJpLnAKPQD3u8vHubWloz9Z2CVWpX9MwA6jdSNFXwP0dygnaTfCn2H_jR93FwSldVhAC2OL74t4zww09rU8uVWEVaYZItRQUy_w1VDnhJnT9ZyjaCDtExZENppc4rlvE3JvvB5hyVT4cerymTO5pQIxC-e77UWZfxQnoGg9GzaWPZDHa_Ywbhh5cYsew7Jgxx5Y8VfO-LzWl8pdJidasE9wSa_BmeZAcOJ6S6OH1xFrI7Pd0xz7XTaQRX9H0d-46zVEuy_Y2_8uSNtdB7a-u_Y-5cvHpOR7_t4aVOfFuhNnttOyblC9eyrccqAx0Nt48iHiZ-ljgwlDLKMBNr-Cyp7uItDN7wuMACrh4pfYWUzCty79vMCGR-tJuvYtzsPTQbNy0m00]--></g></svg>