<?xml version="1.0" encoding="us-ascii" standalone="no"?><svg xmlns="http://www.w3.org/2000/svg" xmlns:xlink="http://www.w3.org/1999/xlink" contentStyleType="text/css" height="630px" preserveAspectRatio="none" style="width:1056px;height:630px;background:#FFFFFF;" version="1.1" viewBox="0 0 1056 630" width="1056px" zoomAndPan="magnify"><defs/><g><rect fill="#FFFFFF" height="430.7832" style="stroke:#181818;stroke-width:1.0;" width="10" x="343" y="125.1152"/><rect fill="#FFFFFF" height="86.582" style="stroke:#181818;stroke-width:1.0;" width="10" x="348" y="424.0254"/><rect fill="#FFFFFF" height="150.4551" style="stroke:#181818;stroke-width:1.0;" width="10" x="718" y="227.2793"/><rect fill="#FFFFFF" height="42.291" style="stroke:#181818;stroke-width:1.0;" width="10" x="723" y="291.1523"/><rect fill="none" height="385.4922" style="stroke:#000000;stroke-width:1.5;" width="794" x="256" y="140.1152"/><line style="stroke:#181818;stroke-width:0.5;stroke-dasharray:5.0,5.0;" x1="348" x2="348" y1="57.2422" y2="573.8984"/><line style="stroke:#181818;stroke-width:0.5;stroke-dasharray:5.0,5.0;" x1="723" x2="723" y1="202.3428" y2="573.8984"/><rect fill="#E3E3E3" height="51.2422" rx="2.5" ry="2.5" style="stroke:#181818;stroke-width:0.5;" width="164" x="266" y="5"/><text fill="#000000" font-family="sans-serif" font-size="14" lengthAdjust="spacing" textLength="150" x="273" y="27.1074">CollaboratorRepository:</text><text fill="#000000" font-family="sans-serif" font-size="14" lengthAdjust="spacing" textLength="146" x="275" y="45.7285">CollaboratorRepository</text><rect fill="#E3E3E3" height="51.2422" rx="2.5" ry="2.5" style="stroke:#181818;stroke-width:0.5;" width="164" x="266" y="572.8984"/><text fill="#000000" font-family="sans-serif" font-size="14" lengthAdjust="spacing" textLength="150" x="273" y="595.0059">CollaboratorRepository:</text><text fill="#000000" font-family="sans-serif" font-size="14" lengthAdjust="spacing" textLength="146" x="275" y="613.627">CollaboratorRepository</text><rect fill="#E3E3E3" height="51.2422" rx="2.5" ry="2.5" style="stroke:#181818;stroke-width:0.5;" width="96" x="675" y="572.8984"/><text fill="#000000" font-family="sans-serif" font-size="14" lengthAdjust="spacing" textLength="75" x="685.5" y="595.0059">collaborator</text><text fill="#000000" font-family="sans-serif" font-size="14" lengthAdjust="spacing" textLength="82" x="682" y="613.627">:Collaborator</text><rect fill="#FFFFFF" height="430.7832" style="stroke:#181818;stroke-width:1.0;" width="10" x="343" y="125.1152"/><rect fill="#FFFFFF" height="86.582" style="stroke:#181818;stroke-width:1.0;" width="10" x="348" y="424.0254"/><rect fill="#FFFFFF" height="150.4551" style="stroke:#181818;stroke-width:1.0;" width="10" x="718" y="227.2793"/><rect fill="#FFFFFF" height="42.291" style="stroke:#181818;stroke-width:1.0;" width="10" x="723" y="291.1523"/><polygon fill="#181818" points="331,121.1152,341,125.1152,331,129.1152,335,125.1152" style="stroke:#181818;stroke-width:1.0;"/><line style="stroke:#181818;stroke-width:1.0;" x1="0" x2="337" y1="125.1152" y2="125.1152"/><text fill="#000000" font-family="sans-serif" font-size="13" font-weight="bold" lengthAdjust="spacing" textLength="14" x="7" y="102.5615">24</text><text fill="#000000" font-family="sans-serif" font-size="13" lengthAdjust="spacing" textLength="306" x="25" y="85.2705">registerCollaborator(name, birthDate, admissionDate,</text><text fill="#000000" font-family="sans-serif" font-size="13" lengthAdjust="spacing" textLength="280" x="25" y="102.5615">address, phoneNumber, email, taxpayerNumber,</text><text fill="#000000" font-family="sans-serif" font-size="13" lengthAdjust="spacing" textLength="173" x="25" y="119.8525">docType, docNumber and job)</text><path d="M256,140.1152 L436,140.1152 L436,149.4063 L426,159.4063 L256,159.4063 L256,140.1152 " fill="#EEEEEE" style="stroke:#000000;stroke-width:1.5;"/><rect fill="none" height="385.4922" style="stroke:#000000;stroke-width:1.5;" width="794" x="256" y="140.1152"/><text fill="#000000" font-family="sans-serif" font-size="13" font-weight="bold" lengthAdjust="spacing" textLength="135" x="271" y="155.1436">Register Collaborator</text><polygon fill="#181818" points="663,213.2793,673,217.2793,663,221.2793,667,217.2793" style="stroke:#181818;stroke-width:1.0;"/><line style="stroke:#181818;stroke-width:1.0;" x1="353" x2="669" y1="217.2793" y2="217.2793"/><text fill="#000000" font-family="sans-serif" font-size="13" font-weight="bold" lengthAdjust="spacing" textLength="14" x="360" y="194.7256">25</text><text fill="#000000" font-family="sans-serif" font-size="13" lengthAdjust="spacing" textLength="264" x="378" y="177.4346">validateData(name, birthDate, admissionDate,</text><text fill="#000000" font-family="sans-serif" font-size="13" lengthAdjust="spacing" textLength="280" x="378" y="194.7256">address, phoneNumber, email, taxpayerNumber,</text><text fill="#000000" font-family="sans-serif" font-size="13" lengthAdjust="spacing" textLength="173" x="378" y="212.0166">docType, docNumber and job)</text><rect fill="#E3E3E3" height="51.2422" rx="2.5" ry="2.5" style="stroke:#181818;stroke-width:0.5;" width="96" x="675" y="163.0371"/><text fill="#000000" font-family="sans-serif" font-size="14" lengthAdjust="spacing" textLength="75" x="685.5" y="185.1445">collaborator</text><text fill="#000000" font-family="sans-serif" font-size="14" lengthAdjust="spacing" textLength="82" x="682" y="203.7656">:Collaborator</text><line style="stroke:#181818;stroke-width:1.0;" x1="728" x2="775" y1="278.1523" y2="278.1523"/><line style="stroke:#181818;stroke-width:1.0;" x1="775" x2="775" y1="278.1523" y2="291.1523"/><line style="stroke:#181818;stroke-width:1.0;" x1="734" x2="775" y1="291.1523" y2="291.1523"/><polygon fill="#181818" points="744,287.1523,734,291.1523,744,295.1523,740,291.1523" style="stroke:#181818;stroke-width:1.0;"/><text fill="#000000" font-family="sans-serif" font-size="13" font-weight="bold" lengthAdjust="spacing" textLength="14" x="740" y="255.5986">26</text><text fill="#000000" font-family="sans-serif" font-size="13" lengthAdjust="spacing" textLength="264" x="758" y="238.3076">validateData(name, birthDate, admissionDate,</text><text fill="#000000" font-family="sans-serif" font-size="13" lengthAdjust="spacing" textLength="280" x="758" y="255.5986">address, phoneNumber, email, taxpayerNumber,</text><text fill="#000000" font-family="sans-serif" font-size="13" lengthAdjust="spacing" textLength="173" x="758" y="272.8896">docType, docNumber and job)</text><line style="stroke:#181818;stroke-width:1.0;stroke-dasharray:2.0,2.0;" x1="733" x2="775" y1="332.4434" y2="332.4434"/><line style="stroke:#181818;stroke-width:1.0;stroke-dasharray:2.0,2.0;" x1="775" x2="775" y1="332.4434" y2="345.4434"/><line style="stroke:#181818;stroke-width:1.0;stroke-dasharray:2.0,2.0;" x1="728" x2="775" y1="345.4434" y2="345.4434"/><polygon fill="#181818" points="738,341.4434,728,345.4434,738,349.4434,734,345.4434" style="stroke:#181818;stroke-width:1.0;"/><text fill="#000000" font-family="sans-serif" font-size="13" font-weight="bold" lengthAdjust="spacing" textLength="14" x="740" y="327.1807">27</text><text fill="#000000" font-family="sans-serif" font-size="13" lengthAdjust="spacing" textLength="4" x="758" y="327.1807">&#160;</text><line style="stroke:#181818;stroke-width:1.0;" x1="353" x2="395" y1="376.7344" y2="376.7344"/><line style="stroke:#181818;stroke-width:1.0;" x1="395" x2="395" y1="376.7344" y2="389.7344"/><line style="stroke:#181818;stroke-width:1.0;" x1="348" x2="395" y1="389.7344" y2="389.7344"/><polygon fill="#181818" points="358,385.7344,348,389.7344,358,393.7344,354,389.7344" style="stroke:#181818;stroke-width:1.0;"/><text fill="#000000" font-family="sans-serif" font-size="13" font-weight="bold" lengthAdjust="spacing" textLength="14" x="360" y="371.4717">28</text><text fill="#000000" font-family="sans-serif" font-size="13" lengthAdjust="spacing" textLength="165" x="378" y="371.4717">addCollaborator(collaborator)</text><line style="stroke:#181818;stroke-width:1.0;" x1="353" x2="400" y1="411.0254" y2="411.0254"/><line style="stroke:#181818;stroke-width:1.0;" x1="400" x2="400" y1="411.0254" y2="424.0254"/><line style="stroke:#181818;stroke-width:1.0;" x1="359" x2="400" y1="424.0254" y2="424.0254"/><polygon fill="#181818" points="369,420.0254,359,424.0254,369,428.0254,365,424.0254" style="stroke:#181818;stroke-width:1.0;"/><text fill="#000000" font-family="sans-serif" font-size="13" font-weight="bold" lengthAdjust="spacing" textLength="14" x="365" y="405.7627">29</text><text fill="#000000" font-family="sans-serif" font-size="13" lengthAdjust="spacing" textLength="187" x="383" y="405.7627">validateCollaborator(collaborator)</text><line style="stroke:#181818;stroke-width:1.0;stroke-dasharray:2.0,2.0;" x1="358" x2="400" y1="460.3164" y2="460.3164"/><line style="stroke:#181818;stroke-width:1.0;stroke-dasharray:2.0,2.0;" x1="400" x2="400" y1="460.3164" y2="473.3164"/><line style="stroke:#181818;stroke-width:1.0;stroke-dasharray:2.0,2.0;" x1="359" x2="400" y1="473.3164" y2="473.3164"/><polygon fill="#181818" points="369,469.3164,359,473.3164,369,477.3164,365,473.3164" style="stroke:#181818;stroke-width:1.0;"/><text fill="#000000" font-family="sans-serif" font-size="13" font-weight="bold" lengthAdjust="spacing" textLength="14" x="365" y="455.0537">30</text><text fill="#000000" font-family="sans-serif" font-size="13" lengthAdjust="spacing" textLength="4" x="383" y="455.0537">&#160;</text><line style="stroke:#181818;stroke-width:1.0;stroke-dasharray:2.0,2.0;" x1="358" x2="400" y1="509.6074" y2="509.6074"/><line style="stroke:#181818;stroke-width:1.0;stroke-dasharray:2.0,2.0;" x1="400" x2="400" y1="509.6074" y2="522.6074"/><line style="stroke:#181818;stroke-width:1.0;stroke-dasharray:2.0,2.0;" x1="353" x2="400" y1="522.6074" y2="522.6074"/><polygon fill="#181818" points="363,518.6074,353,522.6074,363,526.6074,359,522.6074" style="stroke:#181818;stroke-width:1.0;"/><text fill="#000000" font-family="sans-serif" font-size="13" font-weight="bold" lengthAdjust="spacing" textLength="14" x="365" y="504.3447">31</text><text fill="#000000" font-family="sans-serif" font-size="13" lengthAdjust="spacing" textLength="4" x="383" y="504.3447">&#160;</text><polygon fill="#181818" points="11,551.8984,1,555.8984,11,559.8984,7,555.8984" style="stroke:#181818;stroke-width:1.0;"/><line style="stroke:#181818;stroke-width:1.0;stroke-dasharray:2.0,2.0;" x1="5" x2="347" y1="555.8984" y2="555.8984"/><text fill="#000000" font-family="sans-serif" font-size="13" font-weight="bold" lengthAdjust="spacing" textLength="14" x="17" y="550.6357">32</text><text fill="#000000" font-family="sans-serif" font-size="13" lengthAdjust="spacing" textLength="67" x="35" y="550.6357">collaborator</text><!--SRC=[nLGzKuGm4EtpAtQkqXjeJcqOnqPhYzEIPY4hn8CaauHJ_hsHExt0mHmqkjMod- -zaDYTa1eDrb0hgVBIg9h0cOQO_Srep7TOq8jhAm93kKDPL661BP6h3o4BUCFA4cC-x4GkD4e7gqTLLPWfWqwPBMbbXNVQ99NZYHMWXV5KVsuUrAGo2LlEPZ1id99DdP61pIsB7oOs99vV8QmZ4-Ql9DOKGIQCAv_GUHTvBQmLIdQVgKJE3LaRWIwLfETkKGHKewWYSFYfiILp3AUIg_orrNwCTmv1GCdXNMNNh8VqZc7knDxlc584l1L6DHgsH-1ztbt1juttmq29zJg1FLQ2-vMU6lufyn-eevnFwQ65LKC-y7zqfk2Eivj7xepTP1-d1IhE-pU2JE9ruxqR4bx6SUuN4Ir5SJhQXKXWpgMQBT8alcLQJuzP8EQWYoG_W0ZUb9jD5xcFu-d33ILabrUnBm00]--></g></svg>