<?xml version="1.0" encoding="us-ascii" standalone="no"?><svg xmlns="http://www.w3.org/2000/svg" xmlns:xlink="http://www.w3.org/1999/xlink" contentStyleType="text/css" height="411px" preserveAspectRatio="none" style="width:431px;height:411px;background:#FFFFFF;" version="1.1" viewBox="0 0 431 411" width="431px" zoomAndPan="magnify"><defs/><g><rect fill="#FFFFFF" height="255.0371" style="stroke:#181818;stroke-width:1.0;" width="10" x="111" y="90.5332"/><rect fill="#FFFFFF" height="167.4551" style="stroke:#181818;stroke-width:1.0;" width="10" x="116" y="156.1152"/><rect fill="#FFFFFF" height="31.291" style="stroke:#181818;stroke-width:1.0;" width="10" x="255" y="192.4063"/><rect fill="#FFFFFF" height="31.291" style="stroke:#181818;stroke-width:1.0;" width="10" x="362" y="254.9883"/><rect fill="none" height="233.0371" style="stroke:#000000;stroke-width:1.5;" width="396.5" x="29" y="105.5332"/><line style="stroke:#181818;stroke-width:0.5;stroke-dasharray:5.0,5.0;" x1="116" x2="116" y1="57.2422" y2="355.5703"/><line style="stroke:#181818;stroke-width:0.5;stroke-dasharray:5.0,5.0;" x1="259.5" x2="259.5" y1="57.2422" y2="355.5703"/><line style="stroke:#181818;stroke-width:0.5;stroke-dasharray:5.0,5.0;" x1="366.5" x2="366.5" y1="57.2422" y2="355.5703"/><rect fill="#E3E3E3" height="32.6211" rx="2.5" ry="2.5" style="stroke:#181818;stroke-width:0.5;" width="154" x="39" y="23.6211"/><text fill="#000000" font-family="sans-serif" font-size="14" lengthAdjust="spacing" textLength="140" x="46" y="45.7285">:CreateTaskController</text><rect fill="#E3E3E3" height="32.6211" rx="2.5" ry="2.5" style="stroke:#181818;stroke-width:0.5;" width="154" x="39" y="354.5703"/><text fill="#000000" font-family="sans-serif" font-size="14" lengthAdjust="spacing" textLength="140" x="46" y="376.6777">:CreateTaskController</text><rect fill="#E3E3E3" height="32.6211" rx="2.5" ry="2.5" style="stroke:#181818;stroke-width:0.5;" width="97" x="211.5" y="23.6211"/><text fill="#000000" font-family="sans-serif" font-size="14" lengthAdjust="spacing" textLength="83" x="218.5" y="45.7285">:Repositories</text><rect fill="#E3E3E3" height="32.6211" rx="2.5" ry="2.5" style="stroke:#181818;stroke-width:0.5;" width="97" x="211.5" y="354.5703"/><text fill="#000000" font-family="sans-serif" font-size="14" lengthAdjust="spacing" textLength="83" x="218.5" y="376.6777">:Repositories</text><rect fill="#E3E3E3" height="51.2422" rx="2.5" ry="2.5" style="stroke:#181818;stroke-width:0.5;" width="97" x="318.5" y="5"/><text fill="#000000" font-family="sans-serif" font-size="14" lengthAdjust="spacing" textLength="74" x="330" y="27.1074">repositories</text><text fill="#000000" font-family="sans-serif" font-size="14" lengthAdjust="spacing" textLength="83" x="325.5" y="45.7285">:Repositories</text><rect fill="#E3E3E3" height="51.2422" rx="2.5" ry="2.5" style="stroke:#181818;stroke-width:0.5;" width="97" x="318.5" y="354.5703"/><text fill="#000000" font-family="sans-serif" font-size="14" lengthAdjust="spacing" textLength="74" x="330" y="376.6777">repositories</text><text fill="#000000" font-family="sans-serif" font-size="14" lengthAdjust="spacing" textLength="83" x="325.5" y="395.2988">:Repositories</text><rect fill="#FFFFFF" height="255.0371" style="stroke:#181818;stroke-width:1.0;" width="10" x="111" y="90.5332"/><rect fill="#FFFFFF" height="167.4551" style="stroke:#181818;stroke-width:1.0;" width="10" x="116" y="156.1152"/><rect fill="#FFFFFF" height="31.291" style="stroke:#181818;stroke-width:1.0;" width="10" x="255" y="192.4063"/><rect fill="#FFFFFF" height="31.291" style="stroke:#181818;stroke-width:1.0;" width="10" x="362" y="254.9883"/><polygon fill="#181818" points="99,86.5332,109,90.5332,99,94.5332,103,90.5332" style="stroke:#181818;stroke-width:1.0;"/><line style="stroke:#181818;stroke-width:1.0;" x1="0" x2="105" y1="90.5332" y2="90.5332"/><text fill="#000000" font-family="sans-serif" font-size="13" font-weight="bold" lengthAdjust="spacing" textLength="14" x="7" y="85.2705">17</text><text fill="#000000" font-family="sans-serif" font-size="13" lengthAdjust="spacing" textLength="74" x="25" y="85.2705">submitData()</text><path d="M29,105.5332 L205,105.5332 L205,114.8242 L195,124.8242 L29,124.8242 L29,105.5332 " fill="#EEEEEE" style="stroke:#000000;stroke-width:1.5;"/><rect fill="none" height="233.0371" style="stroke:#000000;stroke-width:1.5;" width="396.5" x="29" y="105.5332"/><text fill="#000000" font-family="sans-serif" font-size="13" font-weight="bold" lengthAdjust="spacing" textLength="131" x="44" y="120.5615">Get Collaborator List</text><line style="stroke:#181818;stroke-width:1.0;" x1="121" x2="168" y1="143.1152" y2="143.1152"/><line style="stroke:#181818;stroke-width:1.0;" x1="168" x2="168" y1="143.1152" y2="156.1152"/><line style="stroke:#181818;stroke-width:1.0;" x1="127" x2="168" y1="156.1152" y2="156.1152"/><polygon fill="#181818" points="137,152.1152,127,156.1152,137,160.1152,133,156.1152" style="stroke:#181818;stroke-width:1.0;"/><text fill="#000000" font-family="sans-serif" font-size="13" font-weight="bold" lengthAdjust="spacing" textLength="14" x="133" y="137.8525">18</text><text fill="#000000" font-family="sans-serif" font-size="13" lengthAdjust="spacing" textLength="102" x="151" y="137.8525">getCollaborators()</text><polygon fill="#181818" points="243,188.4063,253,192.4063,243,196.4063,247,192.4063" style="stroke:#181818;stroke-width:1.0;"/><line style="stroke:#181818;stroke-width:1.0;" x1="126" x2="249" y1="192.4063" y2="192.4063"/><text fill="#000000" font-family="sans-serif" font-size="13" font-weight="bold" lengthAdjust="spacing" textLength="14" x="133" y="187.1436">19</text><text fill="#000000" font-family="sans-serif" font-size="13" lengthAdjust="spacing" textLength="75" x="151" y="187.1436">getInstance()</text><polygon fill="#181818" points="137,219.6973,127,223.6973,137,227.6973,133,223.6973" style="stroke:#181818;stroke-width:1.0;"/><line style="stroke:#181818;stroke-width:1.0;stroke-dasharray:2.0,2.0;" x1="131" x2="259" y1="223.6973" y2="223.6973"/><text fill="#000000" font-family="sans-serif" font-size="13" font-weight="bold" lengthAdjust="spacing" textLength="14" x="143" y="218.4346">20</text><text fill="#000000" font-family="sans-serif" font-size="13" lengthAdjust="spacing" textLength="67" x="161" y="218.4346">repositories</text><polygon fill="#181818" points="350,250.9883,360,254.9883,350,258.9883,354,254.9883" style="stroke:#181818;stroke-width:1.0;"/><line style="stroke:#181818;stroke-width:1.0;" x1="126" x2="356" y1="254.9883" y2="254.9883"/><text fill="#000000" font-family="sans-serif" font-size="13" font-weight="bold" lengthAdjust="spacing" textLength="14" x="133" y="249.7256">21</text><text fill="#000000" font-family="sans-serif" font-size="13" lengthAdjust="spacing" textLength="157" x="151" y="249.7256">getCollaboratorRepository()</text><polygon fill="#181818" points="137,282.2793,127,286.2793,137,290.2793,133,286.2793" style="stroke:#181818;stroke-width:1.0;"/><line style="stroke:#181818;stroke-width:1.0;stroke-dasharray:2.0,2.0;" x1="131" x2="366" y1="286.2793" y2="286.2793"/><text fill="#000000" font-family="sans-serif" font-size="13" font-weight="bold" lengthAdjust="spacing" textLength="14" x="143" y="281.0166">22</text><text fill="#000000" font-family="sans-serif" font-size="13" lengthAdjust="spacing" textLength="136" x="161" y="281.0166">collaboratorsRepository</text><line style="stroke:#181818;stroke-width:1.0;stroke-dasharray:2.0,2.0;" x1="126" x2="168" y1="322.5703" y2="322.5703"/><line style="stroke:#181818;stroke-width:1.0;stroke-dasharray:2.0,2.0;" x1="168" x2="168" y1="322.5703" y2="335.5703"/><line style="stroke:#181818;stroke-width:1.0;stroke-dasharray:2.0,2.0;" x1="121" x2="168" y1="335.5703" y2="335.5703"/><polygon fill="#181818" points="131,331.5703,121,335.5703,131,339.5703,127,335.5703" style="stroke:#181818;stroke-width:1.0;"/><text fill="#000000" font-family="sans-serif" font-size="13" font-weight="bold" lengthAdjust="spacing" textLength="14" x="133" y="317.3076">23</text><text fill="#000000" font-family="sans-serif" font-size="13" lengthAdjust="spacing" textLength="4" x="151" y="317.3076">&#160;</text><!--SRC=[hLCzJyCm4DtzAqvTW861Bg0EI2X82Aa3QZkoN9nhQZNnHVO5wB_7IJ_Ya0efb5iinU_UUtvtyLjZAtHOGicMzSPnII2k9kLFDnNgBUQqb5r1u4WBsho80Nw36NyQcyCQ2qzAOIriwp8bfzJLncG4QsP9-Kkfq256cmgjm6IME4AX5VfjmbOS5mMv2Q27PBMO_y0kg69lX9qXts9E7tPBqpWAclqM5tMyso71s_nf5Pk5ktkbuFQnLOSP-3ejZJoZuFLD3_QWK8lv2DRtHY5KxhYku8K4al0CJDbXa8AvyQ9QmB5Qyaua9uaRV93gmPlggmtlZvHd4jahl5eVfgOfaCF8EccVYtiqMrFdNDuU0fb1FBJHz1dzhzrZiCsc36VLILoIwtuBHwVOMkfYq_4ETSOkIR0r1d-BxE3hztT5MXsORDQUqVysdIerm7u3]--></g></svg>