<?xml version="1.0" encoding="us-ascii" standalone="no"?><svg xmlns="http://www.w3.org/2000/svg" xmlns:xlink="http://www.w3.org/1999/xlink" contentStyleType="text/css" height="608.8px" preserveAspectRatio="none" style="width:711px;height:608px;background:#FFFFFF;" version="1.1" viewBox="0 0 711 608" width="711.2px" zoomAndPan="magnify"><defs/><g><rect fill="#FFFFFF" height="531.1375" style="stroke:#181818;stroke-width:0.4000000000000001;" width="4" x="36.4" y="37.4484"/><rect fill="#FFFFFF" height="137.0125" style="stroke:#181818;stroke-width:0.4000000000000001;" width="4" x="183.2" y="46.7648"/><rect fill="#FFFFFF" height="12.5164" style="stroke:#181818;stroke-width:0.4000000000000001;" width="4" x="183.2" y="196.2938"/><rect fill="#FFFFFF" height="12.5164" style="stroke:#181818;stroke-width:0.4000000000000001;" width="4" x="183.2" y="235.1594"/><rect fill="#FFFFFF" height="308.3938" style="stroke:#181818;stroke-width:0.4000000000000001;" width="4" x="183.2" y="260.1922"/><rect fill="#FFFFFF" height="87.6148" style="stroke:#181818;stroke-width:0.4000000000000001;" width="4" x="257.6" y="76.7297"/><rect fill="#FFFFFF" height="283.3609" style="stroke:#181818;stroke-width:0.4000000000000001;" width="4" x="257.6" y="272.7086"/><rect fill="#FFFFFF" height="66.982" style="stroke:#181818;stroke-width:0.4000000000000001;" width="4" x="259.6" y="288.425"/><rect fill="#FFFFFF" height="12.5164" style="stroke:#181818;stroke-width:0.4000000000000001;" width="4" x="321.2" y="89.2461"/><rect fill="#FFFFFF" height="12.5164" style="stroke:#181818;stroke-width:0.4000000000000001;" width="4" x="321.2" y="302.9414"/><rect fill="#FFFFFF" height="12.5164" style="stroke:#181818;stroke-width:0.4000000000000001;" width="4" x="364" y="114.2789"/><rect fill="#FFFFFF" height="12.5164" style="stroke:#181818;stroke-width:0.4000000000000001;" width="4" x="364" y="327.9742"/><rect fill="#FFFFFF" height="158.9969" style="stroke:#181818;stroke-width:0.4000000000000001;" width="4" x="420.2" y="384.5563"/><rect fill="#FFFFFF" height="52.3492" style="stroke:#181818;stroke-width:0.4000000000000001;" width="4" x="422.2" y="475.8875"/><rect fill="#FFFFFF" height="16.9164" style="stroke:#181818;stroke-width:0.4000000000000001;" width="4" x="424.2" y="493.6039"/><rect fill="#FFFFFF" height="12.5164" style="stroke:#181818;stroke-width:0.4000000000000001;" width="4" x="513.8" y="139.3117"/><rect fill="#FFFFFF" height="60.182" style="stroke:#181818;stroke-width:0.4000000000000001;" width="4" x="580.6" y="414.9055"/><rect fill="#FFFFFF" height="16.9164" style="stroke:#181818;stroke-width:0.4000000000000001;" width="4" x="582.6" y="440.4547"/><line style="stroke:#181818;stroke-width:0.20000000000000004;stroke-dasharray:5.0,5.0;" x1="38.4" x2="38.4" y1="33.4484" y2="575.7859"/><line style="stroke:#181818;stroke-width:0.20000000000000004;stroke-dasharray:5.0,5.0;" x1="185" x2="185" y1="33.4484" y2="575.7859"/><line style="stroke:#181818;stroke-width:0.20000000000000004;stroke-dasharray:5.0,5.0;" x1="259.4" x2="259.4" y1="62.6891" y2="575.7859"/><line style="stroke:#181818;stroke-width:0.20000000000000004;stroke-dasharray:5.0,5.0;" x1="323" x2="323" y1="33.4484" y2="575.7859"/><line style="stroke:#181818;stroke-width:0.20000000000000004;stroke-dasharray:5.0,5.0;" x1="365.8" x2="365.8" y1="33.4484" y2="575.7859"/><line style="stroke:#181818;stroke-width:0.20000000000000004;stroke-dasharray:5.0,5.0;" x1="422.2" x2="422.2" y1="33.4484" y2="575.7859"/><line style="stroke:#181818;stroke-width:0.20000000000000004;stroke-dasharray:5.0,5.0;" x1="515.6" x2="515.6" y1="33.4484" y2="575.7859"/><line style="stroke:#181818;stroke-width:0.20000000000000004;stroke-dasharray:5.0,5.0;" x1="582.6" x2="582.6" y1="404.9309" y2="575.7859"/><text fill="#000000" font-family="sans-serif" font-size="5.6" lengthAdjust="spacing" textLength="70.4" x="2" y="32.043">Human Resources Manager</text><ellipse cx="38.4" cy="5.4" fill="#E3E3E3" rx="3.2" ry="3.2" style="stroke:#181818;stroke-width:0.20000000000000004;"/><path d="M38.4,8.6 L38.4,19.4 M33.2,11.8 L43.6,11.8 M38.4,19.4 L33.2,25.4 M38.4,19.4 L43.6,25.4 " fill="none" style="stroke:#181818;stroke-width:0.20000000000000004;"/><text fill="#000000" font-family="sans-serif" font-size="5.6" lengthAdjust="spacing" textLength="70.4" x="2" y="581.4289">Human Resources Manager</text><ellipse cx="38.4" cy="586.2344" fill="#E3E3E3" rx="3.2" ry="3.2" style="stroke:#181818;stroke-width:0.20000000000000004;"/><path d="M38.4,589.4344 L38.4,600.2344 M33.2,592.6344 L43.6,592.6344 M38.4,600.2344 L33.2,606.2344 M38.4,600.2344 L43.6,606.2344 " fill="none" style="stroke:#181818;stroke-width:0.20000000000000004;"/><rect fill="#E3E3E3" height="13.0484" rx="1" ry="1" style="stroke:#181818;stroke-width:0.20000000000000004;" width="60.4" x="155" y="20"/><text fill="#000000" font-family="sans-serif" font-size="5.6" lengthAdjust="spacing" textLength="54.8" x="157.8" y="28.843">:CreateCollaboratorUI</text><rect fill="#E3E3E3" height="13.0484" rx="1" ry="1" style="stroke:#181818;stroke-width:0.20000000000000004;" width="60.4" x="155" y="575.3859"/><text fill="#000000" font-family="sans-serif" font-size="5.6" lengthAdjust="spacing" textLength="54.8" x="157.8" y="584.2289">:CreateCollaboratorUI</text><rect fill="#E3E3E3" height="13.0484" rx="1" ry="1" style="stroke:#181818;stroke-width:0.20000000000000004;" width="80.4" x="219.4" y="575.3859"/><text fill="#000000" font-family="sans-serif" font-size="5.6" lengthAdjust="spacing" textLength="74.8" x="222.2" y="584.2289">:CreateCollaboratorController</text><rect fill="#E3E3E3" height="13.0484" rx="1" ry="1" style="stroke:#181818;stroke-width:0.20000000000000004;" width="38.8" x="303.8" y="20"/><text fill="#000000" font-family="sans-serif" font-size="5.6" lengthAdjust="spacing" textLength="33.2" x="306.6" y="28.843">:Repositories</text><rect fill="#E3E3E3" height="13.0484" rx="1" ry="1" style="stroke:#181818;stroke-width:0.20000000000000004;" width="38.8" x="303.8" y="575.3859"/><text fill="#000000" font-family="sans-serif" font-size="5.6" lengthAdjust="spacing" textLength="33.2" x="306.6" y="584.2289">:Repositories</text><rect fill="#E3E3E3" height="20.4969" rx="1" ry="1" style="stroke:#181818;stroke-width:0.20000000000000004;" width="38.8" x="346.6" y="12.5516"/><text fill="#000000" font-family="sans-serif" font-size="5.6" lengthAdjust="spacing" textLength="29.6" x="351.2" y="21.3945">repositories</text><text fill="#000000" font-family="sans-serif" font-size="5.6" lengthAdjust="spacing" textLength="33.2" x="349.4" y="28.843">:Repositories</text><rect fill="#E3E3E3" height="20.4969" rx="1" ry="1" style="stroke:#181818;stroke-width:0.20000000000000004;" width="38.8" x="346.6" y="575.3859"/><text fill="#000000" font-family="sans-serif" font-size="5.6" lengthAdjust="spacing" textLength="29.6" x="351.2" y="584.2289">repositories</text><text fill="#000000" font-family="sans-serif" font-size="5.6" lengthAdjust="spacing" textLength="33.2" x="349.4" y="591.6773">:Repositories</text><rect fill="#E3E3E3" height="20.4969" rx="1" ry="1" style="stroke:#181818;stroke-width:0.20000000000000004;" width="65.6" x="389.4" y="12.5516"/><text fill="#000000" font-family="sans-serif" font-size="5.6" lengthAdjust="spacing" textLength="60" x="392.2" y="21.3945">CollaboratorRepository:</text><text fill="#000000" font-family="sans-serif" font-size="5.6" lengthAdjust="spacing" textLength="58.4" x="393" y="28.843">CollaboratorRepository</text><rect fill="#E3E3E3" height="20.4969" rx="1" ry="1" style="stroke:#181818;stroke-width:0.20000000000000004;" width="65.6" x="389.4" y="575.3859"/><text fill="#000000" font-family="sans-serif" font-size="5.6" lengthAdjust="spacing" textLength="60" x="392.2" y="584.2289">CollaboratorRepository:</text><text fill="#000000" font-family="sans-serif" font-size="5.6" lengthAdjust="spacing" textLength="58.4" x="393" y="591.6773">CollaboratorRepository</text><rect fill="#E3E3E3" height="20.4969" rx="1" ry="1" style="stroke:#181818;stroke-width:0.20000000000000004;" width="46" x="492.8" y="12.5516"/><text fill="#000000" font-family="sans-serif" font-size="5.6" lengthAdjust="spacing" textLength="40.4" x="495.6" y="21.3945">JobsRepository:</text><text fill="#000000" font-family="sans-serif" font-size="5.6" lengthAdjust="spacing" textLength="38.8" x="496.4" y="28.843">JobsRepository</text><rect fill="#E3E3E3" height="20.4969" rx="1" ry="1" style="stroke:#181818;stroke-width:0.20000000000000004;" width="46" x="492.8" y="575.3859"/><text fill="#000000" font-family="sans-serif" font-size="5.6" lengthAdjust="spacing" textLength="40.4" x="495.6" y="584.2289">JobsRepository:</text><text fill="#000000" font-family="sans-serif" font-size="5.6" lengthAdjust="spacing" textLength="38.8" x="496.4" y="591.6773">JobsRepository</text><rect fill="#E3E3E3" height="20.4969" rx="1" ry="1" style="stroke:#181818;stroke-width:0.20000000000000004;" width="38.4" x="563.4" y="575.3859"/><text fill="#000000" font-family="sans-serif" font-size="5.6" lengthAdjust="spacing" textLength="30" x="567.6" y="584.2289">collaborator</text><text fill="#000000" font-family="sans-serif" font-size="5.6" lengthAdjust="spacing" textLength="32.8" x="566.2" y="591.6773">:Collaborator</text><rect fill="#FFFFFF" height="531.1375" style="stroke:#181818;stroke-width:0.4000000000000001;" width="4" x="36.4" y="37.4484"/><rect fill="#FFFFFF" height="137.0125" style="stroke:#181818;stroke-width:0.4000000000000001;" width="4" x="183.2" y="46.7648"/><rect fill="#FFFFFF" height="12.5164" style="stroke:#181818;stroke-width:0.4000000000000001;" width="4" x="183.2" y="196.2938"/><rect fill="#FFFFFF" height="12.5164" style="stroke:#181818;stroke-width:0.4000000000000001;" width="4" x="183.2" y="235.1594"/><rect fill="#FFFFFF" height="308.3938" style="stroke:#181818;stroke-width:0.4000000000000001;" width="4" x="183.2" y="260.1922"/><rect fill="#FFFFFF" height="87.6148" style="stroke:#181818;stroke-width:0.4000000000000001;" width="4" x="257.6" y="76.7297"/><rect fill="#FFFFFF" height="283.3609" style="stroke:#181818;stroke-width:0.4000000000000001;" width="4" x="257.6" y="272.7086"/><rect fill="#FFFFFF" height="66.982" style="stroke:#181818;stroke-width:0.4000000000000001;" width="4" x="259.6" y="288.425"/><rect fill="#FFFFFF" height="12.5164" style="stroke:#181818;stroke-width:0.4000000000000001;" width="4" x="321.2" y="89.2461"/><rect fill="#FFFFFF" height="12.5164" style="stroke:#181818;stroke-width:0.4000000000000001;" width="4" x="321.2" y="302.9414"/><rect fill="#FFFFFF" height="12.5164" style="stroke:#181818;stroke-width:0.4000000000000001;" width="4" x="364" y="114.2789"/><rect fill="#FFFFFF" height="12.5164" style="stroke:#181818;stroke-width:0.4000000000000001;" width="4" x="364" y="327.9742"/><rect fill="#FFFFFF" height="158.9969" style="stroke:#181818;stroke-width:0.4000000000000001;" width="4" x="420.2" y="384.5563"/><rect fill="#FFFFFF" height="52.3492" style="stroke:#181818;stroke-width:0.4000000000000001;" width="4" x="422.2" y="475.8875"/><rect fill="#FFFFFF" height="16.9164" style="stroke:#181818;stroke-width:0.4000000000000001;" width="4" x="424.2" y="493.6039"/><rect fill="#FFFFFF" height="12.5164" style="stroke:#181818;stroke-width:0.4000000000000001;" width="4" x="513.8" y="139.3117"/><rect fill="#FFFFFF" height="60.182" style="stroke:#181818;stroke-width:0.4000000000000001;" width="4" x="580.6" y="414.9055"/><rect fill="#FFFFFF" height="16.9164" style="stroke:#181818;stroke-width:0.4000000000000001;" width="4" x="582.6" y="440.4547"/><polygon fill="#181818" points="178.4,45.1648,182.4,46.7648,178.4,48.3648,180,46.7648" style="stroke:#181818;stroke-width:0.4000000000000001;"/><line style="stroke:#181818;stroke-width:0.4000000000000001;" x1="40.4" x2="180.8" y1="46.7648" y2="46.7648"/><text fill="#000000" font-family="sans-serif" font-size="5.2" font-weight="bold" lengthAdjust="spacing" textLength="2.8" x="43.2" y="44.6598">1</text><text fill="#000000" font-family="sans-serif" font-size="5.2" lengthAdjust="spacing" textLength="76.8" x="47.6" y="44.6598">asks to create a new collaborator</text><polygon fill="#181818" points="214.6,57.6813,218.6,59.2813,214.6,60.8813,216.2,59.2813" style="stroke:#181818;stroke-width:0.4000000000000001;"/><line style="stroke:#181818;stroke-width:0.4000000000000001;" x1="187.2" x2="217" y1="59.2813" y2="59.2813"/><text fill="#000000" font-family="sans-serif" font-size="5.2" font-weight="bold" lengthAdjust="spacing" textLength="2.8" x="190" y="57.1762">2</text><text fill="#000000" font-family="sans-serif" font-size="5.2" lengthAdjust="spacing" textLength="14.4" x="194.4" y="57.1762">create</text><rect fill="#E3E3E3" height="13.0484" rx="1" ry="1" style="stroke:#181818;stroke-width:0.20000000000000004;" width="80.4" x="219.4" y="49.9648"/><text fill="#000000" font-family="sans-serif" font-size="5.6" lengthAdjust="spacing" textLength="74.8" x="222.2" y="58.8078">:CreateCollaboratorController</text><polygon fill="#181818" points="252.8,75.1297,256.8,76.7297,252.8,78.3297,254.4,76.7297" style="stroke:#181818;stroke-width:0.4000000000000001;"/><line style="stroke:#181818;stroke-width:0.4000000000000001;" x1="187.2" x2="255.2" y1="76.7297" y2="76.7297"/><text fill="#000000" font-family="sans-serif" font-size="5.2" font-weight="bold" lengthAdjust="spacing" textLength="2.8" x="190" y="74.6246">3</text><text fill="#000000" font-family="sans-serif" font-size="5.2" lengthAdjust="spacing" textLength="21.2" x="194.4" y="74.6246">getJobs()</text><polygon fill="#181818" points="316.4,87.6461,320.4,89.2461,316.4,90.8461,318,89.2461" style="stroke:#181818;stroke-width:0.4000000000000001;"/><line style="stroke:#181818;stroke-width:0.4000000000000001;" x1="261.6" x2="318.8" y1="89.2461" y2="89.2461"/><text fill="#000000" font-family="sans-serif" font-size="5.2" font-weight="bold" lengthAdjust="spacing" textLength="2.8" x="264.4" y="87.141">4</text><text fill="#000000" font-family="sans-serif" font-size="5.2" lengthAdjust="spacing" textLength="30" x="268.8" y="87.141">getInstance()</text><polygon fill="#181818" points="266,100.1625,262,101.7625,266,103.3625,264.4,101.7625" style="stroke:#181818;stroke-width:0.4000000000000001;"/><line style="stroke:#181818;stroke-width:0.4000000000000001;stroke-dasharray:2.0,2.0;" x1="263.6" x2="322.8" y1="101.7625" y2="101.7625"/><text fill="#000000" font-family="sans-serif" font-size="5.2" font-weight="bold" lengthAdjust="spacing" textLength="2.8" x="268.4" y="99.6574">5</text><text fill="#000000" font-family="sans-serif" font-size="5.2" lengthAdjust="spacing" textLength="26.8" x="272.8" y="99.6574">repositories</text><polygon fill="#181818" points="359.2,112.6789,363.2,114.2789,359.2,115.8789,360.8,114.2789" style="stroke:#181818;stroke-width:0.4000000000000001;"/><line style="stroke:#181818;stroke-width:0.4000000000000001;" x1="261.6" x2="361.6" y1="114.2789" y2="114.2789"/><text fill="#000000" font-family="sans-serif" font-size="5.2" font-weight="bold" lengthAdjust="spacing" textLength="2.8" x="264.4" y="112.1738">6</text><text fill="#000000" font-family="sans-serif" font-size="5.2" lengthAdjust="spacing" textLength="46" x="268.8" y="112.1738">getJobsRepository()</text><polygon fill="#181818" points="266,125.1953,262,126.7953,266,128.3953,264.4,126.7953" style="stroke:#181818;stroke-width:0.4000000000000001;"/><line style="stroke:#181818;stroke-width:0.4000000000000001;stroke-dasharray:2.0,2.0;" x1="263.6" x2="365.6" y1="126.7953" y2="126.7953"/><text fill="#000000" font-family="sans-serif" font-size="5.2" font-weight="bold" lengthAdjust="spacing" textLength="2.8" x="268.4" y="124.6902">7</text><text fill="#000000" font-family="sans-serif" font-size="5.2" lengthAdjust="spacing" textLength="34.4" x="272.8" y="124.6902">jobsRepository</text><polygon fill="#181818" points="509,137.7117,513,139.3117,509,140.9117,510.6,139.3117" style="stroke:#181818;stroke-width:0.4000000000000001;"/><line style="stroke:#181818;stroke-width:0.4000000000000001;" x1="261.6" x2="511.4" y1="139.3117" y2="139.3117"/><text fill="#000000" font-family="sans-serif" font-size="5.2" font-weight="bold" lengthAdjust="spacing" textLength="2.8" x="264.4" y="137.2066">8</text><text fill="#000000" font-family="sans-serif" font-size="5.2" lengthAdjust="spacing" textLength="29.6" x="268.8" y="137.2066">getJobsList()</text><polygon fill="#181818" points="266,150.2281,262,151.8281,266,153.4281,264.4,151.8281" style="stroke:#181818;stroke-width:0.4000000000000001;"/><line style="stroke:#181818;stroke-width:0.4000000000000001;stroke-dasharray:2.0,2.0;" x1="263.6" x2="515.4" y1="151.8281" y2="151.8281"/><text fill="#000000" font-family="sans-serif" font-size="5.2" font-weight="bold" lengthAdjust="spacing" textLength="2.8" x="268.4" y="149.723">9</text><text fill="#000000" font-family="sans-serif" font-size="5.2" lengthAdjust="spacing" textLength="18" x="272.8" y="149.723">jobsList</text><polygon fill="#181818" points="191.6,162.7445,187.6,164.3445,191.6,165.9445,190,164.3445" style="stroke:#181818;stroke-width:0.4000000000000001;"/><line style="stroke:#181818;stroke-width:0.4000000000000001;stroke-dasharray:2.0,2.0;" x1="189.2" x2="259.2" y1="164.3445" y2="164.3445"/><text fill="#000000" font-family="sans-serif" font-size="5.2" font-weight="bold" lengthAdjust="spacing" textLength="5.6" x="194" y="162.2395">10</text><text fill="#000000" font-family="sans-serif" font-size="5.2" lengthAdjust="spacing" textLength="18" x="201.2" y="162.2395">jobsList</text><polygon fill="#181818" points="44.8,182.1773,40.8,183.7773,44.8,185.3773,43.2,183.7773" style="stroke:#181818;stroke-width:0.4000000000000001;"/><line style="stroke:#181818;stroke-width:0.4000000000000001;stroke-dasharray:2.0,2.0;" x1="42.4" x2="184.8" y1="183.7773" y2="183.7773"/><text fill="#000000" font-family="sans-serif" font-size="5.2" font-weight="bold" lengthAdjust="spacing" textLength="5.6" x="47.2" y="178.2141">11</text><text fill="#000000" font-family="sans-serif" font-size="5.2" lengthAdjust="spacing" textLength="42.8" x="54.4" y="174.7559">shows jobsList list</text><text fill="#000000" font-family="sans-serif" font-size="5.2" lengthAdjust="spacing" textLength="61.2" x="56" y="181.6723">and asks to select one job</text><polygon fill="#181818" points="178.4,194.6938,182.4,196.2938,178.4,197.8938,180,196.2938" style="stroke:#181818;stroke-width:0.4000000000000001;"/><line style="stroke:#181818;stroke-width:0.4000000000000001;" x1="40.4" x2="180.8" y1="196.2938" y2="196.2938"/><text fill="#000000" font-family="sans-serif" font-size="5.2" font-weight="bold" lengthAdjust="spacing" textLength="5.6" x="43.2" y="194.1887">12</text><text fill="#000000" font-family="sans-serif" font-size="5.2" lengthAdjust="spacing" textLength="29.6" x="50.4" y="194.1887">selects a job</text><polygon fill="#181818" points="44.8,207.2102,40.8,208.8102,44.8,210.4102,43.2,208.8102" style="stroke:#181818;stroke-width:0.4000000000000001;"/><line style="stroke:#181818;stroke-width:0.4000000000000001;stroke-dasharray:2.0,2.0;" x1="42.4" x2="184.8" y1="208.8102" y2="208.8102"/><text fill="#000000" font-family="sans-serif" font-size="5.2" font-weight="bold" lengthAdjust="spacing" textLength="5.6" x="47.2" y="206.7051">13</text><text fill="#000000" font-family="sans-serif" font-size="5.2" lengthAdjust="spacing" textLength="31.6" x="54.4" y="206.7051">requests data</text><polygon fill="#181818" points="178.4,233.5594,182.4,235.1594,178.4,236.7594,180,235.1594" style="stroke:#181818;stroke-width:0.4000000000000001;"/><line style="stroke:#181818;stroke-width:0.4000000000000001;" x1="40.4" x2="180.8" y1="235.1594" y2="235.1594"/><text fill="#000000" font-family="sans-serif" font-size="5.2" font-weight="bold" lengthAdjust="spacing" textLength="5.6" x="43.2" y="226.1379">14</text><text fill="#000000" font-family="sans-serif" font-size="5.2" lengthAdjust="spacing" textLength="128" x="50.4" y="219.2215">types requested data (name, birthDate, admissionDate,</text><text fill="#000000" font-family="sans-serif" font-size="5.2" lengthAdjust="spacing" textLength="112" x="50.4" y="226.1379">address, phoneNumber, email, taxpayerNumber,</text><text fill="#000000" font-family="sans-serif" font-size="5.2" lengthAdjust="spacing" textLength="50.8" x="50.4" y="233.0543">docType, docNumber)</text><polygon fill="#181818" points="44.8,246.0758,40.8,247.6758,44.8,249.2758,43.2,247.6758" style="stroke:#181818;stroke-width:0.4000000000000001;"/><line style="stroke:#181818;stroke-width:0.4000000000000001;stroke-dasharray:2.0,2.0;" x1="42.4" x2="184.8" y1="247.6758" y2="247.6758"/><text fill="#000000" font-family="sans-serif" font-size="5.2" font-weight="bold" lengthAdjust="spacing" textLength="5.6" x="47.2" y="245.5707">15</text><text fill="#000000" font-family="sans-serif" font-size="5.2" lengthAdjust="spacing" textLength="90.4" x="54.4" y="245.5707">shows selected job and requested data</text><polygon fill="#181818" points="178.4,258.5922,182.4,260.1922,178.4,261.7922,180,260.1922" style="stroke:#181818;stroke-width:0.4000000000000001;"/><line style="stroke:#181818;stroke-width:0.4000000000000001;" x1="40.4" x2="180.8" y1="260.1922" y2="260.1922"/><text fill="#000000" font-family="sans-serif" font-size="5.2" font-weight="bold" lengthAdjust="spacing" textLength="5.6" x="43.2" y="258.0871">16</text><text fill="#000000" font-family="sans-serif" font-size="5.2" lengthAdjust="spacing" textLength="30" x="50.4" y="258.0871">submits data</text><polygon fill="#181818" points="252.8,271.1086,256.8,272.7086,252.8,274.3086,254.4,272.7086" style="stroke:#181818;stroke-width:0.4000000000000001;"/><line style="stroke:#181818;stroke-width:0.4000000000000001;" x1="187.2" x2="255.2" y1="272.7086" y2="272.7086"/><text fill="#000000" font-family="sans-serif" font-size="5.2" font-weight="bold" lengthAdjust="spacing" textLength="5.6" x="190" y="270.6035">17</text><text fill="#000000" font-family="sans-serif" font-size="5.2" lengthAdjust="spacing" textLength="29.6" x="197.2" y="270.6035">submitData()</text><line style="stroke:#181818;stroke-width:0.4000000000000001;" x1="261.6" x2="280.4" y1="283.225" y2="283.225"/><line style="stroke:#181818;stroke-width:0.4000000000000001;" x1="280.4" x2="280.4" y1="283.225" y2="288.425"/><line style="stroke:#181818;stroke-width:0.4000000000000001;" x1="264" x2="280.4" y1="288.425" y2="288.425"/><polygon fill="#181818" points="268,286.825,264,288.425,268,290.025,266.4,288.425" style="stroke:#181818;stroke-width:0.4000000000000001;"/><text fill="#000000" font-family="sans-serif" font-size="5.2" font-weight="bold" lengthAdjust="spacing" textLength="5.6" x="266.4" y="281.1199">18</text><text fill="#000000" font-family="sans-serif" font-size="5.2" lengthAdjust="spacing" textLength="40.8" x="273.6" y="281.1199">getCollaborators()</text><polygon fill="#181818" points="316.4,301.3414,320.4,302.9414,316.4,304.5414,318,302.9414" style="stroke:#181818;stroke-width:0.4000000000000001;"/><line style="stroke:#181818;stroke-width:0.4000000000000001;" x1="263.6" x2="318.8" y1="302.9414" y2="302.9414"/><text fill="#000000" font-family="sans-serif" font-size="5.2" font-weight="bold" lengthAdjust="spacing" textLength="5.6" x="266.4" y="300.8363">19</text><text fill="#000000" font-family="sans-serif" font-size="5.2" lengthAdjust="spacing" textLength="30" x="273.6" y="300.8363">getInstance()</text><polygon fill="#181818" points="268,313.8578,264,315.4578,268,317.0578,266.4,315.4578" style="stroke:#181818;stroke-width:0.4000000000000001;"/><line style="stroke:#181818;stroke-width:0.4000000000000001;stroke-dasharray:2.0,2.0;" x1="265.6" x2="322.8" y1="315.4578" y2="315.4578"/><text fill="#000000" font-family="sans-serif" font-size="5.2" font-weight="bold" lengthAdjust="spacing" textLength="5.6" x="270.4" y="313.3527">20</text><text fill="#000000" font-family="sans-serif" font-size="5.2" lengthAdjust="spacing" textLength="26.8" x="277.6" y="313.3527">repositories</text><polygon fill="#181818" points="359.2,326.3742,363.2,327.9742,359.2,329.5742,360.8,327.9742" style="stroke:#181818;stroke-width:0.4000000000000001;"/><line style="stroke:#181818;stroke-width:0.4000000000000001;" x1="263.6" x2="361.6" y1="327.9742" y2="327.9742"/><text fill="#000000" font-family="sans-serif" font-size="5.2" font-weight="bold" lengthAdjust="spacing" textLength="5.6" x="266.4" y="325.8691">21</text><text fill="#000000" font-family="sans-serif" font-size="5.2" lengthAdjust="spacing" textLength="62.8" x="273.6" y="325.8691">getCollaboratorRepository()</text><polygon fill="#181818" points="268,338.8906,264,340.4906,268,342.0906,266.4,340.4906" style="stroke:#181818;stroke-width:0.4000000000000001;"/><line style="stroke:#181818;stroke-width:0.4000000000000001;stroke-dasharray:2.0,2.0;" x1="265.6" x2="365.6" y1="340.4906" y2="340.4906"/><text fill="#000000" font-family="sans-serif" font-size="5.2" font-weight="bold" lengthAdjust="spacing" textLength="5.6" x="270.4" y="338.3855">22</text><text fill="#000000" font-family="sans-serif" font-size="5.2" lengthAdjust="spacing" textLength="54.4" x="277.6" y="338.3855">collaboratorsRepository</text><line style="stroke:#181818;stroke-width:0.4000000000000001;stroke-dasharray:2.0,2.0;" x1="263.6" x2="280.4" y1="355.007" y2="355.007"/><line style="stroke:#181818;stroke-width:0.4000000000000001;stroke-dasharray:2.0,2.0;" x1="280.4" x2="280.4" y1="355.007" y2="360.207"/><line style="stroke:#181818;stroke-width:0.4000000000000001;stroke-dasharray:2.0,2.0;" x1="261.6" x2="280.4" y1="360.207" y2="360.207"/><polygon fill="#181818" points="265.6,358.607,261.6,360.207,265.6,361.807,264,360.207" style="stroke:#181818;stroke-width:0.4000000000000001;"/><text fill="#000000" font-family="sans-serif" font-size="5.2" font-weight="bold" lengthAdjust="spacing" textLength="5.6" x="266.4" y="352.902">23</text><text fill="#000000" font-family="sans-serif" font-size="5.2" lengthAdjust="spacing" textLength="1.6" x="273.6" y="352.902">&#160;</text><polygon fill="#181818" points="415.4,382.9563,419.4,384.5563,415.4,386.1563,417,384.5563" style="stroke:#181818;stroke-width:0.4000000000000001;"/><line style="stroke:#181818;stroke-width:0.4000000000000001;" x1="261.6" x2="417.8" y1="384.5563" y2="384.5563"/><text fill="#000000" font-family="sans-serif" font-size="5.2" font-weight="bold" lengthAdjust="spacing" textLength="5.6" x="264.4" y="375.5348">24</text><text fill="#000000" font-family="sans-serif" font-size="5.2" lengthAdjust="spacing" textLength="122.4" x="271.6" y="368.6184">registerCollaborator(name, birthDate, admissionDate,</text><text fill="#000000" font-family="sans-serif" font-size="5.2" lengthAdjust="spacing" textLength="112" x="271.6" y="375.5348">address, phoneNumber, email, taxpayerNumber,</text><text fill="#000000" font-family="sans-serif" font-size="5.2" lengthAdjust="spacing" textLength="69.2" x="271.6" y="382.4512">docType, docNumber and job)</text><polygon fill="#181818" points="558.6,409.3055,562.6,410.9055,558.6,412.5055,560.2,410.9055" style="stroke:#181818;stroke-width:0.4000000000000001;"/><line style="stroke:#181818;stroke-width:0.4000000000000001;" x1="424.2" x2="561" y1="410.9055" y2="410.9055"/><text fill="#000000" font-family="sans-serif" font-size="5.2" font-weight="bold" lengthAdjust="spacing" textLength="5.6" x="427" y="401.884">25</text><text fill="#000000" font-family="sans-serif" font-size="5.2" lengthAdjust="spacing" textLength="122.4" x="434.2" y="394.9676">registerCollaborator(name, birthDate, admissionDate,</text><text fill="#000000" font-family="sans-serif" font-size="5.2" lengthAdjust="spacing" textLength="112" x="434.2" y="401.884">address, phoneNumber, email, taxpayerNumber,</text><text fill="#000000" font-family="sans-serif" font-size="5.2" lengthAdjust="spacing" textLength="69.2" x="434.2" y="408.8004">docType, docNumber and job)</text><rect fill="#E3E3E3" height="20.4969" rx="1" ry="1" style="stroke:#181818;stroke-width:0.20000000000000004;" width="38.4" x="563.4" y="389.2086"/><text fill="#000000" font-family="sans-serif" font-size="5.6" lengthAdjust="spacing" textLength="30" x="567.6" y="398.0516">collaborator</text><text fill="#000000" font-family="sans-serif" font-size="5.6" lengthAdjust="spacing" textLength="32.8" x="566.2" y="405.5">:Collaborator</text><line style="stroke:#181818;stroke-width:0.4000000000000001;" x1="584.6" x2="603.4" y1="435.2547" y2="435.2547"/><line style="stroke:#181818;stroke-width:0.4000000000000001;" x1="603.4" x2="603.4" y1="435.2547" y2="440.4547"/><line style="stroke:#181818;stroke-width:0.4000000000000001;" x1="587" x2="603.4" y1="440.4547" y2="440.4547"/><polygon fill="#181818" points="591,438.8547,587,440.4547,591,442.0547,589.4,440.4547" style="stroke:#181818;stroke-width:0.4000000000000001;"/><text fill="#000000" font-family="sans-serif" font-size="5.2" font-weight="bold" lengthAdjust="spacing" textLength="5.6" x="589.4" y="426.2332">26</text><text fill="#000000" font-family="sans-serif" font-size="5.2" lengthAdjust="spacing" textLength="105.6" x="596.6" y="419.3168">validateData(name, birthDate, admissionDate,</text><text fill="#000000" font-family="sans-serif" font-size="5.2" lengthAdjust="spacing" textLength="112" x="596.6" y="426.2332">address, phoneNumber, email, taxpayerNumber,</text><text fill="#000000" font-family="sans-serif" font-size="5.2" lengthAdjust="spacing" textLength="69.2" x="596.6" y="433.1496">docType, docNumber and job)</text><line style="stroke:#181818;stroke-width:0.4000000000000001;stroke-dasharray:2.0,2.0;" x1="586.6" x2="603.4" y1="456.9711" y2="456.9711"/><line style="stroke:#181818;stroke-width:0.4000000000000001;stroke-dasharray:2.0,2.0;" x1="603.4" x2="603.4" y1="456.9711" y2="462.1711"/><line style="stroke:#181818;stroke-width:0.4000000000000001;stroke-dasharray:2.0,2.0;" x1="584.6" x2="603.4" y1="462.1711" y2="462.1711"/><polygon fill="#181818" points="588.6,460.5711,584.6,462.1711,588.6,463.7711,587,462.1711" style="stroke:#181818;stroke-width:0.4000000000000001;"/><text fill="#000000" font-family="sans-serif" font-size="5.2" font-weight="bold" lengthAdjust="spacing" textLength="5.6" x="589.4" y="454.866">27</text><text fill="#000000" font-family="sans-serif" font-size="5.2" lengthAdjust="spacing" textLength="1.6" x="596.6" y="454.866">&#160;</text><line style="stroke:#181818;stroke-width:0.4000000000000001;" x1="426.2" x2="443" y1="472.6875" y2="472.6875"/><line style="stroke:#181818;stroke-width:0.4000000000000001;" x1="443" x2="443" y1="472.6875" y2="477.8875"/><line style="stroke:#181818;stroke-width:0.4000000000000001;" x1="426.6" x2="443" y1="477.8875" y2="477.8875"/><polygon fill="#181818" points="430.6,476.2875,426.6,477.8875,430.6,479.4875,429,477.8875" style="stroke:#181818;stroke-width:0.4000000000000001;"/><text fill="#000000" font-family="sans-serif" font-size="5.2" font-weight="bold" lengthAdjust="spacing" textLength="5.6" x="429" y="470.5824">28</text><text fill="#000000" font-family="sans-serif" font-size="5.2" lengthAdjust="spacing" textLength="66" x="436.2" y="470.5824">addCollaborator(collaborator)</text><line style="stroke:#181818;stroke-width:0.4000000000000001;" x1="426.2" x2="445" y1="488.4039" y2="488.4039"/><line style="stroke:#181818;stroke-width:0.4000000000000001;" x1="445" x2="445" y1="488.4039" y2="493.6039"/><line style="stroke:#181818;stroke-width:0.4000000000000001;" x1="428.6" x2="445" y1="493.6039" y2="493.6039"/><polygon fill="#181818" points="432.6,492.0039,428.6,493.6039,432.6,495.2039,431,493.6039" style="stroke:#181818;stroke-width:0.4000000000000001;"/><text fill="#000000" font-family="sans-serif" font-size="5.2" font-weight="bold" lengthAdjust="spacing" textLength="5.6" x="431" y="486.2988">29</text><text fill="#000000" font-family="sans-serif" font-size="5.2" lengthAdjust="spacing" textLength="74.8" x="438.2" y="486.2988">validateCollaborator(collaborator)</text><line style="stroke:#181818;stroke-width:0.4000000000000001;stroke-dasharray:2.0,2.0;" x1="428.2" x2="445" y1="510.1203" y2="510.1203"/><line style="stroke:#181818;stroke-width:0.4000000000000001;stroke-dasharray:2.0,2.0;" x1="445" x2="445" y1="510.1203" y2="515.3203"/><line style="stroke:#181818;stroke-width:0.4000000000000001;stroke-dasharray:2.0,2.0;" x1="426.2" x2="445" y1="515.3203" y2="515.3203"/><polygon fill="#181818" points="430.2,513.7203,426.2,515.3203,430.2,516.9203,428.6,515.3203" style="stroke:#181818;stroke-width:0.4000000000000001;"/><text fill="#000000" font-family="sans-serif" font-size="5.2" font-weight="bold" lengthAdjust="spacing" textLength="5.6" x="431" y="508.0152">30</text><text fill="#000000" font-family="sans-serif" font-size="5.2" lengthAdjust="spacing" textLength="1.6" x="438.2" y="508.0152">&#160;</text><line style="stroke:#181818;stroke-width:0.4000000000000001;stroke-dasharray:2.0,2.0;" x1="426.2" x2="443" y1="527.8367" y2="527.8367"/><line style="stroke:#181818;stroke-width:0.4000000000000001;stroke-dasharray:2.0,2.0;" x1="443" x2="443" y1="527.8367" y2="533.0367"/><line style="stroke:#181818;stroke-width:0.4000000000000001;stroke-dasharray:2.0,2.0;" x1="424.2" x2="443" y1="533.0367" y2="533.0367"/><polygon fill="#181818" points="428.2,531.4367,424.2,533.0367,428.2,534.6367,426.6,533.0367" style="stroke:#181818;stroke-width:0.4000000000000001;"/><text fill="#000000" font-family="sans-serif" font-size="5.2" font-weight="bold" lengthAdjust="spacing" textLength="5.6" x="429" y="525.7316">31</text><text fill="#000000" font-family="sans-serif" font-size="5.2" lengthAdjust="spacing" textLength="1.6" x="436.2" y="525.7316">&#160;</text><polygon fill="#181818" points="266,541.9531,262,543.5531,266,545.1531,264.4,543.5531" style="stroke:#181818;stroke-width:0.4000000000000001;"/><line style="stroke:#181818;stroke-width:0.4000000000000001;stroke-dasharray:2.0,2.0;" x1="263.6" x2="421.8" y1="543.5531" y2="543.5531"/><text fill="#000000" font-family="sans-serif" font-size="5.2" font-weight="bold" lengthAdjust="spacing" textLength="5.6" x="268.4" y="541.448">32</text><text fill="#000000" font-family="sans-serif" font-size="5.2" lengthAdjust="spacing" textLength="26.8" x="275.6" y="541.448">collaborator</text><polygon fill="#181818" points="191.6,554.4695,187.6,556.0695,191.6,557.6695,190,556.0695" style="stroke:#181818;stroke-width:0.4000000000000001;"/><line style="stroke:#181818;stroke-width:0.4000000000000001;stroke-dasharray:2.0,2.0;" x1="189.2" x2="259.2" y1="556.0695" y2="556.0695"/><text fill="#000000" font-family="sans-serif" font-size="5.2" font-weight="bold" lengthAdjust="spacing" textLength="5.6" x="194" y="553.9645">33</text><text fill="#000000" font-family="sans-serif" font-size="5.2" lengthAdjust="spacing" textLength="26.8" x="201.2" y="553.9645">collaborator</text><polygon fill="#181818" points="42.8,566.9859,38.8,568.5859,42.8,570.1859,41.2,568.5859" style="stroke:#181818;stroke-width:0.4000000000000001;"/><line style="stroke:#181818;stroke-width:0.4000000000000001;stroke-dasharray:2.0,2.0;" x1="40.4" x2="184.8" y1="568.5859" y2="568.5859"/><text fill="#000000" font-family="sans-serif" font-size="5.2" font-weight="bold" lengthAdjust="spacing" textLength="5.6" x="45.2" y="566.4809">34</text><text fill="#000000" font-family="sans-serif" font-size="5.2" lengthAdjust="spacing" textLength="89.2" x="52.4" y="566.4809">Confirms the success of the operation.</text><!--SRC=[pLV1Rjim3BthAuXUrXJfFY270KDsQ8Ts6DBsbejYCubQM_8akMt-VhISs9AZn0wQ5VEXg6NoaOyYdnJp8cJ1DSyXLr8bQwro1AjBPARvKl3aXQ_mmMuo18s9vNAL-GPcpLFr9kGAbZmpo1WlhP9bla3Ds9UrI16MIjc5UcSyiKh3nKsPSmapDAhK2Hguvv8Yw0lW1cvczunmhKX4mQM5YybK8xSuLLd65qfpGdYwTQPFjxsMKoMjflSj-FHnTjVncM6XZ21JWSRPD0kR1r4n9IwXY_Oyvd8VuFVTzyVGmy-eXP_CPVn3dMhqKuZxKorCW1SkE9nmAVHFl1Z4n0-vbmEhDa-yKdtT5Z7OFlG2rzzeBs12BYy6h8B4xGDmaFW6IG2oSsl0Q1ERnUeX88AhDkhgYY1hgD0aD2EZ5TgAvkLepwm9utP-xxFp9vp8djUmjz9GloSOWJuOAjP0lTxL4ylYUijo0dxRzSAb-B5qTeMfUhajS0jrIZtSF0mgW8lMCduEM_S4pl6GEr8XbPRUdJ3sM0zrHYcQK0VxkctIvsq4TYJllWWrWzsuHH4zjFsUhwQ6lAkPdP1kgpVJW416V-OIk4oREJQOaTw3abYPiKY8tVJwAb1x6Hh_dLDqs8DSDFufqP1JoYrd0uBOJK47nzODK-S7bvBdE8Q5q7RzWpp7mDDS62EKTAzpoTDKep5ZADR4wfSxfCQ0EHVP62n_B_W6zNPvBbELF5ASCT0_zU9e89-wjdKbA3igX2jicEyGdgPSvCAlom3XRDo8DB_ifEoQmf-6LaDzkQ_4DEB8sBbbyppIUMRvF8U4ncKqVgoVMgVXajhLLFyqFaLSOm8BmqkmZS-EYP_NODtwnQlcT6D5ieNQD_ZtAk1ccMPw56RRCedVtK9gSKeTikuEzF-JZ9nKtjSkAQBqoZD1aePEeJwHok7xeS_cE9azDaUR-c2LXZL0qErKXw07_64UiI4Pz2hBeTRzKEhjVWzClpSV69BEmNo6bEhKkJrxi6E1wYCxYUriVuJ1NUhTDWS42-IzlGnD25mkXSxfHhb6kfWaz8lVW5gwLrKW8TAaVsMnsv3tMlte_0i0]--></g></svg>