<?xml version="1.0" encoding="us-ascii" standalone="no"?><svg xmlns="http://www.w3.org/2000/svg" xmlns:xlink="http://www.w3.org/1999/xlink" contentStyleType="text/css" height="1347px" preserveAspectRatio="none" style="width:867px;height:1347px;background:#FFFFFF;" version="1.1" viewBox="0 0 867 1347" width="867px" zoomAndPan="magnify"><defs/><g><text fill="#000000" font-family="sans-serif" font-size="14" font-weight="bold" lengthAdjust="spacing" textLength="127" x="363" y="25.1074">Use Case Diagram</text><!--cluster actors--><g id="cluster_actors"><rect fill="none" height="475" rx="2.5" ry="2.5" style="stroke:#FFC0CB;stroke-width:1.0;" width="315" x="7" y="555.6211"/><text fill="#000000" font-family="sans-serif" font-size="14" font-weight="bold" lengthAdjust="spacing" textLength="99" x="69" y="572.7285">System Actors</text></g><!--cluster usecases--><g id="cluster_usecases"><rect fill="none" height="1295" rx="2.5" ry="2.5" style="stroke:#FFC0CB;stroke-width:1.0;" width="511" x="350" y="46.6211"/><text fill="#000000" font-family="sans-serif" font-size="14" font-weight="bold" lengthAdjust="spacing" textLength="74" x="568.5" y="63.7285">Use Cases</text></g><!--entity HRM--><g id="elem_HRM"><ellipse cx="164.5" cy="601.6211" fill="#F1F1F1" rx="8" ry="8" style="stroke:#181818;stroke-width:0.5;"/><path d="M164.5,609.6211 L164.5,636.6211 M151.5,617.6211 L177.5,617.6211 M164.5,636.6211 L151.5,651.6211 M164.5,636.6211 L177.5,651.6211 " fill="none" style="stroke:#181818;stroke-width:0.5;"/><text fill="#000000" font-family="sans-serif" font-size="14" lengthAdjust="spacing" textLength="176" x="76.5" y="668.2285">Human Resources Manager</text></g><!--entity FM--><g id="elem_FM"><ellipse cx="164.5" cy="715.6211" fill="#F1F1F1" rx="8" ry="8" style="stroke:#181818;stroke-width:0.5;"/><path d="M164.5,723.6211 L164.5,750.6211 M151.5,731.6211 L177.5,731.6211 M164.5,750.6211 L151.5,765.6211 M164.5,750.6211 L177.5,765.6211 " fill="none" style="stroke:#181818;stroke-width:0.5;"/><text fill="#000000" font-family="sans-serif" font-size="14" lengthAdjust="spacing" textLength="177" x="76" y="782.2285">Vehicles and Fleet Manager</text></g><!--entity GSM--><g id="elem_GSM"><ellipse cx="164.5" cy="829.6211" fill="#F1F1F1" rx="8" ry="8" style="stroke:#181818;stroke-width:0.5;"/><path d="M164.5,837.6211 L164.5,864.6211 M151.5,845.6211 L177.5,845.6211 M164.5,864.6211 L151.5,879.6211 M164.5,864.6211 L177.5,879.6211 " fill="none" style="stroke:#181818;stroke-width:0.5;"/><text fill="#000000" font-family="sans-serif" font-size="14" lengthAdjust="spacing" textLength="151" x="89" y="896.2285">Green Spaces Manager</text></g><!--entity QAM--><g id="elem_QAM"><ellipse cx="164.5" cy="943.6211" fill="#F1F1F1" rx="8" ry="8" style="stroke:#181818;stroke-width:0.5;"/><path d="M164.5,951.6211 L164.5,978.6211 M151.5,959.6211 L177.5,959.6211 M164.5,978.6211 L151.5,993.6211 M164.5,978.6211 L177.5,993.6211 " fill="none" style="stroke:#181818;stroke-width:0.5;"/><text fill="#000000" font-family="sans-serif" font-size="14" lengthAdjust="spacing" textLength="283" x="23" y="1010.2285">Software Quality Assessment Team Manager</text></g><g id="elem_UC1"><ellipse cx="605.44" cy="114.7091" fill="#F1F1F1" rx="143.44" ry="31.088" style="stroke:#181818;stroke-width:0.5;"/><text fill="#000000" font-family="sans-serif" font-size="14" lengthAdjust="spacing" textLength="253" x="478.94" y="118.506">UC1 - Registering skills for collaborators</text></g><g id="elem_UC2"><ellipse cx="605.5926" cy="205.6396" fill="#F1F1F1" rx="110.5926" ry="24.5185" style="stroke:#181818;stroke-width:0.5;"/><text fill="#000000" font-family="sans-serif" font-size="14" lengthAdjust="spacing" textLength="182" x="514.5926" y="209.4365">UC2 - Profession registration</text></g><g id="elem_UC3"><ellipse cx="605.6245" cy="315.446" fill="#F1F1F1" rx="239.6245" ry="50.3249" style="stroke:#181818;stroke-width:0.5;"/><text fill="#000000" font-family="sans-serif" font-size="14" lengthAdjust="spacing" textLength="452" x="379.6245" y="319.2429">UC3 - Register a collaborator with a job and fundamental characteristics</text></g><g id="elem_UC4"><ellipse cx="605.2633" cy="431.6738" fill="#F1F1F1" rx="138.2633" ry="30.0527" style="stroke:#181818;stroke-width:0.5;"/><text fill="#000000" font-family="sans-serif" font-size="14" lengthAdjust="spacing" textLength="242" x="484.2633" y="435.4706">UC4 - Assigning skills to a collaborator</text></g><g id="elem_UC5"><ellipse cx="605.469" cy="531.4149" fill="#F1F1F1" rx="161.969" ry="34.7938" style="stroke:#181818;stroke-width:0.5;"/><text fill="#000000" font-family="sans-serif" font-size="14" lengthAdjust="spacing" textLength="292" x="459.469" y="535.2118">UC5 - Generate a team proposal automatically</text></g><g id="elem_UC6"><ellipse cx="605.2713" cy="625.4754" fill="#F1F1F1" rx="104.7713" ry="23.3543" style="stroke:#181818;stroke-width:0.5;"/><text fill="#000000" font-family="sans-serif" font-size="14" lengthAdjust="spacing" textLength="169" x="520.7713" y="629.2722">UC6 - Registering Vehicles</text></g><g id="elem_UC7"><ellipse cx="605.4684" cy="715.6148" fill="#F1F1F1" rx="142.9684" ry="30.9937" style="stroke:#181818;stroke-width:0.5;"/><text fill="#000000" font-family="sans-serif" font-size="14" lengthAdjust="spacing" textLength="252" x="479.4684" y="719.4117">UC7 - Register the overhaul of a vehicle</text></g><g id="elem_UC8"><ellipse cx="605.6212" cy="807.5453" fill="#F1F1F1" rx="115.1212" ry="25.4242" style="stroke:#181818;stroke-width:0.5;"/><text fill="#000000" font-family="sans-serif" font-size="14" lengthAdjust="spacing" textLength="188" x="509.6212" y="811.3422">UC8 - Overhauling of vehicles</text></g><g id="elem_UC9"><ellipse cx="605.6188" cy="891.4448" fill="#F1F1F1" rx="102.1188" ry="22.8238" style="stroke:#181818;stroke-width:0.5;"/><text fill="#000000" font-family="sans-serif" font-size="14" lengthAdjust="spacing" textLength="163" x="523.6214" y="895.4287">UC9 - PUT A TITLE HERE</text></g><g id="elem_UC10"><ellipse cx="605.6616" cy="973.6534" fill="#F1F1F1" rx="105.6616" ry="23.5323" style="stroke:#181818;stroke-width:0.5;"/><text fill="#000000" font-family="sans-serif" font-size="14" lengthAdjust="spacing" textLength="171" x="520.1616" y="977.4503">UC10 - PUT A TITLE HERE</text></g><g id="elem_UC11"><ellipse cx="605.6616" cy="1055.6534" fill="#F1F1F1" rx="105.6616" ry="23.5323" style="stroke:#181818;stroke-width:0.5;"/><text fill="#000000" font-family="sans-serif" font-size="14" lengthAdjust="spacing" textLength="171" x="520.1616" y="1059.4503">UC11 - PUT A TITLE HERE</text></g><g id="elem_UC12"><ellipse cx="605.6616" cy="1137.6534" fill="#F1F1F1" rx="105.6616" ry="23.5323" style="stroke:#181818;stroke-width:0.5;"/><text fill="#000000" font-family="sans-serif" font-size="14" lengthAdjust="spacing" textLength="171" x="520.1616" y="1141.4503">UC12 - PUT A TITLE HERE</text></g><g id="elem_UC13"><ellipse cx="605.6616" cy="1219.6534" fill="#F1F1F1" rx="105.6616" ry="23.5323" style="stroke:#181818;stroke-width:0.5;"/><text fill="#000000" font-family="sans-serif" font-size="14" lengthAdjust="spacing" textLength="171" x="520.1616" y="1223.4503">UC13 - PUT A TITLE HERE</text></g><g id="elem_UC14"><ellipse cx="605.6616" cy="1301.6534" fill="#F1F1F1" rx="105.6616" ry="23.5323" style="stroke:#181818;stroke-width:0.5;"/><text fill="#000000" font-family="sans-serif" font-size="14" lengthAdjust="spacing" textLength="171" x="520.1616" y="1305.4503">UC14 - PUT A TITLE HERE</text></g><!--link HRM to UC1--><g id="link_HRM_UC1"><path d="M167.86,592.8811 C175.53,501.5811 207.83,276.1011 342,163.6211 C375.31,135.7011 413.4905,122.5683 456.0305,115.9883 " fill="none" id="HRM-to-UC1" style="stroke:#181818;stroke-width:1.0;"/><polygon fill="#181818" points="461.96,115.0711,452.4543,112.4938,457.0188,115.8354,453.6772,120.3998,461.96,115.0711" style="stroke:#181818;stroke-width:1.0;"/></g><!--link HRM to UC2--><g id="link_HRM_UC2"><path d="M171.24,592.8511 C184.97,513.2611 227.55,334.5911 342,247.6211 C385.91,214.2511 440.0378,203.1864 491.6578,200.5564 " fill="none" id="HRM-to-UC2" style="stroke:#181818;stroke-width:1.0;"/><polygon fill="#181818" points="497.65,200.2511,488.4581,196.7142,492.6565,200.5055,488.8652,204.7039,497.65,200.2511" style="stroke:#181818;stroke-width:1.0;"/></g><!--link HRM to UC3--><g id="link_HRM_UC3"><path d="M182.83,592.7411 C209.05,537.1911 264.14,437.3211 342,383.6211 C364.57,368.0511 384.7943,358.0158 411.3343,348.7658 " fill="none" id="HRM-to-UC3" style="stroke:#181818;stroke-width:1.0;"/><polygon fill="#181818" points="417,346.7911,407.1849,345.976,412.2785,348.4367,409.8178,353.5303,417,346.7911" style="stroke:#181818;stroke-width:1.0;"/></g><!--link HRM to UC4--><g id="link_HRM_UC4"><path d="M199.07,593.0411 C231.77,557.2411 284.8,506.0611 342,478.6211 C382.59,459.1511 424.3004,448.5977 467.7704,441.8777 " fill="none" id="HRM-to-UC4" style="stroke:#181818;stroke-width:1.0;"/><polygon fill="#181818" points="473.7,440.9611,464.1946,438.383,468.7587,441.725,465.4167,446.2891,473.7,440.9611" style="stroke:#181818;stroke-width:1.0;"/></g><!--link HRM to UC5--><g id="link_HRM_UC5"><path d="M252.74,607.6611 C281.1,599.8811 312.8,591.5311 342,584.6211 C387.7,573.8111 432.3042,564.4463 476.7042,555.6563 " fill="none" id="HRM-to-UC5" style="stroke:#181818;stroke-width:1.0;"/><polygon fill="#181818" points="482.59,554.4911,472.9845,552.3151,477.6852,555.4621,474.5382,560.1628,482.59,554.4911" style="stroke:#181818;stroke-width:1.0;"/></g><!--link FM to UC6--><g id="link_FM_UC6"><path d="M253.05,729.6011 C280,721.0611 308.26,708.3711 330,689.6211 C338.73,682.0911 332.63,673.3411 342,666.6211 C388.09,633.5411 444.4955,623.0485 496.8955,620.7985 " fill="none" id="FM-to-UC6" style="stroke:#181818;stroke-width:1.0;"/><polygon fill="#181818" points="502.89,620.5411,493.7267,616.9309,497.8946,620.7556,494.0699,624.9235,502.89,620.5411" style="stroke:#181818;stroke-width:1.0;"/></g><!--link FM to UC7--><g id="link_FM_UC7"><path d="M253.02,740.4411 C314.8,736.0811 392.7949,730.5738 463.1649,725.6038 " fill="none" id="FM-to-UC7" style="stroke:#181818;stroke-width:1.0;"/><polygon fill="#181818" points="469.15,725.1811,459.8906,721.8251,464.1624,725.5333,460.4542,729.8052,469.15,725.1811" style="stroke:#181818;stroke-width:1.0;"/></g><!--link FM to UC8--><g id="link_FM_UC8"><path d="M253.02,758.7811 C326.56,769.0011 425.5971,782.7652 501.6571,793.3352 " fill="none" id="FM-to-UC8" style="stroke:#181818;stroke-width:1.0;"/><polygon fill="#181818" points="507.6,794.1611,499.2363,788.9604,502.6476,793.4729,498.1351,796.8842,507.6,794.1611" style="stroke:#181818;stroke-width:1.0;"/></g><!--link GSM to UC9--><g id="link_GSM_UC9"><path d="M240.47,865.9111 C314.3,871.1311 421.4249,878.6882 501.9549,884.3782 " fill="none" id="GSM-to-UC9" style="stroke:#181818;stroke-width:1.0;"/><polygon fill="#181818" points="507.94,884.8011,499.2443,880.1767,502.9524,884.4487,498.6805,888.1568,507.94,884.8011" style="stroke:#181818;stroke-width:1.0;"/></g><!--link GSM to UC10--><g id="link_GSM_UC10"><path d="M240.23,877.4511 C269.84,886.3511 303.14,899.3311 330,917.6211 C336.77,922.2311 334.85,927.6211 342,931.6211 C389.72,958.3411 443.5296,968.8363 493.9796,972.9263 " fill="none" id="GSM-to-UC10" style="stroke:#181818;stroke-width:1.0;"/><polygon fill="#181818" points="499.96,973.4111,491.3127,968.6969,494.9764,973.0071,490.6662,976.6708,499.96,973.4111" style="stroke:#181818;stroke-width:1.0;"/></g><!--link GSM to UC11--><g id="link_GSM_UC11"><path d="M240.34,868.8511 C272.72,876.3511 308.14,890.6011 330,917.6211 C357.32,951.3911 311.78,983.4211 342,1014.6211 C385.16,1059.1811 449.4319,1068.3937 506.4119,1066.9437 " fill="none" id="GSM-to-UC11" style="stroke:#181818;stroke-width:1.0;"/><polygon fill="#181818" points="512.41,1066.7911,503.3112,1063.0213,507.4116,1066.9183,503.5147,1071.0188,512.41,1066.7911" style="stroke:#181818;stroke-width:1.0;"/></g><!--link GSM to UC12--><g id="link_GSM_UC12"><path d="M240.19,868.1111 C272.95,875.4411 308.72,889.7511 330,917.6211 C354.19,949.3111 315.08,1067.2211 342,1096.6211 C384.6,1143.1411 450.5942,1151.885 508.4242,1149.725 " fill="none" id="GSM-to-UC12" style="stroke:#181818;stroke-width:1.0;"/><polygon fill="#181818" points="514.42,1149.5011,505.277,1145.8398,509.4235,1149.6877,505.5756,1153.8342,514.42,1149.5011" style="stroke:#181818;stroke-width:1.0;"/></g><!--link GSM to UC13--><g id="link_GSM_UC13"><path d="M240.03,867.8211 C272.97,875.0711 308.93,889.4111 330,917.6211 C347.37,940.8811 322.62,1157.0011 342,1178.6211 C384.34,1225.8411 450.9252,1234.4207 509.0552,1232.0007 " fill="none" id="GSM-to-UC13" style="stroke:#181818;stroke-width:1.0;"/><polygon fill="#181818" points="515.05,1231.7511,505.8914,1228.1289,510.0543,1231.9591,506.2242,1236.122,515.05,1231.7511" style="stroke:#181818;stroke-width:1.0;"/></g><!--link QAM to UC14--><g id="link_QAM_UC14"><path d="M177.86,1014.3711 C199.81,1077.8011 251.97,1200.8111 342,1260.6211 C388.39,1291.4411 443.4293,1301.9763 494.9693,1304.8563 " fill="none" id="QAM-to-UC14" style="stroke:#181818;stroke-width:1.0;"/><polygon fill="#181818" points="500.96,1305.1911,492.1972,1300.6952,495.9678,1304.9121,491.7509,1308.6827,500.96,1305.1911" style="stroke:#181818;stroke-width:1.0;"/></g><!--SRC=[VLHDZzem4BtxLuoux0bf0rbOBYjHoaUbedQ1xTqR9ecBOoFR0Q5g_tidNqjYMdo8z2RlZMVUJF9W3q8TkU4PP5hfA3KwGt0cHtPzS-JHWIUuTHU9O31oN2KIsSELOLE-rsUX4eYvjCXQua_-7mPqlcYpHpFJKXiu2dLW7umvuIZncqMOSNfy5JmX9MCIOmTEWn59wc0lYbH2AyO-Sq9lUx4ECvX6JXiB_puzu1PunQYgA07qLdd65MpGwjn4Q67D5VLfIlvgisvJVs4g8aaShlQma8Ykmrvqo4k3g61Bldb9bziERwjZT-O6uJNdKhWBJAr5QpDK3dP8vhMrhzCre_DHF5e6DBRPafHRZ0fGjLaZ8iq2w5EZYI2tJ34d6f2K5c8g8z9IydTjU65GcONeldv0-fz6nrGUZO2cMgGY2O5QCl0bmzQLm3lNm5cub6A_zNjfQ9ohFI_QvXAYbFOcAigqJaHDGKC_UqZPoIwHg5Oxj2pTYsfrwAkVIBr4XKH2ahZ2xAFHHssf0fuxdL5h4PVoKcTuyZECF4ER1Qdv8vy_RhlXKWHzGfFoN8AEgO9J9Q_LOr_zJEeVjQ2uZJIdPYDhpRElcHGZUzl157RVTj_di9flvZLtShCUZ_yd1uytxE0E-sPrWi4TzitM1CCxx9ij2C8xx92LTFgIeTz_-TpgAnvuUEZXqCFL4YmQEEh2SHTMyw0lliOJ3zUsjWA17nZuWQf0-XCqWR3u7_m5]--></g></svg>