<?xml version="1.0" encoding="us-ascii" standalone="no"?><svg xmlns="http://www.w3.org/2000/svg" xmlns:xlink="http://www.w3.org/1999/xlink" contentStyleType="text/css" height="2948px" preserveAspectRatio="none" style="width:940px;height:2948px;background:#FFFFFF;" version="1.1" viewBox="0 0 940 2948" width="940px" zoomAndPan="magnify"><defs/><g><text fill="#000000" font-family="sans-serif" font-size="14" font-weight="bold" lengthAdjust="spacing" textLength="143" x="391.5" y="22.9951">Use Case Diagram</text><!--cluster usecases--><g id="cluster_usecases"><rect fill="none" height="2808" rx="2.5" ry="2.5" style="stroke:#FFC0CB;stroke-width:1.0;" width="567" x="367" y="134.7969"/><text fill="#000000" font-family="sans-serif" font-size="14" font-weight="bold" lengthAdjust="spacing" textLength="79" x="611" y="149.792">Use Cases</text></g><g id="elem_UC1"><ellipse cx="650.5234" cy="488.9016" fill="#F1F1F1" rx="156.0234" ry="33.6047" style="stroke:#181818;stroke-width:0.5;"/><text fill="#000000" font-family="sans-serif" font-size="14" lengthAdjust="spacing" textLength="283" x="509.0234" y="491.7482">UC1 - Registering skills for collaborators</text></g><g id="elem_UC2"><ellipse cx="650.5271" cy="583.6023" fill="#F1F1F1" rx="117.0271" ry="25.8054" style="stroke:#181818;stroke-width:0.5;"/><text fill="#000000" font-family="sans-serif" font-size="14" lengthAdjust="spacing" textLength="201" x="550.0271" y="586.449">UC2 - Profession registration</text></g><g id="elem_UC3"><ellipse cx="650.6548" cy="700.7278" fill="#F1F1F1" rx="267.6548" ry="55.931" style="stroke:#181818;stroke-width:0.5;"/><text fill="#000000" font-family="sans-serif" font-size="14" lengthAdjust="spacing" textLength="511" x="395.1548" y="703.5745">UC3 - Register a collaborator with a job and fundamental characteristics</text></g><g id="elem_UC4"><ellipse cx="650.2683" cy="824.6505" fill="#F1F1F1" rx="149.7683" ry="32.3537" style="stroke:#181818;stroke-width:0.5;"/><text fill="#000000" font-family="sans-serif" font-size="14" lengthAdjust="spacing" textLength="270" x="515.2683" y="827.4972">UC4 - Assigning skills to a collaborator</text></g><g id="elem_UC5"><ellipse cx="650.2866" cy="381.9542" fill="#F1F1F1" rx="178.7866" ry="38.1573" style="stroke:#181818;stroke-width:0.5;"/><text fill="#000000" font-family="sans-serif" font-size="14" lengthAdjust="spacing" textLength="330" x="485.2866" y="384.8009">UC5 - Generate a team proposal automatically</text></g><g id="elem_UC6"><ellipse cx="650.5183" cy="1102.8005" fill="#F1F1F1" rx="110.5183" ry="24.5037" style="stroke:#181818;stroke-width:0.5;"/><text fill="#000000" font-family="sans-serif" font-size="14" lengthAdjust="spacing" textLength="187" x="557.0183" y="1105.6472">UC6 - Registering Vehicles</text></g><g id="elem_UC7"><ellipse cx="650.5234" cy="925.9016" fill="#F1F1F1" rx="156.0234" ry="33.6047" style="stroke:#181818;stroke-width:0.5;"/><text fill="#000000" font-family="sans-serif" font-size="14" lengthAdjust="spacing" textLength="283" x="509.0234" y="928.7482">UC7 - Register the check-up of a vehicle</text></g><g id="elem_UC8"><ellipse cx="650.4443" cy="1018.9857" fill="#F1F1F1" rx="111.4443" ry="24.6889" style="stroke:#181818;stroke-width:0.5;"/><text fill="#000000" font-family="sans-serif" font-size="14" lengthAdjust="spacing" textLength="189" x="555.9443" y="1021.8324">UC8 - Check-up of vehicles</text></g><g id="elem_UC9"><ellipse cx="650.2652" cy="2535.8499" fill="#F1F1F1" rx="163.2652" ry="35.053" style="stroke:#181818;stroke-width:0.5;"/><text fill="#000000" font-family="sans-serif" font-size="14" lengthAdjust="spacing" textLength="298" x="501.2652" y="2538.6966">UC9 - Water consumption of green spaces</text></g><g id="elem_UC10"><ellipse cx="650.5326" cy="2633.6034" fill="#F1F1F1" rx="124.5326" ry="27.3065" style="stroke:#181818;stroke-width:0.5;"/><text fill="#000000" font-family="sans-serif" font-size="14" lengthAdjust="spacing" textLength="217" x="542.0326" y="2636.4501">UC10 - Equipment Preferences</text></g><g id="elem_UC11"><ellipse cx="650.4621" cy="2747.5893" fill="#F1F1F1" rx="244.4621" ry="51.2924" style="stroke:#181818;stroke-width:0.5;"/><text fill="#000000" font-family="sans-serif" font-size="14" lengthAdjust="spacing" textLength="464" x="418.4621" y="2750.436">UC11 - Collect data from the user portal about the use of the park</text></g><g id="elem_UC12"><ellipse cx="650.3615" cy="2880.6692" fill="#F1F1F1" rx="219.8615" ry="46.3723" style="stroke:#181818;stroke-width:0.5;"/><text fill="#000000" font-family="sans-serif" font-size="14" lengthAdjust="spacing" textLength="414" x="443.3615" y="2883.5159">UC12 - Importing Water Point Routes and Installation Costs</text></g><g id="elem_UC13"><ellipse cx="650.6957" cy="1419.636" fill="#F1F1F1" rx="114.6957" ry="25.3391" style="stroke:#181818;stroke-width:0.5;"/><text fill="#000000" font-family="sans-serif" font-size="14" lengthAdjust="spacing" textLength="196" x="552.6957" y="1422.4827">UC13 - Optimizing irrigation</text></g><g id="elem_UC14"><ellipse cx="650.7003" cy="205.7369" fill="#F1F1F1" rx="165.2003" ry="35.4401" style="stroke:#181818;stroke-width:0.5;"/><text fill="#000000" font-family="sans-serif" font-size="14" lengthAdjust="spacing" textLength="302" x="499.7003" y="208.5836">UC14 - Running Asymptotic Behavior Tests</text></g><g id="elem_UC17"><ellipse cx="650.464" cy="1643.9897" fill="#F1F1F1" rx="68.964" ry="16.1928" style="stroke:#181818;stroke-width:0.5;"/><text fill="#000000" font-family="sans-serif" font-size="14" lengthAdjust="spacing" textLength="90" x="602.464" y="1647.7372">UC17 - TITLE</text></g><g id="elem_UC18"><ellipse cx="650.464" cy="1710.9897" fill="#F1F1F1" rx="68.964" ry="16.1928" style="stroke:#181818;stroke-width:0.5;"/><text fill="#000000" font-family="sans-serif" font-size="14" lengthAdjust="spacing" textLength="90" x="602.464" y="1714.7372">UC18 - TITLE</text></g><g id="elem_UC19"><ellipse cx="650.464" cy="292.9897" fill="#F1F1F1" rx="68.964" ry="16.1928" style="stroke:#181818;stroke-width:0.5;"/><text fill="#000000" font-family="sans-serif" font-size="14" lengthAdjust="spacing" textLength="90" x="602.464" y="296.7372">UC19 - TITLE</text></g><g id="elem_UC20"><ellipse cx="650.4752" cy="1789.7919" fill="#F1F1F1" rx="125.4752" ry="27.495" style="stroke:#181818;stroke-width:0.5;"/><text fill="#000000" font-family="sans-serif" font-size="14" lengthAdjust="spacing" textLength="219" x="540.9752" y="1792.6386">UC20 - Register a Green Space</text></g><g id="elem_UC21"><ellipse cx="650.5807" cy="1902.013" fill="#F1F1F1" rx="236.5807" ry="49.7161" style="stroke:#181818;stroke-width:0.5;"/><text fill="#000000" font-family="sans-serif" font-size="14" lengthAdjust="spacing" textLength="448" x="426.5807" y="1904.8597">UC21 - Adding a To-Do List Entry for Green Space Management</text></g><g id="elem_UC22"><ellipse cx="650.288" cy="2018.5545" fill="#F1F1F1" rx="149.288" ry="32.2576" style="stroke:#181818;stroke-width:0.5;"/><text fill="#000000" font-family="sans-serif" font-size="14" lengthAdjust="spacing" textLength="269" x="515.788" y="2021.4012">UC22 - Add a new entry in the Agenda</text></g><g id="elem_UC23"><ellipse cx="650.6671" cy="2125.8303" fill="#F1F1F1" rx="183.1671" ry="39.0334" style="stroke:#181818;stroke-width:0.5;"/><text fill="#000000" font-family="sans-serif" font-size="14" lengthAdjust="spacing" textLength="339" x="481.1671" y="2128.677">UC23 - Assign a Team to an entry in the Agenda</text></g><g id="elem_UC24"><ellipse cx="650.3083" cy="2227.8585" fill="#F1F1F1" rx="128.3083" ry="28.0617" style="stroke:#181818;stroke-width:0.5;"/><text fill="#000000" font-family="sans-serif" font-size="14" lengthAdjust="spacing" textLength="225" x="537.8083" y="2230.7052">UC24 - Postpone task in Agenda</text></g><g id="elem_UC25"><ellipse cx="650.5038" cy="2318.6976" fill="#F1F1F1" rx="125.0038" ry="27.4008" style="stroke:#181818;stroke-width:0.5;"/><text fill="#000000" font-family="sans-serif" font-size="14" lengthAdjust="spacing" textLength="218" x="541.5038" y="2321.5443">UC25 - Overhauling of vehicles</text></g><g id="elem_UC26"><ellipse cx="650.286" cy="2423.9541" fill="#F1F1F1" rx="198.786" ry="42.1572" style="stroke:#181818;stroke-width:0.5;"/><text fill="#000000" font-family="sans-serif" font-size="14" lengthAdjust="spacing" textLength="371" x="464.786" y="2426.8008">UC26 - Assign One or More Vehicles to Agenda Entry</text></g><g id="elem_UC27"><ellipse cx="650.6608" cy="1536.629" fill="#F1F1F1" rx="267.1608" ry="55.8322" style="stroke:#181818;stroke-width:0.5;"/><text fill="#000000" font-family="sans-serif" font-size="14" lengthAdjust="spacing" textLength="510" x="395.6608" y="1539.4757">UC27 - Show an organized list of all green spaces managed by manager</text></g><g id="elem_UC28"><ellipse cx="650.2745" cy="1209.6518" fill="#F1F1F1" rx="224.7745" ry="47.3549" style="stroke:#181818;stroke-width:0.5;"/><text fill="#000000" font-family="sans-serif" font-size="14" lengthAdjust="spacing" textLength="424" x="438.2745" y="1212.4985">UC28 - Consult the tasks assigned to me between two dates.</text></g><g id="elem_UC29"><ellipse cx="650.5598" cy="1325.7088" fill="#F1F1F1" rx="155.0598" ry="33.412" style="stroke:#181818;stroke-width:0.5;"/><text fill="#000000" font-family="sans-serif" font-size="14" lengthAdjust="spacing" textLength="281" x="510.0598" y="1328.5555">UC29 - Record the completion of a task.</text></g><!--entity HRM--><g id="elem_HRM"><ellipse cx="164.5" cy="554.2969" fill="#F1F1F1" rx="8" ry="8" style="stroke:#181818;stroke-width:0.5;"/><path d="M164.5,562.2969 L164.5,589.2969 M151.5,570.2969 L177.5,570.2969 M164.5,589.2969 L151.5,604.2969 M164.5,589.2969 L177.5,604.2969 " fill="none" style="stroke:#181818;stroke-width:0.5;"/><text fill="#000000" font-family="sans-serif" font-size="14" lengthAdjust="spacing" textLength="197" x="66" y="618.792">Human Resources Manager</text></g><!--entity FM--><g id="elem_FM"><ellipse cx="164.5" cy="989.2969" fill="#F1F1F1" rx="8" ry="8" style="stroke:#181818;stroke-width:0.5;"/><path d="M164.5,997.2969 L164.5,1024.2969 M151.5,1005.2969 L177.5,1005.2969 M164.5,1024.2969 L151.5,1039.2969 M164.5,1024.2969 L177.5,1039.2969 " fill="none" style="stroke:#181818;stroke-width:0.5;"/><text fill="#000000" font-family="sans-serif" font-size="14" lengthAdjust="spacing" textLength="197" x="66" y="1053.792">Vehicles and Fleet Manager</text></g><!--entity GSM--><g id="elem_GSM"><ellipse cx="164.5" cy="2096.2969" fill="#F1F1F1" rx="8" ry="8" style="stroke:#181818;stroke-width:0.5;"/><path d="M164.5,2104.2969 L164.5,2131.2969 M151.5,2112.2969 L177.5,2112.2969 M164.5,2131.2969 L151.5,2146.2969 M164.5,2131.2969 L177.5,2146.2969 " fill="none" style="stroke:#181818;stroke-width:0.5;"/><text fill="#000000" font-family="sans-serif" font-size="14" lengthAdjust="spacing" textLength="166" x="81.5" y="2160.792">Green Spaces Manager</text></g><!--entity QAM--><g id="elem_QAM"><ellipse cx="164.5" cy="220.2969" fill="#F1F1F1" rx="8" ry="8" style="stroke:#181818;stroke-width:0.5;"/><path d="M164.5,228.2969 L164.5,255.2969 M151.5,236.2969 L177.5,236.2969 M164.5,255.2969 L151.5,270.2969 M164.5,255.2969 L177.5,270.2969 " fill="none" style="stroke:#181818;stroke-width:0.5;"/><text fill="#000000" font-family="sans-serif" font-size="14" lengthAdjust="spacing" textLength="317" x="6" y="284.792">Software Quality Assessment Team Manager</text></g><!--entity COL--><g id="elem_COL"><ellipse cx="650.5" cy="51.2969" fill="#F1F1F1" rx="8" ry="8" style="stroke:#181818;stroke-width:0.5;"/><path d="M650.5,59.2969 L650.5,86.2969 M637.5,67.2969 L663.5,67.2969 M650.5,86.2969 L637.5,101.2969 M650.5,86.2969 L663.5,101.2969 " fill="none" style="stroke:#181818;stroke-width:0.5;"/><text fill="#000000" font-family="sans-serif" font-size="14" lengthAdjust="spacing" textLength="89" x="606" y="115.792">Collaborator</text></g><!--link HRM to UC1--><g id="link_HRM_UC1"><path d="M263.24,560.5769 C293.83,553.5769 327.76,546.0869 359,539.7969 C413.59,528.8069 468.3061,518.9594 519.9961,510.1094 " fill="none" id="HRM-to-UC1" style="stroke:#181818;stroke-width:1.0;"/><polygon fill="#181818" points="525.91,509.0969,516.3641,506.6731,520.9817,509.9407,517.7141,514.5583,525.91,509.0969" style="stroke:#181818;stroke-width:1.0;"/></g><!--link HRM to UC2--><g id="link_HRM_UC2"><path d="M263.15,583.7969 C341.16,583.7969 444.7,583.7969 527.23,583.7969 " fill="none" id="HRM-to-UC2" style="stroke:#181818;stroke-width:1.0;"/><polygon fill="#181818" points="533.23,583.7969,524.23,579.7969,528.23,583.7969,524.23,587.7969,533.23,583.7969" style="stroke:#181818;stroke-width:1.0;"/></g><!--link HRM to UC3--><g id="link_HRM_UC3"><path d="M263.15,607.4069 C323.77,622.0569 397.578,639.897 468.808,657.117 " fill="none" id="HRM-to-UC3" style="stroke:#181818;stroke-width:1.0;"/><polygon fill="#181818" points="474.64,658.5269,466.8319,652.524,469.78,657.352,464.9521,660.3,474.64,658.5269" style="stroke:#181818;stroke-width:1.0;"/></g><!--link HRM to UC4--><g id="link_HRM_UC4"><path d="M192.84,622.1069 C226.58,666.2569 288.24,737.4069 359,773.7969 C403.63,796.7469 450.7239,808.7235 499.1839,815.8535 " fill="none" id="HRM-to-UC4" style="stroke:#181818;stroke-width:1.0;"/><polygon fill="#181818" points="505.12,816.7269,496.7981,811.4594,500.1733,815.9991,495.6336,819.3742,505.12,816.7269" style="stroke:#181818;stroke-width:1.0;"/></g><!--link HRM to UC5--><g id="link_HRM_UC5"><path d="M204.62,545.5969 C241.41,511.9269 299.59,464.2169 359,437.7969 C399.95,419.5869 440.8348,408.4033 484.7148,400.0933 " fill="none" id="HRM-to-UC5" style="stroke:#181818;stroke-width:1.0;"/><polygon fill="#181818" points="490.61,398.9769,481.0229,396.7214,485.6973,399.9072,482.5115,404.5817,490.61,398.9769" style="stroke:#181818;stroke-width:1.0;"/></g><!--link FM to UC6--><g id="link_FM_UC6"><path d="M263.18,1041.3969 C293.77,1048.0969 327.71,1055.1469 359,1060.7969 C423.82,1072.4969 491.2833,1082.2992 548.0933,1089.9192 " fill="none" id="FM-to-UC6" style="stroke:#181818;stroke-width:1.0;"/><polygon fill="#181818" points="554.04,1090.7169,545.6516,1085.5559,549.0844,1090.0522,544.5881,1093.4849,554.04,1090.7169" style="stroke:#181818;stroke-width:1.0;"/></g><!--link FM to UC7--><g id="link_FM_UC7"><path d="M263.28,996.7769 C293.88,990.0969 327.8,982.9169 359,976.7969 C413.89,966.0269 468.9269,956.1743 520.7669,947.2543 " fill="none" id="FM-to-UC7" style="stroke:#181818;stroke-width:1.0;"/><polygon fill="#181818" points="526.68,946.2369,517.132,943.821,521.7524,947.0848,518.4886,951.7051,526.68,946.2369" style="stroke:#181818;stroke-width:1.0;"/></g><!--link FM to UC8--><g id="link_FM_UC8"><path d="M263.15,1018.7969 C342.96,1018.7969 449.76,1018.7969 532.89,1018.7969 " fill="none" id="FM-to-UC8" style="stroke:#181818;stroke-width:1.0;"/><polygon fill="#181818" points="538.89,1018.7969,529.89,1014.7969,533.89,1018.7969,529.89,1022.7969,538.89,1018.7969" style="stroke:#181818;stroke-width:1.0;"/></g><!--link GSM to UC9--><g id="link_GSM_UC9"><path d="M174.49,2164.0569 C194.1,2238.4769 248.13,2402.4169 359,2482.7969 C396.15,2509.7269 436.9131,2523.3117 481.9231,2530.8817 " fill="none" id="GSM-to-UC9" style="stroke:#181818;stroke-width:1.0;"/><polygon fill="#181818" points="487.84,2531.8769,479.6281,2526.4396,482.9092,2531.0476,478.3012,2534.3288,487.84,2531.8769" style="stroke:#181818;stroke-width:1.0;"/></g><!--link GSM to UC10--><g id="link_GSM_UC10"><path d="M169.21,2163.9769 C180.14,2253.8269 220.67,2479.1869 359,2587.7969 C406.69,2625.2469 466.657,2637.5578 523.667,2640.3078 " fill="none" id="GSM-to-UC10" style="stroke:#181818;stroke-width:1.0;"/><polygon fill="#181818" points="529.66,2640.5969,520.8632,2636.1679,524.6658,2640.356,520.4777,2644.1586,529.66,2640.5969" style="stroke:#181818;stroke-width:1.0;"/></g><!--link GSM to UC11--><g id="link_GSM_UC11"><path d="M166.91,2164.0569 C172.77,2264.5869 203,2538.1469 359,2678.7969 C380.85,2698.4969 401.669,2710.7483 429.579,2721.1683 " fill="none" id="GSM-to-UC11" style="stroke:#181818;stroke-width:1.0;"/><polygon fill="#181818" points="435.2,2723.2669,428.1675,2716.3717,430.5158,2721.5181,425.3694,2723.8664,435.2,2723.2669" style="stroke:#181818;stroke-width:1.0;"/></g><!--link GSM to UC12--><g id="link_GSM_UC12"><path d="M170.97,2163.9069 C190.53,2294.9869 261.11,2724.2569 359,2816.7969 C382.74,2839.2369 406.7774,2852.6312 438.1074,2862.8812 " fill="none" id="GSM-to-UC12" style="stroke:#181818;stroke-width:1.0;"/><polygon fill="#181818" points="443.81,2864.7469,436.4999,2858.1467,439.0579,2863.1922,434.0124,2865.7501,443.81,2864.7469" style="stroke:#181818;stroke-width:1.0;"/></g><!--link GSM to UC13--><g id="link_GSM_UC13"><path d="M171.18,2087.6369 C191.06,1959.4769 261.6,1547.6869 359,1462.7969 C409.64,1418.6669 479.1003,1408.5082 540.4203,1409.1082 " fill="none" id="GSM-to-UC13" style="stroke:#181818;stroke-width:1.0;"/><polygon fill="#181818" points="546.42,1409.1669,537.4596,1405.079,541.4202,1409.118,537.3813,1413.0786,546.42,1409.1669" style="stroke:#181818;stroke-width:1.0;"/></g><!--link QAM to UC14--><g id="link_QAM_UC14"><path d="M323.31,235.4469 C379.45,230.3469 436.5146,225.1597 492.1046,220.1097 " fill="none" id="QAM-to-UC14" style="stroke:#181818;stroke-width:1.0;"/><polygon fill="#181818" points="498.08,219.5669,488.755,216.3975,493.1005,220.0192,489.4788,224.3647,498.08,219.5669" style="stroke:#181818;stroke-width:1.0;"/></g><!--link GSM to UC17--><g id="link_GSM_UC17"><path d="M169.36,2087.6069 C180.54,1998.9169 221.49,1778.8569 359,1676.7969 C427.17,1626.1969 524.2972,1626.9597 587.5772,1634.0397 " fill="none" id="GSM-to-UC17" style="stroke:#181818;stroke-width:1.0;"/><polygon fill="#181818" points="593.54,1634.7069,585.0406,1629.731,588.571,1634.1509,584.151,1637.6814,593.54,1634.7069" style="stroke:#181818;stroke-width:1.0;"/></g><!--link GSM to UC18--><g id="link_GSM_UC18"><path d="M172.49,2087.7269 C189.15,2008.9369 239.1,1828.3669 359,1744.7969 C427.74,1696.8869 522.5757,1696.0619 585.5557,1701.9119 " fill="none" id="GSM-to-UC18" style="stroke:#181818;stroke-width:1.0;"/><polygon fill="#181818" points="591.53,1702.4669,582.9385,1697.6516,586.5514,1702.0044,582.1986,1705.6173,591.53,1702.4669" style="stroke:#181818;stroke-width:1.0;"/></g><!--link QAM to UC19--><g id="link_QAM_UC19"><path d="M323.31,263.8169 C412.55,271.7469 513.2635,280.6963 579.7235,286.5963 " fill="none" id="QAM-to-UC19" style="stroke:#181818;stroke-width:1.0;"/><polygon fill="#181818" points="585.7,287.1269,577.089,282.3467,580.7196,286.6847,576.3815,290.3154,585.7,287.1269" style="stroke:#181818;stroke-width:1.0;"/></g><!--link GSM to UC20--><g id="link_GSM_UC20"><path d="M179.06,2087.6069 C203.91,2023.6969 263.16,1896.0769 359,1834.7969 C407.91,1803.5269 464.7266,1791.6032 519.4166,1787.5232 " fill="none" id="GSM-to-UC20" style="stroke:#181818;stroke-width:1.0;"/><polygon fill="#181818" points="525.4,1787.0769,516.1274,1783.7575,520.4139,1787.4489,516.7225,1791.7354,525.4,1787.0769" style="stroke:#181818;stroke-width:1.0;"/></g><!--link GSM to UC21--><g id="link_GSM_UC21"><path d="M201.86,2087.5769 C238.26,2051.5569 297.58,1998.7869 359,1968.7969 C390.98,1953.1869 420.9288,1942.6584 456.1188,1933.3684 " fill="none" id="GSM-to-UC21" style="stroke:#181818;stroke-width:1.0;"/><polygon fill="#181818" points="461.92,1931.8369,452.1971,1930.2666,457.0856,1933.1131,454.2391,1938.0016,461.92,1931.8369" style="stroke:#181818;stroke-width:1.0;"/></g><!--link GSM to UC22--><g id="link_GSM_UC22"><path d="M247.8,2099.2569 C281.97,2088.8469 322.16,2077.3669 359,2068.7969 C413.33,2056.1669 468.1373,2046.1868 519.9673,2037.7868 " fill="none" id="GSM-to-UC22" style="stroke:#181818;stroke-width:1.0;"/><polygon fill="#181818" points="525.89,2036.8269,516.366,2034.3182,520.9544,2037.6268,517.6458,2042.2152,525.89,2036.8269" style="stroke:#181818;stroke-width:1.0;"/></g><!--link GSM to UC23--><g id="link_GSM_UC23"><path d="M247.6,2125.7969 C307.75,2125.7969 385.74,2125.7969 461.4,2125.7969 " fill="none" id="GSM-to-UC23" style="stroke:#181818;stroke-width:1.0;"/><polygon fill="#181818" points="467.4,2125.7969,458.4,2121.7969,462.4,2125.7969,458.4,2129.7969,467.4,2125.7969" style="stroke:#181818;stroke-width:1.0;"/></g><!--link GSM to UC24--><g id="link_GSM_UC24"><path d="M247.78,2152.0669 C281.94,2162.3269 322.14,2173.5769 359,2181.7969 C418.06,2194.9669 478.7511,2204.943 533.2811,2212.783 " fill="none" id="GSM-to-UC24" style="stroke:#181818;stroke-width:1.0;"/><polygon fill="#181818" points="539.22,2213.6369,530.8808,2208.3968,534.2709,2212.9253,529.7424,2216.3154,539.22,2213.6369" style="stroke:#181818;stroke-width:1.0;"/></g><!--link GSM to UC25--><g id="link_GSM_UC25"><path d="M203.65,2164.0669 C240.23,2198.3469 298.66,2247.0469 359,2272.7969 C411.95,2295.3969 468.6465,2306.3465 522.1965,2312.2765 " fill="none" id="GSM-to-UC25" style="stroke:#181818;stroke-width:1.0;"/><polygon fill="#181818" points="528.16,2312.9369,519.6549,2307.9706,523.1904,2312.3866,518.7744,2315.922,528.16,2312.9369" style="stroke:#181818;stroke-width:1.0;"/></g><!--link GSM to UC26--><g id="link_GSM_UC26"><path d="M185.38,2164.0069 C215.39,2217.6669 277.53,2314.3069 359,2363.7969 C392.12,2383.9169 425.0298,2396.0213 463.2398,2405.0213 " fill="none" id="GSM-to-UC26" style="stroke:#181818;stroke-width:1.0;"/><polygon fill="#181818" points="469.08,2406.3969,461.2368,2400.44,464.2132,2405.2505,459.4027,2408.2269,469.08,2406.3969" style="stroke:#181818;stroke-width:1.0;"/></g><!--link GSM to UC27--><g id="link_GSM_UC27"><path d="M168.1,2087.7269 C176.73,1992.1269 212.91,1740.3069 359,1609.7969 C379.07,1591.8669 397.3517,1580.4908 422.5917,1570.1008 " fill="none" id="GSM-to-UC27" style="stroke:#181818;stroke-width:1.0;"/><polygon fill="#181818" points="428.14,1567.8169,418.2949,1567.5439,423.5164,1569.7202,421.3402,1574.9417,428.14,1567.8169" style="stroke:#181818;stroke-width:1.0;"/></g><!--link COL to UC28--><g id="link_COL_UC28"><path d="M605.86,76.0769 C530.46,70.9669 382.07,74.0869 341,171.2969 C320.33,220.2169 320.33,1078.3769 341,1127.2969 C357.12,1165.4569 384.3988,1186.4379 423.0188,1199.7779 " fill="none" id="COL-to-UC28" style="stroke:#181818;stroke-width:1.0;"/><polygon fill="#181818" points="428.69,1201.7369,421.4891,1195.0177,423.964,1200.1044,418.8772,1202.5793,428.69,1201.7369" style="stroke:#181818;stroke-width:1.0;"/></g><!--link COL to UC29--><g id="link_COL_UC29"><path d="M605.86,76.0769 C530.46,70.9669 382.07,74.0869 341,171.2969 C317.52,226.8769 317.52,1201.7169 341,1257.2969 C367.61,1320.2869 435.3021,1338.1082 504.1021,1339.9282 " fill="none" id="COL-to-UC29" style="stroke:#181818;stroke-width:1.0;"/><polygon fill="#181818" points="510.1,1340.0869,501.2089,1335.8503,505.1017,1339.9547,500.9974,1343.8475,510.1,1340.0869" style="stroke:#181818;stroke-width:1.0;"/></g><!--SRC=[VLPDRziu4BthLn2vzEH5nAHEV2dWkaaQ847IsBizCz98ufeYjIGLmrtiVzyPVTWI2LG7mqFDUnpEl1dgazjBtGWhQbORRRBAcXgOjoqavpUDoFQYXAq_Ac0MCYzqgI3vTFPmbSZDGUgI5K8vI2RWa_-_2SFdgx4vs8rHnh96wdtoNv9uwP7uJmTi8_3dcnGb8fD4GU6PDypAil8ibqGbZKxm8IgHUIIv-DxMGhCtSAQr6JZsB3G6Qo-OSEpxs_FKzI-ePARGH-YStIi0F_E-dpa_M03DjdZuWFHXE_FRci8VX0NsenLA-YDREmVErQ0zsm5cO8hziPvXCGzAl1ihqEhURrwUaluvvOrTZ9bndKlh82EZp-TWeTCcPGjCGocT1qkbm1eevLY16sMJVNeMT0_n7F6lrXGOF6OP2qTK245ZWF0GSZNPaedPDkmWVOLhVvltBjr5gtD1IH6APHLA8wCmdPVP6D1Lo7wDx9XCMUh9SL0Fyuq6z7M8_epe1z20Je0GJwLeh6cCmmX4wqsDHyk4KiU1uNF8i0mIEifdy5-6_ZVJRFWAy9oGxHTjmqo14Npqy05z4w9l4RsP03xckzs6_Ylq_obegynerzOD5Og0PITSrmbt0AyYhLmY-kwVLZQTJbyj5611dn7fPGGXVP5WKPWi5rwm0eT5TqxqmcusbcgBPMdzk4hXq5yS1VkHED9TIi9xh0bFMUxFz6eanlM6N4ExFcg7zAgJ8uRX_2dII9KfoV85yr7BNyGeBKwGgOxJI6efQUsjrPtIrkw8sJIe3lOLAl4XKSqxcEmOQIsbqkyUTqzteqjKtlGsT8agcgv2bwXk_7BUSPCXDVPeL3XEXLldEHrDi9rPV3Fi2GdOdVRssCs72SqmhaWM8sCyANZFY7GQ3Wmw7gcxKgzBm4OVeL5j-DMfgIaOQahgQFqxagXQdAhrYXfeZCRRIhWz0UUWg4QS1iBB1zXAj8fo4VSOZqO0Nvx3VS6zC5VF1cVzwIR1uFjz-soEHD5iuAIGRMKET5PZIw7bByYPeZhGT51grhUixggGi_VZy7USSpnI5kyc1yq0rJSU9GIRfeiQAJ14lDFVmH-8tnyCTI-uFqR2I8TyrOaimwkw7sEcRXICuqLq_2Vqgh-CyQPbYyMNqxrojdbWNmNsTM3tDRWVpUNSl9cRVUnu8m_sAh27CJPPICC57Yxq0U9DFIvSXnutuSBj6VBbtBTd1nw6mSCmU1Z6eFh9GXZ6eDR9mZ9Sw0F5Zue-hg7KPnkBXzzV_mC0]--></g></svg>