<?xml version="1.0" encoding="us-ascii" standalone="no"?><svg xmlns="http://www.w3.org/2000/svg" xmlns:xlink="http://www.w3.org/1999/xlink" contentStyleType="text/css" height="665px" preserveAspectRatio="none" style="width:1396px;height:665px;background:#FFFFFF;" version="1.1" viewBox="0 0 1396 665" width="1396px" zoomAndPan="magnify"><defs/><g><rect fill="#FFFFFF" height="475.1465" style="stroke:#181818;stroke-width:1.0;" width="10" x="51.5" y="91.4883"/><rect fill="#FFFFFF" height="70.7988" style="stroke:#181818;stroke-width:1.0;" width="10" x="511.5" y="112.7988"/><rect fill="#FFFFFF" height="29.3105" style="stroke:#181818;stroke-width:1.0;" width="10" x="511.5" y="537.3242"/><rect fill="#FFFFFF" height="423.5254" style="stroke:#181818;stroke-width:1.0;" width="10" x="765.5" y="152.1094"/><rect fill="#FFFFFF" height="392.0371" style="stroke:#181818;stroke-width:1.0;" width="10" x="770.5" y="183.5977"/><rect fill="#FFFFFF" height="177.8633" style="stroke:#181818;stroke-width:1.0;" width="10" x="775.5" y="359.4609"/><rect fill="#FFFFFF" height="29.3105" style="stroke:#181818;stroke-width:1.0;" width="10" x="907" y="212.9082"/><rect fill="#FFFFFF" height="29.3105" style="stroke:#181818;stroke-width:1.0;" width="10" x="1020" y="271.5293"/><rect fill="#FFFFFF" height="141.5527" style="stroke:#181818;stroke-width:1.0;" width="10" x="1151.5" y="330.1504"/><rect fill="#FFFFFF" height="29.3105" style="stroke:#181818;stroke-width:1.0;" width="10" x="1156.5" y="413.082"/><rect fill="#FFFFFF" height="65.6211" style="stroke:#181818;stroke-width:1.0;" width="10" x="1303.5" y="442.3926"/><rect fill="none" height="105.2422" style="stroke:#000000;stroke-width:1.5;" width="710" x="680.5" y="374.4609"/><line style="stroke:#181818;stroke-width:0.5;stroke-dasharray:5.0,5.0;" x1="56" x2="56" y1="81.4883" y2="584.6348"/><line style="stroke:#181818;stroke-width:0.5;stroke-dasharray:5.0,5.0;" x1="516" x2="516" y1="81.4883" y2="584.6348"/><line style="stroke:#181818;stroke-width:0.5;stroke-dasharray:5.0,5.0;" x1="770.5" x2="770.5" y1="151.543" y2="584.6348"/><line style="stroke:#181818;stroke-width:0.5;stroke-dasharray:5.0,5.0;" x1="911.5" x2="911.5" y1="81.4883" y2="584.6348"/><line style="stroke:#181818;stroke-width:0.5;stroke-dasharray:5.0,5.0;" x1="1024.5" x2="1024.5" y1="81.4883" y2="584.6348"/><line style="stroke:#181818;stroke-width:0.5;stroke-dasharray:5.0,5.0;" x1="1156.5" x2="1156.5" y1="81.4883" y2="584.6348"/><line style="stroke:#181818;stroke-width:0.5;stroke-dasharray:5.0,5.0;" x1="1308.5" x2="1308.5" y1="81.4883" y2="584.6348"/><text fill="#000000" font-family="sans-serif" font-size="14" lengthAdjust="spacing" textLength="97" x="5" y="78.5352">Fleet Manager</text><ellipse cx="56.5" cy="13.5" fill="#E3E3E3" rx="8" ry="8" style="stroke:#181818;stroke-width:0.5;"/><path d="M56.5,21.5 L56.5,48.5 M43.5,29.5 L69.5,29.5 M56.5,48.5 L43.5,63.5 M56.5,48.5 L69.5,63.5 " fill="none" style="stroke:#181818;stroke-width:0.5;"/><text fill="#000000" font-family="sans-serif" font-size="14" lengthAdjust="spacing" textLength="97" x="5" y="597.1699">Fleet Manager</text><ellipse cx="56.5" cy="608.623" fill="#E3E3E3" rx="8" ry="8" style="stroke:#181818;stroke-width:0.5;"/><path d="M56.5,616.623 L56.5,643.623 M43.5,624.623 L69.5,624.623 M56.5,643.623 L43.5,658.623 M56.5,643.623 L69.5,658.623 " fill="none" style="stroke:#181818;stroke-width:0.5;"/><rect fill="#E3E3E3" height="30.4883" rx="2.5" ry="2.5" style="stroke:#181818;stroke-width:0.5;" width="115" x="459" y="50"/><text fill="#000000" font-family="sans-serif" font-size="14" lengthAdjust="spacing" textLength="101" x="466" y="70.5352">:CheckupListUI</text><rect fill="#E3E3E3" height="30.4883" rx="2.5" ry="2.5" style="stroke:#181818;stroke-width:0.5;" width="115" x="459" y="583.6348"/><text fill="#000000" font-family="sans-serif" font-size="14" lengthAdjust="spacing" textLength="101" x="466" y="604.1699">:CheckupListUI</text><rect fill="#E3E3E3" height="30.4883" rx="2.5" ry="2.5" style="stroke:#181818;stroke-width:0.5;" width="160" x="690.5" y="583.6348"/><text fill="#000000" font-family="sans-serif" font-size="14" lengthAdjust="spacing" textLength="146" x="697.5" y="604.1699">:VehicleListController</text><rect fill="#E3E3E3" height="30.4883" rx="2.5" ry="2.5" style="stroke:#181818;stroke-width:0.5;" width="103" x="860.5" y="50"/><text fill="#000000" font-family="sans-serif" font-size="14" lengthAdjust="spacing" textLength="89" x="867.5" y="70.5352">:Repositories</text><rect fill="#E3E3E3" height="30.4883" rx="2.5" ry="2.5" style="stroke:#181818;stroke-width:0.5;" width="103" x="860.5" y="583.6348"/><text fill="#000000" font-family="sans-serif" font-size="14" lengthAdjust="spacing" textLength="89" x="867.5" y="604.1699">:Repositories</text><rect fill="#E3E3E3" height="46.9766" rx="2.5" ry="2.5" style="stroke:#181818;stroke-width:0.5;" width="103" x="973.5" y="33.5117"/><text fill="#000000" font-family="sans-serif" font-size="14" lengthAdjust="spacing" textLength="82" x="984" y="54.0469">repositories</text><text fill="#000000" font-family="sans-serif" font-size="14" lengthAdjust="spacing" textLength="89" x="980.5" y="70.5352">:Repositories</text><rect fill="#E3E3E3" height="46.9766" rx="2.5" ry="2.5" style="stroke:#181818;stroke-width:0.5;" width="103" x="973.5" y="583.6348"/><text fill="#000000" font-family="sans-serif" font-size="14" lengthAdjust="spacing" textLength="82" x="984" y="604.1699">repositories</text><text fill="#000000" font-family="sans-serif" font-size="14" lengthAdjust="spacing" textLength="89" x="980.5" y="620.6582">:Repositories</text><rect fill="#E3E3E3" height="46.9766" rx="2.5" ry="2.5" style="stroke:#181818;stroke-width:0.5;" width="140" x="1086.5" y="33.5117"/><text fill="#000000" font-family="sans-serif" font-size="14" lengthAdjust="spacing" textLength="120" x="1096.5" y="54.0469">vehicleRepository</text><text fill="#000000" font-family="sans-serif" font-size="14" lengthAdjust="spacing" textLength="126" x="1093.5" y="70.5352">:VehicleRepository</text><rect fill="#E3E3E3" height="46.9766" rx="2.5" ry="2.5" style="stroke:#181818;stroke-width:0.5;" width="140" x="1086.5" y="583.6348"/><text fill="#000000" font-family="sans-serif" font-size="14" lengthAdjust="spacing" textLength="120" x="1096.5" y="604.1699">vehicleRepository</text><text fill="#000000" font-family="sans-serif" font-size="14" lengthAdjust="spacing" textLength="126" x="1093.5" y="620.6582">:VehicleRepository</text><rect fill="#E3E3E3" height="46.9766" rx="2.5" ry="2.5" style="stroke:#181818;stroke-width:0.5;" width="144" x="1236.5" y="33.5117"/><text fill="#000000" font-family="sans-serif" font-size="14" lengthAdjust="spacing" textLength="130" x="1243.5" y="54.0469">vehicleCheckupList</text><text fill="#000000" font-family="sans-serif" font-size="14" lengthAdjust="spacing" textLength="53" x="1282" y="70.5352">:Vehicle</text><rect fill="#E3E3E3" height="46.9766" rx="2.5" ry="2.5" style="stroke:#181818;stroke-width:0.5;" width="144" x="1236.5" y="583.6348"/><text fill="#000000" font-family="sans-serif" font-size="14" lengthAdjust="spacing" textLength="130" x="1243.5" y="604.1699">vehicleCheckupList</text><text fill="#000000" font-family="sans-serif" font-size="14" lengthAdjust="spacing" textLength="53" x="1282" y="620.6582">:Vehicle</text><rect fill="#FFFFFF" height="475.1465" style="stroke:#181818;stroke-width:1.0;" width="10" x="51.5" y="91.4883"/><rect fill="#FFFFFF" height="70.7988" style="stroke:#181818;stroke-width:1.0;" width="10" x="511.5" y="112.7988"/><rect fill="#FFFFFF" height="29.3105" style="stroke:#181818;stroke-width:1.0;" width="10" x="511.5" y="537.3242"/><rect fill="#FFFFFF" height="423.5254" style="stroke:#181818;stroke-width:1.0;" width="10" x="765.5" y="152.1094"/><rect fill="#FFFFFF" height="392.0371" style="stroke:#181818;stroke-width:1.0;" width="10" x="770.5" y="183.5977"/><rect fill="#FFFFFF" height="177.8633" style="stroke:#181818;stroke-width:1.0;" width="10" x="775.5" y="359.4609"/><rect fill="#FFFFFF" height="29.3105" style="stroke:#181818;stroke-width:1.0;" width="10" x="907" y="212.9082"/><rect fill="#FFFFFF" height="29.3105" style="stroke:#181818;stroke-width:1.0;" width="10" x="1020" y="271.5293"/><rect fill="#FFFFFF" height="141.5527" style="stroke:#181818;stroke-width:1.0;" width="10" x="1151.5" y="330.1504"/><rect fill="#FFFFFF" height="29.3105" style="stroke:#181818;stroke-width:1.0;" width="10" x="1156.5" y="413.082"/><rect fill="#FFFFFF" height="65.6211" style="stroke:#181818;stroke-width:1.0;" width="10" x="1303.5" y="442.3926"/><polygon fill="#181818" points="499.5,108.7988,509.5,112.7988,499.5,116.7988,503.5,112.7988" style="stroke:#181818;stroke-width:1.0;"/><line style="stroke:#181818;stroke-width:1.0;" x1="61.5" x2="505.5" y1="112.7988" y2="112.7988"/><text fill="#000000" font-family="sans-serif" font-size="13" font-weight="bold" lengthAdjust="spacing" textLength="9" x="68.5" y="108.0566">1</text><text fill="#000000" font-family="sans-serif" font-size="13" lengthAdjust="spacing" textLength="332" x="81.5" y="108.0566">Asks to generate a list of vehicles needing check-up</text><polygon fill="#181818" points="678.5,138.1094,688.5,142.1094,678.5,146.1094,682.5,142.1094" style="stroke:#181818;stroke-width:1.0;"/><line style="stroke:#181818;stroke-width:1.0;" x1="521.5" x2="684.5" y1="142.1094" y2="142.1094"/><text fill="#000000" font-family="sans-serif" font-size="13" font-weight="bold" lengthAdjust="spacing" textLength="9" x="528.5" y="137.3672">2</text><text fill="#000000" font-family="sans-serif" font-size="13" lengthAdjust="spacing" textLength="132" x="541.5" y="137.3672">generateCheckupList</text><rect fill="#E3E3E3" height="30.4883" rx="2.5" ry="2.5" style="stroke:#181818;stroke-width:0.5;" width="160" x="690.5" y="120.7988"/><text fill="#000000" font-family="sans-serif" font-size="14" lengthAdjust="spacing" textLength="146" x="697.5" y="141.334">:VehicleListController</text><polygon fill="#181818" points="758.5,179.5977,768.5,183.5977,758.5,187.5977,762.5,183.5977" style="stroke:#181818;stroke-width:1.0;"/><line style="stroke:#181818;stroke-width:1.0;" x1="516.5" x2="764.5" y1="183.5977" y2="183.5977"/><text fill="#000000" font-family="sans-serif" font-size="13" font-weight="bold" lengthAdjust="spacing" textLength="9" x="523.5" y="178.8555">3</text><text fill="#000000" font-family="sans-serif" font-size="13" lengthAdjust="spacing" textLength="203" x="536.5" y="178.8555">getVehicleListNeedingCheckup()</text><polygon fill="#181818" points="895,208.9082,905,212.9082,895,216.9082,899,212.9082" style="stroke:#181818;stroke-width:1.0;"/><line style="stroke:#181818;stroke-width:1.0;" x1="780.5" x2="901" y1="212.9082" y2="212.9082"/><text fill="#000000" font-family="sans-serif" font-size="13" font-weight="bold" lengthAdjust="spacing" textLength="9" x="787.5" y="208.166">4</text><text fill="#000000" font-family="sans-serif" font-size="13" lengthAdjust="spacing" textLength="81" x="800.5" y="208.166">getInstance()</text><polygon fill="#181818" points="791.5,238.2188,781.5,242.2188,791.5,246.2188,787.5,242.2188" style="stroke:#181818;stroke-width:1.0;"/><line style="stroke:#181818;stroke-width:1.0;stroke-dasharray:2.0,2.0;" x1="785.5" x2="911" y1="242.2188" y2="242.2188"/><text fill="#000000" font-family="sans-serif" font-size="13" font-weight="bold" lengthAdjust="spacing" textLength="9" x="797.5" y="237.4766">5</text><text fill="#000000" font-family="sans-serif" font-size="13" lengthAdjust="spacing" textLength="75" x="810.5" y="237.4766">repositories</text><polygon fill="#181818" points="1008,267.5293,1018,271.5293,1008,275.5293,1012,271.5293" style="stroke:#181818;stroke-width:1.0;"/><line style="stroke:#181818;stroke-width:1.0;" x1="780.5" x2="1014" y1="271.5293" y2="271.5293"/><text fill="#000000" font-family="sans-serif" font-size="13" font-weight="bold" lengthAdjust="spacing" textLength="9" x="787.5" y="266.7871">6</text><text fill="#000000" font-family="sans-serif" font-size="13" lengthAdjust="spacing" textLength="140" x="800.5" y="266.7871">getVehicleRepository()</text><polygon fill="#181818" points="791.5,296.8398,781.5,300.8398,791.5,304.8398,787.5,300.8398" style="stroke:#181818;stroke-width:1.0;"/><line style="stroke:#181818;stroke-width:1.0;stroke-dasharray:2.0,2.0;" x1="785.5" x2="1024" y1="300.8398" y2="300.8398"/><text fill="#000000" font-family="sans-serif" font-size="13" font-weight="bold" lengthAdjust="spacing" textLength="9" x="797.5" y="296.0977">7</text><text fill="#000000" font-family="sans-serif" font-size="13" lengthAdjust="spacing" textLength="111" x="810.5" y="296.0977">vehicleRepository</text><polygon fill="#181818" points="1139.5,326.1504,1149.5,330.1504,1139.5,334.1504,1143.5,330.1504" style="stroke:#181818;stroke-width:1.0;"/><line style="stroke:#181818;stroke-width:1.0;" x1="780.5" x2="1145.5" y1="330.1504" y2="330.1504"/><text fill="#000000" font-family="sans-serif" font-size="13" font-weight="bold" lengthAdjust="spacing" textLength="9" x="787.5" y="325.4082">8</text><text fill="#000000" font-family="sans-serif" font-size="13" lengthAdjust="spacing" textLength="187" x="800.5" y="325.4082">getVehiclesNeedingCheckup()</text><polygon fill="#181818" points="796.5,355.4609,786.5,359.4609,796.5,363.4609,792.5,359.4609" style="stroke:#181818;stroke-width:1.0;"/><line style="stroke:#181818;stroke-width:1.0;stroke-dasharray:2.0,2.0;" x1="790.5" x2="1150.5" y1="359.4609" y2="359.4609"/><text fill="#000000" font-family="sans-serif" font-size="13" font-weight="bold" lengthAdjust="spacing" textLength="9" x="802.5" y="354.7188">9</text><text fill="#000000" font-family="sans-serif" font-size="13" lengthAdjust="spacing" textLength="67" x="815.5" y="354.7188">vehicleList</text><path d="M680.5,374.4609 L754.5,374.4609 L754.5,381.7715 L744.5,391.7715 L680.5,391.7715 L680.5,374.4609 " fill="#EEEEEE" style="stroke:#000000;stroke-width:1.5;"/><rect fill="none" height="105.2422" style="stroke:#000000;stroke-width:1.5;" width="710" x="680.5" y="374.4609"/><text fill="#000000" font-family="sans-serif" font-size="13" font-weight="bold" lengthAdjust="spacing" textLength="29" x="695.5" y="388.0293">loop</text><text fill="#000000" font-family="sans-serif" font-size="11" font-weight="bold" lengthAdjust="spacing" textLength="177" x="769.5" y="387.0957">[for each vehicle in vehicleList]</text><polygon fill="#181818" points="1144.5,409.082,1154.5,413.082,1144.5,417.082,1148.5,413.082" style="stroke:#181818;stroke-width:1.0;"/><line style="stroke:#181818;stroke-width:1.0;" x1="785.5" x2="1150.5" y1="413.082" y2="413.082"/><text fill="#000000" font-family="sans-serif" font-size="13" font-weight="bold" lengthAdjust="spacing" textLength="18" x="792.5" y="408.3398">10</text><text fill="#000000" font-family="sans-serif" font-size="13" lengthAdjust="spacing" textLength="144" x="814.5" y="408.3398">needsCheckup(vehicle)</text><polygon fill="#181818" points="796.5,438.3926,786.5,442.3926,796.5,446.3926,792.5,442.3926" style="stroke:#181818;stroke-width:1.0;"/><line style="stroke:#181818;stroke-width:1.0;stroke-dasharray:2.0,2.0;" x1="790.5" x2="1150.5" y1="442.3926" y2="442.3926"/><text fill="#000000" font-family="sans-serif" font-size="13" font-weight="bold" lengthAdjust="spacing" textLength="18" x="802.5" y="437.6504">11</text><text fill="#000000" font-family="sans-serif" font-size="13" lengthAdjust="spacing" textLength="62" x="824.5" y="437.6504">true/false</text><polygon fill="#181818" points="1291.5,467.7031,1301.5,471.7031,1291.5,475.7031,1295.5,471.7031" style="stroke:#181818;stroke-width:1.0;"/><line style="stroke:#181818;stroke-width:1.0;stroke-dasharray:2.0,2.0;" x1="785.5" x2="1297.5" y1="471.7031" y2="471.7031"/><text fill="#000000" font-family="sans-serif" font-size="13" font-weight="bold" lengthAdjust="spacing" textLength="18" x="792.5" y="466.9609">12</text><text fill="#000000" font-family="sans-serif" font-size="13" lengthAdjust="spacing" textLength="158" x="814.5" y="466.9609">if true, add vehicle to list</text><polygon fill="#181818" points="796.5,504.0137,786.5,508.0137,796.5,512.0137,792.5,508.0137" style="stroke:#181818;stroke-width:1.0;"/><line style="stroke:#181818;stroke-width:1.0;stroke-dasharray:2.0,2.0;" x1="790.5" x2="1307.5" y1="508.0137" y2="508.0137"/><text fill="#000000" font-family="sans-serif" font-size="13" font-weight="bold" lengthAdjust="spacing" textLength="18" x="802.5" y="503.2715">13</text><text fill="#000000" font-family="sans-serif" font-size="13" lengthAdjust="spacing" textLength="158" x="824.5" y="503.2715">vehiclesNeedingCheckup</text><polygon fill="#181818" points="532.5,533.3242,522.5,537.3242,532.5,541.3242,528.5,537.3242" style="stroke:#181818;stroke-width:1.0;"/><line style="stroke:#181818;stroke-width:1.0;stroke-dasharray:2.0,2.0;" x1="526.5" x2="769.5" y1="537.3242" y2="537.3242"/><text fill="#000000" font-family="sans-serif" font-size="13" font-weight="bold" lengthAdjust="spacing" textLength="18" x="538.5" y="532.582">14</text><text fill="#000000" font-family="sans-serif" font-size="13" lengthAdjust="spacing" textLength="158" x="560.5" y="532.582">vehiclesNeedingCheckup</text><polygon fill="#181818" points="67.5,562.6348,57.5,566.6348,67.5,570.6348,63.5,566.6348" style="stroke:#181818;stroke-width:1.0;"/><line style="stroke:#181818;stroke-width:1.0;stroke-dasharray:2.0,2.0;" x1="61.5" x2="515.5" y1="566.6348" y2="566.6348"/><text fill="#000000" font-family="sans-serif" font-size="13" font-weight="bold" lengthAdjust="spacing" textLength="18" x="73.5" y="561.8926">15</text><text fill="#000000" font-family="sans-serif" font-size="13" lengthAdjust="spacing" textLength="404" x="95.5" y="561.8926">Provides a list of vehicles that need check-up (and all their info)</text><!--SRC=[VLJBRjim4BppAnO-9K6Dtdqe41WnQi0kWZnyweMbLXPXcXH8oaN-lajAegX7xPCbpioEThZhBbBNtF8hN8qsehBcYk1jWyobavgB2p_Zk_zI21Q5v_giSe2hU67-Ids6aYk7ZF766zrS_w2b_y8R2wkTGlHmv9gKx0guWzsHCU9xAMJDjOVLPbkXk3JrGJh_kO-Op_q4Si9A2eK1iZNQMwDK9xVzU3jCm6zO6oUfl4GNCUd5rxiCtq0knnIRCNxhkS3huVbZpBYrXWPbefscxo9tXbmKodemA4N-wUNdVdjuYHsLD-unTd1tXFKFwXDiuDbT77W3PzHempa7HJ9Wohws0urOXA14ABDkwa6CMir8XiH29v-UIB0NoZmD-DZlZ17nFildLrkg8pyyiWBpOXEXA45I2n6rodljwE899A54NSgJBIciEvCRo1FE7IrAzQP2xAFl6z2vdNWxM0GF1UUnPrLRHbzc1XtLTBE69fbv3JRNMWz1tOQK69iceOofeQIP9PjL3mMfHooWtptRuPwvtca7U8oiEwR3yLtVOJ5zRtTCm6QDN1PBn_ti3BP9j7j9khACqj-05qNwOfgaC3xiRXNKHTx1XI3wAlFsJm9bUQKqxCbj7F7_C3DYp32Vip2XHASziO5NQswoe3Mmi1bynNsCBUq6UE2w0AuKdQ6qT0LACvtYx2bie_7ZFm00]--></g></svg>