<?xml version="1.0" encoding="us-ascii" standalone="no"?><svg xmlns="http://www.w3.org/2000/svg" xmlns:xlink="http://www.w3.org/1999/xlink" contentStyleType="text/css" height="488px" preserveAspectRatio="none" style="width:1206px;height:488px;background:#FFFFFF;" version="1.1" viewBox="0 0 1206 488" width="1206px" zoomAndPan="magnify"><defs/><g><rect fill="#FFFFFF" height="298.2383" style="stroke:#181818;stroke-width:1.0;" width="10" x="51.5" y="91.4883"/><rect fill="#FFFFFF" height="70.7988" style="stroke:#181818;stroke-width:1.0;" width="10" x="502.5" y="112.7988"/><rect fill="#FFFFFF" height="29.3105" style="stroke:#181818;stroke-width:1.0;" width="10" x="502.5" y="360.416"/><rect fill="#FFFFFF" height="176.8184" style="stroke:#181818;stroke-width:1.0;" width="10" x="747.5" y="183.5977"/><rect fill="#FFFFFF" height="73.7539" style="stroke:#181818;stroke-width:1.0;" width="10" x="1122" y="257.3516"/><line style="stroke:#181818;stroke-width:0.5;stroke-dasharray:5.0,5.0;" x1="56" x2="56" y1="81.4883" y2="407.7266"/><line style="stroke:#181818;stroke-width:0.5;stroke-dasharray:5.0,5.0;" x1="507" x2="507" y1="81.4883" y2="407.7266"/><line style="stroke:#181818;stroke-width:0.5;stroke-dasharray:5.0,5.0;" x1="752" x2="752" y1="151.543" y2="407.7266"/><line style="stroke:#181818;stroke-width:0.5;stroke-dasharray:5.0,5.0;" x1="882" x2="882" y1="81.4883" y2="407.7266"/><line style="stroke:#181818;stroke-width:0.5;stroke-dasharray:5.0,5.0;" x1="995" x2="995" y1="81.4883" y2="407.7266"/><line style="stroke:#181818;stroke-width:0.5;stroke-dasharray:5.0,5.0;" x1="1127" x2="1127" y1="81.4883" y2="407.7266"/><text fill="#000000" font-family="sans-serif" font-size="14" lengthAdjust="spacing" textLength="97" x="5" y="78.5352">Fleet Manager</text><ellipse cx="56.5" cy="13.5" fill="#E3E3E3" rx="8" ry="8" style="stroke:#181818;stroke-width:0.5;"/><path d="M56.5,21.5 L56.5,48.5 M43.5,29.5 L69.5,29.5 M56.5,48.5 L43.5,63.5 M56.5,48.5 L69.5,63.5 " fill="none" style="stroke:#181818;stroke-width:0.5;"/><text fill="#000000" font-family="sans-serif" font-size="14" lengthAdjust="spacing" textLength="97" x="5" y="420.2617">Fleet Manager</text><ellipse cx="56.5" cy="431.7148" fill="#E3E3E3" rx="8" ry="8" style="stroke:#181818;stroke-width:0.5;"/><path d="M56.5,439.7148 L56.5,466.7148 M43.5,447.7148 L69.5,447.7148 M56.5,466.7148 L43.5,481.7148 M56.5,466.7148 L69.5,481.7148 " fill="none" style="stroke:#181818;stroke-width:0.5;"/><rect fill="#E3E3E3" height="30.4883" rx="2.5" ry="2.5" style="stroke:#181818;stroke-width:0.5;" width="115" x="450" y="50"/><text fill="#000000" font-family="sans-serif" font-size="14" lengthAdjust="spacing" textLength="101" x="457" y="70.5352">:CheckupListUI</text><rect fill="#E3E3E3" height="30.4883" rx="2.5" ry="2.5" style="stroke:#181818;stroke-width:0.5;" width="115" x="450" y="406.7266"/><text fill="#000000" font-family="sans-serif" font-size="14" lengthAdjust="spacing" textLength="101" x="457" y="427.2617">:CheckupListUI</text><rect fill="#E3E3E3" height="30.4883" rx="2.5" ry="2.5" style="stroke:#181818;stroke-width:0.5;" width="137" x="684" y="406.7266"/><text fill="#000000" font-family="sans-serif" font-size="14" lengthAdjust="spacing" textLength="123" x="691" y="427.2617">:VehicleController</text><rect fill="#E3E3E3" height="30.4883" rx="2.5" ry="2.5" style="stroke:#181818;stroke-width:0.5;" width="103" x="831" y="50"/><text fill="#000000" font-family="sans-serif" font-size="14" lengthAdjust="spacing" textLength="89" x="838" y="70.5352">:Repositories</text><rect fill="#E3E3E3" height="30.4883" rx="2.5" ry="2.5" style="stroke:#181818;stroke-width:0.5;" width="103" x="831" y="406.7266"/><text fill="#000000" font-family="sans-serif" font-size="14" lengthAdjust="spacing" textLength="89" x="838" y="427.2617">:Repositories</text><rect fill="#E3E3E3" height="46.9766" rx="2.5" ry="2.5" style="stroke:#181818;stroke-width:0.5;" width="103" x="944" y="33.5117"/><text fill="#000000" font-family="sans-serif" font-size="14" lengthAdjust="spacing" textLength="82" x="954.5" y="54.0469">repositories</text><text fill="#000000" font-family="sans-serif" font-size="14" lengthAdjust="spacing" textLength="89" x="951" y="70.5352">:Repositories</text><rect fill="#E3E3E3" height="46.9766" rx="2.5" ry="2.5" style="stroke:#181818;stroke-width:0.5;" width="103" x="944" y="406.7266"/><text fill="#000000" font-family="sans-serif" font-size="14" lengthAdjust="spacing" textLength="82" x="954.5" y="427.2617">repositories</text><text fill="#000000" font-family="sans-serif" font-size="14" lengthAdjust="spacing" textLength="89" x="951" y="443.75">:Repositories</text><rect fill="#E3E3E3" height="46.9766" rx="2.5" ry="2.5" style="stroke:#181818;stroke-width:0.5;" width="140" x="1057" y="33.5117"/><text fill="#000000" font-family="sans-serif" font-size="14" lengthAdjust="spacing" textLength="120" x="1067" y="54.0469">vehicleRepository</text><text fill="#000000" font-family="sans-serif" font-size="14" lengthAdjust="spacing" textLength="126" x="1064" y="70.5352">:VehicleRepository</text><rect fill="#E3E3E3" height="46.9766" rx="2.5" ry="2.5" style="stroke:#181818;stroke-width:0.5;" width="140" x="1057" y="406.7266"/><text fill="#000000" font-family="sans-serif" font-size="14" lengthAdjust="spacing" textLength="120" x="1067" y="427.2617">vehicleRepository</text><text fill="#000000" font-family="sans-serif" font-size="14" lengthAdjust="spacing" textLength="126" x="1064" y="443.75">:VehicleRepository</text><rect fill="#FFFFFF" height="298.2383" style="stroke:#181818;stroke-width:1.0;" width="10" x="51.5" y="91.4883"/><rect fill="#FFFFFF" height="70.7988" style="stroke:#181818;stroke-width:1.0;" width="10" x="502.5" y="112.7988"/><rect fill="#FFFFFF" height="29.3105" style="stroke:#181818;stroke-width:1.0;" width="10" x="502.5" y="360.416"/><rect fill="#FFFFFF" height="176.8184" style="stroke:#181818;stroke-width:1.0;" width="10" x="747.5" y="183.5977"/><rect fill="#FFFFFF" height="73.7539" style="stroke:#181818;stroke-width:1.0;" width="10" x="1122" y="257.3516"/><polygon fill="#181818" points="490.5,108.7988,500.5,112.7988,490.5,116.7988,494.5,112.7988" style="stroke:#181818;stroke-width:1.0;"/><line style="stroke:#181818;stroke-width:1.0;" x1="61.5" x2="496.5" y1="112.7988" y2="112.7988"/><text fill="#000000" font-family="sans-serif" font-size="13" font-weight="bold" lengthAdjust="spacing" textLength="9" x="68.5" y="108.0566">1</text><text fill="#000000" font-family="sans-serif" font-size="13" lengthAdjust="spacing" textLength="332" x="81.5" y="108.0566">Asks to generate a list of vehicles needing check-up</text><polygon fill="#181818" points="672,138.1094,682,142.1094,672,146.1094,676,142.1094" style="stroke:#181818;stroke-width:1.0;"/><line style="stroke:#181818;stroke-width:1.0;" x1="512.5" x2="678" y1="142.1094" y2="142.1094"/><text fill="#000000" font-family="sans-serif" font-size="13" font-weight="bold" lengthAdjust="spacing" textLength="9" x="519.5" y="137.3672">2</text><text fill="#000000" font-family="sans-serif" font-size="13" lengthAdjust="spacing" textLength="38" x="532.5" y="137.3672">create</text><rect fill="#E3E3E3" height="30.4883" rx="2.5" ry="2.5" style="stroke:#181818;stroke-width:0.5;" width="137" x="684" y="120.7988"/><text fill="#000000" font-family="sans-serif" font-size="14" lengthAdjust="spacing" textLength="123" x="691" y="141.334">:VehicleController</text><polygon fill="#181818" points="735.5,179.5977,745.5,183.5977,735.5,187.5977,739.5,183.5977" style="stroke:#181818;stroke-width:1.0;"/><line style="stroke:#181818;stroke-width:1.0;" x1="507.5" x2="741.5" y1="183.5977" y2="183.5977"/><text fill="#000000" font-family="sans-serif" font-size="13" font-weight="bold" lengthAdjust="spacing" textLength="9" x="514.5" y="178.8555">3</text><text fill="#000000" font-family="sans-serif" font-size="13" lengthAdjust="spacing" textLength="203" x="527.5" y="178.8555">getVehicleListNeedingCheckup()</text><rect fill="none" height="39.4434" style="stroke:#000000;stroke-width:1.5;" width="369" x="681" y="191.5977"/><path d="M681,191.5977 L745,191.5977 L745,198.5977 L735,208.5977 L681,208.5977 L681,191.5977 " fill="#EEEEEE" style="stroke:#000000;stroke-width:2.0;"/><text fill="#000000" font-family="sans-serif" font-size="13" font-weight="bold" lengthAdjust="spacing" textLength="19" x="694" y="206.166">ref</text><text fill="#000000" font-family="sans-serif" font-size="12" lengthAdjust="spacing" textLength="88" x="821.5" y="224.1992">Get Vehicle List</text><polygon fill="#181818" points="1110,253.3516,1120,257.3516,1110,261.3516,1114,257.3516" style="stroke:#181818;stroke-width:1.0;"/><line style="stroke:#181818;stroke-width:1.0;" x1="757.5" x2="1116" y1="257.3516" y2="257.3516"/><text fill="#000000" font-family="sans-serif" font-size="13" font-weight="bold" lengthAdjust="spacing" textLength="9" x="764.5" y="252.6094">4</text><text fill="#000000" font-family="sans-serif" font-size="13" lengthAdjust="spacing" textLength="187" x="777.5" y="252.6094">getVehiclesNeedingCheckup()</text><rect fill="none" height="39.4434" style="stroke:#000000;stroke-width:1.5;" width="146" x="1054" y="265.3516"/><path d="M1054,265.3516 L1118,265.3516 L1118,272.3516 L1108,282.3516 L1054,282.3516 L1054,265.3516 " fill="#EEEEEE" style="stroke:#000000;stroke-width:2.0;"/><text fill="#000000" font-family="sans-serif" font-size="13" font-weight="bold" lengthAdjust="spacing" textLength="19" x="1067" y="279.9199">ref</text><text fill="#000000" font-family="sans-serif" font-size="12" lengthAdjust="spacing" textLength="131" x="1061.5" y="297.9531">Generate CheckUp List</text><polygon fill="#181818" points="768.5,327.1055,758.5,331.1055,768.5,335.1055,764.5,331.1055" style="stroke:#181818;stroke-width:1.0;"/><line style="stroke:#181818;stroke-width:1.0;stroke-dasharray:2.0,2.0;" x1="762.5" x2="1126" y1="331.1055" y2="331.1055"/><text fill="#000000" font-family="sans-serif" font-size="13" font-weight="bold" lengthAdjust="spacing" textLength="9" x="774.5" y="326.3633">5</text><text fill="#000000" font-family="sans-serif" font-size="13" lengthAdjust="spacing" textLength="158" x="787.5" y="326.3633">vehiclesNeedingCheckup</text><polygon fill="#181818" points="523.5,356.416,513.5,360.416,523.5,364.416,519.5,360.416" style="stroke:#181818;stroke-width:1.0;"/><line style="stroke:#181818;stroke-width:1.0;stroke-dasharray:2.0,2.0;" x1="517.5" x2="751.5" y1="360.416" y2="360.416"/><text fill="#000000" font-family="sans-serif" font-size="13" font-weight="bold" lengthAdjust="spacing" textLength="9" x="529.5" y="355.6738">6</text><text fill="#000000" font-family="sans-serif" font-size="13" lengthAdjust="spacing" textLength="158" x="542.5" y="355.6738">vehiclesNeedingCheckup</text><polygon fill="#181818" points="67.5,385.7266,57.5,389.7266,67.5,393.7266,63.5,389.7266" style="stroke:#181818;stroke-width:1.0;"/><line style="stroke:#181818;stroke-width:1.0;stroke-dasharray:2.0,2.0;" x1="61.5" x2="506.5" y1="389.7266" y2="389.7266"/><text fill="#000000" font-family="sans-serif" font-size="13" font-weight="bold" lengthAdjust="spacing" textLength="9" x="73.5" y="384.9844">7</text><text fill="#000000" font-family="sans-serif" font-size="13" lengthAdjust="spacing" textLength="404" x="86.5" y="384.9844">Provides a list of vehicles that need check-up (and all their info)</text><!--SRC=[XPBFRi8m3CRlUGgB4w3n0Xmc8IGG4ao8VwTTijHj8q9I9MadtdvEAAMbbPPJwzYVl_niTvMwu9RVu6Qq4RarDmHlIsIkkIcukF8CZ_wk42mAptMcsWakvudvbJg3b2k7ZF7I6rtUVj3Ij_36mcYb43tik2ObEmBkOBLZZEgz5BBWsiDelinHNCjYAvq_RsBEUVEMSi5S2eLBexqrIjLIozDX-vPumC8uIQqbkfZJ1Ev76VoJmsw9RLLywxx0VhiuTIkgXvcNCfLTtcEnjfSPkSYAUumSLZkOVT9hOGuBTtNW3MIeqOPx3eg0W4cVAWuqOX9mYm1iLXOlCGB6I8R40fFfb0I5HRffXocOeQ-T1jfV3xsQ_tZ2M88ToUOdaWx7OWgcGXiZ7qDqFo8nwhMcmTVD87HZB9eWCpqi7MUkRmiQ8tsYGATnDQIyVXADWkUYDXDEFttsObKDscaZ6XZluudFeVul4S6scOTnKJbjnXpsrbGoeS4Fx8BFkOyBqMm3ZBbEW2j5ToWjI9sQoTj4Mt-qVty0]--></g></svg>