<?xml version="1.0" encoding="us-ascii" standalone="no"?><svg xmlns="http://www.w3.org/2000/svg" xmlns:xlink="http://www.w3.org/1999/xlink" contentStyleType="text/css" height="633px" preserveAspectRatio="none" style="width:1344px;height:633px;background:#FFFFFF;" version="1.1" viewBox="0 0 1344 633" width="1344px" zoomAndPan="magnify"><defs/><g><rect fill="#FFFFFF" height="442.5254" style="stroke:#181818;stroke-width:1.0;" width="10" x="51.5" y="91.4883"/><rect fill="#FFFFFF" height="70.7988" style="stroke:#181818;stroke-width:1.0;" width="10" x="511.5" y="112.7988"/><rect fill="#FFFFFF" height="29.3105" style="stroke:#181818;stroke-width:1.0;" width="10" x="511.5" y="504.7031"/><rect fill="#FFFFFF" height="321.1055" style="stroke:#181818;stroke-width:1.0;" width="10" x="756.5" y="183.5977"/><rect fill="#FFFFFF" height="29.3105" style="stroke:#181818;stroke-width:1.0;" width="10" x="898" y="212.9082"/><rect fill="#FFFFFF" height="29.3105" style="stroke:#181818;stroke-width:1.0;" width="10" x="1011" y="271.5293"/><rect fill="#FFFFFF" height="145.2422" style="stroke:#181818;stroke-width:1.0;" width="10" x="1147.5" y="330.1504"/><rect fill="#FFFFFF" height="101.9316" style="stroke:#181818;stroke-width:1.0;" width="10" x="1147.5" y="330.1504"/><rect fill="#FFFFFF" height="40.3105" style="stroke:#181818;stroke-width:1.0;" width="10" x="1152.5" y="391.7715"/><rect fill="none" height="101.9316" style="stroke:#000000;stroke-width:1.5;" width="271" x="1067.5" y="345.1504"/><line style="stroke:#181818;stroke-width:0.5;stroke-dasharray:5.0,5.0;" x1="56" x2="56" y1="81.4883" y2="552.0137"/><line style="stroke:#181818;stroke-width:0.5;stroke-dasharray:5.0,5.0;" x1="516" x2="516" y1="81.4883" y2="552.0137"/><line style="stroke:#181818;stroke-width:0.5;stroke-dasharray:5.0,5.0;" x1="761.5" x2="761.5" y1="151.543" y2="552.0137"/><line style="stroke:#181818;stroke-width:0.5;stroke-dasharray:5.0,5.0;" x1="902.5" x2="902.5" y1="81.4883" y2="552.0137"/><line style="stroke:#181818;stroke-width:0.5;stroke-dasharray:5.0,5.0;" x1="1015.5" x2="1015.5" y1="81.4883" y2="552.0137"/><line style="stroke:#181818;stroke-width:0.5;stroke-dasharray:5.0,5.0;" x1="1147.5" x2="1147.5" y1="81.4883" y2="552.0137"/><text fill="#000000" font-family="sans-serif" font-size="14" lengthAdjust="spacing" textLength="97" x="5" y="78.5352">Fleet Manager</text><ellipse cx="56.5" cy="13.5" fill="#E3E3E3" rx="8" ry="8" style="stroke:#181818;stroke-width:0.5;"/><path d="M56.5,21.5 L56.5,48.5 M43.5,29.5 L69.5,29.5 M56.5,48.5 L43.5,63.5 M56.5,48.5 L69.5,63.5 " fill="none" style="stroke:#181818;stroke-width:0.5;"/><text fill="#000000" font-family="sans-serif" font-size="14" lengthAdjust="spacing" textLength="97" x="5" y="564.5488">Fleet Manager</text><ellipse cx="56.5" cy="576.002" fill="#E3E3E3" rx="8" ry="8" style="stroke:#181818;stroke-width:0.5;"/><path d="M56.5,584.002 L56.5,611.002 M43.5,592.002 L69.5,592.002 M56.5,611.002 L43.5,626.002 M56.5,611.002 L69.5,626.002 " fill="none" style="stroke:#181818;stroke-width:0.5;"/><rect fill="#E3E3E3" height="30.4883" rx="2.5" ry="2.5" style="stroke:#181818;stroke-width:0.5;" width="115" x="459" y="50"/><text fill="#000000" font-family="sans-serif" font-size="14" lengthAdjust="spacing" textLength="101" x="466" y="70.5352">:CheckupListUI</text><rect fill="#E3E3E3" height="30.4883" rx="2.5" ry="2.5" style="stroke:#181818;stroke-width:0.5;" width="115" x="459" y="551.0137"/><text fill="#000000" font-family="sans-serif" font-size="14" lengthAdjust="spacing" textLength="101" x="466" y="571.5488">:CheckupListUI</text><rect fill="#E3E3E3" height="30.4883" rx="2.5" ry="2.5" style="stroke:#181818;stroke-width:0.5;" width="160" x="681.5" y="551.0137"/><text fill="#000000" font-family="sans-serif" font-size="14" lengthAdjust="spacing" textLength="146" x="688.5" y="571.5488">:VehicleListController</text><rect fill="#E3E3E3" height="30.4883" rx="2.5" ry="2.5" style="stroke:#181818;stroke-width:0.5;" width="103" x="851.5" y="50"/><text fill="#000000" font-family="sans-serif" font-size="14" lengthAdjust="spacing" textLength="89" x="858.5" y="70.5352">:Repositories</text><rect fill="#E3E3E3" height="30.4883" rx="2.5" ry="2.5" style="stroke:#181818;stroke-width:0.5;" width="103" x="851.5" y="551.0137"/><text fill="#000000" font-family="sans-serif" font-size="14" lengthAdjust="spacing" textLength="89" x="858.5" y="571.5488">:Repositories</text><rect fill="#E3E3E3" height="46.9766" rx="2.5" ry="2.5" style="stroke:#181818;stroke-width:0.5;" width="103" x="964.5" y="33.5117"/><text fill="#000000" font-family="sans-serif" font-size="14" lengthAdjust="spacing" textLength="82" x="975" y="54.0469">repositories</text><text fill="#000000" font-family="sans-serif" font-size="14" lengthAdjust="spacing" textLength="89" x="971.5" y="70.5352">:Repositories</text><rect fill="#E3E3E3" height="46.9766" rx="2.5" ry="2.5" style="stroke:#181818;stroke-width:0.5;" width="103" x="964.5" y="551.0137"/><text fill="#000000" font-family="sans-serif" font-size="14" lengthAdjust="spacing" textLength="82" x="975" y="571.5488">repositories</text><text fill="#000000" font-family="sans-serif" font-size="14" lengthAdjust="spacing" textLength="89" x="971.5" y="588.0371">:Repositories</text><rect fill="#E3E3E3" height="46.9766" rx="2.5" ry="2.5" style="stroke:#181818;stroke-width:0.5;" width="140" x="1077.5" y="33.5117"/><text fill="#000000" font-family="sans-serif" font-size="14" lengthAdjust="spacing" textLength="120" x="1087.5" y="54.0469">vehicleRepository</text><text fill="#000000" font-family="sans-serif" font-size="14" lengthAdjust="spacing" textLength="126" x="1084.5" y="70.5352">:VehicleRepository</text><rect fill="#E3E3E3" height="46.9766" rx="2.5" ry="2.5" style="stroke:#181818;stroke-width:0.5;" width="140" x="1077.5" y="551.0137"/><text fill="#000000" font-family="sans-serif" font-size="14" lengthAdjust="spacing" textLength="120" x="1087.5" y="571.5488">vehicleRepository</text><text fill="#000000" font-family="sans-serif" font-size="14" lengthAdjust="spacing" textLength="126" x="1084.5" y="588.0371">:VehicleRepository</text><rect fill="#FFFFFF" height="442.5254" style="stroke:#181818;stroke-width:1.0;" width="10" x="51.5" y="91.4883"/><rect fill="#FFFFFF" height="70.7988" style="stroke:#181818;stroke-width:1.0;" width="10" x="511.5" y="112.7988"/><rect fill="#FFFFFF" height="29.3105" style="stroke:#181818;stroke-width:1.0;" width="10" x="511.5" y="504.7031"/><rect fill="#FFFFFF" height="321.1055" style="stroke:#181818;stroke-width:1.0;" width="10" x="756.5" y="183.5977"/><rect fill="#FFFFFF" height="29.3105" style="stroke:#181818;stroke-width:1.0;" width="10" x="898" y="212.9082"/><rect fill="#FFFFFF" height="29.3105" style="stroke:#181818;stroke-width:1.0;" width="10" x="1011" y="271.5293"/><rect fill="#FFFFFF" height="145.2422" style="stroke:#181818;stroke-width:1.0;" width="10" x="1147.5" y="330.1504"/><rect fill="#FFFFFF" height="101.9316" style="stroke:#181818;stroke-width:1.0;" width="10" x="1147.5" y="330.1504"/><rect fill="#FFFFFF" height="40.3105" style="stroke:#181818;stroke-width:1.0;" width="10" x="1152.5" y="391.7715"/><polygon fill="#181818" points="499.5,108.7988,509.5,112.7988,499.5,116.7988,503.5,112.7988" style="stroke:#181818;stroke-width:1.0;"/><line style="stroke:#181818;stroke-width:1.0;" x1="61.5" x2="505.5" y1="112.7988" y2="112.7988"/><text fill="#000000" font-family="sans-serif" font-size="13" font-weight="bold" lengthAdjust="spacing" textLength="9" x="68.5" y="108.0566">1</text><text fill="#000000" font-family="sans-serif" font-size="13" lengthAdjust="spacing" textLength="332" x="81.5" y="108.0566">Asks to generate a list of vehicles needing check-up</text><polygon fill="#181818" points="669.5,138.1094,679.5,142.1094,669.5,146.1094,673.5,142.1094" style="stroke:#181818;stroke-width:1.0;"/><line style="stroke:#181818;stroke-width:1.0;" x1="521.5" x2="675.5" y1="142.1094" y2="142.1094"/><text fill="#000000" font-family="sans-serif" font-size="13" font-weight="bold" lengthAdjust="spacing" textLength="9" x="528.5" y="137.3672">2</text><text fill="#000000" font-family="sans-serif" font-size="13" lengthAdjust="spacing" textLength="38" x="541.5" y="137.3672">create</text><rect fill="#E3E3E3" height="30.4883" rx="2.5" ry="2.5" style="stroke:#181818;stroke-width:0.5;" width="160" x="681.5" y="120.7988"/><text fill="#000000" font-family="sans-serif" font-size="14" lengthAdjust="spacing" textLength="146" x="688.5" y="141.334">:VehicleListController</text><polygon fill="#181818" points="744.5,179.5977,754.5,183.5977,744.5,187.5977,748.5,183.5977" style="stroke:#181818;stroke-width:1.0;"/><line style="stroke:#181818;stroke-width:1.0;" x1="516.5" x2="750.5" y1="183.5977" y2="183.5977"/><text fill="#000000" font-family="sans-serif" font-size="13" font-weight="bold" lengthAdjust="spacing" textLength="9" x="523.5" y="178.8555">3</text><text fill="#000000" font-family="sans-serif" font-size="13" lengthAdjust="spacing" textLength="203" x="536.5" y="178.8555">getVehicleListNeedingCheckup()</text><polygon fill="#181818" points="886,208.9082,896,212.9082,886,216.9082,890,212.9082" style="stroke:#181818;stroke-width:1.0;"/><line style="stroke:#181818;stroke-width:1.0;" x1="766.5" x2="892" y1="212.9082" y2="212.9082"/><text fill="#000000" font-family="sans-serif" font-size="13" font-weight="bold" lengthAdjust="spacing" textLength="9" x="773.5" y="208.166">4</text><text fill="#000000" font-family="sans-serif" font-size="13" lengthAdjust="spacing" textLength="81" x="786.5" y="208.166">getInstance()</text><polygon fill="#181818" points="777.5,238.2188,767.5,242.2188,777.5,246.2188,773.5,242.2188" style="stroke:#181818;stroke-width:1.0;"/><line style="stroke:#181818;stroke-width:1.0;stroke-dasharray:2.0,2.0;" x1="771.5" x2="902" y1="242.2188" y2="242.2188"/><text fill="#000000" font-family="sans-serif" font-size="13" font-weight="bold" lengthAdjust="spacing" textLength="9" x="783.5" y="237.4766">5</text><text fill="#000000" font-family="sans-serif" font-size="13" lengthAdjust="spacing" textLength="75" x="796.5" y="237.4766">repositories</text><polygon fill="#181818" points="999,267.5293,1009,271.5293,999,275.5293,1003,271.5293" style="stroke:#181818;stroke-width:1.0;"/><line style="stroke:#181818;stroke-width:1.0;" x1="766.5" x2="1005" y1="271.5293" y2="271.5293"/><text fill="#000000" font-family="sans-serif" font-size="13" font-weight="bold" lengthAdjust="spacing" textLength="9" x="773.5" y="266.7871">6</text><text fill="#000000" font-family="sans-serif" font-size="13" lengthAdjust="spacing" textLength="140" x="786.5" y="266.7871">getVehicleRepository()</text><polygon fill="#181818" points="777.5,296.8398,767.5,300.8398,777.5,304.8398,773.5,300.8398" style="stroke:#181818;stroke-width:1.0;"/><line style="stroke:#181818;stroke-width:1.0;stroke-dasharray:2.0,2.0;" x1="771.5" x2="1015" y1="300.8398" y2="300.8398"/><text fill="#000000" font-family="sans-serif" font-size="13" font-weight="bold" lengthAdjust="spacing" textLength="9" x="783.5" y="296.0977">7</text><text fill="#000000" font-family="sans-serif" font-size="13" lengthAdjust="spacing" textLength="111" x="796.5" y="296.0977">vehicleRepository</text><polygon fill="#181818" points="1135.5,326.1504,1145.5,330.1504,1135.5,334.1504,1139.5,330.1504" style="stroke:#181818;stroke-width:1.0;"/><line style="stroke:#181818;stroke-width:1.0;" x1="766.5" x2="1141.5" y1="330.1504" y2="330.1504"/><text fill="#000000" font-family="sans-serif" font-size="13" font-weight="bold" lengthAdjust="spacing" textLength="9" x="773.5" y="325.4082">8</text><text fill="#000000" font-family="sans-serif" font-size="13" lengthAdjust="spacing" textLength="187" x="786.5" y="325.4082">getVehiclesNeedingCheckup()</text><path d="M1067.5,345.1504 L1141.5,345.1504 L1141.5,352.4609 L1131.5,362.4609 L1067.5,362.4609 L1067.5,345.1504 " fill="#EEEEEE" style="stroke:#000000;stroke-width:1.5;"/><rect fill="none" height="101.9316" style="stroke:#000000;stroke-width:1.5;" width="271" x="1067.5" y="345.1504"/><text fill="#000000" font-family="sans-serif" font-size="13" font-weight="bold" lengthAdjust="spacing" textLength="29" x="1082.5" y="358.7188">loop</text><text fill="#000000" font-family="sans-serif" font-size="11" font-weight="bold" lengthAdjust="spacing" textLength="177" x="1156.5" y="357.7852">[for each vehicle in vehicleList]</text><line style="stroke:#181818;stroke-width:1.0;" x1="1157.5" x2="1204.5" y1="378.7715" y2="378.7715"/><line style="stroke:#181818;stroke-width:1.0;" x1="1204.5" x2="1204.5" y1="378.7715" y2="391.7715"/><line style="stroke:#181818;stroke-width:1.0;" x1="1163.5" x2="1204.5" y1="391.7715" y2="391.7715"/><polygon fill="#181818" points="1173.5,387.7715,1163.5,391.7715,1173.5,395.7715,1169.5,391.7715" style="stroke:#181818;stroke-width:1.0;"/><text fill="#000000" font-family="sans-serif" font-size="13" font-weight="bold" lengthAdjust="spacing" textLength="9" x="1169.5" y="374.0293">9</text><text fill="#000000" font-family="sans-serif" font-size="13" lengthAdjust="spacing" textLength="144" x="1182.5" y="374.0293">needsCheckup(vehicle)</text><line style="stroke:#181818;stroke-width:1.0;stroke-dasharray:2.0,2.0;" x1="1162.5" x2="1204.5" y1="431.082" y2="431.082"/><line style="stroke:#181818;stroke-width:1.0;stroke-dasharray:2.0,2.0;" x1="1204.5" x2="1204.5" y1="431.082" y2="444.082"/><line style="stroke:#181818;stroke-width:1.0;stroke-dasharray:2.0,2.0;" x1="1157.5" x2="1204.5" y1="444.082" y2="444.082"/><polygon fill="#181818" points="1167.5,440.082,1157.5,444.082,1167.5,448.082,1163.5,444.082" style="stroke:#181818;stroke-width:1.0;"/><text fill="#000000" font-family="sans-serif" font-size="13" font-weight="bold" lengthAdjust="spacing" textLength="18" x="1169.5" y="426.3398">10</text><text fill="#000000" font-family="sans-serif" font-size="13" lengthAdjust="spacing" textLength="62" x="1191.5" y="426.3398">true/false</text><polygon fill="#181818" points="777.5,471.3926,767.5,475.3926,777.5,479.3926,773.5,475.3926" style="stroke:#181818;stroke-width:1.0;"/><line style="stroke:#181818;stroke-width:1.0;stroke-dasharray:2.0,2.0;" x1="771.5" x2="1146.5" y1="475.3926" y2="475.3926"/><text fill="#000000" font-family="sans-serif" font-size="13" font-weight="bold" lengthAdjust="spacing" textLength="18" x="783.5" y="470.6504">11</text><text fill="#000000" font-family="sans-serif" font-size="13" lengthAdjust="spacing" textLength="158" x="805.5" y="470.6504">vehiclesNeedingCheckup</text><polygon fill="#181818" points="532.5,500.7031,522.5,504.7031,532.5,508.7031,528.5,504.7031" style="stroke:#181818;stroke-width:1.0;"/><line style="stroke:#181818;stroke-width:1.0;stroke-dasharray:2.0,2.0;" x1="526.5" x2="760.5" y1="504.7031" y2="504.7031"/><text fill="#000000" font-family="sans-serif" font-size="13" font-weight="bold" lengthAdjust="spacing" textLength="18" x="538.5" y="499.9609">12</text><text fill="#000000" font-family="sans-serif" font-size="13" lengthAdjust="spacing" textLength="158" x="560.5" y="499.9609">vehiclesNeedingCheckup</text><polygon fill="#181818" points="67.5,530.0137,57.5,534.0137,67.5,538.0137,63.5,534.0137" style="stroke:#181818;stroke-width:1.0;"/><line style="stroke:#181818;stroke-width:1.0;stroke-dasharray:2.0,2.0;" x1="61.5" x2="515.5" y1="534.0137" y2="534.0137"/><text fill="#000000" font-family="sans-serif" font-size="13" font-weight="bold" lengthAdjust="spacing" textLength="18" x="73.5" y="529.2715">13</text><text fill="#000000" font-family="sans-serif" font-size="13" lengthAdjust="spacing" textLength="404" x="95.5" y="529.2715">Provides a list of vehicles that need check-up (and all their info)</text><!--SRC=[XLJBZYeX4Dtp5HLNEecPlOj99YOc9ZgPp6jrDrowx2OYT83sPlx-5lH3saRjLKETEdKuHU6EKjVSyXESZ3QYikQ4u6s3p0sHceiZB_7J_oe4Yy9pNQeKu2fUc7zIbt3WoY5ZlF56DwU_QEbVU6DXjb687lPS4vET0NUmsJD6-LuAMNFjORPQLoYEJRsJpdzl8-PxUmNvmKeAXG6oDjfRerH7j_xws5s1Fx0sJb9vYIvYXetVJndEG2h7AJR9-AEd1E-xrwznnhaLT66cj9_hlPWxGKPlv9bxZ5vizh1yeHF32bxTqO4tKA966-8S59qOpA5dSQ0HYs2v2AOjc_f2HgOneY6ouCdJ4n4AYnH9jscpH9_O-TRoTJsOBnWhS4GvBABJaOEuCfQsr5ljwA889AOXC-S_op4iEvKhI3kIAifIzQ92cqO7lA1JER6RB88l1QTjIggs6NsP2NHKqqqT7NWoTo5-zm3Ac1eED4iaf-e187N_6vh8WBwfh1jQmnLolRmEi8WKTtJSg72ZH7XAdjjN8IGcLcOjk1j7NJomYEM5TVVzdEqBUwIfxNO_cez9udYaanE6Zj9flbVmRirP5ZI-cOds5VUn9yDCmvph0hXI54DfgTa7ixYQosGLNf7nyZy0]--></g></svg>