<?xml version="1.0" encoding="us-ascii" standalone="no"?><svg xmlns="http://www.w3.org/2000/svg" xmlns:xlink="http://www.w3.org/1999/xlink" contentStyleType="text/css" height="1168px" preserveAspectRatio="none" style="width:1287px;height:1168px;background:#FFFFFF;" version="1.1" viewBox="0 0 1287 1168" width="1287px" zoomAndPan="magnify"><defs/><g><!--class ApplicationSession--><g id="elem_ApplicationSession"><rect codeLine="11" fill="#F1F1F1" height="80.9766" id="ApplicationSession" rx="2.5" ry="2.5" style="stroke:#181818;stroke-width:0.5;" width="162" x="78.5" y="293.6622"/><ellipse cx="93.5" cy="309.6622" fill="#ADD1B2" rx="11" ry="11" style="stroke:#181818;stroke-width:1.0;"/><path d="M96.4731,315.3053 Q95.8921,315.6041 95.2529,315.7535 Q94.6138,315.9029 93.9082,315.9029 Q91.4014,315.9029 90.0815,314.2511 Q88.7617,312.5992 88.7617,309.4781 Q88.7617,306.3487 90.0815,304.6969 Q91.4014,303.045 93.9082,303.045 Q94.6138,303.045 95.2612,303.1944 Q95.9087,303.3438 96.4731,303.6427 L96.4731,306.3653 Q95.8423,305.7843 95.2488,305.5145 Q94.6553,305.2447 94.0244,305.2447 Q92.6797,305.2447 91.9949,306.3114 Q91.3101,307.378 91.3101,309.4781 Q91.3101,311.5699 91.9949,312.6366 Q92.6797,313.7032 94.0244,313.7032 Q94.6553,313.7032 95.2488,313.4334 Q95.8423,313.1637 96.4731,312.5826 Z " fill="#000000"/><text fill="#000000" font-family="sans-serif" font-size="14" lengthAdjust="spacing" textLength="130" x="107.5" y="314.9532">ApplicationSession</text><line style="stroke:#181818;stroke-width:0.5;" x1="79.5" x2="239.5" y1="325.6622" y2="325.6622"/><line style="stroke:#181818;stroke-width:0.5;" x1="79.5" x2="239.5" y1="333.6622" y2="333.6622"/><text fill="#000000" font-family="sans-serif" font-size="14" lengthAdjust="spacing" textLength="140" x="84.5" y="351.1973">+static getInstance()</text><text fill="#000000" font-family="sans-serif" font-size="14" lengthAdjust="spacing" textLength="148" x="84.5" y="367.6856">+getCurrentSession()</text></g><!--class UserSession--><g id="elem_UserSession"><rect codeLine="17" fill="#F1F1F1" height="64.4883" id="UserSession" rx="2.5" ry="2.5" style="stroke:#181818;stroke-width:0.5;" width="123" x="12" y="542.3222"/><ellipse cx="30.6" cy="558.3222" fill="#ADD1B2" rx="11" ry="11" style="stroke:#181818;stroke-width:1.0;"/><path d="M33.5731,563.9653 Q32.9921,564.2641 32.3529,564.4135 Q31.7138,564.5629 31.0082,564.5629 Q28.5014,564.5629 27.1815,562.9111 Q25.8617,561.2592 25.8617,558.1381 Q25.8617,555.0087 27.1815,553.3569 Q28.5014,551.705 31.0082,551.705 Q31.7138,551.705 32.3612,551.8544 Q33.0087,552.0038 33.5731,552.3027 L33.5731,555.0253 Q32.9423,554.4443 32.3488,554.1745 Q31.7553,553.9047 31.1244,553.9047 Q29.7797,553.9047 29.0949,554.9714 Q28.4101,556.038 28.4101,558.1381 Q28.4101,560.2299 29.0949,561.2966 Q29.7797,562.3632 31.1244,562.3632 Q31.7553,562.3632 32.3488,562.0934 Q32.9423,561.8237 33.5731,561.2426 Z " fill="#000000"/><text fill="#000000" font-family="sans-serif" font-size="14" lengthAdjust="spacing" textLength="83" x="45.4" y="563.6132">UserSession</text><line style="stroke:#181818;stroke-width:0.5;" x1="13" x2="134" y1="574.3222" y2="574.3222"/><line style="stroke:#181818;stroke-width:0.5;" x1="13" x2="134" y1="582.3222" y2="582.3222"/><text fill="#000000" font-family="sans-serif" font-size="14" lengthAdjust="spacing" textLength="111" x="18" y="599.8573">+getUserEmail()</text></g><!--class Employee--><g id="elem_Employee"><rect codeLine="22" fill="#F1F1F1" height="113.9531" id="Employee" rx="2.5" ry="2.5" style="stroke:#181818;stroke-width:0.5;" width="98" x="864.5" y="1047.8922"/><ellipse cx="879.5" cy="1063.8922" fill="#ADD1B2" rx="11" ry="11" style="stroke:#181818;stroke-width:1.0;"/><path d="M882.4731,1069.5353 Q881.8921,1069.8341 881.2529,1069.9835 Q880.6138,1070.1329 879.9082,1070.1329 Q877.4014,1070.1329 876.0815,1068.4811 Q874.7617,1066.8292 874.7617,1063.7081 Q874.7617,1060.5787 876.0815,1058.9269 Q877.4014,1057.275 879.9082,1057.275 Q880.6138,1057.275 881.2612,1057.4244 Q881.9087,1057.5738 882.4731,1057.8727 L882.4731,1060.5953 Q881.8423,1060.0143 881.2488,1059.7445 Q880.6553,1059.4747 880.0244,1059.4747 Q878.6797,1059.4747 877.9949,1060.5414 Q877.3101,1061.608 877.3101,1063.7081 Q877.3101,1065.7999 877.9949,1066.8666 Q878.6797,1067.9332 880.0244,1067.9332 Q880.6553,1067.9332 881.2488,1067.6634 Q881.8423,1067.3937 882.4731,1066.8126 Z " fill="#000000"/><text fill="#000000" font-family="sans-serif" font-size="14" lengthAdjust="spacing" textLength="66" x="893.5" y="1069.1832">Employee</text><line style="stroke:#181818;stroke-width:0.5;" x1="865.5" x2="961.5" y1="1079.8922" y2="1079.8922"/><text fill="#000000" font-family="sans-serif" font-size="14" lengthAdjust="spacing" textLength="46" x="870.5" y="1097.4273">-name</text><text fill="#000000" font-family="sans-serif" font-size="14" lengthAdjust="spacing" textLength="45" x="870.5" y="1113.9156">-email</text><text fill="#000000" font-family="sans-serif" font-size="14" lengthAdjust="spacing" textLength="64" x="870.5" y="1130.4039">-position</text><text fill="#000000" font-family="sans-serif" font-size="14" lengthAdjust="spacing" textLength="52" x="870.5" y="1146.8922">-phone</text><line style="stroke:#181818;stroke-width:0.5;" x1="865.5" x2="961.5" y1="1153.8453" y2="1153.8453"/></g><!--class Task--><g id="elem_Task"><rect codeLine="29" fill="#F1F1F1" height="196.3945" id="Task" rx="2.5" ry="2.5" style="stroke:#181818;stroke-width:0.5;" width="299" x="621" y="774.4922"/><ellipse cx="750.25" cy="790.4922" fill="#ADD1B2" rx="11" ry="11" style="stroke:#181818;stroke-width:1.0;"/><path d="M753.2231,796.1353 Q752.6421,796.4341 752.0029,796.5835 Q751.3638,796.7329 750.6582,796.7329 Q748.1514,796.7329 746.8315,795.0811 Q745.5117,793.4292 745.5117,790.3081 Q745.5117,787.1787 746.8315,785.5269 Q748.1514,783.875 750.6582,783.875 Q751.3638,783.875 752.0112,784.0244 Q752.6587,784.1738 753.2231,784.4727 L753.2231,787.1953 Q752.5923,786.6143 751.9988,786.3445 Q751.4053,786.0747 750.7744,786.0747 Q749.4297,786.0747 748.7449,787.1414 Q748.0601,788.208 748.0601,790.3081 Q748.0601,792.3999 748.7449,793.4666 Q749.4297,794.5332 750.7744,794.5332 Q751.4053,794.5332 751.9988,794.2634 Q752.5923,793.9937 753.2231,793.4126 Z " fill="#000000"/><text fill="#000000" font-family="sans-serif" font-size="14" lengthAdjust="spacing" textLength="32" x="770.75" y="795.7832">Task</text><line style="stroke:#181818;stroke-width:0.5;" x1="622" x2="919" y1="806.4922" y2="806.4922"/><text fill="#000000" font-family="sans-serif" font-size="14" lengthAdjust="spacing" textLength="118" x="627" y="824.0273">-String reference</text><text fill="#000000" font-family="sans-serif" font-size="14" lengthAdjust="spacing" textLength="130" x="627" y="840.5156">-String description</text><text fill="#000000" font-family="sans-serif" font-size="14" lengthAdjust="spacing" textLength="189" x="627" y="857.0039">-String informalDescription</text><text fill="#000000" font-family="sans-serif" font-size="14" lengthAdjust="spacing" textLength="192" x="627" y="873.4922">-String technicalDescription</text><text fill="#000000" font-family="sans-serif" font-size="14" lengthAdjust="spacing" textLength="120" x="627" y="889.9805">-Integer duration</text><text fill="#000000" font-family="sans-serif" font-size="14" lengthAdjust="spacing" textLength="89" x="627" y="906.4687">-Double cost</text><line style="stroke:#181818;stroke-width:0.5;" x1="622" x2="919" y1="913.4219" y2="913.4219"/><text fill="#000000" font-family="sans-serif" font-size="14" lengthAdjust="spacing" textLength="202" x="627" y="930.957">+Task(reference, description,</text><text fill="#000000" font-family="sans-serif" font-size="14" lengthAdjust="spacing" textLength="287" x="627" y="947.4453">informalDescription, technicalDescription,</text><text fill="#000000" font-family="sans-serif" font-size="14" lengthAdjust="spacing" textLength="272" x="627" y="963.9336">duration, cost, createdBy, taskCategory)</text></g><!--class TaskCategory--><g id="elem_TaskCategory"><rect codeLine="40" fill="#F1F1F1" height="80.9766" id="TaskCategory" rx="2.5" ry="2.5" style="stroke:#181818;stroke-width:0.5;" width="204" x="357.5" y="1064.3822"/><ellipse cx="408.25" cy="1080.3822" fill="#ADD1B2" rx="11" ry="11" style="stroke:#181818;stroke-width:1.0;"/><path d="M411.2231,1086.0253 Q410.6421,1086.3241 410.0029,1086.4735 Q409.3638,1086.6229 408.6582,1086.6229 Q406.1514,1086.6229 404.8315,1084.9711 Q403.5117,1083.3192 403.5117,1080.1981 Q403.5117,1077.0687 404.8315,1075.4169 Q406.1514,1073.765 408.6582,1073.765 Q409.3638,1073.765 410.0112,1073.9144 Q410.6587,1074.0638 411.2231,1074.3627 L411.2231,1077.0853 Q410.5923,1076.5043 409.9988,1076.2345 Q409.4053,1075.9647 408.7744,1075.9647 Q407.4297,1075.9647 406.7449,1077.0314 Q406.0601,1078.098 406.0601,1080.1981 Q406.0601,1082.2899 406.7449,1083.3566 Q407.4297,1084.4232 408.7744,1084.4232 Q409.4053,1084.4232 409.9988,1084.1534 Q410.5923,1083.8837 411.2231,1083.3026 Z " fill="#000000"/><text fill="#000000" font-family="sans-serif" font-size="14" lengthAdjust="spacing" textLength="94" x="428.75" y="1085.6732">TaskCategory</text><line style="stroke:#181818;stroke-width:0.5;" x1="358.5" x2="560.5" y1="1096.3822" y2="1096.3822"/><text fill="#000000" font-family="sans-serif" font-size="14" lengthAdjust="spacing" textLength="130" x="363.5" y="1113.9173">-String description</text><line style="stroke:#181818;stroke-width:0.5;" x1="358.5" x2="560.5" y1="1120.8705" y2="1120.8705"/><text fill="#000000" font-family="sans-serif" font-size="14" lengthAdjust="spacing" textLength="192" x="363.5" y="1138.4056">+TaskCategory(description)</text></g><!--class Organization--><g id="elem_Organization"><rect codeLine="46" fill="#F1F1F1" height="245.8594" id="Organization" rx="2.5" ry="2.5" style="stroke:#181818;stroke-width:0.5;" width="577" x="702" y="451.6322"/><ellipse cx="941.25" cy="467.6322" fill="#ADD1B2" rx="11" ry="11" style="stroke:#181818;stroke-width:1.0;"/><path d="M944.2231,473.2753 Q943.6421,473.5741 943.0029,473.7235 Q942.3638,473.8729 941.6582,473.8729 Q939.1514,473.8729 937.8315,472.2211 Q936.5117,470.5692 936.5117,467.4481 Q936.5117,464.3187 937.8315,462.6669 Q939.1514,461.015 941.6582,461.015 Q942.3638,461.015 943.0112,461.1644 Q943.6587,461.3138 944.2231,461.6127 L944.2231,464.3353 Q943.5923,463.7543 942.9988,463.4845 Q942.4053,463.2147 941.7744,463.2147 Q940.4297,463.2147 939.7449,464.2814 Q939.0601,465.348 939.0601,467.4481 Q939.0601,469.5399 939.7449,470.6066 Q940.4297,471.6732 941.7744,471.6732 Q942.4053,471.6732 942.9988,471.4034 Q943.5923,471.1337 944.2231,470.5526 Z " fill="#000000"/><text fill="#000000" font-family="sans-serif" font-size="14" lengthAdjust="spacing" textLength="90" x="961.75" y="472.9232">Organization</text><line style="stroke:#181818;stroke-width:0.5;" x1="703" x2="1278" y1="483.6322" y2="483.6322"/><text fill="#000000" font-family="sans-serif" font-size="14" lengthAdjust="spacing" textLength="91" x="708" y="501.1673">-String name</text><text fill="#000000" font-family="sans-serif" font-size="14" lengthAdjust="spacing" textLength="128" x="708" y="517.6556">-String vatNumber</text><text fill="#000000" font-family="sans-serif" font-size="14" lengthAdjust="spacing" textLength="105" x="708" y="534.1439">-String website</text><text fill="#000000" font-family="sans-serif" font-size="14" lengthAdjust="spacing" textLength="97" x="708" y="550.6322">-String phone</text><text fill="#000000" font-family="sans-serif" font-size="14" lengthAdjust="spacing" textLength="90" x="708" y="567.1205">-String email</text><line style="stroke:#181818;stroke-width:0.5;" x1="703" x2="1278" y1="574.0736" y2="574.0736"/><text fill="#000000" font-family="sans-serif" font-size="14" lengthAdjust="spacing" textLength="104" x="708" y="591.6087">-addTask(task)</text><text fill="#000000" font-family="sans-serif" font-size="14" lengthAdjust="spacing" textLength="131" x="708" y="608.097">-validateTask(task)</text><text fill="#000000" font-family="sans-serif" font-size="14" lengthAdjust="spacing" textLength="210" x="708" y="624.5853">+anyEmployeeHasEmail(email)</text><text fill="#000000" font-family="sans-serif" font-size="14" lengthAdjust="spacing" textLength="565" x="708" y="641.0736">+Organization(name, vatNumber, webSite, phone, email, postalAddress, manager)</text><text fill="#000000" font-family="sans-serif" font-size="14" lengthAdjust="spacing" textLength="395" x="708" y="657.5619">+createTask(reference, description, informalDesccription,</text><text fill="#000000" font-family="sans-serif" font-size="14" lengthAdjust="spacing" textLength="423" x="708" y="674.0502">technicalDescription, duration, cost, taskCategoryDescription)</text><text fill="#000000" font-family="sans-serif" font-size="14" lengthAdjust="spacing" textLength="195" x="708" y="690.5384">-getEmployeeByEmail(email)</text></g><!--class TaskCategoryRepository--><g id="elem_TaskCategoryRepository"><rect codeLine="63" fill="#F1F1F1" height="64.4883" id="TaskCategoryRepository" rx="2.5" ry="2.5" style="stroke:#181818;stroke-width:0.5;" width="319" x="430" y="301.9022"/><ellipse cx="501.75" cy="317.9022" fill="#ADD1B2" rx="11" ry="11" style="stroke:#181818;stroke-width:1.0;"/><path d="M504.7231,323.5453 Q504.1421,323.8441 503.5029,323.9935 Q502.8638,324.1429 502.1582,324.1429 Q499.6514,324.1429 498.3315,322.4911 Q497.0117,320.8392 497.0117,317.7181 Q497.0117,314.5887 498.3315,312.9369 Q499.6514,311.285 502.1582,311.285 Q502.8638,311.285 503.5112,311.4344 Q504.1587,311.5838 504.7231,311.8827 L504.7231,314.6053 Q504.0923,314.0243 503.4988,313.7545 Q502.9053,313.4847 502.2744,313.4847 Q500.9297,313.4847 500.2449,314.5514 Q499.5601,315.618 499.5601,317.7181 Q499.5601,319.8099 500.2449,320.8766 Q500.9297,321.9432 502.2744,321.9432 Q502.9053,321.9432 503.4988,321.6734 Q504.0923,321.4037 504.7231,320.8226 Z " fill="#000000"/><text fill="#000000" font-family="sans-serif" font-size="14" lengthAdjust="spacing" textLength="167" x="522.25" y="323.1932">TaskCategoryRepository</text><line style="stroke:#181818;stroke-width:0.5;" x1="431" x2="748" y1="333.9022" y2="333.9022"/><line style="stroke:#181818;stroke-width:0.5;" x1="431" x2="748" y1="341.9022" y2="341.9022"/><text fill="#000000" font-family="sans-serif" font-size="14" lengthAdjust="spacing" textLength="307" x="436" y="359.4373">+getTaskCategoryByDescription(description)</text></g><!--class OrganizationRepository--><g id="elem_OrganizationRepository"><rect codeLine="67" fill="#F1F1F1" height="64.4883" id="OrganizationRepository" rx="2.5" ry="2.5" style="stroke:#181818;stroke-width:0.5;" width="300" x="935.5" y="301.9022"/><ellipse cx="999.75" cy="317.9022" fill="#ADD1B2" rx="11" ry="11" style="stroke:#181818;stroke-width:1.0;"/><path d="M1002.7231,323.5453 Q1002.1421,323.8441 1001.5029,323.9935 Q1000.8638,324.1429 1000.1582,324.1429 Q997.6514,324.1429 996.3315,322.4911 Q995.0117,320.8392 995.0117,317.7181 Q995.0117,314.5887 996.3315,312.9369 Q997.6514,311.285 1000.1582,311.285 Q1000.8638,311.285 1001.5112,311.4344 Q1002.1587,311.5838 1002.7231,311.8827 L1002.7231,314.6053 Q1002.0923,314.0243 1001.4988,313.7545 Q1000.9053,313.4847 1000.2744,313.4847 Q998.9297,313.4847 998.2449,314.5514 Q997.5601,315.618 997.5601,317.7181 Q997.5601,319.8099 998.2449,320.8766 Q998.9297,321.9432 1000.2744,321.9432 Q1000.9053,321.9432 1001.4988,321.6734 Q1002.0923,321.4037 1002.7231,320.8226 Z " fill="#000000"/><text fill="#000000" font-family="sans-serif" font-size="14" lengthAdjust="spacing" textLength="163" x="1020.25" y="323.1932">OrganizationRepository</text><line style="stroke:#181818;stroke-width:0.5;" x1="936.5" x2="1234.5" y1="333.9022" y2="333.9022"/><line style="stroke:#181818;stroke-width:0.5;" x1="936.5" x2="1234.5" y1="341.9022" y2="341.9022"/><text fill="#000000" font-family="sans-serif" font-size="14" lengthAdjust="spacing" textLength="288" x="941.5" y="359.4373">+getOrganizationByEmployeeEmail(email)</text></g><!--class Repositories--><g id="elem_Repositories"><rect codeLine="71" fill="#F1F1F1" height="113.9531" id="Repositories" rx="2.5" ry="2.5" style="stroke:#181818;stroke-width:0.5;" width="222" x="958.5" y="77.9722"/><ellipse cx="1022.75" cy="93.9722" fill="#ADD1B2" rx="11" ry="11" style="stroke:#181818;stroke-width:1.0;"/><path d="M1025.7231,99.6153 Q1025.1421,99.9141 1024.5029,100.0635 Q1023.8638,100.2129 1023.1582,100.2129 Q1020.6514,100.2129 1019.3315,98.5611 Q1018.0117,96.9092 1018.0117,93.7881 Q1018.0117,90.6587 1019.3315,89.0069 Q1020.6514,87.355 1023.1582,87.355 Q1023.8638,87.355 1024.5112,87.5044 Q1025.1587,87.6538 1025.7231,87.9527 L1025.7231,90.6753 Q1025.0923,90.0943 1024.4988,89.8245 Q1023.9053,89.5547 1023.2744,89.5547 Q1021.9297,89.5547 1021.2449,90.6214 Q1020.5601,91.688 1020.5601,93.7881 Q1020.5601,95.8799 1021.2449,96.9466 Q1021.9297,98.0132 1023.2744,98.0132 Q1023.9053,98.0132 1024.4988,97.7434 Q1025.0923,97.4737 1025.7231,96.8926 Z " fill="#000000"/><text fill="#000000" font-family="sans-serif" font-size="14" lengthAdjust="spacing" textLength="85" x="1043.25" y="99.2632">Repositories</text><line style="stroke:#181818;stroke-width:0.5;" x1="959.5" x2="1179.5" y1="109.9722" y2="109.9722"/><line style="stroke:#181818;stroke-width:0.5;" x1="959.5" x2="1179.5" y1="117.9722" y2="117.9722"/><text fill="#000000" font-family="sans-serif" font-size="14" lengthAdjust="spacing" textLength="103" x="964.5" y="135.5073">-Repositories()</text><text fill="#000000" font-family="sans-serif" font-size="14" lengthAdjust="spacing" textLength="197" x="964.5" y="151.9956">+getInstance() : Repositories</text><text fill="#000000" font-family="sans-serif" font-size="14" lengthAdjust="spacing" textLength="210" x="964.5" y="168.4839">+getTaskCategoryRepository()</text><text fill="#000000" font-family="sans-serif" font-size="14" lengthAdjust="spacing" textLength="206" x="964.5" y="184.9722">+getOrganizationRepository()</text></g><!--class CreateTaskController--><g id="elem_CreateTaskController"><rect codeLine="78" fill="#F1F1F1" height="163.418" id="CreateTaskController" rx="2.5" ry="2.5" style="stroke:#181818;stroke-width:0.5;" width="512" x="164.5" y="53.2422"/><ellipse cx="342.75" cy="69.2422" fill="#ADD1B2" rx="11" ry="11" style="stroke:#181818;stroke-width:1.0;"/><path d="M345.7231,74.8853 Q345.1421,75.1841 344.5029,75.3335 Q343.8638,75.4829 343.1582,75.4829 Q340.6514,75.4829 339.3315,73.8311 Q338.0117,72.1792 338.0117,69.0581 Q338.0117,65.9287 339.3315,64.2769 Q340.6514,62.625 343.1582,62.625 Q343.8638,62.625 344.5112,62.7744 Q345.1587,62.9238 345.7231,63.2227 L345.7231,65.9453 Q345.0923,65.3643 344.4988,65.0945 Q343.9053,64.8247 343.2744,64.8247 Q341.9297,64.8247 341.2449,65.8914 Q340.5601,66.958 340.5601,69.0581 Q340.5601,71.1499 341.2449,72.2166 Q341.9297,73.2832 343.2744,73.2832 Q343.9053,73.2832 344.4988,73.0134 Q345.0923,72.7437 345.7231,72.1626 Z " fill="#000000"/><text fill="#000000" font-family="sans-serif" font-size="14" lengthAdjust="spacing" textLength="147" x="363.25" y="74.5332">CreateTaskController</text><line style="stroke:#181818;stroke-width:0.5;" x1="165.5" x2="675.5" y1="85.2422" y2="85.2422"/><line style="stroke:#181818;stroke-width:0.5;" x1="165.5" x2="675.5" y1="93.2422" y2="93.2422"/><text fill="#000000" font-family="sans-serif" font-size="14" lengthAdjust="spacing" textLength="500" x="170.5" y="110.7773">+CreateTaskController(organizationRepository, taskCategoryRepository)</text><text fill="#000000" font-family="sans-serif" font-size="14" lengthAdjust="spacing" textLength="149" x="170.5" y="127.2656">+getTaskCategories()</text><text fill="#000000" font-family="sans-serif" font-size="14" lengthAdjust="spacing" textLength="319" x="170.5" y="143.7539">+createTask(userEmail, reference, description,</text><text fill="#000000" font-family="sans-serif" font-size="14" lengthAdjust="spacing" textLength="287" x="170.5" y="160.2422">informalDescription, technicalDescription,</text><text fill="#000000" font-family="sans-serif" font-size="14" lengthAdjust="spacing" textLength="245" x="170.5" y="176.7305">duration, cost, categoryDescription)</text><text fill="#000000" font-family="sans-serif" font-size="14" lengthAdjust="spacing" textLength="395" x="170.5" y="193.2188">-getTaskCategoryByDescription(taskCategoryDescription)</text><text fill="#000000" font-family="sans-serif" font-size="14" lengthAdjust="spacing" textLength="194" x="170.5" y="209.707">-getEmployeeFromSession()</text></g><g id="elem_GMN12"><path d="M711.5,99.3322 L711.5,170.5744 L923.5,170.5744 L923.5,109.3322 L913.5,99.3322 L711.5,99.3322 " fill="#FEFFDD" style="stroke:#181818;stroke-width:0.5;"/><path d="M913.5,99.3322 L913.5,109.3322 L923.5,109.3322 L913.5,99.3322 " fill="#FEFFDD" style="stroke:#181818;stroke-width:1.0;"/><text fill="#000000" font-family="sans-serif" font-size="13" lengthAdjust="spacing" textLength="147" x="717.5" y="116.9005">- userEmail is obtained</text><text fill="#000000" font-family="sans-serif" font-size="13" lengthAdjust="spacing" textLength="137" x="717.5" y="132.2111">from the user session</text><text fill="#000000" font-family="sans-serif" font-size="13" lengthAdjust="spacing" textLength="139" x="717.5" y="147.5216">- categoryDescription</text><text fill="#000000" font-family="sans-serif" font-size="13" lengthAdjust="spacing" textLength="191" x="717.5" y="162.8322">is retrieved from selected data</text></g><g id="elem_GMN15"><path d="M512.5,554.2522 L512.5,594.8733 A0,0 0 0 0 512.5,594.8733 L666.5,594.8733 A0,0 0 0 0 666.5,594.8733 L666.5,564.2522 L656.5,554.2522 L593.5,554.2522 L589.5,366.8022 L585.5,554.2522 L512.5,554.2522 A0,0 0 0 0 512.5,554.2522 " fill="#FEFFDD" style="stroke:#181818;stroke-width:0.5;"/><path d="M656.5,554.2522 L656.5,564.2522 L666.5,564.2522 L656.5,554.2522 " fill="#FEFFDD" style="stroke:#181818;stroke-width:0.5;"/><text fill="#000000" font-family="sans-serif" font-size="13" lengthAdjust="spacing" textLength="133" x="518.5" y="571.8205">- used for displaying</text><text fill="#000000" font-family="sans-serif" font-size="13" lengthAdjust="spacing" textLength="102" x="518.5" y="587.1311">the category list</text></g><!--class CreateTaskUI--><g id="elem_CreateTaskUI"><rect codeLine="98" fill="#F1F1F1" height="48" id="CreateTaskUI" rx="2.5" ry="2.5" style="stroke:#181818;stroke-width:0.5;" width="123" x="7" y="110.9522"/><ellipse cx="22" cy="126.9522" fill="#ADD1B2" rx="11" ry="11" style="stroke:#181818;stroke-width:1.0;"/><path d="M24.9731,132.5953 Q24.3921,132.8941 23.7529,133.0435 Q23.1138,133.1929 22.4082,133.1929 Q19.9014,133.1929 18.5815,131.5411 Q17.2617,129.8892 17.2617,126.7681 Q17.2617,123.6387 18.5815,121.9869 Q19.9014,120.335 22.4082,120.335 Q23.1138,120.335 23.7612,120.4844 Q24.4087,120.6338 24.9731,120.9327 L24.9731,123.6553 Q24.3423,123.0743 23.7488,122.8045 Q23.1553,122.5347 22.5244,122.5347 Q21.1797,122.5347 20.4949,123.6014 Q19.8101,124.668 19.8101,126.7681 Q19.8101,128.8599 20.4949,129.9266 Q21.1797,130.9932 22.5244,130.9932 Q23.1553,130.9932 23.7488,130.7234 Q24.3423,130.4537 24.9731,129.8726 Z " fill="#000000"/><text fill="#000000" font-family="sans-serif" font-size="14" lengthAdjust="spacing" textLength="91" x="36" y="132.2432">CreateTaskUI</text><line style="stroke:#181818;stroke-width:0.5;" x1="8" x2="129" y1="142.9522" y2="142.9522"/><line style="stroke:#181818;stroke-width:0.5;" x1="8" x2="129" y1="150.9522" y2="150.9522"/></g><!--link CreateTaskController to GMN12--><g id="link_CreateTaskController_GMN12"><path d="M676.89,134.9522 C682.1,134.9522 685.17,134.9522 685.17,134.9522 C685.17,134.9522 695.93,134.9522 711.31,134.9522 " fill="none" id="CreateTaskController-GMN12" style="stroke:#181818;stroke-width:1.0;stroke-dasharray:7.0,7.0;"/></g><!--link Repositories to Repositories--><g id="link_Repositories_Repositories"><path codeLine="101" d="M1180.9,113.6522 C1201.24,116.3422 1215.5,123.4422 1215.5,134.9522 C1215.5,146.4522 1207.1878,152.7627 1186.8478,155.4627 " fill="none" id="Repositories-to-Repositories" style="stroke:#181818;stroke-width:1.0;"/><polygon fill="#181818" points="1180.9,156.2522,1190.3481,159.0331,1185.8565,155.5942,1189.2954,151.1027,1180.9,156.2522" style="stroke:#181818;stroke-width:1.0;"/><text fill="#000000" font-family="sans-serif" font-size="13" lengthAdjust="spacing" textLength="53" x="1221.5" y="140.0205">instance</text></g><!--link ApplicationSession to ApplicationSession--><g id="link_ApplicationSession_ApplicationSession"><path codeLine="102" d="M240.81,319.5722 C260.7,320.6522 275.5,325.5122 275.5,334.1422 C275.5,342.7822 266.6912,347.3169 246.8012,348.3969 " fill="none" id="ApplicationSession-to-ApplicationSession" style="stroke:#181818;stroke-width:1.0;"/><polygon fill="#181818" points="240.81,348.7222,250.0136,352.2283,245.8026,348.4511,249.5799,344.2401,240.81,348.7222" style="stroke:#181818;stroke-width:1.0;"/><text fill="#000000" font-family="sans-serif" font-size="13" lengthAdjust="spacing" textLength="53" x="281.5" y="339.2105">instance</text></g><!--link CreateTaskUI to CreateTaskController--><g id="link_CreateTaskUI_CreateTaskController"><path codeLine="104" d="M130.26,134.9522 C142.41,134.9522 148.37,134.9522 158.08,134.9522 " fill="none" id="CreateTaskUI-to-CreateTaskController" style="stroke:#181818;stroke-width:1.0;stroke-dasharray:7.0,7.0;"/><polygon fill="#181818" points="164.08,134.9522,155.08,130.9522,159.08,134.9522,155.08,138.9522,164.08,134.9522" style="stroke:#181818;stroke-width:1.0;"/></g><!--link CreateTaskController to Repositories--><g id="link_CreateTaskController_Repositories"><path codeLine="106" d="M676.75,57.2722 C734.44,39.7822 779,26.2722 779,26.2722 C779,26.2722 856,26.2722 856,26.2722 C856,26.2722 940.5,53.2422 940.5,53.2422 C940.5,53.2422 952.2708,60.7024 973.7808,74.3224 " fill="none" id="CreateTaskController-to-Repositories" style="stroke:#181818;stroke-width:1.0;stroke-dasharray:7.0,7.0;"/><polygon fill="#181818" points="978.85,77.5322,973.386,69.338,974.6256,74.8573,969.1063,76.097,978.85,77.5322" style="stroke:#181818;stroke-width:1.0;"/><text fill="#000000" font-family="sans-serif" font-size="13" lengthAdjust="spacing" textLength="75" x="780" y="19.8105">repositories</text></g><!--link Repositories to TaskCategoryRepository--><g id="link_Repositories_TaskCategoryRepository"><path codeLine="108" d="M1050.51,192.3322 C1039,226.5522 1026.5,263.6622 1026.5,263.6622 C1026.5,263.6622 776.5,293.6622 776.5,293.6622 C776.5,293.6622 767.1606,295.6327 745.4206,300.2227 " fill="none" id="Repositories-to-TaskCategoryRepository" style="stroke:#181818;stroke-width:1.0;"/><polygon fill="#181818" points="739.55,301.4622,749.1822,303.5167,744.4422,300.4293,747.5296,295.6893,739.55,301.4622" style="stroke:#181818;stroke-width:1.0;"/><text fill="#000000" font-family="sans-serif" font-size="13" lengthAdjust="spacing" textLength="8" x="756.6523" y="292.1506">1</text></g><!--link CreateTaskController to TaskCategory--><g id="link_CreateTaskController_TaskCategory"><path codeLine="110" d="M402.41,217.0122 C390.28,271.4022 376.5,333.1422 376.5,333.1422 C376.5,333.1422 376.5,333.1422 376.5,873.6922 C376.5,873.6922 419.3444,992.508 443.1044,1058.388 " fill="none" id="CreateTaskController-to-TaskCategory" style="stroke:#181818;stroke-width:1.0;stroke-dasharray:7.0,7.0;"/><polygon fill="#181818" points="445.14,1064.0322,445.8494,1054.2089,443.4437,1059.3287,438.3238,1056.923,445.14,1064.0322" style="stroke:#181818;stroke-width:1.0;"/></g><!--link CreateTaskController to OrganizationRepository--><g id="link_CreateTaskController_OrganizationRepository"><path codeLine="111" d="M676.94,211.4822 C687.98,214.7322 694.5,216.6622 694.5,216.6622 C694.5,216.6622 838.5,246.6622 838.5,246.6622 C838.5,246.6622 918.7771,274.7695 989.2671,299.4495 " fill="none" id="CreateTaskController-to-OrganizationRepository" style="stroke:#181818;stroke-width:1.0;stroke-dasharray:7.0,7.0;"/><polygon fill="#181818" points="994.93,301.4322,987.7574,294.6828,990.2109,299.7799,985.1138,302.2334,994.93,301.4322" style="stroke:#181818;stroke-width:1.0;"/><text fill="#000000" font-family="sans-serif" font-size="13" lengthAdjust="spacing" textLength="146" x="887.5" y="260.2305">organizationRepository</text></g><!--link CreateTaskController to TaskCategoryRepository--><g id="link_CreateTaskController_TaskCategoryRepository"><path codeLine="112" d="M489.97,217.0122 C515.46,246.7522 538.9361,274.1459 558.5061,296.9859 " fill="none" id="CreateTaskController-to-TaskCategoryRepository" style="stroke:#181818;stroke-width:1.0;stroke-dasharray:7.0,7.0;"/><polygon fill="#181818" points="562.41,301.5422,559.5916,292.1052,559.1567,297.7453,553.5166,297.3104,562.41,301.5422" style="stroke:#181818;stroke-width:1.0;"/><text fill="#000000" font-family="sans-serif" font-size="13" lengthAdjust="spacing" textLength="153" x="526.5" y="260.2305">TaskCategoryRepository</text></g><!--link Repositories to OrganizationRepository--><g id="link_Repositories_OrganizationRepository"><path codeLine="114" d="M1074.06,192.1922 C1076.95,227.7122 1080.0738,266.3019 1082.4638,295.7019 " fill="none" id="Repositories-to-OrganizationRepository" style="stroke:#181818;stroke-width:1.0;"/><polygon fill="#181818" points="1082.95,301.6822,1086.2076,292.3877,1082.5449,296.6986,1078.2339,293.0359,1082.95,301.6822" style="stroke:#181818;stroke-width:1.0;"/><text fill="#000000" font-family="sans-serif" font-size="13" lengthAdjust="spacing" textLength="8" x="1073.5991" y="291.04">1</text></g><!--link OrganizationRepository to Organization--><g id="link_OrganizationRepository_Organization"><path codeLine="116" d="M1072.88,366.8022 C1064.08,388.9122 1053.9198,414.3879 1041.4398,445.7279 " fill="none" id="OrganizationRepository-to-Organization" style="stroke:#181818;stroke-width:1.0;"/><polygon fill="#181818" points="1039.22,451.3022,1046.2658,444.4206,1041.0698,446.6569,1038.8334,441.4609,1039.22,451.3022" style="stroke:#181818;stroke-width:1.0;"/><text fill="#000000" font-family="sans-serif" font-size="13" lengthAdjust="spacing" textLength="6" x="1036.0061" y="440.9118">*</text></g><!--link ApplicationSession to UserSession--><g id="link_ApplicationSession_UserSession"><path codeLine="117" d="M145.11,375.0522 C128.18,421.9822 102.4665,493.2684 86.9465,536.2784 " fill="none" id="ApplicationSession-to-UserSession" style="stroke:#181818;stroke-width:1.0;"/><polygon fill="#181818" points="84.91,541.9222,91.7274,534.8142,86.6071,537.219,84.2023,532.0988,84.91,541.9222" style="stroke:#181818;stroke-width:1.0;"/><text fill="#000000" font-family="sans-serif" font-size="13" lengthAdjust="spacing" textLength="75" x="135.5" y="418.2005">userSession</text><text fill="#000000" font-family="sans-serif" font-size="13" lengthAdjust="spacing" textLength="8" x="78.3688" y="531.6177">1</text></g><!--link CreateTaskController to Organization--><g id="link_CreateTaskController_Organization"><path codeLine="119" d="M617.03,217.1322 C657.73,233.9422 688.5,246.6622 688.5,246.6622 C688.5,246.6622 766.5,293.6622 766.5,293.6622 C766.5,293.6622 828.5509,371.1977 888.8309,446.5177 " fill="none" id="CreateTaskController-to-Organization" style="stroke:#181818;stroke-width:1.0;stroke-dasharray:7.0,7.0;"/><polygon fill="#181818" points="892.58,451.2022,890.0794,441.6761,889.4558,447.2985,883.8334,446.6748,892.58,451.2022" style="stroke:#181818;stroke-width:1.0;"/><text fill="#000000" font-family="sans-serif" font-size="13" lengthAdjust="spacing" textLength="79" x="829.5" y="339.2105">organization</text><text fill="#000000" font-family="sans-serif" font-size="13" lengthAdjust="spacing" textLength="8" x="878.3693" y="440.8057">1</text></g><!--link CreateTaskController to ApplicationSession--><g id="link_CreateTaskController_ApplicationSession"><path codeLine="120" d="M313.21,217.0122 C278.34,243.3522 245.9765,267.8043 216.9365,289.7543 " fill="none" id="CreateTaskController-to-ApplicationSession" style="stroke:#181818;stroke-width:1.0;stroke-dasharray:7.0,7.0;"/><polygon fill="#181818" points="212.15,293.3722,221.7417,291.1363,216.1388,290.3573,216.9178,284.7543,212.15,293.3722" style="stroke:#181818;stroke-width:1.0;"/></g><!--link CreateTaskController to UserSession--><g id="link_CreateTaskController_UserSession"><path codeLine="121" d="M235.23,217.1122 C147.02,255.7522 60.5,293.6622 60.5,293.6622 C60.5,293.6622 60.5,374.6322 60.5,374.6322 C60.5,374.6322 67.3783,479.965 71.0483,536.055 " fill="none" id="CreateTaskController-to-UserSession" style="stroke:#181818;stroke-width:1.0;stroke-dasharray:7.0,7.0;"/><polygon fill="#181818" points="71.44,542.0422,74.8438,532.8002,71.1135,537.0529,66.8609,533.3226,71.44,542.0422" style="stroke:#181818;stroke-width:1.0;"/></g><!--link Task to TaskCategory--><g id="link_Task_TaskCategory"><path codeLine="122" d="M638.61,971.3022 C594.57,1003.9022 552.7726,1034.8326 518.1326,1060.4726 " fill="none" id="Task-to-TaskCategory" style="stroke:#181818;stroke-width:1.0;"/><polygon fill="#181818" points="513.31,1064.0422,522.9237,1061.9028,517.3289,1061.0675,518.1642,1055.4727,513.31,1064.0422" style="stroke:#181818;stroke-width:1.0;"/><text fill="#000000" font-family="sans-serif" font-size="13" lengthAdjust="spacing" textLength="83" x="597.5" y="1014.4605">taskCategory</text><text fill="#000000" font-family="sans-serif" font-size="13" lengthAdjust="spacing" textLength="6" x="623.1255" y="991.3425">*</text><text fill="#000000" font-family="sans-serif" font-size="13" lengthAdjust="spacing" textLength="8" x="513.5598" y="1053.6319">1</text></g><!--link TaskCategoryRepository to TaskCategory--><g id="link_TaskCategoryRepository_TaskCategory"><path codeLine="123" d="M563.79,366.6722 C535.66,401.1722 494.5,451.6322 494.5,451.6322 C494.5,451.6322 469.5615,916.4508 461.9615,1058.0608 " fill="none" id="TaskCategoryRepository-to-TaskCategory" style="stroke:#181818;stroke-width:1.0;"/><polygon fill="#181818" points="461.64,1064.0522,466.1166,1055.2795,461.908,1059.0594,458.1281,1054.8508,461.64,1064.0522" style="stroke:#181818;stroke-width:1.0;"/><text fill="#000000" font-family="sans-serif" font-size="13" lengthAdjust="spacing" textLength="83" x="480.5" y="741.0605">taskCategory</text><text fill="#000000" font-family="sans-serif" font-size="13" lengthAdjust="spacing" textLength="8" x="550.1265" y="386.9001">1</text><text fill="#000000" font-family="sans-serif" font-size="13" lengthAdjust="spacing" textLength="6" x="455.4976" y="1053.6435">*</text></g><!--link Organization to Task--><g id="link_Organization_Task"><path codeLine="124" d="M899.75,697.7222 C880.81,723.2122 864.6689,744.9464 846.4989,769.3964 " fill="none" id="Organization-to-Task" style="stroke:#181818;stroke-width:1.0;"/><polygon fill="#181818" points="842.92,774.2122,851.4988,769.3744,845.9024,770.199,845.0777,764.6026,842.92,774.2122" style="stroke:#181818;stroke-width:1.0;"/><text fill="#000000" font-family="sans-serif" font-size="13" lengthAdjust="spacing" textLength="34" x="875.5" y="741.0605">tasks</text><text fill="#000000" font-family="sans-serif" font-size="13" lengthAdjust="spacing" textLength="8" x="885.9762" y="718.2621">1</text><text fill="#000000" font-family="sans-serif" font-size="13" lengthAdjust="spacing" textLength="6" x="842.235" y="763.6786">*</text></g><!--link Task to Employee--><g id="link_Task_Employee"><path codeLine="125" d="M831.14,971.3022 C847.28,997.2822 861.015,1019.3749 875.265,1042.3249 " fill="none" id="Task-to-Employee" style="stroke:#181818;stroke-width:1.0;"/><polygon fill="#181818" points="878.43,1047.4222,877.0807,1037.6662,875.7925,1043.1744,870.2843,1041.8862,878.43,1047.4222" style="stroke:#181818;stroke-width:1.0;"/><text fill="#000000" font-family="sans-serif" font-size="13" lengthAdjust="spacing" textLength="60" x="860.5" y="1014.4605">createdBy</text></g><!--link Organization to Employee--><g id="link_Organization_Employee"><path codeLine="127" d="M974.09,697.9422 C958.53,814.0422 937.5,970.8922 937.5,970.8922 C937.5,970.8922 929.5,1017.8922 929.5,1017.8922 C929.5,1017.8922 928.1089,1025.3737 925.0889,1041.5837 " fill="none" id="Organization-to-Employee" style="stroke:#181818;stroke-width:1.0;"/><polygon fill="#181818" points="923.99,1047.4822,929.5707,1039.367,924.9058,1042.5668,921.706,1037.9018,923.99,1047.4822" style="stroke:#181818;stroke-width:1.0;"/><text fill="#000000" font-family="sans-serif" font-size="13" lengthAdjust="spacing" textLength="53" x="963.5" y="877.7605">employs</text><text fill="#000000" font-family="sans-serif" font-size="13" lengthAdjust="spacing" textLength="6" x="918.9028" y="1037.1614">*</text></g><!--SRC=[jLPBJzmm4BxxLrXSM4f0xPK34WjKvT9AtNBhnPlCxbeuTcHxGQ7gV-yuSP9nS12Nxc4Lp-FpDm-FVUgUf6w45JMlZJRbmPeQkBT7O9Ec4UMJsCF6jmguXT8BlLVKm1r4PLwatlETK8vgbDJWsmPuOrGR5kmqepJM6qQyIYMSk_7UoktHmqDfz4Q-0l_CsAc2dUVUS2lt1yyh6UX8endhVFXDqoXPYY3QW7D1yuTn_9rpvr5SyZtu1utVkeJLMLIXxFPeBMWVdL3pTu1yT63dMEWGnFUra8hQtjUDCYq0xmqlk1Orn4y8nl6xCKvsjEFoO30p8yeluPv6X0rc0HDhOGT8i8HKN84hhMm8LbH8lJEs5kfkoS13UT2Ogep5W_Qm1ykhenL4V6UEMso0qZZFOXu2qzL8hQ1qYjywmw78xeksmrv5Xu__5eI7QjsY1svoYukziUrPcgL1FCyMJGkXEfYlY9uW_h1xeULhnsEEI0eP9S_2Vp_MMx2f-0MsMDkPRL_WHDItGvI9gkfI6K8zYx9deMI5X6UASovqE_JPD-7w7kpG1WCQnoeGBoQoHI2uGO95JwheYHIX9RrGDrLbiTSBNWkDHzuEa7qvtYjtqd6aiDbwytcvQOtlQ77wNE1v6q9Ujqd4x1JfEV5CqvHjaP_G7RgfMRfJJ2tMTESFj4WUaLginq8bd4Uq4K626nkE2kc4cgOMlqgCyj5Cx2X8dZyTORTZfM-DzjOeXPDWY2-dN9aiPbhJINwMfKjZ9Rrs78PimV_Fb7ctvPQRu-Fj-XKlrEHIqSP3lBtCBflG23B6pgNZPki5tfPLfziX9lS7w4ouYtTJxvM9gDCWXWMSFF0CLG_WGE7TYIiSCeA1hdYW5WbkZVTeWmppFJLnH3I3LuLqZH8j3hPE4yWDJF2QnmjZmf-tsUC3jXSc9ZaC5zVfuRZ2yTAtFtjxnGVhZ9Jui6Ixo-jytbcszo_VKB7qyBtXVVBbP2bf2nlW3jHXsMfX-bpn_17ys7O9q1BnDCWOPPuEOmiqExTFgLkscX6UFBoGsP4ymvO3czEQvMRPCVDmNBIbByBkhHQYkiYK7dUdau8jf3su3Sbvppq9REuKZLtFA6Z6n-ZLz9fAYpC245FeFXtx1m00]--></g></svg>