<?xml version="1.0" encoding="us-ascii" standalone="no"?><svg xmlns="http://www.w3.org/2000/svg" xmlns:xlink="http://www.w3.org/1999/xlink" contentStyleType="text/css" height="302px" preserveAspectRatio="none" style="width:562px;height:302px;background:#FFFFFF;" version="1.1" viewBox="0 0 562 302" width="562px" zoomAndPan="magnify"><defs/><g><rect fill="#FFFFFF" height="156.5527" style="stroke:#181818;stroke-width:1.0;" width="10" x="235" y="84.2871"/><rect fill="#FFFFFF" height="29.3105" style="stroke:#181818;stroke-width:1.0;" width="10" x="376.5" y="137.9082"/><rect fill="#FFFFFF" height="29.3105" style="stroke:#181818;stroke-width:1.0;" width="10" x="489.5" y="196.5293"/><rect fill="none" height="134.5527" style="stroke:#000000;stroke-width:1.5;" width="406" x="150" y="99.2871"/><line style="stroke:#181818;stroke-width:0.5;stroke-dasharray:5.0,5.0;" x1="240" x2="240" y1="52.9766" y2="250.8398"/><line style="stroke:#181818;stroke-width:0.5;stroke-dasharray:5.0,5.0;" x1="381" x2="381" y1="52.9766" y2="250.8398"/><line style="stroke:#181818;stroke-width:0.5;stroke-dasharray:5.0,5.0;" x1="494" x2="494" y1="52.9766" y2="250.8398"/><rect fill="#E3E3E3" height="30.4883" rx="2.5" ry="2.5" style="stroke:#181818;stroke-width:0.5;" width="160" x="160" y="21.4883"/><text fill="#000000" font-family="sans-serif" font-size="14" lengthAdjust="spacing" textLength="146" x="167" y="42.0234">:VehicleListController</text><rect fill="#E3E3E3" height="30.4883" rx="2.5" ry="2.5" style="stroke:#181818;stroke-width:0.5;" width="160" x="160" y="249.8398"/><text fill="#000000" font-family="sans-serif" font-size="14" lengthAdjust="spacing" textLength="146" x="167" y="270.375">:VehicleListController</text><rect fill="#E3E3E3" height="30.4883" rx="2.5" ry="2.5" style="stroke:#181818;stroke-width:0.5;" width="103" x="330" y="21.4883"/><text fill="#000000" font-family="sans-serif" font-size="14" lengthAdjust="spacing" textLength="89" x="337" y="42.0234">:Repositories</text><rect fill="#E3E3E3" height="30.4883" rx="2.5" ry="2.5" style="stroke:#181818;stroke-width:0.5;" width="103" x="330" y="249.8398"/><text fill="#000000" font-family="sans-serif" font-size="14" lengthAdjust="spacing" textLength="89" x="337" y="270.375">:Repositories</text><rect fill="#E3E3E3" height="46.9766" rx="2.5" ry="2.5" style="stroke:#181818;stroke-width:0.5;" width="103" x="443" y="5"/><text fill="#000000" font-family="sans-serif" font-size="14" lengthAdjust="spacing" textLength="82" x="453.5" y="25.5352">repositories</text><text fill="#000000" font-family="sans-serif" font-size="14" lengthAdjust="spacing" textLength="89" x="450" y="42.0234">:Repositories</text><rect fill="#E3E3E3" height="46.9766" rx="2.5" ry="2.5" style="stroke:#181818;stroke-width:0.5;" width="103" x="443" y="249.8398"/><text fill="#000000" font-family="sans-serif" font-size="14" lengthAdjust="spacing" textLength="82" x="453.5" y="270.375">repositories</text><text fill="#000000" font-family="sans-serif" font-size="14" lengthAdjust="spacing" textLength="89" x="450" y="286.8633">:Repositories</text><rect fill="#FFFFFF" height="156.5527" style="stroke:#181818;stroke-width:1.0;" width="10" x="235" y="84.2871"/><rect fill="#FFFFFF" height="29.3105" style="stroke:#181818;stroke-width:1.0;" width="10" x="376.5" y="137.9082"/><rect fill="#FFFFFF" height="29.3105" style="stroke:#181818;stroke-width:1.0;" width="10" x="489.5" y="196.5293"/><polygon fill="#181818" points="223,80.2871,233,84.2871,223,88.2871,227,84.2871" style="stroke:#181818;stroke-width:1.0;"/><line style="stroke:#181818;stroke-width:1.0;" x1="0" x2="229" y1="84.2871" y2="84.2871"/><text fill="#000000" font-family="sans-serif" font-size="13" font-weight="bold" lengthAdjust="spacing" textLength="9" x="7" y="79.5449">3</text><text fill="#000000" font-family="sans-serif" font-size="13" lengthAdjust="spacing" textLength="203" x="20" y="79.5449">getVehicleListNeedingCheckup()</text><path d="M150,99.2871 L299,99.2871 L299,106.5977 L289,116.5977 L150,116.5977 L150,99.2871 " fill="#EEEEEE" style="stroke:#000000;stroke-width:1.5;"/><rect fill="none" height="134.5527" style="stroke:#000000;stroke-width:1.5;" width="406" x="150" y="99.2871"/><text fill="#000000" font-family="sans-serif" font-size="13" font-weight="bold" lengthAdjust="spacing" textLength="104" x="165" y="112.8555">Get Vehicle List</text><polygon fill="#181818" points="364.5,133.9082,374.5,137.9082,364.5,141.9082,368.5,137.9082" style="stroke:#181818;stroke-width:1.0;"/><line style="stroke:#181818;stroke-width:1.0;" x1="245" x2="370.5" y1="137.9082" y2="137.9082"/><text fill="#000000" font-family="sans-serif" font-size="13" font-weight="bold" lengthAdjust="spacing" textLength="21" x="252" y="133.166">3.1</text><text fill="#000000" font-family="sans-serif" font-size="13" lengthAdjust="spacing" textLength="81" x="277" y="133.166">getInstance()</text><polygon fill="#181818" points="256,163.2188,246,167.2188,256,171.2188,252,167.2188" style="stroke:#181818;stroke-width:1.0;"/><line style="stroke:#181818;stroke-width:1.0;stroke-dasharray:2.0,2.0;" x1="250" x2="380.5" y1="167.2188" y2="167.2188"/><text fill="#000000" font-family="sans-serif" font-size="13" font-weight="bold" lengthAdjust="spacing" textLength="21" x="262" y="162.4766">3.2</text><text fill="#000000" font-family="sans-serif" font-size="13" lengthAdjust="spacing" textLength="75" x="287" y="162.4766">repositories</text><polygon fill="#181818" points="477.5,192.5293,487.5,196.5293,477.5,200.5293,481.5,196.5293" style="stroke:#181818;stroke-width:1.0;"/><line style="stroke:#181818;stroke-width:1.0;" x1="245" x2="483.5" y1="196.5293" y2="196.5293"/><text fill="#000000" font-family="sans-serif" font-size="13" font-weight="bold" lengthAdjust="spacing" textLength="21" x="252" y="191.7871">3.3</text><text fill="#000000" font-family="sans-serif" font-size="13" lengthAdjust="spacing" textLength="140" x="277" y="191.7871">getVehicleRepository()</text><polygon fill="#181818" points="256,221.8398,246,225.8398,256,229.8398,252,225.8398" style="stroke:#181818;stroke-width:1.0;"/><line style="stroke:#181818;stroke-width:1.0;stroke-dasharray:2.0,2.0;" x1="250" x2="493.5" y1="225.8398" y2="225.8398"/><text fill="#000000" font-family="sans-serif" font-size="13" font-weight="bold" lengthAdjust="spacing" textLength="21" x="262" y="221.0977">3.4</text><text fill="#000000" font-family="sans-serif" font-size="13" lengthAdjust="spacing" textLength="111" x="287" y="221.0977">vehicleRepository</text><!--SRC=[ZL4xJyCm4DxlLvow04EH45i69DG18KK8jHKJY-jS4ok9Bx8lXVvxd0UfKrg96-tlTT_vqjX6ELLZpPPruRWc5DSI-EcdKRfKEMtaM14wqg9iNiK0NwYClupDSQygJm2g5RPjlIC7S5EOZ73FB3l-1WWCCTeqoWekaWygZAueDLvMRCLnLP5ReFAusgxJC_2Q6lP6s1doFMPwE6vC5ocOpYakOdpQlmBlwVCMuhZu283BfzuT4yn9eeHlH5dmMHMaoxQvlPlnxXz0QJ479JHanp2vuxR15n8SPR3J2OuOJUyLF2ziCqHujJvKhYaunhp9xb8DCsGtbzINuwO9naNDg1dzt-PtaQxLMNadvhKLXaESP-w5JY4FvshNaevd7QVx99i1H8Z-Gl03]--></g></svg>