<?xml version="1.0" encoding="us-ascii" standalone="no"?><svg xmlns="http://www.w3.org/2000/svg" xmlns:xlink="http://www.w3.org/1999/xlink" contentStyleType="text/css" height="488px" preserveAspectRatio="none" style="width:1161px;height:488px;background:#FFFFFF;" version="1.1" viewBox="0 0 1161 488" width="1161px" zoomAndPan="magnify"><defs/><g><rect fill="#FFFFFF" height="298.2383" style="stroke:#181818;stroke-width:1.0;" width="10" x="51.5" y="91.4883"/><rect fill="#FFFFFF" height="70.7988" style="stroke:#181818;stroke-width:1.0;" width="10" x="502.5" y="112.7988"/><rect fill="#FFFFFF" height="29.3105" style="stroke:#181818;stroke-width:1.0;" width="10" x="502.5" y="360.416"/><rect fill="#FFFFFF" height="176.8184" style="stroke:#181818;stroke-width:1.0;" width="10" x="702.5" y="183.5977"/><rect fill="#FFFFFF" height="73.7539" style="stroke:#181818;stroke-width:1.0;" width="10" x="1077" y="257.3516"/><line style="stroke:#181818;stroke-width:0.5;stroke-dasharray:5.0,5.0;" x1="56" x2="56" y1="81.4883" y2="407.7266"/><line style="stroke:#181818;stroke-width:0.5;stroke-dasharray:5.0,5.0;" x1="507" x2="507" y1="81.4883" y2="407.7266"/><line style="stroke:#181818;stroke-width:0.5;stroke-dasharray:5.0,5.0;" x1="707" x2="707" y1="151.543" y2="407.7266"/><line style="stroke:#181818;stroke-width:0.5;stroke-dasharray:5.0,5.0;" x1="837" x2="837" y1="81.4883" y2="407.7266"/><line style="stroke:#181818;stroke-width:0.5;stroke-dasharray:5.0,5.0;" x1="950" x2="950" y1="81.4883" y2="407.7266"/><line style="stroke:#181818;stroke-width:0.5;stroke-dasharray:5.0,5.0;" x1="1082" x2="1082" y1="81.4883" y2="407.7266"/><text fill="#000000" font-family="sans-serif" font-size="14" lengthAdjust="spacing" textLength="97" x="5" y="78.5352">Fleet Manager</text><ellipse cx="56.5" cy="13.5" fill="#E3E3E3" rx="8" ry="8" style="stroke:#181818;stroke-width:0.5;"/><path d="M56.5,21.5 L56.5,48.5 M43.5,29.5 L69.5,29.5 M56.5,48.5 L43.5,63.5 M56.5,48.5 L69.5,63.5 " fill="none" style="stroke:#181818;stroke-width:0.5;"/><text fill="#000000" font-family="sans-serif" font-size="14" lengthAdjust="spacing" textLength="97" x="5" y="420.2617">Fleet Manager</text><ellipse cx="56.5" cy="431.7148" fill="#E3E3E3" rx="8" ry="8" style="stroke:#181818;stroke-width:0.5;"/><path d="M56.5,439.7148 L56.5,466.7148 M43.5,447.7148 L69.5,447.7148 M56.5,466.7148 L43.5,481.7148 M56.5,466.7148 L69.5,481.7148 " fill="none" style="stroke:#181818;stroke-width:0.5;"/><rect fill="#E3E3E3" height="30.4883" rx="2.5" ry="2.5" style="stroke:#181818;stroke-width:0.5;" width="115" x="450" y="50"/><text fill="#000000" font-family="sans-serif" font-size="14" lengthAdjust="spacing" textLength="101" x="457" y="70.5352">:CheckupListUI</text><rect fill="#E3E3E3" height="30.4883" rx="2.5" ry="2.5" style="stroke:#181818;stroke-width:0.5;" width="115" x="450" y="406.7266"/><text fill="#000000" font-family="sans-serif" font-size="14" lengthAdjust="spacing" textLength="101" x="457" y="427.2617">:CheckupListUI</text><rect fill="#E3E3E3" height="30.4883" rx="2.5" ry="2.5" style="stroke:#181818;stroke-width:0.5;" width="137" x="639" y="406.7266"/><text fill="#000000" font-family="sans-serif" font-size="14" lengthAdjust="spacing" textLength="123" x="646" y="427.2617">:VehicleController</text><rect fill="#E3E3E3" height="30.4883" rx="2.5" ry="2.5" style="stroke:#181818;stroke-width:0.5;" width="103" x="786" y="50"/><text fill="#000000" font-family="sans-serif" font-size="14" lengthAdjust="spacing" textLength="89" x="793" y="70.5352">:Repositories</text><rect fill="#E3E3E3" height="30.4883" rx="2.5" ry="2.5" style="stroke:#181818;stroke-width:0.5;" width="103" x="786" y="406.7266"/><text fill="#000000" font-family="sans-serif" font-size="14" lengthAdjust="spacing" textLength="89" x="793" y="427.2617">:Repositories</text><rect fill="#E3E3E3" height="46.9766" rx="2.5" ry="2.5" style="stroke:#181818;stroke-width:0.5;" width="103" x="899" y="33.5117"/><text fill="#000000" font-family="sans-serif" font-size="14" lengthAdjust="spacing" textLength="82" x="909.5" y="54.0469">repositories</text><text fill="#000000" font-family="sans-serif" font-size="14" lengthAdjust="spacing" textLength="89" x="906" y="70.5352">:Repositories</text><rect fill="#E3E3E3" height="46.9766" rx="2.5" ry="2.5" style="stroke:#181818;stroke-width:0.5;" width="103" x="899" y="406.7266"/><text fill="#000000" font-family="sans-serif" font-size="14" lengthAdjust="spacing" textLength="82" x="909.5" y="427.2617">repositories</text><text fill="#000000" font-family="sans-serif" font-size="14" lengthAdjust="spacing" textLength="89" x="906" y="443.75">:Repositories</text><rect fill="#E3E3E3" height="46.9766" rx="2.5" ry="2.5" style="stroke:#181818;stroke-width:0.5;" width="140" x="1012" y="33.5117"/><text fill="#000000" font-family="sans-serif" font-size="14" lengthAdjust="spacing" textLength="120" x="1022" y="54.0469">vehicleRepository</text><text fill="#000000" font-family="sans-serif" font-size="14" lengthAdjust="spacing" textLength="126" x="1019" y="70.5352">:VehicleRepository</text><rect fill="#E3E3E3" height="46.9766" rx="2.5" ry="2.5" style="stroke:#181818;stroke-width:0.5;" width="140" x="1012" y="406.7266"/><text fill="#000000" font-family="sans-serif" font-size="14" lengthAdjust="spacing" textLength="120" x="1022" y="427.2617">vehicleRepository</text><text fill="#000000" font-family="sans-serif" font-size="14" lengthAdjust="spacing" textLength="126" x="1019" y="443.75">:VehicleRepository</text><rect fill="#FFFFFF" height="298.2383" style="stroke:#181818;stroke-width:1.0;" width="10" x="51.5" y="91.4883"/><rect fill="#FFFFFF" height="70.7988" style="stroke:#181818;stroke-width:1.0;" width="10" x="502.5" y="112.7988"/><rect fill="#FFFFFF" height="29.3105" style="stroke:#181818;stroke-width:1.0;" width="10" x="502.5" y="360.416"/><rect fill="#FFFFFF" height="176.8184" style="stroke:#181818;stroke-width:1.0;" width="10" x="702.5" y="183.5977"/><rect fill="#FFFFFF" height="73.7539" style="stroke:#181818;stroke-width:1.0;" width="10" x="1077" y="257.3516"/><polygon fill="#181818" points="490.5,108.7988,500.5,112.7988,490.5,116.7988,494.5,112.7988" style="stroke:#181818;stroke-width:1.0;"/><line style="stroke:#181818;stroke-width:1.0;" x1="61.5" x2="496.5" y1="112.7988" y2="112.7988"/><text fill="#000000" font-family="sans-serif" font-size="13" font-weight="bold" lengthAdjust="spacing" textLength="9" x="68.5" y="108.0566">1</text><text fill="#000000" font-family="sans-serif" font-size="13" lengthAdjust="spacing" textLength="332" x="81.5" y="108.0566">Asks to generate a list of vehicles needing check-up</text><polygon fill="#181818" points="627,138.1094,637,142.1094,627,146.1094,631,142.1094" style="stroke:#181818;stroke-width:1.0;"/><line style="stroke:#181818;stroke-width:1.0;" x1="512.5" x2="633" y1="142.1094" y2="142.1094"/><text fill="#000000" font-family="sans-serif" font-size="13" font-weight="bold" lengthAdjust="spacing" textLength="9" x="519.5" y="137.3672">2</text><text fill="#000000" font-family="sans-serif" font-size="13" lengthAdjust="spacing" textLength="38" x="532.5" y="137.3672">create</text><rect fill="#E3E3E3" height="30.4883" rx="2.5" ry="2.5" style="stroke:#181818;stroke-width:0.5;" width="137" x="639" y="120.7988"/><text fill="#000000" font-family="sans-serif" font-size="14" lengthAdjust="spacing" textLength="123" x="646" y="141.334">:VehicleController</text><polygon fill="#181818" points="690.5,179.5977,700.5,183.5977,690.5,187.5977,694.5,183.5977" style="stroke:#181818;stroke-width:1.0;"/><line style="stroke:#181818;stroke-width:1.0;" x1="507.5" x2="696.5" y1="183.5977" y2="183.5977"/><text fill="#000000" font-family="sans-serif" font-size="13" font-weight="bold" lengthAdjust="spacing" textLength="9" x="514.5" y="178.8555">3</text><text fill="#000000" font-family="sans-serif" font-size="13" lengthAdjust="spacing" textLength="119" x="527.5" y="178.8555">requestActivation()</text><rect fill="none" height="39.4434" style="stroke:#000000;stroke-width:1.5;" width="369" x="636" y="191.5977"/><path d="M636,191.5977 L700,191.5977 L700,198.5977 L690,208.5977 L636,208.5977 L636,191.5977 " fill="#EEEEEE" style="stroke:#000000;stroke-width:2.0;"/><text fill="#000000" font-family="sans-serif" font-size="13" font-weight="bold" lengthAdjust="spacing" textLength="19" x="649" y="206.166">ref</text><text fill="#000000" font-family="sans-serif" font-size="12" lengthAdjust="spacing" textLength="88" x="776.5" y="224.1992">Get Vehicle List</text><polygon fill="#181818" points="1065,253.3516,1075,257.3516,1065,261.3516,1069,257.3516" style="stroke:#181818;stroke-width:1.0;"/><line style="stroke:#181818;stroke-width:1.0;" x1="712.5" x2="1071" y1="257.3516" y2="257.3516"/><text fill="#000000" font-family="sans-serif" font-size="13" font-weight="bold" lengthAdjust="spacing" textLength="9" x="719.5" y="252.6094">4</text><text fill="#000000" font-family="sans-serif" font-size="13" lengthAdjust="spacing" textLength="187" x="732.5" y="252.6094">getVehiclesNeedingCheckup()</text><rect fill="none" height="39.4434" style="stroke:#000000;stroke-width:1.5;" width="146" x="1009" y="265.3516"/><path d="M1009,265.3516 L1073,265.3516 L1073,272.3516 L1063,282.3516 L1009,282.3516 L1009,265.3516 " fill="#EEEEEE" style="stroke:#000000;stroke-width:2.0;"/><text fill="#000000" font-family="sans-serif" font-size="13" font-weight="bold" lengthAdjust="spacing" textLength="19" x="1022" y="279.9199">ref</text><text fill="#000000" font-family="sans-serif" font-size="12" lengthAdjust="spacing" textLength="131" x="1016.5" y="297.9531">Generate CheckUp List</text><polygon fill="#181818" points="723.5,327.1055,713.5,331.1055,723.5,335.1055,719.5,331.1055" style="stroke:#181818;stroke-width:1.0;"/><line style="stroke:#181818;stroke-width:1.0;stroke-dasharray:2.0,2.0;" x1="717.5" x2="1081" y1="331.1055" y2="331.1055"/><text fill="#000000" font-family="sans-serif" font-size="13" font-weight="bold" lengthAdjust="spacing" textLength="9" x="729.5" y="326.3633">5</text><text fill="#000000" font-family="sans-serif" font-size="13" lengthAdjust="spacing" textLength="158" x="742.5" y="326.3633">vehiclesNeedingCheckup</text><polygon fill="#181818" points="523.5,356.416,513.5,360.416,523.5,364.416,519.5,360.416" style="stroke:#181818;stroke-width:1.0;"/><line style="stroke:#181818;stroke-width:1.0;stroke-dasharray:2.0,2.0;" x1="517.5" x2="706.5" y1="360.416" y2="360.416"/><text fill="#000000" font-family="sans-serif" font-size="13" font-weight="bold" lengthAdjust="spacing" textLength="9" x="529.5" y="355.6738">6</text><text fill="#000000" font-family="sans-serif" font-size="13" lengthAdjust="spacing" textLength="158" x="542.5" y="355.6738">vehiclesNeedingCheckup</text><polygon fill="#181818" points="67.5,385.7266,57.5,389.7266,67.5,393.7266,63.5,389.7266" style="stroke:#181818;stroke-width:1.0;"/><line style="stroke:#181818;stroke-width:1.0;stroke-dasharray:2.0,2.0;" x1="61.5" x2="506.5" y1="389.7266" y2="389.7266"/><text fill="#000000" font-family="sans-serif" font-size="13" font-weight="bold" lengthAdjust="spacing" textLength="9" x="73.5" y="384.9844">7</text><text fill="#000000" font-family="sans-serif" font-size="13" lengthAdjust="spacing" textLength="404" x="86.5" y="384.9844">Provides a list of vehicles that need check-up (and all their info)</text><!--SRC=[XPBFRi8m3CRlUGgB4o1u0GwJ41882IR4lzCkMMhQg27fahGJRpydb59efUNKsf-_E3_RvL8NtF8hN8qs8hFcYk1jYSmrcOABdATuy3U5O55uhbFL5hYC9-PNwXGkN3baZ9VUwFBwZPQ-XJSM1ak5w67BDJdP0N07oorZLE-ba0NN7WQpHOOYBukDTFwqZfhJ-aronamAXGkZlJLArLQButxp9jnZOPoagoMwg6a2juCC_LE7hoMsLV6bkmQxpVpuMb7TctawKzdvFHPhEyh8HLRSO-ImtCBqWruBCvYxt84taA966_8S5041StcuED28IS0j0h1fMJpD21WZ6p8BJCPZCXGMATCEKz3YJudEp-zrqkZXYB44NtoQduWt78iNC1NQ69dq8Pr4J7J1YgPTiu0mKCRYpTH1XmMfK_Irs7tUtrRlGcWBcaQw685EqrMVy-g1CHgUYhgPSBhowHDGrTjE6r7FJEzFV4poVui8jiqyp8ZAQHrciBEcaWbDksS1VCPzt89c1M38TG9SASgXj23rnOpU9jhwewNx0m00]--></g></svg>