<?xml version="1.0" encoding="us-ascii" standalone="no"?><svg xmlns="http://www.w3.org/2000/svg" xmlns:xlink="http://www.w3.org/1999/xlink" contentStyleType="text/css" height="633px" preserveAspectRatio="none" style="width:1333px;height:633px;background:#FFFFFF;" version="1.1" viewBox="0 0 1333 633" width="1333px" zoomAndPan="magnify"><defs/><g><rect fill="#FFFFFF" height="442.5254" style="stroke:#181818;stroke-width:1.0;" width="10" x="51.5" y="91.4883"/><rect fill="#FFFFFF" height="70.7988" style="stroke:#181818;stroke-width:1.0;" width="10" x="511.5" y="112.7988"/><rect fill="#FFFFFF" height="29.3105" style="stroke:#181818;stroke-width:1.0;" width="10" x="511.5" y="504.7031"/><rect fill="#FFFFFF" height="321.1055" style="stroke:#181818;stroke-width:1.0;" width="10" x="756.5" y="183.5977"/><rect fill="#FFFFFF" height="29.3105" style="stroke:#181818;stroke-width:1.0;" width="10" x="886.5" y="212.9082"/><rect fill="#FFFFFF" height="29.3105" style="stroke:#181818;stroke-width:1.0;" width="10" x="999.5" y="271.5293"/><rect fill="#FFFFFF" height="145.2422" style="stroke:#181818;stroke-width:1.0;" width="10" x="1136" y="330.1504"/><rect fill="#FFFFFF" height="101.9316" style="stroke:#181818;stroke-width:1.0;" width="10" x="1136" y="330.1504"/><rect fill="#FFFFFF" height="40.3105" style="stroke:#181818;stroke-width:1.0;" width="10" x="1141" y="391.7715"/><rect fill="none" height="101.9316" style="stroke:#000000;stroke-width:1.5;" width="271" x="1056" y="345.1504"/><line style="stroke:#181818;stroke-width:0.5;stroke-dasharray:5.0,5.0;" x1="56" x2="56" y1="81.4883" y2="552.0137"/><line style="stroke:#181818;stroke-width:0.5;stroke-dasharray:5.0,5.0;" x1="516" x2="516" y1="81.4883" y2="552.0137"/><line style="stroke:#181818;stroke-width:0.5;stroke-dasharray:5.0,5.0;" x1="761" x2="761" y1="151.543" y2="552.0137"/><line style="stroke:#181818;stroke-width:0.5;stroke-dasharray:5.0,5.0;" x1="891" x2="891" y1="81.4883" y2="552.0137"/><line style="stroke:#181818;stroke-width:0.5;stroke-dasharray:5.0,5.0;" x1="1004" x2="1004" y1="81.4883" y2="552.0137"/><line style="stroke:#181818;stroke-width:0.5;stroke-dasharray:5.0,5.0;" x1="1136" x2="1136" y1="81.4883" y2="552.0137"/><text fill="#000000" font-family="sans-serif" font-size="14" lengthAdjust="spacing" textLength="97" x="5" y="78.5352">Fleet Manager</text><ellipse cx="56.5" cy="13.5" fill="#E3E3E3" rx="8" ry="8" style="stroke:#181818;stroke-width:0.5;"/><path d="M56.5,21.5 L56.5,48.5 M43.5,29.5 L69.5,29.5 M56.5,48.5 L43.5,63.5 M56.5,48.5 L69.5,63.5 " fill="none" style="stroke:#181818;stroke-width:0.5;"/><text fill="#000000" font-family="sans-serif" font-size="14" lengthAdjust="spacing" textLength="97" x="5" y="564.5488">Fleet Manager</text><ellipse cx="56.5" cy="576.002" fill="#E3E3E3" rx="8" ry="8" style="stroke:#181818;stroke-width:0.5;"/><path d="M56.5,584.002 L56.5,611.002 M43.5,592.002 L69.5,592.002 M56.5,611.002 L43.5,626.002 M56.5,611.002 L69.5,626.002 " fill="none" style="stroke:#181818;stroke-width:0.5;"/><rect fill="#E3E3E3" height="30.4883" rx="2.5" ry="2.5" style="stroke:#181818;stroke-width:0.5;" width="115" x="459" y="50"/><text fill="#000000" font-family="sans-serif" font-size="14" lengthAdjust="spacing" textLength="101" x="466" y="70.5352">:CheckupListUI</text><rect fill="#E3E3E3" height="30.4883" rx="2.5" ry="2.5" style="stroke:#181818;stroke-width:0.5;" width="115" x="459" y="551.0137"/><text fill="#000000" font-family="sans-serif" font-size="14" lengthAdjust="spacing" textLength="101" x="466" y="571.5488">:CheckupListUI</text><rect fill="#E3E3E3" height="30.4883" rx="2.5" ry="2.5" style="stroke:#181818;stroke-width:0.5;" width="137" x="693" y="551.0137"/><text fill="#000000" font-family="sans-serif" font-size="14" lengthAdjust="spacing" textLength="123" x="700" y="571.5488">:VehicleController</text><rect fill="#E3E3E3" height="30.4883" rx="2.5" ry="2.5" style="stroke:#181818;stroke-width:0.5;" width="103" x="840" y="50"/><text fill="#000000" font-family="sans-serif" font-size="14" lengthAdjust="spacing" textLength="89" x="847" y="70.5352">:Repositories</text><rect fill="#E3E3E3" height="30.4883" rx="2.5" ry="2.5" style="stroke:#181818;stroke-width:0.5;" width="103" x="840" y="551.0137"/><text fill="#000000" font-family="sans-serif" font-size="14" lengthAdjust="spacing" textLength="89" x="847" y="571.5488">:Repositories</text><rect fill="#E3E3E3" height="46.9766" rx="2.5" ry="2.5" style="stroke:#181818;stroke-width:0.5;" width="103" x="953" y="33.5117"/><text fill="#000000" font-family="sans-serif" font-size="14" lengthAdjust="spacing" textLength="82" x="963.5" y="54.0469">repositories</text><text fill="#000000" font-family="sans-serif" font-size="14" lengthAdjust="spacing" textLength="89" x="960" y="70.5352">:Repositories</text><rect fill="#E3E3E3" height="46.9766" rx="2.5" ry="2.5" style="stroke:#181818;stroke-width:0.5;" width="103" x="953" y="551.0137"/><text fill="#000000" font-family="sans-serif" font-size="14" lengthAdjust="spacing" textLength="82" x="963.5" y="571.5488">repositories</text><text fill="#000000" font-family="sans-serif" font-size="14" lengthAdjust="spacing" textLength="89" x="960" y="588.0371">:Repositories</text><rect fill="#E3E3E3" height="46.9766" rx="2.5" ry="2.5" style="stroke:#181818;stroke-width:0.5;" width="140" x="1066" y="33.5117"/><text fill="#000000" font-family="sans-serif" font-size="14" lengthAdjust="spacing" textLength="120" x="1076" y="54.0469">vehicleRepository</text><text fill="#000000" font-family="sans-serif" font-size="14" lengthAdjust="spacing" textLength="126" x="1073" y="70.5352">:VehicleRepository</text><rect fill="#E3E3E3" height="46.9766" rx="2.5" ry="2.5" style="stroke:#181818;stroke-width:0.5;" width="140" x="1066" y="551.0137"/><text fill="#000000" font-family="sans-serif" font-size="14" lengthAdjust="spacing" textLength="120" x="1076" y="571.5488">vehicleRepository</text><text fill="#000000" font-family="sans-serif" font-size="14" lengthAdjust="spacing" textLength="126" x="1073" y="588.0371">:VehicleRepository</text><rect fill="#FFFFFF" height="442.5254" style="stroke:#181818;stroke-width:1.0;" width="10" x="51.5" y="91.4883"/><rect fill="#FFFFFF" height="70.7988" style="stroke:#181818;stroke-width:1.0;" width="10" x="511.5" y="112.7988"/><rect fill="#FFFFFF" height="29.3105" style="stroke:#181818;stroke-width:1.0;" width="10" x="511.5" y="504.7031"/><rect fill="#FFFFFF" height="321.1055" style="stroke:#181818;stroke-width:1.0;" width="10" x="756.5" y="183.5977"/><rect fill="#FFFFFF" height="29.3105" style="stroke:#181818;stroke-width:1.0;" width="10" x="886.5" y="212.9082"/><rect fill="#FFFFFF" height="29.3105" style="stroke:#181818;stroke-width:1.0;" width="10" x="999.5" y="271.5293"/><rect fill="#FFFFFF" height="145.2422" style="stroke:#181818;stroke-width:1.0;" width="10" x="1136" y="330.1504"/><rect fill="#FFFFFF" height="101.9316" style="stroke:#181818;stroke-width:1.0;" width="10" x="1136" y="330.1504"/><rect fill="#FFFFFF" height="40.3105" style="stroke:#181818;stroke-width:1.0;" width="10" x="1141" y="391.7715"/><polygon fill="#181818" points="499.5,108.7988,509.5,112.7988,499.5,116.7988,503.5,112.7988" style="stroke:#181818;stroke-width:1.0;"/><line style="stroke:#181818;stroke-width:1.0;" x1="61.5" x2="505.5" y1="112.7988" y2="112.7988"/><text fill="#000000" font-family="sans-serif" font-size="13" font-weight="bold" lengthAdjust="spacing" textLength="9" x="68.5" y="108.0566">1</text><text fill="#000000" font-family="sans-serif" font-size="13" lengthAdjust="spacing" textLength="332" x="81.5" y="108.0566">Asks to generate a list of vehicles needing check-up</text><polygon fill="#181818" points="681,138.1094,691,142.1094,681,146.1094,685,142.1094" style="stroke:#181818;stroke-width:1.0;"/><line style="stroke:#181818;stroke-width:1.0;" x1="521.5" x2="687" y1="142.1094" y2="142.1094"/><text fill="#000000" font-family="sans-serif" font-size="13" font-weight="bold" lengthAdjust="spacing" textLength="9" x="528.5" y="137.3672">2</text><text fill="#000000" font-family="sans-serif" font-size="13" lengthAdjust="spacing" textLength="38" x="541.5" y="137.3672">create</text><rect fill="#E3E3E3" height="30.4883" rx="2.5" ry="2.5" style="stroke:#181818;stroke-width:0.5;" width="137" x="693" y="120.7988"/><text fill="#000000" font-family="sans-serif" font-size="14" lengthAdjust="spacing" textLength="123" x="700" y="141.334">:VehicleController</text><polygon fill="#181818" points="744.5,179.5977,754.5,183.5977,744.5,187.5977,748.5,183.5977" style="stroke:#181818;stroke-width:1.0;"/><line style="stroke:#181818;stroke-width:1.0;" x1="516.5" x2="750.5" y1="183.5977" y2="183.5977"/><text fill="#000000" font-family="sans-serif" font-size="13" font-weight="bold" lengthAdjust="spacing" textLength="9" x="523.5" y="178.8555">3</text><text fill="#000000" font-family="sans-serif" font-size="13" lengthAdjust="spacing" textLength="203" x="536.5" y="178.8555">getVehicleListNeedingCheckup()</text><polygon fill="#181818" points="874.5,208.9082,884.5,212.9082,874.5,216.9082,878.5,212.9082" style="stroke:#181818;stroke-width:1.0;"/><line style="stroke:#181818;stroke-width:1.0;" x1="766.5" x2="880.5" y1="212.9082" y2="212.9082"/><text fill="#000000" font-family="sans-serif" font-size="13" font-weight="bold" lengthAdjust="spacing" textLength="9" x="773.5" y="208.166">4</text><text fill="#000000" font-family="sans-serif" font-size="13" lengthAdjust="spacing" textLength="81" x="786.5" y="208.166">getInstance()</text><polygon fill="#181818" points="777.5,238.2188,767.5,242.2188,777.5,246.2188,773.5,242.2188" style="stroke:#181818;stroke-width:1.0;"/><line style="stroke:#181818;stroke-width:1.0;stroke-dasharray:2.0,2.0;" x1="771.5" x2="890.5" y1="242.2188" y2="242.2188"/><text fill="#000000" font-family="sans-serif" font-size="13" font-weight="bold" lengthAdjust="spacing" textLength="9" x="783.5" y="237.4766">5</text><text fill="#000000" font-family="sans-serif" font-size="13" lengthAdjust="spacing" textLength="75" x="796.5" y="237.4766">repositories</text><polygon fill="#181818" points="987.5,267.5293,997.5,271.5293,987.5,275.5293,991.5,271.5293" style="stroke:#181818;stroke-width:1.0;"/><line style="stroke:#181818;stroke-width:1.0;" x1="766.5" x2="993.5" y1="271.5293" y2="271.5293"/><text fill="#000000" font-family="sans-serif" font-size="13" font-weight="bold" lengthAdjust="spacing" textLength="9" x="773.5" y="266.7871">6</text><text fill="#000000" font-family="sans-serif" font-size="13" lengthAdjust="spacing" textLength="140" x="786.5" y="266.7871">getVehicleRepository()</text><polygon fill="#181818" points="777.5,296.8398,767.5,300.8398,777.5,304.8398,773.5,300.8398" style="stroke:#181818;stroke-width:1.0;"/><line style="stroke:#181818;stroke-width:1.0;stroke-dasharray:2.0,2.0;" x1="771.5" x2="1003.5" y1="300.8398" y2="300.8398"/><text fill="#000000" font-family="sans-serif" font-size="13" font-weight="bold" lengthAdjust="spacing" textLength="9" x="783.5" y="296.0977">7</text><text fill="#000000" font-family="sans-serif" font-size="13" lengthAdjust="spacing" textLength="111" x="796.5" y="296.0977">vehicleRepository</text><polygon fill="#181818" points="1124,326.1504,1134,330.1504,1124,334.1504,1128,330.1504" style="stroke:#181818;stroke-width:1.0;"/><line style="stroke:#181818;stroke-width:1.0;" x1="766.5" x2="1130" y1="330.1504" y2="330.1504"/><text fill="#000000" font-family="sans-serif" font-size="13" font-weight="bold" lengthAdjust="spacing" textLength="9" x="773.5" y="325.4082">8</text><text fill="#000000" font-family="sans-serif" font-size="13" lengthAdjust="spacing" textLength="187" x="786.5" y="325.4082">getVehiclesNeedingCheckup()</text><path d="M1056,345.1504 L1130,345.1504 L1130,352.4609 L1120,362.4609 L1056,362.4609 L1056,345.1504 " fill="#EEEEEE" style="stroke:#000000;stroke-width:1.5;"/><rect fill="none" height="101.9316" style="stroke:#000000;stroke-width:1.5;" width="271" x="1056" y="345.1504"/><text fill="#000000" font-family="sans-serif" font-size="13" font-weight="bold" lengthAdjust="spacing" textLength="29" x="1071" y="358.7188">loop</text><text fill="#000000" font-family="sans-serif" font-size="11" font-weight="bold" lengthAdjust="spacing" textLength="177" x="1145" y="357.7852">[for each vehicle in vehicleList]</text><line style="stroke:#181818;stroke-width:1.0;" x1="1146" x2="1193" y1="378.7715" y2="378.7715"/><line style="stroke:#181818;stroke-width:1.0;" x1="1193" x2="1193" y1="378.7715" y2="391.7715"/><line style="stroke:#181818;stroke-width:1.0;" x1="1152" x2="1193" y1="391.7715" y2="391.7715"/><polygon fill="#181818" points="1162,387.7715,1152,391.7715,1162,395.7715,1158,391.7715" style="stroke:#181818;stroke-width:1.0;"/><text fill="#000000" font-family="sans-serif" font-size="13" font-weight="bold" lengthAdjust="spacing" textLength="9" x="1158" y="374.0293">9</text><text fill="#000000" font-family="sans-serif" font-size="13" lengthAdjust="spacing" textLength="144" x="1171" y="374.0293">needsCheckup(vehicle)</text><line style="stroke:#181818;stroke-width:1.0;stroke-dasharray:2.0,2.0;" x1="1151" x2="1193" y1="431.082" y2="431.082"/><line style="stroke:#181818;stroke-width:1.0;stroke-dasharray:2.0,2.0;" x1="1193" x2="1193" y1="431.082" y2="444.082"/><line style="stroke:#181818;stroke-width:1.0;stroke-dasharray:2.0,2.0;" x1="1146" x2="1193" y1="444.082" y2="444.082"/><polygon fill="#181818" points="1156,440.082,1146,444.082,1156,448.082,1152,444.082" style="stroke:#181818;stroke-width:1.0;"/><text fill="#000000" font-family="sans-serif" font-size="13" font-weight="bold" lengthAdjust="spacing" textLength="18" x="1158" y="426.3398">10</text><text fill="#000000" font-family="sans-serif" font-size="13" lengthAdjust="spacing" textLength="62" x="1180" y="426.3398">true/false</text><polygon fill="#181818" points="777.5,471.3926,767.5,475.3926,777.5,479.3926,773.5,475.3926" style="stroke:#181818;stroke-width:1.0;"/><line style="stroke:#181818;stroke-width:1.0;stroke-dasharray:2.0,2.0;" x1="771.5" x2="1135" y1="475.3926" y2="475.3926"/><text fill="#000000" font-family="sans-serif" font-size="13" font-weight="bold" lengthAdjust="spacing" textLength="18" x="783.5" y="470.6504">11</text><text fill="#000000" font-family="sans-serif" font-size="13" lengthAdjust="spacing" textLength="158" x="805.5" y="470.6504">vehiclesNeedingCheckup</text><polygon fill="#181818" points="532.5,500.7031,522.5,504.7031,532.5,508.7031,528.5,504.7031" style="stroke:#181818;stroke-width:1.0;"/><line style="stroke:#181818;stroke-width:1.0;stroke-dasharray:2.0,2.0;" x1="526.5" x2="760.5" y1="504.7031" y2="504.7031"/><text fill="#000000" font-family="sans-serif" font-size="13" font-weight="bold" lengthAdjust="spacing" textLength="18" x="538.5" y="499.9609">12</text><text fill="#000000" font-family="sans-serif" font-size="13" lengthAdjust="spacing" textLength="158" x="560.5" y="499.9609">vehiclesNeedingCheckup</text><polygon fill="#181818" points="67.5,530.0137,57.5,534.0137,67.5,538.0137,63.5,534.0137" style="stroke:#181818;stroke-width:1.0;"/><line style="stroke:#181818;stroke-width:1.0;stroke-dasharray:2.0,2.0;" x1="61.5" x2="515.5" y1="534.0137" y2="534.0137"/><text fill="#000000" font-family="sans-serif" font-size="13" font-weight="bold" lengthAdjust="spacing" textLength="18" x="73.5" y="529.2715">13</text><text fill="#000000" font-family="sans-serif" font-size="13" lengthAdjust="spacing" textLength="404" x="95.5" y="529.2715">Provides a list of vehicles that need check-up (and all their info)</text><!--SRC=[XLJBZYeX4Dtp5HLNEecPlOj99YOc9ZgPp6jrDrowx2OYT83sPlx-5lH3saRjLKETEdKuHU6EKjVSyXESZ3QYikQ4u6s3p0sHceiZB_7J_oe4Yy9pNQeKu2fUc7zIbt3WoY5ZlF56DwU_QEbVU6DXjb687lPS4vET0NUmsJD6-LuAMNFjORPQLoYEJRsJpdzl8-PxUmNvmKeAXMkZlJLATLJhhu_T5V03Q-CabPRe8cRO-FsKGJyf7AVO9EEFdXAyxrw_nXddLio5cT9-hlTYxWGPVP5dxZ7wiDd3yeLE2ojuTKS7ta296cs8Sr1a29X3p-908nR1RX4CMpRrXOmCOqH3PC6JfoSY51OfacxJPec-KnhSVclvEl_d2yOA754EY-Xqv22kZAKjzLOxkYG2YMd8pFdFSWpBJkKAqewaYh9KlQZGfj41B-XKJkmcY-1BmMcRagfjHbzc0XtLT5D71vxCNRWVLSRKSA0X8YrL3m2f-z_GGGRqJJNT41hkZ-krTO15fBYZuqQ56oN26_BSFWSXCV4nU_wxSTJ50ujONbXtsS_Pfh17cjfMztFvc2JEHZesOU8edOPx1U_Md6L1iviPPrzn7tio33JCkIw0AqKnb9QQVJ2Bgw5CLk496I__0m00]--></g></svg>