<?xml version="1.0" encoding="us-ascii" standalone="no"?><svg xmlns="http://www.w3.org/2000/svg" xmlns:xlink="http://www.w3.org/1999/xlink" contentStyleType="text/css" height="633px" preserveAspectRatio="none" style="width:1341px;height:633px;background:#FFFFFF;" version="1.1" viewBox="0 0 1341 633" width="1341px" zoomAndPan="magnify"><defs/><g><rect fill="#FFFFFF" height="442.5254" style="stroke:#181818;stroke-width:1.0;" width="10" x="51.5" y="91.4883"/><rect fill="#FFFFFF" height="70.7988" style="stroke:#181818;stroke-width:1.0;" width="10" x="511.5" y="112.7988"/><rect fill="#FFFFFF" height="29.3105" style="stroke:#181818;stroke-width:1.0;" width="10" x="511.5" y="504.7031"/><rect fill="#FFFFFF" height="321.1055" style="stroke:#181818;stroke-width:1.0;" width="10" x="720.5" y="183.5977"/><rect fill="#FFFFFF" height="29.3105" style="stroke:#181818;stroke-width:1.0;" width="10" x="850.5" y="212.9082"/><rect fill="#FFFFFF" height="29.3105" style="stroke:#181818;stroke-width:1.0;" width="10" x="963.5" y="271.5293"/><rect fill="#FFFFFF" height="145.2422" style="stroke:#181818;stroke-width:1.0;" width="10" x="1100" y="330.1504"/><rect fill="#FFFFFF" height="101.9316" style="stroke:#181818;stroke-width:1.0;" width="10" x="1100" y="330.1504"/><rect fill="#FFFFFF" height="40.3105" style="stroke:#181818;stroke-width:1.0;" width="10" x="1105" y="391.7715"/><rect fill="none" height="101.9316" style="stroke:#000000;stroke-width:1.5;" width="315" x="1020" y="345.1504"/><line style="stroke:#181818;stroke-width:0.5;stroke-dasharray:5.0,5.0;" x1="56" x2="56" y1="81.4883" y2="552.0137"/><line style="stroke:#181818;stroke-width:0.5;stroke-dasharray:5.0,5.0;" x1="516" x2="516" y1="81.4883" y2="552.0137"/><line style="stroke:#181818;stroke-width:0.5;stroke-dasharray:5.0,5.0;" x1="725" x2="725" y1="151.543" y2="552.0137"/><line style="stroke:#181818;stroke-width:0.5;stroke-dasharray:5.0,5.0;" x1="855" x2="855" y1="81.4883" y2="552.0137"/><line style="stroke:#181818;stroke-width:0.5;stroke-dasharray:5.0,5.0;" x1="968" x2="968" y1="81.4883" y2="552.0137"/><line style="stroke:#181818;stroke-width:0.5;stroke-dasharray:5.0,5.0;" x1="1100" x2="1100" y1="81.4883" y2="552.0137"/><text fill="#000000" font-family="sans-serif" font-size="14" lengthAdjust="spacing" textLength="97" x="5" y="78.5352">Fleet Manager</text><ellipse cx="56.5" cy="13.5" fill="#E3E3E3" rx="8" ry="8" style="stroke:#181818;stroke-width:0.5;"/><path d="M56.5,21.5 L56.5,48.5 M43.5,29.5 L69.5,29.5 M56.5,48.5 L43.5,63.5 M56.5,48.5 L69.5,63.5 " fill="none" style="stroke:#181818;stroke-width:0.5;"/><text fill="#000000" font-family="sans-serif" font-size="14" lengthAdjust="spacing" textLength="97" x="5" y="564.5488">Fleet Manager</text><ellipse cx="56.5" cy="576.002" fill="#E3E3E3" rx="8" ry="8" style="stroke:#181818;stroke-width:0.5;"/><path d="M56.5,584.002 L56.5,611.002 M43.5,592.002 L69.5,592.002 M56.5,611.002 L43.5,626.002 M56.5,611.002 L69.5,626.002 " fill="none" style="stroke:#181818;stroke-width:0.5;"/><rect fill="#E3E3E3" height="30.4883" rx="2.5" ry="2.5" style="stroke:#181818;stroke-width:0.5;" width="115" x="459" y="50"/><text fill="#000000" font-family="sans-serif" font-size="14" lengthAdjust="spacing" textLength="101" x="466" y="70.5352">:CheckupListUI</text><rect fill="#E3E3E3" height="30.4883" rx="2.5" ry="2.5" style="stroke:#181818;stroke-width:0.5;" width="115" x="459" y="551.0137"/><text fill="#000000" font-family="sans-serif" font-size="14" lengthAdjust="spacing" textLength="101" x="466" y="571.5488">:CheckupListUI</text><rect fill="#E3E3E3" height="30.4883" rx="2.5" ry="2.5" style="stroke:#181818;stroke-width:0.5;" width="137" x="657" y="551.0137"/><text fill="#000000" font-family="sans-serif" font-size="14" lengthAdjust="spacing" textLength="123" x="664" y="571.5488">:VehicleController</text><rect fill="#E3E3E3" height="30.4883" rx="2.5" ry="2.5" style="stroke:#181818;stroke-width:0.5;" width="103" x="804" y="50"/><text fill="#000000" font-family="sans-serif" font-size="14" lengthAdjust="spacing" textLength="89" x="811" y="70.5352">:Repositories</text><rect fill="#E3E3E3" height="30.4883" rx="2.5" ry="2.5" style="stroke:#181818;stroke-width:0.5;" width="103" x="804" y="551.0137"/><text fill="#000000" font-family="sans-serif" font-size="14" lengthAdjust="spacing" textLength="89" x="811" y="571.5488">:Repositories</text><rect fill="#E3E3E3" height="46.9766" rx="2.5" ry="2.5" style="stroke:#181818;stroke-width:0.5;" width="103" x="917" y="33.5117"/><text fill="#000000" font-family="sans-serif" font-size="14" lengthAdjust="spacing" textLength="82" x="927.5" y="54.0469">repositories</text><text fill="#000000" font-family="sans-serif" font-size="14" lengthAdjust="spacing" textLength="89" x="924" y="70.5352">:Repositories</text><rect fill="#E3E3E3" height="46.9766" rx="2.5" ry="2.5" style="stroke:#181818;stroke-width:0.5;" width="103" x="917" y="551.0137"/><text fill="#000000" font-family="sans-serif" font-size="14" lengthAdjust="spacing" textLength="82" x="927.5" y="571.5488">repositories</text><text fill="#000000" font-family="sans-serif" font-size="14" lengthAdjust="spacing" textLength="89" x="924" y="588.0371">:Repositories</text><rect fill="#E3E3E3" height="46.9766" rx="2.5" ry="2.5" style="stroke:#181818;stroke-width:0.5;" width="140" x="1030" y="33.5117"/><text fill="#000000" font-family="sans-serif" font-size="14" lengthAdjust="spacing" textLength="120" x="1040" y="54.0469">vehicleRepository</text><text fill="#000000" font-family="sans-serif" font-size="14" lengthAdjust="spacing" textLength="126" x="1037" y="70.5352">:VehicleRepository</text><rect fill="#E3E3E3" height="46.9766" rx="2.5" ry="2.5" style="stroke:#181818;stroke-width:0.5;" width="140" x="1030" y="551.0137"/><text fill="#000000" font-family="sans-serif" font-size="14" lengthAdjust="spacing" textLength="120" x="1040" y="571.5488">vehicleRepository</text><text fill="#000000" font-family="sans-serif" font-size="14" lengthAdjust="spacing" textLength="126" x="1037" y="588.0371">:VehicleRepository</text><rect fill="#FFFFFF" height="442.5254" style="stroke:#181818;stroke-width:1.0;" width="10" x="51.5" y="91.4883"/><rect fill="#FFFFFF" height="70.7988" style="stroke:#181818;stroke-width:1.0;" width="10" x="511.5" y="112.7988"/><rect fill="#FFFFFF" height="29.3105" style="stroke:#181818;stroke-width:1.0;" width="10" x="511.5" y="504.7031"/><rect fill="#FFFFFF" height="321.1055" style="stroke:#181818;stroke-width:1.0;" width="10" x="720.5" y="183.5977"/><rect fill="#FFFFFF" height="29.3105" style="stroke:#181818;stroke-width:1.0;" width="10" x="850.5" y="212.9082"/><rect fill="#FFFFFF" height="29.3105" style="stroke:#181818;stroke-width:1.0;" width="10" x="963.5" y="271.5293"/><rect fill="#FFFFFF" height="145.2422" style="stroke:#181818;stroke-width:1.0;" width="10" x="1100" y="330.1504"/><rect fill="#FFFFFF" height="101.9316" style="stroke:#181818;stroke-width:1.0;" width="10" x="1100" y="330.1504"/><rect fill="#FFFFFF" height="40.3105" style="stroke:#181818;stroke-width:1.0;" width="10" x="1105" y="391.7715"/><polygon fill="#181818" points="499.5,108.7988,509.5,112.7988,499.5,116.7988,503.5,112.7988" style="stroke:#181818;stroke-width:1.0;"/><line style="stroke:#181818;stroke-width:1.0;" x1="61.5" x2="505.5" y1="112.7988" y2="112.7988"/><text fill="#000000" font-family="sans-serif" font-size="13" font-weight="bold" lengthAdjust="spacing" textLength="9" x="68.5" y="108.0566">1</text><text fill="#000000" font-family="sans-serif" font-size="13" lengthAdjust="spacing" textLength="332" x="81.5" y="108.0566">Asks to generate a list of vehicles needing check-up</text><polygon fill="#181818" points="645,138.1094,655,142.1094,645,146.1094,649,142.1094" style="stroke:#181818;stroke-width:1.0;"/><line style="stroke:#181818;stroke-width:1.0;" x1="521.5" x2="651" y1="142.1094" y2="142.1094"/><text fill="#000000" font-family="sans-serif" font-size="13" font-weight="bold" lengthAdjust="spacing" textLength="9" x="528.5" y="137.3672">2</text><text fill="#000000" font-family="sans-serif" font-size="13" lengthAdjust="spacing" textLength="38" x="541.5" y="137.3672">create</text><rect fill="#E3E3E3" height="30.4883" rx="2.5" ry="2.5" style="stroke:#181818;stroke-width:0.5;" width="137" x="657" y="120.7988"/><text fill="#000000" font-family="sans-serif" font-size="14" lengthAdjust="spacing" textLength="123" x="664" y="141.334">:VehicleController</text><polygon fill="#181818" points="708.5,179.5977,718.5,183.5977,708.5,187.5977,712.5,183.5977" style="stroke:#181818;stroke-width:1.0;"/><line style="stroke:#181818;stroke-width:1.0;" x1="516.5" x2="714.5" y1="183.5977" y2="183.5977"/><text fill="#000000" font-family="sans-serif" font-size="13" font-weight="bold" lengthAdjust="spacing" textLength="9" x="523.5" y="178.8555">3</text><text fill="#000000" font-family="sans-serif" font-size="13" lengthAdjust="spacing" textLength="119" x="536.5" y="178.8555">requestActivation()</text><polygon fill="#181818" points="838.5,208.9082,848.5,212.9082,838.5,216.9082,842.5,212.9082" style="stroke:#181818;stroke-width:1.0;"/><line style="stroke:#181818;stroke-width:1.0;" x1="730.5" x2="844.5" y1="212.9082" y2="212.9082"/><text fill="#000000" font-family="sans-serif" font-size="13" font-weight="bold" lengthAdjust="spacing" textLength="9" x="737.5" y="208.166">4</text><text fill="#000000" font-family="sans-serif" font-size="13" lengthAdjust="spacing" textLength="81" x="750.5" y="208.166">getInstance()</text><polygon fill="#181818" points="741.5,238.2188,731.5,242.2188,741.5,246.2188,737.5,242.2188" style="stroke:#181818;stroke-width:1.0;"/><line style="stroke:#181818;stroke-width:1.0;stroke-dasharray:2.0,2.0;" x1="735.5" x2="854.5" y1="242.2188" y2="242.2188"/><text fill="#000000" font-family="sans-serif" font-size="13" font-weight="bold" lengthAdjust="spacing" textLength="9" x="747.5" y="237.4766">5</text><text fill="#000000" font-family="sans-serif" font-size="13" lengthAdjust="spacing" textLength="75" x="760.5" y="237.4766">repositories</text><polygon fill="#181818" points="951.5,267.5293,961.5,271.5293,951.5,275.5293,955.5,271.5293" style="stroke:#181818;stroke-width:1.0;"/><line style="stroke:#181818;stroke-width:1.0;" x1="730.5" x2="957.5" y1="271.5293" y2="271.5293"/><text fill="#000000" font-family="sans-serif" font-size="13" font-weight="bold" lengthAdjust="spacing" textLength="9" x="737.5" y="266.7871">6</text><text fill="#000000" font-family="sans-serif" font-size="13" lengthAdjust="spacing" textLength="140" x="750.5" y="266.7871">getVehicleRepository()</text><polygon fill="#181818" points="741.5,296.8398,731.5,300.8398,741.5,304.8398,737.5,300.8398" style="stroke:#181818;stroke-width:1.0;"/><line style="stroke:#181818;stroke-width:1.0;stroke-dasharray:2.0,2.0;" x1="735.5" x2="967.5" y1="300.8398" y2="300.8398"/><text fill="#000000" font-family="sans-serif" font-size="13" font-weight="bold" lengthAdjust="spacing" textLength="9" x="747.5" y="296.0977">7</text><text fill="#000000" font-family="sans-serif" font-size="13" lengthAdjust="spacing" textLength="111" x="760.5" y="296.0977">vehicleRepository</text><polygon fill="#181818" points="1088,326.1504,1098,330.1504,1088,334.1504,1092,330.1504" style="stroke:#181818;stroke-width:1.0;"/><line style="stroke:#181818;stroke-width:1.0;" x1="730.5" x2="1094" y1="330.1504" y2="330.1504"/><text fill="#000000" font-family="sans-serif" font-size="13" font-weight="bold" lengthAdjust="spacing" textLength="9" x="737.5" y="325.4082">8</text><text fill="#000000" font-family="sans-serif" font-size="13" lengthAdjust="spacing" textLength="78" x="750.5" y="325.4082">requestList()</text><path d="M1020,345.1504 L1094,345.1504 L1094,352.4609 L1084,362.4609 L1020,362.4609 L1020,345.1504 " fill="#EEEEEE" style="stroke:#000000;stroke-width:1.5;"/><rect fill="none" height="101.9316" style="stroke:#000000;stroke-width:1.5;" width="315" x="1020" y="345.1504"/><text fill="#000000" font-family="sans-serif" font-size="13" font-weight="bold" lengthAdjust="spacing" textLength="29" x="1035" y="358.7188">loop</text><text fill="#000000" font-family="sans-serif" font-size="11" font-weight="bold" lengthAdjust="spacing" textLength="177" x="1109" y="357.7852">[for each vehicle in vehicleList]</text><line style="stroke:#181818;stroke-width:1.0;" x1="1110" x2="1157" y1="378.7715" y2="378.7715"/><line style="stroke:#181818;stroke-width:1.0;" x1="1157" x2="1157" y1="378.7715" y2="391.7715"/><line style="stroke:#181818;stroke-width:1.0;" x1="1116" x2="1157" y1="391.7715" y2="391.7715"/><polygon fill="#181818" points="1126,387.7715,1116,391.7715,1126,395.7715,1122,391.7715" style="stroke:#181818;stroke-width:1.0;"/><text fill="#000000" font-family="sans-serif" font-size="13" font-weight="bold" lengthAdjust="spacing" textLength="9" x="1122" y="374.0293">9</text><text fill="#000000" font-family="sans-serif" font-size="13" lengthAdjust="spacing" textLength="188" x="1135" y="374.0293">getVehiclesNeedingCheckUp()</text><line style="stroke:#181818;stroke-width:1.0;stroke-dasharray:2.0,2.0;" x1="1115" x2="1157" y1="431.082" y2="431.082"/><line style="stroke:#181818;stroke-width:1.0;stroke-dasharray:2.0,2.0;" x1="1157" x2="1157" y1="431.082" y2="444.082"/><line style="stroke:#181818;stroke-width:1.0;stroke-dasharray:2.0,2.0;" x1="1110" x2="1157" y1="444.082" y2="444.082"/><polygon fill="#181818" points="1120,440.082,1110,444.082,1120,448.082,1116,444.082" style="stroke:#181818;stroke-width:1.0;"/><text fill="#000000" font-family="sans-serif" font-size="13" font-weight="bold" lengthAdjust="spacing" textLength="18" x="1122" y="426.3398">10</text><text fill="#000000" font-family="sans-serif" font-size="13" lengthAdjust="spacing" textLength="62" x="1144" y="426.3398">true/false</text><polygon fill="#181818" points="741.5,471.3926,731.5,475.3926,741.5,479.3926,737.5,475.3926" style="stroke:#181818;stroke-width:1.0;"/><line style="stroke:#181818;stroke-width:1.0;stroke-dasharray:2.0,2.0;" x1="735.5" x2="1099" y1="475.3926" y2="475.3926"/><text fill="#000000" font-family="sans-serif" font-size="13" font-weight="bold" lengthAdjust="spacing" textLength="18" x="747.5" y="470.6504">11</text><text fill="#000000" font-family="sans-serif" font-size="13" lengthAdjust="spacing" textLength="158" x="769.5" y="470.6504">vehiclesNeedingCheckup</text><polygon fill="#181818" points="532.5,500.7031,522.5,504.7031,532.5,508.7031,528.5,504.7031" style="stroke:#181818;stroke-width:1.0;"/><line style="stroke:#181818;stroke-width:1.0;stroke-dasharray:2.0,2.0;" x1="526.5" x2="724.5" y1="504.7031" y2="504.7031"/><text fill="#000000" font-family="sans-serif" font-size="13" font-weight="bold" lengthAdjust="spacing" textLength="18" x="538.5" y="499.9609">12</text><text fill="#000000" font-family="sans-serif" font-size="13" lengthAdjust="spacing" textLength="158" x="560.5" y="499.9609">vehiclesNeedingCheckup</text><polygon fill="#181818" points="67.5,530.0137,57.5,534.0137,67.5,538.0137,63.5,534.0137" style="stroke:#181818;stroke-width:1.0;"/><line style="stroke:#181818;stroke-width:1.0;stroke-dasharray:2.0,2.0;" x1="61.5" x2="515.5" y1="534.0137" y2="534.0137"/><text fill="#000000" font-family="sans-serif" font-size="13" font-weight="bold" lengthAdjust="spacing" textLength="18" x="73.5" y="529.2715">13</text><text fill="#000000" font-family="sans-serif" font-size="13" lengthAdjust="spacing" textLength="404" x="95.5" y="529.2715">Provides a list of vehicles that need check-up (and all their info)</text><!--SRC=[XLJ1Rkem4BpxArQSsahetJbKGaX8IF1KjQMdNbndIIoCdTeELV- -QuSaXXZ8AVRkp4x6dhYzr3Mt_007euseh3aWUDiWStsbvcBFItpplmh1el1SbofjS1Klp8_K9UouSiWORxpHpU4BBRqBRonCbWhHmuPhOh8Ju0wM6yO8xwMGDTSU9hD5XMBVr6lf_7OLUxQhYvOFhAHGk33QMwFKYMhn_hg-Q7p5sZX9eoMwsDDl_Bx9e9yKdaDiWlZKOuANzVpz775inGpC1Fkut8lOKMVqHHwvn-Z3SWFJP_fQcC7SxHru0oLgjA7EGP4XO7OTYmEDM0IxHJ1isjG36Hd6Y8R8WYTFJqGeB58btQPDYzyDEZzlSTBeXqV62ZpZwHVHtWWaWeoFn5UYNsb7DqCWCVN8dEainp0zIGlA1jzJHLcgJbGucrR5oFzKJZn25fk7WUEpIQQsY6xCg7LmCbpQu66Fp1pvxQeofeOTPOMcLrq3IDszXWaCw1chk29jiCFzRszCJDYs9g61w8QQAtEk30e_Z7zjzWCmyI_hmiqwwkAEKImlx7IpZvalfeJSqzGUSHV2-oGn4sbSGhm8JacUmOirHrbGK3FPzHNtCS1zUk61wmAuKbH3QUd8T-Rn8ep9AlmlpfT_]--></g></svg>