<?xml version="1.0" encoding="us-ascii" standalone="no"?><svg xmlns="http://www.w3.org/2000/svg" xmlns:xlink="http://www.w3.org/1999/xlink" contentStyleType="text/css" height="278.6px" preserveAspectRatio="none" style="width:459px;height:278px;background:#FFFFFF;" version="1.1" viewBox="0 0 459 278" width="459.2px" zoomAndPan="magnify"><defs/><g><!--class Skill--><g id="elem_Skill"><rect codeLine="1" fill="#F1F1F1" height="249.725" id="Skill" rx="3.5" ry="3.5" style="stroke:#181818;stroke-width:0.6999999999999998;" width="429.8" x="9.8" y="9.8"/><ellipse cx="198.45" cy="32.2" fill="#ADD1B2" rx="15.4" ry="15.4" style="stroke:#181818;stroke-width:1.3999999999999997;"/><path d="M202.6062,40.0969 Q201.7969,40.5125 200.9,40.7094 Q200.0031,40.9281 199.0187,40.9281 Q195.5187,40.9281 193.6594,38.6312 Q191.8219,36.3125 191.8219,31.9375 Q191.8219,27.5625 193.6594,25.2437 Q195.5187,22.925 199.0187,22.925 Q200.0031,22.925 200.9,23.1437 Q201.8187,23.3625 202.6062,23.7781 L202.6062,27.5844 Q201.7312,26.775 200.9,26.4031 Q200.0687,26.0094 199.1937,26.0094 Q197.3125,26.0094 196.35,27.5187 Q195.3875,29.0062 195.3875,31.9375 Q195.3875,34.8687 196.35,36.3781 Q197.3125,37.8656 199.1937,37.8656 Q200.0687,37.8656 200.9,37.4937 Q201.7312,37.1 202.6062,36.2906 L202.6062,40.0969 Z " fill="#000000"/><text fill="#000000" font-family="sans-serif" font-size="19.6" lengthAdjust="spacing" textLength="40.6" x="227.15" y="38.9854">Skill</text><line style="stroke:#181818;stroke-width:0.6999999999999998;" x1="11.2" x2="438.2" y1="54.6" y2="54.6"/><rect fill="none" height="8.4" style="stroke:#C82930;stroke-width:1.3999999999999997;" width="8.4" x="21" y="69.5078"/><text fill="#000000" font-family="sans-serif" font-size="19.6" lengthAdjust="spacing" textLength="89.6" x="37.8" y="78.3932">id: String</text><rect fill="none" height="8.4" style="stroke:#C82930;stroke-width:1.3999999999999997;" width="8.4" x="21" y="92.3234"/><text fill="#000000" font-family="sans-serif" font-size="19.6" lengthAdjust="spacing" textLength="128.8" x="37.8" y="101.2088">name: String</text><rect fill="none" height="8.4" style="stroke:#C82930;stroke-width:1.3999999999999997;" width="8.4" x="21" y="115.1391"/><text fill="#000000" font-family="sans-serif" font-size="19.6" lengthAdjust="spacing" textLength="182" x="37.8" y="124.0244">description: String</text><line style="stroke:#181818;stroke-width:0.6999999999999998;" x1="11.2" x2="438.2" y1="134.2469" y2="134.2469"/><ellipse cx="25.2" cy="153.3547" fill="#84BE84" rx="4.2" ry="4.2" style="stroke:#038048;stroke-width:1.3999999999999997;"/><text fill="#000000" font-family="sans-serif" font-size="19.6" lengthAdjust="spacing" textLength="135.8" x="37.8" y="158.04">getId(): String</text><ellipse cx="25.2" cy="176.1703" fill="#84BE84" rx="4.2" ry="4.2" style="stroke:#038048;stroke-width:1.3999999999999997;"/><text fill="#000000" font-family="sans-serif" font-size="19.6" lengthAdjust="spacing" textLength="176.4" x="37.8" y="180.8557">getName(): String</text><ellipse cx="25.2" cy="198.9859" fill="#84BE84" rx="4.2" ry="4.2" style="stroke:#038048;stroke-width:1.3999999999999997;"/><text fill="#000000" font-family="sans-serif" font-size="19.6" lengthAdjust="spacing" textLength="231" x="37.8" y="203.6713">getDescription(): String</text><ellipse cx="25.2" cy="221.8016" fill="#84BE84" rx="4.2" ry="4.2" style="stroke:#038048;stroke-width:1.3999999999999997;"/><text fill="#000000" font-family="sans-serif" font-size="19.6" lengthAdjust="spacing" textLength="285.6" x="37.8" y="226.4869">setName(name: String): void</text><ellipse cx="25.2" cy="244.6172" fill="#84BE84" rx="4.2" ry="4.2" style="stroke:#038048;stroke-width:1.3999999999999997;"/><text fill="#000000" font-family="sans-serif" font-size="19.6" lengthAdjust="spacing" textLength="393.4" x="37.8" y="249.3025">setDescription(description: String): void</text></g><!--SRC=[Iyv9B2vM2CxEpCbHgEPI009TXSmKAuNWagBCl7IeG5vYRYgQK4fgSN9HPa59PduUN0OifQsGdbhYcQAXYQ81BEe7D0QRk0l2B0pfOgWsP2S0rPJbPwOWL20RWCLXCFMr0000]--></g></svg>