<?xml version="1.0" encoding="us-ascii" standalone="no"?><svg xmlns="http://www.w3.org/2000/svg" xmlns:xlink="http://www.w3.org/1999/xlink" contentStyleType="text/css" height="878px" preserveAspectRatio="none" style="width:826px;height:878px;background:#FFFFFF;" version="1.1" viewBox="0 0 826 878" width="826px" zoomAndPan="magnify"><defs/><g><text fill="#000000" font-family="sans-serif" font-size="14" font-weight="bold" lengthAdjust="spacing" textLength="131" x="340.83" y="23.5352">Use Case Diagram</text><!--cluster actors--><g id="cluster_actors"><rect fill="none" height="238" rx="2.5" ry="2.5" style="stroke:#FFC0CB;stroke-width:1.0;" width="234" x="7" y="415.4883"/><text fill="#000000" font-family="sans-serif" font-size="14" font-weight="bold" lengthAdjust="spacing" textLength="103" x="15" y="431.0234">System Actors</text></g><!--cluster usecases--><g id="cluster_usecases"><rect fill="none" height="828" rx="2.5" ry="2.5" style="stroke:#FFC0CB;stroke-width:1.0;" width="551.66" x="269" y="44.4883"/><text fill="#000000" font-family="sans-serif" font-size="14" font-weight="bold" lengthAdjust="spacing" textLength="73" x="508.33" y="60.0234">Use Cases</text></g><!--entity FM--><g id="elem_FM"><ellipse cx="123.5" cy="569.7483" fill="#F1F1F1" rx="8" ry="8" style="stroke:#181818;stroke-width:0.5;"/><path d="M123.5,577.7483 L123.5,604.7483 M110.5,585.7483 L136.5,585.7483 M123.5,604.7483 L110.5,619.7483 M123.5,604.7483 L136.5,619.7483 " fill="none" style="stroke:#181818;stroke-width:0.5;"/><text fill="#000000" font-family="sans-serif" font-size="14" lengthAdjust="spacing" textLength="97" x="75" y="634.7834">Fleet Manager</text></g><!--entity HRM--><g id="elem_HRM"><ellipse cx="123.5" cy="458.7483" fill="#F1F1F1" rx="8" ry="8" style="stroke:#181818;stroke-width:0.5;"/><path d="M123.5,466.7483 L123.5,493.7483 M110.5,474.7483 L136.5,474.7483 M123.5,493.7483 L110.5,508.7483 M123.5,493.7483 L136.5,508.7483 " fill="none" style="stroke:#181818;stroke-width:0.5;"/><text fill="#000000" font-family="sans-serif" font-size="14" lengthAdjust="spacing" textLength="187" x="30" y="523.7834">Human Resources Manager</text></g><g id="elem_UC3"><ellipse cx="544.8295" cy="321.4842" fill="#F1F1F1" rx="259.8295" ry="54.3659" style="stroke:#181818;stroke-width:0.5;"/><text fill="#000000" font-family="sans-serif" font-size="14" lengthAdjust="spacing" textLength="495" x="297.3295" y="324.7752">UC3 - Register a collaborator with a job and fundamental characteristics</text></g><g id="elem_UC2"><ellipse cx="544.8289" cy="206.4881" fill="#F1F1F1" rx="117.1989" ry="25.8398" style="stroke:#181818;stroke-width:0.5;"/><text fill="#000000" font-family="sans-serif" font-size="14" lengthAdjust="spacing" textLength="201" x="444.3289" y="209.7791">UC2 - Profession registration</text></g><g id="elem_UC1"><ellipse cx="544.8274" cy="112.4898" fill="#F1F1F1" rx="154.7074" ry="33.3415" style="stroke:#181818;stroke-width:0.5;"/><text fill="#000000" font-family="sans-serif" font-size="14" lengthAdjust="spacing" textLength="280" x="404.8274" y="115.7808">UC1 - Registering skills for collaborators</text></g><g id="elem_UC5"><ellipse cx="544.826" cy="547.4855" fill="#F1F1F1" rx="172.586" ry="36.9172" style="stroke:#181818;stroke-width:0.5;"/><text fill="#000000" font-family="sans-serif" font-size="14" lengthAdjust="spacing" textLength="317" x="386.326" y="550.7765">UC5 - Generate a team proposal automatically</text></g><g id="elem_UC4"><ellipse cx="544.832" cy="443.4927" fill="#F1F1F1" rx="149.422" ry="32.2844" style="stroke:#181818;stroke-width:0.5;"/><text fill="#000000" font-family="sans-serif" font-size="14" lengthAdjust="spacing" textLength="269" x="410.332" y="446.7837">UC4 - Assigning skills to a collaborator</text></g><g id="elem_UC8"><ellipse cx="544.8281" cy="829.4859" fill="#F1F1F1" rx="120.9381" ry="26.5876" style="stroke:#181818;stroke-width:0.5;"/><text fill="#000000" font-family="sans-serif" font-size="14" lengthAdjust="spacing" textLength="205" x="440.3281" y="832.7769">UC8 - Overhauling of vehicles</text></g><g id="elem_UC7"><ellipse cx="544.8319" cy="735.4907" fill="#F1F1F1" rx="150.8619" ry="32.5724" style="stroke:#181818;stroke-width:0.5;"/><text fill="#000000" font-family="sans-serif" font-size="14" lengthAdjust="spacing" textLength="272" x="408.8319" y="738.7817">UC7 - Register the overhaul of a vehicle</text></g><g id="elem_UC6"><ellipse cx="544.8255" cy="643.4894" fill="#F1F1F1" rx="108.8555" ry="24.1711" style="stroke:#181818;stroke-width:0.5;"/><text fill="#000000" font-family="sans-serif" font-size="14" lengthAdjust="spacing" textLength="183" x="453.3255" y="646.7804">UC6 - Registering Vehicles</text></g><!--link HRM to UC1--><g id="link_HRM_UC1"><path d="M128.87,449.8683 C138.87,380.7683 170.04,236.4083 261,163.4883 C297.2,134.4683 338.4981,120.6999 383.9581,113.7899 " fill="none" id="HRM-to-UC1" style="stroke:#181818;stroke-width:1.0;"/><polygon fill="#181818" points="389.89,112.8883,380.3911,110.2862,384.9468,113.6397,381.5933,118.1953,389.89,112.8883" style="stroke:#181818;stroke-width:1.0;"/></g><!--link HRM to UC2--><g id="link_HRM_UC2"><path d="M134.98,449.7583 C151.84,395.4483 190.47,297.8783 261,249.4883 C309.73,216.0483 368.2782,204.7224 423.4082,201.8324 " fill="none" id="HRM-to-UC2" style="stroke:#181818;stroke-width:1.0;"/><polygon fill="#181818" points="429.4,201.5183,420.2029,197.9949,424.4069,201.78,420.6217,205.9839,429.4,201.5183" style="stroke:#181818;stroke-width:1.0;"/></g><!--link HRM to UC3--><g id="link_HRM_UC3"><path d="M170.9,449.9183 C196.19,430.5783 228.83,408.1883 261,393.4883 C290.84,379.8483 317.9146,370.1698 350.3246,360.8298 " fill="none" id="HRM-to-UC3" style="stroke:#181818;stroke-width:1.0;"/><polygon fill="#181818" points="356.09,359.1683,346.3343,357.8169,351.2855,360.5528,348.5496,365.5041,356.09,359.1683" style="stroke:#181818;stroke-width:1.0;"/></g><!--link HRM to UC4--><g id="link_HRM_UC4"><path d="M217.3,478.5283 C273.99,472.4483 341.4643,465.2088 404.3343,458.4588 " fill="none" id="HRM-to-UC4" style="stroke:#181818;stroke-width:1.0;"/><polygon fill="#181818" points="410.3,457.8183,400.9244,454.8019,405.3286,458.352,401.7784,462.7562,410.3,457.8183" style="stroke:#181818;stroke-width:1.0;"/></g><!--link HRM to UC5--><g id="link_HRM_UC5"><path d="M217.3,501.5483 C270.86,509.0783 333.4185,517.8824 393.8385,526.3824 " fill="none" id="HRM-to-UC5" style="stroke:#181818;stroke-width:1.0;"/><polygon fill="#181818" points="399.78,527.2183,391.425,522.0035,394.8288,526.5217,390.3105,529.9255,399.78,527.2183" style="stroke:#181818;stroke-width:1.0;"/></g><!--link FM to UC6--><g id="link_FM_UC6"><path d="M172.19,604.4883 C238.42,611.4383 353.7927,623.5524 439.7927,632.5724 " fill="none" id="FM-to-UC6" style="stroke:#181818;stroke-width:1.0;"/><polygon fill="#181818" points="445.76,633.1983,437.2263,628.2813,440.7873,632.6767,436.3919,636.2377,445.76,633.1983" style="stroke:#181818;stroke-width:1.0;"/></g><!--link FM to UC7--><g id="link_FM_UC7"><path d="M172.28,636.0383 C197.43,653.5583 229.52,673.3283 261,685.4883 C306.93,703.2283 353.5826,713.7979 400.8526,721.2179 " fill="none" id="FM-to-UC7" style="stroke:#181818;stroke-width:1.0;"/><polygon fill="#181818" points="406.78,722.1483,398.5092,716.801,401.8405,721.3729,397.2686,724.7042,406.78,722.1483" style="stroke:#181818;stroke-width:1.0;"/></g><!--link FM to UC8--><g id="link_FM_UC8"><path d="M141.41,637.9283 C162.68,681.3583 203.49,750.5483 261,785.4883 C309.31,814.8383 364.5489,826.323 417.6589,830.543 " fill="none" id="FM-to-UC8" style="stroke:#181818;stroke-width:1.0;"/><polygon fill="#181818" points="423.64,831.0183,414.9851,826.318,418.6557,830.6222,414.3514,834.2928,423.64,831.0183" style="stroke:#181818;stroke-width:1.0;"/></g><!--SRC=[RP8nRzim48Lt_eg3bqmUuZYsfmAf2pUBqI91kr-eayIQuXaabS0e-jzxj6XR8gB1mBFUz-xfoBjmCEw87ZlesB5kFNS4qVUaRc-Eg0_Oq6iyMG9FEg9hBAcxcoEqMF67SGtKQ0Ef4Npr_rKWprVs5VajM_PmDEwW_YaLJPJWNu5WY_BppM0Zf5AMwWYHmPkcZL2P56NOANNDXDdhAKJgu4b7zW4-VsQ00N1m32tE0cOxInHXZqw-pfzTk_tu_NFVeOCN2jnxJM7YV7xPf-wJCfTF26T77qWdCOpCIapR1vXBQ6EakGS4pTRY6tjCCpzCREM_F_m6w2geUrTXHowY1TtAGhKm0Xezp92mCdqXwJyzrnI2B4lsdmP9k8YCB4haVbGe7QASdhK1QkapBdSPUL_oZy9_9qVY8YaVALqQpqSEKXlxo9sCrsZjAISybWbBINYImeqRpPUZdsudqykItWZzuvryYxrDFDVmJgtHLiuiCvkIMOyF8RO4d0CIZHS-q-kINXKR-vt7PV_gx9Sh0lFvb-l6RdfHw8T2Bmizx6jtaQkfN4_b9jtB_m00]--></g></svg>