<?xml version="1.0" encoding="us-ascii" standalone="no"?><svg xmlns="http://www.w3.org/2000/svg" xmlns:xlink="http://www.w3.org/1999/xlink" contentStyleType="text/css" height="803px" preserveAspectRatio="none" style="width:606px;height:803px;background:#FFFFFF;" version="1.1" viewBox="0 0 606 803" width="606px" zoomAndPan="magnify"><defs/><g><text fill="#000000" font-family="sans-serif" font-size="14" font-weight="bold" lengthAdjust="spacing" textLength="127" x="232.5" y="25.1074">Use Case Diagram</text><!--cluster actors--><g id="cluster_actors"><rect fill="none" height="247" rx="2.5" ry="2.5" style="stroke:#FFC0CB;stroke-width:1.0;" width="209" x="7" y="342.6211"/><text fill="#000000" font-family="sans-serif" font-size="14" font-weight="bold" lengthAdjust="spacing" textLength="99" x="16" y="359.7285">System Actors</text></g><!--cluster usecases--><g id="cluster_usecases"><rect fill="none" height="751" rx="2.5" ry="2.5" style="stroke:#FFC0CB;stroke-width:1.0;" width="356" x="244" y="46.6211"/><text fill="#000000" font-family="sans-serif" font-size="14" font-weight="bold" lengthAdjust="spacing" textLength="74" x="385" y="63.7285">Use Cases</text></g><!--entity HRM--><g id="elem_HRM"><ellipse cx="111.5" cy="388.6211" fill="#F1F1F1" rx="8" ry="8" style="stroke:#181818;stroke-width:0.5;"/><path d="M111.5,396.6211 L111.5,423.6211 M98.5,404.6211 L124.5,404.6211 M111.5,423.6211 L98.5,438.6211 M111.5,423.6211 L124.5,438.6211 " fill="none" style="stroke:#181818;stroke-width:0.5;"/><text fill="#000000" font-family="sans-serif" font-size="14" lengthAdjust="spacing" textLength="176" x="23.5" y="455.2285">Human Resources Manager</text></g><!--entity FM--><g id="elem_FM"><ellipse cx="111.5" cy="502.6211" fill="#F1F1F1" rx="8" ry="8" style="stroke:#181818;stroke-width:0.5;"/><path d="M111.5,510.6211 L111.5,537.6211 M98.5,518.6211 L124.5,518.6211 M111.5,537.6211 L98.5,552.6211 M111.5,537.6211 L124.5,552.6211 " fill="none" style="stroke:#181818;stroke-width:0.5;"/><text fill="#000000" font-family="sans-serif" font-size="14" lengthAdjust="spacing" textLength="177" x="23" y="569.2285">Vehicles and Fleet Manager</text></g><g id="elem_UC1"><ellipse cx="421.94" cy="114.7091" fill="#F1F1F1" rx="143.44" ry="31.088" style="stroke:#181818;stroke-width:0.5;"/><text fill="#000000" font-family="sans-serif" font-size="14" lengthAdjust="spacing" textLength="253" x="295.44" y="118.506">UC1 - Registering skills for collaborators</text></g><g id="elem_UC2"><ellipse cx="422.0926" cy="205.6396" fill="#F1F1F1" rx="110.5926" ry="24.5185" style="stroke:#181818;stroke-width:0.5;"/><text fill="#000000" font-family="sans-serif" font-size="14" lengthAdjust="spacing" textLength="182" x="331.0926" y="209.4365">UC2 - Profession registration</text></g><g id="elem_UC3"><ellipse cx="421.995" cy="289.8201" fill="#F1F1F1" rx="111.495" ry="24.699" style="stroke:#181818;stroke-width:0.5;"/><text fill="#000000" font-family="sans-serif" font-size="14" lengthAdjust="spacing" textLength="184" x="329.995" y="293.617">UC3 - Register a collaborator</text></g><g id="elem_UC4"><ellipse cx="421.7633" cy="379.6738" fill="#F1F1F1" rx="138.2633" ry="30.0527" style="stroke:#181818;stroke-width:0.5;"/><text fill="#000000" font-family="sans-serif" font-size="14" lengthAdjust="spacing" textLength="242" x="300.7633" y="383.4706">UC4 - Assigning skills to a collaborator</text></g><g id="elem_UC5"><ellipse cx="421.969" cy="479.4149" fill="#F1F1F1" rx="161.969" ry="34.7938" style="stroke:#181818;stroke-width:0.5;"/><text fill="#000000" font-family="sans-serif" font-size="14" lengthAdjust="spacing" textLength="292" x="275.969" y="483.2118">UC5 - Generate a team proposal automatically</text></g><g id="elem_UC6"><ellipse cx="421.7713" cy="573.4754" fill="#F1F1F1" rx="104.7713" ry="23.3543" style="stroke:#181818;stroke-width:0.5;"/><text fill="#000000" font-family="sans-serif" font-size="14" lengthAdjust="spacing" textLength="169" x="337.2713" y="577.2722">UC6 - Registering Vehicles</text></g><g id="elem_UC7"><ellipse cx="421.9684" cy="663.6148" fill="#F1F1F1" rx="142.9684" ry="30.9937" style="stroke:#181818;stroke-width:0.5;"/><text fill="#000000" font-family="sans-serif" font-size="14" lengthAdjust="spacing" textLength="252" x="295.9684" y="667.4117">UC7 - Register the overhaul of a vehicle</text></g><g id="elem_UC8"><ellipse cx="422.1212" cy="755.5453" fill="#F1F1F1" rx="115.1212" ry="25.4242" style="stroke:#181818;stroke-width:0.5;"/><text fill="#000000" font-family="sans-serif" font-size="14" lengthAdjust="spacing" textLength="188" x="326.1212" y="759.3422">UC8 - Overhauling of vehicles</text></g><!--link HRM to UC1--><g id="link_HRM_UC1"><path d="M120.69,379.8111 C134.46,323.1811 167.69,220.0111 236,163.6211 C254.19,148.6011 270.8048,139.9776 293.5848,132.6976 " fill="none" id="HRM-to-UC1" style="stroke:#181818;stroke-width:1.0;"/><polygon fill="#181818" points="299.3,130.8711,289.5095,129.8006,294.5373,132.3932,291.9448,137.421,299.3,130.8711" style="stroke:#181818;stroke-width:1.0;"/></g><!--link HRM to UC2--><g id="link_HRM_UC2"><path d="M130.34,380.0311 C150.32,340.3011 186.52,280.4411 236,247.6211 C260.7,231.2411 285.0325,222.4349 313.8125,216.2849 " fill="none" id="HRM-to-UC2" style="stroke:#181818;stroke-width:1.0;"/><polygon fill="#181818" points="319.68,215.0311,310.0428,213.0002,314.7904,216.076,311.7146,220.8235,319.68,215.0311" style="stroke:#181818;stroke-width:1.0;"/></g><!--link HRM to UC3--><g id="link_HRM_UC3"><path d="M158.77,379.9811 C180.88,362.8511 208.49,343.9411 236,331.6211 C265.01,318.6311 292.558,310.6938 322.948,304.3138 " fill="none" id="HRM-to-UC3" style="stroke:#181818;stroke-width:1.0;"/><polygon fill="#181818" points="328.82,303.0811,319.1902,301.0156,323.9267,304.1084,320.8338,308.8449,328.82,303.0811" style="stroke:#181818;stroke-width:1.0;"/></g><!--link HRM to UC4--><g id="link_HRM_UC4"><path d="M199.67,408.3211 C231.65,404.1711 262.4598,400.1722 296.7198,395.7322 " fill="none" id="HRM-to-UC4" style="stroke:#181818;stroke-width:1.0;"/><polygon fill="#181818" points="302.67,394.9611,293.2306,392.151,297.7115,395.6037,294.2587,400.0846,302.67,394.9611" style="stroke:#181818;stroke-width:1.0;"/></g><!--link HRM to UC5--><g id="link_HRM_UC5"><path d="M199.67,436.5711 C231.12,442.6911 261.2904,448.5553 295.0604,455.1253 " fill="none" id="HRM-to-UC5" style="stroke:#181818;stroke-width:1.0;"/><polygon fill="#181818" points="300.95,456.2711,292.8795,450.626,296.042,455.3162,291.3518,458.4787,300.95,456.2711" style="stroke:#181818;stroke-width:1.0;"/></g><!--link FM to UC6--><g id="link_FM_UC6"><path d="M200.08,544.9811 C240.96,550.2811 283.6297,555.8101 324.8397,561.1501 " fill="none" id="FM-to-UC6" style="stroke:#181818;stroke-width:1.0;"/><polygon fill="#181818" points="330.79,561.9211,322.3786,556.7977,325.8315,561.2786,321.3506,564.7314,330.79,561.9211" style="stroke:#181818;stroke-width:1.0;"/></g><!--link FM to UC7--><g id="link_FM_UC7"><path d="M164.75,573.2611 C185.98,587.9011 211.3,603.6011 236,614.6211 C261.49,625.9911 284.3727,633.6347 311.4027,640.8447 " fill="none" id="FM-to-UC7" style="stroke:#181818;stroke-width:1.0;"/><polygon fill="#181818" points="317.2,642.3911,309.535,636.2067,312.3689,641.1024,307.4731,643.9364,317.2,642.3911" style="stroke:#181818;stroke-width:1.0;"/></g><!--link FM to UC8--><g id="link_FM_UC8"><path d="M129.51,573.3411 C149.14,614.3511 185.36,677.0611 236,711.6211 C260,728.0011 283.5129,736.9654 311.7129,743.4554 " fill="none" id="FM-to-UC8" style="stroke:#181818;stroke-width:1.0;"/><polygon fill="#181818" points="317.56,744.8011,309.6864,738.8845,312.6874,743.6797,307.8922,746.6807,317.56,744.8011" style="stroke:#181818;stroke-width:1.0;"/></g><!--SRC=[RP91R-8m48Nl_XKZBZrnA53WLAdBYlQ2MhNQtgTcabWu7cGxL6Yr_tt7IO34gW-HdlA-cJTZtuM3SKVqM4FDZdNbkIQ8lY5r-tD4VS2IFkBP4dZI4LrfITtT7A72FNyRLqA1Df0Qm5V_NmLoVh7Vaz-mPGz7umxgdrBHH2dy9n1iK3w_3PP2AcMfY10Pl2ch27kJIXbsIbrhmkJZ72BLyAGZ-m0_dmbW0EmSNOfMmEIbgT71EmLklAO0EtGofs_zB- -xeVMJAgEjUD3jOMk9uiYztQaqoIZQPQ3GEff0EeakGA_4jBc7gKGeZSpXqmPbTTO6AAIhPclnYpscw6qLiUVyJFWtpmM58CkHVQTIWeZeaLcEp0Sj0KTjUcIU8mj1dgH3wGOPvMv-f1Sv_I3qCpaI4maIARqgpqSEQ06RoBNarMZjkQ_ma5TOPbkwt4VlN-R-rN34M17mYNo5ZGKk9C6fmtjwbTDheLzx87KJvdHv03spRXbv9J2TFbxlvQPdcPvdUf7fRkBjHIx7SZMMw_JO_WC0]--></g></svg>