<?xml version="1.0" encoding="us-ascii" standalone="no"?><svg xmlns="http://www.w3.org/2000/svg" xmlns:xlink="http://www.w3.org/1999/xlink" contentStyleType="text/css" height="891px" preserveAspectRatio="none" style="width:854px;height:891px;background:#FFFFFF;" version="1.1" viewBox="0 0 854 891" width="854px" zoomAndPan="magnify"><defs/><g><text fill="#000000" font-family="sans-serif" font-size="14" font-weight="bold" lengthAdjust="spacing" textLength="143" x="348.5" y="22.9951">Use Case Diagram</text><!--cluster actors--><g id="cluster_actors"><rect fill="none" height="238" rx="2.5" ry="2.5" style="stroke:#FFC0CB;stroke-width:1.0;" width="246" x="7" y="423.2969"/><text fill="#000000" font-family="sans-serif" font-size="14" font-weight="bold" lengthAdjust="spacing" textLength="115" x="15" y="438.292">System Actors</text></g><!--cluster usecases--><g id="cluster_usecases"><rect fill="none" height="841" rx="2.5" ry="2.5" style="stroke:#FFC0CB;stroke-width:1.0;" width="567" x="281" y="44.2969"/><text fill="#000000" font-family="sans-serif" font-size="14" font-weight="bold" lengthAdjust="spacing" textLength="79" x="525" y="59.292">Use Cases</text></g><!--entity HRM--><g id="elem_HRM"><ellipse cx="129.5" cy="466.7969" fill="#F1F1F1" rx="8" ry="8" style="stroke:#181818;stroke-width:0.5;"/><path d="M129.5,474.7969 L129.5,501.7969 M116.5,482.7969 L142.5,482.7969 M129.5,501.7969 L116.5,516.7969 M129.5,501.7969 L142.5,516.7969 " fill="none" style="stroke:#181818;stroke-width:0.5;"/><text fill="#000000" font-family="sans-serif" font-size="14" lengthAdjust="spacing" textLength="197" x="31" y="531.292">Human Resources Manager</text></g><!--entity FM--><g id="elem_FM"><ellipse cx="129.5" cy="577.7969" fill="#F1F1F1" rx="8" ry="8" style="stroke:#181818;stroke-width:0.5;"/><path d="M129.5,585.7969 L129.5,612.7969 M116.5,593.7969 L142.5,593.7969 M129.5,612.7969 L116.5,627.7969 M129.5,612.7969 L142.5,627.7969 " fill="none" style="stroke:#181818;stroke-width:0.5;"/><text fill="#000000" font-family="sans-serif" font-size="14" lengthAdjust="spacing" textLength="197" x="31" y="642.292">Vehicles and Fleet Manager</text></g><g id="elem_UC1"><ellipse cx="564.5234" cy="113.4016" fill="#F1F1F1" rx="156.0234" ry="33.6047" style="stroke:#181818;stroke-width:0.5;"/><text fill="#000000" font-family="sans-serif" font-size="14" lengthAdjust="spacing" textLength="283" x="423.0234" y="116.2482">UC1 - Registering skills for collaborators</text></g><g id="elem_UC2"><ellipse cx="564.5271" cy="208.1023" fill="#F1F1F1" rx="117.0271" ry="25.8054" style="stroke:#181818;stroke-width:0.5;"/><text fill="#000000" font-family="sans-serif" font-size="14" lengthAdjust="spacing" textLength="201" x="464.0271" y="210.949">UC2 - Profession registration</text></g><g id="elem_UC3"><ellipse cx="564.6548" cy="325.2278" fill="#F1F1F1" rx="267.6548" ry="55.931" style="stroke:#181818;stroke-width:0.5;"/><text fill="#000000" font-family="sans-serif" font-size="14" lengthAdjust="spacing" textLength="511" x="309.1548" y="328.0745">UC3 - Register a collaborator with a job and fundamental characteristics</text></g><g id="elem_UC4"><ellipse cx="564.2683" cy="449.1505" fill="#F1F1F1" rx="149.7683" ry="32.3537" style="stroke:#181818;stroke-width:0.5;"/><text fill="#000000" font-family="sans-serif" font-size="14" lengthAdjust="spacing" textLength="270" x="429.2683" y="451.9972">UC4 - Assigning skills to a collaborator</text></g><g id="elem_UC5"><ellipse cx="564.2866" cy="555.4542" fill="#F1F1F1" rx="178.7866" ry="38.1573" style="stroke:#181818;stroke-width:0.5;"/><text fill="#000000" font-family="sans-serif" font-size="14" lengthAdjust="spacing" textLength="330" x="399.2866" y="558.3009">UC5 - Generate a team proposal automatically</text></g><g id="elem_UC6"><ellipse cx="564.5183" cy="653.3005" fill="#F1F1F1" rx="110.5183" ry="24.5037" style="stroke:#181818;stroke-width:0.5;"/><text fill="#000000" font-family="sans-serif" font-size="14" lengthAdjust="spacing" textLength="187" x="471.0183" y="656.1472">UC6 - Registering Vehicles</text></g><g id="elem_UC7"><ellipse cx="564.5598" cy="746.2088" fill="#F1F1F1" rx="155.0598" ry="33.412" style="stroke:#181818;stroke-width:0.5;"/><text fill="#000000" font-family="sans-serif" font-size="14" lengthAdjust="spacing" textLength="281" x="424.0598" y="749.0555">UC7 - Register the overhaul of a vehicle</text></g><g id="elem_UC8"><ellipse cx="564.6502" cy="842.2269" fill="#F1F1F1" rx="122.6502" ry="26.93" style="stroke:#181818;stroke-width:0.5;"/><text fill="#000000" font-family="sans-serif" font-size="14" lengthAdjust="spacing" textLength="209" x="458.1502" y="845.0736">UC8 - Overhauling of vehicles</text></g><!--link HRM to UC1--><g id="link_HRM_UC1"><path d="M135.1,458.1669 C145.72,388.0269 178.7,238.9469 273,164.2969 C311.04,134.1869 354.779,120.2163 402.269,113.5063 " fill="none" id="HRM-to-UC1" style="stroke:#181818;stroke-width:1.0;"/><polygon fill="#181818" points="408.21,112.6669,398.7389,109.9653,403.2592,113.3664,399.8581,117.8867,408.21,112.6669" style="stroke:#181818;stroke-width:1.0;"/></g><!--link HRM to UC2--><g id="link_HRM_UC2"><path d="M141.19,457.9369 C158.79,402.4769 199.47,301.1169 273,251.2969 C324.39,216.4769 386.6053,205.3085 444.0253,202.8985 " fill="none" id="HRM-to-UC2" style="stroke:#181818;stroke-width:1.0;"/><polygon fill="#181818" points="450.02,202.6469,440.8602,199.0278,445.0244,202.8565,441.1957,207.0208,450.02,202.6469" style="stroke:#181818;stroke-width:1.0;"/></g><!--link HRM to UC3--><g id="link_HRM_UC3"><path d="M177.46,458.1669 C204.12,438.1569 238.9,414.6669 273,399.2969 C303.84,385.3969 331.9826,375.4314 365.4126,365.8414 " fill="none" id="HRM-to-UC3" style="stroke:#181818;stroke-width:1.0;"/><polygon fill="#181818" points="371.18,364.1869,361.4259,362.8237,366.3738,365.5656,363.6319,370.5135,371.18,364.1869" style="stroke:#181818;stroke-width:1.0;"/></g><!--link HRM to UC4--><g id="link_HRM_UC4"><path d="M228.21,485.6869 C287.83,479.2169 358.885,471.5039 424.065,464.4339 " fill="none" id="HRM-to-UC4" style="stroke:#181818;stroke-width:1.0;"/><polygon fill="#181818" points="430.03,463.7869,420.6511,460.7807,425.0592,464.3261,421.5138,468.7341,430.03,463.7869" style="stroke:#181818;stroke-width:1.0;"/></g><!--link HRM to UC5--><g id="link_HRM_UC5"><path d="M228.21,509.6069 C282.84,517.0569 346.1349,525.6768 407.4849,534.0368 " fill="none" id="HRM-to-UC5" style="stroke:#181818;stroke-width:1.0;"/><polygon fill="#181818" points="413.43,534.8469,405.0525,529.6683,408.4758,534.1718,403.9723,537.5951,413.43,534.8469" style="stroke:#181818;stroke-width:1.0;"/></g><!--link FM to UC6--><g id="link_FM_UC6"><path d="M228.21,617.6769 C298.8,625.1769 387.8236,634.6328 458.6736,642.1628 " fill="none" id="FM-to-UC6" style="stroke:#181818;stroke-width:1.0;"/><polygon fill="#181818" points="464.64,642.7969,456.1131,637.8681,459.668,642.2684,455.2677,645.8233,464.64,642.7969" style="stroke:#181818;stroke-width:1.0;"/></g><!--link FM to UC7--><g id="link_FM_UC7"><path d="M181.47,645.3569 C207.59,663.1169 240.66,682.9969 273,695.2969 C320.26,713.2769 368.3618,724.0511 416.9018,731.6311 " fill="none" id="FM-to-UC7" style="stroke:#181818;stroke-width:1.0;"/><polygon fill="#181818" points="422.83,732.5569,414.5549,727.2162,417.8899,731.7854,413.3206,735.1204,422.83,732.5569" style="stroke:#181818;stroke-width:1.0;"/></g><!--link FM to UC8--><g id="link_FM_UC8"><path d="M147.79,645.3969 C170.03,689.6969 213.07,761.3369 273,797.2969 C323.32,827.4969 381.0776,839.1874 436.0176,843.4074 " fill="none" id="FM-to-UC8" style="stroke:#181818;stroke-width:1.0;"/><polygon fill="#181818" points="442,843.8669,433.3328,839.1894,437.0147,843.4839,432.7201,847.1659,442,843.8669" style="stroke:#181818;stroke-width:1.0;"/></g><!--SRC=[RP9FRzim3CNl-XH4BZtbi2HDSXhGPKXx2JgqsEwiJDjQP36Gv1J1iEy-od-IM9WF1fxzVkGZfOTmDEw47XjesB6kFJS4qRUaRdzEg8zOqNkyM09FEgAhBAc7coFKMF2dSHMKQ0EfE_Zg_wD0dc_i2_8xjkpXPDnH_LKgcYY5VmQ27Shhky5AIAKibH4YWpTL7Q4mgPHXfzIr9ipUBo5I0qywiW_m_sS6601xHv-Y4p1xQHjqy4Q1Mwyfm06TpEax_ylRuTxwYsgZhNZG5R2tH77YtXzKccGIRHmeT8usa4wY3p0eCUs-m5mYL4Rcy6c3iZfh0vJILREr-C4UK_IkYjXpVY7y3yybXI3BaNsdKeA86915ZYplMW9Esi2dYRLy-yqVtQXbwmfio4Mqe6ivKPrYXcZq66YPLrz9zIS9KxcxSUGOfuq6UfNJZq8_aoCnaI2HqWNqVE8W2R2DtCXe6gsz31KUymhhRA7ZqGt-TUxVt6yZrWHy9bzZQu5BIN3kyO7UvFHMwDS1IDs4EOztPM2s7ICN2kRphzSZlEb5ffUPNcMwdtW_olLKRgPoc-xbFm00]--></g></svg>