<?xml version="1.0" encoding="us-ascii" standalone="no"?><svg xmlns="http://www.w3.org/2000/svg" xmlns:xlink="http://www.w3.org/1999/xlink" contentStyleType="text/css" height="476px" preserveAspectRatio="none" style="width:774px;height:476px;background:#FFFFFF;" version="1.1" viewBox="0 0 774 476" width="774px" zoomAndPan="magnify"><defs/><g><!--class Job--><g id="elem_Job"><rect codeLine="11" fill="#F1F1F1" height="97.4648" id="Job" rx="2.5" ry="2.5" style="stroke:#181818;stroke-width:0.5;" width="197" x="310.5" y="372.42"/><ellipse cx="393.75" cy="388.42" fill="#ADD1B2" rx="11" ry="11" style="stroke:#181818;stroke-width:1.0;"/><path d="M396.7231,394.0631 Q396.1421,394.3619 395.5029,394.5113 Q394.8638,394.6607 394.1582,394.6607 Q391.6514,394.6607 390.3315,393.0089 Q389.0117,391.357 389.0117,388.2359 Q389.0117,385.1065 390.3315,383.4547 Q391.6514,381.8028 394.1582,381.8028 Q394.8638,381.8028 395.5112,381.9522 Q396.1587,382.1016 396.7231,382.4005 L396.7231,385.1231 Q396.0923,384.5421 395.4988,384.2723 Q394.9053,384.0025 394.2744,384.0025 Q392.9297,384.0025 392.2449,385.0692 Q391.5601,386.1358 391.5601,388.2359 Q391.5601,390.3277 392.2449,391.3944 Q392.9297,392.461 394.2744,392.461 Q394.9053,392.461 395.4988,392.1912 Q396.0923,391.9215 396.7231,391.3404 Z " fill="#000000"/><text fill="#000000" font-family="sans-serif" font-size="14" lengthAdjust="spacing" textLength="22" x="414.25" y="393.711">Job</text><line style="stroke:#181818;stroke-width:0.5;" x1="311.5" x2="506.5" y1="404.42" y2="404.42"/><text fill="#000000" font-family="sans-serif" font-size="14" lengthAdjust="spacing" textLength="114" x="316.5" y="421.9552">-String jobName</text><line style="stroke:#181818;stroke-width:0.5;" x1="311.5" x2="506.5" y1="428.9083" y2="428.9083"/><text fill="#000000" font-family="sans-serif" font-size="14" lengthAdjust="spacing" textLength="104" x="316.5" y="446.4434">+Job(jobName)</text><text fill="#000000" font-family="sans-serif" font-size="14" lengthAdjust="spacing" textLength="185" x="316.5" y="462.9317">-isValidJobName(jobName)</text></g><!--class JobRepository--><g id="elem_JobRepository"><rect codeLine="19" fill="#F1F1F1" height="113.9531" id="JobRepository" rx="2.5" ry="2.5" style="stroke:#181818;stroke-width:0.5;" width="169" x="324.5" y="181.46"/><ellipse cx="358.4" cy="197.46" fill="#ADD1B2" rx="11" ry="11" style="stroke:#181818;stroke-width:1.0;"/><path d="M361.3731,203.1031 Q360.7921,203.4019 360.1529,203.5513 Q359.5138,203.7007 358.8082,203.7007 Q356.3014,203.7007 354.9815,202.0489 Q353.6617,200.397 353.6617,197.2759 Q353.6617,194.1465 354.9815,192.4947 Q356.3014,190.8428 358.8082,190.8428 Q359.5138,190.8428 360.1612,190.9922 Q360.8087,191.1416 361.3731,191.4405 L361.3731,194.1631 Q360.7423,193.5821 360.1488,193.3123 Q359.5553,193.0425 358.9244,193.0425 Q357.5797,193.0425 356.8949,194.1092 Q356.2101,195.1758 356.2101,197.2759 Q356.2101,199.3677 356.8949,200.4344 Q357.5797,201.501 358.9244,201.501 Q359.5553,201.501 360.1488,201.2312 Q360.7423,200.9615 361.3731,200.3804 Z " fill="#000000"/><text fill="#000000" font-family="sans-serif" font-size="14" lengthAdjust="spacing" textLength="95" x="376.6" y="202.751">JobRepository</text><line style="stroke:#181818;stroke-width:0.5;" x1="325.5" x2="492.5" y1="213.46" y2="213.46"/><text fill="#000000" font-family="sans-serif" font-size="14" lengthAdjust="spacing" textLength="124" x="330.5" y="230.9952">-List&lt;Job&gt; jobList</text><line style="stroke:#181818;stroke-width:0.5;" x1="325.5" x2="492.5" y1="237.9483" y2="237.9483"/><text fill="#000000" font-family="sans-serif" font-size="14" lengthAdjust="spacing" textLength="157" x="330.5" y="255.4834">+registerJob(jobName)</text><text fill="#000000" font-family="sans-serif" font-size="14" lengthAdjust="spacing" textLength="88" x="330.5" y="271.9717">-addJob(job)</text><text fill="#000000" font-family="sans-serif" font-size="14" lengthAdjust="spacing" textLength="93" x="330.5" y="288.46">-validateJob()</text></g><!--class Repositories--><g id="elem_Repositories"><rect codeLine="28" fill="#F1F1F1" height="97.4648" id="Repositories" rx="2.5" ry="2.5" style="stroke:#181818;stroke-width:0.5;" width="209" x="458.5" y="7"/><ellipse cx="516.25" cy="23" fill="#ADD1B2" rx="11" ry="11" style="stroke:#181818;stroke-width:1.0;"/><path d="M519.2231,28.6431 Q518.6421,28.9419 518.0029,29.0913 Q517.3638,29.2407 516.6582,29.2407 Q514.1514,29.2407 512.8315,27.5889 Q511.5117,25.937 511.5117,22.8159 Q511.5117,19.6865 512.8315,18.0347 Q514.1514,16.3828 516.6582,16.3828 Q517.3638,16.3828 518.0112,16.5322 Q518.6587,16.6816 519.2231,16.9805 L519.2231,19.7031 Q518.5923,19.1221 517.9988,18.8523 Q517.4053,18.5825 516.7744,18.5825 Q515.4297,18.5825 514.7449,19.6492 Q514.0601,20.7158 514.0601,22.8159 Q514.0601,24.9077 514.7449,25.9744 Q515.4297,27.041 516.7744,27.041 Q517.4053,27.041 517.9988,26.7712 Q518.5923,26.5015 519.2231,25.9204 Z " fill="#000000"/><text fill="#000000" font-family="sans-serif" font-size="14" lengthAdjust="spacing" textLength="85" x="536.75" y="28.291">Repositories</text><line style="stroke:#181818;stroke-width:0.5;" x1="459.5" x2="666.5" y1="39" y2="39"/><line style="stroke:#181818;stroke-width:0.5;" x1="459.5" x2="666.5" y1="47" y2="47"/><text fill="#000000" font-family="sans-serif" font-size="14" lengthAdjust="spacing" textLength="103" x="464.5" y="64.5352">-Repositories()</text><text fill="#000000" font-family="sans-serif" font-size="14" lengthAdjust="spacing" textLength="197" x="464.5" y="81.0234">+getInstance() : Repositories</text><text fill="#000000" font-family="sans-serif" font-size="14" lengthAdjust="spacing" textLength="138" x="464.5" y="97.5117">+getJobRepository()</text></g><!--class RegisterJobController--><g id="elem_RegisterJobController"><rect codeLine="34" fill="#F1F1F1" height="80.9766" id="RegisterJobController" rx="2.5" ry="2.5" style="stroke:#181818;stroke-width:0.5;" width="181" x="165.5" y="15.24"/><ellipse cx="180.95" cy="31.24" fill="#ADD1B2" rx="11" ry="11" style="stroke:#181818;stroke-width:1.0;"/><path d="M183.9231,36.8831 Q183.3421,37.1819 182.7029,37.3313 Q182.0638,37.4807 181.3582,37.4807 Q178.8514,37.4807 177.5315,35.8289 Q176.2117,34.177 176.2117,31.0559 Q176.2117,27.9265 177.5315,26.2747 Q178.8514,24.6228 181.3582,24.6228 Q182.0638,24.6228 182.7112,24.7722 Q183.3587,24.9216 183.9231,25.2205 L183.9231,27.9431 Q183.2923,27.3621 182.6988,27.0923 Q182.1053,26.8225 181.4744,26.8225 Q180.1297,26.8225 179.4449,27.8892 Q178.7601,28.9558 178.7601,31.0559 Q178.7601,33.1477 179.4449,34.2144 Q180.1297,35.281 181.4744,35.281 Q182.1053,35.281 182.6988,35.0112 Q183.2923,34.7415 183.9231,34.1604 Z " fill="#000000"/><text fill="#000000" font-family="sans-serif" font-size="14" lengthAdjust="spacing" textLength="148" x="195.05" y="36.531">RegisterJobController</text><line style="stroke:#181818;stroke-width:0.5;" x1="166.5" x2="345.5" y1="47.24" y2="47.24"/><line style="stroke:#181818;stroke-width:0.5;" x1="166.5" x2="345.5" y1="55.24" y2="55.24"/><text fill="#000000" font-family="sans-serif" font-size="14" lengthAdjust="spacing" textLength="169" x="171.5" y="72.7752">+RegisterJobController()</text><text fill="#000000" font-family="sans-serif" font-size="14" lengthAdjust="spacing" textLength="157" x="171.5" y="89.2634">+registerJob(jobName)</text></g><!--class RegisterJobUI--><g id="elem_RegisterJobUI"><rect codeLine="39" fill="#F1F1F1" height="48" id="RegisterJobUI" rx="2.5" ry="2.5" style="stroke:#181818;stroke-width:0.5;" width="124" x="7" y="31.73"/><ellipse cx="22" cy="47.73" fill="#ADD1B2" rx="11" ry="11" style="stroke:#181818;stroke-width:1.0;"/><path d="M24.9731,53.3731 Q24.3921,53.6719 23.7529,53.8213 Q23.1138,53.9707 22.4082,53.9707 Q19.9014,53.9707 18.5815,52.3189 Q17.2617,50.667 17.2617,47.5459 Q17.2617,44.4165 18.5815,42.7647 Q19.9014,41.1128 22.4082,41.1128 Q23.1138,41.1128 23.7612,41.2622 Q24.4087,41.4116 24.9731,41.7105 L24.9731,44.4331 Q24.3423,43.8521 23.7488,43.5823 Q23.1553,43.3125 22.5244,43.3125 Q21.1797,43.3125 20.4949,44.3792 Q19.8101,45.4458 19.8101,47.5459 Q19.8101,49.6377 20.4949,50.7044 Q21.1797,51.771 22.5244,51.771 Q23.1553,51.771 23.7488,51.5012 Q24.3423,51.2315 24.9731,50.6504 Z " fill="#000000"/><text fill="#000000" font-family="sans-serif" font-size="14" lengthAdjust="spacing" textLength="92" x="36" y="53.021">RegisterJobUI</text><line style="stroke:#181818;stroke-width:0.5;" x1="8" x2="130" y1="63.73" y2="63.73"/><line style="stroke:#181818;stroke-width:0.5;" x1="8" x2="130" y1="71.73" y2="71.73"/></g><!--link RegisterJobUI to RegisterJobController--><g id="link_RegisterJobUI_RegisterJobController"><path codeLine="42" d="M131.27,55.73 C142.21,55.73 147.8,55.73 159.33,55.73 " fill="none" id="RegisterJobUI-to-RegisterJobController" style="stroke:#181818;stroke-width:1.0;stroke-dasharray:7.0,7.0;"/><polygon fill="#181818" points="165.33,55.73,156.33,51.73,160.33,55.73,156.33,59.73,165.33,55.73" style="stroke:#181818;stroke-width:1.0;"/></g><!--link RegisterJobController to Repositories--><g id="link_RegisterJobController_Repositories"><path codeLine="44" d="M346.86,55.73 C381.78,55.73 415.92,55.73 452.06,55.73 " fill="none" id="RegisterJobController-to-Repositories" style="stroke:#181818;stroke-width:1.0;stroke-dasharray:7.0,7.0;"/><polygon fill="#181818" points="458.06,55.73,449.06,51.73,453.06,55.73,449.06,59.73,458.06,55.73" style="stroke:#181818;stroke-width:1.0;"/><text fill="#000000" font-family="sans-serif" font-size="13" lengthAdjust="spacing" textLength="75" x="365" y="49.2984">repositories</text></g><!--link Repositories to JobRepository--><g id="link_Repositories_JobRepository"><path codeLine="45" d="M522.14,104.68 C502.09,128.21 481.7025,152.134 460.7825,176.674 " fill="none" id="Repositories-to-JobRepository" style="stroke:#181818;stroke-width:1.0;"/><polygon fill="#181818" points="456.89,181.24,465.7727,176.9859,460.1337,177.435,459.6847,171.796,456.89,181.24" style="stroke:#181818;stroke-width:1.0;"/><text fill="#000000" font-family="sans-serif" font-size="13" lengthAdjust="spacing" textLength="8" x="450.2572" y="170.539">1</text></g><!--link Repositories to Repositories--><g id="link_Repositories_Repositories"><path codeLine="46" d="M667.94,40.13 C688.17,41.97 702.5,47.17 702.5,55.73 C702.5,64.29 694.1453,68.9465 673.9153,70.7865 " fill="none" id="Repositories-to-Repositories" style="stroke:#181818;stroke-width:1.0;"/><polygon fill="#181818" points="667.94,71.33,677.2653,74.4983,672.9194,70.8771,676.5407,66.5312,667.94,71.33" style="stroke:#181818;stroke-width:1.0;"/><text fill="#000000" font-family="sans-serif" font-size="13" lengthAdjust="spacing" textLength="53" x="708.5" y="60.7984">instance</text></g><!--link RegisterJobController to JobRepository--><g id="link_RegisterJobController_JobRepository"><path codeLine="48" d="M289.58,96.39 C310.6,121.22 334.1436,149.0203 357.4036,176.5003 " fill="none" id="RegisterJobController-to-JobRepository" style="stroke:#181818;stroke-width:1.0;stroke-dasharray:7.0,7.0;"/><polygon fill="#181818" points="361.28,181.08,358.5185,171.6262,358.0497,177.2636,352.4123,176.7947,361.28,181.08" style="stroke:#181818;stroke-width:1.0;"/><text fill="#000000" font-family="sans-serif" font-size="13" lengthAdjust="spacing" textLength="87" x="334" y="148.0284">jobRepository</text></g><!--link JobRepository to Job--><g id="link_JobRepository_Job"><path codeLine="50" d="M409,295.63 C409,320.08 409,342.44 409,365.92 " fill="none" id="JobRepository-to-Job" style="stroke:#181818;stroke-width:1.0;"/><polygon fill="#181818" points="409,371.92,413,362.92,409,366.92,405,362.92,409,371.92" style="stroke:#181818;stroke-width:1.0;"/><text fill="#000000" font-family="sans-serif" font-size="13" lengthAdjust="spacing" textLength="48" x="410" y="338.9884">register</text><text fill="#000000" font-family="sans-serif" font-size="13" lengthAdjust="spacing" textLength="8" x="391.875" y="361.5322">1</text></g><!--SRC=[TPB1JiCm44Jl-OfLBsrL1S6rGfKGfrQ80nNStMIRcZhUoDw20kBViHCtjI7DpJFZVMCxKtkKkX56r52Jfk9Wg4PWSyBiuZIYE8eAjzmg18C52rsfE60FegHFgIlO2sLZHqcDt3O83QdMBxBfY4c6ATfKA67j0xEHknFZkY2zbLy8jzbKuPw12Ooi3Wobz6KawSnztIROq0w-Ct1V3bitm5LwfzspgB4J5pum2yeyvAHz4qgMcrwzk3_9s1Tio4ecqmw09sdvtbahp_2Bm31OkGMQ4POeow2UbG_F5enUJfW3KA8TaB4ucmTUXRpMrhrAWRCvB9FG9PASeKUTGKFTHz9iI2aqWRWOTmVqw5779h-ktKHdfDBDQdn-aejATVdeMfQkG7JMn8CyNy7a3YRfwwMX_Dz06MxoQWNNuS__iFJl7n6or3uNwPjqdVl1sIy0]--></g></svg>