<?xml version="1.0" encoding="us-ascii" standalone="no"?><svg xmlns="http://www.w3.org/2000/svg" xmlns:xlink="http://www.w3.org/1999/xlink" contentStyleType="text/css" height="526px" preserveAspectRatio="none" style="width:623px;height:526px;background:#FFFFFF;" version="1.1" viewBox="0 0 623 526" width="623px" zoomAndPan="magnify"><defs/><g><rect fill="#FFFFFF" height="372.4609" style="stroke:#181818;stroke-width:1.0;" width="10" x="185" y="84.2871"/><rect fill="#FFFFFF" height="124.9316" style="stroke:#181818;stroke-width:1.0;" width="10" x="190" y="288.5059"/><rect fill="#FFFFFF" height="40.3105" style="stroke:#181818;stroke-width:1.0;" width="10" x="195" y="330.8164"/><rect fill="#FFFFFF" height="138.5977" style="stroke:#181818;stroke-width:1.0;" width="10" x="380" y="147.9082"/><rect fill="#FFFFFF" height="40.3105" style="stroke:#181818;stroke-width:1.0;" width="10" x="385" y="203.8848"/><rect fill="none" height="329.1504" style="stroke:#000000;stroke-width:1.5;" width="493.5" x="123.5" y="99.2871"/><line style="stroke:#181818;stroke-width:0.5;stroke-dasharray:5.0,5.0;" x1="189.5" x2="189.5" y1="52.9766" y2="474.748"/><line style="stroke:#181818;stroke-width:0.5;stroke-dasharray:5.0,5.0;" x1="385" x2="385" y1="155.5859" y2="474.748"/><rect fill="#E3E3E3" height="46.9766" rx="2.5" ry="2.5" style="stroke:#181818;stroke-width:0.5;" width="113" x="133.5" y="5"/><text fill="#000000" font-family="sans-serif" font-size="14" lengthAdjust="spacing" textLength="95" x="142.5" y="25.5352">jobRepository</text><text fill="#000000" font-family="sans-serif" font-size="14" lengthAdjust="spacing" textLength="99" x="140.5" y="42.0234">:jobRepository</text><rect fill="#E3E3E3" height="46.9766" rx="2.5" ry="2.5" style="stroke:#181818;stroke-width:0.5;" width="113" x="133.5" y="473.748"/><text fill="#000000" font-family="sans-serif" font-size="14" lengthAdjust="spacing" textLength="95" x="142.5" y="494.2832">jobRepository</text><text fill="#000000" font-family="sans-serif" font-size="14" lengthAdjust="spacing" textLength="99" x="140.5" y="510.7715">:jobRepository</text><rect fill="#E3E3E3" height="46.9766" rx="2.5" ry="2.5" style="stroke:#181818;stroke-width:0.5;" width="40" x="365" y="473.748"/><text fill="#000000" font-family="sans-serif" font-size="14" lengthAdjust="spacing" textLength="22" x="374" y="494.2832">job</text><text fill="#000000" font-family="sans-serif" font-size="14" lengthAdjust="spacing" textLength="26" x="372" y="510.7715">:Job</text><rect fill="#FFFFFF" height="372.4609" style="stroke:#181818;stroke-width:1.0;" width="10" x="185" y="84.2871"/><rect fill="#FFFFFF" height="124.9316" style="stroke:#181818;stroke-width:1.0;" width="10" x="190" y="288.5059"/><rect fill="#FFFFFF" height="40.3105" style="stroke:#181818;stroke-width:1.0;" width="10" x="195" y="330.8164"/><rect fill="#FFFFFF" height="138.5977" style="stroke:#181818;stroke-width:1.0;" width="10" x="380" y="147.9082"/><rect fill="#FFFFFF" height="40.3105" style="stroke:#181818;stroke-width:1.0;" width="10" x="385" y="203.8848"/><polygon fill="#181818" points="173,80.2871,183,84.2871,173,88.2871,177,84.2871" style="stroke:#181818;stroke-width:1.0;"/><line style="stroke:#181818;stroke-width:1.0;" x1="0" x2="179" y1="84.2871" y2="84.2871"/><text fill="#000000" font-family="sans-serif" font-size="13" font-weight="bold" lengthAdjust="spacing" textLength="30" x="7" y="79.5449">16.1</text><text fill="#000000" font-family="sans-serif" font-size="13" lengthAdjust="spacing" textLength="132" x="41" y="79.5449">registerJob(jobName)</text><path d="M123.5,99.2871 L249.5,99.2871 L249.5,106.5977 L239.5,116.5977 L123.5,116.5977 L123.5,99.2871 " fill="#EEEEEE" style="stroke:#000000;stroke-width:1.5;"/><rect fill="none" height="329.1504" style="stroke:#000000;stroke-width:1.5;" width="493.5" x="123.5" y="99.2871"/><text fill="#000000" font-family="sans-serif" font-size="13" font-weight="bold" lengthAdjust="spacing" textLength="81" x="138.5" y="112.8555">Register job</text><polygon fill="#181818" points="353,133.9082,363,137.9082,353,141.9082,357,137.9082" style="stroke:#181818;stroke-width:1.0;"/><line style="stroke:#181818;stroke-width:1.0;" x1="195" x2="359" y1="137.9082" y2="137.9082"/><text fill="#000000" font-family="sans-serif" font-size="13" font-weight="bold" lengthAdjust="spacing" textLength="30" x="202" y="133.166">16.2</text><text fill="#000000" font-family="sans-serif" font-size="13" lengthAdjust="spacing" textLength="112" x="236" y="133.166">register(JobName)</text><rect fill="#E3E3E3" height="46.9766" rx="2.5" ry="2.5" style="stroke:#181818;stroke-width:0.5;" width="40" x="365" y="116.5977"/><text fill="#000000" font-family="sans-serif" font-size="14" lengthAdjust="spacing" textLength="22" x="374" y="137.1328">job</text><text fill="#000000" font-family="sans-serif" font-size="14" lengthAdjust="spacing" textLength="26" x="372" y="153.6211">:Job</text><line style="stroke:#181818;stroke-width:1.0;" x1="390" x2="437" y1="190.8848" y2="190.8848"/><line style="stroke:#181818;stroke-width:1.0;" x1="437" x2="437" y1="190.8848" y2="203.8848"/><line style="stroke:#181818;stroke-width:1.0;" x1="396" x2="437" y1="203.8848" y2="203.8848"/><polygon fill="#181818" points="406,199.8848,396,203.8848,406,207.8848,402,203.8848" style="stroke:#181818;stroke-width:1.0;"/><text fill="#000000" font-family="sans-serif" font-size="13" font-weight="bold" lengthAdjust="spacing" textLength="30" x="402" y="186.1426">16.3</text><text fill="#000000" font-family="sans-serif" font-size="13" lengthAdjust="spacing" textLength="169" x="436" y="186.1426">validateJobName(jobName)</text><line style="stroke:#181818;stroke-width:1.0;stroke-dasharray:2.0,2.0;" x1="395" x2="437" y1="243.1953" y2="243.1953"/><line style="stroke:#181818;stroke-width:1.0;stroke-dasharray:2.0,2.0;" x1="437" x2="437" y1="243.1953" y2="256.1953"/><line style="stroke:#181818;stroke-width:1.0;stroke-dasharray:2.0,2.0;" x1="390" x2="437" y1="256.1953" y2="256.1953"/><polygon fill="#181818" points="400,252.1953,390,256.1953,400,260.1953,396,256.1953" style="stroke:#181818;stroke-width:1.0;"/><text fill="#000000" font-family="sans-serif" font-size="13" font-weight="bold" lengthAdjust="spacing" textLength="30" x="402" y="238.4531">16.4</text><text fill="#000000" font-family="sans-serif" font-size="13" lengthAdjust="spacing" textLength="4" x="436" y="238.4531">&#160;</text><line style="stroke:#181818;stroke-width:1.0;" x1="200" x2="242" y1="280.5059" y2="280.5059"/><line style="stroke:#181818;stroke-width:1.0;" x1="242" x2="242" y1="280.5059" y2="293.5059"/><line style="stroke:#181818;stroke-width:1.0;" x1="201" x2="242" y1="293.5059" y2="293.5059"/><polygon fill="#181818" points="211,289.5059,201,293.5059,211,297.5059,207,293.5059" style="stroke:#181818;stroke-width:1.0;"/><text fill="#000000" font-family="sans-serif" font-size="13" font-weight="bold" lengthAdjust="spacing" textLength="30" x="207" y="275.7637">16.5</text><text fill="#000000" font-family="sans-serif" font-size="13" lengthAdjust="spacing" textLength="71" x="241" y="275.7637">addJob(job)</text><line style="stroke:#181818;stroke-width:1.0;" x1="200" x2="247" y1="317.8164" y2="317.8164"/><line style="stroke:#181818;stroke-width:1.0;" x1="247" x2="247" y1="317.8164" y2="330.8164"/><line style="stroke:#181818;stroke-width:1.0;" x1="206" x2="247" y1="330.8164" y2="330.8164"/><polygon fill="#181818" points="216,326.8164,206,330.8164,216,334.8164,212,330.8164" style="stroke:#181818;stroke-width:1.0;"/><text fill="#000000" font-family="sans-serif" font-size="13" font-weight="bold" lengthAdjust="spacing" textLength="30" x="212" y="313.0742">16.6</text><text fill="#000000" font-family="sans-serif" font-size="13" lengthAdjust="spacing" textLength="97" x="246" y="313.0742">validateJob(job)</text><line style="stroke:#181818;stroke-width:1.0;stroke-dasharray:2.0,2.0;" x1="205" x2="247" y1="370.127" y2="370.127"/><line style="stroke:#181818;stroke-width:1.0;stroke-dasharray:2.0,2.0;" x1="247" x2="247" y1="370.127" y2="383.127"/><line style="stroke:#181818;stroke-width:1.0;stroke-dasharray:2.0,2.0;" x1="200" x2="247" y1="383.127" y2="383.127"/><polygon fill="#181818" points="210,379.127,200,383.127,210,387.127,206,383.127" style="stroke:#181818;stroke-width:1.0;"/><text fill="#000000" font-family="sans-serif" font-size="13" font-weight="bold" lengthAdjust="spacing" textLength="30" x="212" y="365.3848">16.7</text><text fill="#000000" font-family="sans-serif" font-size="13" lengthAdjust="spacing" textLength="4" x="246" y="365.3848">&#160;</text><line style="stroke:#181818;stroke-width:1.0;stroke-dasharray:2.0,2.0;" x1="200" x2="242" y1="412.4375" y2="412.4375"/><line style="stroke:#181818;stroke-width:1.0;stroke-dasharray:2.0,2.0;" x1="242" x2="242" y1="412.4375" y2="425.4375"/><line style="stroke:#181818;stroke-width:1.0;stroke-dasharray:2.0,2.0;" x1="195" x2="242" y1="425.4375" y2="425.4375"/><polygon fill="#181818" points="205,421.4375,195,425.4375,205,429.4375,201,425.4375" style="stroke:#181818;stroke-width:1.0;"/><text fill="#000000" font-family="sans-serif" font-size="13" font-weight="bold" lengthAdjust="spacing" textLength="30" x="207" y="407.6953">16.8</text><text fill="#000000" font-family="sans-serif" font-size="13" lengthAdjust="spacing" textLength="4" x="241" y="407.6953">&#160;</text><polygon fill="#181818" points="11,452.748,1,456.748,11,460.748,7,456.748" style="stroke:#181818;stroke-width:1.0;"/><line style="stroke:#181818;stroke-width:1.0;stroke-dasharray:2.0,2.0;" x1="5" x2="189" y1="456.748" y2="456.748"/><text fill="#000000" font-family="sans-serif" font-size="13" font-weight="bold" lengthAdjust="spacing" textLength="18" x="17" y="452.0059">17</text><text fill="#000000" font-family="sans-serif" font-size="13" lengthAdjust="spacing" textLength="20" x="39" y="452.0059">job</text><!--SRC=[XPB1QiCm38RlVWhHKrVee9SDmjYj50fRHtRTHKcqr6rY1zlfwDlFSLt7IMcgcoNztoy9woCN3IgiePP2vdibQmAZMc8wL1hCZrZIjpbN18foWwAiuWQznqB-SL72BrQQ6BDfmtFUe30mEyWifKPgRgGw_uXay9u1QjYbcnk9RTpAp9NN7r_fUhDZ35iZHLjdf63rCde-hnW37ylt3fdOMKkk3IaBcbla9zRq59gwmDpm4nfo4yI5KicsWTJhmOf3sRPs1dwenG9wd_dsQi9k7AvBn2u-5-4ix8GLBwp2inuC7cu3emZi7ZviAcWQulTqXyIYy3VinvZItxrh38qM7P8d2O5omTnRgIknHvfHVvSYKLnqyUTwTPctvT9H4lSTnbx_]--></g></svg>