<?xml version="1.0" encoding="us-ascii" standalone="no"?><svg xmlns="http://www.w3.org/2000/svg" xmlns:xlink="http://www.w3.org/1999/xlink" contentStyleType="text/css" height="558px" preserveAspectRatio="none" style="width:963px;height:558px;background:#FFFFFF;" version="1.1" viewBox="0 0 963 558" width="963px" zoomAndPan="magnify"><defs/><g><!--class VehicleRepository--><g id="elem_VehicleRepository"><rect codeLine="9" fill="#F1F1F1" height="103.8633" id="VehicleRepository" rx="2.5" ry="2.5" style="stroke:#181818;stroke-width:0.5;" width="249" x="398.5" y="208.5"/><ellipse cx="461.75" cy="224.5" fill="#ADD1B2" rx="11" ry="11" style="stroke:#181818;stroke-width:1.0;"/><path d="M464.5156,220.375 Q464.6719,220.1563 464.8594,220.0469 Q465.0469,219.9375 465.2656,219.9375 Q465.6406,219.9375 465.875,220.2031 Q466.1094,220.4531 466.1094,221.0625 L466.1094,222.5156 Q466.1094,223.125 465.875,223.3906 Q465.6406,223.6563 465.2656,223.6563 Q464.9219,223.6563 464.7188,223.4531 Q464.5156,223.2656 464.4063,222.75 Q464.3594,222.3906 464.1719,222.2031 Q463.8438,221.8281 463.2344,221.6094 Q462.625,221.3906 462,221.3906 Q461.2344,221.3906 460.5938,221.7188 Q459.9688,222.0469 459.4688,222.7969 Q458.9844,223.5469 458.9844,224.5781 L458.9844,225.6719 Q458.9844,226.9063 459.875,227.7344 Q460.7656,228.5469 462.3594,228.5469 Q463.2969,228.5469 463.9531,228.2969 Q464.3438,228.1406 464.7656,227.7031 Q465.0313,227.4375 465.1719,227.3594 Q465.3281,227.2813 465.5313,227.2813 Q465.8594,227.2813 466.1094,227.5469 Q466.375,227.7969 466.375,228.1406 Q466.375,228.4844 466.0313,228.8906 Q465.5313,229.4688 464.7344,229.7969 Q463.6563,230.25 462.3594,230.25 Q460.8438,230.25 459.6406,229.625 Q458.6563,229.125 457.9688,228.0625 Q457.2813,226.9844 457.2813,225.7031 L457.2813,224.5469 Q457.2813,223.2188 457.8906,222.0781 Q458.5156,220.9219 459.6094,220.3125 Q460.7031,219.6875 461.9375,219.6875 Q462.6719,219.6875 463.3125,219.8594 Q463.9688,220.0156 464.5156,220.375 Z " fill="#000000"/><text fill="#000000" font-family="sans-serif" font-size="14" lengthAdjust="spacing" textLength="114" x="482.25" y="230.2969">VehicleRepository</text><line style="stroke:#181818;stroke-width:0.5;" x1="399.5" x2="646.5" y1="240.5" y2="240.5"/><text fill="#000000" font-family="sans-serif" font-size="14" lengthAdjust="spacing" textLength="159" x="404.5" y="259.6074">-List&lt;Vehicle&gt; vehicleList</text><line style="stroke:#181818;stroke-width:0.5;" x1="399.5" x2="646.5" y1="267.1211" y2="267.1211"/><text fill="#000000" font-family="sans-serif" font-size="14" lengthAdjust="spacing" textLength="88" x="404.5" y="286.2285">+requestList()</text><text fill="#000000" font-family="sans-serif" font-size="14" lengthAdjust="spacing" textLength="237" x="404.5" y="304.8496">+vehicleListContainsByPlate (PlateID)</text></g><!--class Repositories--><g id="elem_Repositories"><rect codeLine="16" fill="#F1F1F1" height="103.8633" id="Repositories" rx="2.5" ry="2.5" style="stroke:#181818;stroke-width:0.5;" width="194" x="666" y="7"/><ellipse cx="719.25" cy="23" fill="#ADD1B2" rx="11" ry="11" style="stroke:#181818;stroke-width:1.0;"/><path d="M722.0156,18.875 Q722.1719,18.6563 722.3594,18.5469 Q722.5469,18.4375 722.7656,18.4375 Q723.1406,18.4375 723.375,18.7031 Q723.6094,18.9531 723.6094,19.5625 L723.6094,21.0156 Q723.6094,21.625 723.375,21.8906 Q723.1406,22.1563 722.7656,22.1563 Q722.4219,22.1563 722.2188,21.9531 Q722.0156,21.7656 721.9063,21.25 Q721.8594,20.8906 721.6719,20.7031 Q721.3438,20.3281 720.7344,20.1094 Q720.125,19.8906 719.5,19.8906 Q718.7344,19.8906 718.0938,20.2188 Q717.4688,20.5469 716.9688,21.2969 Q716.4844,22.0469 716.4844,23.0781 L716.4844,24.1719 Q716.4844,25.4063 717.375,26.2344 Q718.2656,27.0469 719.8594,27.0469 Q720.7969,27.0469 721.4531,26.7969 Q721.8438,26.6406 722.2656,26.2031 Q722.5313,25.9375 722.6719,25.8594 Q722.8281,25.7813 723.0313,25.7813 Q723.3594,25.7813 723.6094,26.0469 Q723.875,26.2969 723.875,26.6406 Q723.875,26.9844 723.5313,27.3906 Q723.0313,27.9688 722.2344,28.2969 Q721.1563,28.75 719.8594,28.75 Q718.3438,28.75 717.1406,28.125 Q716.1563,27.625 715.4688,26.5625 Q714.7813,25.4844 714.7813,24.2031 L714.7813,23.0469 Q714.7813,21.7188 715.3906,20.5781 Q716.0156,19.4219 717.1094,18.8125 Q718.2031,18.1875 719.4375,18.1875 Q720.1719,18.1875 720.8125,18.3594 Q721.4688,18.5156 722.0156,18.875 Z " fill="#000000"/><text fill="#000000" font-family="sans-serif" font-size="14" lengthAdjust="spacing" textLength="79" x="739.75" y="28.7969">Repositories</text><line style="stroke:#181818;stroke-width:0.5;" x1="667" x2="859" y1="39" y2="39"/><line style="stroke:#181818;stroke-width:0.5;" x1="667" x2="859" y1="47" y2="47"/><text fill="#000000" font-family="sans-serif" font-size="14" lengthAdjust="spacing" textLength="94" x="672" y="66.1074">-Repositories()</text><text fill="#000000" font-family="sans-serif" font-size="14" lengthAdjust="spacing" textLength="182" x="672" y="84.7285">+getInstance() : Repositories</text><text fill="#000000" font-family="sans-serif" font-size="14" lengthAdjust="spacing" textLength="152" x="672" y="103.3496">+getVehicleRepository()</text></g><!--class CheckUp--><g id="elem_CheckUp"><rect codeLine="23" fill="#F1F1F1" height="141.1055" id="CheckUp" rx="2.5" ry="2.5" style="stroke:#181818;stroke-width:0.5;" width="350" x="10" y="410"/><ellipse cx="152.25" cy="426" fill="#ADD1B2" rx="11" ry="11" style="stroke:#181818;stroke-width:1.0;"/><path d="M155.0156,421.875 Q155.1719,421.6563 155.3594,421.5469 Q155.5469,421.4375 155.7656,421.4375 Q156.1406,421.4375 156.375,421.7031 Q156.6094,421.9531 156.6094,422.5625 L156.6094,424.0156 Q156.6094,424.625 156.375,424.8906 Q156.1406,425.1563 155.7656,425.1563 Q155.4219,425.1563 155.2188,424.9531 Q155.0156,424.7656 154.9063,424.25 Q154.8594,423.8906 154.6719,423.7031 Q154.3438,423.3281 153.7344,423.1094 Q153.125,422.8906 152.5,422.8906 Q151.7344,422.8906 151.0938,423.2188 Q150.4688,423.5469 149.9688,424.2969 Q149.4844,425.0469 149.4844,426.0781 L149.4844,427.1719 Q149.4844,428.4063 150.375,429.2344 Q151.2656,430.0469 152.8594,430.0469 Q153.7969,430.0469 154.4531,429.7969 Q154.8438,429.6406 155.2656,429.2031 Q155.5313,428.9375 155.6719,428.8594 Q155.8281,428.7813 156.0313,428.7813 Q156.3594,428.7813 156.6094,429.0469 Q156.875,429.2969 156.875,429.6406 Q156.875,429.9844 156.5313,430.3906 Q156.0313,430.9688 155.2344,431.2969 Q154.1563,431.75 152.8594,431.75 Q151.3438,431.75 150.1406,431.125 Q149.1563,430.625 148.4688,429.5625 Q147.7813,428.4844 147.7813,427.2031 L147.7813,426.0469 Q147.7813,424.7188 148.3906,423.5781 Q149.0156,422.4219 150.1094,421.8125 Q151.2031,421.1875 152.4375,421.1875 Q153.1719,421.1875 153.8125,421.3594 Q154.4688,421.5156 155.0156,421.875 Z " fill="#000000"/><text fill="#000000" font-family="sans-serif" font-size="14" lengthAdjust="spacing" textLength="57" x="172.75" y="431.7969">CheckUp</text><line style="stroke:#181818;stroke-width:0.5;" x1="11" x2="359" y1="442" y2="442"/><text fill="#000000" font-family="sans-serif" font-size="14" lengthAdjust="spacing" textLength="107" x="16" y="461.1074">-Vehicle : vehicle</text><text fill="#000000" font-family="sans-serif" font-size="14" lengthAdjust="spacing" textLength="130" x="16" y="479.7285">-Float : checkUpKms</text><text fill="#000000" font-family="sans-serif" font-size="14" lengthAdjust="spacing" textLength="131" x="16" y="498.3496">-Data : checkUpDate</text><line style="stroke:#181818;stroke-width:0.5;" x1="11" x2="359" y1="505.8633" y2="505.8633"/><text fill="#000000" font-family="sans-serif" font-size="14" lengthAdjust="spacing" textLength="296" x="16" y="524.9707">+CheckUp (vehicle,checkUpKms,checkUpDate)</text><text fill="#000000" font-family="sans-serif" font-size="14" lengthAdjust="spacing" textLength="338" x="16" y="543.5918">-validateCheckUp(vehicle,checkUpKms,checkUpDate)</text></g><!--class CreateCheckUpController--><g id="elem_CreateCheckUpController"><rect codeLine="31" fill="#F1F1F1" height="103.8633" id="CreateCheckUpController" rx="2.5" ry="2.5" style="stroke:#181818;stroke-width:0.5;" width="352" x="210" y="7"/><ellipse cx="300.75" cy="23" fill="#ADD1B2" rx="11" ry="11" style="stroke:#181818;stroke-width:1.0;"/><path d="M303.5156,18.875 Q303.6719,18.6563 303.8594,18.5469 Q304.0469,18.4375 304.2656,18.4375 Q304.6406,18.4375 304.875,18.7031 Q305.1094,18.9531 305.1094,19.5625 L305.1094,21.0156 Q305.1094,21.625 304.875,21.8906 Q304.6406,22.1563 304.2656,22.1563 Q303.9219,22.1563 303.7188,21.9531 Q303.5156,21.7656 303.4063,21.25 Q303.3594,20.8906 303.1719,20.7031 Q302.8438,20.3281 302.2344,20.1094 Q301.625,19.8906 301,19.8906 Q300.2344,19.8906 299.5938,20.2188 Q298.9688,20.5469 298.4688,21.2969 Q297.9844,22.0469 297.9844,23.0781 L297.9844,24.1719 Q297.9844,25.4063 298.875,26.2344 Q299.7656,27.0469 301.3594,27.0469 Q302.2969,27.0469 302.9531,26.7969 Q303.3438,26.6406 303.7656,26.2031 Q304.0313,25.9375 304.1719,25.8594 Q304.3281,25.7813 304.5313,25.7813 Q304.8594,25.7813 305.1094,26.0469 Q305.375,26.2969 305.375,26.6406 Q305.375,26.9844 305.0313,27.3906 Q304.5313,27.9688 303.7344,28.2969 Q302.6563,28.75 301.3594,28.75 Q299.8438,28.75 298.6406,28.125 Q297.6563,27.625 296.9688,26.5625 Q296.2813,25.4844 296.2813,24.2031 L296.2813,23.0469 Q296.2813,21.7188 296.8906,20.5781 Q297.5156,19.4219 298.6094,18.8125 Q299.7031,18.1875 300.9375,18.1875 Q301.6719,18.1875 302.3125,18.3594 Q302.9688,18.5156 303.5156,18.875 Z " fill="#000000"/><text fill="#000000" font-family="sans-serif" font-size="14" lengthAdjust="spacing" textLength="162" x="321.25" y="28.7969">CreateCheckUpController</text><line style="stroke:#181818;stroke-width:0.5;" x1="211" x2="561" y1="39" y2="39"/><line style="stroke:#181818;stroke-width:0.5;" x1="211" x2="561" y1="47" y2="47"/><text fill="#000000" font-family="sans-serif" font-size="14" lengthAdjust="spacing" textLength="180" x="216" y="66.1074">+CreateCheckUpController()</text><text fill="#000000" font-family="sans-serif" font-size="14" lengthAdjust="spacing" textLength="190" x="216" y="84.7285">+getVehicleByPlateID(PlateID)</text><text fill="#000000" font-family="sans-serif" font-size="14" lengthAdjust="spacing" textLength="340" x="216" y="103.3496">+registerCheckUp(vehicle,checkUpKms,checkUpDate)</text></g><!--class VehicleCheckUpRepository--><g id="elem_VehicleCheckUpRepository"><rect codeLine="37" fill="#F1F1F1" height="141.1055" id="VehicleCheckUpRepository" rx="2.5" ry="2.5" style="stroke:#181818;stroke-width:0.5;" width="356" x="7" y="190"/><ellipse cx="95.25" cy="206" fill="#ADD1B2" rx="11" ry="11" style="stroke:#181818;stroke-width:1.0;"/><path d="M98.0156,201.875 Q98.1719,201.6563 98.3594,201.5469 Q98.5469,201.4375 98.7656,201.4375 Q99.1406,201.4375 99.375,201.7031 Q99.6094,201.9531 99.6094,202.5625 L99.6094,204.0156 Q99.6094,204.625 99.375,204.8906 Q99.1406,205.1563 98.7656,205.1563 Q98.4219,205.1563 98.2188,204.9531 Q98.0156,204.7656 97.9063,204.25 Q97.8594,203.8906 97.6719,203.7031 Q97.3438,203.3281 96.7344,203.1094 Q96.125,202.8906 95.5,202.8906 Q94.7344,202.8906 94.0938,203.2188 Q93.4688,203.5469 92.9688,204.2969 Q92.4844,205.0469 92.4844,206.0781 L92.4844,207.1719 Q92.4844,208.4063 93.375,209.2344 Q94.2656,210.0469 95.8594,210.0469 Q96.7969,210.0469 97.4531,209.7969 Q97.8438,209.6406 98.2656,209.2031 Q98.5313,208.9375 98.6719,208.8594 Q98.8281,208.7813 99.0313,208.7813 Q99.3594,208.7813 99.6094,209.0469 Q99.875,209.2969 99.875,209.6406 Q99.875,209.9844 99.5313,210.3906 Q99.0313,210.9688 98.2344,211.2969 Q97.1563,211.75 95.8594,211.75 Q94.3438,211.75 93.1406,211.125 Q92.1563,210.625 91.4688,209.5625 Q90.7813,208.4844 90.7813,207.2031 L90.7813,206.0469 Q90.7813,204.7188 91.3906,203.5781 Q92.0156,202.4219 93.1094,201.8125 Q94.2031,201.1875 95.4375,201.1875 Q96.1719,201.1875 96.8125,201.3594 Q97.4688,201.5156 98.0156,201.875 Z " fill="#000000"/><text fill="#000000" font-family="sans-serif" font-size="14" lengthAdjust="spacing" textLength="171" x="115.75" y="211.7969">VehicleCheckUpRepository</text><line style="stroke:#181818;stroke-width:0.5;" x1="8" x2="362" y1="222" y2="222"/><text fill="#000000" font-family="sans-serif" font-size="14" lengthAdjust="spacing" textLength="184" x="13" y="241.1074">-checkUpList: List&lt;CheckUp&gt;</text><line style="stroke:#181818;stroke-width:0.5;" x1="8" x2="362" y1="248.6211" y2="248.6211"/><text fill="#000000" font-family="sans-serif" font-size="14" lengthAdjust="spacing" textLength="344" x="13" y="267.7285">+registerCheckUp(vehicle,checkUpKms,checkUpDate):</text><text fill="#000000" font-family="sans-serif" font-size="14" lengthAdjust="spacing" textLength="153" x="13" y="286.3496">-addCheckUp(CheckUp)</text><text fill="#000000" font-family="sans-serif" font-size="14" lengthAdjust="spacing" textLength="208" x="13" y="304.9707">-validateCheckUpDate(CheckUp)</text><text fill="#000000" font-family="sans-serif" font-size="14" lengthAdjust="spacing" textLength="281" x="13" y="323.5918">-setLastKmsCheckUp(vehicle, CheckUpKms)</text></g><!--class RegisterCheckUpUI--><g id="elem_RegisterCheckUpUI"><rect codeLine="45" fill="#F1F1F1" height="48" id="RegisterCheckUpUI" rx="2.5" ry="2.5" style="stroke:#181818;stroke-width:0.5;" width="154" x="21" y="35"/><ellipse cx="36" cy="51" fill="#ADD1B2" rx="11" ry="11" style="stroke:#181818;stroke-width:1.0;"/><path d="M38.7656,46.875 Q38.9219,46.6563 39.1094,46.5469 Q39.2969,46.4375 39.5156,46.4375 Q39.8906,46.4375 40.125,46.7031 Q40.3594,46.9531 40.3594,47.5625 L40.3594,49.0156 Q40.3594,49.625 40.125,49.8906 Q39.8906,50.1563 39.5156,50.1563 Q39.1719,50.1563 38.9688,49.9531 Q38.7656,49.7656 38.6563,49.25 Q38.6094,48.8906 38.4219,48.7031 Q38.0938,48.3281 37.4844,48.1094 Q36.875,47.8906 36.25,47.8906 Q35.4844,47.8906 34.8438,48.2188 Q34.2188,48.5469 33.7188,49.2969 Q33.2344,50.0469 33.2344,51.0781 L33.2344,52.1719 Q33.2344,53.4063 34.125,54.2344 Q35.0156,55.0469 36.6094,55.0469 Q37.5469,55.0469 38.2031,54.7969 Q38.5938,54.6406 39.0156,54.2031 Q39.2813,53.9375 39.4219,53.8594 Q39.5781,53.7813 39.7813,53.7813 Q40.1094,53.7813 40.3594,54.0469 Q40.625,54.2969 40.625,54.6406 Q40.625,54.9844 40.2813,55.3906 Q39.7813,55.9688 38.9844,56.2969 Q37.9063,56.75 36.6094,56.75 Q35.0938,56.75 33.8906,56.125 Q32.9063,55.625 32.2188,54.5625 Q31.5313,53.4844 31.5313,52.2031 L31.5313,51.0469 Q31.5313,49.7188 32.1406,48.5781 Q32.7656,47.4219 33.8594,46.8125 Q34.9531,46.1875 36.1875,46.1875 Q36.9219,46.1875 37.5625,46.3594 Q38.2188,46.5156 38.7656,46.875 Z " fill="#000000"/><text fill="#000000" font-family="sans-serif" font-size="14" lengthAdjust="spacing" textLength="122" x="50" y="56.7969">RegisterCheckUpUI</text><line style="stroke:#181818;stroke-width:0.5;" x1="22" x2="174" y1="67" y2="67"/><line style="stroke:#181818;stroke-width:0.5;" x1="22" x2="174" y1="75" y2="75"/></g><!--link RegisterCheckUpUI to CreateCheckUpController--><g id="link_RegisterCheckUpUI_CreateCheckUpController"><path codeLine="49" d="M175.03,59 C186.19,59 194,59 194,59 C194,59 194.38,59 203.85,59 " fill="none" id="RegisterCheckUpUI-to-CreateCheckUpController" style="stroke:#181818;stroke-width:1.0;stroke-dasharray:7.0,7.0;"/><polygon fill="#181818" points="209.85,59,200.85,55,204.85,59,200.85,63,209.85,59" style="stroke:#181818;stroke-width:1.0;"/></g><!--link CreateCheckUpController to Repositories--><g id="link_CreateCheckUpController_Repositories"><path codeLine="51" d="M562.08,59 C597.76,59 628.03,59 659.75,59 " fill="none" id="CreateCheckUpController-to-Repositories" style="stroke:#181818;stroke-width:1.0;stroke-dasharray:7.0,7.0;"/><polygon fill="#181818" points="665.75,59,656.75,55,660.75,59,656.75,63,665.75,59" style="stroke:#181818;stroke-width:1.0;"/><text fill="#000000" font-family="sans-serif" font-size="13" lengthAdjust="spacing" textLength="67" x="580.5" y="52.0283">repositories</text></g><!--link Repositories to VehicleRepository--><g id="link_Repositories_VehicleRepository"><path codeLine="52" d="M701.51,111.12 C665.67,140.9 625.2444,174.515 589.3644,204.335 " fill="none" id="Repositories-to-VehicleRepository" style="stroke:#181818;stroke-width:1.0;"/><polygon fill="#181818" points="584.75,208.17,594.2283,205.4937,588.5953,204.9741,589.1149,199.3412,584.75,208.17" style="stroke:#181818;stroke-width:1.0;"/><text fill="#000000" font-family="sans-serif" font-size="13" lengthAdjust="spacing" textLength="7" x="581.3086" y="197.053">1</text></g><!--link Repositories to Repositories--><g id="link_Repositories_Repositories"><path codeLine="53" d="M860.28,42.72 C880.48,44.43 895,49.86 895,59 C895,68.14 886.4586,73.0639 866.2586,74.7739 " fill="none" id="Repositories-to-Repositories" style="stroke:#181818;stroke-width:1.0;"/><polygon fill="#181818" points="860.28,75.28,869.5853,78.5066,865.2622,74.8582,868.9105,70.5351,860.28,75.28" style="stroke:#181818;stroke-width:1.0;"/><text fill="#000000" font-family="sans-serif" font-size="13" lengthAdjust="spacing" textLength="49" x="901" y="64.5283">instance</text></g><!--link VehicleRepository to CreateCheckUpController--><g id="link_VehicleRepository_CreateCheckUpController"><path codeLine="54" d="M472.56,208.29 C448.55,183.91 425,160 425,160 C425,160 417.7285,141.3705 408.1385,116.7605 " fill="none" id="VehicleRepository-to-CreateCheckUpController" style="stroke:#181818;stroke-width:1.0;stroke-dasharray:7.0,7.0;"/><polygon fill="#181818" points="405.96,111.17,405.5007,121.0081,407.7754,115.8288,412.9548,118.1035,405.96,111.17" style="stroke:#181818;stroke-width:1.0;"/><text fill="#000000" font-family="sans-serif" font-size="13" lengthAdjust="spacing" textLength="39" x="426" y="156.0283">vehicle</text></g><!--link CreateCheckUpController to VehicleRepository--><g id="link_CreateCheckUpController_VehicleRepository"><path codeLine="55" d="M439.2,111.3 C455.87,127.37 470,141 470,141 C470,141 483.2905,170.7128 497.6105,202.7328 " fill="none" id="CreateCheckUpController-to-VehicleRepository" style="stroke:#181818;stroke-width:1.0;"/><polygon fill="#181818" points="500.06,208.21,500.0372,198.3612,498.0187,203.6457,492.7342,201.6272,500.06,208.21" style="stroke:#181818;stroke-width:1.0;"/><text fill="#000000" font-family="sans-serif" font-size="13" lengthAdjust="spacing" textLength="143" x="478" y="156.0283">getVehicleCheckUpList()</text></g><!--link CreateCheckUpController to VehicleCheckUpRepository--><g id="link_CreateCheckUpController_VehicleCheckUpRepository"><path codeLine="56" d="M334.07,111.3 C317.79,127.37 304,141 304,141 C304,141 285.0617,159.8564 259.1617,185.6464 " fill="none" id="CreateCheckUpController-to-VehicleCheckUpRepository" style="stroke:#181818;stroke-width:1.0;"/><polygon fill="#181818" points="254.91,189.88,264.1099,186.364,258.453,186.352,258.4651,180.6952,254.91,189.88" style="stroke:#181818;stroke-width:1.0;"/><text fill="#000000" font-family="sans-serif" font-size="13" lengthAdjust="spacing" textLength="104" x="305" y="156.0283">registerCheckUp()</text></g><!--link VehicleCheckUpRepository to CheckUp--><g id="link_VehicleCheckUpRepository_CheckUp"><path codeLine="57" d="M185,331.08 C185,356.25 185,378.66 185,403.84 " fill="none" id="VehicleCheckUpRepository-to-CheckUp" style="stroke:#181818;stroke-width:1.0;"/><polygon fill="#181818" points="185,409.84,189,400.84,185,404.84,181,400.84,185,409.84" style="stroke:#181818;stroke-width:1.0;"/><text fill="#000000" font-family="sans-serif" font-size="13" lengthAdjust="spacing" textLength="82" x="186" y="376.0283">addCheckUp()</text><text fill="#000000" font-family="sans-serif" font-size="13" lengthAdjust="spacing" textLength="7" x="177.2266" y="398.7145">1</text></g><!--SRC=[dLJ1Rjim3BthAuXS4gDDiLwD8K2Ne82n7eOLtLsJMLk88haIqy4Rzk-J4yQMwnh3bejZyhr7YdpoCkorRQIN1pWuwrJjtG61_175a6casiiA7war21uLILkP511gMReVsbRmB4r8CqPRfBP1Q9nfknUnV2VfFBc4f8mCuOx8w-z7ma8v-wX_8dmGIuFF1EJ0wwecA7NNZ7PMY1C5lc6jbS6lsBYWoVaMVWc8lpKyw40VERs1r_EVBdZANyLJlHmnK1TPPHnBK5jdIMeRFhLVZ2I4rUbHxCvGyVlIG5zPO-Xhfy5Ul48gR8YJLBZA81-11iZaG94VYt6rROrg_zJqXHWTrRXrZjyR9ob6rHd_-H0uiPCaXtXyGovzKLwnqFL0lKxG6UkyIgFB-CwqlxBwUMqz3hHkoDuPWvvFT3MNJwV8X-RD5BlnQhhDLd61wF-vDnPctZkUObhdZ_niCCPk_gzqphgoB2yCVixCkMEzXGIa1naeQh-jUbbgJ6MfOqSzFXNnU5rs6h_PpAr3YBazHixeIkHn9edFHpbOhpUmk8N5z1gFWUk9gEQR9AOVW9lOmgpDXeioXuYrfffvuhljO8BeobcPGMVgftnYb4pCWaz30hXTz7SqJmsJYJy0]--></g></svg>