<?xml version="1.0" encoding="us-ascii" standalone="no"?><svg xmlns="http://www.w3.org/2000/svg" xmlns:xlink="http://www.w3.org/1999/xlink" contentStyleType="text/css" height="1244px" preserveAspectRatio="none" style="width:1434px;height:1244px;background:#FFFFFF;" version="1.1" viewBox="0 0 1434 1244" width="1434px" zoomAndPan="magnify"><defs/><g><text fill="#000000" font-family="sans-serif" font-size="14" font-weight="bold" lengthAdjust="spacing" textLength="115" x="652.5" y="22.9951">Domain Model</text><!--class GSM--><g id="elem_GSM"><rect codeLine="18" fill="#F1F1F1" height="34.2969" id="GSM" rx="2.5" ry="2.5" style="stroke:#181818;stroke-width:0.5;" width="38" x="605.5" y="1133.7969"/><text fill="#000000" font-family="sans-serif" font-size="14" lengthAdjust="spacing" textLength="32" x="608.5" y="1151.792">GSM</text><line style="stroke:#181818;stroke-width:0.5;" x1="606.5" x2="642.5" y1="1160.0938" y2="1160.0938"/></g><!--class GSU--><g id="elem_GSU"><rect codeLine="21" fill="#F1F1F1" height="34.2969" id="GSU" rx="2.5" ry="2.5" style="stroke:#181818;stroke-width:0.5;" width="36" x="606.5" y="1202.7969"/><text fill="#000000" font-family="sans-serif" font-size="14" lengthAdjust="spacing" textLength="30" x="609.5" y="1220.792">GSU</text><line style="stroke:#181818;stroke-width:0.5;" x1="607.5" x2="641.5" y1="1229.0938" y2="1229.0938"/></g><!--class GreenSpace--><g id="elem_GreenSpace"><rect codeLine="24" fill="#F1F1F1" height="34.2969" id="GreenSpace" rx="2.5" ry="2.5" style="stroke:#181818;stroke-width:0.5;" width="94" x="266.5" y="1115.7969"/><text fill="#000000" font-family="sans-serif" font-size="14" lengthAdjust="spacing" textLength="88" x="269.5" y="1133.792">GreenSpace</text><line style="stroke:#181818;stroke-width:0.5;" x1="267.5" x2="359.5" y1="1142.0938" y2="1142.0938"/></g><!--class MusgoSublime--><g id="elem_MusgoSublime"><rect codeLine="27" fill="#F1F1F1" height="34.2969" id="MusgoSublime" rx="2.5" ry="2.5" style="stroke:#181818;stroke-width:0.5;" width="110" x="7" y="978.7969"/><text fill="#000000" font-family="sans-serif" font-size="14" lengthAdjust="spacing" textLength="104" x="10" y="996.792">MusgoSublime</text><line style="stroke:#181818;stroke-width:0.5;" x1="8" x2="116" y1="1005.0938" y2="1005.0938"/></g><!--class Task--><g id="elem_Task"><rect codeLine="30" fill="#F1F1F1" height="34.2969" id="Task" rx="2.5" ry="2.5" style="stroke:#181818;stroke-width:0.5;" width="39" x="605" y="1050.7969"/><text fill="#000000" font-family="sans-serif" font-size="14" lengthAdjust="spacing" textLength="33" x="608" y="1068.792">Task</text><line style="stroke:#181818;stroke-width:0.5;" x1="606" x2="643" y1="1077.0938" y2="1077.0938"/></g><!--class Agenda--><g id="elem_Agenda"><rect codeLine="33" fill="#F1F1F1" height="34.2969" id="Agenda" rx="2.5" ry="2.5" style="stroke:#181818;stroke-width:0.5;" width="61" x="283" y="1028.7969"/><text fill="#000000" font-family="sans-serif" font-size="14" lengthAdjust="spacing" textLength="55" x="286" y="1046.792">Agenda</text><line style="stroke:#181818;stroke-width:0.5;" x1="284" x2="343" y1="1055.0938" y2="1055.0938"/></g><!--class VFM--><g id="elem_VFM"><rect codeLine="50" fill="#F1F1F1" height="34.2969" id="VFM" rx="2.5" ry="2.5" style="stroke:#181818;stroke-width:0.5;" width="36" x="295.5" y="143.7969"/><text fill="#000000" font-family="sans-serif" font-size="14" lengthAdjust="spacing" textLength="30" x="298.5" y="161.792">VFM</text><line style="stroke:#181818;stroke-width:0.5;" x1="296.5" x2="330.5" y1="170.0938" y2="170.0938"/></g><!--class Vehicle--><g id="elem_Vehicle"><rect codeLine="53" fill="#F1F1F1" height="213.5625" id="Vehicle" rx="2.5" ry="2.5" style="stroke:#181818;stroke-width:0.5;" width="181" x="534" y="273.7969"/><text fill="#000000" font-family="sans-serif" font-size="14" lengthAdjust="spacing" textLength="53" x="598" y="291.792">Vehicle</text><line style="stroke:#181818;stroke-width:0.5;" x1="535" x2="714" y1="300.0938" y2="300.0938"/><text fill="#000000" font-family="sans-serif" font-size="14" lengthAdjust="spacing" textLength="51" x="540" y="317.0889">plateID</text><text fill="#000000" font-family="sans-serif" font-size="14" lengthAdjust="spacing" textLength="42" x="540" y="333.3857">brand</text><text fill="#000000" font-family="sans-serif" font-size="14" lengthAdjust="spacing" textLength="45" x="540" y="349.6826">model</text><text fill="#000000" font-family="sans-serif" font-size="14" lengthAdjust="spacing" textLength="31" x="540" y="365.9795">type</text><text fill="#000000" font-family="sans-serif" font-size="14" lengthAdjust="spacing" textLength="29" x="540" y="382.2764">tare</text><text fill="#000000" font-family="sans-serif" font-size="14" lengthAdjust="spacing" textLength="88" x="540" y="398.5732">grossWeight</text><text fill="#000000" font-family="sans-serif" font-size="14" lengthAdjust="spacing" textLength="53" x="540" y="414.8701">millage</text><text fill="#000000" font-family="sans-serif" font-size="14" lengthAdjust="spacing" textLength="89" x="540" y="431.167">registerDate</text><text fill="#000000" font-family="sans-serif" font-size="14" lengthAdjust="spacing" textLength="111" x="540" y="447.4639">acquisitionDate</text><text fill="#000000" font-family="sans-serif" font-size="14" lengthAdjust="spacing" textLength="169" x="540" y="463.7607">maintenanceFrequency</text><text fill="#000000" font-family="sans-serif" font-size="14" lengthAdjust="spacing" textLength="88" x="540" y="480.0576">lastCheckUp</text></g><!--class Machine--><g id="elem_Machine"><rect codeLine="67" fill="#F1F1F1" height="34.2969" id="Machine" rx="2.5" ry="2.5" style="stroke:#181818;stroke-width:0.5;" width="66" x="591.5" y="539.7969"/><text fill="#000000" font-family="sans-serif" font-size="14" lengthAdjust="spacing" textLength="60" x="594.5" y="557.792">Machine</text><line style="stroke:#181818;stroke-width:0.5;" x1="592.5" x2="656.5" y1="566.0938" y2="566.0938"/></g><!--class Equipment--><g id="elem_Equipment"><rect codeLine="70" fill="#F1F1F1" height="34.2969" id="Equipment" rx="2.5" ry="2.5" style="stroke:#181818;stroke-width:0.5;" width="83" x="880" y="363.7969"/><text fill="#000000" font-family="sans-serif" font-size="14" lengthAdjust="spacing" textLength="77" x="883" y="381.792">Equipment</text><line style="stroke:#181818;stroke-width:0.5;" x1="881" x2="962" y1="390.0938" y2="390.0938"/></g><!--class VehicleForCheckUp--><g id="elem_VehicleForCheckUp"><rect codeLine="73" fill="#F1F1F1" height="50.5938" id="VehicleForCheckUp" rx="2.5" ry="2.5" style="stroke:#181818;stroke-width:0.5;" width="145" x="849" y="139.2969"/><text fill="#000000" font-family="sans-serif" font-size="14" lengthAdjust="spacing" textLength="139" x="852" y="157.292">VehicleForCheckUp</text><line style="stroke:#181818;stroke-width:0.5;" x1="850" x2="993" y1="165.5938" y2="165.5938"/><text fill="#000000" font-family="sans-serif" font-size="14" lengthAdjust="spacing" textLength="53" x="855" y="182.5889">Vehicle</text></g><!--class CheckUp--><g id="elem_CheckUp"><rect codeLine="77" fill="#F1F1F1" height="83.1875" id="CheckUp" rx="2.5" ry="2.5" style="stroke:#181818;stroke-width:0.5;" width="120" x="1150" y="44.2969"/><text fill="#000000" font-family="sans-serif" font-size="14" lengthAdjust="spacing" textLength="63" x="1178.5" y="62.292">CheckUp</text><line style="stroke:#181818;stroke-width:0.5;" x1="1151" x2="1269" y1="70.5938" y2="70.5938"/><text fill="#000000" font-family="sans-serif" font-size="14" lengthAdjust="spacing" textLength="51" x="1156" y="87.5889">licence</text><text fill="#000000" font-family="sans-serif" font-size="14" lengthAdjust="spacing" textLength="32" x="1156" y="103.8857">date</text><text fill="#000000" font-family="sans-serif" font-size="14" lengthAdjust="spacing" textLength="108" x="1156" y="120.1826">currentMileage</text></g><!--class HRM--><g id="elem_HRM"><rect codeLine="102" fill="#F1F1F1" height="34.2969" id="HRM" rx="2.5" ry="2.5" style="stroke:#181818;stroke-width:0.5;" width="39" x="42.5" y="761.7969"/><text fill="#000000" font-family="sans-serif" font-size="14" lengthAdjust="spacing" textLength="33" x="45.5" y="779.792">HRM</text><line style="stroke:#181818;stroke-width:0.5;" x1="43.5" x2="80.5" y1="788.0938" y2="788.0938"/></g><!--class Collaborator--><g id="elem_Collaborator"><rect codeLine="105" fill="#F1F1F1" height="180.9688" id="Collaborator" rx="2.5" ry="2.5" style="stroke:#181818;stroke-width:0.5;" width="132" x="1144" y="746.2969"/><text fill="#000000" font-family="sans-serif" font-size="14" lengthAdjust="spacing" textLength="89" x="1165.5" y="764.292">Collaborator</text><line style="stroke:#181818;stroke-width:0.5;" x1="1145" x2="1275" y1="772.5938" y2="772.5938"/><text fill="#000000" font-family="sans-serif" font-size="14" lengthAdjust="spacing" textLength="41" x="1150" y="789.5889">name</text><text fill="#000000" font-family="sans-serif" font-size="14" lengthAdjust="spacing" textLength="65" x="1150" y="805.8857">birthdate</text><text fill="#000000" font-family="sans-serif" font-size="14" lengthAdjust="spacing" textLength="106" x="1150" y="822.1826">admissionDate</text><text fill="#000000" font-family="sans-serif" font-size="14" lengthAdjust="spacing" textLength="56" x="1150" y="838.4795">address</text><text fill="#000000" font-family="sans-serif" font-size="14" lengthAdjust="spacing" textLength="102" x="1150" y="854.7764">phoneNumber</text><text fill="#000000" font-family="sans-serif" font-size="14" lengthAdjust="spacing" textLength="40" x="1150" y="871.0732">email</text><text fill="#000000" font-family="sans-serif" font-size="14" lengthAdjust="spacing" textLength="120" x="1150" y="887.3701">taxpayerNumber</text><text fill="#000000" font-family="sans-serif" font-size="14" lengthAdjust="spacing" textLength="84" x="1150" y="903.667">id_doc_type</text><text fill="#000000" font-family="sans-serif" font-size="14" lengthAdjust="spacing" textLength="109" x="1150" y="919.9639">id_doc_number</text></g><!--class Team--><g id="elem_Team"><rect codeLine="117" fill="#F1F1F1" height="83.1875" id="Team" rx="2.5" ry="2.5" style="stroke:#181818;stroke-width:0.5;" width="113" x="257" y="680.2969"/><text fill="#000000" font-family="sans-serif" font-size="14" lengthAdjust="spacing" textLength="41" x="293" y="698.292">Team</text><line style="stroke:#181818;stroke-width:0.5;" x1="258" x2="369" y1="706.5938" y2="706.5938"/><text fill="#000000" font-family="sans-serif" font-size="14" lengthAdjust="spacing" textLength="27" x="263" y="723.5889">skill</text><text fill="#000000" font-family="sans-serif" font-size="14" lengthAdjust="spacing" textLength="97" x="263" y="739.8857">minTeamSize</text><text fill="#000000" font-family="sans-serif" font-size="14" lengthAdjust="spacing" textLength="101" x="263" y="756.1826">maxTeamSize</text></g><!--class Skill--><g id="elem_Skill"><rect codeLine="123" fill="#F1F1F1" height="50.5938" id="Skill" rx="2.5" ry="2.5" style="stroke:#181818;stroke-width:0.5;" width="53" x="895" y="871.2969"/><text fill="#000000" font-family="sans-serif" font-size="14" lengthAdjust="spacing" textLength="29" x="907" y="889.292">Skill</text><line style="stroke:#181818;stroke-width:0.5;" x1="896" x2="947" y1="897.5938" y2="897.5938"/><text fill="#000000" font-family="sans-serif" font-size="14" lengthAdjust="spacing" textLength="41" x="901" y="914.5889">name</text></g><!--class Job--><g id="elem_Job"><rect codeLine="127" fill="#F1F1F1" height="50.5938" id="Job" rx="2.5" ry="2.5" style="stroke:#181818;stroke-width:0.5;" width="53" x="1374" y="811.2969"/><text fill="#000000" font-family="sans-serif" font-size="14" lengthAdjust="spacing" textLength="22" x="1389.5" y="829.292">Job</text><line style="stroke:#181818;stroke-width:0.5;" x1="1375" x2="1426" y1="837.5938" y2="837.5938"/><text fill="#000000" font-family="sans-serif" font-size="14" lengthAdjust="spacing" textLength="41" x="1380" y="854.5889">name</text></g><!--link GreenSpace to GSM--><g id="link_GreenSpace_GSM"><path codeLine="36" d="M360.72,1146.2969 C373.34,1149.3969 387.1,1152.2369 400,1153.7969 C475.89,1162.9769 567.33,1156.2569 605.45,1152.6669 " fill="none" id="GreenSpace-GSM" style="stroke:#181818;stroke-width:1.0;"/><polygon fill="#000000" points="414.5017,1145.2332,423.4672,1148.4065,423.6202,1142.5306,414.5017,1145.2332" style="stroke:#000000;stroke-width:1.0;"/><text fill="#000000" font-family="sans-serif" font-size="13" lengthAdjust="spacing" textLength="60" x="428.5" y="1149.8638">manages</text><text fill="#000000" font-family="sans-serif" font-size="13" lengthAdjust="spacing" textLength="7" x="368.4865" y="1161.5668">*</text><text fill="#000000" font-family="sans-serif" font-size="13" lengthAdjust="spacing" textLength="8" x="589.5266" y="1167.9265">1</text></g><!--link GreenSpace to GSU--><g id="link_GreenSpace_GSU"><path codeLine="37" d="M338.39,1149.9769 C354.91,1161.0369 377.84,1174.7969 400,1182.7969 C473.8,1209.4569 568.31,1217.0369 606.43,1219.0769 " fill="none" id="GreenSpace-GSU" style="stroke:#181818;stroke-width:1.0;"/><polygon fill="#000000" points="429.6583,1173.1151,437.6834,1178.219,439.1507,1172.5272,429.6583,1173.1151" style="stroke:#000000;stroke-width:1.0;"/><text fill="#000000" font-family="sans-serif" font-size="13" lengthAdjust="spacing" textLength="30" x="443.5" y="1178.8638">uses</text><text fill="#000000" font-family="sans-serif" font-size="13" lengthAdjust="spacing" textLength="7" x="338.4754" y="1170.1918">*</text><text fill="#000000" font-family="sans-serif" font-size="13" lengthAdjust="spacing" textLength="8" x="590.5676" y="1233.5299">1</text></g><!--link GreenSpace to Task--><g id="link_GreenSpace_Task"><path codeLine="38" d="M360.76,1123.0669 C429.96,1108.5069 557.37,1081.7069 604.94,1071.6969 " fill="none" id="GreenSpace-Task" style="stroke:#181818;stroke-width:1.0;"/><polygon fill="#000000" points="400.1071,1086.3926,409.5635,1087.4065,408.3534,1081.6545,400.1071,1086.3926" style="stroke:#000000;stroke-width:1.0;"/><text fill="#000000" font-family="sans-serif" font-size="13" lengthAdjust="spacing" textLength="89" x="414" y="1089.8638">carries out on</text><text fill="#000000" font-family="sans-serif" font-size="13" lengthAdjust="spacing" textLength="7" x="368.5326" y="1134.7797">*</text><text fill="#000000" font-family="sans-serif" font-size="13" lengthAdjust="spacing" textLength="23" x="573.9809" y="1067.8202">1..*</text></g><!--link MusgoSublime to GreenSpace--><g id="link_MusgoSublime_GreenSpace"><path codeLine="40" d="M94.09,1012.8669 C142.04,1039.1969 233.47,1089.3969 281.41,1115.7269 " fill="none" id="MusgoSublime-GreenSpace" style="stroke:#181818;stroke-width:1.0;"/><polygon fill="#000000" points="158.8827,1037.7699,152.3689,1030.8402,149.5397,1035.9924,158.8827,1037.7699" style="stroke:#000000;stroke-width:1.0;"/><text fill="#000000" font-family="sans-serif" font-size="13" lengthAdjust="spacing" textLength="60" x="163.5" y="1039.8638">manages</text><text fill="#000000" font-family="sans-serif" font-size="13" lengthAdjust="spacing" textLength="8" x="95.3948" y="1033.0454">1</text><text fill="#000000" font-family="sans-serif" font-size="13" lengthAdjust="spacing" textLength="7" x="262.6208" y="1104.6278">*</text></g><!--link Agenda to Task--><g id="link_Agenda_Task"><path codeLine="42" d="M344.13,1047.9069 C407.12,1052.3869 552.82,1062.7669 604.72,1066.4569 " fill="none" id="Agenda-Task" style="stroke:#181818;stroke-width:1.0;"/><polygon fill="#000000" points="430.4874,1043.7183,421.6738,1040.1446,421.2564,1046.0076,430.4874,1043.7183" style="stroke:#000000;stroke-width:1.0;"/><text fill="#000000" font-family="sans-serif" font-size="13" lengthAdjust="spacing" textLength="48" x="434.5" y="1047.8638">defines</text><text fill="#000000" font-family="sans-serif" font-size="13" lengthAdjust="spacing" textLength="8" x="352.1382" y="1062.1771">1</text><text fill="#000000" font-family="sans-serif" font-size="13" lengthAdjust="spacing" textLength="7" x="590.0085" y="1080.5371">*</text></g><!--link VFM to Vehicle--><g id="link_VFM_Vehicle"><path codeLine="84" d="M329.16,177.8869 C345.37,196.2069 372.81,225.5169 400,246.7969 C441.59,279.3569 491.73,310.0869 533.97,333.8869 " fill="none" id="VFM-Vehicle" style="stroke:#181818;stroke-width:1.0;"/><polygon fill="#000000" points="428.4776,241.3929,423.0629,233.5743,419.5013,238.2502,428.4776,241.3929" style="stroke:#000000;stroke-width:1.0;"/><text fill="#000000" font-family="sans-serif" font-size="13" lengthAdjust="spacing" textLength="50" x="433.5" y="242.8638">register</text><text fill="#000000" font-family="sans-serif" font-size="13" lengthAdjust="spacing" textLength="8" x="325.0224" y="198.072">1</text><text fill="#000000" font-family="sans-serif" font-size="13" lengthAdjust="spacing" textLength="7" x="518.8893" y="342.5915">*</text></g><!--link VFM to VehicleForCheckUp--><g id="link_VFM_VehicleForCheckUp"><path codeLine="85" d="M331.66,160.9069 C406.78,161.4069 709.11,163.3969 848.93,164.3269 " fill="none" id="VFM-VehicleForCheckUp" style="stroke:#181818;stroke-width:1.0;"/><polygon fill="#000000" points="603.9999,154.3963,594.9744,151.3977,594.9356,157.2754,603.9999,154.3963" style="stroke:#000000;stroke-width:1.0;"/><text fill="#000000" font-family="sans-serif" font-size="13" lengthAdjust="spacing" textLength="46" x="608" y="158.8638">selects</text><text fill="#000000" font-family="sans-serif" font-size="13" lengthAdjust="spacing" textLength="8" x="339.3445" y="175.1851">1</text><text fill="#000000" font-family="sans-serif" font-size="13" lengthAdjust="spacing" textLength="7" x="834.0853" y="160.5997">*</text></g><!--link VFM to VehicleForCheckUp--><g id="link_VFM_VehicleForCheckUp"><path codeLine="87" d="M331.51,163.7169 C368.3,169.8669 458.09,183.9769 534,188.7969 C614.28,193.8969 634.69,193.4669 715,188.7969 C759.64,186.1969 809.47,180.4469 848.88,175.2369 " fill="none" id="VFM-VehicleForCheckUp-1" style="stroke:#181818;stroke-width:1.0;"/><polygon fill="#000000" points="592.0012,180.252,600.9787,183.3915,601.1095,177.5151,592.0012,180.252" style="stroke:#000000;stroke-width:1.0;"/><text fill="#000000" font-family="sans-serif" font-size="13" lengthAdjust="spacing" textLength="50" x="606" y="184.8638">informs</text><text fill="#000000" font-family="sans-serif" font-size="13" lengthAdjust="spacing" textLength="8" x="339.6262" y="159.0646">1</text><text fill="#000000" font-family="sans-serif" font-size="13" lengthAdjust="spacing" textLength="7" x="834.0301" y="189.1816">*</text></g><!--link VFM to CheckUp--><g id="link_VFM_CheckUp"><path codeLine="86" d="M331.6,154.6469 C348.68,148.7769 375.81,140.1969 400,135.7969 C673.63,86.0569 746.17,101.4969 1024,88.7969 C1066.04,86.8769 1113.49,86.1369 1149.82,85.8669 " fill="none" id="VFM-CheckUp" style="stroke:#181818;stroke-width:1.0;"/><polygon fill="#000000" points="759.4824,86.9445,750.223,84.7735,750.7153,90.6307,759.4824,86.9445" style="stroke:#000000;stroke-width:1.0;"/><text fill="#000000" font-family="sans-serif" font-size="13" lengthAdjust="spacing" textLength="50" x="763.5" y="91.8638">register</text><text fill="#000000" font-family="sans-serif" font-size="13" lengthAdjust="spacing" textLength="8" x="339.4731" y="146.8217">1</text><text fill="#000000" font-family="sans-serif" font-size="13" lengthAdjust="spacing" textLength="7" x="1135.059" y="98.853">*</text></g><!--link Vehicle to VehicleForCheckUp--><g id="link_Vehicle_VehicleForCheckUp"><path codeLine="89" d="M715.1,320.7769 C748.14,298.1169 785.63,271.7769 819,246.7969 C843.3,228.6069 869.97,206.9869 889.87,190.5169 " fill="none" id="Vehicle-VehicleForCheckUp" style="stroke:#181818;stroke-width:1.0;"/><polygon fill="#000000" points="756.009,235.3753,747.0004,238.4242,750.513,243.137,756.009,235.3753" style="stroke:#000000;stroke-width:1.0;"/><text fill="#000000" font-family="sans-serif" font-size="13" lengthAdjust="spacing" textLength="55" x="761" y="242.8638">contains</text><text fill="#000000" font-family="sans-serif" font-size="13" lengthAdjust="spacing" textLength="7" x="722.8927" y="328.5181">*</text><text fill="#000000" font-family="sans-serif" font-size="13" lengthAdjust="spacing" textLength="7" x="875.1853" y="209.9096">*</text></g><!--link Vehicle to Equipment--><g id="link_Vehicle_Equipment"><path codeLine="90" d="M715.21,380.7969 C769.96,380.7969 837.34,380.7969 879.61,380.7969 " fill="none" id="Vehicle-Equipment" style="stroke:#181818;stroke-width:1.0;"/><polygon fill="#000000" points="755,372.3633,745.9549,369.4244,745.9549,375.3022,755,372.3633" style="stroke:#000000;stroke-width:1.0;"/><text fill="#000000" font-family="sans-serif" font-size="13" lengthAdjust="spacing" textLength="59" x="759" y="376.8638">transport</text><text fill="#000000" font-family="sans-serif" font-size="13" lengthAdjust="spacing" textLength="8" x="723.0532" y="393.5085">1</text><text fill="#000000" font-family="sans-serif" font-size="13" lengthAdjust="spacing" textLength="7" x="865.0923" y="394.0924">*</text></g><!--link Vehicle to Machine--><g id="link_Vehicle_Machine"><path codeLine="91" d="M624.5,488.0569 C624.5,508.1269 624.5,526.7969 624.5,539.5969 " fill="none" id="Vehicle-Machine" style="stroke:#181818;stroke-width:1.0;"/><polygon fill="#000000" points="581,518.8633,583.9389,509.8182,578.0611,509.8182,581,518.8633" style="stroke:#000000;stroke-width:1.0;"/><text fill="#000000" font-family="sans-serif" font-size="13" lengthAdjust="spacing" textLength="59" x="590" y="518.3638">transport</text><text fill="#000000" font-family="sans-serif" font-size="13" lengthAdjust="spacing" textLength="8" x="616.2438" y="507.4938">1</text><text fill="#000000" font-family="sans-serif" font-size="13" lengthAdjust="spacing" textLength="7" x="616.3844" y="528.7645">*</text></g><!--link VehicleForCheckUp to CheckUp--><g id="link_VehicleForCheckUp_CheckUp"><path codeLine="93" d="M994.06,145.0669 C1042.12,131.8169 1104.7,114.5569 1149.92,102.0869 " fill="none" id="VehicleForCheckUp-CheckUp" style="stroke:#181818;stroke-width:1.0;"/><polygon fill="#000000" points="1055.8201,104.0341,1046.3192,103.6054,1047.8817,109.2718,1055.8201,104.0341" style="stroke:#000000;stroke-width:1.0;"/><text fill="#000000" font-family="sans-serif" font-size="13" lengthAdjust="spacing" textLength="31" x="1060" y="109.8638">does</text><text fill="#000000" font-family="sans-serif" font-size="13" lengthAdjust="spacing" textLength="7" x="1001.9037" y="155.9003">*</text><text fill="#000000" font-family="sans-serif" font-size="13" lengthAdjust="spacing" textLength="7" x="1135.1712" y="117.0498">*</text></g><!--link HRM to Skill--><g id="link_HRM_Skill"><path codeLine="131" d="M79.19,795.8469 C94.9,811.1469 120.24,832.7069 147,842.7969 C423.5,946.9969 794.5,912.2069 894.67,900.1669 " fill="none" id="HRM-Skill" style="stroke:#181818;stroke-width:1.0;"/><polygon fill="#000000" points="429.4596,895.9977,420.8605,891.9348,420.1147,897.7652,429.4596,895.9977" style="stroke:#000000;stroke-width:1.0;"/><text fill="#000000" font-family="sans-serif" font-size="13" lengthAdjust="spacing" textLength="50" x="433.5" y="899.8638">register</text><text fill="#000000" font-family="sans-serif" font-size="13" lengthAdjust="spacing" textLength="8" x="75.5592" y="816.0188">1</text><text fill="#000000" font-family="sans-serif" font-size="13" lengthAdjust="spacing" textLength="23" x="863.7644" y="914.5313">1..*</text></g><!--link HRM to Job--><g id="link_HRM_Job"><path codeLine="133" d="M77.68,761.6569 C113.46,721.9069 209.79,626.7969 312.5,626.7969 C312.5,626.7969 312.5,626.7969 1211,626.7969 C1308.98,626.7969 1368.92,754.9669 1390.45,811.0469 " fill="none" id="HRM-Job" style="stroke:#181818;stroke-width:1.0;"/><polygon fill="#000000" points="759.4965,618.5513,750.5683,615.2744,750.3473,621.1481,759.4965,618.5513" style="stroke:#000000;stroke-width:1.0;"/><text fill="#000000" font-family="sans-serif" font-size="13" lengthAdjust="spacing" textLength="50" x="763.5" y="622.8638">register</text><text fill="#000000" font-family="sans-serif" font-size="13" lengthAdjust="spacing" textLength="8" x="73.403" y="750.8436">1</text><text fill="#000000" font-family="sans-serif" font-size="13" lengthAdjust="spacing" textLength="23" x="1362.1972" y="800.0748">1..*</text></g><!--link HRM to Collaborator--><g id="link_HRM_Collaborator"><path codeLine="134" d="M81.63,783.6069 C122.91,793.8369 225.31,816.7969 312.5,816.7969 C312.5,816.7969 312.5,816.7969 922.5,816.7969 C998.66,816.7969 1085.94,823.9169 1143.95,829.6569 " fill="none" id="HRM-Collaborator" style="stroke:#181818;stroke-width:1.0;"/><polygon fill="#000000" points="601.9953,808.5798,593.086,805.2519,592.8314,811.1243,601.9953,808.5798" style="stroke:#000000;stroke-width:1.0;"/><text fill="#000000" font-family="sans-serif" font-size="13" lengthAdjust="spacing" textLength="50" x="606" y="812.8638">register</text><text fill="#000000" font-family="sans-serif" font-size="13" lengthAdjust="spacing" textLength="8" x="89.4574" y="799.7243">1</text><text fill="#000000" font-family="sans-serif" font-size="13" lengthAdjust="spacing" textLength="23" x="1112.9527" y="841.7694">1..*</text></g><!--link HRM to Team--><g id="link_HRM_Team"><path codeLine="135" d="M81.75,774.5169 C118.47,766.1269 201.12,747.2469 256.87,734.5069 " fill="none" id="HRM-Team" style="stroke:#181818;stroke-width:1.0;"/><polygon fill="#000000" points="156.8744,733.2496,147.4019,732.3992,148.7111,738.1294,156.8744,733.2496" style="stroke:#000000;stroke-width:1.0;"/><text fill="#000000" font-family="sans-serif" font-size="13" lengthAdjust="spacing" textLength="65" x="161" y="738.8638">generates</text><text fill="#000000" font-family="sans-serif" font-size="13" lengthAdjust="spacing" textLength="8" x="89.6172" y="767.6545">1</text><text fill="#000000" font-family="sans-serif" font-size="13" lengthAdjust="spacing" textLength="23" x="225.9925" y="748.9074">1..*</text></g><!--link Skill to Collaborator--><g id="link_Skill_Collaborator"><path codeLine="137" d="M948.29,892.2069 C985.14,885.5669 1054.94,872.6469 1114,859.7969 C1123.7,857.6869 1133.93,855.3369 1143.94,852.9769 " fill="none" id="Skill-Collaborator" style="stroke:#181818;stroke-width:1.0;"/><polygon fill="#000000" points="1033.9024,850.3803,1024.4561,849.277,1025.6116,855.0401,1033.9024,850.3803" style="stroke:#000000;stroke-width:1.0;"/><text fill="#000000" font-family="sans-serif" font-size="13" lengthAdjust="spacing" textLength="75" x="1038" y="855.8638">assigned to</text><text fill="#000000" font-family="sans-serif" font-size="13" lengthAdjust="spacing" textLength="16" x="955.9003" y="904.9693">1..</text><text fill="#000000" font-family="sans-serif" font-size="13" lengthAdjust="spacing" textLength="7" x="1128.8971" y="867.7913">*</text></g><!--link Collaborator to Job--><g id="link_Collaborator_Job"><path codeLine="139" d="M1276.13,836.7969 C1309.76,836.7969 1348.87,836.7969 1373.89,836.7969 " fill="none" id="Collaborator-Job" style="stroke:#181818;stroke-width:1.0;"/><polygon fill="#000000" points="1316,828.3633,1306.9549,825.4244,1306.9549,831.3022,1316,828.3633" style="stroke:#000000;stroke-width:1.0;"/><text fill="#000000" font-family="sans-serif" font-size="13" lengthAdjust="spacing" textLength="23" x="1320" y="832.8638">has</text><text fill="#000000" font-family="sans-serif" font-size="13" lengthAdjust="spacing" textLength="8" x="1283.8005" y="849.6931">1</text><text fill="#000000" font-family="sans-serif" font-size="13" lengthAdjust="spacing" textLength="7" x="1359.1743" y="850.8547">*</text></g><!--link Team to Collaborator--><g id="link_Team_Collaborator"><path codeLine="141" d="M370.48,719.7369 C502.59,716.3369 843,716.2269 1114,790.7969 C1123.89,793.5169 1134.01,797.2569 1143.77,801.4269 " fill="none" id="Team-Collaborator" style="stroke:#181818;stroke-width:1.0;"/><polygon fill="#000000" points="772.9723,722.8886,764.286,719.0157,763.6686,724.861,772.9723,722.8886" style="stroke:#000000;stroke-width:1.0;"/><text fill="#000000" font-family="sans-serif" font-size="13" lengthAdjust="spacing" textLength="23" x="777" y="726.8638">has</text><text fill="#000000" font-family="sans-serif" font-size="13" lengthAdjust="spacing" textLength="23" x="377.97" y="732.3958">1..*</text><text fill="#000000" font-family="sans-serif" font-size="13" lengthAdjust="spacing" textLength="23" x="1113.1185" y="810.7584">1..*</text></g><!--link Team to Vehicle--><g id="link_Team_Vehicle"><path codeLine="147" d="M352.39,679.9869 C397.27,630.4569 473.54,546.2869 533.77,479.8169 " fill="none" id="Team-Vehicle" style="stroke:#181818;stroke-width:1.0;"/><polygon fill="#000000" points="437.8574,508.6581,429.606,513.3874,433.9617,517.3342,437.8574,508.6581" style="stroke:#000000;stroke-width:1.0;"/><text fill="#000000" font-family="sans-serif" font-size="13" lengthAdjust="spacing" textLength="30" x="443.5" y="516.8638">uses</text><text fill="#000000" font-family="sans-serif" font-size="13" lengthAdjust="spacing" textLength="7" x="351.0303" y="669.1906">*</text><text fill="#000000" font-family="sans-serif" font-size="13" lengthAdjust="spacing" textLength="7" x="518.9666" y="500.7286">*</text></g><!--link Team to Agenda--><g id="link_Team_Agenda"><path codeLine="148" d="M313.5,763.3069 C313.5,834.8869 313.5,978.6269 313.5,1028.3769 " fill="none" id="Team-Agenda" style="stroke:#181818;stroke-width:1.0;"/><polygon fill="#000000" points="288,901.1133,290.9389,892.0682,285.0611,892.0682,288,901.1133" style="stroke:#000000;stroke-width:1.0;"/><text fill="#000000" font-family="sans-serif" font-size="13" lengthAdjust="spacing" textLength="23" x="297" y="900.6138">has</text><text fill="#000000" font-family="sans-serif" font-size="13" lengthAdjust="spacing" textLength="23" x="288.5953" y="783.4865">1..*</text><text fill="#000000" font-family="sans-serif" font-size="13" lengthAdjust="spacing" textLength="7" x="305.4281" y="1017.7869">*</text></g><!--link MusgoSublime to Collaborator--><g id="link_MusgoSublime_Collaborator"><path codeLine="150" d="M117.41,988.9169 C167.89,983.1269 245.14,975.7969 312.5,975.7969 C312.5,975.7969 312.5,975.7969 922.5,975.7969 C1004.87,975.7969 1088.41,928.7069 1143.86,889.3469 " fill="none" id="MusgoSublime-Collaborator" style="stroke:#181818;stroke-width:1.0;"/><polygon fill="#000000" points="615.4766,966.8805,606.1901,964.8286,606.7576,970.679,615.4766,966.8805" style="stroke:#000000;stroke-width:1.0;"/><text fill="#000000" font-family="sans-serif" font-size="13" lengthAdjust="spacing" textLength="23" x="619.5" y="971.8638">has</text><text fill="#000000" font-family="sans-serif" font-size="13" lengthAdjust="spacing" textLength="8" x="125.0219" y="1001.0527">1</text><text fill="#000000" font-family="sans-serif" font-size="13" lengthAdjust="spacing" textLength="7" x="1128.8079" y="908.3665">*</text></g><!--link Task to Skill--><g id="link_Task_Skill"><path codeLine="152" d="M644.12,1057.8469 C662.29,1048.0769 690.69,1032.6669 715,1018.7969 C780.23,981.5869 855.95,936.0069 894.72,912.4969 " fill="none" id="Task-Skill" style="stroke:#181818;stroke-width:1.0;"/><polygon fill="#000000" points="757.3251,948.8547,748.0264,950.8505,750.9754,955.935,757.3251,948.8547" style="stroke:#000000;stroke-width:1.0;"/><text fill="#000000" font-family="sans-serif" font-size="13" lengthAdjust="spacing" textLength="53" x="762" y="955.8638">requires</text><text fill="#000000" font-family="sans-serif" font-size="13" lengthAdjust="spacing" textLength="7" x="652.0675" y="1048.8871">*</text><text fill="#000000" font-family="sans-serif" font-size="13" lengthAdjust="spacing" textLength="7" x="879.9608" y="930.5778">*</text></g><!--link Task to Job--><g id="link_Task_Job"><path codeLine="153" d="M644.08,1068.0969 C709.65,1068.7169 935.87,1066.9869 1114,1018.7969 C1190.41,998.1269 1209.51,987.7469 1276,944.7969 C1313.32,920.6869 1351.02,885.8569 1374.77,862.3269 " fill="none" id="Task-Job" style="stroke:#181818;stroke-width:1.0;"/><polygon fill="#000000" points="1044.8128,1009.0079,1035.3097,1008.6309,1036.903,1014.2887,1044.8128,1009.0079" style="stroke:#000000;stroke-width:1.0;"/><text fill="#000000" font-family="sans-serif" font-size="13" lengthAdjust="spacing" textLength="53" x="1049" y="1014.8638">requires</text><text fill="#000000" font-family="sans-serif" font-size="13" lengthAdjust="spacing" textLength="7" x="652.0138" y="1082.8168">*</text><text fill="#000000" font-family="sans-serif" font-size="13" lengthAdjust="spacing" textLength="23" x="1326.8653" y="880.9496">1..*</text></g><!--SRC=[dLPDRzmW4BtxLw3qi5AaLCrrLKMAcgOVqhPIjscF4OidDeeDBc0r7-f_xu2n0HjlglfauCtCOtZ3eE-vwAYYBMcbaAnMiWLYL0-5dbOwokvf1Nlps01Hm0mLLHC3T4rB-PkBYjpHHaEn2KiD5s0UEo1IcLeMHT70dI564iMhsf2IMtzSYiWRQwZMbyOeVkWDV69IxFaJa3T5pKiWZ2k6mTr_2-Ypr4LXk45gLxAbN92TBA4fxBSXvDNu4Vm-W0156_99t4dLKXjteudx9johmWuT1_9XloFFRlodIAPlijCAGEmnMP1RtVMwall-qF0sk_wTwllS_6K5egJfIXJfvFI4d9sHa_CJntPBMYhmh3HvUnHvWyXU7uMzVer_ZjMMCAeKHxJi3P42ZPnLiYNhrzgXKUGjyBaORFns8hGFKS8TIiNXviUsEA7CqVwutYrX8OjsEPFS7r1pL9DVSb_NK1JTLPWuA2hAC6oTkgQXrNOqeYeQLKfg_HEiq2DxtZIOa32XeEBQWBh2k66MibyzrznAD5sm4ZSWg61mhU1N3u8zXbNSbNbN0xk_wUBTZf-N8cKrvlevMSeYtoE9hWLXijWaXzTI-S1HDltQCl5BQCCPRYLij8ntpNgbaCMEDp3c3jqLuy57QXfFT3lb5HKLS8JCaO7tbcXey3RIYON5UukHz8hlTSzemTsLeyVI6MaYV9qEtdm6JtlYCzg4IDFvO0I3EjKTNhCvk4FxSvzXOt14URm7adsNSgZG_ohHZz-EbgXTpfJeEudrSf2A6gaYkGZQ1daSE3QNH32qRBdMy-AXPQb0wsdSrLB0bxuzW9hc00iirBUX3nrz13K3yVAsbEmsANu_9m8olTy1MrlWZ-sk2M5QBkowxNDXZZuaSuctlJNFfID1VPQ78nYRy55Bmsq_U4talPaZ8nY6uDLmP-VzsVYBOfbW8oevuNLuw4asarjIkMPkGciPQ5bGK6xgsXCkxVl36oM8Q8y3zPfEtbrKp-1iZRl7lrmTQo-JIwqbu-vbehErCj0upTnthfrVBBawc6-xoOuoxJkRjJW9jbT7qODWy29I8Vu46rZOkQ262VflrqWimV7wJkNA57WTR8xfy4NORDzP_CI0P8Mu6R2hJMdcSwqfwNnNMlW-NsbAS-2AxwGlUUgXYav9ckwrOdAxtaJFWw-gee8_EHMd7NGyiK5IBngbv-UDLi17Ap9dH29U_YGzU81dRuRp6Pa1wkkD9AJNqZLbEde3ZBuJYaEGjmlm4Qb4BuPD_WsmwEKf6Prv0PpdNm1_Yhy0]--></g></svg>