<?xml version="1.0" encoding="us-ascii" standalone="no"?><svg xmlns="http://www.w3.org/2000/svg" xmlns:xlink="http://www.w3.org/1999/xlink" contentStyleType="text/css" height="982px" preserveAspectRatio="none" style="width:1590px;height:982px;background:#FFFFFF;" version="1.1" viewBox="0 0 1590 982" width="1590px" zoomAndPan="magnify"><defs/><g><rect fill="#FFFFFF" height="801.4297" style="stroke:#181818;stroke-width:1.0;" width="10" x="46.5" y="91.4883"/><rect fill="#FFFFFF" height="29.3105" style="stroke:#181818;stroke-width:1.0;" width="10" x="338.5" y="112.7988"/><rect fill="#FFFFFF" height="58.6211" style="stroke:#181818;stroke-width:1.0;" width="10" x="338.5" y="171.4199"/><rect fill="#FFFFFF" height="87.9316" style="stroke:#181818;stroke-width:1.0;" width="10" x="338.5" y="435.2148"/><rect fill="#FFFFFF" height="29.3105" style="stroke:#181818;stroke-width:1.0;" width="10" x="338.5" y="552.457"/><rect fill="#FFFFFF" height="29.3105" style="stroke:#181818;stroke-width:1.0;" width="10" x="338.5" y="854.6074"/><rect fill="#FFFFFF" height="205.1738" style="stroke:#181818;stroke-width:1.0;" width="10" x="727.5" y="230.041"/><rect fill="#FFFFFF" height="272.8398" style="stroke:#181818;stroke-width:1.0;" width="10" x="727.5" y="581.7676"/><rect fill="#FFFFFF" height="29.3105" style="stroke:#181818;stroke-width:1.0;" width="10" x="854" y="259.3516"/><rect fill="#FFFFFF" height="29.3105" style="stroke:#181818;stroke-width:1.0;" width="10" x="967" y="317.9727"/><rect fill="#FFFFFF" height="29.3105" style="stroke:#181818;stroke-width:1.0;" width="10" x="1093" y="376.5938"/><rect fill="#FFFFFF" height="214.2188" style="stroke:#181818;stroke-width:1.0;" width="10" x="1267" y="611.0781"/><line style="stroke:#181818;stroke-width:0.5;stroke-dasharray:5.0,5.0;" x1="51" x2="51" y1="81.4883" y2="901.918"/><line style="stroke:#181818;stroke-width:0.5;stroke-dasharray:5.0,5.0;" x1="343.5" x2="343.5" y1="81.4883" y2="901.918"/><line style="stroke:#181818;stroke-width:0.5;stroke-dasharray:5.0,5.0;" x1="732.5" x2="732.5" y1="81.4883" y2="901.918"/><line style="stroke:#181818;stroke-width:0.5;stroke-dasharray:5.0,5.0;" x1="858.5" x2="858.5" y1="81.4883" y2="901.918"/><line style="stroke:#181818;stroke-width:0.5;stroke-dasharray:5.0,5.0;" x1="971.5" x2="971.5" y1="81.4883" y2="901.918"/><line style="stroke:#181818;stroke-width:0.5;stroke-dasharray:5.0,5.0;" x1="1097.5" x2="1097.5" y1="81.4883" y2="901.918"/><line style="stroke:#181818;stroke-width:0.5;stroke-dasharray:5.0,5.0;" x1="1271.5" x2="1271.5" y1="81.4883" y2="901.918"/><line style="stroke:#181818;stroke-width:0.5;stroke-dasharray:5.0,5.0;" x1="1519" x2="1519" y1="658.0664" y2="901.918"/><text fill="#000000" font-family="sans-serif" font-size="14" lengthAdjust="spacing" textLength="87" x="5" y="78.5352">Collaborator</text><ellipse cx="51.5" cy="13.5" fill="#E3E3E3" rx="8" ry="8" style="stroke:#181818;stroke-width:0.5;"/><path d="M51.5,21.5 L51.5,48.5 M38.5,29.5 L64.5,29.5 M51.5,48.5 L38.5,63.5 M51.5,48.5 L64.5,63.5 " fill="none" style="stroke:#181818;stroke-width:0.5;"/><text fill="#000000" font-family="sans-serif" font-size="14" lengthAdjust="spacing" textLength="87" x="5" y="914.4531">Collaborator</text><ellipse cx="51.5" cy="925.9063" fill="#E3E3E3" rx="8" ry="8" style="stroke:#181818;stroke-width:0.5;"/><path d="M51.5,933.9063 L51.5,960.9063 M38.5,941.9063 L64.5,941.9063 M51.5,960.9063 L38.5,975.9063 M51.5,960.9063 L64.5,975.9063 " fill="none" style="stroke:#181818;stroke-width:0.5;"/><rect fill="#E3E3E3" height="30.4883" rx="2.5" ry="2.5" style="stroke:#181818;stroke-width:0.5;" width="144" x="271.5" y="50"/><text fill="#000000" font-family="sans-serif" font-size="14" lengthAdjust="spacing" textLength="130" x="278.5" y="70.5352">:CompletionTaskUI</text><rect fill="#E3E3E3" height="30.4883" rx="2.5" ry="2.5" style="stroke:#181818;stroke-width:0.5;" width="144" x="271.5" y="900.918"/><text fill="#000000" font-family="sans-serif" font-size="14" lengthAdjust="spacing" textLength="130" x="278.5" y="921.4531">:CompletionTaskUI</text><rect fill="#E3E3E3" height="30.4883" rx="2.5" ry="2.5" style="stroke:#181818;stroke-width:0.5;" width="130" x="667.5" y="50"/><text fill="#000000" font-family="sans-serif" font-size="14" lengthAdjust="spacing" textLength="116" x="674.5" y="70.5352">:Team Controller</text><rect fill="#E3E3E3" height="30.4883" rx="2.5" ry="2.5" style="stroke:#181818;stroke-width:0.5;" width="130" x="667.5" y="900.918"/><text fill="#000000" font-family="sans-serif" font-size="14" lengthAdjust="spacing" textLength="116" x="674.5" y="921.4531">:Team Controller</text><rect fill="#E3E3E3" height="30.4883" rx="2.5" ry="2.5" style="stroke:#181818;stroke-width:0.5;" width="103" x="807.5" y="50"/><text fill="#000000" font-family="sans-serif" font-size="14" lengthAdjust="spacing" textLength="89" x="814.5" y="70.5352">:Repositories</text><rect fill="#E3E3E3" height="30.4883" rx="2.5" ry="2.5" style="stroke:#181818;stroke-width:0.5;" width="103" x="807.5" y="900.918"/><text fill="#000000" font-family="sans-serif" font-size="14" lengthAdjust="spacing" textLength="89" x="814.5" y="921.4531">:Repositories</text><rect fill="#E3E3E3" height="46.9766" rx="2.5" ry="2.5" style="stroke:#181818;stroke-width:0.5;" width="103" x="920.5" y="33.5117"/><text fill="#000000" font-family="sans-serif" font-size="14" lengthAdjust="spacing" textLength="82" x="931" y="54.0469">repositories</text><text fill="#000000" font-family="sans-serif" font-size="14" lengthAdjust="spacing" textLength="89" x="927.5" y="70.5352">:Repositories</text><rect fill="#E3E3E3" height="46.9766" rx="2.5" ry="2.5" style="stroke:#181818;stroke-width:0.5;" width="103" x="920.5" y="900.918"/><text fill="#000000" font-family="sans-serif" font-size="14" lengthAdjust="spacing" textLength="82" x="931" y="921.4531">repositories</text><text fill="#000000" font-family="sans-serif" font-size="14" lengthAdjust="spacing" textLength="89" x="927.5" y="937.9414">:Repositories</text><rect fill="#E3E3E3" height="46.9766" rx="2.5" ry="2.5" style="stroke:#181818;stroke-width:0.5;" width="129" x="1033.5" y="33.5117"/><text fill="#000000" font-family="sans-serif" font-size="14" lengthAdjust="spacing" textLength="107" x="1044.5" y="54.0469">teamRepository</text><text fill="#000000" font-family="sans-serif" font-size="14" lengthAdjust="spacing" textLength="115" x="1040.5" y="70.5352">:TeamRepository</text><rect fill="#E3E3E3" height="46.9766" rx="2.5" ry="2.5" style="stroke:#181818;stroke-width:0.5;" width="129" x="1033.5" y="900.918"/><text fill="#000000" font-family="sans-serif" font-size="14" lengthAdjust="spacing" textLength="107" x="1044.5" y="921.4531">teamRepository</text><text fill="#000000" font-family="sans-serif" font-size="14" lengthAdjust="spacing" textLength="115" x="1040.5" y="937.9414">:TeamRepository</text><rect fill="#E3E3E3" height="46.9766" rx="2.5" ry="2.5" style="stroke:#181818;stroke-width:0.5;" width="199" x="1172.5" y="33.5117"/><text fill="#000000" font-family="sans-serif" font-size="14" lengthAdjust="spacing" textLength="185" x="1179.5" y="54.0469">taskCompletionRepository:</text><text fill="#000000" font-family="sans-serif" font-size="14" lengthAdjust="spacing" textLength="185" x="1179.5" y="70.5352">TaskCompletionRepository</text><rect fill="#E3E3E3" height="46.9766" rx="2.5" ry="2.5" style="stroke:#181818;stroke-width:0.5;" width="199" x="1172.5" y="900.918"/><text fill="#000000" font-family="sans-serif" font-size="14" lengthAdjust="spacing" textLength="185" x="1179.5" y="921.4531">taskCompletionRepository:</text><text fill="#000000" font-family="sans-serif" font-size="14" lengthAdjust="spacing" textLength="185" x="1179.5" y="937.9414">TaskCompletionRepository</text><rect fill="#E3E3E3" height="46.9766" rx="2.5" ry="2.5" style="stroke:#181818;stroke-width:0.5;" width="130" x="1454" y="900.918"/><text fill="#000000" font-family="sans-serif" font-size="14" lengthAdjust="spacing" textLength="108" x="1465" y="921.4531">taskCompletion</text><text fill="#000000" font-family="sans-serif" font-size="14" lengthAdjust="spacing" textLength="116" x="1461" y="937.9414">:TaskCompletion</text><rect fill="#FFFFFF" height="801.4297" style="stroke:#181818;stroke-width:1.0;" width="10" x="46.5" y="91.4883"/><rect fill="#FFFFFF" height="29.3105" style="stroke:#181818;stroke-width:1.0;" width="10" x="338.5" y="112.7988"/><rect fill="#FFFFFF" height="58.6211" style="stroke:#181818;stroke-width:1.0;" width="10" x="338.5" y="171.4199"/><rect fill="#FFFFFF" height="87.9316" style="stroke:#181818;stroke-width:1.0;" width="10" x="338.5" y="435.2148"/><rect fill="#FFFFFF" height="29.3105" style="stroke:#181818;stroke-width:1.0;" width="10" x="338.5" y="552.457"/><rect fill="#FFFFFF" height="29.3105" style="stroke:#181818;stroke-width:1.0;" width="10" x="338.5" y="854.6074"/><rect fill="#FFFFFF" height="205.1738" style="stroke:#181818;stroke-width:1.0;" width="10" x="727.5" y="230.041"/><rect fill="#FFFFFF" height="272.8398" style="stroke:#181818;stroke-width:1.0;" width="10" x="727.5" y="581.7676"/><rect fill="#FFFFFF" height="29.3105" style="stroke:#181818;stroke-width:1.0;" width="10" x="854" y="259.3516"/><rect fill="#FFFFFF" height="29.3105" style="stroke:#181818;stroke-width:1.0;" width="10" x="967" y="317.9727"/><rect fill="#FFFFFF" height="29.3105" style="stroke:#181818;stroke-width:1.0;" width="10" x="1093" y="376.5938"/><rect fill="#FFFFFF" height="214.2188" style="stroke:#181818;stroke-width:1.0;" width="10" x="1267" y="611.0781"/><polygon fill="#181818" points="326.5,108.7988,336.5,112.7988,326.5,116.7988,330.5,112.7988" style="stroke:#181818;stroke-width:1.0;"/><line style="stroke:#181818;stroke-width:1.0;" x1="56.5" x2="332.5" y1="112.7988" y2="112.7988"/><text fill="#000000" font-family="sans-serif" font-size="13" font-weight="bold" lengthAdjust="spacing" textLength="9" x="63.5" y="108.0566">1</text><text fill="#000000" font-family="sans-serif" font-size="13" lengthAdjust="spacing" textLength="250" x="76.5" y="108.0566">Asks to record the completion of a task</text><polygon fill="#181818" points="67.5,138.1094,57.5,142.1094,67.5,146.1094,63.5,142.1094" style="stroke:#181818;stroke-width:1.0;"/><line style="stroke:#181818;stroke-width:1.0;" x1="61.5" x2="342.5" y1="142.1094" y2="142.1094"/><text fill="#000000" font-family="sans-serif" font-size="13" font-weight="bold" lengthAdjust="spacing" textLength="9" x="73.5" y="137.3672">2</text><text fill="#000000" font-family="sans-serif" font-size="13" lengthAdjust="spacing" textLength="203" x="86.5" y="137.3672">Requests data (taxPayerNumber)</text><polygon fill="#181818" points="326.5,167.4199,336.5,171.4199,326.5,175.4199,330.5,171.4199" style="stroke:#181818;stroke-width:1.0;"/><line style="stroke:#181818;stroke-width:1.0;" x1="56.5" x2="332.5" y1="171.4199" y2="171.4199"/><text fill="#000000" font-family="sans-serif" font-size="13" font-weight="bold" lengthAdjust="spacing" textLength="9" x="63.5" y="166.6777">3</text><text fill="#000000" font-family="sans-serif" font-size="13" lengthAdjust="spacing" textLength="148" x="76.5" y="166.6777">Submits requested data</text><polygon fill="#181818" points="720.5,196.7305,730.5,200.7305,720.5,204.7305,724.5,200.7305" style="stroke:#181818;stroke-width:1.0;"/><line style="stroke:#181818;stroke-width:1.0;" x1="348.5" x2="726.5" y1="200.7305" y2="200.7305"/><text fill="#000000" font-family="sans-serif" font-size="13" font-weight="bold" lengthAdjust="spacing" textLength="9" x="355.5" y="195.9883">4</text><text fill="#000000" font-family="sans-serif" font-size="13" lengthAdjust="spacing" textLength="38" x="368.5" y="195.9883">create</text><polygon fill="#181818" points="715.5,226.041,725.5,230.041,715.5,234.041,719.5,230.041" style="stroke:#181818;stroke-width:1.0;"/><line style="stroke:#181818;stroke-width:1.0;" x1="343.5" x2="721.5" y1="230.041" y2="230.041"/><text fill="#000000" font-family="sans-serif" font-size="13" font-weight="bold" lengthAdjust="spacing" textLength="9" x="350.5" y="225.2988">5</text><text fill="#000000" font-family="sans-serif" font-size="13" lengthAdjust="spacing" textLength="288" x="363.5" y="225.2988">getTeamByColabTaxNumber(taxPayerNumber)</text><polygon fill="#181818" points="842,255.3516,852,259.3516,842,263.3516,846,259.3516" style="stroke:#181818;stroke-width:1.0;"/><line style="stroke:#181818;stroke-width:1.0;" x1="737.5" x2="848" y1="259.3516" y2="259.3516"/><text fill="#000000" font-family="sans-serif" font-size="13" font-weight="bold" lengthAdjust="spacing" textLength="9" x="744.5" y="254.6094">6</text><text fill="#000000" font-family="sans-serif" font-size="13" lengthAdjust="spacing" textLength="81" x="757.5" y="254.6094">getInstance()</text><polygon fill="#181818" points="748.5,284.6621,738.5,288.6621,748.5,292.6621,744.5,288.6621" style="stroke:#181818;stroke-width:1.0;"/><line style="stroke:#181818;stroke-width:1.0;stroke-dasharray:2.0,2.0;" x1="742.5" x2="858" y1="288.6621" y2="288.6621"/><text fill="#000000" font-family="sans-serif" font-size="13" font-weight="bold" lengthAdjust="spacing" textLength="9" x="754.5" y="283.9199">7</text><text fill="#000000" font-family="sans-serif" font-size="13" lengthAdjust="spacing" textLength="75" x="767.5" y="283.9199">repositories</text><polygon fill="#181818" points="955,313.9727,965,317.9727,955,321.9727,959,317.9727" style="stroke:#181818;stroke-width:1.0;"/><line style="stroke:#181818;stroke-width:1.0;" x1="737.5" x2="961" y1="317.9727" y2="317.9727"/><text fill="#000000" font-family="sans-serif" font-size="13" font-weight="bold" lengthAdjust="spacing" textLength="9" x="744.5" y="313.2305">8</text><text fill="#000000" font-family="sans-serif" font-size="13" lengthAdjust="spacing" textLength="129" x="757.5" y="313.2305">getTeamRepository()</text><polygon fill="#181818" points="748.5,343.2832,738.5,347.2832,748.5,351.2832,744.5,347.2832" style="stroke:#181818;stroke-width:1.0;"/><line style="stroke:#181818;stroke-width:1.0;stroke-dasharray:2.0,2.0;" x1="742.5" x2="971" y1="347.2832" y2="347.2832"/><text fill="#000000" font-family="sans-serif" font-size="13" font-weight="bold" lengthAdjust="spacing" textLength="9" x="754.5" y="342.541">9</text><text fill="#000000" font-family="sans-serif" font-size="13" lengthAdjust="spacing" textLength="98" x="767.5" y="342.541">teamRepository</text><polygon fill="#181818" points="1081,372.5938,1091,376.5938,1081,380.5938,1085,376.5938" style="stroke:#181818;stroke-width:1.0;"/><line style="stroke:#181818;stroke-width:1.0;" x1="737.5" x2="1087" y1="376.5938" y2="376.5938"/><text fill="#000000" font-family="sans-serif" font-size="13" font-weight="bold" lengthAdjust="spacing" textLength="18" x="744.5" y="371.8516">10</text><text fill="#000000" font-family="sans-serif" font-size="13" lengthAdjust="spacing" textLength="308" x="766.5" y="371.8516">teamListContainsByTaxNumber(taxPayerNumber)</text><polygon fill="#181818" points="748.5,401.9043,738.5,405.9043,748.5,409.9043,744.5,405.9043" style="stroke:#181818;stroke-width:1.0;"/><line style="stroke:#181818;stroke-width:1.0;" x1="742.5" x2="1097" y1="405.9043" y2="405.9043"/><text fill="#000000" font-family="sans-serif" font-size="13" font-weight="bold" lengthAdjust="spacing" textLength="18" x="754.5" y="401.1621">11</text><text fill="#000000" font-family="sans-serif" font-size="13" lengthAdjust="spacing" textLength="31" x="776.5" y="401.1621">team</text><polygon fill="#181818" points="359.5,431.2148,349.5,435.2148,359.5,439.2148,355.5,435.2148" style="stroke:#181818;stroke-width:1.0;"/><line style="stroke:#181818;stroke-width:1.0;" x1="353.5" x2="731.5" y1="435.2148" y2="435.2148"/><text fill="#000000" font-family="sans-serif" font-size="13" font-weight="bold" lengthAdjust="spacing" textLength="18" x="365.5" y="430.4727">12</text><text fill="#000000" font-family="sans-serif" font-size="13" lengthAdjust="spacing" textLength="31" x="387.5" y="430.4727">team</text><polygon fill="#181818" points="67.5,460.5254,57.5,464.5254,67.5,468.5254,63.5,464.5254" style="stroke:#181818;stroke-width:1.0;"/><line style="stroke:#181818;stroke-width:1.0;" x1="61.5" x2="337.5" y1="464.5254" y2="464.5254"/><text fill="#000000" font-family="sans-serif" font-size="13" font-weight="bold" lengthAdjust="spacing" textLength="18" x="73.5" y="459.7832">13</text><text fill="#000000" font-family="sans-serif" font-size="13" lengthAdjust="spacing" textLength="143" x="95.5" y="459.7832">Shows the list of tasks</text><polygon fill="#181818" points="326.5,489.8359,336.5,493.8359,326.5,497.8359,330.5,493.8359" style="stroke:#181818;stroke-width:1.0;"/><line style="stroke:#181818;stroke-width:1.0;" x1="56.5" x2="332.5" y1="493.8359" y2="493.8359"/><text fill="#000000" font-family="sans-serif" font-size="13" font-weight="bold" lengthAdjust="spacing" textLength="18" x="63.5" y="489.0938">14</text><text fill="#000000" font-family="sans-serif" font-size="13" lengthAdjust="spacing" textLength="149" x="85.5" y="489.0938">Selects the desired task</text><polygon fill="#181818" points="67.5,519.1465,57.5,523.1465,67.5,527.1465,63.5,523.1465" style="stroke:#181818;stroke-width:1.0;"/><line style="stroke:#181818;stroke-width:1.0;" x1="61.5" x2="342.5" y1="523.1465" y2="523.1465"/><text fill="#000000" font-family="sans-serif" font-size="13" font-weight="bold" lengthAdjust="spacing" textLength="18" x="73.5" y="518.4043">15</text><text fill="#000000" font-family="sans-serif" font-size="13" lengthAdjust="spacing" textLength="200" x="95.5" y="518.4043">Requests data (completionDate)</text><polygon fill="#181818" points="326.5,548.457,336.5,552.457,326.5,556.457,330.5,552.457" style="stroke:#181818;stroke-width:1.0;"/><line style="stroke:#181818;stroke-width:1.0;" x1="56.5" x2="332.5" y1="552.457" y2="552.457"/><text fill="#000000" font-family="sans-serif" font-size="13" font-weight="bold" lengthAdjust="spacing" textLength="18" x="63.5" y="547.7148">16</text><text fill="#000000" font-family="sans-serif" font-size="13" lengthAdjust="spacing" textLength="148" x="85.5" y="547.7148">Submits requested data</text><polygon fill="#181818" points="715.5,577.7676,725.5,581.7676,715.5,585.7676,719.5,581.7676" style="stroke:#181818;stroke-width:1.0;"/><line style="stroke:#181818;stroke-width:1.0;" x1="343.5" x2="721.5" y1="581.7676" y2="581.7676"/><text fill="#000000" font-family="sans-serif" font-size="13" font-weight="bold" lengthAdjust="spacing" textLength="18" x="350.5" y="577.0254">17</text><text fill="#000000" font-family="sans-serif" font-size="13" lengthAdjust="spacing" textLength="338" x="372.5" y="577.0254">createCompletionOfTask(team, task, completionDate)</text><polygon fill="#181818" points="1255,607.0781,1265,611.0781,1255,615.0781,1259,611.0781" style="stroke:#181818;stroke-width:1.0;"/><line style="stroke:#181818;stroke-width:1.0;" x1="737.5" x2="1261" y1="611.0781" y2="611.0781"/><text fill="#000000" font-family="sans-serif" font-size="13" font-weight="bold" lengthAdjust="spacing" textLength="18" x="744.5" y="606.3359">18</text><text fill="#000000" font-family="sans-serif" font-size="13" lengthAdjust="spacing" textLength="299" x="766.5" y="606.3359">registerCompletion(team,task, completionDate)</text><polygon fill="#181818" points="1442,636.3887,1452,640.3887,1442,644.3887,1446,640.3887" style="stroke:#181818;stroke-width:1.0;"/><line style="stroke:#181818;stroke-width:1.0;" x1="1277" x2="1448" y1="640.3887" y2="640.3887"/><text fill="#000000" font-family="sans-serif" font-size="13" font-weight="bold" lengthAdjust="spacing" textLength="18" x="1284" y="635.6465">19</text><text fill="#000000" font-family="sans-serif" font-size="13" lengthAdjust="spacing" textLength="38" x="1306" y="635.6465">create</text><rect fill="#E3E3E3" height="46.9766" rx="2.5" ry="2.5" style="stroke:#181818;stroke-width:0.5;" width="130" x="1454" y="619.0781"/><text fill="#000000" font-family="sans-serif" font-size="14" lengthAdjust="spacing" textLength="108" x="1465" y="639.6133">taskCompletion</text><text fill="#000000" font-family="sans-serif" font-size="14" lengthAdjust="spacing" textLength="116" x="1461" y="656.1016">:TaskCompletion</text><line style="stroke:#181818;stroke-width:1.0;" x1="1277" x2="1319" y1="698.3652" y2="698.3652"/><line style="stroke:#181818;stroke-width:1.0;" x1="1319" x2="1319" y1="698.3652" y2="711.3652"/><line style="stroke:#181818;stroke-width:1.0;" x1="1278" x2="1319" y1="711.3652" y2="711.3652"/><polygon fill="#181818" points="1288,707.3652,1278,711.3652,1288,715.3652,1284,711.3652" style="stroke:#181818;stroke-width:1.0;"/><text fill="#000000" font-family="sans-serif" font-size="13" font-weight="bold" lengthAdjust="spacing" textLength="18" x="1284" y="693.623">20</text><text fill="#000000" font-family="sans-serif" font-size="13" lengthAdjust="spacing" textLength="175" x="1306" y="693.623">addCompletion(completion)</text><line style="stroke:#181818;stroke-width:1.0;" x1="1277" x2="1319" y1="740.6758" y2="740.6758"/><line style="stroke:#181818;stroke-width:1.0;" x1="1319" x2="1319" y1="740.6758" y2="753.6758"/><line style="stroke:#181818;stroke-width:1.0;" x1="1278" x2="1319" y1="753.6758" y2="753.6758"/><polygon fill="#181818" points="1288,749.6758,1278,753.6758,1288,757.6758,1284,753.6758" style="stroke:#181818;stroke-width:1.0;"/><text fill="#000000" font-family="sans-serif" font-size="13" font-weight="bold" lengthAdjust="spacing" textLength="18" x="1284" y="735.9336">21</text><text fill="#000000" font-family="sans-serif" font-size="13" lengthAdjust="spacing" textLength="201" x="1306" y="735.9336">validateCompletion(completion)</text><line style="stroke:#181818;stroke-width:1.0;" x1="1277" x2="1319" y1="782.9863" y2="782.9863"/><line style="stroke:#181818;stroke-width:1.0;" x1="1319" x2="1319" y1="782.9863" y2="795.9863"/><line style="stroke:#181818;stroke-width:1.0;" x1="1278" x2="1319" y1="795.9863" y2="795.9863"/><polygon fill="#181818" points="1288,791.9863,1278,795.9863,1288,799.9863,1284,795.9863" style="stroke:#181818;stroke-width:1.0;"/><text fill="#000000" font-family="sans-serif" font-size="13" font-weight="bold" lengthAdjust="spacing" textLength="18" x="1284" y="778.2441">22</text><text fill="#000000" font-family="sans-serif" font-size="13" lengthAdjust="spacing" textLength="127" x="1306" y="778.2441">setTaskStatus(team)</text><polygon fill="#181818" points="748.5,821.2969,738.5,825.2969,748.5,829.2969,744.5,825.2969" style="stroke:#181818;stroke-width:1.0;"/><line style="stroke:#181818;stroke-width:1.0;" x1="742.5" x2="1271" y1="825.2969" y2="825.2969"/><text fill="#000000" font-family="sans-serif" font-size="13" font-weight="bold" lengthAdjust="spacing" textLength="18" x="754.5" y="820.5547">23</text><text fill="#000000" font-family="sans-serif" font-size="13" lengthAdjust="spacing" textLength="71" x="776.5" y="820.5547">completion</text><polygon fill="#181818" points="359.5,850.6074,349.5,854.6074,359.5,858.6074,355.5,854.6074" style="stroke:#181818;stroke-width:1.0;"/><line style="stroke:#181818;stroke-width:1.0;" x1="353.5" x2="731.5" y1="854.6074" y2="854.6074"/><text fill="#000000" font-family="sans-serif" font-size="13" font-weight="bold" lengthAdjust="spacing" textLength="18" x="365.5" y="849.8652">24</text><text fill="#000000" font-family="sans-serif" font-size="13" lengthAdjust="spacing" textLength="71" x="387.5" y="849.8652">completion</text><polygon fill="#181818" points="67.5,879.918,57.5,883.918,67.5,887.918,63.5,883.918" style="stroke:#181818;stroke-width:1.0;"/><line style="stroke:#181818;stroke-width:1.0;" x1="61.5" x2="342.5" y1="883.918" y2="883.918"/><text fill="#000000" font-family="sans-serif" font-size="13" font-weight="bold" lengthAdjust="spacing" textLength="18" x="73.5" y="879.1758">25</text><text fill="#000000" font-family="sans-serif" font-size="13" lengthAdjust="spacing" textLength="172" x="95.5" y="879.1758">Displays operation success</text><!--SRC=[jLR1Rk8m4BtxAonEKBK_m66bbgvKj6WNbN3hPKW6i4ZYhEsqpT_ls84uDY6xghGdYcVclUUPDwRw9CeA51IyaALCZqeMo8sgaUakKa5wWWDkJ9CZLvWQA0zvFq4V8PCVeZpmFUGQ6OFQoB8kTgZexzH8nISBcUUmamhesuI3vdG0EyO8mOXKL50QFfalP57bQ8Gi4z2dxT9bRfTHLe94kf2bKGIAPxZaTHMblM8bjI0-WThbT0VDHjWhaCYmHFKgtifhWFNgCGah34dni5IJ10UkAio9wkcQ_j8-Q_xcEZ0KQZ5l1CVGhRhWe6tSo_V5Z-tQ3KgyWy7BPDm7V_X6_UTp_gXFn2hj_ANAk3aYJpiWBlSSd2QFGbDZL4drBT2Ssl-xHcqqpy00dnhuN4E3wgSpoenb6DI6z9jwLmWgLIq6PWvaa8sCG0MfGZgF3Wzex7oU6WUUm6VBVIKbrk9ROrt671gX3lYf9LcMcfOanUdCbmwPZmqXF9prpddVZdr9Wr0NKTQZ_ge-jQ_5-PYvJCyMsRJ7rwPV2C8ytXQkX3Ps8q6K-gaPwMm76j6n2DOFpGRwQkB2JfWpIfpTJcp4bPkZ_D3EppdTmJhP-bZ7_iES7husBqCj53dG-NtKudv3dedy_rZSh_EllLtlgUt0lHDtpyS5tB3rhRU5MqSUg4ceVBYb6sRp8xlrMh6RNFQQxSjqT-VNUInzH3PaMK-nbqb-PFoBcE-GYopeVmZyLLnDYqlHZG5JQzVTsL_QT7P35mwMvMRd_oqhsAqU1RlQiS2dqLey2rtbq6WkAwJ_0EmlXgxJ5BME7Fa7]--></g></svg>