<?xml version="1.0" encoding="us-ascii" standalone="no"?><svg xmlns="http://www.w3.org/2000/svg" xmlns:xlink="http://www.w3.org/1999/xlink" contentStyleType="text/css" height="302px" preserveAspectRatio="none" style="width:640px;height:302px;background:#FFFFFF;" version="1.1" viewBox="0 0 640 302" width="640px" zoomAndPan="magnify"><defs/><g><rect fill="#FFFFFF" height="156.5527" style="stroke:#181818;stroke-width:1.0;" width="10" x="320" y="84.2871"/><rect fill="#FFFFFF" height="29.3105" style="stroke:#181818;stroke-width:1.0;" width="10" x="455" y="137.9082"/><rect fill="#FFFFFF" height="29.3105" style="stroke:#181818;stroke-width:1.0;" width="10" x="568" y="196.5293"/><rect fill="none" height="134.5527" style="stroke:#000000;stroke-width:1.5;" width="382.5" x="252" y="99.2871"/><line style="stroke:#181818;stroke-width:0.5;stroke-dasharray:5.0,5.0;" x1="325" x2="325" y1="52.9766" y2="250.8398"/><line style="stroke:#181818;stroke-width:0.5;stroke-dasharray:5.0,5.0;" x1="459.5" x2="459.5" y1="52.9766" y2="250.8398"/><line style="stroke:#181818;stroke-width:0.5;stroke-dasharray:5.0,5.0;" x1="572.5" x2="572.5" y1="52.9766" y2="250.8398"/><rect fill="#E3E3E3" height="30.4883" rx="2.5" ry="2.5" style="stroke:#181818;stroke-width:0.5;" width="126" x="262" y="21.4883"/><text fill="#000000" font-family="sans-serif" font-size="14" lengthAdjust="spacing" textLength="112" x="269" y="42.0234">:TeamController</text><rect fill="#E3E3E3" height="30.4883" rx="2.5" ry="2.5" style="stroke:#181818;stroke-width:0.5;" width="126" x="262" y="249.8398"/><text fill="#000000" font-family="sans-serif" font-size="14" lengthAdjust="spacing" textLength="112" x="269" y="270.375">:TeamController</text><rect fill="#E3E3E3" height="30.4883" rx="2.5" ry="2.5" style="stroke:#181818;stroke-width:0.5;" width="103" x="408.5" y="21.4883"/><text fill="#000000" font-family="sans-serif" font-size="14" lengthAdjust="spacing" textLength="89" x="415.5" y="42.0234">:Repositories</text><rect fill="#E3E3E3" height="30.4883" rx="2.5" ry="2.5" style="stroke:#181818;stroke-width:0.5;" width="103" x="408.5" y="249.8398"/><text fill="#000000" font-family="sans-serif" font-size="14" lengthAdjust="spacing" textLength="89" x="415.5" y="270.375">:Repositories</text><rect fill="#E3E3E3" height="46.9766" rx="2.5" ry="2.5" style="stroke:#181818;stroke-width:0.5;" width="103" x="521.5" y="5"/><text fill="#000000" font-family="sans-serif" font-size="14" lengthAdjust="spacing" textLength="82" x="532" y="25.5352">repositories</text><text fill="#000000" font-family="sans-serif" font-size="14" lengthAdjust="spacing" textLength="89" x="528.5" y="42.0234">:Repositories</text><rect fill="#E3E3E3" height="46.9766" rx="2.5" ry="2.5" style="stroke:#181818;stroke-width:0.5;" width="103" x="521.5" y="249.8398"/><text fill="#000000" font-family="sans-serif" font-size="14" lengthAdjust="spacing" textLength="82" x="532" y="270.375">repositories</text><text fill="#000000" font-family="sans-serif" font-size="14" lengthAdjust="spacing" textLength="89" x="528.5" y="286.8633">:Repositories</text><rect fill="#FFFFFF" height="156.5527" style="stroke:#181818;stroke-width:1.0;" width="10" x="320" y="84.2871"/><rect fill="#FFFFFF" height="29.3105" style="stroke:#181818;stroke-width:1.0;" width="10" x="455" y="137.9082"/><rect fill="#FFFFFF" height="29.3105" style="stroke:#181818;stroke-width:1.0;" width="10" x="568" y="196.5293"/><polygon fill="#181818" points="308,80.2871,318,84.2871,308,88.2871,312,84.2871" style="stroke:#181818;stroke-width:1.0;"/><line style="stroke:#181818;stroke-width:1.0;" x1="0" x2="314" y1="84.2871" y2="84.2871"/><text fill="#000000" font-family="sans-serif" font-size="13" font-weight="bold" lengthAdjust="spacing" textLength="9" x="7" y="79.5449">5</text><text fill="#000000" font-family="sans-serif" font-size="13" lengthAdjust="spacing" textLength="288" x="20" y="79.5449">getTeamByColabTaxNumber(taxPayerNumber)</text><path d="M252,99.2871 L438,99.2871 L438,106.5977 L428,116.5977 L252,116.5977 L252,99.2871 " fill="#EEEEEE" style="stroke:#000000;stroke-width:1.5;"/><rect fill="none" height="134.5527" style="stroke:#000000;stroke-width:1.5;" width="382.5" x="252" y="99.2871"/><text fill="#000000" font-family="sans-serif" font-size="13" font-weight="bold" lengthAdjust="spacing" textLength="141" x="267" y="112.8555">Get Team Repository</text><polygon fill="#181818" points="443,133.9082,453,137.9082,443,141.9082,447,137.9082" style="stroke:#181818;stroke-width:1.0;"/><line style="stroke:#181818;stroke-width:1.0;" x1="330" x2="449" y1="137.9082" y2="137.9082"/><text fill="#000000" font-family="sans-serif" font-size="13" font-weight="bold" lengthAdjust="spacing" textLength="21" x="337" y="133.166">5.1</text><text fill="#000000" font-family="sans-serif" font-size="13" lengthAdjust="spacing" textLength="81" x="362" y="133.166">getInstance()</text><polygon fill="#181818" points="341,163.2188,331,167.2188,341,171.2188,337,167.2188" style="stroke:#181818;stroke-width:1.0;"/><line style="stroke:#181818;stroke-width:1.0;stroke-dasharray:2.0,2.0;" x1="335" x2="459" y1="167.2188" y2="167.2188"/><text fill="#000000" font-family="sans-serif" font-size="13" font-weight="bold" lengthAdjust="spacing" textLength="21" x="347" y="162.4766">5.2</text><text fill="#000000" font-family="sans-serif" font-size="13" lengthAdjust="spacing" textLength="75" x="372" y="162.4766">repositories</text><polygon fill="#181818" points="556,192.5293,566,196.5293,556,200.5293,560,196.5293" style="stroke:#181818;stroke-width:1.0;"/><line style="stroke:#181818;stroke-width:1.0;" x1="330" x2="562" y1="196.5293" y2="196.5293"/><text fill="#000000" font-family="sans-serif" font-size="13" font-weight="bold" lengthAdjust="spacing" textLength="21" x="337" y="191.7871">5.3</text><text fill="#000000" font-family="sans-serif" font-size="13" lengthAdjust="spacing" textLength="129" x="362" y="191.7871">getTeamRepository()</text><polygon fill="#181818" points="341,221.8398,331,225.8398,341,229.8398,337,225.8398" style="stroke:#181818;stroke-width:1.0;"/><line style="stroke:#181818;stroke-width:1.0;stroke-dasharray:2.0,2.0;" x1="335" x2="572" y1="225.8398" y2="225.8398"/><text fill="#000000" font-family="sans-serif" font-size="13" font-weight="bold" lengthAdjust="spacing" textLength="21" x="347" y="221.0977">5.4</text><text fill="#000000" font-family="sans-serif" font-size="13" lengthAdjust="spacing" textLength="98" x="372" y="221.0977">teamRepository</text><!--SRC=[ZL4xRy903DxzAooMma2b3bqOAhKCg1Ag46JiOX8JJYJdwCvfat_VF2XSQ93gBRdlvS_-P6n1ZdBCnKfyT98pgYiP_EMbeFX4AU-qpXWTnqespKA0Fr8YtyQcUA3CCm2LAhRCz-m07eucOJo8w5ugW8QX9ZO5MSN98cBAbsBLIPQnco1vN4RRzGrgouLue-8C-mvp-L7lJ9kbSHjINC3uj7y5DklN2CAS-0o0yvVE7HUOihRHtkgbPBIFgFheK5EbQaCrk_vpDX1uV0AArNoHShy4DfCwAGjSiMAh5mHlt36OphVn7zciZ_DkVTDxpDFPW7Tn7AjaW6ndJ7r-tdg1OMa3QiB_j_bTf6tuMkILTYz_Vv7Rm9tADQ4EfEvbF1_tFEqZsmGWG7JdWHy0]--></g></svg>