<?xml version="1.0" encoding="us-ascii" standalone="no"?><svg xmlns="http://www.w3.org/2000/svg" xmlns:xlink="http://www.w3.org/1999/xlink" contentStyleType="text/css" height="666px" preserveAspectRatio="none" style="width:1513px;height:666px;background:#FFFFFF;" version="1.1" viewBox="0 0 1513 666" width="1513px" zoomAndPan="magnify"><defs/><g><rect fill="#FFFFFF" height="485.4121" style="stroke:#181818;stroke-width:1.0;" width="10" x="46.5" y="91.4883"/><rect fill="#FFFFFF" height="29.3105" style="stroke:#181818;stroke-width:1.0;" width="10" x="338.5" y="112.7988"/><rect fill="#FFFFFF" height="176.8184" style="stroke:#181818;stroke-width:1.0;" width="10" x="338.5" y="171.4199"/><rect fill="#FFFFFF" height="29.3105" style="stroke:#181818;stroke-width:1.0;" width="10" x="338.5" y="538.5898"/><rect fill="#FFFFFF" height="308.5488" style="stroke:#181818;stroke-width:1.0;" width="10" x="723.5" y="230.041"/><rect fill="#FFFFFF" height="131.7305" style="stroke:#181818;stroke-width:1.0;" width="10" x="1263" y="377.5488"/><line style="stroke:#181818;stroke-width:0.5;stroke-dasharray:5.0,5.0;" x1="51" x2="51" y1="81.4883" y2="585.9004"/><line style="stroke:#181818;stroke-width:0.5;stroke-dasharray:5.0,5.0;" x1="343.5" x2="343.5" y1="81.4883" y2="585.9004"/><line style="stroke:#181818;stroke-width:0.5;stroke-dasharray:5.0,5.0;" x1="728.5" x2="728.5" y1="81.4883" y2="585.9004"/><line style="stroke:#181818;stroke-width:0.5;stroke-dasharray:5.0,5.0;" x1="854.5" x2="854.5" y1="81.4883" y2="585.9004"/><line style="stroke:#181818;stroke-width:0.5;stroke-dasharray:5.0,5.0;" x1="967.5" x2="967.5" y1="81.4883" y2="585.9004"/><line style="stroke:#181818;stroke-width:0.5;stroke-dasharray:5.0,5.0;" x1="1093.5" x2="1093.5" y1="81.4883" y2="585.9004"/><line style="stroke:#181818;stroke-width:0.5;stroke-dasharray:5.0,5.0;" x1="1267.5" x2="1267.5" y1="81.4883" y2="585.9004"/><line style="stroke:#181818;stroke-width:0.5;stroke-dasharray:5.0,5.0;" x1="1442.5" x2="1442.5" y1="424.5371" y2="585.9004"/><text fill="#000000" font-family="sans-serif" font-size="14" lengthAdjust="spacing" textLength="87" x="5" y="78.5352">Collaborator</text><ellipse cx="51.5" cy="13.5" fill="#E3E3E3" rx="8" ry="8" style="stroke:#181818;stroke-width:0.5;"/><path d="M51.5,21.5 L51.5,48.5 M38.5,29.5 L64.5,29.5 M51.5,48.5 L38.5,63.5 M51.5,48.5 L64.5,63.5 " fill="none" style="stroke:#181818;stroke-width:0.5;"/><text fill="#000000" font-family="sans-serif" font-size="14" lengthAdjust="spacing" textLength="87" x="5" y="598.4355">Collaborator</text><ellipse cx="51.5" cy="609.8887" fill="#E3E3E3" rx="8" ry="8" style="stroke:#181818;stroke-width:0.5;"/><path d="M51.5,617.8887 L51.5,644.8887 M38.5,625.8887 L64.5,625.8887 M51.5,644.8887 L38.5,659.8887 M51.5,644.8887 L64.5,659.8887 " fill="none" style="stroke:#181818;stroke-width:0.5;"/><rect fill="#E3E3E3" height="30.4883" rx="2.5" ry="2.5" style="stroke:#181818;stroke-width:0.5;" width="144" x="271.5" y="50"/><text fill="#000000" font-family="sans-serif" font-size="14" lengthAdjust="spacing" textLength="130" x="278.5" y="70.5352">:CompletionTaskUI</text><rect fill="#E3E3E3" height="30.4883" rx="2.5" ry="2.5" style="stroke:#181818;stroke-width:0.5;" width="144" x="271.5" y="584.9004"/><text fill="#000000" font-family="sans-serif" font-size="14" lengthAdjust="spacing" textLength="130" x="278.5" y="605.4355">:CompletionTaskUI</text><rect fill="#E3E3E3" height="30.4883" rx="2.5" ry="2.5" style="stroke:#181818;stroke-width:0.5;" width="130" x="663.5" y="50"/><text fill="#000000" font-family="sans-serif" font-size="14" lengthAdjust="spacing" textLength="116" x="670.5" y="70.5352">:Team Controller</text><rect fill="#E3E3E3" height="30.4883" rx="2.5" ry="2.5" style="stroke:#181818;stroke-width:0.5;" width="130" x="663.5" y="584.9004"/><text fill="#000000" font-family="sans-serif" font-size="14" lengthAdjust="spacing" textLength="116" x="670.5" y="605.4355">:Team Controller</text><rect fill="#E3E3E3" height="30.4883" rx="2.5" ry="2.5" style="stroke:#181818;stroke-width:0.5;" width="103" x="803.5" y="50"/><text fill="#000000" font-family="sans-serif" font-size="14" lengthAdjust="spacing" textLength="89" x="810.5" y="70.5352">:Repositories</text><rect fill="#E3E3E3" height="30.4883" rx="2.5" ry="2.5" style="stroke:#181818;stroke-width:0.5;" width="103" x="803.5" y="584.9004"/><text fill="#000000" font-family="sans-serif" font-size="14" lengthAdjust="spacing" textLength="89" x="810.5" y="605.4355">:Repositories</text><rect fill="#E3E3E3" height="46.9766" rx="2.5" ry="2.5" style="stroke:#181818;stroke-width:0.5;" width="103" x="916.5" y="33.5117"/><text fill="#000000" font-family="sans-serif" font-size="14" lengthAdjust="spacing" textLength="82" x="927" y="54.0469">repositories</text><text fill="#000000" font-family="sans-serif" font-size="14" lengthAdjust="spacing" textLength="89" x="923.5" y="70.5352">:Repositories</text><rect fill="#E3E3E3" height="46.9766" rx="2.5" ry="2.5" style="stroke:#181818;stroke-width:0.5;" width="103" x="916.5" y="584.9004"/><text fill="#000000" font-family="sans-serif" font-size="14" lengthAdjust="spacing" textLength="82" x="927" y="605.4355">repositories</text><text fill="#000000" font-family="sans-serif" font-size="14" lengthAdjust="spacing" textLength="89" x="923.5" y="621.9238">:Repositories</text><rect fill="#E3E3E3" height="46.9766" rx="2.5" ry="2.5" style="stroke:#181818;stroke-width:0.5;" width="129" x="1029.5" y="33.5117"/><text fill="#000000" font-family="sans-serif" font-size="14" lengthAdjust="spacing" textLength="107" x="1040.5" y="54.0469">teamRepository</text><text fill="#000000" font-family="sans-serif" font-size="14" lengthAdjust="spacing" textLength="115" x="1036.5" y="70.5352">:TeamRepository</text><rect fill="#E3E3E3" height="46.9766" rx="2.5" ry="2.5" style="stroke:#181818;stroke-width:0.5;" width="129" x="1029.5" y="584.9004"/><text fill="#000000" font-family="sans-serif" font-size="14" lengthAdjust="spacing" textLength="107" x="1040.5" y="605.4355">teamRepository</text><text fill="#000000" font-family="sans-serif" font-size="14" lengthAdjust="spacing" textLength="115" x="1036.5" y="621.9238">:TeamRepository</text><rect fill="#E3E3E3" height="46.9766" rx="2.5" ry="2.5" style="stroke:#181818;stroke-width:0.5;" width="199" x="1168.5" y="33.5117"/><text fill="#000000" font-family="sans-serif" font-size="14" lengthAdjust="spacing" textLength="185" x="1175.5" y="54.0469">taskCompletionRepository:</text><text fill="#000000" font-family="sans-serif" font-size="14" lengthAdjust="spacing" textLength="185" x="1175.5" y="70.5352">TaskCompletionRepository</text><rect fill="#E3E3E3" height="46.9766" rx="2.5" ry="2.5" style="stroke:#181818;stroke-width:0.5;" width="199" x="1168.5" y="584.9004"/><text fill="#000000" font-family="sans-serif" font-size="14" lengthAdjust="spacing" textLength="185" x="1175.5" y="605.4355">taskCompletionRepository:</text><text fill="#000000" font-family="sans-serif" font-size="14" lengthAdjust="spacing" textLength="185" x="1175.5" y="621.9238">TaskCompletionRepository</text><rect fill="#E3E3E3" height="46.9766" rx="2.5" ry="2.5" style="stroke:#181818;stroke-width:0.5;" width="130" x="1377.5" y="584.9004"/><text fill="#000000" font-family="sans-serif" font-size="14" lengthAdjust="spacing" textLength="108" x="1388.5" y="605.4355">taskCompletion</text><text fill="#000000" font-family="sans-serif" font-size="14" lengthAdjust="spacing" textLength="116" x="1384.5" y="621.9238">:TaskCompletion</text><rect fill="#FFFFFF" height="485.4121" style="stroke:#181818;stroke-width:1.0;" width="10" x="46.5" y="91.4883"/><rect fill="#FFFFFF" height="29.3105" style="stroke:#181818;stroke-width:1.0;" width="10" x="338.5" y="112.7988"/><rect fill="#FFFFFF" height="176.8184" style="stroke:#181818;stroke-width:1.0;" width="10" x="338.5" y="171.4199"/><rect fill="#FFFFFF" height="29.3105" style="stroke:#181818;stroke-width:1.0;" width="10" x="338.5" y="538.5898"/><rect fill="#FFFFFF" height="308.5488" style="stroke:#181818;stroke-width:1.0;" width="10" x="723.5" y="230.041"/><rect fill="#FFFFFF" height="131.7305" style="stroke:#181818;stroke-width:1.0;" width="10" x="1263" y="377.5488"/><polygon fill="#181818" points="326.5,108.7988,336.5,112.7988,326.5,116.7988,330.5,112.7988" style="stroke:#181818;stroke-width:1.0;"/><line style="stroke:#181818;stroke-width:1.0;" x1="56.5" x2="332.5" y1="112.7988" y2="112.7988"/><text fill="#000000" font-family="sans-serif" font-size="13" font-weight="bold" lengthAdjust="spacing" textLength="9" x="63.5" y="108.0566">1</text><text fill="#000000" font-family="sans-serif" font-size="13" lengthAdjust="spacing" textLength="250" x="76.5" y="108.0566">Asks to record the completion of a task</text><polygon fill="#181818" points="67.5,138.1094,57.5,142.1094,67.5,146.1094,63.5,142.1094" style="stroke:#181818;stroke-width:1.0;"/><line style="stroke:#181818;stroke-width:1.0;" x1="61.5" x2="342.5" y1="142.1094" y2="142.1094"/><text fill="#000000" font-family="sans-serif" font-size="13" font-weight="bold" lengthAdjust="spacing" textLength="9" x="73.5" y="137.3672">2</text><text fill="#000000" font-family="sans-serif" font-size="13" lengthAdjust="spacing" textLength="203" x="86.5" y="137.3672">Requests data (taxPayerNumber)</text><polygon fill="#181818" points="326.5,167.4199,336.5,171.4199,326.5,175.4199,330.5,171.4199" style="stroke:#181818;stroke-width:1.0;"/><line style="stroke:#181818;stroke-width:1.0;" x1="56.5" x2="332.5" y1="171.4199" y2="171.4199"/><text fill="#000000" font-family="sans-serif" font-size="13" font-weight="bold" lengthAdjust="spacing" textLength="9" x="63.5" y="166.6777">3</text><text fill="#000000" font-family="sans-serif" font-size="13" lengthAdjust="spacing" textLength="148" x="76.5" y="166.6777">Submits requested data</text><polygon fill="#181818" points="716.5,196.7305,726.5,200.7305,716.5,204.7305,720.5,200.7305" style="stroke:#181818;stroke-width:1.0;"/><line style="stroke:#181818;stroke-width:1.0;" x1="348.5" x2="722.5" y1="200.7305" y2="200.7305"/><text fill="#000000" font-family="sans-serif" font-size="13" font-weight="bold" lengthAdjust="spacing" textLength="9" x="355.5" y="195.9883">4</text><text fill="#000000" font-family="sans-serif" font-size="13" lengthAdjust="spacing" textLength="38" x="368.5" y="195.9883">create</text><polygon fill="#181818" points="711.5,226.041,721.5,230.041,711.5,234.041,715.5,230.041" style="stroke:#181818;stroke-width:1.0;"/><line style="stroke:#181818;stroke-width:1.0;" x1="348.5" x2="717.5" y1="230.041" y2="230.041"/><text fill="#000000" font-family="sans-serif" font-size="13" font-weight="bold" lengthAdjust="spacing" textLength="9" x="355.5" y="225.2988">5</text><text fill="#000000" font-family="sans-serif" font-size="13" lengthAdjust="spacing" textLength="288" x="368.5" y="225.2988">getTeamByColabTaxNumber(taxPayerNumber)</text><rect fill="none" height="39.4434" style="stroke:#000000;stroke-width:1.5;" width="136" x="660.5" y="238.041"/><path d="M660.5,238.041 L724.5,238.041 L724.5,245.041 L714.5,255.041 L660.5,255.041 L660.5,238.041 " fill="#EEEEEE" style="stroke:#000000;stroke-width:2.0;"/><text fill="#000000" font-family="sans-serif" font-size="13" font-weight="bold" lengthAdjust="spacing" textLength="19" x="673.5" y="252.6094">ref</text><text fill="#000000" font-family="sans-serif" font-size="12" lengthAdjust="spacing" textLength="115" x="671" y="270.6426">Get team repository</text><rect fill="none" height="39.4434" style="stroke:#000000;stroke-width:1.5;" width="416.5" x="2" y="282.4844"/><path d="M2,282.4844 L66,282.4844 L66,289.4844 L56,299.4844 L2,299.4844 L2,282.4844 " fill="#EEEEEE" style="stroke:#000000;stroke-width:2.0;"/><text fill="#000000" font-family="sans-serif" font-size="13" font-weight="bold" lengthAdjust="spacing" textLength="19" x="15" y="297.0527">ref</text><text fill="#000000" font-family="sans-serif" font-size="12" lengthAdjust="spacing" textLength="163" x="128.75" y="315.0859">Provide completion task info</text><polygon fill="#181818" points="711.5,344.2383,721.5,348.2383,711.5,352.2383,715.5,348.2383" style="stroke:#181818;stroke-width:1.0;"/><line style="stroke:#181818;stroke-width:1.0;" x1="343.5" x2="717.5" y1="348.2383" y2="348.2383"/><text fill="#000000" font-family="sans-serif" font-size="13" font-weight="bold" lengthAdjust="spacing" textLength="9" x="350.5" y="343.4961">6</text><text fill="#000000" font-family="sans-serif" font-size="13" lengthAdjust="spacing" textLength="338" x="363.5" y="343.4961">createCompletionOfTask(team, task, completionDate)</text><polygon fill="#181818" points="1251,373.5488,1261,377.5488,1251,381.5488,1255,377.5488" style="stroke:#181818;stroke-width:1.0;"/><line style="stroke:#181818;stroke-width:1.0;" x1="733.5" x2="1257" y1="377.5488" y2="377.5488"/><text fill="#000000" font-family="sans-serif" font-size="13" font-weight="bold" lengthAdjust="spacing" textLength="9" x="740.5" y="372.8066">7</text><text fill="#000000" font-family="sans-serif" font-size="13" lengthAdjust="spacing" textLength="299" x="753.5" y="372.8066">registerCompletion(team,task, completionDate)</text><polygon fill="#181818" points="1365.5,402.8594,1375.5,406.8594,1365.5,410.8594,1369.5,406.8594" style="stroke:#181818;stroke-width:1.0;"/><line style="stroke:#181818;stroke-width:1.0;" x1="1273" x2="1371.5" y1="406.8594" y2="406.8594"/><text fill="#000000" font-family="sans-serif" font-size="13" font-weight="bold" lengthAdjust="spacing" textLength="9" x="1280" y="402.1172">8</text><text fill="#000000" font-family="sans-serif" font-size="13" lengthAdjust="spacing" textLength="38" x="1293" y="402.1172">create</text><rect fill="#E3E3E3" height="46.9766" rx="2.5" ry="2.5" style="stroke:#181818;stroke-width:0.5;" width="130" x="1377.5" y="385.5488"/><text fill="#000000" font-family="sans-serif" font-size="14" lengthAdjust="spacing" textLength="108" x="1388.5" y="406.084">taskCompletion</text><text fill="#000000" font-family="sans-serif" font-size="14" lengthAdjust="spacing" textLength="116" x="1384.5" y="422.5723">:TaskCompletion</text><rect fill="none" height="39.4434" style="stroke:#000000;stroke-width:1.5;" width="205" x="1165.5" y="443.5254"/><path d="M1165.5,443.5254 L1229.5,443.5254 L1229.5,450.5254 L1219.5,460.5254 L1165.5,460.5254 L1165.5,443.5254 " fill="#EEEEEE" style="stroke:#000000;stroke-width:2.0;"/><text fill="#000000" font-family="sans-serif" font-size="13" font-weight="bold" lengthAdjust="spacing" textLength="19" x="1178.5" y="458.0938">ref</text><text fill="#000000" font-family="sans-serif" font-size="12" lengthAdjust="spacing" textLength="142" x="1197" y="476.127">Register completion task</text><polygon fill="#181818" points="744.5,505.2793,734.5,509.2793,744.5,513.2793,740.5,509.2793" style="stroke:#181818;stroke-width:1.0;"/><line style="stroke:#181818;stroke-width:1.0;" x1="738.5" x2="1267" y1="509.2793" y2="509.2793"/><text fill="#000000" font-family="sans-serif" font-size="13" font-weight="bold" lengthAdjust="spacing" textLength="9" x="750.5" y="504.5371">9</text><text fill="#000000" font-family="sans-serif" font-size="13" lengthAdjust="spacing" textLength="71" x="763.5" y="504.5371">completion</text><polygon fill="#181818" points="359.5,534.5898,349.5,538.5898,359.5,542.5898,355.5,538.5898" style="stroke:#181818;stroke-width:1.0;"/><line style="stroke:#181818;stroke-width:1.0;" x1="353.5" x2="727.5" y1="538.5898" y2="538.5898"/><text fill="#000000" font-family="sans-serif" font-size="13" font-weight="bold" lengthAdjust="spacing" textLength="18" x="365.5" y="533.8477">10</text><text fill="#000000" font-family="sans-serif" font-size="13" lengthAdjust="spacing" textLength="71" x="387.5" y="533.8477">completion</text><polygon fill="#181818" points="67.5,563.9004,57.5,567.9004,67.5,571.9004,63.5,567.9004" style="stroke:#181818;stroke-width:1.0;"/><line style="stroke:#181818;stroke-width:1.0;" x1="61.5" x2="342.5" y1="567.9004" y2="567.9004"/><text fill="#000000" font-family="sans-serif" font-size="13" font-weight="bold" lengthAdjust="spacing" textLength="18" x="73.5" y="563.1582">11</text><text fill="#000000" font-family="sans-serif" font-size="13" lengthAdjust="spacing" textLength="172" x="95.5" y="563.1582">Displays operation success</text><!--SRC=[ZLJ1Sfim4Btp5Ji-fHdd1pXq9dKwhIUPrXFZMovhMB368559kE7lkn89GiIqzSLcjU-zrNkBpLd85ZKsq2YfyfDM3O7L7ILcF6anFsD5UzlN19foYxAgfmtcX8NwBMG59TQ6aWGxgsJN74dpxzmg3QkDgciyAetyj08qm0Ky9WapM96B5gM5LRfHJLkJ5KfcQCw7hUyyR6TT6R7eHachcPJUwBBdfrdRCxNA2DOJP7pFMEZtmbs1XumXUe9uaHy9Ta_tMOomF4gWPKmM5JmgxfdX-PhXqg4hVV4EN3iQE1SE_yRkfeiAWt7VlsuU3piVbBYWfVTa_1VSVMR_8OLxSsPLvV9NkW1x8iX78b0be9yfi71g2ICPFn2bRF-lZemrKA15kB7ukiEUz0-_A9-IWY9iBB_lZerWg1uugF0aLzLu4HYGQ-Bwh5YHTVbywJrvXg-3zeTHagaRRh4qbQ0kfFrJ2j_8-bH11-F39pGxbVLXcy9Eguie8ikSMo1agJpcokmXfv-bo-t6AQuzRZqXUk1MddZc7lldk9XpQLDOHrCbs4iTZWUDwn8Z_-Bk9OjQxcx3djtUXd16enRV0jwPOSIvS__GUlDnF9xQipp-_tMz6-ltSY8HmVtMn8d4ByE3C6sDlG7L4lyfkdkPBi_9c5cKVm00]--></g></svg>