<?xml version="1.0" encoding="us-ascii" standalone="no"?><svg xmlns="http://www.w3.org/2000/svg" xmlns:xlink="http://www.w3.org/1999/xlink" contentStyleType="text/css" height="704px" preserveAspectRatio="none" style="width:709px;height:704px;background:#FFFFFF;" version="1.1" viewBox="0 0 709 704" width="709px" zoomAndPan="magnify"><defs/><g><text fill="#000000" font-family="sans-serif" font-size="14" font-weight="bold" lengthAdjust="spacing" textLength="351" x="181" y="30.1074">System Sequence Diagram (SSD) - Alternative One</text><rect fill="#FFFFFF" height="432.4922" style="stroke:#181818;stroke-width:1.0;" width="10" x="45" y="151.8633"/><rect fill="#FFFFFF" height="409.2012" style="stroke:#181818;stroke-width:1.0;" width="10" x="380" y="175.1543"/><line style="stroke:#181818;stroke-width:0.5;stroke-dasharray:5.0,5.0;" x1="50" x2="50" y1="141.8633" y2="602.3555"/><line style="stroke:#181818;stroke-width:0.5;stroke-dasharray:5.0,5.0;" x1="385" x2="385" y1="141.8633" y2="602.3555"/><text fill="#000000" font-family="sans-serif" font-size="14" lengthAdjust="spacing" textLength="84" x="5" y="119.7285">Green Space</text><text fill="#000000" font-family="sans-serif" font-size="14" lengthAdjust="spacing" textLength="56" x="19" y="138.3496">Manager</text><ellipse cx="50" cy="53.1211" fill="#E3E3E3" rx="8" ry="8" style="stroke:#181818;stroke-width:0.5;"/><path d="M50,61.1211 L50,88.1211 M37,69.1211 L63,69.1211 M50,88.1211 L37,103.1211 M50,88.1211 L63,103.1211 " fill="none" style="stroke:#181818;stroke-width:0.5;"/><text fill="#000000" font-family="sans-serif" font-size="14" lengthAdjust="spacing" textLength="84" x="5" y="616.4629">Green Space</text><text fill="#000000" font-family="sans-serif" font-size="14" lengthAdjust="spacing" textLength="56" x="19" y="635.084">Manager</text><ellipse cx="50" cy="647.0977" fill="#E3E3E3" rx="8" ry="8" style="stroke:#181818;stroke-width:0.5;"/><path d="M50,655.0977 L50,682.0977 M37,663.0977 L63,663.0977 M50,682.0977 L37,697.0977 M50,682.0977 L63,697.0977 " fill="none" style="stroke:#181818;stroke-width:0.5;"/><rect fill="#E3E3E3" height="32.6211" rx="2.5" ry="2.5" style="stroke:#181818;stroke-width:0.5;" width="64" x="353" y="108.2422"/><text fill="#000000" font-family="sans-serif" font-size="14" lengthAdjust="spacing" textLength="50" x="360" y="130.3496">:System</text><rect fill="#E3E3E3" height="32.6211" rx="2.5" ry="2.5" style="stroke:#181818;stroke-width:0.5;" width="64" x="353" y="601.3555"/><text fill="#000000" font-family="sans-serif" font-size="14" lengthAdjust="spacing" textLength="50" x="360" y="623.4629">:System</text><rect fill="#FFFFFF" height="432.4922" style="stroke:#181818;stroke-width:1.0;" width="10" x="45" y="151.8633"/><rect fill="#FFFFFF" height="409.2012" style="stroke:#181818;stroke-width:1.0;" width="10" x="380" y="175.1543"/><polygon fill="#181818" points="368,171.1543,378,175.1543,368,179.1543,372,175.1543" style="stroke:#181818;stroke-width:1.0;"/><line style="stroke:#181818;stroke-width:1.0;" x1="55" x2="374" y1="175.1543" y2="175.1543"/><text fill="#000000" font-family="sans-serif" font-size="13" font-weight="bold" lengthAdjust="spacing" textLength="7" x="62" y="169.8916">1</text><text fill="#000000" font-family="sans-serif" font-size="13" lengthAdjust="spacing" textLength="295" x="73" y="169.8916">Introduce the file "WaterUsed.csv" with information.</text><line style="stroke:#181818;stroke-width:1.0;" x1="390" x2="432" y1="206.4453" y2="206.4453"/><line style="stroke:#181818;stroke-width:1.0;" x1="432" x2="432" y1="206.4453" y2="219.4453"/><line style="stroke:#181818;stroke-width:1.0;" x1="391" x2="432" y1="219.4453" y2="219.4453"/><polygon fill="#181818" points="401,215.4453,391,219.4453,401,223.4453,397,219.4453" style="stroke:#181818;stroke-width:1.0;"/><text fill="#000000" font-family="sans-serif" font-size="13" font-weight="bold" lengthAdjust="spacing" textLength="7" x="397" y="201.1826">2</text><text fill="#000000" font-family="sans-serif" font-size="13" lengthAdjust="spacing" textLength="266" x="408" y="201.1826">Read and interpret data from "WaterUsed.csv"</text><polygon fill="#181818" points="66,246.7363,56,250.7363,66,254.7363,62,250.7363" style="stroke:#181818;stroke-width:1.0;"/><line style="stroke:#181818;stroke-width:1.0;" x1="60" x2="379" y1="250.7363" y2="250.7363"/><text fill="#000000" font-family="sans-serif" font-size="13" font-weight="bold" lengthAdjust="spacing" textLength="7" x="72" y="245.4736">3</text><text fill="#000000" font-family="sans-serif" font-size="13" lengthAdjust="spacing" textLength="273" x="83" y="245.4736">Ask for inputs (time period,park identification...)</text><polygon fill="#181818" points="368,278.0273,378,282.0273,368,286.0273,372,282.0273" style="stroke:#181818;stroke-width:1.0;"/><line style="stroke:#181818;stroke-width:1.0;" x1="55" x2="374" y1="282.0273" y2="282.0273"/><text fill="#000000" font-family="sans-serif" font-size="13" font-weight="bold" lengthAdjust="spacing" textLength="7" x="62" y="276.7646">4</text><text fill="#000000" font-family="sans-serif" font-size="13" lengthAdjust="spacing" textLength="82" x="73" y="276.7646">Introduce data</text><line style="stroke:#181818;stroke-width:1.0;" x1="390" x2="432" y1="313.3184" y2="313.3184"/><line style="stroke:#181818;stroke-width:1.0;" x1="432" x2="432" y1="313.3184" y2="326.3184"/><line style="stroke:#181818;stroke-width:1.0;" x1="391" x2="432" y1="326.3184" y2="326.3184"/><polygon fill="#181818" points="401,322.3184,391,326.3184,401,330.3184,397,326.3184" style="stroke:#181818;stroke-width:1.0;"/><text fill="#000000" font-family="sans-serif" font-size="13" font-weight="bold" lengthAdjust="spacing" textLength="7" x="397" y="308.0557">5</text><text fill="#000000" font-family="sans-serif" font-size="13" lengthAdjust="spacing" textLength="78" x="408" y="308.0557">confirms data</text><line style="stroke:#181818;stroke-width:1.0;" x1="390" x2="432" y1="357.6094" y2="357.6094"/><line style="stroke:#181818;stroke-width:1.0;" x1="432" x2="432" y1="357.6094" y2="370.6094"/><line style="stroke:#181818;stroke-width:1.0;" x1="391" x2="432" y1="370.6094" y2="370.6094"/><polygon fill="#181818" points="401,366.6094,391,370.6094,401,374.6094,397,370.6094" style="stroke:#181818;stroke-width:1.0;"/><text fill="#000000" font-family="sans-serif" font-size="13" font-weight="bold" lengthAdjust="spacing" textLength="7" x="397" y="352.3467">6</text><text fill="#000000" font-family="sans-serif" font-size="13" lengthAdjust="spacing" textLength="157" x="408" y="352.3467">Perform statistical analysis</text><line style="stroke:#181818;stroke-width:1.0;" x1="390" x2="432" y1="401.9004" y2="401.9004"/><line style="stroke:#181818;stroke-width:1.0;" x1="432" x2="432" y1="401.9004" y2="414.9004"/><line style="stroke:#181818;stroke-width:1.0;" x1="391" x2="432" y1="414.9004" y2="414.9004"/><polygon fill="#181818" points="401,410.9004,391,414.9004,401,418.9004,397,414.9004" style="stroke:#181818;stroke-width:1.0;"/><text fill="#000000" font-family="sans-serif" font-size="13" font-weight="bold" lengthAdjust="spacing" textLength="7" x="397" y="396.6377">7</text><text fill="#000000" font-family="sans-serif" font-size="13" lengthAdjust="spacing" textLength="188" x="408" y="396.6377">Calculate average monthly costs</text><line style="stroke:#181818;stroke-width:1.0;" x1="390" x2="432" y1="446.1914" y2="446.1914"/><line style="stroke:#181818;stroke-width:1.0;" x1="432" x2="432" y1="446.1914" y2="459.1914"/><line style="stroke:#181818;stroke-width:1.0;" x1="391" x2="432" y1="459.1914" y2="459.1914"/><polygon fill="#181818" points="401,455.1914,391,459.1914,401,463.1914,397,459.1914" style="stroke:#181818;stroke-width:1.0;"/><text fill="#000000" font-family="sans-serif" font-size="13" font-weight="bold" lengthAdjust="spacing" textLength="7" x="397" y="440.9287">8</text><text fill="#000000" font-family="sans-serif" font-size="13" lengthAdjust="spacing" textLength="294" x="408" y="440.9287">Identify parks with highest and lowest consumption</text><polygon fill="#181818" points="66,486.4824,56,490.4824,66,494.4824,62,490.4824" style="stroke:#181818;stroke-width:1.0;"/><line style="stroke:#181818;stroke-width:1.0;stroke-dasharray:2.0,2.0;" x1="60" x2="379" y1="490.4824" y2="490.4824"/><text fill="#000000" font-family="sans-serif" font-size="13" font-weight="bold" lengthAdjust="spacing" textLength="7" x="72" y="485.2197">9</text><text fill="#000000" font-family="sans-serif" font-size="13" lengthAdjust="spacing" textLength="210" x="83" y="485.2197">costs referring to water consumption</text><polygon fill="#181818" points="66,517.7734,56,521.7734,66,525.7734,62,521.7734" style="stroke:#181818;stroke-width:1.0;"/><line style="stroke:#181818;stroke-width:1.0;stroke-dasharray:2.0,2.0;" x1="60" x2="379" y1="521.7734" y2="521.7734"/><text fill="#000000" font-family="sans-serif" font-size="13" font-weight="bold" lengthAdjust="spacing" textLength="14" x="72" y="516.5107">10</text><text fill="#000000" font-family="sans-serif" font-size="13" lengthAdjust="spacing" textLength="263" x="90" y="516.5107">Display barplot of monthly water consumption</text><polygon fill="#181818" points="66,549.0645,56,553.0645,66,557.0645,62,553.0645" style="stroke:#181818;stroke-width:1.0;"/><line style="stroke:#181818;stroke-width:1.0;stroke-dasharray:2.0,2.0;" x1="60" x2="379" y1="553.0645" y2="553.0645"/><text fill="#000000" font-family="sans-serif" font-size="13" font-weight="bold" lengthAdjust="spacing" textLength="14" x="72" y="547.8018">11</text><text fill="#000000" font-family="sans-serif" font-size="13" lengthAdjust="spacing" textLength="176" x="90" y="547.8018">Provide average monthly costs</text><polygon fill="#181818" points="61,580.3555,51,584.3555,61,588.3555,57,584.3555" style="stroke:#181818;stroke-width:1.0;"/><line style="stroke:#181818;stroke-width:1.0;stroke-dasharray:2.0,2.0;" x1="55" x2="384" y1="584.3555" y2="584.3555"/><text fill="#000000" font-family="sans-serif" font-size="13" font-weight="bold" lengthAdjust="spacing" textLength="14" x="67" y="579.0928">12</text><text fill="#000000" font-family="sans-serif" font-size="13" lengthAdjust="spacing" textLength="219" x="85" y="579.0928">Present statistical indicators for parks</text><!--SRC=[ZL91Rjj03Bph5OHF2T3u0JeK26gWo25e427efHT6eYJ2grsLf6pez-NAZkCsgM6TLhlap70ukkKuek00GugfxYKD12OJ5Nfw6R7UOaULpO50g3QCNJWlq1wRjEVOGOj1gIYCpKkhMOq6gEZtHB4cs31skVocgZQtS0VtmKWY6ky8VaHlmybId8PN4Z_NbWHMtuKeGkKIw5TynEWwP0MeqEbGEBjnpID6WrLve5iU3yUYWEFdOBn3ewNhTEi_SFVrM5p2GpH9pUH2hITesITO_VGcUL5grhNkLh1dwu5ZcsHmsIckFp8SgT_kZnwSQA24Py86C3OEvE2Za463Xj2wz_yo5aNn2PGBB-5Uj-1276MSJE76s3Stad1glhWnM-26ed7BzK7gUdtx-UHmFdfMSabydMBBCkZbmXAUIB9BeERiwbl2u3DZc9NrGjit3FKKie-u8_5bvrXQ7sOdLhlK-N2OTeOyknusrNFNazfYTaZxV7JzEWrZTkG3s9kp2vK7lIMH76fBiCzRkQfvmpe6dE4LPGp98BMd4Qu7UPAqy_LTQS9x5wcRy9Vd79iSW2IwX6KnvprI3VqljsSlZlq7]--></g></svg>