<?xml version="1.0" encoding="us-ascii" standalone="no"?><svg xmlns="http://www.w3.org/2000/svg" xmlns:xlink="http://www.w3.org/1999/xlink" contentStyleType="text/css" height="414px" preserveAspectRatio="none" style="width:1147px;height:414px;background:#FFFFFF;" version="1.1" viewBox="0 0 1147 414" width="1147px" zoomAndPan="magnify"><defs/><g><text fill="#000000" font-family="sans-serif" font-size="14" font-weight="bold" lengthAdjust="spacing" textLength="351" x="397" y="30.1074">System Sequence Diagram (SSD) - Alternative One</text><rect fill="#FFFFFF" height="31.291" style="stroke:#181818;stroke-width:1.0;" width="10" x="1104" y="156.5332"/><rect fill="#FFFFFF" height="31.291" style="stroke:#181818;stroke-width:1.0;" width="10" x="1104" y="219.1152"/><rect fill="#FFFFFF" height="31.291" style="stroke:#181818;stroke-width:1.0;" width="10" x="1104" y="281.6973"/><line style="stroke:#181818;stroke-width:0.5;stroke-dasharray:5.0,5.0;" x1="80" x2="80" y1="123.2422" y2="330.9883"/><line style="stroke:#181818;stroke-width:0.5;stroke-dasharray:5.0,5.0;" x1="1109" x2="1109" y1="123.2422" y2="330.9883"/><text fill="#000000" font-family="sans-serif" font-size="14" lengthAdjust="spacing" textLength="144" x="5" y="119.7285">Green Space Manager</text><ellipse cx="80" cy="53.1211" fill="#E3E3E3" rx="8" ry="8" style="stroke:#181818;stroke-width:0.5;"/><path d="M80,61.1211 L80,88.1211 M67,69.1211 L93,69.1211 M80,88.1211 L67,103.1211 M80,88.1211 L93,103.1211 " fill="none" style="stroke:#181818;stroke-width:0.5;"/><text fill="#000000" font-family="sans-serif" font-size="14" lengthAdjust="spacing" textLength="144" x="5" y="345.0957">Green Space Manager</text><ellipse cx="80" cy="357.1094" fill="#E3E3E3" rx="8" ry="8" style="stroke:#181818;stroke-width:0.5;"/><path d="M80,365.1094 L80,392.1094 M67,373.1094 L93,373.1094 M80,392.1094 L67,407.1094 M80,392.1094 L93,407.1094 " fill="none" style="stroke:#181818;stroke-width:0.5;"/><rect fill="#E3E3E3" height="32.6211" rx="2.5" ry="2.5" style="stroke:#181818;stroke-width:0.5;" width="64" x="1077" y="89.6211"/><text fill="#000000" font-family="sans-serif" font-size="14" lengthAdjust="spacing" textLength="50" x="1084" y="111.7285">:System</text><rect fill="#E3E3E3" height="32.6211" rx="2.5" ry="2.5" style="stroke:#181818;stroke-width:0.5;" width="64" x="1077" y="329.9883"/><text fill="#000000" font-family="sans-serif" font-size="14" lengthAdjust="spacing" textLength="50" x="1084" y="352.0957">:System</text><rect fill="#FFFFFF" height="31.291" style="stroke:#181818;stroke-width:1.0;" width="10" x="1104" y="156.5332"/><rect fill="#FFFFFF" height="31.291" style="stroke:#181818;stroke-width:1.0;" width="10" x="1104" y="219.1152"/><rect fill="#FFFFFF" height="31.291" style="stroke:#181818;stroke-width:1.0;" width="10" x="1104" y="281.6973"/><polygon fill="#181818" points="1092,152.5332,1102,156.5332,1092,160.5332,1096,156.5332" style="stroke:#181818;stroke-width:1.0;"/><line style="stroke:#181818;stroke-width:1.0;" x1="80" x2="1098" y1="156.5332" y2="156.5332"/><text fill="#000000" font-family="sans-serif" font-size="13" font-weight="bold" lengthAdjust="spacing" textLength="7" x="87" y="151.2705">1</text><text fill="#000000" font-family="sans-serif" font-size="13" lengthAdjust="spacing" textLength="208" x="98" y="151.2705">asks to record the equipments used</text><polygon fill="#181818" points="91,183.8242,81,187.8242,91,191.8242,87,187.8242" style="stroke:#181818;stroke-width:1.0;"/><line style="stroke:#181818;stroke-width:1.0;stroke-dasharray:2.0,2.0;" x1="85" x2="1108" y1="187.8242" y2="187.8242"/><text fill="#000000" font-family="sans-serif" font-size="13" font-weight="bold" lengthAdjust="spacing" textLength="7" x="97" y="182.5615">2</text><text fill="#000000" font-family="sans-serif" font-size="13" lengthAdjust="spacing" textLength="264" x="108" y="182.5615">shows a list of equipments that were available</text><polygon fill="#181818" points="1092,215.1152,1102,219.1152,1092,223.1152,1096,219.1152" style="stroke:#181818;stroke-width:1.0;"/><line style="stroke:#181818;stroke-width:1.0;" x1="80" x2="1098" y1="219.1152" y2="219.1152"/><text fill="#000000" font-family="sans-serif" font-size="13" font-weight="bold" lengthAdjust="spacing" textLength="7" x="87" y="213.8525">3</text><text fill="#000000" font-family="sans-serif" font-size="13" lengthAdjust="spacing" textLength="273" x="98" y="213.8525">selects zero or more equipments used that day</text><polygon fill="#181818" points="91,246.4063,81,250.4063,91,254.4063,87,250.4063" style="stroke:#181818;stroke-width:1.0;"/><line style="stroke:#181818;stroke-width:1.0;stroke-dasharray:2.0,2.0;" x1="85" x2="1108" y1="250.4063" y2="250.4063"/><text fill="#000000" font-family="sans-serif" font-size="13" font-weight="bold" lengthAdjust="spacing" textLength="7" x="97" y="245.1436">4</text><text fill="#000000" font-family="sans-serif" font-size="13" lengthAdjust="spacing" textLength="989" x="108" y="245.1436">asks if they want a file that has the recording of the last 1000 users choices of equipments or a pie chart that represents, in percentage, the use of each piece of equipment</text><polygon fill="#181818" points="1092,277.6973,1102,281.6973,1092,285.6973,1096,281.6973" style="stroke:#181818;stroke-width:1.0;"/><line style="stroke:#181818;stroke-width:1.0;" x1="80" x2="1098" y1="281.6973" y2="281.6973"/><text fill="#000000" font-family="sans-serif" font-size="13" font-weight="bold" lengthAdjust="spacing" textLength="7" x="87" y="276.4346">5</text><text fill="#000000" font-family="sans-serif" font-size="13" lengthAdjust="spacing" textLength="70" x="98" y="276.4346">requests file</text><polygon fill="#181818" points="91,308.9883,81,312.9883,91,316.9883,87,312.9883" style="stroke:#181818;stroke-width:1.0;"/><line style="stroke:#181818;stroke-width:1.0;stroke-dasharray:2.0,2.0;" x1="85" x2="1108" y1="312.9883" y2="312.9883"/><text fill="#000000" font-family="sans-serif" font-size="13" font-weight="bold" lengthAdjust="spacing" textLength="7" x="97" y="307.7256">6</text><text fill="#000000" font-family="sans-serif" font-size="13" lengthAdjust="spacing" textLength="138" x="108" y="307.7256">sends the file requested</text><!--SRC=[ZPB1RkCm34Jl_ef1JbsW0T9h3Wii4A2deWTZFu2LcLY8BNb9Ea7swvUIiqNQNEAJ35AFCqFfCQQ9X4QCEUNGInuP9ZCt-bcPA1pfmArT1ePmC4g7uRP1U-hoEQO3zZGeDur5yzRseiOZMlupSmgCNQH3QNzgszqFhF5hC9P45a-Cz-JNQBQSvl63nS_1ic3rAim9hKjWl55o6R82ANwhD_bqYo5Eb0ohxJAkLfTZqvGkh7_-LxBrsb5XkRZ8qi5wXgkBqyZ95BDory0_7nvFPFm9kWBMpghChNlEPmLXY6h8-rkCzMGuip3eH76W3m-hK3k-uzu9L1uyOCLVbWmFOCno9t4PqD7bKQtLTTmNknUSIrg4VVGDLL1FMeDOCYbRpBKL0xcrbyrcKwQA8lGv1jPlRbqaOOhiPL_7WXIUXBMKdn4J9fRWFxwyvmfsN8LGwClDm5-G3sSbvM6fIoXU7juRfsxnMnEuCgvxlvlw3m00]--></g></svg>