<?xml version="1.0" encoding="us-ascii" standalone="no"?><svg xmlns="http://www.w3.org/2000/svg" xmlns:xlink="http://www.w3.org/1999/xlink" contentStyleType="text/css" height="1254px" preserveAspectRatio="none" style="width:1385px;height:1254px;background:#FFFFFF;" version="1.1" viewBox="0 0 1385 1254" width="1385px" zoomAndPan="magnify"><defs/><g><text fill="#000000" font-family="sans-serif" font-size="14" font-weight="bold" lengthAdjust="spacing" textLength="105" x="633" y="23.5352">Domain Model</text><!--class GSM--><g id="elem_GSM"><rect codeLine="18" fill="#F1F1F1" height="34.4883" id="GSM" rx="2.5" ry="2.5" style="stroke:#181818;stroke-width:0.5;" width="36" x="7" y="749.2383"/><text fill="#000000" font-family="sans-serif" font-size="14" lengthAdjust="spacing" textLength="30" x="10" y="767.7734">GSM</text><line style="stroke:#181818;stroke-width:0.5;" x1="8" x2="42" y1="775.7266" y2="775.7266"/></g><!--class GreenSpace--><g id="elem_GreenSpace"><rect codeLine="21" fill="#F1F1F1" height="34.4883" id="GreenSpace" rx="2.5" ry="2.5" style="stroke:#181818;stroke-width:0.5;" width="87" x="587" y="1130.2383"/><text fill="#000000" font-family="sans-serif" font-size="14" lengthAdjust="spacing" textLength="81" x="590" y="1148.7734">GreenSpace</text><line style="stroke:#181818;stroke-width:0.5;" x1="588" x2="673" y1="1156.7266" y2="1156.7266"/></g><!--class Agenda--><g id="elem_Agenda"><rect codeLine="28" fill="#F1F1F1" height="50.9766" id="Agenda" rx="2.5" ry="2.5" style="stroke:#181818;stroke-width:0.5;" width="145" x="292" y="465.9883"/><text fill="#000000" font-family="sans-serif" font-size="14" lengthAdjust="spacing" textLength="53" x="338" y="484.5234">Agenda</text><line style="stroke:#181818;stroke-width:0.5;" x1="293" x2="436" y1="492.4766" y2="492.4766"/><text fill="#000000" font-family="sans-serif" font-size="14" lengthAdjust="spacing" textLength="133" x="298" y="510.0117">List&lt;AgendaEntry&gt;</text></g><!--class AgendaEntry--><g id="elem_AgendaEntry"><rect codeLine="32" fill="#F1F1F1" height="116.9297" id="AgendaEntry" rx="2.5" ry="2.5" style="stroke:#181818;stroke-width:0.5;" width="113" x="308" y="593.0183"/><text fill="#000000" font-family="sans-serif" font-size="14" lengthAdjust="spacing" textLength="88" x="320.5" y="611.5534">AgendaEntry</text><line style="stroke:#181818;stroke-width:0.5;" x1="309" x2="420" y1="619.5066" y2="619.5066"/><text fill="#000000" font-family="sans-serif" font-size="14" lengthAdjust="spacing" textLength="68" x="314" y="637.0417">toDoEntry</text><text fill="#000000" font-family="sans-serif" font-size="14" lengthAdjust="spacing" textLength="85" x="314" y="653.53">StartingDate</text><text fill="#000000" font-family="sans-serif" font-size="14" lengthAdjust="spacing" textLength="57" x="314" y="670.0183">EndDate</text><text fill="#000000" font-family="sans-serif" font-size="14" lengthAdjust="spacing" textLength="38" x="314" y="686.5066">Team</text><text fill="#000000" font-family="sans-serif" font-size="14" lengthAdjust="spacing" textLength="101" x="314" y="702.9948">List&lt;Vehicles&gt;</text></g><!--class ToDoEntry--><g id="elem_ToDoEntry"><rect codeLine="41" fill="#F1F1F1" height="116.9297" id="ToDoEntry" rx="2.5" ry="2.5" style="stroke:#181818;stroke-width:0.5;" width="135" x="1243" y="271.0183"/><text fill="#000000" font-family="sans-serif" font-size="14" lengthAdjust="spacing" textLength="72" x="1274.5" y="289.5534">ToDoEntry</text><line style="stroke:#181818;stroke-width:0.5;" x1="1244" x2="1377" y1="297.5066" y2="297.5066"/><text fill="#000000" font-family="sans-serif" font-size="14" lengthAdjust="spacing" textLength="80" x="1249" y="315.0417">greenSpace</text><text fill="#000000" font-family="sans-serif" font-size="14" lengthAdjust="spacing" textLength="26" x="1249" y="331.53">title</text><text fill="#000000" font-family="sans-serif" font-size="14" lengthAdjust="spacing" textLength="77" x="1249" y="348.0183">description</text><text fill="#000000" font-family="sans-serif" font-size="14" lengthAdjust="spacing" textLength="55" x="1249" y="364.5066">urgency</text><text fill="#000000" font-family="sans-serif" font-size="14" lengthAdjust="spacing" textLength="123" x="1249" y="380.9948">expectedDuration</text></g><!--class SortGreenSpaces--><g id="elem_SortGreenSpaces"><rect codeLine="49" fill="#F1F1F1" height="50.9766" id="SortGreenSpaces" rx="2.5" ry="2.5" style="stroke:#181818;stroke-width:0.5;" width="122" x="303.5" y="1196.9883"/><text fill="#000000" font-family="sans-serif" font-size="14" lengthAdjust="spacing" textLength="116" x="306.5" y="1215.5234">SortGreenSpaces</text><line style="stroke:#181818;stroke-width:0.5;" x1="304.5" x2="424.5" y1="1223.4766" y2="1223.4766"/><text fill="#000000" font-family="sans-serif" font-size="14" lengthAdjust="spacing" textLength="79" x="309.5" y="1241.0117">sortMethod</text></g><!--class Vehicle--><g id="elem_Vehicle"><rect codeLine="82" fill="#F1F1F1" height="215.8594" id="Vehicle" rx="2.5" ry="2.5" style="stroke:#181818;stroke-width:0.5;" width="171" x="836" y="736.5483"/><text fill="#000000" font-family="sans-serif" font-size="14" lengthAdjust="spacing" textLength="49" x="897" y="755.0834">Vehicle</text><line style="stroke:#181818;stroke-width:0.5;" x1="837" x2="1006" y1="763.0366" y2="763.0366"/><text fill="#000000" font-family="sans-serif" font-size="14" lengthAdjust="spacing" textLength="48" x="842" y="780.5717">plateID</text><text fill="#000000" font-family="sans-serif" font-size="14" lengthAdjust="spacing" textLength="41" x="842" y="797.06">brand</text><text fill="#000000" font-family="sans-serif" font-size="14" lengthAdjust="spacing" textLength="43" x="842" y="813.5483">model</text><text fill="#000000" font-family="sans-serif" font-size="14" lengthAdjust="spacing" textLength="29" x="842" y="830.0366">type</text><text fill="#000000" font-family="sans-serif" font-size="14" lengthAdjust="spacing" textLength="27" x="842" y="846.5248">tare</text><text fill="#000000" font-family="sans-serif" font-size="14" lengthAdjust="spacing" textLength="85" x="842" y="863.0131">grossWeight</text><text fill="#000000" font-family="sans-serif" font-size="14" lengthAdjust="spacing" textLength="50" x="842" y="879.5014">millage</text><text fill="#000000" font-family="sans-serif" font-size="14" lengthAdjust="spacing" textLength="84" x="842" y="895.9897">registerDate</text><text fill="#000000" font-family="sans-serif" font-size="14" lengthAdjust="spacing" textLength="106" x="842" y="912.478">acquisitionDate</text><text fill="#000000" font-family="sans-serif" font-size="14" lengthAdjust="spacing" textLength="159" x="842" y="928.9663">maintenanceFrequency</text><text fill="#000000" font-family="sans-serif" font-size="14" lengthAdjust="spacing" textLength="85" x="842" y="945.4545">lastCheckUp</text></g><!--class Team--><g id="elem_Team"><rect codeLine="134" fill="#F1F1F1" height="83.9531" id="Team" rx="2.5" ry="2.5" style="stroke:#181818;stroke-width:0.5;" width="108" x="576.5" y="469.5083"/><text fill="#000000" font-family="sans-serif" font-size="14" lengthAdjust="spacing" textLength="38" x="611.5" y="488.0434">Team</text><line style="stroke:#181818;stroke-width:0.5;" x1="577.5" x2="683.5" y1="495.9966" y2="495.9966"/><text fill="#000000" font-family="sans-serif" font-size="14" lengthAdjust="spacing" textLength="27" x="582.5" y="513.5317">skill</text><text fill="#000000" font-family="sans-serif" font-size="14" lengthAdjust="spacing" textLength="92" x="582.5" y="530.02">minTeamSize</text><text fill="#000000" font-family="sans-serif" font-size="14" lengthAdjust="spacing" textLength="96" x="582.5" y="546.5083">maxTeamSize</text></g><!--class VFM--><g id="elem_VFM"><rect codeLine="79" fill="#F1F1F1" height="34.4883" id="VFM" rx="2.5" ry="2.5" style="stroke:#181818;stroke-width:0.5;" width="35" x="347" y="865.2383"/><text fill="#000000" font-family="sans-serif" font-size="14" lengthAdjust="spacing" textLength="29" x="350" y="883.7734">VFM</text><line style="stroke:#181818;stroke-width:0.5;" x1="348" x2="381" y1="891.7266" y2="891.7266"/></g><!--class CheckUp--><g id="elem_CheckUp"><rect codeLine="98" fill="#F1F1F1" height="83.9531" id="CheckUp" rx="2.5" ry="2.5" style="stroke:#181818;stroke-width:0.5;" width="115" x="573" y="746.5083"/><text fill="#000000" font-family="sans-serif" font-size="14" lengthAdjust="spacing" textLength="61" x="600" y="765.0434">CheckUp</text><line style="stroke:#181818;stroke-width:0.5;" x1="574" x2="687" y1="772.9966" y2="772.9966"/><text fill="#000000" font-family="sans-serif" font-size="14" lengthAdjust="spacing" textLength="47" x="579" y="790.5317">licence</text><text fill="#000000" font-family="sans-serif" font-size="14" lengthAdjust="spacing" textLength="30" x="579" y="807.02">date</text><text fill="#000000" font-family="sans-serif" font-size="14" lengthAdjust="spacing" textLength="103" x="579" y="823.5083">currentMileage</text></g><!--class HRM--><g id="elem_HRM"><rect codeLine="119" fill="#F1F1F1" height="34.4883" id="HRM" rx="2.5" ry="2.5" style="stroke:#181818;stroke-width:0.5;" width="37" x="346" y="251.2383"/><text fill="#000000" font-family="sans-serif" font-size="14" lengthAdjust="spacing" textLength="31" x="349" y="269.7734">HRM</text><line style="stroke:#181818;stroke-width:0.5;" x1="347" x2="382" y1="277.7266" y2="277.7266"/></g><!--class Collaborator--><g id="elem_Collaborator"><rect codeLine="122" fill="#F1F1F1" height="182.8828" id="Collaborator" rx="2.5" ry="2.5" style="stroke:#181818;stroke-width:0.5;" width="127" x="858" y="181.0383"/><text fill="#000000" font-family="sans-serif" font-size="14" lengthAdjust="spacing" textLength="87" x="878" y="199.5734">Collaborator</text><line style="stroke:#181818;stroke-width:0.5;" x1="859" x2="984" y1="207.5266" y2="207.5266"/><text fill="#000000" font-family="sans-serif" font-size="14" lengthAdjust="spacing" textLength="38" x="864" y="225.0617">name</text><text fill="#000000" font-family="sans-serif" font-size="14" lengthAdjust="spacing" textLength="63" x="864" y="241.55">birthdate</text><text fill="#000000" font-family="sans-serif" font-size="14" lengthAdjust="spacing" textLength="101" x="864" y="258.0383">admissionDate</text><text fill="#000000" font-family="sans-serif" font-size="14" lengthAdjust="spacing" textLength="54" x="864" y="274.5266">address</text><text fill="#000000" font-family="sans-serif" font-size="14" lengthAdjust="spacing" textLength="99" x="864" y="291.0148">phoneNumber</text><text fill="#000000" font-family="sans-serif" font-size="14" lengthAdjust="spacing" textLength="37" x="864" y="307.5031">email</text><text fill="#000000" font-family="sans-serif" font-size="14" lengthAdjust="spacing" textLength="115" x="864" y="323.9914">taxpayerNumber</text><text fill="#000000" font-family="sans-serif" font-size="14" lengthAdjust="spacing" textLength="81" x="864" y="340.4797">id_doc_type</text><text fill="#000000" font-family="sans-serif" font-size="14" lengthAdjust="spacing" textLength="106" x="864" y="356.968">id_doc_number</text></g><!--class Skill--><g id="elem_Skill"><rect codeLine="140" fill="#F1F1F1" height="50.9766" id="Skill" rx="2.5" ry="2.5" style="stroke:#181818;stroke-width:0.5;" width="50" x="605.5" y="312.9883"/><text fill="#000000" font-family="sans-serif" font-size="14" lengthAdjust="spacing" textLength="28" x="616.5" y="331.5234">Skill</text><line style="stroke:#181818;stroke-width:0.5;" x1="606.5" x2="654.5" y1="339.4766" y2="339.4766"/><text fill="#000000" font-family="sans-serif" font-size="14" lengthAdjust="spacing" textLength="38" x="611.5" y="357.0117">name</text></g><!--class Job--><g id="elem_Job"><rect codeLine="144" fill="#F1F1F1" height="50.9766" id="Job" rx="2.5" ry="2.5" style="stroke:#181818;stroke-width:0.5;" width="50" x="1285.5" y="51.9883"/><text fill="#000000" font-family="sans-serif" font-size="14" lengthAdjust="spacing" textLength="22" x="1299.5" y="70.5234">Job</text><line style="stroke:#181818;stroke-width:0.5;" x1="1286.5" x2="1334.5" y1="78.4766" y2="78.4766"/><text fill="#000000" font-family="sans-serif" font-size="14" lengthAdjust="spacing" textLength="38" x="1291.5" y="96.0117">name</text></g><!--link GSM to GreenSpace--><g id="link_GSM_GreenSpace"><path codeLine="54" d="M25.92,784.2183 C26.05,844.7483 29.82,1041.6883 73,1083.4783 C109.82,1119.1183 463.17,1139.4483 586.94,1145.5283 " fill="none" id="GSM-GreenSpace" style="stroke:#181818;stroke-width:1.0;"/><polygon fill="#000000" points="338.7037,1119.8408,332.6905,1112.4725,329.5079,1117.4142,338.7037,1119.8408" style="stroke:#000000;stroke-width:1.0;"/><text fill="#000000" font-family="sans-serif" font-size="13" lengthAdjust="spacing" textLength="55" x="343.5" y="1122.0466">registers</text><text fill="#000000" font-family="sans-serif" font-size="13" lengthAdjust="spacing" textLength="8" x="17.0153" y="804.2453">1</text><text fill="#000000" font-family="sans-serif" font-size="13" lengthAdjust="spacing" textLength="22" x="556.9265" y="1141.7309">1..*</text></g><!--link GSM to ToDoEntry--><g id="link_GSM_ToDoEntry"><path codeLine="55" d="M28.93,748.7783 C42.52,672.6283 106.86,370.5583 292,233.4783 C548.62,43.4883 702.71,66.7483 1007,163.4783 C1103.81,194.2483 1125.23,211.3483 1213,262.4783 C1222.78,268.1783 1232.86,274.5583 1242.64,281.0483 " fill="none" id="GSM-ToDoEntry" style="stroke:#181818;stroke-width:1.0;"/><polygon fill="#000000" points="605.1655,80.3356,595.6687,80.8458,597.7823,86.3305,605.1655,80.3356" style="stroke:#000000;stroke-width:1.0;"/><text fill="#000000" font-family="sans-serif" font-size="13" lengthAdjust="spacing" textLength="55" x="609.5" y="87.0466">registers</text><text fill="#000000" font-family="sans-serif" font-size="13" lengthAdjust="spacing" textLength="8" x="31.4577" y="738.3623">1</text><text fill="#000000" font-family="sans-serif" font-size="13" lengthAdjust="spacing" textLength="22" x="1212.8772" y="289.6024">1..*</text></g><!--link GSM to AgendaEntry--><g id="link_GSM_AgendaEntry"><path codeLine="56" d="M43.49,781.5583 C51.84,787.7783 62.33,794.2783 73,797.4783 C153.46,821.6283 187.56,836.3883 262,797.4783 C297.16,779.1083 322.59,742.3883 339.21,710.3783 " fill="none" id="GSM-AgendaEntry" style="stroke:#181818;stroke-width:1.0;"/><polygon fill="#000000" points="127.8612,787.9635,118.3795,787.2229,119.755,792.9375,127.8612,787.9635" style="stroke:#000000;stroke-width:1.0;"/><text fill="#000000" font-family="sans-serif" font-size="13" lengthAdjust="spacing" textLength="84" x="132" y="794.0466">register entry</text><text fill="#000000" font-family="sans-serif" font-size="13" lengthAdjust="spacing" textLength="8" x="50.9398" y="801.6563">1</text><text fill="#000000" font-family="sans-serif" font-size="13" lengthAdjust="spacing" textLength="6" x="329.939" y="730.6415">*</text></g><!--link GSM to AgendaEntry--><g id="link_GSM_AgendaEntry"><path codeLine="57" d="M28.28,748.8783 C32.44,724.7583 43.74,682.1683 73,662.4783 C142.83,615.5083 244.95,625.0583 307.66,637.4283 " fill="none" id="GSM-AgendaEntry-1" style="stroke:#181818;stroke-width:1.0;"/><polygon fill="#000000" points="121.6441,617.2809,112.1539,617.9026,114.3318,623.3621,121.6441,617.2809" style="stroke:#000000;stroke-width:1.0;"/><text fill="#000000" font-family="sans-serif" font-size="13" lengthAdjust="spacing" textLength="96" x="126" y="624.0466">Assigns a team</text><text fill="#000000" font-family="sans-serif" font-size="13" lengthAdjust="spacing" textLength="8" x="20.0505" y="738.4942">1</text><text fill="#000000" font-family="sans-serif" font-size="13" lengthAdjust="spacing" textLength="6" x="293.993" y="649.1767">*</text></g><!--link GSM to AgendaEntry--><g id="link_GSM_AgendaEntry"><path codeLine="58" d="M38.87,748.9983 C47.39,738.7483 59.46,726.4683 73,719.4783 C148.7,680.3983 179.54,708.9083 262,687.4783 C277.02,683.5783 292.97,678.4183 307.67,673.2283 " fill="none" id="GSM-AgendaEntry-2" style="stroke:#181818;stroke-width:1.0;"/><polygon fill="#000000" points="122.3125,677.777,112.8093,677.4023,114.404,683.0597,122.3125,677.777" style="stroke:#000000;stroke-width:1.0;"/><text fill="#000000" font-family="sans-serif" font-size="13" lengthAdjust="spacing" textLength="95" x="126.5" y="684.0466">postpone entry</text><text fill="#000000" font-family="sans-serif" font-size="13" lengthAdjust="spacing" textLength="8" x="34.1394" y="738.3421">1</text><text fill="#000000" font-family="sans-serif" font-size="13" lengthAdjust="spacing" textLength="6" x="294.0043" y="689.5636">*</text></g><!--link GSM to AgendaEntry--><g id="link_GSM_AgendaEntry"><path codeLine="59" d="M43.23,768.4783 C83.51,772.4183 186.2,778.0883 262,744.4783 C280.24,736.3883 297.38,723.6883 312.2,710.2383 " fill="none" id="GSM-AgendaEntry-3" style="stroke:#181818;stroke-width:1.0;"/><polygon fill="#000000" points="131.8868,735.0754,122.4246,734.1172,123.6685,739.862,131.8868,735.0754" style="stroke:#000000;stroke-width:1.0;"/><text fill="#000000" font-family="sans-serif" font-size="13" lengthAdjust="spacing" textLength="76" x="136" y="741.0466">cancel entry</text><text fill="#000000" font-family="sans-serif" font-size="13" lengthAdjust="spacing" textLength="8" x="50.8716" y="764.208">1</text><text fill="#000000" font-family="sans-serif" font-size="13" lengthAdjust="spacing" textLength="6" x="299.8059" y="730.4853">*</text></g><!--link GSM to Vehicle--><g id="link_GSM_Vehicle"><path codeLine="60" d="M35.49,784.0783 C43.79,798.0283 57,817.1583 73,829.4783 C156.13,893.4583 189.25,896.3883 292,917.4783 C515.89,963.4383 585.66,962.1983 806,901.4783 C815.85,898.7683 825.85,895.1883 835.64,891.1383 " fill="none" id="GSM-Vehicle" style="stroke:#181818;stroke-width:1.0;"/><polygon fill="#000000" points="483.4558,938.7966,474.8804,934.6841,474.1009,940.5101,483.4558,938.7966" style="stroke:#000000;stroke-width:1.0;"/><text fill="#000000" font-family="sans-serif" font-size="13" lengthAdjust="spacing" textLength="48" x="487.5" y="943.0466">assigns</text><text fill="#000000" font-family="sans-serif" font-size="13" lengthAdjust="spacing" textLength="8" x="39.9276" y="804.3798">1</text><text fill="#000000" font-family="sans-serif" font-size="13" lengthAdjust="spacing" textLength="22" x="805.9215" y="908.0349">1..*</text></g><!--link GSM to SortGreenSpaces--><g id="link_GSM_SortGreenSpaces"><path codeLine="61" d="M26.82,783.9583 C30.45,857.8083 46.09,1141.8683 73,1170.4783 C131.44,1232.6183 236.75,1235.9283 303.24,1230.6383 " fill="none" id="GSM-SortGreenSpaces" style="stroke:#181818;stroke-width:1.0;"/><polygon fill="#000000" points="80.6311,1166.3853,78.3705,1157.1473,73.3723,1160.2404,80.6311,1166.3853" style="stroke:#000000;stroke-width:1.0;"/><text fill="#000000" font-family="sans-serif" font-size="13" lengthAdjust="spacing" textLength="174" x="87" y="1167.0466">lists managed green spaces</text><text fill="#000000" font-family="sans-serif" font-size="13" lengthAdjust="spacing" textLength="8" x="28.6024" y="804.2231">1</text><text fill="#000000" font-family="sans-serif" font-size="13" lengthAdjust="spacing" textLength="8" x="287.6943" y="1245.0355">1</text></g><!--link SortGreenSpaces to GreenSpace--><g id="link_SortGreenSpaces_GreenSpace"><path codeLine="62" d="M425.74,1205.3683 C474.89,1191.3983 543.12,1172.0183 586.8,1159.6083 " fill="none" id="SortGreenSpaces-GreenSpace" style="stroke:#181818;stroke-width:1.0;"/><polygon fill="#000000" points="497.3096,1163.767,487.8057,1163.412,489.4121,1169.0661,497.3096,1163.767" style="stroke:#000000;stroke-width:1.0;"/><text fill="#000000" font-family="sans-serif" font-size="13" lengthAdjust="spacing" textLength="20" x="501.5" y="1170.0466">get</text><text fill="#000000" font-family="sans-serif" font-size="13" lengthAdjust="spacing" textLength="8" x="433.6911" y="1216.7846">1</text><text fill="#000000" font-family="sans-serif" font-size="13" lengthAdjust="spacing" textLength="6" x="573.0653" y="1175.4529">*</text></g><!--link AgendaEntry to Vehicle--><g id="link_AgendaEntry_Vehicle"><path codeLine="63" d="M421.46,661.7383 C486.49,674.4183 596.57,698.1883 688,729.4783 C742.39,748.0983 754.46,756.9983 806,782.4783 C815.63,787.2383 825.62,792.3683 835.52,797.5583 " fill="none" id="AgendaEntry-Vehicle" style="stroke:#181818;stroke-width:1.0;"/><polygon fill="#000000" points="621.7509,690.692,614.0724,685.0803,612.2404,690.6653,621.7509,690.692" style="stroke:#000000;stroke-width:1.0;"/><text fill="#000000" font-family="sans-serif" font-size="13" lengthAdjust="spacing" textLength="22" x="626" y="694.0466">has</text><text fill="#000000" font-family="sans-serif" font-size="13" lengthAdjust="spacing" textLength="8" x="428.971" y="676.3775">1</text><text fill="#000000" font-family="sans-serif" font-size="13" lengthAdjust="spacing" textLength="22" x="806.095" y="807.1205">1..*</text></g><!--link AgendaEntry to Team--><g id="link_AgendaEntry_Team"><path codeLine="64" d="M421.39,614.4883 C436.02,605.2983 451.92,595.7183 467,587.4783 C502.67,567.9983 544.2,548.6283 576.35,534.3183 " fill="none" id="AgendaEntry-Team" style="stroke:#181818;stroke-width:1.0;"/><polygon fill="#000000" points="484.9409,539.836,475.5568,541.382,478.2577,546.6026,484.9409,539.836" style="stroke:#000000;stroke-width:1.0;"/><text fill="#000000" font-family="sans-serif" font-size="13" lengthAdjust="spacing" textLength="44" x="489.5" y="547.0466">posses</text><text fill="#000000" font-family="sans-serif" font-size="13" lengthAdjust="spacing" textLength="8" x="428.811" y="623.4809">1</text><text fill="#000000" font-family="sans-serif" font-size="13" lengthAdjust="spacing" textLength="8" x="560.5361" y="550.9836">1</text></g><!--link Agenda to AgendaEntry--><g id="link_Agenda_AgendaEntry"><path codeLine="65" d="M364.5,517.1083 C364.5,537.4683 364.5,566.7683 364.5,592.8083 " fill="none" id="Agenda-AgendaEntry" style="stroke:#181818;stroke-width:1.0;"/><polygon fill="#000000" points="339.5,560.1436,342.4389,551.0985,336.5611,551.0985,339.5,560.1436" style="stroke:#000000;stroke-width:1.0;"/><text fill="#000000" font-family="sans-serif" font-size="13" lengthAdjust="spacing" textLength="22" x="348.5" y="560.0566">has</text><text fill="#000000" font-family="sans-serif" font-size="13" lengthAdjust="spacing" textLength="8" x="355.575" y="537.3743">1</text><text fill="#000000" font-family="sans-serif" font-size="13" lengthAdjust="spacing" textLength="6" x="358.1344" y="582.3305">*</text></g><!--link AgendaEntry to ToDoEntry--><g id="link_AgendaEntry_ToDoEntry"><path codeLine="66" d="M421.38,652.7283 C506.29,653.1483 672.09,648.1183 806,608.4783 C974.89,558.4883 1149.89,445.0883 1242.53,379.2783 " fill="none" id="AgendaEntry-ToDoEntry" style="stroke:#181818;stroke-width:1.0;"/><polygon fill="#000000" points="753.2439,598.5538,743.7336,598.6232,745.5907,604.2,753.2439,598.5538" style="stroke:#000000;stroke-width:1.0;"/><text fill="#000000" font-family="sans-serif" font-size="13" lengthAdjust="spacing" textLength="22" x="757.5" y="605.0466">has</text><text fill="#000000" font-family="sans-serif" font-size="13" lengthAdjust="spacing" textLength="8" x="429.1803" y="649.5151">1</text><text fill="#000000" font-family="sans-serif" font-size="13" lengthAdjust="spacing" textLength="8" x="1227.1081" y="397.7712">1</text></g><!--link VFM to Vehicle--><g id="link_VFM_Vehicle"><path codeLine="105" d="M382.3,881.7183 C430.12,879.5183 571.09,872.7683 688,864.4783 C736.9,861.0083 791.51,856.3583 835.52,852.4083 " fill="none" id="VFM-Vehicle" style="stroke:#181818;stroke-width:1.0;"/><polygon fill="#000000" points="608.9896,855.8109,599.7737,853.4618,600.153,859.3274,608.9896,855.8109" style="stroke:#000000;stroke-width:1.0;"/><text fill="#000000" font-family="sans-serif" font-size="13" lengthAdjust="spacing" textLength="48" x="613" y="861.0466">register</text><text fill="#000000" font-family="sans-serif" font-size="13" lengthAdjust="spacing" textLength="8" x="390.0663" y="896.7416">1</text><text fill="#000000" font-family="sans-serif" font-size="13" lengthAdjust="spacing" textLength="6" x="821.8733" y="866.316">*</text></g><!--link VFM to Vehicle--><g id="link_VFM_Vehicle"><path codeLine="107" d="M382.42,884.1183 C417.78,887.4483 502.07,894.9183 573,897.4783 C624.08,899.3283 637.21,903.1983 688,897.4783 C737.57,891.8983 791.99,879.8283 835.71,868.6183 " fill="none" id="VFM-Vehicle-1" style="stroke:#181818;stroke-width:1.0;"/><polygon fill="#000000" points="586.9971,888.9627,577.8568,886.3346,578.0577,892.209,586.9971,888.9627" style="stroke:#000000;stroke-width:1.0;"/><text fill="#000000" font-family="sans-serif" font-size="13" lengthAdjust="spacing" textLength="92" x="591" y="894.0466">lists check-up</text><text fill="#000000" font-family="sans-serif" font-size="13" lengthAdjust="spacing" textLength="8" x="389.955" y="879.7242">1</text><text fill="#000000" font-family="sans-serif" font-size="13" lengthAdjust="spacing" textLength="6" x="822.0796" y="883.9191">*</text></g><!--link VFM to CheckUp--><g id="link_VFM_CheckUp"><path codeLine="106" d="M382.42,876.4583 C420.03,863.0683 512.04,830.3083 572.54,808.7583 " fill="none" id="VFM-CheckUp" style="stroke:#181818;stroke-width:1.0;"/><polygon fill="#000000" points="483.2103,812.4563,473.7034,812.7219,475.6752,818.2591,483.2103,812.4563" style="stroke:#000000;stroke-width:1.0;"/><text fill="#000000" font-family="sans-serif" font-size="13" lengthAdjust="spacing" textLength="48" x="487.5" y="819.0466">register</text><text fill="#000000" font-family="sans-serif" font-size="13" lengthAdjust="spacing" textLength="8" x="389.955" y="869.4311">1</text><text fill="#000000" font-family="sans-serif" font-size="13" lengthAdjust="spacing" textLength="6" x="559.1105" y="824.7305">*</text></g><!--link CheckUp to Vehicle--><g id="link_CheckUp_Vehicle"><path codeLine="108" d="M688.25,799.4783 C730.25,807.6183 788.17,818.8383 835.66,828.0383 " fill="none" id="CheckUp-Vehicle" style="stroke:#181818;stroke-width:1.0;"/><polygon fill="#000000" points="736.4087,800.0846,728.0878,795.4789,726.9698,801.2494,736.4087,800.0846" style="stroke:#000000;stroke-width:1.0;"/><text fill="#000000" font-family="sans-serif" font-size="13" lengthAdjust="spacing" textLength="56" x="740.5" y="804.0466">assigned</text><text fill="#000000" font-family="sans-serif" font-size="13" lengthAdjust="spacing" textLength="8" x="696.1617" y="814.436">1</text><text fill="#000000" font-family="sans-serif" font-size="13" lengthAdjust="spacing" textLength="22" x="805.9431" y="839.9066">1..*</text></g><!--link HRM to Skill--><g id="link_HRM_Skill"><path codeLine="148" d="M383.23,273.1783 C429.24,285.3783 552.53,318.0683 605.15,332.0283 " fill="none" id="HRM-Skill" style="stroke:#181818;stroke-width:1.0;"/><polygon fill="#000000" points="483.333,290.4152,475.3434,285.256,473.8367,290.9374,483.333,290.4152" style="stroke:#000000;stroke-width:1.0;"/><text fill="#000000" font-family="sans-serif" font-size="13" lengthAdjust="spacing" textLength="48" x="487.5" y="294.0466">register</text><text fill="#000000" font-family="sans-serif" font-size="13" lengthAdjust="spacing" textLength="8" x="391.0434" y="269.8361">1</text><text fill="#000000" font-family="sans-serif" font-size="13" lengthAdjust="spacing" textLength="22" x="575.6528" y="344.8456">1..*</text></g><!--link HRM to Job--><g id="link_HRM_Job"><path codeLine="150" d="M383.47,263.1583 C460.89,240.4283 773.92,150.6283 1037,105.4783 C1127.93,89.8783 1237.54,81.8383 1285.29,78.8683 " fill="none" id="HRM-Job" style="stroke:#181818;stroke-width:1.0;"/><polygon fill="#000000" points="740.3988,145.1325,730.9484,144.064,732.1252,149.8229,740.3988,145.1325" style="stroke:#000000;stroke-width:1.0;"/><text fill="#000000" font-family="sans-serif" font-size="13" lengthAdjust="spacing" textLength="48" x="744.5" y="151.0466">register</text><text fill="#000000" font-family="sans-serif" font-size="13" lengthAdjust="spacing" textLength="8" x="391.0788" y="256.5301">1</text><text fill="#000000" font-family="sans-serif" font-size="13" lengthAdjust="spacing" textLength="22" x="1255.3691" y="75.1344">1..*</text></g><!--link HRM to Collaborator--><g id="link_HRM_Collaborator"><path codeLine="151" d="M383.34,268.6083 C456.07,269.1283 732.31,271.1283 857.8,272.0283 " fill="none" id="HRM-Collaborator" style="stroke:#181818;stroke-width:1.0;"/><polygon fill="#000000" points="608.9999,262.1696,599.9762,259.1655,599.9338,265.0432,608.9999,262.1696" style="stroke:#000000;stroke-width:1.0;"/><text fill="#000000" font-family="sans-serif" font-size="13" lengthAdjust="spacing" textLength="48" x="613" y="267.0466">register</text><text fill="#000000" font-family="sans-serif" font-size="13" lengthAdjust="spacing" textLength="8" x="390.9057" y="283.7541">1</text><text fill="#000000" font-family="sans-serif" font-size="13" lengthAdjust="spacing" textLength="22" x="828.0966" y="268.7927">1..*</text></g><!--link HRM to Team--><g id="link_HRM_Team"><path codeLine="152" d="M383.23,284.7983 C423.75,322.0983 524.21,414.5583 583.54,469.1783 " fill="none" id="HRM-Team" style="stroke:#181818;stroke-width:1.0;"/><polygon fill="#000000" points="475.6788,363.5198,471.0142,355.2317,467.0334,359.5564,475.6788,363.5198" style="stroke:#000000;stroke-width:1.0;"/><text fill="#000000" font-family="sans-serif" font-size="13" lengthAdjust="spacing" textLength="61" x="481" y="365.0466">generates</text><text fill="#000000" font-family="sans-serif" font-size="13" lengthAdjust="spacing" textLength="8" x="391.0434" y="305.6067">1</text><text fill="#000000" font-family="sans-serif" font-size="13" lengthAdjust="spacing" textLength="22" x="552.3026" y="458.8335">1..*</text></g><!--link Skill to Collaborator--><g id="link_Skill_Collaborator"><path codeLine="154" d="M655.64,332.9683 C699.66,322.9083 794.28,301.3083 857.67,286.8283 " fill="none" id="Skill-Collaborator" style="stroke:#181818;stroke-width:1.0;"/><polygon fill="#000000" points="727.8745,291.0203,718.4021,290.169,719.7108,295.8993,727.8745,291.0203" style="stroke:#000000;stroke-width:1.0;"/><text fill="#000000" font-family="sans-serif" font-size="13" lengthAdjust="spacing" textLength="73" x="732" y="297.0466">assigned to</text><text fill="#000000" font-family="sans-serif" font-size="13" lengthAdjust="spacing" textLength="16" x="663.3036" y="346.0331">1..</text><text fill="#000000" font-family="sans-serif" font-size="13" lengthAdjust="spacing" textLength="6" x="843.9428" y="301.9408">*</text></g><!--link Collaborator to Job--><g id="link_Collaborator_Job"><path codeLine="156" d="M985.11,240.9283 C1072.18,197.0583 1225.8,119.6483 1285.15,89.7483 " fill="none" id="Collaborator-Job" style="stroke:#181818;stroke-width:1.0;"/><polygon fill="#000000" points="1115.9652,119.8837,1106.5651,121.3292,1109.21,126.5783,1115.9652,119.8837" style="stroke:#000000;stroke-width:1.0;"/><text fill="#000000" font-family="sans-serif" font-size="13" lengthAdjust="spacing" textLength="22" x="1120.5" y="127.0466">has</text><text fill="#000000" font-family="sans-serif" font-size="13" lengthAdjust="spacing" textLength="8" x="992.9274" y="250.7337">1</text><text fill="#000000" font-family="sans-serif" font-size="13" lengthAdjust="spacing" textLength="6" x="1271.5309" y="107.672">*</text></g><!--link Team to Collaborator--><g id="link_Team_Collaborator"><path codeLine="158" d="M684.96,512.0983 C722.1,509.9983 771.01,501.9183 806,476.4783 C844.02,448.8383 871.07,404.4883 889.29,364.1883 " fill="none" id="Team-Collaborator" style="stroke:#181818;stroke-width:1.0;"/><polygon fill="#000000" points="752.5502,465.2017,743.5,468.1248,746.9466,472.8861,752.5502,465.2017" style="stroke:#000000;stroke-width:1.0;"/><text fill="#000000" font-family="sans-serif" font-size="13" lengthAdjust="spacing" textLength="22" x="757.5" y="473.0466">has</text><text fill="#000000" font-family="sans-serif" font-size="13" lengthAdjust="spacing" textLength="8" x="692.4502" y="525.7261">1</text><text fill="#000000" font-family="sans-serif" font-size="13" lengthAdjust="spacing" textLength="22" x="863.9817" y="384.3642">1..*</text></g><!--link Collaborator to ToDoEntry--><g id="link_Collaborator_ToDoEntry"><path codeLine="160" d="M985.25,279.9683 C1044.18,287.2183 1134.74,298.9383 1213,311.4783 C1222.59,313.0183 1232.7,314.7583 1242.61,316.5483 " fill="none" id="Collaborator-ToDoEntry" style="stroke:#181818;stroke-width:1.0;"/><polygon fill="#000000" points="1113.9502,279.8372,1105.4087,275.6546,1104.5816,281.474,1113.9502,279.8372" style="stroke:#000000;stroke-width:1.0;"/><text fill="#000000" font-family="sans-serif" font-size="13" lengthAdjust="spacing" textLength="27" x="1118" y="284.0466">lists</text><text fill="#000000" font-family="sans-serif" font-size="13" lengthAdjust="spacing" textLength="8" x="993.0836" y="294.2877">1</text><text fill="#000000" font-family="sans-serif" font-size="13" lengthAdjust="spacing" textLength="6" x="1228.8564" y="328.5392">*</text></g><!--link Collaborator to ToDoEntry--><g id="link_Collaborator_ToDoEntry"><path codeLine="161" d="M985.44,315.1283 C1001.58,323.9183 1019.37,331.8883 1037,336.4783 C1105.35,354.2883 1186.63,348.9483 1242.52,341.4083 " fill="none" id="Collaborator-ToDoEntry-1" style="stroke:#181818;stroke-width:1.0;"/><polygon fill="#000000" points="1046.9741,328.642,1038.2748,324.7985,1037.677,330.6459,1046.9741,328.642" style="stroke:#000000;stroke-width:1.0;"/><text fill="#000000" font-family="sans-serif" font-size="13" lengthAdjust="spacing" textLength="161" x="1051" y="333.0466">registers task completion</text><text fill="#000000" font-family="sans-serif" font-size="13" lengthAdjust="spacing" textLength="8" x="992.8709" y="333.1986">1</text><text fill="#000000" font-family="sans-serif" font-size="13" lengthAdjust="spacing" textLength="8" x="1227.0971" y="339.449">1</text></g><!--link Agenda to ToDoEntry--><g id="link_Agenda_ToDoEntry"><path codeLine="162" d="M437.41,477.2883 C477.29,469.5883 527.82,460.1083 573,452.4783 C856.61,404.5783 931.74,416.6783 1213,356.4783 C1222.61,354.4183 1232.68,351.9583 1242.54,349.3683 " fill="none" id="Agenda-ToDoEntry" style="stroke:#181818;stroke-width:1.0;"/><polygon fill="#000000" points="753.4381,410.349,744.0439,408.8658,744.9662,414.6708,753.4381,410.349" style="stroke:#000000;stroke-width:1.0;"/><text fill="#000000" font-family="sans-serif" font-size="13" lengthAdjust="spacing" textLength="22" x="757.5" y="416.0466">has</text><text fill="#000000" font-family="sans-serif" font-size="13" lengthAdjust="spacing" textLength="8" x="444.9808" y="489.2135">1</text><text fill="#000000" font-family="sans-serif" font-size="13" lengthAdjust="spacing" textLength="6" x="1228.7788" y="364.9489">*</text></g><!--link Team to Vehicle--><g id="link_Team_Vehicle"><path codeLine="168" d="M684.81,528.5583 C729.25,543.6583 788.08,565.9483 806,583.4783 C848.27,624.8283 876.03,684.4483 893.61,736.2683 " fill="none" id="Team-Vehicle" style="stroke:#181818;stroke-width:1.0;"/><polygon fill="#000000" points="748.5448,537.6598,744.2049,529.1972,740.0595,533.3643,748.5448,537.6598" style="stroke:#000000;stroke-width:1.0;"/><text fill="#000000" font-family="sans-serif" font-size="13" lengthAdjust="spacing" textLength="29" x="754" y="539.0466">uses</text><text fill="#000000" font-family="sans-serif" font-size="13" lengthAdjust="spacing" textLength="6" x="692.511" y="544.4496">*</text><text fill="#000000" font-family="sans-serif" font-size="13" lengthAdjust="spacing" textLength="6" x="885.438" y="725.7117">*</text></g><!--link Team to Agenda--><g id="link_Team_Agenda"><path codeLine="169" d="M576.15,507.4383 C536.2,504.4083 481.11,500.2383 437.29,496.9183 " fill="none" id="Team-Agenda" style="stroke:#181818;stroke-width:1.0;"/><polygon fill="#000000" points="486.5143,491.7558,495.3115,495.3697,495.7555,489.5086,486.5143,491.7558" style="stroke:#000000;stroke-width:1.0;"/><text fill="#000000" font-family="sans-serif" font-size="13" lengthAdjust="spacing" textLength="22" x="500.5" y="497.0466">has</text><text fill="#000000" font-family="sans-serif" font-size="13" lengthAdjust="spacing" textLength="22" x="546.5939" y="520.4239">1..*</text><text fill="#000000" font-family="sans-serif" font-size="13" lengthAdjust="spacing" textLength="6" x="445.1058" y="510.8373">*</text></g><!--SRC=[dLPDRzim3BtxLmZf8K215kkr608KIzjrM7POkkvOA19h2x4bLvAnPiF- -oZvGvBZfC5yIKG-KXJvICbiXQoffXMfb5IiqAe2OdK3cHaqDMLRciFQxaeW6fYbCYzZW2aeLx-4pCaBBGrayw0gXGIxgu4eRGkLPLa9BvPOHRJ82qkuSFw4af4tLb9ZRgpLOjDOU61AhiLl81-oGd0WJ6Y6c_l_5Q1FRhBC2ekXBLL5XIGhnQ7Ct3SdvAp_27xt847JaZp85wKhwlQT6-A_0NUMkQMFWTolL-IFN__DOh46a6lC2WIj-mR0JGwIqqxPVr-5iHzRpQsqUhV81h-nbTUDJArQAYzFf6jBjSMaBwc5H74h-Pxi4MYr7yuJ50ApQHPPDZxaOx_dA1QI3wTFvRu6gOY3OLhKlhw9ej5uLfOUXy1RZLm0lcmq7KoIcDP8ef1y4qLcKBFoR1WAuWkE1PnTpSZ51VvSNfxFujfT8vTpp09eGnO7u24Bnz48ZSiNm0Iyu0IB6sD4BWsXn6AjJh6ebR6rad3w7enA1kL1V7lcZXG8frr84yZPNZ6kiTUDDQIY4eS5Rtb2JAjiFOnDeZYJkkHWEuiu_DaL8N6SGw1eKL0pQJ54w_ZVfin02crH4yawuhDr6N6ZnJhIJSsTlH4pWNcwM-t30lMTUc8KzIc8UhGkiVSVba6mqLJoiApyU0njYyCvMb4ThNADwVe9Rb97zg8iiS11q5CzdJcKlJR22DV8gSBDQ0lICV5EmskJ3W8ybVrK0Dl-gCDe3UVjLD5vIy7GG_3FuyrOepMIVILAw4FkHuDBQCI_GFgXSnTJk3w0zt31NziLpDbTD7M7xjqSxppieaNsluJw_FqeePnwWb2V55Ptet02AnrbMT8gP7KZy2vFyanv9J3YKQafvngC6TPrWSFgMrDjG0yoG3e4DbhwLjCTw158y6Uks7D2rKuc0pAzlbo_H_V35bcR1GfBftVFYY2ZRuailNYS-LGw4jGNjJc2SGbFozrwJPWq7oCZMCU9VYZj-tFxx_5oWFMefCA7uU4AR2TdxjzErc_V3dCVbWE5vaXT3oJ6vrvdb22YCxQXTrEqVw-C0Xbvxy27FCRJkMt1nJJswj0jRwdP4gQgkWGtnT0-lZ3sT-a2UhzN3prByGMWcF1l7pFPkMrIpYU6J1DkjIvpFcNnjHRTKYUDb7y0]--></g></svg>