<?xml version="1.0" encoding="us-ascii" standalone="no"?><svg xmlns="http://www.w3.org/2000/svg" xmlns:xlink="http://www.w3.org/1999/xlink" contentStyleType="text/css" height="1097.8px" preserveAspectRatio="none" style="width:416px;height:1097px;background:#FFFFFF;" version="1.1" viewBox="0 0 416 1097" width="416.9px" zoomAndPan="magnify"><defs/><g><text fill="#000000" font-family="sans-serif" font-size="15.4" font-weight="bold" lengthAdjust="spacing" textLength="386.1" x="11" y="33.1182">System Sequence Diagram (SSD) - Alternative One</text><rect fill="#FFFFFF" height="849.9627" style="stroke:#181818;stroke-width:1.1;" width="11" x="32.175" y="146.5664"/><rect fill="#FFFFFF" height="90.8402" style="stroke:#181818;stroke-width:1.1;" width="11" x="345.675" y="172.1865"/><rect fill="#FFFFFF" height="34.4201" style="stroke:#181818;stroke-width:1.1;" width="11" x="345.675" y="297.4469"/><rect fill="#FFFFFF" height="34.4201" style="stroke:#181818;stroke-width:1.1;" width="11" x="345.675" y="366.2871"/><rect fill="#FFFFFF" height="34.4201" style="stroke:#181818;stroke-width:1.1;" width="11" x="345.675" y="435.1273"/><rect fill="#FFFFFF" height="34.4201" style="stroke:#181818;stroke-width:1.1;" width="11" x="345.675" y="503.9676"/><rect fill="#FFFFFF" height="34.4201" style="stroke:#181818;stroke-width:1.1;" width="11" x="345.675" y="572.8078"/><rect fill="#FFFFFF" height="34.4201" style="stroke:#181818;stroke-width:1.1;" width="11" x="345.675" y="641.648"/><rect fill="#FFFFFF" height="34.4201" style="stroke:#181818;stroke-width:1.1;" width="11" x="345.675" y="710.4883"/><rect fill="#FFFFFF" height="34.4201" style="stroke:#181818;stroke-width:1.1;" width="11" x="345.675" y="779.3285"/><rect fill="#FFFFFF" height="69.6201" style="stroke:#181818;stroke-width:1.1;" width="11" x="345.675" y="848.1688"/><rect fill="#FFFFFF" height="34.4201" style="stroke:#181818;stroke-width:1.1;" width="11" x="345.675" y="952.209"/><rect fill="none" height="640.7822" style="stroke:#000000;stroke-width:1.6500000000000001;" width="385.55" x="11.825" y="216.1865"/><line style="stroke:#181818;stroke-width:0.55;stroke-dasharray:5.0,5.0;" x1="37.125" x2="37.125" y1="135.5664" y2="1006.4291"/><line style="stroke:#181818;stroke-width:0.55;stroke-dasharray:5.0,5.0;" x1="351.175" x2="351.175" y1="135.5664" y2="1006.4291"/><text fill="#000000" font-family="sans-serif" font-size="15.4" lengthAdjust="spacing" textLength="22" x="23.375" y="131.7014">FM</text><ellipse cx="37.675" cy="58.4332" fill="#E3E3E3" rx="8.8" ry="8.8" style="stroke:#181818;stroke-width:0.55;"/><path d="M37.675,67.2332 L37.675,96.9332 M23.375,76.0332 L51.975,76.0332 M37.675,96.9332 L23.375,113.4332 M37.675,96.9332 L51.975,113.4332 " fill="none" style="stroke:#181818;stroke-width:0.55;"/><text fill="#000000" font-family="sans-serif" font-size="15.4" lengthAdjust="spacing" textLength="22" x="23.375" y="1021.9473">FM</text><ellipse cx="37.675" cy="1035.1623" fill="#E3E3E3" rx="8.8" ry="8.8" style="stroke:#181818;stroke-width:0.55;"/><path d="M37.675,1043.9623 L37.675,1073.6623 M23.375,1052.7623 L51.975,1052.7623 M37.675,1073.6623 L23.375,1090.1623 M37.675,1073.6623 L51.975,1090.1623 " fill="none" style="stroke:#181818;stroke-width:0.55;"/><rect fill="#E3E3E3" height="35.8832" rx="2.75" ry="2.75" style="stroke:#181818;stroke-width:0.55;" width="70.4" x="315.975" y="98.5832"/><text fill="#000000" font-family="sans-serif" font-size="15.4" lengthAdjust="spacing" textLength="55" x="323.675" y="122.9014">:System</text><rect fill="#E3E3E3" height="35.8832" rx="2.75" ry="2.75" style="stroke:#181818;stroke-width:0.55;" width="70.4" x="315.975" y="1005.3291"/><text fill="#000000" font-family="sans-serif" font-size="15.4" lengthAdjust="spacing" textLength="55" x="323.675" y="1029.6473">:System</text><rect fill="#FFFFFF" height="849.9627" style="stroke:#181818;stroke-width:1.1;" width="11" x="32.175" y="146.5664"/><rect fill="#FFFFFF" height="90.8402" style="stroke:#181818;stroke-width:1.1;" width="11" x="345.675" y="172.1865"/><rect fill="#FFFFFF" height="34.4201" style="stroke:#181818;stroke-width:1.1;" width="11" x="345.675" y="297.4469"/><rect fill="#FFFFFF" height="34.4201" style="stroke:#181818;stroke-width:1.1;" width="11" x="345.675" y="366.2871"/><rect fill="#FFFFFF" height="34.4201" style="stroke:#181818;stroke-width:1.1;" width="11" x="345.675" y="435.1273"/><rect fill="#FFFFFF" height="34.4201" style="stroke:#181818;stroke-width:1.1;" width="11" x="345.675" y="503.9676"/><rect fill="#FFFFFF" height="34.4201" style="stroke:#181818;stroke-width:1.1;" width="11" x="345.675" y="572.8078"/><rect fill="#FFFFFF" height="34.4201" style="stroke:#181818;stroke-width:1.1;" width="11" x="345.675" y="641.648"/><rect fill="#FFFFFF" height="34.4201" style="stroke:#181818;stroke-width:1.1;" width="11" x="345.675" y="710.4883"/><rect fill="#FFFFFF" height="34.4201" style="stroke:#181818;stroke-width:1.1;" width="11" x="345.675" y="779.3285"/><rect fill="#FFFFFF" height="69.6201" style="stroke:#181818;stroke-width:1.1;" width="11" x="345.675" y="848.1688"/><rect fill="#FFFFFF" height="34.4201" style="stroke:#181818;stroke-width:1.1;" width="11" x="345.675" y="952.209"/><polygon fill="#181818" points="332.475,167.7865,343.475,172.1865,332.475,176.5865,336.875,172.1865" style="stroke:#181818;stroke-width:1.1;"/><line style="stroke:#181818;stroke-width:1.1;" x1="43.175" x2="339.075" y1="172.1865" y2="172.1865"/><text fill="#000000" font-family="sans-serif" font-size="14.3" font-weight="bold" lengthAdjust="spacing" textLength="7.7" x="50.875" y="166.3976">1</text><text fill="#000000" font-family="sans-serif" font-size="14.3" lengthAdjust="spacing" textLength="174.9" x="62.975" y="166.3976">request to register a vehicle</text><path d="M11.825,216.1865 L165.825,216.1865 L165.825,226.4066 L154.825,237.4066 L11.825,237.4066 L11.825,216.1865 " fill="#EEEEEE" style="stroke:#000000;stroke-width:1.6500000000000001;"/><rect fill="none" height="640.7822" style="stroke:#000000;stroke-width:1.6500000000000001;" width="385.55" x="11.825" y="216.1865"/><text fill="#000000" font-family="sans-serif" font-size="14.3" font-weight="bold" lengthAdjust="spacing" textLength="104.5" x="28.325" y="232.7177">requested data</text><polygon fill="#181818" points="55.275,258.6268,44.275,263.0268,55.275,267.4268,50.875,263.0268" style="stroke:#181818;stroke-width:1.1;"/><line style="stroke:#181818;stroke-width:1.1;stroke-dasharray:2.0,2.0;" x1="48.675" x2="350.075" y1="263.0268" y2="263.0268"/><text fill="#000000" font-family="sans-serif" font-size="14.3" font-weight="bold" lengthAdjust="spacing" textLength="7.7" x="61.875" y="257.2378">2</text><text fill="#000000" font-family="sans-serif" font-size="14.3" lengthAdjust="spacing" textLength="134.2" x="73.975" y="257.2378">request vehicle brand</text><polygon fill="#181818" points="332.475,293.0469,343.475,297.4469,332.475,301.8469,336.875,297.4469" style="stroke:#181818;stroke-width:1.1;"/><line style="stroke:#181818;stroke-width:1.1;" x1="43.175" x2="339.075" y1="297.4469" y2="297.4469"/><text fill="#000000" font-family="sans-serif" font-size="14.3" font-weight="bold" lengthAdjust="spacing" textLength="7.7" x="50.875" y="291.6579">3</text><text fill="#000000" font-family="sans-serif" font-size="14.3" lengthAdjust="spacing" textLength="134.2" x="62.975" y="291.6579">types requested data</text><polygon fill="#181818" points="55.275,327.467,44.275,331.867,55.275,336.267,50.875,331.867" style="stroke:#181818;stroke-width:1.1;"/><line style="stroke:#181818;stroke-width:1.1;stroke-dasharray:2.0,2.0;" x1="48.675" x2="350.075" y1="331.867" y2="331.867"/><text fill="#000000" font-family="sans-serif" font-size="14.3" font-weight="bold" lengthAdjust="spacing" textLength="7.7" x="61.875" y="326.078">4</text><text fill="#000000" font-family="sans-serif" font-size="14.3" lengthAdjust="spacing" textLength="137.5" x="73.975" y="326.078">request vehicle model</text><polygon fill="#181818" points="332.475,361.8871,343.475,366.2871,332.475,370.6871,336.875,366.2871" style="stroke:#181818;stroke-width:1.1;"/><line style="stroke:#181818;stroke-width:1.1;" x1="43.175" x2="339.075" y1="366.2871" y2="366.2871"/><text fill="#000000" font-family="sans-serif" font-size="14.3" font-weight="bold" lengthAdjust="spacing" textLength="7.7" x="50.875" y="360.4981">5</text><text fill="#000000" font-family="sans-serif" font-size="14.3" lengthAdjust="spacing" textLength="134.2" x="62.975" y="360.4981">types requested data</text><polygon fill="#181818" points="55.275,396.3072,44.275,400.7072,55.275,405.1072,50.875,400.7072" style="stroke:#181818;stroke-width:1.1;"/><line style="stroke:#181818;stroke-width:1.1;stroke-dasharray:2.0,2.0;" x1="48.675" x2="350.075" y1="400.7072" y2="400.7072"/><text fill="#000000" font-family="sans-serif" font-size="14.3" font-weight="bold" lengthAdjust="spacing" textLength="7.7" x="61.875" y="394.9183">6</text><text fill="#000000" font-family="sans-serif" font-size="14.3" lengthAdjust="spacing" textLength="126.5" x="73.975" y="394.9183">request vehicle type</text><polygon fill="#181818" points="332.475,430.7273,343.475,435.1273,332.475,439.5273,336.875,435.1273" style="stroke:#181818;stroke-width:1.1;"/><line style="stroke:#181818;stroke-width:1.1;" x1="43.175" x2="339.075" y1="435.1273" y2="435.1273"/><text fill="#000000" font-family="sans-serif" font-size="14.3" font-weight="bold" lengthAdjust="spacing" textLength="7.7" x="50.875" y="429.3384">7</text><text fill="#000000" font-family="sans-serif" font-size="14.3" lengthAdjust="spacing" textLength="134.2" x="62.975" y="429.3384">types requested data</text><polygon fill="#181818" points="55.275,465.1475,44.275,469.5475,55.275,473.9475,50.875,469.5475" style="stroke:#181818;stroke-width:1.1;"/><line style="stroke:#181818;stroke-width:1.1;stroke-dasharray:2.0,2.0;" x1="48.675" x2="350.075" y1="469.5475" y2="469.5475"/><text fill="#000000" font-family="sans-serif" font-size="14.3" font-weight="bold" lengthAdjust="spacing" textLength="7.7" x="61.875" y="463.7585">8</text><text fill="#000000" font-family="sans-serif" font-size="14.3" lengthAdjust="spacing" textLength="176" x="73.975" y="463.7585">request vehicle Tare Weight</text><polygon fill="#181818" points="332.475,499.5676,343.475,503.9676,332.475,508.3676,336.875,503.9676" style="stroke:#181818;stroke-width:1.1;"/><line style="stroke:#181818;stroke-width:1.1;" x1="43.175" x2="339.075" y1="503.9676" y2="503.9676"/><text fill="#000000" font-family="sans-serif" font-size="14.3" font-weight="bold" lengthAdjust="spacing" textLength="7.7" x="50.875" y="498.1786">9</text><text fill="#000000" font-family="sans-serif" font-size="14.3" lengthAdjust="spacing" textLength="134.2" x="62.975" y="498.1786">types requested data</text><polygon fill="#181818" points="55.275,533.9877,44.275,538.3877,55.275,542.7877,50.875,538.3877" style="stroke:#181818;stroke-width:1.1;"/><line style="stroke:#181818;stroke-width:1.1;stroke-dasharray:2.0,2.0;" x1="48.675" x2="350.075" y1="538.3877" y2="538.3877"/><text fill="#000000" font-family="sans-serif" font-size="14.3" font-weight="bold" lengthAdjust="spacing" textLength="15.4" x="61.875" y="532.5987">10</text><text fill="#000000" font-family="sans-serif" font-size="14.3" lengthAdjust="spacing" textLength="187" x="81.675" y="532.5987">request vehicle Gross Weight</text><polygon fill="#181818" points="332.475,568.4078,343.475,572.8078,332.475,577.2078,336.875,572.8078" style="stroke:#181818;stroke-width:1.1;"/><line style="stroke:#181818;stroke-width:1.1;" x1="43.175" x2="339.075" y1="572.8078" y2="572.8078"/><text fill="#000000" font-family="sans-serif" font-size="14.3" font-weight="bold" lengthAdjust="spacing" textLength="15.4" x="50.875" y="567.0188">11</text><text fill="#000000" font-family="sans-serif" font-size="14.3" lengthAdjust="spacing" textLength="134.2" x="70.675" y="567.0188">types requested data</text><polygon fill="#181818" points="55.275,602.8279,44.275,607.2279,55.275,611.6279,50.875,607.2279" style="stroke:#181818;stroke-width:1.1;"/><line style="stroke:#181818;stroke-width:1.1;stroke-dasharray:2.0,2.0;" x1="48.675" x2="350.075" y1="607.2279" y2="607.2279"/><text fill="#000000" font-family="sans-serif" font-size="14.3" font-weight="bold" lengthAdjust="spacing" textLength="15.4" x="61.875" y="601.439">12</text><text fill="#000000" font-family="sans-serif" font-size="14.3" lengthAdjust="spacing" textLength="171.6" x="81.675" y="601.439">request vehicle Current Km</text><polygon fill="#181818" points="332.475,637.248,343.475,641.648,332.475,646.048,336.875,641.648" style="stroke:#181818;stroke-width:1.1;"/><line style="stroke:#181818;stroke-width:1.1;" x1="43.175" x2="339.075" y1="641.648" y2="641.648"/><text fill="#000000" font-family="sans-serif" font-size="14.3" font-weight="bold" lengthAdjust="spacing" textLength="15.4" x="50.875" y="635.8591">13</text><text fill="#000000" font-family="sans-serif" font-size="14.3" lengthAdjust="spacing" textLength="134.2" x="70.675" y="635.8591">types requested data</text><polygon fill="#181818" points="55.275,671.6682,44.275,676.0682,55.275,680.4682,50.875,676.0682" style="stroke:#181818;stroke-width:1.1;"/><line style="stroke:#181818;stroke-width:1.1;stroke-dasharray:2.0,2.0;" x1="48.675" x2="350.075" y1="676.0682" y2="676.0682"/><text fill="#000000" font-family="sans-serif" font-size="14.3" font-weight="bold" lengthAdjust="spacing" textLength="15.4" x="61.875" y="670.2792">14</text><text fill="#000000" font-family="sans-serif" font-size="14.3" lengthAdjust="spacing" textLength="185.9" x="81.675" y="670.2792">request vehicle Register Date</text><polygon fill="#181818" points="332.475,706.0883,343.475,710.4883,332.475,714.8883,336.875,710.4883" style="stroke:#181818;stroke-width:1.1;"/><line style="stroke:#181818;stroke-width:1.1;" x1="43.175" x2="339.075" y1="710.4883" y2="710.4883"/><text fill="#000000" font-family="sans-serif" font-size="14.3" font-weight="bold" lengthAdjust="spacing" textLength="15.4" x="50.875" y="704.6993">15</text><text fill="#000000" font-family="sans-serif" font-size="14.3" lengthAdjust="spacing" textLength="134.2" x="70.675" y="704.6993">types requested data</text><polygon fill="#181818" points="55.275,740.5084,44.275,744.9084,55.275,749.3084,50.875,744.9084" style="stroke:#181818;stroke-width:1.1;"/><line style="stroke:#181818;stroke-width:1.1;stroke-dasharray:2.0,2.0;" x1="48.675" x2="350.075" y1="744.9084" y2="744.9084"/><text fill="#000000" font-family="sans-serif" font-size="14.3" font-weight="bold" lengthAdjust="spacing" textLength="15.4" x="61.875" y="739.1194">16</text><text fill="#000000" font-family="sans-serif" font-size="14.3" lengthAdjust="spacing" textLength="195.8" x="81.675" y="739.1194">request vehicle Aquisition Date</text><polygon fill="#181818" points="332.475,774.9285,343.475,779.3285,332.475,783.7285,336.875,779.3285" style="stroke:#181818;stroke-width:1.1;"/><line style="stroke:#181818;stroke-width:1.1;" x1="43.175" x2="339.075" y1="779.3285" y2="779.3285"/><text fill="#000000" font-family="sans-serif" font-size="14.3" font-weight="bold" lengthAdjust="spacing" textLength="15.4" x="50.875" y="773.5396">17</text><text fill="#000000" font-family="sans-serif" font-size="14.3" lengthAdjust="spacing" textLength="134.2" x="70.675" y="773.5396">types requested data</text><polygon fill="#181818" points="55.275,809.3486,44.275,813.7486,55.275,818.1486,50.875,813.7486" style="stroke:#181818;stroke-width:1.1;"/><line style="stroke:#181818;stroke-width:1.1;stroke-dasharray:2.0,2.0;" x1="48.675" x2="350.075" y1="813.7486" y2="813.7486"/><text fill="#000000" font-family="sans-serif" font-size="14.3" font-weight="bold" lengthAdjust="spacing" textLength="15.4" x="61.875" y="807.9597">18</text><text fill="#000000" font-family="sans-serif" font-size="14.3" lengthAdjust="spacing" textLength="231" x="81.675" y="807.9597">request vehicle Check-up Frequency</text><polygon fill="#181818" points="332.475,843.7688,343.475,848.1688,332.475,852.5688,336.875,848.1688" style="stroke:#181818;stroke-width:1.1;"/><line style="stroke:#181818;stroke-width:1.1;" x1="43.175" x2="339.075" y1="848.1688" y2="848.1688"/><text fill="#000000" font-family="sans-serif" font-size="14.3" font-weight="bold" lengthAdjust="spacing" textLength="15.4" x="50.875" y="842.3798">19</text><text fill="#000000" font-family="sans-serif" font-size="14.3" lengthAdjust="spacing" textLength="134.2" x="70.675" y="842.3798">types requested data</text><polygon fill="#181818" points="55.275,913.3889,44.275,917.7889,55.275,922.1889,50.875,917.7889" style="stroke:#181818;stroke-width:1.1;"/><line style="stroke:#181818;stroke-width:1.1;stroke-dasharray:2.0,2.0;" x1="48.675" x2="350.075" y1="917.7889" y2="917.7889"/><text fill="#000000" font-family="sans-serif" font-size="14.3" font-weight="bold" lengthAdjust="spacing" textLength="15.4" x="61.875" y="911.9999">20</text><text fill="#000000" font-family="sans-serif" font-size="14.3" lengthAdjust="spacing" textLength="256.3" x="81.675" y="911.9999">show all data registered  for confirmation</text><polygon fill="#181818" points="332.475,947.809,343.475,952.209,332.475,956.609,336.875,952.209" style="stroke:#181818;stroke-width:1.1;"/><line style="stroke:#181818;stroke-width:1.1;" x1="43.175" x2="339.075" y1="952.209" y2="952.209"/><text fill="#000000" font-family="sans-serif" font-size="14.3" font-weight="bold" lengthAdjust="spacing" textLength="15.4" x="50.875" y="946.42">21</text><text fill="#000000" font-family="sans-serif" font-size="14.3" lengthAdjust="spacing" textLength="85.8" x="70.675" y="946.42">confirms data</text><polygon fill="#181818" points="55.275,982.2291,44.275,986.6291,55.275,991.0291,50.875,986.6291" style="stroke:#181818;stroke-width:1.1;"/><line style="stroke:#181818;stroke-width:1.1;stroke-dasharray:2.0,2.0;" x1="48.675" x2="350.075" y1="986.6291" y2="986.6291"/><text fill="#000000" font-family="sans-serif" font-size="14.3" font-weight="bold" lengthAdjust="spacing" textLength="15.4" x="61.875" y="980.8401">22</text><text fill="#000000" font-family="sans-serif" font-size="14.3" lengthAdjust="spacing" textLength="173.8" x="81.675" y="980.8401">displays operation success</text><!--SRC=[pPNFJiCm3CRlVGfh9pZi1JWW8SOu88H4aJYRr6kZvKzdkqELzl2aNTSXj8djC6azj6bYVzylIUFAqeOQ6Jtu6AAfE7e2vOOo6KTgD4iiATVM4J0PnL2wtm5IOH6_RIXXWKueozHg2irRKVAGqwgXO0Xc5iik_2RFPxSmXGUdn07LhWdUGah3HcDe_1TnQXkD39FvwmHGuCdNBhP4MJ9KQsoDGM5ojtNe8xRDFi-kKMcVaa6wTcymlTzntQMv939Hq9YQfKsz30Xhggn9y-lIHhL1lklhRvlDfd-M79jw9qG55AZO3mmcq-GtUkyT1m_uOWn57r_GNw_ZtDhM98TC3qgSHk9ZGUugI3hDgm3vG2Ru95jMUXKypnn5BWuqVkAdGJqsp9GEuuk_6gJttLcU9OsBKS4vM_UmQgnOjJ5S5keSfiUAp7AQgjUSjnMwpIwxXJIKkgvsRZMFmqeLlm6TwnN7wfmSO95-2oQ6XMMFtOAUpJmaop-BU9oji58xR0LYJTmpW3J6aCWHbXy0]--></g></svg>