<?xml version="1.0" encoding="us-ascii" standalone="no"?><svg xmlns="http://www.w3.org/2000/svg" xmlns:xlink="http://www.w3.org/1999/xlink" contentStyleType="text/css" height="392.7px" preserveAspectRatio="none" style="width:453px;height:392px;background:#FFFFFF;" version="1.1" viewBox="0 0 453 392" width="453.9px" zoomAndPan="magnify"><defs/><g><!--class Vehicle--><g id="elem_Vehicle"><rect codeLine="1" fill="#F1F1F1" height="358.6469" id="Vehicle" rx="4.25" ry="4.25" style="stroke:#181818;stroke-width:0.85;" width="418.2" x="11.9" y="11.9"/><ellipse cx="168.725" cy="39.1" fill="#ADD1B2" rx="18.7" ry="18.7" style="stroke:#181818;stroke-width:1.7;"/><path d="M173.7719,48.6891 Q172.7891,49.1938 171.7,49.4328 Q170.6109,49.6984 169.4156,49.6984 Q165.1656,49.6984 162.9078,46.9094 Q160.6766,44.0938 160.6766,38.7813 Q160.6766,33.4688 162.9078,30.6531 Q165.1656,27.8375 169.4156,27.8375 Q170.6109,27.8375 171.7,28.1031 Q172.8156,28.3688 173.7719,28.8734 L173.7719,33.4953 Q172.7094,32.5125 171.7,32.0609 Q170.6906,31.5828 169.6281,31.5828 Q167.3438,31.5828 166.175,33.4156 Q165.0063,35.2219 165.0063,38.7813 Q165.0063,42.3406 166.175,44.1734 Q167.3438,45.9797 169.6281,45.9797 Q170.6906,45.9797 171.7,45.5281 Q172.7094,45.05 173.7719,44.0672 L173.7719,48.6891 Z " fill="#000000"/><text fill="#000000" font-family="sans-serif" font-size="23.8" lengthAdjust="spacing" textLength="90.1" x="203.575" y="47.3394">Vehicle</text><line style="stroke:#181818;stroke-width:0.85;" x1="13.6" x2="428.4" y1="66.3" y2="66.3"/><rect fill="none" height="10.2" style="stroke:#C82930;stroke-width:1.7;" width="10.2" x="25.5" y="84.4023"/><text fill="#000000" font-family="sans-serif" font-size="23.8" lengthAdjust="spacing" textLength="139.4" x="45.9" y="95.1917">plateID : int</text><rect fill="none" height="10.2" style="stroke:#C82930;stroke-width:1.7;" width="10.2" x="25.5" y="112.107"/><text fill="#000000" font-family="sans-serif" font-size="23.8" lengthAdjust="spacing" textLength="158.1" x="45.9" y="122.8964">brand: String</text><rect fill="none" height="10.2" style="stroke:#C82930;stroke-width:1.7;" width="10.2" x="25.5" y="139.8117"/><text fill="#000000" font-family="sans-serif" font-size="23.8" lengthAdjust="spacing" textLength="163.2" x="45.9" y="150.6011">model: String</text><rect fill="none" height="10.2" style="stroke:#C82930;stroke-width:1.7;" width="10.2" x="25.5" y="167.5164"/><text fill="#000000" font-family="sans-serif" font-size="23.8" lengthAdjust="spacing" textLength="139.4" x="45.9" y="178.3058">type: String</text><rect fill="none" height="10.2" style="stroke:#C82930;stroke-width:1.7;" width="10.2" x="25.5" y="195.2211"/><text fill="#000000" font-family="sans-serif" font-size="23.8" lengthAdjust="spacing" textLength="221" x="45.9" y="206.0104">tareWeight: String</text><rect fill="none" height="10.2" style="stroke:#C82930;stroke-width:1.7;" width="10.2" x="25.5" y="222.9258"/><text fill="#000000" font-family="sans-serif" font-size="23.8" lengthAdjust="spacing" textLength="236.3" x="45.9" y="233.7151">grossWeight: String</text><rect fill="none" height="10.2" style="stroke:#C82930;stroke-width:1.7;" width="10.2" x="25.5" y="250.6305"/><text fill="#000000" font-family="sans-serif" font-size="23.8" lengthAdjust="spacing" textLength="214.2" x="45.9" y="261.4198">currentKm: String</text><rect fill="none" height="10.2" style="stroke:#C82930;stroke-width:1.7;" width="10.2" x="25.5" y="278.3352"/><text fill="#000000" font-family="sans-serif" font-size="23.8" lengthAdjust="spacing" textLength="238" x="45.9" y="289.1245">registerDate: String</text><rect fill="none" height="10.2" style="stroke:#C82930;stroke-width:1.7;" width="10.2" x="25.5" y="306.0398"/><text fill="#000000" font-family="sans-serif" font-size="23.8" lengthAdjust="spacing" textLength="275.4" x="45.9" y="316.8292">acquisitionDate: String</text><rect fill="none" height="10.2" style="stroke:#C82930;stroke-width:1.7;" width="10.2" x="25.5" y="333.7445"/><text fill="#000000" font-family="sans-serif" font-size="23.8" lengthAdjust="spacing" textLength="374" x="45.9" y="344.5339">maintenanceFrequency: String</text><line style="stroke:#181818;stroke-width:0.85;" x1="13.6" x2="428.4" y1="356.9469" y2="356.9469"/></g><!--SRC=[RSyn3i8m38NXlQVm1RX0vme9CIB1RDAdr5Bgj8upL8Yxqw4BKJr-lmSx92w5dfWa9D2detqkj2Hst0RgITGFUnlhsDF3JJGUDkSHgJ7V5hJ4XXSaJjw4QBcKqnAg6TJlS-E6ACLXmtvWapYiLOguP3sfC- -lG5a3heQrGiFsjz9zVm00]--></g></svg>