<?xml version="1.0" encoding="us-ascii" standalone="no"?><svg xmlns="http://www.w3.org/2000/svg" xmlns:xlink="http://www.w3.org/1999/xlink" contentStyleType="text/css" height="899px" preserveAspectRatio="none" style="width:1086px;height:899px;background:#FFFFFF;" version="1.1" viewBox="0 0 1086 899" width="1086px" zoomAndPan="magnify"><defs/><g><rect fill="#FFFFFF" height="704.9063" style="stroke:#181818;stroke-width:1.0;" width="10" x="91" y="93.6211"/><rect fill="#FFFFFF" height="203.0371" style="stroke:#181818;stroke-width:1.0;" width="10" x="451" y="116.9121"/><rect fill="#FFFFFF" height="31.291" style="stroke:#181818;stroke-width:1.0;" width="10" x="451" y="351.2402"/><rect fill="#FFFFFF" height="31.291" style="stroke:#181818;stroke-width:1.0;" width="10" x="451" y="448.4043"/><rect fill="#FFFFFF" height="287.541" style="stroke:#181818;stroke-width:1.0;" width="10" x="451" y="510.9863"/><rect fill="#FFFFFF" height="79.543" style="stroke:#181818;stroke-width:1.0;" width="10" x="637" y="191.8242"/><rect fill="#FFFFFF" height="256.25" style="stroke:#181818;stroke-width:1.0;" width="10" x="637" y="510.9863"/><rect fill="#FFFFFF" height="79.543" style="stroke:#181818;stroke-width:1.0;" width="10" x="990" y="656.4023"/><line style="stroke:#181818;stroke-width:0.5;stroke-dasharray:5.0,5.0;" x1="96" x2="96" y1="83.6211" y2="816.5273"/><line style="stroke:#181818;stroke-width:0.5;stroke-dasharray:5.0,5.0;" x1="455.5" x2="455.5" y1="83.6211" y2="816.5273"/><line style="stroke:#181818;stroke-width:0.5;stroke-dasharray:5.0,5.0;" x1="641.5" x2="641.5" y1="156.7227" y2="816.5273"/><line style="stroke:#181818;stroke-width:0.5;stroke-dasharray:5.0,5.0;" x1="995" x2="995" y1="83.6211" y2="816.5273"/><text fill="#000000" font-family="sans-serif" font-size="14" lengthAdjust="spacing" textLength="176" x="5" y="80.1074">Human Resources Manager</text><ellipse cx="96" cy="13.5" fill="#E3E3E3" rx="8" ry="8" style="stroke:#181818;stroke-width:0.5;"/><path d="M96,21.5 L96,48.5 M83,29.5 L109,29.5 M96,48.5 L83,63.5 M96,48.5 L109,63.5 " fill="none" style="stroke:#181818;stroke-width:0.5;"/><text fill="#000000" font-family="sans-serif" font-size="14" lengthAdjust="spacing" textLength="176" x="5" y="830.6348">Human Resources Manager</text><ellipse cx="96" cy="842.6484" fill="#E3E3E3" rx="8" ry="8" style="stroke:#181818;stroke-width:0.5;"/><path d="M96,850.6484 L96,877.6484 M83,858.6484 L109,858.6484 M96,877.6484 L83,892.6484 M96,877.6484 L109,892.6484 " fill="none" style="stroke:#181818;stroke-width:0.5;"/><rect fill="#E3E3E3" height="32.6211" rx="2.5" ry="2.5" style="stroke:#181818;stroke-width:0.5;" width="151" x="380.5" y="50"/><text fill="#000000" font-family="sans-serif" font-size="14" lengthAdjust="spacing" textLength="137" x="387.5" y="72.1074">:CreateCollaboratorUI</text><rect fill="#E3E3E3" height="32.6211" rx="2.5" ry="2.5" style="stroke:#181818;stroke-width:0.5;" width="151" x="380.5" y="815.5273"/><text fill="#000000" font-family="sans-serif" font-size="14" lengthAdjust="spacing" textLength="137" x="387.5" y="837.6348">:CreateCollaboratorUI</text><rect fill="#E3E3E3" height="32.6211" rx="2.5" ry="2.5" style="stroke:#181818;stroke-width:0.5;" width="201" x="541.5" y="815.5273"/><text fill="#000000" font-family="sans-serif" font-size="14" lengthAdjust="spacing" textLength="187" x="548.5" y="837.6348">:CreateCollaboratorController</text><rect fill="#E3E3E3" height="51.2422" rx="2.5" ry="2.5" style="stroke:#181818;stroke-width:0.5;" width="164" x="913" y="31.3789"/><text fill="#000000" font-family="sans-serif" font-size="14" lengthAdjust="spacing" textLength="150" x="920" y="53.4863">CollaboratorRepository:</text><text fill="#000000" font-family="sans-serif" font-size="14" lengthAdjust="spacing" textLength="146" x="922" y="72.1074">CollaboratorRepository</text><rect fill="#E3E3E3" height="51.2422" rx="2.5" ry="2.5" style="stroke:#181818;stroke-width:0.5;" width="164" x="913" y="815.5273"/><text fill="#000000" font-family="sans-serif" font-size="14" lengthAdjust="spacing" textLength="150" x="920" y="837.6348">CollaboratorRepository:</text><text fill="#000000" font-family="sans-serif" font-size="14" lengthAdjust="spacing" textLength="146" x="922" y="856.2559">CollaboratorRepository</text><rect fill="#FFFFFF" height="704.9063" style="stroke:#181818;stroke-width:1.0;" width="10" x="91" y="93.6211"/><rect fill="#FFFFFF" height="203.0371" style="stroke:#181818;stroke-width:1.0;" width="10" x="451" y="116.9121"/><rect fill="#FFFFFF" height="31.291" style="stroke:#181818;stroke-width:1.0;" width="10" x="451" y="351.2402"/><rect fill="#FFFFFF" height="31.291" style="stroke:#181818;stroke-width:1.0;" width="10" x="451" y="448.4043"/><rect fill="#FFFFFF" height="287.541" style="stroke:#181818;stroke-width:1.0;" width="10" x="451" y="510.9863"/><rect fill="#FFFFFF" height="79.543" style="stroke:#181818;stroke-width:1.0;" width="10" x="637" y="191.8242"/><rect fill="#FFFFFF" height="256.25" style="stroke:#181818;stroke-width:1.0;" width="10" x="637" y="510.9863"/><rect fill="#FFFFFF" height="79.543" style="stroke:#181818;stroke-width:1.0;" width="10" x="990" y="656.4023"/><polygon fill="#181818" points="439,112.9121,449,116.9121,439,120.9121,443,116.9121" style="stroke:#181818;stroke-width:1.0;"/><line style="stroke:#181818;stroke-width:1.0;" x1="101" x2="445" y1="116.9121" y2="116.9121"/><text fill="#000000" font-family="sans-serif" font-size="13" font-weight="bold" lengthAdjust="spacing" textLength="7" x="108" y="111.6494">1</text><text fill="#000000" font-family="sans-serif" font-size="13" lengthAdjust="spacing" textLength="192" x="119" y="111.6494">asks to create a new collaborator</text><polygon fill="#181818" points="529.5,144.2031,539.5,148.2031,529.5,152.2031,533.5,148.2031" style="stroke:#181818;stroke-width:1.0;"/><line style="stroke:#181818;stroke-width:1.0;" x1="461" x2="535.5" y1="148.2031" y2="148.2031"/><text fill="#000000" font-family="sans-serif" font-size="13" font-weight="bold" lengthAdjust="spacing" textLength="7" x="468" y="142.9404">2</text><text fill="#000000" font-family="sans-serif" font-size="13" lengthAdjust="spacing" textLength="36" x="479" y="142.9404">create</text><rect fill="#E3E3E3" height="32.6211" rx="2.5" ry="2.5" style="stroke:#181818;stroke-width:0.5;" width="201" x="541.5" y="124.9121"/><text fill="#000000" font-family="sans-serif" font-size="14" lengthAdjust="spacing" textLength="187" x="548.5" y="147.0195">:CreateCollaboratorController</text><polygon fill="#181818" points="625,187.8242,635,191.8242,625,195.8242,629,191.8242" style="stroke:#181818;stroke-width:1.0;"/><line style="stroke:#181818;stroke-width:1.0;" x1="461" x2="631" y1="191.8242" y2="191.8242"/><text fill="#000000" font-family="sans-serif" font-size="13" font-weight="bold" lengthAdjust="spacing" textLength="7" x="468" y="186.5615">3</text><text fill="#000000" font-family="sans-serif" font-size="13" lengthAdjust="spacing" textLength="53" x="479" y="186.5615">getJobs()</text><rect fill="none" height="43.252" style="stroke:#000000;stroke-width:1.5;" width="207" x="538.5" y="199.8242"/><path d="M538.5,199.8242 L600.5,199.8242 L600.5,208.8242 L590.5,218.8242 L538.5,218.8242 L538.5,199.8242 " fill="#EEEEEE" style="stroke:#000000;stroke-width:2.0;"/><text fill="#000000" font-family="sans-serif" font-size="13" font-weight="bold" lengthAdjust="spacing" textLength="17" x="551.5" y="215.8525">ref</text><text fill="#000000" font-family="sans-serif" font-size="12" lengthAdjust="spacing" textLength="61" x="611.5" y="235.7734">Get Job list</text><polygon fill="#181818" points="472,267.3672,462,271.3672,472,275.3672,468,271.3672" style="stroke:#181818;stroke-width:1.0;"/><line style="stroke:#181818;stroke-width:1.0;stroke-dasharray:2.0,2.0;" x1="466" x2="641" y1="271.3672" y2="271.3672"/><text fill="#000000" font-family="sans-serif" font-size="13" font-weight="bold" lengthAdjust="spacing" textLength="7" x="478" y="266.1045">4</text><text fill="#000000" font-family="sans-serif" font-size="13" lengthAdjust="spacing" textLength="45" x="489" y="266.1045">jobsList</text><polygon fill="#181818" points="112,315.9492,102,319.9492,112,323.9492,108,319.9492" style="stroke:#181818;stroke-width:1.0;"/><line style="stroke:#181818;stroke-width:1.0;stroke-dasharray:2.0,2.0;" x1="106" x2="455" y1="319.9492" y2="319.9492"/><text fill="#000000" font-family="sans-serif" font-size="13" font-weight="bold" lengthAdjust="spacing" textLength="7" x="118" y="306.041">5</text><text fill="#000000" font-family="sans-serif" font-size="13" lengthAdjust="spacing" textLength="107" x="129" y="297.3955">shows jobsList list</text><text fill="#000000" font-family="sans-serif" font-size="13" lengthAdjust="spacing" textLength="153" x="133" y="314.6865">and asks to select one job</text><polygon fill="#181818" points="439,347.2402,449,351.2402,439,355.2402,443,351.2402" style="stroke:#181818;stroke-width:1.0;"/><line style="stroke:#181818;stroke-width:1.0;" x1="101" x2="445" y1="351.2402" y2="351.2402"/><text fill="#000000" font-family="sans-serif" font-size="13" font-weight="bold" lengthAdjust="spacing" textLength="7" x="108" y="345.9775">6</text><text fill="#000000" font-family="sans-serif" font-size="13" lengthAdjust="spacing" textLength="74" x="119" y="345.9775">selects a job</text><polygon fill="#181818" points="112,378.5313,102,382.5313,112,386.5313,108,382.5313" style="stroke:#181818;stroke-width:1.0;"/><line style="stroke:#181818;stroke-width:1.0;stroke-dasharray:2.0,2.0;" x1="106" x2="455" y1="382.5313" y2="382.5313"/><text fill="#000000" font-family="sans-serif" font-size="13" font-weight="bold" lengthAdjust="spacing" textLength="7" x="118" y="377.2686">7</text><text fill="#000000" font-family="sans-serif" font-size="13" lengthAdjust="spacing" textLength="79" x="129" y="377.2686">requests data</text><polygon fill="#181818" points="439,444.4043,449,448.4043,439,452.4043,443,448.4043" style="stroke:#181818;stroke-width:1.0;"/><line style="stroke:#181818;stroke-width:1.0;" x1="101" x2="445" y1="448.4043" y2="448.4043"/><text fill="#000000" font-family="sans-serif" font-size="13" font-weight="bold" lengthAdjust="spacing" textLength="7" x="108" y="425.8506">8</text><text fill="#000000" font-family="sans-serif" font-size="13" lengthAdjust="spacing" textLength="320" x="119" y="408.5596">types requested data (name, birthDate, admissionDate,</text><text fill="#000000" font-family="sans-serif" font-size="13" lengthAdjust="spacing" textLength="280" x="119" y="425.8506">address, phoneNumber, email, taxpayerNumber,</text><text fill="#000000" font-family="sans-serif" font-size="13" lengthAdjust="spacing" textLength="127" x="119" y="443.1416">docType, docNumber)</text><polygon fill="#181818" points="112,475.6953,102,479.6953,112,483.6953,108,479.6953" style="stroke:#181818;stroke-width:1.0;"/><line style="stroke:#181818;stroke-width:1.0;stroke-dasharray:2.0,2.0;" x1="106" x2="455" y1="479.6953" y2="479.6953"/><text fill="#000000" font-family="sans-serif" font-size="13" font-weight="bold" lengthAdjust="spacing" textLength="7" x="118" y="474.4326">9</text><text fill="#000000" font-family="sans-serif" font-size="13" lengthAdjust="spacing" textLength="226" x="129" y="474.4326">shows selected job and requested data</text><polygon fill="#181818" points="439,506.9863,449,510.9863,439,514.9863,443,510.9863" style="stroke:#181818;stroke-width:1.0;"/><line style="stroke:#181818;stroke-width:1.0;" x1="101" x2="445" y1="510.9863" y2="510.9863"/><text fill="#000000" font-family="sans-serif" font-size="13" font-weight="bold" lengthAdjust="spacing" textLength="14" x="108" y="505.7236">10</text><text fill="#000000" font-family="sans-serif" font-size="13" lengthAdjust="spacing" textLength="75" x="126" y="505.7236">submits data</text><polygon fill="#181818" points="625,538.2773,635,542.2773,625,546.2773,629,542.2773" style="stroke:#181818;stroke-width:1.0;"/><line style="stroke:#181818;stroke-width:1.0;" x1="461" x2="631" y1="542.2773" y2="542.2773"/><text fill="#000000" font-family="sans-serif" font-size="13" font-weight="bold" lengthAdjust="spacing" textLength="14" x="468" y="537.0146">11</text><text fill="#000000" font-family="sans-serif" font-size="13" lengthAdjust="spacing" textLength="74" x="486" y="537.0146">submitData()</text><rect fill="none" height="43.252" style="stroke:#000000;stroke-width:1.5;" width="207" x="538.5" y="550.2773"/><path d="M538.5,550.2773 L600.5,550.2773 L600.5,559.2773 L590.5,569.2773 L538.5,569.2773 L538.5,550.2773 " fill="#EEEEEE" style="stroke:#000000;stroke-width:2.0;"/><text fill="#000000" font-family="sans-serif" font-size="13" font-weight="bold" lengthAdjust="spacing" textLength="17" x="551.5" y="566.3057">ref</text><text fill="#000000" font-family="sans-serif" font-size="12" lengthAdjust="spacing" textLength="139" x="572.5" y="586.2266">Get Task Collaborator list</text><polygon fill="#181818" points="978,652.4023,988,656.4023,978,660.4023,982,656.4023" style="stroke:#181818;stroke-width:1.0;"/><line style="stroke:#181818;stroke-width:1.0;" x1="647" x2="984" y1="656.4023" y2="656.4023"/><text fill="#000000" font-family="sans-serif" font-size="13" font-weight="bold" lengthAdjust="spacing" textLength="14" x="654" y="633.8486">12</text><text fill="#000000" font-family="sans-serif" font-size="13" lengthAdjust="spacing" textLength="306" x="672" y="616.5576">registerCollaborator(name, birthDate, admissionDate,</text><text fill="#000000" font-family="sans-serif" font-size="13" lengthAdjust="spacing" textLength="280" x="672" y="633.8486">address, phoneNumber, email, taxpayerNumber,</text><text fill="#000000" font-family="sans-serif" font-size="13" lengthAdjust="spacing" textLength="173" x="672" y="651.1396">docType, docNumber and job)</text><rect fill="none" height="43.252" style="stroke:#000000;stroke-width:1.5;" width="170" x="910" y="664.4023"/><path d="M910,664.4023 L972,664.4023 L972,673.4023 L962,683.4023 L910,683.4023 L910,664.4023 " fill="#EEEEEE" style="stroke:#000000;stroke-width:2.0;"/><text fill="#000000" font-family="sans-serif" font-size="13" font-weight="bold" lengthAdjust="spacing" textLength="17" x="923" y="680.4307">ref</text><text fill="#000000" font-family="sans-serif" font-size="12" lengthAdjust="spacing" textLength="118" x="936" y="700.3516">Register Collaborator</text><polygon fill="#181818" points="658,731.9453,648,735.9453,658,739.9453,654,735.9453" style="stroke:#181818;stroke-width:1.0;"/><line style="stroke:#181818;stroke-width:1.0;stroke-dasharray:2.0,2.0;" x1="652" x2="994" y1="735.9453" y2="735.9453"/><text fill="#000000" font-family="sans-serif" font-size="13" font-weight="bold" lengthAdjust="spacing" textLength="14" x="664" y="730.6826">13</text><text fill="#000000" font-family="sans-serif" font-size="13" lengthAdjust="spacing" textLength="67" x="682" y="730.6826">collaborator</text><polygon fill="#181818" points="472,763.2363,462,767.2363,472,771.2363,468,767.2363" style="stroke:#181818;stroke-width:1.0;"/><line style="stroke:#181818;stroke-width:1.0;stroke-dasharray:2.0,2.0;" x1="466" x2="641" y1="767.2363" y2="767.2363"/><text fill="#000000" font-family="sans-serif" font-size="13" font-weight="bold" lengthAdjust="spacing" textLength="14" x="478" y="761.9736">14</text><text fill="#000000" font-family="sans-serif" font-size="13" lengthAdjust="spacing" textLength="67" x="496" y="761.9736">collaborator</text><polygon fill="#181818" points="107,794.5273,97,798.5273,107,802.5273,103,798.5273" style="stroke:#181818;stroke-width:1.0;"/><line style="stroke:#181818;stroke-width:1.0;stroke-dasharray:2.0,2.0;" x1="101" x2="455" y1="798.5273" y2="798.5273"/><text fill="#000000" font-family="sans-serif" font-size="13" font-weight="bold" lengthAdjust="spacing" textLength="14" x="113" y="793.2646">15</text><text fill="#000000" font-family="sans-serif" font-size="13" lengthAdjust="spacing" textLength="223" x="131" y="793.2646">Confirms the success of the operation.</text><!--SRC=[xLPDSzem4BthL-paKkX09j2aC_KXqob9ar1eCuIa5owolM0rjkHACWd_lciRWzqOGW-PwS4wsTA-jnzwajOy2XbppIE8b5HUe5M4O7M2p6nMOkuzyWNUsLM8eD6pN2x2ie49kA-UX5p0d8S66UE9LJA9NDIClGk4Zp1NohhgcN7FAWr7rqd49KpGg4HxQ63C9NdGHy0DN4_6Z7Yjy4JCfOKZPw2HMnoeCEIkqfmOxcyoq_kRLoq7IbfD_slomNGogcBAnXECbH7qiN9ciduXPwbTOcbsOaa1P3amM0_wWUuv1GiEWHyDM0LU5YXmaFW4Nebk2zkGKPQRoNGG4T6bcRn_JvGvLTMaQaP62xH3vPfM-uNPnarMcc9MunpK4dLrDXrNQ86e81J6RXPG-Yc4PTwwHRA_oEEeR9OE7wiUNwH6wBHY3ibAFPaDIUPm9e6JgwAA1aEI8oY9gHchSL7Khhm7ESfGyGjGRQahiMZydQ0XaCyjPmSuiQkOTBs6eP_Xe2LvX1rmXRR11I4xmFr862EKp7vdalk-HcCw40UKrVVi37K08ox23bZ-7FCLwlNqJFhAcvAV3j17Fja-C9-yjdabA3egH5ROQho7v6aIDnBbkfIjw_LL4MQEf-mvQVE5E7VBi2p7AUcXSYQhulnRfBKynSWLVBxZY6TAM10vwhB1s-zhjZkqI-tzqM-BlUE6sWVU5hiU3A-CoReo5VnUr64xKhyJtQs6l4FzrTr1_rYeqWrteEEz5rxzvUTGM78kT4ItN81qHZnw90seUVQhOYIFfAtZUgwQ4xjZkV9C5UCpxKeIXQpqmBzLRz1q0qqtq7G3JJVGT0DDDz1q0_ztDt0RqWDvFnu1QIALClIE-oVzq-CFhMcGm5TqeNS6lK_EwObpSWO_BwUGBhTPw-fs1FdB3ZufGWitISDjio5VSfWaqee87VWHennUV2icu58kXLOoGcdPy66yDVXuslqYBDoXJjNvC6ONEET9Q0dXAPyw3QfNtEkVzTc8cf64EWa7Oii6YeZfAOVRwHy0]--></g></svg>