<?xml version="1.0" encoding="UTF-8" standalone="no"?>
<!DOCTYPE svg PUBLIC "-//W3C//DTD SVG 1.1//EN"
 "http://www.w3.org/Graphics/SVG/1.1/DTD/svg11.dtd">
<!-- Generated by graphviz version 11.0.0 (20240428.1522)
 -->
<!-- Title: GraphRep Pages: 1 -->
<svg width="565pt" height="2876pt"
 viewBox="0.00 0.00 564.75 2876.00" xmlns="http://www.w3.org/2000/svg" xmlns:xlink="http://www.w3.org/1999/xlink">
<g id="graph0" class="graph" transform="scale(1 1) rotate(0) translate(4 2872)">
<title>GraphRep</title>
<polygon fill="white" stroke="none" points="-4,4 -4,-2872 560.75,-2872 560.75,4 -4,4"/>
<!-- 0 -->
<g id="node1" class="node">
<title>0</title>
<ellipse fill="none" stroke="black" cx="312" cy="-2850" rx="27" ry="18"/>
<text text-anchor="middle" x="312" y="-2844.95" font-family="Times,serif" font-size="14.00">0</text>
</g>
<!-- 1 -->
<g id="node2" class="node">
<title>1</title>
<ellipse fill="none" stroke="black" cx="249" cy="-2761.5" rx="27" ry="18"/>
<text text-anchor="middle" x="249" y="-2756.45" font-family="Times,serif" font-size="14.00">1</text>
</g>
<!-- 0&#45;&#45;1 -->
<g id="edge1" class="edge">
<title>0&#45;&#45;1</title>
<path fill="none" stroke="black" d="M300.74,-2833.54C289.34,-2817.89 271.82,-2793.83 260.38,-2778.12"/>
<text text-anchor="middle" x="289.38" y="-2800.7" font-family="Times,serif" font-size="14.00">2</text>
</g>
<!-- 2 -->
<g id="node3" class="node">
<title>2</title>
<ellipse fill="none" stroke="black" cx="296" cy="-2673" rx="27" ry="18"/>
<text text-anchor="middle" x="296" y="-2667.95" font-family="Times,serif" font-size="14.00">2</text>
</g>
<!-- 0&#45;&#45;2 -->
<g id="edge2" class="edge">
<title>0&#45;&#45;2</title>
<path fill="none" stroke="black" d="M310.41,-2831.58C307.34,-2798.04 300.65,-2724.84 297.59,-2691.35"/>
<text text-anchor="middle" x="308.38" y="-2756.45" font-family="Times,serif" font-size="14.00">3</text>
</g>
<!-- 7 -->
<g id="node4" class="node">
<title>7</title>
<ellipse fill="none" stroke="black" cx="351" cy="-2407.5" rx="27" ry="18"/>
<text text-anchor="middle" x="351" y="-2402.45" font-family="Times,serif" font-size="14.00">7</text>
</g>
<!-- 0&#45;&#45;7 -->
<g id="edge3" class="edge">
<title>0&#45;&#45;7</title>
<path fill="none" stroke="black" d="M323.91,-2833.37C335.38,-2816.74 351,-2789.19 351,-2762.5 351,-2762.5 351,-2762.5 351,-2495 351,-2470.97 351,-2443.19 351,-2425.73"/>
<text text-anchor="middle" x="354.38" y="-2623.7" font-family="Times,serif" font-size="14.00">3</text>
</g>
<!-- 1&#45;&#45;2 -->
<g id="edge4" class="edge">
<title>1&#45;&#45;2</title>
<path fill="none" stroke="black" d="M257.84,-2744.23C266.24,-2728.77 278.81,-2705.64 287.2,-2690.2"/>
<text text-anchor="middle" x="279.38" y="-2712.2" font-family="Times,serif" font-size="14.00">2</text>
</g>
<!-- 3 -->
<g id="node5" class="node">
<title>3</title>
<ellipse fill="none" stroke="black" cx="291" cy="-2584.5" rx="27" ry="18"/>
<text text-anchor="middle" x="291" y="-2579.45" font-family="Times,serif" font-size="14.00">3</text>
</g>
<!-- 1&#45;&#45;3 -->
<g id="edge5" class="edge">
<title>1&#45;&#45;3</title>
<path fill="none" stroke="black" d="M247.34,-2743.33C245.82,-2722.14 244.92,-2685.22 253.25,-2655 258.72,-2635.14 270.74,-2614.7 279.76,-2601.17"/>
<text text-anchor="middle" x="256.38" y="-2667.95" font-family="Times,serif" font-size="14.00">3</text>
</g>
<!-- 2&#45;&#45;3 -->
<g id="edge6" class="edge">
<title>2&#45;&#45;3</title>
<path fill="none" stroke="black" d="M295.01,-2654.91C294.14,-2639.84 292.88,-2617.99 292,-2602.85"/>
<text text-anchor="middle" x="296.38" y="-2623.7" font-family="Times,serif" font-size="14.00">5</text>
</g>
<!-- 8 -->
<g id="node9" class="node">
<title>8</title>
<ellipse fill="none" stroke="black" cx="279" cy="-2319" rx="27" ry="18"/>
<text text-anchor="middle" x="279" y="-2313.95" font-family="Times,serif" font-size="14.00">8</text>
</g>
<!-- 7&#45;&#45;8 -->
<g id="edge11" class="edge">
<title>7&#45;&#45;8</title>
<path fill="none" stroke="black" d="M338.46,-2391.43C325.32,-2375.65 304.81,-2351.01 291.64,-2335.18"/>
<text text-anchor="middle" x="324.38" y="-2358.2" font-family="Times,serif" font-size="14.00">6</text>
</g>
<!-- 14 -->
<g id="node10" class="node">
<title>14</title>
<ellipse fill="none" stroke="black" cx="330" cy="-1788" rx="27" ry="18"/>
<text text-anchor="middle" x="330" y="-1782.95" font-family="Times,serif" font-size="14.00">14</text>
</g>
<!-- 7&#45;&#45;14 -->
<g id="edge12" class="edge">
<title>7&#45;&#45;14</title>
<path fill="none" stroke="black" d="M351,-2389.27C351,-2371.81 351,-2344.03 351,-2320 351,-2320 351,-2320 351,-1875.5 351,-1850.77 342.8,-1823.17 336.64,-1805.94"/>
<text text-anchor="middle" x="354.38" y="-2092.7" font-family="Times,serif" font-size="14.00">5</text>
</g>
<!-- AP1 -->
<g id="node11" class="node">
<title>AP1</title>
<ellipse fill="none" stroke="black" cx="410" cy="-1611" rx="27.3" ry="18"/>
<text text-anchor="middle" x="410" y="-1605.95" font-family="Times,serif" font-size="14.00">AP1</text>
</g>
<!-- 7&#45;&#45;AP1 -->
<g id="edge13" class="edge">
<title>7&#45;&#45;AP1</title>
<path fill="none" stroke="black" d="M371.23,-2395.34C394.04,-2381.11 428,-2354.18 428,-2320 428,-2320 428,-2320 428,-1698.5 428,-1673.96 420.97,-1646.3 415.7,-1629.02"/>
<text text-anchor="middle" x="431.38" y="-2004.2" font-family="Times,serif" font-size="14.00">6</text>
</g>
<!-- 5 -->
<g id="node6" class="node">
<title>5</title>
<ellipse fill="none" stroke="black" cx="279" cy="-2496" rx="27" ry="18"/>
<text text-anchor="middle" x="279" y="-2490.95" font-family="Times,serif" font-size="14.00">5</text>
</g>
<!-- 3&#45;&#45;5 -->
<g id="edge7" class="edge">
<title>3&#45;&#45;5</title>
<path fill="none" stroke="black" d="M288.63,-2566.41C286.54,-2551.34 283.51,-2529.49 281.41,-2514.35"/>
<text text-anchor="middle" x="289.38" y="-2535.2" font-family="Times,serif" font-size="14.00">2</text>
</g>
<!-- 6 -->
<g id="node8" class="node">
<title>6</title>
<ellipse fill="none" stroke="black" cx="279" cy="-2407.5" rx="27" ry="18"/>
<text text-anchor="middle" x="279" y="-2402.45" font-family="Times,serif" font-size="14.00">6</text>
</g>
<!-- 5&#45;&#45;6 -->
<g id="edge9" class="edge">
<title>5&#45;&#45;6</title>
<path fill="none" stroke="black" d="M279,-2477.91C279,-2462.84 279,-2440.99 279,-2425.85"/>
<text text-anchor="middle" x="282.38" y="-2446.7" font-family="Times,serif" font-size="14.00">2</text>
</g>
<!-- AP5 -->
<g id="node7" class="node">
<title>AP5</title>
<ellipse fill="none" stroke="black" cx="219" cy="-2584.5" rx="27.3" ry="18"/>
<text text-anchor="middle" x="219" y="-2579.45" font-family="Times,serif" font-size="14.00">AP5</text>
</g>
<!-- AP5&#45;&#45;5 -->
<g id="edge8" class="edge">
<title>AP5&#45;&#45;5</title>
<path fill="none" stroke="black" d="M230,-2567.63C240.83,-2552.03 257.26,-2528.34 268.06,-2512.76"/>
<text text-anchor="middle" x="257.38" y="-2535.2" font-family="Times,serif" font-size="14.00">3</text>
</g>
<!-- 6&#45;&#45;8 -->
<g id="edge10" class="edge">
<title>6&#45;&#45;8</title>
<path fill="none" stroke="black" d="M279,-2389.41C279,-2374.34 279,-2352.49 279,-2337.35"/>
<text text-anchor="middle" x="282.38" y="-2358.2" font-family="Times,serif" font-size="14.00">5</text>
</g>
<!-- 9 -->
<g id="node12" class="node">
<title>9</title>
<ellipse fill="none" stroke="black" cx="279" cy="-2230.5" rx="27" ry="18"/>
<text text-anchor="middle" x="279" y="-2225.45" font-family="Times,serif" font-size="14.00">9</text>
</g>
<!-- 8&#45;&#45;9 -->
<g id="edge14" class="edge">
<title>8&#45;&#45;9</title>
<path fill="none" stroke="black" d="M279,-2300.91C279,-2285.84 279,-2263.99 279,-2248.85"/>
<text text-anchor="middle" x="282.38" y="-2269.7" font-family="Times,serif" font-size="14.00">2</text>
</g>
<!-- AP4 -->
<g id="node13" class="node">
<title>AP4</title>
<ellipse fill="none" stroke="black" cx="226" cy="-2142" rx="27.3" ry="18"/>
<text text-anchor="middle" x="226" y="-2136.95" font-family="Times,serif" font-size="14.00">AP4</text>
</g>
<!-- 8&#45;&#45;AP4 -->
<g id="edge15" class="edge">
<title>8&#45;&#45;AP4</title>
<path fill="none" stroke="black" d="M266.76,-2302.75C256.71,-2289.31 243.06,-2268.78 236.25,-2248.5 226.23,-2218.67 225.02,-2181.62 225.32,-2160.3"/>
<text text-anchor="middle" x="240.38" y="-2225.45" font-family="Times,serif" font-size="14.00">5</text>
</g>
<!-- 14&#45;&#45;AP1 -->
<g id="edge27" class="edge">
<title>14&#45;&#45;AP1</title>
<path fill="none" stroke="black" d="M338.97,-1770.62C346.5,-1756.66 357.38,-1735.97 366,-1717.5 380.43,-1686.57 395.33,-1649.58 403.56,-1628.63"/>
<text text-anchor="middle" x="384.38" y="-1694.45" font-family="Times,serif" font-size="14.00">7</text>
</g>
<!-- 15 -->
<g id="node20" class="node">
<title>15</title>
<ellipse fill="none" stroke="black" cx="330" cy="-1699.5" rx="27" ry="18"/>
<text text-anchor="middle" x="330" y="-1694.45" font-family="Times,serif" font-size="14.00">15</text>
</g>
<!-- 14&#45;&#45;15 -->
<g id="edge26" class="edge">
<title>14&#45;&#45;15</title>
<path fill="none" stroke="black" d="M330,-1769.91C330,-1754.84 330,-1732.99 330,-1717.85"/>
<text text-anchor="middle" x="333.38" y="-1738.7" font-family="Times,serif" font-size="14.00">3</text>
</g>
<!-- 17 -->
<g id="node21" class="node">
<title>17</title>
<ellipse fill="none" stroke="black" cx="437" cy="-1522.5" rx="27" ry="18"/>
<text text-anchor="middle" x="437" y="-1517.45" font-family="Times,serif" font-size="14.00">17</text>
</g>
<!-- AP1&#45;&#45;17 -->
<g id="edge29" class="edge">
<title>AP1&#45;&#45;17</title>
<path fill="none" stroke="black" d="M415.33,-1592.91C420.07,-1577.75 426.95,-1555.71 431.68,-1540.55"/>
<text text-anchor="middle" x="428.38" y="-1561.7" font-family="Times,serif" font-size="14.00">8</text>
</g>
<!-- 18 -->
<g id="node22" class="node">
<title>18</title>
<ellipse fill="none" stroke="black" cx="437" cy="-1434" rx="27" ry="18"/>
<text text-anchor="middle" x="437" y="-1428.95" font-family="Times,serif" font-size="14.00">18</text>
</g>
<!-- AP1&#45;&#45;18 -->
<g id="edge30" class="edge">
<title>AP1&#45;&#45;18</title>
<path fill="none" stroke="black" d="M403.22,-1593.28C395.67,-1572.24 385.58,-1535.15 394.25,-1504.5 400.07,-1483.92 413.9,-1463.44 424.26,-1450.1"/>
<text text-anchor="middle" x="397.38" y="-1517.45" font-family="Times,serif" font-size="14.00">7</text>
</g>
<!-- 19 -->
<g id="node23" class="node">
<title>19</title>
<ellipse fill="none" stroke="black" cx="457" cy="-1345.5" rx="27" ry="18"/>
<text text-anchor="middle" x="457" y="-1340.45" font-family="Times,serif" font-size="14.00">19</text>
</g>
<!-- AP1&#45;&#45;19 -->
<g id="edge31" class="edge">
<title>AP1&#45;&#45;19</title>
<path fill="none" stroke="black" d="M427.74,-1596.84C443.01,-1584.3 463.97,-1563.9 473,-1540.5 496.84,-1478.7 474.8,-1397.81 463.15,-1363.29"/>
<text text-anchor="middle" x="486.38" y="-1473.2" font-family="Times,serif" font-size="14.00">8</text>
</g>
<!-- 9&#45;&#45;14 -->
<g id="edge17" class="edge">
<title>9&#45;&#45;14</title>
<path fill="none" stroke="black" d="M289.39,-2213.65C299.38,-2196.84 313,-2169.14 313,-2143 313,-2143 313,-2143 313,-1875.5 313,-1851.01 319.64,-1823.35 324.62,-1806.04"/>
<text text-anchor="middle" x="316.38" y="-2004.2" font-family="Times,serif" font-size="14.00">3</text>
</g>
<!-- 9&#45;&#45;AP4 -->
<g id="edge16" class="edge">
<title>9&#45;&#45;AP4</title>
<path fill="none" stroke="black" d="M269.28,-2213.63C259.78,-2198.12 245.38,-2174.63 235.84,-2159.06"/>
<text text-anchor="middle" x="260.38" y="-2181.2" font-family="Times,serif" font-size="14.00">2</text>
</g>
<!-- 11 -->
<g id="node14" class="node">
<title>11</title>
<ellipse fill="none" stroke="black" cx="223" cy="-2053.5" rx="27" ry="18"/>
<text text-anchor="middle" x="223" y="-2048.45" font-family="Times,serif" font-size="14.00">11</text>
</g>
<!-- AP4&#45;&#45;11 -->
<g id="edge18" class="edge">
<title>AP4&#45;&#45;11</title>
<path fill="none" stroke="black" d="M225.41,-2123.91C224.88,-2108.84 224.13,-2086.99 223.6,-2071.85"/>
<text text-anchor="middle" x="228.38" y="-2092.7" font-family="Times,serif" font-size="14.00">2</text>
</g>
<!-- 36 -->
<g id="node15" class="node">
<title>36</title>
<ellipse fill="none" stroke="black" cx="61" cy="-18" rx="27" ry="18"/>
<text text-anchor="middle" x="61" y="-12.95" font-family="Times,serif" font-size="14.00">36</text>
</g>
<!-- AP4&#45;&#45;36 -->
<g id="edge19" class="edge">
<title>AP4&#45;&#45;36</title>
<path fill="none" stroke="black" d="M199.63,-2136.66C140.02,-2126.11 0,-2096.83 0,-2054.5 0,-2054.5 0,-2054.5 0,-105.5 0,-75 25.65,-47.68 43.68,-32.25"/>
<text text-anchor="middle" x="3.38" y="-1074.95" font-family="Times,serif" font-size="14.00">3</text>
</g>
<!-- 11&#45;&#45;36 -->
<g id="edge21" class="edge">
<title>11&#45;&#45;36</title>
<path fill="none" stroke="black" d="M195.7,-2051.84C144.24,-2048.99 38,-2034.78 38,-1966 38,-1966 38,-1966 38,-105.5 38,-80.48 47.1,-52.72 53.85,-35.56"/>
<text text-anchor="middle" x="41.38" y="-1030.7" font-family="Times,serif" font-size="14.00">2</text>
</g>
<!-- 12 -->
<g id="node16" class="node">
<title>12</title>
<ellipse fill="none" stroke="black" cx="223" cy="-1965" rx="27" ry="18"/>
<text text-anchor="middle" x="223" y="-1959.95" font-family="Times,serif" font-size="14.00">12</text>
</g>
<!-- 11&#45;&#45;12 -->
<g id="edge20" class="edge">
<title>11&#45;&#45;12</title>
<path fill="none" stroke="black" d="M223,-2035.41C223,-2020.34 223,-1998.49 223,-1983.35"/>
<text text-anchor="middle" x="226.38" y="-2004.2" font-family="Times,serif" font-size="14.00">1</text>
</g>
<!-- 13 -->
<g id="node17" class="node">
<title>13</title>
<ellipse fill="none" stroke="black" cx="220" cy="-1876.5" rx="27" ry="18"/>
<text text-anchor="middle" x="220" y="-1871.45" font-family="Times,serif" font-size="14.00">13</text>
</g>
<!-- 12&#45;&#45;13 -->
<g id="edge22" class="edge">
<title>12&#45;&#45;13</title>
<path fill="none" stroke="black" d="M222.41,-1946.91C221.88,-1931.84 221.13,-1909.99 220.6,-1894.85"/>
<text text-anchor="middle" x="225.38" y="-1915.7" font-family="Times,serif" font-size="14.00">1</text>
</g>
<!-- 37 -->
<g id="node18" class="node">
<title>37</title>
<ellipse fill="none" stroke="black" cx="258" cy="-283.5" rx="27" ry="18"/>
<text text-anchor="middle" x="258" y="-278.45" font-family="Times,serif" font-size="14.00">37</text>
</g>
<!-- 12&#45;&#45;37 -->
<g id="edge23" class="edge">
<title>12&#45;&#45;37</title>
<path fill="none" stroke="black" d="M238.32,-1949.65C253.66,-1933.65 275,-1906.24 275,-1877.5 275,-1877.5 275,-1877.5 275,-946.25 275,-749.89 309,-702.11 309,-505.75 309,-505.75 309,-505.75 309,-371 309,-342.41 288.07,-314.95 273.03,-298.91"/>
<text text-anchor="middle" x="278.38" y="-1119.2" font-family="Times,serif" font-size="14.00">2</text>
</g>
<!-- 13&#45;&#45;14 -->
<g id="edge24" class="edge">
<title>13&#45;&#45;14</title>
<path fill="none" stroke="black" d="M236.71,-1862.36C257.38,-1846.1 292.39,-1818.58 313.14,-1802.26"/>
<text text-anchor="middle" x="287.38" y="-1827.2" font-family="Times,serif" font-size="14.00">4</text>
</g>
<!-- 40 -->
<g id="node19" class="node">
<title>40</title>
<ellipse fill="none" stroke="black" cx="442" cy="-18" rx="27" ry="18"/>
<text text-anchor="middle" x="442" y="-12.95" font-family="Times,serif" font-size="14.00">40</text>
</g>
<!-- 13&#45;&#45;40 -->
<g id="edge25" class="edge">
<title>13&#45;&#45;40</title>
<path fill="none" stroke="black" d="M196.34,-1867.41C166.21,-1855.43 118,-1829.86 118,-1789 118,-1789 118,-1789 118,-592.25 118,-516.05 190.52,-334.89 222,-265.5 259.98,-181.79 273.68,-161.91 329,-88.5 341.59,-71.8 343.92,-66.07 361,-54 378.51,-41.62 401.1,-32.31 417.97,-26.42"/>
<text text-anchor="middle" x="121.38" y="-942.2" font-family="Times,serif" font-size="14.00">5</text>
</g>
<!-- 38 -->
<g id="node41" class="node">
<title>38</title>
<ellipse fill="none" stroke="black" cx="321" cy="-195" rx="27" ry="18"/>
<text text-anchor="middle" x="321" y="-189.95" font-family="Times,serif" font-size="14.00">38</text>
</g>
<!-- 37&#45;&#45;38 -->
<g id="edge69" class="edge">
<title>37&#45;&#45;38</title>
<path fill="none" stroke="black" d="M269.26,-267.04C280.66,-251.39 298.18,-227.33 309.62,-211.62"/>
<text text-anchor="middle" x="298.38" y="-234.2" font-family="Times,serif" font-size="14.00">3</text>
</g>
<!-- 15&#45;&#45;AP1 -->
<g id="edge28" class="edge">
<title>15&#45;&#45;AP1</title>
<path fill="none" stroke="black" d="M341.68,-1683.17C349.89,-1672.68 361.31,-1658.62 372.25,-1647 379.11,-1639.71 387.19,-1632.1 394.12,-1625.85"/>
<text text-anchor="middle" x="375.38" y="-1650.2" font-family="Times,serif" font-size="14.00">5</text>
</g>
<!-- 17&#45;&#45;40 -->
<g id="edge33" class="edge">
<title>17&#45;&#45;40</title>
<path fill="none" stroke="black" d="M447.63,-1505.66C475.76,-1463.13 550,-1346.68 550,-1302.25 550,-1302.25 550,-1302.25 550,-105.5 550,-62.86 498.08,-37.77 466.24,-26.38"/>
<text text-anchor="middle" x="553.38" y="-765.2" font-family="Times,serif" font-size="14.00">6</text>
</g>
<!-- 17&#45;&#45;18 -->
<g id="edge32" class="edge">
<title>17&#45;&#45;18</title>
<path fill="none" stroke="black" d="M437,-1504.41C437,-1489.34 437,-1467.49 437,-1452.35"/>
<text text-anchor="middle" x="440.38" y="-1473.2" font-family="Times,serif" font-size="14.00">3</text>
</g>
<!-- 18&#45;&#45;40 -->
<g id="edge36" class="edge">
<title>18&#45;&#45;40</title>
<path fill="none" stroke="black" d="M457.1,-1421.46C479.31,-1407.03 512,-1380.09 512,-1346.5 512,-1346.5 512,-1346.5 512,-105.5 512,-73.04 481.85,-45.93 461.13,-31.13"/>
<text text-anchor="middle" x="515.38" y="-720.95" font-family="Times,serif" font-size="14.00">9</text>
</g>
<!-- 18&#45;&#45;19 -->
<g id="edge34" class="edge">
<title>18&#45;&#45;19</title>
<path fill="none" stroke="black" d="M440.95,-1415.91C444.46,-1400.75 449.55,-1378.71 453.06,-1363.55"/>
<text text-anchor="middle" x="451.38" y="-1384.7" font-family="Times,serif" font-size="14.00">3</text>
</g>
<!-- 20 -->
<g id="node24" class="node">
<title>20</title>
<ellipse fill="none" stroke="black" cx="431" cy="-1257" rx="27" ry="18"/>
<text text-anchor="middle" x="431" y="-1251.95" font-family="Times,serif" font-size="14.00">20</text>
</g>
<!-- 18&#45;&#45;20 -->
<g id="edge35" class="edge">
<title>18&#45;&#45;20</title>
<path fill="none" stroke="black" d="M429.85,-1416.24C424.35,-1402.39 417.21,-1382.06 414.25,-1363.5 409.25,-1332.18 418.41,-1295.63 425.03,-1274.81"/>
<text text-anchor="middle" x="417.38" y="-1340.45" font-family="Times,serif" font-size="14.00">5</text>
</g>
<!-- 19&#45;&#45;20 -->
<g id="edge37" class="edge">
<title>19&#45;&#45;20</title>
<path fill="none" stroke="black" d="M451.86,-1327.41C447.31,-1312.25 440.68,-1290.21 436.13,-1275.05"/>
<text text-anchor="middle" x="449.38" y="-1296.2" font-family="Times,serif" font-size="14.00">1</text>
</g>
<!-- 21 -->
<g id="node25" class="node">
<title>21</title>
<ellipse fill="none" stroke="black" cx="395" cy="-1168.5" rx="27" ry="18"/>
<text text-anchor="middle" x="395" y="-1163.45" font-family="Times,serif" font-size="14.00">21</text>
</g>
<!-- 20&#45;&#45;21 -->
<g id="edge38" class="edge">
<title>20&#45;&#45;21</title>
<path fill="none" stroke="black" d="M424.06,-1239.32C417.68,-1224 408.29,-1201.43 401.92,-1186.13"/>
<text text-anchor="middle" x="419.38" y="-1207.7" font-family="Times,serif" font-size="14.00">4</text>
</g>
<!-- 22 -->
<g id="node26" class="node">
<title>22</title>
<ellipse fill="none" stroke="black" cx="428" cy="-1080" rx="27" ry="18"/>
<text text-anchor="middle" x="428" y="-1074.95" font-family="Times,serif" font-size="14.00">22</text>
</g>
<!-- 20&#45;&#45;22 -->
<g id="edge39" class="edge">
<title>20&#45;&#45;22</title>
<path fill="none" stroke="black" d="M431.23,-1238.82C431.45,-1217.94 431.67,-1181.63 431,-1150.5 430.62,-1132.75 429.68,-1112.47 428.96,-1098.42"/>
<text text-anchor="middle" x="434.38" y="-1163.45" font-family="Times,serif" font-size="14.00">4</text>
</g>
<!-- 21&#45;&#45;22 -->
<g id="edge40" class="edge">
<title>21&#45;&#45;22</title>
<path fill="none" stroke="black" d="M401.36,-1150.82C407.17,-1135.6 415.71,-1113.22 421.54,-1097.92"/>
<text text-anchor="middle" x="417.38" y="-1119.2" font-family="Times,serif" font-size="14.00">4</text>
</g>
<!-- 22&#45;&#45;40 -->
<g id="edge43" class="edge">
<title>22&#45;&#45;40</title>
<path fill="none" stroke="black" d="M439.61,-1063.33C450.78,-1046.65 466,-1019.07 466,-992.5 466,-992.5 466,-992.5 466,-105.5 466,-80.41 456.51,-52.66 449.46,-35.53"/>
<text text-anchor="middle" x="469.38" y="-543.95" font-family="Times,serif" font-size="14.00">3</text>
</g>
<!-- 23 -->
<g id="node27" class="node">
<title>23</title>
<ellipse fill="none" stroke="black" cx="373" cy="-991.5" rx="27" ry="18"/>
<text text-anchor="middle" x="373" y="-986.45" font-family="Times,serif" font-size="14.00">23</text>
</g>
<!-- 22&#45;&#45;23 -->
<g id="edge41" class="edge">
<title>22&#45;&#45;23</title>
<path fill="none" stroke="black" d="M417.91,-1063.13C408.05,-1047.62 393.11,-1024.13 383.21,-1008.56"/>
<text text-anchor="middle" x="408.38" y="-1030.7" font-family="Times,serif" font-size="14.00">2</text>
</g>
<!-- 25 -->
<g id="node28" class="node">
<title>25</title>
<ellipse fill="none" stroke="black" cx="390" cy="-814.5" rx="27" ry="18"/>
<text text-anchor="middle" x="390" y="-809.45" font-family="Times,serif" font-size="14.00">25</text>
</g>
<!-- 22&#45;&#45;25 -->
<g id="edge42" class="edge">
<title>22&#45;&#45;25</title>
<path fill="none" stroke="black" d="M426.55,-1061.68C423.18,-1023.38 413.95,-928.66 399,-850.5 397.87,-844.58 396.32,-838.18 394.83,-832.49"/>
<text text-anchor="middle" x="417.38" y="-942.2" font-family="Times,serif" font-size="14.00">3</text>
</g>
<!-- 23&#45;&#45;25 -->
<g id="edge45" class="edge">
<title>23&#45;&#45;25</title>
<path fill="none" stroke="black" d="M374.69,-973.08C377.95,-939.54 385.06,-866.34 388.31,-832.85"/>
<text text-anchor="middle" x="386.38" y="-897.95" font-family="Times,serif" font-size="14.00">3</text>
</g>
<!-- AP2 -->
<g id="node29" class="node">
<title>AP2</title>
<ellipse fill="none" stroke="black" cx="330" cy="-903" rx="27.3" ry="18"/>
<text text-anchor="middle" x="330" y="-897.95" font-family="Times,serif" font-size="14.00">AP2</text>
</g>
<!-- 23&#45;&#45;AP2 -->
<g id="edge44" class="edge">
<title>23&#45;&#45;AP2</title>
<path fill="none" stroke="black" d="M364.91,-974.23C357.27,-958.86 345.87,-935.93 338.2,-920.49"/>
<text text-anchor="middle" x="358.38" y="-942.2" font-family="Times,serif" font-size="14.00">1</text>
</g>
<!-- 26 -->
<g id="node30" class="node">
<title>26</title>
<ellipse fill="none" stroke="black" cx="345" cy="-726" rx="27" ry="18"/>
<text text-anchor="middle" x="345" y="-720.95" font-family="Times,serif" font-size="14.00">26</text>
</g>
<!-- 25&#45;&#45;26 -->
<g id="edge48" class="edge">
<title>25&#45;&#45;26</title>
<path fill="none" stroke="black" d="M381.54,-797.23C373.54,-781.86 361.61,-758.93 353.58,-743.49"/>
<text text-anchor="middle" x="374.38" y="-765.2" font-family="Times,serif" font-size="14.00">2</text>
</g>
<!-- AP2&#45;&#45;25 -->
<g id="edge46" class="edge">
<title>AP2&#45;&#45;25</title>
<path fill="none" stroke="black" d="M341,-886.13C351.83,-870.53 368.26,-846.84 379.06,-831.26"/>
<text text-anchor="middle" x="368.38" y="-853.7" font-family="Times,serif" font-size="14.00">6</text>
</g>
<!-- AP2&#45;&#45;26 -->
<g id="edge47" class="edge">
<title>AP2&#45;&#45;26</title>
<path fill="none" stroke="black" d="M331.49,-884.58C334.37,-851.04 340.64,-777.84 343.51,-744.35"/>
<text text-anchor="middle" x="341.38" y="-809.45" font-family="Times,serif" font-size="14.00">8</text>
</g>
<!-- 27 -->
<g id="node31" class="node">
<title>27</title>
<ellipse fill="none" stroke="black" cx="364" cy="-460.5" rx="27" ry="18"/>
<text text-anchor="middle" x="364" y="-455.45" font-family="Times,serif" font-size="14.00">27</text>
</g>
<!-- 26&#45;&#45;27 -->
<g id="edge49" class="edge">
<title>26&#45;&#45;27</title>
<path fill="none" stroke="black" d="M346.25,-707.71C349.69,-659.97 359.3,-526.67 362.75,-478.85"/>
<text text-anchor="middle" x="357.38" y="-588.2" font-family="Times,serif" font-size="14.00">4</text>
</g>
<!-- 28 -->
<g id="node32" class="node">
<title>28</title>
<ellipse fill="none" stroke="black" cx="224" cy="-637.5" rx="27" ry="18"/>
<text text-anchor="middle" x="224" y="-632.45" font-family="Times,serif" font-size="14.00">28</text>
</g>
<!-- 26&#45;&#45;28 -->
<g id="edge50" class="edge">
<title>26&#45;&#45;28</title>
<path fill="none" stroke="black" d="M327.15,-712.24C304.27,-695.88 264.84,-667.7 241.93,-651.32"/>
<text text-anchor="middle" x="298.38" y="-676.7" font-family="Times,serif" font-size="14.00">1</text>
</g>
<!-- 31 -->
<g id="node33" class="node">
<title>31</title>
<ellipse fill="none" stroke="black" cx="364" cy="-372" rx="27" ry="18"/>
<text text-anchor="middle" x="364" y="-366.95" font-family="Times,serif" font-size="14.00">31</text>
</g>
<!-- 27&#45;&#45;31 -->
<g id="edge51" class="edge">
<title>27&#45;&#45;31</title>
<path fill="none" stroke="black" d="M364,-442.41C364,-427.34 364,-405.49 364,-390.35"/>
<text text-anchor="middle" x="367.38" y="-411.2" font-family="Times,serif" font-size="14.00">1</text>
</g>
<!-- 33 -->
<g id="node34" class="node">
<title>33</title>
<ellipse fill="none" stroke="black" cx="393" cy="-195" rx="27" ry="18"/>
<text text-anchor="middle" x="393" y="-189.95" font-family="Times,serif" font-size="14.00">33</text>
</g>
<!-- 27&#45;&#45;33 -->
<g id="edge52" class="edge">
<title>27&#45;&#45;33</title>
<path fill="none" stroke="black" d="M374.92,-443.81C383.65,-430.26 395.18,-409.8 400,-390 415.52,-326.31 403.41,-247.41 396.7,-213.18"/>
<text text-anchor="middle" x="410.38" y="-322.7" font-family="Times,serif" font-size="14.00">3</text>
</g>
<!-- 28&#45;&#45;31 -->
<g id="edge55" class="edge">
<title>28&#45;&#45;31</title>
<path fill="none" stroke="black" d="M230.89,-619.81C242.03,-593.24 265.08,-539.91 288.25,-496.5 309.45,-456.78 338.04,-412.23 353.32,-389.02"/>
<text text-anchor="middle" x="291.38" y="-499.7" font-family="Times,serif" font-size="14.00">1</text>
</g>
<!-- AP3 -->
<g id="node35" class="node">
<title>AP3</title>
<ellipse fill="none" stroke="black" cx="216" cy="-549" rx="27.3" ry="18"/>
<text text-anchor="middle" x="216" y="-543.95" font-family="Times,serif" font-size="14.00">AP3</text>
</g>
<!-- 28&#45;&#45;AP3 -->
<g id="edge53" class="edge">
<title>28&#45;&#45;AP3</title>
<path fill="none" stroke="black" d="M222.42,-619.41C221.03,-604.34 219.01,-582.49 217.6,-567.35"/>
<text text-anchor="middle" x="224.38" y="-588.2" font-family="Times,serif" font-size="14.00">2</text>
</g>
<!-- 30 -->
<g id="node36" class="node">
<title>30</title>
<ellipse fill="none" stroke="black" cx="207" cy="-460.5" rx="27" ry="18"/>
<text text-anchor="middle" x="207" y="-455.45" font-family="Times,serif" font-size="14.00">30</text>
</g>
<!-- 28&#45;&#45;30 -->
<g id="edge54" class="edge">
<title>28&#45;&#45;30</title>
<path fill="none" stroke="black" d="M209.17,-622.1C196.86,-609.04 180.29,-588.59 173.25,-567 162.87,-535.19 182.19,-497.88 195.64,-477.25"/>
<text text-anchor="middle" x="177.38" y="-543.95" font-family="Times,serif" font-size="14.00">2</text>
</g>
<!-- 31&#45;&#45;33 -->
<g id="edge60" class="edge">
<title>31&#45;&#45;33</title>
<path fill="none" stroke="black" d="M366.83,-353.9C372.38,-320.45 384.6,-246.68 390.16,-213.17"/>
<text text-anchor="middle" x="384.38" y="-278.45" font-family="Times,serif" font-size="14.00">4</text>
</g>
<!-- 32 -->
<g id="node38" class="node">
<title>32</title>
<ellipse fill="none" stroke="black" cx="330" cy="-283.5" rx="27" ry="18"/>
<text text-anchor="middle" x="330" y="-278.45" font-family="Times,serif" font-size="14.00">32</text>
</g>
<!-- 31&#45;&#45;32 -->
<g id="edge59" class="edge">
<title>31&#45;&#45;32</title>
<path fill="none" stroke="black" d="M357.44,-354.32C351.46,-339.1 342.66,-316.72 336.65,-301.42"/>
<text text-anchor="middle" x="353.38" y="-322.7" font-family="Times,serif" font-size="14.00">4</text>
</g>
<!-- 35 -->
<g id="node37" class="node">
<title>35</title>
<ellipse fill="none" stroke="black" cx="168" cy="-106.5" rx="27" ry="18"/>
<text text-anchor="middle" x="168" y="-101.45" font-family="Times,serif" font-size="14.00">35</text>
</g>
<!-- 33&#45;&#45;35 -->
<g id="edge63" class="edge">
<title>33&#45;&#45;35</title>
<path fill="none" stroke="black" d="M371.82,-183.62C366.99,-181.35 361.84,-179.03 357,-177 298.48,-152.48 227.93,-127.79 191.83,-115.5"/>
<text text-anchor="middle" x="313.38" y="-145.7" font-family="Times,serif" font-size="14.00">3</text>
</g>
<!-- 39 -->
<g id="node39" class="node">
<title>39</title>
<ellipse fill="none" stroke="black" cx="393" cy="-106.5" rx="27" ry="18"/>
<text text-anchor="middle" x="393" y="-101.45" font-family="Times,serif" font-size="14.00">39</text>
</g>
<!-- 33&#45;&#45;39 -->
<g id="edge64" class="edge">
<title>33&#45;&#45;39</title>
<path fill="none" stroke="black" d="M393,-176.91C393,-161.84 393,-139.99 393,-124.85"/>
<text text-anchor="middle" x="396.38" y="-145.7" font-family="Times,serif" font-size="14.00">3</text>
</g>
<!-- AP3&#45;&#45;30 -->
<g id="edge56" class="edge">
<title>AP3&#45;&#45;30</title>
<path fill="none" stroke="black" d="M214.22,-530.91C212.65,-515.84 210.38,-493.99 208.81,-478.85"/>
<text text-anchor="middle" x="216.38" y="-499.7" font-family="Times,serif" font-size="14.00">1</text>
</g>
<!-- 30&#45;&#45;31 -->
<g id="edge57" class="edge">
<title>30&#45;&#45;31</title>
<path fill="none" stroke="black" d="M216.87,-443.41C224.64,-432 236.43,-417.16 250.25,-408 277.12,-390.19 313.48,-381.09 337.79,-376.7"/>
<text text-anchor="middle" x="253.38" y="-411.2" font-family="Times,serif" font-size="14.00">2</text>
</g>
<!-- 30&#45;&#45;35 -->
<g id="edge58" class="edge">
<title>30&#45;&#45;35</title>
<path fill="none" stroke="black" d="M205.12,-442.52C198.53,-383.06 176.54,-184.56 169.91,-124.72"/>
<text text-anchor="middle" x="193.38" y="-278.45" font-family="Times,serif" font-size="14.00">4</text>
</g>
<!-- 35&#45;&#45;36 -->
<g id="edge68" class="edge">
<title>35&#45;&#45;36</title>
<path fill="none" stroke="black" d="M151.28,-91.98C131.18,-75.73 97.65,-48.63 77.6,-32.42"/>
<text text-anchor="middle" x="128.38" y="-57.2" font-family="Times,serif" font-size="14.00">1</text>
</g>
<!-- 32&#45;&#45;33 -->
<g id="edge61" class="edge">
<title>32&#45;&#45;33</title>
<path fill="none" stroke="black" d="M341.26,-267.04C352.66,-251.39 370.18,-227.33 381.62,-211.62"/>
<text text-anchor="middle" x="370.38" y="-234.2" font-family="Times,serif" font-size="14.00">1</text>
</g>
<!-- 32&#45;&#45;35 -->
<g id="edge62" class="edge">
<title>32&#45;&#45;35</title>
<path fill="none" stroke="black" d="M310.09,-270.81C300.22,-264.53 288.42,-256.29 279,-247.5 236.37,-207.71 196.49,-150.86 178.31,-123.46"/>
<text text-anchor="middle" x="249.38" y="-189.95" font-family="Times,serif" font-size="14.00">3</text>
</g>
<!-- 39&#45;&#45;40 -->
<g id="edge72" class="edge">
<title>39&#45;&#45;40</title>
<path fill="none" stroke="black" d="M402.22,-89.23C410.98,-73.77 424.08,-50.64 432.82,-35.2"/>
<text text-anchor="middle" x="424.38" y="-57.2" font-family="Times,serif" font-size="14.00">4</text>
</g>
<!-- 34 -->
<g id="node40" class="node">
<title>34</title>
<ellipse fill="none" stroke="black" cx="93" cy="-372" rx="27" ry="18"/>
<text text-anchor="middle" x="93" y="-366.95" font-family="Times,serif" font-size="14.00">34</text>
</g>
<!-- 34&#45;&#45;36 -->
<g id="edge66" class="edge">
<title>34&#45;&#45;36</title>
<path fill="none" stroke="black" d="M90.15,-353.82C87.52,-336.41 84,-308.66 84,-284.5 84,-284.5 84,-284.5 84,-105.5 84,-80.48 74.9,-52.72 68.15,-35.56"/>
<text text-anchor="middle" x="87.38" y="-189.95" font-family="Times,serif" font-size="14.00">2</text>
</g>
<!-- 34&#45;&#45;37 -->
<g id="edge67" class="edge">
<title>34&#45;&#45;37</title>
<path fill="none" stroke="black" d="M113.9,-360.04C145.64,-343.41 205.63,-311.95 237.27,-295.37"/>
<text text-anchor="middle" x="194.38" y="-322.7" font-family="Times,serif" font-size="14.00">2</text>
</g>
<!-- 34&#45;&#45;35 -->
<g id="edge65" class="edge">
<title>34&#45;&#45;35</title>
<path fill="none" stroke="black" d="M96.83,-353.88C105.56,-315.58 128.18,-220.24 154,-142.5 156.02,-136.41 158.55,-129.86 160.89,-124.08"/>
<text text-anchor="middle" x="131.38" y="-234.2" font-family="Times,serif" font-size="14.00">1</text>
</g>
<!-- 38&#45;&#45;40 -->
<g id="edge71" class="edge">
<title>38&#45;&#45;40</title>
<path fill="none" stroke="black" d="M322.36,-176.88C324.84,-154.77 331.67,-115.86 350.25,-88.5 368.32,-61.88 399.95,-41.26 420.94,-29.61"/>
<text text-anchor="middle" x="353.38" y="-101.45" font-family="Times,serif" font-size="14.00">1</text>
</g>
<!-- 38&#45;&#45;39 -->
<g id="edge70" class="edge">
<title>38&#45;&#45;39</title>
<path fill="none" stroke="black" d="M333.54,-178.93C346.68,-163.15 367.19,-138.51 380.36,-122.68"/>
<text text-anchor="middle" x="366.38" y="-145.7" font-family="Times,serif" font-size="14.00">1</text>
</g>
</g>
</svg>
