<?xml version="1.0" encoding="UTF-8" standalone="no"?>
<!DOCTYPE svg PUBLIC "-//W3C//DTD SVG 1.1//EN"
 "http://www.w3.org/Graphics/SVG/1.1/DTD/svg11.dtd">
<!-- Generated by graphviz version 11.0.0 (20240428.1522)
 -->
<!-- Title: GraphRep Pages: 1 -->
<svg width="473pt" height="1195pt"
 viewBox="0.00 0.00 473.04 1194.50" xmlns="http://www.w3.org/2000/svg" xmlns:xlink="http://www.w3.org/1999/xlink">
<g id="graph0" class="graph" transform="scale(1 1) rotate(0) translate(4 1190.5)">
<title>GraphRep</title>
<polygon fill="white" stroke="none" points="-4,4 -4,-1190.5 469.04,-1190.5 469.04,4 -4,4"/>
<!-- Biblioteca -->
<g id="node1" class="node">
<title>Biblioteca</title>
<ellipse fill="none" stroke="black" cx="302.54" cy="-1168.5" rx="48.79" ry="18"/>
<text text-anchor="middle" x="302.54" y="-1163.45" font-family="Times,serif" font-size="14.00">Biblioteca</text>
</g>
<!-- Teatro -->
<g id="node2" class="node">
<title>Teatro</title>
<ellipse fill="none" stroke="black" cx="266.54" cy="-1080" rx="34.97" ry="18"/>
<text text-anchor="middle" x="266.54" y="-1074.95" font-family="Times,serif" font-size="14.00">Teatro</text>
</g>
<!-- Biblioteca&#45;&#45;Teatro -->
<g id="edge1" class="edge">
<title>Biblioteca&#45;&#45;Teatro</title>
<path fill="none" stroke="black" d="M295.43,-1150.41C289.12,-1135.25 279.94,-1113.21 273.64,-1098.05"/>
<text text-anchor="middle" x="291.92" y="-1119.2" font-family="Times,serif" font-size="14.00">8</text>
</g>
<!-- AP -->
<g id="node3" class="node">
<title>AP</title>
<ellipse fill="none" stroke="black" cx="337.54" cy="-991.5" rx="27" ry="18"/>
<text text-anchor="middle" x="337.54" y="-986.45" font-family="Times,serif" font-size="14.00">AP</text>
</g>
<!-- Biblioteca&#45;&#45;AP -->
<g id="edge2" class="edge">
<title>Biblioteca&#45;&#45;AP</title>
<path fill="none" stroke="black" d="M306.02,-1150.08C312.73,-1116.54 327.37,-1043.34 334.07,-1009.85"/>
<text text-anchor="middle" x="329.29" y="-1074.95" font-family="Times,serif" font-size="14.00">10</text>
</g>
<!-- Teatro&#45;&#45;AP -->
<g id="edge3" class="edge">
<title>Teatro&#45;&#45;AP</title>
<path fill="none" stroke="black" d="M279.56,-1063.13C292.53,-1047.33 312.31,-1023.24 325.08,-1007.68"/>
<text text-anchor="middle" x="311.92" y="-1030.7" font-family="Times,serif" font-size="14.00">7</text>
</g>
<!-- Topo -->
<g id="node4" class="node">
<title>Topo</title>
<ellipse fill="none" stroke="black" cx="245.54" cy="-903" rx="30.37" ry="18"/>
<text text-anchor="middle" x="245.54" y="-897.95" font-family="Times,serif" font-size="14.00">Topo</text>
</g>
<!-- Teatro&#45;&#45;Topo -->
<g id="edge4" class="edge">
<title>Teatro&#45;&#45;Topo</title>
<path fill="none" stroke="black" d="M264.45,-1061.58C260.42,-1028.04 251.64,-954.84 247.62,-921.35"/>
<text text-anchor="middle" x="261.92" y="-986.45" font-family="Times,serif" font-size="14.00">6</text>
</g>
<!-- AP&#45;&#45;Topo -->
<g id="edge6" class="edge">
<title>AP&#45;&#45;Topo</title>
<path fill="none" stroke="black" d="M322.35,-976.22C305.4,-960.29 278.14,-934.65 261.06,-918.59"/>
<text text-anchor="middle" x="303.92" y="-942.2" font-family="Times,serif" font-size="14.00">9</text>
</g>
<!-- Pavilhao -->
<g id="node5" class="node">
<title>Pavilhao</title>
<ellipse fill="none" stroke="black" cx="337.54" cy="-903" rx="43.16" ry="18"/>
<text text-anchor="middle" x="337.54" y="-897.95" font-family="Times,serif" font-size="14.00">Pavilhao</text>
</g>
<!-- AP&#45;&#45;Pavilhao -->
<g id="edge5" class="edge">
<title>AP&#45;&#45;Pavilhao</title>
<path fill="none" stroke="black" d="M337.54,-973.41C337.54,-958.34 337.54,-936.49 337.54,-921.35"/>
<text text-anchor="middle" x="340.92" y="-942.2" font-family="Times,serif" font-size="14.00">5</text>
</g>
<!-- Lago -->
<g id="node6" class="node">
<title>Lago</title>
<ellipse fill="none" stroke="black" cx="393.54" cy="-814.5" rx="29.86" ry="18"/>
<text text-anchor="middle" x="393.54" y="-809.45" font-family="Times,serif" font-size="14.00">Lago</text>
</g>
<!-- AP&#45;&#45;Lago -->
<g id="edge7" class="edge">
<title>AP&#45;&#45;Lago</title>
<path fill="none" stroke="black" d="M352.53,-976.1C365,-963.05 381.9,-942.59 389.54,-921 400,-891.45 398.27,-854.31 395.97,-832.9"/>
<text text-anchor="middle" x="399.92" y="-897.95" font-family="Times,serif" font-size="14.00">9</text>
</g>
<!-- Escadas1 -->
<g id="node7" class="node">
<title>Escadas1</title>
<ellipse fill="none" stroke="black" cx="366.54" cy="-18" rx="45.21" ry="18"/>
<text text-anchor="middle" x="366.54" y="-12.95" font-family="Times,serif" font-size="14.00">Escadas1</text>
</g>
<!-- AP&#45;&#45;Escadas1 -->
<g id="edge8" class="edge">
<title>AP&#45;&#45;Escadas1</title>
<path fill="none" stroke="black" d="M362.28,-983.8C395.8,-973.04 451.54,-948.47 451.54,-904 451.54,-904 451.54,-904 451.54,-105.5 451.54,-72.02 418.75,-46.76 393.9,-32.43"/>
<text text-anchor="middle" x="458.29" y="-499.7" font-family="Times,serif" font-size="14.00">10</text>
</g>
<!-- Topo&#45;&#45;Lago -->
<g id="edge13" class="edge">
<title>Topo&#45;&#45;Lago</title>
<path fill="none" stroke="black" d="M266.75,-889.61C295.04,-873.07 344.82,-843.97 372.85,-827.59"/>
<text text-anchor="middle" x="335.92" y="-853.7" font-family="Times,serif" font-size="14.00">5</text>
</g>
<!-- ParqueInfantil -->
<g id="node8" class="node">
<title>ParqueInfantil</title>
<ellipse fill="none" stroke="black" cx="282.54" cy="-814.5" rx="63.63" ry="18"/>
<text text-anchor="middle" x="282.54" y="-809.45" font-family="Times,serif" font-size="14.00">ParqueInfantil</text>
</g>
<!-- Topo&#45;&#45;ParqueInfantil -->
<g id="edge10" class="edge">
<title>Topo&#45;&#45;ParqueInfantil</title>
<path fill="none" stroke="black" d="M252.67,-885.32C259.14,-870.2 268.64,-848.01 275.18,-832.72"/>
<text text-anchor="middle" x="270.92" y="-853.7" font-family="Times,serif" font-size="14.00">7</text>
</g>
<!-- Miradouro -->
<g id="node9" class="node">
<title>Miradouro</title>
<ellipse fill="none" stroke="black" cx="223.54" cy="-549" rx="50.84" ry="18"/>
<text text-anchor="middle" x="223.54" y="-543.95" font-family="Times,serif" font-size="14.00">Miradouro</text>
</g>
<!-- Topo&#45;&#45;Miradouro -->
<g id="edge11" class="edge">
<title>Topo&#45;&#45;Miradouro</title>
<path fill="none" stroke="black" d="M229.04,-887.53C212.84,-871.64 190.54,-844.51 190.54,-815.5 190.54,-815.5 190.54,-815.5 190.54,-636.5 190.54,-610.94 203.27,-583.77 212.92,-566.84"/>
<text text-anchor="middle" x="193.92" y="-720.95" font-family="Times,serif" font-size="14.00">3</text>
</g>
<!-- Capela -->
<g id="node10" class="node">
<title>Capela</title>
<ellipse fill="none" stroke="black" cx="195.54" cy="-460.5" rx="36.51" ry="18"/>
<text text-anchor="middle" x="195.54" y="-455.45" font-family="Times,serif" font-size="14.00">Capela</text>
</g>
<!-- Topo&#45;&#45;Capela -->
<g id="edge12" class="edge">
<title>Topo&#45;&#45;Capela</title>
<path fill="none" stroke="black" d="M219.79,-892.89C189.87,-880.46 144.54,-855.09 144.54,-815.5 144.54,-815.5 144.54,-815.5 144.54,-548 144.54,-520.11 164.46,-493.29 179.4,-477.1"/>
<text text-anchor="middle" x="147.92" y="-676.7" font-family="Times,serif" font-size="14.00">4</text>
</g>
<!-- Pavilhao&#45;&#45;Lago -->
<g id="edge9" class="edge">
<title>Pavilhao&#45;&#45;Lago</title>
<path fill="none" stroke="black" d="M348.34,-885.32C358.32,-869.91 373.06,-847.14 382.97,-831.83"/>
<text text-anchor="middle" x="373.92" y="-853.7" font-family="Times,serif" font-size="14.00">6</text>
</g>
<!-- Lago&#45;&#45;Escadas1 -->
<g id="edge24" class="edge">
<title>Lago&#45;&#45;Escadas1</title>
<path fill="none" stroke="black" d="M395.12,-796.28C396.59,-778.84 398.54,-751.07 398.54,-727 398.54,-727 398.54,-727 398.54,-105.5 398.54,-80.04 386.2,-52.84 376.84,-35.88"/>
<text text-anchor="middle" x="401.92" y="-411.2" font-family="Times,serif" font-size="14.00">7</text>
</g>
<!-- Macieirinha -->
<g id="node11" class="node">
<title>Macieirinha</title>
<ellipse fill="none" stroke="black" cx="314.54" cy="-726" rx="55.96" ry="18"/>
<text text-anchor="middle" x="314.54" y="-720.95" font-family="Times,serif" font-size="14.00">Macieirinha</text>
</g>
<!-- ParqueInfantil&#45;&#45;Macieirinha -->
<g id="edge14" class="edge">
<title>ParqueInfantil&#45;&#45;Macieirinha</title>
<path fill="none" stroke="black" d="M288.86,-796.41C294.44,-781.34 302.52,-759.49 308.12,-744.35"/>
<text text-anchor="middle" x="308.29" y="-765.2" font-family="Times,serif" font-size="14.00">10</text>
</g>
<!-- Fontaine -->
<g id="node12" class="node">
<title>Fontaine</title>
<ellipse fill="none" stroke="black" cx="283.54" cy="-637.5" rx="43.16" ry="18"/>
<text text-anchor="middle" x="283.54" y="-632.45" font-family="Times,serif" font-size="14.00">Fontaine</text>
</g>
<!-- ParqueInfantil&#45;&#45;Fontaine -->
<g id="edge15" class="edge">
<title>ParqueInfantil&#45;&#45;Fontaine</title>
<path fill="none" stroke="black" d="M269.52,-796.62C260.03,-783.19 247.97,-763.48 242.79,-744 238.68,-728.54 238.6,-723.44 242.79,-708 248.14,-688.29 260.64,-668.46 270.4,-655.05"/>
<text text-anchor="middle" x="246.92" y="-720.95" font-family="Times,serif" font-size="14.00">8</text>
</g>
<!-- Miradouro&#45;&#45;Capela -->
<g id="edge19" class="edge">
<title>Miradouro&#45;&#45;Capela</title>
<path fill="none" stroke="black" d="M218.01,-530.91C213.1,-515.75 205.97,-493.71 201.06,-478.55"/>
<text text-anchor="middle" x="215.92" y="-499.7" font-family="Times,serif" font-size="14.00">4</text>
</g>
<!-- Torreao -->
<g id="node13" class="node">
<title>Torreao</title>
<ellipse fill="none" stroke="black" cx="269.54" cy="-372" rx="40.09" ry="18"/>
<text text-anchor="middle" x="269.54" y="-366.95" font-family="Times,serif" font-size="14.00">Torreao</text>
</g>
<!-- Miradouro&#45;&#45;Torreao -->
<g id="edge20" class="edge">
<title>Miradouro&#45;&#45;Torreao</title>
<path fill="none" stroke="black" d="M228.12,-530.58C236.94,-497.04 256.18,-423.84 264.98,-390.35"/>
<text text-anchor="middle" x="254.92" y="-455.45" font-family="Times,serif" font-size="14.00">9</text>
</g>
<!-- Capela&#45;&#45;Torreao -->
<g id="edge21" class="edge">
<title>Capela&#45;&#45;Torreao</title>
<path fill="none" stroke="black" d="M209.11,-443.63C222.3,-428.22 242.23,-404.93 255.55,-389.35"/>
<text text-anchor="middle" x="246.29" y="-411.2" font-family="Times,serif" font-size="14.00">11</text>
</g>
<!-- Escadas3 -->
<g id="node14" class="node">
<title>Escadas3</title>
<ellipse fill="none" stroke="black" cx="269.54" cy="-283.5" rx="45.21" ry="18"/>
<text text-anchor="middle" x="269.54" y="-278.45" font-family="Times,serif" font-size="14.00">Escadas3</text>
</g>
<!-- Capela&#45;&#45;Escadas3 -->
<g id="edge22" class="edge">
<title>Capela&#45;&#45;Escadas3</title>
<path fill="none" stroke="black" d="M195.9,-442.29C196.93,-420.75 200.65,-383.14 213.79,-354 223.07,-333.41 239.9,-313.7 252.65,-300.57"/>
<text text-anchor="middle" x="217.92" y="-366.95" font-family="Times,serif" font-size="14.00">9</text>
</g>
<!-- Macieirinha&#45;&#45;Fontaine -->
<g id="edge16" class="edge">
<title>Macieirinha&#45;&#45;Fontaine</title>
<path fill="none" stroke="black" d="M308.42,-707.91C302.98,-692.75 295.08,-670.71 289.65,-655.55"/>
<text text-anchor="middle" x="309.29" y="-676.7" font-family="Times,serif" font-size="14.00">11</text>
</g>
<!-- Fontaine&#45;&#45;Miradouro -->
<g id="edge17" class="edge">
<title>Fontaine&#45;&#45;Miradouro</title>
<path fill="none" stroke="black" d="M271.97,-619.82C261.42,-604.6 245.89,-582.22 235.28,-566.92"/>
<text text-anchor="middle" x="262.92" y="-588.2" font-family="Times,serif" font-size="14.00">8</text>
</g>
<!-- Fontaine&#45;&#45;Torreao -->
<g id="edge18" class="edge">
<title>Fontaine&#45;&#45;Torreao</title>
<path fill="none" stroke="black" d="M284.01,-619.31C284.46,-598.42 284.92,-562.11 283.54,-531 281.27,-479.55 274.84,-418.96 271.55,-390.04"/>
<text text-anchor="middle" x="290.29" y="-499.7" font-family="Times,serif" font-size="14.00">11</text>
</g>
<!-- Torreao&#45;&#45;Escadas3 -->
<g id="edge23" class="edge">
<title>Torreao&#45;&#45;Escadas3</title>
<path fill="none" stroke="black" d="M269.54,-353.91C269.54,-338.84 269.54,-316.99 269.54,-301.85"/>
<text text-anchor="middle" x="276.29" y="-322.7" font-family="Times,serif" font-size="14.00">12</text>
</g>
<!-- Sentimentos -->
<g id="node15" class="node">
<title>Sentimentos</title>
<ellipse fill="none" stroke="black" cx="270.54" cy="-195" rx="56.98" ry="18"/>
<text text-anchor="middle" x="270.54" y="-189.95" font-family="Times,serif" font-size="14.00">Sentimentos</text>
</g>
<!-- Escadas3&#45;&#45;Sentimentos -->
<g id="edge25" class="edge">
<title>Escadas3&#45;&#45;Sentimentos</title>
<path fill="none" stroke="black" d="M269.74,-265.41C269.91,-250.34 270.16,-228.49 270.34,-213.35"/>
<text text-anchor="middle" x="273.92" y="-234.2" font-family="Times,serif" font-size="14.00">5</text>
</g>
<!-- Escadas2 -->
<g id="node16" class="node">
<title>Escadas2</title>
<ellipse fill="none" stroke="black" cx="270.54" cy="-106.5" rx="45.21" ry="18"/>
<text text-anchor="middle" x="270.54" y="-101.45" font-family="Times,serif" font-size="14.00">Escadas2</text>
</g>
<!-- Escadas3&#45;&#45;Escadas2 -->
<g id="edge26" class="edge">
<title>Escadas3&#45;&#45;Escadas2</title>
<path fill="none" stroke="black" d="M291.28,-267.34C307.16,-254.84 327.45,-235.54 336.54,-213 342.53,-198.16 342.47,-191.86 336.54,-177 327.6,-154.59 307.61,-135.27 291.96,-122.73"/>
<text text-anchor="middle" x="343.92" y="-189.95" font-family="Times,serif" font-size="14.00">5</text>
</g>
<!-- Sentimentos&#45;&#45;Escadas2 -->
<g id="edge27" class="edge">
<title>Sentimentos&#45;&#45;Escadas2</title>
<path fill="none" stroke="black" d="M270.54,-176.91C270.54,-161.84 270.54,-139.99 270.54,-124.85"/>
<text text-anchor="middle" x="273.92" y="-145.7" font-family="Times,serif" font-size="14.00">7</text>
</g>
<!-- Escadas2&#45;&#45;Escadas1 -->
<g id="edge32" class="edge">
<title>Escadas2&#45;&#45;Escadas1</title>
<path fill="none" stroke="black" d="M288.15,-89.63C305.47,-74.03 331.76,-50.34 349.04,-34.76"/>
<text text-anchor="middle" x="329.92" y="-57.2" font-family="Times,serif" font-size="14.00">3</text>
</g>
<!-- CasaRoseiral -->
<g id="node17" class="node">
<title>CasaRoseiral</title>
<ellipse fill="none" stroke="black" cx="59.54" cy="-283.5" rx="59.54" ry="18"/>
<text text-anchor="middle" x="59.54" y="-278.45" font-family="Times,serif" font-size="14.00">CasaRoseiral</text>
</g>
<!-- CasaRoseiral&#45;&#45;Escadas2 -->
<g id="edge29" class="edge">
<title>CasaRoseiral&#45;&#45;Escadas2</title>
<path fill="none" stroke="black" d="M50.52,-265.31C40.07,-242.76 26.6,-203.01 45.79,-177 67.67,-147.33 170.43,-124.95 229.13,-114.33"/>
<text text-anchor="middle" x="49.92" y="-189.95" font-family="Times,serif" font-size="14.00">4</text>
</g>
<!-- JardimRoseiral -->
<g id="node18" class="node">
<title>JardimRoseiral</title>
<ellipse fill="none" stroke="black" cx="128.54" cy="-195" rx="67.22" ry="18"/>
<text text-anchor="middle" x="128.54" y="-189.95" font-family="Times,serif" font-size="14.00">JardimRoseiral</text>
</g>
<!-- CasaRoseiral&#45;&#45;JardimRoseiral -->
<g id="edge28" class="edge">
<title>CasaRoseiral&#45;&#45;JardimRoseiral</title>
<path fill="none" stroke="black" d="M72.84,-265.82C84.98,-250.6 102.84,-228.22 115.04,-212.92"/>
<text text-anchor="middle" x="103.92" y="-234.2" font-family="Times,serif" font-size="14.00">3</text>
</g>
<!-- JardimRoseiral&#45;&#45;Escadas1 -->
<g id="edge31" class="edge">
<title>JardimRoseiral&#45;&#45;Escadas1</title>
<path fill="none" stroke="black" d="M138.01,-176.9C151.39,-154.08 177.8,-113.64 209.79,-88.5 246.42,-59.72 296.85,-40.15 330.51,-29.29"/>
<text text-anchor="middle" x="213.92" y="-101.45" font-family="Times,serif" font-size="14.00">8</text>
</g>
<!-- JardimRoseiral&#45;&#45;Escadas2 -->
<g id="edge30" class="edge">
<title>JardimRoseiral&#45;&#45;Escadas2</title>
<path fill="none" stroke="black" d="M154.59,-178.13C180.85,-162.14 221.05,-137.65 246.55,-122.11"/>
<text text-anchor="middle" x="215.92" y="-145.7" font-family="Times,serif" font-size="14.00">3</text>
</g>
</g>
</svg>
