<?xml version="1.0" encoding="UTF-8" standalone="no"?>
<!DOCTYPE svg PUBLIC "-//W3C//DTD SVG 1.1//EN"
 "http://www.w3.org/Graphics/SVG/1.1/DTD/svg11.dtd">
<!-- Generated by graphviz version 11.0.0 (20240428.1522)
 -->
<!-- Title: GraphRep Pages: 1 -->
<svg width="892pt" height="260pt"
 viewBox="0.00 0.00 892.01 260.00" xmlns="http://www.w3.org/2000/svg" xmlns:xlink="http://www.w3.org/1999/xlink">
<g id="graph0" class="graph" transform="scale(1 1) rotate(0) translate(4 256)">
<title>GraphRep</title>
<polygon fill="white" stroke="none" points="-4,4 -4,-256 888.01,-256 888.01,4 -4,4"/>
<!-- AP -->
<g id="node1" class="node">
<title>AP</title>
<ellipse fill="none" stroke="black" cx="292.79" cy="-234" rx="27" ry="18"/>
<text text-anchor="middle" x="292.79" y="-228.95" font-family="Times,serif" font-size="14.00">AP</text>
</g>
<!-- ﻿Biblioteca -->
<g id="node2" class="node">
<title>﻿Biblioteca</title>
<ellipse fill="none" stroke="black" cx="48.79" cy="-162" rx="48.79" ry="18"/>
<text text-anchor="middle" x="48.79" y="-156.95" font-family="Times,serif" font-size="14.00">﻿Biblioteca</text>
</g>
<!-- AP&#45;&#45;﻿Biblioteca -->
<g id="edge1" class="edge">
<title>AP&#45;&#45;﻿Biblioteca</title>
<path fill="none" stroke="black" d="M268.1,-226.03C232.46,-215.95 164.53,-196.69 106.79,-180 100.14,-178.08 93.06,-176.02 86.22,-174.02"/>
</g>
<!-- Teatro -->
<g id="node3" class="node">
<title>Teatro</title>
<ellipse fill="none" stroke="black" cx="150.79" cy="-162" rx="34.97" ry="18"/>
<text text-anchor="middle" x="150.79" y="-156.95" font-family="Times,serif" font-size="14.00">Teatro</text>
</g>
<!-- AP&#45;&#45;Teatro -->
<g id="edge2" class="edge">
<title>AP&#45;&#45;Teatro</title>
<path fill="none" stroke="black" d="M271.53,-222.52C245.85,-209.86 202.7,-188.59 175.54,-175.2"/>
</g>
<!-- Pavilhao -->
<g id="node4" class="node">
<title>Pavilhao</title>
<ellipse fill="none" stroke="black" cx="246.79" cy="-162" rx="43.16" ry="18"/>
<text text-anchor="middle" x="246.79" y="-156.95" font-family="Times,serif" font-size="14.00">Pavilhao</text>
</g>
<!-- AP&#45;&#45;Pavilhao -->
<g id="edge3" class="edge">
<title>AP&#45;&#45;Pavilhao</title>
<path fill="none" stroke="black" d="M282.35,-217.12C275.04,-205.98 265.28,-191.13 257.83,-179.8"/>
</g>
<!-- Topo -->
<g id="node5" class="node">
<title>Topo</title>
<ellipse fill="none" stroke="black" cx="338.79" cy="-162" rx="30.37" ry="18"/>
<text text-anchor="middle" x="338.79" y="-156.95" font-family="Times,serif" font-size="14.00">Topo</text>
</g>
<!-- AP&#45;&#45;Topo -->
<g id="edge4" class="edge">
<title>AP&#45;&#45;Topo</title>
<path fill="none" stroke="black" d="M303.23,-217.12C310.65,-205.82 320.59,-190.7 328.08,-179.31"/>
</g>
<!-- Lago -->
<g id="node12" class="node">
<title>Lago</title>
<ellipse fill="none" stroke="black" cx="416.79" cy="-162" rx="29.86" ry="18"/>
<text text-anchor="middle" x="416.79" y="-156.95" font-family="Times,serif" font-size="14.00">Lago</text>
</g>
<!-- AP&#45;&#45;Lago -->
<g id="edge11" class="edge">
<title>AP&#45;&#45;Lago</title>
<path fill="none" stroke="black" d="M312.99,-221.6C335.78,-208.74 372.66,-187.92 395.77,-174.87"/>
</g>
<!-- Escadas1 -->
<g id="node13" class="node">
<title>Escadas1</title>
<ellipse fill="none" stroke="black" cx="517.79" cy="-162" rx="45.21" ry="18"/>
<text text-anchor="middle" x="517.79" y="-156.95" font-family="Times,serif" font-size="14.00">Escadas1</text>
</g>
<!-- AP&#45;&#45;Escadas1 -->
<g id="edge12" class="edge">
<title>AP&#45;&#45;Escadas1</title>
<path fill="none" stroke="black" d="M316.87,-225.51C356.78,-213.09 436.78,-188.2 482.88,-173.86"/>
</g>
<!-- ParqueInfantil -->
<g id="node6" class="node">
<title>ParqueInfantil</title>
<ellipse fill="none" stroke="black" cx="115.79" cy="-90" rx="63.63" ry="18"/>
<text text-anchor="middle" x="115.79" y="-84.95" font-family="Times,serif" font-size="14.00">ParqueInfantil</text>
</g>
<!-- Topo&#45;&#45;ParqueInfantil -->
<g id="edge5" class="edge">
<title>Topo&#45;&#45;ParqueInfantil</title>
<path fill="none" stroke="black" d="M315.29,-150.46C309.92,-148.2 304.2,-145.92 298.79,-144 252.98,-127.7 199.44,-112.64 162.16,-102.78"/>
</g>
<!-- Miradouro -->
<g id="node8" class="node">
<title>Miradouro</title>
<ellipse fill="none" stroke="black" cx="263.79" cy="-90" rx="50.84" ry="18"/>
<text text-anchor="middle" x="263.79" y="-84.95" font-family="Times,serif" font-size="14.00">Miradouro</text>
</g>
<!-- Topo&#45;&#45;Miradouro -->
<g id="edge7" class="edge">
<title>Topo&#45;&#45;Miradouro</title>
<path fill="none" stroke="black" d="M322.89,-146.15C310.68,-134.76 293.83,-119.03 281.25,-107.29"/>
</g>
<!-- Capela -->
<g id="node10" class="node">
<title>Capela</title>
<ellipse fill="none" stroke="black" cx="368.79" cy="-90" rx="36.51" ry="18"/>
<text text-anchor="middle" x="368.79" y="-84.95" font-family="Times,serif" font-size="14.00">Capela</text>
</g>
<!-- Topo&#45;&#45;Capela -->
<g id="edge9" class="edge">
<title>Topo&#45;&#45;Capela</title>
<path fill="none" stroke="black" d="M346.05,-144.05C350.77,-133.05 356.89,-118.76 361.6,-107.79"/>
</g>
<!-- Macieirinha -->
<g id="node7" class="node">
<title>Macieirinha</title>
<ellipse fill="none" stroke="black" cx="95.79" cy="-18" rx="55.96" ry="18"/>
<text text-anchor="middle" x="95.79" y="-12.95" font-family="Times,serif" font-size="14.00">Macieirinha</text>
</g>
<!-- ParqueInfantil&#45;&#45;Macieirinha -->
<g id="edge6" class="edge">
<title>ParqueInfantil&#45;&#45;Macieirinha</title>
<path fill="none" stroke="black" d="M110.85,-71.7C107.75,-60.85 103.77,-46.92 100.68,-36.1"/>
</g>
<!-- Fontaine -->
<g id="node9" class="node">
<title>Fontaine</title>
<ellipse fill="none" stroke="black" cx="212.79" cy="-18" rx="43.16" ry="18"/>
<text text-anchor="middle" x="212.79" y="-12.95" font-family="Times,serif" font-size="14.00">Fontaine</text>
</g>
<!-- Miradouro&#45;&#45;Fontaine -->
<g id="edge8" class="edge">
<title>Miradouro&#45;&#45;Fontaine</title>
<path fill="none" stroke="black" d="M251.45,-72.05C243.31,-60.89 232.71,-46.34 224.67,-35.31"/>
</g>
<!-- Torreao -->
<g id="node11" class="node">
<title>Torreao</title>
<ellipse fill="none" stroke="black" cx="313.79" cy="-18" rx="40.09" ry="18"/>
<text text-anchor="middle" x="313.79" y="-12.95" font-family="Times,serif" font-size="14.00">Torreao</text>
</g>
<!-- Miradouro&#45;&#45;Torreao -->
<g id="edge10" class="edge">
<title>Miradouro&#45;&#45;Torreao</title>
<path fill="none" stroke="black" d="M275.9,-72.05C283.87,-60.89 294.26,-46.34 302.14,-35.31"/>
</g>
<!-- Escadas2 -->
<g id="node14" class="node">
<title>Escadas2</title>
<ellipse fill="none" stroke="black" cx="536.79" cy="-90" rx="45.21" ry="18"/>
<text text-anchor="middle" x="536.79" y="-84.95" font-family="Times,serif" font-size="14.00">Escadas2</text>
</g>
<!-- Escadas1&#45;&#45;Escadas2 -->
<g id="edge13" class="edge">
<title>Escadas1&#45;&#45;Escadas2</title>
<path fill="none" stroke="black" d="M522.49,-143.7C525.43,-132.85 529.21,-118.92 532.15,-108.1"/>
</g>
<!-- Escadas3 -->
<g id="node15" class="node">
<title>Escadas3</title>
<ellipse fill="none" stroke="black" cx="416.79" cy="-18" rx="45.21" ry="18"/>
<text text-anchor="middle" x="416.79" y="-12.95" font-family="Times,serif" font-size="14.00">Escadas3</text>
</g>
<!-- Escadas2&#45;&#45;Escadas3 -->
<g id="edge14" class="edge">
<title>Escadas2&#45;&#45;Escadas3</title>
<path fill="none" stroke="black" d="M511.93,-74.5C491.33,-62.48 462.21,-45.49 441.62,-33.49"/>
</g>
<!-- Sentimentos -->
<g id="node16" class="node">
<title>Sentimentos</title>
<ellipse fill="none" stroke="black" cx="536.79" cy="-18" rx="56.98" ry="18"/>
<text text-anchor="middle" x="536.79" y="-12.95" font-family="Times,serif" font-size="14.00">Sentimentos</text>
</g>
<!-- Escadas2&#45;&#45;Sentimentos -->
<g id="edge15" class="edge">
<title>Escadas2&#45;&#45;Sentimentos</title>
<path fill="none" stroke="black" d="M536.79,-71.7C536.79,-60.85 536.79,-46.92 536.79,-36.1"/>
</g>
<!-- CasaRoseiral -->
<g id="node17" class="node">
<title>CasaRoseiral</title>
<ellipse fill="none" stroke="black" cx="671.79" cy="-18" rx="59.54" ry="18"/>
<text text-anchor="middle" x="671.79" y="-12.95" font-family="Times,serif" font-size="14.00">CasaRoseiral</text>
</g>
<!-- Escadas2&#45;&#45;CasaRoseiral -->
<g id="edge16" class="edge">
<title>Escadas2&#45;&#45;CasaRoseiral</title>
<path fill="none" stroke="black" d="M563.46,-75.17C586.36,-63.3 619.3,-46.22 642.84,-34.01"/>
</g>
<!-- JardimRoseiral -->
<g id="node18" class="node">
<title>JardimRoseiral</title>
<ellipse fill="none" stroke="black" cx="816.79" cy="-18" rx="67.22" ry="18"/>
<text text-anchor="middle" x="816.79" y="-12.95" font-family="Times,serif" font-size="14.00">JardimRoseiral</text>
</g>
<!-- Escadas2&#45;&#45;JardimRoseiral -->
<g id="edge17" class="edge">
<title>Escadas2&#45;&#45;JardimRoseiral</title>
<path fill="none" stroke="black" d="M574.26,-79.63C624.48,-67.08 713.66,-44.78 768.76,-31.01"/>
</g>
</g>
</svg>
