<?xml version="1.0" encoding="UTF-8" standalone="no"?>
<!DOCTYPE svg PUBLIC "-//W3C//DTD SVG 1.1//EN"
 "http://www.w3.org/Graphics/SVG/1.1/DTD/svg11.dtd">
<!-- Generated by graphviz version 11.0.0 (20240428.1522)
 -->
<!-- Title: GraphRep Pages: 1 -->
<svg width="1178pt" height="404pt"
 viewBox="0.00 0.00 1178.00 404.00" xmlns="http://www.w3.org/2000/svg" xmlns:xlink="http://www.w3.org/1999/xlink">
<g id="graph0" class="graph" transform="scale(1 1) rotate(0) translate(4 400)">
<title>GraphRep</title>
<polygon fill="white" stroke="none" points="-4,4 -4,-400 1174,-400 1174,4 -4,4"/>
<!-- 0 -->
<g id="node1" class="node">
<title>0</title>
<ellipse fill="none" stroke="black" cx="27" cy="-378" rx="27" ry="18"/>
<text text-anchor="middle" x="27" y="-372.95" font-family="Times,serif" font-size="14.00">0</text>
</g>
<!-- 7 -->
<g id="node2" class="node">
<title>7</title>
<ellipse fill="none" stroke="black" cx="27" cy="-306" rx="27" ry="18"/>
<text text-anchor="middle" x="27" y="-300.95" font-family="Times,serif" font-size="14.00">7</text>
</g>
<!-- 0&#45;&#45;7 -->
<g id="edge1" class="edge">
<title>0&#45;&#45;7</title>
<path fill="none" stroke="black" d="M27,-359.7C27,-348.85 27,-334.92 27,-324.1"/>
</g>
<!-- AP1 -->
<g id="node3" class="node">
<title>AP1</title>
<ellipse fill="none" stroke="black" cx="171" cy="-234" rx="27.3" ry="18"/>
<text text-anchor="middle" x="171" y="-228.95" font-family="Times,serif" font-size="14.00">AP1</text>
</g>
<!-- 7&#45;&#45;AP1 -->
<g id="edge2" class="edge">
<title>7&#45;&#45;AP1</title>
<path fill="none" stroke="black" d="M48.56,-294.52C75.71,-281.32 122.08,-258.78 149.29,-245.55"/>
</g>
<!-- 1 -->
<g id="node4" class="node">
<title>1</title>
<ellipse fill="none" stroke="black" cx="351" cy="-378" rx="27" ry="18"/>
<text text-anchor="middle" x="351" y="-372.95" font-family="Times,serif" font-size="14.00">1</text>
</g>
<!-- 3 -->
<g id="node5" class="node">
<title>3</title>
<ellipse fill="none" stroke="black" cx="387" cy="-306" rx="27" ry="18"/>
<text text-anchor="middle" x="387" y="-300.95" font-family="Times,serif" font-size="14.00">3</text>
</g>
<!-- 1&#45;&#45;3 -->
<g id="edge3" class="edge">
<title>1&#45;&#45;3</title>
<path fill="none" stroke="black" d="M359.35,-360.76C365.17,-349.46 372.89,-334.44 378.7,-323.15"/>
</g>
<!-- 5 -->
<g id="node6" class="node">
<title>5</title>
<ellipse fill="none" stroke="black" cx="423" cy="-234" rx="27" ry="18"/>
<text text-anchor="middle" x="423" y="-228.95" font-family="Times,serif" font-size="14.00">5</text>
</g>
<!-- 3&#45;&#45;5 -->
<g id="edge4" class="edge">
<title>3&#45;&#45;5</title>
<path fill="none" stroke="black" d="M395.35,-288.76C401.17,-277.46 408.89,-262.44 414.7,-251.15"/>
</g>
<!-- AP5 -->
<g id="node7" class="node">
<title>AP5</title>
<ellipse fill="none" stroke="black" cx="423" cy="-162" rx="27.3" ry="18"/>
<text text-anchor="middle" x="423" y="-156.95" font-family="Times,serif" font-size="14.00">AP5</text>
</g>
<!-- 5&#45;&#45;AP5 -->
<g id="edge5" class="edge">
<title>5&#45;&#45;AP5</title>
<path fill="none" stroke="black" d="M423,-215.7C423,-204.85 423,-190.92 423,-180.1"/>
</g>
<!-- 2 -->
<g id="node8" class="node">
<title>2</title>
<ellipse fill="none" stroke="black" cx="423" cy="-378" rx="27" ry="18"/>
<text text-anchor="middle" x="423" y="-372.95" font-family="Times,serif" font-size="14.00">2</text>
</g>
<!-- 2&#45;&#45;3 -->
<g id="edge6" class="edge">
<title>2&#45;&#45;3</title>
<path fill="none" stroke="black" d="M414.65,-360.76C408.83,-349.46 401.11,-334.44 395.3,-323.15"/>
</g>
<!-- 6 -->
<g id="node9" class="node">
<title>6</title>
<ellipse fill="none" stroke="black" cx="459" cy="-306" rx="27" ry="18"/>
<text text-anchor="middle" x="459" y="-300.95" font-family="Times,serif" font-size="14.00">6</text>
</g>
<!-- 6&#45;&#45;5 -->
<g id="edge7" class="edge">
<title>6&#45;&#45;5</title>
<path fill="none" stroke="black" d="M450.65,-288.76C444.83,-277.46 437.11,-262.44 431.3,-251.15"/>
</g>
<!-- 8 -->
<g id="node10" class="node">
<title>8</title>
<ellipse fill="none" stroke="black" cx="531" cy="-306" rx="27" ry="18"/>
<text text-anchor="middle" x="531" y="-300.95" font-family="Times,serif" font-size="14.00">8</text>
</g>
<!-- 9 -->
<g id="node11" class="node">
<title>9</title>
<ellipse fill="none" stroke="black" cx="603" cy="-234" rx="27" ry="18"/>
<text text-anchor="middle" x="603" y="-228.95" font-family="Times,serif" font-size="14.00">9</text>
</g>
<!-- 8&#45;&#45;9 -->
<g id="edge8" class="edge">
<title>8&#45;&#45;9</title>
<path fill="none" stroke="black" d="M545.92,-290.5C558.28,-278.48 575.75,-261.49 588.1,-249.49"/>
</g>
<!-- AP4 -->
<g id="node12" class="node">
<title>AP4</title>
<ellipse fill="none" stroke="black" cx="675" cy="-162" rx="27.3" ry="18"/>
<text text-anchor="middle" x="675" y="-156.95" font-family="Times,serif" font-size="14.00">AP4</text>
</g>
<!-- 9&#45;&#45;AP4 -->
<g id="edge9" class="edge">
<title>9&#45;&#45;AP4</title>
<path fill="none" stroke="black" d="M617.92,-218.5C630.28,-206.48 647.75,-189.49 660.1,-177.49"/>
</g>
<!-- 11 -->
<g id="node13" class="node">
<title>11</title>
<ellipse fill="none" stroke="black" cx="675" cy="-234" rx="27" ry="18"/>
<text text-anchor="middle" x="675" y="-228.95" font-family="Times,serif" font-size="14.00">11</text>
</g>
<!-- 11&#45;&#45;AP4 -->
<g id="edge10" class="edge">
<title>11&#45;&#45;AP4</title>
<path fill="none" stroke="black" d="M675,-215.7C675,-204.85 675,-190.92 675,-180.1"/>
</g>
<!-- 12 -->
<g id="node14" class="node">
<title>12</title>
<ellipse fill="none" stroke="black" cx="675" cy="-306" rx="27" ry="18"/>
<text text-anchor="middle" x="675" y="-300.95" font-family="Times,serif" font-size="14.00">12</text>
</g>
<!-- 12&#45;&#45;11 -->
<g id="edge11" class="edge">
<title>12&#45;&#45;11</title>
<path fill="none" stroke="black" d="M675,-287.7C675,-276.85 675,-262.92 675,-252.1"/>
</g>
<!-- 13 -->
<g id="node15" class="node">
<title>13</title>
<ellipse fill="none" stroke="black" cx="603" cy="-378" rx="27" ry="18"/>
<text text-anchor="middle" x="603" y="-372.95" font-family="Times,serif" font-size="14.00">13</text>
</g>
<!-- 13&#45;&#45;12 -->
<g id="edge12" class="edge">
<title>13&#45;&#45;12</title>
<path fill="none" stroke="black" d="M617.92,-362.5C630.28,-350.48 647.75,-333.49 660.1,-321.49"/>
</g>
<!-- 14 -->
<g id="node16" class="node">
<title>14</title>
<ellipse fill="none" stroke="black" cx="603" cy="-306" rx="27" ry="18"/>
<text text-anchor="middle" x="603" y="-300.95" font-family="Times,serif" font-size="14.00">14</text>
</g>
<!-- 14&#45;&#45;9 -->
<g id="edge13" class="edge">
<title>14&#45;&#45;9</title>
<path fill="none" stroke="black" d="M603,-287.7C603,-276.85 603,-262.92 603,-252.1"/>
</g>
<!-- 15 -->
<g id="node17" class="node">
<title>15</title>
<ellipse fill="none" stroke="black" cx="99" cy="-306" rx="27" ry="18"/>
<text text-anchor="middle" x="99" y="-300.95" font-family="Times,serif" font-size="14.00">15</text>
</g>
<!-- 15&#45;&#45;AP1 -->
<g id="edge14" class="edge">
<title>15&#45;&#45;AP1</title>
<path fill="none" stroke="black" d="M113.92,-290.5C126.28,-278.48 143.75,-261.49 156.1,-249.49"/>
</g>
<!-- 17 -->
<g id="node18" class="node">
<title>17</title>
<ellipse fill="none" stroke="black" cx="171" cy="-306" rx="27" ry="18"/>
<text text-anchor="middle" x="171" y="-300.95" font-family="Times,serif" font-size="14.00">17</text>
</g>
<!-- 17&#45;&#45;AP1 -->
<g id="edge15" class="edge">
<title>17&#45;&#45;AP1</title>
<path fill="none" stroke="black" d="M171,-287.7C171,-276.85 171,-262.92 171,-252.1"/>
</g>
<!-- 18 -->
<g id="node19" class="node">
<title>18</title>
<ellipse fill="none" stroke="black" cx="243" cy="-306" rx="27" ry="18"/>
<text text-anchor="middle" x="243" y="-300.95" font-family="Times,serif" font-size="14.00">18</text>
</g>
<!-- 18&#45;&#45;AP1 -->
<g id="edge16" class="edge">
<title>18&#45;&#45;AP1</title>
<path fill="none" stroke="black" d="M228.08,-290.5C215.72,-278.48 198.25,-261.49 185.9,-249.49"/>
</g>
<!-- 19 -->
<g id="node20" class="node">
<title>19</title>
<ellipse fill="none" stroke="black" cx="315" cy="-306" rx="27" ry="18"/>
<text text-anchor="middle" x="315" y="-300.95" font-family="Times,serif" font-size="14.00">19</text>
</g>
<!-- 19&#45;&#45;AP1 -->
<g id="edge17" class="edge">
<title>19&#45;&#45;AP1</title>
<path fill="none" stroke="black" d="M293.44,-294.52C266.29,-281.32 219.92,-258.78 192.71,-245.55"/>
</g>
<!-- 20 -->
<g id="node21" class="node">
<title>20</title>
<ellipse fill="none" stroke="black" cx="819" cy="-234" rx="27" ry="18"/>
<text text-anchor="middle" x="819" y="-228.95" font-family="Times,serif" font-size="14.00">20</text>
</g>
<!-- 22 -->
<g id="node22" class="node">
<title>22</title>
<ellipse fill="none" stroke="black" cx="891" cy="-162" rx="27" ry="18"/>
<text text-anchor="middle" x="891" y="-156.95" font-family="Times,serif" font-size="14.00">22</text>
</g>
<!-- 20&#45;&#45;22 -->
<g id="edge18" class="edge">
<title>20&#45;&#45;22</title>
<path fill="none" stroke="black" d="M833.92,-218.5C846.28,-206.48 863.75,-189.49 876.1,-177.49"/>
</g>
<!-- 23 -->
<g id="node23" class="node">
<title>23</title>
<ellipse fill="none" stroke="black" cx="927" cy="-90" rx="27" ry="18"/>
<text text-anchor="middle" x="927" y="-84.95" font-family="Times,serif" font-size="14.00">23</text>
</g>
<!-- 22&#45;&#45;23 -->
<g id="edge19" class="edge">
<title>22&#45;&#45;23</title>
<path fill="none" stroke="black" d="M899.35,-144.76C905.17,-133.46 912.89,-118.44 918.7,-107.15"/>
</g>
<!-- AP2 -->
<g id="node24" class="node">
<title>AP2</title>
<ellipse fill="none" stroke="black" cx="927" cy="-18" rx="27.3" ry="18"/>
<text text-anchor="middle" x="927" y="-12.95" font-family="Times,serif" font-size="14.00">AP2</text>
</g>
<!-- 23&#45;&#45;AP2 -->
<g id="edge20" class="edge">
<title>23&#45;&#45;AP2</title>
<path fill="none" stroke="black" d="M927,-71.7C927,-60.85 927,-46.92 927,-36.1"/>
</g>
<!-- 21 -->
<g id="node25" class="node">
<title>21</title>
<ellipse fill="none" stroke="black" cx="891" cy="-234" rx="27" ry="18"/>
<text text-anchor="middle" x="891" y="-228.95" font-family="Times,serif" font-size="14.00">21</text>
</g>
<!-- 21&#45;&#45;22 -->
<g id="edge21" class="edge">
<title>21&#45;&#45;22</title>
<path fill="none" stroke="black" d="M891,-215.7C891,-204.85 891,-190.92 891,-180.1"/>
</g>
<!-- 25 -->
<g id="node26" class="node">
<title>25</title>
<ellipse fill="none" stroke="black" cx="963" cy="-162" rx="27" ry="18"/>
<text text-anchor="middle" x="963" y="-156.95" font-family="Times,serif" font-size="14.00">25</text>
</g>
<!-- 25&#45;&#45;23 -->
<g id="edge22" class="edge">
<title>25&#45;&#45;23</title>
<path fill="none" stroke="black" d="M954.65,-144.76C948.83,-133.46 941.11,-118.44 935.3,-107.15"/>
</g>
<!-- 26 -->
<g id="node27" class="node">
<title>26</title>
<ellipse fill="none" stroke="black" cx="1035" cy="-306" rx="27" ry="18"/>
<text text-anchor="middle" x="1035" y="-300.95" font-family="Times,serif" font-size="14.00">26</text>
</g>
<!-- 28 -->
<g id="node28" class="node">
<title>28</title>
<ellipse fill="none" stroke="black" cx="1035" cy="-234" rx="27" ry="18"/>
<text text-anchor="middle" x="1035" y="-228.95" font-family="Times,serif" font-size="14.00">28</text>
</g>
<!-- 26&#45;&#45;28 -->
<g id="edge23" class="edge">
<title>26&#45;&#45;28</title>
<path fill="none" stroke="black" d="M1035,-287.7C1035,-276.85 1035,-262.92 1035,-252.1"/>
</g>
<!-- AP3 -->
<g id="node29" class="node">
<title>AP3</title>
<ellipse fill="none" stroke="black" cx="1035" cy="-162" rx="27.3" ry="18"/>
<text text-anchor="middle" x="1035" y="-156.95" font-family="Times,serif" font-size="14.00">AP3</text>
</g>
<!-- 28&#45;&#45;AP3 -->
<g id="edge24" class="edge">
<title>28&#45;&#45;AP3</title>
<path fill="none" stroke="black" d="M1035,-215.7C1035,-204.85 1035,-190.92 1035,-180.1"/>
</g>
<!-- 27 -->
<g id="node30" class="node">
<title>27</title>
<ellipse fill="none" stroke="black" cx="1071" cy="-378" rx="27" ry="18"/>
<text text-anchor="middle" x="1071" y="-372.95" font-family="Times,serif" font-size="14.00">27</text>
</g>
<!-- 31 -->
<g id="node31" class="node">
<title>31</title>
<ellipse fill="none" stroke="black" cx="1107" cy="-306" rx="27" ry="18"/>
<text text-anchor="middle" x="1107" y="-300.95" font-family="Times,serif" font-size="14.00">31</text>
</g>
<!-- 27&#45;&#45;31 -->
<g id="edge25" class="edge">
<title>27&#45;&#45;31</title>
<path fill="none" stroke="black" d="M1079.35,-360.76C1085.17,-349.46 1092.89,-334.44 1098.7,-323.15"/>
</g>
<!-- 30 -->
<g id="node32" class="node">
<title>30</title>
<ellipse fill="none" stroke="black" cx="1107" cy="-234" rx="27" ry="18"/>
<text text-anchor="middle" x="1107" y="-228.95" font-family="Times,serif" font-size="14.00">30</text>
</g>
<!-- 31&#45;&#45;30 -->
<g id="edge26" class="edge">
<title>31&#45;&#45;30</title>
<path fill="none" stroke="black" d="M1107,-287.7C1107,-276.85 1107,-262.92 1107,-252.1"/>
</g>
<!-- 30&#45;&#45;AP3 -->
<g id="edge27" class="edge">
<title>30&#45;&#45;AP3</title>
<path fill="none" stroke="black" d="M1092.08,-218.5C1079.72,-206.48 1062.25,-189.49 1049.9,-177.49"/>
</g>
<!-- 32 -->
<g id="node33" class="node">
<title>32</title>
<ellipse fill="none" stroke="black" cx="1143" cy="-378" rx="27" ry="18"/>
<text text-anchor="middle" x="1143" y="-372.95" font-family="Times,serif" font-size="14.00">32</text>
</g>
<!-- 32&#45;&#45;31 -->
<g id="edge28" class="edge">
<title>32&#45;&#45;31</title>
<path fill="none" stroke="black" d="M1134.65,-360.76C1128.83,-349.46 1121.11,-334.44 1115.3,-323.15"/>
</g>
<!-- 33 -->
<g id="node34" class="node">
<title>33</title>
<ellipse fill="none" stroke="black" cx="747" cy="-378" rx="27" ry="18"/>
<text text-anchor="middle" x="747" y="-372.95" font-family="Times,serif" font-size="14.00">33</text>
</g>
<!-- 35 -->
<g id="node35" class="node">
<title>35</title>
<ellipse fill="none" stroke="black" cx="747" cy="-306" rx="27" ry="18"/>
<text text-anchor="middle" x="747" y="-300.95" font-family="Times,serif" font-size="14.00">35</text>
</g>
<!-- 33&#45;&#45;35 -->
<g id="edge29" class="edge">
<title>33&#45;&#45;35</title>
<path fill="none" stroke="black" d="M747,-359.7C747,-348.85 747,-334.92 747,-324.1"/>
</g>
<!-- 36 -->
<g id="node36" class="node">
<title>36</title>
<ellipse fill="none" stroke="black" cx="747" cy="-234" rx="27" ry="18"/>
<text text-anchor="middle" x="747" y="-228.95" font-family="Times,serif" font-size="14.00">36</text>
</g>
<!-- 35&#45;&#45;36 -->
<g id="edge30" class="edge">
<title>35&#45;&#45;36</title>
<path fill="none" stroke="black" d="M747,-287.7C747,-276.85 747,-262.92 747,-252.1"/>
</g>
<!-- 36&#45;&#45;AP4 -->
<g id="edge31" class="edge">
<title>36&#45;&#45;AP4</title>
<path fill="none" stroke="black" d="M732.08,-218.5C719.72,-206.48 702.25,-189.49 689.9,-177.49"/>
</g>
<!-- 34 -->
<g id="node37" class="node">
<title>34</title>
<ellipse fill="none" stroke="black" cx="819" cy="-306" rx="27" ry="18"/>
<text text-anchor="middle" x="819" y="-300.95" font-family="Times,serif" font-size="14.00">34</text>
</g>
<!-- 34&#45;&#45;36 -->
<g id="edge32" class="edge">
<title>34&#45;&#45;36</title>
<path fill="none" stroke="black" d="M804.08,-290.5C791.72,-278.48 774.25,-261.49 761.9,-249.49"/>
</g>
<!-- 37 -->
<g id="node38" class="node">
<title>37</title>
<ellipse fill="none" stroke="black" cx="675" cy="-378" rx="27" ry="18"/>
<text text-anchor="middle" x="675" y="-372.95" font-family="Times,serif" font-size="14.00">37</text>
</g>
<!-- 37&#45;&#45;12 -->
<g id="edge33" class="edge">
<title>37&#45;&#45;12</title>
<path fill="none" stroke="black" d="M675,-359.7C675,-348.85 675,-334.92 675,-324.1"/>
</g>
<!-- 38 -->
<g id="node39" class="node">
<title>38</title>
<ellipse fill="none" stroke="black" cx="963" cy="-306" rx="27" ry="18"/>
<text text-anchor="middle" x="963" y="-300.95" font-family="Times,serif" font-size="14.00">38</text>
</g>
<!-- 40 -->
<g id="node40" class="node">
<title>40</title>
<ellipse fill="none" stroke="black" cx="963" cy="-234" rx="27" ry="18"/>
<text text-anchor="middle" x="963" y="-228.95" font-family="Times,serif" font-size="14.00">40</text>
</g>
<!-- 38&#45;&#45;40 -->
<g id="edge34" class="edge">
<title>38&#45;&#45;40</title>
<path fill="none" stroke="black" d="M963,-287.7C963,-276.85 963,-262.92 963,-252.1"/>
</g>
<!-- 40&#45;&#45;22 -->
<g id="edge35" class="edge">
<title>40&#45;&#45;22</title>
<path fill="none" stroke="black" d="M948.08,-218.5C935.72,-206.48 918.25,-189.49 905.9,-177.49"/>
</g>
<!-- 39 -->
<g id="node41" class="node">
<title>39</title>
<ellipse fill="none" stroke="black" cx="963" cy="-378" rx="27" ry="18"/>
<text text-anchor="middle" x="963" y="-372.95" font-family="Times,serif" font-size="14.00">39</text>
</g>
<!-- 39&#45;&#45;38 -->
<g id="edge36" class="edge">
<title>39&#45;&#45;38</title>
<path fill="none" stroke="black" d="M963,-359.7C963,-348.85 963,-334.92 963,-324.1"/>
</g>
</g>
</svg>
