<?xml version="1.0" encoding="us-ascii" standalone="no"?><svg xmlns="http://www.w3.org/2000/svg" xmlns:xlink="http://www.w3.org/1999/xlink" contentStyleType="text/css" height="343px" preserveAspectRatio="none" style="width:454px;height:343px;background:#FFFFFF;" version="1.1" viewBox="0 0 454 343" width="454px" zoomAndPan="magnify"><defs/><g><rect fill="#FFFFFF" height="198.5527" style="stroke:#181818;stroke-width:1.0;" width="10" x="185" y="84.2871"/><rect fill="#FFFFFF" height="40.3105" style="stroke:#181818;stroke-width:1.0;" width="10" x="190" y="170.2188"/><rect fill="none" height="175.5527" style="stroke:#000000;stroke-width:1.5;" width="342.5" x="105.5" y="99.2871"/><rect fill="none" height="101.9316" style="stroke:#000000;stroke-width:1.5;" width="322.5" x="115.5" y="123.5977"/><line style="stroke:#181818;stroke-width:0.5;stroke-dasharray:5.0,5.0;" x1="189.5" x2="189.5" y1="52.9766" y2="291.8398"/><rect fill="#E3E3E3" height="46.9766" rx="2.5" ry="2.5" style="stroke:#181818;stroke-width:0.5;" width="129" x="125.5" y="5"/><text fill="#000000" font-family="sans-serif" font-size="14" lengthAdjust="spacing" textLength="107" x="136.5" y="25.5352">teamRepository</text><text fill="#000000" font-family="sans-serif" font-size="14" lengthAdjust="spacing" textLength="115" x="132.5" y="42.0234">:TeamRepository</text><rect fill="#E3E3E3" height="46.9766" rx="2.5" ry="2.5" style="stroke:#181818;stroke-width:0.5;" width="129" x="125.5" y="290.8398"/><text fill="#000000" font-family="sans-serif" font-size="14" lengthAdjust="spacing" textLength="107" x="136.5" y="311.375">teamRepository</text><text fill="#000000" font-family="sans-serif" font-size="14" lengthAdjust="spacing" textLength="115" x="132.5" y="327.8633">:TeamRepository</text><rect fill="#FFFFFF" height="198.5527" style="stroke:#181818;stroke-width:1.0;" width="10" x="185" y="84.2871"/><rect fill="#FFFFFF" height="40.3105" style="stroke:#181818;stroke-width:1.0;" width="10" x="190" y="170.2188"/><polygon fill="#181818" points="173,80.2871,183,84.2871,173,88.2871,177,84.2871" style="stroke:#181818;stroke-width:1.0;"/><line style="stroke:#181818;stroke-width:1.0;" x1="0" x2="179" y1="84.2871" y2="84.2871"/><text fill="#000000" font-family="sans-serif" font-size="13" font-weight="bold" lengthAdjust="spacing" textLength="18" x="7" y="79.5449">12</text><text fill="#000000" font-family="sans-serif" font-size="13" lengthAdjust="spacing" textLength="144" x="29" y="79.5449">requestColabTaskList()</text><path d="M105.5,99.2871 L283.5,99.2871 L283.5,106.5977 L273.5,116.5977 L105.5,116.5977 L105.5,99.2871 " fill="#EEEEEE" style="stroke:#000000;stroke-width:1.5;"/><rect fill="none" height="175.5527" style="stroke:#000000;stroke-width:1.5;" width="342.5" x="105.5" y="99.2871"/><text fill="#000000" font-family="sans-serif" font-size="13" font-weight="bold" lengthAdjust="spacing" textLength="133" x="120.5" y="112.8555">Generate Tasks List</text><path d="M115.5,123.5977 L189.5,123.5977 L189.5,130.9082 L179.5,140.9082 L115.5,140.9082 L115.5,123.5977 " fill="#EEEEEE" style="stroke:#000000;stroke-width:1.5;"/><rect fill="none" height="101.9316" style="stroke:#000000;stroke-width:1.5;" width="322.5" x="115.5" y="123.5977"/><text fill="#000000" font-family="sans-serif" font-size="13" font-weight="bold" lengthAdjust="spacing" textLength="29" x="130.5" y="137.166">loop</text><text fill="#000000" font-family="sans-serif" font-size="11" font-weight="bold" lengthAdjust="spacing" textLength="177" x="204.5" y="136.2324">[for each vehicle in vehicleList]</text><line style="stroke:#181818;stroke-width:1.0;" x1="195" x2="242" y1="157.2188" y2="157.2188"/><line style="stroke:#181818;stroke-width:1.0;" x1="242" x2="242" y1="157.2188" y2="170.2188"/><line style="stroke:#181818;stroke-width:1.0;" x1="201" x2="242" y1="170.2188" y2="170.2188"/><polygon fill="#181818" points="211,166.2188,201,170.2188,211,174.2188,207,170.2188" style="stroke:#181818;stroke-width:1.0;"/><text fill="#000000" font-family="sans-serif" font-size="13" font-weight="bold" lengthAdjust="spacing" textLength="30" x="207" y="152.4766">12.1</text><text fill="#000000" font-family="sans-serif" font-size="13" lengthAdjust="spacing" textLength="185" x="241" y="152.4766">getTeamByColabTaxNumber()</text><line style="stroke:#181818;stroke-width:1.0;stroke-dasharray:2.0,2.0;" x1="200" x2="242" y1="209.5293" y2="209.5293"/><line style="stroke:#181818;stroke-width:1.0;stroke-dasharray:2.0,2.0;" x1="242" x2="242" y1="209.5293" y2="222.5293"/><line style="stroke:#181818;stroke-width:1.0;stroke-dasharray:2.0,2.0;" x1="195" x2="242" y1="222.5293" y2="222.5293"/><polygon fill="#181818" points="205,218.5293,195,222.5293,205,226.5293,201,222.5293" style="stroke:#181818;stroke-width:1.0;"/><text fill="#000000" font-family="sans-serif" font-size="13" font-weight="bold" lengthAdjust="spacing" textLength="30" x="207" y="204.7871">12.2</text><text fill="#000000" font-family="sans-serif" font-size="13" lengthAdjust="spacing" textLength="62" x="241" y="204.7871">true/false</text><line style="stroke:#181818;stroke-width:1.0;stroke-dasharray:2.0,2.0;" x1="195" x2="237" y1="253.8398" y2="253.8398"/><line style="stroke:#181818;stroke-width:1.0;stroke-dasharray:2.0,2.0;" x1="237" x2="237" y1="253.8398" y2="266.8398"/><line style="stroke:#181818;stroke-width:1.0;stroke-dasharray:2.0,2.0;" x1="196" x2="237" y1="266.8398" y2="266.8398"/><polygon fill="#181818" points="206,262.8398,196,266.8398,206,270.8398,202,266.8398" style="stroke:#181818;stroke-width:1.0;"/><text fill="#000000" font-family="sans-serif" font-size="13" font-weight="bold" lengthAdjust="spacing" textLength="30" x="202" y="249.0977">12.3</text><text fill="#000000" font-family="sans-serif" font-size="13" lengthAdjust="spacing" textLength="188" x="236" y="249.0977">getColabTasksBetweenDates()</text><!--SRC=[ZL4zKyCm3DtrAtHTW06uCdPWADonS0pGaKLrrCINn3AsqZR_7YVGNkChFJJvhFUX9yNQEa-1Mcp5YQc2j8mQEePux7WoDPNyeNt36DWekR8v1SIA2jbPL-A6ciW0rAcuhbrp0BYgRC6u4T6rx04IGwsndfpYJ9dQT_OIhKheFzrYDVcO8KMSOk1K7ESF07Zxc65maQRywZZgapIqNb6iNstKwvifzMuEPDHkIJatmLHbaCxZ2piE0s9GYJZemDW-L2FYKxg0JAR2BLVMf2rPTtYE3Cmgc_TCWf9rsCMo_usmVnl7JXbohKiPBdcUMzjm-FkV6-RqWlyo6g7i2lYlIyfsF4nSikwOtNCIZYaT34BV]--></g></svg>