<?xml version="1.0" encoding="us-ascii" standalone="no"?><svg xmlns="http://www.w3.org/2000/svg" xmlns:xlink="http://www.w3.org/1999/xlink" contentStyleType="text/css" height="605px" preserveAspectRatio="none" style="width:1098px;height:605px;background:#FFFFFF;" version="1.1" viewBox="0 0 1098 605" width="1098px" zoomAndPan="magnify"><defs/><g><rect fill="#FFFFFF" height="415.4805" style="stroke:#181818;stroke-width:1.0;" width="10" x="51.5" y="91.4883"/><rect fill="#FFFFFF" height="188.041" style="stroke:#181818;stroke-width:1.0;" width="10" x="470.5" y="112.7988"/><rect fill="#FFFFFF" height="29.3105" style="stroke:#181818;stroke-width:1.0;" width="10" x="470.5" y="477.6582"/><rect fill="#FFFFFF" height="176.8184" style="stroke:#181818;stroke-width:1.0;" width="10" x="656.5" y="300.8398"/><rect fill="#FFFFFF" height="73.7539" style="stroke:#181818;stroke-width:1.0;" width="10" x="1020" y="374.5938"/><line style="stroke:#181818;stroke-width:0.5;stroke-dasharray:5.0,5.0;" x1="56" x2="56" y1="81.4883" y2="524.9688"/><line style="stroke:#181818;stroke-width:0.5;stroke-dasharray:5.0,5.0;" x1="475.5" x2="475.5" y1="81.4883" y2="524.9688"/><line style="stroke:#181818;stroke-width:0.5;stroke-dasharray:5.0,5.0;" x1="661.5" x2="661.5" y1="268.7852" y2="524.9688"/><line style="stroke:#181818;stroke-width:0.5;stroke-dasharray:5.0,5.0;" x1="785.5" x2="785.5" y1="81.4883" y2="524.9688"/><line style="stroke:#181818;stroke-width:0.5;stroke-dasharray:5.0,5.0;" x1="898.5" x2="898.5" y1="81.4883" y2="524.9688"/><line style="stroke:#181818;stroke-width:0.5;stroke-dasharray:5.0,5.0;" x1="1024.5" x2="1024.5" y1="81.4883" y2="524.9688"/><text fill="#000000" font-family="sans-serif" font-size="14" lengthAdjust="spacing" textLength="97" x="5" y="78.5352">Fleet Manager</text><ellipse cx="56.5" cy="13.5" fill="#E3E3E3" rx="8" ry="8" style="stroke:#181818;stroke-width:0.5;"/><path d="M56.5,21.5 L56.5,48.5 M43.5,29.5 L69.5,29.5 M56.5,48.5 L43.5,63.5 M56.5,48.5 L69.5,63.5 " fill="none" style="stroke:#181818;stroke-width:0.5;"/><text fill="#000000" font-family="sans-serif" font-size="14" lengthAdjust="spacing" textLength="97" x="5" y="537.5039">Fleet Manager</text><ellipse cx="56.5" cy="548.957" fill="#E3E3E3" rx="8" ry="8" style="stroke:#181818;stroke-width:0.5;"/><path d="M56.5,556.957 L56.5,583.957 M43.5,564.957 L69.5,564.957 M56.5,583.957 L43.5,598.957 M56.5,583.957 L69.5,598.957 " fill="none" style="stroke:#181818;stroke-width:0.5;"/><rect fill="#E3E3E3" height="30.4883" rx="2.5" ry="2.5" style="stroke:#181818;stroke-width:0.5;" width="126" x="412.5" y="50"/><text fill="#000000" font-family="sans-serif" font-size="14" lengthAdjust="spacing" textLength="112" x="419.5" y="70.5352">:RetrieveTasksUI</text><rect fill="#E3E3E3" height="30.4883" rx="2.5" ry="2.5" style="stroke:#181818;stroke-width:0.5;" width="126" x="412.5" y="523.9688"/><text fill="#000000" font-family="sans-serif" font-size="14" lengthAdjust="spacing" textLength="112" x="419.5" y="544.5039">:RetrieveTasksUI</text><rect fill="#E3E3E3" height="30.4883" rx="2.5" ry="2.5" style="stroke:#181818;stroke-width:0.5;" width="126" x="598.5" y="523.9688"/><text fill="#000000" font-family="sans-serif" font-size="14" lengthAdjust="spacing" textLength="112" x="605.5" y="544.5039">:TeamController</text><rect fill="#E3E3E3" height="30.4883" rx="2.5" ry="2.5" style="stroke:#181818;stroke-width:0.5;" width="103" x="734.5" y="50"/><text fill="#000000" font-family="sans-serif" font-size="14" lengthAdjust="spacing" textLength="89" x="741.5" y="70.5352">:Repositories</text><rect fill="#E3E3E3" height="30.4883" rx="2.5" ry="2.5" style="stroke:#181818;stroke-width:0.5;" width="103" x="734.5" y="523.9688"/><text fill="#000000" font-family="sans-serif" font-size="14" lengthAdjust="spacing" textLength="89" x="741.5" y="544.5039">:Repositories</text><rect fill="#E3E3E3" height="46.9766" rx="2.5" ry="2.5" style="stroke:#181818;stroke-width:0.5;" width="103" x="847.5" y="33.5117"/><text fill="#000000" font-family="sans-serif" font-size="14" lengthAdjust="spacing" textLength="82" x="858" y="54.0469">repositories</text><text fill="#000000" font-family="sans-serif" font-size="14" lengthAdjust="spacing" textLength="89" x="854.5" y="70.5352">:Repositories</text><rect fill="#E3E3E3" height="46.9766" rx="2.5" ry="2.5" style="stroke:#181818;stroke-width:0.5;" width="103" x="847.5" y="523.9688"/><text fill="#000000" font-family="sans-serif" font-size="14" lengthAdjust="spacing" textLength="82" x="858" y="544.5039">repositories</text><text fill="#000000" font-family="sans-serif" font-size="14" lengthAdjust="spacing" textLength="89" x="854.5" y="560.9922">:Repositories</text><rect fill="#E3E3E3" height="46.9766" rx="2.5" ry="2.5" style="stroke:#181818;stroke-width:0.5;" width="129" x="960.5" y="33.5117"/><text fill="#000000" font-family="sans-serif" font-size="14" lengthAdjust="spacing" textLength="107" x="971.5" y="54.0469">teamRepository</text><text fill="#000000" font-family="sans-serif" font-size="14" lengthAdjust="spacing" textLength="115" x="967.5" y="70.5352">:TeamRepository</text><rect fill="#E3E3E3" height="46.9766" rx="2.5" ry="2.5" style="stroke:#181818;stroke-width:0.5;" width="129" x="960.5" y="523.9688"/><text fill="#000000" font-family="sans-serif" font-size="14" lengthAdjust="spacing" textLength="107" x="971.5" y="544.5039">teamRepository</text><text fill="#000000" font-family="sans-serif" font-size="14" lengthAdjust="spacing" textLength="115" x="967.5" y="560.9922">:TeamRepository</text><rect fill="#FFFFFF" height="415.4805" style="stroke:#181818;stroke-width:1.0;" width="10" x="51.5" y="91.4883"/><rect fill="#FFFFFF" height="188.041" style="stroke:#181818;stroke-width:1.0;" width="10" x="470.5" y="112.7988"/><rect fill="#FFFFFF" height="29.3105" style="stroke:#181818;stroke-width:1.0;" width="10" x="470.5" y="477.6582"/><rect fill="#FFFFFF" height="176.8184" style="stroke:#181818;stroke-width:1.0;" width="10" x="656.5" y="300.8398"/><rect fill="#FFFFFF" height="73.7539" style="stroke:#181818;stroke-width:1.0;" width="10" x="1020" y="374.5938"/><polygon fill="#181818" points="458.5,108.7988,468.5,112.7988,458.5,116.7988,462.5,112.7988" style="stroke:#181818;stroke-width:1.0;"/><line style="stroke:#181818;stroke-width:1.0;" x1="61.5" x2="464.5" y1="112.7988" y2="112.7988"/><text fill="#000000" font-family="sans-serif" font-size="13" font-weight="bold" lengthAdjust="spacing" textLength="9" x="68.5" y="108.0566">1</text><text fill="#000000" font-family="sans-serif" font-size="13" lengthAdjust="spacing" textLength="377" x="81.5" y="108.0566">Asks to generate a list of tasks assigned to the collaborator</text><polygon fill="#181818" points="72.5,138.1094,62.5,142.1094,72.5,146.1094,68.5,142.1094" style="stroke:#181818;stroke-width:1.0;"/><line style="stroke:#181818;stroke-width:1.0;stroke-dasharray:2.0,2.0;" x1="66.5" x2="469.5" y1="142.1094" y2="142.1094"/><text fill="#000000" font-family="sans-serif" font-size="13" font-weight="bold" lengthAdjust="spacing" textLength="9" x="78.5" y="137.3672">2</text><text fill="#000000" font-family="sans-serif" font-size="13" lengthAdjust="spacing" textLength="180" x="91.5" y="137.3672">Asks the start and end dates</text><polygon fill="#181818" points="458.5,167.4199,468.5,171.4199,458.5,175.4199,462.5,171.4199" style="stroke:#181818;stroke-width:1.0;"/><line style="stroke:#181818;stroke-width:1.0;" x1="61.5" x2="464.5" y1="171.4199" y2="171.4199"/><text fill="#000000" font-family="sans-serif" font-size="13" font-weight="bold" lengthAdjust="spacing" textLength="9" x="68.5" y="166.6777">3</text><text fill="#000000" font-family="sans-serif" font-size="13" lengthAdjust="spacing" textLength="115" x="81.5" y="166.6777">Provides the dates</text><polygon fill="#181818" points="72.5,196.7305,62.5,200.7305,72.5,204.7305,68.5,200.7305" style="stroke:#181818;stroke-width:1.0;"/><line style="stroke:#181818;stroke-width:1.0;stroke-dasharray:2.0,2.0;" x1="66.5" x2="469.5" y1="200.7305" y2="200.7305"/><text fill="#000000" font-family="sans-serif" font-size="13" font-weight="bold" lengthAdjust="spacing" textLength="9" x="78.5" y="195.9883">4</text><text fill="#000000" font-family="sans-serif" font-size="13" lengthAdjust="spacing" textLength="245" x="91.5" y="195.9883">Asks the collaborator taxpayer number</text><polygon fill="#181818" points="458.5,226.041,468.5,230.041,458.5,234.041,462.5,230.041" style="stroke:#181818;stroke-width:1.0;"/><line style="stroke:#181818;stroke-width:1.0;" x1="61.5" x2="464.5" y1="230.041" y2="230.041"/><text fill="#000000" font-family="sans-serif" font-size="13" font-weight="bold" lengthAdjust="spacing" textLength="9" x="68.5" y="225.2988">5</text><text fill="#000000" font-family="sans-serif" font-size="13" lengthAdjust="spacing" textLength="187" x="81.5" y="225.2988">Provides the taxpayer number</text><polygon fill="#181818" points="586.5,255.3516,596.5,259.3516,586.5,263.3516,590.5,259.3516" style="stroke:#181818;stroke-width:1.0;"/><line style="stroke:#181818;stroke-width:1.0;" x1="480.5" x2="592.5" y1="259.3516" y2="259.3516"/><text fill="#000000" font-family="sans-serif" font-size="13" font-weight="bold" lengthAdjust="spacing" textLength="9" x="487.5" y="254.6094">6</text><text fill="#000000" font-family="sans-serif" font-size="13" lengthAdjust="spacing" textLength="38" x="500.5" y="254.6094">create</text><rect fill="#E3E3E3" height="30.4883" rx="2.5" ry="2.5" style="stroke:#181818;stroke-width:0.5;" width="126" x="598.5" y="238.041"/><text fill="#000000" font-family="sans-serif" font-size="14" lengthAdjust="spacing" textLength="112" x="605.5" y="258.5762">:TeamController</text><polygon fill="#181818" points="644.5,296.8398,654.5,300.8398,644.5,304.8398,648.5,300.8398" style="stroke:#181818;stroke-width:1.0;"/><line style="stroke:#181818;stroke-width:1.0;" x1="475.5" x2="650.5" y1="300.8398" y2="300.8398"/><text fill="#000000" font-family="sans-serif" font-size="13" font-weight="bold" lengthAdjust="spacing" textLength="9" x="482.5" y="296.0977">7</text><text fill="#000000" font-family="sans-serif" font-size="13" lengthAdjust="spacing" textLength="144" x="495.5" y="296.0977">requestColabTaskList()</text><rect fill="none" height="39.4434" style="stroke:#000000;stroke-width:1.5;" width="358" x="595.5" y="308.8398"/><path d="M595.5,308.8398 L659.5,308.8398 L659.5,315.8398 L649.5,325.8398 L595.5,325.8398 L595.5,308.8398 " fill="#EEEEEE" style="stroke:#000000;stroke-width:2.0;"/><text fill="#000000" font-family="sans-serif" font-size="13" font-weight="bold" lengthAdjust="spacing" textLength="19" x="608.5" y="323.4082">ref</text><text fill="#000000" font-family="sans-serif" font-size="12" lengthAdjust="spacing" textLength="122" x="713.5" y="341.4414">Get Team Repository</text><polygon fill="#181818" points="1008,370.5938,1018,374.5938,1008,378.5938,1012,374.5938" style="stroke:#181818;stroke-width:1.0;"/><line style="stroke:#181818;stroke-width:1.0;" x1="666.5" x2="1014" y1="374.5938" y2="374.5938"/><text fill="#000000" font-family="sans-serif" font-size="13" font-weight="bold" lengthAdjust="spacing" textLength="9" x="673.5" y="369.8516">8</text><text fill="#000000" font-family="sans-serif" font-size="13" lengthAdjust="spacing" textLength="144" x="686.5" y="369.8516">requestColabTaskList()</text><rect fill="none" height="39.4434" style="stroke:#000000;stroke-width:1.5;" width="135" x="957.5" y="382.5938"/><path d="M957.5,382.5938 L1021.5,382.5938 L1021.5,389.5938 L1011.5,399.5938 L957.5,399.5938 L957.5,382.5938 " fill="#EEEEEE" style="stroke:#000000;stroke-width:2.0;"/><text fill="#000000" font-family="sans-serif" font-size="13" font-weight="bold" lengthAdjust="spacing" textLength="19" x="970.5" y="397.1621">ref</text><text fill="#000000" font-family="sans-serif" font-size="12" lengthAdjust="spacing" textLength="108" x="971" y="415.1953">Generate Task List</text><polygon fill="#181818" points="677.5,444.3477,667.5,448.3477,677.5,452.3477,673.5,448.3477" style="stroke:#181818;stroke-width:1.0;"/><line style="stroke:#181818;stroke-width:1.0;stroke-dasharray:2.0,2.0;" x1="671.5" x2="1024" y1="448.3477" y2="448.3477"/><text fill="#000000" font-family="sans-serif" font-size="13" font-weight="bold" lengthAdjust="spacing" textLength="9" x="683.5" y="443.6055">9</text><text fill="#000000" font-family="sans-serif" font-size="13" lengthAdjust="spacing" textLength="87" x="696.5" y="443.6055">colabTaskList</text><polygon fill="#181818" points="491.5,473.6582,481.5,477.6582,491.5,481.6582,487.5,477.6582" style="stroke:#181818;stroke-width:1.0;"/><line style="stroke:#181818;stroke-width:1.0;stroke-dasharray:2.0,2.0;" x1="485.5" x2="660.5" y1="477.6582" y2="477.6582"/><text fill="#000000" font-family="sans-serif" font-size="13" font-weight="bold" lengthAdjust="spacing" textLength="18" x="497.5" y="472.916">10</text><text fill="#000000" font-family="sans-serif" font-size="13" lengthAdjust="spacing" textLength="87" x="519.5" y="472.916">colabTaskList</text><polygon fill="#181818" points="67.5,502.9688,57.5,506.9688,67.5,510.9688,63.5,506.9688" style="stroke:#181818;stroke-width:1.0;"/><line style="stroke:#181818;stroke-width:1.0;stroke-dasharray:2.0,2.0;" x1="61.5" x2="474.5" y1="506.9688" y2="506.9688"/><text fill="#000000" font-family="sans-serif" font-size="13" font-weight="bold" lengthAdjust="spacing" textLength="18" x="73.5" y="502.2266">11</text><text fill="#000000" font-family="sans-serif" font-size="13" lengthAdjust="spacing" textLength="156" x="95.5" y="502.2266">Provides the list of tasks</text><!--SRC=[VL91Ri903Bpd5HQd5fKFSAXKLIf2eb9Lqbil9Z5XHRARUWqjlwztQM0J2f5Ga3CUZsVijyQsoDX0uwmhDkmQ0k4TPVxqfSLYYnKjvL0JC1M2jgfJWDzWwRwDhM2DjQSimvquksjMnFg_4CSmUgc915xHAXEF03qyknfNMQOKOWhJeXKOJTz9sD2USlHR_p6Fm8_v09GJDi_E2hkwxiZozyK5LUkyqU66VCIS2eUb2HkenduB9nsVzfBWRV6Kzpj4bPnfjIVl5M9N7nCDCNiKwWo8BvWywfumXIVT6yH1HPOue11gumNS6YHueepUL9RA098DGQ4cuCefrl6PMprJkeco7kaxOctmeXi0sX98VwMY_K336xkzAUa8Fm90dsk4gG8L-TFYWHZ-yW-DDzY7yAZwCSOv7YkuODBvQLcBJ5yxyX9fmw4irA2x-omhATq_CJeSHtYOrk3sEYrK7luxY8SOiiwOwRM6C26DBivN7Vr8RoY2auR15GHRJcekw6PT-84B0bcKdms0axCbHJevDM9uVSSLkYokjaNBRbnJByJUWGvII3dZlVy2]--></g></svg>