<?xml version="1.0" encoding="us-ascii" standalone="no"?><svg xmlns="http://www.w3.org/2000/svg" xmlns:xlink="http://www.w3.org/1999/xlink" contentStyleType="text/css" height="792px" preserveAspectRatio="none" style="width:1267px;height:792px;background:#FFFFFF;" version="1.1" viewBox="0 0 1267 792" width="1267px" zoomAndPan="magnify"><defs/><g><rect fill="#FFFFFF" height="602.0781" style="stroke:#181818;stroke-width:1.0;" width="10" x="46.5" y="91.4883"/><rect fill="#FFFFFF" height="188.041" style="stroke:#181818;stroke-width:1.0;" width="10" x="465.5" y="112.7988"/><rect fill="#FFFFFF" height="29.3105" style="stroke:#181818;stroke-width:1.0;" width="10" x="465.5" y="664.2559"/><rect fill="#FFFFFF" height="363.416" style="stroke:#181818;stroke-width:1.0;" width="10" x="651.5" y="300.8398"/><rect fill="#FFFFFF" height="29.3105" style="stroke:#181818;stroke-width:1.0;" width="10" x="776" y="330.1504"/><rect fill="#FFFFFF" height="29.3105" style="stroke:#181818;stroke-width:1.0;" width="10" x="889" y="388.7715"/><rect fill="#FFFFFF" height="187.5527" style="stroke:#181818;stroke-width:1.0;" width="10" x="1020" y="447.3926"/><rect fill="#FFFFFF" height="101.9316" style="stroke:#181818;stroke-width:1.0;" width="10" x="1020" y="447.3926"/><rect fill="#FFFFFF" height="40.3105" style="stroke:#181818;stroke-width:1.0;" width="10" x="1025" y="509.0137"/><rect fill="none" height="101.9316" style="stroke:#000000;stroke-width:1.5;" width="315.5" x="945.5" y="462.3926"/><line style="stroke:#181818;stroke-width:0.5;stroke-dasharray:5.0,5.0;" x1="51" x2="51" y1="81.4883" y2="711.5664"/><line style="stroke:#181818;stroke-width:0.5;stroke-dasharray:5.0,5.0;" x1="470.5" x2="470.5" y1="81.4883" y2="711.5664"/><line style="stroke:#181818;stroke-width:0.5;stroke-dasharray:5.0,5.0;" x1="656.5" x2="656.5" y1="268.7852" y2="711.5664"/><line style="stroke:#181818;stroke-width:0.5;stroke-dasharray:5.0,5.0;" x1="780.5" x2="780.5" y1="81.4883" y2="711.5664"/><line style="stroke:#181818;stroke-width:0.5;stroke-dasharray:5.0,5.0;" x1="893.5" x2="893.5" y1="81.4883" y2="711.5664"/><line style="stroke:#181818;stroke-width:0.5;stroke-dasharray:5.0,5.0;" x1="1019.5" x2="1019.5" y1="81.4883" y2="711.5664"/><text fill="#000000" font-family="sans-serif" font-size="14" lengthAdjust="spacing" textLength="87" x="5" y="78.5352">Collaborator</text><ellipse cx="51.5" cy="13.5" fill="#E3E3E3" rx="8" ry="8" style="stroke:#181818;stroke-width:0.5;"/><path d="M51.5,21.5 L51.5,48.5 M38.5,29.5 L64.5,29.5 M51.5,48.5 L38.5,63.5 M51.5,48.5 L64.5,63.5 " fill="none" style="stroke:#181818;stroke-width:0.5;"/><text fill="#000000" font-family="sans-serif" font-size="14" lengthAdjust="spacing" textLength="87" x="5" y="724.1016">Collaborator</text><ellipse cx="51.5" cy="735.5547" fill="#E3E3E3" rx="8" ry="8" style="stroke:#181818;stroke-width:0.5;"/><path d="M51.5,743.5547 L51.5,770.5547 M38.5,751.5547 L64.5,751.5547 M51.5,770.5547 L38.5,785.5547 M51.5,770.5547 L64.5,785.5547 " fill="none" style="stroke:#181818;stroke-width:0.5;"/><rect fill="#E3E3E3" height="30.4883" rx="2.5" ry="2.5" style="stroke:#181818;stroke-width:0.5;" width="126" x="407.5" y="50"/><text fill="#000000" font-family="sans-serif" font-size="14" lengthAdjust="spacing" textLength="112" x="414.5" y="70.5352">:RetrieveTasksUI</text><rect fill="#E3E3E3" height="30.4883" rx="2.5" ry="2.5" style="stroke:#181818;stroke-width:0.5;" width="126" x="407.5" y="710.5664"/><text fill="#000000" font-family="sans-serif" font-size="14" lengthAdjust="spacing" textLength="112" x="414.5" y="731.1016">:RetrieveTasksUI</text><rect fill="#E3E3E3" height="30.4883" rx="2.5" ry="2.5" style="stroke:#181818;stroke-width:0.5;" width="126" x="593.5" y="710.5664"/><text fill="#000000" font-family="sans-serif" font-size="14" lengthAdjust="spacing" textLength="112" x="600.5" y="731.1016">:TeamController</text><rect fill="#E3E3E3" height="30.4883" rx="2.5" ry="2.5" style="stroke:#181818;stroke-width:0.5;" width="103" x="729.5" y="50"/><text fill="#000000" font-family="sans-serif" font-size="14" lengthAdjust="spacing" textLength="89" x="736.5" y="70.5352">:Repositories</text><rect fill="#E3E3E3" height="30.4883" rx="2.5" ry="2.5" style="stroke:#181818;stroke-width:0.5;" width="103" x="729.5" y="710.5664"/><text fill="#000000" font-family="sans-serif" font-size="14" lengthAdjust="spacing" textLength="89" x="736.5" y="731.1016">:Repositories</text><rect fill="#E3E3E3" height="46.9766" rx="2.5" ry="2.5" style="stroke:#181818;stroke-width:0.5;" width="103" x="842.5" y="33.5117"/><text fill="#000000" font-family="sans-serif" font-size="14" lengthAdjust="spacing" textLength="82" x="853" y="54.0469">repositories</text><text fill="#000000" font-family="sans-serif" font-size="14" lengthAdjust="spacing" textLength="89" x="849.5" y="70.5352">:Repositories</text><rect fill="#E3E3E3" height="46.9766" rx="2.5" ry="2.5" style="stroke:#181818;stroke-width:0.5;" width="103" x="842.5" y="710.5664"/><text fill="#000000" font-family="sans-serif" font-size="14" lengthAdjust="spacing" textLength="82" x="853" y="731.1016">repositories</text><text fill="#000000" font-family="sans-serif" font-size="14" lengthAdjust="spacing" textLength="89" x="849.5" y="747.5898">:Repositories</text><rect fill="#E3E3E3" height="46.9766" rx="2.5" ry="2.5" style="stroke:#181818;stroke-width:0.5;" width="129" x="955.5" y="33.5117"/><text fill="#000000" font-family="sans-serif" font-size="14" lengthAdjust="spacing" textLength="107" x="966.5" y="54.0469">teamRepository</text><text fill="#000000" font-family="sans-serif" font-size="14" lengthAdjust="spacing" textLength="115" x="962.5" y="70.5352">:TeamRepository</text><rect fill="#E3E3E3" height="46.9766" rx="2.5" ry="2.5" style="stroke:#181818;stroke-width:0.5;" width="129" x="955.5" y="710.5664"/><text fill="#000000" font-family="sans-serif" font-size="14" lengthAdjust="spacing" textLength="107" x="966.5" y="731.1016">teamRepository</text><text fill="#000000" font-family="sans-serif" font-size="14" lengthAdjust="spacing" textLength="115" x="962.5" y="747.5898">:TeamRepository</text><rect fill="#FFFFFF" height="602.0781" style="stroke:#181818;stroke-width:1.0;" width="10" x="46.5" y="91.4883"/><rect fill="#FFFFFF" height="188.041" style="stroke:#181818;stroke-width:1.0;" width="10" x="465.5" y="112.7988"/><rect fill="#FFFFFF" height="29.3105" style="stroke:#181818;stroke-width:1.0;" width="10" x="465.5" y="664.2559"/><rect fill="#FFFFFF" height="363.416" style="stroke:#181818;stroke-width:1.0;" width="10" x="651.5" y="300.8398"/><rect fill="#FFFFFF" height="29.3105" style="stroke:#181818;stroke-width:1.0;" width="10" x="776" y="330.1504"/><rect fill="#FFFFFF" height="29.3105" style="stroke:#181818;stroke-width:1.0;" width="10" x="889" y="388.7715"/><rect fill="#FFFFFF" height="187.5527" style="stroke:#181818;stroke-width:1.0;" width="10" x="1020" y="447.3926"/><rect fill="#FFFFFF" height="101.9316" style="stroke:#181818;stroke-width:1.0;" width="10" x="1020" y="447.3926"/><rect fill="#FFFFFF" height="40.3105" style="stroke:#181818;stroke-width:1.0;" width="10" x="1025" y="509.0137"/><polygon fill="#181818" points="453.5,108.7988,463.5,112.7988,453.5,116.7988,457.5,112.7988" style="stroke:#181818;stroke-width:1.0;"/><line style="stroke:#181818;stroke-width:1.0;" x1="56.5" x2="459.5" y1="112.7988" y2="112.7988"/><text fill="#000000" font-family="sans-serif" font-size="13" font-weight="bold" lengthAdjust="spacing" textLength="9" x="63.5" y="108.0566">1</text><text fill="#000000" font-family="sans-serif" font-size="13" lengthAdjust="spacing" textLength="377" x="76.5" y="108.0566">Asks to generate a list of tasks assigned to the collaborator</text><polygon fill="#181818" points="67.5,138.1094,57.5,142.1094,67.5,146.1094,63.5,142.1094" style="stroke:#181818;stroke-width:1.0;"/><line style="stroke:#181818;stroke-width:1.0;stroke-dasharray:2.0,2.0;" x1="61.5" x2="464.5" y1="142.1094" y2="142.1094"/><text fill="#000000" font-family="sans-serif" font-size="13" font-weight="bold" lengthAdjust="spacing" textLength="9" x="73.5" y="137.3672">2</text><text fill="#000000" font-family="sans-serif" font-size="13" lengthAdjust="spacing" textLength="180" x="86.5" y="137.3672">Asks the start and end dates</text><polygon fill="#181818" points="453.5,167.4199,463.5,171.4199,453.5,175.4199,457.5,171.4199" style="stroke:#181818;stroke-width:1.0;"/><line style="stroke:#181818;stroke-width:1.0;" x1="56.5" x2="459.5" y1="171.4199" y2="171.4199"/><text fill="#000000" font-family="sans-serif" font-size="13" font-weight="bold" lengthAdjust="spacing" textLength="9" x="63.5" y="166.6777">3</text><text fill="#000000" font-family="sans-serif" font-size="13" lengthAdjust="spacing" textLength="115" x="76.5" y="166.6777">Provides the dates</text><polygon fill="#181818" points="67.5,196.7305,57.5,200.7305,67.5,204.7305,63.5,200.7305" style="stroke:#181818;stroke-width:1.0;"/><line style="stroke:#181818;stroke-width:1.0;stroke-dasharray:2.0,2.0;" x1="61.5" x2="464.5" y1="200.7305" y2="200.7305"/><text fill="#000000" font-family="sans-serif" font-size="13" font-weight="bold" lengthAdjust="spacing" textLength="9" x="73.5" y="195.9883">4</text><text fill="#000000" font-family="sans-serif" font-size="13" lengthAdjust="spacing" textLength="245" x="86.5" y="195.9883">Asks the collaborator taxpayer number</text><polygon fill="#181818" points="453.5,226.041,463.5,230.041,453.5,234.041,457.5,230.041" style="stroke:#181818;stroke-width:1.0;"/><line style="stroke:#181818;stroke-width:1.0;" x1="56.5" x2="459.5" y1="230.041" y2="230.041"/><text fill="#000000" font-family="sans-serif" font-size="13" font-weight="bold" lengthAdjust="spacing" textLength="9" x="63.5" y="225.2988">5</text><text fill="#000000" font-family="sans-serif" font-size="13" lengthAdjust="spacing" textLength="187" x="76.5" y="225.2988">Provides the taxpayer number</text><polygon fill="#181818" points="581.5,255.3516,591.5,259.3516,581.5,263.3516,585.5,259.3516" style="stroke:#181818;stroke-width:1.0;"/><line style="stroke:#181818;stroke-width:1.0;" x1="475.5" x2="587.5" y1="259.3516" y2="259.3516"/><text fill="#000000" font-family="sans-serif" font-size="13" font-weight="bold" lengthAdjust="spacing" textLength="9" x="482.5" y="254.6094">6</text><text fill="#000000" font-family="sans-serif" font-size="13" lengthAdjust="spacing" textLength="38" x="495.5" y="254.6094">create</text><rect fill="#E3E3E3" height="30.4883" rx="2.5" ry="2.5" style="stroke:#181818;stroke-width:0.5;" width="126" x="593.5" y="238.041"/><text fill="#000000" font-family="sans-serif" font-size="14" lengthAdjust="spacing" textLength="112" x="600.5" y="258.5762">:TeamController</text><polygon fill="#181818" points="639.5,296.8398,649.5,300.8398,639.5,304.8398,643.5,300.8398" style="stroke:#181818;stroke-width:1.0;"/><line style="stroke:#181818;stroke-width:1.0;" x1="470.5" x2="645.5" y1="300.8398" y2="300.8398"/><text fill="#000000" font-family="sans-serif" font-size="13" font-weight="bold" lengthAdjust="spacing" textLength="9" x="477.5" y="296.0977">7</text><text fill="#000000" font-family="sans-serif" font-size="13" lengthAdjust="spacing" textLength="144" x="490.5" y="296.0977">requestColabTaskList()</text><polygon fill="#181818" points="764,326.1504,774,330.1504,764,334.1504,768,330.1504" style="stroke:#181818;stroke-width:1.0;"/><line style="stroke:#181818;stroke-width:1.0;" x1="661.5" x2="770" y1="330.1504" y2="330.1504"/><text fill="#000000" font-family="sans-serif" font-size="13" font-weight="bold" lengthAdjust="spacing" textLength="9" x="668.5" y="325.4082">8</text><text fill="#000000" font-family="sans-serif" font-size="13" lengthAdjust="spacing" textLength="81" x="681.5" y="325.4082">getInstance()</text><polygon fill="#181818" points="672.5,355.4609,662.5,359.4609,672.5,363.4609,668.5,359.4609" style="stroke:#181818;stroke-width:1.0;"/><line style="stroke:#181818;stroke-width:1.0;stroke-dasharray:2.0,2.0;" x1="666.5" x2="780" y1="359.4609" y2="359.4609"/><text fill="#000000" font-family="sans-serif" font-size="13" font-weight="bold" lengthAdjust="spacing" textLength="9" x="678.5" y="354.7188">9</text><text fill="#000000" font-family="sans-serif" font-size="13" lengthAdjust="spacing" textLength="75" x="691.5" y="354.7188">repositories</text><polygon fill="#181818" points="877,384.7715,887,388.7715,877,392.7715,881,388.7715" style="stroke:#181818;stroke-width:1.0;"/><line style="stroke:#181818;stroke-width:1.0;" x1="661.5" x2="883" y1="388.7715" y2="388.7715"/><text fill="#000000" font-family="sans-serif" font-size="13" font-weight="bold" lengthAdjust="spacing" textLength="18" x="668.5" y="384.0293">10</text><text fill="#000000" font-family="sans-serif" font-size="13" lengthAdjust="spacing" textLength="129" x="690.5" y="384.0293">getTeamRepository()</text><polygon fill="#181818" points="672.5,414.082,662.5,418.082,672.5,422.082,668.5,418.082" style="stroke:#181818;stroke-width:1.0;"/><line style="stroke:#181818;stroke-width:1.0;stroke-dasharray:2.0,2.0;" x1="666.5" x2="893" y1="418.082" y2="418.082"/><text fill="#000000" font-family="sans-serif" font-size="13" font-weight="bold" lengthAdjust="spacing" textLength="18" x="678.5" y="413.3398">11</text><text fill="#000000" font-family="sans-serif" font-size="13" lengthAdjust="spacing" textLength="98" x="700.5" y="413.3398">teamRepository</text><polygon fill="#181818" points="1008,443.3926,1018,447.3926,1008,451.3926,1012,447.3926" style="stroke:#181818;stroke-width:1.0;"/><line style="stroke:#181818;stroke-width:1.0;" x1="661.5" x2="1014" y1="447.3926" y2="447.3926"/><text fill="#000000" font-family="sans-serif" font-size="13" font-weight="bold" lengthAdjust="spacing" textLength="18" x="668.5" y="442.6504">12</text><text fill="#000000" font-family="sans-serif" font-size="13" lengthAdjust="spacing" textLength="144" x="690.5" y="442.6504">requestColabTaskList()</text><path d="M945.5,462.3926 L1019.5,462.3926 L1019.5,469.7031 L1009.5,479.7031 L945.5,479.7031 L945.5,462.3926 " fill="#EEEEEE" style="stroke:#000000;stroke-width:1.5;"/><rect fill="none" height="101.9316" style="stroke:#000000;stroke-width:1.5;" width="315.5" x="945.5" y="462.3926"/><text fill="#000000" font-family="sans-serif" font-size="13" font-weight="bold" lengthAdjust="spacing" textLength="29" x="960.5" y="475.9609">loop</text><text fill="#000000" font-family="sans-serif" font-size="11" font-weight="bold" lengthAdjust="spacing" textLength="151" x="1034.5" y="475.0273">[for each team in teamList]</text><line style="stroke:#181818;stroke-width:1.0;" x1="1030" x2="1077" y1="496.0137" y2="496.0137"/><line style="stroke:#181818;stroke-width:1.0;" x1="1077" x2="1077" y1="496.0137" y2="509.0137"/><line style="stroke:#181818;stroke-width:1.0;" x1="1036" x2="1077" y1="509.0137" y2="509.0137"/><polygon fill="#181818" points="1046,505.0137,1036,509.0137,1046,513.0137,1042,509.0137" style="stroke:#181818;stroke-width:1.0;"/><text fill="#000000" font-family="sans-serif" font-size="13" font-weight="bold" lengthAdjust="spacing" textLength="18" x="1042" y="491.2715">13</text><text fill="#000000" font-family="sans-serif" font-size="13" lengthAdjust="spacing" textLength="185" x="1064" y="491.2715">getTeamByColabTaxNumber()</text><line style="stroke:#181818;stroke-width:1.0;stroke-dasharray:2.0,2.0;" x1="1035" x2="1077" y1="548.3242" y2="548.3242"/><line style="stroke:#181818;stroke-width:1.0;stroke-dasharray:2.0,2.0;" x1="1077" x2="1077" y1="548.3242" y2="561.3242"/><line style="stroke:#181818;stroke-width:1.0;stroke-dasharray:2.0,2.0;" x1="1030" x2="1077" y1="561.3242" y2="561.3242"/><polygon fill="#181818" points="1040,557.3242,1030,561.3242,1040,565.3242,1036,561.3242" style="stroke:#181818;stroke-width:1.0;"/><text fill="#000000" font-family="sans-serif" font-size="13" font-weight="bold" lengthAdjust="spacing" textLength="18" x="1042" y="543.582">14</text><text fill="#000000" font-family="sans-serif" font-size="13" lengthAdjust="spacing" textLength="62" x="1064" y="543.582">true/false</text><line style="stroke:#181818;stroke-width:1.0;stroke-dasharray:2.0,2.0;" x1="1025" x2="1067" y1="592.6348" y2="592.6348"/><line style="stroke:#181818;stroke-width:1.0;stroke-dasharray:2.0,2.0;" x1="1067" x2="1067" y1="592.6348" y2="605.6348"/><line style="stroke:#181818;stroke-width:1.0;stroke-dasharray:2.0,2.0;" x1="1026" x2="1067" y1="605.6348" y2="605.6348"/><polygon fill="#181818" points="1036,601.6348,1026,605.6348,1036,609.6348,1032,605.6348" style="stroke:#181818;stroke-width:1.0;"/><text fill="#000000" font-family="sans-serif" font-size="13" font-weight="bold" lengthAdjust="spacing" textLength="18" x="1032" y="587.8926">15</text><text fill="#000000" font-family="sans-serif" font-size="13" lengthAdjust="spacing" textLength="188" x="1054" y="587.8926">getColabTasksBetweenDates()</text><polygon fill="#181818" points="672.5,630.9453,662.5,634.9453,672.5,638.9453,668.5,634.9453" style="stroke:#181818;stroke-width:1.0;"/><line style="stroke:#181818;stroke-width:1.0;stroke-dasharray:2.0,2.0;" x1="666.5" x2="1019" y1="634.9453" y2="634.9453"/><text fill="#000000" font-family="sans-serif" font-size="13" font-weight="bold" lengthAdjust="spacing" textLength="18" x="678.5" y="630.2031">16</text><text fill="#000000" font-family="sans-serif" font-size="13" lengthAdjust="spacing" textLength="87" x="700.5" y="630.2031">colabTaskList</text><polygon fill="#181818" points="486.5,660.2559,476.5,664.2559,486.5,668.2559,482.5,664.2559" style="stroke:#181818;stroke-width:1.0;"/><line style="stroke:#181818;stroke-width:1.0;stroke-dasharray:2.0,2.0;" x1="480.5" x2="655.5" y1="664.2559" y2="664.2559"/><text fill="#000000" font-family="sans-serif" font-size="13" font-weight="bold" lengthAdjust="spacing" textLength="18" x="492.5" y="659.5137">17</text><text fill="#000000" font-family="sans-serif" font-size="13" lengthAdjust="spacing" textLength="89" x="514.5" y="659.5137">ColabTaskList</text><polygon fill="#181818" points="62.5,689.5664,52.5,693.5664,62.5,697.5664,58.5,693.5664" style="stroke:#181818;stroke-width:1.0;"/><line style="stroke:#181818;stroke-width:1.0;stroke-dasharray:2.0,2.0;" x1="56.5" x2="469.5" y1="693.5664" y2="693.5664"/><text fill="#000000" font-family="sans-serif" font-size="13" font-weight="bold" lengthAdjust="spacing" textLength="18" x="68.5" y="688.8242">18</text><text fill="#000000" font-family="sans-serif" font-size="13" lengthAdjust="spacing" textLength="156" x="90.5" y="688.8242">Provides the list of tasks</text><!--SRC=[bLJ1Rjim3BthAuYSjWB1xZqKQBDBW60eMlUs2sCpZX1RyYGcRVv-b6mdikCOg870ZlJu-4WzoX-qQT1X3RKrDjyxMnEmEvBobvq6ymEMzCxdYi1HpcZAAWNuFHRsKviITbXvKWgFRCsntfAJxvojWyNALXLkhKFvjm3q80kuLKeOMEUwGSEmU7mZTffEbA4_-8zr17wiHw2Ci5vPmquegIFBtZOtL8trMh9fyX5pMJY_wr20I1o6k2JYhxabUDqyPyC85YLNMed91WinQeY9_T0dPEeR45-mV98wuH6UfMvW2oKPSW65K6dFO7V0eIV2w7Lfg0WWtXFaIL-ltD8peLiAQqlV4qk0Pwa0q1H0yYi4xKSQNfqzwO9QU0i0UUuHfWf4v5U3PtBG7Ny8d64VmwFgftYS3my2pXr9_dHP5XtzEvBdI1kCif46_VYfL45f_KcZWpbYh71Ck40eI-AraSwOd8Jf4Zbb6JN5iEpK1N5NrwIA9gbwKS5PhOgXWL8jqNqg8g_PHkPAyhNmFi4GDzF3I_pOjZDRbRKDxEJm9Vi-xe8syHrOemL6-QSKTSM_d3jDNt-Y9KHK8BYlQuf-YZzSQh_Q-oc49AswBVN-fioC-aPIAUhIOlz2_4baVeU92hsMPuAZCtcUdeoQLTiUSZzVgtk1SGncReZ1O0ukdT5afPpj7NQpyXy0]--></g></svg>