<?xml version="1.0" encoding="us-ascii" standalone="no"?><svg xmlns="http://www.w3.org/2000/svg" xmlns:xlink="http://www.w3.org/1999/xlink" contentStyleType="text/css" height="451px" preserveAspectRatio="none" style="width:513px;height:451px;background:#FFFFFF;" version="1.1" viewBox="0 0 513 451" width="513px" zoomAndPan="magnify"><defs/><g><text fill="#000000" font-family="sans-serif" font-size="14" font-weight="bold" lengthAdjust="spacing" textLength="350" x="80.75" y="30.1074">System Sequence Diagram (SSD) - Alternative Two</text><rect fill="#FFFFFF" height="179.7461" style="stroke:#181818;stroke-width:1.0;" width="10" x="48.5" y="151.8633"/><rect fill="#FFFFFF" height="156.4551" style="stroke:#181818;stroke-width:1.0;" width="10" x="470.5" y="175.1543"/><line style="stroke:#181818;stroke-width:0.5;stroke-dasharray:5.0,5.0;" x1="53" x2="53" y1="141.8633" y2="349.6094"/><line style="stroke:#181818;stroke-width:0.5;stroke-dasharray:5.0,5.0;" x1="475.5" x2="475.5" y1="141.8633" y2="349.6094"/><text fill="#000000" font-family="sans-serif" font-size="14" lengthAdjust="spacing" textLength="91" x="5" y="119.7285">Green Spaces</text><text fill="#000000" font-family="sans-serif" font-size="14" lengthAdjust="spacing" textLength="56" x="22.5" y="138.3496">Manager</text><ellipse cx="53.5" cy="53.1211" fill="#E3E3E3" rx="8" ry="8" style="stroke:#181818;stroke-width:0.5;"/><path d="M53.5,61.1211 L53.5,88.1211 M40.5,69.1211 L66.5,69.1211 M53.5,88.1211 L40.5,103.1211 M53.5,88.1211 L66.5,103.1211 " fill="none" style="stroke:#181818;stroke-width:0.5;"/><text fill="#000000" font-family="sans-serif" font-size="14" lengthAdjust="spacing" textLength="91" x="5" y="363.7168">Green Spaces</text><text fill="#000000" font-family="sans-serif" font-size="14" lengthAdjust="spacing" textLength="56" x="22.5" y="382.3379">Manager</text><ellipse cx="53.5" cy="394.3516" fill="#E3E3E3" rx="8" ry="8" style="stroke:#181818;stroke-width:0.5;"/><path d="M53.5,402.3516 L53.5,429.3516 M40.5,410.3516 L66.5,410.3516 M53.5,429.3516 L40.5,444.3516 M53.5,429.3516 L66.5,444.3516 " fill="none" style="stroke:#181818;stroke-width:0.5;"/><rect fill="#E3E3E3" height="32.6211" rx="2.5" ry="2.5" style="stroke:#181818;stroke-width:0.5;" width="64" x="443.5" y="108.2422"/><text fill="#000000" font-family="sans-serif" font-size="14" lengthAdjust="spacing" textLength="50" x="450.5" y="130.3496">:System</text><rect fill="#E3E3E3" height="32.6211" rx="2.5" ry="2.5" style="stroke:#181818;stroke-width:0.5;" width="64" x="443.5" y="348.6094"/><text fill="#000000" font-family="sans-serif" font-size="14" lengthAdjust="spacing" textLength="50" x="450.5" y="370.7168">:System</text><rect fill="#FFFFFF" height="179.7461" style="stroke:#181818;stroke-width:1.0;" width="10" x="48.5" y="151.8633"/><rect fill="#FFFFFF" height="156.4551" style="stroke:#181818;stroke-width:1.0;" width="10" x="470.5" y="175.1543"/><polygon fill="#181818" points="458.5,171.1543,468.5,175.1543,458.5,179.1543,462.5,175.1543" style="stroke:#181818;stroke-width:1.0;"/><line style="stroke:#181818;stroke-width:1.0;stroke-dasharray:2.0,2.0;" x1="58.5" x2="464.5" y1="175.1543" y2="175.1543"/><text fill="#000000" font-family="sans-serif" font-size="13" font-weight="bold" lengthAdjust="spacing" textLength="7" x="65.5" y="169.8916">1</text><text fill="#000000" font-family="sans-serif" font-size="13" lengthAdjust="spacing" textLength="294" x="76.5" y="169.8916">Imports a .csv file containing water points locations</text><polygon fill="#181818" points="69.5,202.4453,59.5,206.4453,69.5,210.4453,65.5,206.4453" style="stroke:#181818;stroke-width:1.0;"/><line style="stroke:#181818;stroke-width:1.0;" x1="63.5" x2="469.5" y1="206.4453" y2="206.4453"/><text fill="#000000" font-family="sans-serif" font-size="13" font-weight="bold" lengthAdjust="spacing" textLength="7" x="75.5" y="201.1826">2</text><text fill="#000000" font-family="sans-serif" font-size="13" lengthAdjust="spacing" textLength="106" x="86.5" y="201.1826">Reads the .csv file</text><polygon fill="#181818" points="69.5,233.7363,59.5,237.7363,69.5,241.7363,65.5,237.7363" style="stroke:#181818;stroke-width:1.0;"/><line style="stroke:#181818;stroke-width:1.0;stroke-dasharray:2.0,2.0;" x1="63.5" x2="469.5" y1="237.7363" y2="237.7363"/><text fill="#000000" font-family="sans-serif" font-size="13" font-weight="bold" lengthAdjust="spacing" textLength="7" x="75.5" y="232.4736">3</text><text fill="#000000" font-family="sans-serif" font-size="13" lengthAdjust="spacing" textLength="377" x="86.5" y="232.4736">Displays operation failed because the file was in the wrong format</text><polygon fill="#181818" points="458.5,265.0273,468.5,269.0273,458.5,273.0273,462.5,269.0273" style="stroke:#181818;stroke-width:1.0;"/><line style="stroke:#181818;stroke-width:1.0;" x1="58.5" x2="464.5" y1="269.0273" y2="269.0273"/><text fill="#000000" font-family="sans-serif" font-size="13" font-weight="bold" lengthAdjust="spacing" textLength="7" x="65.5" y="263.7646">4</text><text fill="#000000" font-family="sans-serif" font-size="13" lengthAdjust="spacing" textLength="330" x="76.5" y="263.7646">Imports another .csv file containing water points locations</text><polygon fill="#181818" points="69.5,296.3184,59.5,300.3184,69.5,304.3184,65.5,300.3184" style="stroke:#181818;stroke-width:1.0;"/><line style="stroke:#181818;stroke-width:1.0;stroke-dasharray:2.0,2.0;" x1="63.5" x2="469.5" y1="300.3184" y2="300.3184"/><text fill="#000000" font-family="sans-serif" font-size="13" font-weight="bold" lengthAdjust="spacing" textLength="7" x="75.5" y="295.0557">5</text><text fill="#000000" font-family="sans-serif" font-size="13" lengthAdjust="spacing" textLength="185" x="86.5" y="295.0557">Reads and validates the .csv file</text><polygon fill="#181818" points="64.5,327.6094,54.5,331.6094,64.5,335.6094,60.5,331.6094" style="stroke:#181818;stroke-width:1.0;"/><line style="stroke:#181818;stroke-width:1.0;" x1="58.5" x2="474.5" y1="331.6094" y2="331.6094"/><text fill="#000000" font-family="sans-serif" font-size="13" font-weight="bold" lengthAdjust="spacing" textLength="7" x="70.5" y="326.3467">6</text><text fill="#000000" font-family="sans-serif" font-size="13" lengthAdjust="spacing" textLength="160" x="81.5" y="326.3467">Displays operation success</text><!--SRC=[bP6nRi9038RtUmgBgHte0p1KgeI4Eh0q7RkOYmad4ZizEubu-pe1KGIqLJFTnR_z_RzFzubRpDX08onnbwKXiDnHq7EbnRZ7YWexr0IPeY5NzQL0TrZAaBY2BTPA8LWobnO7DMgWeC-EE18i4rQZ_A4ebeymXvVQA3DQwWdU1ma1EnFkcWrbFqUJ3BDL9c8et0Bf1w-HtKYU0IgiYdLmlAMOMcI3sUB8cuh7OmXm-dnQwj5ewZh_zGlCvyydzG9UcrQoAI0yHUrXcpn453PCF8ORV426LXAxffRepeNrbd4DF-t1GIDm0M-4fOBjw1jpepsBbqdR6WyAqbAUYBvaxoXXGn4xfMdGP7Nmu8cd-v1bV0t93TfLtZjnMRmd_olqpuQFwP1BwB5EfRV_bVMNgDf5V_WBN4dNQxvJyN5V]--></g></svg>