<?xml version="1.0" encoding="us-ascii" standalone="no"?><svg xmlns="http://www.w3.org/2000/svg" xmlns:xlink="http://www.w3.org/1999/xlink" contentStyleType="text/css" height="954.4px" preserveAspectRatio="none" style="width:804px;height:954px;background:#FFFFFF;" version="1.1" viewBox="0 0 804 954" width="804px" zoomAndPan="magnify"><defs/><g><rect fill="#FFFFFF" height="810.075" style="stroke:#181818;stroke-width:0.8000000000000002;" width="8" x="66" y="73.0375"/><rect fill="#FFFFFF" height="552.1313" style="stroke:#181818;stroke-width:0.8000000000000002;" width="8" x="275.6" y="89.9438"/><rect fill="#FFFFFF" height="23.3063" style="stroke:#181818;stroke-width:0.8000000000000002;" width="8" x="275.6" y="665.3813"/><rect fill="#FFFFFF" height="35.4125" style="stroke:#181818;stroke-width:0.8000000000000002;" width="8" x="275.6" y="711.9938"/><rect fill="#FFFFFF" height="105.2" style="stroke:#181818;stroke-width:0.8000000000000002;" width="8" x="275.6" y="770.7125"/><rect fill="#FFFFFF" height="65.1188" style="stroke:#181818;stroke-width:0.8000000000000002;" width="8" x="594" y="121.25"/><rect fill="#FFFFFF" height="371.3875" style="stroke:#181818;stroke-width:0.8000000000000002;" width="8" x="594" y="235.275"/><rect fill="#FFFFFF" height="67.3875" style="stroke:#181818;stroke-width:0.8000000000000002;" width="8" x="598" y="264.9813"/><rect fill="#FFFFFF" height="67.3875" style="stroke:#181818;stroke-width:0.8000000000000002;" width="8" x="598" y="387.675"/><rect fill="#FFFFFF" height="67.3875" style="stroke:#181818;stroke-width:0.8000000000000002;" width="8" x="598" y="510.3688"/><rect fill="#FFFFFF" height="58.5875" style="stroke:#181818;stroke-width:0.8000000000000002;" width="8" x="594" y="794.0188"/><line style="stroke:#181818;stroke-width:0.4000000000000001;stroke-dasharray:5.0,5.0;" x1="69.6" x2="69.6" y1="65.0375" y2="890.3125"/><line style="stroke:#181818;stroke-width:0.4000000000000001;stroke-dasharray:5.0,5.0;" x1="279.6" x2="279.6" y1="65.0375" y2="890.3125"/><line style="stroke:#181818;stroke-width:0.4000000000000001;stroke-dasharray:5.0,5.0;" x1="597.6" x2="597.6" y1="120.8625" y2="890.3125"/><text fill="#000000" font-family="sans-serif" font-size="11.2" lengthAdjust="spacing" textLength="127.2" x="4" y="62.3961">Green Space Manager</text><ellipse cx="70" cy="10.8" fill="#E3E3E3" rx="6.4" ry="6.4" style="stroke:#181818;stroke-width:0.4000000000000001;"/><path d="M70,17.2 L70,38.8 M59.6,23.6 L80.4,23.6 M70,38.8 L59.6,50.8 M70,38.8 L80.4,50.8 " fill="none" style="stroke:#181818;stroke-width:0.4000000000000001;"/><text fill="#000000" font-family="sans-serif" font-size="11.2" lengthAdjust="spacing" textLength="127.2" x="4" y="899.9086">Green Space Manager</text><ellipse cx="70" cy="909.35" fill="#E3E3E3" rx="6.4" ry="6.4" style="stroke:#181818;stroke-width:0.4000000000000001;"/><path d="M70,915.75 L70,937.35 M59.6,922.15 L80.4,922.15 M70,937.35 L59.6,949.35 M70,937.35 L80.4,949.35 " fill="none" style="stroke:#181818;stroke-width:0.4000000000000001;"/><rect fill="#E3E3E3" height="24.2375" rx="2" ry="2" style="stroke:#181818;stroke-width:0.4000000000000001;" width="70.4" x="244.4" y="40"/><text fill="#000000" font-family="sans-serif" font-size="11.2" lengthAdjust="spacing" textLength="59.2" x="250" y="55.9961">:AgendaUI</text><rect fill="#E3E3E3" height="24.2375" rx="2" ry="2" style="stroke:#181818;stroke-width:0.4000000000000001;" width="70.4" x="244.4" y="889.5125"/><text fill="#000000" font-family="sans-serif" font-size="11.2" lengthAdjust="spacing" textLength="59.2" x="250" y="905.5086">:AgendaUI</text><rect fill="#E3E3E3" height="24.2375" rx="2" ry="2" style="stroke:#181818;stroke-width:0.4000000000000001;" width="116" x="540" y="889.5125"/><text fill="#000000" font-family="sans-serif" font-size="11.2" lengthAdjust="spacing" textLength="104.8" x="545.6" y="905.5086">:AgendaController</text><rect fill="#FFFFFF" height="810.075" style="stroke:#181818;stroke-width:0.8000000000000002;" width="8" x="66" y="73.0375"/><rect fill="#FFFFFF" height="552.1313" style="stroke:#181818;stroke-width:0.8000000000000002;" width="8" x="275.6" y="89.9438"/><rect fill="#FFFFFF" height="23.3063" style="stroke:#181818;stroke-width:0.8000000000000002;" width="8" x="275.6" y="665.3813"/><rect fill="#FFFFFF" height="35.4125" style="stroke:#181818;stroke-width:0.8000000000000002;" width="8" x="275.6" y="711.9938"/><rect fill="#FFFFFF" height="105.2" style="stroke:#181818;stroke-width:0.8000000000000002;" width="8" x="275.6" y="770.7125"/><rect fill="#FFFFFF" height="65.1188" style="stroke:#181818;stroke-width:0.8000000000000002;" width="8" x="594" y="121.25"/><rect fill="#FFFFFF" height="371.3875" style="stroke:#181818;stroke-width:0.8000000000000002;" width="8" x="594" y="235.275"/><rect fill="#FFFFFF" height="67.3875" style="stroke:#181818;stroke-width:0.8000000000000002;" width="8" x="598" y="264.9813"/><rect fill="#FFFFFF" height="67.3875" style="stroke:#181818;stroke-width:0.8000000000000002;" width="8" x="598" y="387.675"/><rect fill="#FFFFFF" height="67.3875" style="stroke:#181818;stroke-width:0.8000000000000002;" width="8" x="598" y="510.3688"/><rect fill="#FFFFFF" height="58.5875" style="stroke:#181818;stroke-width:0.8000000000000002;" width="8" x="594" y="794.0188"/><polygon fill="#181818" points="266,86.7438,274,89.9438,266,93.1438,269.2,89.9438" style="stroke:#181818;stroke-width:0.8000000000000002;"/><line style="stroke:#181818;stroke-width:0.8000000000000002;" x1="74" x2="270.8" y1="89.9438" y2="89.9438"/><text fill="#000000" font-family="sans-serif" font-size="10.4" font-weight="bold" lengthAdjust="spacing" textLength="7.2" x="79.6" y="85.891">1</text><text fill="#000000" font-family="sans-serif" font-size="10.4" lengthAdjust="spacing" textLength="176" x="90" y="85.891">ask to add an entry in the Agenda</text><polygon fill="#181818" points="530.4,110.05,538.4,113.25,530.4,116.45,533.6,113.25" style="stroke:#181818;stroke-width:0.8000000000000002;"/><line style="stroke:#181818;stroke-width:0.8000000000000002;" x1="283.6" x2="535.2" y1="113.25" y2="113.25"/><text fill="#000000" font-family="sans-serif" font-size="10.4" font-weight="bold" lengthAdjust="spacing" textLength="7.2" x="289.2" y="109.1973">2</text><text fill="#000000" font-family="sans-serif" font-size="10.4" lengthAdjust="spacing" textLength="32.8" x="299.6" y="109.1973">create</text><rect fill="#E3E3E3" height="24.2375" rx="2" ry="2" style="stroke:#181818;stroke-width:0.4000000000000001;" width="116" x="540" y="96.3438"/><text fill="#000000" font-family="sans-serif" font-size="11.2" lengthAdjust="spacing" textLength="104.8" x="545.6" y="112.3398">:AgendaController</text><rect fill="none" height="31.2813" style="stroke:#000000;stroke-width:1.2000000000000002;" width="120.8" x="537.6" y="129.3813"/><path d="M537.6,129.3813 L590.4,129.3813 L590.4,134.9813 L582.4,142.9813 L537.6,142.9813 L537.6,129.3813 " fill="#EEEEEE" style="stroke:#000000;stroke-width:1.6000000000000003;"/><text fill="#000000" font-family="sans-serif" font-size="10.4" font-weight="bold" lengthAdjust="spacing" textLength="16.8" x="548" y="140.6348">ref</text><text fill="#000000" font-family="sans-serif" font-size="9.6" lengthAdjust="spacing" textLength="77.6" x="559.2" y="155.0922">Get Repositories</text><line style="stroke:#181818;stroke-width:0.8000000000000002;stroke-dasharray:2.0,2.0;" x1="602" x2="635.6" y1="185.5688" y2="185.5688"/><line style="stroke:#181818;stroke-width:0.8000000000000002;stroke-dasharray:2.0,2.0;" x1="635.6" x2="635.6" y1="185.5688" y2="195.9688"/><line style="stroke:#181818;stroke-width:0.8000000000000002;stroke-dasharray:2.0,2.0;" x1="598" x2="635.6" y1="195.9688" y2="195.9688"/><polygon fill="#181818" points="606,192.7688,598,195.9688,606,199.1688,602.8,195.9688" style="stroke:#181818;stroke-width:0.8000000000000002;"/><text fill="#000000" font-family="sans-serif" font-size="10.4" font-weight="bold" lengthAdjust="spacing" textLength="7.2" x="607.6" y="181.516">3</text><text fill="#000000" font-family="sans-serif" font-size="10.4" lengthAdjust="spacing" textLength="61.6" x="618" y="181.516">repositories</text><polygon fill="#181818" points="584.4,232.075,592.4,235.275,584.4,238.475,587.6,235.275" style="stroke:#181818;stroke-width:0.8000000000000002;"/><line style="stroke:#181818;stroke-width:0.8000000000000002;" x1="283.6" x2="589.2" y1="235.275" y2="235.275"/><text fill="#000000" font-family="sans-serif" font-size="10.4" font-weight="bold" lengthAdjust="spacing" textLength="7.2" x="289.2" y="231.2223">4</text><text fill="#000000" font-family="sans-serif" font-size="10.4" lengthAdjust="spacing" textLength="172" x="299.6" y="231.2223">getToDoListDTOForResponsible()</text><line style="stroke:#181818;stroke-width:0.8000000000000002;" x1="602" x2="639.6" y1="254.5813" y2="254.5813"/><line style="stroke:#181818;stroke-width:0.8000000000000002;" x1="639.6" x2="639.6" y1="254.5813" y2="264.9813"/><line style="stroke:#181818;stroke-width:0.8000000000000002;" x1="606.8" x2="639.6" y1="264.9813" y2="264.9813"/><polygon fill="#181818" points="614.8,261.7813,606.8,264.9813,614.8,268.1813,611.6,264.9813" style="stroke:#181818;stroke-width:0.8000000000000002;"/><text fill="#000000" font-family="sans-serif" font-size="10.4" font-weight="bold" lengthAdjust="spacing" textLength="7.2" x="611.6" y="250.5285">5</text><text fill="#000000" font-family="sans-serif" font-size="10.4" lengthAdjust="spacing" textLength="88" x="622" y="250.5285">getResponsible()</text><rect fill="none" height="31.2813" style="stroke:#000000;stroke-width:1.2000000000000002;" width="120.8" x="537.6" y="275.3813"/><path d="M537.6,275.3813 L590.4,275.3813 L590.4,280.9813 L582.4,288.9813 L537.6,288.9813 L537.6,275.3813 " fill="#EEEEEE" style="stroke:#000000;stroke-width:1.6000000000000003;"/><text fill="#000000" font-family="sans-serif" font-size="10.4" font-weight="bold" lengthAdjust="spacing" textLength="16.8" x="548" y="286.6348">ref</text><text fill="#000000" font-family="sans-serif" font-size="9.6" lengthAdjust="spacing" textLength="76.8" x="559.6" y="301.0922">Get Responsible</text><line style="stroke:#181818;stroke-width:0.8000000000000002;stroke-dasharray:2.0,2.0;" x1="606" x2="639.6" y1="331.5688" y2="331.5688"/><line style="stroke:#181818;stroke-width:0.8000000000000002;stroke-dasharray:2.0,2.0;" x1="639.6" x2="639.6" y1="331.5688" y2="341.9688"/><line style="stroke:#181818;stroke-width:0.8000000000000002;stroke-dasharray:2.0,2.0;" x1="602" x2="639.6" y1="341.9688" y2="341.9688"/><polygon fill="#181818" points="610,338.7688,602,341.9688,610,345.1688,606.8,341.9688" style="stroke:#181818;stroke-width:0.8000000000000002;"/><text fill="#000000" font-family="sans-serif" font-size="10.4" font-weight="bold" lengthAdjust="spacing" textLength="7.2" x="611.6" y="327.516">6</text><text fill="#000000" font-family="sans-serif" font-size="10.4" lengthAdjust="spacing" textLength="29.6" x="622" y="327.516">email</text><line style="stroke:#181818;stroke-width:0.8000000000000002;" x1="602" x2="639.6" y1="377.275" y2="377.275"/><line style="stroke:#181818;stroke-width:0.8000000000000002;" x1="639.6" x2="639.6" y1="377.275" y2="387.675"/><line style="stroke:#181818;stroke-width:0.8000000000000002;" x1="606.8" x2="639.6" y1="387.675" y2="387.675"/><polygon fill="#181818" points="614.8,384.475,606.8,387.675,614.8,390.875,611.6,387.675" style="stroke:#181818;stroke-width:0.8000000000000002;"/><text fill="#000000" font-family="sans-serif" font-size="10.4" font-weight="bold" lengthAdjust="spacing" textLength="7.2" x="611.6" y="373.2223">7</text><text fill="#000000" font-family="sans-serif" font-size="10.4" lengthAdjust="spacing" textLength="176.8" x="622" y="373.2223">getToDoEntryListForResponsible()</text><rect fill="none" height="31.2813" style="stroke:#000000;stroke-width:1.2000000000000002;" width="148.8" x="537.6" y="398.075"/><path d="M537.6,398.075 L590.4,398.075 L590.4,403.675 L582.4,411.675 L537.6,411.675 L537.6,398.075 " fill="#EEEEEE" style="stroke:#000000;stroke-width:1.6000000000000003;"/><text fill="#000000" font-family="sans-serif" font-size="10.4" font-weight="bold" lengthAdjust="spacing" textLength="16.8" x="548" y="409.3285">ref</text><text fill="#000000" font-family="sans-serif" font-size="9.6" lengthAdjust="spacing" textLength="142.4" x="540.8" y="423.7859">Get ToDo List For Responsible</text><line style="stroke:#181818;stroke-width:0.8000000000000002;stroke-dasharray:2.0,2.0;" x1="606" x2="639.6" y1="454.2625" y2="454.2625"/><line style="stroke:#181818;stroke-width:0.8000000000000002;stroke-dasharray:2.0,2.0;" x1="639.6" x2="639.6" y1="454.2625" y2="464.6625"/><line style="stroke:#181818;stroke-width:0.8000000000000002;stroke-dasharray:2.0,2.0;" x1="602" x2="639.6" y1="464.6625" y2="464.6625"/><polygon fill="#181818" points="610,461.4625,602,464.6625,610,467.8625,606.8,464.6625" style="stroke:#181818;stroke-width:0.8000000000000002;"/><text fill="#000000" font-family="sans-serif" font-size="10.4" font-weight="bold" lengthAdjust="spacing" textLength="7.2" x="611.6" y="450.2098">8</text><text fill="#000000" font-family="sans-serif" font-size="10.4" lengthAdjust="spacing" textLength="147.2" x="622" y="450.2098">listToDoEntryByResponsible</text><line style="stroke:#181818;stroke-width:0.8000000000000002;" x1="602" x2="639.6" y1="499.9688" y2="499.9688"/><line style="stroke:#181818;stroke-width:0.8000000000000002;" x1="639.6" x2="639.6" y1="499.9688" y2="510.3688"/><line style="stroke:#181818;stroke-width:0.8000000000000002;" x1="606.8" x2="639.6" y1="510.3688" y2="510.3688"/><polygon fill="#181818" points="614.8,507.1688,606.8,510.3688,614.8,513.5688,611.6,510.3688" style="stroke:#181818;stroke-width:0.8000000000000002;"/><text fill="#000000" font-family="sans-serif" font-size="10.4" font-weight="bold" lengthAdjust="spacing" textLength="7.2" x="611.6" y="495.916">9</text><text fill="#000000" font-family="sans-serif" font-size="10.4" lengthAdjust="spacing" textLength="172" x="622" y="495.916">getToDoListDTOForResponsible()</text><rect fill="none" height="31.2813" style="stroke:#000000;stroke-width:1.2000000000000002;" width="169.6" x="537.6" y="520.7688"/><path d="M537.6,520.7688 L590.4,520.7688 L590.4,526.3688 L582.4,534.3688 L537.6,534.3688 L537.6,520.7688 " fill="#EEEEEE" style="stroke:#000000;stroke-width:1.6000000000000003;"/><text fill="#000000" font-family="sans-serif" font-size="10.4" font-weight="bold" lengthAdjust="spacing" textLength="16.8" x="548" y="532.0223">ref</text><text fill="#000000" font-family="sans-serif" font-size="9.6" lengthAdjust="spacing" textLength="163.2" x="540.8" y="546.4797">Get ToDo List DTO for Responsible</text><line style="stroke:#181818;stroke-width:0.8000000000000002;stroke-dasharray:2.0,2.0;" x1="606" x2="639.6" y1="576.9563" y2="576.9563"/><line style="stroke:#181818;stroke-width:0.8000000000000002;stroke-dasharray:2.0,2.0;" x1="639.6" x2="639.6" y1="576.9563" y2="587.3563"/><line style="stroke:#181818;stroke-width:0.8000000000000002;stroke-dasharray:2.0,2.0;" x1="602" x2="639.6" y1="587.3563" y2="587.3563"/><polygon fill="#181818" points="610,584.1563,602,587.3563,610,590.5563,606.8,587.3563" style="stroke:#181818;stroke-width:0.8000000000000002;"/><text fill="#000000" font-family="sans-serif" font-size="10.4" font-weight="bold" lengthAdjust="spacing" textLength="14.4" x="611.6" y="572.9035">10</text><text fill="#000000" font-family="sans-serif" font-size="10.4" lengthAdjust="spacing" textLength="88.8" x="629.2" y="572.9035">listToDoEntryDto</text><polygon fill="#181818" points="292.4,603.4625,284.4,606.6625,292.4,609.8625,289.2,606.6625" style="stroke:#181818;stroke-width:0.8000000000000002;"/><line style="stroke:#181818;stroke-width:0.8000000000000002;stroke-dasharray:2.0,2.0;" x1="287.6" x2="597.2" y1="606.6625" y2="606.6625"/><text fill="#000000" font-family="sans-serif" font-size="10.4" font-weight="bold" lengthAdjust="spacing" textLength="14.4" x="297.2" y="602.6098">11</text><text fill="#000000" font-family="sans-serif" font-size="10.4" lengthAdjust="spacing" textLength="88.8" x="314.8" y="602.6098">listToDoEntryDto</text><polygon fill="#181818" points="82.8,638.875,74.8,642.075,82.8,645.275,79.6,642.075" style="stroke:#181818;stroke-width:0.8000000000000002;"/><line style="stroke:#181818;stroke-width:0.8000000000000002;stroke-dasharray:2.0,2.0;" x1="78" x2="278.8" y1="642.075" y2="642.075"/><text fill="#000000" font-family="sans-serif" font-size="10.4" font-weight="bold" lengthAdjust="spacing" textLength="14.4" x="87.6" y="631.9691">12</text><text fill="#000000" font-family="sans-serif" font-size="10.4" lengthAdjust="spacing" textLength="120.8" x="105.2" y="625.916">shows list of toDoEntry</text><text fill="#000000" font-family="sans-serif" font-size="10.4" lengthAdjust="spacing" textLength="121.6" x="108.4" y="638.0223">and request a selection</text><polygon fill="#181818" points="266,662.1813,274,665.3813,266,668.5813,269.2,665.3813" style="stroke:#181818;stroke-width:0.8000000000000002;"/><line style="stroke:#181818;stroke-width:0.8000000000000002;" x1="74" x2="270.8" y1="665.3813" y2="665.3813"/><text fill="#000000" font-family="sans-serif" font-size="10.4" font-weight="bold" lengthAdjust="spacing" textLength="14.4" x="79.6" y="661.3285">13</text><text fill="#000000" font-family="sans-serif" font-size="10.4" lengthAdjust="spacing" textLength="83.2" x="97.2" y="661.3285">select an option</text><polygon fill="#181818" points="82.8,685.4875,74.8,688.6875,82.8,691.8875,79.6,688.6875" style="stroke:#181818;stroke-width:0.8000000000000002;"/><line style="stroke:#181818;stroke-width:0.8000000000000002;stroke-dasharray:2.0,2.0;" x1="78" x2="278.8" y1="688.6875" y2="688.6875"/><text fill="#000000" font-family="sans-serif" font-size="10.4" font-weight="bold" lengthAdjust="spacing" textLength="14.4" x="87.6" y="684.6348">14</text><text fill="#000000" font-family="sans-serif" font-size="10.4" lengthAdjust="spacing" textLength="141.6" x="105.2" y="684.6348">request data (startingDate)</text><polygon fill="#181818" points="266,708.7938,274,711.9938,266,715.1938,269.2,711.9938" style="stroke:#181818;stroke-width:0.8000000000000002;"/><line style="stroke:#181818;stroke-width:0.8000000000000002;" x1="74" x2="270.8" y1="711.9938" y2="711.9938"/><text fill="#000000" font-family="sans-serif" font-size="10.4" font-weight="bold" lengthAdjust="spacing" textLength="14.4" x="79.6" y="707.941">15</text><text fill="#000000" font-family="sans-serif" font-size="10.4" lengthAdjust="spacing" textLength="110.4" x="97.2" y="707.941">types requested data</text><polygon fill="#181818" points="82.8,744.2063,74.8,747.4063,82.8,750.6063,79.6,747.4063" style="stroke:#181818;stroke-width:0.8000000000000002;"/><line style="stroke:#181818;stroke-width:0.8000000000000002;stroke-dasharray:2.0,2.0;" x1="78" x2="278.8" y1="747.4063" y2="747.4063"/><text fill="#000000" font-family="sans-serif" font-size="10.4" font-weight="bold" lengthAdjust="spacing" textLength="14.4" x="87.6" y="737.3004">16</text><text fill="#000000" font-family="sans-serif" font-size="10.4" lengthAdjust="spacing" textLength="125.6" x="105.2" y="731.2473">show all data registered</text><text fill="#000000" font-family="sans-serif" font-size="10.4" lengthAdjust="spacing" textLength="141.6" x="108.4" y="743.3535">and the confirmation menu</text><polygon fill="#181818" points="266,767.5125,274,770.7125,266,773.9125,269.2,770.7125" style="stroke:#181818;stroke-width:0.8000000000000002;"/><line style="stroke:#181818;stroke-width:0.8000000000000002;" x1="74" x2="270.8" y1="770.7125" y2="770.7125"/><text fill="#000000" font-family="sans-serif" font-size="10.4" font-weight="bold" lengthAdjust="spacing" textLength="14.4" x="79.6" y="766.6598">17</text><text fill="#000000" font-family="sans-serif" font-size="10.4" lengthAdjust="spacing" textLength="68" x="97.2" y="766.6598">submits data</text><polygon fill="#181818" points="584.4,790.8188,592.4,794.0188,584.4,797.2188,587.6,794.0188" style="stroke:#181818;stroke-width:0.8000000000000002;"/><line style="stroke:#181818;stroke-width:0.8000000000000002;" x1="283.6" x2="589.2" y1="794.0188" y2="794.0188"/><text fill="#000000" font-family="sans-serif" font-size="10.4" font-weight="bold" lengthAdjust="spacing" textLength="14.4" x="289.2" y="789.966">18</text><text fill="#000000" font-family="sans-serif" font-size="10.4" lengthAdjust="spacing" textLength="277.6" x="306.8" y="789.966">registerAgendaEntry(toDoEntryOption, starting_Date)</text><rect fill="none" height="31.2813" style="stroke:#000000;stroke-width:1.2000000000000002;" width="120.8" x="537.6" y="800.4188"/><path d="M537.6,800.4188 L590.4,800.4188 L590.4,806.0188 L582.4,814.0188 L537.6,814.0188 L537.6,800.4188 " fill="#EEEEEE" style="stroke:#000000;stroke-width:1.6000000000000003;"/><text fill="#000000" font-family="sans-serif" font-size="10.4" font-weight="bold" lengthAdjust="spacing" textLength="16.8" x="548" y="811.6723">ref</text><text fill="#000000" font-family="sans-serif" font-size="9.6" lengthAdjust="spacing" textLength="108.8" x="543.6" y="826.1297">Register Agenda Entry</text><polygon fill="#181818" points="292.4,849.4063,284.4,852.6063,292.4,855.8063,289.2,852.6063" style="stroke:#181818;stroke-width:0.8000000000000002;"/><line style="stroke:#181818;stroke-width:0.8000000000000002;stroke-dasharray:2.0,2.0;" x1="287.6" x2="597.2" y1="852.6063" y2="852.6063"/><text fill="#000000" font-family="sans-serif" font-size="10.4" font-weight="bold" lengthAdjust="spacing" textLength="14.4" x="297.2" y="848.5535">19</text><text fill="#000000" font-family="sans-serif" font-size="10.4" lengthAdjust="spacing" textLength="65.6" x="314.8" y="848.5535">agendaEntry</text><polygon fill="#181818" points="82.8,872.7125,74.8,875.9125,82.8,879.1125,79.6,875.9125" style="stroke:#181818;stroke-width:0.8000000000000002;"/><line style="stroke:#181818;stroke-width:0.8000000000000002;stroke-dasharray:2.0,2.0;" x1="78" x2="278.8" y1="875.9125" y2="875.9125"/><text fill="#000000" font-family="sans-serif" font-size="10.4" font-weight="bold" lengthAdjust="spacing" textLength="14.4" x="87.6" y="871.8598">20</text><text fill="#000000" font-family="sans-serif" font-size="10.4" lengthAdjust="spacing" textLength="147.2" x="105.2" y="871.8598">shows operation (in)success</text><!--SRC=[fPNTQkCm48Nl_HH3hvAoVO5SBEmsRIbqAQJftSAYs1D7HDPu9Raba8VVaUM_E5PIM5_PaUQSeo_ZiTrBNGeZ2YX8KxepL20uKs5YkvLIf7kHuvixA0I3gHCwLyCDTYSo-fGwXwrG5fD4L8vqLMpG9FoGEZ9mysGGDRon6C8leLdGt82my52KYWx8LIpcP2fBeHtSB7xag3Fn_bnlUd-UNBqdxGmfrKZThrSlmL1-28S3QU2hVOAxxwm72wxOWoCGMGP20xBK0QG6jqC8ydLPfyOP_0zSoWBUwlQMHLA3l1WSXhj35XXS1hT07sZ24eok9tImmfAiP5eIxSa63bC_-qguQ-pPt4mKP3ZAq2uSZyVsjXDlR_f3iMgERarBUf7MBTUlZsHMQ4lILcuKpkPTxQdDC6w8ETIRLhW2x1go7bidFjhJSXj7wxDX8QGwjJq3E5mSG8mSrQDxyBta-KNXNJtwLm_lxS1R0NjTG15WdBkCWIYMwexmyn0J74CQCqekyhdIMl_r4lL0s06s5w2Ck-CYYgMZv4g3TFNrT8bLHz4b5z_UI9L_STcncsqB7iRqQMjte2tFjoR1Ryr3BcD-Vola9G4M5OzoIJevLM_6tFcu30L-L59PrqsEnub4hMScd82PTNwGwtp9HVFncQFcxb2YRPKmgxMII88u5n1AXHW6SoQ41hC6Z9_wAUcjD8NmfuC2TVNbUBRQ5DBP42kAPJ2tWtlupDJ_pwpxfrvhkj-W1VMd9pNTTzFlnAhnQBvbK6id9xCWWSdE1T77Ig8D7-iyAj44WZEfvxPAKxHs0kG_]--></g></svg>