<?xml version="1.0" encoding="us-ascii" standalone="no"?><svg xmlns="http://www.w3.org/2000/svg" xmlns:xlink="http://www.w3.org/1999/xlink" contentStyleType="text/css" height="760px" preserveAspectRatio="none" style="width:587px;height:760px;background:#FFFFFF;" version="1.1" viewBox="0 0 587 760" width="587px" zoomAndPan="magnify"><defs/><g><rect fill="#FFFFFF" height="637.2891" style="stroke:#181818;stroke-width:1.0;" width="10" x="44" y="62.5938"/><rect fill="#FFFFFF" height="551.1563" style="stroke:#181818;stroke-width:1.0;" width="10" x="199.5" y="93.7266"/><rect fill="#FFFFFF" height="156.6641" style="stroke:#181818;stroke-width:1.0;" width="10" x="204.5" y="231.2891"/><rect fill="#FFFFFF" height="156.6641" style="stroke:#181818;stroke-width:1.0;" width="10" x="204.5" y="488.2188"/><rect fill="#FFFFFF" height="29.1328" style="stroke:#181818;stroke-width:1.0;" width="10" x="385.5" y="265.4219"/><rect fill="#FFFFFF" height="29.1328" style="stroke:#181818;stroke-width:1.0;" width="10" x="385.5" y="522.3516"/><rect fill="#FFFFFF" height="29.1328" style="stroke:#181818;stroke-width:1.0;" width="10" x="502.5" y="323.6875"/><rect fill="#FFFFFF" height="29.1328" style="stroke:#181818;stroke-width:1.0;" width="10" x="502.5" y="580.6172"/><rect fill="none" height="555.9922" style="stroke:#000000;stroke-width:1.5;" width="469" x="112" y="135.8906"/><rect fill="none" height="217.9297" style="stroke:#000000;stroke-width:1.5;" width="449" x="122" y="185.0234"/><rect fill="none" height="217.9297" style="stroke:#000000;stroke-width:1.5;" width="449" x="122" y="441.9531"/><line style="stroke:#181818;stroke-width:0.5;stroke-dasharray:5.0,5.0;" x1="49" x2="49" y1="52.5938" y2="708.8828"/><line style="stroke:#181818;stroke-width:0.5;stroke-dasharray:5.0,5.0;" x1="204" x2="204" y1="93.2422" y2="708.8828"/><line style="stroke:#181818;stroke-width:0.5;stroke-dasharray:5.0,5.0;" x1="390" x2="390" y1="52.5938" y2="708.8828"/><line style="stroke:#181818;stroke-width:0.5;stroke-dasharray:5.0,5.0;" x1="507" x2="507" y1="52.5938" y2="708.8828"/><rect fill="#E3E3E3" height="30.2969" rx="2.5" ry="2.5" style="stroke:#181818;stroke-width:0.5;" width="88" x="5" y="21.2969"/><text fill="#000000" font-family="sans-serif" font-size="14" lengthAdjust="spacing" textLength="74" x="12" y="41.292">:AgendaUI</text><rect fill="#E3E3E3" height="30.2969" rx="2.5" ry="2.5" style="stroke:#181818;stroke-width:0.5;" width="88" x="5" y="707.8828"/><text fill="#000000" font-family="sans-serif" font-size="14" lengthAdjust="spacing" textLength="74" x="12" y="727.8779">:AgendaUI</text><rect fill="#E3E3E3" height="30.2969" rx="2.5" ry="2.5" style="stroke:#181818;stroke-width:0.5;" width="145" x="132" y="707.8828"/><text fill="#000000" font-family="sans-serif" font-size="14" lengthAdjust="spacing" textLength="131" x="139" y="727.8779">:AgendaController</text><rect fill="#E3E3E3" height="30.2969" rx="2.5" ry="2.5" style="stroke:#181818;stroke-width:0.5;" width="107" x="337" y="21.2969"/><text fill="#000000" font-family="sans-serif" font-size="14" lengthAdjust="spacing" textLength="93" x="344" y="41.292">:Repositories</text><rect fill="#E3E3E3" height="30.2969" rx="2.5" ry="2.5" style="stroke:#181818;stroke-width:0.5;" width="107" x="337" y="707.8828"/><text fill="#000000" font-family="sans-serif" font-size="14" lengthAdjust="spacing" textLength="93" x="344" y="727.8779">:Repositories</text><rect fill="#E3E3E3" height="46.5938" rx="2.5" ry="2.5" style="stroke:#181818;stroke-width:0.5;" width="107" x="454" y="5"/><text fill="#000000" font-family="sans-serif" font-size="14" lengthAdjust="spacing" textLength="84" x="465.5" y="24.9951">repositories</text><text fill="#000000" font-family="sans-serif" font-size="14" lengthAdjust="spacing" textLength="93" x="461" y="41.292">:Repositories</text><rect fill="#E3E3E3" height="46.5938" rx="2.5" ry="2.5" style="stroke:#181818;stroke-width:0.5;" width="107" x="454" y="707.8828"/><text fill="#000000" font-family="sans-serif" font-size="14" lengthAdjust="spacing" textLength="84" x="465.5" y="727.8779">repositories</text><text fill="#000000" font-family="sans-serif" font-size="14" lengthAdjust="spacing" textLength="93" x="461" y="744.1748">:Repositories</text><rect fill="#FFFFFF" height="637.2891" style="stroke:#181818;stroke-width:1.0;" width="10" x="44" y="62.5938"/><rect fill="#FFFFFF" height="551.1563" style="stroke:#181818;stroke-width:1.0;" width="10" x="199.5" y="93.7266"/><rect fill="#FFFFFF" height="156.6641" style="stroke:#181818;stroke-width:1.0;" width="10" x="204.5" y="231.2891"/><rect fill="#FFFFFF" height="156.6641" style="stroke:#181818;stroke-width:1.0;" width="10" x="204.5" y="488.2188"/><rect fill="#FFFFFF" height="29.1328" style="stroke:#181818;stroke-width:1.0;" width="10" x="385.5" y="265.4219"/><rect fill="#FFFFFF" height="29.1328" style="stroke:#181818;stroke-width:1.0;" width="10" x="385.5" y="522.3516"/><rect fill="#FFFFFF" height="29.1328" style="stroke:#181818;stroke-width:1.0;" width="10" x="502.5" y="323.6875"/><rect fill="#FFFFFF" height="29.1328" style="stroke:#181818;stroke-width:1.0;" width="10" x="502.5" y="580.6172"/><polygon fill="#181818" points="120,79.7266,130,83.7266,120,87.7266,124,83.7266" style="stroke:#181818;stroke-width:1.0;"/><line style="stroke:#181818;stroke-width:1.0;" x1="54" x2="126" y1="83.7266" y2="83.7266"/><text fill="#000000" font-family="sans-serif" font-size="13" font-weight="bold" lengthAdjust="spacing" textLength="9" x="61" y="78.6606">3</text><text fill="#000000" font-family="sans-serif" font-size="13" lengthAdjust="spacing" textLength="41" x="74" y="78.6606">create</text><rect fill="#E3E3E3" height="30.2969" rx="2.5" ry="2.5" style="stroke:#181818;stroke-width:0.5;" width="145" x="132" y="62.5938"/><text fill="#000000" font-family="sans-serif" font-size="14" lengthAdjust="spacing" textLength="131" x="139" y="82.5889">:AgendaController</text><path d="M112,135.8906 L279,135.8906 L279,143.0234 L269,153.0234 L112,153.0234 L112,135.8906 " fill="#EEEEEE" style="stroke:#000000;stroke-width:1.5;"/><rect fill="none" height="555.9922" style="stroke:#000000;stroke-width:1.5;" width="469" x="112" y="135.8906"/><text fill="#000000" font-family="sans-serif" font-size="13" font-weight="bold" lengthAdjust="spacing" textLength="122" x="127" y="148.9575">Get Repositories</text><path d="M122,185.0234 L336,185.0234 L336,192.1563 L326,202.1563 L122,202.1563 L122,185.0234 " fill="#EEEEEE" style="stroke:#000000;stroke-width:1.5;"/><rect fill="none" height="217.9297" style="stroke:#000000;stroke-width:1.5;" width="449" x="122" y="185.0234"/><text fill="#000000" font-family="sans-serif" font-size="13" font-weight="bold" lengthAdjust="spacing" textLength="169" x="137" y="198.0903">Get Agenda Repository</text><line style="stroke:#181818;stroke-width:1.0;" x1="209.5" x2="256.5" y1="218.2891" y2="218.2891"/><line style="stroke:#181818;stroke-width:1.0;" x1="256.5" x2="256.5" y1="218.2891" y2="231.2891"/><line style="stroke:#181818;stroke-width:1.0;" x1="215.5" x2="256.5" y1="231.2891" y2="231.2891"/><polygon fill="#181818" points="225.5,227.2891,215.5,231.2891,225.5,235.2891,221.5,231.2891" style="stroke:#181818;stroke-width:1.0;"/><text fill="#000000" font-family="sans-serif" font-size="13" font-weight="bold" lengthAdjust="spacing" textLength="23" x="221.5" y="213.2231">3.1</text><text fill="#000000" font-family="sans-serif" font-size="13" lengthAdjust="spacing" textLength="80" x="248.5" y="213.2231">getAgenda()</text><polygon fill="#181818" points="373.5,261.4219,383.5,265.4219,373.5,269.4219,377.5,265.4219" style="stroke:#181818;stroke-width:1.0;"/><line style="stroke:#181818;stroke-width:1.0;" x1="214.5" x2="379.5" y1="265.4219" y2="265.4219"/><text fill="#000000" font-family="sans-serif" font-size="13" font-weight="bold" lengthAdjust="spacing" textLength="23" x="221.5" y="260.356">3.2</text><text fill="#000000" font-family="sans-serif" font-size="13" lengthAdjust="spacing" textLength="86" x="248.5" y="260.356">getInstance()</text><polygon fill="#181818" points="225.5,290.5547,215.5,294.5547,225.5,298.5547,221.5,294.5547" style="stroke:#181818;stroke-width:1.0;"/><line style="stroke:#181818;stroke-width:1.0;stroke-dasharray:2.0,2.0;" x1="219.5" x2="389.5" y1="294.5547" y2="294.5547"/><text fill="#000000" font-family="sans-serif" font-size="13" font-weight="bold" lengthAdjust="spacing" textLength="23" x="231.5" y="289.4888">3.3</text><text fill="#000000" font-family="sans-serif" font-size="13" lengthAdjust="spacing" textLength="77" x="258.5" y="289.4888">repositories</text><polygon fill="#181818" points="490.5,319.6875,500.5,323.6875,490.5,327.6875,494.5,323.6875" style="stroke:#181818;stroke-width:1.0;"/><line style="stroke:#181818;stroke-width:1.0;" x1="214.5" x2="496.5" y1="323.6875" y2="323.6875"/><text fill="#000000" font-family="sans-serif" font-size="13" font-weight="bold" lengthAdjust="spacing" textLength="23" x="221.5" y="318.6216">3.4</text><text fill="#000000" font-family="sans-serif" font-size="13" lengthAdjust="spacing" textLength="80" x="248.5" y="318.6216">getAgenda()</text><polygon fill="#181818" points="225.5,348.8203,215.5,352.8203,225.5,356.8203,221.5,352.8203" style="stroke:#181818;stroke-width:1.0;"/><line style="stroke:#181818;stroke-width:1.0;stroke-dasharray:2.0,2.0;" x1="219.5" x2="506.5" y1="352.8203" y2="352.8203"/><text fill="#000000" font-family="sans-serif" font-size="13" font-weight="bold" lengthAdjust="spacing" textLength="23" x="231.5" y="347.7544">3.5</text><text fill="#000000" font-family="sans-serif" font-size="13" lengthAdjust="spacing" textLength="48" x="258.5" y="347.7544">agenda</text><line style="stroke:#181818;stroke-width:1.0;stroke-dasharray:2.0,2.0;" x1="214.5" x2="256.5" y1="386.9531" y2="386.9531"/><line style="stroke:#181818;stroke-width:1.0;stroke-dasharray:2.0,2.0;" x1="256.5" x2="256.5" y1="386.9531" y2="399.9531"/><line style="stroke:#181818;stroke-width:1.0;stroke-dasharray:2.0,2.0;" x1="209.5" x2="256.5" y1="399.9531" y2="399.9531"/><polygon fill="#181818" points="219.5,395.9531,209.5,399.9531,219.5,403.9531,215.5,399.9531" style="stroke:#181818;stroke-width:1.0;"/><text fill="#000000" font-family="sans-serif" font-size="13" font-weight="bold" lengthAdjust="spacing" textLength="23" x="221.5" y="381.8872">3.6</text><text fill="#000000" font-family="sans-serif" font-size="13" lengthAdjust="spacing" textLength="48" x="248.5" y="381.8872">agenda</text><path d="M122,441.9531 L319,441.9531 L319,449.0859 L309,459.0859 L122,459.0859 L122,441.9531 " fill="#EEEEEE" style="stroke:#000000;stroke-width:1.5;"/><rect fill="none" height="217.9297" style="stroke:#000000;stroke-width:1.5;" width="449" x="122" y="441.9531"/><text fill="#000000" font-family="sans-serif" font-size="13" font-weight="bold" lengthAdjust="spacing" textLength="152" x="137" y="455.02">Get ToDo Repository</text><line style="stroke:#181818;stroke-width:1.0;" x1="209.5" x2="256.5" y1="475.2188" y2="475.2188"/><line style="stroke:#181818;stroke-width:1.0;" x1="256.5" x2="256.5" y1="475.2188" y2="488.2188"/><line style="stroke:#181818;stroke-width:1.0;" x1="215.5" x2="256.5" y1="488.2188" y2="488.2188"/><polygon fill="#181818" points="225.5,484.2188,215.5,488.2188,225.5,492.2188,221.5,488.2188" style="stroke:#181818;stroke-width:1.0;"/><text fill="#000000" font-family="sans-serif" font-size="13" font-weight="bold" lengthAdjust="spacing" textLength="23" x="221.5" y="470.1528">3.7</text><text fill="#000000" font-family="sans-serif" font-size="13" lengthAdjust="spacing" textLength="135" x="248.5" y="470.1528">getToDoRepository()</text><polygon fill="#181818" points="373.5,518.3516,383.5,522.3516,373.5,526.3516,377.5,522.3516" style="stroke:#181818;stroke-width:1.0;"/><line style="stroke:#181818;stroke-width:1.0;" x1="214.5" x2="379.5" y1="522.3516" y2="522.3516"/><text fill="#000000" font-family="sans-serif" font-size="13" font-weight="bold" lengthAdjust="spacing" textLength="23" x="221.5" y="517.2856">3.8</text><text fill="#000000" font-family="sans-serif" font-size="13" lengthAdjust="spacing" textLength="86" x="248.5" y="517.2856">getInstance()</text><polygon fill="#181818" points="225.5,547.4844,215.5,551.4844,225.5,555.4844,221.5,551.4844" style="stroke:#181818;stroke-width:1.0;"/><line style="stroke:#181818;stroke-width:1.0;stroke-dasharray:2.0,2.0;" x1="219.5" x2="389.5" y1="551.4844" y2="551.4844"/><text fill="#000000" font-family="sans-serif" font-size="13" font-weight="bold" lengthAdjust="spacing" textLength="23" x="231.5" y="546.4185">3.9</text><text fill="#000000" font-family="sans-serif" font-size="13" lengthAdjust="spacing" textLength="77" x="258.5" y="546.4185">repositories</text><polygon fill="#181818" points="490.5,576.6172,500.5,580.6172,490.5,584.6172,494.5,580.6172" style="stroke:#181818;stroke-width:1.0;"/><line style="stroke:#181818;stroke-width:1.0;" x1="214.5" x2="496.5" y1="580.6172" y2="580.6172"/><text fill="#000000" font-family="sans-serif" font-size="13" font-weight="bold" lengthAdjust="spacing" textLength="32" x="221.5" y="575.5513">3.10</text><text fill="#000000" font-family="sans-serif" font-size="13" lengthAdjust="spacing" textLength="135" x="257.5" y="575.5513">getToDoRepository()</text><polygon fill="#181818" points="225.5,605.75,215.5,609.75,225.5,613.75,221.5,609.75" style="stroke:#181818;stroke-width:1.0;"/><line style="stroke:#181818;stroke-width:1.0;stroke-dasharray:2.0,2.0;" x1="219.5" x2="506.5" y1="609.75" y2="609.75"/><text fill="#000000" font-family="sans-serif" font-size="13" font-weight="bold" lengthAdjust="spacing" textLength="32" x="231.5" y="604.6841">3.11</text><text fill="#000000" font-family="sans-serif" font-size="13" lengthAdjust="spacing" textLength="101" x="267.5" y="604.6841">toDoRepository</text><line style="stroke:#181818;stroke-width:1.0;stroke-dasharray:2.0,2.0;" x1="214.5" x2="256.5" y1="643.8828" y2="643.8828"/><line style="stroke:#181818;stroke-width:1.0;stroke-dasharray:2.0,2.0;" x1="256.5" x2="256.5" y1="643.8828" y2="656.8828"/><line style="stroke:#181818;stroke-width:1.0;stroke-dasharray:2.0,2.0;" x1="209.5" x2="256.5" y1="656.8828" y2="656.8828"/><polygon fill="#181818" points="219.5,652.8828,209.5,656.8828,219.5,660.8828,215.5,656.8828" style="stroke:#181818;stroke-width:1.0;"/><text fill="#000000" font-family="sans-serif" font-size="13" font-weight="bold" lengthAdjust="spacing" textLength="32" x="221.5" y="638.8169">3.12</text><text fill="#000000" font-family="sans-serif" font-size="13" lengthAdjust="spacing" textLength="101" x="257.5" y="638.8169">toDoRepository</text><!--SRC=[xLBBQiCm4BphAvPS-e0KIcyv548A9P13oUFMYs9l715RQoIvRI0VNqkkOzbMtTUrkXYyCxEpkwCFGkPSyGmoaXJj5MK8HXN8zBcIy-Z04roPOugWC39S9gaFq7iUqwkG2Unugf4nNXYIHRP5nTZ5NiG8EoApfJTM4eo8HCwbWT5acg2C-MO-0gvXCmzMPoIDeZH5vL2pzNBHmIqn9oqCAO7QOSu_ZYjXhPPcsXJbCPvbN-1fCLqpVmouOpmoueKRj3uPGFc1yRsp0zVN4uWKbaLRWDFfrABUt3PaPvybYeeS7j60tvfPeXLeojKAl85SlNwkUMrY0WcQ2dzvrO9rcaFdrIg1hLMYSwdBaqVOaMr9XrRUGziNwZ9kPl0lq-F7-BD-zMJsd0FxQGrIdJxatAbuLhdJ6ZBfjCAcFcI2Afw2kvZzLuBQhlfPMTC3VJyf5js0_nFpMM86z_JBv9YMvbyJDA3MJHBx8c4sLFRRuxq3]--></g></svg>