<?xml version="1.0" encoding="us-ascii" standalone="no"?><svg xmlns="http://www.w3.org/2000/svg" xmlns:xlink="http://www.w3.org/1999/xlink" contentStyleType="text/css" height="637px" preserveAspectRatio="none" style="width:892px;height:637px;background:#FFFFFF;" version="1.1" viewBox="0 0 892 637" width="892px" zoomAndPan="magnify"><defs/><g><rect fill="#FFFFFF" height="514.0547" style="stroke:#181818;stroke-width:1.0;" width="10" x="87.5" y="62.5938"/><rect fill="#FFFFFF" height="468.9219" style="stroke:#181818;stroke-width:1.0;" width="10" x="92.5" y="91.7266"/><rect fill="#FFFFFF" height="410.6563" style="stroke:#181818;stroke-width:1.0;" width="10" x="453.5" y="149.9922"/><rect fill="#FFFFFF" height="28" style="stroke:#181818;stroke-width:1.0;" width="10" x="458.5" y="268.8516"/><rect fill="#FFFFFF" height="101.2656" style="stroke:#181818;stroke-width:1.0;" width="10" x="619.5" y="332.9844"/><rect fill="#FFFFFF" height="28" style="stroke:#181818;stroke-width:1.0;" width="10" x="624.5" y="370.1172"/><rect fill="#FFFFFF" height="30" style="stroke:#181818;stroke-width:1.0;" width="10" x="780.5" y="487.5156"/><rect fill="none" height="456.9219" style="stroke:#000000;stroke-width:1.5;" width="876.5" x="10" y="111.7266"/><rect fill="none" height="309.9297" style="stroke:#000000;stroke-width:1.5;" width="516.5" x="360" y="222.5859"/><rect fill="none" height="76.2656" style="stroke:#000000;stroke-width:1.5;" width="496.5" x="370" y="449.25"/><line style="stroke:#181818;stroke-width:0.5;stroke-dasharray:5.0,5.0;" x1="92" x2="92" y1="52.5938" y2="585.6484"/><line style="stroke:#181818;stroke-width:0.5;stroke-dasharray:5.0,5.0;" x1="458" x2="458" y1="52.5938" y2="585.6484"/><line style="stroke:#181818;stroke-width:0.5;stroke-dasharray:5.0,5.0;" x1="624.5" x2="624.5" y1="52.5938" y2="585.6484"/><line style="stroke:#181818;stroke-width:0.5;stroke-dasharray:5.0,5.0;" x1="785.5" x2="785.5" y1="196.7891" y2="585.6484"/><rect fill="#E3E3E3" height="30.2969" rx="2.5" ry="2.5" style="stroke:#181818;stroke-width:0.5;" width="145" x="20" y="21.2969"/><text fill="#000000" font-family="sans-serif" font-size="14" lengthAdjust="spacing" textLength="131" x="27" y="41.292">:AgendaController</text><rect fill="#E3E3E3" height="30.2969" rx="2.5" ry="2.5" style="stroke:#181818;stroke-width:0.5;" width="145" x="20" y="584.6484"/><text fill="#000000" font-family="sans-serif" font-size="14" lengthAdjust="spacing" textLength="131" x="27" y="604.6436">:AgendaController</text><rect fill="#E3E3E3" height="46.5938" rx="2.5" ry="2.5" style="stroke:#181818;stroke-width:0.5;" width="157" x="380" y="5"/><text fill="#000000" font-family="sans-serif" font-size="14" lengthAdjust="spacing" textLength="134" x="391.5" y="24.9951">toDoListRepository</text><text fill="#000000" font-family="sans-serif" font-size="14" lengthAdjust="spacing" textLength="143" x="387" y="41.292">:ToDoListRepository</text><rect fill="#E3E3E3" height="46.5938" rx="2.5" ry="2.5" style="stroke:#181818;stroke-width:0.5;" width="157" x="380" y="584.6484"/><text fill="#000000" font-family="sans-serif" font-size="14" lengthAdjust="spacing" textLength="134" x="391.5" y="604.6436">toDoListRepository</text><text fill="#000000" font-family="sans-serif" font-size="14" lengthAdjust="spacing" textLength="143" x="387" y="620.9404">:ToDoListRepository</text><rect fill="#E3E3E3" height="46.5938" rx="2.5" ry="2.5" style="stroke:#181818;stroke-width:0.5;" width="106" x="571.5" y="5"/><text fill="#000000" font-family="sans-serif" font-size="14" lengthAdjust="spacing" textLength="71" x="589" y="24.9951">toDoEntry</text><text fill="#000000" font-family="sans-serif" font-size="14" lengthAdjust="spacing" textLength="92" x="578.5" y="41.292">:ToDoEntry&gt;</text><rect fill="#E3E3E3" height="46.5938" rx="2.5" ry="2.5" style="stroke:#181818;stroke-width:0.5;" width="106" x="571.5" y="584.6484"/><text fill="#000000" font-family="sans-serif" font-size="14" lengthAdjust="spacing" textLength="71" x="589" y="604.6436">toDoEntry</text><text fill="#000000" font-family="sans-serif" font-size="14" lengthAdjust="spacing" textLength="92" x="578.5" y="620.9404">:ToDoEntry&gt;</text><rect fill="#E3E3E3" height="46.5938" rx="2.5" ry="2.5" style="stroke:#181818;stroke-width:0.5;" width="142" x="714.5" y="584.6484"/><text fill="#000000" font-family="sans-serif" font-size="14" lengthAdjust="spacing" textLength="95" x="738" y="604.6436">listToDoEntry</text><text fill="#000000" font-family="sans-serif" font-size="14" lengthAdjust="spacing" textLength="128" x="721.5" y="620.9404">:List&lt;ToDoEntry&gt;</text><rect fill="#FFFFFF" height="514.0547" style="stroke:#181818;stroke-width:1.0;" width="10" x="87.5" y="62.5938"/><rect fill="#FFFFFF" height="468.9219" style="stroke:#181818;stroke-width:1.0;" width="10" x="92.5" y="91.7266"/><rect fill="#FFFFFF" height="410.6563" style="stroke:#181818;stroke-width:1.0;" width="10" x="453.5" y="149.9922"/><rect fill="#FFFFFF" height="28" style="stroke:#181818;stroke-width:1.0;" width="10" x="458.5" y="268.8516"/><rect fill="#FFFFFF" height="101.2656" style="stroke:#181818;stroke-width:1.0;" width="10" x="619.5" y="332.9844"/><rect fill="#FFFFFF" height="28" style="stroke:#181818;stroke-width:1.0;" width="10" x="624.5" y="370.1172"/><rect fill="#FFFFFF" height="30" style="stroke:#181818;stroke-width:1.0;" width="10" x="780.5" y="487.5156"/><line style="stroke:#181818;stroke-width:1.0;" x1="97.5" x2="144.5" y1="78.7266" y2="78.7266"/><line style="stroke:#181818;stroke-width:1.0;" x1="144.5" x2="144.5" y1="78.7266" y2="91.7266"/><line style="stroke:#181818;stroke-width:1.0;" x1="103.5" x2="144.5" y1="91.7266" y2="91.7266"/><polygon fill="#181818" points="113.5,87.7266,103.5,91.7266,113.5,95.7266,109.5,91.7266" style="stroke:#181818;stroke-width:1.0;"/><text fill="#000000" font-family="sans-serif" font-size="13" font-weight="bold" lengthAdjust="spacing" textLength="23" x="109.5" y="73.6606">3.1</text><text fill="#000000" font-family="sans-serif" font-size="13" lengthAdjust="spacing" textLength="221" x="136.5" y="73.6606">getToDoEntryListForResponsible()</text><path d="M10,111.7266 L277,111.7266 L277,118.8594 L267,128.8594 L10,128.8594 L10,111.7266 " fill="#EEEEEE" style="stroke:#000000;stroke-width:1.5;"/><rect fill="none" height="456.9219" style="stroke:#000000;stroke-width:1.5;" width="876.5" x="10" y="111.7266"/><text fill="#000000" font-family="sans-serif" font-size="13" font-weight="bold" lengthAdjust="spacing" textLength="222" x="25" y="124.7935">Get ToDo List For Responsible</text><polygon fill="#181818" points="441.5,145.9922,451.5,149.9922,441.5,153.9922,445.5,149.9922" style="stroke:#181818;stroke-width:1.0;"/><line style="stroke:#181818;stroke-width:1.0;" x1="102.5" x2="447.5" y1="149.9922" y2="149.9922"/><text fill="#000000" font-family="sans-serif" font-size="13" font-weight="bold" lengthAdjust="spacing" textLength="23" x="109.5" y="144.9263">3.2</text><text fill="#000000" font-family="sans-serif" font-size="13" lengthAdjust="spacing" textLength="305" x="136.5" y="144.9263">getToDoListForResponsible( getResponsible() )</text><polygon fill="#181818" points="702.5,175.125,712.5,179.125,702.5,183.125,706.5,179.125" style="stroke:#181818;stroke-width:1.0;"/><line style="stroke:#181818;stroke-width:1.0;" x1="463.5" x2="708.5" y1="179.125" y2="179.125"/><text fill="#000000" font-family="sans-serif" font-size="13" font-weight="bold" lengthAdjust="spacing" textLength="23" x="470.5" y="174.0591">3.3</text><text fill="#000000" font-family="sans-serif" font-size="13" lengthAdjust="spacing" textLength="41" x="497.5" y="174.0591">create</text><rect fill="#E3E3E3" height="46.5938" rx="2.5" ry="2.5" style="stroke:#181818;stroke-width:0.5;" width="142" x="714.5" y="157.9922"/><text fill="#000000" font-family="sans-serif" font-size="14" lengthAdjust="spacing" textLength="95" x="738" y="177.9873">listToDoEntry</text><text fill="#000000" font-family="sans-serif" font-size="14" lengthAdjust="spacing" textLength="128" x="721.5" y="194.2842">:List&lt;ToDoEntry&gt;</text><path d="M360,222.5859 L441,222.5859 L441,229.7188 L431,239.7188 L360,239.7188 L360,222.5859 " fill="#EEEEEE" style="stroke:#000000;stroke-width:1.5;"/><rect fill="none" height="309.9297" style="stroke:#000000;stroke-width:1.5;" width="516.5" x="360" y="222.5859"/><text fill="#000000" font-family="sans-serif" font-size="13" font-weight="bold" lengthAdjust="spacing" textLength="31" x="375" y="235.6528">loop</text><text fill="#000000" font-family="sans-serif" font-size="11" font-weight="bold" lengthAdjust="spacing" textLength="268" x="456" y="234.7964">[for each object in the toDoListRepository]</text><line style="stroke:#181818;stroke-width:1.0;" x1="468.5" x2="510.5" y1="260.8516" y2="260.8516"/><line style="stroke:#181818;stroke-width:1.0;" x1="510.5" x2="510.5" y1="260.8516" y2="273.8516"/><line style="stroke:#181818;stroke-width:1.0;" x1="469.5" x2="510.5" y1="273.8516" y2="273.8516"/><polygon fill="#181818" points="479.5,269.8516,469.5,273.8516,479.5,277.8516,475.5,273.8516" style="stroke:#181818;stroke-width:1.0;"/><text fill="#000000" font-family="sans-serif" font-size="13" font-weight="bold" lengthAdjust="spacing" textLength="23" x="475.5" y="255.7856">3.4</text><text fill="#000000" font-family="sans-serif" font-size="13" lengthAdjust="spacing" textLength="74" x="502.5" y="255.7856">obj = get(i)</text><polygon fill="#181818" points="607.5,328.9844,617.5,332.9844,607.5,336.9844,611.5,332.9844" style="stroke:#181818;stroke-width:1.0;"/><line style="stroke:#181818;stroke-width:1.0;" x1="463.5" x2="613.5" y1="332.9844" y2="332.9844"/><text fill="#000000" font-family="sans-serif" font-size="13" font-weight="bold" lengthAdjust="spacing" textLength="23" x="470.5" y="327.9185">3.5</text><text fill="#000000" font-family="sans-serif" font-size="13" lengthAdjust="spacing" textLength="110" x="497.5" y="327.9185">getResponsible()</text><line style="stroke:#181818;stroke-width:1.0;" x1="634.5" x2="676.5" y1="362.1172" y2="362.1172"/><line style="stroke:#181818;stroke-width:1.0;" x1="676.5" x2="676.5" y1="362.1172" y2="375.1172"/><line style="stroke:#181818;stroke-width:1.0;" x1="635.5" x2="676.5" y1="375.1172" y2="375.1172"/><polygon fill="#181818" points="645.5,371.1172,635.5,375.1172,645.5,379.1172,641.5,375.1172" style="stroke:#181818;stroke-width:1.0;"/><text fill="#000000" font-family="sans-serif" font-size="13" font-weight="bold" lengthAdjust="spacing" textLength="23" x="641.5" y="357.0513">3.6</text><text fill="#000000" font-family="sans-serif" font-size="13" lengthAdjust="spacing" textLength="110" x="668.5" y="357.0513">getResponsible()</text><polygon fill="#181818" points="474.5,430.25,464.5,434.25,474.5,438.25,470.5,434.25" style="stroke:#181818;stroke-width:1.0;"/><line style="stroke:#181818;stroke-width:1.0;stroke-dasharray:2.0,2.0;" x1="468.5" x2="623.5" y1="434.25" y2="434.25"/><text fill="#000000" font-family="sans-serif" font-size="13" font-weight="bold" lengthAdjust="spacing" textLength="23" x="480.5" y="429.1841">3.7</text><text fill="#000000" font-family="sans-serif" font-size="13" lengthAdjust="spacing" textLength="99" x="507.5" y="429.1841">objResponsible</text><path d="M370,449.25 L430,449.25 L430,456.3828 L420,466.3828 L370,466.3828 L370,449.25 " fill="#EEEEEE" style="stroke:#000000;stroke-width:1.5;"/><rect fill="none" height="76.2656" style="stroke:#000000;stroke-width:1.5;" width="496.5" x="370" y="449.25"/><text fill="#000000" font-family="sans-serif" font-size="13" font-weight="bold" lengthAdjust="spacing" textLength="10" x="385" y="462.3169">if</text><text fill="#000000" font-family="sans-serif" font-size="11" font-weight="bold" lengthAdjust="spacing" textLength="205" x="445" y="461.4604">[objResponsible == responsible]</text><polygon fill="#181818" points="768.5,483.5156,778.5,487.5156,768.5,491.5156,772.5,487.5156" style="stroke:#181818;stroke-width:1.0;"/><line style="stroke:#181818;stroke-width:1.0;" x1="463.5" x2="774.5" y1="487.5156" y2="487.5156"/><text fill="#000000" font-family="sans-serif" font-size="13" font-weight="bold" lengthAdjust="spacing" textLength="23" x="470.5" y="482.4497">3.8</text><text fill="#000000" font-family="sans-serif" font-size="13" lengthAdjust="spacing" textLength="54" x="497.5" y="482.4497">add(obj)</text><polygon fill="#181818" points="108.5,556.6484,98.5,560.6484,108.5,564.6484,104.5,560.6484" style="stroke:#181818;stroke-width:1.0;"/><line style="stroke:#181818;stroke-width:1.0;stroke-dasharray:2.0,2.0;" x1="102.5" x2="457.5" y1="560.6484" y2="560.6484"/><text fill="#000000" font-family="sans-serif" font-size="13" font-weight="bold" lengthAdjust="spacing" textLength="23" x="114.5" y="555.5825">3.9</text><text fill="#000000" font-family="sans-serif" font-size="13" lengthAdjust="spacing" textLength="184" x="141.5" y="555.5825">listToDoEntryByResponsible</text><!--SRC=[hLLDKy8m4BtdL-nm4PZH6SUBmmWpVbyy8JVa4DgbZPPi9mag_zwabTBGYX791Pgyj-_jThVHRqBcNF4bB4bIb2fQ8XYrGgQhavn7Rpp1PxFE41H6XiiagmDqocFw43A11SyqCiPNXkHgEKV5s4agOeG5aPdJ9sFCKeo8HCwbWSxWEa4PyrkIHb6MeUe0rt0x6J_vE4Dtz2Iq6MDEMXXIwnSvc3Gs2tOJsunrR_Ks8Oh_euAQA4JfepCRQL9ZkCXNExGDXjKpXqllwUBid06FZ7Zd1iiCeRRS1foEojy19BWLTOeFfCQeSv9Qp3FizWfkecYLmoCQS5XmEB10g24BdA_goLQwpQ9L9bhqtP7d1tf-s9rLEMXvDtk9twj9SvutPU_tRSKYXLOW95XPjemeX-d2bWjvb0BDNsrZWv1WqZQRio2VUyosx0x0oSBGLRChUi42-weP6YF6_xwJ_UaMarGsShDn_vfdEPRmnrLQE9ANOnYgrRmCS6XAFxMJxQRTsJ_KMhWZDqnY0LDV78P3UrLKZxCZjDHct6sYF8wxLk-mRjf-hGyhKCKFvTeRBaWh2DTMc-szuTrMD-lGRlZjQr0xhsukv_OB]--></g></svg>