<?xml version="1.0" encoding="us-ascii" standalone="no"?><svg xmlns="http://www.w3.org/2000/svg" xmlns:xlink="http://www.w3.org/1999/xlink" contentStyleType="text/css" height="459px" preserveAspectRatio="none" style="width:992px;height:459px;background:#FFFFFF;" version="1.1" viewBox="0 0 992 459" width="992px" zoomAndPan="magnify"><defs/><g><rect fill="#FFFFFF" height="315.3281" style="stroke:#181818;stroke-width:1.0;" width="10" x="247" y="83.7266"/><rect fill="#FFFFFF" height="262.1953" style="stroke:#181818;stroke-width:1.0;" width="10" x="252" y="120.8594"/><rect fill="#FFFFFF" height="29.1328" style="stroke:#181818;stroke-width:1.0;" width="10" x="525" y="179.125"/><rect fill="#FFFFFF" height="29.1328" style="stroke:#181818;stroke-width:1.0;" width="10" x="688" y="237.3906"/><rect fill="#FFFFFF" height="29.1328" style="stroke:#181818;stroke-width:1.0;" width="10" x="850" y="295.6563"/><rect fill="#FFFFFF" height="29.1328" style="stroke:#181818;stroke-width:1.0;" width="10" x="942" y="353.9219"/><rect fill="none" height="250.1953" style="stroke:#000000;stroke-width:1.5;" width="817" x="169.5" y="140.8594"/><line style="stroke:#181818;stroke-width:0.5;stroke-dasharray:5.0,5.0;" x1="251.5" x2="251.5" y1="52.5938" y2="408.0547"/><line style="stroke:#181818;stroke-width:0.5;stroke-dasharray:5.0,5.0;" x1="412.5" x2="412.5" y1="52.5938" y2="408.0547"/><line style="stroke:#181818;stroke-width:0.5;stroke-dasharray:5.0,5.0;" x1="529.5" x2="529.5" y1="52.5938" y2="408.0547"/><line style="stroke:#181818;stroke-width:0.5;stroke-dasharray:5.0,5.0;" x1="692.5" x2="692.5" y1="52.5938" y2="408.0547"/><line style="stroke:#181818;stroke-width:0.5;stroke-dasharray:5.0,5.0;" x1="854.5" x2="854.5" y1="52.5938" y2="408.0547"/><line style="stroke:#181818;stroke-width:0.5;stroke-dasharray:5.0,5.0;" x1="946.5" x2="946.5" y1="52.5938" y2="408.0547"/><rect fill="#E3E3E3" height="30.2969" rx="2.5" ry="2.5" style="stroke:#181818;stroke-width:0.5;" width="145" x="179.5" y="21.2969"/><text fill="#000000" font-family="sans-serif" font-size="14" lengthAdjust="spacing" textLength="131" x="186.5" y="41.292">:AgendaController</text><rect fill="#E3E3E3" height="30.2969" rx="2.5" ry="2.5" style="stroke:#181818;stroke-width:0.5;" width="145" x="179.5" y="407.0547"/><text fill="#000000" font-family="sans-serif" font-size="14" lengthAdjust="spacing" textLength="131" x="186.5" y="427.0498">:AgendaController</text><rect fill="#E3E3E3" height="30.2969" rx="2.5" ry="2.5" style="stroke:#181818;stroke-width:0.5;" width="107" x="359.5" y="21.2969"/><text fill="#000000" font-family="sans-serif" font-size="14" lengthAdjust="spacing" textLength="93" x="366.5" y="41.292">:Repositories</text><rect fill="#E3E3E3" height="30.2969" rx="2.5" ry="2.5" style="stroke:#181818;stroke-width:0.5;" width="107" x="359.5" y="407.0547"/><text fill="#000000" font-family="sans-serif" font-size="14" lengthAdjust="spacing" textLength="93" x="366.5" y="427.0498">:Repositories</text><rect fill="#E3E3E3" height="46.5938" rx="2.5" ry="2.5" style="stroke:#181818;stroke-width:0.5;" width="107" x="476.5" y="5"/><text fill="#000000" font-family="sans-serif" font-size="14" lengthAdjust="spacing" textLength="84" x="488" y="24.9951">repositories</text><text fill="#000000" font-family="sans-serif" font-size="14" lengthAdjust="spacing" textLength="93" x="483.5" y="41.292">:Repositories</text><rect fill="#E3E3E3" height="46.5938" rx="2.5" ry="2.5" style="stroke:#181818;stroke-width:0.5;" width="107" x="476.5" y="407.0547"/><text fill="#000000" font-family="sans-serif" font-size="14" lengthAdjust="spacing" textLength="84" x="488" y="427.0498">repositories</text><text fill="#000000" font-family="sans-serif" font-size="14" lengthAdjust="spacing" textLength="93" x="483.5" y="443.3467">:Repositories</text><rect fill="#E3E3E3" height="46.5938" rx="2.5" ry="2.5" style="stroke:#181818;stroke-width:0.5;" width="199" x="593.5" y="5"/><text fill="#000000" font-family="sans-serif" font-size="14" lengthAdjust="spacing" textLength="179" x="603.5" y="24.9951">authenticationRepository</text><text fill="#000000" font-family="sans-serif" font-size="14" lengthAdjust="spacing" textLength="185" x="600.5" y="41.292">:AuthenticationRepository</text><rect fill="#E3E3E3" height="46.5938" rx="2.5" ry="2.5" style="stroke:#181818;stroke-width:0.5;" width="199" x="593.5" y="407.0547"/><text fill="#000000" font-family="sans-serif" font-size="14" lengthAdjust="spacing" textLength="179" x="603.5" y="427.0498">authenticationRepository</text><text fill="#000000" font-family="sans-serif" font-size="14" lengthAdjust="spacing" textLength="185" x="600.5" y="443.3467">:AuthenticationRepository</text><rect fill="#E3E3E3" height="46.5938" rx="2.5" ry="2.5" style="stroke:#181818;stroke-width:0.5;" width="105" x="802.5" y="5"/><text fill="#000000" font-family="sans-serif" font-size="14" lengthAdjust="spacing" textLength="85" x="812.5" y="24.9951">userSession</text><text fill="#000000" font-family="sans-serif" font-size="14" lengthAdjust="spacing" textLength="91" x="809.5" y="41.292">:UserSession</text><rect fill="#E3E3E3" height="46.5938" rx="2.5" ry="2.5" style="stroke:#181818;stroke-width:0.5;" width="105" x="802.5" y="407.0547"/><text fill="#000000" font-family="sans-serif" font-size="14" lengthAdjust="spacing" textLength="85" x="812.5" y="427.0498">userSession</text><text fill="#000000" font-family="sans-serif" font-size="14" lengthAdjust="spacing" textLength="91" x="809.5" y="443.3467">:UserSession</text><rect fill="#E3E3E3" height="46.5938" rx="2.5" ry="2.5" style="stroke:#181818;stroke-width:0.5;" width="59" x="917.5" y="5"/><text fill="#000000" font-family="sans-serif" font-size="14" lengthAdjust="spacing" textLength="40" x="927" y="24.9951">email</text><text fill="#000000" font-family="sans-serif" font-size="14" lengthAdjust="spacing" textLength="45" x="924.5" y="41.292">:Email</text><rect fill="#E3E3E3" height="46.5938" rx="2.5" ry="2.5" style="stroke:#181818;stroke-width:0.5;" width="59" x="917.5" y="407.0547"/><text fill="#000000" font-family="sans-serif" font-size="14" lengthAdjust="spacing" textLength="40" x="927" y="427.0498">email</text><text fill="#000000" font-family="sans-serif" font-size="14" lengthAdjust="spacing" textLength="45" x="924.5" y="443.3467">:Email</text><rect fill="#FFFFFF" height="315.3281" style="stroke:#181818;stroke-width:1.0;" width="10" x="247" y="83.7266"/><rect fill="#FFFFFF" height="262.1953" style="stroke:#181818;stroke-width:1.0;" width="10" x="252" y="120.8594"/><rect fill="#FFFFFF" height="29.1328" style="stroke:#181818;stroke-width:1.0;" width="10" x="525" y="179.125"/><rect fill="#FFFFFF" height="29.1328" style="stroke:#181818;stroke-width:1.0;" width="10" x="688" y="237.3906"/><rect fill="#FFFFFF" height="29.1328" style="stroke:#181818;stroke-width:1.0;" width="10" x="850" y="295.6563"/><rect fill="#FFFFFF" height="29.1328" style="stroke:#181818;stroke-width:1.0;" width="10" x="942" y="353.9219"/><polygon fill="#181818" points="235,79.7266,245,83.7266,235,87.7266,239,83.7266" style="stroke:#181818;stroke-width:1.0;"/><line style="stroke:#181818;stroke-width:1.0;" x1="0" x2="241" y1="83.7266" y2="83.7266"/><text fill="#000000" font-family="sans-serif" font-size="13" font-weight="bold" lengthAdjust="spacing" textLength="9" x="7" y="78.6606">8</text><text fill="#000000" font-family="sans-serif" font-size="13" lengthAdjust="spacing" textLength="215" x="20" y="78.6606">getToDoListDTOForResponsible()</text><line style="stroke:#181818;stroke-width:1.0;" x1="257" x2="304" y1="107.8594" y2="107.8594"/><line style="stroke:#181818;stroke-width:1.0;" x1="304" x2="304" y1="107.8594" y2="120.8594"/><line style="stroke:#181818;stroke-width:1.0;" x1="263" x2="304" y1="120.8594" y2="120.8594"/><polygon fill="#181818" points="273,116.8594,263,120.8594,273,124.8594,269,120.8594" style="stroke:#181818;stroke-width:1.0;"/><text fill="#000000" font-family="sans-serif" font-size="13" font-weight="bold" lengthAdjust="spacing" textLength="23" x="269" y="102.7935">3.1</text><text fill="#000000" font-family="sans-serif" font-size="13" lengthAdjust="spacing" textLength="110" x="296" y="102.7935">getResponsible()</text><path d="M169.5,140.8594 L333.5,140.8594 L333.5,147.9922 L323.5,157.9922 L169.5,157.9922 L169.5,140.8594 " fill="#EEEEEE" style="stroke:#000000;stroke-width:1.5;"/><rect fill="none" height="250.1953" style="stroke:#000000;stroke-width:1.5;" width="817" x="169.5" y="140.8594"/><text fill="#000000" font-family="sans-serif" font-size="13" font-weight="bold" lengthAdjust="spacing" textLength="119" x="184.5" y="153.9263">Get Responsible</text><polygon fill="#181818" points="513,175.125,523,179.125,513,183.125,517,179.125" style="stroke:#181818;stroke-width:1.0;"/><line style="stroke:#181818;stroke-width:1.0;" x1="262" x2="519" y1="179.125" y2="179.125"/><text fill="#000000" font-family="sans-serif" font-size="13" font-weight="bold" lengthAdjust="spacing" textLength="23" x="269" y="174.0591">3.2</text><text fill="#000000" font-family="sans-serif" font-size="13" lengthAdjust="spacing" textLength="196" x="296" y="174.0591">getAuthenticationRepository()</text><polygon fill="#181818" points="273,204.2578,263,208.2578,273,212.2578,269,208.2578" style="stroke:#181818;stroke-width:1.0;"/><line style="stroke:#181818;stroke-width:1.0;stroke-dasharray:2.0,2.0;" x1="267" x2="529" y1="208.2578" y2="208.2578"/><text fill="#000000" font-family="sans-serif" font-size="13" font-weight="bold" lengthAdjust="spacing" textLength="23" x="279" y="203.1919">3.3</text><text fill="#000000" font-family="sans-serif" font-size="13" lengthAdjust="spacing" textLength="164" x="306" y="203.1919">authenticationRepository</text><polygon fill="#181818" points="676,233.3906,686,237.3906,676,241.3906,680,237.3906" style="stroke:#181818;stroke-width:1.0;"/><line style="stroke:#181818;stroke-width:1.0;" x1="262" x2="682" y1="237.3906" y2="237.3906"/><text fill="#000000" font-family="sans-serif" font-size="13" font-weight="bold" lengthAdjust="spacing" textLength="23" x="269" y="232.3247">3.4</text><text fill="#000000" font-family="sans-serif" font-size="13" lengthAdjust="spacing" textLength="159" x="296" y="232.3247">getCurrentUserSession()</text><polygon fill="#181818" points="273,262.5234,263,266.5234,273,270.5234,269,266.5234" style="stroke:#181818;stroke-width:1.0;"/><line style="stroke:#181818;stroke-width:1.0;stroke-dasharray:2.0,2.0;" x1="267" x2="692" y1="266.5234" y2="266.5234"/><text fill="#000000" font-family="sans-serif" font-size="13" font-weight="bold" lengthAdjust="spacing" textLength="23" x="279" y="261.4575">3.5</text><text fill="#000000" font-family="sans-serif" font-size="13" lengthAdjust="spacing" textLength="126" x="306" y="261.4575">currentUserSession</text><polygon fill="#181818" points="838,291.6563,848,295.6563,838,299.6563,842,295.6563" style="stroke:#181818;stroke-width:1.0;"/><line style="stroke:#181818;stroke-width:1.0;" x1="262" x2="844" y1="295.6563" y2="295.6563"/><text fill="#000000" font-family="sans-serif" font-size="13" font-weight="bold" lengthAdjust="spacing" textLength="23" x="269" y="290.5903">3.6</text><text fill="#000000" font-family="sans-serif" font-size="13" lengthAdjust="spacing" textLength="73" x="296" y="290.5903">getUserId()</text><polygon fill="#181818" points="273,320.7891,263,324.7891,273,328.7891,269,324.7891" style="stroke:#181818;stroke-width:1.0;"/><line style="stroke:#181818;stroke-width:1.0;stroke-dasharray:2.0,2.0;" x1="267" x2="854" y1="324.7891" y2="324.7891"/><text fill="#000000" font-family="sans-serif" font-size="13" font-weight="bold" lengthAdjust="spacing" textLength="23" x="279" y="319.7231">3.7</text><text fill="#000000" font-family="sans-serif" font-size="13" lengthAdjust="spacing" textLength="78" x="306" y="319.7231">userSession</text><polygon fill="#181818" points="930,349.9219,940,353.9219,930,357.9219,934,353.9219" style="stroke:#181818;stroke-width:1.0;"/><line style="stroke:#181818;stroke-width:1.0;" x1="262" x2="936" y1="353.9219" y2="353.9219"/><text fill="#000000" font-family="sans-serif" font-size="13" font-weight="bold" lengthAdjust="spacing" textLength="23" x="269" y="348.856">3.8</text><text fill="#000000" font-family="sans-serif" font-size="13" lengthAdjust="spacing" textLength="68" x="296" y="348.856">getEmail()</text><polygon fill="#181818" points="268,379.0547,258,383.0547,268,387.0547,264,383.0547" style="stroke:#181818;stroke-width:1.0;"/><line style="stroke:#181818;stroke-width:1.0;stroke-dasharray:2.0,2.0;" x1="262" x2="946" y1="383.0547" y2="383.0547"/><text fill="#000000" font-family="sans-serif" font-size="13" font-weight="bold" lengthAdjust="spacing" textLength="23" x="274" y="377.9888">3.9</text><text fill="#000000" font-family="sans-serif" font-size="13" lengthAdjust="spacing" textLength="37" x="301" y="377.9888">email</text><!--SRC=[ZPGnRy8m48Lt_ueJIzk1IbMNYg4IWhQgXDGAqgsBIOx48l55jjEMVr_78M0J4c0XpjtxxZrRZjuAMNB52oX8KfmfAX2Cgf3fGwNayPQdk3Ax745XRBXCSxz1PpoXNo5JsF1S8sEyCYIhOesAiPjC90WR8hEcFyQObHWHYv9B0wF9D4MPy1b9eoZFKOs0QvX5oyL9tn9BqiAG4gXTp-75RYLgEtPWA56Uubjs0P-BQHGghEiCfLrp8qWU1rZrjAVaI7swa5vfL2lKshPOuDTnvHZUEfHXmKLk1I_rlsjrJypVP7XYusUtQp2154r4Sre8RURHnokf9UgIf1Rh76_l0jdZ_GC37XlnmmqskmxUpm43S8YgUr95LGblQC2h1PIG7vJy8VLnG3EbRxFt8y_2tMbsoWuwFaReFQbJOO8NoAtjFcAJP5OfPQlUuGvbw7NNaJXPtsGlRzoPFvJq-lbjUW_S1AvVl2T38NqlPtFvJ2zATLs6GNnhszsWnh1x7FAxlstdd3OOpwExgqFkMfZtwd3hx7UG_GC0]--></g></svg>