<?xml version="1.0" encoding="us-ascii" standalone="no"?><svg xmlns="http://www.w3.org/2000/svg" xmlns:xlink="http://www.w3.org/1999/xlink" contentStyleType="text/css" height="637px" preserveAspectRatio="none" style="width:891px;height:637px;background:#FFFFFF;" version="1.1" viewBox="0 0 891 637" width="891px" zoomAndPan="magnify"><defs/><g><rect fill="#FFFFFF" height="514.0547" style="stroke:#181818;stroke-width:1.0;" width="10" x="87.5" y="62.5938"/><rect fill="#FFFFFF" height="468.9219" style="stroke:#181818;stroke-width:1.0;" width="10" x="92.5" y="91.7266"/><rect fill="#FFFFFF" height="410.6563" style="stroke:#181818;stroke-width:1.0;" width="10" x="453.5" y="149.9922"/><rect fill="#FFFFFF" height="28" style="stroke:#181818;stroke-width:1.0;" width="10" x="458.5" y="268.8516"/><rect fill="#FFFFFF" height="101.2656" style="stroke:#181818;stroke-width:1.0;" width="10" x="618.5" y="332.9844"/><rect fill="#FFFFFF" height="28" style="stroke:#181818;stroke-width:1.0;" width="10" x="623.5" y="370.1172"/><rect fill="#FFFFFF" height="30" style="stroke:#181818;stroke-width:1.0;" width="10" x="779.5" y="487.5156"/><rect fill="none" height="456.9219" style="stroke:#000000;stroke-width:1.5;" width="875.5" x="10" y="111.7266"/><rect fill="none" height="309.9297" style="stroke:#000000;stroke-width:1.5;" width="515.5" x="360" y="222.5859"/><rect fill="none" height="76.2656" style="stroke:#000000;stroke-width:1.5;" width="495.5" x="370" y="449.25"/><line style="stroke:#181818;stroke-width:0.5;stroke-dasharray:5.0,5.0;" x1="92" x2="92" y1="52.5938" y2="585.6484"/><line style="stroke:#181818;stroke-width:0.5;stroke-dasharray:5.0,5.0;" x1="458" x2="458" y1="52.5938" y2="585.6484"/><line style="stroke:#181818;stroke-width:0.5;stroke-dasharray:5.0,5.0;" x1="623" x2="623" y1="52.5938" y2="585.6484"/><line style="stroke:#181818;stroke-width:0.5;stroke-dasharray:5.0,5.0;" x1="784.5" x2="784.5" y1="196.7891" y2="585.6484"/><rect fill="#E3E3E3" height="30.2969" rx="2.5" ry="2.5" style="stroke:#181818;stroke-width:0.5;" width="145" x="20" y="21.2969"/><text fill="#000000" font-family="sans-serif" font-size="14" lengthAdjust="spacing" textLength="131" x="27" y="41.292">:AgendaController</text><rect fill="#E3E3E3" height="30.2969" rx="2.5" ry="2.5" style="stroke:#181818;stroke-width:0.5;" width="145" x="20" y="584.6484"/><text fill="#000000" font-family="sans-serif" font-size="14" lengthAdjust="spacing" textLength="131" x="27" y="604.6436">:AgendaController</text><rect fill="#E3E3E3" height="46.5938" rx="2.5" ry="2.5" style="stroke:#181818;stroke-width:0.5;" width="157" x="380" y="5"/><text fill="#000000" font-family="sans-serif" font-size="14" lengthAdjust="spacing" textLength="134" x="391.5" y="24.9951">toDoListRepository</text><text fill="#000000" font-family="sans-serif" font-size="14" lengthAdjust="spacing" textLength="143" x="387" y="41.292">:ToDoListRepository</text><rect fill="#E3E3E3" height="46.5938" rx="2.5" ry="2.5" style="stroke:#181818;stroke-width:0.5;" width="157" x="380" y="584.6484"/><text fill="#000000" font-family="sans-serif" font-size="14" lengthAdjust="spacing" textLength="134" x="391.5" y="604.6436">toDoListRepository</text><text fill="#000000" font-family="sans-serif" font-size="14" lengthAdjust="spacing" textLength="143" x="387" y="620.9404">:ToDoListRepository</text><rect fill="#E3E3E3" height="46.5938" rx="2.5" ry="2.5" style="stroke:#181818;stroke-width:0.5;" width="119" x="564" y="5"/><text fill="#000000" font-family="sans-serif" font-size="14" lengthAdjust="spacing" textLength="86" x="580.5" y="24.9951">greenSpace</text><text fill="#000000" font-family="sans-serif" font-size="14" lengthAdjust="spacing" textLength="105" x="571" y="41.292">:GreenSpace&gt;</text><rect fill="#E3E3E3" height="46.5938" rx="2.5" ry="2.5" style="stroke:#181818;stroke-width:0.5;" width="119" x="564" y="584.6484"/><text fill="#000000" font-family="sans-serif" font-size="14" lengthAdjust="spacing" textLength="86" x="580.5" y="604.6436">greenSpace</text><text fill="#000000" font-family="sans-serif" font-size="14" lengthAdjust="spacing" textLength="105" x="571" y="620.9404">:GreenSpace&gt;</text><rect fill="#E3E3E3" height="46.5938" rx="2.5" ry="2.5" style="stroke:#181818;stroke-width:0.5;" width="142" x="713.5" y="584.6484"/><text fill="#000000" font-family="sans-serif" font-size="14" lengthAdjust="spacing" textLength="95" x="737" y="604.6436">listToDoEntry</text><text fill="#000000" font-family="sans-serif" font-size="14" lengthAdjust="spacing" textLength="128" x="720.5" y="620.9404">:List&lt;ToDoEntry&gt;</text><rect fill="#FFFFFF" height="514.0547" style="stroke:#181818;stroke-width:1.0;" width="10" x="87.5" y="62.5938"/><rect fill="#FFFFFF" height="468.9219" style="stroke:#181818;stroke-width:1.0;" width="10" x="92.5" y="91.7266"/><rect fill="#FFFFFF" height="410.6563" style="stroke:#181818;stroke-width:1.0;" width="10" x="453.5" y="149.9922"/><rect fill="#FFFFFF" height="28" style="stroke:#181818;stroke-width:1.0;" width="10" x="458.5" y="268.8516"/><rect fill="#FFFFFF" height="101.2656" style="stroke:#181818;stroke-width:1.0;" width="10" x="618.5" y="332.9844"/><rect fill="#FFFFFF" height="28" style="stroke:#181818;stroke-width:1.0;" width="10" x="623.5" y="370.1172"/><rect fill="#FFFFFF" height="30" style="stroke:#181818;stroke-width:1.0;" width="10" x="779.5" y="487.5156"/><line style="stroke:#181818;stroke-width:1.0;" x1="97.5" x2="144.5" y1="78.7266" y2="78.7266"/><line style="stroke:#181818;stroke-width:1.0;" x1="144.5" x2="144.5" y1="78.7266" y2="91.7266"/><line style="stroke:#181818;stroke-width:1.0;" x1="103.5" x2="144.5" y1="91.7266" y2="91.7266"/><polygon fill="#181818" points="113.5,87.7266,103.5,91.7266,113.5,95.7266,109.5,91.7266" style="stroke:#181818;stroke-width:1.0;"/><text fill="#000000" font-family="sans-serif" font-size="13" font-weight="bold" lengthAdjust="spacing" textLength="23" x="109.5" y="73.6606">3.1</text><text fill="#000000" font-family="sans-serif" font-size="13" lengthAdjust="spacing" textLength="221" x="136.5" y="73.6606">getToDoEntryListForResponsible()</text><path d="M10,111.7266 L277,111.7266 L277,118.8594 L267,128.8594 L10,128.8594 L10,111.7266 " fill="#EEEEEE" style="stroke:#000000;stroke-width:1.5;"/><rect fill="none" height="456.9219" style="stroke:#000000;stroke-width:1.5;" width="875.5" x="10" y="111.7266"/><text fill="#000000" font-family="sans-serif" font-size="13" font-weight="bold" lengthAdjust="spacing" textLength="222" x="25" y="124.7935">Get ToDo List For Responsible</text><polygon fill="#181818" points="441.5,145.9922,451.5,149.9922,441.5,153.9922,445.5,149.9922" style="stroke:#181818;stroke-width:1.0;"/><line style="stroke:#181818;stroke-width:1.0;" x1="102.5" x2="447.5" y1="149.9922" y2="149.9922"/><text fill="#000000" font-family="sans-serif" font-size="13" font-weight="bold" lengthAdjust="spacing" textLength="23" x="109.5" y="144.9263">3.2</text><text fill="#000000" font-family="sans-serif" font-size="13" lengthAdjust="spacing" textLength="305" x="136.5" y="144.9263">getToDoListForResponsible( getResponsible() )</text><polygon fill="#181818" points="701.5,175.125,711.5,179.125,701.5,183.125,705.5,179.125" style="stroke:#181818;stroke-width:1.0;"/><line style="stroke:#181818;stroke-width:1.0;" x1="463.5" x2="707.5" y1="179.125" y2="179.125"/><text fill="#000000" font-family="sans-serif" font-size="13" font-weight="bold" lengthAdjust="spacing" textLength="23" x="470.5" y="174.0591">3.3</text><text fill="#000000" font-family="sans-serif" font-size="13" lengthAdjust="spacing" textLength="41" x="497.5" y="174.0591">create</text><rect fill="#E3E3E3" height="46.5938" rx="2.5" ry="2.5" style="stroke:#181818;stroke-width:0.5;" width="142" x="713.5" y="157.9922"/><text fill="#000000" font-family="sans-serif" font-size="14" lengthAdjust="spacing" textLength="95" x="737" y="177.9873">listToDoEntry</text><text fill="#000000" font-family="sans-serif" font-size="14" lengthAdjust="spacing" textLength="128" x="720.5" y="194.2842">:List&lt;ToDoEntry&gt;</text><path d="M360,222.5859 L441,222.5859 L441,229.7188 L431,239.7188 L360,239.7188 L360,222.5859 " fill="#EEEEEE" style="stroke:#000000;stroke-width:1.5;"/><rect fill="none" height="309.9297" style="stroke:#000000;stroke-width:1.5;" width="515.5" x="360" y="222.5859"/><text fill="#000000" font-family="sans-serif" font-size="13" font-weight="bold" lengthAdjust="spacing" textLength="31" x="375" y="235.6528">loop</text><text fill="#000000" font-family="sans-serif" font-size="11" font-weight="bold" lengthAdjust="spacing" textLength="268" x="456" y="234.7964">[for each object in the toDoListRepository]</text><line style="stroke:#181818;stroke-width:1.0;" x1="468.5" x2="510.5" y1="260.8516" y2="260.8516"/><line style="stroke:#181818;stroke-width:1.0;" x1="510.5" x2="510.5" y1="260.8516" y2="273.8516"/><line style="stroke:#181818;stroke-width:1.0;" x1="469.5" x2="510.5" y1="273.8516" y2="273.8516"/><polygon fill="#181818" points="479.5,269.8516,469.5,273.8516,479.5,277.8516,475.5,273.8516" style="stroke:#181818;stroke-width:1.0;"/><text fill="#000000" font-family="sans-serif" font-size="13" font-weight="bold" lengthAdjust="spacing" textLength="23" x="475.5" y="255.7856">3.4</text><text fill="#000000" font-family="sans-serif" font-size="13" lengthAdjust="spacing" textLength="74" x="502.5" y="255.7856">obj = get(i)</text><polygon fill="#181818" points="606.5,328.9844,616.5,332.9844,606.5,336.9844,610.5,332.9844" style="stroke:#181818;stroke-width:1.0;"/><line style="stroke:#181818;stroke-width:1.0;" x1="463.5" x2="612.5" y1="332.9844" y2="332.9844"/><text fill="#000000" font-family="sans-serif" font-size="13" font-weight="bold" lengthAdjust="spacing" textLength="23" x="470.5" y="327.9185">3.5</text><text fill="#000000" font-family="sans-serif" font-size="13" lengthAdjust="spacing" textLength="109" x="497.5" y="327.9185">getGreenSpace()</text><line style="stroke:#181818;stroke-width:1.0;" x1="633.5" x2="675.5" y1="362.1172" y2="362.1172"/><line style="stroke:#181818;stroke-width:1.0;" x1="675.5" x2="675.5" y1="362.1172" y2="375.1172"/><line style="stroke:#181818;stroke-width:1.0;" x1="634.5" x2="675.5" y1="375.1172" y2="375.1172"/><polygon fill="#181818" points="644.5,371.1172,634.5,375.1172,644.5,379.1172,640.5,375.1172" style="stroke:#181818;stroke-width:1.0;"/><text fill="#000000" font-family="sans-serif" font-size="13" font-weight="bold" lengthAdjust="spacing" textLength="23" x="640.5" y="357.0513">3.6</text><text fill="#000000" font-family="sans-serif" font-size="13" lengthAdjust="spacing" textLength="110" x="667.5" y="357.0513">getResponsible()</text><polygon fill="#181818" points="474.5,430.25,464.5,434.25,474.5,438.25,470.5,434.25" style="stroke:#181818;stroke-width:1.0;"/><line style="stroke:#181818;stroke-width:1.0;stroke-dasharray:2.0,2.0;" x1="468.5" x2="622.5" y1="434.25" y2="434.25"/><text fill="#000000" font-family="sans-serif" font-size="13" font-weight="bold" lengthAdjust="spacing" textLength="23" x="480.5" y="429.1841">3.7</text><text fill="#000000" font-family="sans-serif" font-size="13" lengthAdjust="spacing" textLength="99" x="507.5" y="429.1841">objResponsible</text><path d="M370,449.25 L430,449.25 L430,456.3828 L420,466.3828 L370,466.3828 L370,449.25 " fill="#EEEEEE" style="stroke:#000000;stroke-width:1.5;"/><rect fill="none" height="76.2656" style="stroke:#000000;stroke-width:1.5;" width="495.5" x="370" y="449.25"/><text fill="#000000" font-family="sans-serif" font-size="13" font-weight="bold" lengthAdjust="spacing" textLength="10" x="385" y="462.3169">if</text><text fill="#000000" font-family="sans-serif" font-size="11" font-weight="bold" lengthAdjust="spacing" textLength="205" x="445" y="461.4604">[objResponsible == responsible]</text><polygon fill="#181818" points="767.5,483.5156,777.5,487.5156,767.5,491.5156,771.5,487.5156" style="stroke:#181818;stroke-width:1.0;"/><line style="stroke:#181818;stroke-width:1.0;" x1="463.5" x2="773.5" y1="487.5156" y2="487.5156"/><text fill="#000000" font-family="sans-serif" font-size="13" font-weight="bold" lengthAdjust="spacing" textLength="23" x="470.5" y="482.4497">3.8</text><text fill="#000000" font-family="sans-serif" font-size="13" lengthAdjust="spacing" textLength="54" x="497.5" y="482.4497">add(obj)</text><polygon fill="#181818" points="108.5,556.6484,98.5,560.6484,108.5,564.6484,104.5,560.6484" style="stroke:#181818;stroke-width:1.0;"/><line style="stroke:#181818;stroke-width:1.0;stroke-dasharray:2.0,2.0;" x1="102.5" x2="457.5" y1="560.6484" y2="560.6484"/><text fill="#000000" font-family="sans-serif" font-size="13" font-weight="bold" lengthAdjust="spacing" textLength="23" x="114.5" y="555.5825">3.9</text><text fill="#000000" font-family="sans-serif" font-size="13" lengthAdjust="spacing" textLength="184" x="141.5" y="555.5825">listToDoEntryByResponsible</text><!--SRC=[lLLDJyCm3BtdLrXSs910GbpGn93ut8NJu0OSijPhmxguIZ9W_vwaPLcpbX468fSgoRFVisl7UYPaoHMVmvma9RcYEO9H2sJQtvGycV4CxysoG52O62wpeWdGEK_fJSWCfhpGo1XV69AB-GGLO_kvI16cH6P2xumnQs948aek3UmDBZAKARyYQHGL1Qezu1gk7iPt8SxGDTq9RSPOaXQ6rF993XvQXvLr6nlwoXIYlBT1eVKnyflpohYw3F65zUMeRgn6H-jyd_c3sco5OStOuJJOdHmTC-294Q_SO1qZD9OxWCFp-Zk03DUaZl6Mr1XrILABIO6zVcMRALgKC4833WiE1nO83MI52ra3Mi_RJfiNqS7lhW8zq0_TRYoleEFlR3NyN6qpftcLzeC3cx54eIM8SLQdhI0guN5gquKyoO4cBxQqGKWmUPVCvoYTMyHsd0x0qSBGPRCd-j44sx8PwoF5t_wJxU5MdLGNyhh9UlsVEFO2www47wvQGIYbtKFmVu8QAQyTx1hILzLaYscpzNUL5g_8zPAOmcD83iEXdHL- -_m75RNgTXieJzEUvTkjcjQFzMu9ylQnjdR4HN55uRfoinuRmR2wNCPMmtUFGUFU3owdzWC0]--></g></svg>