<?xml version="1.0" encoding="us-ascii" standalone="no"?><svg xmlns="http://www.w3.org/2000/svg" xmlns:xlink="http://www.w3.org/1999/xlink" contentStyleType="text/css" height="727.2px" preserveAspectRatio="none" style="width:1292px;height:727px;background:#FFFFFF;" version="1.1" viewBox="0 0 1292 727" width="1292px" zoomAndPan="magnify"><defs/><g><!--class AgendaUI--><g id="elem_AgendaUI"><rect codeLine="9" fill="#F1F1F1" height="38.4" id="AgendaUI" rx="2" ry="2" style="stroke:#181818;stroke-width:0.4000000000000001;" width="80.8" x="266" y="70.8"/><ellipse cx="278" cy="83.6" fill="#ADD1B2" rx="8.8" ry="8.8" style="stroke:#181818;stroke-width:0.8000000000000002;"/><path d="M280.375,88.1125 Q279.9125,88.35 279.4,88.4625 Q278.8875,88.5875 278.325,88.5875 Q276.325,88.5875 275.2625,87.275 Q274.2125,85.95 274.2125,83.45 Q274.2125,80.95 275.2625,79.625 Q276.325,78.3 278.325,78.3 Q278.8875,78.3 279.4,78.425 Q279.925,78.55 280.375,78.7875 L280.375,80.9625 Q279.875,80.5 279.4,80.2875 Q278.925,80.0625 278.425,80.0625 Q277.35,80.0625 276.8,80.925 Q276.25,81.775 276.25,83.45 Q276.25,85.125 276.8,85.9875 Q277.35,86.8375 278.425,86.8375 Q278.925,86.8375 279.4,86.625 Q279.875,86.4 280.375,85.9375 L280.375,88.1125 Z " fill="#000000"/><text fill="#000000" font-family="sans-serif" font-size="11.2" lengthAdjust="spacing" textLength="55.2" x="289.2" y="87.4773">AgendaUI</text><line style="stroke:#181818;stroke-width:0.4000000000000001;" x1="266.8" x2="346" y1="96.4" y2="96.4"/><line style="stroke:#181818;stroke-width:0.4000000000000001;" x1="266.8" x2="346" y1="102.8" y2="102.8"/></g><!--class AgendaController--><g id="elem_AgendaController"><rect codeLine="13" fill="#F1F1F1" height="168.775" id="AgendaController" rx="2" ry="2" style="stroke:#181818;stroke-width:0.4000000000000001;" width="234.4" x="374.8" y="5.6"/><ellipse cx="438.2" cy="18.4" fill="#ADD1B2" rx="8.8" ry="8.8" style="stroke:#181818;stroke-width:0.8000000000000002;"/><path d="M440.575,22.9125 Q440.1125,23.15 439.6,23.2625 Q439.0875,23.3875 438.525,23.3875 Q436.525,23.3875 435.4625,22.075 Q434.4125,20.75 434.4125,18.25 Q434.4125,15.75 435.4625,14.425 Q436.525,13.1 438.525,13.1 Q439.0875,13.1 439.6,13.225 Q440.125,13.35 440.575,13.5875 L440.575,15.7625 Q440.075,15.3 439.6,15.0875 Q439.125,14.8625 438.625,14.8625 Q437.55,14.8625 437,15.725 Q436.45,16.575 436.45,18.25 Q436.45,19.925 437,20.7875 Q437.55,21.6375 438.625,21.6375 Q439.125,21.6375 439.6,21.425 Q440.075,21.2 440.575,20.7375 L440.575,22.9125 Z " fill="#000000"/><text fill="#000000" font-family="sans-serif" font-size="11.2" lengthAdjust="spacing" textLength="100.8" x="454.6" y="22.2773">AgendaController</text><line style="stroke:#181818;stroke-width:0.4000000000000001;" x1="375.6" x2="608.4" y1="31.2" y2="31.2"/><text fill="#000000" font-family="sans-serif" font-size="11.2" lengthAdjust="spacing" textLength="216" x="379.6" y="44.7961">-AgendaRepository agendaRepository</text><text fill="#000000" font-family="sans-serif" font-size="11.2" lengthAdjust="spacing" textLength="224.8" x="379.6" y="57.8336">-ToDoListRepository toDoListRepository</text><line style="stroke:#181818;stroke-width:0.4000000000000001;" x1="375.6" x2="608.4" y1="63.675" y2="63.675"/><text fill="#000000" font-family="sans-serif" font-size="11.2" lengthAdjust="spacing" textLength="118.4" x="379.6" y="77.2711">+AgendaController()</text><text fill="#000000" font-family="sans-serif" font-size="11.2" lengthAdjust="spacing" textLength="74.4" x="379.6" y="90.3086">-getAgenda()</text><text fill="#000000" font-family="sans-serif" font-size="11.2" lengthAdjust="spacing" textLength="121.6" x="379.6" y="103.3461">-getToDoRepository()</text><text fill="#000000" font-family="sans-serif" font-size="11.2" lengthAdjust="spacing" textLength="135.2" x="379.6" y="116.3836">+registerAgendaEntry()</text><text fill="#000000" font-family="sans-serif" font-size="11.2" lengthAdjust="spacing" textLength="218.4" x="379.6" y="129.4211">-searchForOption(int toDoEntryOption)</text><text fill="#000000" font-family="sans-serif" font-size="11.2" lengthAdjust="spacing" textLength="196.8" x="379.6" y="142.4586">-getToDoEntryListForResponsible()</text><text fill="#000000" font-family="sans-serif" font-size="11.2" lengthAdjust="spacing" textLength="104.8" x="379.6" y="155.4961">+getResponsible()</text><text fill="#000000" font-family="sans-serif" font-size="11.2" lengthAdjust="spacing" textLength="197.6" x="379.6" y="168.5336">+getToDoListDTOForResponsible()</text></g><!--class Repositories--><g id="elem_Repositories"><rect codeLine="26" fill="#F1F1F1" height="103.5875" id="Repositories" rx="2" ry="2" style="stroke:#181818;stroke-width:0.4000000000000001;" width="189.6" x="732.4" y="38.4"/><ellipse cx="788.6" cy="51.2" fill="#ADD1B2" rx="8.8" ry="8.8" style="stroke:#181818;stroke-width:0.8000000000000002;"/><path d="M790.975,55.7125 Q790.5125,55.95 790,56.0625 Q789.4875,56.1875 788.925,56.1875 Q786.925,56.1875 785.8625,54.875 Q784.8125,53.55 784.8125,51.05 Q784.8125,48.55 785.8625,47.225 Q786.925,45.9 788.925,45.9 Q789.4875,45.9 790,46.025 Q790.525,46.15 790.975,46.3875 L790.975,48.5625 Q790.475,48.1 790,47.8875 Q789.525,47.6625 789.025,47.6625 Q787.95,47.6625 787.4,48.525 Q786.85,49.375 786.85,51.05 Q786.85,52.725 787.4,53.5875 Q787.95,54.4375 789.025,54.4375 Q789.525,54.4375 790,54.225 Q790.475,54 790.975,53.5375 L790.975,55.7125 Z " fill="#000000"/><text fill="#000000" font-family="sans-serif" font-size="11.2" lengthAdjust="spacing" textLength="70.4" x="805" y="55.0773">Repositories</text><line style="stroke:#181818;stroke-width:0.4000000000000001;" x1="733.2" x2="921.2" y1="64" y2="64"/><line style="stroke:#181818;stroke-width:0.4000000000000001;" x1="733.2" x2="921.2" y1="70.4" y2="70.4"/><text fill="#000000" font-family="sans-serif" font-size="11.2" lengthAdjust="spacing" textLength="82.4" x="737.2" y="83.9961">-Repositories()</text><text fill="#000000" font-family="sans-serif" font-size="11.2" lengthAdjust="spacing" textLength="164.8" x="737.2" y="97.0336">+getInstance() : Repositories</text><text fill="#000000" font-family="sans-serif" font-size="11.2" lengthAdjust="spacing" textLength="80" x="737.2" y="110.0711">+getAgenda()</text><text fill="#000000" font-family="sans-serif" font-size="11.2" lengthAdjust="spacing" textLength="127.2" x="737.2" y="123.1086">+getToDoRepository()</text><text fill="#000000" font-family="sans-serif" font-size="11.2" lengthAdjust="spacing" textLength="180" x="737.2" y="136.1461">+getAuthenticationRepository()</text></g><!--class AuthenticationRepository--><g id="elem_AuthenticationRepository"><rect codeLine="34" fill="#F1F1F1" height="51.4375" id="AuthenticationRepository" rx="2" ry="2" style="stroke:#181818;stroke-width:0.4000000000000001;" width="169.6" x="814.4" y="242.8"/><ellipse cx="826.4" cy="255.6" fill="#ADD1B2" rx="8.8" ry="8.8" style="stroke:#181818;stroke-width:0.8000000000000002;"/><path d="M828.775,260.1125 Q828.3125,260.35 827.8,260.4625 Q827.2875,260.5875 826.725,260.5875 Q824.725,260.5875 823.6625,259.275 Q822.6125,257.95 822.6125,255.45 Q822.6125,252.95 823.6625,251.625 Q824.725,250.3 826.725,250.3 Q827.2875,250.3 827.8,250.425 Q828.325,250.55 828.775,250.7875 L828.775,252.9625 Q828.275,252.5 827.8,252.2875 Q827.325,252.0625 826.825,252.0625 Q825.75,252.0625 825.2,252.925 Q824.65,253.775 824.65,255.45 Q824.65,257.125 825.2,257.9875 Q825.75,258.8375 826.825,258.8375 Q827.325,258.8375 827.8,258.625 Q828.275,258.4 828.775,257.9375 L828.775,260.1125 Z " fill="#000000"/><text fill="#000000" font-family="sans-serif" font-size="11.2" lengthAdjust="spacing" textLength="144" x="837.6" y="259.4773">AuthenticationRepository</text><line style="stroke:#181818;stroke-width:0.4000000000000001;" x1="815.2" x2="983.2" y1="268.4" y2="268.4"/><line style="stroke:#181818;stroke-width:0.4000000000000001;" x1="815.2" x2="983.2" y1="274.8" y2="274.8"/><text fill="#000000" font-family="sans-serif" font-size="11.2" lengthAdjust="spacing" textLength="148" x="819.2" y="288.3961">+getCurrentUserSession()</text></g><!--class UserSession--><g id="elem_UserSession"><rect codeLine="38" fill="#F1F1F1" height="51.4375" id="UserSession" rx="2" ry="2" style="stroke:#181818;stroke-width:0.4000000000000001;" width="94.4" x="1192" y="242.8"/><ellipse cx="1204" cy="255.6" fill="#ADD1B2" rx="8.8" ry="8.8" style="stroke:#181818;stroke-width:0.8000000000000002;"/><path d="M1206.375,260.1125 Q1205.9125,260.35 1205.4,260.4625 Q1204.8875,260.5875 1204.325,260.5875 Q1202.325,260.5875 1201.2625,259.275 Q1200.2125,257.95 1200.2125,255.45 Q1200.2125,252.95 1201.2625,251.625 Q1202.325,250.3 1204.325,250.3 Q1204.8875,250.3 1205.4,250.425 Q1205.925,250.55 1206.375,250.7875 L1206.375,252.9625 Q1205.875,252.5 1205.4,252.2875 Q1204.925,252.0625 1204.425,252.0625 Q1203.35,252.0625 1202.8,252.925 Q1202.25,253.775 1202.25,255.45 Q1202.25,257.125 1202.8,257.9875 Q1203.35,258.8375 1204.425,258.8375 Q1204.925,258.8375 1205.4,258.625 Q1205.875,258.4 1206.375,257.9375 L1206.375,260.1125 Z " fill="#000000"/><text fill="#000000" font-family="sans-serif" font-size="11.2" lengthAdjust="spacing" textLength="68.8" x="1215.2" y="259.4773">UserSession</text><line style="stroke:#181818;stroke-width:0.4000000000000001;" x1="1192.8" x2="1285.6" y1="268.4" y2="268.4"/><line style="stroke:#181818;stroke-width:0.4000000000000001;" x1="1192.8" x2="1285.6" y1="274.8" y2="274.8"/><text fill="#000000" font-family="sans-serif" font-size="11.2" lengthAdjust="spacing" textLength="72" x="1196.8" y="288.3961">+getUserId()</text></g><!--class Email--><g id="elem_Email"><rect codeLine="42" fill="#F1F1F1" height="51.4375" id="Email" rx="2" ry="2" style="stroke:#181818;stroke-width:0.4000000000000001;" width="77.6" x="1200.4" y="401.6"/><ellipse cx="1221.4" cy="414.4" fill="#ADD1B2" rx="8.8" ry="8.8" style="stroke:#181818;stroke-width:0.8000000000000002;"/><path d="M1223.775,418.9125 Q1223.3125,419.15 1222.8,419.2625 Q1222.2875,419.3875 1221.725,419.3875 Q1219.725,419.3875 1218.6625,418.075 Q1217.6125,416.75 1217.6125,414.25 Q1217.6125,411.75 1218.6625,410.425 Q1219.725,409.1 1221.725,409.1 Q1222.2875,409.1 1222.8,409.225 Q1223.325,409.35 1223.775,409.5875 L1223.775,411.7625 Q1223.275,411.3 1222.8,411.0875 Q1222.325,410.8625 1221.825,410.8625 Q1220.75,410.8625 1220.2,411.725 Q1219.65,412.575 1219.65,414.25 Q1219.65,415.925 1220.2,416.7875 Q1220.75,417.6375 1221.825,417.6375 Q1222.325,417.6375 1222.8,417.425 Q1223.275,417.2 1223.775,416.7375 L1223.775,418.9125 Z " fill="#000000"/><text fill="#000000" font-family="sans-serif" font-size="11.2" lengthAdjust="spacing" textLength="32" x="1234.6" y="418.2773">Email</text><line style="stroke:#181818;stroke-width:0.4000000000000001;" x1="1201.2" x2="1277.2" y1="427.2" y2="427.2"/><line style="stroke:#181818;stroke-width:0.4000000000000001;" x1="1201.2" x2="1277.2" y1="433.6" y2="433.6"/><text fill="#000000" font-family="sans-serif" font-size="11.2" lengthAdjust="spacing" textLength="68" x="1205.2" y="447.1961">+getEmail()</text></g><!--class AgendaRepository--><g id="elem_AgendaRepository"><rect codeLine="48" fill="#F1F1F1" height="90.55" id="AgendaRepository" rx="2" ry="2" style="stroke:#181818;stroke-width:0.4000000000000001;" width="393.6" x="778.4" y="382"/><ellipse cx="919.4" cy="394.8" fill="#ADD1B2" rx="8.8" ry="8.8" style="stroke:#181818;stroke-width:0.8000000000000002;"/><path d="M921.775,399.3125 Q921.3125,399.55 920.8,399.6625 Q920.2875,399.7875 919.725,399.7875 Q917.725,399.7875 916.6625,398.475 Q915.6125,397.15 915.6125,394.65 Q915.6125,392.15 916.6625,390.825 Q917.725,389.5 919.725,389.5 Q920.2875,389.5 920.8,389.625 Q921.325,389.75 921.775,389.9875 L921.775,392.1625 Q921.275,391.7 920.8,391.4875 Q920.325,391.2625 919.825,391.2625 Q918.75,391.2625 918.2,392.125 Q917.65,392.975 917.65,394.65 Q917.65,396.325 918.2,397.1875 Q918.75,398.0375 919.825,398.0375 Q920.325,398.0375 920.8,397.825 Q921.275,397.6 921.775,397.1375 L921.775,399.3125 Z " fill="#000000"/><text fill="#000000" font-family="sans-serif" font-size="11.2" lengthAdjust="spacing" textLength="104.8" x="935.8" y="398.6773">AgendaRepository</text><line style="stroke:#181818;stroke-width:0.4000000000000001;" x1="779.2" x2="1171.2" y1="407.6" y2="407.6"/><text fill="#000000" font-family="sans-serif" font-size="11.2" lengthAdjust="spacing" textLength="162.4" x="783.2" y="421.1961">-List&lt;AgendaEntry&gt; agenda</text><line style="stroke:#181818;stroke-width:0.4000000000000001;" x1="779.2" x2="1171.2" y1="427.0375" y2="427.0375"/><text fill="#000000" font-family="sans-serif" font-size="11.2" lengthAdjust="spacing" textLength="384" x="783.2" y="440.6336">+registerAgendaEntry(ToDoEntry agendaEntry, Data starting_Date)</text><text fill="#000000" font-family="sans-serif" font-size="11.2" lengthAdjust="spacing" textLength="213.6" x="783.2" y="453.6711">-addAgendaEntry(AgendaEntry entry)</text><text fill="#000000" font-family="sans-serif" font-size="11.2" lengthAdjust="spacing" textLength="193.6" x="783.2" y="466.7086">-validateEntry(AgendaEntry entry)</text></g><!--class ToDoListRepository--><g id="elem_ToDoListRepository"><rect codeLine="57" fill="#F1F1F1" height="64.475" id="ToDoListRepository" rx="2" ry="2" style="stroke:#181818;stroke-width:0.4000000000000001;" width="284.8" x="349.6" y="236"/><ellipse cx="433.4" cy="248.8" fill="#ADD1B2" rx="8.8" ry="8.8" style="stroke:#181818;stroke-width:0.8000000000000002;"/><path d="M435.775,253.3125 Q435.3125,253.55 434.8,253.6625 Q434.2875,253.7875 433.725,253.7875 Q431.725,253.7875 430.6625,252.475 Q429.6125,251.15 429.6125,248.65 Q429.6125,246.15 430.6625,244.825 Q431.725,243.5 433.725,243.5 Q434.2875,243.5 434.8,243.625 Q435.325,243.75 435.775,243.9875 L435.775,246.1625 Q435.275,245.7 434.8,245.4875 Q434.325,245.2625 433.825,245.2625 Q432.75,245.2625 432.2,246.125 Q431.65,246.975 431.65,248.65 Q431.65,250.325 432.2,251.1875 Q432.75,252.0375 433.825,252.0375 Q434.325,252.0375 434.8,251.825 Q435.275,251.6 435.775,251.1375 L435.775,253.3125 Z " fill="#000000"/><text fill="#000000" font-family="sans-serif" font-size="11.2" lengthAdjust="spacing" textLength="110.4" x="449.8" y="252.6773">ToDoListRepository</text><line style="stroke:#181818;stroke-width:0.4000000000000001;" x1="350.4" x2="633.6" y1="261.6" y2="261.6"/><text fill="#000000" font-family="sans-serif" font-size="11.2" lengthAdjust="spacing" textLength="152" x="354.4" y="275.1961">-List&lt;ToDoEntry&gt; toDoList</text><line style="stroke:#181818;stroke-width:0.4000000000000001;" x1="350.4" x2="633.6" y1="281.0375" y2="281.0375"/><text fill="#000000" font-family="sans-serif" font-size="11.2" lengthAdjust="spacing" textLength="275.2" x="354.4" y="294.6336">+getToDoListForResponsible(String responsible)</text></g><!--class AgendaMapper--><g id="elem_AgendaMapper"><rect codeLine="62" fill="#F1F1F1" height="77.5125" id="AgendaMapper" rx="2" ry="2" style="stroke:#181818;stroke-width:0.4000000000000001;" width="226.4" x="8.4" y="388.4"/><ellipse cx="74.6" cy="401.2" fill="#ADD1B2" rx="8.8" ry="8.8" style="stroke:#181818;stroke-width:0.8000000000000002;"/><path d="M76.975,405.7125 Q76.5125,405.95 76,406.0625 Q75.4875,406.1875 74.925,406.1875 Q72.925,406.1875 71.8625,404.875 Q70.8125,403.55 70.8125,401.05 Q70.8125,398.55 71.8625,397.225 Q72.925,395.9 74.925,395.9 Q75.4875,395.9 76,396.025 Q76.525,396.15 76.975,396.3875 L76.975,398.5625 Q76.475,398.1 76,397.8875 Q75.525,397.6625 75.025,397.6625 Q73.95,397.6625 73.4,398.525 Q72.85,399.375 72.85,401.05 Q72.85,402.725 73.4,403.5875 Q73.95,404.4375 75.025,404.4375 Q75.525,404.4375 76,404.225 Q76.475,404 76.975,403.5375 L76.975,405.7125 Z " fill="#000000"/><text fill="#000000" font-family="sans-serif" font-size="11.2" lengthAdjust="spacing" textLength="87.2" x="91" y="405.0773">AgendaMapper</text><line style="stroke:#181818;stroke-width:0.4000000000000001;" x1="9.2" x2="234" y1="414" y2="414"/><line style="stroke:#181818;stroke-width:0.4000000000000001;" x1="9.2" x2="234" y1="420.4" y2="420.4"/><text fill="#000000" font-family="sans-serif" font-size="11.2" lengthAdjust="spacing" textLength="104.8" x="13.2" y="433.9961">+AgendaMapper()</text><text fill="#000000" font-family="sans-serif" font-size="11.2" lengthAdjust="spacing" textLength="216.8" x="13.2" y="447.0336">+toDto(List&lt;ToDoEntry&gt; toDoEntries)</text><text fill="#000000" font-family="sans-serif" font-size="11.2" lengthAdjust="spacing" textLength="163.2" x="13.2" y="460.0711">-toDto(ToDoEntry toDoEntry)</text></g><!--class ToDoEntryDTO--><g id="elem_ToDoEntryDTO"><rect codeLine="68" fill="#F1F1F1" height="77.5125" id="ToDoEntryDTO" rx="2" ry="2" style="stroke:#181818;stroke-width:0.4000000000000001;" width="232" x="5.6" y="599.2"/><ellipse cx="75.8" cy="612" fill="#ADD1B2" rx="8.8" ry="8.8" style="stroke:#181818;stroke-width:0.8000000000000002;"/><path d="M78.175,616.5125 Q77.7125,616.75 77.2,616.8625 Q76.6875,616.9875 76.125,616.9875 Q74.125,616.9875 73.0625,615.675 Q72.0125,614.35 72.0125,611.85 Q72.0125,609.35 73.0625,608.025 Q74.125,606.7 76.125,606.7 Q76.6875,606.7 77.2,606.825 Q77.725,606.95 78.175,607.1875 L78.175,609.3625 Q77.675,608.9 77.2,608.6875 Q76.725,608.4625 76.225,608.4625 Q75.15,608.4625 74.6,609.325 Q74.05,610.175 74.05,611.85 Q74.05,613.525 74.6,614.3875 Q75.15,615.2375 76.225,615.2375 Q76.725,615.2375 77.2,615.025 Q77.675,614.8 78.175,614.3375 L78.175,616.5125 Z " fill="#000000"/><text fill="#000000" font-family="sans-serif" font-size="11.2" lengthAdjust="spacing" textLength="84.8" x="92.2" y="615.8773">ToDoEntryDTO</text><line style="stroke:#181818;stroke-width:0.4000000000000001;" x1="6.4" x2="236.8" y1="624.8" y2="624.8"/><text fill="#000000" font-family="sans-serif" font-size="11.2" lengthAdjust="spacing" textLength="104.8" x="10.4" y="638.3961">-ToDoEntry objDto</text><line style="stroke:#181818;stroke-width:0.4000000000000001;" x1="6.4" x2="236.8" y1="644.2375" y2="644.2375"/><text fill="#000000" font-family="sans-serif" font-size="11.2" lengthAdjust="spacing" textLength="222.4" x="10.4" y="657.8336">+ToDoEntryDTO(ToDoEntry toDoEntry)</text><text fill="#000000" font-family="sans-serif" font-size="11.2" lengthAdjust="spacing" textLength="75.2" x="10.4" y="670.8711">+getObjDto()</text></g><!--class AgendaEntry--><g id="elem_AgendaEntry"><rect codeLine="75" fill="#F1F1F1" height="168.775" id="AgendaEntry" rx="2" ry="2" style="stroke:#181818;stroke-width:0.4000000000000001;" width="365.6" x="792.4" y="553.6"/><ellipse cx="935" cy="566.4" fill="#ADD1B2" rx="8.8" ry="8.8" style="stroke:#181818;stroke-width:0.8000000000000002;"/><path d="M937.375,570.9125 Q936.9125,571.15 936.4,571.2625 Q935.8875,571.3875 935.325,571.3875 Q933.325,571.3875 932.2625,570.075 Q931.2125,568.75 931.2125,566.25 Q931.2125,563.75 932.2625,562.425 Q933.325,561.1 935.325,561.1 Q935.8875,561.1 936.4,561.225 Q936.925,561.35 937.375,561.5875 L937.375,563.7625 Q936.875,563.3 936.4,563.0875 Q935.925,562.8625 935.425,562.8625 Q934.35,562.8625 933.8,563.725 Q933.25,564.575 933.25,566.25 Q933.25,567.925 933.8,568.7875 Q934.35,569.6375 935.425,569.6375 Q935.925,569.6375 936.4,569.425 Q936.875,569.2 937.375,568.7375 L937.375,570.9125 Z " fill="#000000"/><text fill="#000000" font-family="sans-serif" font-size="11.2" lengthAdjust="spacing" textLength="73.6" x="951.4" y="570.2773">AgendaEntry</text><line style="stroke:#181818;stroke-width:0.4000000000000001;" x1="793.2" x2="1157.2" y1="579.2" y2="579.2"/><text fill="#000000" font-family="sans-serif" font-size="11.2" lengthAdjust="spacing" textLength="73.6" x="797.2" y="592.7961">-Team team;</text><text fill="#000000" font-family="sans-serif" font-size="11.2" lengthAdjust="spacing" textLength="138.4" x="797.2" y="605.8336">-List&lt;Vehicle&gt; vehicles;</text><text fill="#000000" font-family="sans-serif" font-size="11.2" lengthAdjust="spacing" textLength="114.4" x="797.2" y="618.8711">-Data starting_Date;</text><text fill="#000000" font-family="sans-serif" font-size="11.2" lengthAdjust="spacing" textLength="151.2" x="797.2" y="631.9086">-Data expected_end_Date;</text><text fill="#000000" font-family="sans-serif" font-size="11.2" lengthAdjust="spacing" textLength="120.8" x="797.2" y="644.9461">-Data real_end_Date;</text><text fill="#000000" font-family="sans-serif" font-size="11.2" lengthAdjust="spacing" textLength="110.4" x="797.2" y="657.9836">-String responsible;</text><line style="stroke:#181818;stroke-width:0.4000000000000001;" x1="793.2" x2="1157.2" y1="663.825" y2="663.825"/><text fill="#000000" font-family="sans-serif" font-size="11.2" lengthAdjust="spacing" textLength="340" x="797.2" y="677.4211">+AgendaEntry(ToDoEntry agendaEntry, Data starting_Date)</text><text fill="#000000" font-family="sans-serif" font-size="11.2" lengthAdjust="spacing" textLength="242.4" x="797.2" y="690.4586">-validationAgendaEntry(Data startingDate)</text><text fill="#000000" font-family="sans-serif" font-size="11.2" lengthAdjust="spacing" textLength="185.6" x="797.2" y="703.4961">-validateDate(Data startingDate)</text><text fill="#000000" font-family="sans-serif" font-size="11.2" lengthAdjust="spacing" textLength="356" x="797.2" y="716.5336">-calculateEndDate(Data startingDate, ToDoEntry agendaEntry)</text></g><!--class enum_Status--><g id="elem_enum_Status"><rect codeLine="88" fill="#F1F1F1" height="90.55" id="enum_Status" rx="2" ry="2" style="stroke:#181818;stroke-width:0.4000000000000001;" width="99.2" x="651.2" y="382"/><ellipse cx="663.2" cy="394.8" fill="#ADD1B2" rx="8.8" ry="8.8" style="stroke:#181818;stroke-width:0.8000000000000002;"/><path d="M665.575,399.3125 Q665.1125,399.55 664.6,399.6625 Q664.0875,399.7875 663.525,399.7875 Q661.525,399.7875 660.4625,398.475 Q659.4125,397.15 659.4125,394.65 Q659.4125,392.15 660.4625,390.825 Q661.525,389.5 663.525,389.5 Q664.0875,389.5 664.6,389.625 Q665.125,389.75 665.575,389.9875 L665.575,392.1625 Q665.075,391.7 664.6,391.4875 Q664.125,391.2625 663.625,391.2625 Q662.55,391.2625 662,392.125 Q661.45,392.975 661.45,394.65 Q661.45,396.325 662,397.1875 Q662.55,398.0375 663.625,398.0375 Q664.125,398.0375 664.6,397.825 Q665.075,397.6 665.575,397.1375 L665.575,399.3125 Z " fill="#000000"/><text fill="#000000" font-family="sans-serif" font-size="11.2" lengthAdjust="spacing" textLength="73.6" x="674.4" y="398.6773">enum_Status</text><line style="stroke:#181818;stroke-width:0.4000000000000001;" x1="652" x2="749.6" y1="407.6" y2="407.6"/><text fill="#000000" font-family="sans-serif" font-size="11.2" lengthAdjust="spacing" textLength="52.8" x="656" y="421.1961">PLANNED</text><text fill="#000000" font-family="sans-serif" font-size="11.2" lengthAdjust="spacing" textLength="61.6" x="656" y="434.2336">CANCELED</text><text fill="#000000" font-family="sans-serif" font-size="11.2" lengthAdjust="spacing" textLength="32.8" x="656" y="447.2711">DONE</text><line style="stroke:#181818;stroke-width:0.4000000000000001;" x1="652" x2="749.6" y1="453.1125" y2="453.1125"/><text fill="#000000" font-family="sans-serif" font-size="11.2" lengthAdjust="spacing" textLength="62.4" x="656" y="466.7086">+toString()</text></g><!--class ToDoEntry--><g id="elem_ToDoEntry"><rect codeLine="95" fill="#F1F1F1" height="129.6625" id="ToDoEntry" rx="2" ry="2" style="stroke:#181818;stroke-width:0.4000000000000001;" width="160" x="412" y="362.4"/><ellipse cx="458.6" cy="375.2" fill="#ADD1B2" rx="8.8" ry="8.8" style="stroke:#181818;stroke-width:0.8000000000000002;"/><path d="M460.975,379.7125 Q460.5125,379.95 460,380.0625 Q459.4875,380.1875 458.925,380.1875 Q456.925,380.1875 455.8625,378.875 Q454.8125,377.55 454.8125,375.05 Q454.8125,372.55 455.8625,371.225 Q456.925,369.9 458.925,369.9 Q459.4875,369.9 460,370.025 Q460.525,370.15 460.975,370.3875 L460.975,372.5625 Q460.475,372.1 460,371.8875 Q459.525,371.6625 459.025,371.6625 Q457.95,371.6625 457.4,372.525 Q456.85,373.375 456.85,375.05 Q456.85,376.725 457.4,377.5875 Q457.95,378.4375 459.025,378.4375 Q459.525,378.4375 460,378.225 Q460.475,378 460.975,377.5375 L460.975,379.7125 Z " fill="#000000"/><text fill="#000000" font-family="sans-serif" font-size="11.2" lengthAdjust="spacing" textLength="60" x="475" y="379.0773">ToDoEntry</text><line style="stroke:#181818;stroke-width:0.4000000000000001;" x1="412.8" x2="571.2" y1="388" y2="388"/><text fill="#000000" font-family="sans-serif" font-size="11.2" lengthAdjust="spacing" textLength="150.4" x="416.8" y="401.5961">-GreenSpace greenSpace;</text><text fill="#000000" font-family="sans-serif" font-size="11.2" lengthAdjust="spacing" textLength="66.4" x="416.8" y="414.6336">-String title;</text><text fill="#000000" font-family="sans-serif" font-size="11.2" lengthAdjust="spacing" textLength="108" x="416.8" y="427.6711">-String description;</text><text fill="#000000" font-family="sans-serif" font-size="11.2" lengthAdjust="spacing" textLength="72" x="416.8" y="440.7086">-int urgency;</text><text fill="#000000" font-family="sans-serif" font-size="11.2" lengthAdjust="spacing" textLength="128" x="416.8" y="453.7461">-int expectedDuration;</text><text fill="#000000" font-family="sans-serif" font-size="11.2" lengthAdjust="spacing" textLength="78.4" x="416.8" y="466.7836">-String status;</text><text fill="#000000" font-family="sans-serif" font-size="11.2" lengthAdjust="spacing" textLength="110.4" x="416.8" y="479.8211">-String responsible;</text><line style="stroke:#181818;stroke-width:0.4000000000000001;" x1="412.8" x2="571.2" y1="485.6625" y2="485.6625"/></g><!--link AgendaUI to AgendaController--><g id="link_AgendaUI_AgendaController"><path codeLine="108" d="M346.976,90 C358.64,90 368.264,90 368.264,90 C368.264,90 365.92,90 369.856,90 " fill="none" id="AgendaUI-to-AgendaController" style="stroke:#181818;stroke-width:0.8000000000000002;stroke-dasharray:7.0,7.0;"/><polygon fill="#181818" points="374.656,90,367.456,86.8,370.656,90,367.456,93.2,374.656,90" style="stroke:#181818;stroke-width:0.8000000000000002;"/></g><!--link AgendaController to AgendaMapper--><g id="link_AgendaController_AgendaMapper"><path codeLine="110" d="M374.592,165.608 C366.112,171.016 360.8,174.4 360.8,174.4 C360.8,174.4 228.8,236 228.8,236 C228.8,236 176.675,328.5774 145.387,384.1454 " fill="none" id="AgendaController-to-AgendaMapper" style="stroke:#181818;stroke-width:0.8000000000000002;stroke-dasharray:7.0,7.0;"/><polygon fill="#181818" points="143.032,388.328,149.3529,383.6242,144.9945,384.8425,143.7762,380.4841,143.032,388.328" style="stroke:#181818;stroke-width:0.8000000000000002;"/><text fill="#000000" font-family="sans-serif" font-size="10.4" lengthAdjust="spacing" textLength="105.6" x="229.6" y="272.0535">sendToDoEntryList()</text></g><!--reverse link AgendaController to AgendaMapper--><g id="link_AgendaController_AgendaMapper"><path codeLine="111" d="M370.5449,168.189 C362.0649,173.597 360.8,174.4 360.8,174.4 C360.8,174.4 56,236 56,236 C56,236 56,300.8 56,300.8 C56,300.8 82.432,351.408 101.736,388.376 " fill="none" id="AgendaController-backto-AgendaMapper" style="stroke:#181818;stroke-width:0.8000000000000002;stroke-dasharray:7.0,7.0;"/><polygon fill="#181818" points="374.592,165.608,366.8008,166.7814,371.2195,167.7588,370.242,172.1775,374.592,165.608" style="stroke:#181818;stroke-width:0.8000000000000002;"/><text fill="#000000" font-family="sans-serif" font-size="10.4" lengthAdjust="spacing" textLength="128" x="56.8" y="272.0535">sendToDoEntryListDTO()</text></g><!--link AgendaMapper to ToDoEntryDTO--><g id="link_AgendaMapper_ToDoEntryDTO"><path codeLine="112" d="M135.448,466.088 C144.096,489.872 153.6,516 153.6,516 C153.6,516 153.6,529.6 153.6,529.6 C153.6,529.6 143.5355,563.4309 134.3435,594.3589 " fill="none" id="AgendaMapper-to-ToDoEntryDTO" style="stroke:#181818;stroke-width:0.8000000000000002;stroke-dasharray:7.0,7.0;"/><polygon fill="#181818" points="132.976,598.96,138.0946,592.97,134.1156,595.1258,131.9598,591.1467,132.976,598.96" style="stroke:#181818;stroke-width:0.8000000000000002;"/></g><!--link ToDoEntryDTO to AgendaMapper--><g id="link_ToDoEntryDTO_AgendaMapper"><path codeLine="125" d="M101.984,598.96 C86.12,568.032 66.4,529.6 66.4,529.6 C66.4,529.6 66.4,516 66.4,516 C66.4,516 80.2412,493.9382 95.1612,470.1542 " fill="none" id="ToDoEntryDTO-to-AgendaMapper" style="stroke:#181818;stroke-width:0.8000000000000002;stroke-dasharray:7.0,7.0;"/><polygon fill="#181818" points="97.712,466.088,91.1751,470.4867,95.5864,469.4765,96.5966,473.8877,97.712,466.088" style="stroke:#181818;stroke-width:0.8000000000000002;"/><text fill="#000000" font-family="sans-serif" font-size="10.4" lengthAdjust="spacing" textLength="79.2" x="67.2" y="526.4535">returns Dto Obj</text></g><!--link Repositories to ToDoListRepository--><g id="link_Repositories_ToDoListRepository"><path codeLine="113" d="M732.264,140.872 C674.384,171.4 606.4137,207.2568 556.3417,233.6648 " fill="none" id="Repositories-to-ToDoListRepository" style="stroke:#181818;stroke-width:0.8000000000000002;"/><polygon fill="#181818" points="552.096,235.904,559.9574,235.3757,555.6341,234.038,556.9718,229.7147,552.096,235.904" style="stroke:#181818;stroke-width:0.8000000000000002;"/><text fill="#000000" font-family="sans-serif" font-size="10.4" lengthAdjust="spacing" textLength="48" x="620" y="208.8535">conttains</text></g><!--link AgendaController to ToDoListRepository--><g id="link_AgendaController_ToDoListRepository"><path codeLine="114" d="M492,174.544 C492,196.408 492,213.856 492,231.112 " fill="none" id="AgendaController-to-ToDoListRepository" style="stroke:#181818;stroke-width:0.8000000000000002;stroke-dasharray:7.0,7.0;"/><polygon fill="#181818" points="492,235.912,495.2,228.712,492,231.912,488.8,228.712,492,235.912" style="stroke:#181818;stroke-width:0.8000000000000002;"/><text fill="#000000" font-family="sans-serif" font-size="10.4" lengthAdjust="spacing" textLength="89.6" x="492.8" y="208.8535">getToDoEntryLIst</text></g><!--link ToDoListRepository to ToDoEntry--><g id="link_ToDoListRepository_ToDoEntry"><path codeLine="115" d="M492,301.008 C492,318.592 492,336.296 492,357.36 " fill="none" id="ToDoListRepository-to-ToDoEntry" style="stroke:#181818;stroke-width:0.8000000000000002;"/><polygon fill="#181818" points="492,362.16,495.2,354.96,492,358.16,488.8,354.96,492,362.16" style="stroke:#181818;stroke-width:0.8000000000000002;"/><text fill="#000000" font-family="sans-serif" font-size="10.4" lengthAdjust="spacing" textLength="44" x="492.8" y="335.2535">contains</text><text fill="#000000" font-family="sans-serif" font-size="10.4" lengthAdjust="spacing" textLength="6.4" x="485.11" y="316.6064">1</text><text fill="#000000" font-family="sans-serif" font-size="10.4" lengthAdjust="spacing" textLength="5.6" x="486.1506" y="353.4885">*</text></g><!--link Repositories to AuthenticationRepository--><g id="link_Repositories_AuthenticationRepository"><path codeLine="116" d="M847.928,141.704 C861.432,174.856 876.6374,212.2026 887.2694,238.3066 " fill="none" id="Repositories-to-AuthenticationRepository" style="stroke:#181818;stroke-width:0.8000000000000002;"/><polygon fill="#181818" points="889.08,242.752,889.3277,234.8768,887.5712,239.0475,883.4005,237.2909,889.08,242.752" style="stroke:#181818;stroke-width:0.8000000000000002;"/><text fill="#000000" font-family="sans-serif" font-size="10.4" lengthAdjust="spacing" textLength="44" x="876" y="208.8535">contains</text><text fill="#000000" font-family="sans-serif" font-size="10.4" lengthAdjust="spacing" textLength="6.4" x="843.5547" y="158.0133">1</text><text fill="#000000" font-family="sans-serif" font-size="10.4" lengthAdjust="spacing" textLength="6.4" x="879.9328" y="233.8646">1</text></g><!--link AuthenticationRepository to UserSession--><g id="link_AuthenticationRepository_UserSession"><path codeLine="117" d="M984.12,268.4 C1049.816,268.4 1133.544,268.4 1187.168,268.4 " fill="none" id="AuthenticationRepository-to-UserSession" style="stroke:#181818;stroke-width:0.8000000000000002;"/><polygon fill="#181818" points="1191.968,268.4,1184.768,265.2,1187.968,268.4,1184.768,271.6,1191.968,268.4" style="stroke:#181818;stroke-width:0.8000000000000002;"/><text fill="#000000" font-family="sans-serif" font-size="10.4" lengthAdjust="spacing" textLength="44" x="1066" y="262.8535">contains</text></g><!--link UserSession to Email--><g id="link_UserSession_Email"><path codeLine="118" d="M1239.2,294.112 C1239.2,323.456 1239.2,367.136 1239.2,396.544 " fill="none" id="UserSession-to-Email" style="stroke:#181818;stroke-width:0.8000000000000002;"/><polygon fill="#181818" points="1239.2,401.344,1242.4,394.144,1239.2,397.344,1236,394.144,1239.2,401.344" style="stroke:#181818;stroke-width:0.8000000000000002;"/><text fill="#000000" font-family="sans-serif" font-size="10.4" lengthAdjust="spacing" textLength="44" x="1240" y="335.2535">contains</text><text fill="#000000" font-family="sans-serif" font-size="10.4" lengthAdjust="spacing" textLength="6.4" x="1232.14" y="310.2926">1</text><text fill="#000000" font-family="sans-serif" font-size="10.4" lengthAdjust="spacing" textLength="5.6" x="1233.0488" y="392.7129">*</text></g><!--link AgendaController to Repositories--><g id="link_AgendaController_Repositories"><path codeLine="119" d="M609.24,90 C649.448,90 689.128,90 727.36,90 " fill="none" id="AgendaController-to-Repositories" style="stroke:#181818;stroke-width:0.8000000000000002;stroke-dasharray:7.0,7.0;"/><polygon fill="#181818" points="732.16,90,724.96,86.8,728.16,90,724.96,93.2,732.16,90" style="stroke:#181818;stroke-width:0.8000000000000002;"/><text fill="#000000" font-family="sans-serif" font-size="10.4" lengthAdjust="spacing" textLength="61.6" x="640" y="84.4535">repositories</text></g><!--link Repositories to AgendaRepository--><g id="link_Repositories_AgendaRepository"><path codeLine="120" d="M887.32,141.784 C936.648,183.624 998.4,236 998.4,236 C998.4,236 998.4,300.8 998.4,300.8 C998.4,300.8 990.9833,340.9437 984.3193,377.0477 " fill="none" id="Repositories-to-AgendaRepository" style="stroke:#181818;stroke-width:0.8000000000000002;"/><polygon fill="#181818" points="983.448,381.768,987.9017,375.2684,984.174,377.8344,981.608,374.1068,983.448,381.768" style="stroke:#181818;stroke-width:0.8000000000000002;"/><text fill="#000000" font-family="sans-serif" font-size="10.4" lengthAdjust="spacing" textLength="6.4" x="974.2682" y="373.1506">1</text></g><!--link Repositories to Repositories--><g id="link_Repositories_Repositories"><path codeLine="121" d="M922.2,69.792 C938.608,72.52 950,79.256 950,90 C950,100.744 943.343,106.6928 926.935,109.4208 " fill="none" id="Repositories-to-Repositories" style="stroke:#181818;stroke-width:0.8000000000000002;"/><polygon fill="#181818" points="922.2,110.208,929.8273,112.1838,926.1458,109.552,928.7777,105.8705,922.2,110.208" style="stroke:#181818;stroke-width:0.8000000000000002;"/><text fill="#000000" font-family="sans-serif" font-size="10.4" lengthAdjust="spacing" textLength="44" x="954.8" y="93.6535">instance</text></g><!--link AgendaController to AgendaRepository--><g id="link_AgendaController_AgendaRepository"><path codeLine="122" d="M582.304,174.424 C617.16,206.696 648.8,236 648.8,236 C648.8,236 704.8,300.8 704.8,300.8 C704.8,300.8 797.3508,343.7857 875.1348,379.9217 " fill="none" id="AgendaController-to-AgendaRepository" style="stroke:#181818;stroke-width:0.8000000000000002;stroke-dasharray:7.0,7.0;"/><polygon fill="#181818" points="879.488,381.944,874.3065,376.0084,875.8604,380.2587,871.61,381.8126,879.488,381.944" style="stroke:#181818;stroke-width:0.8000000000000002;"/><text fill="#000000" font-family="sans-serif" font-size="10.4" lengthAdjust="spacing" textLength="94.4" x="705.6" y="272.0535">agendaRepository</text></g><!--link AgendaRepository to AgendaEntry--><g id="link_AgendaRepository_AgendaEntry"><path codeLine="124" d="M975.2,472.624 C975.2,496.2 975.2,521.12 975.2,548.8 " fill="none" id="AgendaRepository-to-AgendaEntry" style="stroke:#181818;stroke-width:0.8000000000000002;"/><polygon fill="#181818" points="975.2,553.6,978.4,546.4,975.2,549.6,972,546.4,975.2,553.6" style="stroke:#181818;stroke-width:0.8000000000000002;"/><text fill="#000000" font-family="sans-serif" font-size="10.4" lengthAdjust="spacing" textLength="44" x="976" y="526.4535">contains</text></g><!--link enum_Status to AgendaRepository--><g id="link_enum_Status_AgendaRepository"><path codeLine="126" d="M750.552,427.2 C760.768,427.2 770.728,427.2 778.344,427.2 " fill="none" id="enum_Status-AgendaRepository" style="stroke:#181818;stroke-width:0.8000000000000002;"/></g><!--SRC=[fLPBRziu4BxhLn2-EArhexswXO70zYuCf4bH9xq6Z3IrkQ59WQJQkaN_UuSKHOzCEJri3euqyytxfR5z5ghcXX_OGIjTxeq-07EcWUB4gNdvp7UmTKS9p43fkDf92h1xNkdlGktOLoujvKYXm1rhOBMMH_zIZ0UOsZXDX4h9hRrspeYdni6cr6ehVW9xMumbV7NCQMR4RkzO9RmpGgkY22BiUWUguWyRzgluNVI9IwsSqLA2GIR3lsbaV8PQM-6qEJ9-HeYuUxtIDy8wWdGPAM0dcR6hLr793bpBenIl-QGYSYQOuXtg1jCAh57NCKbPuARS_wFDNUqZlnBA1My2ggMT6GWSxomAVGPRQsN5auHa3M4No5tWg_kxJFPtbzxalm2RKak9LED6MMoU4XMmUGzqWlIoD7aXInxRk3qe9qhku-vXad-NCD7Ne6VP68EO1mjc2zRwl18DX4o5F7bJKU3wm8Maa41e4VrkpDoO-Zn_80LVn6vyeILISICqFBzXA-uumpGRXmFvY6_GDGIlAYfFdXdutmxtZKjHeTn569ckWU7ecY24b9nSfA5fGoBzTTPSMnnyN2NcHABb3Dvyv7NTJlA44dnlJBmTfw-6hFj7R3P4JIFgbCCqHCHOuk84_2BRe9NGJ_-XYbWW2XtMchhYBiZ5jg1HjIAj8JQz1ro53d_UHqA8w0liHIbXmRwr3xRZvcNlSU17ZRiIgaSqb7CDS9bnyZf4peJzZpOyzHVE4zNJ4nZ2WoU-02kvB1iP-hOQXhvXWywIYeDg3ezRnrtJBRDFDzUtj-jLU5vUtoxND_5bTNUxZaLrkitLrL3lf7bW_ne0jSLh2coN7jztt9Xk9vpCY1NOqeYmtHFBR_x6O1JbiQDvKbVeLMCunKTDDiHshhzNux2jYdHBPuligXNZ8hkgiuIBmpd7MwMgtWN2_6Ho7sQpsLy5_L1riX7bxT6XAtg7Q3fT3AocESDl2UUuK7OuW85jDk_VqGtkhm7KwDqes1oz7f7Aj_Q2kPvt2Ot_Bzud8dmHWpheTI8Yb4oTQsyKrPtbOT6_wNFi3dAeUxmO1HjbT-si79bE4Ry4Xkg07kHtSfv_deqpa7SdKnWg6FVcSW_byqFTQyP1-Qo0jDU6cjs0Quoo35SxmmrVq4sIVsiMVm00]--></g></svg>