<?xml version="1.0" encoding="us-ascii" standalone="no"?><svg xmlns="http://www.w3.org/2000/svg" xmlns:xlink="http://www.w3.org/1999/xlink" contentStyleType="text/css" height="637px" preserveAspectRatio="none" style="width:815px;height:637px;background:#FFFFFF;" version="1.1" viewBox="0 0 815 637" width="815px" zoomAndPan="magnify"><defs/><g><rect fill="#FFFFFF" height="514.0547" style="stroke:#181818;stroke-width:1.0;" width="10" x="87.5" y="62.5938"/><rect fill="#FFFFFF" height="468.9219" style="stroke:#181818;stroke-width:1.0;" width="10" x="92.5" y="91.7266"/><rect fill="#FFFFFF" height="410.6563" style="stroke:#181818;stroke-width:1.0;" width="10" x="376.5" y="149.9922"/><rect fill="#FFFFFF" height="28" style="stroke:#181818;stroke-width:1.0;" width="10" x="381.5" y="268.8516"/><rect fill="#FFFFFF" height="101.2656" style="stroke:#181818;stroke-width:1.0;" width="10" x="542.5" y="332.9844"/><rect fill="#FFFFFF" height="28" style="stroke:#181818;stroke-width:1.0;" width="10" x="547.5" y="370.1172"/><rect fill="#FFFFFF" height="30" style="stroke:#181818;stroke-width:1.0;" width="10" x="703.5" y="487.5156"/><rect fill="none" height="456.9219" style="stroke:#000000;stroke-width:1.5;" width="799.5" x="10" y="111.7266"/><rect fill="none" height="309.9297" style="stroke:#000000;stroke-width:1.5;" width="516.5" x="283" y="222.5859"/><rect fill="none" height="76.2656" style="stroke:#000000;stroke-width:1.5;" width="496.5" x="293" y="449.25"/><line style="stroke:#181818;stroke-width:0.5;stroke-dasharray:5.0,5.0;" x1="92" x2="92" y1="52.5938" y2="585.6484"/><line style="stroke:#181818;stroke-width:0.5;stroke-dasharray:5.0,5.0;" x1="381" x2="381" y1="52.5938" y2="585.6484"/><line style="stroke:#181818;stroke-width:0.5;stroke-dasharray:5.0,5.0;" x1="547.5" x2="547.5" y1="52.5938" y2="585.6484"/><line style="stroke:#181818;stroke-width:0.5;stroke-dasharray:5.0,5.0;" x1="708.5" x2="708.5" y1="196.7891" y2="585.6484"/><rect fill="#E3E3E3" height="30.2969" rx="2.5" ry="2.5" style="stroke:#181818;stroke-width:0.5;" width="145" x="20" y="21.2969"/><text fill="#000000" font-family="sans-serif" font-size="14" lengthAdjust="spacing" textLength="131" x="27" y="41.292">:AgendaController</text><rect fill="#E3E3E3" height="30.2969" rx="2.5" ry="2.5" style="stroke:#181818;stroke-width:0.5;" width="145" x="20" y="584.6484"/><text fill="#000000" font-family="sans-serif" font-size="14" lengthAdjust="spacing" textLength="131" x="27" y="604.6436">:AgendaController</text><rect fill="#E3E3E3" height="46.5938" rx="2.5" ry="2.5" style="stroke:#181818;stroke-width:0.5;" width="157" x="303" y="5"/><text fill="#000000" font-family="sans-serif" font-size="14" lengthAdjust="spacing" textLength="134" x="314.5" y="24.9951">toDoListRepository</text><text fill="#000000" font-family="sans-serif" font-size="14" lengthAdjust="spacing" textLength="143" x="310" y="41.292">:ToDoListRepository</text><rect fill="#E3E3E3" height="46.5938" rx="2.5" ry="2.5" style="stroke:#181818;stroke-width:0.5;" width="157" x="303" y="584.6484"/><text fill="#000000" font-family="sans-serif" font-size="14" lengthAdjust="spacing" textLength="134" x="314.5" y="604.6436">toDoListRepository</text><text fill="#000000" font-family="sans-serif" font-size="14" lengthAdjust="spacing" textLength="143" x="310" y="620.9404">:ToDoListRepository</text><rect fill="#E3E3E3" height="46.5938" rx="2.5" ry="2.5" style="stroke:#181818;stroke-width:0.5;" width="106" x="494.5" y="5"/><text fill="#000000" font-family="sans-serif" font-size="14" lengthAdjust="spacing" textLength="71" x="512" y="24.9951">toDoEntry</text><text fill="#000000" font-family="sans-serif" font-size="14" lengthAdjust="spacing" textLength="92" x="501.5" y="41.292">:ToDoEntry&gt;</text><rect fill="#E3E3E3" height="46.5938" rx="2.5" ry="2.5" style="stroke:#181818;stroke-width:0.5;" width="106" x="494.5" y="584.6484"/><text fill="#000000" font-family="sans-serif" font-size="14" lengthAdjust="spacing" textLength="71" x="512" y="604.6436">toDoEntry</text><text fill="#000000" font-family="sans-serif" font-size="14" lengthAdjust="spacing" textLength="92" x="501.5" y="620.9404">:ToDoEntry&gt;</text><rect fill="#E3E3E3" height="46.5938" rx="2.5" ry="2.5" style="stroke:#181818;stroke-width:0.5;" width="142" x="637.5" y="584.6484"/><text fill="#000000" font-family="sans-serif" font-size="14" lengthAdjust="spacing" textLength="95" x="661" y="604.6436">listToDoEntry</text><text fill="#000000" font-family="sans-serif" font-size="14" lengthAdjust="spacing" textLength="128" x="644.5" y="620.9404">:List&lt;ToDoEntry&gt;</text><rect fill="#FFFFFF" height="514.0547" style="stroke:#181818;stroke-width:1.0;" width="10" x="87.5" y="62.5938"/><rect fill="#FFFFFF" height="468.9219" style="stroke:#181818;stroke-width:1.0;" width="10" x="92.5" y="91.7266"/><rect fill="#FFFFFF" height="410.6563" style="stroke:#181818;stroke-width:1.0;" width="10" x="376.5" y="149.9922"/><rect fill="#FFFFFF" height="28" style="stroke:#181818;stroke-width:1.0;" width="10" x="381.5" y="268.8516"/><rect fill="#FFFFFF" height="101.2656" style="stroke:#181818;stroke-width:1.0;" width="10" x="542.5" y="332.9844"/><rect fill="#FFFFFF" height="28" style="stroke:#181818;stroke-width:1.0;" width="10" x="547.5" y="370.1172"/><rect fill="#FFFFFF" height="30" style="stroke:#181818;stroke-width:1.0;" width="10" x="703.5" y="487.5156"/><line style="stroke:#181818;stroke-width:1.0;" x1="97.5" x2="144.5" y1="78.7266" y2="78.7266"/><line style="stroke:#181818;stroke-width:1.0;" x1="144.5" x2="144.5" y1="78.7266" y2="91.7266"/><line style="stroke:#181818;stroke-width:1.0;" x1="103.5" x2="144.5" y1="91.7266" y2="91.7266"/><polygon fill="#181818" points="113.5,87.7266,103.5,91.7266,113.5,95.7266,109.5,91.7266" style="stroke:#181818;stroke-width:1.0;"/><text fill="#000000" font-family="sans-serif" font-size="13" font-weight="bold" lengthAdjust="spacing" textLength="23" x="109.5" y="73.6606">3.1</text><text fill="#000000" font-family="sans-serif" font-size="13" lengthAdjust="spacing" textLength="221" x="136.5" y="73.6606">getToDoEntryListForResponsible()</text><path d="M10,111.7266 L277,111.7266 L277,118.8594 L267,128.8594 L10,128.8594 L10,111.7266 " fill="#EEEEEE" style="stroke:#000000;stroke-width:1.5;"/><rect fill="none" height="456.9219" style="stroke:#000000;stroke-width:1.5;" width="799.5" x="10" y="111.7266"/><text fill="#000000" font-family="sans-serif" font-size="13" font-weight="bold" lengthAdjust="spacing" textLength="222" x="25" y="124.7935">Get ToDo List For Responsible</text><polygon fill="#181818" points="364.5,145.9922,374.5,149.9922,364.5,153.9922,368.5,149.9922" style="stroke:#181818;stroke-width:1.0;"/><line style="stroke:#181818;stroke-width:1.0;" x1="102.5" x2="370.5" y1="149.9922" y2="149.9922"/><text fill="#000000" font-family="sans-serif" font-size="13" font-weight="bold" lengthAdjust="spacing" textLength="23" x="109.5" y="144.9263">3.2</text><text fill="#000000" font-family="sans-serif" font-size="13" lengthAdjust="spacing" textLength="228" x="136.5" y="144.9263">getToDoListForResponsible( email)</text><polygon fill="#181818" points="625.5,175.125,635.5,179.125,625.5,183.125,629.5,179.125" style="stroke:#181818;stroke-width:1.0;"/><line style="stroke:#181818;stroke-width:1.0;" x1="386.5" x2="631.5" y1="179.125" y2="179.125"/><text fill="#000000" font-family="sans-serif" font-size="13" font-weight="bold" lengthAdjust="spacing" textLength="23" x="393.5" y="174.0591">3.3</text><text fill="#000000" font-family="sans-serif" font-size="13" lengthAdjust="spacing" textLength="41" x="420.5" y="174.0591">create</text><rect fill="#E3E3E3" height="46.5938" rx="2.5" ry="2.5" style="stroke:#181818;stroke-width:0.5;" width="142" x="637.5" y="157.9922"/><text fill="#000000" font-family="sans-serif" font-size="14" lengthAdjust="spacing" textLength="95" x="661" y="177.9873">listToDoEntry</text><text fill="#000000" font-family="sans-serif" font-size="14" lengthAdjust="spacing" textLength="128" x="644.5" y="194.2842">:List&lt;ToDoEntry&gt;</text><path d="M283,222.5859 L364,222.5859 L364,229.7188 L354,239.7188 L283,239.7188 L283,222.5859 " fill="#EEEEEE" style="stroke:#000000;stroke-width:1.5;"/><rect fill="none" height="309.9297" style="stroke:#000000;stroke-width:1.5;" width="516.5" x="283" y="222.5859"/><text fill="#000000" font-family="sans-serif" font-size="13" font-weight="bold" lengthAdjust="spacing" textLength="31" x="298" y="235.6528">loop</text><text fill="#000000" font-family="sans-serif" font-size="11" font-weight="bold" lengthAdjust="spacing" textLength="268" x="379" y="234.7964">[for each object in the toDoListRepository]</text><line style="stroke:#181818;stroke-width:1.0;" x1="391.5" x2="433.5" y1="260.8516" y2="260.8516"/><line style="stroke:#181818;stroke-width:1.0;" x1="433.5" x2="433.5" y1="260.8516" y2="273.8516"/><line style="stroke:#181818;stroke-width:1.0;" x1="392.5" x2="433.5" y1="273.8516" y2="273.8516"/><polygon fill="#181818" points="402.5,269.8516,392.5,273.8516,402.5,277.8516,398.5,273.8516" style="stroke:#181818;stroke-width:1.0;"/><text fill="#000000" font-family="sans-serif" font-size="13" font-weight="bold" lengthAdjust="spacing" textLength="23" x="398.5" y="255.7856">3.4</text><text fill="#000000" font-family="sans-serif" font-size="13" lengthAdjust="spacing" textLength="74" x="425.5" y="255.7856">obj = get(i)</text><polygon fill="#181818" points="530.5,328.9844,540.5,332.9844,530.5,336.9844,534.5,332.9844" style="stroke:#181818;stroke-width:1.0;"/><line style="stroke:#181818;stroke-width:1.0;" x1="386.5" x2="536.5" y1="332.9844" y2="332.9844"/><text fill="#000000" font-family="sans-serif" font-size="13" font-weight="bold" lengthAdjust="spacing" textLength="23" x="393.5" y="327.9185">3.5</text><text fill="#000000" font-family="sans-serif" font-size="13" lengthAdjust="spacing" textLength="110" x="420.5" y="327.9185">getResponsible()</text><line style="stroke:#181818;stroke-width:1.0;" x1="557.5" x2="599.5" y1="362.1172" y2="362.1172"/><line style="stroke:#181818;stroke-width:1.0;" x1="599.5" x2="599.5" y1="362.1172" y2="375.1172"/><line style="stroke:#181818;stroke-width:1.0;" x1="558.5" x2="599.5" y1="375.1172" y2="375.1172"/><polygon fill="#181818" points="568.5,371.1172,558.5,375.1172,568.5,379.1172,564.5,375.1172" style="stroke:#181818;stroke-width:1.0;"/><text fill="#000000" font-family="sans-serif" font-size="13" font-weight="bold" lengthAdjust="spacing" textLength="23" x="564.5" y="357.0513">3.6</text><text fill="#000000" font-family="sans-serif" font-size="13" lengthAdjust="spacing" textLength="110" x="591.5" y="357.0513">getResponsible()</text><polygon fill="#181818" points="397.5,430.25,387.5,434.25,397.5,438.25,393.5,434.25" style="stroke:#181818;stroke-width:1.0;"/><line style="stroke:#181818;stroke-width:1.0;stroke-dasharray:2.0,2.0;" x1="391.5" x2="546.5" y1="434.25" y2="434.25"/><text fill="#000000" font-family="sans-serif" font-size="13" font-weight="bold" lengthAdjust="spacing" textLength="23" x="403.5" y="429.1841">3.7</text><text fill="#000000" font-family="sans-serif" font-size="13" lengthAdjust="spacing" textLength="99" x="430.5" y="429.1841">objResponsible</text><path d="M293,449.25 L353,449.25 L353,456.3828 L343,466.3828 L293,466.3828 L293,449.25 " fill="#EEEEEE" style="stroke:#000000;stroke-width:1.5;"/><rect fill="none" height="76.2656" style="stroke:#000000;stroke-width:1.5;" width="496.5" x="293" y="449.25"/><text fill="#000000" font-family="sans-serif" font-size="13" font-weight="bold" lengthAdjust="spacing" textLength="10" x="308" y="462.3169">if</text><text fill="#000000" font-family="sans-serif" font-size="11" font-weight="bold" lengthAdjust="spacing" textLength="205" x="368" y="461.4604">[objResponsible == responsible]</text><polygon fill="#181818" points="691.5,483.5156,701.5,487.5156,691.5,491.5156,695.5,487.5156" style="stroke:#181818;stroke-width:1.0;"/><line style="stroke:#181818;stroke-width:1.0;" x1="386.5" x2="697.5" y1="487.5156" y2="487.5156"/><text fill="#000000" font-family="sans-serif" font-size="13" font-weight="bold" lengthAdjust="spacing" textLength="23" x="393.5" y="482.4497">3.8</text><text fill="#000000" font-family="sans-serif" font-size="13" lengthAdjust="spacing" textLength="54" x="420.5" y="482.4497">add(obj)</text><polygon fill="#181818" points="108.5,556.6484,98.5,560.6484,108.5,564.6484,104.5,560.6484" style="stroke:#181818;stroke-width:1.0;"/><line style="stroke:#181818;stroke-width:1.0;stroke-dasharray:2.0,2.0;" x1="102.5" x2="380.5" y1="560.6484" y2="560.6484"/><text fill="#000000" font-family="sans-serif" font-size="13" font-weight="bold" lengthAdjust="spacing" textLength="23" x="114.5" y="555.5825">3.9</text><text fill="#000000" font-family="sans-serif" font-size="13" lengthAdjust="spacing" textLength="184" x="141.5" y="555.5825">listToDoEntryByResponsible</text><!--SRC=[hLKzJyCm4DtzAquij4WW8HPKqKfyBvrADs1masjYwlWYsmNwxx4JcYPDAARKInBdtRrtBtUnMGYLSyqpo4XHb6hA4AnU8ZFLcvn72vxWarr918sHvIgHTO19UKmVGYKmvz8WOtnfIIsp6Mh6ZbCH8yo9x8m-6MCkn8f8v5nPE1fS9wXYValAQf8IzH5m0xVJoRY9itH7Os7i17Comf9UlQZ1jBLPHBUnxLptZc-TehWV5Q69HbHDj7IPfhK8d_bgAsoDOVNAuRBnT75spe17LhnpYsM5K5j-0qv7vNK02Mv8FUC3wGcQd9GHCuczVX6RQ5hcy8WMF1Oy3XmGQiW2rsHjq5QyRTCg4HtyW1aNijzCjRKgrexliJFmUxN3lCwrrISdpgL8eoC8ILPQ9OboU9uxYv17AT3ipJKp20KsxPBv6gHpXzYEtG5uMXXwStkY7qomoytG737-zvliBhUOdh9vsytwrphBKOG_hbB2WRGSGb3DypB1lYNzr4wkcxRdVLzfuOhyC8avF3V9OJXqnqFr-7g0bbgFkokKnt7FyUtNJPi_z7u6LV6XiUvK2-8AmdLvipah6YVKpIgq6txx6zJULwULL_i5]--></g></svg>