<?xml version="1.0" encoding="us-ascii" standalone="no"?><svg xmlns="http://www.w3.org/2000/svg" xmlns:xlink="http://www.w3.org/1999/xlink" contentStyleType="text/css" height="620px" preserveAspectRatio="none" style="width:1013px;height:620px;background:#FFFFFF;" version="1.1" viewBox="0 0 1013 620" width="1013px" zoomAndPan="magnify"><defs/><g><rect fill="#FFFFFF" height="496.8438" style="stroke:#181818;stroke-width:1.0;" width="10" x="87.5" y="62.5938"/><rect fill="#FFFFFF" height="451.7109" style="stroke:#181818;stroke-width:1.0;" width="10" x="92.5" y="91.7266"/><rect fill="#FFFFFF" height="335.8516" style="stroke:#181818;stroke-width:1.0;" width="10" x="423.5" y="207.5859"/><rect fill="#FFFFFF" height="34.1328" style="stroke:#181818;stroke-width:1.0;" width="10" x="428.5" y="385.5781"/><rect fill="#FFFFFF" height="30" style="stroke:#181818;stroke-width:1.0;" width="10" x="609" y="477.3047"/><rect fill="#FFFFFF" height="30" style="stroke:#181818;stroke-width:1.0;" width="10" x="911.5" y="318.4453"/><rect fill="none" height="439.7109" style="stroke:#000000;stroke-width:1.5;" width="997.5" x="10" y="111.7266"/><rect fill="none" height="235.125" style="stroke:#000000;stroke-width:1.5;" width="643" x="354.5" y="280.1797"/><line style="stroke:#181818;stroke-width:0.5;stroke-dasharray:5.0,5.0;" x1="92" x2="92" y1="52.5938" y2="568.4375"/><line style="stroke:#181818;stroke-width:0.5;stroke-dasharray:5.0,5.0;" x1="428.5" x2="428.5" y1="167.6563" y2="568.4375"/><line style="stroke:#181818;stroke-width:0.5;stroke-dasharray:5.0,5.0;" x1="613.5" x2="613.5" y1="254.3828" y2="568.4375"/><line style="stroke:#181818;stroke-width:0.5;stroke-dasharray:5.0,5.0;" x1="773.5" x2="773.5" y1="437.375" y2="568.4375"/><line style="stroke:#181818;stroke-width:0.5;stroke-dasharray:5.0,5.0;" x1="916.5" x2="916.5" y1="52.5938" y2="568.4375"/><rect fill="#E3E3E3" height="30.2969" rx="2.5" ry="2.5" style="stroke:#181818;stroke-width:0.5;" width="145" x="20" y="21.2969"/><text fill="#000000" font-family="sans-serif" font-size="14" lengthAdjust="spacing" textLength="131" x="27" y="41.292">:AgendaController</text><rect fill="#E3E3E3" height="30.2969" rx="2.5" ry="2.5" style="stroke:#181818;stroke-width:0.5;" width="145" x="20" y="567.4375"/><text fill="#000000" font-family="sans-serif" font-size="14" lengthAdjust="spacing" textLength="131" x="27" y="587.4326">:AgendaController</text><rect fill="#E3E3E3" height="46.5938" rx="2.5" ry="2.5" style="stroke:#181818;stroke-width:0.5;" width="128" x="364.5" y="567.4375"/><text fill="#000000" font-family="sans-serif" font-size="14" lengthAdjust="spacing" textLength="108" x="374.5" y="587.4326">agendaMapper</text><text fill="#000000" font-family="sans-serif" font-size="14" lengthAdjust="spacing" textLength="114" x="371.5" y="603.7295">:AgendaMapper</text><rect fill="#E3E3E3" height="46.5938" rx="2.5" ry="2.5" style="stroke:#181818;stroke-width:0.5;" width="177" x="525.5" y="567.4375"/><text fill="#000000" font-family="sans-serif" font-size="14" lengthAdjust="spacing" textLength="126" x="551" y="587.4326">listToDoEntryDTO</text><text fill="#000000" font-family="sans-serif" font-size="14" lengthAdjust="spacing" textLength="163" x="532.5" y="603.7295">: List&lt;ToDoEntryDTO&gt;</text><rect fill="#E3E3E3" height="46.5938" rx="2.5" ry="2.5" style="stroke:#181818;stroke-width:0.5;" width="123" x="712.5" y="567.4375"/><text fill="#000000" font-family="sans-serif" font-size="14" lengthAdjust="spacing" textLength="47" x="750.5" y="587.4326">objDto</text><text fill="#000000" font-family="sans-serif" font-size="14" lengthAdjust="spacing" textLength="109" x="719.5" y="603.7295">: ToDoEntryDto</text><rect fill="#E3E3E3" height="46.5938" rx="2.5" ry="2.5" style="stroke:#181818;stroke-width:0.5;" width="142" x="845.5" y="5"/><text fill="#000000" font-family="sans-serif" font-size="14" lengthAdjust="spacing" textLength="95" x="869" y="24.9951">listToDoEntry</text><text fill="#000000" font-family="sans-serif" font-size="14" lengthAdjust="spacing" textLength="128" x="852.5" y="41.292">:List&lt;ToDoEntry&gt;</text><rect fill="#E3E3E3" height="46.5938" rx="2.5" ry="2.5" style="stroke:#181818;stroke-width:0.5;" width="142" x="845.5" y="567.4375"/><text fill="#000000" font-family="sans-serif" font-size="14" lengthAdjust="spacing" textLength="95" x="869" y="587.4326">listToDoEntry</text><text fill="#000000" font-family="sans-serif" font-size="14" lengthAdjust="spacing" textLength="128" x="852.5" y="603.7295">:List&lt;ToDoEntry&gt;</text><rect fill="#FFFFFF" height="496.8438" style="stroke:#181818;stroke-width:1.0;" width="10" x="87.5" y="62.5938"/><rect fill="#FFFFFF" height="451.7109" style="stroke:#181818;stroke-width:1.0;" width="10" x="92.5" y="91.7266"/><rect fill="#FFFFFF" height="335.8516" style="stroke:#181818;stroke-width:1.0;" width="10" x="423.5" y="207.5859"/><rect fill="#FFFFFF" height="34.1328" style="stroke:#181818;stroke-width:1.0;" width="10" x="428.5" y="385.5781"/><rect fill="#FFFFFF" height="30" style="stroke:#181818;stroke-width:1.0;" width="10" x="609" y="477.3047"/><rect fill="#FFFFFF" height="30" style="stroke:#181818;stroke-width:1.0;" width="10" x="911.5" y="318.4453"/><line style="stroke:#181818;stroke-width:1.0;" x1="97.5" x2="144.5" y1="78.7266" y2="78.7266"/><line style="stroke:#181818;stroke-width:1.0;" x1="144.5" x2="144.5" y1="78.7266" y2="91.7266"/><line style="stroke:#181818;stroke-width:1.0;" x1="103.5" x2="144.5" y1="91.7266" y2="91.7266"/><polygon fill="#181818" points="113.5,87.7266,103.5,91.7266,113.5,95.7266,109.5,91.7266" style="stroke:#181818;stroke-width:1.0;"/><text fill="#000000" font-family="sans-serif" font-size="13" font-weight="bold" lengthAdjust="spacing" textLength="23" x="109.5" y="73.6606">3.1</text><text fill="#000000" font-family="sans-serif" font-size="13" lengthAdjust="spacing" textLength="215" x="136.5" y="73.6606">getToDoListDTOForResponsible()</text><path d="M10,111.7266 L310,111.7266 L310,118.8594 L300,128.8594 L10,128.8594 L10,111.7266 " fill="#EEEEEE" style="stroke:#000000;stroke-width:1.5;"/><rect fill="none" height="439.7109" style="stroke:#000000;stroke-width:1.5;" width="997.5" x="10" y="111.7266"/><text fill="#000000" font-family="sans-serif" font-size="13" font-weight="bold" lengthAdjust="spacing" textLength="255" x="25" y="124.7935">Get ToDo List DTO for Responsible</text><polygon fill="#181818" points="352.5,145.9922,362.5,149.9922,352.5,153.9922,356.5,149.9922" style="stroke:#181818;stroke-width:1.0;"/><line style="stroke:#181818;stroke-width:1.0;" x1="102.5" x2="358.5" y1="149.9922" y2="149.9922"/><text fill="#000000" font-family="sans-serif" font-size="13" font-weight="bold" lengthAdjust="spacing" textLength="23" x="109.5" y="144.9263">3.2</text><text fill="#000000" font-family="sans-serif" font-size="13" lengthAdjust="spacing" textLength="41" x="136.5" y="144.9263">create</text><rect fill="#E3E3E3" height="46.5938" rx="2.5" ry="2.5" style="stroke:#181818;stroke-width:0.5;" width="128" x="364.5" y="128.8594"/><text fill="#000000" font-family="sans-serif" font-size="14" lengthAdjust="spacing" textLength="108" x="374.5" y="148.8545">agendaMapper</text><text fill="#000000" font-family="sans-serif" font-size="14" lengthAdjust="spacing" textLength="114" x="371.5" y="165.1514">:AgendaMapper</text><polygon fill="#181818" points="411.5,203.5859,421.5,207.5859,411.5,211.5859,415.5,207.5859" style="stroke:#181818;stroke-width:1.0;"/><line style="stroke:#181818;stroke-width:1.0;" x1="102.5" x2="417.5" y1="207.5859" y2="207.5859"/><text fill="#000000" font-family="sans-serif" font-size="13" font-weight="bold" lengthAdjust="spacing" textLength="23" x="109.5" y="202.52">3.3</text><text fill="#000000" font-family="sans-serif" font-size="13" lengthAdjust="spacing" textLength="275" x="136.5" y="202.52">toDto( getToDoEntryListForResponsible() )</text><polygon fill="#181818" points="513.5,232.7188,523.5,236.7188,513.5,240.7188,517.5,236.7188" style="stroke:#181818;stroke-width:1.0;"/><line style="stroke:#181818;stroke-width:1.0;" x1="433.5" x2="519.5" y1="236.7188" y2="236.7188"/><text fill="#000000" font-family="sans-serif" font-size="13" font-weight="bold" lengthAdjust="spacing" textLength="23" x="440.5" y="231.6528">3.4</text><text fill="#000000" font-family="sans-serif" font-size="13" lengthAdjust="spacing" textLength="41" x="467.5" y="231.6528">create</text><rect fill="#E3E3E3" height="46.5938" rx="2.5" ry="2.5" style="stroke:#181818;stroke-width:0.5;" width="177" x="525.5" y="215.5859"/><text fill="#000000" font-family="sans-serif" font-size="14" lengthAdjust="spacing" textLength="126" x="551" y="235.5811">listToDoEntryDTO</text><text fill="#000000" font-family="sans-serif" font-size="14" lengthAdjust="spacing" textLength="163" x="532.5" y="251.8779">: List&lt;ToDoEntryDTO&gt;</text><path d="M354.5,280.1797 L435.5,280.1797 L435.5,287.3125 L425.5,297.3125 L354.5,297.3125 L354.5,280.1797 " fill="#EEEEEE" style="stroke:#000000;stroke-width:1.5;"/><rect fill="none" height="235.125" style="stroke:#000000;stroke-width:1.5;" width="643" x="354.5" y="280.1797"/><text fill="#000000" font-family="sans-serif" font-size="13" font-weight="bold" lengthAdjust="spacing" textLength="31" x="369.5" y="293.2466">loop</text><text fill="#000000" font-family="sans-serif" font-size="11" font-weight="bold" lengthAdjust="spacing" textLength="210" x="450.5" y="292.3901">[for each object in listToDoEntry]</text><polygon fill="#181818" points="899.5,314.4453,909.5,318.4453,899.5,322.4453,903.5,318.4453" style="stroke:#181818;stroke-width:1.0;"/><line style="stroke:#181818;stroke-width:1.0;" x1="433.5" x2="905.5" y1="318.4453" y2="318.4453"/><text fill="#000000" font-family="sans-serif" font-size="13" font-weight="bold" lengthAdjust="spacing" textLength="23" x="440.5" y="313.3794">3.5</text><text fill="#000000" font-family="sans-serif" font-size="13" lengthAdjust="spacing" textLength="74" x="467.5" y="313.3794">obj = get(i)</text><line style="stroke:#181818;stroke-width:1.0;" x1="433.5" x2="480.5" y1="372.5781" y2="372.5781"/><line style="stroke:#181818;stroke-width:1.0;" x1="480.5" x2="480.5" y1="372.5781" y2="385.5781"/><line style="stroke:#181818;stroke-width:1.0;" x1="439.5" x2="480.5" y1="385.5781" y2="385.5781"/><polygon fill="#181818" points="449.5,381.5781,439.5,385.5781,449.5,389.5781,445.5,385.5781" style="stroke:#181818;stroke-width:1.0;"/><text fill="#000000" font-family="sans-serif" font-size="13" font-weight="bold" lengthAdjust="spacing" textLength="23" x="445.5" y="367.5122">3.6</text><text fill="#000000" font-family="sans-serif" font-size="13" lengthAdjust="spacing" textLength="133" x="472.5" y="367.5122">objDto = toDTO(obj)</text><polygon fill="#181818" points="700.5,415.7109,710.5,419.7109,700.5,423.7109,704.5,419.7109" style="stroke:#181818;stroke-width:1.0;"/><line style="stroke:#181818;stroke-width:1.0;stroke-dasharray:2.0,2.0;" x1="433.5" x2="706.5" y1="419.7109" y2="419.7109"/><text fill="#000000" font-family="sans-serif" font-size="13" font-weight="bold" lengthAdjust="spacing" textLength="23" x="440.5" y="414.645">3.7</text><text fill="#000000" font-family="sans-serif" font-size="13" lengthAdjust="spacing" textLength="71" x="467.5" y="414.645">create(obj)</text><rect fill="#E3E3E3" height="46.5938" rx="2.5" ry="2.5" style="stroke:#181818;stroke-width:0.5;" width="123" x="712.5" y="398.5781"/><text fill="#000000" font-family="sans-serif" font-size="14" lengthAdjust="spacing" textLength="47" x="750.5" y="418.5732">objDto</text><text fill="#000000" font-family="sans-serif" font-size="14" lengthAdjust="spacing" textLength="109" x="719.5" y="434.8701">: ToDoEntryDto</text><polygon fill="#181818" points="597,473.3047,607,477.3047,597,481.3047,601,477.3047" style="stroke:#181818;stroke-width:1.0;"/><line style="stroke:#181818;stroke-width:1.0;" x1="433.5" x2="603" y1="477.3047" y2="477.3047"/><text fill="#000000" font-family="sans-serif" font-size="13" font-weight="bold" lengthAdjust="spacing" textLength="23" x="440.5" y="472.2388">3.8</text><text fill="#000000" font-family="sans-serif" font-size="13" lengthAdjust="spacing" textLength="77" x="467.5" y="472.2388">add(objDto)</text><polygon fill="#181818" points="108.5,539.4375,98.5,543.4375,108.5,547.4375,104.5,543.4375" style="stroke:#181818;stroke-width:1.0;"/><line style="stroke:#181818;stroke-width:1.0;stroke-dasharray:2.0,2.0;" x1="102.5" x2="427.5" y1="543.4375" y2="543.4375"/><text fill="#000000" font-family="sans-serif" font-size="13" font-weight="bold" lengthAdjust="spacing" textLength="23" x="114.5" y="538.3716">3.9</text><text fill="#000000" font-family="sans-serif" font-size="13" lengthAdjust="spacing" textLength="111" x="141.5" y="538.3716">listToDoEntryDto</text><!--SRC=[ZLHDJ-Cm4BtxLuoua2A1XFQ2gWK9qLqkNI51Rmk7QJAaXiGJEIwx_7l6TaXZGZzyIMo_Ds_cZUtsLPi6BTPGi-5yPRacS7PDgkrt6inViQG7zruHMCeTch8Q0jeL5lnFcnAUiMf9ALmxDkjwILQfuvKk29wPtPB_AwM4udIk6pGEZgRN9Pa2RzWuorL5zWYmXPl5_Jp5OO3zmQOX-sWwLfm6HXr-KqwbMxVW6V-IsE-pnPtmO2vhFuUBLu7keJ99-RnycJdsh0t1SS37hHromagbDZf-IGqjWejazkFiN07cJh-XesW538PVWDEh-9r2II7WF1Rmc-qzjGsRLYyhoYQ1MLfUDt1BBjGHB031Iaii3D1H9HLEb8VgqU-J4yaWjoJuFKZ1EHRBii-4Woa-bQyfmsGKgi-fw_88u4Ud8ufTCtSbjx6bOcxWhxU2C5_vnihv1cqWQUVJjn76ifumzK7WqXUQwSbMObzKVoQs8GiQOm_8fpS-7bR9I3gmkCjaUa1Mkwp-gYLYKMDW-MwPGKdxX4Pz5GaiYYmg7kYllzi7shiDAW-EscD2ToNJTyUD6pkk_llD_kvxxGy0]--></g></svg>