<?xml version="1.0" encoding="us-ascii" standalone="no"?><svg xmlns="http://www.w3.org/2000/svg" xmlns:xlink="http://www.w3.org/1999/xlink" contentStyleType="text/css" height="646px" preserveAspectRatio="none" style="width:1272px;height:646px;background:#FFFFFF;" version="1.1" viewBox="0 0 1272 646" width="1272px" zoomAndPan="magnify"><defs/><g><rect fill="#FFFFFF" height="501.9219" style="stroke:#181818;stroke-width:1.0;" width="10" x="393" y="83.7266"/><rect fill="#FFFFFF" height="99.2656" style="stroke:#181818;stroke-width:1.0;" width="10" x="398" y="144.9922"/><rect fill="#FFFFFF" height="30" style="stroke:#181818;stroke-width:1.0;" width="10" x="668" y="510.5156"/><rect fill="#FFFFFF" height="30" style="stroke:#181818;stroke-width:1.0;" width="10" x="827.5" y="179.125"/><rect fill="#FFFFFF" height="200.9922" style="stroke:#181818;stroke-width:1.0;" width="10" x="945.5" y="280.3906"/><rect fill="#FFFFFF" height="70.1328" style="stroke:#181818;stroke-width:1.0;" width="10" x="950.5" y="375.1172"/><rect fill="#FFFFFF" height="28" style="stroke:#181818;stroke-width:1.0;" width="10" x="955.5" y="417.25"/><rect fill="none" height="449.7891" style="stroke:#000000;stroke-width:1.5;" width="950.5" x="315.5" y="98.7266"/><line style="stroke:#181818;stroke-width:0.5;stroke-dasharray:5.0,5.0;" x1="397.5" x2="397.5" y1="52.5938" y2="594.6484"/><line style="stroke:#181818;stroke-width:0.5;stroke-dasharray:5.0,5.0;" x1="672.5" x2="672.5" y1="52.5938" y2="594.6484"/><line style="stroke:#181818;stroke-width:0.5;stroke-dasharray:5.0,5.0;" x1="832.5" x2="832.5" y1="52.5938" y2="594.6484"/><line style="stroke:#181818;stroke-width:0.5;stroke-dasharray:5.0,5.0;" x1="950.5" x2="950.5" y1="52.5938" y2="594.6484"/><line style="stroke:#181818;stroke-width:0.5;stroke-dasharray:5.0,5.0;" x1="1200" x2="1200" y1="327.1875" y2="594.6484"/><rect fill="#E3E3E3" height="30.2969" rx="2.5" ry="2.5" style="stroke:#181818;stroke-width:0.5;" width="145" x="325.5" y="21.2969"/><text fill="#000000" font-family="sans-serif" font-size="14" lengthAdjust="spacing" textLength="131" x="332.5" y="41.292">:AgendaController</text><rect fill="#E3E3E3" height="30.2969" rx="2.5" ry="2.5" style="stroke:#181818;stroke-width:0.5;" width="145" x="325.5" y="593.6484"/><text fill="#000000" font-family="sans-serif" font-size="14" lengthAdjust="spacing" textLength="131" x="332.5" y="613.6436">:AgendaController</text><rect fill="#E3E3E3" height="46.5938" rx="2.5" ry="2.5" style="stroke:#181818;stroke-width:0.5;" width="157" x="594.5" y="5"/><text fill="#000000" font-family="sans-serif" font-size="14" lengthAdjust="spacing" textLength="134" x="606" y="24.9951">toDoListRepository</text><text fill="#000000" font-family="sans-serif" font-size="14" lengthAdjust="spacing" textLength="143" x="601.5" y="41.292">:ToDoListRepository</text><rect fill="#E3E3E3" height="46.5938" rx="2.5" ry="2.5" style="stroke:#181818;stroke-width:0.5;" width="157" x="594.5" y="593.6484"/><text fill="#000000" font-family="sans-serif" font-size="14" lengthAdjust="spacing" textLength="134" x="606" y="613.6436">toDoListRepository</text><text fill="#000000" font-family="sans-serif" font-size="14" lengthAdjust="spacing" textLength="143" x="601.5" y="629.9404">:ToDoListRepository</text><rect fill="#E3E3E3" height="46.5938" rx="2.5" ry="2.5" style="stroke:#181818;stroke-width:0.5;" width="142" x="761.5" y="5"/><text fill="#000000" font-family="sans-serif" font-size="14" lengthAdjust="spacing" textLength="95" x="785" y="24.9951">listToDoEntry</text><text fill="#000000" font-family="sans-serif" font-size="14" lengthAdjust="spacing" textLength="128" x="768.5" y="41.292">:List&lt;ToDoEntry&gt;</text><rect fill="#E3E3E3" height="46.5938" rx="2.5" ry="2.5" style="stroke:#181818;stroke-width:0.5;" width="142" x="761.5" y="593.6484"/><text fill="#000000" font-family="sans-serif" font-size="14" lengthAdjust="spacing" textLength="95" x="785" y="613.6436">listToDoEntry</text><text fill="#000000" font-family="sans-serif" font-size="14" lengthAdjust="spacing" textLength="128" x="768.5" y="629.9404">:List&lt;ToDoEntry&gt;</text><rect fill="#E3E3E3" height="46.5938" rx="2.5" ry="2.5" style="stroke:#181818;stroke-width:0.5;" width="74" x="913.5" y="5"/><text fill="#000000" font-family="sans-serif" font-size="14" lengthAdjust="spacing" textLength="54" x="923.5" y="24.9951">agenda</text><text fill="#000000" font-family="sans-serif" font-size="14" lengthAdjust="spacing" textLength="60" x="920.5" y="41.292">:Agenda</text><rect fill="#E3E3E3" height="46.5938" rx="2.5" ry="2.5" style="stroke:#181818;stroke-width:0.5;" width="74" x="913.5" y="593.6484"/><text fill="#000000" font-family="sans-serif" font-size="14" lengthAdjust="spacing" textLength="54" x="923.5" y="613.6436">agenda</text><text fill="#000000" font-family="sans-serif" font-size="14" lengthAdjust="spacing" textLength="60" x="920.5" y="629.9404">:Agenda</text><rect fill="#E3E3E3" height="46.5938" rx="2.5" ry="2.5" style="stroke:#181818;stroke-width:0.5;" width="111" x="1145" y="593.6484"/><text fill="#000000" font-family="sans-serif" font-size="14" lengthAdjust="spacing" textLength="91" x="1155" y="613.6436">agendaEntry</text><text fill="#000000" font-family="sans-serif" font-size="14" lengthAdjust="spacing" textLength="97" x="1152" y="629.9404">:AgendaEntry</text><rect fill="#FFFFFF" height="501.9219" style="stroke:#181818;stroke-width:1.0;" width="10" x="393" y="83.7266"/><rect fill="#FFFFFF" height="99.2656" style="stroke:#181818;stroke-width:1.0;" width="10" x="398" y="144.9922"/><rect fill="#FFFFFF" height="30" style="stroke:#181818;stroke-width:1.0;" width="10" x="668" y="510.5156"/><rect fill="#FFFFFF" height="30" style="stroke:#181818;stroke-width:1.0;" width="10" x="827.5" y="179.125"/><rect fill="#FFFFFF" height="200.9922" style="stroke:#181818;stroke-width:1.0;" width="10" x="945.5" y="280.3906"/><rect fill="#FFFFFF" height="70.1328" style="stroke:#181818;stroke-width:1.0;" width="10" x="950.5" y="375.1172"/><rect fill="#FFFFFF" height="28" style="stroke:#181818;stroke-width:1.0;" width="10" x="955.5" y="417.25"/><polygon fill="#181818" points="381,79.7266,391,83.7266,381,87.7266,385,83.7266" style="stroke:#181818;stroke-width:1.0;"/><line style="stroke:#181818;stroke-width:1.0;" x1="0" x2="387" y1="83.7266" y2="83.7266"/><text fill="#000000" font-family="sans-serif" font-size="13" font-weight="bold" lengthAdjust="spacing" textLength="23" x="7" y="78.6606">3.1</text><text fill="#000000" font-family="sans-serif" font-size="13" lengthAdjust="spacing" textLength="347" x="34" y="78.6606">registerAgendaEntry(toDoEntryOption, starting_Date)</text><path d="M315.5,98.7266 L524.5,98.7266 L524.5,105.8594 L514.5,115.8594 L315.5,115.8594 L315.5,98.7266 " fill="#EEEEEE" style="stroke:#000000;stroke-width:1.5;"/><rect fill="none" height="449.7891" style="stroke:#000000;stroke-width:1.5;" width="950.5" x="315.5" y="98.7266"/><text fill="#000000" font-family="sans-serif" font-size="13" font-weight="bold" lengthAdjust="spacing" textLength="164" x="330.5" y="111.7935">Register Agenda Entry</text><line style="stroke:#181818;stroke-width:1.0;" x1="403" x2="450" y1="131.9922" y2="131.9922"/><line style="stroke:#181818;stroke-width:1.0;" x1="450" x2="450" y1="131.9922" y2="144.9922"/><line style="stroke:#181818;stroke-width:1.0;" x1="409" x2="450" y1="144.9922" y2="144.9922"/><polygon fill="#181818" points="419,140.9922,409,144.9922,419,148.9922,415,144.9922" style="stroke:#181818;stroke-width:1.0;"/><text fill="#000000" font-family="sans-serif" font-size="13" font-weight="bold" lengthAdjust="spacing" textLength="23" x="415" y="126.9263">3.2</text><text fill="#000000" font-family="sans-serif" font-size="13" lengthAdjust="spacing" textLength="224" x="442" y="126.9263">searchForOption(toDoEntryOption)</text><polygon fill="#181818" points="815.5,175.125,825.5,179.125,815.5,183.125,819.5,179.125" style="stroke:#181818;stroke-width:1.0;"/><line style="stroke:#181818;stroke-width:1.0;" x1="408" x2="821.5" y1="179.125" y2="179.125"/><text fill="#000000" font-family="sans-serif" font-size="13" font-weight="bold" lengthAdjust="spacing" textLength="23" x="415" y="174.0591">3.3</text><text fill="#000000" font-family="sans-serif" font-size="13" lengthAdjust="spacing" textLength="227" x="442" y="174.0591">toDoEntry  = get(toDoEntryOption)</text><line style="stroke:#181818;stroke-width:1.0;stroke-dasharray:2.0,2.0;" x1="408" x2="450" y1="243.2578" y2="243.2578"/><line style="stroke:#181818;stroke-width:1.0;stroke-dasharray:2.0,2.0;" x1="450" x2="450" y1="243.2578" y2="256.2578"/><line style="stroke:#181818;stroke-width:1.0;stroke-dasharray:2.0,2.0;" x1="403" x2="450" y1="256.2578" y2="256.2578"/><polygon fill="#181818" points="413,252.2578,403,256.2578,413,260.2578,409,256.2578" style="stroke:#181818;stroke-width:1.0;"/><text fill="#000000" font-family="sans-serif" font-size="13" font-weight="bold" lengthAdjust="spacing" textLength="23" x="415" y="238.1919">3.4</text><text fill="#000000" font-family="sans-serif" font-size="13" lengthAdjust="spacing" textLength="65" x="442" y="238.1919">toDoEntry</text><polygon fill="#181818" points="933.5,276.3906,943.5,280.3906,933.5,284.3906,937.5,280.3906" style="stroke:#181818;stroke-width:1.0;"/><line style="stroke:#181818;stroke-width:1.0;" x1="403" x2="939.5" y1="280.3906" y2="280.3906"/><text fill="#000000" font-family="sans-serif" font-size="13" font-weight="bold" lengthAdjust="spacing" textLength="23" x="410" y="275.3247">3.5</text><text fill="#000000" font-family="sans-serif" font-size="13" lengthAdjust="spacing" textLength="304" x="437" y="275.3247">registerAgendaEntry(toDoEntry, starting_Date)</text><polygon fill="#181818" points="1133,305.5234,1143,309.5234,1133,313.5234,1137,309.5234" style="stroke:#181818;stroke-width:1.0;"/><line style="stroke:#181818;stroke-width:1.0;" x1="955.5" x2="1139" y1="309.5234" y2="309.5234"/><text fill="#000000" font-family="sans-serif" font-size="13" font-weight="bold" lengthAdjust="spacing" textLength="23" x="962.5" y="304.4575">3.6</text><text fill="#000000" font-family="sans-serif" font-size="13" lengthAdjust="spacing" textLength="41" x="989.5" y="304.4575">create</text><rect fill="#E3E3E3" height="46.5938" rx="2.5" ry="2.5" style="stroke:#181818;stroke-width:0.5;" width="111" x="1145" y="288.3906"/><text fill="#000000" font-family="sans-serif" font-size="14" lengthAdjust="spacing" textLength="91" x="1155" y="308.3857">agendaEntry</text><text fill="#000000" font-family="sans-serif" font-size="14" lengthAdjust="spacing" textLength="97" x="1152" y="324.6826">:AgendaEntry</text><line style="stroke:#181818;stroke-width:1.0;" x1="955.5" x2="1002.5" y1="362.1172" y2="362.1172"/><line style="stroke:#181818;stroke-width:1.0;" x1="1002.5" x2="1002.5" y1="362.1172" y2="375.1172"/><line style="stroke:#181818;stroke-width:1.0;" x1="961.5" x2="1002.5" y1="375.1172" y2="375.1172"/><polygon fill="#181818" points="971.5,371.1172,961.5,375.1172,971.5,379.1172,967.5,375.1172" style="stroke:#181818;stroke-width:1.0;"/><text fill="#000000" font-family="sans-serif" font-size="13" font-weight="bold" lengthAdjust="spacing" textLength="23" x="967.5" y="357.0513">3.7</text><text fill="#000000" font-family="sans-serif" font-size="13" lengthAdjust="spacing" textLength="199" x="994.5" y="357.0513">addAgendaEntry(agendaEntry)</text><line style="stroke:#181818;stroke-width:1.0;" x1="965.5" x2="1007.5" y1="409.25" y2="409.25"/><line style="stroke:#181818;stroke-width:1.0;" x1="1007.5" x2="1007.5" y1="409.25" y2="422.25"/><line style="stroke:#181818;stroke-width:1.0;" x1="966.5" x2="1007.5" y1="422.25" y2="422.25"/><polygon fill="#181818" points="976.5,418.25,966.5,422.25,976.5,426.25,972.5,422.25" style="stroke:#181818;stroke-width:1.0;"/><text fill="#000000" font-family="sans-serif" font-size="13" font-weight="bold" lengthAdjust="spacing" textLength="23" x="972.5" y="404.1841">3.8</text><text fill="#000000" font-family="sans-serif" font-size="13" lengthAdjust="spacing" textLength="179" x="999.5" y="404.1841">validateEntry(agendaEntry)</text><polygon fill="#181818" points="414,477.3828,404,481.3828,414,485.3828,410,481.3828" style="stroke:#181818;stroke-width:1.0;"/><line style="stroke:#181818;stroke-width:1.0;stroke-dasharray:2.0,2.0;" x1="408" x2="949.5" y1="481.3828" y2="481.3828"/><text fill="#000000" font-family="sans-serif" font-size="13" font-weight="bold" lengthAdjust="spacing" textLength="23" x="420" y="476.3169">3.9</text><text fill="#000000" font-family="sans-serif" font-size="13" lengthAdjust="spacing" textLength="82" x="447" y="476.3169">agendaEntry</text><polygon fill="#181818" points="656,506.5156,666,510.5156,656,514.5156,660,510.5156" style="stroke:#181818;stroke-width:1.0;"/><line style="stroke:#181818;stroke-width:1.0;" x1="403" x2="662" y1="510.5156" y2="510.5156"/><text fill="#000000" font-family="sans-serif" font-size="13" font-weight="bold" lengthAdjust="spacing" textLength="32" x="410" y="505.4497">3.10</text><text fill="#000000" font-family="sans-serif" font-size="13" lengthAdjust="spacing" textLength="142" x="446" y="505.4497">remove(agendaEntry)</text><polygon fill="#181818" points="11,572.6484,1,576.6484,11,580.6484,7,576.6484" style="stroke:#181818;stroke-width:1.0;"/><line style="stroke:#181818;stroke-width:1.0;stroke-dasharray:2.0,2.0;" x1="5" x2="392" y1="576.6484" y2="576.6484"/><text fill="#000000" font-family="sans-serif" font-size="13" font-weight="bold" lengthAdjust="spacing" textLength="32" x="17" y="571.5825">3.11</text><text fill="#000000" font-family="sans-serif" font-size="13" lengthAdjust="spacing" textLength="82" x="53" y="571.5825">agendaEntry</text><!--SRC=[fLHVQzim47_NfpZwihKiWx6N4Rf2QBAzb0wol0m6usfV7L5RPwHBjdxxoRAjoB6JhLHlqlt-wKx8FMbJeyKAAZQSRIrN169tf5oir9WzOK7VvRaai9G9cg9C0MwBEV_Mfe17B1qfXJjXiwiUo2hrPgjpWaTcUU0_IYbF4Ptf6et0nNnHaCdnberOBako5u0ERZVhkoEWy9Blj9CrrUoqi7t-QUQRqM6WZx53hTBN6khAcpOo3VOw7jm4ZHupP698wobjx81SV5tTBnTJk5v_STWbZDNzPlqZRHLy6km-ll-WO7OJcW5pt_V2HoARYBsLFlEtMZIRT-2aIM6ANqiKkbJWLs5vLyEwOqDBXy1Ic8dUUsJNSEXMS3muEqARRR-mRLsENIyZxuHSAjctTGvH1U0p52IdPGVISIvfDQTn_UWsX-j47pL1dsv4Ex1_3M6o_OFmtLCPPE-qeqju5bTNtYopv4bdmHw5UPwcILxUYGx-JmYlkyTIvnx_6jcaiIyizu4EOqiIg3C2QZozyNSG9bdndgRl5KKdFf89wmcKEXEnEVMc4N4zcxLHVQh1BVy2]--></g></svg>