<?xml version="1.0" encoding="us-ascii" standalone="no"?><svg xmlns="http://www.w3.org/2000/svg" xmlns:xlink="http://www.w3.org/1999/xlink" contentStyleType="text/css" height="493px" preserveAspectRatio="none" style="width:402px;height:493px;background:#FFFFFF;" version="1.1" viewBox="0 0 402 493" width="402px" zoomAndPan="magnify"><defs/><g><text fill="#000000" font-family="sans-serif" font-size="14" font-weight="bold" lengthAdjust="spacing" textLength="351" x="24.5" y="30.1074">System Sequence Diagram (SSD) - Alternative One</text><rect fill="#FFFFFF" height="268.6191" style="stroke:#181818;stroke-width:1.0;" width="10" x="75" y="133.2422"/><rect fill="#FFFFFF" height="31.291" style="stroke:#181818;stroke-width:1.0;" width="10" x="359" y="156.5332"/><rect fill="#FFFFFF" height="31.291" style="stroke:#181818;stroke-width:1.0;" width="10" x="359" y="219.1152"/><rect fill="#FFFFFF" height="48.582" style="stroke:#181818;stroke-width:1.0;" width="10" x="359" y="281.6973"/><rect fill="#FFFFFF" height="31.291" style="stroke:#181818;stroke-width:1.0;" width="10" x="359" y="361.5703"/><line style="stroke:#181818;stroke-width:0.5;stroke-dasharray:5.0,5.0;" x1="80" x2="80" y1="123.2422" y2="410.8613"/><line style="stroke:#181818;stroke-width:0.5;stroke-dasharray:5.0,5.0;" x1="364" x2="364" y1="123.2422" y2="410.8613"/><text fill="#000000" font-family="sans-serif" font-size="14" lengthAdjust="spacing" textLength="144" x="5" y="119.7285">Green Space Manager</text><ellipse cx="80" cy="53.1211" fill="#E3E3E3" rx="8" ry="8" style="stroke:#181818;stroke-width:0.5;"/><path d="M80,61.1211 L80,88.1211 M67,69.1211 L93,69.1211 M80,88.1211 L67,103.1211 M80,88.1211 L93,103.1211 " fill="none" style="stroke:#181818;stroke-width:0.5;"/><text fill="#000000" font-family="sans-serif" font-size="14" lengthAdjust="spacing" textLength="144" x="5" y="424.9688">Green Space Manager</text><ellipse cx="80" cy="436.9824" fill="#E3E3E3" rx="8" ry="8" style="stroke:#181818;stroke-width:0.5;"/><path d="M80,444.9824 L80,471.9824 M67,452.9824 L93,452.9824 M80,471.9824 L67,486.9824 M80,471.9824 L93,486.9824 " fill="none" style="stroke:#181818;stroke-width:0.5;"/><rect fill="#E3E3E3" height="32.6211" rx="2.5" ry="2.5" style="stroke:#181818;stroke-width:0.5;" width="64" x="332" y="89.6211"/><text fill="#000000" font-family="sans-serif" font-size="14" lengthAdjust="spacing" textLength="50" x="339" y="111.7285">:System</text><rect fill="#E3E3E3" height="32.6211" rx="2.5" ry="2.5" style="stroke:#181818;stroke-width:0.5;" width="64" x="332" y="409.8613"/><text fill="#000000" font-family="sans-serif" font-size="14" lengthAdjust="spacing" textLength="50" x="339" y="431.9688">:System</text><rect fill="#FFFFFF" height="268.6191" style="stroke:#181818;stroke-width:1.0;" width="10" x="75" y="133.2422"/><rect fill="#FFFFFF" height="31.291" style="stroke:#181818;stroke-width:1.0;" width="10" x="359" y="156.5332"/><rect fill="#FFFFFF" height="31.291" style="stroke:#181818;stroke-width:1.0;" width="10" x="359" y="219.1152"/><rect fill="#FFFFFF" height="48.582" style="stroke:#181818;stroke-width:1.0;" width="10" x="359" y="281.6973"/><rect fill="#FFFFFF" height="31.291" style="stroke:#181818;stroke-width:1.0;" width="10" x="359" y="361.5703"/><polygon fill="#181818" points="347,152.5332,357,156.5332,347,160.5332,351,156.5332" style="stroke:#181818;stroke-width:1.0;"/><line style="stroke:#181818;stroke-width:1.0;" x1="85" x2="353" y1="156.5332" y2="156.5332"/><text fill="#000000" font-family="sans-serif" font-size="13" font-weight="bold" lengthAdjust="spacing" textLength="7" x="92" y="151.2705">1</text><text fill="#000000" font-family="sans-serif" font-size="13" lengthAdjust="spacing" textLength="244" x="103" y="151.2705">ask to assign a vehicle to an agenda entry</text><polygon fill="#181818" points="96,183.8242,86,187.8242,96,191.8242,92,187.8242" style="stroke:#181818;stroke-width:1.0;"/><line style="stroke:#181818;stroke-width:1.0;stroke-dasharray:2.0,2.0;" x1="90" x2="363" y1="187.8242" y2="187.8242"/><text fill="#000000" font-family="sans-serif" font-size="13" font-weight="bold" lengthAdjust="spacing" textLength="7" x="102" y="182.5615">2</text><text fill="#000000" font-family="sans-serif" font-size="13" lengthAdjust="spacing" textLength="137" x="113" y="182.5615">shows agenda entry list</text><polygon fill="#181818" points="347,215.1152,357,219.1152,347,223.1152,351,219.1152" style="stroke:#181818;stroke-width:1.0;"/><line style="stroke:#181818;stroke-width:1.0;" x1="85" x2="353" y1="219.1152" y2="219.1152"/><text fill="#000000" font-family="sans-serif" font-size="13" font-weight="bold" lengthAdjust="spacing" textLength="7" x="92" y="213.8525">3</text><text fill="#000000" font-family="sans-serif" font-size="13" lengthAdjust="spacing" textLength="218" x="103" y="213.8525">chooses an agenda entry from the list</text><polygon fill="#181818" points="96,246.4063,86,250.4063,96,254.4063,92,250.4063" style="stroke:#181818;stroke-width:1.0;"/><line style="stroke:#181818;stroke-width:1.0;stroke-dasharray:2.0,2.0;" x1="90" x2="363" y1="250.4063" y2="250.4063"/><text fill="#000000" font-family="sans-serif" font-size="13" font-weight="bold" lengthAdjust="spacing" textLength="7" x="102" y="245.1436">4</text><text fill="#000000" font-family="sans-serif" font-size="13" lengthAdjust="spacing" textLength="124" x="113" y="245.1436">request data (plateID)</text><polygon fill="#181818" points="347,277.6973,357,281.6973,347,285.6973,351,281.6973" style="stroke:#181818;stroke-width:1.0;"/><line style="stroke:#181818;stroke-width:1.0;" x1="85" x2="353" y1="281.6973" y2="281.6973"/><text fill="#000000" font-family="sans-serif" font-size="13" font-weight="bold" lengthAdjust="spacing" textLength="7" x="92" y="276.4346">5</text><text fill="#000000" font-family="sans-serif" font-size="13" lengthAdjust="spacing" textLength="122" x="103" y="276.4346">types requested data</text><polygon fill="#181818" points="96,326.2793,86,330.2793,96,334.2793,92,330.2793" style="stroke:#181818;stroke-width:1.0;"/><line style="stroke:#181818;stroke-width:1.0;stroke-dasharray:2.0,2.0;" x1="90" x2="363" y1="330.2793" y2="330.2793"/><text fill="#000000" font-family="sans-serif" font-size="13" font-weight="bold" lengthAdjust="spacing" textLength="7" x="102" y="316.3711">6</text><text fill="#000000" font-family="sans-serif" font-size="13" lengthAdjust="spacing" textLength="137" x="113" y="307.7256">show all data registered</text><text fill="#000000" font-family="sans-serif" font-size="13" lengthAdjust="spacing" textLength="153" x="117" y="325.0166">and the confirmation menu</text><polygon fill="#181818" points="347,357.5703,357,361.5703,347,365.5703,351,361.5703" style="stroke:#181818;stroke-width:1.0;"/><line style="stroke:#181818;stroke-width:1.0;" x1="85" x2="353" y1="361.5703" y2="361.5703"/><text fill="#000000" font-family="sans-serif" font-size="13" font-weight="bold" lengthAdjust="spacing" textLength="7" x="92" y="356.3076">7</text><text fill="#000000" font-family="sans-serif" font-size="13" lengthAdjust="spacing" textLength="75" x="103" y="356.3076">submits data</text><polygon fill="#181818" points="96,388.8613,86,392.8613,96,396.8613,92,392.8613" style="stroke:#181818;stroke-width:1.0;"/><line style="stroke:#181818;stroke-width:1.0;stroke-dasharray:2.0,2.0;" x1="90" x2="363" y1="392.8613" y2="392.8613"/><text fill="#000000" font-family="sans-serif" font-size="13" font-weight="bold" lengthAdjust="spacing" textLength="7" x="102" y="387.5986">8</text><text fill="#000000" font-family="sans-serif" font-size="13" lengthAdjust="spacing" textLength="165" x="113" y="387.5986">shows operation (in)success</text><!--SRC=[dPBDReCm383lF8NLKtle2_GmQLAdQOTf1wwxkC65g8d3OjEAjvyBjFiHdRJcGWBsvyyESl3SOiO8CN5oJKwHG7D7XLo_jEWEM5EfVI38v1Iv3jy3fC4gdJpNiCSWL1JgrKBBNfGYbFJH4Jk2hSVw7Buio-qArl0Ob3AZ-YF16riQTfguYplAjdUQCYoUCn53QGe4hyYcaHU00a-n3QadAin0lVCjii9YCvOS8iPjCP3y4PM-SWgmTJd1-k5Ykh6y0sYoX_YQ0U58ZNVMolcTdMlY2e5OSpymhkXBCPZM15mR-rfdOtDA9_b1WU15XwoAPc6pbgv9IKX-Ay7URW-qeP5wZs4-tvKeLAW8opPOvijszPVWlA7shVbDDAe6tXG_JxazCC0GHfzCjVL5cQftQvoheLMNUEzpjByeCKJYRkJzPvpIxQ9N6INlljRKKXujbfvNqZb78ZSczma0]--></g></svg>