<?xml version="1.0" encoding="us-ascii" standalone="no"?><svg xmlns="http://www.w3.org/2000/svg" xmlns:xlink="http://www.w3.org/1999/xlink" contentStyleType="text/css" height="411px" preserveAspectRatio="none" style="width:391px;height:411px;background:#FFFFFF;" version="1.1" viewBox="0 0 391 411" width="391px" zoomAndPan="magnify"><defs/><g><text fill="#000000" font-family="sans-serif" font-size="14" font-weight="bold" lengthAdjust="spacing" textLength="363" x="10" y="28.5352">System Sequence Diagram (SSD) - Alternative One</text><rect fill="#FFFFFF" height="161.8633" style="stroke:#181818;stroke-width:1.0;" width="10" x="50.25" y="150.2871"/><rect fill="#FFFFFF" height="161.8633" style="stroke:#181818;stroke-width:1.0;" width="10" x="337.25" y="150.2871"/><line style="stroke:#181818;stroke-width:0.5;stroke-dasharray:5.0,5.0;" x1="54.75" x2="54.75" y1="118.9766" y2="330.1504"/><line style="stroke:#181818;stroke-width:0.5;stroke-dasharray:5.0,5.0;" x1="342.25" x2="342.25" y1="118.9766" y2="330.1504"/><text fill="#000000" font-family="sans-serif" font-size="14" lengthAdjust="spacing" textLength="87" x="8.75" y="116.0234">Collaborator</text><ellipse cx="55.25" cy="50.9883" fill="#E3E3E3" rx="8" ry="8" style="stroke:#181818;stroke-width:0.5;"/><path d="M55.25,58.9883 L55.25,85.9883 M42.25,66.9883 L68.25,66.9883 M55.25,85.9883 L42.25,100.9883 M55.25,85.9883 L68.25,100.9883 " fill="none" style="stroke:#181818;stroke-width:0.5;"/><text fill="#000000" font-family="sans-serif" font-size="14" lengthAdjust="spacing" textLength="87" x="8.75" y="342.6855">Collaborator</text><ellipse cx="55.25" cy="354.1387" fill="#E3E3E3" rx="8" ry="8" style="stroke:#181818;stroke-width:0.5;"/><path d="M55.25,362.1387 L55.25,389.1387 M42.25,370.1387 L68.25,370.1387 M55.25,389.1387 L42.25,404.1387 M55.25,389.1387 L68.25,404.1387 " fill="none" style="stroke:#181818;stroke-width:0.5;"/><rect fill="#E3E3E3" height="30.4883" rx="2.5" ry="2.5" style="stroke:#181818;stroke-width:0.5;" width="66" x="309.25" y="87.4883"/><text fill="#000000" font-family="sans-serif" font-size="14" lengthAdjust="spacing" textLength="52" x="316.25" y="108.0234">:System</text><rect fill="#E3E3E3" height="30.4883" rx="2.5" ry="2.5" style="stroke:#181818;stroke-width:0.5;" width="66" x="309.25" y="329.1504"/><text fill="#000000" font-family="sans-serif" font-size="14" lengthAdjust="spacing" textLength="52" x="316.25" y="349.6855">:System</text><rect fill="#FFFFFF" height="161.8633" style="stroke:#181818;stroke-width:1.0;" width="10" x="50.25" y="150.2871"/><rect fill="#FFFFFF" height="161.8633" style="stroke:#181818;stroke-width:1.0;" width="10" x="337.25" y="150.2871"/><polygon fill="#181818" points="325.25,146.2871,335.25,150.2871,325.25,154.2871,329.25,150.2871" style="stroke:#181818;stroke-width:1.0;"/><line style="stroke:#181818;stroke-width:1.0;" x1="60.25" x2="331.25" y1="150.2871" y2="150.2871"/><text fill="#000000" font-family="sans-serif" font-size="13" font-weight="bold" lengthAdjust="spacing" textLength="9" x="67.25" y="145.5449">1</text><text fill="#000000" font-family="sans-serif" font-size="13" lengthAdjust="spacing" textLength="250" x="80.25" y="145.5449">Asks to record the completion of a task</text><polygon fill="#181818" points="71.25,175.5977,61.25,179.5977,71.25,183.5977,67.25,179.5977" style="stroke:#181818;stroke-width:1.0;"/><line style="stroke:#181818;stroke-width:1.0;stroke-dasharray:2.0,2.0;" x1="65.25" x2="336.25" y1="179.5977" y2="179.5977"/><text fill="#000000" font-family="sans-serif" font-size="13" font-weight="bold" lengthAdjust="spacing" textLength="9" x="77.25" y="174.8555">2</text><text fill="#000000" font-family="sans-serif" font-size="13" lengthAdjust="spacing" textLength="143" x="90.25" y="174.8555">Shows the list of tasks</text><polygon fill="#181818" points="325.25,204.9082,335.25,208.9082,325.25,212.9082,329.25,208.9082" style="stroke:#181818;stroke-width:1.0;"/><line style="stroke:#181818;stroke-width:1.0;" x1="60.25" x2="331.25" y1="208.9082" y2="208.9082"/><text fill="#000000" font-family="sans-serif" font-size="13" font-weight="bold" lengthAdjust="spacing" textLength="9" x="67.25" y="204.166">3</text><text fill="#000000" font-family="sans-serif" font-size="13" lengthAdjust="spacing" textLength="149" x="80.25" y="204.166">Selects the desired task</text><polygon fill="#181818" points="71.25,249.5293,61.25,253.5293,71.25,257.5293,67.25,253.5293" style="stroke:#181818;stroke-width:1.0;"/><line style="stroke:#181818;stroke-width:1.0;stroke-dasharray:2.0,2.0;" x1="65.25" x2="336.25" y1="253.5293" y2="253.5293"/><text fill="#000000" font-family="sans-serif" font-size="13" font-weight="bold" lengthAdjust="spacing" textLength="9" x="77.25" y="241.1318">4</text><text fill="#000000" font-family="sans-serif" font-size="13" lengthAdjust="spacing" textLength="167" x="90.25" y="233.4766">Asks to enter data (date of</text><text fill="#000000" font-family="sans-serif" font-size="13" lengthAdjust="spacing" textLength="106" x="90.25" y="248.7871">task completion)</text><polygon fill="#181818" points="325.25,278.8398,335.25,282.8398,325.25,286.8398,329.25,282.8398" style="stroke:#181818;stroke-width:1.0;"/><line style="stroke:#181818;stroke-width:1.0;" x1="60.25" x2="331.25" y1="282.8398" y2="282.8398"/><text fill="#000000" font-family="sans-serif" font-size="13" font-weight="bold" lengthAdjust="spacing" textLength="9" x="67.25" y="278.0977">5</text><text fill="#000000" font-family="sans-serif" font-size="13" lengthAdjust="spacing" textLength="70" x="80.25" y="278.0977">Enters data</text><polygon fill="#181818" points="66.25,308.1504,56.25,312.1504,66.25,316.1504,62.25,312.1504" style="stroke:#181818;stroke-width:1.0;"/><line style="stroke:#181818;stroke-width:1.0;stroke-dasharray:2.0,2.0;" x1="60.25" x2="341.25" y1="312.1504" y2="312.1504"/><text fill="#000000" font-family="sans-serif" font-size="13" font-weight="bold" lengthAdjust="spacing" textLength="9" x="72.25" y="307.4082">6</text><text fill="#000000" font-family="sans-serif" font-size="13" lengthAdjust="spacing" textLength="189" x="85.25" y="307.4082">Displays success of operation</text><!--SRC=[VP6nSi8m38PtFuME2GPUWA5t5Bfnn-2rYt14uejZfPO2nzlN9e7IqYEJur-_Flsoj3xscB23ZYEx9d57e6aW8tUbHzTYJLOlWI2HKunrU2oG1Yi- -rZ34OEGCUerbzgBA7LWwMkWw0Ys7kjIFhTsku0bh8DIYgZ-HB2FsOQ3SXow0wLyTie9PXiE0G-SCF_D00Ks-zrk_MuoMBtpFKQ5sMeaNVNnQ8o1wHiDi7oRf1MifHLGBb4uLQ0DWUEk3wIU8_0H41IblNV8e_WJAjtOJ_StvasOWYypSwAlm3PybYihUD52AGnvCQQba7SzUYeIdwZwFTSJvYSQnRnQg50HvbKPaO-ViPWVaYvUi3-ANwuDNk6sNlg05m4Pd2EH4ejxog-L-p-yGKL_T_MFCZRz1W00]--></g></svg>