<?xml version="1.0" encoding="us-ascii" standalone="no"?><svg xmlns="http://www.w3.org/2000/svg" xmlns:xlink="http://www.w3.org/1999/xlink" contentStyleType="text/css" height="454px" preserveAspectRatio="none" style="width:391px;height:454px;background:#FFFFFF;" version="1.1" viewBox="0 0 391 454" width="391px" zoomAndPan="magnify"><defs/><g><text fill="#000000" font-family="sans-serif" font-size="14" font-weight="bold" lengthAdjust="spacing" textLength="363" x="10" y="28.5352">System Sequence Diagram (SSD) - Alternative One</text><rect fill="#FFFFFF" height="205.1738" style="stroke:#181818;stroke-width:1.0;" width="10" x="50.25" y="150.2871"/><rect fill="#FFFFFF" height="205.1738" style="stroke:#181818;stroke-width:1.0;" width="10" x="337.25" y="150.2871"/><line style="stroke:#181818;stroke-width:0.5;stroke-dasharray:5.0,5.0;" x1="54.75" x2="54.75" y1="118.9766" y2="373.4609"/><line style="stroke:#181818;stroke-width:0.5;stroke-dasharray:5.0,5.0;" x1="342.25" x2="342.25" y1="118.9766" y2="373.4609"/><text fill="#000000" font-family="sans-serif" font-size="14" lengthAdjust="spacing" textLength="87" x="8.75" y="116.0234">Collaborator</text><ellipse cx="55.25" cy="50.9883" fill="#E3E3E3" rx="8" ry="8" style="stroke:#181818;stroke-width:0.5;"/><path d="M55.25,58.9883 L55.25,85.9883 M42.25,66.9883 L68.25,66.9883 M55.25,85.9883 L42.25,100.9883 M55.25,85.9883 L68.25,100.9883 " fill="none" style="stroke:#181818;stroke-width:0.5;"/><text fill="#000000" font-family="sans-serif" font-size="14" lengthAdjust="spacing" textLength="87" x="8.75" y="385.9961">Collaborator</text><ellipse cx="55.25" cy="397.4492" fill="#E3E3E3" rx="8" ry="8" style="stroke:#181818;stroke-width:0.5;"/><path d="M55.25,405.4492 L55.25,432.4492 M42.25,413.4492 L68.25,413.4492 M55.25,432.4492 L42.25,447.4492 M55.25,432.4492 L68.25,447.4492 " fill="none" style="stroke:#181818;stroke-width:0.5;"/><rect fill="#E3E3E3" height="30.4883" rx="2.5" ry="2.5" style="stroke:#181818;stroke-width:0.5;" width="66" x="309.25" y="87.4883"/><text fill="#000000" font-family="sans-serif" font-size="14" lengthAdjust="spacing" textLength="52" x="316.25" y="108.0234">:System</text><rect fill="#E3E3E3" height="30.4883" rx="2.5" ry="2.5" style="stroke:#181818;stroke-width:0.5;" width="66" x="309.25" y="372.4609"/><text fill="#000000" font-family="sans-serif" font-size="14" lengthAdjust="spacing" textLength="52" x="316.25" y="392.9961">:System</text><rect fill="#FFFFFF" height="205.1738" style="stroke:#181818;stroke-width:1.0;" width="10" x="50.25" y="150.2871"/><rect fill="#FFFFFF" height="205.1738" style="stroke:#181818;stroke-width:1.0;" width="10" x="337.25" y="150.2871"/><polygon fill="#181818" points="325.25,146.2871,335.25,150.2871,325.25,154.2871,329.25,150.2871" style="stroke:#181818;stroke-width:1.0;"/><line style="stroke:#181818;stroke-width:1.0;" x1="60.25" x2="331.25" y1="150.2871" y2="150.2871"/><text fill="#000000" font-family="sans-serif" font-size="13" font-weight="bold" lengthAdjust="spacing" textLength="9" x="67.25" y="145.5449">1</text><text fill="#000000" font-family="sans-serif" font-size="13" lengthAdjust="spacing" textLength="250" x="80.25" y="145.5449">Asks to record the completion of a task</text><polygon fill="#181818" points="71.25,175.5977,61.25,179.5977,71.25,183.5977,67.25,179.5977" style="stroke:#181818;stroke-width:1.0;"/><line style="stroke:#181818;stroke-width:1.0;stroke-dasharray:2.0,2.0;" x1="65.25" x2="336.25" y1="179.5977" y2="179.5977"/><text fill="#000000" font-family="sans-serif" font-size="13" font-weight="bold" lengthAdjust="spacing" textLength="9" x="77.25" y="174.8555">2</text><text fill="#000000" font-family="sans-serif" font-size="13" lengthAdjust="spacing" textLength="203" x="90.25" y="174.8555">Requests data (taxPayerNumber)</text><polygon fill="#181818" points="325.25,204.9082,335.25,208.9082,325.25,212.9082,329.25,208.9082" style="stroke:#181818;stroke-width:1.0;"/><line style="stroke:#181818;stroke-width:1.0;" x1="60.25" x2="331.25" y1="208.9082" y2="208.9082"/><text fill="#000000" font-family="sans-serif" font-size="13" font-weight="bold" lengthAdjust="spacing" textLength="9" x="67.25" y="204.166">3</text><text fill="#000000" font-family="sans-serif" font-size="13" lengthAdjust="spacing" textLength="148" x="80.25" y="204.166">Submits requested data</text><polygon fill="#181818" points="71.25,234.2188,61.25,238.2188,71.25,242.2188,67.25,238.2188" style="stroke:#181818;stroke-width:1.0;"/><line style="stroke:#181818;stroke-width:1.0;stroke-dasharray:2.0,2.0;" x1="65.25" x2="336.25" y1="238.2188" y2="238.2188"/><text fill="#000000" font-family="sans-serif" font-size="13" font-weight="bold" lengthAdjust="spacing" textLength="9" x="77.25" y="233.4766">4</text><text fill="#000000" font-family="sans-serif" font-size="13" lengthAdjust="spacing" textLength="143" x="90.25" y="233.4766">Shows the list of tasks</text><polygon fill="#181818" points="325.25,263.5293,335.25,267.5293,325.25,271.5293,329.25,267.5293" style="stroke:#181818;stroke-width:1.0;"/><line style="stroke:#181818;stroke-width:1.0;" x1="60.25" x2="331.25" y1="267.5293" y2="267.5293"/><text fill="#000000" font-family="sans-serif" font-size="13" font-weight="bold" lengthAdjust="spacing" textLength="9" x="67.25" y="262.7871">5</text><text fill="#000000" font-family="sans-serif" font-size="13" lengthAdjust="spacing" textLength="149" x="80.25" y="262.7871">Selects the desired task</text><polygon fill="#181818" points="71.25,292.8398,61.25,296.8398,71.25,300.8398,67.25,296.8398" style="stroke:#181818;stroke-width:1.0;"/><line style="stroke:#181818;stroke-width:1.0;stroke-dasharray:2.0,2.0;" x1="65.25" x2="336.25" y1="296.8398" y2="296.8398"/><text fill="#000000" font-family="sans-serif" font-size="13" font-weight="bold" lengthAdjust="spacing" textLength="9" x="77.25" y="292.0977">6</text><text fill="#000000" font-family="sans-serif" font-size="13" lengthAdjust="spacing" textLength="200" x="90.25" y="292.0977">Requests data (completionDate)</text><polygon fill="#181818" points="325.25,322.1504,335.25,326.1504,325.25,330.1504,329.25,326.1504" style="stroke:#181818;stroke-width:1.0;"/><line style="stroke:#181818;stroke-width:1.0;" x1="60.25" x2="331.25" y1="326.1504" y2="326.1504"/><text fill="#000000" font-family="sans-serif" font-size="13" font-weight="bold" lengthAdjust="spacing" textLength="9" x="67.25" y="321.4082">7</text><text fill="#000000" font-family="sans-serif" font-size="13" lengthAdjust="spacing" textLength="148" x="80.25" y="321.4082">Submits requested data</text><polygon fill="#181818" points="66.25,351.4609,56.25,355.4609,66.25,359.4609,62.25,355.4609" style="stroke:#181818;stroke-width:1.0;"/><line style="stroke:#181818;stroke-width:1.0;stroke-dasharray:2.0,2.0;" x1="60.25" x2="341.25" y1="355.4609" y2="355.4609"/><text fill="#000000" font-family="sans-serif" font-size="13" font-weight="bold" lengthAdjust="spacing" textLength="9" x="72.25" y="350.7188">8</text><text fill="#000000" font-family="sans-serif" font-size="13" lengthAdjust="spacing" textLength="172" x="85.25" y="350.7188">Displays operation success</text><!--SRC=[hP9DSi8m38NtEOM65IouG1QTIM7PAPtc1C8HYIUEbLeADBUlymEbqBAgLxQVfCzFijJMjnYmWOOzcofmGw2XeqGkIekcnf9oxHr18AFeItST81KMVBA-X0CweIHHgp4qxqMfWPm-ElA6O6kn7CANURvTmHeofnGygZqIx7nCmqxPTysUGjmRvG2B3Jk7UmuOJmj0WStk9NjE8bUjiIrwXKKwWKPvsYP90lCQus7zD2ifP58BA0z6E1IW5O7XfdMabZtm0H0KfRuKY0-nHrIQoNVNP-9Pc5sl8t9Yf_0-T41Ke415M2f-lc5FuNMqklhxgNctRsnC2rC-5ME1HwIyufECdfmL7TmCNkG1WbmSw9HIaDWG8J_itqBkt7mtRnlRyNzkqlXVf7NO2t1ByGCCuv7E61Avccz1jvFuHHaBVW40]--></g></svg>