<?xml version="1.0" encoding="us-ascii" standalone="no"?><svg xmlns="http://www.w3.org/2000/svg" xmlns:xlink="http://www.w3.org/1999/xlink" contentStyleType="text/css" height="460px" preserveAspectRatio="none" style="width:426px;height:460px;background:#FFFFFF;" version="1.1" viewBox="0 0 426 460" width="426px" zoomAndPan="magnify"><defs/><g><rect fill="#FFFFFF" height="314.9297" style="stroke:#181818;stroke-width:1.0;" width="10" x="87.5" y="83.7266"/><rect fill="#FFFFFF" height="156.6641" style="stroke:#181818;stroke-width:1.0;" width="10" x="92.5" y="194.9922"/><rect fill="#FFFFFF" height="29.1328" style="stroke:#181818;stroke-width:1.0;" width="10" x="234.5" y="229.125"/><rect fill="#FFFFFF" height="29.1328" style="stroke:#181818;stroke-width:1.0;" width="10" x="351.5" y="287.3906"/><rect fill="none" height="267.9297" style="stroke:#000000;stroke-width:1.5;" width="410" x="10" y="123.7266"/><line style="stroke:#181818;stroke-width:0.5;stroke-dasharray:5.0,5.0;" x1="92" x2="92" y1="52.5938" y2="408.6563"/><line style="stroke:#181818;stroke-width:0.5;stroke-dasharray:5.0,5.0;" x1="239" x2="239" y1="52.5938" y2="408.6563"/><line style="stroke:#181818;stroke-width:0.5;stroke-dasharray:5.0,5.0;" x1="356" x2="356" y1="52.5938" y2="408.6563"/><rect fill="#E3E3E3" height="30.2969" rx="2.5" ry="2.5" style="stroke:#181818;stroke-width:0.5;" width="145" x="20" y="21.2969"/><text fill="#000000" font-family="sans-serif" font-size="14" lengthAdjust="spacing" textLength="131" x="27" y="41.292">:AgendaController</text><rect fill="#E3E3E3" height="30.2969" rx="2.5" ry="2.5" style="stroke:#181818;stroke-width:0.5;" width="145" x="20" y="407.6563"/><text fill="#000000" font-family="sans-serif" font-size="14" lengthAdjust="spacing" textLength="131" x="27" y="427.6514">:AgendaController</text><rect fill="#E3E3E3" height="30.2969" rx="2.5" ry="2.5" style="stroke:#181818;stroke-width:0.5;" width="107" x="186" y="21.2969"/><text fill="#000000" font-family="sans-serif" font-size="14" lengthAdjust="spacing" textLength="93" x="193" y="41.292">:Repositories</text><rect fill="#E3E3E3" height="30.2969" rx="2.5" ry="2.5" style="stroke:#181818;stroke-width:0.5;" width="107" x="186" y="407.6563"/><text fill="#000000" font-family="sans-serif" font-size="14" lengthAdjust="spacing" textLength="93" x="193" y="427.6514">:Repositories</text><rect fill="#E3E3E3" height="46.5938" rx="2.5" ry="2.5" style="stroke:#181818;stroke-width:0.5;" width="107" x="303" y="5"/><text fill="#000000" font-family="sans-serif" font-size="14" lengthAdjust="spacing" textLength="84" x="314.5" y="24.9951">repositories</text><text fill="#000000" font-family="sans-serif" font-size="14" lengthAdjust="spacing" textLength="93" x="310" y="41.292">:Repositories</text><rect fill="#E3E3E3" height="46.5938" rx="2.5" ry="2.5" style="stroke:#181818;stroke-width:0.5;" width="107" x="303" y="407.6563"/><text fill="#000000" font-family="sans-serif" font-size="14" lengthAdjust="spacing" textLength="84" x="314.5" y="427.6514">repositories</text><text fill="#000000" font-family="sans-serif" font-size="14" lengthAdjust="spacing" textLength="93" x="310" y="443.9482">:Repositories</text><rect fill="#FFFFFF" height="314.9297" style="stroke:#181818;stroke-width:1.0;" width="10" x="87.5" y="83.7266"/><rect fill="#FFFFFF" height="156.6641" style="stroke:#181818;stroke-width:1.0;" width="10" x="92.5" y="194.9922"/><rect fill="#FFFFFF" height="29.1328" style="stroke:#181818;stroke-width:1.0;" width="10" x="234.5" y="229.125"/><rect fill="#FFFFFF" height="29.1328" style="stroke:#181818;stroke-width:1.0;" width="10" x="351.5" y="287.3906"/><polygon fill="#181818" points="75.5,79.7266,85.5,83.7266,75.5,87.7266,79.5,83.7266" style="stroke:#181818;stroke-width:1.0;"/><line style="stroke:#181818;stroke-width:1.0;" x1="0" x2="81.5" y1="83.7266" y2="83.7266"/><text fill="#000000" font-family="sans-serif" font-size="13" font-weight="bold" lengthAdjust="spacing" textLength="9" x="7" y="78.6606">3</text><text fill="#000000" font-family="sans-serif" font-size="13" lengthAdjust="spacing" textLength="41" x="20" y="78.6606">create</text><path d="M10,123.7266 L177,123.7266 L177,130.8594 L167,140.8594 L10,140.8594 L10,123.7266 " fill="#EEEEEE" style="stroke:#000000;stroke-width:1.5;"/><rect fill="none" height="267.9297" style="stroke:#000000;stroke-width:1.5;" width="410" x="10" y="123.7266"/><text fill="#000000" font-family="sans-serif" font-size="13" font-weight="bold" lengthAdjust="spacing" textLength="122" x="25" y="136.7935">Get Repositories</text><line style="stroke:#181818;stroke-width:1.0;" x1="97.5" x2="144.5" y1="181.9922" y2="181.9922"/><line style="stroke:#181818;stroke-width:1.0;" x1="144.5" x2="144.5" y1="181.9922" y2="194.9922"/><line style="stroke:#181818;stroke-width:1.0;" x1="103.5" x2="144.5" y1="194.9922" y2="194.9922"/><polygon fill="#181818" points="113.5,190.9922,103.5,194.9922,113.5,198.9922,109.5,194.9922" style="stroke:#181818;stroke-width:1.0;"/><text fill="#000000" font-family="sans-serif" font-size="13" font-weight="bold" lengthAdjust="spacing" textLength="23" x="109.5" y="176.9263">3.1</text><text fill="#000000" font-family="sans-serif" font-size="13" lengthAdjust="spacing" textLength="80" x="136.5" y="176.9263">getAgenda()</text><polygon fill="#181818" points="222.5,225.125,232.5,229.125,222.5,233.125,226.5,229.125" style="stroke:#181818;stroke-width:1.0;"/><line style="stroke:#181818;stroke-width:1.0;" x1="102.5" x2="228.5" y1="229.125" y2="229.125"/><text fill="#000000" font-family="sans-serif" font-size="13" font-weight="bold" lengthAdjust="spacing" textLength="23" x="109.5" y="224.0591">3.2</text><text fill="#000000" font-family="sans-serif" font-size="13" lengthAdjust="spacing" textLength="86" x="136.5" y="224.0591">getInstance()</text><polygon fill="#181818" points="113.5,254.2578,103.5,258.2578,113.5,262.2578,109.5,258.2578" style="stroke:#181818;stroke-width:1.0;"/><line style="stroke:#181818;stroke-width:1.0;stroke-dasharray:2.0,2.0;" x1="107.5" x2="238.5" y1="258.2578" y2="258.2578"/><text fill="#000000" font-family="sans-serif" font-size="13" font-weight="bold" lengthAdjust="spacing" textLength="23" x="119.5" y="253.1919">3.3</text><text fill="#000000" font-family="sans-serif" font-size="13" lengthAdjust="spacing" textLength="77" x="146.5" y="253.1919">repositories</text><polygon fill="#181818" points="339.5,283.3906,349.5,287.3906,339.5,291.3906,343.5,287.3906" style="stroke:#181818;stroke-width:1.0;"/><line style="stroke:#181818;stroke-width:1.0;" x1="102.5" x2="345.5" y1="287.3906" y2="287.3906"/><text fill="#000000" font-family="sans-serif" font-size="13" font-weight="bold" lengthAdjust="spacing" textLength="23" x="109.5" y="282.3247">3.4</text><text fill="#000000" font-family="sans-serif" font-size="13" lengthAdjust="spacing" textLength="80" x="136.5" y="282.3247">getAgenda()</text><polygon fill="#181818" points="113.5,312.5234,103.5,316.5234,113.5,320.5234,109.5,316.5234" style="stroke:#181818;stroke-width:1.0;"/><line style="stroke:#181818;stroke-width:1.0;stroke-dasharray:2.0,2.0;" x1="107.5" x2="355.5" y1="316.5234" y2="316.5234"/><text fill="#000000" font-family="sans-serif" font-size="13" font-weight="bold" lengthAdjust="spacing" textLength="23" x="119.5" y="311.4575">3.5</text><text fill="#000000" font-family="sans-serif" font-size="13" lengthAdjust="spacing" textLength="48" x="146.5" y="311.4575">agenda</text><line style="stroke:#181818;stroke-width:1.0;stroke-dasharray:2.0,2.0;" x1="102.5" x2="144.5" y1="350.6563" y2="350.6563"/><line style="stroke:#181818;stroke-width:1.0;stroke-dasharray:2.0,2.0;" x1="144.5" x2="144.5" y1="350.6563" y2="363.6563"/><line style="stroke:#181818;stroke-width:1.0;stroke-dasharray:2.0,2.0;" x1="97.5" x2="144.5" y1="363.6563" y2="363.6563"/><polygon fill="#181818" points="107.5,359.6563,97.5,363.6563,107.5,367.6563,103.5,363.6563" style="stroke:#181818;stroke-width:1.0;"/><text fill="#000000" font-family="sans-serif" font-size="13" font-weight="bold" lengthAdjust="spacing" textLength="23" x="109.5" y="345.5903">3.6</text><text fill="#000000" font-family="sans-serif" font-size="13" lengthAdjust="spacing" textLength="48" x="136.5" y="345.5903">agenda</text><!--SRC=[bP5FRy8m3CNl_XGMbsq79asxSPY4E4n872RWk8j9JHlHnbMIRaFgXr-R3aZ_26a-9i-_zsoxapObMIgm42Cgir8mUbinkEjFIUf4AU_yEMUqh3oPD8y5BgD4lhL9yKYvOm2gl9YgEB05UCXqmdWKyGVvWQR1QwLBCXvdYsNA9g6L66ybpzdEa1okzjlDGBVbKfpsOZMxeBa-d7Uw3TFOzLjirF5fne2FpN8FSL1yXVbRyCO5Aila6R2fkgvxgkSN8ENrL_FV9ONKIbNYEtkCNQ1jnAW2-cQHik-cVtpgoGPm7DI5Ch603heshhcFuW6sXvxQtaZTrfJB_3P3lEHHVyB_yxjCrbxcpdvwWtHNd4eUA55K2gnx8GDhEjGVPf8I4RgBXSCtCXZz_080]--></g></svg>