<?xml version="1.0" encoding="us-ascii" standalone="no"?><svg xmlns="http://www.w3.org/2000/svg" xmlns:xlink="http://www.w3.org/1999/xlink" contentStyleType="text/css" height="854px" preserveAspectRatio="none" style="width:797px;height:854px;background:#FFFFFF;" version="1.1" viewBox="0 0 797 854" width="797px" zoomAndPan="magnify"><defs/><g><rect fill="#FFFFFF" height="673.3672" style="stroke:#181818;stroke-width:1.0;" width="10" x="82.5" y="91.2969"/><rect fill="#FFFFFF" height="409.2031" style="stroke:#181818;stroke-width:1.0;" width="10" x="362.5" y="112.4297"/><rect fill="#FFFFFF" height="44.2656" style="stroke:#181818;stroke-width:1.0;" width="10" x="362.5" y="550.7656"/><rect fill="#FFFFFF" height="131.5" style="stroke:#181818;stroke-width:1.0;" width="10" x="362.5" y="624.1641"/><rect fill="#FFFFFF" height="325.8047" style="stroke:#181818;stroke-width:1.0;" width="10" x="633.5" y="151.5625"/><rect fill="#FFFFFF" height="73.2344" style="stroke:#181818;stroke-width:1.0;" width="10" x="633.5" y="653.2969"/><line style="stroke:#181818;stroke-width:0.5;stroke-dasharray:5.0,5.0;" x1="87" x2="87" y1="81.2969" y2="773.6641"/><line style="stroke:#181818;stroke-width:0.5;stroke-dasharray:5.0,5.0;" x1="367" x2="367" y1="81.2969" y2="773.6641"/><line style="stroke:#181818;stroke-width:0.5;stroke-dasharray:5.0,5.0;" x1="638" x2="638" y1="151.0781" y2="773.6641"/><text fill="#000000" font-family="sans-serif" font-size="14" lengthAdjust="spacing" textLength="159" x="5" y="77.9951">Green Space Manager</text><ellipse cx="87.5" cy="13.5" fill="#E3E3E3" rx="8" ry="8" style="stroke:#181818;stroke-width:0.5;"/><path d="M87.5,21.5 L87.5,48.5 M74.5,29.5 L100.5,29.5 M87.5,48.5 L74.5,63.5 M87.5,48.5 L100.5,63.5 " fill="none" style="stroke:#181818;stroke-width:0.5;"/><text fill="#000000" font-family="sans-serif" font-size="14" lengthAdjust="spacing" textLength="159" x="5" y="785.6592">Green Space Manager</text><ellipse cx="87.5" cy="797.4609" fill="#E3E3E3" rx="8" ry="8" style="stroke:#181818;stroke-width:0.5;"/><path d="M87.5,805.4609 L87.5,832.4609 M74.5,813.4609 L100.5,813.4609 M87.5,832.4609 L74.5,847.4609 M87.5,832.4609 L100.5,847.4609 " fill="none" style="stroke:#181818;stroke-width:0.5;"/><rect fill="#E3E3E3" height="30.2969" rx="2.5" ry="2.5" style="stroke:#181818;stroke-width:0.5;" width="131" x="302" y="50"/><text fill="#000000" font-family="sans-serif" font-size="14" lengthAdjust="spacing" textLength="117" x="309" y="69.9951">:PostponeTaskUI</text><rect fill="#E3E3E3" height="30.2969" rx="2.5" ry="2.5" style="stroke:#181818;stroke-width:0.5;" width="131" x="302" y="772.6641"/><text fill="#000000" font-family="sans-serif" font-size="14" lengthAdjust="spacing" textLength="117" x="309" y="792.6592">:PostponeTaskUI</text><rect fill="#E3E3E3" height="30.2969" rx="2.5" ry="2.5" style="stroke:#181818;stroke-width:0.5;" width="145" x="566" y="772.6641"/><text fill="#000000" font-family="sans-serif" font-size="14" lengthAdjust="spacing" textLength="131" x="573" y="792.6592">:AgendaController</text><rect fill="#FFFFFF" height="673.3672" style="stroke:#181818;stroke-width:1.0;" width="10" x="82.5" y="91.2969"/><rect fill="#FFFFFF" height="409.2031" style="stroke:#181818;stroke-width:1.0;" width="10" x="362.5" y="112.4297"/><rect fill="#FFFFFF" height="44.2656" style="stroke:#181818;stroke-width:1.0;" width="10" x="362.5" y="550.7656"/><rect fill="#FFFFFF" height="131.5" style="stroke:#181818;stroke-width:1.0;" width="10" x="362.5" y="624.1641"/><rect fill="#FFFFFF" height="325.8047" style="stroke:#181818;stroke-width:1.0;" width="10" x="633.5" y="151.5625"/><rect fill="#FFFFFF" height="73.2344" style="stroke:#181818;stroke-width:1.0;" width="10" x="633.5" y="653.2969"/><polygon fill="#181818" points="350.5,108.4297,360.5,112.4297,350.5,116.4297,354.5,112.4297" style="stroke:#181818;stroke-width:1.0;"/><line style="stroke:#181818;stroke-width:1.0;" x1="92.5" x2="356.5" y1="112.4297" y2="112.4297"/><text fill="#000000" font-family="sans-serif" font-size="13" font-weight="bold" lengthAdjust="spacing" textLength="9" x="99.5" y="107.3638">1</text><text fill="#000000" font-family="sans-serif" font-size="13" lengthAdjust="spacing" textLength="238" x="112.5" y="107.3638">ask to cancel an entry in the Agenda</text><polygon fill="#181818" points="554,137.5625,564,141.5625,554,145.5625,558,141.5625" style="stroke:#181818;stroke-width:1.0;"/><line style="stroke:#181818;stroke-width:1.0;" x1="372.5" x2="560" y1="141.5625" y2="141.5625"/><text fill="#000000" font-family="sans-serif" font-size="13" font-weight="bold" lengthAdjust="spacing" textLength="9" x="379.5" y="136.4966">2</text><text fill="#000000" font-family="sans-serif" font-size="13" lengthAdjust="spacing" textLength="41" x="392.5" y="136.4966">create</text><rect fill="#E3E3E3" height="30.2969" rx="2.5" ry="2.5" style="stroke:#181818;stroke-width:0.5;" width="145" x="566" y="120.4297"/><text fill="#000000" font-family="sans-serif" font-size="14" lengthAdjust="spacing" textLength="131" x="573" y="140.4248">:AgendaController</text><rect fill="none" height="53.0703" style="stroke:#000000;stroke-width:1.5;" width="151" x="563" y="161.7266"/><path d="M563,161.7266 L629,161.7266 L629,168.7266 L619,178.7266 L563,178.7266 L563,161.7266 " fill="#EEEEEE" style="stroke:#000000;stroke-width:2.0;"/><text fill="#000000" font-family="sans-serif" font-size="13" font-weight="bold" lengthAdjust="spacing" textLength="21" x="576" y="175.7935">ref</text><text fill="#000000" font-family="sans-serif" font-size="12" lengthAdjust="spacing" textLength="97" x="590" y="193.8652">Get Repositories</text><text fill="#000000" font-family="sans-serif" font-size="12" lengthAdjust="spacing" textLength="4" x="636.5" y="207.834">&#160;</text><polygon fill="#181818" points="621.5,236.9297,631.5,240.9297,621.5,244.9297,625.5,240.9297" style="stroke:#181818;stroke-width:1.0;"/><line style="stroke:#181818;stroke-width:1.0;" x1="372.5" x2="627.5" y1="240.9297" y2="240.9297"/><text fill="#000000" font-family="sans-serif" font-size="13" font-weight="bold" lengthAdjust="spacing" textLength="9" x="379.5" y="235.8638">3</text><text fill="#000000" font-family="sans-serif" font-size="13" lengthAdjust="spacing" textLength="224" x="392.5" y="235.8638">getAgendaEntriesForResponsible()</text><rect fill="none" height="39.1016" style="stroke:#000000;stroke-width:1.5;" width="151" x="563" y="273.9297"/><path d="M563,273.9297 L629,273.9297 L629,280.9297 L619,290.9297 L563,290.9297 L563,273.9297 " fill="#EEEEEE" style="stroke:#000000;stroke-width:2.0;"/><text fill="#000000" font-family="sans-serif" font-size="13" font-weight="bold" lengthAdjust="spacing" textLength="21" x="576" y="287.9966">ref</text><text fill="#000000" font-family="sans-serif" font-size="12" lengthAdjust="spacing" textLength="97" x="590" y="306.0684">Get Repositories</text><rect fill="none" height="39.1016" style="stroke:#000000;stroke-width:1.5;" width="195" x="563" y="343.0313"/><path d="M563,343.0313 L629,343.0313 L629,350.0313 L619,360.0313 L563,360.0313 L563,343.0313 " fill="#EEEEEE" style="stroke:#000000;stroke-width:2.0;"/><text fill="#000000" font-family="sans-serif" font-size="13" font-weight="bold" lengthAdjust="spacing" textLength="21" x="576" y="357.0981">ref</text><text fill="#000000" font-family="sans-serif" font-size="12" lengthAdjust="spacing" textLength="187" x="567" y="375.1699">Get List of Agenda Repositories</text><rect fill="none" height="39.1016" style="stroke:#000000;stroke-width:1.5;" width="228" x="563" y="412.1328"/><path d="M563,412.1328 L629,412.1328 L629,419.1328 L619,429.1328 L563,429.1328 L563,412.1328 " fill="#EEEEEE" style="stroke:#000000;stroke-width:2.0;"/><text fill="#000000" font-family="sans-serif" font-size="13" font-weight="bold" lengthAdjust="spacing" textLength="21" x="576" y="426.1997">ref</text><text fill="#000000" font-family="sans-serif" font-size="12" lengthAdjust="spacing" textLength="220" x="567" y="444.2715">Get Agenda List DTO for Responsible</text><polygon fill="#181818" points="383.5,473.3672,373.5,477.3672,383.5,481.3672,379.5,477.3672" style="stroke:#181818;stroke-width:1.0;"/><line style="stroke:#181818;stroke-width:1.0;stroke-dasharray:2.0,2.0;" x1="377.5" x2="637.5" y1="477.3672" y2="477.3672"/><text fill="#000000" font-family="sans-serif" font-size="13" font-weight="bold" lengthAdjust="spacing" textLength="9" x="389.5" y="472.3013">4</text><text fill="#000000" font-family="sans-serif" font-size="13" lengthAdjust="spacing" textLength="126" x="402.5" y="472.3013">listAgendaEntryDto</text><polygon fill="#181818" points="103.5,517.6328,93.5,521.6328,103.5,525.6328,99.5,521.6328" style="stroke:#181818;stroke-width:1.0;"/><line style="stroke:#181818;stroke-width:1.0;stroke-dasharray:2.0,2.0;" x1="97.5" x2="366.5" y1="521.6328" y2="521.6328"/><text fill="#000000" font-family="sans-serif" font-size="13" font-weight="bold" lengthAdjust="spacing" textLength="9" x="109.5" y="509.0005">5</text><text fill="#000000" font-family="sans-serif" font-size="13" lengthAdjust="spacing" textLength="172" x="122.5" y="501.4341">shows list of agenda entry</text><text fill="#000000" font-family="sans-serif" font-size="13" lengthAdjust="spacing" textLength="152" x="126.5" y="516.5669">and request a selection</text><polygon fill="#181818" points="350.5,546.7656,360.5,550.7656,350.5,554.7656,354.5,550.7656" style="stroke:#181818;stroke-width:1.0;"/><line style="stroke:#181818;stroke-width:1.0;" x1="92.5" x2="356.5" y1="550.7656" y2="550.7656"/><text fill="#000000" font-family="sans-serif" font-size="13" font-weight="bold" lengthAdjust="spacing" textLength="9" x="99.5" y="545.6997">6</text><text fill="#000000" font-family="sans-serif" font-size="13" lengthAdjust="spacing" textLength="104" x="112.5" y="545.6997">select an option</text><polygon fill="#181818" points="103.5,591.0313,93.5,595.0313,103.5,599.0313,99.5,595.0313" style="stroke:#181818;stroke-width:1.0;"/><line style="stroke:#181818;stroke-width:1.0;stroke-dasharray:2.0,2.0;" x1="97.5" x2="366.5" y1="595.0313" y2="595.0313"/><text fill="#000000" font-family="sans-serif" font-size="13" font-weight="bold" lengthAdjust="spacing" textLength="9" x="109.5" y="582.3989">7</text><text fill="#000000" font-family="sans-serif" font-size="13" lengthAdjust="spacing" textLength="157" x="122.5" y="574.8325">show all data registered</text><text fill="#000000" font-family="sans-serif" font-size="13" lengthAdjust="spacing" textLength="177" x="126.5" y="589.9653">and the confirmation menu</text><polygon fill="#181818" points="350.5,620.1641,360.5,624.1641,350.5,628.1641,354.5,624.1641" style="stroke:#181818;stroke-width:1.0;"/><line style="stroke:#181818;stroke-width:1.0;" x1="92.5" x2="356.5" y1="624.1641" y2="624.1641"/><text fill="#000000" font-family="sans-serif" font-size="13" font-weight="bold" lengthAdjust="spacing" textLength="9" x="99.5" y="619.0981">8</text><text fill="#000000" font-family="sans-serif" font-size="13" lengthAdjust="spacing" textLength="85" x="112.5" y="619.0981">submits data</text><polygon fill="#181818" points="621.5,649.2969,631.5,653.2969,621.5,657.2969,625.5,653.2969" style="stroke:#181818;stroke-width:1.0;"/><line style="stroke:#181818;stroke-width:1.0;" x1="372.5" x2="627.5" y1="653.2969" y2="653.2969"/><text fill="#000000" font-family="sans-serif" font-size="13" font-weight="bold" lengthAdjust="spacing" textLength="9" x="379.5" y="648.231">9</text><text fill="#000000" font-family="sans-serif" font-size="13" lengthAdjust="spacing" textLength="176" x="392.5" y="648.231">cancelTask(agendaTaskID)</text><rect fill="none" height="39.1016" style="stroke:#000000;stroke-width:1.5;" width="151" x="563" y="661.2969"/><path d="M563,661.2969 L629,661.2969 L629,668.2969 L619,678.2969 L563,678.2969 L563,661.2969 " fill="#EEEEEE" style="stroke:#000000;stroke-width:2.0;"/><text fill="#000000" font-family="sans-serif" font-size="13" font-weight="bold" lengthAdjust="spacing" textLength="21" x="576" y="675.3638">ref</text><text fill="#000000" font-family="sans-serif" font-size="12" lengthAdjust="spacing" textLength="71" x="603" y="693.4355">Cancel Task</text><polygon fill="#181818" points="383.5,722.5313,373.5,726.5313,383.5,730.5313,379.5,726.5313" style="stroke:#181818;stroke-width:1.0;"/><line style="stroke:#181818;stroke-width:1.0;" x1="377.5" x2="637.5" y1="726.5313" y2="726.5313"/><text fill="#000000" font-family="sans-serif" font-size="13" font-weight="bold" lengthAdjust="spacing" textLength="18" x="389.5" y="721.4653">10</text><text fill="#000000" font-family="sans-serif" font-size="13" lengthAdjust="spacing" textLength="26" x="411.5" y="721.4653">true</text><polygon fill="#181818" points="103.5,751.6641,93.5,755.6641,103.5,759.6641,99.5,755.6641" style="stroke:#181818;stroke-width:1.0;"/><line style="stroke:#181818;stroke-width:1.0;stroke-dasharray:2.0,2.0;" x1="97.5" x2="366.5" y1="755.6641" y2="755.6641"/><text fill="#000000" font-family="sans-serif" font-size="13" font-weight="bold" lengthAdjust="spacing" textLength="18" x="109.5" y="750.5981">11</text><text fill="#000000" font-family="sans-serif" font-size="13" lengthAdjust="spacing" textLength="184" x="131.5" y="750.5981">shows operation (in)success</text><!--SRC=[bLJ1Rk8m4BtdAqQSe59_WCDAA-XMIArsHU6sby4PWeNZoTfEAoG-VYTs2906rFgKU3plFJy_s- -rhT1X2ILRLZl79K5mDMM-grIezbZGMpWO0aSge2tCvGA_mvm_j2rWYyPJbc4TsDRbXfnygy0EHi-EoCARO16yeXKyDmBqy5HMXWyaJO8LjD8LsW2ZwH_seM9BA_JxzI8kNIzwQtuMP7ESiGsEZMa1PwlbInPfzJi6kY006QS_UFmXU32LZZq41eLMaG6qG89s06qXx0WIG-pi04L6d6Z6UY4u3UF3Ws0fHxAWAtOThIIu68wsmE_aKWrwuva2BAbYhyKxJVwwLoHT281MWV0N59BW9zc3jFrYjoGlBdgzCJIUPCVZCUkHtHSoAEQwtAZfJGtGV8MeOtlHFW1lM_VlaPyLP5Vat_Iw9OgyyzLls4fYBvpBRkqt-lvuYfAHzhF_XtdWj32dNX9E1oUDNHwdSelumqUGPk-O9CKq_hKIp5psyQycgI9uCd8DDTi-_YcRdsAUEffySnKRizQa6x4U4WTe3EGOK9GK8fCSvQsqvguejbljIcpWeIHRVrrSlIbry15xMDHLpDDTRHw6SNAf-LpC9zd0fVjU0cVf5MZmFf_v6ImTUoi-FfQtp_dUMND5BjarrdRYQwN8-m7N_WC0]--></g></svg>