<?xml version="1.0" encoding="us-ascii" standalone="no"?><svg xmlns="http://www.w3.org/2000/svg" xmlns:xlink="http://www.w3.org/1999/xlink" contentStyleType="text/css" height="441px" preserveAspectRatio="none" style="width:863px;height:441px;background:#FFFFFF;" version="1.1" viewBox="0 0 863 441" width="863px" zoomAndPan="magnify"><defs/><g><rect fill="#FFFFFF" height="318.0625" style="stroke:#181818;stroke-width:1.0;" width="10" x="87.5" y="62.5938"/><rect fill="#FFFFFF" height="272.7969" style="stroke:#181818;stroke-width:1.0;" width="10" x="319.5" y="107.8594"/><rect fill="#FFFFFF" height="40.1328" style="stroke:#181818;stroke-width:1.0;" width="10" x="324.5" y="144.9922"/><rect fill="#FFFFFF" height="28" style="stroke:#181818;stroke-width:1.0;" width="10" x="324.5" y="229.2578"/><rect fill="#FFFFFF" height="87.2656" style="stroke:#181818;stroke-width:1.0;" width="10" x="621.5" y="293.3906"/><rect fill="none" height="303.0625" style="stroke:#000000;stroke-width:1.5;" width="738.5" x="10" y="69.5938"/><line style="stroke:#181818;stroke-width:0.5;stroke-dasharray:5.0,5.0;" x1="92" x2="92" y1="52.5938" y2="389.6563"/><line style="stroke:#181818;stroke-width:0.5;stroke-dasharray:5.0,5.0;" x1="324.5" x2="324.5" y1="52.5938" y2="389.6563"/><line style="stroke:#181818;stroke-width:0.5;stroke-dasharray:5.0,5.0;" x1="626" x2="626" y1="52.5938" y2="389.6563"/><line style="stroke:#181818;stroke-width:0.5;stroke-dasharray:5.0,5.0;" x1="777" x2="777" y1="52.5938" y2="389.6563"/><rect fill="#E3E3E3" height="30.2969" rx="2.5" ry="2.5" style="stroke:#181818;stroke-width:0.5;" width="145" x="20" y="21.2969"/><text fill="#000000" font-family="sans-serif" font-size="14" lengthAdjust="spacing" textLength="131" x="27" y="41.292">:AgendaController</text><rect fill="#E3E3E3" height="30.2969" rx="2.5" ry="2.5" style="stroke:#181818;stroke-width:0.5;" width="145" x="20" y="388.6563"/><text fill="#000000" font-family="sans-serif" font-size="14" lengthAdjust="spacing" textLength="131" x="27" y="408.6514">:AgendaController</text><rect fill="#E3E3E3" height="46.5938" rx="2.5" ry="2.5" style="stroke:#181818;stroke-width:0.5;" width="150" x="249.5" y="5"/><text fill="#000000" font-family="sans-serif" font-size="14" lengthAdjust="spacing" textLength="130" x="259.5" y="24.9951">agendaRepository</text><text fill="#000000" font-family="sans-serif" font-size="14" lengthAdjust="spacing" textLength="136" x="256.5" y="41.292">:AgendaRepository</text><rect fill="#E3E3E3" height="46.5938" rx="2.5" ry="2.5" style="stroke:#181818;stroke-width:0.5;" width="150" x="249.5" y="388.6563"/><text fill="#000000" font-family="sans-serif" font-size="14" lengthAdjust="spacing" textLength="130" x="259.5" y="408.6514">agendaRepository</text><text fill="#000000" font-family="sans-serif" font-size="14" lengthAdjust="spacing" textLength="136" x="256.5" y="424.9482">:AgendaRepository</text><rect fill="#E3E3E3" height="46.5938" rx="2.5" ry="2.5" style="stroke:#181818;stroke-width:0.5;" width="123" x="565" y="5"/><text fill="#000000" font-family="sans-serif" font-size="14" lengthAdjust="spacing" textLength="91" x="579" y="24.9951">agendaEntry</text><text fill="#000000" font-family="sans-serif" font-size="14" lengthAdjust="spacing" textLength="109" x="572" y="41.292">:AgendaEntry&gt;</text><rect fill="#E3E3E3" height="46.5938" rx="2.5" ry="2.5" style="stroke:#181818;stroke-width:0.5;" width="123" x="565" y="388.6563"/><text fill="#000000" font-family="sans-serif" font-size="14" lengthAdjust="spacing" textLength="91" x="579" y="408.6514">agendaEntry</text><text fill="#000000" font-family="sans-serif" font-size="14" lengthAdjust="spacing" textLength="109" x="572" y="424.9482">:AgendaEntry&gt;</text><rect fill="#E3E3E3" height="46.5938" rx="2.5" ry="2.5" style="stroke:#181818;stroke-width:0.5;" width="159" x="698" y="5"/><text fill="#000000" font-family="sans-serif" font-size="14" lengthAdjust="spacing" textLength="112" x="721.5" y="24.9951">listAgendaEntry</text><text fill="#000000" font-family="sans-serif" font-size="14" lengthAdjust="spacing" textLength="145" x="705" y="41.292">:List&lt;AgendaEntry&gt;</text><rect fill="#E3E3E3" height="46.5938" rx="2.5" ry="2.5" style="stroke:#181818;stroke-width:0.5;" width="159" x="698" y="388.6563"/><text fill="#000000" font-family="sans-serif" font-size="14" lengthAdjust="spacing" textLength="112" x="721.5" y="408.6514">listAgendaEntry</text><text fill="#000000" font-family="sans-serif" font-size="14" lengthAdjust="spacing" textLength="145" x="705" y="424.9482">:List&lt;AgendaEntry&gt;</text><rect fill="#FFFFFF" height="318.0625" style="stroke:#181818;stroke-width:1.0;" width="10" x="87.5" y="62.5938"/><rect fill="#FFFFFF" height="272.7969" style="stroke:#181818;stroke-width:1.0;" width="10" x="319.5" y="107.8594"/><rect fill="#FFFFFF" height="40.1328" style="stroke:#181818;stroke-width:1.0;" width="10" x="324.5" y="144.9922"/><rect fill="#FFFFFF" height="28" style="stroke:#181818;stroke-width:1.0;" width="10" x="324.5" y="229.2578"/><rect fill="#FFFFFF" height="87.2656" style="stroke:#181818;stroke-width:1.0;" width="10" x="621.5" y="293.3906"/><path d="M10,69.5938 L141,69.5938 L141,76.7266 L131,86.7266 L10,86.7266 L10,69.5938 " fill="#EEEEEE" style="stroke:#000000;stroke-width:1.5;"/><rect fill="none" height="303.0625" style="stroke:#000000;stroke-width:1.5;" width="738.5" x="10" y="69.5938"/><text fill="#000000" font-family="sans-serif" font-size="13" font-weight="bold" lengthAdjust="spacing" textLength="86" x="25" y="82.6606">Cancel task</text><polygon fill="#181818" points="307.5,103.8594,317.5,107.8594,307.5,111.8594,311.5,107.8594" style="stroke:#181818;stroke-width:1.0;"/><line style="stroke:#181818;stroke-width:1.0;" x1="97.5" x2="313.5" y1="107.8594" y2="107.8594"/><text fill="#000000" font-family="sans-serif" font-size="13" font-weight="bold" lengthAdjust="spacing" textLength="23" x="104.5" y="102.7935">3.1</text><text fill="#000000" font-family="sans-serif" font-size="13" lengthAdjust="spacing" textLength="176" x="131.5" y="102.7935">cancelTask(agendaTaskID)</text><line style="stroke:#181818;stroke-width:1.0;" x1="329.5" x2="376.5" y1="131.9922" y2="131.9922"/><line style="stroke:#181818;stroke-width:1.0;" x1="376.5" x2="376.5" y1="131.9922" y2="144.9922"/><line style="stroke:#181818;stroke-width:1.0;" x1="335.5" x2="376.5" y1="144.9922" y2="144.9922"/><polygon fill="#181818" points="345.5,140.9922,335.5,144.9922,345.5,148.9922,341.5,144.9922" style="stroke:#181818;stroke-width:1.0;"/><text fill="#000000" font-family="sans-serif" font-size="13" font-weight="bold" lengthAdjust="spacing" textLength="23" x="341.5" y="126.9263">3.2</text><text fill="#000000" font-family="sans-serif" font-size="13" lengthAdjust="spacing" textLength="251" x="368.5" y="126.9263">getTaskByResponsible(agendaTaskID)</text><line style="stroke:#181818;stroke-width:1.0;stroke-dasharray:2.0,2.0;" x1="334.5" x2="376.5" y1="184.125" y2="184.125"/><line style="stroke:#181818;stroke-width:1.0;stroke-dasharray:2.0,2.0;" x1="376.5" x2="376.5" y1="184.125" y2="197.125"/><line style="stroke:#181818;stroke-width:1.0;stroke-dasharray:2.0,2.0;" x1="329.5" x2="376.5" y1="197.125" y2="197.125"/><polygon fill="#181818" points="339.5,193.125,329.5,197.125,339.5,201.125,335.5,197.125" style="stroke:#181818;stroke-width:1.0;"/><text fill="#000000" font-family="sans-serif" font-size="13" font-weight="bold" lengthAdjust="spacing" textLength="23" x="341.5" y="179.0591">3.3</text><text fill="#000000" font-family="sans-serif" font-size="13" lengthAdjust="spacing" textLength="79" x="368.5" y="179.0591">agendaTask</text><line style="stroke:#181818;stroke-width:1.0;" x1="334.5" x2="376.5" y1="221.2578" y2="221.2578"/><line style="stroke:#181818;stroke-width:1.0;" x1="376.5" x2="376.5" y1="221.2578" y2="234.2578"/><line style="stroke:#181818;stroke-width:1.0;" x1="335.5" x2="376.5" y1="234.2578" y2="234.2578"/><polygon fill="#181818" points="345.5,230.2578,335.5,234.2578,345.5,238.2578,341.5,234.2578" style="stroke:#181818;stroke-width:1.0;"/><text fill="#000000" font-family="sans-serif" font-size="13" font-weight="bold" lengthAdjust="spacing" textLength="23" x="341.5" y="216.1919">3.4</text><text fill="#000000" font-family="sans-serif" font-size="13" lengthAdjust="spacing" textLength="190" x="368.5" y="216.1919">validatesStatus(agendaTask)</text><polygon fill="#181818" points="609.5,289.3906,619.5,293.3906,609.5,297.3906,613.5,293.3906" style="stroke:#181818;stroke-width:1.0;"/><line style="stroke:#181818;stroke-width:1.0;" x1="329.5" x2="615.5" y1="293.3906" y2="293.3906"/><text fill="#000000" font-family="sans-serif" font-size="13" font-weight="bold" lengthAdjust="spacing" textLength="23" x="336.5" y="288.3247">3.5</text><text fill="#000000" font-family="sans-serif" font-size="13" lengthAdjust="spacing" textLength="83" x="363.5" y="288.3247">cancelTask()</text><line style="stroke:#181818;stroke-width:1.0;" x1="631.5" x2="673.5" y1="322.5234" y2="322.5234"/><line style="stroke:#181818;stroke-width:1.0;" x1="673.5" x2="673.5" y1="322.5234" y2="335.5234"/><line style="stroke:#181818;stroke-width:1.0;" x1="632.5" x2="673.5" y1="335.5234" y2="335.5234"/><polygon fill="#181818" points="642.5,331.5234,632.5,335.5234,642.5,339.5234,638.5,335.5234" style="stroke:#181818;stroke-width:1.0;"/><text fill="#000000" font-family="sans-serif" font-size="13" font-weight="bold" lengthAdjust="spacing" textLength="23" x="638.5" y="317.4575">3.6</text><text fill="#000000" font-family="sans-serif" font-size="13" lengthAdjust="spacing" textLength="71" x="665.5" y="317.4575">setStatus()</text><polygon fill="#181818" points="108.5,360.6563,98.5,364.6563,108.5,368.6563,104.5,364.6563" style="stroke:#181818;stroke-width:1.0;"/><line style="stroke:#181818;stroke-width:1.0;stroke-dasharray:2.0,2.0;" x1="102.5" x2="318.5" y1="364.6563" y2="364.6563"/><text fill="#000000" font-family="sans-serif" font-size="13" font-weight="bold" lengthAdjust="spacing" textLength="23" x="114.5" y="359.5903">3.7</text><text fill="#000000" font-family="sans-serif" font-size="13" lengthAdjust="spacing" textLength="26" x="141.5" y="359.5903">true</text><!--SRC=[ZPC_JyCm4CLtVueJ2tG02R6W25M2bW6fKzkHvPfSKwkEBx8lXNnx7AVDdqA1cnBx_PxVNHo_rxP4XmKKR3dTEIu8n5MaVBTJOhh7d5PI6m97gQ3DpL3WTvZnXxOvRD5uKWehOLiL6t9ANUzqHh1bbWr_AgK28ZhL9Lg1g-Gv9vlXZAquDeRS5Q27sNgv6EimofPKijV2hdwtHx9VYcIl-ub_3QVKqB7nTHgvt17PCMAqbu4kK8kmylGDRNHhddDeJG6ceWyerBRGZm4UXqE1Xxjx1Q5onrK9CxGf6H3q-yOZL4F3xNJGJW9fLAs3wAPTRXxVvfC8TESE1j1kTEzZFqWW9saiNkeb-PAjrnj3_xG-TpwtxbtQ51bT37YgNu8UqEWii7ubA9KVP9oCBIuaFTKVASO9ues0P33r_h3EfhqsuqPQi7S0Jt8CFevxgVk0Djy_QN_3Y8HDzGK0]--></g></svg>