<?xml version="1.0" encoding="us-ascii" standalone="no"?><svg xmlns="http://www.w3.org/2000/svg" xmlns:xlink="http://www.w3.org/1999/xlink" contentStyleType="text/css" height="664px" preserveAspectRatio="none" style="width:1402px;height:664px;background:#FFFFFF;" version="1.1" viewBox="0 0 1402 664" width="1402px" zoomAndPan="magnify"><defs/><g><!--class CancelAgendaTaskUI--><g id="elem_CancelAgendaTaskUI"><rect codeLine="9" fill="#F1F1F1" height="48" id="CancelAgendaTaskUI" rx="2.5" ry="2.5" style="stroke:#181818;stroke-width:0.5;" width="183" x="7" y="39.5"/><ellipse cx="22" cy="55.5" fill="#ADD1B2" rx="11" ry="11" style="stroke:#181818;stroke-width:1.0;"/><path d="M24.9688,61.1406 Q24.3906,61.4375 23.75,61.5781 Q23.1094,61.7344 22.4063,61.7344 Q19.9063,61.7344 18.5781,60.0938 Q17.2656,58.4375 17.2656,55.3125 Q17.2656,52.1875 18.5781,50.5313 Q19.9063,48.875 22.4063,48.875 Q23.1094,48.875 23.75,49.0313 Q24.4063,49.1875 24.9688,49.4844 L24.9688,52.2031 Q24.3438,51.625 23.75,51.3594 Q23.1563,51.0781 22.5313,51.0781 Q21.1875,51.0781 20.5,52.1563 Q19.8125,53.2188 19.8125,55.3125 Q19.8125,57.4063 20.5,58.4844 Q21.1875,59.5469 22.5313,59.5469 Q23.1563,59.5469 23.75,59.2813 Q24.3438,59 24.9688,58.4219 L24.9688,61.1406 Z " fill="#000000"/><text fill="#000000" font-family="sans-serif" font-size="14" lengthAdjust="spacing" textLength="151" x="36" y="60.3467">CancelAgendaTaskUI</text><line style="stroke:#181818;stroke-width:0.5;" x1="8" x2="189" y1="71.5" y2="71.5"/><line style="stroke:#181818;stroke-width:0.5;" x1="8" x2="189" y1="79.5" y2="79.5"/></g><!--class AgendaController--><g id="elem_AgendaController"><rect codeLine="13" fill="#F1F1F1" height="113.1875" id="AgendaController" rx="2.5" ry="2.5" style="stroke:#181818;stroke-width:0.5;" width="403" x="225" y="7"/><ellipse cx="359.25" cy="23" fill="#ADD1B2" rx="11" ry="11" style="stroke:#181818;stroke-width:1.0;"/><path d="M362.2188,28.6406 Q361.6406,28.9375 361,29.0781 Q360.3594,29.2344 359.6563,29.2344 Q357.1563,29.2344 355.8281,27.5938 Q354.5156,25.9375 354.5156,22.8125 Q354.5156,19.6875 355.8281,18.0313 Q357.1563,16.375 359.6563,16.375 Q360.3594,16.375 361,16.5313 Q361.6563,16.6875 362.2188,16.9844 L362.2188,19.7031 Q361.5938,19.125 361,18.8594 Q360.4063,18.5781 359.7813,18.5781 Q358.4375,18.5781 357.75,19.6563 Q357.0625,20.7188 357.0625,22.8125 Q357.0625,24.9063 357.75,25.9844 Q358.4375,27.0469 359.7813,27.0469 Q360.4063,27.0469 361,26.7813 Q361.5938,26.5 362.2188,25.9219 L362.2188,28.6406 Z " fill="#000000"/><text fill="#000000" font-family="sans-serif" font-size="14" lengthAdjust="spacing" textLength="126" x="379.75" y="27.8467">AgendaController</text><line style="stroke:#181818;stroke-width:0.5;" x1="226" x2="627" y1="39" y2="39"/><text fill="#000000" font-family="sans-serif" font-size="14" lengthAdjust="spacing" textLength="270" x="231" y="55.9951">-AgendaRepository agendaRepository</text><line style="stroke:#181818;stroke-width:0.5;" x1="226" x2="627" y1="63.2969" y2="63.2969"/><text fill="#000000" font-family="sans-serif" font-size="14" lengthAdjust="spacing" textLength="148" x="231" y="80.292">+AgendaController()</text><text fill="#000000" font-family="sans-serif" font-size="14" lengthAdjust="spacing" textLength="93" x="231" y="96.5889">-getAgenda()</text><text fill="#000000" font-family="sans-serif" font-size="14" lengthAdjust="spacing" textLength="391" x="231" y="112.8857">+postponeTask(int agendaTaskID, Data postponeDate)</text></g><!--class Repositories--><g id="elem_Repositories"><rect codeLine="20" fill="#F1F1F1" height="113.1875" id="Repositories" rx="2.5" ry="2.5" style="stroke:#181818;stroke-width:0.5;" width="237" x="758" y="7"/><ellipse cx="828.25" cy="23" fill="#ADD1B2" rx="11" ry="11" style="stroke:#181818;stroke-width:1.0;"/><path d="M831.2188,28.6406 Q830.6406,28.9375 830,29.0781 Q829.3594,29.2344 828.6563,29.2344 Q826.1563,29.2344 824.8281,27.5938 Q823.5156,25.9375 823.5156,22.8125 Q823.5156,19.6875 824.8281,18.0313 Q826.1563,16.375 828.6563,16.375 Q829.3594,16.375 830,16.5313 Q830.6563,16.6875 831.2188,16.9844 L831.2188,19.7031 Q830.5938,19.125 830,18.8594 Q829.4063,18.5781 828.7813,18.5781 Q827.4375,18.5781 826.75,19.6563 Q826.0625,20.7188 826.0625,22.8125 Q826.0625,24.9063 826.75,25.9844 Q827.4375,27.0469 828.7813,27.0469 Q829.4063,27.0469 830,26.7813 Q830.5938,26.5 831.2188,25.9219 L831.2188,28.6406 Z " fill="#000000"/><text fill="#000000" font-family="sans-serif" font-size="14" lengthAdjust="spacing" textLength="88" x="848.75" y="27.8467">Repositories</text><line style="stroke:#181818;stroke-width:0.5;" x1="759" x2="994" y1="39" y2="39"/><line style="stroke:#181818;stroke-width:0.5;" x1="759" x2="994" y1="47" y2="47"/><text fill="#000000" font-family="sans-serif" font-size="14" lengthAdjust="spacing" textLength="103" x="764" y="63.9951">-Repositories()</text><text fill="#000000" font-family="sans-serif" font-size="14" lengthAdjust="spacing" textLength="206" x="764" y="80.292">+getInstance() : Repositories</text><text fill="#000000" font-family="sans-serif" font-size="14" lengthAdjust="spacing" textLength="100" x="764" y="96.5889">+getAgenda()</text><text fill="#000000" font-family="sans-serif" font-size="14" lengthAdjust="spacing" textLength="225" x="764" y="112.8857">+getAuthenticationRepository()</text></g><!--class AuthenticationRepository--><g id="elem_AuthenticationRepository"><rect codeLine="27" fill="#F1F1F1" height="64.2969" id="AuthenticationRepository" rx="2.5" ry="2.5" style="stroke:#181818;stroke-width:0.5;" width="212" x="770.5" y="197"/><ellipse cx="785.5" cy="213" fill="#ADD1B2" rx="11" ry="11" style="stroke:#181818;stroke-width:1.0;"/><path d="M788.4688,218.6406 Q787.8906,218.9375 787.25,219.0781 Q786.6094,219.2344 785.9063,219.2344 Q783.4063,219.2344 782.0781,217.5938 Q780.7656,215.9375 780.7656,212.8125 Q780.7656,209.6875 782.0781,208.0313 Q783.4063,206.375 785.9063,206.375 Q786.6094,206.375 787.25,206.5313 Q787.9063,206.6875 788.4688,206.9844 L788.4688,209.7031 Q787.8438,209.125 787.25,208.8594 Q786.6563,208.5781 786.0313,208.5781 Q784.6875,208.5781 784,209.6563 Q783.3125,210.7188 783.3125,212.8125 Q783.3125,214.9063 784,215.9844 Q784.6875,217.0469 786.0313,217.0469 Q786.6563,217.0469 787.25,216.7813 Q787.8438,216.5 788.4688,215.9219 L788.4688,218.6406 Z " fill="#000000"/><text fill="#000000" font-family="sans-serif" font-size="14" lengthAdjust="spacing" textLength="180" x="799.5" y="217.8467">AuthenticationRepository</text><line style="stroke:#181818;stroke-width:0.5;" x1="771.5" x2="981.5" y1="229" y2="229"/><line style="stroke:#181818;stroke-width:0.5;" x1="771.5" x2="981.5" y1="237" y2="237"/><text fill="#000000" font-family="sans-serif" font-size="14" lengthAdjust="spacing" textLength="185" x="776.5" y="253.9951">+getCurrentUserSession()</text></g><!--class UserSession--><g id="elem_UserSession"><rect codeLine="31" fill="#F1F1F1" height="64.2969" id="UserSession" rx="2.5" ry="2.5" style="stroke:#181818;stroke-width:0.5;" width="118" x="1277.5" y="197"/><ellipse cx="1292.5" cy="213" fill="#ADD1B2" rx="11" ry="11" style="stroke:#181818;stroke-width:1.0;"/><path d="M1295.4688,218.6406 Q1294.8906,218.9375 1294.25,219.0781 Q1293.6094,219.2344 1292.9063,219.2344 Q1290.4063,219.2344 1289.0781,217.5938 Q1287.7656,215.9375 1287.7656,212.8125 Q1287.7656,209.6875 1289.0781,208.0313 Q1290.4063,206.375 1292.9063,206.375 Q1293.6094,206.375 1294.25,206.5313 Q1294.9063,206.6875 1295.4688,206.9844 L1295.4688,209.7031 Q1294.8438,209.125 1294.25,208.8594 Q1293.6563,208.5781 1293.0313,208.5781 Q1291.6875,208.5781 1291,209.6563 Q1290.3125,210.7188 1290.3125,212.8125 Q1290.3125,214.9063 1291,215.9844 Q1291.6875,217.0469 1293.0313,217.0469 Q1293.6563,217.0469 1294.25,216.7813 Q1294.8438,216.5 1295.4688,215.9219 L1295.4688,218.6406 Z " fill="#000000"/><text fill="#000000" font-family="sans-serif" font-size="14" lengthAdjust="spacing" textLength="86" x="1306.5" y="217.8467">UserSession</text><line style="stroke:#181818;stroke-width:0.5;" x1="1278.5" x2="1394.5" y1="229" y2="229"/><line style="stroke:#181818;stroke-width:0.5;" x1="1278.5" x2="1394.5" y1="237" y2="237"/><text fill="#000000" font-family="sans-serif" font-size="14" lengthAdjust="spacing" textLength="90" x="1283.5" y="253.9951">+getUserId()</text></g><!--class Email--><g id="elem_Email"><rect codeLine="35" fill="#F1F1F1" height="64.2969" id="Email" rx="2.5" ry="2.5" style="stroke:#181818;stroke-width:0.5;" width="97" x="1288" y="370.5"/><ellipse cx="1314.25" cy="386.5" fill="#ADD1B2" rx="11" ry="11" style="stroke:#181818;stroke-width:1.0;"/><path d="M1317.2188,392.1406 Q1316.6406,392.4375 1316,392.5781 Q1315.3594,392.7344 1314.6563,392.7344 Q1312.1563,392.7344 1310.8281,391.0938 Q1309.5156,389.4375 1309.5156,386.3125 Q1309.5156,383.1875 1310.8281,381.5313 Q1312.1563,379.875 1314.6563,379.875 Q1315.3594,379.875 1316,380.0313 Q1316.6563,380.1875 1317.2188,380.4844 L1317.2188,383.2031 Q1316.5938,382.625 1316,382.3594 Q1315.4063,382.0781 1314.7813,382.0781 Q1313.4375,382.0781 1312.75,383.1563 Q1312.0625,384.2188 1312.0625,386.3125 Q1312.0625,388.4063 1312.75,389.4844 Q1313.4375,390.5469 1314.7813,390.5469 Q1315.4063,390.5469 1316,390.2813 Q1316.5938,390 1317.2188,389.4219 L1317.2188,392.1406 Z " fill="#000000"/><text fill="#000000" font-family="sans-serif" font-size="14" lengthAdjust="spacing" textLength="40" x="1330.75" y="391.3467">Email</text><line style="stroke:#181818;stroke-width:0.5;" x1="1289" x2="1384" y1="402.5" y2="402.5"/><line style="stroke:#181818;stroke-width:0.5;" x1="1289" x2="1384" y1="410.5" y2="410.5"/><text fill="#000000" font-family="sans-serif" font-size="14" lengthAdjust="spacing" textLength="85" x="1294" y="427.4951">+getEmail()</text></g><!--class AgendaRepository--><g id="elem_AgendaRepository"><rect codeLine="41" fill="#F1F1F1" height="129.4844" id="AgendaRepository" rx="2.5" ry="2.5" style="stroke:#181818;stroke-width:0.5;" width="548" x="704.5" y="338"/><ellipse cx="908.75" cy="354" fill="#ADD1B2" rx="11" ry="11" style="stroke:#181818;stroke-width:1.0;"/><path d="M911.7188,359.6406 Q911.1406,359.9375 910.5,360.0781 Q909.8594,360.2344 909.1563,360.2344 Q906.6563,360.2344 905.3281,358.5938 Q904.0156,356.9375 904.0156,353.8125 Q904.0156,350.6875 905.3281,349.0313 Q906.6563,347.375 909.1563,347.375 Q909.8594,347.375 910.5,347.5313 Q911.1563,347.6875 911.7188,347.9844 L911.7188,350.7031 Q911.0938,350.125 910.5,349.8594 Q909.9063,349.5781 909.2813,349.5781 Q907.9375,349.5781 907.25,350.6563 Q906.5625,351.7188 906.5625,353.8125 Q906.5625,355.9063 907.25,356.9844 Q907.9375,358.0469 909.2813,358.0469 Q909.9063,358.0469 910.5,357.7813 Q911.0938,357.5 911.7188,356.9219 L911.7188,359.6406 Z " fill="#000000"/><text fill="#000000" font-family="sans-serif" font-size="14" lengthAdjust="spacing" textLength="131" x="929.25" y="358.8467">AgendaRepository</text><line style="stroke:#181818;stroke-width:0.5;" x1="705.5" x2="1251.5" y1="370" y2="370"/><text fill="#000000" font-family="sans-serif" font-size="14" lengthAdjust="spacing" textLength="252" x="710.5" y="386.9951">-List&lt;AgendaEntry&gt; agendaEntries</text><line style="stroke:#181818;stroke-width:0.5;" x1="705.5" x2="1251.5" y1="394.2969" y2="394.2969"/><text fill="#000000" font-family="sans-serif" font-size="14" lengthAdjust="spacing" textLength="362" x="710.5" y="411.292">+cancelTask(int agendaTaskID, String responsible)</text><text fill="#000000" font-family="sans-serif" font-size="14" lengthAdjust="spacing" textLength="379" x="710.5" y="427.5889">-getAgendaEntriesForResponsible(String responsible)</text><text fill="#000000" font-family="sans-serif" font-size="14" lengthAdjust="spacing" textLength="536" x="710.5" y="443.8857">-getTaskByResposible(int agendaTaskID, List&lt;AgendaEntry&gt; agendaTasks)</text><text fill="#000000" font-family="sans-serif" font-size="14" lengthAdjust="spacing" textLength="316" x="710.5" y="460.1826">-validatesStatus(AgendaEntry taskInAgenda)</text></g><!--class AgendaMapper--><g id="elem_AgendaMapper"><rect codeLine="52" fill="#F1F1F1" height="96.8906" id="AgendaMapper" rx="2.5" ry="2.5" style="stroke:#181818;stroke-width:0.5;" width="320" x="133.5" y="354"/><ellipse cx="234.75" cy="370" fill="#ADD1B2" rx="11" ry="11" style="stroke:#181818;stroke-width:1.0;"/><path d="M237.7188,375.6406 Q237.1406,375.9375 236.5,376.0781 Q235.8594,376.2344 235.1563,376.2344 Q232.6563,376.2344 231.3281,374.5938 Q230.0156,372.9375 230.0156,369.8125 Q230.0156,366.6875 231.3281,365.0313 Q232.6563,363.375 235.1563,363.375 Q235.8594,363.375 236.5,363.5313 Q237.1563,363.6875 237.7188,363.9844 L237.7188,366.7031 Q237.0938,366.125 236.5,365.8594 Q235.9063,365.5781 235.2813,365.5781 Q233.9375,365.5781 233.25,366.6563 Q232.5625,367.7188 232.5625,369.8125 Q232.5625,371.9063 233.25,372.9844 Q233.9375,374.0469 235.2813,374.0469 Q235.9063,374.0469 236.5,373.7813 Q237.0938,373.5 237.7188,372.9219 L237.7188,375.6406 Z " fill="#000000"/><text fill="#000000" font-family="sans-serif" font-size="14" lengthAdjust="spacing" textLength="109" x="255.25" y="374.8467">AgendaMapper</text><line style="stroke:#181818;stroke-width:0.5;" x1="134.5" x2="452.5" y1="386" y2="386"/><line style="stroke:#181818;stroke-width:0.5;" x1="134.5" x2="452.5" y1="394" y2="394"/><text fill="#000000" font-family="sans-serif" font-size="14" lengthAdjust="spacing" textLength="131" x="139.5" y="410.9951">+AgendaMapper()</text><text fill="#000000" font-family="sans-serif" font-size="14" lengthAdjust="spacing" textLength="308" x="139.5" y="427.292">+toDto(List&lt;AgendaEntry&gt; agendaEntries)</text><text fill="#000000" font-family="sans-serif" font-size="14" lengthAdjust="spacing" textLength="241" x="139.5" y="443.5889">-toDto(AgendaEntry agendaEntry)</text></g><!--class AgendaEntryDTO--><g id="elem_AgendaEntryDTO"><rect codeLine="58" fill="#F1F1F1" height="113.1875" id="AgendaEntryDTO" rx="2.5" ry="2.5" style="stroke:#181818;stroke-width:0.5;" width="344" x="121.5" y="544"/><ellipse cx="227.75" cy="560" fill="#ADD1B2" rx="11" ry="11" style="stroke:#181818;stroke-width:1.0;"/><path d="M230.7188,565.6406 Q230.1406,565.9375 229.5,566.0781 Q228.8594,566.2344 228.1563,566.2344 Q225.6563,566.2344 224.3281,564.5938 Q223.0156,562.9375 223.0156,559.8125 Q223.0156,556.6875 224.3281,555.0313 Q225.6563,553.375 228.1563,553.375 Q228.8594,553.375 229.5,553.5313 Q230.1563,553.6875 230.7188,553.9844 L230.7188,556.7031 Q230.0938,556.125 229.5,555.8594 Q228.9063,555.5781 228.2813,555.5781 Q226.9375,555.5781 226.25,556.6563 Q225.5625,557.7188 225.5625,559.8125 Q225.5625,561.9063 226.25,562.9844 Q226.9375,564.0469 228.2813,564.0469 Q228.9063,564.0469 229.5,563.7813 Q230.0938,563.5 230.7188,562.9219 L230.7188,565.6406 Z " fill="#000000"/><text fill="#000000" font-family="sans-serif" font-size="14" lengthAdjust="spacing" textLength="123" x="248.25" y="564.8467">AgendaEntryDTO</text><line style="stroke:#181818;stroke-width:0.5;" x1="122.5" x2="464.5" y1="576" y2="576"/><text fill="#000000" font-family="sans-serif" font-size="14" lengthAdjust="spacing" textLength="148" x="127.5" y="592.9951">-AgendaEntry objDto</text><line style="stroke:#181818;stroke-width:0.5;" x1="122.5" x2="464.5" y1="600.2969" y2="600.2969"/><text fill="#000000" font-family="sans-serif" font-size="14" lengthAdjust="spacing" textLength="332" x="127.5" y="617.292">+AgendaEntryDTO(AgendaEntry agendaEntry)</text><text fill="#000000" font-family="sans-serif" font-size="14" lengthAdjust="spacing" textLength="94" x="127.5" y="633.5889">+getObjDto()</text><text fill="#000000" font-family="sans-serif" font-size="14" lengthAdjust="spacing" textLength="131" x="127.5" y="649.8857">+getResponsible()</text></g><!--class enum_Status--><g id="elem_enum_Status"><rect codeLine="68" fill="#F1F1F1" height="113.1875" id="enum_Status" rx="2.5" ry="2.5" style="stroke:#181818;stroke-width:0.5;" width="124" x="545.5" y="346"/><ellipse cx="560.5" cy="362" fill="#ADD1B2" rx="11" ry="11" style="stroke:#181818;stroke-width:1.0;"/><path d="M563.4688,367.6406 Q562.8906,367.9375 562.25,368.0781 Q561.6094,368.2344 560.9063,368.2344 Q558.4063,368.2344 557.0781,366.5938 Q555.7656,364.9375 555.7656,361.8125 Q555.7656,358.6875 557.0781,357.0313 Q558.4063,355.375 560.9063,355.375 Q561.6094,355.375 562.25,355.5313 Q562.9063,355.6875 563.4688,355.9844 L563.4688,358.7031 Q562.8438,358.125 562.25,357.8594 Q561.6563,357.5781 561.0313,357.5781 Q559.6875,357.5781 559,358.6563 Q558.3125,359.7188 558.3125,361.8125 Q558.3125,363.9063 559,364.9844 Q559.6875,366.0469 561.0313,366.0469 Q561.6563,366.0469 562.25,365.7813 Q562.8438,365.5 563.4688,364.9219 L563.4688,367.6406 Z " fill="#000000"/><text fill="#000000" font-family="sans-serif" font-size="14" lengthAdjust="spacing" textLength="92" x="574.5" y="366.8467">enum_Status</text><line style="stroke:#181818;stroke-width:0.5;" x1="546.5" x2="668.5" y1="378" y2="378"/><text fill="#000000" font-family="sans-serif" font-size="14" lengthAdjust="spacing" textLength="66" x="551.5" y="394.9951">PLANNED</text><text fill="#000000" font-family="sans-serif" font-size="14" lengthAdjust="spacing" textLength="77" x="551.5" y="411.292">CANCELED</text><text fill="#000000" font-family="sans-serif" font-size="14" lengthAdjust="spacing" textLength="41" x="551.5" y="427.5889">DONE</text><line style="stroke:#181818;stroke-width:0.5;" x1="546.5" x2="668.5" y1="434.8906" y2="434.8906"/><text fill="#000000" font-family="sans-serif" font-size="14" lengthAdjust="spacing" textLength="78" x="551.5" y="451.8857">+toString()</text></g><!--link CancelAgendaTaskUI to AgendaController--><g id="link_CancelAgendaTaskUI_AgendaController"><path codeLine="79" d="M190.27,63.5 C200.78,63.5 207.83,63.5 207.83,63.5 C207.83,63.5 208.67,63.5 218.92,63.5 " fill="none" id="CancelAgendaTaskUI-to-AgendaController" style="stroke:#181818;stroke-width:1.0;stroke-dasharray:7.0,7.0;"/><polygon fill="#181818" points="224.92,63.5,215.92,59.5,219.92,63.5,215.92,67.5,224.92,63.5" style="stroke:#181818;stroke-width:1.0;"/></g><!--link AgendaController to AgendaMapper--><g id="link_AgendaController_AgendaMapper"><path codeLine="81" d="M404.74,120.02 C381.97,178.13 349.5,261 349.5,261 C349.5,261 330.932,307.5966 314.682,348.3566 " fill="none" id="AgendaController-to-AgendaMapper" style="stroke:#181818;stroke-width:1.0;stroke-dasharray:7.0,7.0;"/><polygon fill="#181818" points="312.46,353.93,319.5086,347.0512,314.3116,349.2855,312.0774,344.0886,312.46,353.93" style="stroke:#181818;stroke-width:1.0;"/><text fill="#000000" font-family="sans-serif" font-size="13" lengthAdjust="spacing" textLength="132" x="374.5" y="233.5669">sendToDoEntryList()</text></g><!--reverse link AgendaController to AgendaMapper--><g id="link_AgendaController_AgendaMapper"><path codeLine="82" d="M317.5328,122.9564 C249.9428,159.2164 179.5,197 179.5,197 C179.5,197 179.5,261 179.5,261 C179.5,261 221.83,313.17 254.9,353.93 " fill="none" id="AgendaController-backto-AgendaMapper" style="stroke:#181818;stroke-width:1.0;stroke-dasharray:7.0,7.0;"/><polygon fill="#181818" points="322.82,120.12,312.9982,120.8498,318.414,122.4837,316.7801,127.8995,322.82,120.12" style="stroke:#181818;stroke-width:1.0;"/><text fill="#000000" font-family="sans-serif" font-size="13" lengthAdjust="spacing" textLength="160" x="180.5" y="233.5669">sendToDoEntryListDTO()</text></g><!--link AgendaMapper to AgendaEntryDTO--><g id="link_AgendaMapper_AgendaEntryDTO"><path codeLine="83" d="M289.94,451.07 C288.21,474.17 286.5,497 286.5,497 C286.5,497 286.5,514 286.5,514 C286.5,514 287.1193,521.5901 288.4593,537.9201 " fill="none" id="AgendaMapper-to-AgendaEntryDTO" style="stroke:#181818;stroke-width:1.0;stroke-dasharray:7.0,7.0;"/><polygon fill="#181818" points="288.95,543.9,292.2006,534.603,288.5411,538.9167,284.2274,535.2573,288.95,543.9" style="stroke:#181818;stroke-width:1.0;"/></g><!--link AgendaEntryDTO to AgendaMapper--><g id="link_AgendaEntryDTO_AgendaMapper"><path codeLine="92" d="M293.5,543.93 C293.5,514.68 293.5,485.18 293.5,457.2 " fill="none" id="AgendaEntryDTO-to-AgendaMapper" style="stroke:#181818;stroke-width:1.0;stroke-dasharray:7.0,7.0;"/><polygon fill="#181818" points="293.5,451.2,289.5,460.2,293.5,456.2,297.5,460.2,293.5,451.2" style="stroke:#181818;stroke-width:1.0;"/><text fill="#000000" font-family="sans-serif" font-size="13" lengthAdjust="spacing" textLength="99" x="294.5" y="510.0669">returns Dto Obj</text></g><!--link Repositories to AuthenticationRepository--><g id="link_Repositories_AuthenticationRepository"><path codeLine="84" d="M876.5,120.31 C876.5,145.84 876.5,169.14 876.5,190.73 " fill="none" id="Repositories-to-AuthenticationRepository" style="stroke:#181818;stroke-width:1.0;"/><polygon fill="#181818" points="876.5,196.73,880.5,187.73,876.5,191.73,872.5,187.73,876.5,196.73" style="stroke:#181818;stroke-width:1.0;"/><text fill="#000000" font-family="sans-serif" font-size="13" lengthAdjust="spacing" textLength="55" x="877.5" y="163.0669">contains</text><text fill="#000000" font-family="sans-serif" font-size="13" lengthAdjust="spacing" textLength="8" x="868.0125" y="140.2113">1</text><text fill="#000000" font-family="sans-serif" font-size="13" lengthAdjust="spacing" textLength="8" x="867.7125" y="185.951">1</text></g><!--link AuthenticationRepository to UserSession--><g id="link_AuthenticationRepository_UserSession"><path codeLine="85" d="M982.61,229 C1074.15,229 1197.01,229 1271.33,229 " fill="none" id="AuthenticationRepository-to-UserSession" style="stroke:#181818;stroke-width:1.0;"/><polygon fill="#181818" points="1277.33,229,1268.33,225,1272.33,229,1268.33,233,1277.33,229" style="stroke:#181818;stroke-width:1.0;"/><text fill="#000000" font-family="sans-serif" font-size="13" lengthAdjust="spacing" textLength="55" x="1102.5" y="222.0669">contains</text></g><!--link UserSession to Email--><g id="link_UserSession_Email"><path codeLine="86" d="M1336.5,261.06 C1336.5,292.04 1336.5,333.38 1336.5,364.38 " fill="none" id="UserSession-to-Email" style="stroke:#181818;stroke-width:1.0;"/><polygon fill="#181818" points="1336.5,370.38,1340.5,361.38,1336.5,365.38,1332.5,361.38,1336.5,370.38" style="stroke:#181818;stroke-width:1.0;"/><text fill="#000000" font-family="sans-serif" font-size="13" lengthAdjust="spacing" textLength="55" x="1337.5" y="304.0669">contains</text><text fill="#000000" font-family="sans-serif" font-size="13" lengthAdjust="spacing" textLength="8" x="1327.675" y="281.2692">1</text><text fill="#000000" font-family="sans-serif" font-size="13" lengthAdjust="spacing" textLength="7" x="1328.7781" y="359.2584">*</text></g><!--link AgendaController to Repositories--><g id="link_AgendaController_Repositories"><path codeLine="87" d="M628.14,63.5 C672.45,63.5 711.98,63.5 751.76,63.5 " fill="none" id="AgendaController-to-Repositories" style="stroke:#181818;stroke-width:1.0;stroke-dasharray:7.0,7.0;"/><polygon fill="#181818" points="757.76,63.5,748.76,59.5,752.76,63.5,748.76,67.5,757.76,63.5" style="stroke:#181818;stroke-width:1.0;"/><text fill="#000000" font-family="sans-serif" font-size="13" lengthAdjust="spacing" textLength="77" x="654.5" y="56.5669">repositories</text></g><!--link Repositories to AgendaRepository--><g id="link_Repositories_AgendaRepository"><path codeLine="88" d="M928.73,120.31 C962.62,156.52 1000.5,197 1000.5,197 C1000.5,197 1000.5,261 1000.5,261 C1000.5,261 995.2179,294.7222 989.3979,331.9022 " fill="none" id="Repositories-to-AgendaRepository" style="stroke:#181818;stroke-width:1.0;"/><polygon fill="#181818" points="988.47,337.83,993.8137,329.5569,989.2433,332.8902,985.91,328.3197,988.47,337.83" style="stroke:#181818;stroke-width:1.0;"/><text fill="#000000" font-family="sans-serif" font-size="13" lengthAdjust="spacing" textLength="8" x="976.9042" y="326.9841">1</text></g><!--link Repositories to Repositories--><g id="link_Repositories_Repositories"><path codeLine="89" d="M995.25,47.01 C1015.76,49.24 1030,54.73 1030,63.5 C1030,72.27 1021.7248,77.1115 1001.2148,79.3415 " fill="none" id="Repositories-to-Repositories" style="stroke:#181818;stroke-width:1.0;"/><polygon fill="#181818" points="995.25,79.99,1004.6296,82.9938,1000.2207,79.4495,1003.7649,75.0406,995.25,79.99" style="stroke:#181818;stroke-width:1.0;"/><text fill="#000000" font-family="sans-serif" font-size="13" lengthAdjust="spacing" textLength="55" x="1036" y="68.0669">instance</text></g><!--link AgendaController to AgendaRepository--><g id="link_AgendaController_AgendaRepository"><path codeLine="90" d="M484.99,120.02 C546.2,178.13 633.5,261 633.5,261 C633.5,261 725.4931,298.4671 816.8431,335.6671 " fill="none" id="AgendaController-to-AgendaRepository" style="stroke:#181818;stroke-width:1.0;stroke-dasharray:7.0,7.0;"/><polygon fill="#181818" points="822.4,337.93,815.5732,330.831,817.7692,336.0442,812.556,338.2402,822.4,337.93" style="stroke:#181818;stroke-width:1.0;"/><text fill="#000000" font-family="sans-serif" font-size="13" lengthAdjust="spacing" textLength="118" x="634.5" y="233.5669">agendaRepository</text></g><!--link enum_Status to AgendaRepository--><g id="link_enum_Status_AgendaRepository"><path codeLine="93" d="M669.7,402.5 C681.85,402.5 693.98,402.5 704.21,402.5 " fill="none" id="enum_Status-AgendaRepository" style="stroke:#181818;stroke-width:1.0;"/></g><!--SRC=[XLLHRnen37xFhuXuWOw1jbSq8J6EIKWTdKgxroazNCW8oIancsvJ__kSkznThe6L5uZz-RDZVp53TvIw45QS-Cbean-iEG57UmRMUGgH7yKUjbWgu1Po57glOe0xY9tvBVMUFmlbOe-I6h0iW1T6bVx0XXUSngA9Wd8bd5iWMlbqHbZdHc_b7-0Vs531Ct8qtChz0VbE-cAaqOnL8NmfT0vgiGUz4m_27H_N_2zxOOsxTYoDHckK0ajEJfz9SDn3OPn4OqikNXagt3WX6Dq4WZrWxGkMCTtNOM4q-396KcEWzCTrzfvd0aMBeGFSC2gqBhDDAy6r9SR6DWcbNMk7_jQZ6pxhWJh8gygyvOm7q2XpuRlNNPCmBssphc12HHNFycmjOHuTs2quHxYO8JB7GTwytiN0rKb85KCgGutepoufOt8h7NwgdIiQIpaFZVQ7hWjv9OmhizWIagHhmT4md7nIa8mri7qnzhv3ZVuRwDa_bnMyHgU9hzNk_QwX-YMKt950t1O5djqemdFqHBgsX6xrslLL54Kjyt5iy58OqpFAq8pUw1yX9m4P9-umPIoPpfeztFKVLnrddduILUyrDV3h_AqixgheHiXaY8VHlp_ey-b7tR6Wb6-tYyrcbLM_bulDSdKR3jdTPXLoeAb7sfAn2njbEa_s01koPBTCMroOmemxEZsOp5JtyesdF4dSf-bq-cQWxrSJ6r1TlgQZhBT81Xy7V3APLzzNt_QCqx958RLZLp744R_iA2Gsj-dU3SBxZhcJPitxMsz6ZofQPJrVk0KV93kXZviad3Bioal3eWhI7JDB_mY62SYNan3El5w_mq7c2fO7o8-FHM_WpOmkoSG2dgrsdBJEIV8irdBwNyN-0G00]--></g></svg>