<?xml version="1.0" encoding="us-ascii" standalone="no"?><svg xmlns="http://www.w3.org/2000/svg" xmlns:xlink="http://www.w3.org/1999/xlink" contentStyleType="text/css" height="595px" preserveAspectRatio="none" style="width:852px;height:595px;background:#FFFFFF;" version="1.1" viewBox="0 0 852 595" width="852px" zoomAndPan="magnify"><defs/><g><rect fill="#FFFFFF" height="455.9219" style="stroke:#181818;stroke-width:1.0;" width="10" x="87.5" y="62.5938"/><rect fill="#FFFFFF" height="410.6563" style="stroke:#181818;stroke-width:1.0;" width="10" x="404.5" y="107.8594"/><rect fill="#FFFFFF" height="28" style="stroke:#181818;stroke-width:1.0;" width="10" x="409.5" y="226.7188"/><rect fill="#FFFFFF" height="101.2656" style="stroke:#181818;stroke-width:1.0;" width="10" x="570.5" y="290.8516"/><rect fill="#FFFFFF" height="28" style="stroke:#181818;stroke-width:1.0;" width="10" x="575.5" y="327.9844"/><rect fill="#FFFFFF" height="30" style="stroke:#181818;stroke-width:1.0;" width="10" x="731.5" y="445.3828"/><rect fill="none" height="456.9219" style="stroke:#000000;stroke-width:1.5;" width="836" x="10" y="69.5938"/><rect fill="none" height="309.9297" style="stroke:#000000;stroke-width:1.5;" width="521.5" x="314.5" y="180.4531"/><rect fill="none" height="76.2656" style="stroke:#000000;stroke-width:1.5;" width="501.5" x="324.5" y="407.1172"/><line style="stroke:#181818;stroke-width:0.5;stroke-dasharray:5.0,5.0;" x1="92" x2="92" y1="52.5938" y2="543.5156"/><line style="stroke:#181818;stroke-width:0.5;stroke-dasharray:5.0,5.0;" x1="409.5" x2="409.5" y1="52.5938" y2="543.5156"/><line style="stroke:#181818;stroke-width:0.5;stroke-dasharray:5.0,5.0;" x1="575" x2="575" y1="52.5938" y2="543.5156"/><line style="stroke:#181818;stroke-width:0.5;stroke-dasharray:5.0,5.0;" x1="736" x2="736" y1="154.6563" y2="543.5156"/><rect fill="#E3E3E3" height="30.2969" rx="2.5" ry="2.5" style="stroke:#181818;stroke-width:0.5;" width="145" x="20" y="21.2969"/><text fill="#000000" font-family="sans-serif" font-size="14" lengthAdjust="spacing" textLength="131" x="27" y="41.292">:AgendaController</text><rect fill="#E3E3E3" height="30.2969" rx="2.5" ry="2.5" style="stroke:#181818;stroke-width:0.5;" width="145" x="20" y="542.5156"/><text fill="#000000" font-family="sans-serif" font-size="14" lengthAdjust="spacing" textLength="131" x="27" y="562.5107">:AgendaController</text><rect fill="#E3E3E3" height="46.5938" rx="2.5" ry="2.5" style="stroke:#181818;stroke-width:0.5;" width="150" x="334.5" y="5"/><text fill="#000000" font-family="sans-serif" font-size="14" lengthAdjust="spacing" textLength="130" x="344.5" y="24.9951">agendaRepository</text><text fill="#000000" font-family="sans-serif" font-size="14" lengthAdjust="spacing" textLength="136" x="341.5" y="41.292">:AgendaRepository</text><rect fill="#E3E3E3" height="46.5938" rx="2.5" ry="2.5" style="stroke:#181818;stroke-width:0.5;" width="150" x="334.5" y="542.5156"/><text fill="#000000" font-family="sans-serif" font-size="14" lengthAdjust="spacing" textLength="130" x="344.5" y="562.5107">agendaRepository</text><text fill="#000000" font-family="sans-serif" font-size="14" lengthAdjust="spacing" textLength="136" x="341.5" y="578.8076">:AgendaRepository</text><rect fill="#E3E3E3" height="46.5938" rx="2.5" ry="2.5" style="stroke:#181818;stroke-width:0.5;" width="123" x="514" y="5"/><text fill="#000000" font-family="sans-serif" font-size="14" lengthAdjust="spacing" textLength="91" x="528" y="24.9951">agendaEntry</text><text fill="#000000" font-family="sans-serif" font-size="14" lengthAdjust="spacing" textLength="109" x="521" y="41.292">:AgendaEntry&gt;</text><rect fill="#E3E3E3" height="46.5938" rx="2.5" ry="2.5" style="stroke:#181818;stroke-width:0.5;" width="123" x="514" y="542.5156"/><text fill="#000000" font-family="sans-serif" font-size="14" lengthAdjust="spacing" textLength="91" x="528" y="562.5107">agendaEntry</text><text fill="#000000" font-family="sans-serif" font-size="14" lengthAdjust="spacing" textLength="109" x="521" y="578.8076">:AgendaEntry&gt;</text><rect fill="#E3E3E3" height="46.5938" rx="2.5" ry="2.5" style="stroke:#181818;stroke-width:0.5;" width="159" x="657" y="542.5156"/><text fill="#000000" font-family="sans-serif" font-size="14" lengthAdjust="spacing" textLength="112" x="680.5" y="562.5107">listAgendaEntry</text><text fill="#000000" font-family="sans-serif" font-size="14" lengthAdjust="spacing" textLength="145" x="664" y="578.8076">:List&lt;AgendaEntry&gt;</text><rect fill="#FFFFFF" height="455.9219" style="stroke:#181818;stroke-width:1.0;" width="10" x="87.5" y="62.5938"/><rect fill="#FFFFFF" height="410.6563" style="stroke:#181818;stroke-width:1.0;" width="10" x="404.5" y="107.8594"/><rect fill="#FFFFFF" height="28" style="stroke:#181818;stroke-width:1.0;" width="10" x="409.5" y="226.7188"/><rect fill="#FFFFFF" height="101.2656" style="stroke:#181818;stroke-width:1.0;" width="10" x="570.5" y="290.8516"/><rect fill="#FFFFFF" height="28" style="stroke:#181818;stroke-width:1.0;" width="10" x="575.5" y="327.9844"/><rect fill="#FFFFFF" height="30" style="stroke:#181818;stroke-width:1.0;" width="10" x="731.5" y="445.3828"/><path d="M10,69.5938 L288,69.5938 L288,76.7266 L278,86.7266 L10,86.7266 L10,69.5938 " fill="#EEEEEE" style="stroke:#000000;stroke-width:1.5;"/><rect fill="none" height="456.9219" style="stroke:#000000;stroke-width:1.5;" width="836" x="10" y="69.5938"/><text fill="#000000" font-family="sans-serif" font-size="13" font-weight="bold" lengthAdjust="spacing" textLength="233" x="25" y="82.6606">Get List of Agenda Repositories</text><polygon fill="#181818" points="392.5,103.8594,402.5,107.8594,392.5,111.8594,396.5,107.8594" style="stroke:#181818;stroke-width:1.0;"/><line style="stroke:#181818;stroke-width:1.0;" x1="97.5" x2="398.5" y1="107.8594" y2="107.8594"/><text fill="#000000" font-family="sans-serif" font-size="13" font-weight="bold" lengthAdjust="spacing" textLength="23" x="104.5" y="102.7935">3.1</text><text fill="#000000" font-family="sans-serif" font-size="13" lengthAdjust="spacing" textLength="261" x="131.5" y="102.7935">getAgendaEntriesForResponsible(email)</text><polygon fill="#181818" points="645,132.9922,655,136.9922,645,140.9922,649,136.9922" style="stroke:#181818;stroke-width:1.0;"/><line style="stroke:#181818;stroke-width:1.0;" x1="414.5" x2="651" y1="136.9922" y2="136.9922"/><text fill="#000000" font-family="sans-serif" font-size="13" font-weight="bold" lengthAdjust="spacing" textLength="23" x="421.5" y="131.9263">3.2</text><text fill="#000000" font-family="sans-serif" font-size="13" lengthAdjust="spacing" textLength="41" x="448.5" y="131.9263">create</text><rect fill="#E3E3E3" height="46.5938" rx="2.5" ry="2.5" style="stroke:#181818;stroke-width:0.5;" width="159" x="657" y="115.8594"/><text fill="#000000" font-family="sans-serif" font-size="14" lengthAdjust="spacing" textLength="112" x="680.5" y="135.8545">listAgendaEntry</text><text fill="#000000" font-family="sans-serif" font-size="14" lengthAdjust="spacing" textLength="145" x="664" y="152.1514">:List&lt;AgendaEntry&gt;</text><path d="M314.5,180.4531 L395.5,180.4531 L395.5,187.5859 L385.5,197.5859 L314.5,197.5859 L314.5,180.4531 " fill="#EEEEEE" style="stroke:#000000;stroke-width:1.5;"/><rect fill="none" height="309.9297" style="stroke:#000000;stroke-width:1.5;" width="521.5" x="314.5" y="180.4531"/><text fill="#000000" font-family="sans-serif" font-size="13" font-weight="bold" lengthAdjust="spacing" textLength="31" x="329.5" y="193.52">loop</text><text fill="#000000" font-family="sans-serif" font-size="11" font-weight="bold" lengthAdjust="spacing" textLength="268" x="410.5" y="192.6636">[for each object in the toDoListRepository]</text><line style="stroke:#181818;stroke-width:1.0;" x1="419.5" x2="461.5" y1="218.7188" y2="218.7188"/><line style="stroke:#181818;stroke-width:1.0;" x1="461.5" x2="461.5" y1="218.7188" y2="231.7188"/><line style="stroke:#181818;stroke-width:1.0;" x1="420.5" x2="461.5" y1="231.7188" y2="231.7188"/><polygon fill="#181818" points="430.5,227.7188,420.5,231.7188,430.5,235.7188,426.5,231.7188" style="stroke:#181818;stroke-width:1.0;"/><text fill="#000000" font-family="sans-serif" font-size="13" font-weight="bold" lengthAdjust="spacing" textLength="23" x="426.5" y="213.6528">3.3</text><text fill="#000000" font-family="sans-serif" font-size="13" lengthAdjust="spacing" textLength="74" x="453.5" y="213.6528">obj = get(i)</text><polygon fill="#181818" points="558.5,286.8516,568.5,290.8516,558.5,294.8516,562.5,290.8516" style="stroke:#181818;stroke-width:1.0;"/><line style="stroke:#181818;stroke-width:1.0;" x1="414.5" x2="564.5" y1="290.8516" y2="290.8516"/><text fill="#000000" font-family="sans-serif" font-size="13" font-weight="bold" lengthAdjust="spacing" textLength="23" x="421.5" y="285.7856">3.4</text><text fill="#000000" font-family="sans-serif" font-size="13" lengthAdjust="spacing" textLength="110" x="448.5" y="285.7856">getResponsible()</text><line style="stroke:#181818;stroke-width:1.0;" x1="585.5" x2="627.5" y1="319.9844" y2="319.9844"/><line style="stroke:#181818;stroke-width:1.0;" x1="627.5" x2="627.5" y1="319.9844" y2="332.9844"/><line style="stroke:#181818;stroke-width:1.0;" x1="586.5" x2="627.5" y1="332.9844" y2="332.9844"/><polygon fill="#181818" points="596.5,328.9844,586.5,332.9844,596.5,336.9844,592.5,332.9844" style="stroke:#181818;stroke-width:1.0;"/><text fill="#000000" font-family="sans-serif" font-size="13" font-weight="bold" lengthAdjust="spacing" textLength="23" x="592.5" y="314.9185">3.5</text><text fill="#000000" font-family="sans-serif" font-size="13" lengthAdjust="spacing" textLength="110" x="619.5" y="314.9185">getResponsible()</text><polygon fill="#181818" points="425.5,388.1172,415.5,392.1172,425.5,396.1172,421.5,392.1172" style="stroke:#181818;stroke-width:1.0;"/><line style="stroke:#181818;stroke-width:1.0;stroke-dasharray:2.0,2.0;" x1="419.5" x2="574.5" y1="392.1172" y2="392.1172"/><text fill="#000000" font-family="sans-serif" font-size="13" font-weight="bold" lengthAdjust="spacing" textLength="23" x="431.5" y="387.0513">3.6</text><text fill="#000000" font-family="sans-serif" font-size="13" lengthAdjust="spacing" textLength="99" x="458.5" y="387.0513">objResponsible</text><path d="M324.5,407.1172 L384.5,407.1172 L384.5,414.25 L374.5,424.25 L324.5,424.25 L324.5,407.1172 " fill="#EEEEEE" style="stroke:#000000;stroke-width:1.5;"/><rect fill="none" height="76.2656" style="stroke:#000000;stroke-width:1.5;" width="501.5" x="324.5" y="407.1172"/><text fill="#000000" font-family="sans-serif" font-size="13" font-weight="bold" lengthAdjust="spacing" textLength="10" x="339.5" y="420.1841">if</text><text fill="#000000" font-family="sans-serif" font-size="11" font-weight="bold" lengthAdjust="spacing" textLength="205" x="399.5" y="419.3276">[objResponsible == responsible]</text><polygon fill="#181818" points="719.5,441.3828,729.5,445.3828,719.5,449.3828,723.5,445.3828" style="stroke:#181818;stroke-width:1.0;"/><line style="stroke:#181818;stroke-width:1.0;" x1="414.5" x2="725.5" y1="445.3828" y2="445.3828"/><text fill="#000000" font-family="sans-serif" font-size="13" font-weight="bold" lengthAdjust="spacing" textLength="23" x="421.5" y="440.3169">3.7</text><text fill="#000000" font-family="sans-serif" font-size="13" lengthAdjust="spacing" textLength="54" x="448.5" y="440.3169">add(obj)</text><polygon fill="#181818" points="103.5,514.5156,93.5,518.5156,103.5,522.5156,99.5,518.5156" style="stroke:#181818;stroke-width:1.0;"/><line style="stroke:#181818;stroke-width:1.0;stroke-dasharray:2.0,2.0;" x1="97.5" x2="408.5" y1="518.5156" y2="518.5156"/><text fill="#000000" font-family="sans-serif" font-size="13" font-weight="bold" lengthAdjust="spacing" textLength="23" x="109.5" y="513.4497">3.8</text><text fill="#000000" font-family="sans-serif" font-size="13" lengthAdjust="spacing" textLength="210" x="136.5" y="513.4497">listAgendaEntriesByResponsible</text><!--SRC=[fLJ1Rjim3BthAuXUcXHOWQ6N8LWARDtQIqzPRrqFZ4tRMcNHa9Hk-VlHycBBNH0dhMwM-1xV8sdwPsqRT5X3pPQpod5D4Do6bEzV6ioUiQGVOMi876K1RMdI05zXph-rBQ50uqaft0IsctfDJgdpIkS41NDOyn-bb422pdI3Di3Puaj9DiSRji6nCUJE03tSFApknt4OmrRKiDU1tVQd_OSShY9oYDk7_ovPjj1Zu-Trn9MEo8uXHlkGn0dgNcu-_mTjunxu6uir1PW5_OA1EWj36U1JMXIukloeG4xfUDF07GLekO4BwEYXjwN9nyX821-k4uUmW98IYH9wosv5lc7hzThGZ6hKPjxXXzDhJ8gbNWUD04DA4R3pUt4X0Z97mdG8t5aqp0qy5ko0CAk0rxzaZ41R29MCcx2r_eTUFXtKiqVKg2ejFIpRuipqV9feJpccC3djBI9Cdx7iE7PT7zE-pOzYsYdePXUEF5tAT-P-Zu2aTXtmLEclsotTJWoejqYOpjmEiIxWSPmCbajPYFtdqnj6OFSxYH7CyvdmdzRzOVsSPhp7JM54x47kW- -fLp4RbzW2ngjLzjRNRTf1TUJVbjp7TRjJynS0]--></g></svg>