<?xml version="1.0" encoding="us-ascii" standalone="no"?><svg xmlns="http://www.w3.org/2000/svg" xmlns:xlink="http://www.w3.org/1999/xlink" contentStyleType="text/css" height="540px" preserveAspectRatio="none" style="width:434px;height:540px;background:#FFFFFF;" version="1.1" viewBox="0 0 434 540" width="434px" zoomAndPan="magnify"><defs/><g><text fill="#000000" font-family="sans-serif" font-size="14" font-weight="bold" lengthAdjust="spacing" textLength="406" x="10" y="27.9951">System Sequence Diagram (SSD) - Alternative One</text><rect fill="#FFFFFF" height="322.5938" style="stroke:#181818;stroke-width:1.0;" width="10" x="47.75" y="128.5938"/><rect fill="#FFFFFF" height="29.1328" style="stroke:#181818;stroke-width:1.0;" width="10" x="351.75" y="149.7266"/><rect fill="#FFFFFF" height="44.2656" style="stroke:#181818;stroke-width:1.0;" width="10" x="351.75" y="207.9922"/><rect fill="#FFFFFF" height="29.1328" style="stroke:#181818;stroke-width:1.0;" width="10" x="351.75" y="281.3906"/><rect fill="#FFFFFF" height="44.2656" style="stroke:#181818;stroke-width:1.0;" width="10" x="351.75" y="339.6563"/><rect fill="#FFFFFF" height="29.1328" style="stroke:#181818;stroke-width:1.0;" width="10" x="351.75" y="413.0547"/><line style="stroke:#181818;stroke-width:0.5;stroke-dasharray:5.0,5.0;" x1="52.75" x2="52.75" y1="118.5938" y2="460.1875"/><line style="stroke:#181818;stroke-width:0.5;stroke-dasharray:5.0,5.0;" x1="356.25" x2="356.25" y1="118.5938" y2="460.1875"/><text fill="#000000" font-family="sans-serif" font-size="14" lengthAdjust="spacing" textLength="30" x="34.75" y="115.292">VFM</text><ellipse cx="52.75" cy="50.7969" fill="#E3E3E3" rx="8" ry="8" style="stroke:#181818;stroke-width:0.5;"/><path d="M52.75,58.7969 L52.75,85.7969 M39.75,66.7969 L65.75,66.7969 M52.75,85.7969 L39.75,100.7969 M52.75,85.7969 L65.75,100.7969 " fill="none" style="stroke:#181818;stroke-width:0.5;"/><text fill="#000000" font-family="sans-serif" font-size="14" lengthAdjust="spacing" textLength="30" x="34.75" y="472.1826">VFM</text><ellipse cx="52.75" cy="483.9844" fill="#E3E3E3" rx="8" ry="8" style="stroke:#181818;stroke-width:0.5;"/><path d="M52.75,491.9844 L52.75,518.9844 M39.75,499.9844 L65.75,499.9844 M52.75,518.9844 L39.75,533.9844 M52.75,518.9844 L65.75,533.9844 " fill="none" style="stroke:#181818;stroke-width:0.5;"/><rect fill="#E3E3E3" height="30.2969" rx="2.5" ry="2.5" style="stroke:#181818;stroke-width:0.5;" width="71" x="321.25" y="87.2969"/><text fill="#000000" font-family="sans-serif" font-size="14" lengthAdjust="spacing" textLength="57" x="328.25" y="107.292">:System</text><rect fill="#E3E3E3" height="30.2969" rx="2.5" ry="2.5" style="stroke:#181818;stroke-width:0.5;" width="71" x="321.25" y="459.1875"/><text fill="#000000" font-family="sans-serif" font-size="14" lengthAdjust="spacing" textLength="57" x="328.25" y="479.1826">:System</text><rect fill="#FFFFFF" height="322.5938" style="stroke:#181818;stroke-width:1.0;" width="10" x="47.75" y="128.5938"/><rect fill="#FFFFFF" height="29.1328" style="stroke:#181818;stroke-width:1.0;" width="10" x="351.75" y="149.7266"/><rect fill="#FFFFFF" height="44.2656" style="stroke:#181818;stroke-width:1.0;" width="10" x="351.75" y="207.9922"/><rect fill="#FFFFFF" height="29.1328" style="stroke:#181818;stroke-width:1.0;" width="10" x="351.75" y="281.3906"/><rect fill="#FFFFFF" height="44.2656" style="stroke:#181818;stroke-width:1.0;" width="10" x="351.75" y="339.6563"/><rect fill="#FFFFFF" height="29.1328" style="stroke:#181818;stroke-width:1.0;" width="10" x="351.75" y="413.0547"/><polygon fill="#181818" points="339.75,145.7266,349.75,149.7266,339.75,153.7266,343.75,149.7266" style="stroke:#181818;stroke-width:1.0;"/><line style="stroke:#181818;stroke-width:1.0;" x1="57.75" x2="345.75" y1="149.7266" y2="149.7266"/><text fill="#000000" font-family="sans-serif" font-size="13" font-weight="bold" lengthAdjust="spacing" textLength="9" x="64.75" y="144.6606">1</text><text fill="#000000" font-family="sans-serif" font-size="13" lengthAdjust="spacing" textLength="183" x="77.75" y="144.6606">request to register a vehicle</text><polygon fill="#181818" points="68.75,174.8594,58.75,178.8594,68.75,182.8594,64.75,178.8594" style="stroke:#181818;stroke-width:1.0;"/><line style="stroke:#181818;stroke-width:1.0;stroke-dasharray:2.0,2.0;" x1="62.75" x2="355.75" y1="178.8594" y2="178.8594"/><text fill="#000000" font-family="sans-serif" font-size="13" font-weight="bold" lengthAdjust="spacing" textLength="9" x="74.75" y="173.7935">2</text><text fill="#000000" font-family="sans-serif" font-size="13" lengthAdjust="spacing" textLength="233" x="87.75" y="173.7935">request data(plateID, brand, model)</text><polygon fill="#181818" points="339.75,203.9922,349.75,207.9922,339.75,211.9922,343.75,207.9922" style="stroke:#181818;stroke-width:1.0;"/><line style="stroke:#181818;stroke-width:1.0;" x1="57.75" x2="345.75" y1="207.9922" y2="207.9922"/><text fill="#000000" font-family="sans-serif" font-size="13" font-weight="bold" lengthAdjust="spacing" textLength="9" x="64.75" y="202.9263">3</text><text fill="#000000" font-family="sans-serif" font-size="13" lengthAdjust="spacing" textLength="69" x="77.75" y="202.9263">types data</text><polygon fill="#181818" points="68.75,248.2578,58.75,252.2578,68.75,256.2578,64.75,252.2578" style="stroke:#181818;stroke-width:1.0;"/><line style="stroke:#181818;stroke-width:1.0;stroke-dasharray:2.0,2.0;" x1="62.75" x2="355.75" y1="252.2578" y2="252.2578"/><text fill="#000000" font-family="sans-serif" font-size="13" font-weight="bold" lengthAdjust="spacing" textLength="9" x="74.75" y="239.6255">4</text><text fill="#000000" font-family="sans-serif" font-size="13" lengthAdjust="spacing" textLength="156" x="87.75" y="232.0591">shows types of vehicles</text><text fill="#000000" font-family="sans-serif" font-size="13" lengthAdjust="spacing" textLength="152" x="91.75" y="247.1919">and request a selection</text><polygon fill="#181818" points="339.75,277.3906,349.75,281.3906,339.75,285.3906,343.75,281.3906" style="stroke:#181818;stroke-width:1.0;"/><line style="stroke:#181818;stroke-width:1.0;" x1="57.75" x2="345.75" y1="281.3906" y2="281.3906"/><text fill="#000000" font-family="sans-serif" font-size="13" font-weight="bold" lengthAdjust="spacing" textLength="9" x="64.75" y="276.3247">5</text><text fill="#000000" font-family="sans-serif" font-size="13" lengthAdjust="spacing" textLength="85" x="77.75" y="276.3247">Select a type</text><polygon fill="#181818" points="68.75,306.5234,58.75,310.5234,68.75,314.5234,64.75,310.5234" style="stroke:#181818;stroke-width:1.0;"/><line style="stroke:#181818;stroke-width:1.0;stroke-dasharray:2.0,2.0;" x1="62.75" x2="355.75" y1="310.5234" y2="310.5234"/><text fill="#000000" font-family="sans-serif" font-size="13" font-weight="bold" lengthAdjust="spacing" textLength="9" x="74.75" y="305.4575">6</text><text fill="#000000" font-family="sans-serif" font-size="13" lengthAdjust="spacing" textLength="257" x="87.75" y="305.4575">request data(tareweight,grossweight...)</text><polygon fill="#181818" points="339.75,335.6563,349.75,339.6563,339.75,343.6563,343.75,339.6563" style="stroke:#181818;stroke-width:1.0;"/><line style="stroke:#181818;stroke-width:1.0;" x1="57.75" x2="345.75" y1="339.6563" y2="339.6563"/><text fill="#000000" font-family="sans-serif" font-size="13" font-weight="bold" lengthAdjust="spacing" textLength="9" x="64.75" y="334.5903">7</text><text fill="#000000" font-family="sans-serif" font-size="13" lengthAdjust="spacing" textLength="69" x="77.75" y="334.5903">types data</text><polygon fill="#181818" points="68.75,379.9219,58.75,383.9219,68.75,387.9219,64.75,383.9219" style="stroke:#181818;stroke-width:1.0;"/><line style="stroke:#181818;stroke-width:1.0;stroke-dasharray:2.0,2.0;" x1="62.75" x2="355.75" y1="383.9219" y2="383.9219"/><text fill="#000000" font-family="sans-serif" font-size="13" font-weight="bold" lengthAdjust="spacing" textLength="9" x="74.75" y="371.2896">8</text><text fill="#000000" font-family="sans-serif" font-size="13" lengthAdjust="spacing" textLength="157" x="87.75" y="363.7231">show all data registered</text><text fill="#000000" font-family="sans-serif" font-size="13" lengthAdjust="spacing" textLength="177" x="91.75" y="378.856">and the confirmation menu</text><polygon fill="#181818" points="339.75,409.0547,349.75,413.0547,339.75,417.0547,343.75,413.0547" style="stroke:#181818;stroke-width:1.0;"/><line style="stroke:#181818;stroke-width:1.0;" x1="57.75" x2="345.75" y1="413.0547" y2="413.0547"/><text fill="#000000" font-family="sans-serif" font-size="13" font-weight="bold" lengthAdjust="spacing" textLength="9" x="64.75" y="407.9888">9</text><text fill="#000000" font-family="sans-serif" font-size="13" lengthAdjust="spacing" textLength="85" x="77.75" y="407.9888">submits data</text><polygon fill="#181818" points="68.75,438.1875,58.75,442.1875,68.75,446.1875,64.75,442.1875" style="stroke:#181818;stroke-width:1.0;"/><line style="stroke:#181818;stroke-width:1.0;stroke-dasharray:2.0,2.0;" x1="62.75" x2="355.75" y1="442.1875" y2="442.1875"/><text fill="#000000" font-family="sans-serif" font-size="13" font-weight="bold" lengthAdjust="spacing" textLength="18" x="74.75" y="437.1216">10</text><text fill="#000000" font-family="sans-serif" font-size="13" lengthAdjust="spacing" textLength="175" x="96.75" y="437.1216">displays operation success</text><!--SRC=[lP8zJyD038Rt_0ghKokr_G4Ta90A4WDYYCJ4ubxSvCHzXBFJAlyUvxCWjKCPyEHS_Bv-x3l-jA76X1vy3D5KANe2IGrbFF-fqNnYIRcqZY2H4Gob-rd05HRnR4C9HtHCMIPMj3HlMSX3JbyD1KEmjrXsvSiytwzW0uzEA0KKUo9u2oh3Hc9e_86IvaPYWiNxy-i2aE79rowsH9bs56jiZK5WiHjQz1L3sWlj2OKkaWmqfY_OF4nWEnr6qLX0egQbrTC422UghD41EzdiDjd36AF7HkrcwujXWOBBsgdmPR-6Gy9Gh7N31RdLxD15GLSRN8MLjYRkdRFRQDUnk8fd7WtYSHgGFm8es0oDmEJqUcqCsRrmUQzKYwx9lNY_jYQOw4osh6HTfiWyvDljTfNzyyO0dUlLy-EWOboPL0GcXgDD7hjzWQVGtCt7pS5R6Gd_yDeAo_h6MhtJcjB0mOqnn7m3vHi0]--></g></svg>