<?xml version="1.0" encoding="us-ascii" standalone="no"?><svg xmlns="http://www.w3.org/2000/svg" xmlns:xlink="http://www.w3.org/1999/xlink" contentStyleType="text/css" height="394px" preserveAspectRatio="none" style="width:434px;height:394px;background:#FFFFFF;" version="1.1" viewBox="0 0 434 394" width="434px" zoomAndPan="magnify"><defs/><g><text fill="#000000" font-family="sans-serif" font-size="14" font-weight="bold" lengthAdjust="spacing" textLength="406" x="10" y="27.9951">System Sequence Diagram (SSD) - Alternative One</text><rect fill="#FFFFFF" height="175.7969" style="stroke:#181818;stroke-width:1.0;" width="10" x="41.25" y="128.5938"/><rect fill="#FFFFFF" height="29.1328" style="stroke:#181818;stroke-width:1.0;" width="10" x="358.25" y="149.7266"/><rect fill="#FFFFFF" height="29.1328" style="stroke:#181818;stroke-width:1.0;" width="10" x="358.25" y="207.9922"/><rect fill="#FFFFFF" height="29.1328" style="stroke:#181818;stroke-width:1.0;" width="10" x="358.25" y="266.2578"/><line style="stroke:#181818;stroke-width:0.5;stroke-dasharray:5.0,5.0;" x1="46.25" x2="46.25" y1="118.5938" y2="313.3906"/><line style="stroke:#181818;stroke-width:0.5;stroke-dasharray:5.0,5.0;" x1="362.75" x2="362.75" y1="118.5938" y2="313.3906"/><text fill="#000000" font-family="sans-serif" font-size="14" lengthAdjust="spacing" textLength="30" x="28.25" y="115.292">VFM</text><ellipse cx="46.25" cy="50.7969" fill="#E3E3E3" rx="8" ry="8" style="stroke:#181818;stroke-width:0.5;"/><path d="M46.25,58.7969 L46.25,85.7969 M33.25,66.7969 L59.25,66.7969 M46.25,85.7969 L33.25,100.7969 M46.25,85.7969 L59.25,100.7969 " fill="none" style="stroke:#181818;stroke-width:0.5;"/><text fill="#000000" font-family="sans-serif" font-size="14" lengthAdjust="spacing" textLength="30" x="28.25" y="325.3857">VFM</text><ellipse cx="46.25" cy="337.1875" fill="#E3E3E3" rx="8" ry="8" style="stroke:#181818;stroke-width:0.5;"/><path d="M46.25,345.1875 L46.25,372.1875 M33.25,353.1875 L59.25,353.1875 M46.25,372.1875 L33.25,387.1875 M46.25,372.1875 L59.25,387.1875 " fill="none" style="stroke:#181818;stroke-width:0.5;"/><rect fill="#E3E3E3" height="30.2969" rx="2.5" ry="2.5" style="stroke:#181818;stroke-width:0.5;" width="71" x="327.75" y="87.2969"/><text fill="#000000" font-family="sans-serif" font-size="14" lengthAdjust="spacing" textLength="57" x="334.75" y="107.292">:System</text><rect fill="#E3E3E3" height="30.2969" rx="2.5" ry="2.5" style="stroke:#181818;stroke-width:0.5;" width="71" x="327.75" y="312.3906"/><text fill="#000000" font-family="sans-serif" font-size="14" lengthAdjust="spacing" textLength="57" x="334.75" y="332.3857">:System</text><rect fill="#FFFFFF" height="175.7969" style="stroke:#181818;stroke-width:1.0;" width="10" x="41.25" y="128.5938"/><rect fill="#FFFFFF" height="29.1328" style="stroke:#181818;stroke-width:1.0;" width="10" x="358.25" y="149.7266"/><rect fill="#FFFFFF" height="29.1328" style="stroke:#181818;stroke-width:1.0;" width="10" x="358.25" y="207.9922"/><rect fill="#FFFFFF" height="29.1328" style="stroke:#181818;stroke-width:1.0;" width="10" x="358.25" y="266.2578"/><polygon fill="#181818" points="346.25,145.7266,356.25,149.7266,346.25,153.7266,350.25,149.7266" style="stroke:#181818;stroke-width:1.0;"/><line style="stroke:#181818;stroke-width:1.0;" x1="51.25" x2="352.25" y1="149.7266" y2="149.7266"/><text fill="#000000" font-family="sans-serif" font-size="13" font-weight="bold" lengthAdjust="spacing" textLength="9" x="58.25" y="144.6606">1</text><text fill="#000000" font-family="sans-serif" font-size="13" lengthAdjust="spacing" textLength="183" x="71.25" y="144.6606">request to register a vehicle</text><polygon fill="#181818" points="62.25,174.8594,52.25,178.8594,62.25,182.8594,58.25,178.8594" style="stroke:#181818;stroke-width:1.0;"/><line style="stroke:#181818;stroke-width:1.0;stroke-dasharray:2.0,2.0;" x1="56.25" x2="362.25" y1="178.8594" y2="178.8594"/><text fill="#000000" font-family="sans-serif" font-size="13" font-weight="bold" lengthAdjust="spacing" textLength="9" x="68.25" y="173.7935">2</text><text fill="#000000" font-family="sans-serif" font-size="13" lengthAdjust="spacing" textLength="82" x="81.25" y="173.7935">request data</text><polygon fill="#181818" points="346.25,203.9922,356.25,207.9922,346.25,211.9922,350.25,207.9922" style="stroke:#181818;stroke-width:1.0;"/><line style="stroke:#181818;stroke-width:1.0;" x1="51.25" x2="352.25" y1="207.9922" y2="207.9922"/><text fill="#000000" font-family="sans-serif" font-size="13" font-weight="bold" lengthAdjust="spacing" textLength="9" x="58.25" y="202.9263">3</text><text fill="#000000" font-family="sans-serif" font-size="13" lengthAdjust="spacing" textLength="261" x="71.25" y="202.9263">registerVehicle(plateID, brand, model...)</text><polygon fill="#181818" points="62.25,233.125,52.25,237.125,62.25,241.125,58.25,237.125" style="stroke:#181818;stroke-width:1.0;"/><line style="stroke:#181818;stroke-width:1.0;stroke-dasharray:2.0,2.0;" x1="56.25" x2="362.25" y1="237.125" y2="237.125"/><text fill="#000000" font-family="sans-serif" font-size="13" font-weight="bold" lengthAdjust="spacing" textLength="9" x="68.25" y="232.0591">4</text><text fill="#000000" font-family="sans-serif" font-size="13" lengthAdjust="spacing" textLength="270" x="81.25" y="232.0591">show all data registered  for confirmation</text><polygon fill="#181818" points="346.25,262.2578,356.25,266.2578,346.25,270.2578,350.25,266.2578" style="stroke:#181818;stroke-width:1.0;"/><line style="stroke:#181818;stroke-width:1.0;" x1="51.25" x2="352.25" y1="266.2578" y2="266.2578"/><text fill="#000000" font-family="sans-serif" font-size="13" font-weight="bold" lengthAdjust="spacing" textLength="9" x="58.25" y="261.1919">5</text><text fill="#000000" font-family="sans-serif" font-size="13" lengthAdjust="spacing" textLength="85" x="71.25" y="261.1919">submits data</text><polygon fill="#181818" points="62.25,291.3906,52.25,295.3906,62.25,299.3906,58.25,295.3906" style="stroke:#181818;stroke-width:1.0;"/><line style="stroke:#181818;stroke-width:1.0;stroke-dasharray:2.0,2.0;" x1="56.25" x2="362.25" y1="295.3906" y2="295.3906"/><text fill="#000000" font-family="sans-serif" font-size="13" font-weight="bold" lengthAdjust="spacing" textLength="9" x="68.25" y="290.3247">6</text><text fill="#000000" font-family="sans-serif" font-size="13" lengthAdjust="spacing" textLength="175" x="81.25" y="290.3247">displays operation success</text><!--SRC=[dP5DRi9038NtEON52YJW02mgLQALkgYwYCJUp9XarFb9nmuejw-Ja51Lq4MzSYRlFN-UuKyN6ymO8AIOJ9rJ893SKi7pdmRD9rPKIkS9CXd1MFcV0gxHfekB5PpGCnM5E55fsR5GW9A-Meg6OE-mwkNBijolO0FFNYX757Sc-8XgmrPIRCEHilP6KeR5uVLz0SZm4XgVEg929uephi4eiDYD8mR5s0v6TqQXcwK0hUaBDayJs4wNKJGMaAHjvVGq0yAPQcTqmTusfqtnSArhnaRZvkXRe4L1cBLzMVeTrP_-XJRo74QOPUFL-hPVmp5Zj6jzBaj-kzsk7cFUH-GwNG2z7ncdCMG1JdhX9iMJoq4V9SNYFlTZPcwFmGaFoV-vFUjOr-mOKaDvGD18OuZv0Set]--></g></svg>