<?xml version="1.0" encoding="UTF-8" standalone="no"?><svg xmlns="http://www.w3.org/2000/svg" xmlns:xlink="http://www.w3.org/1999/xlink" contentStyleType="text/css" height="601px" preserveAspectRatio="none" style="width:686px;height:601px;background:#FFFFFF;" version="1.1" viewBox="0 0 686 601" width="686px" zoomAndPan="magnify"><defs/><g><text fill="#000000" font-family="sans-serif" font-size="14" font-weight="bold" lengthAdjust="spacing" textLength="398" x="143.25" y="27.9951">System Sequence Diagram (SSD) - Alternative One</text><rect fill="#FFFFFF" height="322.5313" style="stroke:#181818;stroke-width:1.0;" width="10" x="68" y="158.8594"/><rect fill="#FFFFFF" height="60.5625" style="stroke:#181818;stroke-width:1.0;" width="10" x="628" y="188.1406"/><rect fill="#FFFFFF" height="37.2813" style="stroke:#181818;stroke-width:1.0;" width="10" x="628" y="285.9844"/><rect fill="#FFFFFF" height="37.2813" style="stroke:#181818;stroke-width:1.0;" width="10" x="628" y="360.5469"/><rect fill="#FFFFFF" height="37.2813" style="stroke:#181818;stroke-width:1.0;" width="10" x="628" y="435.1094"/><line style="stroke:#181818;stroke-width:0.5;stroke-dasharray:5.0,5.0;" x1="73" x2="73" y1="148.8594" y2="490.3906"/><line style="stroke:#181818;stroke-width:0.5;stroke-dasharray:5.0,5.0;" x1="632.5" x2="632.5" y1="148.8594" y2="490.3906"/><text fill="#000000" font-family="sans-serif" font-size="20" lengthAdjust="spacing" textLength="130" x="5" y="120.8613">Organization</text><text fill="#000000" font-family="sans-serif" font-size="20" lengthAdjust="spacing" textLength="99" x="20.5" y="144.1426">Employee</text><ellipse cx="73" cy="50.7969" fill="#E3E3E3" rx="8" ry="8" style="stroke:#181818;stroke-width:0.5;"/><path d="M73,58.7969 L73,85.7969 M60,66.7969 L86,66.7969 M73,85.7969 L60,100.7969 M73,85.7969 L86,100.7969 " fill="none" style="stroke:#181818;stroke-width:0.5;"/><text fill="#000000" font-family="sans-serif" font-size="20" lengthAdjust="spacing" textLength="130" x="5" y="507.9551">Organization</text><text fill="#000000" font-family="sans-serif" font-size="20" lengthAdjust="spacing" textLength="99" x="20.5" y="531.2363">Employee</text><ellipse cx="73" cy="544.4531" fill="#E3E3E3" rx="8" ry="8" style="stroke:#181818;stroke-width:0.5;"/><path d="M73,552.4531 L73,579.4531 M60,560.4531 L86,560.4531 M73,579.4531 L60,594.4531 M73,579.4531 L86,594.4531 " fill="none" style="stroke:#181818;stroke-width:0.5;"/><rect fill="#E3E3E3" height="37.2813" rx="2.5" ry="2.5" style="stroke:#181818;stroke-width:0.5;" width="95" x="585.5" y="110.5781"/><text fill="#000000" font-family="sans-serif" font-size="20" lengthAdjust="spacing" textLength="81" x="592.5" y="136.1426">:System</text><rect fill="#E3E3E3" height="37.2813" rx="2.5" ry="2.5" style="stroke:#181818;stroke-width:0.5;" width="95" x="585.5" y="489.3906"/><text fill="#000000" font-family="sans-serif" font-size="20" lengthAdjust="spacing" textLength="81" x="592.5" y="514.9551">:System</text><rect fill="#FFFFFF" height="322.5313" style="stroke:#181818;stroke-width:1.0;" width="10" x="68" y="158.8594"/><rect fill="#FFFFFF" height="60.5625" style="stroke:#181818;stroke-width:1.0;" width="10" x="628" y="188.1406"/><rect fill="#FFFFFF" height="37.2813" style="stroke:#181818;stroke-width:1.0;" width="10" x="628" y="285.9844"/><rect fill="#FFFFFF" height="37.2813" style="stroke:#181818;stroke-width:1.0;" width="10" x="628" y="360.5469"/><rect fill="#FFFFFF" height="37.2813" style="stroke:#181818;stroke-width:1.0;" width="10" x="628" y="435.1094"/><polygon fill="#181818" points="616,184.1406,626,188.1406,616,192.1406,620,188.1406" style="stroke:#181818;stroke-width:1.0;"/><line style="stroke:#181818;stroke-width:1.0;" x1="78" x2="622" y1="188.1406" y2="188.1406"/><text fill="#000000" font-family="sans-serif" font-size="20" font-weight="bold" lengthAdjust="spacing" textLength="14" x="85" y="181.4238">1</text><text fill="#000000" font-family="sans-serif" font-size="20" lengthAdjust="spacing" textLength="253" x="103" y="181.4238">asks to create a new task</text><polygon fill="#181818" points="89,244.7031,79,248.7031,89,252.7031,85,248.7031" style="stroke:#181818;stroke-width:1.0;"/><line style="stroke:#181818;stroke-width:1.0;stroke-dasharray:2.0,2.0;" x1="83" x2="632" y1="248.7031" y2="248.7031"/><text fill="#000000" font-family="sans-serif" font-size="20" font-weight="bold" lengthAdjust="spacing" textLength="14" x="95" y="230.3457">2</text><text fill="#000000" font-family="sans-serif" font-size="20" lengthAdjust="spacing" textLength="508" x="113" y="218.7051">requests data (i.e. reference, designation, informal</text><text fill="#000000" font-family="sans-serif" font-size="20" lengthAdjust="spacing" textLength="492" x="113" y="241.9863">description, technical description, duration, cost)</text><polygon fill="#181818" points="616,281.9844,626,285.9844,616,289.9844,620,285.9844" style="stroke:#181818;stroke-width:1.0;"/><line style="stroke:#181818;stroke-width:1.0;" x1="78" x2="622" y1="285.9844" y2="285.9844"/><text fill="#000000" font-family="sans-serif" font-size="20" font-weight="bold" lengthAdjust="spacing" textLength="14" x="85" y="279.2676">3</text><text fill="#000000" font-family="sans-serif" font-size="20" lengthAdjust="spacing" textLength="212" x="103" y="279.2676">types requested data</text><polygon fill="#181818" points="89,319.2656,79,323.2656,89,327.2656,85,323.2656" style="stroke:#181818;stroke-width:1.0;"/><line style="stroke:#181818;stroke-width:1.0;stroke-dasharray:2.0,2.0;" x1="83" x2="632" y1="323.2656" y2="323.2656"/><text fill="#000000" font-family="sans-serif" font-size="20" font-weight="bold" lengthAdjust="spacing" textLength="14" x="95" y="316.5488">4</text><text fill="#000000" font-family="sans-serif" font-size="20" lengthAdjust="spacing" textLength="467" x="113" y="316.5488">shows task category list and asks to select one</text><polygon fill="#181818" points="616,356.5469,626,360.5469,616,364.5469,620,360.5469" style="stroke:#181818;stroke-width:1.0;"/><line style="stroke:#181818;stroke-width:1.0;" x1="78" x2="622" y1="360.5469" y2="360.5469"/><text fill="#000000" font-family="sans-serif" font-size="20" font-weight="bold" lengthAdjust="spacing" textLength="14" x="85" y="353.8301">5</text><text fill="#000000" font-family="sans-serif" font-size="20" lengthAdjust="spacing" textLength="228" x="103" y="353.8301">selects a task category</text><polygon fill="#181818" points="89,393.8281,79,397.8281,89,401.8281,85,397.8281" style="stroke:#181818;stroke-width:1.0;"/><line style="stroke:#181818;stroke-width:1.0;stroke-dasharray:2.0,2.0;" x1="83" x2="632" y1="397.8281" y2="397.8281"/><text fill="#000000" font-family="sans-serif" font-size="20" font-weight="bold" lengthAdjust="spacing" textLength="14" x="95" y="391.1113">6</text><text fill="#000000" font-family="sans-serif" font-size="20" lengthAdjust="spacing" textLength="413" x="113" y="391.1113">shows all data and requests confirmation</text><polygon fill="#181818" points="616,431.1094,626,435.1094,616,439.1094,620,435.1094" style="stroke:#181818;stroke-width:1.0;"/><line style="stroke:#181818;stroke-width:1.0;" x1="78" x2="622" y1="435.1094" y2="435.1094"/><text fill="#000000" font-family="sans-serif" font-size="20" font-weight="bold" lengthAdjust="spacing" textLength="14" x="85" y="428.3926">7</text><text fill="#000000" font-family="sans-serif" font-size="20" lengthAdjust="spacing" textLength="138" x="103" y="428.3926">confirms data</text><polygon fill="#181818" points="89,468.3906,79,472.3906,89,476.3906,85,472.3906" style="stroke:#181818;stroke-width:1.0;"/><line style="stroke:#181818;stroke-width:1.0;stroke-dasharray:2.0,2.0;" x1="83" x2="632" y1="472.3906" y2="472.3906"/><text fill="#000000" font-family="sans-serif" font-size="20" font-weight="bold" lengthAdjust="spacing" textLength="14" x="95" y="465.6738">8</text><text fill="#000000" font-family="sans-serif" font-size="20" lengthAdjust="spacing" textLength="266" x="113" y="465.6738">displays operation success</text><!--SRC=[dLAnRkCm3Dtz5KIc5cYAGySC1npGwzh1QnTMPXmYCkaJwGRkrnzjnxaMw0sD9ebwZtfyJtPawR5WbpKTgO66zZXaVrBncjy97dvKjaAWKz5qADeHU1demqsFwOWjrJvcWaB9KThy4M07RFJ4qi8Uir5LENj0wz6SEgZfpq2I21uPsmb-KzUFjx25Nzcf23g_4JnBq71mbQ5xfHBxv5fWyrnQ57uFaCgB_Exwh2FH1j1WFLGXmZbnZ-AmsIslpeXbE_VYDtJwHwaWrdg2xSzLwoveHmDNI8Kc1eBG2JogC-NIQMqDvtNcRwFLfUqkp8hHpGqQT8GRlgVxgEsfJ7xSHHx6hSoptG7BNak7-KMYd0htIzaf7OGJPlXKRePovYKrlvrrDFIbl2_7zB4dM_LDNoC4NZEX7VHaip-GWjLg6I6pEQ0q5o-DSlmQqCZukpeNgaKEdzwuNYhclAGn2RpaarJs7EvFbdvRuvbiLvlOiFKPHmFjQOaLR4Y9pFwZvIy0]--></g></svg>