<?xml version="1.0" encoding="us-ascii" standalone="no"?><svg xmlns="http://www.w3.org/2000/svg" xmlns:xlink="http://www.w3.org/1999/xlink" contentStyleType="text/css" height="335px" preserveAspectRatio="none" style="width:853px;height:335px;background:#FFFFFF;" version="1.1" viewBox="0 0 853 335" width="853px" zoomAndPan="magnify"><defs/><g><!--class VehicleRepository--><g id="elem_VehicleRepository"><rect codeLine="9" fill="#F1F1F1" height="130.4414" id="VehicleRepository" rx="2.5" ry="2.5" style="stroke:#181818;stroke-width:0.5;" width="292" x="342.5" y="197.95"/><ellipse cx="423.25" cy="213.95" fill="#ADD1B2" rx="11" ry="11" style="stroke:#181818;stroke-width:1.0;"/><path d="M426.2231,219.5931 Q425.6421,219.8919 425.0029,220.0413 Q424.3638,220.1907 423.6582,220.1907 Q421.1514,220.1907 419.8315,218.5389 Q418.5117,216.887 418.5117,213.7659 Q418.5117,210.6365 419.8315,208.9847 Q421.1514,207.3328 423.6582,207.3328 Q424.3638,207.3328 425.0112,207.4822 Q425.6587,207.6316 426.2231,207.9305 L426.2231,210.6531 Q425.5923,210.0721 424.9988,209.8023 Q424.4053,209.5325 423.7744,209.5325 Q422.4297,209.5325 421.7449,210.5992 Q421.0601,211.6658 421.0601,213.7659 Q421.0601,215.8577 421.7449,216.9244 Q422.4297,217.991 423.7744,217.991 Q424.4053,217.991 424.9988,217.7212 Q425.5923,217.4515 426.2231,216.8704 Z " fill="#000000"/><text fill="#000000" font-family="sans-serif" font-size="14" lengthAdjust="spacing" textLength="122" x="443.75" y="219.241">VehicleRepository</text><line style="stroke:#181818;stroke-width:0.5;" x1="343.5" x2="633.5" y1="229.95" y2="229.95"/><text fill="#000000" font-family="sans-serif" font-size="14" lengthAdjust="spacing" textLength="176" x="348.5" y="247.4852">-List&lt;Vehicle&gt; vehicleList</text><line style="stroke:#181818;stroke-width:0.5;" x1="343.5" x2="633.5" y1="254.4383" y2="254.4383"/><text fill="#000000" font-family="sans-serif" font-size="14" lengthAdjust="spacing" textLength="162" x="348.5" y="271.9734">+requestList(activation)</text><text fill="#000000" font-family="sans-serif" font-size="14" lengthAdjust="spacing" textLength="280" x="348.5" y="288.4617">-getVehiclesNeedingCheckUp(activation)</text><text fill="#000000" font-family="sans-serif" font-size="14" lengthAdjust="spacing" textLength="153" x="348.5" y="304.95">-checkUpListCreated()</text><text fill="#000000" font-family="sans-serif" font-size="14" lengthAdjust="spacing" textLength="278" x="348.5" y="321.4383">+getVehicleCheckUpList(): List&lt;Vehicle&gt;</text></g><!--class Repositories--><g id="elem_Repositories"><rect codeLine="17" fill="#F1F1F1" height="97.4648" id="Repositories" rx="2.5" ry="2.5" style="stroke:#181818;stroke-width:0.5;" width="209" x="537" y="15.24"/><ellipse cx="594.75" cy="31.24" fill="#ADD1B2" rx="11" ry="11" style="stroke:#181818;stroke-width:1.0;"/><path d="M597.7231,36.8831 Q597.1421,37.1819 596.5029,37.3313 Q595.8638,37.4807 595.1582,37.4807 Q592.6514,37.4807 591.3315,35.8289 Q590.0117,34.177 590.0117,31.0559 Q590.0117,27.9265 591.3315,26.2747 Q592.6514,24.6228 595.1582,24.6228 Q595.8638,24.6228 596.5112,24.7722 Q597.1587,24.9216 597.7231,25.2205 L597.7231,27.9431 Q597.0923,27.3621 596.4988,27.0923 Q595.9053,26.8225 595.2744,26.8225 Q593.9297,26.8225 593.2449,27.8892 Q592.5601,28.9558 592.5601,31.0559 Q592.5601,33.1477 593.2449,34.2144 Q593.9297,35.281 595.2744,35.281 Q595.9053,35.281 596.4988,35.0112 Q597.0923,34.7415 597.7231,34.1604 Z " fill="#000000"/><text fill="#000000" font-family="sans-serif" font-size="14" lengthAdjust="spacing" textLength="85" x="615.25" y="36.531">Repositories</text><line style="stroke:#181818;stroke-width:0.5;" x1="538" x2="745" y1="47.24" y2="47.24"/><line style="stroke:#181818;stroke-width:0.5;" x1="538" x2="745" y1="55.24" y2="55.24"/><text fill="#000000" font-family="sans-serif" font-size="14" lengthAdjust="spacing" textLength="103" x="543" y="72.7752">-Repositories()</text><text fill="#000000" font-family="sans-serif" font-size="14" lengthAdjust="spacing" textLength="197" x="543" y="89.2634">+getInstance() : Repositories</text><text fill="#000000" font-family="sans-serif" font-size="14" lengthAdjust="spacing" textLength="165" x="543" y="105.7517">+getVehicleRepository()</text></g><!--class VehicleListController--><g id="elem_VehicleListController"><rect codeLine="23" fill="#F1F1F1" height="113.9531" id="VehicleListController" rx="2.5" ry="2.5" style="stroke:#181818;stroke-width:0.5;" width="264" x="161.5" y="7"/><ellipse cx="218.25" cy="23" fill="#ADD1B2" rx="11" ry="11" style="stroke:#181818;stroke-width:1.0;"/><path d="M221.2231,28.6431 Q220.6421,28.9419 220.0029,29.0913 Q219.3638,29.2407 218.6582,29.2407 Q216.1514,29.2407 214.8315,27.5889 Q213.5117,25.937 213.5117,22.8159 Q213.5117,19.6865 214.8315,18.0347 Q216.1514,16.3828 218.6582,16.3828 Q219.3638,16.3828 220.0112,16.5322 Q220.6587,16.6816 221.2231,16.9805 L221.2231,19.7031 Q220.5923,19.1221 219.9988,18.8523 Q219.4053,18.5825 218.7744,18.5825 Q217.4297,18.5825 216.7449,19.6492 Q216.0601,20.7158 216.0601,22.8159 Q216.0601,24.9077 216.7449,25.9744 Q217.4297,27.041 218.7744,27.041 Q219.4053,27.041 219.9988,26.7712 Q220.5923,26.5015 221.2231,25.9204 Z " fill="#000000"/><text fill="#000000" font-family="sans-serif" font-size="14" lengthAdjust="spacing" textLength="142" x="238.75" y="28.291">VehicleListController</text><line style="stroke:#181818;stroke-width:0.5;" x1="162.5" x2="424.5" y1="39" y2="39"/><line style="stroke:#181818;stroke-width:0.5;" x1="162.5" x2="424.5" y1="47" y2="47"/><text fill="#000000" font-family="sans-serif" font-size="14" lengthAdjust="spacing" textLength="163" x="167.5" y="64.5352">+VehicleListController()</text><text fill="#000000" font-family="sans-serif" font-size="14" lengthAdjust="spacing" textLength="162" x="167.5" y="81.0234">+requestList(activation)</text><text fill="#000000" font-family="sans-serif" font-size="14" lengthAdjust="spacing" textLength="235" x="167.5" y="97.5117">+receiveVehicleList(List&lt;Vehicle&gt;)</text><text fill="#000000" font-family="sans-serif" font-size="14" lengthAdjust="spacing" textLength="252" x="167.5" y="114">+sendVehicleListToUI(List&lt;Vehicle&gt;)</text></g><!--class CheckUpListUI--><g id="elem_CheckUpListUI"><rect codeLine="30" fill="#F1F1F1" height="64.4883" id="CheckUpListUI" rx="2.5" ry="2.5" style="stroke:#181818;stroke-width:0.5;" width="247" x="7" y="230.93"/><ellipse cx="77.25" cy="246.93" fill="#ADD1B2" rx="11" ry="11" style="stroke:#181818;stroke-width:1.0;"/><path d="M80.2231,252.5731 Q79.6421,252.8719 79.0029,253.0213 Q78.3638,253.1707 77.6582,253.1707 Q75.1514,253.1707 73.8315,251.5189 Q72.5117,249.867 72.5117,246.7459 Q72.5117,243.6165 73.8315,241.9647 Q75.1514,240.3128 77.6582,240.3128 Q78.3638,240.3128 79.0112,240.4622 Q79.6587,240.6116 80.2231,240.9105 L80.2231,243.6331 Q79.5923,243.0521 78.9988,242.7823 Q78.4053,242.5125 77.7744,242.5125 Q76.4297,242.5125 75.7449,243.5792 Q75.0601,244.6458 75.0601,246.7459 Q75.0601,248.8377 75.7449,249.9044 Q76.4297,250.971 77.7744,250.971 Q78.4053,250.971 78.9988,250.7012 Q79.5923,250.4315 80.2231,249.8504 Z " fill="#000000"/><text fill="#000000" font-family="sans-serif" font-size="14" lengthAdjust="spacing" textLength="98" x="97.75" y="252.221">CheckUpListUI</text><line style="stroke:#181818;stroke-width:0.5;" x1="8" x2="253" y1="262.93" y2="262.93"/><line style="stroke:#181818;stroke-width:0.5;" x1="8" x2="253" y1="270.93" y2="270.93"/><text fill="#000000" font-family="sans-serif" font-size="14" lengthAdjust="spacing" textLength="235" x="13" y="288.4652">+displayVehicleList(List&lt;Vehicle&gt;)</text></g><!--link CheckUpListUI to VehicleListController--><g id="link_CheckUpListUI_VehicleListController"><path codeLine="34" d="M159.04,230.53 C183.73,203.16 215.5,167.95 215.5,167.95 C215.5,167.95 229.0171,150.1028 247.2271,126.0628 " fill="none" id="CheckUpListUI-to-VehicleListController" style="stroke:#181818;stroke-width:1.0;stroke-dasharray:7.0,7.0;"/><polygon fill="#181818" points="250.85,121.28,242.2272,126.0389,247.8309,125.2656,248.6042,130.8694,250.85,121.28" style="stroke:#181818;stroke-width:1.0;"/></g><!--link VehicleListController to CheckUpListUI--><g id="link_VehicleListController_CheckUpListUI"><path codeLine="36" d="M161.2,115.98 C113.18,134.49 70.5,150.95 70.5,150.95 C70.5,150.95 70.5,167.95 70.5,167.95 C70.5,167.95 89.6971,198.0991 107.1271,225.4691 " fill="none" id="VehicleListController-to-CheckUpListUI" style="stroke:#181818;stroke-width:1.0;"/><polygon fill="#181818" points="110.35,230.53,108.8895,220.79,107.6642,226.3126,102.1417,225.0873,110.35,230.53" style="stroke:#181818;stroke-width:1.0;"/><text fill="#000000" font-family="sans-serif" font-size="13" lengthAdjust="spacing" textLength="135" x="71.5" y="164.5184">sendVehicleListToUI()</text></g><!--link VehicleListController to Repositories--><g id="link_VehicleListController_Repositories"><path codeLine="37" d="M425.56,63.97 C462.29,63.97 495.66,63.97 530.6,63.97 " fill="none" id="VehicleListController-to-Repositories" style="stroke:#181818;stroke-width:1.0;stroke-dasharray:7.0,7.0;"/><polygon fill="#181818" points="536.6,63.97,527.6,59.97,531.6,63.97,527.6,67.97,536.6,63.97" style="stroke:#181818;stroke-width:1.0;"/><text fill="#000000" font-family="sans-serif" font-size="13" lengthAdjust="spacing" textLength="75" x="443.75" y="57.5384">repositories</text></g><!--link Repositories to VehicleRepository--><g id="link_Repositories_VehicleRepository"><path codeLine="38" d="M623.26,113.14 C613.11,139.94 602.5,167.95 602.5,167.95 C602.5,167.95 591.2657,177.2386 571.3657,193.6786 " fill="none" id="Repositories-to-VehicleRepository" style="stroke:#181818;stroke-width:1.0;"/><polygon fill="#181818" points="566.74,197.5,576.2261,194.8517,570.5947,194.3155,571.1309,188.6841,566.74,197.5" style="stroke:#181818;stroke-width:1.0;"/><text fill="#000000" font-family="sans-serif" font-size="13" lengthAdjust="spacing" textLength="8" x="562.6413" y="187.0823">1</text></g><!--link Repositories to Repositories--><g id="link_Repositories_Repositories"><path codeLine="39" d="M746.44,46.9 C766.67,48.91 781,54.6 781,63.97 C781,73.34 772.6403,78.4339 752.4103,80.4539 " fill="none" id="Repositories-to-Repositories" style="stroke:#181818;stroke-width:1.0;"/><polygon fill="#181818" points="746.44,81.05,755.7929,84.136,751.4153,80.5532,754.998,76.1756,746.44,81.05" style="stroke:#181818;stroke-width:1.0;"/><text fill="#000000" font-family="sans-serif" font-size="13" lengthAdjust="spacing" textLength="53" x="787" y="69.0384">instance</text></g><!--link VehicleListController to VehicleRepository--><g id="link_VehicleListController_VehicleRepository"><path codeLine="40" d="M395.81,121.36 C425.22,137.57 449.5,150.95 449.5,150.95 C449.5,150.95 455.2447,167.338 463.8247,191.808 " fill="none" id="VehicleListController-to-VehicleRepository" style="stroke:#181818;stroke-width:1.0;stroke-dasharray:7.0,7.0;"/><polygon fill="#181818" points="465.81,197.47,466.6067,187.6534,464.1556,192.7516,459.0574,190.3005,465.81,197.47" style="stroke:#181818;stroke-width:1.0;"/><text fill="#000000" font-family="sans-serif" font-size="13" lengthAdjust="spacing" textLength="111" x="455.5" y="164.5184">vehicleRepository</text></g><!--link VehicleRepository to VehicleListController--><g id="link_VehicleRepository_VehicleListController"><path codeLine="41" d="M350.55,197.5 C315.47,181.06 287.5,167.95 287.5,167.95 C287.5,167.95 287.5,150.95 287.5,150.95 C287.5,150.95 288.0128,143.5555 289.1428,127.3455 " fill="none" id="VehicleRepository-to-VehicleListController" style="stroke:#181818;stroke-width:1.0;"/><polygon fill="#181818" points="289.56,121.36,284.9438,130.06,289.2123,126.3479,292.9244,130.6164,289.56,121.36" style="stroke:#181818;stroke-width:1.0;"/><text fill="#000000" font-family="sans-serif" font-size="13" lengthAdjust="spacing" textLength="152" x="288.5" y="164.5184">getVehicleCheckUpList()</text></g><!--SRC=[VLD1Ri8m4Bpx5QjUI8I2scjK8LMSaAeUIkdTTPR4mjYflL2b5N-l4q9mI20dnpCxCxks9suhTSajty7EQ2CAQtO8PFV8BaZ9nPRdkA9A8LWKn7MkGe8hU6P-fCvXmvKB4IKrKbKYb4PLzG-RZ836aWcAXEBElH1P-RKdN0gZL_8NuP5D56u8o82LUK6GoJgCD9gnfWG-iP12uJkMnaaoje8_1lvBu5KwUcxXEHnEYtgpmQU-g-yzEgft8kur3xpMZTlg7AcjTM-8cMzqKQ3OhiiHhZWXjTB28YVCehWrkSWiBgGeJllfsF7SJjU7HDTr4cw6oalj_Ba8Z698UwI1-MKyllvuDRicjz5aZL9eMzVfEDhPtvjUZGgK1mmaebx3Pvv3dGMa3xDUNXExjC40ryikPIPTgNXrnyaBz4jdi_buSuoDJoH9vbVkwMZo-4Qzz-kTQ-hd4nnM3slC7fxWONYp-yHa82hRwt0hXOynybpIyzC8Z8QivCR8VFcDA_uF]--></g></svg>