<?xml version="1.0" encoding="us-ascii" standalone="no"?><svg xmlns="http://www.w3.org/2000/svg" xmlns:xlink="http://www.w3.org/1999/xlink" contentStyleType="text/css" height="777px" preserveAspectRatio="none" style="width:1280px;height:777px;background:#FFFFFF;" version="1.1" viewBox="0 0 1280 777" width="1280px" zoomAndPan="magnify"><defs/><g><rect fill="#FFFFFF" height="587.0781" style="stroke:#181818;stroke-width:1.0;" width="10" x="46.5" y="91.4883"/><rect fill="#FFFFFF" height="246.6621" style="stroke:#181818;stroke-width:1.0;" width="10" x="465.5" y="112.7988"/><rect fill="#FFFFFF" height="29.3105" style="stroke:#181818;stroke-width:1.0;" width="10" x="465.5" y="649.2559"/><rect fill="#FFFFFF" height="289.7949" style="stroke:#181818;stroke-width:1.0;" width="10" x="700.5" y="359.4609"/><rect fill="#FFFFFF" height="29.3105" style="stroke:#181818;stroke-width:1.0;" width="10" x="832.5" y="388.7715"/><rect fill="#FFFFFF" height="29.3105" style="stroke:#181818;stroke-width:1.0;" width="10" x="945.5" y="447.3926"/><rect fill="#FFFFFF" height="113.9316" style="stroke:#181818;stroke-width:1.0;" width="10" x="1079" y="506.0137"/><line style="stroke:#181818;stroke-width:0.5;stroke-dasharray:5.0,5.0;" x1="51" x2="51" y1="81.4883" y2="696.5664"/><line style="stroke:#181818;stroke-width:0.5;stroke-dasharray:5.0,5.0;" x1="470.5" x2="470.5" y1="81.4883" y2="696.5664"/><line style="stroke:#181818;stroke-width:0.5;stroke-dasharray:5.0,5.0;" x1="705" x2="705" y1="327.4063" y2="696.5664"/><line style="stroke:#181818;stroke-width:0.5;stroke-dasharray:5.0,5.0;" x1="837" x2="837" y1="81.4883" y2="696.5664"/><line style="stroke:#181818;stroke-width:0.5;stroke-dasharray:5.0,5.0;" x1="950" x2="950" y1="81.4883" y2="696.5664"/><line style="stroke:#181818;stroke-width:0.5;stroke-dasharray:5.0,5.0;" x1="1084" x2="1084" y1="81.4883" y2="696.5664"/><text fill="#000000" font-family="sans-serif" font-size="14" lengthAdjust="spacing" textLength="87" x="5" y="78.5352">Collaborator</text><ellipse cx="51.5" cy="13.5" fill="#E3E3E3" rx="8" ry="8" style="stroke:#181818;stroke-width:0.5;"/><path d="M51.5,21.5 L51.5,48.5 M38.5,29.5 L64.5,29.5 M51.5,48.5 L38.5,63.5 M51.5,48.5 L64.5,63.5 " fill="none" style="stroke:#181818;stroke-width:0.5;"/><text fill="#000000" font-family="sans-serif" font-size="14" lengthAdjust="spacing" textLength="87" x="5" y="709.1016">Collaborator</text><ellipse cx="51.5" cy="720.5547" fill="#E3E3E3" rx="8" ry="8" style="stroke:#181818;stroke-width:0.5;"/><path d="M51.5,728.5547 L51.5,755.5547 M38.5,736.5547 L64.5,736.5547 M51.5,755.5547 L38.5,770.5547 M51.5,755.5547 L64.5,770.5547 " fill="none" style="stroke:#181818;stroke-width:0.5;"/><rect fill="#E3E3E3" height="30.4883" rx="2.5" ry="2.5" style="stroke:#181818;stroke-width:0.5;" width="126" x="407.5" y="50"/><text fill="#000000" font-family="sans-serif" font-size="14" lengthAdjust="spacing" textLength="112" x="414.5" y="70.5352">:RetrieveTasksUI</text><rect fill="#E3E3E3" height="30.4883" rx="2.5" ry="2.5" style="stroke:#181818;stroke-width:0.5;" width="126" x="407.5" y="695.5664"/><text fill="#000000" font-family="sans-serif" font-size="14" lengthAdjust="spacing" textLength="112" x="414.5" y="716.1016">:RetrieveTasksUI</text><rect fill="#E3E3E3" height="30.4883" rx="2.5" ry="2.5" style="stroke:#181818;stroke-width:0.5;" width="137" x="637" y="695.5664"/><text fill="#000000" font-family="sans-serif" font-size="14" lengthAdjust="spacing" textLength="123" x="644" y="716.1016">AgendaController</text><rect fill="#E3E3E3" height="30.4883" rx="2.5" ry="2.5" style="stroke:#181818;stroke-width:0.5;" width="103" x="786" y="50"/><text fill="#000000" font-family="sans-serif" font-size="14" lengthAdjust="spacing" textLength="89" x="793" y="70.5352">:Repositories</text><rect fill="#E3E3E3" height="30.4883" rx="2.5" ry="2.5" style="stroke:#181818;stroke-width:0.5;" width="103" x="786" y="695.5664"/><text fill="#000000" font-family="sans-serif" font-size="14" lengthAdjust="spacing" textLength="89" x="793" y="716.1016">:Repositories</text><rect fill="#E3E3E3" height="46.9766" rx="2.5" ry="2.5" style="stroke:#181818;stroke-width:0.5;" width="103" x="899" y="33.5117"/><text fill="#000000" font-family="sans-serif" font-size="14" lengthAdjust="spacing" textLength="82" x="909.5" y="54.0469">repositories</text><text fill="#000000" font-family="sans-serif" font-size="14" lengthAdjust="spacing" textLength="89" x="906" y="70.5352">:Repositories</text><rect fill="#E3E3E3" height="46.9766" rx="2.5" ry="2.5" style="stroke:#181818;stroke-width:0.5;" width="103" x="899" y="695.5664"/><text fill="#000000" font-family="sans-serif" font-size="14" lengthAdjust="spacing" textLength="82" x="909.5" y="716.1016">repositories</text><text fill="#000000" font-family="sans-serif" font-size="14" lengthAdjust="spacing" textLength="89" x="906" y="732.5898">:Repositories</text><rect fill="#E3E3E3" height="46.9766" rx="2.5" ry="2.5" style="stroke:#181818;stroke-width:0.5;" width="144" x="1012" y="33.5117"/><text fill="#000000" font-family="sans-serif" font-size="14" lengthAdjust="spacing" textLength="124" x="1022" y="54.0469">agendaRepository</text><text fill="#000000" font-family="sans-serif" font-size="14" lengthAdjust="spacing" textLength="130" x="1019" y="70.5352">:AgendaRepository</text><rect fill="#E3E3E3" height="46.9766" rx="2.5" ry="2.5" style="stroke:#181818;stroke-width:0.5;" width="144" x="1012" y="695.5664"/><text fill="#000000" font-family="sans-serif" font-size="14" lengthAdjust="spacing" textLength="124" x="1022" y="716.1016">agendaRepository</text><text fill="#000000" font-family="sans-serif" font-size="14" lengthAdjust="spacing" textLength="130" x="1019" y="732.5898">:AgendaRepository</text><rect fill="#FFFFFF" height="587.0781" style="stroke:#181818;stroke-width:1.0;" width="10" x="46.5" y="91.4883"/><rect fill="#FFFFFF" height="246.6621" style="stroke:#181818;stroke-width:1.0;" width="10" x="465.5" y="112.7988"/><rect fill="#FFFFFF" height="29.3105" style="stroke:#181818;stroke-width:1.0;" width="10" x="465.5" y="649.2559"/><rect fill="#FFFFFF" height="289.7949" style="stroke:#181818;stroke-width:1.0;" width="10" x="700.5" y="359.4609"/><rect fill="#FFFFFF" height="29.3105" style="stroke:#181818;stroke-width:1.0;" width="10" x="832.5" y="388.7715"/><rect fill="#FFFFFF" height="29.3105" style="stroke:#181818;stroke-width:1.0;" width="10" x="945.5" y="447.3926"/><rect fill="#FFFFFF" height="113.9316" style="stroke:#181818;stroke-width:1.0;" width="10" x="1079" y="506.0137"/><polygon fill="#181818" points="453.5,108.7988,463.5,112.7988,453.5,116.7988,457.5,112.7988" style="stroke:#181818;stroke-width:1.0;"/><line style="stroke:#181818;stroke-width:1.0;" x1="56.5" x2="459.5" y1="112.7988" y2="112.7988"/><text fill="#000000" font-family="sans-serif" font-size="13" font-weight="bold" lengthAdjust="spacing" textLength="9" x="63.5" y="108.0566">1</text><text fill="#000000" font-family="sans-serif" font-size="13" lengthAdjust="spacing" textLength="377" x="76.5" y="108.0566">Asks to generate a list of tasks assigned to the collaborator</text><polygon fill="#181818" points="67.5,138.1094,57.5,142.1094,67.5,146.1094,63.5,142.1094" style="stroke:#181818;stroke-width:1.0;"/><line style="stroke:#181818;stroke-width:1.0;stroke-dasharray:2.0,2.0;" x1="61.5" x2="464.5" y1="142.1094" y2="142.1094"/><text fill="#000000" font-family="sans-serif" font-size="13" font-weight="bold" lengthAdjust="spacing" textLength="9" x="73.5" y="137.3672">2</text><text fill="#000000" font-family="sans-serif" font-size="13" lengthAdjust="spacing" textLength="134" x="86.5" y="137.3672">Asks to select a filter</text><polygon fill="#181818" points="453.5,167.4199,463.5,171.4199,453.5,175.4199,457.5,171.4199" style="stroke:#181818;stroke-width:1.0;"/><line style="stroke:#181818;stroke-width:1.0;" x1="56.5" x2="459.5" y1="171.4199" y2="171.4199"/><text fill="#000000" font-family="sans-serif" font-size="13" font-weight="bold" lengthAdjust="spacing" textLength="9" x="63.5" y="166.6777">3</text><text fill="#000000" font-family="sans-serif" font-size="13" lengthAdjust="spacing" textLength="165" x="76.5" y="166.6777">Selects the "Planned" filter</text><polygon fill="#181818" points="67.5,196.7305,57.5,200.7305,67.5,204.7305,63.5,200.7305" style="stroke:#181818;stroke-width:1.0;"/><line style="stroke:#181818;stroke-width:1.0;stroke-dasharray:2.0,2.0;" x1="61.5" x2="464.5" y1="200.7305" y2="200.7305"/><text fill="#000000" font-family="sans-serif" font-size="13" font-weight="bold" lengthAdjust="spacing" textLength="9" x="73.5" y="195.9883">4</text><text fill="#000000" font-family="sans-serif" font-size="13" lengthAdjust="spacing" textLength="180" x="86.5" y="195.9883">Asks the start and end dates</text><polygon fill="#181818" points="453.5,226.041,463.5,230.041,453.5,234.041,457.5,230.041" style="stroke:#181818;stroke-width:1.0;"/><line style="stroke:#181818;stroke-width:1.0;" x1="56.5" x2="459.5" y1="230.041" y2="230.041"/><text fill="#000000" font-family="sans-serif" font-size="13" font-weight="bold" lengthAdjust="spacing" textLength="9" x="63.5" y="225.2988">5</text><text fill="#000000" font-family="sans-serif" font-size="13" lengthAdjust="spacing" textLength="202" x="76.5" y="225.2988">Provides the start and end dates</text><polygon fill="#181818" points="67.5,255.3516,57.5,259.3516,67.5,263.3516,63.5,259.3516" style="stroke:#181818;stroke-width:1.0;"/><line style="stroke:#181818;stroke-width:1.0;stroke-dasharray:2.0,2.0;" x1="61.5" x2="464.5" y1="259.3516" y2="259.3516"/><text fill="#000000" font-family="sans-serif" font-size="13" font-weight="bold" lengthAdjust="spacing" textLength="9" x="73.5" y="254.6094">6</text><text fill="#000000" font-family="sans-serif" font-size="13" lengthAdjust="spacing" textLength="200" x="86.5" y="254.6094">Asks continuation confirmation</text><polygon fill="#181818" points="453.5,284.6621,463.5,288.6621,453.5,292.6621,457.5,288.6621" style="stroke:#181818;stroke-width:1.0;"/><line style="stroke:#181818;stroke-width:1.0;" x1="56.5" x2="459.5" y1="288.6621" y2="288.6621"/><text fill="#000000" font-family="sans-serif" font-size="13" font-weight="bold" lengthAdjust="spacing" textLength="9" x="63.5" y="283.9199">7</text><text fill="#000000" font-family="sans-serif" font-size="13" lengthAdjust="spacing" textLength="122" x="76.5" y="283.9199">Confirms operation</text><polygon fill="#181818" points="625,313.9727,635,317.9727,625,321.9727,629,317.9727" style="stroke:#181818;stroke-width:1.0;"/><line style="stroke:#181818;stroke-width:1.0;" x1="475.5" x2="631" y1="317.9727" y2="317.9727"/><text fill="#000000" font-family="sans-serif" font-size="13" font-weight="bold" lengthAdjust="spacing" textLength="9" x="482.5" y="313.2305">8</text><text fill="#000000" font-family="sans-serif" font-size="13" lengthAdjust="spacing" textLength="38" x="495.5" y="313.2305">create</text><rect fill="#E3E3E3" height="30.4883" rx="2.5" ry="2.5" style="stroke:#181818;stroke-width:0.5;" width="137" x="637" y="296.6621"/><text fill="#000000" font-family="sans-serif" font-size="14" lengthAdjust="spacing" textLength="123" x="644" y="317.1973">AgendaController</text><polygon fill="#181818" points="688.5,355.4609,698.5,359.4609,688.5,363.4609,692.5,359.4609" style="stroke:#181818;stroke-width:1.0;"/><line style="stroke:#181818;stroke-width:1.0;" x1="470.5" x2="694.5" y1="359.4609" y2="359.4609"/><text fill="#000000" font-family="sans-serif" font-size="13" font-weight="bold" lengthAdjust="spacing" textLength="9" x="477.5" y="354.7188">9</text><text fill="#000000" font-family="sans-serif" font-size="13" lengthAdjust="spacing" textLength="193" x="490.5" y="354.7188">requestColabPlannedTaskList()</text><polygon fill="#181818" points="820.5,384.7715,830.5,388.7715,820.5,392.7715,824.5,388.7715" style="stroke:#181818;stroke-width:1.0;"/><line style="stroke:#181818;stroke-width:1.0;" x1="710.5" x2="826.5" y1="388.7715" y2="388.7715"/><text fill="#000000" font-family="sans-serif" font-size="13" font-weight="bold" lengthAdjust="spacing" textLength="18" x="717.5" y="384.0293">10</text><text fill="#000000" font-family="sans-serif" font-size="13" lengthAdjust="spacing" textLength="81" x="739.5" y="384.0293">getInstance()</text><polygon fill="#181818" points="721.5,414.082,711.5,418.082,721.5,422.082,717.5,418.082" style="stroke:#181818;stroke-width:1.0;"/><line style="stroke:#181818;stroke-width:1.0;stroke-dasharray:2.0,2.0;" x1="715.5" x2="836.5" y1="418.082" y2="418.082"/><text fill="#000000" font-family="sans-serif" font-size="13" font-weight="bold" lengthAdjust="spacing" textLength="18" x="727.5" y="413.3398">11</text><text fill="#000000" font-family="sans-serif" font-size="13" lengthAdjust="spacing" textLength="75" x="749.5" y="413.3398">repositories</text><polygon fill="#181818" points="933.5,443.3926,943.5,447.3926,933.5,451.3926,937.5,447.3926" style="stroke:#181818;stroke-width:1.0;"/><line style="stroke:#181818;stroke-width:1.0;" x1="710.5" x2="939.5" y1="447.3926" y2="447.3926"/><text fill="#000000" font-family="sans-serif" font-size="13" font-weight="bold" lengthAdjust="spacing" textLength="18" x="717.5" y="442.6504">12</text><text fill="#000000" font-family="sans-serif" font-size="13" lengthAdjust="spacing" textLength="129" x="739.5" y="442.6504">getTeamRepository()</text><polygon fill="#181818" points="721.5,472.7031,711.5,476.7031,721.5,480.7031,717.5,476.7031" style="stroke:#181818;stroke-width:1.0;"/><line style="stroke:#181818;stroke-width:1.0;stroke-dasharray:2.0,2.0;" x1="715.5" x2="949.5" y1="476.7031" y2="476.7031"/><text fill="#000000" font-family="sans-serif" font-size="13" font-weight="bold" lengthAdjust="spacing" textLength="18" x="727.5" y="471.9609">13</text><text fill="#000000" font-family="sans-serif" font-size="13" lengthAdjust="spacing" textLength="45" x="749.5" y="471.9609">agenda</text><polygon fill="#181818" points="1067,502.0137,1077,506.0137,1067,510.0137,1071,506.0137" style="stroke:#181818;stroke-width:1.0;"/><line style="stroke:#181818;stroke-width:1.0;" x1="710.5" x2="1073" y1="506.0137" y2="506.0137"/><text fill="#000000" font-family="sans-serif" font-size="13" font-weight="bold" lengthAdjust="spacing" textLength="18" x="717.5" y="501.2715">14</text><text fill="#000000" font-family="sans-serif" font-size="13" lengthAdjust="spacing" textLength="144" x="739.5" y="501.2715">requestColabTaskList()</text><line style="stroke:#181818;stroke-width:1.0;" x1="1089" x2="1131" y1="535.3242" y2="535.3242"/><line style="stroke:#181818;stroke-width:1.0;" x1="1131" x2="1131" y1="535.3242" y2="548.3242"/><line style="stroke:#181818;stroke-width:1.0;" x1="1090" x2="1131" y1="548.3242" y2="548.3242"/><polygon fill="#181818" points="1100,544.3242,1090,548.3242,1100,552.3242,1096,548.3242" style="stroke:#181818;stroke-width:1.0;"/><text fill="#000000" font-family="sans-serif" font-size="13" font-weight="bold" lengthAdjust="spacing" textLength="18" x="1096" y="530.582">15</text><text fill="#000000" font-family="sans-serif" font-size="13" lengthAdjust="spacing" textLength="130" x="1118" y="530.582">getPlannedTaskList()</text><line style="stroke:#181818;stroke-width:1.0;stroke-dasharray:2.0,2.0;" x1="1089" x2="1131" y1="577.6348" y2="577.6348"/><line style="stroke:#181818;stroke-width:1.0;stroke-dasharray:2.0,2.0;" x1="1131" x2="1131" y1="577.6348" y2="590.6348"/><line style="stroke:#181818;stroke-width:1.0;stroke-dasharray:2.0,2.0;" x1="1090" x2="1131" y1="590.6348" y2="590.6348"/><polygon fill="#181818" points="1100,586.6348,1090,590.6348,1100,594.6348,1096,590.6348" style="stroke:#181818;stroke-width:1.0;"/><text fill="#000000" font-family="sans-serif" font-size="13" font-weight="bold" lengthAdjust="spacing" textLength="18" x="1096" y="572.8926">16</text><text fill="#000000" font-family="sans-serif" font-size="13" lengthAdjust="spacing" textLength="155" x="1118" y="572.8926">taskPlannedListCreated()</text><polygon fill="#181818" points="721.5,615.9453,711.5,619.9453,721.5,623.9453,717.5,619.9453" style="stroke:#181818;stroke-width:1.0;"/><line style="stroke:#181818;stroke-width:1.0;stroke-dasharray:2.0,2.0;" x1="715.5" x2="1083" y1="619.9453" y2="619.9453"/><text fill="#000000" font-family="sans-serif" font-size="13" font-weight="bold" lengthAdjust="spacing" textLength="18" x="727.5" y="615.2031">17</text><text fill="#000000" font-family="sans-serif" font-size="13" lengthAdjust="spacing" textLength="136" x="749.5" y="615.2031">colabPlannedTaskList</text><polygon fill="#181818" points="486.5,645.2559,476.5,649.2559,486.5,653.2559,482.5,649.2559" style="stroke:#181818;stroke-width:1.0;"/><line style="stroke:#181818;stroke-width:1.0;stroke-dasharray:2.0,2.0;" x1="480.5" x2="704.5" y1="649.2559" y2="649.2559"/><text fill="#000000" font-family="sans-serif" font-size="13" font-weight="bold" lengthAdjust="spacing" textLength="18" x="492.5" y="644.5137">18</text><text fill="#000000" font-family="sans-serif" font-size="13" lengthAdjust="spacing" textLength="136" x="514.5" y="644.5137">colabPlannedTaskList</text><polygon fill="#181818" points="62.5,674.5664,52.5,678.5664,62.5,682.5664,58.5,678.5664" style="stroke:#181818;stroke-width:1.0;"/><line style="stroke:#181818;stroke-width:1.0;stroke-dasharray:2.0,2.0;" x1="56.5" x2="469.5" y1="678.5664" y2="678.5664"/><text fill="#000000" font-family="sans-serif" font-size="13" font-weight="bold" lengthAdjust="spacing" textLength="18" x="68.5" y="673.8242">19</text><text fill="#000000" font-family="sans-serif" font-size="13" lengthAdjust="spacing" textLength="156" x="90.5" y="673.8242">Provides the list of tasks</text><!--SRC=[XPJ1Zk8m38RlUGghfzsHU84vZ8Gu8N500tFRYqbDYMYJRkAochTV9srfMhhQNg39_t-ndH_2tTWMFJRGEElqpRk6W7r7AZntMjHthEZ4tpM19yregpeNX1kMxe-n5Lon3gGKTknirrp8otVDpaEnStMD5-THtWh00BA05wM4m4QR5Yr3yVv9x0qzw8pX7hxsIVYrducs5TaITywo5oJvn3f_7bv8hGj63ZCK4kQvy7qoiNwfS6xncUENVGKS3zlpt86fb0aihkrYAJbxNHg5UI3Js7lwWCs7j0Zli9MMWHs8c7nK8TGcCBWhS1o7a8AfB9LHn3S2dOrqOikubF0sWktv4pbGBRSdtAkfMUvcVlufxOQ4BeurMZcg6AKBue0KPM2P2A0jGNg4KYe82-xHkuSfwT_ojMgrtA-n7R9nDhvSZM_IomA-wxS2k3OEBGeIxoDbukrD9DgJ79ClowAdtnq5Jh2XrvYvWmpynq-bIfhDSxgu6BI44DHAeeHS4U-jj6ar2UdfN8kVMYDiXY9ZZLC2yufMKMDHCQLz5MV2PfBcjQGagwISJXj2cftJoqPmlxyONJwpfs-CUtn0di6PCwIybQddJsxCdV6dC5YZRPSkjnpScM6uPxromNcFKwrzdsEk_kTBGSWpiWZnBFIpd_4YMpcp_rTuMVaB]--></g></svg>