<?xml version="1.0" encoding="us-ascii" standalone="no"?><svg xmlns="http://www.w3.org/2000/svg" xmlns:xlink="http://www.w3.org/1999/xlink" contentStyleType="text/css" height="718px" preserveAspectRatio="none" style="width:1180px;height:718px;background:#FFFFFF;" version="1.1" viewBox="0 0 1180 718" width="1180px" zoomAndPan="magnify"><defs/><g><rect fill="#FFFFFF" height="528.457" style="stroke:#181818;stroke-width:1.0;" width="10" x="46.5" y="91.4883"/><rect fill="#FFFFFF" height="188.041" style="stroke:#181818;stroke-width:1.0;" width="10" x="465.5" y="112.7988"/><rect fill="#FFFFFF" height="29.3105" style="stroke:#181818;stroke-width:1.0;" width="10" x="465.5" y="590.6348"/><rect fill="#FFFFFF" height="289.7949" style="stroke:#181818;stroke-width:1.0;" width="10" x="651.5" y="300.8398"/><rect fill="#FFFFFF" height="29.3105" style="stroke:#181818;stroke-width:1.0;" width="10" x="781.5" y="330.1504"/><rect fill="#FFFFFF" height="29.3105" style="stroke:#181818;stroke-width:1.0;" width="10" x="894.5" y="388.7715"/><rect fill="#FFFFFF" height="113.9316" style="stroke:#181818;stroke-width:1.0;" width="10" x="1028" y="447.3926"/><line style="stroke:#181818;stroke-width:0.5;stroke-dasharray:5.0,5.0;" x1="51" x2="51" y1="81.4883" y2="637.9453"/><line style="stroke:#181818;stroke-width:0.5;stroke-dasharray:5.0,5.0;" x1="470.5" x2="470.5" y1="81.4883" y2="637.9453"/><line style="stroke:#181818;stroke-width:0.5;stroke-dasharray:5.0,5.0;" x1="656" x2="656" y1="268.7852" y2="637.9453"/><line style="stroke:#181818;stroke-width:0.5;stroke-dasharray:5.0,5.0;" x1="786" x2="786" y1="81.4883" y2="637.9453"/><line style="stroke:#181818;stroke-width:0.5;stroke-dasharray:5.0,5.0;" x1="899" x2="899" y1="81.4883" y2="637.9453"/><line style="stroke:#181818;stroke-width:0.5;stroke-dasharray:5.0,5.0;" x1="1033" x2="1033" y1="81.4883" y2="637.9453"/><text fill="#000000" font-family="sans-serif" font-size="14" lengthAdjust="spacing" textLength="87" x="5" y="78.5352">Collaborator</text><ellipse cx="51.5" cy="13.5" fill="#E3E3E3" rx="8" ry="8" style="stroke:#181818;stroke-width:0.5;"/><path d="M51.5,21.5 L51.5,48.5 M38.5,29.5 L64.5,29.5 M51.5,48.5 L38.5,63.5 M51.5,48.5 L64.5,63.5 " fill="none" style="stroke:#181818;stroke-width:0.5;"/><text fill="#000000" font-family="sans-serif" font-size="14" lengthAdjust="spacing" textLength="87" x="5" y="650.4805">Collaborator</text><ellipse cx="51.5" cy="661.9336" fill="#E3E3E3" rx="8" ry="8" style="stroke:#181818;stroke-width:0.5;"/><path d="M51.5,669.9336 L51.5,696.9336 M38.5,677.9336 L64.5,677.9336 M51.5,696.9336 L38.5,711.9336 M51.5,696.9336 L64.5,711.9336 " fill="none" style="stroke:#181818;stroke-width:0.5;"/><rect fill="#E3E3E3" height="30.4883" rx="2.5" ry="2.5" style="stroke:#181818;stroke-width:0.5;" width="126" x="407.5" y="50"/><text fill="#000000" font-family="sans-serif" font-size="14" lengthAdjust="spacing" textLength="112" x="414.5" y="70.5352">:RetrieveTasksUI</text><rect fill="#E3E3E3" height="30.4883" rx="2.5" ry="2.5" style="stroke:#181818;stroke-width:0.5;" width="126" x="407.5" y="636.9453"/><text fill="#000000" font-family="sans-serif" font-size="14" lengthAdjust="spacing" textLength="112" x="414.5" y="657.4805">:RetrieveTasksUI</text><rect fill="#E3E3E3" height="30.4883" rx="2.5" ry="2.5" style="stroke:#181818;stroke-width:0.5;" width="137" x="588" y="636.9453"/><text fill="#000000" font-family="sans-serif" font-size="14" lengthAdjust="spacing" textLength="123" x="595" y="657.4805">AgendaController</text><rect fill="#E3E3E3" height="30.4883" rx="2.5" ry="2.5" style="stroke:#181818;stroke-width:0.5;" width="103" x="735" y="50"/><text fill="#000000" font-family="sans-serif" font-size="14" lengthAdjust="spacing" textLength="89" x="742" y="70.5352">:Repositories</text><rect fill="#E3E3E3" height="30.4883" rx="2.5" ry="2.5" style="stroke:#181818;stroke-width:0.5;" width="103" x="735" y="636.9453"/><text fill="#000000" font-family="sans-serif" font-size="14" lengthAdjust="spacing" textLength="89" x="742" y="657.4805">:Repositories</text><rect fill="#E3E3E3" height="46.9766" rx="2.5" ry="2.5" style="stroke:#181818;stroke-width:0.5;" width="103" x="848" y="33.5117"/><text fill="#000000" font-family="sans-serif" font-size="14" lengthAdjust="spacing" textLength="82" x="858.5" y="54.0469">repositories</text><text fill="#000000" font-family="sans-serif" font-size="14" lengthAdjust="spacing" textLength="89" x="855" y="70.5352">:Repositories</text><rect fill="#E3E3E3" height="46.9766" rx="2.5" ry="2.5" style="stroke:#181818;stroke-width:0.5;" width="103" x="848" y="636.9453"/><text fill="#000000" font-family="sans-serif" font-size="14" lengthAdjust="spacing" textLength="82" x="858.5" y="657.4805">repositories</text><text fill="#000000" font-family="sans-serif" font-size="14" lengthAdjust="spacing" textLength="89" x="855" y="673.9688">:Repositories</text><rect fill="#E3E3E3" height="46.9766" rx="2.5" ry="2.5" style="stroke:#181818;stroke-width:0.5;" width="144" x="961" y="33.5117"/><text fill="#000000" font-family="sans-serif" font-size="14" lengthAdjust="spacing" textLength="124" x="971" y="54.0469">agendaRepository</text><text fill="#000000" font-family="sans-serif" font-size="14" lengthAdjust="spacing" textLength="130" x="968" y="70.5352">:AgendaRepository</text><rect fill="#E3E3E3" height="46.9766" rx="2.5" ry="2.5" style="stroke:#181818;stroke-width:0.5;" width="144" x="961" y="636.9453"/><text fill="#000000" font-family="sans-serif" font-size="14" lengthAdjust="spacing" textLength="124" x="971" y="657.4805">agendaRepository</text><text fill="#000000" font-family="sans-serif" font-size="14" lengthAdjust="spacing" textLength="130" x="968" y="673.9688">:AgendaRepository</text><rect fill="#FFFFFF" height="528.457" style="stroke:#181818;stroke-width:1.0;" width="10" x="46.5" y="91.4883"/><rect fill="#FFFFFF" height="188.041" style="stroke:#181818;stroke-width:1.0;" width="10" x="465.5" y="112.7988"/><rect fill="#FFFFFF" height="29.3105" style="stroke:#181818;stroke-width:1.0;" width="10" x="465.5" y="590.6348"/><rect fill="#FFFFFF" height="289.7949" style="stroke:#181818;stroke-width:1.0;" width="10" x="651.5" y="300.8398"/><rect fill="#FFFFFF" height="29.3105" style="stroke:#181818;stroke-width:1.0;" width="10" x="781.5" y="330.1504"/><rect fill="#FFFFFF" height="29.3105" style="stroke:#181818;stroke-width:1.0;" width="10" x="894.5" y="388.7715"/><rect fill="#FFFFFF" height="113.9316" style="stroke:#181818;stroke-width:1.0;" width="10" x="1028" y="447.3926"/><polygon fill="#181818" points="453.5,108.7988,463.5,112.7988,453.5,116.7988,457.5,112.7988" style="stroke:#181818;stroke-width:1.0;"/><line style="stroke:#181818;stroke-width:1.0;" x1="56.5" x2="459.5" y1="112.7988" y2="112.7988"/><text fill="#000000" font-family="sans-serif" font-size="13" font-weight="bold" lengthAdjust="spacing" textLength="9" x="63.5" y="108.0566">1</text><text fill="#000000" font-family="sans-serif" font-size="13" lengthAdjust="spacing" textLength="377" x="76.5" y="108.0566">Asks to generate a list of tasks assigned to the collaborator</text><polygon fill="#181818" points="67.5,138.1094,57.5,142.1094,67.5,146.1094,63.5,142.1094" style="stroke:#181818;stroke-width:1.0;"/><line style="stroke:#181818;stroke-width:1.0;stroke-dasharray:2.0,2.0;" x1="61.5" x2="464.5" y1="142.1094" y2="142.1094"/><text fill="#000000" font-family="sans-serif" font-size="13" font-weight="bold" lengthAdjust="spacing" textLength="9" x="73.5" y="137.3672">2</text><text fill="#000000" font-family="sans-serif" font-size="13" lengthAdjust="spacing" textLength="134" x="86.5" y="137.3672">Asks to select a filter</text><polygon fill="#181818" points="453.5,167.4199,463.5,171.4199,453.5,175.4199,457.5,171.4199" style="stroke:#181818;stroke-width:1.0;"/><line style="stroke:#181818;stroke-width:1.0;" x1="56.5" x2="459.5" y1="171.4199" y2="171.4199"/><text fill="#000000" font-family="sans-serif" font-size="13" font-weight="bold" lengthAdjust="spacing" textLength="9" x="63.5" y="166.6777">3</text><text fill="#000000" font-family="sans-serif" font-size="13" lengthAdjust="spacing" textLength="89" x="76.5" y="166.6777">Selects a filter</text><polygon fill="#181818" points="67.5,196.7305,57.5,200.7305,67.5,204.7305,63.5,200.7305" style="stroke:#181818;stroke-width:1.0;"/><line style="stroke:#181818;stroke-width:1.0;stroke-dasharray:2.0,2.0;" x1="61.5" x2="464.5" y1="200.7305" y2="200.7305"/><text fill="#000000" font-family="sans-serif" font-size="13" font-weight="bold" lengthAdjust="spacing" textLength="9" x="73.5" y="195.9883">4</text><text fill="#000000" font-family="sans-serif" font-size="13" lengthAdjust="spacing" textLength="180" x="86.5" y="195.9883">Asks the start and end dates</text><polygon fill="#181818" points="453.5,226.041,463.5,230.041,453.5,234.041,457.5,230.041" style="stroke:#181818;stroke-width:1.0;"/><line style="stroke:#181818;stroke-width:1.0;" x1="56.5" x2="459.5" y1="230.041" y2="230.041"/><text fill="#000000" font-family="sans-serif" font-size="13" font-weight="bold" lengthAdjust="spacing" textLength="9" x="63.5" y="225.2988">5</text><text fill="#000000" font-family="sans-serif" font-size="13" lengthAdjust="spacing" textLength="202" x="76.5" y="225.2988">Provides the start and end dates</text><polygon fill="#181818" points="576,255.3516,586,259.3516,576,263.3516,580,259.3516" style="stroke:#181818;stroke-width:1.0;"/><line style="stroke:#181818;stroke-width:1.0;" x1="475.5" x2="582" y1="259.3516" y2="259.3516"/><text fill="#000000" font-family="sans-serif" font-size="13" font-weight="bold" lengthAdjust="spacing" textLength="9" x="482.5" y="254.6094">6</text><text fill="#000000" font-family="sans-serif" font-size="13" lengthAdjust="spacing" textLength="38" x="495.5" y="254.6094">create</text><rect fill="#E3E3E3" height="30.4883" rx="2.5" ry="2.5" style="stroke:#181818;stroke-width:0.5;" width="137" x="588" y="238.041"/><text fill="#000000" font-family="sans-serif" font-size="14" lengthAdjust="spacing" textLength="123" x="595" y="258.5762">AgendaController</text><polygon fill="#181818" points="639.5,296.8398,649.5,300.8398,639.5,304.8398,643.5,300.8398" style="stroke:#181818;stroke-width:1.0;"/><line style="stroke:#181818;stroke-width:1.0;" x1="470.5" x2="645.5" y1="300.8398" y2="300.8398"/><text fill="#000000" font-family="sans-serif" font-size="13" font-weight="bold" lengthAdjust="spacing" textLength="9" x="477.5" y="296.0977">7</text><text fill="#000000" font-family="sans-serif" font-size="13" lengthAdjust="spacing" textLength="144" x="490.5" y="296.0977">requestColabTaskList()</text><polygon fill="#181818" points="769.5,326.1504,779.5,330.1504,769.5,334.1504,773.5,330.1504" style="stroke:#181818;stroke-width:1.0;"/><line style="stroke:#181818;stroke-width:1.0;" x1="661.5" x2="775.5" y1="330.1504" y2="330.1504"/><text fill="#000000" font-family="sans-serif" font-size="13" font-weight="bold" lengthAdjust="spacing" textLength="9" x="668.5" y="325.4082">8</text><text fill="#000000" font-family="sans-serif" font-size="13" lengthAdjust="spacing" textLength="81" x="681.5" y="325.4082">getInstance()</text><polygon fill="#181818" points="672.5,355.4609,662.5,359.4609,672.5,363.4609,668.5,359.4609" style="stroke:#181818;stroke-width:1.0;"/><line style="stroke:#181818;stroke-width:1.0;stroke-dasharray:2.0,2.0;" x1="666.5" x2="785.5" y1="359.4609" y2="359.4609"/><text fill="#000000" font-family="sans-serif" font-size="13" font-weight="bold" lengthAdjust="spacing" textLength="9" x="678.5" y="354.7188">9</text><text fill="#000000" font-family="sans-serif" font-size="13" lengthAdjust="spacing" textLength="75" x="691.5" y="354.7188">repositories</text><polygon fill="#181818" points="882.5,384.7715,892.5,388.7715,882.5,392.7715,886.5,388.7715" style="stroke:#181818;stroke-width:1.0;"/><line style="stroke:#181818;stroke-width:1.0;" x1="661.5" x2="888.5" y1="388.7715" y2="388.7715"/><text fill="#000000" font-family="sans-serif" font-size="13" font-weight="bold" lengthAdjust="spacing" textLength="18" x="668.5" y="384.0293">10</text><text fill="#000000" font-family="sans-serif" font-size="13" lengthAdjust="spacing" textLength="129" x="690.5" y="384.0293">getTeamRepository()</text><polygon fill="#181818" points="672.5,414.082,662.5,418.082,672.5,422.082,668.5,418.082" style="stroke:#181818;stroke-width:1.0;"/><line style="stroke:#181818;stroke-width:1.0;stroke-dasharray:2.0,2.0;" x1="666.5" x2="898.5" y1="418.082" y2="418.082"/><text fill="#000000" font-family="sans-serif" font-size="13" font-weight="bold" lengthAdjust="spacing" textLength="18" x="678.5" y="413.3398">11</text><text fill="#000000" font-family="sans-serif" font-size="13" lengthAdjust="spacing" textLength="45" x="700.5" y="413.3398">agenda</text><polygon fill="#181818" points="1016,443.3926,1026,447.3926,1016,451.3926,1020,447.3926" style="stroke:#181818;stroke-width:1.0;"/><line style="stroke:#181818;stroke-width:1.0;" x1="661.5" x2="1022" y1="447.3926" y2="447.3926"/><text fill="#000000" font-family="sans-serif" font-size="13" font-weight="bold" lengthAdjust="spacing" textLength="18" x="668.5" y="442.6504">12</text><text fill="#000000" font-family="sans-serif" font-size="13" lengthAdjust="spacing" textLength="144" x="690.5" y="442.6504">requestColabTaskList()</text><line style="stroke:#181818;stroke-width:1.0;" x1="1038" x2="1080" y1="476.7031" y2="476.7031"/><line style="stroke:#181818;stroke-width:1.0;" x1="1080" x2="1080" y1="476.7031" y2="489.7031"/><line style="stroke:#181818;stroke-width:1.0;" x1="1039" x2="1080" y1="489.7031" y2="489.7031"/><polygon fill="#181818" points="1049,485.7031,1039,489.7031,1049,493.7031,1045,489.7031" style="stroke:#181818;stroke-width:1.0;"/><text fill="#000000" font-family="sans-serif" font-size="13" font-weight="bold" lengthAdjust="spacing" textLength="18" x="1045" y="471.9609">13</text><text fill="#000000" font-family="sans-serif" font-size="13" lengthAdjust="spacing" textLength="81" x="1067" y="471.9609">getTaskList()</text><line style="stroke:#181818;stroke-width:1.0;stroke-dasharray:2.0,2.0;" x1="1038" x2="1080" y1="519.0137" y2="519.0137"/><line style="stroke:#181818;stroke-width:1.0;stroke-dasharray:2.0,2.0;" x1="1080" x2="1080" y1="519.0137" y2="532.0137"/><line style="stroke:#181818;stroke-width:1.0;stroke-dasharray:2.0,2.0;" x1="1039" x2="1080" y1="532.0137" y2="532.0137"/><polygon fill="#181818" points="1049,528.0137,1039,532.0137,1049,536.0137,1045,532.0137" style="stroke:#181818;stroke-width:1.0;"/><text fill="#000000" font-family="sans-serif" font-size="13" font-weight="bold" lengthAdjust="spacing" textLength="18" x="1045" y="514.2715">14</text><text fill="#000000" font-family="sans-serif" font-size="13" lengthAdjust="spacing" textLength="106" x="1067" y="514.2715">taskListCreated()</text><polygon fill="#181818" points="672.5,557.3242,662.5,561.3242,672.5,565.3242,668.5,561.3242" style="stroke:#181818;stroke-width:1.0;"/><line style="stroke:#181818;stroke-width:1.0;stroke-dasharray:2.0,2.0;" x1="666.5" x2="1032" y1="561.3242" y2="561.3242"/><text fill="#000000" font-family="sans-serif" font-size="13" font-weight="bold" lengthAdjust="spacing" textLength="18" x="678.5" y="556.582">15</text><text fill="#000000" font-family="sans-serif" font-size="13" lengthAdjust="spacing" textLength="87" x="700.5" y="556.582">colabTaskList</text><polygon fill="#181818" points="486.5,586.6348,476.5,590.6348,486.5,594.6348,482.5,590.6348" style="stroke:#181818;stroke-width:1.0;"/><line style="stroke:#181818;stroke-width:1.0;stroke-dasharray:2.0,2.0;" x1="480.5" x2="655.5" y1="590.6348" y2="590.6348"/><text fill="#000000" font-family="sans-serif" font-size="13" font-weight="bold" lengthAdjust="spacing" textLength="18" x="492.5" y="585.8926">16</text><text fill="#000000" font-family="sans-serif" font-size="13" lengthAdjust="spacing" textLength="87" x="514.5" y="585.8926">colabTaskList</text><polygon fill="#181818" points="62.5,615.9453,52.5,619.9453,62.5,623.9453,58.5,619.9453" style="stroke:#181818;stroke-width:1.0;"/><line style="stroke:#181818;stroke-width:1.0;stroke-dasharray:2.0,2.0;" x1="56.5" x2="469.5" y1="619.9453" y2="619.9453"/><text fill="#000000" font-family="sans-serif" font-size="13" font-weight="bold" lengthAdjust="spacing" textLength="18" x="68.5" y="615.2031">17</text><text fill="#000000" font-family="sans-serif" font-size="13" lengthAdjust="spacing" textLength="156" x="90.5" y="615.2031">Provides the list of tasks</text><!--SRC=[VPFFRi8m3CRlUGgBqpQ95-0m2N52uZ0DTjl5fAP4j0bB3DFUVavQg0jilK2Tx_l5_veEpXynOWjjyC7kOsW9E9x8fEl94Uq1QrhpJqCGoJBwkj62jCSgV3jVmmwRHCRWYOC_jLkAyjzoY31PXAR1ROWeRnF011B0hJ52O6VT4Jt3PFPE71sTQOFfa3wMHVYn78dcDVaA5y5p52J5mjgyh-v8nv2SNEOe5SmryBDsEN_9S6o9ol7fxm5lg_bcxC2IoW0Mr_mcL9oThhJ2dP7fKdlvWUchb0Wpc4l9m054J36h41gN6C8EEBT3ICdLdgeiuZs1LIqTsD8kmKs5sk47SA96XYVOdMjOHZE-VbrEqt1yG-anSczYQGAWhq3AWaekJJUijnZEhgA_vGN-MkRsyY866qdYEYp1I5ydIbpGUI5MqesdPsCgqiMghkOjA5vXF1Yt86lYfPU4l2KXNPsFTiCy8apxx79omtheZ1wYBadb5Ugos12sWrJdKjRC5ELmMxz1wfvETW5tv__qxEgxx69-G9xUgHavFMNLZtPe2_VwHPbZrTkKiX-frNdfSeQqkfBwJVfJNsRzpywFDd3q6TsiZsPsN-LTv1S0]--></g></svg>