<?xml version="1.0" encoding="us-ascii" standalone="no"?><svg xmlns="http://www.w3.org/2000/svg" xmlns:xlink="http://www.w3.org/1999/xlink" contentStyleType="text/css" height="483px" preserveAspectRatio="none" style="width:909px;height:483px;background:#FFFFFF;" version="1.1" viewBox="0 0 909 483" width="909px" zoomAndPan="magnify"><defs/><g><!--class AgendaRepository--><g id="elem_AgendaRepository"><rect codeLine="9" fill="#F1F1F1" height="212.8828" id="AgendaRepository" rx="2.5" ry="2.5" style="stroke:#181818;stroke-width:0.5;" width="376" x="61" y="263.91"/><ellipse cx="181.75" cy="279.91" fill="#ADD1B2" rx="11" ry="11" style="stroke:#181818;stroke-width:1.0;"/><path d="M184.7231,285.5531 Q184.1421,285.8519 183.5029,286.0013 Q182.8638,286.1507 182.1582,286.1507 Q179.6514,286.1507 178.3315,284.4989 Q177.0117,282.847 177.0117,279.7259 Q177.0117,276.5965 178.3315,274.9447 Q179.6514,273.2928 182.1582,273.2928 Q182.8638,273.2928 183.5112,273.4422 Q184.1587,273.5916 184.7231,273.8905 L184.7231,276.6131 Q184.0923,276.0321 183.4988,275.7623 Q182.9053,275.4925 182.2744,275.4925 Q180.9297,275.4925 180.2449,276.5592 Q179.5601,277.6258 179.5601,279.7259 Q179.5601,281.8177 180.2449,282.8844 Q180.9297,283.951 182.2744,283.951 Q182.9053,283.951 183.4988,283.6812 Q184.0923,283.4115 184.7231,282.8304 Z " fill="#000000"/><text fill="#000000" font-family="sans-serif" font-size="14" lengthAdjust="spacing" textLength="126" x="202.25" y="285.201">AgendaRepository</text><line style="stroke:#181818;stroke-width:0.5;" x1="62" x2="436" y1="295.91" y2="295.91"/><text fill="#000000" font-family="sans-serif" font-size="14" lengthAdjust="spacing" textLength="196" x="67" y="313.4452">-List&lt;AgendaEntry&gt; agenda</text><line style="stroke:#181818;stroke-width:0.5;" x1="62" x2="436" y1="320.3983" y2="320.3983"/><text fill="#000000" font-family="sans-serif" font-size="14" lengthAdjust="spacing" textLength="150" x="67" y="337.9334">-getTaskPlannedList()</text><text fill="#000000" font-family="sans-serif" font-size="14" lengthAdjust="spacing" textLength="95" x="67" y="354.4217">-getTaskList()</text><text fill="#000000" font-family="sans-serif" font-size="14" lengthAdjust="spacing" textLength="178" x="67" y="370.91">-taskPlannedListCreated()</text><text fill="#000000" font-family="sans-serif" font-size="14" lengthAdjust="spacing" textLength="123" x="67" y="387.3983">-taskListCreated()</text><text fill="#000000" font-family="sans-serif" font-size="14" lengthAdjust="spacing" textLength="177" x="67" y="403.8866">+changedTaskStatusList()</text><text fill="#000000" font-family="sans-serif" font-size="14" lengthAdjust="spacing" textLength="126" x="67" y="420.3748">+sortByStartDate()</text><text fill="#000000" font-family="sans-serif" font-size="14" lengthAdjust="spacing" textLength="85" x="67" y="436.8631">+getStatus()</text><text fill="#000000" font-family="sans-serif" font-size="14" lengthAdjust="spacing" textLength="309" x="67" y="453.3514">+requestColabTaskList(): List&lt;AgendaEntry&gt;</text><text fill="#000000" font-family="sans-serif" font-size="14" lengthAdjust="spacing" textLength="364" x="67" y="469.8397">+requestColabPlannedTaskList(): List&lt;AgendaEntry&gt;</text></g><!--class Repositories--><g id="elem_Repositories"><rect codeLine="22" fill="#F1F1F1" height="97.4648" id="Repositories" rx="2.5" ry="2.5" style="stroke:#181818;stroke-width:0.5;" width="209" x="593.5" y="48.22"/><ellipse cx="651.25" cy="64.22" fill="#ADD1B2" rx="11" ry="11" style="stroke:#181818;stroke-width:1.0;"/><path d="M654.2231,69.8631 Q653.6421,70.1619 653.0029,70.3113 Q652.3638,70.4607 651.6582,70.4607 Q649.1514,70.4607 647.8315,68.8089 Q646.5117,67.157 646.5117,64.0359 Q646.5117,60.9065 647.8315,59.2547 Q649.1514,57.6028 651.6582,57.6028 Q652.3638,57.6028 653.0112,57.7522 Q653.6587,57.9016 654.2231,58.2005 L654.2231,60.9231 Q653.5923,60.3421 652.9988,60.0723 Q652.4053,59.8025 651.7744,59.8025 Q650.4297,59.8025 649.7449,60.8692 Q649.0601,61.9358 649.0601,64.0359 Q649.0601,66.1277 649.7449,67.1944 Q650.4297,68.261 651.7744,68.261 Q652.4053,68.261 652.9988,67.9912 Q653.5923,67.7215 654.2231,67.1404 Z " fill="#000000"/><text fill="#000000" font-family="sans-serif" font-size="14" lengthAdjust="spacing" textLength="85" x="671.75" y="69.511">Repositories</text><line style="stroke:#181818;stroke-width:0.5;" x1="594.5" x2="801.5" y1="80.22" y2="80.22"/><line style="stroke:#181818;stroke-width:0.5;" x1="594.5" x2="801.5" y1="88.22" y2="88.22"/><text fill="#000000" font-family="sans-serif" font-size="14" lengthAdjust="spacing" textLength="103" x="599.5" y="105.7552">-Repositories()</text><text fill="#000000" font-family="sans-serif" font-size="14" lengthAdjust="spacing" textLength="96" x="599.5" y="122.2434">+getAgenda()</text><text fill="#000000" font-family="sans-serif" font-size="14" lengthAdjust="spacing" textLength="197" x="599.5" y="138.7317">+getInstance() : Repositories</text></g><!--class AgendaController--><g id="elem_AgendaController"><rect codeLine="28" fill="#F1F1F1" height="179.9063" id="AgendaController" rx="2.5" ry="2.5" style="stroke:#181818;stroke-width:0.5;" width="290" x="192" y="7"/><ellipse cx="271.25" cy="23" fill="#ADD1B2" rx="11" ry="11" style="stroke:#181818;stroke-width:1.0;"/><path d="M274.2231,28.6431 Q273.6421,28.9419 273.0029,29.0913 Q272.3638,29.2407 271.6582,29.2407 Q269.1514,29.2407 267.8315,27.5889 Q266.5117,25.937 266.5117,22.8159 Q266.5117,19.6865 267.8315,18.0347 Q269.1514,16.3828 271.6582,16.3828 Q272.3638,16.3828 273.0112,16.5322 Q273.6587,16.6816 274.2231,16.9805 L274.2231,19.7031 Q273.5923,19.1221 272.9988,18.8523 Q272.4053,18.5825 271.7744,18.5825 Q270.4297,18.5825 269.7449,19.6492 Q269.0601,20.7158 269.0601,22.8159 Q269.0601,24.9077 269.7449,25.9744 Q270.4297,27.041 271.7744,27.041 Q272.4053,27.041 272.9988,26.7712 Q273.5923,26.5015 274.2231,25.9204 Z " fill="#000000"/><text fill="#000000" font-family="sans-serif" font-size="14" lengthAdjust="spacing" textLength="123" x="291.75" y="28.291">AgendaController</text><line style="stroke:#181818;stroke-width:0.5;" x1="193" x2="481" y1="39" y2="39"/><text fill="#000000" font-family="sans-serif" font-size="14" lengthAdjust="spacing" textLength="262" x="198" y="56.5352">-AgendaRepository agendaRepository</text><text fill="#000000" font-family="sans-serif" font-size="14" lengthAdjust="spacing" textLength="278" x="198" y="73.0234">-ToDoListRepository toDoListRepository;</text><text fill="#000000" font-family="sans-serif" font-size="14" lengthAdjust="spacing" textLength="234" x="198" y="89.5117">-TeamRepository teamRepository;</text><text fill="#000000" font-family="sans-serif" font-size="14" lengthAdjust="spacing" textLength="258" x="198" y="106">-VehicleRepository vehicleRepository;</text><line style="stroke:#181818;stroke-width:0.5;" x1="193" x2="481" y1="112.9531" y2="112.9531"/><text fill="#000000" font-family="sans-serif" font-size="14" lengthAdjust="spacing" textLength="168" x="198" y="130.4883">+requestColabTaskList()</text><text fill="#000000" font-family="sans-serif" font-size="14" lengthAdjust="spacing" textLength="223" x="198" y="146.9766">+requestPlannedColabTaskList()</text><text fill="#000000" font-family="sans-serif" font-size="14" lengthAdjust="spacing" textLength="85" x="198" y="163.4648">+getStatus()</text><text fill="#000000" font-family="sans-serif" font-size="14" lengthAdjust="spacing" textLength="232" x="198" y="179.9531">+requestChangedStatusTaskList()</text></g><!--class RetrieveTaskUI--><g id="elem_RetrieveTaskUI"><rect codeLine="40" fill="#F1F1F1" height="48" id="RetrieveTaskUI" rx="2.5" ry="2.5" style="stroke:#181818;stroke-width:0.5;" width="133" x="537.5" y="346.35"/><ellipse cx="552.5" cy="362.35" fill="#ADD1B2" rx="11" ry="11" style="stroke:#181818;stroke-width:1.0;"/><path d="M555.4731,367.9931 Q554.8921,368.2919 554.2529,368.4413 Q553.6138,368.5907 552.9082,368.5907 Q550.4014,368.5907 549.0815,366.9389 Q547.7617,365.287 547.7617,362.1659 Q547.7617,359.0365 549.0815,357.3847 Q550.4014,355.7328 552.9082,355.7328 Q553.6138,355.7328 554.2612,355.8822 Q554.9087,356.0316 555.4731,356.3305 L555.4731,359.0531 Q554.8423,358.4721 554.2488,358.2023 Q553.6553,357.9325 553.0244,357.9325 Q551.6797,357.9325 550.9949,358.9992 Q550.3101,360.0658 550.3101,362.1659 Q550.3101,364.2577 550.9949,365.3244 Q551.6797,366.391 553.0244,366.391 Q553.6553,366.391 554.2488,366.1212 Q554.8423,365.8515 555.4731,365.2704 Z " fill="#000000"/><text fill="#000000" font-family="sans-serif" font-size="14" lengthAdjust="spacing" textLength="101" x="566.5" y="367.641">RetrieveTaskUI</text><line style="stroke:#181818;stroke-width:0.5;" x1="538.5" x2="669.5" y1="378.35" y2="378.35"/><line style="stroke:#181818;stroke-width:0.5;" x1="538.5" x2="669.5" y1="386.35" y2="386.35"/></g><!--link RetrieveTaskUI to AgendaController--><g id="link_RetrieveTaskUI_AgendaController"><path codeLine="43" d="M601.07,345.86 C595.74,303.1 585,216.91 585,216.91 C585,216.91 541.88,196.2246 487.75,170.2646 " fill="none" id="RetrieveTaskUI-to-AgendaController" style="stroke:#181818;stroke-width:1.0;stroke-dasharray:7.0,7.0;"/><polygon fill="#181818" points="482.34,167.67,488.7253,175.1685,486.8483,169.8321,492.1847,167.9552,482.34,167.67" style="stroke:#181818;stroke-width:1.0;"/></g><!--link AgendaController to RetrieveTaskUI--><g id="link_AgendaController_RetrieveTaskUI"><path codeLine="45" d="M472.04,187.2 C497.85,204.25 517,216.91 517,216.91 C517,216.91 563.2154,297.8893 587.6254,340.6493 " fill="none" id="AgendaController-to-RetrieveTaskUI" style="stroke:#181818;stroke-width:1.0;"/><polygon fill="#181818" points="590.6,345.86,589.6119,336.0608,588.1212,341.5177,582.6643,340.027,590.6,345.86" style="stroke:#181818;stroke-width:1.0;"/></g><!--link AgendaController to Repositories--><g id="link_AgendaController_Repositories"><path codeLine="46" d="M482.27,96.95 C519.4,96.95 552.6,96.95 587.24,96.95 " fill="none" id="AgendaController-to-Repositories" style="stroke:#181818;stroke-width:1.0;stroke-dasharray:7.0,7.0;"/><polygon fill="#181818" points="593.24,96.95,584.24,92.95,588.24,96.95,584.24,100.95,593.24,96.95" style="stroke:#181818;stroke-width:1.0;"/><text fill="#000000" font-family="sans-serif" font-size="13" lengthAdjust="spacing" textLength="75" x="500.25" y="90.5184">repositories</text></g><!--link Repositories to AgendaRepository--><g id="link_Repositories_AgendaRepository"><path codeLine="47" d="M661.33,145.89 C631.39,185.03 594,233.91 594,233.91 C594,233.91 523.625,261.5373 442.985,293.1973 " fill="none" id="Repositories-to-AgendaRepository" style="stroke:#181818;stroke-width:1.0;"/><polygon fill="#181818" points="437.4,295.39,447.2393,295.8242,442.0542,293.5627,444.3157,288.3776,437.4,295.39" style="stroke:#181818;stroke-width:1.0;"/><text fill="#000000" font-family="sans-serif" font-size="13" lengthAdjust="spacing" textLength="8" x="444.9938" y="289.7433">1</text></g><!--link Repositories to Repositories--><g id="link_Repositories_Repositories"><path codeLine="48" d="M802.94,73.98 C823.17,76.69 837.5,84.35 837.5,96.95 C837.5,109.56 829.1169,116.4234 808.8869,119.1334 " fill="none" id="Repositories-to-Repositories" style="stroke:#181818;stroke-width:1.0;"/><polygon fill="#181818" points="802.94,119.93,812.3914,122.6996,807.8957,119.2661,811.3292,114.7705,802.94,119.93" style="stroke:#181818;stroke-width:1.0;"/><text fill="#000000" font-family="sans-serif" font-size="13" lengthAdjust="spacing" textLength="53" x="843.5" y="102.0184">instance</text></g><!--link AgendaController to AgendaRepository--><g id="link_AgendaController_AgendaRepository"><path codeLine="49" d="M191.82,150.13 C102.88,182.09 6,216.91 6,216.91 C6,216.91 6,233.91 6,233.91 C6,233.91 23.6093,243.7186 55.2893,261.3786 " fill="none" id="AgendaController-to-AgendaRepository" style="stroke:#181818;stroke-width:1.0;stroke-dasharray:7.0,7.0;"/><polygon fill="#181818" points="60.53,264.3,54.6165,256.424,56.1627,261.8655,50.7213,263.4117,60.53,264.3" style="stroke:#181818;stroke-width:1.0;"/><text fill="#000000" font-family="sans-serif" font-size="13" lengthAdjust="spacing" textLength="112" x="7" y="230.4784">agendaRepository</text></g><!--link AgendaRepository to AgendaController--><g id="link_AgendaRepository_AgendaController"><path codeLine="50" d="M179.53,263.63 C168.16,246.32 160,233.91 160,233.91 C160,233.91 160,216.91 160,216.91 C160,216.91 173.8495,207.5958 199.2295,190.5458 " fill="none" id="AgendaRepository-to-AgendaController" style="stroke:#181818;stroke-width:1.0;"/><polygon fill="#181818" points="204.21,187.2,194.5087,188.8984,200.0596,189.9882,198.9698,195.5391,204.21,187.2" style="stroke:#181818;stroke-width:1.0;"/><text fill="#000000" font-family="sans-serif" font-size="13" lengthAdjust="spacing" textLength="144" x="161" y="230.4784">requestColabTaskList()</text></g><!--link AgendaRepository to AgendaController--><g id="link_AgendaRepository_AgendaController"><path codeLine="51" d="M296.61,263.63 C304.41,246.32 310,233.91 310,233.91 C310,233.91 313.0313,218.6351 318.1213,193.0051 " fill="none" id="AgendaRepository-to-AgendaController-1" style="stroke:#181818;stroke-width:1.0;"/><polygon fill="#181818" points="319.29,187.12,313.6135,195.1684,318.316,192.0242,321.4603,196.7268,319.29,187.12" style="stroke:#181818;stroke-width:1.0;"/><text fill="#000000" font-family="sans-serif" font-size="13" lengthAdjust="spacing" textLength="193" x="315" y="230.4784">requestColabPlannedTaskList()</text></g><!--SRC=[dLFBJiCm4BpdArPS2aAju1fGfV8uLEA0A71VaYMnwdg3lGK5nB_ZD7tOTU50RfwPNOzdDmCtLwP1YmjOiE6YjhmW4BkaRCSqMConefcqci1I8MWg7GfSZIL_A5F1AseNCbePahOXQ5YttI4R723P2WT5XKRd9Y9MlIo5fWMRcVeaECi6cbu5XC6ggXOeLMT6iScoLGbCAZ8bFb33JWdR5huoyD_mJZcvxCbR8xOT0wuEFGiLoIEw-Rr6OwZinCSdCHLX4cklBQ5G6T4fVWf5xMEZicit4vIb2vgUWlCPNBMUi7BZoxQuDz2hjuYbjoNvzgpnPUSjX-IH1_Hhst-NVM_Yt0Qfo6sYZC3GPTyYHAR6-Kqf_5iWZyfsD_H5r-mlPgt9Rcz99ebxm5hto3VSlI1GIW9TRCI4Yr0O7JUYPwfLeIdGlUyZ5tzE8YRNYH_M_3xSVbTwCYWBP-D_3tgdZdoQ-jmyiuUDHkCau2nB8XyEntlTKire72z3xeq6yuouLSEZSpXAXXZhXabFjLwO0_Tx0-bEvEbM99hEJD8k_srq_obF_gaV]--></g></svg>