<?xml version="1.0" encoding="us-ascii" standalone="no"?><svg xmlns="http://www.w3.org/2000/svg" xmlns:xlink="http://www.w3.org/1999/xlink" contentStyleType="text/css" height="409px" preserveAspectRatio="none" style="width:434px;height:409px;background:#FFFFFF;" version="1.1" viewBox="0 0 434 409" width="434px" zoomAndPan="magnify"><defs/><g><text fill="#000000" font-family="sans-serif" font-size="14" font-weight="bold" lengthAdjust="spacing" textLength="406" x="10" y="27.9951">System Sequence Diagram (SSD) - Alternative One</text><rect fill="#FFFFFF" height="190.9297" style="stroke:#181818;stroke-width:1.0;" width="10" x="110.5" y="128.5938"/><rect fill="#FFFFFF" height="29.1328" style="stroke:#181818;stroke-width:1.0;" width="10" x="353.5" y="149.7266"/><rect fill="#FFFFFF" height="44.2656" style="stroke:#181818;stroke-width:1.0;" width="10" x="353.5" y="207.9922"/><rect fill="#FFFFFF" height="29.1328" style="stroke:#181818;stroke-width:1.0;" width="10" x="353.5" y="281.3906"/><line style="stroke:#181818;stroke-width:0.5;stroke-dasharray:5.0,5.0;" x1="115" x2="115" y1="118.5938" y2="328.5234"/><line style="stroke:#181818;stroke-width:0.5;stroke-dasharray:5.0,5.0;" x1="358" x2="358" y1="118.5938" y2="328.5234"/><text fill="#000000" font-family="sans-serif" font-size="14" lengthAdjust="spacing" textLength="159" x="33" y="115.292">Green Space Manager</text><ellipse cx="115.5" cy="50.7969" fill="#E3E3E3" rx="8" ry="8" style="stroke:#181818;stroke-width:0.5;"/><path d="M115.5,58.7969 L115.5,85.7969 M102.5,66.7969 L128.5,66.7969 M115.5,85.7969 L102.5,100.7969 M115.5,85.7969 L128.5,100.7969 " fill="none" style="stroke:#181818;stroke-width:0.5;"/><text fill="#000000" font-family="sans-serif" font-size="14" lengthAdjust="spacing" textLength="159" x="33" y="340.5186">Green Space Manager</text><ellipse cx="115.5" cy="352.3203" fill="#E3E3E3" rx="8" ry="8" style="stroke:#181818;stroke-width:0.5;"/><path d="M115.5,360.3203 L115.5,387.3203 M102.5,368.3203 L128.5,368.3203 M115.5,387.3203 L102.5,402.3203 M115.5,387.3203 L128.5,402.3203 " fill="none" style="stroke:#181818;stroke-width:0.5;"/><rect fill="#E3E3E3" height="30.2969" rx="2.5" ry="2.5" style="stroke:#181818;stroke-width:0.5;" width="71" x="323" y="87.2969"/><text fill="#000000" font-family="sans-serif" font-size="14" lengthAdjust="spacing" textLength="57" x="330" y="107.292">:System</text><rect fill="#E3E3E3" height="30.2969" rx="2.5" ry="2.5" style="stroke:#181818;stroke-width:0.5;" width="71" x="323" y="327.5234"/><text fill="#000000" font-family="sans-serif" font-size="14" lengthAdjust="spacing" textLength="57" x="330" y="347.5186">:System</text><rect fill="#FFFFFF" height="190.9297" style="stroke:#181818;stroke-width:1.0;" width="10" x="110.5" y="128.5938"/><rect fill="#FFFFFF" height="29.1328" style="stroke:#181818;stroke-width:1.0;" width="10" x="353.5" y="149.7266"/><rect fill="#FFFFFF" height="44.2656" style="stroke:#181818;stroke-width:1.0;" width="10" x="353.5" y="207.9922"/><rect fill="#FFFFFF" height="29.1328" style="stroke:#181818;stroke-width:1.0;" width="10" x="353.5" y="281.3906"/><polygon fill="#181818" points="341.5,145.7266,351.5,149.7266,341.5,153.7266,345.5,149.7266" style="stroke:#181818;stroke-width:1.0;"/><line style="stroke:#181818;stroke-width:1.0;" x1="120.5" x2="347.5" y1="149.7266" y2="149.7266"/><text fill="#000000" font-family="sans-serif" font-size="13" font-weight="bold" lengthAdjust="spacing" textLength="9" x="127.5" y="144.6606">1</text><text fill="#000000" font-family="sans-serif" font-size="13" lengthAdjust="spacing" textLength="189" x="140.5" y="144.6606">ask to register a green space</text><polygon fill="#181818" points="131.5,174.8594,121.5,178.8594,131.5,182.8594,127.5,178.8594" style="stroke:#181818;stroke-width:1.0;"/><line style="stroke:#181818;stroke-width:1.0;stroke-dasharray:2.0,2.0;" x1="125.5" x2="357.5" y1="178.8594" y2="178.8594"/><text fill="#000000" font-family="sans-serif" font-size="13" font-weight="bold" lengthAdjust="spacing" textLength="9" x="137.5" y="173.7935">2</text><text fill="#000000" font-family="sans-serif" font-size="13" lengthAdjust="spacing" textLength="196" x="150.5" y="173.7935">request data (name,size,area)</text><polygon fill="#181818" points="341.5,203.9922,351.5,207.9922,341.5,211.9922,345.5,207.9922" style="stroke:#181818;stroke-width:1.0;"/><line style="stroke:#181818;stroke-width:1.0;" x1="120.5" x2="347.5" y1="207.9922" y2="207.9922"/><text fill="#000000" font-family="sans-serif" font-size="13" font-weight="bold" lengthAdjust="spacing" textLength="9" x="127.5" y="202.9263">3</text><text fill="#000000" font-family="sans-serif" font-size="13" lengthAdjust="spacing" textLength="138" x="140.5" y="202.9263">types requested data</text><polygon fill="#181818" points="131.5,248.2578,121.5,252.2578,131.5,256.2578,127.5,252.2578" style="stroke:#181818;stroke-width:1.0;"/><line style="stroke:#181818;stroke-width:1.0;stroke-dasharray:2.0,2.0;" x1="125.5" x2="357.5" y1="252.2578" y2="252.2578"/><text fill="#000000" font-family="sans-serif" font-size="13" font-weight="bold" lengthAdjust="spacing" textLength="9" x="137.5" y="239.6255">4</text><text fill="#000000" font-family="sans-serif" font-size="13" lengthAdjust="spacing" textLength="157" x="150.5" y="232.0591">show all data registered</text><text fill="#000000" font-family="sans-serif" font-size="13" lengthAdjust="spacing" textLength="177" x="154.5" y="247.1919">and the confirmation menu</text><polygon fill="#181818" points="341.5,277.3906,351.5,281.3906,341.5,285.3906,345.5,281.3906" style="stroke:#181818;stroke-width:1.0;"/><line style="stroke:#181818;stroke-width:1.0;" x1="120.5" x2="347.5" y1="281.3906" y2="281.3906"/><text fill="#000000" font-family="sans-serif" font-size="13" font-weight="bold" lengthAdjust="spacing" textLength="9" x="127.5" y="276.3247">5</text><text fill="#000000" font-family="sans-serif" font-size="13" lengthAdjust="spacing" textLength="85" x="140.5" y="276.3247">submits data</text><polygon fill="#181818" points="131.5,306.5234,121.5,310.5234,131.5,314.5234,127.5,310.5234" style="stroke:#181818;stroke-width:1.0;"/><line style="stroke:#181818;stroke-width:1.0;stroke-dasharray:2.0,2.0;" x1="125.5" x2="357.5" y1="310.5234" y2="310.5234"/><text fill="#000000" font-family="sans-serif" font-size="13" font-weight="bold" lengthAdjust="spacing" textLength="9" x="137.5" y="305.4575">6</text><text fill="#000000" font-family="sans-serif" font-size="13" lengthAdjust="spacing" textLength="184" x="150.5" y="305.4575">shows operation (in)success</text><!--SRC=[dP6nRi8m48RtFCM92IHu0OPAbQWwLHsoTZcSdyGYFgU-2oXz-fg4q0vqA9xEzlsVlvFrwANZn852bEYQ50F8Kez2RpSTkoFNA6reGGdEMEhsTuCsNCMpbveEt2gAmhpbrd9GGw0Idpt4WNQUwqlxiYntAzhGSsj8mkPFe7V9CUujIX_sIBbs5XCjNXCWL6O5q1jBraWBOgMNqBLn08fiODxvZiLeiPsU73kciXX9_iI6dqn1USqxsZpDfjkSEvB5F6JjyqaYfdeKq8l06BlHPZvTrvMnoRWRUfj9UNWrgjYObi81Q_LVM7C2hyPiXRl8ktesTD2PYMga5ezeQHFFn6qxUStZeleGOgd86f2BSl0fvE-9GW7I_zjM-ttmffFbWv9AiKEQ99PULjex1zK_NBu1]--></g></svg>