<?xml version="1.0" encoding="us-ascii" standalone="no"?><svg xmlns="http://www.w3.org/2000/svg" xmlns:xlink="http://www.w3.org/1999/xlink" contentStyleType="text/css" height="399.33px" preserveAspectRatio="none" style="width:315px;height:399px;background:#FFFFFF;" version="1.1" viewBox="0 0 315 399" width="315.9px" zoomAndPan="magnify"><defs/><g><text fill="#000000" font-family="sans-serif" font-size="11.34" font-weight="bold" lengthAdjust="spacing" textLength="284.31" x="14.985" y="24.387">System Sequence Diagram (SSD) - Alternative One</text><rect fill="#FFFFFF" height="217.5815" style="stroke:#181818;stroke-width:0.81;" width="8.1" x="60.75" y="107.9262"/><rect fill="#FFFFFF" height="25.3457" style="stroke:#181818;stroke-width:0.81;" width="8.1" x="281.07" y="126.7919"/><rect fill="#FFFFFF" height="25.3457" style="stroke:#181818;stroke-width:0.81;" width="8.1" x="281.07" y="177.4833"/><rect fill="#FFFFFF" height="39.3514" style="stroke:#181818;stroke-width:0.81;" width="8.1" x="281.07" y="228.1748"/><rect fill="#FFFFFF" height="25.3457" style="stroke:#181818;stroke-width:0.81;" width="8.1" x="281.07" y="292.872"/><line style="stroke:#181818;stroke-width:0.405;stroke-dasharray:5.0,5.0;" x1="64.8" x2="64.8" y1="99.8262" y2="332.7977"/><line style="stroke:#181818;stroke-width:0.405;stroke-dasharray:5.0,5.0;" x1="285.12" x2="285.12" y1="99.8262" y2="332.7977"/><text fill="#000000" font-family="sans-serif" font-size="11.34" lengthAdjust="spacing" textLength="116.64" x="4.05" y="96.9801">Green Space Manager</text><ellipse cx="64.8" cy="43.0281" fill="#E3E3E3" rx="6.48" ry="6.48" style="stroke:#181818;stroke-width:0.405;"/><path d="M64.8,49.5081 L64.8,71.3781 M54.27,55.9881 L75.33,55.9881 M64.8,71.3781 L54.27,83.5281 M64.8,71.3781 L75.33,83.5281 " fill="none" style="stroke:#181818;stroke-width:0.405;"/><text fill="#000000" font-family="sans-serif" font-size="11.34" lengthAdjust="spacing" textLength="116.64" x="4.05" y="344.2247">Green Space Manager</text><ellipse cx="64.8" cy="353.9558" fill="#E3E3E3" rx="6.48" ry="6.48" style="stroke:#181818;stroke-width:0.405;"/><path d="M64.8,360.4358 L64.8,382.3058 M54.27,366.9158 L75.33,366.9158 M64.8,382.3058 L54.27,394.4558 M64.8,382.3058 L75.33,394.4558 " fill="none" style="stroke:#181818;stroke-width:0.405;"/><rect fill="#E3E3E3" height="26.4231" rx="2.025" ry="2.025" style="stroke:#181818;stroke-width:0.405;" width="51.84" x="259.2" y="72.5931"/><text fill="#000000" font-family="sans-serif" font-size="11.34" lengthAdjust="spacing" textLength="40.5" x="264.87" y="90.5001">:System</text><rect fill="#E3E3E3" height="26.4231" rx="2.025" ry="2.025" style="stroke:#181818;stroke-width:0.405;" width="51.84" x="259.2" y="331.9877"/><text fill="#000000" font-family="sans-serif" font-size="11.34" lengthAdjust="spacing" textLength="40.5" x="264.87" y="349.8947">:System</text><rect fill="#FFFFFF" height="217.5815" style="stroke:#181818;stroke-width:0.81;" width="8.1" x="60.75" y="107.9262"/><rect fill="#FFFFFF" height="25.3457" style="stroke:#181818;stroke-width:0.81;" width="8.1" x="281.07" y="126.7919"/><rect fill="#FFFFFF" height="25.3457" style="stroke:#181818;stroke-width:0.81;" width="8.1" x="281.07" y="177.4833"/><rect fill="#FFFFFF" height="39.3514" style="stroke:#181818;stroke-width:0.81;" width="8.1" x="281.07" y="228.1748"/><rect fill="#FFFFFF" height="25.3457" style="stroke:#181818;stroke-width:0.81;" width="8.1" x="281.07" y="292.872"/><polygon fill="#181818" points="271.35,123.5519,279.45,126.7919,271.35,130.0319,274.59,126.7919" style="stroke:#181818;stroke-width:0.81;"/><line style="stroke:#181818;stroke-width:0.81;" x1="68.85" x2="276.21" y1="126.7919" y2="126.7919"/><text fill="#000000" font-family="sans-serif" font-size="10.53" font-weight="bold" lengthAdjust="spacing" textLength="5.67" x="74.52" y="122.5291">1</text><text fill="#000000" font-family="sans-serif" font-size="10.53" lengthAdjust="spacing" textLength="187.92" x="83.43" y="122.5291">ask to add a new entry to the To-Do List</text><polygon fill="#181818" points="77.76,148.8976,69.66,152.1376,77.76,155.3776,74.52,152.1376" style="stroke:#181818;stroke-width:0.81;"/><line style="stroke:#181818;stroke-width:0.81;stroke-dasharray:2.0,2.0;" x1="72.9" x2="284.31" y1="152.1376" y2="152.1376"/><text fill="#000000" font-family="sans-serif" font-size="10.53" font-weight="bold" lengthAdjust="spacing" textLength="5.67" x="82.62" y="147.8748">2</text><text fill="#000000" font-family="sans-serif" font-size="10.53" lengthAdjust="spacing" textLength="113.4" x="91.53" y="147.8748">shows green spaces list</text><polygon fill="#181818" points="271.35,174.2433,279.45,177.4833,271.35,180.7233,274.59,177.4833" style="stroke:#181818;stroke-width:0.81;"/><line style="stroke:#181818;stroke-width:0.81;" x1="68.85" x2="276.21" y1="177.4833" y2="177.4833"/><text fill="#000000" font-family="sans-serif" font-size="10.53" font-weight="bold" lengthAdjust="spacing" textLength="5.67" x="74.52" y="173.2206">3</text><text fill="#000000" font-family="sans-serif" font-size="10.53" lengthAdjust="spacing" textLength="167.67" x="83.43" y="173.2206">chooses a green space from the list</text><polygon fill="#181818" points="77.76,199.5891,69.66,202.8291,77.76,206.0691,74.52,202.8291" style="stroke:#181818;stroke-width:0.81;"/><line style="stroke:#181818;stroke-width:0.81;stroke-dasharray:2.0,2.0;" x1="72.9" x2="284.31" y1="202.8291" y2="202.8291"/><text fill="#000000" font-family="sans-serif" font-size="10.53" font-weight="bold" lengthAdjust="spacing" textLength="5.67" x="82.62" y="198.5663">4</text><text fill="#000000" font-family="sans-serif" font-size="10.53" lengthAdjust="spacing" textLength="175.77" x="91.53" y="198.5663">request data (Task, Duration, Degree)</text><polygon fill="#181818" points="271.35,224.9348,279.45,228.1748,271.35,231.4148,274.59,228.1748" style="stroke:#181818;stroke-width:0.81;"/><line style="stroke:#181818;stroke-width:0.81;" x1="68.85" x2="276.21" y1="228.1748" y2="228.1748"/><text fill="#000000" font-family="sans-serif" font-size="10.53" font-weight="bold" lengthAdjust="spacing" textLength="5.67" x="74.52" y="223.912">5</text><text fill="#000000" font-family="sans-serif" font-size="10.53" lengthAdjust="spacing" textLength="98.82" x="83.43" y="223.912">types requested data</text><polygon fill="#181818" points="77.76,264.2862,69.66,267.5262,77.76,270.7662,74.52,267.5262" style="stroke:#181818;stroke-width:0.81;"/><line style="stroke:#181818;stroke-width:0.81;stroke-dasharray:2.0,2.0;" x1="72.9" x2="284.31" y1="267.5262" y2="267.5262"/><text fill="#000000" font-family="sans-serif" font-size="10.53" font-weight="bold" lengthAdjust="spacing" textLength="5.67" x="82.62" y="256.2606">6</text><text fill="#000000" font-family="sans-serif" font-size="10.53" lengthAdjust="spacing" textLength="110.97" x="91.53" y="249.2577">show all data registered</text><text fill="#000000" font-family="sans-serif" font-size="10.53" lengthAdjust="spacing" textLength="123.93" x="94.77" y="263.2634">and the confirmation menu</text><polygon fill="#181818" points="271.35,289.632,279.45,292.872,271.35,296.112,274.59,292.872" style="stroke:#181818;stroke-width:0.81;"/><line style="stroke:#181818;stroke-width:0.81;" x1="68.85" x2="276.21" y1="292.872" y2="292.872"/><text fill="#000000" font-family="sans-serif" font-size="10.53" font-weight="bold" lengthAdjust="spacing" textLength="5.67" x="74.52" y="288.6092">7</text><text fill="#000000" font-family="sans-serif" font-size="10.53" lengthAdjust="spacing" textLength="60.75" x="83.43" y="288.6092">submits data</text><polygon fill="#181818" points="77.76,314.9777,69.66,318.2177,77.76,321.4577,74.52,318.2177" style="stroke:#181818;stroke-width:0.81;"/><line style="stroke:#181818;stroke-width:0.81;stroke-dasharray:2.0,2.0;" x1="72.9" x2="284.31" y1="318.2177" y2="318.2177"/><text fill="#000000" font-family="sans-serif" font-size="10.53" font-weight="bold" lengthAdjust="spacing" textLength="5.67" x="82.62" y="313.9549">8</text><text fill="#000000" font-family="sans-serif" font-size="10.53" lengthAdjust="spacing" textLength="133.65" x="91.53" y="313.9549">shows operation (in)success</text><!--SRC=[dP71JiCm38RlVOfVEsqIUu4Ta926k80ub2CNatfTjCOfYSlKjyTDjy5X845EQMf__cpdWvUU4WM4AD7jKmmCJGDN-VAd9tUWbciTEqPYfoHjzpqWxwc9HoyjTjHbhYhrQg7rc9K3QduVM1nZwwcTmfTrlLrXZRjEEGcf_s0yYwNHe566yCR9xavZmk8XCGjgKs0yaPX6Me0oxaFVnP6vCWFrplSaYiLcBbaYvcjLIFw3bBzoAjWvVs5zUpRTMDu16a5D0uBm4IoQnkb9zuoNkDv6FFgiXN01dqlXT4wujP4lLJOsfNZCQ4j3UMeeepkZ6huAk-hezZ5cIwRlBEniSqMoCF_ZbwOzPKL3IbY-s2Xki1sIxIUAtNYgjlhDzhgkZht9dk3S5Fmf_Zhbv-c1kcxMIznQcvouUHMGDALp5sNdKoZ222p3pFlBRFFm5hpcMVBVEuuzpsF3qiig3yvsdN-Ot2S0]--></g></svg>