<?xml version="1.0" encoding="us-ascii" standalone="no"?><svg xmlns="http://www.w3.org/2000/svg" xmlns:xlink="http://www.w3.org/1999/xlink" contentStyleType="text/css" height="510px" preserveAspectRatio="none" style="width:1773px;height:510px;background:#FFFFFF;" version="1.1" viewBox="0 0 1773 510" width="1773px" zoomAndPan="magnify"><defs/><g><text fill="#000000" font-family="sans-serif" font-size="14" font-weight="bold" lengthAdjust="spacing" textLength="115" x="822" y="22.9951">Domain Model</text><!--cluster System--><g id="cluster_System"><rect fill="none" height="460" rx="2.5" ry="2.5" style="stroke:#000000;stroke-width:1.5;" width="1760" x="7" y="44.2969"/><text fill="#000000" font-family="sans-serif" font-size="14" font-weight="bold" lengthAdjust="spacing" textLength="59" x="857.5" y="59.292">System</text></g><!--class HRM--><g id="elem_HRM"><rect codeLine="16" fill="#F1F1F1" height="34.2969" id="HRM" rx="2.5" ry="2.5" style="stroke:#181818;stroke-width:0.5;" width="39" x="954" y="198.2969"/><text fill="#000000" font-family="sans-serif" font-size="14" lengthAdjust="spacing" textLength="33" x="957" y="216.292">HRM</text><line style="stroke:#181818;stroke-width:0.5;" x1="955" x2="992" y1="224.5938" y2="224.5938"/></g><!--class Skill--><g id="elem_Skill"><rect codeLine="19" fill="#F1F1F1" height="50.5938" id="Skill" rx="2.5" ry="2.5" style="stroke:#181818;stroke-width:0.5;" width="53" x="1246" y="163.7969"/><text fill="#000000" font-family="sans-serif" font-size="14" lengthAdjust="spacing" textLength="29" x="1258" y="181.792">Skill</text><line style="stroke:#181818;stroke-width:0.5;" x1="1247" x2="1298" y1="190.0938" y2="190.0938"/><text fill="#000000" font-family="sans-serif" font-size="14" lengthAdjust="spacing" textLength="41" x="1252" y="207.0889">name</text></g><!--class Organization--><g id="elem_Organization"><rect codeLine="23" fill="#F1F1F1" height="115.7813" id="Organization" rx="2.5" ry="2.5" style="stroke:#181818;stroke-width:0.5;" width="114" x="512" y="127.2969"/><text fill="#000000" font-family="sans-serif" font-size="14" lengthAdjust="spacing" textLength="91" x="523.5" y="145.292">Organization</text><line style="stroke:#181818;stroke-width:0.5;" x1="513" x2="625" y1="153.5938" y2="153.5938"/><text fill="#000000" font-family="sans-serif" font-size="14" lengthAdjust="spacing" textLength="41" x="518" y="170.5889">name</text><text fill="#000000" font-family="sans-serif" font-size="14" lengthAdjust="spacing" textLength="79" x="518" y="186.8857">vatNumber</text><text fill="#000000" font-family="sans-serif" font-size="14" lengthAdjust="spacing" textLength="54" x="518" y="203.1826">website</text><text fill="#000000" font-family="sans-serif" font-size="14" lengthAdjust="spacing" textLength="102" x="518" y="219.4795">phoneNumber</text><text fill="#000000" font-family="sans-serif" font-size="14" lengthAdjust="spacing" textLength="40" x="518" y="235.7764">email</text></g><!--class Job--><g id="elem_Job"><rect codeLine="31" fill="#F1F1F1" height="50.5938" id="Job" rx="2.5" ry="2.5" style="stroke:#181818;stroke-width:0.5;" width="53" x="1698" y="117.7969"/><text fill="#000000" font-family="sans-serif" font-size="14" lengthAdjust="spacing" textLength="22" x="1713.5" y="135.792">Job</text><line style="stroke:#181818;stroke-width:0.5;" x1="1699" x2="1750" y1="144.0938" y2="144.0938"/><text fill="#000000" font-family="sans-serif" font-size="14" lengthAdjust="spacing" textLength="41" x="1704" y="161.0889">name</text></g><!--class Collaborator--><g id="elem_Collaborator"><rect codeLine="35" fill="#F1F1F1" height="180.9688" id="Collaborator" rx="2.5" ry="2.5" style="stroke:#181818;stroke-width:0.5;" width="132" x="1468" y="163.7969"/><text fill="#000000" font-family="sans-serif" font-size="14" lengthAdjust="spacing" textLength="89" x="1489.5" y="181.792">Collaborator</text><line style="stroke:#181818;stroke-width:0.5;" x1="1469" x2="1599" y1="190.0938" y2="190.0938"/><text fill="#000000" font-family="sans-serif" font-size="14" lengthAdjust="spacing" textLength="41" x="1474" y="207.0889">name</text><text fill="#000000" font-family="sans-serif" font-size="14" lengthAdjust="spacing" textLength="65" x="1474" y="223.3857">birthdate</text><text fill="#000000" font-family="sans-serif" font-size="14" lengthAdjust="spacing" textLength="106" x="1474" y="239.6826">admissionDate</text><text fill="#000000" font-family="sans-serif" font-size="14" lengthAdjust="spacing" textLength="56" x="1474" y="255.9795">address</text><text fill="#000000" font-family="sans-serif" font-size="14" lengthAdjust="spacing" textLength="102" x="1474" y="272.2764">phoneNumber</text><text fill="#000000" font-family="sans-serif" font-size="14" lengthAdjust="spacing" textLength="40" x="1474" y="288.5732">email</text><text fill="#000000" font-family="sans-serif" font-size="14" lengthAdjust="spacing" textLength="120" x="1474" y="304.8701">taxpayerNumber</text><text fill="#000000" font-family="sans-serif" font-size="14" lengthAdjust="spacing" textLength="84" x="1474" y="321.167">id_doc_type</text><text fill="#000000" font-family="sans-serif" font-size="14" lengthAdjust="spacing" textLength="109" x="1474" y="337.4639">id_doc_number</text></g><!--class Team--><g id="elem_Team"><rect codeLine="48" fill="#F1F1F1" height="66.8906" id="Team" rx="2.5" ry="2.5" style="stroke:#181818;stroke-width:0.5;" width="78" x="1133" y="273.7969"/><text fill="#000000" font-family="sans-serif" font-size="14" lengthAdjust="spacing" textLength="41" x="1151.5" y="291.792">Team</text><line style="stroke:#181818;stroke-width:0.5;" x1="1134" x2="1210" y1="300.0938" y2="300.0938"/><text fill="#000000" font-family="sans-serif" font-size="14" lengthAdjust="spacing" textLength="27" x="1139" y="317.0889">skill</text><text fill="#000000" font-family="sans-serif" font-size="14" lengthAdjust="spacing" textLength="66" x="1139" y="333.3857">teamSize</text></g><!--class VFM--><g id="elem_VFM"><rect codeLine="53" fill="#F1F1F1" height="34.2969" id="VFM" rx="2.5" ry="2.5" style="stroke:#181818;stroke-width:0.5;" width="36" x="23" y="355.2969"/><text fill="#000000" font-family="sans-serif" font-size="14" lengthAdjust="spacing" textLength="30" x="26" y="373.292">VFM</text><line style="stroke:#181818;stroke-width:0.5;" x1="24" x2="58" y1="381.5938" y2="381.5938"/></g><!--class Vehicle--><g id="elem_Vehicle"><rect codeLine="56" fill="#F1F1F1" height="197.2656" id="Vehicle" rx="2.5" ry="2.5" style="stroke:#181818;stroke-width:0.5;" width="181" x="182" y="79.7969"/><text fill="#000000" font-family="sans-serif" font-size="14" lengthAdjust="spacing" textLength="53" x="246" y="97.792">Vehicle</text><line style="stroke:#181818;stroke-width:0.5;" x1="183" x2="362" y1="106.0938" y2="106.0938"/><text fill="#000000" font-family="sans-serif" font-size="14" lengthAdjust="spacing" textLength="51" x="188" y="123.0889">plateID</text><text fill="#000000" font-family="sans-serif" font-size="14" lengthAdjust="spacing" textLength="42" x="188" y="139.3857">brand</text><text fill="#000000" font-family="sans-serif" font-size="14" lengthAdjust="spacing" textLength="45" x="188" y="155.6826">model</text><text fill="#000000" font-family="sans-serif" font-size="14" lengthAdjust="spacing" textLength="31" x="188" y="171.9795">type</text><text fill="#000000" font-family="sans-serif" font-size="14" lengthAdjust="spacing" textLength="29" x="188" y="188.2764">tare</text><text fill="#000000" font-family="sans-serif" font-size="14" lengthAdjust="spacing" textLength="88" x="188" y="204.5732">grossWeight</text><text fill="#000000" font-family="sans-serif" font-size="14" lengthAdjust="spacing" textLength="53" x="188" y="220.8701">millage</text><text fill="#000000" font-family="sans-serif" font-size="14" lengthAdjust="spacing" textLength="89" x="188" y="237.167">registerDate</text><text fill="#000000" font-family="sans-serif" font-size="14" lengthAdjust="spacing" textLength="111" x="188" y="253.4639">acquisitionDate</text><text fill="#000000" font-family="sans-serif" font-size="14" lengthAdjust="spacing" textLength="169" x="188" y="269.7607">maintenanceFrequency</text></g><!--class VehiclesForCheckUp--><g id="elem_VehiclesForCheckUp"><rect codeLine="69" fill="#F1F1F1" height="50.5938" id="VehiclesForCheckUp" rx="2.5" ry="2.5" style="stroke:#181818;stroke-width:0.5;" width="152" x="493" y="365.7969"/><text fill="#000000" font-family="sans-serif" font-size="14" lengthAdjust="spacing" textLength="146" x="496" y="383.792">VehiclesForCheckUp</text><line style="stroke:#181818;stroke-width:0.5;" x1="494" x2="644" y1="392.0938" y2="392.0938"/><text fill="#000000" font-family="sans-serif" font-size="14" lengthAdjust="spacing" textLength="53" x="499" y="409.0889">Vehicle</text></g><!--class ChekUp--><g id="elem_ChekUp"><rect codeLine="73" fill="#F1F1F1" height="83.1875" id="ChekUp" rx="2.5" ry="2.5" style="stroke:#181818;stroke-width:0.5;" width="120" x="736" y="374.7969"/><text fill="#000000" font-family="sans-serif" font-size="14" lengthAdjust="spacing" textLength="55" x="768.5" y="392.792">ChekUp</text><line style="stroke:#181818;stroke-width:0.5;" x1="737" x2="855" y1="401.0938" y2="401.0938"/><text fill="#000000" font-family="sans-serif" font-size="14" lengthAdjust="spacing" textLength="51" x="742" y="418.0889">licence</text><text fill="#000000" font-family="sans-serif" font-size="14" lengthAdjust="spacing" textLength="32" x="742" y="434.3857">date</text><text fill="#000000" font-family="sans-serif" font-size="14" lengthAdjust="spacing" textLength="108" x="742" y="450.6826">currentMileage</text></g><!--link HRM to Skill--><g id="link_HRM_Skill"><path codeLine="81" d="M993.08,213.6669 C1044.26,209.1869 1187.36,196.6669 1245.98,191.5269 " fill="none" id="HRM-Skill" style="stroke:#181818;stroke-width:1.0;"/><polygon fill="#000000" points="1041.4809,196.4272,1032.214,194.2883,1032.7266,200.1438,1041.4809,196.4272" style="stroke:#000000;stroke-width:1.0;"/><text fill="#000000" font-family="sans-serif" font-size="13" lengthAdjust="spacing" textLength="48" x="1045.5" y="201.3638">creates</text><text fill="#000000" font-family="sans-serif" font-size="13" lengthAdjust="spacing" textLength="8" x="1000.8369" y="208.1429">1</text><text fill="#000000" font-family="sans-serif" font-size="13" lengthAdjust="spacing" textLength="23" x="1215.1384" y="205.6562">1..*</text></g><!--link HRM to Job--><g id="link_HRM_Job"><path codeLine="82" d="M989.41,198.2469 C1019.92,165.3469 1093.23,96.2969 1171,96.2969 C1171,96.2969 1171,96.2969 1535,96.2969 C1594.7,96.2969 1661.96,118.7669 1697.78,132.6269 " fill="none" id="HRM-Job" style="stroke:#181818;stroke-width:1.0;"/><polygon fill="#000000" points="1348.9787,87.4021,1339.7011,85.31,1340.2432,91.1628,1348.9787,87.4021" style="stroke:#000000;stroke-width:1.0;"/><text fill="#000000" font-family="sans-serif" font-size="13" lengthAdjust="spacing" textLength="48" x="1353" y="92.3638">creates</text><text fill="#000000" font-family="sans-serif" font-size="13" lengthAdjust="spacing" textLength="8" x="985.3552" y="187.1544">1</text><text fill="#000000" font-family="sans-serif" font-size="13" lengthAdjust="spacing" textLength="23" x="1666.8971" y="144.0955">1..*</text></g><!--link HRM to Collaborator--><g id="link_HRM_Collaborator"><path codeLine="83" d="M993.17,218.3969 C1036.53,225.4369 1147.49,242.5569 1241,249.2969 C1318.88,254.9169 1408.73,255.5869 1467.96,255.2269 " fill="none" id="HRM-Collaborator" style="stroke:#181818;stroke-width:1.0;"/><polygon fill="#000000" points="1250.985,241.25,1242.1943,237.6203,1241.7397,243.4806,1250.985,241.25" style="stroke:#000000;stroke-width:1.0;"/><text fill="#000000" font-family="sans-serif" font-size="13" lengthAdjust="spacing" textLength="48" x="1255" y="245.3638">creates</text><text fill="#000000" font-family="sans-serif" font-size="13" lengthAdjust="spacing" textLength="8" x="1001.0107" y="233.9478">1</text><text fill="#000000" font-family="sans-serif" font-size="13" lengthAdjust="spacing" textLength="23" x="1436.9637" y="251.6247">1..*</text></g><!--link HRM to Team--><g id="link_HRM_Team"><path codeLine="84" d="M988.14,232.5669 C997.07,242.8169 1009.54,255.3269 1023,263.2969 C1057.25,283.5769 1101.57,295.1369 1132.75,301.2669 " fill="none" id="HRM-Team" style="stroke:#181818;stroke-width:1.0;"/><polygon fill="#000000" points="1032.5163,257.0088,1025.6074,250.4729,1023.0851,255.7821,1032.5163,257.0088" style="stroke:#000000;stroke-width:1.0;"/><text fill="#000000" font-family="sans-serif" font-size="13" lengthAdjust="spacing" textLength="65" x="1037" y="259.3638">generates</text><text fill="#000000" font-family="sans-serif" font-size="13" lengthAdjust="spacing" textLength="8" x="974.3395" y="252.8117">1</text><text fill="#000000" font-family="sans-serif" font-size="13" lengthAdjust="spacing" textLength="8" x="1112.9727" y="313.6072">1</text></g><!--link VFM to Vehicle--><g id="link_VFM_Vehicle"><path codeLine="86" d="M56.12,355.2069 C65.1,344.7169 77.23,331.2269 89,320.2969 C117.83,293.5169 151.33,266.4369 181.7,243.2069 " fill="none" id="VFM-Vehicle" style="stroke:#181818;stroke-width:1.0;"/><polygon fill="#000000" points="97.7315,255.5353,89.025,259.3624,92.9373,263.749,97.7315,255.5353" style="stroke:#000000;stroke-width:1.0;"/><text fill="#000000" font-family="sans-serif" font-size="13" lengthAdjust="spacing" textLength="48" x="103" y="263.3638">creates</text><text fill="#000000" font-family="sans-serif" font-size="13" lengthAdjust="spacing" textLength="8" x="51.8035" y="344.1012">1</text><text fill="#000000" font-family="sans-serif" font-size="13" lengthAdjust="spacing" textLength="7" x="166.8908" y="261.2647">*</text></g><!--link VFM to VehiclesForCheckUp--><g id="link_VFM_VehiclesForCheckUp"><path codeLine="87" d="M59.18,375.0369 C85.53,379.0869 137.53,386.4869 182,389.2969 C289.85,396.0969 414.98,395.1269 492.83,393.4769 " fill="none" id="VFM-VehiclesForCheckUp" style="stroke:#181818;stroke-width:1.0;"/><polygon fill="#000000" points="251.9955,381.0757,243.0834,377.7552,242.8337,383.6277,251.9955,381.0757" style="stroke:#000000;stroke-width:1.0;"/><text fill="#000000" font-family="sans-serif" font-size="13" lengthAdjust="spacing" textLength="46" x="256" y="385.3638">selects</text><text fill="#000000" font-family="sans-serif" font-size="13" lengthAdjust="spacing" textLength="8" x="66.8704" y="370.6814">1</text><text fill="#000000" font-family="sans-serif" font-size="13" lengthAdjust="spacing" textLength="7" x="477.9875" y="406.5232">*</text></g><!--link VFM to VehiclesForCheckUp--><g id="link_VFM_VehiclesForCheckUp"><path codeLine="89" d="M59.24,371.6469 C85.66,370.6869 137.75,368.9269 182,368.2969 C262.44,367.1469 282.68,363.8069 363,368.2969 C406.09,370.7069 454.03,375.9469 492.72,380.8169 " fill="none" id="VFM-VehiclesForCheckUp-1" style="stroke:#181818;stroke-width:1.0;"/><polygon fill="#000000" points="240.0011,357.7575,248.982,360.8871,249.1063,355.0106,240.0011,357.7575" style="stroke:#000000;stroke-width:1.0;"/><text fill="#000000" font-family="sans-serif" font-size="13" lengthAdjust="spacing" textLength="50" x="254" y="362.3638">informs</text><text fill="#000000" font-family="sans-serif" font-size="13" lengthAdjust="spacing" textLength="8" x="66.885" y="381.0012">1</text><text fill="#000000" font-family="sans-serif" font-size="13" lengthAdjust="spacing" textLength="7" x="478.116" y="376.1957">*</text></g><!--link VFM to ChekUp--><g id="link_VFM_ChekUp"><path codeLine="88" d="M59.26,382.5969 C67.89,387.2669 78.69,392.3769 89,395.2969 C327.37,462.7269 397.72,449.0769 645,434.2969 C674.98,432.5069 708.15,428.7169 735.66,425.0769 " fill="none" id="VFM-ChekUp" style="stroke:#181818;stroke-width:1.0;"/><polygon fill="#000000" points="405.4902,437.1767,396.6471,433.6766,396.2787,439.5429,405.4902,437.1767" style="stroke:#000000;stroke-width:1.0;"/><text fill="#000000" font-family="sans-serif" font-size="13" lengthAdjust="spacing" textLength="50" x="409.5" y="441.3638">register</text><text fill="#000000" font-family="sans-serif" font-size="13" lengthAdjust="spacing" textLength="8" x="66.9119" y="400.7543">1</text><text fill="#000000" font-family="sans-serif" font-size="13" lengthAdjust="spacing" textLength="8" x="719.8186" y="439.1246">1</text></g><!--link Skill to Collaborator--><g id="link_Skill_Collaborator"><path codeLine="91" d="M1299.33,195.7669 C1338.3,205.5269 1413.37,224.3369 1467.94,237.9969 " fill="none" id="Skill-Collaborator" style="stroke:#181818;stroke-width:1.0;"/><polygon fill="#000000" points="1343.8502,198.0781,1335.7901,193.0296,1334.3621,198.7314,1343.8502,198.0781" style="stroke:#000000;stroke-width:1.0;"/><text fill="#000000" font-family="sans-serif" font-size="13" lengthAdjust="spacing" textLength="58" x="1348" y="201.3638">assigned</text><text fill="#000000" font-family="sans-serif" font-size="13" lengthAdjust="spacing" textLength="23" x="1306.9492" y="192.7031">1..*</text><text fill="#000000" font-family="sans-serif" font-size="13" lengthAdjust="spacing" textLength="23" x="1436.9416" y="232.6179">1..*</text></g><!--link Organization to Collaborator--><g id="link_Organization_Collaborator"><path codeLine="95" d="M626.32,219.1869 C657.7,236.8469 698,257.5569 736,271.2969 C937.84,344.2569 998.67,389.5669 1211,358.2969 C1302.83,344.7769 1403.96,308.3269 1467.94,282.4069 " fill="none" id="Organization-Collaborator" style="stroke:#181818;stroke-width:1.0;"/><polygon fill="#000000" points="1053.986,356.2378,1045.1864,352.6296,1044.7461,358.4909,1053.986,356.2378" style="stroke:#000000;stroke-width:1.0;"/><text fill="#000000" font-family="sans-serif" font-size="13" lengthAdjust="spacing" textLength="23" x="1058" y="360.3638">has</text><text fill="#000000" font-family="sans-serif" font-size="13" lengthAdjust="spacing" textLength="8" x="634.1766" y="236.5794">1</text><text fill="#000000" font-family="sans-serif" font-size="13" lengthAdjust="spacing" textLength="23" x="1436.9416" y="298.1545">1..*</text></g><!--link Organization to Team--><g id="link_Organization_Team"><path codeLine="96" d="M626.24,202.2869 C711.27,227.2369 878.05,273.3169 1023,296.2969 C1060.03,302.1669 1102.77,304.9169 1132.78,306.1969 " fill="none" id="Organization-Team" style="stroke:#181818;stroke-width:1.0;"/><polygon fill="#000000" points="895.898,262.868,887.628,258.1714,886.4468,263.9294,895.898,262.868" style="stroke:#000000;stroke-width:1.0;"/><text fill="#000000" font-family="sans-serif" font-size="13" lengthAdjust="spacing" textLength="23" x="900" y="266.3638">has</text><text fill="#000000" font-family="sans-serif" font-size="13" lengthAdjust="spacing" textLength="8" x="633.9474" y="217.3599">1</text><text fill="#000000" font-family="sans-serif" font-size="13" lengthAdjust="spacing" textLength="7" x="1117.9035" y="301.7005">*</text></g><!--link Collaborator to Job--><g id="link_Collaborator_Job"><path codeLine="98" d="M1600.13,215.9369 C1633.76,196.1369 1672.87,173.1069 1697.89,158.3769 " fill="none" id="Collaborator-Job" style="stroke:#181818;stroke-width:1.0;"/><polygon fill="#000000" points="1639.3086,165.3264,1630.0231,167.3831,1633.0054,172.4482,1639.3086,165.3264" style="stroke:#000000;stroke-width:1.0;"/><text fill="#000000" font-family="sans-serif" font-size="13" lengthAdjust="spacing" textLength="23" x="1644" y="172.3638">has</text><text fill="#000000" font-family="sans-serif" font-size="13" lengthAdjust="spacing" textLength="8" x="1607.8005" y="224.6374">1</text><text fill="#000000" font-family="sans-serif" font-size="13" lengthAdjust="spacing" textLength="8" x="1682.0462" y="176.299">1</text></g><!--link Team to Collaborator--><g id="link_Team_Collaborator"><path codeLine="100" d="M1211.24,303.9369 C1257.69,299.6069 1338.36,291.3169 1407,280.2969 C1426.85,277.1069 1448.31,272.9469 1467.81,268.8969 " fill="none" id="Team-Collaborator" style="stroke:#181818;stroke-width:1.0;"/><polygon fill="#000000" points="1334.046,272.5399,1343.4056,274.2278,1342.6102,268.404,1334.046,272.5399" style="stroke:#000000;stroke-width:1.0;"/><text fill="#000000" font-family="sans-serif" font-size="13" lengthAdjust="spacing" textLength="58" x="1348" y="276.3638">assigned</text><text fill="#000000" font-family="sans-serif" font-size="13" lengthAdjust="spacing" textLength="8" x="1219.0156" y="316.7361">1</text><text fill="#000000" font-family="sans-serif" font-size="13" lengthAdjust="spacing" textLength="23" x="1436.7982" y="283.2513">1..*</text></g><!--link Vehicle to Organization--><g id="link_Vehicle_Organization"><path codeLine="102" d="M363.06,180.4269 C411.46,181.5769 469.73,182.9569 511.75,183.9569 " fill="none" id="Vehicle-Organization" style="stroke:#181818;stroke-width:1.0;"/><polygon fill="#000000" points="409.0014,172.7446,417.9742,175.8974,418.1137,170.0212,409.0014,172.7446" style="stroke:#000000;stroke-width:1.0;"/><text fill="#000000" font-family="sans-serif" font-size="13" lengthAdjust="spacing" textLength="23" x="423" y="177.3638">has</text><text fill="#000000" font-family="sans-serif" font-size="13" lengthAdjust="spacing" textLength="7" x="371.1433" y="193.3156">*</text><text fill="#000000" font-family="sans-serif" font-size="13" lengthAdjust="spacing" textLength="8" x="495.9023" y="196.8355">1</text></g><!--link Vehicle to VehiclesForCheckUp--><g id="link_Vehicle_VehiclesForCheckUp"><path codeLine="103" d="M358.38,276.9969 C369.48,287.5069 381.14,297.5369 393,306.2969 C403.53,314.0669 465.46,343.5869 512.69,365.6769 " fill="none" id="Vehicle-VehiclesForCheckUp" style="stroke:#181818;stroke-width:1.0;"/><polygon fill="#000000" points="402.3351,300.3546,395.9572,293.2996,393.0284,298.3959,402.3351,300.3546" style="stroke:#000000;stroke-width:1.0;"/><text fill="#000000" font-family="sans-serif" font-size="13" lengthAdjust="spacing" textLength="55" x="407" y="302.3638">contains</text><text fill="#000000" font-family="sans-serif" font-size="13" lengthAdjust="spacing" textLength="7" x="357.6872" y="297.1896">*</text><text fill="#000000" font-family="sans-serif" font-size="13" lengthAdjust="spacing" textLength="7" x="491.1113" y="354.7365">*</text></g><!--link Vehicle to ChekUp--><g id="link_Vehicle_ChekUp"><path codeLine="104" d="M363.15,219.2069 C469.74,267.8569 644.61,347.6669 735.68,389.2269 " fill="none" id="Vehicle-ChekUp" style="stroke:#181818;stroke-width:1.0;"/><polygon fill="#000000" points="532.9513,271.7873,539.9597,278.2164,542.4002,272.8691,532.9513,271.7873" style="stroke:#000000;stroke-width:1.0;"/><text fill="#000000" font-family="sans-serif" font-size="13" lengthAdjust="spacing" textLength="58" x="546.5" y="278.3638">assigned</text><text fill="#000000" font-family="sans-serif" font-size="13" lengthAdjust="spacing" textLength="8" x="370.9882" y="235.2772">1</text><text fill="#000000" font-family="sans-serif" font-size="13" lengthAdjust="spacing" textLength="7" x="720.9019" y="398.9053">*</text></g><!--link VehiclesForCheckUp to ChekUp--><g id="link_VehiclesForCheckUp_ChekUp"><path codeLine="106" d="M645.23,399.6569 C674.75,402.9369 708.11,406.6469 735.85,409.7269 " fill="none" id="VehiclesForCheckUp-ChekUp" style="stroke:#181818;stroke-width:1.0;"/><polygon fill="#000000" points="684.9694,395.4155,676.3042,391.4956,675.6551,397.3375,684.9694,395.4155" style="stroke:#000000;stroke-width:1.0;"/><text fill="#000000" font-family="sans-serif" font-size="13" lengthAdjust="spacing" textLength="16" x="689" y="399.3638">do</text><text fill="#000000" font-family="sans-serif" font-size="13" lengthAdjust="spacing" textLength="7" x="653.0784" y="413.3115">*</text><text fill="#000000" font-family="sans-serif" font-size="13" lengthAdjust="spacing" textLength="8" x="720.0317" y="421.9038">1</text></g><!--SRC=[XLLDQzmm4BthLmnx2HGIskiI2YKXD8Mqq6tJOv2bYIrMbfoHjkcczBztv4_PMRS-x5hIcpTlPfxji3UkaIHhgBtpgY9V8qGwe0ZZIIFLNfQuYqUBGAYYTAND0Q6IsZyRLyAZj075sNHaZSDuR10ynSeB8Im-HeWUo9HL16qId_4kOrDMXl0XHZB58UAjycvdNX3UYife16L8SVBslaRcr468Q29Bk_QrD0xkl4OhHAyQDhjZY5XluBSGm5TB3n-_tl56Ml_9jtTxOsr_a2udQnnG7U8BbTAP5vb4zy0Hz5F6puUwG6fNprW44xkJfl8EipDafLRCKd_onKhY2NFbhPM59nazdGAdgp3SQItZj2DrRK9WlTVpNKqOmhXUIfna3gieVpNoYBG06VsWlNf8KrxkkGxvkf1lo8EU2WYfxLCUFamZVnrsVtDoQlTO6JP5HWYDvLflhwUDWgJJqx9kJJ8kP-AvKCfM9VaGVc3oQnRFWjbTqmPXQTXdDEinIFLqCEo2PVCXEJMYaqxX3U7J0PqwhXOMRZnTLQZstvkinlxmX4igd2EjKSm_PP-vGns8qCKxOt4eYDawllIKRDu1RE3yd6ykBjvi-aTa2ugGQGAypv0vBldv_wYPeq_3n_Jyt_fc2oKwf0pO_YHp3EJCF9XYITh11j89c3Lv2m4jlvVc8RsApT3VxJZprx0LOeunxj5J7U2owt3NpROPCE_peZCyM5Cwr9nBdAN8sOkeIziND4oeagc0LV1yK1ru1RkYQJK6CZNzo3fi2vwnP7tDXRJ0DdHW-rzV-eOEOq-fUzwPk2x1vHBx3o_m1oZoqpgQOGXAmjkWqGyhMd83PBB6CErJmVmr-0i0]--></g></svg>