<?xml version="1.0" encoding="us-ascii" standalone="no"?><svg xmlns="http://www.w3.org/2000/svg" xmlns:xlink="http://www.w3.org/1999/xlink" contentStyleType="text/css" height="217.6px" preserveAspectRatio="none" style="width:666px;height:217px;background:#FFFFFF;" version="1.1" viewBox="0 0 666 217" width="666.8px" zoomAndPan="magnify"><defs/><g><text fill="#000000" font-family="sans-serif" font-size="5.6" font-weight="bold" lengthAdjust="spacing" textLength="40" x="310.6" y="10.043">Domain Model</text><!--cluster System--><g id="cluster_System"><rect fill="none" height="196.8" rx="1" ry="1" style="stroke:#000000;stroke-width:0.6000000000000001;" width="661.6" x="2.8" y="18.6484"/><text fill="#000000" font-family="sans-serif" font-size="5.6" font-weight="bold" lengthAdjust="spacing" textLength="20" x="323.6" y="25.4914">System</text></g><!--class HRM--><g id="elem_HRM"><rect codeLine="16" fill="#F1F1F1" height="14.6484" id="HRM" rx="1" ry="1" style="stroke:#181818;stroke-width:0.20000000000000004;" width="14.4" x="361.6" y="80.8484"/><text fill="#000000" font-family="sans-serif" font-size="5.6" lengthAdjust="spacing" textLength="12" x="362.8" y="88.8914">HRM</text><line style="stroke:#181818;stroke-width:0.20000000000000004;" x1="362" x2="375.6" y1="92.2969" y2="92.2969"/></g><!--class Skill--><g id="elem_Skill"><rect codeLine="19" fill="#F1F1F1" height="22.0969" id="Skill" rx="1" ry="1" style="stroke:#181818;stroke-width:0.20000000000000004;" width="18.8" x="470.6" y="67.6484"/><text fill="#000000" font-family="sans-serif" font-size="5.6" lengthAdjust="spacing" textLength="10" x="475" y="75.6914">Skill</text><line style="stroke:#181818;stroke-width:0.20000000000000004;" x1="471" x2="489" y1="79.0969" y2="79.0969"/><text fill="#000000" font-family="sans-serif" font-size="5.6" lengthAdjust="spacing" textLength="14" x="473" y="86.7398">name</text></g><!--class Organization--><g id="elem_Organization"><rect codeLine="23" fill="#F1F1F1" height="51.8906" id="Organization" rx="1" ry="1" style="stroke:#181818;stroke-width:0.20000000000000004;" width="40.4" x="191.8" y="56.6484"/><text fill="#000000" font-family="sans-serif" font-size="5.6" lengthAdjust="spacing" textLength="32" x="196" y="64.6914">Organization</text><line style="stroke:#181818;stroke-width:0.20000000000000004;" x1="192.2" x2="231.8" y1="68.0969" y2="68.0969"/><text fill="#000000" font-family="sans-serif" font-size="5.6" lengthAdjust="spacing" textLength="14" x="194.2" y="75.7398">name</text><text fill="#000000" font-family="sans-serif" font-size="5.6" lengthAdjust="spacing" textLength="27.2" x="194.2" y="83.1883">vatNumber</text><text fill="#000000" font-family="sans-serif" font-size="5.6" lengthAdjust="spacing" textLength="18.8" x="194.2" y="90.6367">website</text><text fill="#000000" font-family="sans-serif" font-size="5.6" lengthAdjust="spacing" textLength="35.6" x="194.2" y="98.0852">phoneNumber</text><text fill="#000000" font-family="sans-serif" font-size="5.6" lengthAdjust="spacing" textLength="13.2" x="194.2" y="105.5336">email</text></g><!--class Job--><g id="elem_Job"><rect codeLine="31" fill="#F1F1F1" height="22.0969" id="Job" rx="1" ry="1" style="stroke:#181818;stroke-width:0.20000000000000004;" width="18.8" x="639.2" y="48.8484"/><text fill="#000000" font-family="sans-serif" font-size="5.6" lengthAdjust="spacing" textLength="8.8" x="644.2" y="56.8914">Job</text><line style="stroke:#181818;stroke-width:0.20000000000000004;" x1="639.6" x2="657.6" y1="60.2969" y2="60.2969"/><text fill="#000000" font-family="sans-serif" font-size="5.6" lengthAdjust="spacing" textLength="14" x="641.6" y="67.9398">name</text></g><!--class Collaborator--><g id="elem_Collaborator"><rect codeLine="35" fill="#F1F1F1" height="81.6844" id="Collaborator" rx="1" ry="1" style="stroke:#181818;stroke-width:0.20000000000000004;" width="46" x="554.8" y="64.2484"/><text fill="#000000" font-family="sans-serif" font-size="5.6" lengthAdjust="spacing" textLength="31.2" x="562.2" y="72.2914">Collaborator</text><line style="stroke:#181818;stroke-width:0.20000000000000004;" x1="555.2" x2="600.4" y1="75.6969" y2="75.6969"/><text fill="#000000" font-family="sans-serif" font-size="5.6" lengthAdjust="spacing" textLength="14" x="557.2" y="83.3398">name</text><text fill="#000000" font-family="sans-serif" font-size="5.6" lengthAdjust="spacing" textLength="22.4" x="557.2" y="90.7883">birthdate</text><text fill="#000000" font-family="sans-serif" font-size="5.6" lengthAdjust="spacing" textLength="37.2" x="557.2" y="98.2367">admissionDate</text><text fill="#000000" font-family="sans-serif" font-size="5.6" lengthAdjust="spacing" textLength="20.4" x="557.2" y="105.6852">address</text><text fill="#000000" font-family="sans-serif" font-size="5.6" lengthAdjust="spacing" textLength="35.6" x="557.2" y="113.1336">phoneNumber</text><text fill="#000000" font-family="sans-serif" font-size="5.6" lengthAdjust="spacing" textLength="13.2" x="557.2" y="120.582">email</text><text fill="#000000" font-family="sans-serif" font-size="5.6" lengthAdjust="spacing" textLength="41.2" x="557.2" y="128.0305">taxpayerNumber</text><text fill="#000000" font-family="sans-serif" font-size="5.6" lengthAdjust="spacing" textLength="30.8" x="557.2" y="135.4789">id_doc_type</text><text fill="#000000" font-family="sans-serif" font-size="5.6" lengthAdjust="spacing" textLength="39.2" x="557.2" y="142.9273">id_doc_number</text></g><!--class Team--><g id="elem_Team"><rect codeLine="48" fill="#F1F1F1" height="29.5453" id="Team" rx="1" ry="1" style="stroke:#181818;stroke-width:0.20000000000000004;" width="27.6" x="428.8" y="111.4484"/><text fill="#000000" font-family="sans-serif" font-size="5.6" lengthAdjust="spacing" textLength="14.4" x="435.4" y="119.4914">Team</text><line style="stroke:#181818;stroke-width:0.20000000000000004;" x1="429.2" x2="456" y1="122.8969" y2="122.8969"/><text fill="#000000" font-family="sans-serif" font-size="5.6" lengthAdjust="spacing" textLength="9.2" x="431.2" y="130.5398">skill</text><text fill="#000000" font-family="sans-serif" font-size="5.6" lengthAdjust="spacing" textLength="22.8" x="431.2" y="137.9883">teamSize</text></g><!--class VFM--><g id="elem_VFM"><rect codeLine="53" fill="#F1F1F1" height="14.6484" id="VFM" rx="1" ry="1" style="stroke:#181818;stroke-width:0.20000000000000004;" width="14" x="9.2" y="154.8484"/><text fill="#000000" font-family="sans-serif" font-size="5.6" lengthAdjust="spacing" textLength="11.6" x="10.4" y="162.8914">VFM</text><line style="stroke:#181818;stroke-width:0.20000000000000004;" x1="9.6" x2="22.8" y1="166.2969" y2="166.2969"/></g><!--class Vehicle--><g id="elem_Vehicle"><rect codeLine="56" fill="#F1F1F1" height="89.1328" id="Vehicle" rx="1" ry="1" style="stroke:#181818;stroke-width:0.20000000000000004;" width="64.4" x="70.4" y="33.6484"/><text fill="#000000" font-family="sans-serif" font-size="5.6" lengthAdjust="spacing" textLength="18.4" x="93.4" y="41.6914">Vehicle</text><line style="stroke:#181818;stroke-width:0.20000000000000004;" x1="70.8" x2="134.4" y1="45.0969" y2="45.0969"/><text fill="#000000" font-family="sans-serif" font-size="5.6" lengthAdjust="spacing" textLength="17.6" x="72.8" y="52.7398">plateID</text><text fill="#000000" font-family="sans-serif" font-size="5.6" lengthAdjust="spacing" textLength="14.8" x="72.8" y="60.1883">brand</text><text fill="#000000" font-family="sans-serif" font-size="5.6" lengthAdjust="spacing" textLength="15.2" x="72.8" y="67.6367">model</text><text fill="#000000" font-family="sans-serif" font-size="5.6" lengthAdjust="spacing" textLength="10.8" x="72.8" y="75.0852">type</text><text fill="#000000" font-family="sans-serif" font-size="5.6" lengthAdjust="spacing" textLength="10" x="72.8" y="82.5336">tare</text><text fill="#000000" font-family="sans-serif" font-size="5.6" lengthAdjust="spacing" textLength="31.6" x="72.8" y="89.982">grossWeight</text><text fill="#000000" font-family="sans-serif" font-size="5.6" lengthAdjust="spacing" textLength="17.6" x="72.8" y="97.4305">millage</text><text fill="#000000" font-family="sans-serif" font-size="5.6" lengthAdjust="spacing" textLength="31.2" x="72.8" y="104.8789">registerDate</text><text fill="#000000" font-family="sans-serif" font-size="5.6" lengthAdjust="spacing" textLength="38.8" x="72.8" y="112.3273">acquisitionDate</text><text fill="#000000" font-family="sans-serif" font-size="5.6" lengthAdjust="spacing" textLength="59.6" x="72.8" y="119.7758">maintenanceFrequency</text></g><!--class VehiclesForCheckUp--><g id="elem_VehiclesForCheckUp"><rect codeLine="69" fill="#F1F1F1" height="22.0969" id="VehiclesForCheckUp" rx="1" ry="1" style="stroke:#181818;stroke-width:0.20000000000000004;" width="55.2" x="184.4" y="158.4484"/><text fill="#000000" font-family="sans-serif" font-size="5.6" lengthAdjust="spacing" textLength="52.8" x="185.6" y="166.4914">VehiclesForCheckUp</text><line style="stroke:#181818;stroke-width:0.20000000000000004;" x1="184.8" x2="239.2" y1="169.8969" y2="169.8969"/><text fill="#000000" font-family="sans-serif" font-size="5.6" lengthAdjust="spacing" textLength="18.4" x="186.8" y="177.5398">Vehicle</text></g><!--class CheckUp--><g id="elem_CheckUp"><rect codeLine="73" fill="#F1F1F1" height="36.9938" id="CheckUp" rx="1" ry="1" style="stroke:#181818;stroke-width:0.20000000000000004;" width="42.4" x="280.8" y="152.6484"/><text fill="#000000" font-family="sans-serif" font-size="5.6" lengthAdjust="spacing" textLength="22.8" x="290.6" y="160.6914">CheckUp</text><line style="stroke:#181818;stroke-width:0.20000000000000004;" x1="281.2" x2="322.8" y1="164.0969" y2="164.0969"/><text fill="#000000" font-family="sans-serif" font-size="5.6" lengthAdjust="spacing" textLength="17.6" x="283.2" y="171.7398">licence</text><text fill="#000000" font-family="sans-serif" font-size="5.6" lengthAdjust="spacing" textLength="11.2" x="283.2" y="179.1883">date</text><text fill="#000000" font-family="sans-serif" font-size="5.6" lengthAdjust="spacing" textLength="37.6" x="283.2" y="186.6367">currentMileage</text></g><!--link HRM to Skill--><g id="link_HRM_Skill"><path codeLine="81" d="M376.108,87.6484 C395.272,85.9804 449.12,81.3004 470.592,79.4324 " fill="none" id="HRM-Skill" style="stroke:#181818;stroke-width:0.4000000000000001;"/><polygon fill="#000000" points="394.7925,80.7334,391.0862,79.8757,391.2899,82.218,394.7925,80.7334" style="stroke:#000000;stroke-width:0.4000000000000001;"/><text fill="#000000" font-family="sans-serif" font-size="5.2" lengthAdjust="spacing" textLength="17.2" x="396.4" y="83.0598">creates</text><text fill="#000000" font-family="sans-serif" font-size="5.2" lengthAdjust="spacing" textLength="2.8" x="379.136" y="94.1216">1</text><text fill="#000000" font-family="sans-serif" font-size="5.2" lengthAdjust="spacing" textLength="8" x="459.3238" y="86.066">1..*</text></g><!--link HRM to Job--><g id="link_HRM_Job"><path codeLine="82" d="M375.264,80.7684 C386.788,67.4604 413.3,41.0484 442.2,41.0484 C442.2,41.0484 442.2,41.0484 578.2,41.0484 C600.724,41.0484 625.972,50.2404 639.124,55.7684 " fill="none" id="HRM-Job" style="stroke:#181818;stroke-width:0.4000000000000001;"/><polygon fill="#000000" points="509.3911,37.118,505.6783,36.2889,505.9001,38.6296,509.3911,37.118" style="stroke:#000000;stroke-width:0.4000000000000001;"/><text fill="#000000" font-family="sans-serif" font-size="5.2" lengthAdjust="spacing" textLength="17.2" x="511" y="39.4598">creates</text><text fill="#000000" font-family="sans-serif" font-size="5.2" lengthAdjust="spacing" textLength="2.8" x="374.0149" y="76.2888">1</text><text fill="#000000" font-family="sans-serif" font-size="5.2" lengthAdjust="spacing" textLength="8" x="628.0077" y="61.2248">1..*</text></g><!--link HRM to Collaborator--><g id="link_HRM_Collaborator"><path codeLine="83" d="M376.012,89.7164 C392.028,93.0844 433.372,101.3124 468.4,104.2484 C498.148,106.7404 532.624,106.4644 554.704,105.8884 " fill="none" id="HRM-Collaborator" style="stroke:#181818;stroke-width:0.4000000000000001;"/><polygon fill="#000000" points="472.3919,100.6869,468.8945,99.19,468.6826,101.5316,472.3919,100.6869" style="stroke:#000000;stroke-width:0.4000000000000001;"/><text fill="#000000" font-family="sans-serif" font-size="5.2" lengthAdjust="spacing" textLength="17.2" x="474" y="102.6598">creates</text><text fill="#000000" font-family="sans-serif" font-size="5.2" lengthAdjust="spacing" textLength="2.8" x="379.1877" y="87.8647">1</text><text fill="#000000" font-family="sans-serif" font-size="5.2" lengthAdjust="spacing" textLength="8" x="543.571" y="104.4056">1..*</text></g><!--link HRM to Team--><g id="link_HRM_Team"><path codeLine="84" d="M374.744,95.7844 C378.16,99.9644 382.86,104.9644 388,108.2484 C400.616,116.3084 417.208,121.1244 428.692,123.7164 " fill="none" id="HRM-Team" style="stroke:#181818;stroke-width:0.4000000000000001;"/><polygon fill="#000000" points="391.7761,105.4262,389.1036,102.7188,388.0226,104.8066,391.7761,105.4262" style="stroke:#000000;stroke-width:0.4000000000000001;"/><text fill="#000000" font-family="sans-serif" font-size="5.2" lengthAdjust="spacing" textLength="22.8" x="393.6" y="106.6598">generates</text><text fill="#000000" font-family="sans-serif" font-size="5.2" lengthAdjust="spacing" textLength="2.8" x="369.5352" y="104.3708">1</text><text fill="#000000" font-family="sans-serif" font-size="5.2" lengthAdjust="spacing" textLength="2.8" x="421.2214" y="129.5095">1</text></g><!--link VFM to Vehicle--><g id="link_VFM_Vehicle"><path codeLine="86" d="M22.8,154.8284 C26.336,150.6884 30.908,145.4804 35.2,141.0484 C46.288,129.5924 58.936,117.5044 70.232,107.0244 " fill="none" id="VFM-Vehicle" style="stroke:#181818;stroke-width:0.4000000000000001;"/><polygon fill="#000000" points="38.6087,114.6869,35.2259,116.4272,36.8948,118.0832,38.6087,114.6869" style="stroke:#000000;stroke-width:0.4000000000000001;"/><text fill="#000000" font-family="sans-serif" font-size="5.2" lengthAdjust="spacing" textLength="17.2" x="40.8" y="118.2598">creates</text><text fill="#000000" font-family="sans-serif" font-size="5.2" lengthAdjust="spacing" textLength="2.8" x="21.5925" y="150.3672">1</text><text fill="#000000" font-family="sans-serif" font-size="5.2" lengthAdjust="spacing" textLength="2" x="65.1559" y="115.6105">*</text></g><!--link VFM to VehiclesForCheckUp--><g id="link_VFM_VehiclesForCheckUp"><path codeLine="87" d="M23.364,163.4484 C33.532,165.1844 53.38,168.3164 70.4,169.4484 C109.964,172.0844 155.9,171.3884 184.364,170.5204 " fill="none" id="VFM-VehiclesForCheckUp" style="stroke:#181818;stroke-width:0.4000000000000001;"/><polygon fill="#000000" points="95.1981,165.7944,91.6351,164.4612,91.5319,166.8101,95.1981,165.7944" style="stroke:#000000;stroke-width:0.4000000000000001;"/><text fill="#000000" font-family="sans-serif" font-size="5.2" lengthAdjust="spacing" textLength="16.8" x="96.8" y="167.8598">selects</text><text fill="#000000" font-family="sans-serif" font-size="5.2" lengthAdjust="spacing" textLength="2.8" x="26.3497" y="161.6529">1</text><text fill="#000000" font-family="sans-serif" font-size="5.2" lengthAdjust="spacing" textLength="2" x="179.2319" y="176.622">*</text></g><!--link VFM to VehiclesForCheckUp--><g id="link_VFM_VehiclesForCheckUp"><path codeLine="89" d="M23.224,161.9244 C33.376,161.4404 53.392,160.5644 70.4,160.2484 C99.016,159.7164 106.228,158.5444 134.8,160.2484 C151.288,161.2324 169.66,163.3964 184.304,165.3764 " fill="none" id="VFM-VehiclesForCheckUp-1" style="stroke:#181818;stroke-width:0.4000000000000001;"/><polygon fill="#000000" points="91.2005,155.6638,94.7925,156.9166,94.8428,154.566,91.2005,155.6638" style="stroke:#000000;stroke-width:0.4000000000000001;"/><text fill="#000000" font-family="sans-serif" font-size="5.2" lengthAdjust="spacing" textLength="16.8" x="96.8" y="157.8598">informs</text><text fill="#000000" font-family="sans-serif" font-size="5.2" lengthAdjust="spacing" textLength="2.8" x="26.4357" y="168.7596">1</text><text fill="#000000" font-family="sans-serif" font-size="5.2" lengthAdjust="spacing" textLength="2" x="179.1654" y="163.3716">*</text></g><!--link VFM to CheckUp--><g id="link_VFM_CheckUp"><path codeLine="88" d="M23.232,166.4404 C26.672,168.4124 31.02,170.6004 35.2,171.8484 C122.496,197.9284 149.252,199.1964 239.6,187.4484 C253.568,185.6324 268.868,181.6084 280.776,178.0004 " fill="none" id="VFM-CheckUp" style="stroke:#181818;stroke-width:0.4000000000000001;"/><polygon fill="#000000" points="151.998,190.5963,148.4363,189.2597,148.3309,191.6085,151.998,190.5963" style="stroke:#000000;stroke-width:0.4000000000000001;"/><text fill="#000000" font-family="sans-serif" font-size="5.2" lengthAdjust="spacing" textLength="17.2" x="153.6" y="192.6598">register</text><text fill="#000000" font-family="sans-serif" font-size="5.2" lengthAdjust="spacing" textLength="2.8" x="26.4467" y="174.9973">1</text><text fill="#000000" font-family="sans-serif" font-size="5.2" lengthAdjust="spacing" textLength="2.8" x="274.7945" y="185.0621">1</text></g><!--link Skill to Collaborator--><g id="link_Skill_Collaborator"><path codeLine="91" d="M489.524,81.1324 C504.336,85.1644 534.032,93.2444 554.784,98.8924 " fill="none" id="Skill-Collaborator" style="stroke:#181818;stroke-width:0.4000000000000001;"/><polygon fill="#000000" points="507.5298,82.2318,504.3474,80.1474,503.7301,82.4161,507.5298,82.2318" style="stroke:#000000;stroke-width:0.4000000000000001;"/><text fill="#000000" font-family="sans-serif" font-size="5.2" lengthAdjust="spacing" textLength="20.8" x="509.2" y="83.8598">assigned</text><text fill="#000000" font-family="sans-serif" font-size="5.2" lengthAdjust="spacing" textLength="8" x="492.5595" y="87.8673">1..*</text><text fill="#000000" font-family="sans-serif" font-size="5.2" lengthAdjust="spacing" textLength="8" x="543.6603" y="96.6007">1..*</text></g><!--link Organization to Collaborator--><g id="link_Organization_Collaborator"><path codeLine="95" d="M232.344,93.9604 C273.596,116.0164 371.548,161.4764 456.4,147.8484 C491.984,142.1324 530.908,126.5524 554.744,115.8564 " fill="none" id="Organization-Collaborator" style="stroke:#181818;stroke-width:0.4000000000000001;"/><polygon fill="#000000" points="399.1954,144.6422,395.6653,143.2241,395.506,145.5699,399.1954,144.6422" style="stroke:#000000;stroke-width:0.4000000000000001;"/><text fill="#000000" font-family="sans-serif" font-size="5.2" lengthAdjust="spacing" textLength="8.4" x="400.8" y="146.6598">has</text><text fill="#000000" font-family="sans-serif" font-size="5.2" lengthAdjust="spacing" textLength="2.8" x="235.4018" y="101.6565">1</text><text fill="#000000" font-family="sans-serif" font-size="5.2" lengthAdjust="spacing" textLength="8" x="543.6157" y="123.1124">1..*</text></g><!--link Organization to Team--><g id="link_Organization_Team"><path codeLine="96" d="M232.256,87.9164 C264.632,96.3044 330.916,112.6524 388,121.4484 C401.816,123.5764 417.772,124.8484 428.776,125.5444 " fill="none" id="Organization-Team" style="stroke:#181818;stroke-width:0.4000000000000001;"/><polygon fill="#000000" points="339.1643,108.8828,335.8319,107.0478,335.3898,109.357,339.1643,108.8828" style="stroke:#000000;stroke-width:0.4000000000000001;"/><text fill="#000000" font-family="sans-serif" font-size="5.2" lengthAdjust="spacing" textLength="8.4" x="340.8" y="110.6598">has</text><text fill="#000000" font-family="sans-serif" font-size="5.2" lengthAdjust="spacing" textLength="2.8" x="235.4139" y="87.0063">1</text><text fill="#000000" font-family="sans-serif" font-size="5.2" lengthAdjust="spacing" textLength="2" x="423.5333" y="123.4767">*</text></g><!--link Collaborator to Job--><g id="link_Collaborator_Job"><path codeLine="98" d="M600.928,90.3724 C613.94,81.9684 629.548,71.8924 639.168,65.6804 " fill="none" id="Collaborator-Job" style="stroke:#181818;stroke-width:0.4000000000000001;"/><polygon fill="#000000" points="616.4802,69.8217,612.803,70.7968,614.0784,72.7719,616.4802,69.8217" style="stroke:#000000;stroke-width:0.4000000000000001;"/><text fill="#000000" font-family="sans-serif" font-size="5.2" lengthAdjust="spacing" textLength="8.4" x="618.4" y="73.0598">has</text><text fill="#000000" font-family="sans-serif" font-size="5.2" lengthAdjust="spacing" textLength="2.8" x="604.0707" y="94.5411">1</text><text fill="#000000" font-family="sans-serif" font-size="5.2" lengthAdjust="spacing" textLength="2.8" x="633.1861" y="74.0065">1</text></g><!--link Team to Collaborator--><g id="link_Team_Collaborator"><path codeLine="100" d="M456.548,125.2044 C473.788,123.7644 504.452,120.8084 530.4,116.2484 C538.372,114.8484 547.012,112.9124 554.684,111.0444 " fill="none" id="Team-Collaborator" style="stroke:#181818;stroke-width:0.4000000000000001;"/><polygon fill="#000000" points="503.6205,112.7923,507.3693,113.4391,507.0336,111.112,503.6205,112.7923" style="stroke:#000000;stroke-width:0.4000000000000001;"/><text fill="#000000" font-family="sans-serif" font-size="5.2" lengthAdjust="spacing" textLength="20.8" x="509.2" y="114.6598">assigned</text><text fill="#000000" font-family="sans-serif" font-size="5.2" lengthAdjust="spacing" textLength="2.8" x="459.6262" y="131.2812">1</text><text fill="#000000" font-family="sans-serif" font-size="5.2" lengthAdjust="spacing" textLength="8" x="543.5487" y="117.744">1..*</text></g><!--link Vehicle to Organization--><g id="link_Vehicle_Organization"><path codeLine="102" d="M134.848,79.5404 C153.252,80.2844 175.824,81.2004 191.716,81.8444 " fill="none" id="Vehicle-Organization" style="stroke:#181818;stroke-width:0.4000000000000001;"/><polygon fill="#000000" points="152.4016,76.4257,155.9691,77.7467,156.0643,75.3975,152.4016,76.4257" style="stroke:#000000;stroke-width:0.4000000000000001;"/><text fill="#000000" font-family="sans-serif" font-size="5.2" lengthAdjust="spacing" textLength="8.4" x="158" y="78.6598">has</text><text fill="#000000" font-family="sans-serif" font-size="5.2" lengthAdjust="spacing" textLength="2" x="138.017" y="85.6077">*</text><text fill="#000000" font-family="sans-serif" font-size="5.2" lengthAdjust="spacing" textLength="2.8" x="185.8667" y="87.8367">1</text></g><!--link Vehicle to VehiclesForCheckUp--><g id="link_Vehicle_VehiclesForCheckUp"><path codeLine="103" d="M134.056,122.9404 C138.076,127.4284 142.352,131.7004 146.8,135.4484 C150.444,138.5204 172.064,149.6644 189.344,158.3684 " fill="none" id="Vehicle-VehiclesForCheckUp" style="stroke:#181818;stroke-width:0.4000000000000001;"/><polygon fill="#000000" points="150.4839,132.7857,148.0719,129.8439,146.8034,131.8235,150.4839,132.7857" style="stroke:#000000;stroke-width:0.4000000000000001;"/><text fill="#000000" font-family="sans-serif" font-size="5.2" lengthAdjust="spacing" textLength="19.6" x="152.4" y="133.8598">contains</text><text fill="#000000" font-family="sans-serif" font-size="5.2" lengthAdjust="spacing" textLength="2" x="134.0071" y="131.6385">*</text><text fill="#000000" font-family="sans-serif" font-size="5.2" lengthAdjust="spacing" textLength="2" x="182.1693" y="154.0144">*</text></g><!--link Vehicle to CheckUp--><g id="link_Vehicle_CheckUp"><path codeLine="104" d="M134.84,96.8764 C149.696,105.2804 167.736,115.0844 184.4,123.0484 C217.428,138.8364 257.072,154.3924 280.752,163.3404 " fill="none" id="Vehicle-CheckUp" style="stroke:#181818;stroke-width:0.4000000000000001;"/><polygon fill="#000000" points="207.2201,120.1357,204.4148,117.5661,203.4402,119.7057,207.2201,120.1357" style="stroke:#000000;stroke-width:0.4000000000000001;"/><text fill="#000000" font-family="sans-serif" font-size="5.2" lengthAdjust="spacing" textLength="11.2" x="209" y="121.4598">does</text><text fill="#000000" font-family="sans-serif" font-size="5.2" lengthAdjust="spacing" textLength="2.8" x="138.0463" y="104.5961">1</text><text fill="#000000" font-family="sans-serif" font-size="5.2" lengthAdjust="spacing" textLength="2" x="275.6234" y="168.3405">*</text></g><!--link VehiclesForCheckUp to CheckUp--><g id="link_VehiclesForCheckUp_CheckUp"><path codeLine="106" d="M239.648,169.9364 C252.868,170.1724 268.492,170.4564 280.748,170.6724 " fill="none" id="VehiclesForCheckUp-CheckUp" style="stroke:#181818;stroke-width:0.4000000000000001;"/><polygon fill="#000000" points="255.5997,166.5424,252.0033,165.3023,251.9612,167.6531,255.5997,166.5424" style="stroke:#000000;stroke-width:0.4000000000000001;"/><text fill="#000000" font-family="sans-serif" font-size="5.2" lengthAdjust="spacing" textLength="11.2" x="257.2" y="168.6598">does</text><text fill="#000000" font-family="sans-serif" font-size="5.2" lengthAdjust="spacing" textLength="2" x="242.7814" y="175.9741">*</text><text fill="#000000" font-family="sans-serif" font-size="5.2" lengthAdjust="spacing" textLength="2.8" x="274.7626" y="176.7036">1</text></g><!--SRC=[XLLDQzmm4BtxLmnx2HGIskiI2YLBI0hRGhTDZq6M9hPOMN96sgQRql_UaJzbxxhnnPRqvisRcMVRxxMj1OaAAcUTBCbL284EcFdXf1PoBmhSXQD189H1sCAa05yAvLwqBU1968_PnNXajCLmh14SXT9bMMRmAK1mGBee0oWT-RIp2PiqmljF8P3E3m7lfRCx_OhmFYkrGf2Q92TldYjaJkMpBEZ0qZQk4jh2rYaqMTQfXjNkw0DMA_YJPS1NGmzttxQy4TT_q-tTNXlJ7SJBYWfxL8luIeMm-bL4qHrm0FqIuSkXof6QrGlcNeVsf2wTnUGCMQd99ga_ktmXyOYvSSQ8t948Ziw1uvLhxhGIOTmHgjBUizxDT5SHUZ-ivn97cVqgYD-rE2BDG5ezAYSVuvJdUxP5dXRo7NdGOm4-jdtCmuTnvATX3xTdf_Q0fMPJ98HG6wxrVZDkv2Ii6fTLOv9XEH7FXLAoAiXv_nEZNvDu5ipk6ZS82yq-eqcFGSZdWsONp9iFqQa1hR0IRmcV3sZbSR4mV-lefaIv_r4dDNQ7Prno0ZLQSe8n_SGUya24DcormRuYfci9usko-W2mWijBVhYwUhVgtf4rI4AcyV0nGQQuQEYtKHDBduSFwVdU66SD1Lga3jWWepDwOcRj7J4dR64zuGXCEhm6ZuO_IjEGJi5gQEvwcFWfRe6POxHzSbHvk6vLjwriEW7J9i_QmcFLXKKLoxs8aPFFK9ksgwWVJobY1OlWwPHQy09sGTDY32Hgkdcrs0OyOKaQcmffW4rep_PMNxg6zdEFgJlUYRWsmVKS-nypyEydyBiwkA4FYiARe76uoYL-F9r-ekaqXly5_m00]--></g></svg>